<svg xmlns="http://www.w3.org/2000/svg" font-family="-apple-system, BlinkMacSystemFont, 'Segoe UI', Roboto, sans-serif" viewBox="0 0 1080 576"><title>Go and Rust usage among developers, 2017–2024</title><text x="540" y="42" fill="#1a1a1a" font-size="22" font-weight="600" text-anchor="middle">Go and Rust usage among developers, 2017–2024</text><g fill="#1a1a1a" font-size="13"><path fill="#5a5a5a" d="M880 28h14v14h-14z"/><text x="900" y="40">Go</text><path fill="#dea584" d="M940 28h14v14h-14z"/><text x="960" y="40">Rust</text></g><g stroke="#e0e0e0"><path d="M80 516h960M80 470.4h960M80 424.8h960M80 379.2h960M80 333.6h960M80 288h960M80 242.4h960M80 196.8h960M80 151.2h960M80 105.6h960M80 60h960"/></g><g fill="#5a5a5a" font-size="12" text-anchor="end"><text x="72" y="520">0%</text><text x="72" y="474.4">2%</text><text x="72" y="428.8">4%</text><text x="72" y="383.2">6%</text><text x="72" y="337.6">8%</text><text x="72" y="292">10%</text><text x="72" y="246.4">12%</text><text x="72" y="200.8">14%</text><text x="72" y="155.2">16%</text><text x="72" y="109.6">18%</text><text x="72" y="64">20%</text></g><g fill="#5a5a5a"><path d="M108.75 333.6h45V516h-45zM226.25 242.4h45V516h-45zM343.75 105.6h45V516h-45zM461.25 82.8h45V516h-45zM578.75 128.4h45V516h-45zM696.25 82.8h45V516h-45zM813.75 128.4h45V516h-45zM931.25 105.6h45V516h-45z"/></g><g fill="#dea584"><path d="M276.25 470.4h45V516h-45zM393.75 402h45v114h-45zM511.25 356.4h45V516h-45zM628.75 379.2h45V516h-45zM746.25 310.8h45V516h-45zM863.75 288h45v228h-45zM981.25 265.2h45V516h-45z"/></g><g font-size="12" font-weight="600" text-anchor="middle"><g fill="#1a1a1a"><text x="131.25" y="324">8%</text><text x="248.75" y="233">12%</text><text x="366.25" y="96">18%</text><text x="483.75" y="73">19%</text><text x="601.25" y="119">17%</text><text x="718.75" y="73">19%</text><text x="836.25" y="119">17%</text><text x="953.75" y="96">18%</text></g><text x="178.75" y="510" fill="#aaa" font-weight="400">n/a</text><g fill="#8a4a1a"><text x="298.75" y="461">2%</text><text x="416.25" y="392">5%</text><text x="533.75" y="347">7%</text><text x="651.25" y="370">6%</text><text x="768.75" y="301">9%</text><text x="886.25" y="278">10%</text><text x="1003.75" y="255">11%</text></g></g><path stroke="#1a1a1a" stroke-width="1.5" d="M80 516h960"/><g fill="#1a1a1a" font-size="13" text-anchor="middle"><text x="158.75" y="540">2017</text><text x="276.25" y="540">2018</text><text x="393.75" y="540">2019</text><text x="511.25" y="540">2020</text><text x="628.75" y="540">2021</text><text x="746.25" y="540">2022</text><text x="863.75" y="540">2023</text><text x="981.25" y="540">2024</text></g><text x="540" y="568" fill="#888" font-size="11" text-anchor="middle">Source: JetBrains State of Developer Ecosystem 2024</text></svg>