<svg xmlns="http://www.w3.org/2000/svg" viewBox="0 0 40 40"><title>Go gopher icon</title><path d="M20 2c-5.5 0-10 4.5-10 10v1.2C7.7 13.9 6 16 6 18.6v8.8C6 32.7 12.3 37 20 37s14-4.3 14-9.6v-8.8c0-2.6-1.7-4.7-4-5.4V12c0-5.5-4.5-10-10-10m-4.5 6c1.9 0 3.5 2 3.5 4.5S17.4 17 15.5 17 12 15 12 12.5 13.6 8 15.5 8m9 0c1.9 0 3.5 2 3.5 4.5S26.4 17 24.5 17 21 15 21 12.5 22.6 8 24.5 8m-9 2c-.8 0-1.5.9-1.5 2s.7 2 1.5 2c.3 0 .6-.1.8-.4-.5-.2-.8-.7-.8-1.3 0-.8.6-1.4 1.4-1.4.1 0 .2 0 .3.1-.2-.6-.9-1-1.7-1m9 0c-.8 0-1.5.4-1.7 1 .1 0 .2-.1.3-.1.8 0 1.4.6 1.4 1.4 0 .6-.3 1.1-.8 1.3.2.3.5.4.8.4.8 0 1.5-.9 1.5-2s-.7-2-1.5-2M20 19c1.7 0 3 .7 3 1.5S21.7 22 20 22s-3-.7-3-1.5.7-1.5 3-1.5m-9.5 4.5c.8 0 1.5.7 1.5 1.5v3c0 .8-.7 1.5-1.5 1.5S9 28.8 9 28v-3c0-.8.7-1.5 1.5-1.5m19 0c.8 0 1.5.7 1.5 1.5v3c0 .8-.7 1.5-1.5 1.5S28 28.8 28 28v-3c0-.8.7-1.5 1.5-1.5"/></svg>
