<svg xmlns="http://www.w3.org/2000/svg" xml:space="preserve" id="katman_1" x="0" y="0" viewBox="0 0 800 600"><style id="style1" type="text/css">.st0{fill-rule:evenodd;clip-rule:evenodd;fill:#00acd7}</style><g id="g6" style="fill:#000;fill-opacity:1" transform="translate(-109.343 -82.985)scale(1.27633)"><path id="path1" d="M141.6 255.4c-1.2 0-1.5-.6-.9-1.5l6.2-8c.6-.9 2.1-1.5 3.2-1.5h105.4c1.2 0 1.5.9.9 1.8l-5 7.7c-.6.9-2.1 1.8-3 1.8z" class="st0" style="fill:#000;fill-opacity:1"/><path id="path2" d="M97 282.6c-1.2 0-1.5-.6-.9-1.5l6.2-8c.6-.9 2.1-1.5 3.2-1.5h134.7c1.2 0 1.8.9 1.5 1.8l-2.4 7.1c-.3 1.2-1.5 1.8-2.7 1.8z" class="st0" style="fill:#000;fill-opacity:1"/><path id="path3" d="M168.5 309.8c-1.2 0-1.5-.9-.9-1.8l4.1-7.4c.6-.9 1.8-1.8 3-1.8h59.1c1.2 0 1.8.9 1.8 2.1l-.6 7.1c0 1.2-1.2 2.1-2.1 2.1z" class="st0" style="fill:#000;fill-opacity:1"/><g id="g5" style="fill:#000;fill-opacity:1" transform="translate(55)"><path id="path4" d="M420.1 250.1c-18.6 4.7-31.3 8.3-49.6 13-4.4 1.2-4.7 1.5-8.6-3-4.4-5-7.7-8.3-13.9-11.2-18.6-9.2-36.6-6.5-53.5 4.4-20.1 13-30.4 32.2-30.1 56.1.3 23.6 16.5 43.1 39.9 46.4 20.1 2.7 36.9-4.4 50.2-19.5 2.7-3.2 5-6.8 8-10.9h-57c-6.2 0-7.7-3.8-5.6-8.9 3.8-9.2 10.9-24.5 15.1-32.2.9-1.8 3-4.7 7.4-4.7h107.5c-.6 8-.6 16-1.8 23.9-3.2 21.3-11.2 40.8-24.2 57.9-21.3 28.1-49 45.5-84.2 50.2-28.9 3.8-55.8-1.8-79.5-19.5-21.9-16.5-34.3-38.4-37.5-65.6-3.8-32.2 5.6-61.1 25.1-86.5 21-27.5 48.7-44.9 82.7-51.1 27.8-5 54.3-1.8 78.3 14.5 15.7 10.3 26.9 24.5 34.3 41.6 1.7 2.7.5 4.2-3 5.1" class="st0" style="fill:#000;fill-opacity:1"/><path id="path5" d="M517.8 413.4c-26.9-.6-51.4-8.3-72.1-26-17.4-15.1-28.4-34.3-31.9-57-5.3-33.4 3.8-62.9 23.9-89.2 21.6-28.4 47.6-43.1 82.7-49.3 30.1-5.3 58.5-2.4 84.2 15.1 23.3 15.9 37.8 37.5 41.6 65.9 5 39.9-6.5 72.4-34 100.1-19.5 19.8-43.4 32.2-70.9 37.8-7.8 1.5-15.8 1.8-23.5 2.6m70.3-119.3c-.3-3.8-.3-6.8-.9-9.7-5.3-29.2-32.2-45.8-60.3-39.3-27.5 6.2-45.2 23.6-51.7 51.4-5.3 23 5.9 46.4 27.2 55.8 16.2 7.1 32.5 6.2 48.1-1.8 23.4-12.1 36.1-31 37.6-56.4" style="fill:#000;fill-opacity:1"/></g></g></svg>