<?xml version="1.0" encoding="UTF-8" standalone="no"?>
<svg
   width="700.00098"
   height="670.16498"
   viewBox="0 0 700.00098 670.16498"
   fill="none"
   version="1.1"
   id="svg1"
   sodipodi:docname="logo.svg"
   inkscape:version="1.3 (0e150ed, 2023-07-21)"
   xmlns:inkscape="http://www.inkscape.org/namespaces/inkscape"
   xmlns:sodipodi="http://sodipodi.sourceforge.net/DTD/sodipodi-0.dtd"
   xmlns="http://www.w3.org/2000/svg"
   xmlns:svg="http://www.w3.org/2000/svg">
  <defs
     id="defs1" />
  <sodipodi:namedview
     id="namedview1"
     pagecolor="#ffffff"
     bordercolor="#666666"
     borderopacity="1.0"
     inkscape:showpageshadow="2"
     inkscape:pageopacity="0.0"
     inkscape:pagecheckerboard="0"
     inkscape:deskcolor="#d1d1d1"
     inkscape:zoom="0.79043579"
     inkscape:cx="350.4396"
     inkscape:cy="317.54635"
     inkscape:window-width="1728"
     inkscape:window-height="1051"
     inkscape:window-x="0"
     inkscape:window-y="38"
     inkscape:window-maximized="0"
     inkscape:current-layer="svg1" />
  <path
     fill-rule="evenodd"
     clip-rule="evenodd"
     d="m 290.16,114.665 h -0.068 -0.091 c -56,23 -62.001,74.41 -53.001,102.066 0,0 0.001,0.208 -0.014,0.586 32.419,-22.8 73.875,-35.087 113.012,-35.087 95.065,0 172.131,62.882 172.131,140.451 0,77.569 -77.066,140.451 -172.131,140.451 -0.734,0 -1.549,-0.031 -2.411,-0.063 -4.518,-0.168 -10.338,-0.384 -12.696,3.457 -2.809,4.574 3.384,11.608 6.95,15.643 37.163,42.04 91.068,47.323 105.225,48.711 0.91,0.089 1.656,0.162 2.223,0.228 -124.878,12.077 -271.376,-67.701 -271.422,-206.377 -0.011,-32.688 12.065,-60.47 31.343,-82.583 -0.046,-0.006 -0.092,-0.013 -0.139,-0.019 -0.032,-0.005 -0.064,-0.009 -0.096,-0.014 4.243,-70.96 -23.003,-155.817 -73.968,-172.503 -3.606,-1.181 -7.179,1.531 -7.629,5.299 -6.702,56.129 -21.215,75.584 -36.87,96.572 -23.488,31.487 -40.556,67.879 -39.812,107.844 -8.524,-17.84 -15.435,-36.465 -20.564,-55.723 -0.695,-2.61 -4.988,-10.625 -9.711,-7.937 -3.773,2.148 -6.615,8.02 -8.647,14.142 C 4.008,258.957 0,290.055 0,320.164 c 0,190.647 159.68,350.001 350.001,350.001 193.3,0 350,-156.701 350,-350 0,-73.7 -22.779,-142.079 -61.681,-198.481 1.621,-0.03 3.246,-0.045 4.875,-0.045 15.107,0 29.842,1.292 44.048,3.747 C 665.829,101.592 636.94,82.359 603.314,69.867 625.763,61.726 650.289,56.681 676.069,55.404 634.454,21.417 573.735,0 506.115,0 408.242,0 312.2,37.616 290.16,114.665 Z m 19.886,267.351 C 284.695,355.631 208.77,267.989 208.77,267.989 l 5.877,0.252 118.854,88.775 c 8.905,6.468 21.597,6.403 30.421,-0.156 l 116.547,-88.504 6.188,-0.481 c 0,0 -73.443,85.566 -101.572,113.757 -28.13,28.191 -49.689,26.768 -75.039,0.384 z M 390.957,87.941 c 0,0 1.612,18.236 -16.808,24.037 -21.056,6.631 -30.389,-11.081 -30.389,-11.081 0,0 2.647,-12.163 19.731,-17.789 18.249,-6.01 27.466,4.833 27.466,4.833 z"
     fill="#2A284B"
     id="path1"
     style="fill:#000000;fill-opacity:1" />
</svg>
