<svg xmlns="http://www.w3.org/2000/svg" width="800" height="800" viewBox="0 0 32 32"><title>cloudflare</title><path d="m25.079 15.102-.049-.001q-.131 0-.258.016l.01-.001a.18.18 0 0 0-.158.121v.001l-.422 1.468a1.87 1.87 0 0 0 .197 1.653l-.004-.007a1.67 1.67 0 0 0 1.323.649h.005l2.304.142h.004c.067 0 .127.035.161.087v.001a.25.25 0 0 1 .026.197v-.002a.3.3 0 0 1-.254.194h-.001l-2.401.14a3.9 3.9 0 0 0-3.18 2.366l-.01.026-.176.448a.127.127 0 0 0 .117.177h8.252a.22.22 0 0 0 .208-.156v-.002c.138-.479.218-1.03.22-1.599v-.001a5.923 5.923 0 0 0-5.916-5.907zm-3.445 6.952c.068-.186.107-.401.107-.625a1.86 1.86 0 0 0-.306-1.026l.004.007a1.67 1.67 0 0 0-1.322-.65h-.005l-10.821-.14h-.003a.2.2 0 0 1-.163-.088v-.001a.25.25 0 0 1-.026-.196v.002a.3.3 0 0 1 .253-.195h.001l10.917-.14a3.92 3.92 0 0 0 3.182-2.366l.01-.026.624-1.626a.34.34 0 0 0 .018-.212v.002c-.735-3.203-3.561-5.555-6.936-5.555a7.11 7.11 0 0 0-6.717 4.776l-.015.05a3.197 3.197 0 0 0-5.098 2.219l-.001.014a3.4 3.4 0 0 0 .084 1.14l-.005-.023a4.54 4.54 0 0 0-4.413 4.539v.006q.003.351.047.687l-.003-.028a.22.22 0 0 0 .211.184h19.971a.27.27 0 0 0 .253-.192v-.002l.15-.533z"/></svg>