<svg xmlns="http://www.w3.org/2000/svg" width="700.001" height="670.165" fill="none" viewBox="0 0 700.001 670.165"><path fill="#2a284b" fill-rule="evenodd" d="M290.16 114.665h-.159c-56 23-62.001 74.41-53.001 102.066 0 0 .001.208-.014.586 32.419-22.8 73.875-35.087 113.012-35.087 95.065 0 172.131 62.882 172.131 140.451s-77.066 140.451-172.131 140.451c-.734 0-1.549-.031-2.411-.063-4.518-.168-10.338-.384-12.696 3.457-2.809 4.574 3.384 11.608 6.95 15.643 37.163 42.04 91.068 47.323 105.225 48.711.91.089 1.656.162 2.223.228-124.878 12.077-271.376-67.701-271.422-206.377-.011-32.688 12.065-60.47 31.343-82.583l-.139-.019-.096-.014c4.243-70.96-23.003-155.817-73.968-172.503-3.606-1.181-7.179 1.531-7.629 5.299-6.702 56.129-21.215 75.584-36.87 96.572-23.488 31.487-40.556 67.879-39.812 107.844-8.524-17.84-15.435-36.465-20.564-55.723-.695-2.61-4.988-10.625-9.711-7.937-3.773 2.148-6.615 8.02-8.647 14.142C4.008 258.957 0 290.055 0 320.164c0 190.647 159.68 350.001 350.001 350.001 193.3 0 350-156.701 350-350 0-73.7-22.779-142.079-61.681-198.481q2.432-.045 4.875-.045c15.107 0 29.842 1.292 44.048 3.747-21.414-23.794-50.303-43.027-83.929-55.519 22.449-8.141 46.975-13.186 72.755-14.463C634.454 21.417 573.735 0 506.115 0 408.242 0 312.2 37.616 290.16 114.665m19.886 267.351C284.695 355.631 208.77 267.989 208.77 267.989l5.877.252 118.854 88.775c8.905 6.468 21.597 6.403 30.421-.156l116.547-88.504 6.188-.481s-73.443 85.566-101.572 113.757-49.689 26.768-75.039.384m80.911-294.075s1.612 18.236-16.808 24.037c-21.056 6.631-30.389-11.081-30.389-11.081s2.647-12.163 19.731-17.789c18.249-6.01 27.466 4.833 27.466 4.833" clip-rule="evenodd" style="fill:#000;fill-opacity:1"/></svg>