<?xml version="1.0" encoding="UTF-8" standalone="no"?>
<!-- Created with Inkscape (http://www.inkscape.org/) -->

<svg
   width="500"
   height="500"
   viewBox="0 0 132.29166 132.29167"
   version="1.1"
   id="svg1"
   xml:space="preserve"
   xmlns="http://www.w3.org/2000/svg"
   xmlns:svg="http://www.w3.org/2000/svg"><defs
     id="defs1" /><g
     id="layer1"><path
       style="fill:#000000;fill-opacity:1;stroke:none;stroke-width:0.629178"
       d="m 91.280615,9.2094916 c 3.348361,-0.4349132 7.119807,-0.00566 10.154675,1.5117144 9.33234,4.666168 12.04955,16.693502 6.15336,25.07532 -1.3127,1.866074 -3.03881,3.443688 -4.98807,4.627128 -2.09122,1.269619 -4.399224,2.019021 -6.825273,2.316968 -12.517444,1.537296 -21.903129,-11.377229 -17.696569,-22.925217 1.185555,-3.254601 3.591627,-5.966284 6.376609,-7.964749 1.962338,-1.408145 4.432849,-2.3304195 6.825268,-2.6411644 M 74.63361,10.992488 c -1.522385,2.466883 -3.172147,4.822155 -3.969467,7.657622 -0.368824,1.311648 -0.68676,2.65315 -0.922262,3.995282 -0.08581,0.48906 0.04473,1.329001 -0.273466,1.730725 -0.4244,0.535776 -2.33181,0.339259 -2.991837,0.405253 -2.728073,0.272781 -5.347273,0.827099 -7.99057,1.551674 -5.663221,1.552396 -11.358838,4.81853 -15.648186,8.812503 -1.6122,1.501175 -3.144255,3.098955 -4.527447,4.812735 -0.443803,0.549865 -1.125505,1.885113 -1.829122,2.089866 -0.893615,0.260059 -3.06742,-1.347517 -3.964578,-1.686147 -2.865995,-1.081771 -6.749616,-2.300408 -9.82173,-1.569013 L 22.528471,38.62652 c 1.458397,-3.48444 4.160768,-6.680332 6.632985,-9.488795 7.93324,-9.012236 19.096341,-15.101134 30.822783,-17.446087 3.428763,-0.685654 6.834543,-0.865618 10.321147,-0.865618 1.383802,0 2.996656,-0.227139 4.328224,0.166468 m 41.95046,24.63757 c 2.07214,4.381101 4.69481,8.290242 6.15514,12.984667 4.06302,13.061174 3.53566,27.226802 -2.01664,39.786348 -1.74023,3.936479 -4.03157,8.6096 -7.13496,11.652907 -1.29364,-2.922089 -2.16723,-5.736485 -4.16354,-8.323509 -0.77365,-1.002558 -1.56733,-1.948867 -2.49526,-2.815095 -0.39641,-0.370038 -1.08194,-0.772159 -1.1856,-1.349096 -0.21117,-1.175284 1.71579,-3.554622 2.20752,-4.658717 1.56415,-3.512079 2.70004,-7.17864 3.26108,-10.987025 0.8605,-5.840995 0.44769,-11.981542 -1.24005,-17.645833 -0.80055,-2.686717 -2.27953,-5.154719 -3.04295,-7.824089 4.14039,-2.793621 7.14368,-6.34067 9.32232,-10.820558 h 0.33294 M 22.528471,45.998733 C 34.363697,44.602279 43.047578,57.107461 39.835327,67.925256 37.800074,74.779323 31.685109,78.889084 24.859054,79.697099 12.114733,81.20568 3.3581514,66.874962 8.285133,55.772936 c 2.578102,-5.809272 8.173504,-9.058015 14.243338,-9.774203 m 11.319967,38.906471 c 5.162169,11.979615 19.12812,20.961136 31.962256,21.974046 0.133134,3.10125 0.751868,6.32095 2.049025,9.15585 0.786467,1.7188 2.1185,3.25308 2.778609,4.99411 -21.439199,0 -44.127977,-13.30334 -51.272787,-34.292839 l 6.325865,0.304673 8.157032,-2.13584 m 53.769838,4.708812 c 2.593718,-0.318534 5.512979,-0.155734 7.990563,0.677442 2.071853,0.696727 4.035437,1.836578 5.659981,3.298574 10.72523,9.652138 5.08626,27.832528 -9.32232,29.555758 -1.98899,0.23788 -4.051248,0.016 -5.992923,-0.41746 -1.979231,-0.44186 -3.836515,-1.32471 -5.493512,-2.4851 -9.828564,-6.88291 -9.327807,-21.346016 0.332936,-28.081552 1.987115,-1.385419 4.424973,-2.252873 6.825275,-2.547662 z"
       id="path14" /></g></svg>
