<svg xmlns="http://www.w3.org/2000/svg" width="200" fill="none" viewBox="0 0 235 54"><path fill="#fff" d="M33.671 53.925c-.68-.001-1.34-.228-1.878-.645a3.1 3.1 0 0 1-.78-4.014 3.1 3.1 0 0 1 1.879-1.435 21.23 21.23 0 0 0 9.551-5.502 3.074 3.074 0 0 1 5.026 1.018 3.12 3.12 0 0 1-.676 3.377 27.4 27.4 0 0 1-12.325 7.1q-.392.102-.797.1m-12.604-.034c-.274 0-.547-.036-.81-.11A27.54 27.54 0 0 1 7.98 46.608a3.1 3.1 0 0 1-.903-2.192 3.11 3.11 0 0 1 .903-2.191 3.073 3.073 0 0 1 4.36 0 21.37 21.37 0 0 0 9.532 5.57 3.08 3.08 0 0 1 1.867 1.45 3.1 3.1 0 0 1 .3 2.354 3.1 3.1 0 0 1-1.1 1.653 3.07 3.07 0 0 1-1.873.642zm29.889-17.225a3.075 3.075 0 0 1-2.678-1.562 3.11 3.11 0 0 1-.298-2.354c.494-1.821.746-3.7.748-5.588a21.6 21.6 0 0 0-.713-5.483v-.024a3.12 3.12 0 0 1 .306-2.353 3.069 3.069 0 0 1 4.209-1.139 3.1 3.1 0 0 1 1.439 1.88l.015.057a27.643 27.643 0 0 1-.047 14.28 3.1 3.1 0 0 1-1.105 1.652 3.07 3.07 0 0 1-1.876.635zm-47.064-.147a3.07 3.07 0 0 1-1.878-.644 3.1 3.1 0 0 1-1.098-1.663v-.018A27.9 27.9 0 0 1 0 27.128c0-2.431.322-4.851.957-7.197a3.1 3.1 0 0 1 1.442-1.877 3.07 3.07 0 0 1 4.206 1.15 3.1 3.1 0 0 1 .3 2.353 21.4 21.4 0 0 0-.748 5.571c.001 1.851.24 3.694.712 5.483v.011a3.12 3.12 0 0 1-.316 2.353 3.09 3.09 0 0 1-2.661 1.546zm40.813-23.562a3.06 3.06 0 0 1-2.183-.911 21.4 21.4 0 0 0-9.533-5.56 3.09 3.09 0 0 1-1.867-1.45 3.12 3.12 0 0 1 .234-3.437A3.1 3.1 0 0 1 33.404.42c.401-.052.81-.023 1.2.084a27.5 27.5 0 0 1 12.28 7.165 3.108 3.108 0 0 1-1 5.056 3.1 3.1 0 0 1-1.179.235zm-34.449-.079a3.06 3.06 0 0 1-2.181-.911 3.1 3.1 0 0 1-.904-2.192 3.11 3.11 0 0 1 .904-2.192A27.4 27.4 0 0 1 20.395.474a3.07 3.07 0 0 1 3.24 1.115 3.11 3.11 0 0 1 .215 3.438 3.09 3.09 0 0 1-1.874 1.44 21.2 21.2 0 0 0-9.548 5.507 3.06 3.06 0 0 1-2.172.906z" style="--darkreader-inline-fill:#181a1b"/><path fill="#fff" d="M20.632 40.927a3.05 3.05 0 0 1-1.65-.485l-.021-.011a15.7 15.7 0 0 1-5.304-5.717 15.8 15.8 0 0 1-1.913-7.578c0-3.019.863-5.974 2.486-8.513a15.6 15.6 0 0 1 4.703-4.735 3.07 3.07 0 0 1 4.262.926c.442.692.593 1.532.42 2.335a3.1 3.1 0 0 1-1.344 1.951 9.5 9.5 0 0 0-2.852 2.87 9.6 9.6 0 0 0-1.51 5.166 9.6 9.6 0 0 0 1.16 4.607 9.53 9.53 0 0 0 3.226 3.475 3.112 3.112 0 0 1-.18 5.324 3.07 3.07 0 0 1-1.483.385m13.645-.013a3.07 3.07 0 0 1-2.596-1.423 3.12 3.12 0 0 1-.415-2.337 3.1 3.1 0 0 1 1.35-1.947 9.5 9.5 0 0 0 2.855-2.883 9.6 9.6 0 0 0 1.512-5.166 9.6 9.6 0 0 0-1.161-4.607 9.54 9.54 0 0 0-3.226-3.475 3.114 3.114 0 0 1-.935-4.276 3.068 3.068 0 0 1 4.254-.951l.022.012a15.7 15.7 0 0 1 5.308 5.717 15.8 15.8 0 0 1 1.914 7.58c0 3.02-.863 5.974-2.488 8.513a15.6 15.6 0 0 1-4.71 4.748 3.05 3.05 0 0 1-1.682.495z" style="--darkreader-inline-fill:#e8e6e3"/><path fill="#fff" d="M27.417 31.02a3.86 3.86 0 0 1-2.736-1.137 3.9 3.9 0 0 1-1.135-2.75 3.9 3.9 0 0 1 1.133-2.745 3.86 3.86 0 0 1 2.73-1.14 3.86 3.86 0 0 1 2.73 1.14 3.9 3.9 0 0 1 1.134 2.746 3.9 3.9 0 0 1-1.13 2.744 3.86 3.86 0 0 1-2.726 1.143M78.702 12.638a13.85 13.85 0 0 1 5.521 1.105 14.2 14.2 0 0 1 4.503 3.045 14.3 14.3 0 0 1 3.028 4.528 14.1 14.1 0 0 1 1.099 5.553 14.1 14.1 0 0 1-1.1 5.552 14.3 14.3 0 0 1-3.027 4.528 14.2 14.2 0 0 1-4.503 3.045 13.85 13.85 0 0 1-5.522 1.106 13.8 13.8 0 0 1-5.521-1.106 14.1 14.1 0 0 1-4.503-3.045 14.2 14.2 0 0 1-3.028-4.528 14.1 14.1 0 0 1-1.1-5.552 14.1 14.1 0 0 1 1.1-5.553 14.166 14.166 0 0 1 7.53-7.573 13.8 13.8 0 0 1 5.522-1.105m.026 22.91a8.4 8.4 0 0 0 3.34-.674 8.609 8.609 0 0 0 4.594-4.633 8.6 8.6 0 0 0 .67-3.369 8.6 8.6 0 0 0-.67-3.368 8.596 8.596 0 0 0-4.594-4.637 8.45 8.45 0 0 0-3.34-.673 8.4 8.4 0 0 0-3.34.673 8.6 8.6 0 0 0-2.752 1.86 9 9 0 0 0-1.87 2.777 8.3 8.3 0 0 0-.693 3.368 8.3 8.3 0 0 0 .694 3.369 9 9 0 0 0 1.869 2.776 8.6 8.6 0 0 0 2.751 1.86 8.4 8.4 0 0 0 3.34.67M110.659 26.387a1.57 1.57 0 0 0 0 1.61l7.85 11.781c.484.728.17 1.316-.701 1.316h-4.383a1.33 1.33 0 0 1-.979-.523l-5.114-7.622c-.296-.441-.78-.441-1.073 0l-5.058 7.63a1.33 1.33 0 0 1-.984.528h-4.379c-.871 0-1.185-.594-.701-1.316l7.851-11.781a1.57 1.57 0 0 0 0-1.61l-8.225-12.375c-.484-.726-.168-1.316.701-1.316h4.382a1.31 1.31 0 0 1 .983.528l5.439 8.207c.293.444.778.444 1.073 0l5.49-8.212a1.32 1.32 0 0 1 .979-.525h4.385c.869 0 1.185.594.701 1.316zM129.584 12.638a1.18 1.18 0 0 1 1.181 1.188v26.086a1.182 1.182 0 0 1-1.181 1.188h-3.159a1.18 1.18 0 0 1-.834-.35 1.2 1.2 0 0 1-.347-.838V13.826c.001-.315.126-.617.347-.84a1.18 1.18 0 0 1 .834-.348z" style="--darkreader-inline-fill:#e8e6e3"/><path fill="#fff" d="M164.809 26.842c0 .015-.041.46-.092.99 0 0-.275 2.864-1.007 4.59a14.147 14.147 0 0 1-7.531 7.573 13.85 13.85 0 0 1-5.529 1.105 13.8 13.8 0 0 1-5.522-1.106 14.2 14.2 0 0 1-4.503-3.045 14.3 14.3 0 0 1-3.028-4.528 14.05 14.05 0 0 1-1.099-5.552 14.05 14.05 0 0 1 1.099-5.553 14.3 14.3 0 0 1 3.028-4.528 14.2 14.2 0 0 1 4.503-3.045 13.8 13.8 0 0 1 5.522-1.105c1.579-.01 3.148.254 4.637.782 1.097.394 2.348 1.165 2.909 1.48.56.317 1.095-.022 1.084-.52V1.256a1.19 1.19 0 0 1 1.181-1.188h3.159a1.18 1.18 0 0 1 1.181 1.188v25.586zm-14.124 8.705a8.4 8.4 0 0 0 3.339-.673 8.6 8.6 0 0 0 4.596-4.633 9.7 9.7 0 0 0 .576-2.404c.05-.53.091-.976.091-.99 0-.016-.041-.463-.093-.993a9.4 9.4 0 0 0-.574-2.38 8.644 8.644 0 0 0-4.596-4.609 8.4 8.4 0 0 0-3.339-.673 8.4 8.4 0 0 0-3.342.673 8.6 8.6 0 0 0-2.751 1.86 9 9 0 0 0-1.869 2.777 8.3 8.3 0 0 0-.694 3.369 8.3 8.3 0 0 0 .692 3.37 9 9 0 0 0 1.869 2.776 8.6 8.6 0 0 0 2.751 1.86 8.4 8.4 0 0 0 3.344.67" style="--darkreader-inline-fill:#181a1b"/><path fill="#fff" d="M174.949 12.638c.313 0 .613.126.834.349s.346.524.347.839v26.086a1.2 1.2 0 0 1-.347.839 1.18 1.18 0 0 1-.834.349h-3.159a1.18 1.18 0 0 1-1.181-1.188V13.826a1.182 1.182 0 0 1 1.181-1.188zM234.49 23.203a13.6 13.6 0 0 0-2.574-5.075 14 14 0 0 0-4.817-4.007 13.55 13.55 0 0 0-6.271-1.483 13.85 13.85 0 0 0-5.522 1.105 14.2 14.2 0 0 0-4.502 3.045 14.3 14.3 0 0 0-3.029 4.528 14.1 14.1 0 0 0-1.099 5.553 14.1 14.1 0 0 0 1.099 5.552 14.3 14.3 0 0 0 3.029 4.528 14.2 14.2 0 0 0 4.502 3.046 13.85 13.85 0 0 0 5.522 1.105 13.55 13.55 0 0 0 6.271-1.483c1.931-.987 3.884-2.995 3.884-2.995a22 22 0 0 0 1.617-1.894l.022-.032.294-.468c.303-.487.319-.525.319-.525.26-.577-.147-1.013-.887-1.013h-4.537c-.587 0-1.056.404-1.607.9a8.3 8.3 0 0 1-1.87 1.201 8.26 8.26 0 0 1-3.51.752 8.5 8.5 0 0 1-2.948-.51 8.7 8.7 0 0 1-2.519-1.43 8.5 8.5 0 0 1-1.903-2.18 7 7 0 0 1-.699-1.428c-.221-.71.206-1.294.946-1.294h19.768a1.63 1.63 0 0 0 1.174-.509c.218-.246.337-.565.333-.895v-.428a13.6 13.6 0 0 0-.486-3.666m-6.942-.054H214.34c-.748 0-1.013-.51-.606-1.128 0 0 1.021-1.56 2.397-2.466a8.3 8.3 0 0 1 4.689-1.36h.247a8.3 8.3 0 0 1 4.69 1.36c1.377.906 2.398 2.466 2.398 2.466.406.619.133 1.128-.607 1.128M204.332 35.716h-11.304c-.885 0-1.23-.62-.769-1.38l4.559-7.479 4.834-7.936 1.009-1.648 1.595-2.59c.702-1.141.187-2.068-1.148-2.068h-20.365a1.192 1.192 0 0 0-1.181 1.188v3.008c.001.314.126.616.347.838.221.223.521.348.834.35h11.305c.884 0 1.23.62.768 1.38l-4.559 7.478-4.841 7.93c-.276.456-.731 1.198-1.011 1.651l-1.594 2.59c-.701 1.14-.187 2.068 1.147 2.068h20.374c.313-.001.613-.127.834-.35s.345-.524.346-.838V36.9a1.2 1.2 0 0 0-.348-.835 1.18 1.18 0 0 0-.832-.349" style="--darkreader-inline-fill:#e8e6e3"/></svg>