<svg xmlns="http://www.w3.org/2000/svg" viewBox="0 0 1285.1 504.7"><path d="M.1 369.3h11.8V262.7H.1v-38.9h108.7c20.4 0 35.9 4.2 46.7 12.6 10.7 8.4 16.1 21.9 16.1 40.7s-2.1 19.7-6.4 27.5c-4.3 7.7-10.3 13.1-18.2 16.1l.2 2.4c15.2 2.4 22.7 11.7 22.7 28v18.2H181v38.9h-75.1v-55.7c0-6.2-.9-10.8-2.7-14s-4.7-5.3-8.5-6.4c-3.9-1.1-9.4-1.7-16.5-1.7v38.9h15.6v38.9H0v-38.9zM91 301.6c4.6 0 8-1.2 10.3-3.7s3.4-6.3 3.4-11.5v-8.5c0-5.2-1.2-9-3.4-11.5-2.3-2.5-5.7-3.7-10.3-3.7H78.2v38.9zM345 369.3v38.9h-64.9v-18.5c-11.4 14.5-25.6 21.8-42.6 21.8s-22.9-4.1-29.5-12.3-9.8-19.5-9.8-33.9v-50h-10.4v-38.9h64.9v77.7c0 5.2 1.1 9 3.4 11.5s5.7 3.7 10.3 3.7 8-1.2 10.3-3.7 3.4-6.3 3.4-11.5v-38.9h-12.8v-38.9h67.3v92.9H345zM351.6 402v-35.1H390v2.4c0 7.6 4.8 11.4 14.5 11.4s12.8-2.9 12.8-8.8-1.2-5.5-3.7-7.1-6.8-2.9-12.9-4l-11.8-2.1c-24.8-4.4-37.2-18.5-37.2-42.2s5.2-24.4 15.6-32 24.5-11.4 42.2-11.4 36.4 3.3 50 10V316h-36v-2.4c0-3.2-1.1-5.6-3.2-7.2s-5.2-2.5-9.4-2.5c-7.9 0-11.8 2.5-11.8 7.6s1.1 4.7 3.3 6.2c2.2 1.4 6.2 2.8 12.1 4l13.5 2.6c14 2.7 24.1 7.7 30.1 14.9 6 7.3 9 16.6 9 28s-5 25.4-15 32.9-24.3 11.4-42.8 11.4-39.1-3.2-57.6-9.5zM495.3 399.3c-8.5-8.1-12.7-21.8-12.7-41.1v-42.9h-10.4v-38.9c6 0 10.5-1.5 13.5-4.6s4.5-7.3 4.5-12.7v-10.7h50.2v28h32v38.9h-32v38.9c0 5.2 1.1 9 3.4 11.5s5.7 3.7 10.3 3.7 12.5-.7 19.7-2.1v37.2c-4.4 1.7-10.4 3.4-17.9 4.9s-15.1 2.2-22.9 2.2c-16.7 0-29.3-4.1-37.8-12.2zM784.4 223.9h75.8v38.9h-9.5l-35.3 145.4h-70.8L723 305.9h-2.4l-22.7 102.3h-70.8l-37.7-145.4h-9.5v-38.9h87.6v38.9h-9l9.2 60.4h2.4l22.5-99.2h68.2l20.8 99.2h2.4l9.2-60.4h-9v-38.9zM868.7 393.9c-12.6-11.8-19-28.9-19-51.5s6.3-39.8 19-51.5c12.6-11.8 30.2-17.6 52.6-17.6s38.3 5.8 48.2 17.4 14.8 26 14.8 43.2V351h-76.8v1.4c0 5.8 1.7 10.1 5.2 12.9s9.2 4.1 17.3 4.1 18.8-.7 27.5-2.1 16.3-3.2 22.7-5.5v37.9c-5.5 3-13.6 5.7-24.3 8.2s-22.2 3.7-34.7 3.7c-22.4 0-40-5.9-52.6-17.6zm66.3-69.1V322c0-5.4-1.2-9.2-3.4-11.6-2.3-2.4-5.7-3.5-10.3-3.5s-8 1.2-10.3 3.7-3.4 6.3-3.4 11.5v2.8h27.5zM1009.4 393.9c-12.6-11.8-19-28.9-19-51.5s6.3-39.8 19-51.5c12.6-11.8 30.2-17.6 52.6-17.6s38.3 5.8 48.2 17.4 14.8 26 14.8 43.2V351h-76.8v1.4c0 5.8 1.7 10.1 5.2 12.9s9.2 4.1 17.3 4.1 18.8-.7 27.5-2.1 16.3-3.2 22.7-5.5v37.9c-5.5 3-13.6 5.7-24.3 8.2s-22.2 3.7-34.7 3.7c-22.4 0-40-5.9-52.6-17.6zm66.3-69.1V322c0-5.4-1.2-9.2-3.4-11.6-2.3-2.4-5.7-3.5-10.3-3.5s-8 1.2-10.3 3.7-3.4 6.3-3.4 11.5v2.8h27.5zM1274.9 369.3h10.2v38.9h-58l-24.4-45.5h-5.7v45.5h-64.9v-38.9h10.4V262.7h-10.4v-38.9h64.9V320h5.7l29.4-43.6h50v38.9h-9.7l-20.1 22.5 22.7 31.5z" style="fill:#ffe6d6"/><path d="M641.6 122.1c-46.6 0-88.9 5.6-120.2 14.8v78.2c31.3 9.2 73.7 14.8 120.2 14.8s101-7.4 133.1-18.9v-69.8c-32.1-11.6-79.8-18.9-133.1-18.9M822.7 185.6l-5.5-11.3V173c0-12.9-13.3-24.7-35.8-34.2v68.4c10.5-4.4 19-9.4 25-14.7-1.8 7.2-7.9 21.8-12.8 32-8 14.7-10.9 27.4-10.5 28.1.2.4 3-3.8 7-10.7 9.4-13.4 27.2-39 30.7-45.5 4-7.4 1.8-10.8 1.8-10.8M469.4 173.7c0 2.5.5 4.9 1.5 7.3l-3.3 5.8s-2.6 3.4 2 10.6c4.1 6.3 24.5 31.1 35.2 44.1 4.6 6.7 7.8 10.8 8 10.4.4-.6-2.9-13.1-12-27.4-4.3-7.7-9.4-17.8-12.5-25.3 8.6 5.4 19.8 10.4 33.1 14.6v-80.3c-32.1 10.2-52 24.4-52 40.2" style="fill:#a52b00"/><path d="M854.4 185.5 818.5 159c-.3-1.2-.7-2.4-1-3.5l11.8-17.1c1.2-1.7 1.5-4 .7-6s-2.5-3.4-4.5-3.7l-19.9-3.4c-.8-1.6-1.6-3.1-2.4-4.7l8.4-19.2c.9-2 .7-4.2-.5-6-1.1-1.8-3.1-2.8-5.1-2.8l-20.2.7c-1-1.4-2.1-2.7-3.2-4.1l4.6-20.6c.5-2.1-.1-4.3-1.6-5.8s-3.5-2.1-5.5-1.7L760.4 66l-3.9-3.3.7-21.2c0-2.1-.9-4.2-2.6-5.4s-3.9-1.4-5.8-.5l-18.4 8.8c-1.5-.8-3-1.7-4.5-2.5L722.7 21c-.3-2.1-1.7-3.9-3.6-4.7s-4.1-.6-5.7.7L697 29.3c-1.6-.5-3.2-1-4.9-1.5L685 8c-.7-2-2.4-3.5-4.4-3.9s-4.1.3-5.5 1.8l-13.8 15.5c-1.7-.2-3.3-.4-5-.5l-10.7-18c-1.1-1.8-3-2.9-5-2.9s-4 1.1-5 2.9l-10.7 18c-1.7.1-3.3.3-5 .5L606.1 5.9c-1.4-1.6-3.5-2.3-5.5-1.8-2 .4-3.7 1.9-4.4 3.9l-7.1 19.8c-1.6.5-3.3 1-4.9 1.5L567.8 17c-1.7-1.3-3.8-1.5-5.7-.7s-3.2 2.6-3.6 4.7l-3.2 20.9c-1.5.8-3 1.7-4.5 2.5l-18.4-8.8c-1.9-.9-4-.7-5.8.5-1.7 1.2-2.7 3.2-2.6 5.4l.7 21.2-3.9 3.3-19.7-4.8c-2-.5-4.1.1-5.5 1.7-1.5 1.5-2 3.7-1.6 5.8l4.6 20.6c-1.1 1.3-2.1 2.7-3.2 4.1l-20.2-.7c-2 0-4 1-5.1 2.8s-1.3 4.1-.5 6l8.4 19.2c-.8 1.5-1.6 3.1-2.4 4.7l-19.9 3.4c-2 .3-3.7 1.8-4.5 3.7-.8 2-.5 4.2.7 6l11.8 17.1-.3.9-33.3 35.5s-5.1 4 2.3 13.5c6.6 8.3 40.2 41.3 58 58.6 7.5 8.8 12.7 14.2 13.2 13.7.9-.8-3.6-16.7-18.4-35.4-11.4-16.8-26.2-42.7-22.7-45.6 0 0 4-5 11.9-8.6.3.2-.3-.2 0 0 0 0 167.2 77.3 322.2 1.3 17.7-3.2 28.4 6.3 28.4 6.3 3.7 2.1-5.9 28.7-13.8 46.3-10.7 20-12.3 35.6-11.4 36.1.6.3 4.5-5.6 10-15.1 13.7-19.2 39.7-55.7 44.4-64.6 5.4-10.1 0-12.9 0-12.9" style="fill:#f74c00"/><path d="M585.1 235.2c-.6-.6-1-.9-1-.9l54.8-4.5c-44.7-59.1-80.5-12-84.3-6.8v12.1h30.5zM699.1 234.5c.6-.6 1-.9 1-.9l-52.6-3.9c44.7-61.5 78.3-12.7 82.1-7.4v12.1h-30.5z"/><path d="M783.3 175.9s-6 23.9-43.2 49l-10.4 2.4s-33.8-61.8-81.6 7.8c0 0 14.9-8.7 54.9 1.9 0 0-18.4 28.2-55.4 27.3 0 0 35.5 42.7 89.5-19 0 0 57.1-22.1 61.7-69.6h-15.4z" style="fill:#f74c00"/><path d="M672.4 145.2s16.7-18.3 33.4 0c0 0 13.1 24.5 0 36.7 0 0-21.5 17.1-33.4 0 0 0-14.3-13.5 0-36.7"/><path d="M691.7 152.1c0 7.1-4.2 12.9-9.4 12.9s-9.4-5.8-9.4-12.9 4.2-12.9 9.4-12.9 9.4 5.8 9.4 12.9" style="fill:#fff"/><path d="M597.8 140.2s28.7-12.7 36.5 15.7c0 0 8.2 33.1-23.5 35 0 0-40.5-7.8-12.9-50.6"/><path d="M612.2 152.5c0 7.4-4.3 13.3-9.7 13.3s-9.7-6-9.7-13.3 4.3-13.3 9.7-13.3 9.7 6 9.7 13.3" style="fill:#fff"/><path d="M581.7 239.6c35.3-4.5 55.7-4.9 55.7-4.9-47.2-62.4-85.5-5.9-85.5-5.9-9.6-3.4-19.4-16.8-26.7-29.1l-29.3-8.7c33.7 57.5 58.9 58.3 58.9 58.3 52.3 67.3 77.1 13.2 77.1 13.2-29.4-3.4-50.2-22.9-50.2-22.9" style="fill:#f74c00"/><path d="M478.1 489.1c-2.5 0-4.7-.6-6.5-1.7-1.9-1.1-3.4-2.6-4.7-4.6-1.2-1.9-2-4.2-2.3-6.6l1.2-1.6-.7 13.7h-11.3v-53.9h12.9v27.9l-1.2-1.8c.7-3.1 2.1-5.7 4.3-7.8 2.2-2 5.1-3.1 8.8-3.1s5.5.8 7.8 2.3c2.3 1.6 4.1 3.8 5.4 6.8s1.9 6.5 1.9 10.7-.7 7.6-2 10.5-3.1 5.2-5.5 6.7c-2.3 1.5-5 2.3-8.2 2.3zm-4.5-9.5c2.2 0 4-.8 5.2-2.5 1.3-1.6 1.9-4.2 1.9-7.8s-.6-6.1-1.9-7.8c-1.3-1.6-3-2.5-5.2-2.5s-2.7.4-3.7 1.3-1.8 2-2.4 3.5-.8 3.4-.8 5.5.3 4 .8 5.5c.6 1.5 1.4 2.7 2.4 3.4 1.1.8 2.3 1.2 3.7 1.2zM537.2 450.5l-13.8 37.9c-1.4 4-3 7.2-4.6 9.5-1.7 2.4-3.6 4.1-5.9 5.2s-5 1.6-8.2 1.6-4.1-.2-5.8-.7c-1.8-.4-3.3-1.1-4.6-1.9l2.6-8.7c.9.7 1.9 1.1 2.9 1.4s2.3.4 3.9.4 2.7-.3 3.6-.8 1.7-1.5 2.2-2.9l1-2.3-4.4-10.3-11.4-28.4h14.2l5.8 21.6 1.8 8 2.1-8.3 5.8-21.3zM586.5 438.3c6 0 10.6 1.4 13.9 4.2s5 6.5 5 11.2-1.6 9-4.9 11.7-7.9 4-13.9 4l-1.2.7h-9.9v18.2h-12.8v-50h23.9zm-1.8 22.5q3.75 0 5.7-1.5c1.3-1 1.9-2.6 1.9-4.8s-.6-3.8-1.9-4.8-3.2-1.5-5.7-1.5h-9.2v12.6zm7.7 2.8 16 24.8H594l-12.8-21.9zM626.4 489.1c-2.6 0-4.8-.4-6.8-1.3-1.9-.9-3.5-2.3-4.6-4.3s-1.7-4.5-1.7-7.7v-25.3h12.9v22.3c0 2.4.5 4.1 1.4 5.1 1 1 2.3 1.4 4.1 1.4s1.8-.2 2.6-.5q1.2-.45 2.1-1.5c.9-1.05 1.1-1.6 1.4-2.6.3-1.1.5-2.4.5-3.8v-20.3h12.9v37.9h-11.5l-.4-7.1c-1.2 2.7-2.9 4.7-5.1 5.9-2.2 1.3-4.8 1.9-7.9 1.9zM676.4 489.1c-3.8 0-7.3-.6-10.6-1.9-3.3-1.2-6-3-8.1-5.3l6.1-7.1c1.3 1.6 3 3 5.1 4.1s4.4 1.6 7 1.6 2.9-.2 3.9-.6 1.5-1.2 1.5-2.2-.3-1.3-.8-1.7-1.5-.8-3-1.2l-5.2-1c-4.8-1-8.2-2.4-10.2-4.3q-3-2.85-3-7.5c0-4.65.6-4 1.9-5.9s3.3-3.4 5.9-4.6 6-1.8 10-1.8 7.2.6 10.1 1.7 5.3 2.7 7 4.8l-6.2 7c-1.2-1.6-2.8-2.8-4.7-3.6s-3.9-1.3-5.8-1.3-2.2.1-3 .3-1.4.6-1.9 1-.6.9-.6 1.5.3 1.2.9 1.7 1.8.9 3.5 1.3l6.9 1.4q5.85 1.05 8.4 3.9c1.7 1.9 2.6 4.1 2.6 6.8s-.7 4.6-2 6.5c-1.3 2-3.3 3.6-5.9 4.7s-5.9 1.7-9.9 1.7zM728 450.5v9.2h-30.7v-9.2zm-11.3-12.1v36.4c0 1.8.4 3.1 1.3 3.9s2.1 1.2 3.7 1.2 2.3-.1 3.1-.4q1.35-.45 2.4-1.2l1.4 7.9q-1.95 1.35-4.8 2.1c-2.85.75-3.9.8-5.9.8q-4.35 0-7.5-1.2c-3.15-1.2-3.7-2.1-4.8-3.9s-1.7-4.1-1.8-7v-35zM779.9 438.3v50h-14.5l-15.5-27-3.8-7.4.3 9.2v25.2h-11.5v-50h14.5l15.5 27 3.8 7.4-.3-9.2v-25.2zM804 478.2h25.1v10.1H791v-50h13z" style="fill:#fff0e6"/><path d="M.1 462.9h428.3V476H.1z" style="fill:#e74310"/><path d="M853.9 462.9h428.3V476H853.9z" style="fill:#729ecb"/><path d="M453.8 453.6h13.1v10.5h-13.1z" style="fill:#fff0e6"/></svg>