<svg xmlns="http://www.w3.org/2000/svg" xmlns:xlink="http://www.w3.org/1999/xlink" width="249" height="174" viewBox="0 0 249 174"><title>RustConf 2023 Color</title><defs><path id="a" d="M50.078.002a.62.62 0 0 1 .513.33l.995 1.881q.267.04.535.088L53.689.853c.158-.146.383-.2.592-.146.21.058.375.216.437.424l.61 2.037.506.192 1.827-1.116a.63.63 0 0 1 .957.472l.194 2.117.45.282 2.016-.745a.64.64 0 0 1 .606.09.63.63 0 0 1 .24.558l-.227 2.117q.197.178.388.363l2.123-.343a.63.63 0 0 1 .576.207.61.61 0 0 1 .127.593l-.637 2.028q.161.216.312.437l2.145.075a.624.624 0 0 1 .53.92l-1.024 1.865q.112.24.22.49l2.085.487c.214.05.386.205.455.412a.61.61 0 0 1-.112.595l-1.376 1.632q.064.258.118.518l1.958.884a.623.623 0 0 1 .136 1.052l-1.671 1.336.013.53 1.747 1.245a.623.623 0 0 1-.078 1.063l-1.9.986a9 9 0 0 1-.09.529l1.464 1.552c.15.157.205.38.147.587a.63.63 0 0 1-.428.434l-2.058.602q-.095.254-.194.5L68 30.524a.61.61 0 0 1 .03.606.63.63 0 0 1-.506.342l-2.139.192q-.139.226-.285.447l.753 1.994a.62.62 0 0 1-.091.597.63.63 0 0 1-.564.24l-2.138-.224q-.18.195-.368.385l.343 2.102a.628.628 0 0 1-.809.695l-2.048-.631q-.218.16-.44.308l-.075 2.124a.62.62 0 0 1-.316.52.64.64 0 0 1-.615.005l-1.885-1.015c-.16.075-.327.148-.492.219l-.494 2.066a.64.64 0 0 1-.415.445.62.62 0 0 1-.601-.11l-1.65-1.363q-.261.064-.522.117l-.895 1.936a.63.63 0 0 1-.495.357.63.63 0 0 1-.568-.223l-1.35-1.653c-.178.009-.356.01-.534.015l-1.257 1.727a.635.635 0 0 1-1.066-.075l-.998-1.881c-.179-.024-.357-.058-.535-.088l-1.566 1.444a.63.63 0 0 1-1.031-.278l-.608-2.037-.506-.192-1.826 1.116a.63.63 0 0 1-.958-.472l-.196-2.117q-.229-.138-.45-.282l-2.014.745a.64.64 0 0 1-.606-.093.62.62 0 0 1-.24-.555l.227-2.117c-.134-.121-.263-.238-.39-.364l-2.12.344a.63.63 0 0 1-.58-.207.61.61 0 0 1-.124-.593l.637-2.029a16 16 0 0 1-.314-.436l-2.143-.075a.624.624 0 0 1-.53-.92l1.022-1.865a14 14 0 0 1-.218-.49l-2.087-.487a.63.63 0 0 1-.45-.412.61.61 0 0 1 .111-.596l1.377-1.631a13 13 0 0 1-.118-.519l-1.958-.884a.623.623 0 0 1-.136-1.052l1.67-1.336-.013-.529-1.744-1.244a.63.63 0 0 1-.259-.55.61.61 0 0 1 .335-.508l1.9-.986c.022-.176.055-.352.089-.529l-1.464-1.552a.62.62 0 0 1-.145-.587.62.62 0 0 1 .426-.432l2.058-.604.194-.5-1.127-1.809a.623.623 0 0 1 .477-.948l2.138-.191.285-.446-.753-1.995a.624.624 0 0 1 .655-.838l2.138.225q.184-.199.368-.384l-.348-2.101a.61.61 0 0 1 .21-.571.63.63 0 0 1 .599-.126l2.05.63q.216-.158.44-.308l.076-2.124a.62.62 0 0 1 .316-.52.64.64 0 0 1 .613-.004l1.884 1.014c.16-.075.328-.146.495-.218l.492-2.064a.63.63 0 0 1 .417-.45.62.62 0 0 1 .601.11l1.648 1.363q.26-.065.524-.117l.893-1.938a.63.63 0 0 1 .495-.357.63.63 0 0 1 .568.222l1.35 1.654.534-.013L49.521.257a.64.64 0 0 1 .557-.255m-.595 5.62L47.541 7.99a1.19 1.19 0 0 1-1.657.168l-2.239-1.806c-3.401 1.085-7.756 3.863-9.783 8.857l1.769 3.261c.162.265.211.585.136.885-.076.302-.27.56-.537.72l-2.61 1.562c0 7.543 5.412 11.571 5.967 12.012l2.579-.895c.296-.103.62-.086.902.049.283.134.5.374.602.668l1.024 2.895c2.208.697 4.54.906 6.839.617a16 16 0 0 0 6.337-2.205l.263-3.058a1.177 1.177 0 0 1 1.276-1.063l2.789.24c4.428-4.379 2.969-12.559 2.853-13.066l-3.076-.915a1.167 1.167 0 0 1-.79-1.455l1.082-3.572a15.97 15.97 0 0 0-11.784-6.267m-7.985 29.156a1.3 1.3 0 0 0-1.272-.238 1.28 1.28 0 0 0-.793 1.632c.114.32.35.582.66.73.309.147.665.165.988.053a1.275 1.275 0 0 0 .417-2.176m18.276-2.626a1.29 1.29 0 0 0-1.33 1.173c-.06.68.428 1.286 1.11 1.38a1.29 1.29 0 0 0 1.33-1.173 1.284 1.284 0 0 0-1.11-1.38M20.46 4.888l4.923.075V14.4h-5.344v-.154c-.579-2.779-2.232-4.415-6.192-4.415-3.996 0-6.15 3.35-6.15 9.517s2.693 9.514 7.69 9.514c3.728 0 6-2.624 7.145-4.6l3.998 2.283c-2.19 3.766-6.228 6.888-11.917 6.888C5.112 33.433 0 28.485 0 19.35S4.845 5.27 13.844 5.27a12.06 12.06 0 0 1 6.575 1.94V5.8zm50.016.679 5.384.154 3.54-.114 13.382 16.37V10.214c-.693 0-1.23.075-2.232.19l-.922.114.076-4.912 5.381.114h.003l5.386-.114.075 4.912-.922-.114c-1.002-.115-1.539-.19-2.23-.19v22.954s-4.459-.115-4.615-.115h-1.038L78.171 16.457v12.028c.69 0 1.23-.08 2.228-.192l.92-.119-.076 4.913-5.384-.075-5.384.075-.076-4.913.925.115c1.002.117 1.537.192 2.227.192V12.879c0-1.908-.768-2.933-2.227-3.352l-.925-.267zm57.683-.302L129 15.73l-4.535.57c-.922-5.785-4.77-6.087-11.69-6.087v8.562c3.192 0 4.887-2.17 6.23-4.454l1.845 1.142v10.43l-1.845.762c-1.347-2.282-3.116-4.833-6.23-4.833v6.659c.693 0 1.232-.073 2.23-.227l.922-.155-.19 4.988s-5.27-.115-6.807-.115c-.535 0-1.521.014-2.58.032l-.802.015c-1.742.031-3.425.068-3.425.068l-.191-4.988.924.155c1 .152 1.54.227 2.23.227V10.213c-.689 0-1.265.075-2.268.267l-.922.154.192-4.988h9.439c3.509-.019 16.631-.381 16.631-.381M32.543 17.293c-.465.007-.893.26-1.115.666-.225.403-.21.897.035 1.29.374.595 1.16.782 1.769.42.606-.36.806-1.14.447-1.743-.236-.4-.67-.642-1.136-.633m31.005-3.707a1.295 1.295 0 0 0-1.61.86c-.132.44-.019.913.298 1.246.316.333.79.472 1.24.368a1.279 1.279 0 0 0 .071-2.474M47.216 4.178a1.303 1.303 0 0 0-1.82.187 1.274 1.274 0 0 0 .19 1.802c.554.445 1.37.363 1.82-.186a1.273 1.273 0 0 0-.19-1.803"/><path id="c" d="M20.677 0c7.737 0 12.847 3.986 12.847 10.32 0 5.665-4.444 9.265-10.938 10.127 5.922.959 7.784 5.71 10.983 5.71.813 0 1.673-.38 2.675-.719l.145 9.601c-1.575.576-3.344.961-5.017.961-4.631 0-6.447-3.84-8.739-7.539-1.909-3.117-4.344-6.095-7.64-6.672l-.571-.097v7.584c.86 0 1.528-.096 2.771-.237l1.145-.146-.098 6.193-8.594-.145-9.552.145L0 28.8l1.145.193c1.24.237 2.865.289 3.727.289V6.14c-.862 0-2.39.097-3.629.337l-1.24.289.095-6.29L14.324.146c.192 0 6.162-.146 6.353-.146m83.819 5.665v10.179h-5.634c0-2.544-3.346-4.8-6.545-4.8-3.103 0-4.776.72-4.776 2.11 0 5.043 19.34 2.737 19.34 13.973 0 5.472-5.014 8.396-14.326 8.396-2.818 0-6.304-1.15-8.645-3.117l-.145 3.12-5.538.098v-11.14h6.162c.38 3.84 4.201 5.76 8.166 5.76 3.438 0 5.253-.769 5.253-2.16 0-4.798-18.628-2.641-18.628-13.971 0-5.423 4.683-8.352 13.375-8.352a11.4 11.4 0 0 1 6.735 2.16l.098-2.158zm17.536-5.19.09 5.812 5.78-.096.098 6.095-1.147-.099a88 88 0 0 0-4.68-.19v13.441c0 2.978 3.152 3.455 5.156 3.455l.145 5.76c-1.292.478-3.248.861-5.4.861-4.44 0-9.454-1.728-9.454-7.969V11.993c-.862 0-2.963.094-4.203.192l-1.146.096.098-6.094 5.78.098 1.385-5.81zM52.148 6.153c0 2.017-.477 3.939-.477 5.806v7.499c0 6.625 1.435 9.072 5.255 9.072l5.253-1.966V11.966c-.86 0-1.528.096-2.771.237l-1.145.146.098-6.192 8.598.146 5.253-.146c-.004 2.004-.483 3.923-.483 5.795v17.281c.862 0 2.484-.047 3.727-.286l1.145-.193-.094 6.243L66 35.478l-2.628-5.322-10.744 4.277c-7.69 0-10.508-3.17-10.508-11.762V11.959c-.862 0-2.484.047-3.727.291l-1.145.193.093-6.29 9.553.146zm-35.006-.249c-.909 0-1.816.045-2.72.045v10.66h-.004v.003l2.77.045c4.394 0 6.782-1.727 6.782-5.52 0-3.31-2.29-5.233-6.828-5.233"/><path id="e" d="M84.297.007a3.19 3.19 0 0 1 2.619 1.714l3.787 7.22 1.421.243 5.942-5.558a3.18 3.18 0 0 1 3.045-.761 3.21 3.21 0 0 1 2.225 2.192l2.314 7.835 1.338.514 6.938-4.29a3.2 3.2 0 0 1 3.123-.148 3.21 3.21 0 0 1 1.768 2.584l.74 8.147 1.19.75 7.647-2.865a3.21 3.21 0 0 1 3.09.477 3.23 3.23 0 0 1 1.23 2.88l-.861 8.126 1.028.975 8.056-1.313a3.18 3.18 0 0 1 2.938 1.062c.74.83.982 1.994.651 3.067l-2.421 7.795c.273.371.55.76.835 1.175l8.136.29a3.18 3.18 0 0 1 2.672 1.622c.55.977.566 2.159.035 3.132l-3.884 7.167.582 1.317 7.92 1.88a3.23 3.23 0 0 1 2.312 2.107 3.19 3.19 0 0 1-.568 3.09l-5.224 6.276q.172.701.317 1.39l7.423 3.398a3.24 3.24 0 0 1 1.857 2.522 3.21 3.21 0 0 1-1.16 2.916l-6.35 5.143.038 1.412 6.619 4.785c.906.646 1.4 1.716 1.328 2.865a3.2 3.2 0 0 1-1.71 2.622l-7.205 3.793-.193 1.146-.05.278 5.547 5.956c.77.81 1.055 1.972.757 3.05a3.22 3.22 0 0 1-2.188 2.232l-7.813 2.317-.513 1.347 4.28 6.947c.588.948.644 2.132.146 3.131a3.21 3.21 0 0 1-2.58 1.772l-8.128.74-.748 1.194 2.858 7.662a3.23 3.23 0 0 1-.475 3.096 3.22 3.22 0 0 1-2.874 1.233l-8.111-.864q-.483.521-.973 1.033l1.3 8.07a3.2 3.2 0 0 1-1.06 2.948 3.18 3.18 0 0 1-3.063.65l-7.778-2.426q-.555.413-1.173.839l-.287 8.153a3.24 3.24 0 0 1-1.621 2.678 3.21 3.21 0 0 1-3.125.033l-7.152-3.89-1.315.582-1.874 7.94a3.24 3.24 0 0 1-2.104 2.3 3.16 3.16 0 0 1-3.083-.57l-6.263-5.234q-.7.169-1.386.317l-3.392 7.438a3.23 3.23 0 0 1-2.516 1.863 3.2 3.2 0 0 1-2.91-1.164l-5.13-6.361-1.406.038-4.776 6.632a3.22 3.22 0 0 1-2.832 1.332 3.19 3.19 0 0 1-2.616-1.714l-3.78-7.225-1.146-.194-.278-.049-5.941 5.542a3.19 3.19 0 0 1-3.043.762 3.22 3.22 0 0 1-2.228-2.193l-2.312-7.83-1.34-.517-6.936 4.292a3.214 3.214 0 0 1-4.893-2.437l-.737-8.145-1.19-.75-7.648 2.865a3.222 3.222 0 0 1-4.32-3.357l.83-7.864h1.447l-.847 8.011a1.784 1.784 0 0 0 2.39 1.859l8.325-3.119 1.035.672 1.344.837.804 8.866a1.777 1.777 0 0 0 2.705 1.335l7.547-4.667L51.907 160l2.514 8.516c.174.59.64 1.046 1.23 1.21a1.75 1.75 0 0 0 1.676-.418l6.476-6.043 1.533.274.617.1.655.096 4.13 7.873c.281.545.826.901 1.436.943a1.79 1.79 0 0 0 1.57-.734l5.194-7.218 2.458-.063.362-.015 5.582 6.922c.386.479.995.721 1.604.641a1.8 1.8 0 0 0 1.399-1.03l3.693-8.107.356-.071a46 46 0 0 0 2.043-.468l.353-.089 6.826 5.707a1.74 1.74 0 0 0 1.694.312 1.8 1.8 0 0 0 1.171-1.273l2.039-8.639 1.681-.739.915-.422 7.792 4.237c.54.292 1.19.285 1.723-.02.533-.307.871-.863.898-1.478l.313-8.88.3-.205a46 46 0 0 0 1.717-1.224l.293-.223 8.478 2.642a1.75 1.75 0 0 0 1.688-.356c.468-.403.69-1.022.588-1.632l-1.412-8.787.973-1.015.966-1.044 8.824.941a1.78 1.78 0 0 0 1.59-.68 1.79 1.79 0 0 0 .265-1.715l-3.112-8.346.804-1.247.702-1.135 8.835-.804a1.78 1.78 0 0 0 1.346-2.713l-4.664-7.57.318-.779.715-1.878 8.495-2.522a1.78 1.78 0 0 0 1.21-1.231 1.76 1.76 0 0 0-.419-1.68l-6.046-6.491.276-1.536.1-.616.095-.66 7.856-4.137c.542-.283.9-.828.942-1.438a1.82 1.82 0 0 0-.531-1.436l-.2-.169-7.205-5.204-.064-2.464-.014-.36 6.908-5.596c.477-.387.72-.997.64-1.607a1.8 1.8 0 0 0-1.029-1.402l-8.09-3.7-.072-.36a49 49 0 0 0-.465-2.044l-.088-.356 5.69-6.833c.398-.472.517-1.12.313-1.703a1.8 1.8 0 0 0-1.284-1.173l-8.617-2.045-.829-1.885-.333-.717 4.229-7.808a1.78 1.78 0 0 0-.025-1.732 1.75 1.75 0 0 0-1.47-.895l-8.862-.314-.204-.3a47 47 0 0 0-.827-1.178l-.62-.837 2.64-8.495a1.76 1.76 0 0 0-.356-1.692 1.76 1.76 0 0 0-1.628-.59l-8.769 1.431-1.013-.975-1.044-.968.94-8.845a1.79 1.79 0 0 0-.68-1.596 1.78 1.78 0 0 0-1.71-.263l-8.327 3.12-1.033-.671-1.343-.84-.804-8.852a1.778 1.778 0 0 0-2.708-1.348l-7.545 4.67-2.66-1.031-2.515-8.516a1.78 1.78 0 0 0-1.23-1.211 1.75 1.75 0 0 0-1.675.418l-6.479 6.06-1.848-.328-.955-.143-4.131-7.872a1.75 1.75 0 0 0-1.437-.944 1.79 1.79 0 0 0-1.568.732l-5.198 7.219-2.456.066-.36.014-5.584-6.923a1.77 1.77 0 0 0-1.603-.64c-.611.08-1.14.469-1.397 1.03l-3.694 8.104-1.37.294-1.382.334-6.828-5.705a1.73 1.73 0 0 0-1.692-.312 1.8 1.8 0 0 0-1.17 1.287l-2.042 8.638-1.881.83-.715.334-7.794-4.24a1.77 1.77 0 0 0-1.728.023c-.535.3-.873.86-.893 1.475l-.31 8.881-.303.205q-.619.423-1.175.826l-.835.623-8.478-2.644a1.74 1.74 0 0 0-1.686.356 1.77 1.77 0 0 0-.59 1.631l1.43 8.788-.975 1.015-.966 1.044-8.825-.94a1.77 1.77 0 0 0-1.59.682 1.79 1.79 0 0 0-.264 1.714l3.112 8.342-.804 1.25-.705 1.136-8.833.801a1.78 1.78 0 0 0-1.428.98 1.79 1.79 0 0 0 .082 1.734l4.653 7.554H4.671L.482 51.185a3.23 3.23 0 0 1-.146-3.13c.495-.999 1.47-1.669 2.579-1.771l8.129-.741.748-1.193-2.858-7.664a3.227 3.227 0 0 1 3.349-4.329l8.111.864q.487-.525.973-1.033l-1.312-8.07a3.2 3.2 0 0 1 1.059-2.948 3.18 3.18 0 0 1 3.06-.65l7.779 2.426c.373-.276.762-.552 1.173-.839l.288-8.15a3.19 3.19 0 0 1 1.622-2.678 3.19 3.19 0 0 1 3.123-.036l7.151 3.893 1.315-.585L48.5 6.613a3.24 3.24 0 0 1 2.103-2.315 3.16 3.16 0 0 1 3.085.57l6.262 5.233q.699-.168 1.388-.316l3.39-7.439A3.24 3.24 0 0 1 67.243.483a3.2 3.2 0 0 1 2.91 1.164l5.13 6.362 1.408-.038 4.773-6.633a3.23 3.23 0 0 1 2.832-1.33"/><path id="g" d="M56.464 76.309c1.971-.252 8.65-.415 11.874 7.852.35.89.885 2.477 1.503 4.31l.622 1.836.43 1.253c.793 2.29 1.594 4.485 2.15 5.564 1.34 2.827 5.78 7.786 9.503 7.34l25.65-3.242c.246-.027.51-.09.791-.178l1.739-.556-.89 1.59a64.4 64.4 0 0 1-5.022 7.654l-.244.317-11.514-.992a3.95 3.95 0 0 0-2.902.92 3.95 3.95 0 0 0-1.403 2.705l-1.08 12.646-.312.19a63.8 63.8 0 0 1-25.563 8.963c-2.713.345-5.443.519-8.178.519-6.58 0-13.08-1.012-19.406-3.032l-.341-.11-3.129-8.907h1.527l2.721 7.755a62.4 62.4 0 0 0 26.62 2.35 62.4 62.4 0 0 0 24.68-8.573l1.02-11.92a5.38 5.38 0 0 1 1.908-3.682 5.37 5.37 0 0 1 3.955-1.251l10.724.918a64 64 0 0 0 3.895-5.819l-25.07 3.166c-4.473.573-9.45-4.91-10.975-8.129-.85-1.645-2.136-5.467-3.275-8.833-.61-1.818-1.142-3.383-1.482-4.246-2.844-7.304-8.642-7.163-10.35-6.95L41.08 79.703l1.278 10.089 14.34-1.81c1.479-.183 1.792.63 1.859 1.132l2.301 18.171c.065.504-.047 1.374-1.515 1.56l-27 3.408v-1.45l26.82-3.384a2 2 0 0 0 .252-.045l-2.282-17.99c-.053.004-.136.007-.254.022L41.11 91.396l-1.64-12.94zm-33.74 46.638a5.9 5.9 0 0 1 2.12.557 5.876 5.876 0 0 1-.599 10.836 5.88 5.88 0 0 1-4.487-.247 5.84 5.84 0 0 1-3.003-3.351 5.88 5.88 0 0 1 3.6-7.483c.626-.223 1.274-.308 1.922-.312zm-.42 1.413a4.44 4.44 0 0 0-4.33 3.454 4.43 4.43 0 0 0 2.41 4.983 4.4 4.4 0 0 0 3.383.187 4.446 4.446 0 0 0 2.721-5.656 4.43 4.43 0 0 0-4.185-2.968M98.157 113.6l.466.022a5.89 5.89 0 0 1 5.097 4.08 5.88 5.88 0 0 1-1.812 6.265 5.83 5.83 0 0 1-3.776 1.382 5.89 5.89 0 0 1-5.521-3.86 5.87 5.87 0 0 1 1.722-6.5 5.83 5.83 0 0 1 4.29-1.367zm.341 1.462a4.4 4.4 0 0 0-3.235 1.026 4.43 4.43 0 0 0-1.363 4.728 4.45 4.45 0 0 0 3.843 3.082 4.41 4.41 0 0 0 3.233-1.026 4.4 4.4 0 0 0 1.562-3.012 4.44 4.44 0 0 0-4.04-4.798M57.175 6.942l.369.023c18.828 1.097 36.151 10.385 47.535 25.481l.222.288-4.413 14.708a3.99 3.99 0 0 0 2.67 4.957L116.23 56.2l.092.406a65 65 0 0 1 1.537 11.007l.038.67-7.132.9c-.1.016-.134.038-.134.038-.011.018-.04.118-.014.33l.376 2.959c.742 5.841-1.49 9.308-6.81 10.594a9.4 9.4 0 0 1-2.226.261c-2.936 0-5.751-1.277-6.435-3.159-3.168-10.171-6.408-12.111-11.775-15.328l-1.242-.747.784-.647c7.68-6.354 11.183-12.69 10.401-18.842-1.068-8.423-7.72-12.878-11.592-14.782-5.807-2.85-11.978-2.874-13.676-2.662L0 35.838l.916-1.325c8.008-11.56 19.76-20.284 33.09-24.565l.37-.116 9.223 7.5a3.97 3.97 0 0 0 2.918.87 3.95 3.95 0 0 0 2.677-1.45zm.659 1.476-7.514 9.237a5.39 5.39 0 0 1-3.649 1.974 5.4 5.4 0 0 1-3.977-1.196l-8.616-7.003c-12.365 4.058-23.313 12.031-31.03 22.568l65.194-8.231c1.946-.246 8.336-.223 14.494 2.798 4.131 2.03 11.23 6.8 12.383 15.892.817 6.452-2.592 13-10.138 19.475 5.193 3.122 8.685 5.472 11.91 15.808.531 1.458 3.92 2.698 6.953 1.962 3.099-.75 6.549-2.452 5.718-9.016l-.376-2.957c-.06-.495.01-.918.21-1.253.257-.417.7-.684 1.187-.72l5.796-.733c-.204-3.26-.662-6.5-1.37-9.688l-11.867-3.558a5.42 5.42 0 0 1-3.63-6.745l4.202-14.013C92.654 18.525 75.97 9.58 57.834 8.42m-.045 38.425c1.113-.14 8.632.227 9.347 5.875.272 2.147-.71 4.02-2.845 5.424-2.207 1.454-4.94 1.973-6.372 2.154L37.5 62.873l-1.68-13.257zm7.917 6.06c-.561-4.424-6.853-4.74-7.74-4.631L37.43 50.865l1.318 10.405 18.988-2.399c2.23-.28 4.33-.98 5.76-1.926 1.667-1.097 2.41-2.46 2.21-4.042m43.637-13.454c1.37-.738 2.98-.9 4.47-.448a5.884 5.884 0 0 1 3.94 7.313 5.84 5.84 0 0 1-2.847 3.483 5.8 5.8 0 0 1-2.77.704 5.9 5.9 0 0 1-4.722-2.372 5.88 5.88 0 0 1-.92-5.195 5.83 5.83 0 0 1 2.849-3.485m4.06.928a4.38 4.38 0 0 0-3.374.341 4.4 4.4 0 0 0-2.15 2.631 4.437 4.437 0 0 0 2.976 5.523c1.124.343 2.34.22 3.374-.34a4.44 4.44 0 0 0 2.31-4.351 4.44 4.44 0 0 0-3.137-3.804M44.615.033a5.83 5.83 0 0 1 4.307 1.284 5.876 5.876 0 0 1 .856 8.26 5.85 5.85 0 0 1-4.57 2.168 5.876 5.876 0 0 1-4.551-9.576A5.85 5.85 0 0 1 44.617.033m.607 1.407a4.4 4.4 0 0 0-3.45 1.634 4.45 4.45 0 0 0 .648 6.243 4.434 4.434 0 0 0 6.239-.642 4.44 4.44 0 0 0 .556-4.694 4.45 4.45 0 0 0-3.993-2.541"/><path id="i" d="M0 0h6.884v7H0z"/></defs><g fill="none" fill-rule="evenodd"><g transform="translate(0 103)"><mask id="b" fill="#fff"><use xlink:href="#a"/></mask><path fill="#36235b" d="M-.134 43.19h129.372V-.203H-.134z" mask="url(#b)"/></g><g transform="translate(1 67)"><mask id="d" fill="#fff"><use xlink:href="#c"/></mask><path fill="#d13b62" d="M-.258 36.25h128.314V-.021H-.258z" mask="url(#d)"/></g><g transform="translate(72)"><mask id="f" fill="#fff"><use xlink:href="#e"/></mask><path fill="#d13b62" d="M-.11 174.166h165.248V-.249H-.111z" mask="url(#f)"/></g><g transform="translate(96 16)"><mask id="h" fill="#fff"><use xlink:href="#g"/></mask><path fill="#d13b62" d="M-.26 135.25h118.243V-.13H-.26z" mask="url(#h)"/></g><path fill="#36235b" d="M38.035 66.72c0-1.615 1.349-2.376 2.94-2.814.38-.104 1.222-.357 1.222-.946 0-.495-.576-.657-1.095-.657-.946 0-1.58.45-2.237 1.003L38 62.27C38.842 61.61 39.66 61 41.056 61c1.338 0 2.71.565 2.71 1.949 0 1.488-1.5 1.937-2.606 2.283-.97.312-1.534.635-1.534 1.223v.069h4.013v1.245h-5.604zM62.94 66.639c1.119 0 2.064-.992 2.064-2.145 0-1.176-.945-2.133-2.064-2.133-1.142 0-2.053.957-2.053 2.133 0 1.153.911 2.145 2.053 2.145m0-5.639c1.972 0 3.633 1.545 3.633 3.494 0 1.938-1.66 3.494-3.633 3.494-1.983 0-3.62-1.556-3.62-3.494 0-1.949 1.637-3.494 3.62-3.494M82.15 66.72c0-1.615 1.348-2.376 2.94-2.814.38-.104 1.222-.357 1.222-.946 0-.495-.576-.657-1.096-.657-.945 0-1.58.45-2.237 1.003l-.865-1.037C82.956 61.61 83.775 61 85.17 61c1.338 0 2.71.565 2.71 1.949 0 1.488-1.499 1.937-2.606 2.283-.969.312-1.534.635-1.534 1.223v.069h4.013v1.245H82.15z"/><g transform="translate(103.18 61)"><mask id="j" fill="#fff"><use xlink:href="#i"/></mask><path fill="#36235b" d="M2.93 2.745h1.048c.496 0 .843-.265.843-.658 0-.576-.646-.784-1.154-.784-.795 0-1.626.485-2.237 1.027l-.888-.97C1.315.693 2.399 0 3.69 0 4.832 0 6.4.508 6.4 1.891c0 .554-.392 1.003-.75 1.211.554.196 1.235.646 1.235 1.58C6.885 6.158 5.362 7 3.46 7 2.11 7 .992 6.562 0 5.616l.877-1.038c.68.646 1.487 1.119 2.583 1.119 1.026 0 1.845-.404 1.845-1.096 0-.553-.657-.657-1.061-.657H2.929z" mask="url(#j)"/></g></g></svg>