<svg width="394" height="61" viewBox="0 0 394 61" fill="none" xmlns="http://www.w3.org/2000/svg">
<path d="M344.147 60.9004L204.729 54.4566L207.131 6.65601L358.499 13.6269L356.566 51.9963L344.147 60.9004Z" fill="#FEDB31"/>
<path d="M208.205 5.19217e-05L100 4.83118L102.08 51.4136L210.284 46.5825L208.205 5.19217e-05Z" fill="#E94D51"/>
<path d="M356.567 51.9965L344.089 60.9005L345.495 51.9965H356.567Z" fill="#FAB42D"/>
<path d="M122.367 29.516H118.267V40.7046H111.003V10.302H124.535C131.974 10.302 135.84 13.5824 135.84 19.7918C135.84 24.4196 133.556 27.4071 129.69 28.6959L137.891 40.5289V40.646H129.221L122.367 29.516ZM118.267 16.8043V23.4823H124.183C127.171 23.4823 128.635 22.3107 128.635 20.0262C128.635 17.9173 127.346 16.8043 124.3 16.8043H118.267Z" fill="#020203"/>
<path d="M152.653 34.0267H152.535C151.422 39.4746 148.611 41.4077 144.744 41.4077C139.531 41.4077 137.305 37.9515 137.305 32.738V16.6873H144.276V30.7463C144.276 33.2066 145.389 35.1397 148.259 35.1397C151.071 35.1397 152.653 33.4995 152.653 30.7463V16.6873H159.506V40.6462H152.653V34.0267Z" fill="#020203"/>
<path d="M161.146 33.2651L167.59 31.9764C168.234 34.671 169.64 36.2527 172.628 36.2527C174.854 36.2527 175.967 35.4326 176.025 33.9681C176.025 32.6793 175.088 31.9178 170.812 31.0391C164.075 29.6332 161.791 27.3486 161.791 23.4238C161.791 18.8546 165.071 16.0428 171.808 16.0428C178.662 16.0428 181.532 18.8546 182.411 23.3067L175.85 24.7711C175.264 22.1937 174.151 20.9635 171.749 20.9635C169.699 20.9635 168.586 21.7836 168.586 23.0724C168.586 24.3611 169.172 25.2984 173.917 26.177C180.77 27.5244 182.762 30.1019 182.762 33.7338C182.762 38.4201 179.599 41.3491 172.452 41.3491C164.368 41.4076 161.908 37.7172 161.146 33.2651Z" fill="#020203"/>
<path d="M186.101 22.4866H183.289V16.7458H186.101V10.6536H192.955V16.6872H199.34V22.428H193.014V31.8007C193.014 33.7338 193.717 34.6125 195.825 34.6125C196.88 34.6125 198.11 34.261 198.989 34.0267L199.75 40.4118C197.934 40.9976 196.704 41.3491 194.068 41.3491C188.503 41.3491 186.16 37.6586 186.16 33.0894V22.4866H186.101Z" fill="#020203"/>
<path d="M228.863 37.41C227.516 34.6568 225.348 29.7947 223.825 26.1628H223.65C223.825 30.0876 223.884 34.7739 223.884 37.7615V49.4187H216.913V19.0747H227.867L232.847 29.2675C234.487 32.7237 236.361 37.1171 237.709 40.5147H237.884C237.767 37 237.709 33.5438 237.709 30.7906V19.0747H244.621V49.4187H234.897L228.863 37.41Z" fill="#020203"/>
<path d="M262.078 43.5609H261.96C260.906 47.6615 258.27 49.9461 254.228 49.9461C250.069 49.9461 246.964 47.6615 246.964 42.9751C246.964 38.6403 249.542 35.6527 255.868 35.6527H262.078V34.5983C262.078 32.0208 260.965 30.6149 258.329 30.6149C256.044 30.6149 254.579 31.6108 254.111 34.4226L247.609 33.4853C248.194 28.4475 251.123 24.8741 258.563 24.8741C265.827 24.8741 268.873 28.3889 268.873 34.5397V49.4188H262.019V43.5609H262.078ZM262.078 40.2219V39.519H256.923C254.872 39.519 253.701 40.4562 253.701 41.745C253.701 43.2094 254.638 44.381 257.216 44.381C260.144 44.3224 262.078 42.6237 262.078 40.2219Z" fill="#020203"/>
<path d="M272.973 31.2007H270.161V25.4599H272.973V19.4263H279.827V25.4599H286.154V31.2007H279.827V40.5734C279.827 42.5065 280.53 43.3852 282.639 43.3852C283.693 43.3852 284.923 43.0337 285.802 42.7994L286.564 49.1845C284.748 49.7703 283.518 50.1218 280.881 50.1218C275.316 50.1218 272.973 46.4313 272.973 41.8621V31.2007V31.2007Z" fill="#020203"/>
<path d="M288.087 22.8824V18.3718H295.292V22.8824H288.087ZM288.262 49.4188V25.4599H295.175V49.4188H288.262Z" fill="#020203"/>
<path d="M297.166 37.4101C297.166 29.4433 302.028 24.757 309.585 24.757C317.142 24.757 322.004 29.3847 322.004 37.4101C322.004 45.3183 317.317 50.1218 309.585 50.1218C301.853 50.1218 297.166 45.3183 297.166 37.4101ZM304.079 37.3515C304.079 41.2763 306.012 43.7952 309.526 43.7952C313.1 43.7952 315.091 41.2763 315.091 37.3515C315.091 33.4853 313.041 31.0249 309.585 31.0249C306.07 31.0249 304.079 33.5438 304.079 37.3515Z" fill="#020203"/>
<path d="M330.732 49.4188H323.82V25.4599H330.732V32.1965H330.791C331.904 26.6901 334.774 24.8156 338.641 24.8156C343.854 24.8156 346.022 28.2717 346.022 33.4267V49.4774H339.168V35.4184C339.168 32.9581 338.055 31.0835 335.184 31.0835C332.373 31.0835 330.791 32.7237 330.791 35.4184V49.4188H330.732Z" fill="#020203"/>
<path opacity="0.2" d="M51.9454 54.2093C71.2997 54.2093 86.9895 52.6267 86.9895 50.6744C86.9895 48.7222 71.2997 47.1395 51.9454 47.1395C32.5911 47.1395 16.9014 48.7222 16.9014 50.6744C16.9014 52.6267 32.5911 54.2093 51.9454 54.2093Z" fill="#1D1D1C"/>
<path d="M80.7828 36.8717L81.8331 34.6391C81.8331 34.546 81.8331 34.36 81.8331 34.267C81.8331 32.1274 77.5362 30.453 73.6212 28.8716V30.174C73.2392 29.9879 72.8573 29.8949 72.3799 29.7089V29.0577C66.7461 27.1042 58.3431 25.8019 48.9853 25.7089C40.7734 25.7089 33.4207 26.6391 27.8824 28.1274V30.267V27.6623C22.2487 29.3367 18.7156 31.7554 18.7156 34.453C18.7156 34.9182 18.8111 35.2902 19.0021 35.6623L18.4292 36.6856C18.4292 36.6856 17.9517 37.2437 18.8111 38.453C19.4795 39.5693 27.5005 50.0809 27.5005 50.0809C28.7419 49.8949 26.6411 41.0577 25.5908 39.8484C27.1186 40.7786 35.426 45.4298 49.0808 45.4298C63.7859 45.4298 75.0535 39.9414 75.9129 39.1972C75.6264 40.4065 76.6768 49.6158 76.6768 49.6158C76.6768 49.6158 79.9234 39.6623 80.5918 38.5461C81.1647 37.5228 80.7828 36.8717 80.7828 36.8717Z" fill="#A52D17"/>
<path d="M86.1205 34.1023L79.8183 29.5441C79.7228 29.3581 79.7228 29.1721 79.6274 28.986L81.728 26.1023C81.919 25.8232 82.0145 25.4511 81.8236 25.079C81.7281 24.7069 81.3461 24.5209 81.0597 24.4279L77.6221 23.8697C77.5266 23.5907 77.3356 23.3116 77.2402 23.0325L78.6725 19.7767C78.8635 19.4046 78.7679 19.0325 78.577 18.7535C78.386 18.4744 78.0041 18.2883 77.7176 18.2883L74.1845 18.3813C73.9936 18.1023 73.8025 17.9162 73.6116 17.7302L74.471 14.1953C74.5665 13.8232 74.471 13.4511 74.1845 13.1721C73.8981 12.893 73.6116 12.8 73.2297 12.893L69.792 13.7302C69.6011 13.5441 69.3147 13.3581 69.1237 13.1721L69.2191 9.54413C69.2191 9.17204 69.0282 8.79995 68.7417 8.6139C68.4552 8.42785 68.0733 8.33485 67.6914 8.5209L64.4447 10.0092C64.1583 9.8232 63.9673 9.73018 63.6809 9.54413L63.1079 6.00926C63.0124 5.63717 62.8215 5.3581 62.4395 5.17206C62.1531 4.98601 61.7711 5.07904 61.4846 5.26509L58.62 7.31158C58.3335 7.21856 58.0471 7.12554 57.7606 7.03252L56.5193 3.68368C56.4238 3.31159 56.1373 3.12553 55.7554 3.0325C55.3734 2.93948 55.087 3.03252 54.8005 3.31159L52.4133 5.91623C52.1268 5.91623 51.8403 5.8232 51.5539 5.8232L49.7396 2.75345C49.5486 2.47438 49.2621 2.28833 48.8802 2.28833C48.4982 2.28833 48.2118 2.47438 48.0209 2.75345L46.1111 5.8232C45.8246 5.8232 45.5382 5.91623 45.2517 5.91623L42.8645 3.31159C42.578 3.03252 42.2916 2.93948 41.9096 3.0325C41.5277 3.12553 41.2412 3.31159 41.1457 3.68368L39.9044 7.03252C39.6179 7.12554 39.3314 7.21856 39.045 7.31158L36.1803 5.17206C35.8939 4.98601 35.5119 4.89298 35.2255 5.07903C34.939 5.17205 34.6525 5.54414 34.557 5.91623L33.9841 9.45113C33.6976 9.54416 33.5067 9.7302 33.2202 9.91625L29.9736 8.42787C29.6872 8.24182 29.3052 8.33485 28.9233 8.5209C28.6368 8.70695 28.4458 9.07904 28.4458 9.45113L28.5413 13.079C28.3503 13.2651 28.0638 13.4511 27.8728 13.6372L24.4353 12.7999C24.0533 12.7069 23.6714 12.8 23.4804 13.079C23.1939 13.3581 23.0985 13.7302 23.194 14.1023L23.9578 17.6372C23.7669 17.8232 23.5759 18.1023 23.3849 18.2883L19.8519 18.1953C19.47 18.1953 19.1835 18.3814 18.9925 18.6604C18.8015 18.9395 18.8016 19.3116 18.8971 19.6837L20.3294 22.9395C20.1384 23.2186 20.0429 23.4976 19.9474 23.7767L16.4143 24.3349C16.0323 24.4279 15.7459 24.6139 15.6504 24.986C15.555 25.3581 15.5549 25.7302 15.7459 26.0093L17.7511 28.893C17.7511 28.986 17.7511 28.986 17.7511 29.079L11.9264 35.1255C11.9264 35.1255 11.067 35.7767 12.3084 37.4511C13.4542 38.8465 26.4405 50.4744 26.4405 50.4744C26.4405 50.4744 17.9421 37.2651 18.6105 36.8C18.6105 36.8 19.088 34.8465 19.088 34.9395C19.088 34.9395 49.5486 51.5906 76.5717 36.0558C79.6273 35.4976 81.728 35.4976 81.728 35.4976C82.3965 35.8697 76.5717 50.0093 76.5717 50.0093C76.5717 50.0093 85.2611 38.0092 86.1205 36.5209C87.0754 34.5674 86.1205 34.1023 86.1205 34.1023Z" fill="#E6421D"/>
<path d="M19.279 37.4512C19.279 37.4512 24.8173 46.1953 28.6368 49.2651C27.3 44.3349 25.5813 40.0558 25.5813 40.0558C35.1301 43.8698 56.8058 50.1953 77.0492 38.5674L76.5718 49.9163L81.7281 35.7767" stroke="#1E1F1D" stroke-width="0.75" stroke-miterlimit="10" stroke-linecap="round" stroke-linejoin="round"/>
<path d="M86.598 34.1023C86.598 34.1023 87.5529 34.5674 86.598 36.3348C85.7386 37.8232 77.0492 49.8232 77.0492 49.8232" stroke="#1E1F1D" stroke-width="0.75" stroke-miterlimit="10" stroke-linecap="round" stroke-linejoin="round"/>
<path d="M86.598 34.1023L80.2957 29.5441C80.2002 29.3581 80.2003 29.1721 80.1048 28.986L82.2055 26.1023C82.3965 25.8232 82.492 25.4511 82.301 25.079C82.2055 24.7069 81.8236 24.5209 81.5371 24.4279L78.0995 23.8697C78.004 23.5907 77.8131 23.3116 77.7176 23.0325L79.1499 19.7767C79.3409 19.4046 79.2454 19.0325 79.0544 18.7535C78.8634 18.4744 78.4815 18.2883 78.195 18.2883L74.662 18.3813C74.471 18.1023 74.28 17.9162 74.089 17.7302L74.9484 14.1953C75.0439 13.8232 74.9484 13.4511 74.662 13.1721C74.3755 12.893 74.089 12.8 73.7071 12.893L70.2695 13.7302C70.0785 13.5441 69.7921 13.3581 69.6011 13.1721L69.6966 9.54413C69.6966 9.17204 69.5056 8.79995 69.2191 8.6139C68.9327 8.42785 68.5508 8.33485 68.1688 8.5209L64.9222 10.0092C64.6357 9.8232 64.4448 9.73018 64.1583 9.54413L63.5853 6.00926C63.4898 5.63717 63.2989 5.3581 62.917 5.17206C62.6305 4.98601 62.2486 5.07904 61.9621 5.26509L59.0974 7.31158C58.811 7.21856 58.5245 7.12554 58.238 7.03252L56.9967 3.68368C56.9012 3.31159 56.6148 3.12553 56.2328 3.0325C55.8509 2.93948 55.5644 3.03252 55.2779 3.31159L52.8907 5.91623C52.6043 5.91623 52.3178 5.8232 52.0313 5.8232L50.217 2.75345C50.0261 2.47438 49.7396 2.28833 49.3576 2.28833C48.9757 2.28833 48.6893 2.47438 48.4983 2.75345L46.5886 5.8232C46.3021 5.8232 46.0156 5.91623 45.7291 5.91623L43.3419 3.31159C43.0555 3.03252 42.769 2.93948 42.3871 3.0325C42.0051 3.12553 41.7186 3.31159 41.6231 3.68368L40.3818 7.03252C40.0954 7.12554 39.8089 7.21856 39.5224 7.31158L36.6578 5.17206C36.3713 4.98601 35.9894 4.89298 35.7029 5.07903C35.4164 5.17205 35.1299 5.54414 35.0344 5.91623L34.4615 9.45113C34.1751 9.54416 33.9842 9.7302 33.6977 9.91625L30.4511 8.42787C30.1646 8.24182 29.7827 8.33485 29.4007 8.5209C29.1143 8.70695 28.9233 9.07904 28.9233 9.45113L29.0188 13.079C28.8278 13.2651 28.5412 13.4511 28.3503 13.6372L24.9127 12.7999C24.5308 12.7069 24.1488 12.8 23.9578 13.079C23.6714 13.3581 23.576 13.7302 23.6715 14.1023L24.4353 17.6372C24.2443 17.8232 24.0534 18.1023 23.8624 18.2883L20.3294 18.1953C19.9474 18.1953 19.6609 18.3814 19.47 18.6604C19.279 18.9395 19.279 19.3116 19.3745 19.6837L20.8068 22.9395C20.6158 23.2186 20.5203 23.4976 20.4248 23.7767L16.8917 24.3349C16.5098 24.4279 16.2234 24.6139 16.1279 24.986C16.0324 25.3581 16.0324 25.7302 16.2234 26.0093L18.2286 28.893C18.2286 28.986 18.2286 28.986 18.2286 29.079L12.4038 35.1255C12.4038 35.1255 11.5445 35.7767 12.7858 37.4511C13.9317 38.8465 23.4804 47.8697 26.918 50.4744C23.9578 44.7069 18.2286 36.6139 18.2286 36.6139" stroke="#1E1F1D" stroke-width="0.75" stroke-miterlimit="10" stroke-linecap="round" stroke-linejoin="round"/>
<path d="M47.6647 36.8827L54.0624 36.4176C54.0624 36.4176 53.8715 37.4409 53.0121 38.1851C53.0121 38.1851 50.8158 40.5106 48.3331 37.999C48.3331 37.906 47.8557 37.4409 47.6647 36.8827Z" fill="#020203"/>
<path d="M18.9983 29.4447C16.7066 28.7005 14.0329 26.0028 13.1735 24.5144C13.1735 24.5144 20.5261 15.7703 8.30363 11.9563C7.53972 15.8633 8.68557 21.2586 8.68557 21.2586C8.68557 21.2586 5.15254 19.5842 4.29315 13.0726C4.29315 13.0726 -5.25565 20.0493 8.01717 26.2819C8.01717 26.2819 10.4998 28.7005 15.4652 33.0726" fill="#E6421E"/>
<path d="M18.9983 29.4447C16.7066 28.7005 14.0329 26.0028 13.1735 24.5144C13.1735 24.5144 20.5261 15.7703 8.30363 11.9563C7.53972 15.8633 8.68557 21.2586 8.68557 21.2586C8.68557 21.2586 5.15254 19.5842 4.29315 13.0726C4.29315 13.0726 -5.25565 20.0493 8.01717 26.2819C8.01717 26.2819 10.4998 28.7005 15.4652 33.0726" stroke="#1E1F1D" stroke-width="0.75" stroke-miterlimit="10" stroke-linejoin="round"/>
<path d="M57.3882 34.7674C59.5504 34.7674 61.3032 32.685 61.3032 30.1163C61.3032 27.5475 59.5504 25.4651 57.3882 25.4651C55.226 25.4651 53.4732 27.5475 53.4732 30.1163C53.4732 32.685 55.226 34.7674 57.3882 34.7674Z" fill="#1E1E1C"/>
<path d="M55.6695 32.0697C56.7769 32.0697 57.6747 31.0285 57.6747 29.7442C57.6747 28.4598 56.7769 27.4186 55.6695 27.4186C54.562 27.4186 53.6642 28.4598 53.6642 29.7442C53.6642 31.0285 54.562 32.0697 55.6695 32.0697Z" fill="white"/>
<path d="M44.5929 34.7674C46.7551 34.7674 48.5079 32.685 48.5079 30.1163C48.5079 27.5475 46.7551 25.4651 44.5929 25.4651C42.4307 25.4651 40.6779 27.5475 40.6779 30.1163C40.6779 32.685 42.4307 34.7674 44.5929 34.7674Z" fill="#1E1E1C"/>
<path d="M43.0651 32.0697C44.1725 32.0697 45.0703 31.0285 45.0703 29.7442C45.0703 28.4598 44.1725 27.4186 43.0651 27.4186C41.9576 27.4186 41.0598 28.4598 41.0598 29.7442C41.0598 31.0285 41.9576 32.0697 43.0651 32.0697Z" fill="white"/>
<path d="M74.7956 32.2363C74.7956 32.2363 76.1325 35.6781 71.2626 40.8874L69.7348 41.6316C69.7348 41.6316 58.1808 34.2828 57.2259 47.3991C57.2259 47.3991 61.3318 44.0502 65.9153 44.0502C65.9153 44.0502 64.101 48.9805 58.3718 50.1898C58.3718 50.1898 65.4378 55.306 71.4536 44.0502C71.4536 44.0502 79.4746 38.6549 78.4242 31.399" fill="#E6421D"/>
<path d="M74.7956 32.2363C74.7956 32.2363 76.1325 35.6781 71.2626 40.8874L69.7348 41.6316C69.7348 41.6316 58.1808 34.2828 57.2259 47.3991C57.2259 47.3991 61.3318 44.0502 65.9153 44.0502C65.9153 44.0502 64.101 48.9805 58.3718 50.1898C58.3718 50.1898 65.4378 55.306 71.4536 44.0502C71.4536 44.0502 79.4746 38.6549 78.4242 31.399" stroke="#1E1F1D" stroke-width="0.75" stroke-miterlimit="10"/>
<path d="M391.68 6.99996L348 11.4874L350.32 34.0669L394 29.5794L391.68 6.99996Z" fill="#61BA8F"/>
<path d="M369.782 13.9694L370.636 22.4419C370.755 23.6229 370.634 24.6725 370.273 25.5907C369.911 26.5025 369.304 27.2412 368.454 27.8067C367.602 28.3659 366.499 28.7137 365.145 28.8503C363.207 29.0457 361.677 28.6974 360.556 27.8054C359.435 26.9134 358.783 25.5592 358.6 23.7427L357.737 15.1836L361.56 14.7983L362.392 23.0589C362.493 24.0538 362.752 24.7571 363.169 25.1689C363.587 25.5807 364.158 25.75 364.884 25.6769C365.403 25.6245 365.817 25.4855 366.125 25.2599C366.433 25.0279 366.639 24.6927 366.744 24.2542C366.855 23.815 366.877 23.2617 366.81 22.5942L365.979 14.3528L369.782 13.9694Z" fill="#0B0B0B"/>
<path d="M385.393 26.6145L381.099 27.0474L377.774 21.9459L376.716 22.7335L377.19 27.4415L373.368 27.8268L371.949 13.7509L375.771 13.3656L376.387 19.4792C376.517 19.155 376.669 18.8284 376.843 18.4997C377.024 18.1702 377.2 17.8575 377.371 17.5614L379.892 12.9502L384.051 12.5309L380.248 19.2845L385.393 26.6145Z" fill="#0B0B0B"/>
</svg>