<svg xmlns="http://www.w3.org/2000/svg" width="394" height="61" fill="none" viewBox="0 0 394 61"><path fill="#fedb31" d="m344.147 60.9-139.418-6.443 2.402-47.801 151.368 6.97-1.933 38.37z"/><path fill="#e94d51" d="M208.205 0 100 4.831l2.08 46.583 108.204-4.831z"/><path fill="#fab42d" d="M356.567 51.997 344.089 60.9l1.406-8.905z"/><path fill="#020203" d="M122.367 29.516h-4.1v11.189h-7.264V10.302h13.532c7.439 0 11.305 3.28 11.305 9.49 0 4.628-2.284 7.615-6.15 8.904l8.201 11.833v.117h-8.67zm-4.1-12.712v6.678h5.916c2.988 0 4.452-1.171 4.452-3.456 0-2.109-1.289-3.222-4.335-3.222z"/><path fill="#020203" d="M152.653 34.027h-.118c-1.113 5.448-3.924 7.38-7.791 7.38-5.213 0-7.439-3.455-7.439-8.669v-16.05h6.971v14.058c0 2.46 1.113 4.394 3.983 4.394 2.812 0 4.394-1.64 4.394-4.394V16.687h6.853v23.96h-6.853zM161.146 33.265l6.444-1.289c.644 2.695 2.05 4.277 5.038 4.277 2.226 0 3.339-.82 3.397-2.285 0-1.289-.937-2.05-5.213-2.929-6.737-1.406-9.021-3.69-9.021-7.615 0-4.57 3.28-7.381 10.017-7.381 6.854 0 9.724 2.812 10.603 7.264l-6.561 1.464c-.586-2.577-1.699-3.808-4.101-3.808-2.05 0-3.163.82-3.163 2.11 0 1.288.586 2.225 5.331 3.104 6.853 1.347 8.845 3.925 8.845 7.557 0 4.686-3.163 7.615-10.31 7.615-8.084.059-10.544-3.632-11.306-8.084M186.101 22.487h-2.812v-5.741h2.812v-6.092h6.854v6.033h6.385v5.741h-6.326v9.373c0 1.933.703 2.811 2.811 2.811 1.055 0 2.285-.351 3.164-.585l.761 6.385c-1.816.586-3.046.937-5.682.937-5.565 0-7.908-3.69-7.908-8.26V22.487zM228.863 37.41c-1.347-2.753-3.515-7.615-5.038-11.247h-.175c.175 3.925.234 8.61.234 11.598V49.42h-6.971V19.075h10.954l4.98 10.192c1.64 3.457 3.514 7.85 4.862 11.248h.175c-.117-3.515-.175-6.971-.175-9.724V19.075h6.912v30.344h-9.724zM262.078 43.56h-.118c-1.054 4.101-3.69 6.386-7.732 6.386-4.159 0-7.264-2.285-7.264-6.97 0-4.336 2.578-7.323 8.904-7.323h6.21v-1.055c0-2.577-1.113-3.983-3.749-3.983-2.285 0-3.75.996-4.218 3.808l-6.502-.938c.585-5.037 3.514-8.61 10.954-8.61 7.264 0 10.31 3.514 10.31 9.665v14.879h-6.854V43.56zm0-3.338v-.703h-5.155c-2.051 0-3.222.937-3.222 2.226 0 1.464.937 2.636 3.515 2.636 2.928-.059 4.862-1.757 4.862-4.16M272.973 31.2h-2.812v-5.74h2.812v-6.034h6.854v6.034h6.327v5.74h-6.327v9.373c0 1.934.703 2.812 2.812 2.812 1.054 0 2.284-.351 3.163-.586l.762 6.386c-1.816.585-3.046.937-5.683.937-5.565 0-7.908-3.69-7.908-8.26zM288.087 22.882v-4.51h7.205v4.51zm.175 26.537v-23.96h6.913v23.96zM297.166 37.41c0-7.967 4.862-12.653 12.419-12.653s12.419 4.628 12.419 12.653c0 7.908-4.687 12.712-12.419 12.712s-12.419-4.804-12.419-12.712m6.913-.058c0 3.924 1.933 6.443 5.447 6.443 3.574 0 5.565-2.519 5.565-6.443 0-3.867-2.05-6.327-5.506-6.327-3.515 0-5.506 2.519-5.506 6.327M330.732 49.419h-6.912v-23.96h6.912v6.738h.059c1.113-5.507 3.983-7.381 7.85-7.381 5.213 0 7.381 3.456 7.381 8.61v16.051h-6.854V35.418c0-2.46-1.113-4.334-3.984-4.334-2.811 0-4.393 1.64-4.393 4.334v14z"/><path fill="#1d1d1c" d="M51.945 54.21c19.355 0 35.045-1.583 35.045-3.536 0-1.952-15.69-3.535-35.045-3.535-19.354 0-35.044 1.583-35.044 3.535s15.69 3.535 35.044 3.535" opacity=".2"/><path fill="#a52d17" d="m80.783 36.872 1.05-2.233v-.372c0-2.14-4.297-3.814-8.212-5.395v1.302c-.382-.186-.764-.28-1.241-.465v-.651c-5.634-1.954-14.037-3.256-23.395-3.35-8.212 0-15.564.931-21.103 2.42v2.139-2.605c-5.633 1.675-9.166 4.093-9.166 6.791 0 .465.095.837.286 1.21l-.573 1.023s-.477.558.382 1.767c.669 1.116 8.69 11.628 8.69 11.628 1.24-.186-.86-9.023-1.91-10.233 1.528.93 9.835 5.582 23.49 5.582 14.705 0 25.972-5.489 26.832-6.233-.287 1.21.764 10.419.764 10.419s3.246-9.954 3.915-11.07c.573-1.023.19-1.674.19-1.674"/><path fill="#e6421d" d="m86.12 34.102-6.302-4.558c-.095-.186-.095-.372-.19-.558l2.1-2.884c.191-.279.287-.65.096-1.023-.096-.372-.478-.558-.764-.651l-3.438-.558c-.095-.28-.286-.558-.382-.838l1.433-3.255c.19-.372.095-.745-.096-1.024s-.573-.465-.86-.465l-3.532.093c-.191-.279-.383-.465-.573-.65l.859-3.536c.096-.372 0-.744-.287-1.023-.286-.279-.572-.372-.954-.279l-3.438.837c-.19-.186-.477-.372-.668-.558l.095-3.628c0-.372-.19-.744-.477-.93s-.669-.28-1.05-.093l-3.247 1.488c-.287-.186-.478-.279-.764-.465l-.573-3.535c-.096-.372-.286-.65-.668-.837-.287-.186-.669-.093-.955.093L58.62 7.312l-.86-.28-1.24-3.348c-.096-.372-.383-.558-.765-.651-.382-.094-.668 0-.955.279l-2.387 2.604c-.286 0-.573-.093-.86-.093l-1.813-3.07a1.01 1.01 0 0 0-.86-.465c-.382 0-.668.186-.86.465l-1.909 3.07c-.286 0-.573.093-.86.093l-2.386-2.604c-.287-.28-.573-.373-.955-.28-.382.094-.669.28-.764.652l-1.242 3.349-.859.279-2.865-2.14c-.286-.186-.668-.279-.955-.093-.286.093-.572.465-.668.837l-.573 3.535c-.286.093-.477.28-.764.465l-3.246-1.488c-.287-.186-.669-.093-1.05.093-.287.186-.478.558-.478.93l.095 3.628c-.19.186-.477.372-.668.558l-3.438-.837c-.382-.093-.764 0-.955.279-.286.28-.381.651-.286 1.023l.764 3.535c-.191.186-.382.465-.573.651l-3.533-.093a1.01 1.01 0 0 0-.86.465c-.19.28-.19.652-.095 1.024l1.432 3.255c-.19.28-.286.559-.382.838l-3.533.558c-.382.093-.668.279-.764.651s-.095.744.096 1.023l2.005 2.884v.186l-5.825 6.047s-.859.65.382 2.325c1.146 1.395 14.133 13.023 14.133 13.023S17.941 37.265 18.61 36.8c0 0 .477-1.953.477-1.86 0 0 30.46 16.65 57.484 1.116 3.055-.558 5.156-.558 5.156-.558.669.372-5.156 14.511-5.156 14.511s8.69-12 9.549-13.488c.954-1.954 0-2.419 0-2.419"/><path stroke="#1e1f1d" stroke-linecap="round" stroke-linejoin="round" stroke-miterlimit="10" stroke-width=".75" d="M19.279 37.451s5.538 8.744 9.358 11.814c-1.337-4.93-3.056-9.21-3.056-9.21 9.55 3.815 31.225 10.14 51.468-1.488l-.477 11.35 5.156-14.14M86.598 34.102s.955.465 0 2.233c-.86 1.488-9.549 13.488-9.549 13.488"/><path stroke="#1e1f1d" stroke-linecap="round" stroke-linejoin="round" stroke-miterlimit="10" stroke-width=".75" d="m86.598 34.102-6.302-4.558c-.096-.186-.096-.372-.191-.558l2.1-2.884c.192-.279.287-.65.096-1.023-.096-.372-.477-.558-.764-.651L78.1 23.87c-.096-.28-.287-.558-.382-.838l1.432-3.255c.19-.372.095-.745-.096-1.024-.19-.279-.573-.465-.859-.465l-3.533.093a4 4 0 0 0-.573-.65l.86-3.536c.095-.372 0-.744-.287-1.023s-.573-.372-.955-.279l-3.437.837c-.191-.186-.478-.372-.669-.558l.096-3.628c0-.372-.191-.744-.478-.93-.286-.186-.668-.28-1.05-.093l-3.247 1.488c-.286-.186-.477-.279-.764-.465l-.573-3.535c-.095-.372-.286-.65-.668-.837-.287-.186-.668-.093-.955.093l-2.865 2.047-.859-.28-1.241-3.348c-.096-.372-.382-.558-.764-.651-.382-.094-.669 0-.955.279L52.89 5.916c-.287 0-.573-.093-.86-.093l-1.814-3.07a1.01 1.01 0 0 0-.86-.465c-.381 0-.668.186-.859.465l-1.91 3.07c-.286 0-.572.093-.859.093l-2.387-2.604c-.286-.28-.573-.373-.955-.28-.382.094-.668.28-.764.652l-1.241 3.349-.86.279-2.864-2.14c-.287-.186-.669-.279-.955-.093-.287.093-.573.465-.669.837l-.572 3.535c-.287.093-.478.28-.764.465L30.45 8.428c-.286-.186-.668-.093-1.05.093-.287.186-.478.558-.478.93l.096 3.628c-.191.186-.478.372-.669.558l-3.437-.837c-.382-.093-.764 0-.955.279-.287.28-.382.651-.286 1.023l.763 3.535c-.19.186-.382.465-.573.651l-3.533-.093c-.382 0-.668.186-.859.465-.191.28-.191.652-.095 1.024l1.432 3.255c-.191.28-.287.559-.382.838l-3.533.558c-.382.093-.669.279-.764.651-.096.372-.096.744.095 1.023l2.006 2.884v.186l-5.825 6.047s-.86.65.382 2.325c1.146 1.395 10.694 10.419 14.132 13.023-2.96-5.767-8.69-13.86-8.69-13.86"/><path fill="#020203" d="m47.665 36.883 6.397-.465s-.19 1.023-1.05 1.767c0 0-2.196 2.326-4.679-.186 0-.093-.477-.558-.668-1.116"/><path fill="#e6421e" d="M18.998 29.445c-2.291-.744-4.965-3.442-5.824-4.93 0 0 7.352-8.745-4.87-12.559-.764 3.907.382 9.303.382 9.303s-3.533-1.675-4.393-8.186c0 0-9.549 6.976 3.724 13.209 0 0 2.483 2.419 7.448 6.79"/><path stroke="#1e1f1d" stroke-linejoin="round" stroke-miterlimit="10" stroke-width=".75" d="M18.998 29.445c-2.291-.744-4.965-3.442-5.824-4.93 0 0 7.352-8.745-4.87-12.559-.764 3.907.382 9.303.382 9.303s-3.533-1.675-4.393-8.186c0 0-9.549 6.976 3.724 13.209 0 0 2.483 2.419 7.448 6.79"/><path fill="#1e1e1c" d="M57.388 34.767c2.162 0 3.915-2.082 3.915-4.65 0-2.57-1.753-4.652-3.915-4.652s-3.915 2.082-3.915 4.651 1.753 4.651 3.915 4.651"/><path fill="#fff" d="M55.67 32.07c1.107 0 2.005-1.041 2.005-2.326 0-1.284-.898-2.325-2.005-2.325-1.108 0-2.006 1.04-2.006 2.325s.898 2.326 2.005 2.326"/><path fill="#1e1e1c" d="M44.593 34.767c2.162 0 3.915-2.082 3.915-4.65 0-2.57-1.753-4.652-3.915-4.652s-3.915 2.082-3.915 4.651 1.753 4.651 3.915 4.651"/><path fill="#fff" d="M43.065 32.07c1.108 0 2.005-1.041 2.005-2.326 0-1.284-.898-2.325-2.005-2.325s-2.005 1.04-2.005 2.325.898 2.326 2.005 2.326"/><path fill="#e6421d" d="M74.796 32.236s1.336 3.442-3.533 8.651l-1.528.745s-11.554-7.35-12.51 5.767c0 0 4.107-3.349 8.69-3.349 0 0-1.814 4.93-7.543 6.14 0 0 7.066 5.116 13.082-6.14 0 0 8.02-5.395 6.97-12.651"/><path stroke="#1e1f1d" stroke-miterlimit="10" stroke-width=".75" d="M74.796 32.236s1.336 3.442-3.533 8.651l-1.528.745s-11.554-7.35-12.51 5.767c0 0 4.107-3.349 8.69-3.349 0 0-1.814 4.93-7.543 6.14 0 0 7.066 5.116 13.082-6.14 0 0 8.02-5.395 6.97-12.651"/><path fill="#61ba8f" d="M391.68 7 348 11.487l2.32 22.58L394 29.579z"/><path fill="#0b0b0b" d="m369.782 13.97.854 8.472q.179 1.77-.363 3.149-.543 1.367-1.819 2.216-1.278.839-3.309 1.043-2.907.294-4.589-1.045-1.681-1.338-1.956-4.062l-.863-8.56 3.823-.385.832 8.26q.151 1.494.777 2.11.626.619 1.715.509.779-.079 1.241-.417.462-.348.619-1.006.167-.658.066-1.66l-.831-8.241zM385.393 26.615l-4.294.432-3.325-5.101-1.058.787.474 4.709-3.822.385-1.419-14.076 3.822-.385.616 6.113q.195-.486.456-.98.272-.493.528-.938l2.521-4.61 4.159-.42-3.803 6.754z"/></svg>