<?xml version="1.0" encoding="UTF-8"?>
<!-- Generated by Pixelmator Pro 3.3.2 -->
<svg width="324" height="60" viewBox="0 0 324 60" xmlns="http://www.w3.org/2000/svg" xmlns:xlink="http://www.w3.org/1999/xlink">
    <g id="Group">
        <g id="g1">
            <path id="Path" fill="#ffffff" stroke="none" d="M 27.12854 4.633957 C 14.892644 4.633957 4.933957 14.59734 4.933957 26.828541 C 4.933957 39.059742 14.897338 49.023125 27.12854 49.023125 C 39.359741 49.023125 49.32312 39.059742 49.32312 26.828541 C 49.32312 14.59734 39.359741 4.633957 27.12854 4.633957 Z M 27.095675 6.605972 C 27.884836 6.626415 28.513908 7.274231 28.513647 8.066208 C 28.513647 8.872673 27.859879 9.52644 27.053413 9.52644 C 26.24695 9.52644 25.593182 8.872673 25.593182 8.066208 C 25.593018 7.671497 25.752651 7.29353 26.035704 7.018433 C 26.31876 6.74334 26.701124 6.594555 27.095675 6.605972 Z M 30.438709 9.009956 C 35.627098 9.981762 40.12574 13.18576 42.740341 17.771351 L 41.017174 21.659039 C 40.721371 22.330463 41.026566 23.11927 41.693295 23.419769 L 45.00816 24.889389 C 45.110989 25.92556 45.123558 26.968708 45.045723 28.007055 L 43.200478 28.007055 C 43.017361 28.007055 42.942238 28.129133 42.942238 28.307552 L 42.942238 29.152704 C 42.942238 31.143501 41.820065 31.580162 40.834057 31.688156 C 39.895 31.796144 38.857346 31.293751 38.725876 30.720926 C 38.171833 27.607956 37.25156 26.945923 35.796024 25.795578 C 37.603706 24.649929 39.481819 22.954933 39.481819 20.691814 C 39.481819 18.245571 37.805603 16.705521 36.66465 15.949581 C 35.058865 14.893143 33.28405 14.681854 32.80513 14.681854 L 13.7423 14.681854 C 16.378235 11.737167 19.911459 9.743641 23.794891 9.009956 L 26.043928 11.366989 C 26.55102 11.897556 27.391476 11.921028 27.922041 11.409245 Z M 9.685579 19.818493 C 10.475493 19.841362 11.103884 20.488476 11.103552 21.278725 C 11.103552 22.085186 10.449785 22.738956 9.643322 22.738956 C 8.836858 22.738956 8.18309 22.085186 8.18309 21.278725 C 8.182924 20.88401 8.342557 20.506042 8.625612 20.230949 C 8.908668 19.955856 9.291033 19.807068 9.685579 19.818493 Z M 44.501072 19.884224 C 45.290985 19.907093 45.919373 20.554211 45.919044 21.344456 C 45.919044 22.150921 45.265278 22.804688 44.458813 22.804688 C 43.652348 22.804688 42.998581 22.150921 42.998581 21.344456 C 42.998417 20.949745 43.158051 20.571777 43.441101 20.29668 C 43.724159 20.021587 44.106522 19.872803 44.501072 19.884224 Z M 12.437011 20.118988 L 14.981853 20.118988 L 14.981853 31.594248 L 9.845219 31.594248 C 9.210829 29.366545 9.01313 27.037201 9.263003 24.734444 L 12.40884 23.335251 C 13.080266 23.034752 13.385458 22.250641 13.08496 21.57922 Z M 23.057734 20.241062 L 29.119337 20.241062 C 29.43392 20.241062 31.330814 20.602604 31.330814 22.025272 C 31.330814 23.203785 29.875278 23.626358 28.67798 23.626358 L 23.053036 23.626358 Z M 23.057734 28.485975 L 27.701361 28.485975 C 28.123938 28.485975 29.969181 28.608051 30.556091 30.965082 C 30.739208 31.688156 31.147697 34.045181 31.424717 34.801125 C 31.70174 35.646278 32.823914 37.336575 34.02121 37.336575 L 41.599388 37.336575 C 41.091511 38.016716 40.536076 38.660019 39.93726 39.261639 L 36.852463 38.599602 C 36.134087 38.444664 35.425098 38.904797 35.270153 39.623177 L 34.537689 43.04134 C 29.771437 45.200436 24.300798 45.174721 19.555054 42.970909 L 18.822592 39.55275 C 18.667646 38.834366 17.963354 38.374229 17.244978 38.529175 L 14.225913 39.177124 C 13.665666 38.599213 13.144881 37.984314 12.667081 37.336575 L 27.349216 37.336575 C 27.513554 37.336575 27.62624 37.308403 27.62624 37.153458 L 27.62624 31.96048 C 27.62624 31.81023 27.513554 31.777363 27.349216 31.777363 L 23.053036 31.777363 Z M 16.282446 40.379112 C 17.072359 40.401985 17.70075 41.049103 17.70042 41.839348 C 17.70042 42.645809 17.046652 43.299576 16.240189 43.299576 C 15.433724 43.299576 14.779956 42.645809 14.779956 41.839348 C 14.779791 41.444633 14.939424 41.066669 15.22248 40.791573 C 15.505533 40.516479 15.887898 40.367695 16.282446 40.379112 Z M 37.904205 40.444847 C 38.694118 40.467716 39.32251 41.114838 39.322178 41.905079 C 39.322178 42.711544 38.668411 43.365311 37.861946 43.365311 C 37.055485 43.365311 36.401714 42.711544 36.401714 41.905079 C 36.401546 41.510368 36.56118 41.132404 36.844238 40.857307 C 37.127293 40.582214 37.509659 40.433426 37.904205 40.444847 Z"/>
            <path id="path1" fill="#ffffff" fill-rule="evenodd" stroke="#ffffff" stroke-width="1.408584" stroke-linecap="round" stroke-linejoin="round" d="M 48.083569 26.828541 C 48.083569 38.40168 38.701683 47.783569 27.12854 47.783569 C 15.555396 47.783569 6.17351 38.40168 6.17351 26.828541 C 6.17351 15.255398 15.555396 5.873512 27.12854 5.873512 C 38.701683 5.873512 48.083569 15.255398 48.083569 26.828541 Z M 47.689163 24.804874 L 50.957081 26.828541 L 47.689163 28.852207 L 50.496941 31.476866 L 46.90036 32.824413 L 49.144703 35.946774 L 45.346218 36.566551 L 46.942616 40.069229 L 43.097179 39.933064 L 43.979897 43.679893 L 40.233063 42.797184 L 40.369225 46.642616 L 36.866547 45.046223 L 36.246773 48.8447 L 33.124409 46.600357 L 31.776863 50.196945 L 29.152205 47.389164 L 27.12854 50.657078 L 25.104874 47.389164 L 22.480213 50.196945 L 21.132668 46.600357 L 18.010309 48.8447 L 17.390532 45.046223 L 13.887853 46.642616 L 14.024015 42.797184 L 10.277184 43.679893 L 11.159897 39.933064 L 7.314463 40.069229 L 8.910857 36.566551 L 5.112377 35.946774 L 7.35672 32.824413 L 3.760137 31.476866 L 6.567914 28.852207 L 3.299999 26.828541 L 6.567914 24.804874 L 3.760137 22.180218 L 7.35672 20.832668 L 5.112377 17.710308 L 8.910857 17.090534 L 7.314463 13.587856 L 11.159897 13.724018 L 10.277184 9.977184 L 14.024015 10.859898 L 13.887853 7.014465 L 17.390532 8.610859 L 18.010309 4.812378 L 21.132668 7.056721 L 22.480213 3.46014 L 25.104874 6.267918 L 27.12854 3 L 29.152205 6.267918 L 31.776863 3.46014 L 33.124409 7.056721 L 36.246773 4.812378 L 36.866547 8.610859 L 40.369225 7.014465 L 40.233063 10.859898 L 43.979897 9.977184 L 43.097179 13.724018 L 46.942616 13.587856 L 45.346218 17.090534 L 49.144703 17.710308 L 46.90036 20.832668 L 50.496941 22.180218 Z"/>
            <g id="g2">
                <path id="Path-copy" fill="#ffffff" fill-rule="evenodd" stroke="#ffffff" stroke-width="1.203194" stroke-linecap="round" stroke-linejoin="round" d="M 88.036804 37.345963 C 88.036804 47.231594 80.022919 55.245483 70.137291 55.245483 C 60.251659 55.245483 52.237774 47.231594 52.237774 37.345963 C 52.237774 27.460335 60.251659 19.446449 70.137291 19.446449 C 80.022919 19.446449 88.036804 27.460335 88.036804 37.345963 Z M 87.699913 35.617378 L 90.491325 37.345963 L 87.699913 39.074554 L 90.098282 41.316505 L 87.026123 42.46756 L 88.943214 45.134644 L 85.698601 45.664047 L 87.062218 48.655991 L 83.777496 48.53968 L 84.531502 51.740173 L 81.331009 50.986176 L 81.447311 54.270897 L 78.455376 52.907276 L 77.925964 56.151886 L 75.258888 54.234798 L 74.107834 57.306953 L 71.865883 54.908588 L 70.137291 57.699997 L 68.408699 54.908588 L 66.166748 57.306953 L 65.015694 54.234798 L 62.348614 56.151886 L 61.81921 52.907276 L 58.827267 54.270897 L 58.943577 50.986176 L 55.74308 51.740173 L 56.497082 48.53968 L 53.21236 48.655991 L 54.575981 45.664047 L 51.331367 45.134644 L 53.248459 42.46756 L 50.176304 41.316505 L 52.574669 39.074554 L 49.78326 37.345963 L 52.574669 35.617378 L 50.176304 33.375427 L 53.248459 32.224369 L 51.331367 29.557289 L 54.575981 29.027884 L 53.21236 26.035942 L 56.497082 26.152252 L 55.74308 22.951752 L 58.943577 23.705757 L 58.827267 20.421036 L 61.81921 21.784657 L 62.348614 18.540043 L 65.015694 20.45713 L 66.166748 17.384975 L 68.408699 19.783344 L 70.137291 16.991932 L 71.865883 19.783344 L 74.107834 17.384975 L 75.258888 20.45713 L 77.925964 18.540043 L 78.455376 21.784657 L 81.447311 20.421036 L 81.331009 23.705757 L 84.531502 22.951752 L 83.777496 26.152252 L 87.062218 26.035942 L 85.698601 29.027884 L 88.943214 29.557289 L 87.026123 32.224369 L 90.098282 33.375427 Z"/>
                <path id="path2" fill="#ffffff" fill-rule="evenodd" stroke="none" d="M 70.053513 55.656311 C 59.986763 55.656311 51.826946 47.496494 51.826946 37.429749 C 51.826946 27.363003 59.986763 19.201233 70.053513 19.201233 C 80.120255 19.201233 88.282028 27.363003 88.282028 37.429749 C 88.282028 47.496494 80.120255 55.656311 70.053513 55.656311 Z M 70.053513 52.894592 C 78.594994 52.894592 85.520309 45.97123 85.520309 37.429749 C 85.520309 37.078266 85.508232 36.730461 85.485153 36.384827 C 85.062935 36.906944 84.443909 37.446953 83.543747 37.98053 C 83.543747 37.98053 83.00312 38.842625 82.090622 39.63678 L 83.369919 40.580139 C 83.369919 40.580139 83.702614 40.754646 83.369919 41.375061 C 83.076462 41.922306 81.471954 44.175697 80.623825 45.357483 C 80.280106 45.941029 80.040146 46.308342 80.004684 46.28717 C 79.948547 46.25383 80.045525 45.290699 80.707809 44.058655 C 81.194778 42.973648 81.786095 41.335762 81.557419 41.203186 C 81.557419 41.203186 81.491493 41.148247 81.379684 41.080139 C 81.359009 41.132496 81.332977 41.188972 81.299606 41.250061 C 81.080048 41.651863 79.982948 43.228455 79.403122 44.054749 C 79.153885 44.477139 78.984184 44.73946 78.969528 44.714905 C 78.94648 44.675972 79.126648 43.888702 79.621872 42.984436 C 79.923294 42.352192 80.300316 41.452274 80.410934 41.007874 C 80.094376 41.284378 77.210159 43.315834 70.721481 43.322327 C 64.372414 43.328705 61.259083 41.761192 60.72929 41.425842 C 60.919086 41.888336 61.236019 42.513847 61.500774 42.986389 C 62.068104 43.866356 62.271629 44.637077 62.244915 44.675842 C 62.227993 44.700314 62.0345 44.447952 61.748821 44.03717 C 61.083748 43.235851 59.824596 41.705441 59.57304 41.314514 C 59.493004 41.190117 59.451557 41.086166 59.428509 40.998108 C 59.236488 41.143822 59.139446 41.265686 59.139446 41.265686 C 58.924812 41.449417 59.840427 43.041759 60.545696 44.078186 C 61.460571 45.233368 61.736839 46.219677 61.684368 46.265686 C 61.651142 46.294662 61.33242 45.959175 60.867962 45.41803 C 59.768215 44.35215 57.685627 42.318008 57.280071 41.804749 C 56.820175 41.222904 57.13554 40.97467 57.13554 40.97467 L 58.117962 39.931702 C 56.318932 38.953957 56.080853 38.06842 56.080853 38.06842 C 55.448586 37.763298 54.963711 37.457047 54.592571 37.154358 C 54.590965 37.246216 54.588665 37.337502 54.588665 37.429749 C 54.588665 45.97123 61.512028 52.894592 70.053513 52.894592 Z M 70.807419 42.435608 C 70.842346 42.437515 70.877525 42.437431 70.910934 42.435608 C 71.022285 42.429527 71.124428 42.403664 71.215622 42.369202 C 71.306808 42.334736 71.387993 42.291019 71.453903 42.248108 C 71.519814 42.205193 71.570732 42.162346 71.606247 42.13092 C 71.641754 42.099312 71.660934 42.078186 71.660934 42.078186 C 71.770943 41.976028 71.850616 41.861805 71.907028 41.757874 C 71.907028 41.757874 71.907028 41.75592 71.907028 41.75592 C 71.963089 41.652309 71.998856 41.559525 72.016403 41.502014 C 72.02816 41.463654 72.032028 41.441467 72.032028 41.441467 L 69.772263 41.623108 C 69.790848 41.680573 69.812454 41.732224 69.836716 41.779358 C 69.860664 41.82608 69.88623 41.866554 69.908981 41.900452 C 69.954483 41.968243 69.991013 42.007874 69.991013 42.007874 C 70.074608 42.09441 70.15802 42.165253 70.239059 42.222717 C 70.279579 42.25145 70.31852 42.276608 70.3582 42.298889 C 70.516182 42.387611 70.668205 42.427719 70.807419 42.435608 Z M 68.301559 40.910217 C 68.485481 40.899414 68.646858 40.871521 68.789841 40.830139 C 68.932823 40.788754 69.057892 40.733459 69.164841 40.66803 C 69.271782 40.6026 69.360512 40.52636 69.436325 40.44342 C 69.461594 40.415749 69.486412 40.388569 69.508591 40.359436 C 69.686584 40.126328 69.766083 39.850891 69.797653 39.593811 C 69.797653 39.593811 69.797653 39.591858 69.797653 39.591858 C 69.813202 39.464233 69.818481 39.340992 69.815231 39.23053 C 69.815231 39.23053 69.815231 39.228577 69.815231 39.228577 C 69.813576 39.173828 69.809624 39.121964 69.805466 39.07428 C 69.805466 39.07428 69.805466 39.072327 69.805466 39.072327 C 69.797043 38.976818 69.784157 38.89743 69.774216 38.841858 C 69.774216 38.841858 69.774216 38.839905 69.774216 38.839905 C 69.764488 38.786079 69.756638 38.753967 69.756638 38.753967 C 69.756638 38.753967 69.756638 38.752014 69.756638 38.752014 C 69.696236 38.533943 69.614784 38.354782 69.520309 38.209045 C 69.520309 38.209045 69.520309 38.207092 69.520309 38.207092 C 69.496895 38.171066 69.473083 38.137611 69.448044 38.10553 C 69.448044 38.10553 69.448044 38.103577 69.448044 38.103577 C 69.422966 38.071518 69.394493 38.042046 69.367966 38.013733 C 69.314262 37.956413 69.258537 37.906525 69.199997 37.863342 C 68.49752 37.345161 67.500778 37.78717 67.500778 37.78717 C 67.48214 37.816101 67.465523 37.844681 67.448044 37.873108 C 67.471985 37.849625 67.497917 37.829105 67.524216 37.810608 C 67.551247 37.791588 67.579002 37.774998 67.6082 37.76178 C 67.66658 37.735336 67.728706 37.720764 67.793747 37.720764 C 67.83503 37.720764 67.875916 37.727394 67.914841 37.738342 C 67.992676 37.760239 68.06414 37.802299 68.127731 37.861389 C 68.159172 37.89061 68.188828 37.92429 68.215622 37.960999 C 68.215622 37.960999 68.215622 37.962952 68.215622 37.962952 C 68.269356 38.036888 68.314316 38.125042 68.344528 38.222717 C 68.344528 38.222717 68.344528 38.22467 68.344528 38.22467 C 68.359459 38.27327 68.371735 38.324158 68.379684 38.377014 C 68.379684 38.377014 68.379684 38.378967 68.379684 38.378967 C 68.387634 38.432507 68.391403 38.48819 68.391403 38.544983 C 68.391304 38.601059 68.387543 38.656086 68.379684 38.709045 C 68.347855 38.923172 68.254898 39.108421 68.127731 39.226624 C 68.08004 39.271118 68.027634 39.306004 67.971481 39.330139 C 67.952759 39.338142 67.934296 39.344193 67.914841 39.34967 C 67.875916 39.360672 67.83503 39.367249 67.793747 39.367249 C 67.75248 39.367249 67.711563 39.360672 67.672653 39.34967 C 67.594826 39.32766 67.523346 39.28595 67.459763 39.226624 C 67.300789 39.078869 67.196091 38.82885 67.196091 38.544983 C 67.196091 38.491737 67.198944 38.43943 67.205856 38.388733 C 67.205856 38.388733 67.205856 38.38678 67.205856 38.38678 C 67.212753 38.336769 67.223885 38.288349 67.237106 38.242249 C 67.201057 38.312904 67.169006 38.38023 67.13945 38.447327 C 67.110085 38.513878 67.084648 38.577553 67.061325 38.640686 C 67.037758 38.704475 67.016579 38.765846 66.998825 38.826233 C 66.981194 38.886028 66.966171 38.943512 66.953903 39.000061 C 66.941483 39.057312 66.931885 39.112068 66.924606 39.166077 C 66.917358 39.21946 66.913498 39.270065 66.910934 39.320374 C 66.905754 39.421722 66.908951 39.516159 66.9207 39.60553 C 66.926384 39.649277 66.934891 39.691475 66.944138 39.732483 C 66.944138 39.732483 66.944138 39.734436 66.944138 39.734436 C 66.953568 39.776009 66.964584 39.814743 66.977341 39.853577 C 67.003044 39.931816 67.033974 40.004688 67.071091 40.072327 C 67.08947 40.105934 67.108994 40.136906 67.129684 40.16803 C 67.171333 40.230682 67.217484 40.288757 67.266403 40.341858 C 67.29068 40.368263 67.315056 40.391903 67.340622 40.416077 C 67.749687 40.802849 68.301559 40.910217 68.301559 40.910217 Z M 73.004684 40.826233 C 73.042297 40.825344 73.080711 40.822529 73.117966 40.81842 C 73.229706 40.806091 73.338493 40.77961 73.442184 40.746155 C 73.580437 40.701542 73.708069 40.643703 73.817184 40.585999 C 74.035408 40.470589 74.178513 40.357483 74.178513 40.357483 C 74.203873 40.333916 74.228508 40.310181 74.250778 40.285217 C 74.340317 40.185081 74.404358 40.07428 74.449997 39.957092 C 74.461365 39.927895 74.470276 39.899109 74.479294 39.869202 C 74.515717 39.74902 74.533501 39.624252 74.537888 39.498108 C 74.542244 39.372578 74.534233 39.247639 74.516403 39.125061 C 74.498566 39.001801 74.470909 38.882919 74.440231 38.771545 C 74.424973 38.716145 74.410004 38.664139 74.393356 38.613342 C 74.393356 38.613342 74.393356 38.611389 74.393356 38.611389 C 74.360252 38.510567 74.323296 38.419884 74.291794 38.343811 C 74.291794 38.343811 74.291794 38.341858 74.291794 38.341858 C 74.260422 38.266243 74.23214 38.204483 74.211716 38.16217 C 74.190773 38.118736 74.178513 38.095764 74.178513 38.095764 C 74.141953 38.055737 74.105637 38.018959 74.069138 37.984436 C 73.886612 37.811817 73.704498 37.705978 73.530075 37.648499 C 73.460304 37.625618 73.392197 37.610256 73.324997 37.601624 C 73.25779 37.592987 73.191643 37.590607 73.127731 37.593811 C 73.06382 37.597008 73.002075 37.604622 72.942184 37.617249 C 72.826065 37.641727 72.718864 37.683914 72.621872 37.73053 C 72.637482 37.726528 72.652946 37.722897 72.668747 37.720764 C 72.687828 37.717697 72.707329 37.716858 72.727341 37.716858 C 72.747353 37.716858 72.766434 37.718033 72.785934 37.720764 C 72.805428 37.723495 72.825645 37.72715 72.844528 37.732483 C 72.882278 37.743141 72.919205 37.759117 72.953903 37.779358 C 72.988991 37.79982 73.020393 37.824425 73.051559 37.853577 C 73.082069 37.881989 73.111488 37.913601 73.137497 37.94928 C 73.137497 37.94928 73.137497 37.951233 73.137497 37.951233 C 73.163742 37.987389 73.186951 38.025917 73.207809 38.06842 C 73.22892 38.11145 73.247711 38.156715 73.262497 38.205139 C 73.276993 38.252316 73.287971 38.302307 73.2957 38.353577 C 73.2957 38.353577 73.2957 38.35553 73.2957 38.35553 C 73.303429 38.407486 73.307419 38.460617 73.307419 38.515686 C 73.307419 38.845985 73.162079 39.129158 72.953903 39.250061 C 72.884506 39.290359 72.807396 39.312561 72.727341 39.312561 C 72.647293 39.312561 72.571938 39.290359 72.502731 39.250061 C 72.468124 39.229912 72.433868 39.204468 72.403122 39.175842 C 72.372368 39.147213 72.345261 39.11618 72.319138 39.080139 C 72.292648 39.043762 72.267853 39.003876 72.246872 38.960999 C 72.226128 38.918606 72.208725 38.873909 72.194138 38.826233 C 72.164604 38.730408 72.149216 38.626469 72.149216 38.515686 C 72.149216 38.344086 72.18779 38.184837 72.254684 38.054749 C 72.254684 38.054749 72.254684 38.052795 72.254684 38.052795 C 72.267845 38.027321 72.284401 38.003654 72.299606 37.98053 C 72.299606 37.98053 72.299606 37.978577 72.299606 37.978577 C 72.31485 37.955486 72.331322 37.932663 72.348434 37.91217 C 72.364067 37.893391 72.380211 37.875809 72.397263 37.859436 C 72.219643 37.979839 72.112106 38.095764 72.112106 38.095764 C 72.056396 38.185905 72.007973 38.272171 71.965622 38.357483 C 71.923462 38.442261 71.888458 38.523682 71.8582 38.603577 C 71.767082 38.844101 71.726448 39.061646 71.719528 39.25592 C 71.717171 39.319824 71.719215 39.380814 71.723434 39.439514 C 71.723434 39.439514 71.723434 39.441467 71.723434 39.441467 C 71.727707 39.500061 71.735352 39.556149 71.744919 39.609436 C 71.744919 39.609436 71.744919 39.611389 71.744919 39.611389 C 71.754646 39.665222 71.766235 39.715439 71.780075 39.763733 C 71.890755 40.150059 72.112106 40.357483 72.112106 40.357483 C 72.143814 40.402847 72.176018 40.442711 72.209763 40.48053 C 72.2435 40.518345 72.279755 40.553276 72.315231 40.584045 C 72.386169 40.645584 72.459915 40.694153 72.535934 40.73053 C 72.611946 40.766907 72.689713 40.791458 72.768356 40.806702 C 72.846992 40.821945 72.925873 40.828094 73.004684 40.826233 Z M 58.971478 39.025452 L 59.19804 38.785217 C 59.203632 38.766502 59.20805 38.747231 59.213665 38.728577 L 58.485149 37.671936 C 58.411285 37.564529 58.395802 37.42527 58.444134 37.302795 C 58.492859 37.180542 58.59816 37.093414 58.723431 37.072327 L 59.955853 36.863342 C 60.004044 36.765869 60.053974 36.669456 60.10429 36.57428 L 59.584759 35.388733 C 59.532146 35.26799 59.543377 35.127251 59.614056 35.017639 C 59.684593 34.907524 59.806194 34.845894 59.932415 34.84967 L 61.182415 34.894592 C 61.247002 34.810234 61.313171 34.726959 61.379681 34.644592 L 61.092571 33.373108 C 61.063622 33.24411 61.100143 33.109406 61.190228 33.015686 C 61.279819 32.922295 61.410275 32.884079 61.533978 32.914124 L 62.750774 33.212952 C 62.83007 33.143219 62.910069 33.075333 62.991009 33.007874 L 62.94804 31.703184 C 62.943287 31.57114 63.004627 31.446415 63.110149 31.373106 C 63.21529 31.299377 63.350193 31.286865 63.465618 31.341856 L 64.602341 31.882872 C 64.694107 31.830065 64.786766 31.778915 64.879684 31.728575 L 65.080856 30.441465 C 65.101128 30.311237 65.184616 30.200962 65.301559 30.15045 C 65.418747 30.099409 65.552063 30.115829 65.655075 30.193419 L 66.668747 30.955137 C 66.76873 30.922222 66.868248 30.889839 66.969528 30.859434 L 67.407028 29.640684 C 67.451195 29.516418 67.553764 29.424507 67.678513 29.398497 C 67.802635 29.373077 67.931923 29.417295 68.018356 29.513731 L 68.871872 30.466856 C 68.974792 30.455025 69.076942 30.444588 69.180466 30.435606 L 69.840622 29.326231 C 69.906853 29.213852 70.02449 29.14459 70.151169 29.14459 C 70.278198 29.14459 70.395035 29.213852 70.461716 29.326231 L 71.121872 30.435606 C 71.225334 30.444588 71.3274 30.455025 71.430466 30.466856 L 72.283981 29.513731 C 72.370293 29.417295 72.497406 29.373077 72.621872 29.398497 C 72.74678 29.424173 72.850891 29.516418 72.895309 29.640684 L 73.330856 30.859434 C 73.432266 30.889839 73.533768 30.921995 73.633591 30.955137 L 74.645309 30.193419 C 74.748009 30.11611 74.883728 30.09963 75.000778 30.15045 C 75.118103 30.200962 75.201088 30.311237 75.221481 30.441465 L 75.422653 31.728575 C 75.515709 31.778915 75.606499 31.830347 75.698044 31.882872 L 76.834763 31.341856 C 76.950302 31.287092 77.084587 31.299377 77.190231 31.373106 C 77.295921 31.446415 77.358986 31.57114 77.354294 31.703184 L 77.309372 33.007874 C 77.39048 33.075333 77.470734 33.143219 77.549606 33.212952 L 78.768356 32.914124 C 78.891838 32.883827 79.02079 32.922295 79.110153 33.015686 C 79.200012 33.109406 79.236946 33.24411 79.207809 33.373108 L 78.9207 34.644592 C 78.987823 34.726654 79.053215 34.810234 79.117966 34.894592 L 80.369919 34.84967 C 80.497238 34.844662 80.615921 34.907524 80.686325 35.017639 C 80.757004 35.127251 80.768845 35.26799 80.715622 35.388733 L 80.198044 36.57428 C 80.248276 36.669456 80.29673 36.765869 80.344528 36.863342 L 81.57695 37.072327 C 81.70211 37.093719 81.809784 37.180904 81.8582 37.302795 C 81.906502 37.42527 81.889626 37.564529 81.815231 37.671936 L 81.086716 38.728577 C 81.105362 38.791069 81.125046 38.853271 81.143356 38.916077 C 81.500259 38.652245 81.885323 38.325287 82.291794 37.91217 L 82.567184 37.298889 C 82.567184 37.298889 79.535019 34.281395 84.248825 32.19928 C 84.248825 32.19928 83.836731 32.872955 83.957809 35.478577 C 83.957809 35.478577 84.646591 35.237305 85.205856 34.314514 C 85.205727 34.313889 85.205986 34.313187 85.205856 34.312561 C 83.763527 27.264889 77.527306 21.962952 70.053513 21.962952 C 62.552147 21.962952 56.299229 27.304146 54.887493 34.390686 C 55.370518 35.674332 56.268353 36.275452 56.268353 36.275452 L 55.764446 32.781311 C 60.102127 34.799213 57.326946 37.957092 57.326946 37.957092 C 57.605553 38.402748 58.280178 38.759361 58.971478 39.025452 Z"/>
            </g>
        </g>
        <path id="Rust-Summit" fill="#ffffff" fill-rule="evenodd" stroke="none" d="M 309.171387 30.824005 L 312.411377 30.824005 L 312.411377 37.304001 C 312.411377 42.703995 315.723389 44.360001 319.647369 44.360001 C 320.475372 44.360001 321.555389 44.287994 322.527374 44.108002 L 322.527374 39.283997 C 321.879395 39.391998 321.087372 39.464005 320.475372 39.464005 C 318.711395 39.464005 317.667389 38.888 317.667389 36.475998 L 317.667389 30.824005 L 322.527374 30.824005 L 322.527374 26 L 317.667389 26 L 317.667389 20.959991 L 313.311371 20.959991 L 312.59137 26 L 309.171387 26 Z M 300.807953 44 L 306.063965 44 L 306.063965 26 L 300.807953 26 Z M 300.663971 20.492004 C 300.663971 22.220001 301.707977 23.264008 303.435974 23.264008 C 305.163971 23.264008 306.207977 22.220001 306.207977 20.492004 C 306.207977 18.764008 305.163971 17.720001 303.435974 17.720001 C 301.707977 17.720001 300.663971 18.764008 300.663971 20.492004 Z M 269.188538 26 L 269.188538 44 L 274.44455 44 L 274.44455 33.811996 C 274.44455 31.399994 275.632538 30.067993 277.396545 30.067993 C 279.088531 30.067993 280.060547 31.399994 280.060547 33.811996 L 280.060547 44 L 285.316559 44 L 285.316559 33.811996 C 285.316559 31.399994 286.504547 30.067993 288.268555 30.067993 C 289.960541 30.067993 290.932556 31.399994 290.932556 33.811996 L 290.932556 44 L 296.188538 44 L 296.188538 33.488007 C 296.188538 29.779999 294.352539 25.640015 290.068542 25.640015 C 287.764557 25.640015 285.604553 26.828003 284.236542 28.772003 C 283.300537 26.971985 281.644531 25.640015 279.268555 25.640015 C 277.324554 25.640015 275.488556 26.540009 274.264557 28.268005 L 273.904541 26 Z M 237.569122 26 L 237.569122 44 L 242.825134 44 L 242.825134 33.811996 C 242.825134 31.399994 244.013123 30.067993 245.77713 30.067993 C 247.469116 30.067993 248.441132 31.399994 248.441132 33.811996 L 248.441132 44 L 253.697113 44 L 253.697113 33.811996 C 253.697113 31.399994 254.885132 30.067993 256.649139 30.067993 C 258.341125 30.067993 259.313141 31.399994 259.313141 33.811996 L 259.313141 44 L 264.569122 44 L 264.569122 33.488007 C 264.569122 29.779999 262.733124 25.640015 258.449127 25.640015 C 256.145142 25.640015 253.985138 26.828003 252.617126 28.772003 C 251.681122 26.971985 250.025116 25.640015 247.649139 25.640015 C 245.705139 25.640015 243.869141 26.540009 242.645142 28.268005 L 242.285126 26 Z M 215.273712 26 L 215.273712 36.871994 C 215.273712 41.048004 217.433716 44.360001 221.933716 44.360001 C 224.309723 44.360001 226.361694 43.423996 227.693695 41.731995 L 228.053711 44 L 232.769714 44 L 232.769714 26 L 227.513702 26 L 227.513702 36.188004 C 227.513702 38.600006 225.605713 39.932007 223.589722 39.932007 C 221.897705 39.932007 220.529724 38.960007 220.529724 36.548004 L 220.529724 26 Z M 192.582306 35.647995 C 192.798279 41.011993 196.578278 44.360001 202.410278 44.360001 C 207.954285 44.360001 211.806305 41.408005 211.806305 36.367996 C 211.806305 30.824005 207.126282 29.563995 203.598297 28.700012 C 200.718292 28.015991 198.522278 27.476013 198.522278 25.604004 C 198.522278 24.127991 199.890289 23.119995 202.014282 23.119995 C 204.4263 23.119995 205.866302 24.380005 206.046295 26.359985 L 211.266296 26.359985 C 211.122284 21.571991 207.450287 18.440002 202.122284 18.440002 C 196.902283 18.440002 193.302277 21.5 193.302277 25.783997 C 193.302277 31.688004 198.01828 32.839996 201.83429 33.740005 C 204.4263 34.352005 206.586304 34.927994 206.586304 36.871994 C 206.586304 38.671997 204.714294 39.679993 202.446289 39.679993 C 199.638306 39.679993 198.01828 38.203995 197.802277 35.647995 Z M 167.395462 30.824005 L 170.635452 30.824005 L 170.635452 37.304001 C 170.635452 42.703995 173.947449 44.360001 177.87146 44.360001 C 178.699463 44.360001 179.779449 44.287994 180.751465 44.108002 L 180.751465 39.283997 C 180.103455 39.391998 179.311462 39.464005 178.699463 39.464005 C 176.935455 39.464005 175.891449 38.888 175.891449 36.475998 L 175.891449 30.824005 L 180.751465 30.824005 L 180.751465 26 L 175.891449 26 L 175.891449 20.959991 L 171.535461 20.959991 L 170.81546 26 L 167.395462 26 Z M 149.636032 37.951996 C 149.81604 41.876007 152.73204 44.360001 157.484039 44.360001 C 162.092041 44.360001 165.620041 42.020004 165.620041 38.203995 C 165.620041 33.343994 161.588043 32.804001 158.888031 32.479996 C 156.620041 32.192001 155.108032 31.975998 155.108032 30.860001 C 155.108032 29.960007 156.188034 29.600006 157.412033 29.600006 C 159.032043 29.600006 160.184036 30.212006 160.364044 31.544006 L 165.26004 31.544006 C 165.044037 27.980011 162.272034 25.640015 157.84404 25.640015 C 153.560043 25.640015 150.176041 27.835999 150.176041 31.399994 C 150.176041 36.188004 154.172043 36.835999 157.160034 37.339996 C 158.924042 37.628006 160.328033 37.880005 160.328033 38.888 C 160.328033 39.860001 159.14003 40.399994 157.700043 40.399994 C 156.080032 40.399994 154.748032 39.679993 154.532043 37.951996 Z M 128.672623 26 L 128.672623 36.871994 C 128.672623 41.048004 130.832626 44.360001 135.332626 44.360001 C 137.708618 44.360001 139.76062 43.423996 141.092621 41.731995 L 141.452621 44 L 146.168625 44 L 146.168625 26 L 140.912613 26 L 140.912613 36.188004 C 140.912613 38.600006 139.004623 39.932007 136.988617 39.932007 C 135.296616 39.932007 133.928619 38.960007 133.928619 36.548004 L 133.928619 26 Z M 105.369202 44 L 110.769196 44 L 110.769196 34.927994 L 113.037201 34.927994 L 114.621201 37.447998 C 116.781204 40.904007 119.013199 44.360001 123.153198 44.360001 C 123.765198 44.360001 124.485199 44.287994 125.2052 44.108002 L 125.2052 38.960007 C 124.953201 38.996002 124.665207 39.031998 124.377197 39.031998 C 122.253204 39.031998 120.957199 37.160004 119.841202 35.503998 L 118.977203 34.244003 C 122.181198 33.056 124.269196 30.427994 124.269196 26.756012 C 124.269196 22.075989 120.885208 18.799988 115.773193 18.799988 L 105.369202 18.799988 Z M 110.769196 23.552002 L 115.125198 23.552002 C 117.357208 23.552002 118.689194 24.884003 118.689194 26.864014 C 118.689194 28.843994 117.357208 30.175995 115.125198 30.175995 L 110.769196 30.175995 Z"/>
    </g>
</svg>