<?xml version="1.0" encoding="UTF-8" standalone="no"?>
<!-- Created with Inkscape (http://www.inkscape.org/) -->

<svg
   width="232.83798mm"
   height="232.83798mm"
   viewBox="0 0 232.83798 232.83798"
   version="1.1"
   id="svg1"
   xml:space="preserve"
   inkscape:version="1.3 (0e150ed, 2023-07-21)"
   sodipodi:docname="logo.svg"
   xmlns:inkscape="http://www.inkscape.org/namespaces/inkscape"
   xmlns:sodipodi="http://sodipodi.sourceforge.net/DTD/sodipodi-0.dtd"
   xmlns="http://www.w3.org/2000/svg"
   xmlns:svg="http://www.w3.org/2000/svg"><sodipodi:namedview
     id="namedview1"
     pagecolor="#ffffff"
     bordercolor="#666666"
     borderopacity="1.0"
     inkscape:showpageshadow="2"
     inkscape:pageopacity="0.0"
     inkscape:pagecheckerboard="0"
     inkscape:deskcolor="#d1d1d1"
     inkscape:document-units="mm"
     inkscape:zoom="0.24215817"
     inkscape:cx="1346.2275"
     inkscape:cy="590.52312"
     inkscape:window-width="1920"
     inkscape:window-height="1027"
     inkscape:window-x="0"
     inkscape:window-y="25"
     inkscape:window-maximized="1"
     inkscape:current-layer="layer1" /><defs
     id="defs1" /><g
     inkscape:label="Layer 1"
     inkscape:groupmode="layer"
     id="layer1"
     transform="translate(251.40837,8.1674137)"><path
       style="fill:#000000;fill-opacity:1;stroke-width:0.42431;stroke:none;stroke-opacity:1"
       d="m -111.28872,177.419 c -0.20475,-0.0872 -3.92664,-3.54167 -8.56023,-7.94521 -1.81643,-1.72624 -1.82431,-1.73586 -1.82431,-2.22583 0,-0.44175 0.0661,-0.56489 0.64553,-1.20354 0.35504,-0.3913 8.60232,-9.18623 18.3273,-19.54429 9.724971,-10.35807 17.694214,-18.86718 17.709426,-18.90915 0.01519,-0.042 -7.631913,-8.23518 -16.993606,-18.20714 -9.3617,-9.971958 -17.62143,-18.773607 -18.35496,-19.55922 -1.27869,-1.369481 -1.33369,-1.448458 -1.33369,-1.915118 0,-0.267702 0.0632,-0.566896 0.14034,-0.664875 0.0772,-0.09798 2.38143,-2.278733 5.12056,-4.846119 5.32251,-4.988802 5.3611,-5.01841 6.07302,-4.660125 0.16946,0.08528 8.32848,8.781241 18.131156,19.324352 9.80268,10.543105 17.85544,19.165605 17.895024,19.161105 0.03959,-0.005 7.675128,-8.21517 16.967882,-18.245937 20.885036,-22.543673 18.822896,-20.369091 19.309621,-20.362493 0.216114,0.0029 0.50007,0.06668 0.631021,0.14168 0.13095,0.07499 2.486836,2.247626 5.235297,4.828071 5.140706,4.826449 5.196898,4.888626 5.059133,5.598212 -0.03899,0.200877 -5.55978,6.159893 -16.901482,18.243097 -9.263964,9.86963 -17.520117,18.66029 -18.347012,19.5348 l -1.503439,1.59001 18.342972,19.53842 c 13.974034,14.88475 18.359524,19.62117 18.412461,19.88586 0.03823,0.19109 0.0071,0.49578 -0.06906,0.67708 -0.07927,0.1886 -2.288356,2.34588 -5.16285,5.04179 -5.344188,5.01215 -5.398937,5.05447 -6.087693,4.70479 -0.163618,-0.0831 -8.28246,-8.76459 -18.041865,-19.29226 -9.759409,-10.52767 -17.784805,-19.15676 -17.834212,-19.17575 -0.04941,-0.019 -8.130667,8.61009 -17.958352,19.17574 -9.827682,10.56564 -17.993752,19.25789 -18.146822,19.31608 -0.33212,0.12627 -0.57782,0.12515 -0.88116,-0.004 z"
       id="path6" /><path
       style="fill:#000000;fill-opacity:1;stroke-width:0.42431"
       d="m -196.14507,179.99733 c -9.23694,-0.57961 -16.957,-3.06131 -23.63041,-7.59628 -12.15644,-8.26098 -19.77046,-23.03499 -22.23611,-43.14626 -0.6535,-5.33031 -0.79815,-8.35049 -0.87107,-18.18697 -0.0826,-11.13783 0.095,-16.841264 0.69624,-22.356945 1.10473,-10.135479 3.43208,-18.839739 7.00475,-26.19777 1.32273,-2.724207 2.14454,-4.171922 3.6644,-6.455252 7.92275,-11.902596 19.43087,-18.420542 34.50766,-19.54437 2.3154,-0.172591 8.64398,-0.07228 10.67157,0.16915 9.56678,1.139138 16.8979,4.064754 23.63021,9.430065 1.59722,1.2729 5.08112,4.796391 6.48205,6.555706 7.42717,9.327176 11.86378,21.948305 13.32656,37.911011 0.43119,4.705416 0.47771,6.793651 0.42769,19.197355 -0.0498,12.36019 -0.078,13.20941 -0.59194,17.85018 -1.14775,10.36407 -3.41936,18.88289 -7.00648,26.27524 -1.32081,2.72192 -2.13603,4.15902 -3.65893,6.45008 -7.11076,10.69743 -17.22631,17.10407 -30.13932,19.08859 -3.44465,0.52939 -8.82326,0.77319 -12.27687,0.55647 z m 6.38294,-15.04696 c 15.34017,-1.30629 25.20206,-12.65517 28.62846,-32.94508 1.13976,-6.74924 1.47371,-13.30028 1.36489,-26.77526 -0.0848,-10.497167 -0.26631,-13.387763 -1.27795,-20.348075 -0.0337,-0.231547 -0.0959,-0.420995 -0.13825,-0.420995 -0.0797,0 -58.09764,62.16454 -58.36671,62.53829 -0.13399,0.18611 -0.0709,0.3695 0.54444,1.58316 5.06717,9.99375 13.34105,15.68367 23.85639,16.40597 1.29286,0.0888 4.13493,0.0688 5.38873,-0.038 z m -4.65843,-62.35857 c 15.7627,-16.918375 28.85775,-30.96824 29.10011,-31.221924 l 0.44065,-0.461243 -0.5717,-1.278868 c -3.695,-8.265699 -9.52957,-13.994303 -16.90537,-16.598339 -5.7941,-2.045618 -13.35266,-2.192882 -19.36151,-0.377223 -9.53334,2.880638 -16.28629,10.329877 -20.19011,22.2719 -1.69146,5.174272 -2.77547,11.028995 -3.32707,17.969491 -0.49655,6.247976 -0.52959,23.338406 -0.0579,29.982856 0.18241,2.56994 0.63399,6.46078 1.01726,8.76493 0.45084,2.71037 0.38667,2.54912 0.83097,2.0881 0.20089,-0.20845 13.26201,-14.22131 29.02471,-31.13968 z"
       id="path1" /></g></svg>
