<svg xmlns="http://www.w3.org/2000/svg" xml:space="preserve" width="880.018" height="880.018" viewBox="0 0 232.838 232.838"><path d="M-111.289 177.419c-.204-.087-3.926-3.542-8.56-7.945-1.816-1.726-1.824-1.736-1.824-2.226 0-.442.066-.565.645-1.204.355-.39 8.603-9.186 18.328-19.544s17.694-18.867 17.709-18.909-7.632-8.235-16.994-18.207a38780 38780 0 0 1-18.355-19.56c-1.278-1.369-1.333-1.448-1.333-1.914 0-.268.063-.567.14-.665s2.382-2.28 5.12-4.846c5.323-4.99 5.362-5.019 6.074-4.66.17.085 8.328 8.78 18.13 19.324 9.803 10.543 17.856 19.165 17.896 19.16s7.675-8.214 16.968-18.245c20.885-22.544 18.823-20.37 19.31-20.363.215.003.5.067.63.142.131.075 2.487 2.248 5.236 4.828 5.14 4.827 5.197 4.889 5.059 5.598-.04.201-5.56 6.16-16.902 18.243-9.264 9.87-17.52 18.66-18.347 19.535l-1.503 1.59 18.343 19.539c13.974 14.884 18.36 19.62 18.412 19.886.039.19.007.495-.069.677-.079.188-2.288 2.346-5.163 5.041-5.344 5.013-5.399 5.055-6.087 4.705-.164-.083-8.283-8.764-18.042-19.292s-17.785-19.157-17.834-19.176c-.05-.019-8.131 8.61-17.959 19.176s-17.993 19.258-18.147 19.316c-.332.126-.577.125-.88-.004" style="fill:#000;fill-opacity:1;stroke-width:.42431;stroke:none;stroke-opacity:1" transform="translate(251.408 8.167)"/><path d="M-196.145 179.997c-9.237-.58-16.957-3.061-23.63-7.596-12.157-8.26-19.77-23.035-22.237-43.146-.653-5.33-.798-8.35-.87-18.187-.083-11.138.094-16.841.696-22.357 1.104-10.136 3.432-18.84 7.004-26.198 1.323-2.724 2.145-4.172 3.665-6.455 7.922-11.903 19.43-18.42 34.507-19.545 2.316-.172 8.644-.072 10.672.17 9.567 1.139 16.898 4.064 23.63 9.43 1.597 1.273 5.081 4.796 6.482 6.555 7.427 9.328 11.864 21.949 13.327 37.911.431 4.706.477 6.794.427 19.198-.05 12.36-.078 13.21-.591 17.85-1.148 10.364-3.42 18.883-7.007 26.275-1.32 2.722-2.136 4.16-3.659 6.45-7.11 10.698-17.226 17.104-30.14 19.089-3.444.53-8.822.773-12.276.556m6.383-15.047c15.34-1.306 25.202-12.655 28.628-32.945 1.14-6.749 1.474-13.3 1.365-26.775-.085-10.497-.266-13.388-1.278-20.348-.033-.232-.096-.421-.138-.421-.08 0-58.098 62.165-58.367 62.538-.134.186-.07.37.545 1.583 5.067 9.994 13.34 15.684 23.856 16.406 1.293.09 4.135.07 5.389-.038m-4.659-62.358a58912 58912 0 0 1 29.1-31.222l.441-.461-.572-1.28c-3.695-8.265-9.53-13.994-16.905-16.598-5.794-2.045-13.353-2.192-19.361-.377-9.534 2.88-16.287 10.33-20.19 22.272-1.692 5.174-2.776 11.03-3.328 17.97-.496 6.248-.53 23.338-.057 29.982.182 2.57.634 6.461 1.017 8.765.45 2.71.386 2.55.83 2.088.202-.208 13.263-14.22 29.025-31.14" style="fill:#000;fill-opacity:1;stroke-width:.42431" transform="translate(251.408 8.167)"/></svg>