<svg xmlns="http://www.w3.org/2000/svg" xml:space="preserve" viewBox="0 0 294.70999 222.62601"><g fill="#fff"><path fill-opacity=".447" d="m11.71 117.604 283 3.02-3.02 42.3-288 4.83z"/><path d="m7.51 174.604 194 .302 5.14 45-201 2.72z" opacity=".448"/><path d="m.21.604 267-.604L266 53.8 0 53.196zM9.81 60.604l192-1.03.172 45.7-192 3.62z" opacity=".448" paint-order="stroke fill markers"/></g><g stroke-width="1.16"><path d="M23.61 6.604q5.06 0 7.94 2.09 2.93 2.04 2.93 6.41 0 2.65-1.21 4.6-1.21 1.95-3.39 3.06-2.14 1.11-5.06 1.25l-.65-2.32q3.39.0929 6.08 1.21 2.69 1.11 4.27 3.11 1.58 2 1.58 4.74 0 2.51-.929 4.32-.929 1.76-2.51 2.93-1.58 1.11-3.58 1.67-2 .511-4.13.511h-9.98v-33.6zm.929 14.7q2.79 0 4.04-1.53 1.25-1.58 1.25-3.81 0-2.65-1.63-3.85-1.63-1.2-4.36-1.21h-4.36v10.4zm.186 14.7q1.86 0 3.39-.557 1.58-.557 2.46-1.72.929-1.16.929-2.93 0-1.95-1.07-3.06-1.02-1.11-2.65-1.58-1.63-.511-3.34-.511h-4.97v10.4zm24 4.92q-2.6 0-4.32-1.58-1.67-1.63-1.76-4.18v-14.2h4.32v12.7q.0929 1.58.882 2.55.836.975 2.6 1.02 1.63 0 2.88-.929 1.3-.975 2.09-2.6.789-1.67.789-3.76v-8.96h4.32v19.2h-3.95l-.371-4.74.232.836q-.557 1.35-1.72 2.41-1.11 1.02-2.65 1.63-1.54.61-3.34.604zm19.3-20h4.32v19.2h-4.32zm-.325-6.96q0-1.02.789-1.72.836-.696 1.81-.696.974 0 1.72.696.789.696.789 1.72 0 1.07-.789 1.76-.743.65-1.72.65t-1.81-.696q-.789-.696-.789-1.72zm12.1-9.75h4.32v35.9H79.8zm19.6 36.4q-2.65 0-4.83-1.25-2.14-1.3-3.39-3.62-1.25-2.37-1.25-5.43 0-3.2 1.3-5.48 1.35-2.28 3.62-3.48 2.27-1.2 5.11-1.21 2.28 0 4.32.975 2.09.975 3.25 2.69l-.186 1.53v-21.1h4.27v35.9h-4.32v-4.78l.464 1.21q-1.35 1.76-3.48 2.93-2.14 1.11-4.88 1.11zm1.35-3.67q1.72 0 3.06-.604 1.35-.65 2.23-1.76.88-1.11 1.25-2.65v-3.62q-.371-1.39-1.35-2.41-.929-1.07-2.28-1.67-1.3-.65-2.93-.65-1.76 0-3.25.882-1.44.836-2.32 2.32-.88 1.484-.882 3.44 0 1.9.882 3.44.882 1.49 2.37 2.41 1.49.882 3.2.882zm18.4-16h4.32v19.2h-4.32zm-.325-6.96q0-1.02.789-1.72.836-.696 1.81-.696.974 0 1.72.696.789.696.789 1.72 0 1.07-.789 1.76-.743.65-1.72.65t-1.81-.696q-.789-.696-.789-1.72zm16 6.96.371 4.69-.186-.743q.929-2.14 3.02-3.39 2.09-1.3 4.83-1.3t4.46 1.63q1.76 1.58 1.81 4.13v14.2h-4.36v-12.7q-.0464-1.58-.929-2.55-.836-1.02-2.65-1.02-1.67 0-3.02.929t-2.14 2.55q-.743 1.63-.743 3.76v9.01h-4.32v-19.2zm31.1 28.7q-2.14 0-3.76-.511-1.63-.464-2.97-1.35-1.3-.882-2.51-2l2.51-2.93q1.53 1.44 3.11 2.23 1.58.79 3.53.789 2.18 0 3.67-.743 1.53-.696 2.32-2 .789-1.25.789-2.93l.0464-5.2.371.836q-.836 2-3.02 3.39-2.18 1.35-5.29 1.35-2.65 0-4.88-1.35-2.18-1.35-3.53-3.62-1.3-2.32-1.3-5.2 0-3.02 1.39-5.29 1.39-2.32 3.67-3.67 2.28-1.35 4.97-1.35 2.55 0 4.64 1.07 2.14 1.02 3.11 2.65l-.232.789.464-3.71h3.95v19.4q0 2.6-1.35 4.74t-3.81 3.39q-2.46 1.25-5.9 1.25zm-6.59-19.3q0 1.86.882 3.39t2.37 2.41q1.53.882 3.39.882 1.72 0 3.06-.604 1.39-.65 2.32-1.72.929-1.11 1.3-2.55v-3.81q-.418-1.39-1.39-2.41-.975-1.07-2.32-1.63-1.35-.604-2.97-.604-1.86 0-3.39.836-1.49.836-2.37 2.37-.882 1.49-.882 3.44zm41.6-17.9h4.32v8.54h5.29v3.39h-5.29v15.7h-4.32v-15.7h-3.53v-3.39h3.53zm14.8 27.7v-35.9h4.23v21.2l-.0929-.789q.975-1.9 2.97-3.16 2.04-1.25 4.78-1.25t4.46 1.63q1.76 1.58 1.81 4.13v14.2h-4.36v-12.7q-.0464-1.58-.929-2.55-.836-1.02-2.65-1.02-1.67 0-3.02.975-1.35.929-2.14 2.55-.743 1.63-.743 3.71v9.01zm34.6.464q-3.3 0-5.66-1.3-2.37-1.35-3.67-3.62-1.25-2.32-1.25-5.29 0-2.83 1.44-5.15 1.44-2.32 3.85-3.71 2.41-1.39 5.39-1.39 3.81 0 6.31 2.23 2.5 2.23 3.39 6.13l-15.8 5.57-1.02-2.55 13-4.74-.929.604q-.557-1.53-1.86-2.65-1.3-1.16-3.39-1.16-1.76 0-3.16.882-1.39.836-2.18 2.32-.79 1.484-.789 3.39 0 2 .836 3.53.836 1.49 2.28 2.37 1.49.836 3.34.836 1.25 0 2.41-.464 1.21-.464 2.23-1.21l2 3.2q-1.44.975-3.25 1.58-1.76.604-3.48.604zM15.51 98.604v-15.4h-3.3v-3.85h3.3v-8.13q0-4.18 1.86-6.41 1.9-2.23 5.57-2.23.975 0 2.14.279 1.21.279 2.09.929l-1.81 3.11q-.418-.418-.929-.557-.511-.186-1.02-.186-1.72 0-2.65 1.16-.93 1.16-.929 3.95v8.08h6.08v3.85h-6.08v15.4zm22.1.743q-2.6 0-4.32-1.58-1.67-1.63-1.76-4.18v-14.2h4.32v12.7q.0929 1.58.882 2.55.836.975 2.6 1.02 1.63 0 2.88-.929 1.3-.975 2.09-2.6.789-1.67.789-3.76v-8.96h4.32v19.2h-3.95l-.371-4.74.232.836q-.557 1.35-1.72 2.41-1.11 1.02-2.65 1.63-1.54.61-3.34.604zm21.1-28.4h4.32v8.54h5.29v3.39h-5.29v15.7h-4.32v-15.7h-3.53v-3.39h3.53zm20.9 28.4q-2.6 0-4.32-1.58-1.67-1.63-1.76-4.18v-14.2h4.32v12.7q.0929 1.58.882 2.55.836.975 2.6 1.02 1.63 0 2.88-.929 1.3-.975 2.09-2.6.789-1.67.789-3.76v-8.96h4.32v19.2h-3.95l-.371-4.74.232.836q-.557 1.35-1.72 2.41-1.11 1.02-2.65 1.63-1.54.61-3.34.604zm23.1-20 .418 5.57-.232-.743q.743-1.76 2.14-2.97 1.44-1.25 2.97-1.9 1.58-.696 2.74-.696l-.232 4.27q-2.18-.139-3.85.836-1.63.975-2.6 2.6-.929 1.63-.929 3.48v8.78h-4.27v-19.2zm21.7 19.7q-3.3 0-5.66-1.3-2.37-1.35-3.67-3.62-1.25-2.32-1.25-5.29 0-2.83 1.44-5.15 1.44-2.32 3.85-3.71 2.41-1.39 5.39-1.39 3.81 0 6.31 2.23 2.5 2.23 3.39 6.13l-15.8 5.57-1.02-2.55 13-4.74-.929.604q-.557-1.53-1.86-2.65-1.3-1.16-3.39-1.16-1.76 0-3.16.882-1.39.836-2.18 2.32-.79 1.484-.789 3.39 0 2 .836 3.53.836 1.49 2.28 2.37 1.49.836 3.34.836 1.25 0 2.41-.464 1.21-.464 2.23-1.21l2 3.2q-1.44.975-3.25 1.58-1.76.604-3.48.604zm28.2-10.3q0-2.88 1.35-5.2 1.39-2.32 3.81-3.67t5.48-1.35q3.16 0 5.53 1.35t3.67 3.67q1.3 2.32 1.3 5.2 0 2.88-1.3 5.25-1.3 2.32-3.71 3.67-2.37 1.35-5.53 1.35-3.06 0-5.48-1.25-2.37-1.3-3.76-3.58-1.35-2.32-1.35-5.43zm4.32.0464q0 1.86.836 3.39.836 1.49 2.23 2.37 1.44.882 3.16.882 1.81 0 3.2-.882 1.44-.882 2.23-2.37.789-1.53.789-3.39t-.789-3.34q-.789-1.53-2.23-2.41-1.39-.929-3.2-.929-1.76 0-3.2.929-1.39.929-2.23 2.46-.789 1.49-.789 3.3zm24.2 9.75v-15.4h-3.3v-3.85h3.3v-8.13q0-4.18 1.86-6.41 1.9-2.23 5.57-2.23.975 0 2.14.279 1.21.279 2.09.929l-1.81 3.11q-.418-.418-.929-.557-.511-.186-1.02-.186-1.72 0-2.65 1.16-.93 1.16-.929 3.95v8.08h6.08v3.85h-6.08v15.4zM13.91 137.604h4.32v19.2h-4.32Zm-.325-6.96q0-1.02.789-1.72.836-.696 1.81-.696.974 0 1.72.696.789.696.789 1.72 0 1.07-.789 1.76-.743.65-1.72.65t-1.81-.696q-.789-.696-.789-1.72zm16 6.96.371 4.69-.186-.743q.929-2.14 3.02-3.39 2.09-1.3 4.83-1.3t4.46 1.63q1.76 1.58 1.81 4.13v14.2h-4.36v-12.7q-.0464-1.58-.929-2.55-.836-1.02-2.65-1.02-1.67 0-3.02.929t-2.14 2.55q-.743 1.63-.743 3.76v9.01h-4.32v-19.2zm23.4 19.2v-15.4h-3.3v-3.85h3.3v-8.13q0-4.18 1.86-6.41 1.9-2.23 5.57-2.23.975 0 2.14.279 1.21.279 2.09.929l-1.81 3.11q-.418-.418-.929-.557-.511-.186-1.02-.186-1.72 0-2.65 1.16-.93 1.16-.929 3.95v8.08h6.08v3.85h-6.08v15.4zm19.9-19.2.418 5.57-.232-.743q.743-1.76 2.14-2.97 1.44-1.25 2.97-1.9 1.58-.696 2.74-.696l-.232 4.27q-2.18-.139-3.85.836-1.63.975-2.6 2.6-.929 1.63-.929 3.48v8.78h-4.27v-19.2zm21.1 19.7q-2.69 0-4.92-1.16-2.18-1.16-3.48-3.39-1.25-2.28-1.25-5.53 0-3.2 1.35-5.53 1.35-2.37 3.58-3.62 2.28-1.25 4.97-1.25t4.55 1.25q1.86 1.21 2.83 2.88l-.279.743.418-4.09h3.99v19.2h-4.32v-5.01l.464 1.11q-.186.464-.836 1.21-.604.696-1.67 1.44-1.02.743-2.37 1.25-1.35.464-3.02.464zm1.16-3.58q1.63 0 2.93-.604 1.3-.604 2.14-1.67.882-1.11 1.21-2.65v-3.76q-.371-1.39-1.3-2.41-.929-1.07-2.23-1.63-1.3-.604-2.88-.604-1.72 0-3.16.836-1.44.836-2.32 2.32-.836 1.49-.836 3.48 0 1.86.882 3.39t2.37 2.41q1.488.88 3.2.882zm23.4 3.48q-2.04 0-3.99-.696-1.9-.743-3.16-2.18l1.81-2.51q1.21 1.16 2.46 1.76 1.3.557 2.55.557.929 0 1.72-.232.791-.232 1.25-.743.511-.557.511-1.49 0-1.02-.696-1.63-.65-.604-1.72-.975-1.02-.371-2.18-.696-2.37-.789-3.62-2.18t-1.25-3.39q0-1.53.743-2.83.789-1.35 2.28-2.18 1.53-.836 3.76-.836 2 0 3.58.511 1.58.464 2.97 1.58l-1.72 2.69q-.836-.882-2-1.3-1.164-.418-2.09-.464-.789-.0464-1.53.232-.696.279-1.16.789-.464.51-.464 1.21 0 .975.65 1.58.65.605 1.67.975 1.07.325 2.09.696 1.44.418 2.55 1.11 1.11.692 1.76 1.72.696 1.02.696 2.55 0 1.72-.836 3.2-.789 1.44-2.46 2.32-1.63.836-4.18.836zm15.4-28h4.32v8.54h5.29v3.39h-5.29v15.7h-4.32v-15.7h-3.53v-3.39h3.53zm18.7 8.45.418 5.57-.232-.743q.743-1.76 2.14-2.97 1.44-1.25 2.97-1.9 1.58-.696 2.74-.696l-.232 4.27q-2.18-.139-3.85.836-1.63.975-2.6 2.6-.929 1.63-.929 3.48v8.78h-4.27v-19.2zm19.7 20q-2.6 0-4.32-1.58-1.67-1.63-1.76-4.18v-14.2h4.32v12.7q.0929 1.58.882 2.55.836.975 2.6 1.02 1.63 0 2.88-.929 1.3-.975 2.09-2.6.789-1.67.789-3.76v-8.96h4.32v19.2h-3.95l-.371-4.74.232.836q-.557 1.35-1.72 2.41-1.11 1.02-2.65 1.63-1.54.61-3.34.604zm34.9-2.51q-1.3 1.02-3.11 1.63-1.81.61-3.62.604-3.16 0-5.53-1.25t-3.71-3.48q-1.3-2.28-1.3-5.34t1.39-5.34q1.44-2.28 3.71-3.48 2.32-1.25 4.97-1.25 2.32 0 4.13.65 1.86.65 3.16 1.76l-2.14 2.79q-.836-.65-2.04-1.16-1.204-.51-2.74-.511-1.67 0-3.11.882-1.39.836-2.23 2.32-.789 1.49-.789 3.34 0 1.76.836 3.3.836 1.49 2.32 2.37 1.49.836 3.39.836 1.25 0 2.28-.371 1.07-.371 1.9-1.02zm7.43-25.9h4.32v8.54h5.29v3.39h-5.29v15.7h-4.32v-15.7h-3.53v-3.39h3.53zm20.9 28.4q-2.6 0-4.32-1.58-1.67-1.63-1.76-4.18v-14.2h4.32v12.7q.0929 1.58.882 2.55.836.975 2.6 1.02 1.63 0 2.88-.929 1.3-.975 2.09-2.6.789-1.67.789-3.76v-8.96h4.32v19.2h-3.95l-.371-4.74.232.836q-.557 1.35-1.72 2.41-1.11 1.02-2.65 1.63-1.54.61-3.34.604zm23.1-20 .418 5.57-.232-.743q.743-1.76 2.14-2.97 1.44-1.25 2.97-1.9 1.58-.696 2.74-.696l-.232 4.27q-2.18-.139-3.85.836-1.63.975-2.6 2.6-.929 1.63-.929 3.48v8.78h-4.27v-19.2zm21.7 19.7q-3.3 0-5.66-1.3-2.37-1.35-3.67-3.62-1.25-2.32-1.25-5.29 0-2.83 1.44-5.15 1.44-2.32 3.85-3.71 2.41-1.39 5.39-1.39 3.81 0 6.31 2.23 2.5 2.23 3.39 6.13l-15.8 5.57-1.02-2.55 13-4.74-.929.604q-.557-1.53-1.86-2.65-1.3-1.16-3.39-1.16-1.76 0-3.16.882-1.39.836-2.18 2.32-.79 1.484-.789 3.39 0 2 .836 3.53.836 1.49 2.28 2.37 1.49.836 3.34.836 1.25 0 2.41-.464 1.21-.464 2.23-1.21l2 3.2q-1.44.975-3.25 1.58-1.76.604-3.48.604zM26.21 195.604l5.66 13-.836.0929 5.29-13h4.23l-8.82 20.4-6.18-13.2-5.62 13.2-8.91-20.4h4.23l5.99 13.6-1.49-.279 4.27-9.94-1.53-3.34zm19 0h4.32v19.2h-4.32Zm-.325-6.96q0-1.02.789-1.72.836-.696 1.81-.696.974 0 1.72.696.789.696.789 1.72 0 1.07-.789 1.76-.743.65-1.72.65t-1.81-.696q-.789-.696-.789-1.72zm14-1.49h4.32v8.54h5.29v3.39h-5.29v15.7h-4.32v-15.7h-3.53v-3.39h3.53zm14.8 27.7v-35.9h4.23v21.2l-.0929-.789q.975-1.9 2.97-3.16 2.04-1.25 4.78-1.25t4.46 1.63q1.76 1.58 1.81 4.13v14.2h-4.36v-12.7q-.0464-1.58-.929-2.55-.836-1.02-2.65-1.02-1.67 0-3.02.975-1.35.929-2.14 2.55-.743 1.63-.743 3.71v9.01zm50.3-33.6q2.55 0 4.69.696 2.18.65 3.76 2 1.63 1.3 2.51 3.25.929 1.9.929 4.46 0 2-.604 3.9-.557 1.9-1.9 3.48-1.35 1.53-3.53 2.51-2.14.929-5.29.929h-4.97v12.4h-4.5v-33.6zm.464 16.9q2 0 3.3-.604 1.35-.604 2.09-1.53.743-.975 1.07-2.09.327-1.115.325-2.09 0-1.02-.371-2.09-.325-1.11-1.11-2.04-.743-.929-2-1.53-1.21-.604-2.97-.604h-5.2v12.6zm5.53 2.55 8.78 14.1h-5.2l-8.91-14zm20.7 14.9q-2.6 0-4.32-1.58-1.67-1.63-1.76-4.18v-14.2h4.32v12.7q.0929 1.58.882 2.55.836.975 2.6 1.02 1.63 0 2.88-.929 1.3-.975 2.09-2.6.789-1.67.789-3.76v-8.96h4.32v19.2h-3.95l-.371-4.74.232.836q-.557 1.35-1.72 2.41-1.11 1.02-2.65 1.63-1.54.61-3.34.604zm24.7-.371q-2.04 0-3.99-.696-1.9-.743-3.16-2.18l1.81-2.51q1.21 1.16 2.46 1.76 1.3.557 2.55.557.929 0 1.72-.232.791-.232 1.25-.743.511-.557.511-1.49 0-1.02-.696-1.63-.65-.604-1.72-.975-1.02-.371-2.18-.696-2.37-.789-3.62-2.18t-1.25-3.39q0-1.53.743-2.83.789-1.35 2.28-2.18 1.53-.836 3.76-.836 2 0 3.58.511 1.58.464 2.97 1.58l-1.72 2.69q-.836-.882-2-1.3-1.164-.418-2.09-.464-.789-.0464-1.53.232-.696.279-1.16.789-.464.51-.464 1.21 0 .975.65 1.58.65.605 1.67.975 1.07.325 2.09.696 1.44.418 2.55 1.11 1.11.692 1.76 1.72.696 1.02.696 2.55 0 1.72-.836 3.2-.789 1.44-2.46 2.32-1.63.836-4.18.836zm15.4-28h4.32v8.54h5.29v3.39h-5.29v15.7h-4.32v-15.7h-3.53v-3.39h3.53z"/></g></svg>