<?xml version="1.0" encoding="UTF-8"?>
<svg version="1.1" viewBox="0 0 274 221" xml:space="preserve" xmlns="http://www.w3.org/2000/svg"><g fill="#fff"><path d="m10.5 173 219-4.9-2.38 47.8-217 2.13z" fill="#ffd885" stroke-width=".944"/><path d="m11.3 0 194 0.302 5.14 45-201 2.72z" fill="#ffd885"/><path d="m7.31 57.1 250-0.539-1.13 48-249-0.539z" fill="#ffd885" stroke-linecap="round" stroke-linejoin="round" stroke-width="1.06" style="paint-order:stroke fill markers"/><path d="m6.95 114 106-1.03 0.0946 45.7-106 3.62z" fill="#ffd885" stroke-linecap="round" stroke-linejoin="round" stroke-width=".779" style="paint-order:stroke fill markers"/></g><path d="m20.9 7.97h18.4v5.6h-12.6v6.68h10.9v5.6h-10.9v11.6h-5.8zm28.1 12 0.52 4.8-0.12-0.72q0.76-1.56 2.08-2.64 1.32-1.12 2.6-1.72 1.32-0.6 2-0.6l-0.28 5.6q-1.96-0.24-3.36 0.64t-2.16 2.32-0.76 2.96v6.84h-5.56v-17.5zm11.4 0h5.6v17.5h-5.6zm-0.12-6.2q0-1.24 0.96-2.04 1-0.8 2.12-0.8t2.04 0.8q0.96 0.8 0.96 2.04t-0.96 2.04q-0.92 0.76-2.04 0.76t-2.12-0.76q-0.96-0.8-0.96-2.04zm20.1 24.2q-3.2 0-5.44-1.2-2.2-1.2-3.36-3.32t-1.16-4.88q0-2.64 1.36-4.76t3.64-3.36q2.28-1.28 5.08-1.28 3.76 0 6.16 2.2 2.44 2.16 3.16 6.28l-13.6 4.32-1.24-3.04 9.84-3.32-1.16 0.52q-0.32-1.04-1.16-1.8-0.8-0.8-2.44-0.8-1.24 0-2.2 0.6-0.92 0.56-1.44 1.64-0.48 1.04-0.48 2.48 0 1.64 0.6 2.76 0.6 1.08 1.64 1.64t2.32 0.56q0.92 0 1.76-0.32 0.88-0.32 1.72-0.84l2.48 4.16q-1.4 0.8-3.04 1.28-1.6 0.48-3.04 0.48zm18.6-18 0.44 3.12-0.08-0.28q0.92-1.64 2.6-2.64 1.68-1.04 4.12-1.04 2.48 0 4.12 1.48 1.68 1.44 1.72 3.76v13.1h-5.6v-11q-0.04-1.16-0.64-1.84-0.56-0.72-1.92-0.72-1.28 0-2.24 0.84t-1.48 2.28-0.52 3.32v7.12h-5.6v-17.5zm25.8 18q-2.44 0-4.36-1.12-1.92-1.16-3.04-3.32-1.08-2.16-1.08-5.12t1.2-5.04 3.28-3.16 4.72-1.08q1.68 0 3.2 0.52 1.56 0.52 2.6 1.6v1.76-17.1h5.56v31.6h-5.6v-3.4l0.44 1.2q-1.36 1.12-3.04 1.92-1.68 0.76-3.88 0.76zm1.84-4.72q1.12 0 1.96-0.28 0.88-0.32 1.52-0.88 0.68-0.6 1.16-1.48v-4.28q-0.32-0.88-1-1.48-0.64-0.64-1.6-0.96-0.92-0.36-2.04-0.36-1.24 0-2.32 0.64-1.04 0.6-1.68 1.68t-0.64 2.48 0.64 2.52 1.68 1.76q1.08 0.64 2.32 0.64zm16-27.3h5.6v31.6h-5.6zm12.8 40 11.6-25.9h5.04l-11.3 25.9zm4.68-8.32-8.56-17.6h6.28l6.6 14.8zm19.9-3.6q-0.88 2.12-1.76 4.2t-1.76 4.2h-4.48q0.8-2.12 1.56-4.2 0.8-2.08 1.6-4.2z" aria-label="Friendly,"/><path d="m30.1 93.4q-1.56 0-3.08-0.56-1.48-0.6-2.48-1.68l0.16-1.64v11.8h-5.56v-26.3h4.8l0.8 3.4-0.44-1.2q1.36-1.16 3.04-1.92t3.88-0.76q2.44 0 4.36 1.16 1.92 1.12 3 3.28 1.12 2.12 1.12 5.12 0 2.96-1.24 5.04t-3.4 3.16-4.96 1.08zm-1.12-4.4q1.36 0 2.48-0.6 1.16-0.6 1.84-1.68 0.72-1.12 0.72-2.52 0-1.48-0.64-2.56-0.6-1.12-1.68-1.72-1.04-0.64-2.32-0.64-1.12 0-2 0.32-0.84 0.28-1.52 0.88-0.64 0.56-1.12 1.44v4.28q0.32 0.84 0.92 1.48t1.44 1q0.88 0.32 1.88 0.32zm20.2-13.6 0.52 4.8-0.12-0.72q0.76-1.56 2.08-2.64 1.32-1.12 2.6-1.72 1.32-0.6 2-0.6l-0.28 5.6q-1.96-0.24-3.36 0.64t-2.16 2.32-0.76 2.96v6.84h-5.56v-17.5zm9.2 8.52q0-2.68 1.24-4.8 1.28-2.12 3.56-3.32 2.28-1.24 5.24-1.24 3 0 5.2 1.24 2.2 1.2 3.36 3.32 1.2 2.12 1.2 4.8t-1.2 4.84q-1.16 2.12-3.36 3.36t-5.28 1.24q-2.88 0-5.16-1.12-2.24-1.12-3.52-3.24t-1.28-5.08zm5.64 0.04q0 1.36 0.56 2.48 0.56 1.08 1.52 1.72t2.16 0.64q1.32 0 2.28-0.64t1.48-1.72q0.52-1.12 0.52-2.48 0-1.4-0.52-2.48t-1.48-1.72-2.28-0.64q-1.2 0-2.16 0.64t-1.52 1.72-0.56 2.48zm20.2 8.92v-12.6h-2.96v-4.96h2.96v-6.08q0-3.44 1.96-5.6 2-2.2 5.76-2.2 1.12 0 2.48 0.36 1.4 0.32 2.44 1.08l-2.36 4.04q-0.4-0.52-0.96-0.68-0.52-0.2-1-0.2-1.2 0-1.96 0.8t-0.76 2.56v5.92h5.28v4.96h-5.28v12.6zm23.1 0.48q-3.2 0-5.44-1.2-2.2-1.2-3.36-3.32t-1.16-4.88q0-2.64 1.36-4.76 1.36-2.12 3.64-3.36 2.28-1.28 5.08-1.28 3.76 0 6.16 2.2 2.44 2.16 3.16 6.28l-13.6 4.32-1.24-3.04 9.84-3.32-1.16 0.52q-0.32-1.04-1.16-1.8-0.8-0.8-2.44-0.8-1.24 0-2.2 0.6-0.92 0.56-1.44 1.64-0.48 1.04-0.48 2.48 0 1.64 0.6 2.76 0.6 1.08 1.64 1.64t2.32 0.56q0.92 0 1.76-0.32 0.88-0.32 1.72-0.84l2.48 4.16q-1.4 0.8-3.04 1.28-1.6 0.48-3.04 0.48zm19.2-0.12q-2.16 0-4.04-0.76-1.84-0.76-3.12-2.12l2.32-3.08q1.28 1.16 2.36 1.68 1.12 0.48 2 0.48 0.68 0 1.2-0.12 0.56-0.16 0.88-0.44 0.32-0.32 0.32-0.8 0-0.68-0.56-1.08-0.52-0.4-1.36-0.64-0.84-0.28-1.8-0.56-2.4-0.76-3.48-2.2-1.04-1.48-1.04-3.2 0-1.32 0.68-2.64 0.72-1.36 2.24-2.24 1.56-0.92 4-0.92 2.2 0 3.72 0.44t2.88 1.44l-2.12 3.28q-0.76-0.6-1.72-1-0.92-0.44-1.72-0.48-0.72-0.04-1.24 0.16-0.48 0.2-0.76 0.52t-0.28 0.68q-0.04 0.76 0.56 1.2 0.64 0.44 1.6 0.68t1.88 0.56q1.28 0.4 2.2 1.08t1.4 1.64q0.52 0.92 0.52 2.24 0 1.6-0.84 3.04-0.8 1.4-2.48 2.28-1.64 0.88-4.2 0.88zm17.9 0q-2.16 0-4.04-0.76-1.84-0.76-3.12-2.12l2.32-3.08q1.28 1.16 2.36 1.68 1.12 0.48 2 0.48 0.68 0 1.2-0.12 0.56-0.16 0.88-0.44 0.32-0.32 0.32-0.8 0-0.68-0.56-1.08-0.52-0.4-1.36-0.64-0.84-0.28-1.8-0.56-2.4-0.76-3.48-2.2-1.04-1.48-1.04-3.2 0-1.32 0.68-2.64 0.72-1.36 2.24-2.24 1.56-0.92 4-0.92 2.2 0 3.72 0.44t2.88 1.44l-2.12 3.28q-0.76-0.6-1.72-1-0.92-0.44-1.72-0.48-0.72-0.04-1.24 0.16-0.48 0.2-0.76 0.52t-0.28 0.68q-0.04 0.76 0.56 1.2 0.64 0.44 1.6 0.68t1.88 0.56q1.28 0.4 2.2 1.08t1.4 1.64q0.52 0.92 0.52 2.24 0 1.6-0.84 3.04-0.8 1.4-2.48 2.28-1.64 0.88-4.2 0.88zm12.2-17.8h5.6v17.5h-5.6zm-0.12-6.2q0-1.24 0.96-2.04 1-0.8 2.12-0.8t2.04 0.8q0.96 0.8 0.96 2.04t-0.96 2.04q-0.92 0.76-2.04 0.76t-2.12-0.76q-0.96-0.8-0.96-2.04zm10.1 14.7q0-2.68 1.24-4.8 1.28-2.12 3.56-3.32 2.28-1.24 5.24-1.24 3 0 5.2 1.24 2.2 1.2 3.36 3.32 1.2 2.12 1.2 4.8t-1.2 4.84q-1.16 2.12-3.36 3.36t-5.28 1.24q-2.88 0-5.16-1.12-2.24-1.12-3.52-3.24t-1.28-5.08zm5.64 0.04q0 1.36 0.56 2.48 0.56 1.08 1.52 1.72t2.16 0.64q1.32 0 2.28-0.64t1.48-1.72q0.52-1.12 0.52-2.48 0-1.4-0.52-2.48t-1.48-1.72-2.28-0.64q-1.2 0-2.16 0.64t-1.52 1.72-0.56 2.48zm23.6-8.56 0.44 3.12-0.08-0.28q0.92-1.64 2.6-2.64 1.68-1.04 4.12-1.04 2.48 0 4.12 1.48 1.68 1.44 1.72 3.76v13.1h-5.6v-11q-0.04-1.16-0.64-1.84-0.56-0.72-1.92-0.72-1.28 0-2.24 0.84t-1.48 2.28-0.52 3.32v7.12h-5.6v-17.5zm26 18q-2.44 0-4.44-0.96-1.96-1-3.12-3.04t-1.16-5.2q0-2.96 1.2-5.12t3.16-3.32q1.96-1.2 4.16-1.2 2.6 0 3.92 0.88 1.36 0.84 2.24 1.88l-0.24 0.68 0.52-2.56h5.2v17.5h-5.6v-3.8l0.44 1.2q-0.08 0-0.48 0.48-0.4 0.44-1.2 1.08-0.76 0.6-1.92 1.04-1.12 0.48-2.68 0.48zm1.6-4.56q1 0 1.8-0.28 0.8-0.32 1.4-0.88 0.6-0.6 1.04-1.48v-4.28q-0.32-0.88-0.96-1.48-0.64-0.64-1.52-0.96-0.88-0.36-1.96-0.36-1.2 0-2.24 0.64-1 0.6-1.6 1.68t-0.6 2.48 0.64 2.52 1.68 1.76q1.08 0.64 2.32 0.64zm15.6-27.5h5.6v31.6h-5.6z" aria-label="professional"/><path d="m29 121q2.76 0 4.92 0.72 2.16 0.68 3.6 2 1.48 1.28 2.24 3.12 0.76 1.8 0.76 4.08 0 1.8-0.56 3.6-0.52 1.8-1.76 3.28-1.2 1.48-3.2 2.4-2 0.88-4.96 0.88h-4.16v9.36h-5.8v-29.4zm1 14.5q1.32 0 2.2-0.44t1.36-1.12q0.52-0.68 0.72-1.4 0.24-0.76 0.24-1.4 0-0.48-0.16-1.2-0.12-0.76-0.56-1.52t-1.36-1.28q-0.88-0.52-2.4-0.52h-4.16v8.88zm5.44 3.6 7.28 11.4h-6.76l-7.44-11.2zm16.8 12.2q-2.36 0-3.96-1.44-1.6-1.48-1.68-3.8v-13.1h5.6v11q0.08 1.16 0.6 1.88 0.52 0.68 1.76 0.68t2.12-0.84q0.92-0.84 1.4-2.28 0.52-1.48 0.52-3.32v-7.12h5.6v17.5h-5.08l-0.44-3.2 0.08 0.36q-0.6 1.08-1.52 1.92t-2.2 1.28q-1.24 0.48-2.8 0.48zm23.4-0.48q-2.16 0-4.04-0.76-1.84-0.76-3.12-2.12l2.32-3.08q1.28 1.16 2.36 1.68 1.12 0.48 2 0.48 0.68 0 1.2-0.12 0.56-0.16 0.88-0.44 0.32-0.32 0.32-0.8 0-0.68-0.56-1.08-0.52-0.4-1.36-0.64-0.84-0.28-1.8-0.56-2.4-0.76-3.48-2.2-1.04-1.48-1.04-3.2 0-1.32 0.68-2.64 0.72-1.36 2.24-2.24 1.56-0.92 4-0.92 2.2 0 3.72 0.44t2.88 1.44l-2.12 3.28q-0.76-0.6-1.72-1-0.92-0.44-1.72-0.48-0.72-0.04-1.24 0.16-0.48 0.2-0.76 0.52t-0.28 0.68q-0.04 0.76 0.56 1.2 0.64 0.44 1.6 0.68t1.88 0.56q1.28 0.4 2.2 1.08t1.4 1.64q0.52 0.92 0.52 2.24 0 1.6-0.84 3.04-0.8 1.4-2.48 2.28-1.64 0.88-4.2 0.88zm13.8-25.5h5.6v7.6h4.24v4.36h-4.24v13.2h-5.6v-13.2h-2.72v-4.36h2.72z" aria-label="Rust"/><path d="m42.1 204q-0.48 0.4-1.8 1.08-1.28 0.68-3.16 1.2t-4.16 0.48q-3.48-0.08-6.24-1.24-2.72-1.2-4.64-3.24-1.88-2.04-2.88-4.68t-1-5.64q0-3.36 1-6.16 1.04-2.8 2.92-4.84 1.92-2.04 4.56-3.16t5.84-1.12q2.96 0 5.24 0.8t3.72 1.72l-2.28 5.48q-1-0.76-2.68-1.56-1.64-0.84-3.8-0.84-1.68 0-3.24 0.72-1.52 0.68-2.72 1.96-1.16 1.28-1.84 3-0.68 1.68-0.68 3.68 0 2.12 0.6 3.88 0.64 1.76 1.8 3.04 1.16 1.24 2.76 1.92 1.64 0.68 3.68 0.68 2.36 0 4.04-0.76t2.56-1.6zm3.52-6.52q0-2.68 1.24-4.8 1.28-2.12 3.56-3.32 2.28-1.24 5.24-1.24 3 0 5.2 1.24 2.2 1.2 3.36 3.32 1.2 2.12 1.2 4.8t-1.2 4.84q-1.16 2.12-3.36 3.36t-5.28 1.24q-2.88 0-5.16-1.12-2.24-1.12-3.52-3.24t-1.28-5.08zm5.64 0.04q0 1.36 0.56 2.48 0.56 1.08 1.52 1.72t2.16 0.64q1.32 0 2.28-0.64t1.48-1.72q0.52-1.12 0.52-2.48 0-1.4-0.52-2.48t-1.48-1.72-2.28-0.64q-1.2 0-2.16 0.64t-1.52 1.72-0.56 2.48zm23.6-8.56 0.44 3.12-0.08-0.28q0.92-1.64 2.6-2.64 1.68-1.04 4.12-1.04 2.48 0 4.12 1.48 1.68 1.44 1.72 3.76v13.1h-5.6v-11q-0.04-1.16-0.64-1.84-0.56-0.72-1.92-0.72-1.28 0-2.24 0.84t-1.48 2.28-0.52 3.32v7.12h-5.6v-17.5zm24.4 17.8q-2.16 0-4.04-0.76-1.84-0.76-3.12-2.12l2.32-3.08q1.28 1.16 2.36 1.68 1.12 0.48 2 0.48 0.68 0 1.2-0.12 0.56-0.16 0.88-0.44 0.32-0.32 0.32-0.8 0-0.68-0.56-1.08-0.52-0.4-1.36-0.64-0.84-0.28-1.8-0.56-2.4-0.76-3.48-2.2-1.04-1.48-1.04-3.2 0-1.32 0.68-2.64 0.72-1.36 2.24-2.24 1.56-0.92 4-0.92 2.2 0 3.72 0.44t2.88 1.44l-2.12 3.28q-0.76-0.6-1.72-1-0.92-0.44-1.72-0.48-0.72-0.04-1.24 0.16-0.48 0.2-0.76 0.52t-0.28 0.68q-0.04 0.76 0.56 1.2 0.64 0.44 1.6 0.68 0.96 0.24 1.88 0.56 1.28 0.4 2.2 1.08t1.4 1.64q0.52 0.92 0.52 2.24 0 1.6-0.84 3.04-0.8 1.4-2.48 2.28-1.64 0.88-4.2 0.88zm17.8 0.48q-2.36 0-3.96-1.44-1.6-1.48-1.68-3.8v-13.1h5.6v11q0.08 1.16 0.6 1.88 0.52 0.68 1.76 0.68t2.12-0.84q0.92-0.84 1.4-2.28 0.52-1.48 0.52-3.32v-7.12h5.6v17.5h-5.08l-0.44-3.2 0.08 0.36q-0.6 1.08-1.52 1.92t-2.2 1.28q-1.24 0.48-2.8 0.48zm17.7-32.4h5.6v31.6h-5.6zm13 6.4h5.6v7.6h4.24v4.36h-4.24v13.2h-5.6v-13.2h-2.72v-4.36h2.72zm14.1 7.68h5.6v17.5h-5.6zm-0.12-6.2q0-1.24 0.96-2.04 1-0.8 2.12-0.8t2.04 0.8q0.96 0.8 0.96 2.04t-0.96 2.04q-0.92 0.76-2.04 0.76t-2.12-0.76q-0.96-0.8-0.96-2.04zm16.6 6.2 0.44 3.12-0.08-0.28q0.92-1.64 2.6-2.64 1.68-1.04 4.12-1.04 2.48 0 4.12 1.48 1.68 1.44 1.72 3.76v13.1h-5.6v-11q-0.04-1.16-0.64-1.84-0.56-0.72-1.92-0.72-1.28 0-2.24 0.84t-1.48 2.28-0.52 3.32v7.12h-5.6v-17.5zm27.7 26.3q-2.36 0-4-0.56-1.6-0.56-2.72-1.36t-2-1.52l3.28-3.84q0.92 0.84 2.12 1.6 1.24 0.8 3.24 0.8 1.32 0 2.44-0.48 1.16-0.44 1.84-1.32 0.72-0.88 0.72-2.2v-3.84l0.2 1q-0.64 1.36-2.32 2.4-1.68 1-4.4 1-2.36 0-4.4-1.2-2-1.24-3.2-3.32-1.2-2.12-1.2-4.8 0-2.76 1.28-4.88 1.28-2.16 3.32-3.4t4.32-1.24 3.92 0.68q1.68 0.64 2.52 1.6l-0.2 0.52 0.6-1.92h5.16v17.5q0 2.56-1.44 4.52-1.44 2-3.84 3.12-2.36 1.16-5.24 1.16zm-4.76-17.8q0 1.4 0.64 2.52t1.72 1.76q1.12 0.64 2.48 0.64 1.16 0 2.04-0.28 0.92-0.32 1.6-0.88 0.72-0.6 1.2-1.48v-4.28q-0.36-0.88-1.08-1.48-0.72-0.64-1.68-0.96-0.92-0.36-2.08-0.36-1.36 0-2.48 0.64-1.08 0.6-1.72 1.68t-0.64 2.48z" aria-label="Consulting"/></svg>
