<svg xmlns="http://www.w3.org/2000/svg" xml:space="preserve" viewBox="0 0 274 221"><desc>High-quality consulting services for the Rust programming language.</desc><g fill="#ffd885"><path d="m10.5 173 219-4.9-2.38 47.8-217 2.13zm.8-173 194 .302 5.14 45-201 2.72z"/><path d="m7.31 57.1 250-.539-1.13 48-249-.539zM6.95 114l106-1.03.095 45.7-106 3.62z" style="paint-order:stroke fill markers"/></g><path d="M20.9 7.97h18.4v5.6H26.7v6.68h10.9v5.6H26.7v11.6h-5.8zm28.1 12 .52 4.8-.12-.72q.76-1.56 2.08-2.64 1.32-1.12 2.6-1.72 1.32-.6 2-.6l-.28 5.6q-1.96-.24-3.36.64t-2.16 2.32-.76 2.96v6.84h-5.56v-17.5zm11.4 0H66v17.5h-5.6zm-.12-6.2q0-1.24.96-2.04 1-.8 2.12-.8t2.04.8q.96.8.96 2.04t-.96 2.04q-.92.76-2.04.76t-2.12-.76q-.96-.8-.96-2.04m20.1 24.2q-3.2 0-5.44-1.2-2.2-1.2-3.36-3.32t-1.16-4.88q0-2.64 1.36-4.76t3.64-3.36q2.28-1.28 5.08-1.28 3.76 0 6.16 2.2 2.44 2.16 3.16 6.28l-13.6 4.32-1.24-3.04 9.84-3.32-1.16.52q-.32-1.04-1.16-1.8-.8-.8-2.44-.8-1.24 0-2.2.6-.92.56-1.44 1.64-.48 1.04-.48 2.48 0 1.64.6 2.76.6 1.08 1.64 1.64t2.32.56q.92 0 1.76-.32.88-.32 1.72-.84l2.48 4.16q-1.4.8-3.04 1.28-1.6.48-3.04.48m18.6-18 .44 3.12-.08-.28q.92-1.64 2.6-2.64 1.68-1.04 4.12-1.04 2.48 0 4.12 1.48 1.68 1.44 1.72 3.76v13.1h-5.6v-11q-.04-1.16-.64-1.84-.56-.72-1.92-.72-1.28 0-2.24.84t-1.48 2.28-.52 3.32v7.12h-5.6v-17.5zm25.8 18q-2.44 0-4.36-1.12-1.92-1.16-3.04-3.32-1.08-2.16-1.08-5.12t1.2-5.04 3.28-3.16 4.72-1.08q1.68 0 3.2.52 1.56.52 2.6 1.6v1.76-17.1h5.56v31.6h-5.6v-3.4l.44 1.2q-1.36 1.12-3.04 1.92-1.68.76-3.88.76zm1.84-4.72q1.12 0 1.96-.28.88-.32 1.52-.88.68-.6 1.16-1.48v-4.28q-.32-.88-1-1.48-.64-.64-1.6-.96-.92-.36-2.04-.36-1.24 0-2.32.64-1.04.6-1.68 1.68t-.64 2.48.64 2.52 1.68 1.76q1.08.64 2.32.64m16-27.3h5.6v31.6h-5.6zm12.8 40 11.6-25.9h5.04l-11.3 25.9zm4.68-8.32-8.56-17.6h6.28l6.6 14.8zm19.9-3.6q-.88 2.12-1.76 4.2t-1.76 4.2H172q.8-2.12 1.56-4.2.8-2.08 1.6-4.2z" aria-label="Friendly,"/><path d="M30.1 93.4q-1.56 0-3.08-.56-1.48-.6-2.48-1.68l.16-1.64v11.8h-5.56v-26.3h4.8l.8 3.4-.44-1.2q1.36-1.16 3.04-1.92t3.88-.76q2.44 0 4.36 1.16 1.92 1.12 3 3.28 1.12 2.12 1.12 5.12 0 2.96-1.24 5.04t-3.4 3.16-4.96 1.08zM28.98 89q1.36 0 2.48-.6 1.16-.6 1.84-1.68.72-1.12.72-2.52 0-1.48-.64-2.56-.6-1.12-1.68-1.72-1.04-.64-2.32-.64-1.12 0-2 .32-.84.28-1.52.88-.64.56-1.12 1.44v4.28q.32.84.92 1.48t1.44 1q.88.32 1.88.32m20.2-13.6.52 4.8-.12-.72q.76-1.56 2.08-2.64 1.32-1.12 2.6-1.72 1.32-.6 2-.6l-.28 5.6q-1.96-.24-3.36.64t-2.16 2.32-.76 2.96v6.84h-5.56v-17.5zm9.2 8.52q0-2.68 1.24-4.8Q60.9 77 63.18 75.8q2.28-1.24 5.24-1.24 3 0 5.2 1.24 2.2 1.2 3.36 3.32 1.2 2.12 1.2 4.8t-1.2 4.84q-1.16 2.12-3.36 3.36t-5.28 1.24q-2.88 0-5.16-1.12-2.24-1.12-3.52-3.24t-1.28-5.08m5.64.04q0 1.36.56 2.48.56 1.08 1.52 1.72t2.16.64q1.32 0 2.28-.64t1.48-1.72q.52-1.12.52-2.48 0-1.4-.52-2.48t-1.48-1.72-2.28-.64q-1.2 0-2.16.64t-1.52 1.72-.56 2.48m20.2 8.92v-12.6h-2.96v-4.96h2.96v-6.08q0-3.44 1.96-5.6 2-2.2 5.76-2.2 1.12 0 2.48.36 1.4.32 2.44 1.08l-2.36 4.04q-.4-.52-.96-.68-.52-.2-1-.2-1.2 0-1.96.8t-.76 2.56v5.92h5.28v4.96h-5.28v12.6zm23.1.48q-3.2 0-5.44-1.2-2.2-1.2-3.36-3.32t-1.16-4.88q0-2.64 1.36-4.76t3.64-3.36q2.28-1.28 5.08-1.28 3.76 0 6.16 2.2 2.44 2.16 3.16 6.28l-13.6 4.32-1.24-3.04 9.84-3.32-1.16.52q-.32-1.04-1.16-1.8-.8-.8-2.44-.8-1.24 0-2.2.6-.92.56-1.44 1.64-.48 1.04-.48 2.48 0 1.64.6 2.76.6 1.08 1.64 1.64t2.32.56q.92 0 1.76-.32.88-.32 1.72-.84l2.48 4.16q-1.4.8-3.04 1.28-1.6.48-3.04.48m19.2-.12q-2.16 0-4.04-.76-1.84-.76-3.12-2.12l2.32-3.08q1.28 1.16 2.36 1.68 1.12.48 2 .48.68 0 1.2-.12.56-.16.88-.44.32-.32.32-.8 0-.68-.56-1.08-.52-.4-1.36-.64-.84-.28-1.8-.56-2.4-.76-3.48-2.2-1.04-1.48-1.04-3.2 0-1.32.68-2.64.72-1.36 2.24-2.24 1.56-.92 4-.92 2.2 0 3.72.44t2.88 1.44l-2.12 3.28q-.76-.6-1.72-1-.92-.44-1.72-.48-.72-.04-1.24.16-.48.2-.76.52t-.28.68q-.04.76.56 1.2.64.44 1.6.68t1.88.56q1.28.4 2.2 1.08t1.4 1.64q.52.92.52 2.24 0 1.6-.84 3.04-.8 1.4-2.48 2.28-1.64.88-4.2.88m17.9 0q-2.16 0-4.04-.76-1.84-.76-3.12-2.12l2.32-3.08q1.28 1.16 2.36 1.68 1.12.48 2 .48.68 0 1.2-.12.56-.16.88-.44.32-.32.32-.8 0-.68-.56-1.08-.52-.4-1.36-.64-.84-.28-1.8-.56-2.4-.76-3.48-2.2-1.04-1.48-1.04-3.2 0-1.32.68-2.64.72-1.36 2.24-2.24 1.56-.92 4-.92 2.2 0 3.72.44t2.88 1.44l-2.12 3.28q-.76-.6-1.72-1-.92-.44-1.72-.48-.72-.04-1.24.16-.48.2-.76.52t-.28.68q-.04.76.56 1.2.64.44 1.6.68t1.88.56q1.28.4 2.2 1.08t1.4 1.64q.52.92.52 2.24 0 1.6-.84 3.04-.8 1.4-2.48 2.28-1.64.88-4.2.88m12.2-17.8h5.6v17.5h-5.6zm-.12-6.2q0-1.24.96-2.04 1-.8 2.12-.8t2.04.8q.96.8.96 2.04t-.96 2.04q-.92.76-2.04.76t-2.12-.76q-.96-.8-.96-2.04m10.1 14.7q0-2.68 1.24-4.8 1.28-2.12 3.56-3.32 2.28-1.24 5.24-1.24 3 0 5.2 1.24 2.2 1.2 3.36 3.32 1.2 2.12 1.2 4.8t-1.2 4.84q-1.16 2.12-3.36 3.36t-5.28 1.24q-2.88 0-5.16-1.12-2.24-1.12-3.52-3.24t-1.28-5.08m5.64.04q0 1.36.56 2.48.56 1.08 1.52 1.72t2.16.64q1.32 0 2.28-.64t1.48-1.72q.52-1.12.52-2.48 0-1.4-.52-2.48t-1.48-1.72-2.28-.64q-1.2 0-2.16.64t-1.52 1.72-.56 2.48m23.6-8.56.44 3.12-.08-.28q.92-1.64 2.6-2.64 1.68-1.04 4.12-1.04 2.48 0 4.12 1.48 1.68 1.44 1.72 3.76v13.1h-5.6v-11q-.04-1.16-.64-1.84-.56-.72-1.92-.72-1.28 0-2.24.84t-1.48 2.28-.52 3.32v7.12h-5.6v-17.5zm26 18q-2.44 0-4.44-.96-1.96-1-3.12-3.04t-1.16-5.2q0-2.96 1.2-5.12t3.16-3.32q1.96-1.2 4.16-1.2 2.6 0 3.92.88 1.36.84 2.24 1.88l-.24.68.52-2.56h5.2v17.5h-5.6v-3.8l.44 1.2q-.08 0-.48.48-.4.44-1.2 1.08-.76.6-1.92 1.04-1.12.48-2.68.48zm1.6-4.56q1 0 1.8-.28.8-.32 1.4-.88.6-.6 1.04-1.48v-4.28q-.32-.88-.96-1.48-.64-.64-1.52-.96-.88-.36-1.96-.36-1.2 0-2.24.64-1 .6-1.6 1.68t-.6 2.48.64 2.52 1.68 1.76q1.08.64 2.32.64m15.6-27.5h5.6v31.6h-5.6z" aria-label="professional"/><path d="M29 121q2.76 0 4.92.72 2.16.68 3.6 2 1.48 1.28 2.24 3.12.76 1.8.76 4.08 0 1.8-.56 3.6-.52 1.8-1.76 3.28-1.2 1.48-3.2 2.4-2 .88-4.96.88h-4.16v9.36h-5.8v-29.4zm1 14.5q1.32 0 2.2-.44t1.36-1.12q.52-.68.72-1.4.24-.76.24-1.4 0-.48-.16-1.2-.12-.76-.56-1.52t-1.36-1.28q-.88-.52-2.4-.52h-4.16v8.88zm5.44 3.6 7.28 11.4h-6.76l-7.44-11.2zm16.8 12.2q-2.36 0-3.96-1.44-1.6-1.48-1.68-3.8v-13.1h5.6v11q.08 1.16.6 1.88.52.68 1.76.68t2.12-.84q.92-.84 1.4-2.28.52-1.48.52-3.32v-7.12h5.6v17.5h-5.08l-.44-3.2.08.36q-.6 1.08-1.52 1.92t-2.2 1.28q-1.24.48-2.8.48m23.4-.48q-2.16 0-4.04-.76-1.84-.76-3.12-2.12l2.32-3.08q1.28 1.16 2.36 1.68 1.12.48 2 .48.68 0 1.2-.12.56-.16.88-.44.32-.32.32-.8 0-.68-.56-1.08-.52-.4-1.36-.64-.84-.28-1.8-.56-2.4-.76-3.48-2.2-1.04-1.48-1.04-3.2 0-1.32.68-2.64.72-1.36 2.24-2.24 1.56-.92 4-.92 2.2 0 3.72.44t2.88 1.44l-2.12 3.28q-.76-.6-1.72-1-.92-.44-1.72-.48-.72-.04-1.24.16-.48.2-.76.52t-.28.68q-.04.76.56 1.2.64.44 1.6.68t1.88.56q1.28.4 2.2 1.08t1.4 1.64q.52.92.52 2.24 0 1.6-.84 3.04-.8 1.4-2.48 2.28-1.64.88-4.2.88m13.8-25.5h5.6v7.6h4.24v4.36h-4.24v13.2h-5.6v-13.2h-2.72v-4.36h2.72z" aria-label="Rust"/><path d="M42.1 204q-.48.4-1.8 1.08-1.28.68-3.16 1.2t-4.16.48q-3.48-.08-6.24-1.24-2.72-1.2-4.64-3.24-1.88-2.04-2.88-4.68t-1-5.64q0-3.36 1-6.16 1.04-2.8 2.92-4.84 1.92-2.04 4.56-3.16t5.84-1.12q2.96 0 5.24.8t3.72 1.72l-2.28 5.48q-1-.76-2.68-1.56-1.64-.84-3.8-.84-1.68 0-3.24.72-1.52.68-2.72 1.96-1.16 1.28-1.84 3-.68 1.68-.68 3.68 0 2.12.6 3.88.64 1.76 1.8 3.04 1.16 1.24 2.76 1.92 1.64.68 3.68.68 2.36 0 4.04-.76t2.56-1.6zm3.52-6.52q0-2.68 1.24-4.8 1.28-2.12 3.56-3.32 2.28-1.24 5.24-1.24 3 0 5.2 1.24 2.2 1.2 3.36 3.32 1.2 2.12 1.2 4.8t-1.2 4.84q-1.16 2.12-3.36 3.36t-5.28 1.24q-2.88 0-5.16-1.12-2.24-1.12-3.52-3.24t-1.28-5.08m5.64.04q0 1.36.56 2.48.56 1.08 1.52 1.72t2.16.64q1.32 0 2.28-.64t1.48-1.72q.52-1.12.52-2.48 0-1.4-.52-2.48t-1.48-1.72-2.28-.64q-1.2 0-2.16.64t-1.52 1.72-.56 2.48m23.6-8.56.44 3.12-.08-.28q.92-1.64 2.6-2.64 1.68-1.04 4.12-1.04 2.48 0 4.12 1.48 1.68 1.44 1.72 3.76v13.1h-5.6v-11q-.04-1.16-.64-1.84-.56-.72-1.92-.72-1.28 0-2.24.84t-1.48 2.28-.52 3.32v7.12h-5.6v-17.5zm24.4 17.8q-2.16 0-4.04-.76-1.84-.76-3.12-2.12l2.32-3.08q1.28 1.16 2.36 1.68 1.12.48 2 .48.68 0 1.2-.12.56-.16.88-.44.32-.32.32-.8 0-.68-.56-1.08-.52-.4-1.36-.64-.84-.28-1.8-.56-2.4-.76-3.48-2.2-1.04-1.48-1.04-3.2 0-1.32.68-2.64.72-1.36 2.24-2.24 1.56-.92 4-.92 2.2 0 3.72.44t2.88 1.44l-2.12 3.28q-.76-.6-1.72-1-.92-.44-1.72-.48-.72-.04-1.24.16-.48.2-.76.52t-.28.68q-.04.76.56 1.2.64.44 1.6.68t1.88.56q1.28.4 2.2 1.08t1.4 1.64q.52.92.52 2.24 0 1.6-.84 3.04-.8 1.4-2.48 2.28-1.64.88-4.2.88m17.8.48q-2.36 0-3.96-1.44-1.6-1.48-1.68-3.8v-13.1h5.6v11q.08 1.16.6 1.88.52.68 1.76.68t2.12-.84q.92-.84 1.4-2.28.52-1.48.52-3.32v-7.12h5.6v17.5h-5.08l-.44-3.2.08.36q-.6 1.08-1.52 1.92t-2.2 1.28q-1.24.48-2.8.48m17.7-32.4h5.6v31.6h-5.6zm13 6.4h5.6v7.6h4.24v4.36h-4.24v13.2h-5.6v-13.2h-2.72v-4.36h2.72zm14.1 7.68h5.6v17.5h-5.6zm-.12-6.2q0-1.24.96-2.04 1-.8 2.12-.8t2.04.8q.96.8.96 2.04t-.96 2.04q-.92.76-2.04.76t-2.12-.76q-.96-.8-.96-2.04m16.6 6.2.44 3.12-.08-.28q.92-1.64 2.6-2.64 1.68-1.04 4.12-1.04 2.48 0 4.12 1.48 1.68 1.44 1.72 3.76v13.1h-5.6v-11q-.04-1.16-.64-1.84-.56-.72-1.92-.72-1.28 0-2.24.84t-1.48 2.28-.52 3.32v7.12h-5.6v-17.5zm27.7 26.3q-2.36 0-4-.56-1.6-.56-2.72-1.36t-2-1.52l3.28-3.84q.92.84 2.12 1.6 1.24.8 3.24.8 1.32 0 2.44-.48 1.16-.44 1.84-1.32.72-.88.72-2.2v-3.84l.2 1q-.64 1.36-2.32 2.4-1.68 1-4.4 1-2.36 0-4.4-1.2-2-1.24-3.2-3.32-1.2-2.12-1.2-4.8 0-2.76 1.28-4.88 1.28-2.16 3.32-3.4t4.32-1.24 3.92.68q1.68.64 2.52 1.6l-.2.52.6-1.92h5.16v17.5q0 2.56-1.44 4.52-1.44 2-3.84 3.12-2.36 1.16-5.24 1.16zm-4.76-17.8q0 1.4.64 2.52t1.72 1.76q1.12.64 2.48.64 1.16 0 2.04-.28.92-.32 1.6-.88.72-.6 1.2-1.48v-4.28q-.36-.88-1.08-1.48-.72-.64-1.68-.96-.92-.36-2.08-.36-1.36 0-2.48.64-1.08.6-1.72 1.68t-.64 2.48" aria-label="Consulting"/></svg>