<svg xmlns="http://www.w3.org/2000/svg" viewBox="0 0 40.4 40.4"><path d="M20.26 0A20.2 20.2 0 1 0 40.4 20.26v-.06A20.18 20.18 0 0 0 20.26 0m-10 29.67H7.5c1.69-1.4 4.16-4.38 5.19-9.85 1.18-6.27 5.82-9.67 10.1-9.1-3.62 1-6.39 4.47-7.25 9.07-1.07 5.66-3.65 8.49-5.1 9.7zm.73 0c1.5-1.34 4-4.28 5-9.8.86-4.52 3.62-7.89 7.22-8.77a7.09 7.09 0 0 1 7.44 2.74 6.18 6.18 0 0 1 1.4 5.28 5.7 5.7 0 0 1-2.31 3.53 2.2 2.2 0 0 0 .14-.84 2.551 2.551 0 1 0-5.1-.14v.14s-.32 5.66 8.22 7.89zM25.9 20.2a2.05 2.05 0 0 1 2.87.11 6.4 6.4 0 0 1-2.76 3 2.42 2.42 0 0 0-.11-3.11"/></svg>