<svg xmlns="http://www.w3.org/2000/svg" width="900" height="400" viewBox="0 0 900 400"><path d="M695.882 85.342H1189.6v62.066H695.882z" style="opacity:1;fill:none;fill-opacity:1;stroke:#000;stroke-width:4;stroke-linecap:square;stroke-miterlimit:1000;stroke-dasharray:none;stroke-opacity:1;paint-order:fill markers stroke" transform="translate(-393.41 31.44)scale(.89464)"/><path d="M794.001 130.775q-3.2 0-4.84-1.8-1.64-1.84-1.64-5.24v-1.6h4.16v1.92q0 2.72 2.28 2.72 1.12 0 1.68-.64.6-.68.6-2.16 0-1.76-.8-3.08-.8-1.36-2.96-3.24-2.72-2.4-3.8-4.32-1.08-1.96-1.08-4.4 0-3.32 1.68-5.12 1.68-1.84 4.88-1.84 3.16 0 4.76 1.84 1.64 1.8 1.64 5.2v1.16h-4.16v-1.44q0-1.44-.56-2.08-.56-.68-1.64-.68-2.2 0-2.2 2.68 0 1.52.8 2.84.84 1.32 3 3.2 2.76 2.4 3.8 4.36t1.04 4.6q0 3.44-1.72 5.28-1.68 1.84-4.92 1.84m15.52 0q-3.24 0-4.96-1.84t-1.72-5.2v-14.72q0-3.36 1.72-5.2t4.96-1.84 4.96 1.84 1.72 5.2v14.72q0 3.36-1.72 5.2t-4.96 1.84m0-4q2.28 0 2.28-2.76v-15.28q0-2.76-2.28-2.76t-2.28 2.76v15.28q0 2.76 2.28 2.76m9.64-24.4h11.64v4h-7.24v7.8h5.68v4h-5.68v12.2h-4.4zm17.6 4h-4.6v-4h13.6v4h-4.6v24h-4.4zm10.24-4h4.24l1.96 21.52h.08l2.08-21.52h4.8l2.08 21.52h.08l1.96-21.52h3.8l-2.84 28h-5.48l-2-18.88h-.08l-2 18.88h-5.84zm26.16 0h5.96l4.56 28h-4.4l-.8-5.56v.08h-5l-.8 5.48h-4.08zm4.8 18.72-1.96-13.84h-.08l-1.92 13.84zm7.84-18.72h6.52q3.4 0 4.96 1.6 1.56 1.56 1.56 4.84v1.72q0 4.36-2.88 5.52v.08q1.6.48 2.24 1.96.68 1.48.68 3.96v4.92q0 1.2.08 1.96.08.72.4 1.44h-4.48q-.24-.68-.32-1.28t-.08-2.16v-5.12q0-1.92-.64-2.68-.6-.76-2.12-.76h-1.52v12h-4.4zm6 12q1.32 0 1.96-.68.68-.68.68-2.28v-2.16q0-1.52-.56-2.2-.52-.68-1.68-.68h-2v8zm10.12-12h12v4h-7.6v7.4h6.04v4h-6.04v8.6h7.6v4h-12zm24.32 0h5.96l4.56 28h-4.4l-.8-5.56v.08h-5l-.8 5.48h-4.08zm4.8 18.72-1.96-13.84H929l-1.92 13.84zm7.84-18.72h6.52q3.4 0 4.96 1.6 1.56 1.56 1.56 4.84v1.72q0 4.36-2.88 5.52v.08q1.6.48 2.24 1.96.68 1.48.68 3.96v4.92q0 1.2.08 1.96.08.72.4 1.44h-4.48q-.24-.68-.32-1.28t-.08-2.16v-5.12q0-1.92-.64-2.68-.6-.76-2.12-.76h-1.52v12h-4.4zm6 12q1.32 0 1.96-.68.68-.68.68-2.28v-2.16q0-1.52-.56-2.2-.52-.68-1.68-.68h-2v8zm16.32 16.4q-3.16 0-4.84-1.8-1.64-1.8-1.64-5.08v-15.04q0-3.28 1.64-5.08 1.68-1.8 4.84-1.8t4.8 1.8q1.68 1.8 1.68 5.08v2.96h-4.16v-3.24q0-2.6-2.2-2.6t-2.2 2.6v15.64q0 2.56 2.2 2.56t2.2-2.56v-4.28h4.16v3.96q0 3.28-1.68 5.08-1.64 1.8-4.8 1.8m9.12-28.4h4.4v11.4h4.72v-11.4h4.4v28h-4.4v-12.6h-4.72v12.6h-4.4zm16.8 0h4.4v28h-4.4zm11.12 4h-4.6v-4h13.6v4h-4.6v24h-4.4zm11.12-4h12v4h-7.6v7.4h6.04v4h-6.04v8.6h7.6v4h-12zm20.72 28.4q-3.16 0-4.84-1.8-1.64-1.8-1.64-5.08v-15.04q0-3.28 1.64-5.08 1.68-1.8 4.84-1.8t4.8 1.8q1.68 1.8 1.68 5.08v2.96h-4.16v-3.24q0-2.6-2.2-2.6t-2.2 2.6v15.64q0 2.56 2.2 2.56t2.2-2.56v-4.28h4.16v3.96q0 3.28-1.68 5.08-1.64 1.8-4.8 1.8m12.56-24.4h-4.6v-4h13.6v4h-4.6v24h-4.4zm17.52 24.4q-3.2 0-4.88-1.8-1.68-1.84-1.68-5.24v-21.36h4.4v21.68q0 1.44.56 2.08.6.64 1.68.64t1.64-.64q.6-.64.6-2.08v-21.68h4.24v21.36q0 3.4-1.68 5.24-1.68 1.8-4.88 1.8m9.68-28.4h6.52q3.4 0 4.96 1.6 1.56 1.56 1.56 4.84v1.72q0 4.36-2.88 5.52v.08q1.6.48 2.24 1.96.68 1.48.68 3.96v4.92q0 1.2.08 1.96.08.72.4 1.44h-4.48q-.24-.68-.32-1.28t-.08-2.16v-5.12q0-1.92-.64-2.68-.6-.76-2.12-.76h-1.52v12h-4.4zm6 12q1.32 0 1.96-.68.68-.68.68-2.28v-2.16q0-1.52-.56-2.2-.52-.68-1.68-.68h-2v8zm10.12-12h12v4h-7.6v7.4h6.04v4h-6.04v8.6h7.6v4h-12z" aria-label="software architecture" style="font-size:40px;line-height:1.25;font-family:&quot;Bebas Neue&quot;;-inkscape-font-specification:&quot;Bebas Neue, Normal&quot;" transform="translate(-393.41 31.44)scale(.89464)"/><path d="M858.773 6.331h236.075v63.931H858.773z" style="fill:none;fill-opacity:1;stroke:#000;stroke-width:3.92473;stroke-linecap:square;stroke-miterlimit:1000;stroke-dasharray:none;stroke-opacity:1;paint-order:fill markers stroke" transform="translate(-308.61 31.44)scale(.89464)"/><path d="M878.951 24.296h6.72q3.28 0 4.92 1.76t1.64 5.16v14.16q0 3.4-1.64 5.16t-4.92 1.76h-6.72zm6.64 24q1.08 0 1.64-.64.6-.64.6-2.08v-14.56q0-1.44-.6-2.08-.56-.64-1.64-.64h-2.24v20zm15.96 4.4q-3.24 0-4.96-1.84t-1.72-5.2v-14.72q0-3.36 1.72-5.2t4.96-1.84 4.96 1.84 1.72 5.2v14.72q0 3.36-1.72 5.2t-4.96 1.84m0-4q2.28 0 2.28-2.76v-15.28q0-2.76-2.28-2.76t-2.28 2.76v15.28q0 2.76 2.28 2.76m15.84 4q-3.16 0-4.84-1.8-1.64-1.8-1.64-5.08v-15.04q0-3.28 1.64-5.08 1.68-1.8 4.84-1.8t4.8 1.8q1.68 1.8 1.68 5.08v2.96h-4.16v-3.24q0-2.6-2.2-2.6t-2.2 2.6v15.64q0 2.56 2.2 2.56t2.2-2.56v-4.28h4.16v3.96q0 3.28-1.68 5.08-1.64 1.8-4.8 1.8m15.52 0q-3.2 0-4.88-1.8-1.68-1.84-1.68-5.24v-21.36h4.4v21.68q0 1.44.56 2.08.6.64 1.68.64t1.64-.64q.6-.64.6-2.08v-21.68h4.24v21.36q0 3.4-1.68 5.24-1.68 1.8-4.88 1.8m9.68-28.4h6.28l2.8 20.04h.08l2.8-20.04h6.28v28h-4.16v-21.2h-.08l-3.2 21.2h-3.68l-3.2-21.2h-.08v21.2h-3.84zm21.52 0h12v4h-7.6v7.4h6.04v4h-6.04v8.6h7.6v4h-12zm14.52 0h5.52l4.28 16.76h.08v-16.76h3.92v28h-4.52l-5.28-20.44h-.08v20.44h-3.92zm20.52 4h-4.6v-4h13.6v4h-4.6v24h-4.4zm12.68-4h5.96l4.56 28h-4.4l-.8-5.56v.08h-5l-.8 5.48h-4.08zm4.8 18.72-1.96-13.84h-.08l-1.92 13.84zm9.44-14.72h-4.6v-4h13.6v4h-4.6v24h-4.4zm11.12-4h4.4v28h-4.4zm14.04 28.4q-3.24 0-4.96-1.84t-1.72-5.2v-14.72q0-3.36 1.72-5.2t4.96-1.84 4.96 1.84 1.72 5.2v14.72q0 3.36-1.72 5.2t-4.96 1.84m0-4q2.28 0 2.28-2.76v-15.28q0-2.76-2.28-2.76t-2.28 2.76v15.28q0 2.76 2.28 2.76m9.64-24.4h5.52l4.28 16.76h.08v-16.76h3.92v28h-4.52l-5.28-20.44h-.08v20.44h-3.92z" aria-label="documentation" style="font-size:40px;line-height:1.25;font-family:&quot;Bebas Neue&quot;;-inkscape-font-specification:&quot;Bebas Neue, Normal&quot;" transform="translate(-308.61 31.44)scale(.89464)"/><path d="M601.491 6.331h236.075v63.931H601.491z" style="fill:none;fill-opacity:1;stroke:#000;stroke-width:3.92473;stroke-linecap:square;stroke-miterlimit:1000;stroke-dasharray:none;stroke-opacity:1;paint-order:fill markers stroke" transform="translate(-308.61 31.44)scale(.89464)"/><path d="M680.222 28.296h-4.6v-4h13.6v4h-4.6v24h-4.4zm11.12-4h12v4h-7.6v7.4h6.04v4h-6.04v8.6h7.6v4h-12zm20.32 28.4q-3.2 0-4.84-1.8-1.64-1.84-1.64-5.24v-1.6h4.16v1.92q0 2.72 2.28 2.72 1.12 0 1.68-.64.6-.68.6-2.16 0-1.76-.8-3.08-.8-1.36-2.96-3.24-2.72-2.4-3.8-4.32-1.08-1.96-1.08-4.4 0-3.32 1.68-5.12 1.68-1.84 4.88-1.84 3.16 0 4.76 1.84 1.64 1.8 1.64 5.2v1.16h-4.16v-1.44q0-1.44-.56-2.08-.56-.68-1.64-.68-2.2 0-2.2 2.68 0 1.52.8 2.84.84 1.32 3 3.2 2.76 2.4 3.8 4.36t1.04 4.6q0 3.44-1.72 5.28-1.68 1.84-4.92 1.84m12.6-24.4h-4.6v-4h13.6v4h-4.6v24h-4.4zm11.12-4h4.4v28h-4.4zm7.68 0h5.52l4.28 16.76h.08v-16.76h3.92v28h-4.52l-5.28-20.44h-.08v20.44h-3.92zm23.32 28.4q-3.2 0-4.88-1.8-1.68-1.84-1.68-5.24v-14.72q0-3.4 1.68-5.2 1.68-1.84 4.88-1.84t4.88 1.84q1.68 1.8 1.68 5.2v2.4h-4.16v-2.68q0-2.76-2.28-2.76t-2.28 2.76v15.32q0 2.72 2.28 2.72t2.28-2.72v-5.48h-2.2v-4h6.36v9.16q0 3.4-1.68 5.24-1.68 1.8-4.88 1.8" aria-label="testing" style="font-size:40px;line-height:1.25;font-family:&quot;Bebas Neue&quot;;-inkscape-font-specification:&quot;Bebas Neue, Normal&quot;" transform="translate(-308.61 31.44)scale(.89464)"/><path d="M858.005 179.747h6.72q3.28 0 4.92 1.76t1.64 5.16v14.16q0 3.4-1.64 5.16t-4.92 1.76h-6.72zm6.64 24q1.08 0 1.64-.64.6-.64.6-2.08v-14.56q0-1.44-.6-2.08-.56-.64-1.64-.64h-2.24v20zm9.6-24h12v4h-7.6v7.4h6.04v4h-6.04v8.6h7.6v4h-12zm14.52 0h6.48q3.28 0 4.92 1.76t1.64 5.16v2.76q0 3.4-1.64 5.16t-4.92 1.76h-2.08v11.4h-4.4zm6.48 12.6q1.08 0 1.6-.6.56-.6.56-2.04v-3.32q0-1.44-.56-2.04-.52-.6-1.6-.6h-2.08v8.6zm8.96-12.6h12v4h-7.6v7.4h6.04v4h-6.04v8.6h7.6v4h-12zm14.52 0h5.52l4.28 16.76h.08v-16.76h3.92v28h-4.52l-5.28-20.44h-.08v20.44h-3.92zm17.08 0h6.72q3.28 0 4.92 1.76t1.64 5.16v14.16q0 3.4-1.64 5.16t-4.92 1.76h-6.72zm6.64 24q1.08 0 1.64-.64.6-.64.6-2.08v-14.56q0-1.44-.6-2.08-.56-.64-1.64-.64h-2.24v20zm9.6-24h12v4h-7.6v7.4h6.04v4h-6.04v8.6h7.6v4h-12zm14.52 0h5.52l4.28 16.76h.08v-16.76h3.92v28h-4.52l-5.28-20.44h-.08v20.44h-3.92zm23.28 28.4q-3.16 0-4.84-1.8-1.64-1.8-1.64-5.08v-15.04q0-3.28 1.64-5.08 1.68-1.8 4.84-1.8t4.8 1.8q1.68 1.8 1.68 5.08v2.96h-4.16v-3.24q0-2.6-2.2-2.6t-2.2 2.6v15.64q0 2.56 2.2 2.56t2.2-2.56v-4.28h4.16v3.96q0 3.28-1.68 5.08-1.64 1.8-4.8 1.8m9.12-28.4h4.4v28h-4.4zm7.68 0h12v4h-7.6v7.4h6.04v4h-6.04v8.6h7.6v4h-12zm20.32 28.4q-3.2 0-4.84-1.8-1.64-1.84-1.64-5.24v-1.6h4.16v1.92q0 2.72 2.28 2.72 1.12 0 1.68-.64.6-.68.6-2.16 0-1.76-.8-3.08-.8-1.36-2.96-3.24-2.72-2.4-3.8-4.32-1.08-1.96-1.08-4.4 0-3.32 1.68-5.12 1.68-1.84 4.88-1.84 3.16 0 4.76 1.84 1.64 1.8 1.64 5.2v1.16h-4.16v-1.44q0-1.44-.56-2.08-.56-.68-1.64-.68-2.2 0-2.2 2.68 0 1.52.8 2.84.84 1.32 3 3.2 2.76 2.4 3.8 4.36t1.04 4.6q0 3.44-1.72 5.28-1.68 1.84-4.92 1.84" aria-label="Dependencies" style="font-size:40px;line-height:1.25;font-family:&quot;Bebas Neue&quot;;-inkscape-font-specification:&quot;Bebas Neue, Normal&quot;" transform="translate(-396.152 30.069)scale(.89464)"/><path d="M698.946 162.714h493.718v62.066H698.946z" style="opacity:1;fill:none;fill-opacity:1;stroke:#000;stroke-width:4;stroke-linecap:square;stroke-miterlimit:1000;stroke-dasharray:none;stroke-opacity:1;paint-order:fill markers stroke" transform="translate(-396.152 30.069)scale(.89464)"/><path d="M766.857 260.353h-4.6v-4h13.6v4h-4.6v24h-4.4zm17.32 24.4q-3.24 0-4.96-1.84t-1.72-5.2v-14.72q0-3.36 1.72-5.2t4.96-1.84 4.96 1.84 1.72 5.2v14.72q0 3.36-1.72 5.2t-4.96 1.84m0-4q2.28 0 2.28-2.76v-15.28q0-2.76-2.28-2.76t-2.28 2.76v15.28q0 2.76 2.28 2.76m16 4q-3.24 0-4.96-1.84t-1.72-5.2v-14.72q0-3.36 1.72-5.2t4.96-1.84 4.96 1.84 1.72 5.2v14.72q0 3.36-1.72 5.2t-4.96 1.84m0-4q2.28 0 2.28-2.76v-15.28q0-2.76-2.28-2.76t-2.28 2.76v15.28q0 2.76 2.28 2.76m9.64-24.4h4.4v24h7.24v4h-11.64zm13.76 0h4.4v28h-4.4zm7.68 0h5.52l4.28 16.76h.08v-16.76h3.92v28h-4.52l-5.28-20.44h-.08v20.44h-3.92zm23.32 28.4q-3.2 0-4.88-1.8-1.68-1.84-1.68-5.24v-14.72q0-3.4 1.68-5.2 1.68-1.84 4.88-1.84t4.88 1.84q1.68 1.8 1.68 5.2v2.4h-4.16v-2.68q0-2.76-2.28-2.76t-2.28 2.76v15.32q0 2.72 2.28 2.72t2.28-2.72v-5.48h-2.2v-4h6.36v9.16q0 3.4-1.68 5.24-1.68 1.8-4.88 1.8m19.2-28.4h5.96l4.56 28h-4.4l-.8-5.56v.08h-5l-.8 5.48h-4.08zm4.8 18.72-1.96-13.84h-.08l-1.92 13.84zm7.84-18.72h5.52l4.28 16.76h.08v-16.76h3.92v28h-4.52l-5.28-20.44h-.08v20.44h-3.92zm17.08 0h6.72q3.28 0 4.92 1.76t1.64 5.16v14.16q0 3.4-1.64 5.16t-4.92 1.76h-6.72zm6.64 24q1.08 0 1.64-.64.6-.64.6-2.08v-14.56q0-1.44-.6-2.08-.56-.64-1.64-.64h-2.24v20zm16-24h4.4v28h-4.4zm7.68 0h5.52l4.28 16.76h.08v-16.76h3.92v28h-4.52l-5.28-20.44h-.08v20.44h-3.92zm17.08 0h11.64v4h-7.24v7.8h5.68v4h-5.68v12.2h-4.4zm13.76 0h6.52q3.4 0 4.96 1.6 1.56 1.56 1.56 4.84v1.72q0 4.36-2.88 5.52v.08q1.6.48 2.24 1.96.68 1.48.68 3.96v4.92q0 1.2.08 1.96.08.72.4 1.44h-4.48q-.24-.68-.32-1.28t-.08-2.16v-5.12q0-1.92-.64-2.68-.6-.76-2.12-.76h-1.52v12h-4.4zm6 12q1.32 0 1.96-.68.68-.68.68-2.28v-2.16q0-1.52-.56-2.2-.52-.68-1.68-.68h-2v8zm13.52-12h5.96l4.56 28h-4.4l-.8-5.56v.08h-5l-.8 5.48h-4.08zm4.8 18.72-1.96-13.84h-.08l-1.92 13.84zm13.44 9.68q-3.2 0-4.84-1.8-1.64-1.84-1.64-5.24v-1.6h4.16v1.92q0 2.72 2.28 2.72 1.12 0 1.68-.64.6-.68.6-2.16 0-1.76-.8-3.08-.8-1.36-2.96-3.24-2.72-2.4-3.8-4.32-1.08-1.96-1.08-4.4 0-3.32 1.68-5.12 1.68-1.84 4.88-1.84 3.16 0 4.76 1.84 1.64 1.8 1.64 5.2v1.16h-4.16v-1.44q0-1.44-.56-2.08-.56-.68-1.64-.68-2.2 0-2.2 2.68 0 1.52.8 2.84.84 1.32 3 3.2 2.76 2.4 3.8 4.36t1.04 4.6q0 3.44-1.72 5.28-1.68 1.84-4.92 1.84m12.6-24.4h-4.6v-4h13.6v4h-4.6v24h-4.4zm11.12-4h6.52q3.4 0 4.96 1.6 1.56 1.56 1.56 4.84v1.72q0 4.36-2.88 5.52v.08q1.6.48 2.24 1.96.68 1.48.68 3.96v4.92q0 1.2.08 1.96.08.72.4 1.44h-4.48q-.24-.68-.32-1.28t-.08-2.16v-5.12q0-1.92-.64-2.68-.6-.76-2.12-.76h-1.52v12h-4.4zm6 12q1.32 0 1.96-.68.68-.68.68-2.28v-2.16q0-1.52-.56-2.2-.52-.68-1.68-.68h-2v8zm16.52 16.4q-3.2 0-4.88-1.8-1.68-1.84-1.68-5.24v-21.36h4.4v21.68q0 1.44.56 2.08.6.64 1.68.64t1.64-.64q.6-.64.6-2.08v-21.68h4.24v21.36q0 3.4-1.68 5.24-1.68 1.8-4.88 1.8m15.88 0q-3.16 0-4.84-1.8-1.64-1.8-1.64-5.08v-15.04q0-3.28 1.64-5.08 1.68-1.8 4.84-1.8t4.8 1.8q1.68 1.8 1.68 5.08v2.96h-4.16v-3.24q0-2.6-2.2-2.6t-2.2 2.6v15.64q0 2.56 2.2 2.56t2.2-2.56v-4.28h4.16v3.96q0 3.28-1.68 5.08-1.64 1.8-4.8 1.8m12.56-24.4h-4.6v-4h13.6v4h-4.6v24h-4.4zm17.52 24.4q-3.2 0-4.88-1.8-1.68-1.84-1.68-5.24v-21.36h4.4v21.68q0 1.44.56 2.08.6.64 1.68.64t1.64-.64q.6-.64.6-2.08v-21.68h4.24v21.36q0 3.4-1.68 5.24-1.68 1.8-4.88 1.8m9.68-28.4h6.52q3.4 0 4.96 1.6 1.56 1.56 1.56 4.84v1.72q0 4.36-2.88 5.52v.08q1.6.48 2.24 1.96.68 1.48.68 3.96v4.92q0 1.2.08 1.96.08.72.4 1.44h-4.48q-.24-.68-.32-1.28t-.08-2.16v-5.12q0-1.92-.64-2.68-.6-.76-2.12-.76h-1.52v12h-4.4zm6 12q1.32 0 1.96-.68.68-.68.68-2.28v-2.16q0-1.52-.56-2.2-.52-.68-1.68-.68h-2v8zm10.12-12h12v4h-7.6v7.4h6.04v4h-6.04v8.6h7.6v4h-12z" aria-label="tooling and infrastructure" style="font-size:40px;line-height:1.25;font-family:&quot;Bebas Neue&quot;;-inkscape-font-specification:&quot;Bebas Neue, Normal&quot;" transform="translate(-397.522 29.383)scale(.89464)"/><path d="M700.478 239.319h493.718v62.066H700.478z" style="opacity:1;fill:none;fill-opacity:1;stroke:#000;stroke-width:4;stroke-linecap:square;stroke-miterlimit:1000;stroke-dasharray:none;stroke-opacity:1;paint-order:fill markers stroke" transform="translate(-397.522 29.383)scale(.89464)"/><path d="M876.463 333.694h-4.6v-4h13.6v4h-4.6v24h-4.4zm11.12-4h12v4h-7.6v7.4h6.04v4h-6.04v8.6h7.6v4h-12zm17.92 0h5.96l4.56 28h-4.4l-.8-5.56v.08h-5l-.8 5.48h-4.08zm4.8 18.72-1.96-13.84h-.08l-1.92 13.84zm7.84-18.72h6.28l2.8 20.04h.08l2.8-20.04h6.28v28h-4.16v-21.2h-.08l-3.2 21.2h-3.68l-3.2-21.2h-.08v21.2h-3.84zm27.92 0h6.64q3.4 0 4.96 1.6 1.56 1.56 1.56 4.84v1.12q0 2.16-.72 3.52-.68 1.36-2.12 1.96v.08q3.28 1.12 3.28 5.84v2.4q0 3.24-1.72 4.96-1.68 1.68-4.96 1.68h-6.92zm6.12 11.4q1.32 0 1.96-.68.68-.68.68-2.28v-1.56q0-1.52-.56-2.2-.52-.68-1.68-.68h-2.12v7.4zm.8 12.6q1.16 0 1.72-.6.56-.64.56-2.16v-2.44q0-1.92-.68-2.64-.64-.76-2.16-.76h-1.96v8.6zm15.64 4.4q-3.2 0-4.88-1.8-1.68-1.84-1.68-5.24v-21.36h4.4v21.68q0 1.44.56 2.08.6.64 1.68.64t1.64-.64q.6-.64.6-2.08v-21.68h4.24v21.36q0 3.4-1.68 5.24-1.68 1.8-4.88 1.8m13.72-12.32-5.32-16.08h4.68l3 10.28h.08l3-10.28h4.28l-5.32 16.08v11.92h-4.4zm9.08-4.08h8.8v4h-8.8zm11.44-12h4.4v28h-4.4zm7.68 0h5.52l4.28 16.76h.08v-16.76h3.92v28h-4.52l-5.28-20.44h-.08v20.44h-3.92z" aria-label="Team Buy-in" style="font-size:40px;line-height:1.25;font-family:&quot;Bebas Neue&quot;;-inkscape-font-specification:&quot;Bebas Neue, Normal&quot;" transform="translate(-398.208 31.44)scale(.89464)"/><path d="M701.244 312.861h493.718v62.066H701.244z" style="opacity:1;fill:none;fill-opacity:1;stroke:#000;stroke-width:4;stroke-linecap:square;stroke-miterlimit:1000;stroke-dasharray:none;stroke-opacity:1;paint-order:fill markers stroke" transform="translate(-398.208 31.44)scale(.89464)"/></svg>