<svg xmlns="http://www.w3.org/2000/svg" width="900" height="400" viewBox="0 0 900 400"><defs><clipPath id="a" clipPathUnits="userSpaceOnUse"><path d="M-432.138 43.917h500v-500h-500Z"/></clipPath><clipPath id="b" clipPathUnits="userSpaceOnUse"><path d="M-325.974 150.936h500v-500h-500Z"/></clipPath><clipPath id="c" clipPathUnits="userSpaceOnUse"><path d="M-388.97 58.208h500v-500h-500Z"/></clipPath><clipPath id="d" clipPathUnits="userSpaceOnUse"><path d="M-352.299 123.427h500v-500h-500Z"/></clipPath><clipPath id="e" clipPathUnits="userSpaceOnUse"><path d="M-459.122 91.885h500v-500h-500Z"/></clipPath><clipPath id="f" clipPathUnits="userSpaceOnUse"><path d="M-408.63 105.036h500v-500h-500Z"/></clipPath><clipPath id="g" clipPathUnits="userSpaceOnUse"><path d="M-378.953 68.124h500v-500h-500Z"/></clipPath><clipPath id="h" clipPathUnits="userSpaceOnUse"><path d="M-378.953 68.124h500v-500h-500Z"/></clipPath><clipPath id="i" clipPathUnits="userSpaceOnUse"><path d="M-329.895 70.523h500v-500h-500Z"/></clipPath><clipPath id="j" clipPathUnits="userSpaceOnUse"><path d="M-436.718 45.692h500v-500h-500Z"/></clipPath><clipPath id="k" clipPathUnits="userSpaceOnUse"><path d="M-325.974 72.499h500v-500h-500Z"/></clipPath><clipPath id="l" clipPathUnits="userSpaceOnUse"><path d="M-432.797 44.608h500v-500h-500Z"/></clipPath></defs><path d="m0 0 .851-3.659-107.222-24.923-.851 3.659z" clip-path="url(#a)" style="fill:#000;fill-opacity:1;fill-rule:nonzero;stroke:none" transform="matrix(2.07741 0 0 -2.07741 559.682 73.508)"/><path d="M0 0c15.192 0 27.509 12.316 27.509 27.509H-27.51C-27.51 12.316-15.193 0 0 0" clip-path="url(#b)" style="fill:#000;fill-opacity:1;fill-rule:nonzero;stroke:none" transform="matrix(2.07741 0 0 -2.07741 339.135 295.832)"/><path d="M0 0c0-5.532-4.485-10.017-10.018-10.017-5.532 0-10.017 4.485-10.017 10.017s4.485 10.017 10.017 10.017C-4.485 10.017 0 5.532 0 0" clip-path="url(#c)" style="fill:#000;fill-opacity:1;fill-rule:nonzero;stroke:none" transform="matrix(2.07741 0 0 -2.07741 470.004 103.196)"/><path d="M0 0c0-14.539-11.786-26.324-26.324-26.324S-52.649-14.539-52.649 0s11.786 26.325 26.325 26.325S0 14.539 0 0Z" clip-path="url(#d)" style="fill:none;stroke:#000;stroke-width:2.192;stroke-linecap:butt;stroke-linejoin:miter;stroke-miterlimit:10;stroke-dasharray:none;stroke-opacity:1" transform="matrix(2.07741 0 0 -2.07741 393.822 238.684)"/><path d="M0 0c0-14.539-11.786-26.324-26.325-26.324S-52.649-14.539-52.649 0s11.786 26.325 26.324 26.325S0 14.539 0 0Z" clip-path="url(#e)" style="fill:none;stroke:#000;stroke-width:2.192;stroke-linecap:butt;stroke-linejoin:miter;stroke-miterlimit:10;stroke-dasharray:none;stroke-opacity:1" transform="matrix(2.07741 0 0 -2.07741 615.738 173.157)"/><path d="M0 0c4.664-8.554 13.737-14.358 24.166-14.358S43.668-8.554 48.333 0z" clip-path="url(#f)" style="fill:#000;fill-opacity:1;fill-rule:nonzero;stroke:none" transform="matrix(2.07741 0 0 -2.07741 510.846 200.478)"/><path d="M0 0v-121.754h-15.316Z" clip-path="url(#g)" style="fill:#000;fill-opacity:1;fill-rule:nonzero;stroke:none" transform="matrix(2.07741 0 0 -2.07741 449.194 123.797)"/><path d="M0 0v-121.754h15.316Z" clip-path="url(#h)" style="fill:#3c3c3c;fill-opacity:1;fill-rule:nonzero;stroke:none" transform="matrix(2.07741 0 0 -2.07741 449.194 123.797)"/><path d="M0 0a3.921 3.921 0 1 0-7.842 0A3.921 3.921 0 0 0 0 0" clip-path="url(#i)" style="fill:#000;fill-opacity:1;fill-rule:nonzero;stroke:none" transform="matrix(2.07741 0 0 -2.07741 347.28 128.78)"/><path d="M0 0a3.922 3.922 0 1 0-7.844 0A3.922 3.922 0 0 0 0 0" clip-path="url(#j)" style="fill:#000;fill-opacity:1;fill-rule:nonzero;stroke:none" transform="matrix(2.07741 0 0 -2.07741 569.197 77.195)"/><path d="M0 0v-24.604" clip-path="url(#k)" style="fill:none;stroke:#000;stroke-width:2.174;stroke-linecap:butt;stroke-linejoin:miter;stroke-miterlimit:10;stroke-dasharray:none;stroke-opacity:1" transform="matrix(2.07741 0 0 -2.07741 339.135 132.885)"/><path d="M0 0v-21.08" clip-path="url(#l)" style="fill:none;stroke:#000;stroke-width:2.174;stroke-linecap:butt;stroke-linejoin:miter;stroke-miterlimit:10;stroke-dasharray:none;stroke-opacity:1" transform="matrix(2.07741 0 0 -2.07741 561.05 74.943)"/><path d="M721.02 260.718q-2.592 0-3.952-1.458-1.36-1.49-1.36-4.244v-.42h3.368v.647q0 2.235 1.847 2.235 1.004 0 1.49-.615.486-.616.486-2.17v-4.341h-.065q-.94 1.976-3.24 1.976-1.943 0-2.947-1.329t-1.004-3.854v-4.05q0-2.72 1.393-4.21 1.392-1.49 4.016-1.49t4.017 1.49 1.393 4.21v11.727q0 5.896-5.442 5.896m.032-11.63q1.847 0 1.847-2.235v-4.017q0-2.202-1.847-2.202t-1.846 2.202v4.017q0 2.235 1.846 2.235m13.055 11.63q-2.624 0-4.017-1.49t-1.393-4.212v-11.92q0-2.722 1.393-4.212t4.017-1.49 4.017 1.49q1.393 1.49 1.393 4.211v11.921q0 2.721-1.393 4.211t-4.017 1.49m0-3.24q1.846 0 1.846-2.235v-12.374q0-2.235-1.846-2.235t-1.847 2.235v12.374q0 2.235 1.847 2.235m11.046-7.159q-1.684 0-2.559-.94-.875-.939-.875-2.688v-5.669q0-1.749.875-2.688t2.559-.94 2.56.94.874 2.688v5.67q0 1.748-.875 2.688t-2.559.94m8.228-12.6h2.268l-8.78 22.675h-2.267zm-8.228 10.56q1.166 0 1.166-1.426v-5.993q0-1.425-1.166-1.425t-1.166 1.425v5.993q0 1.425 1.166 1.425m9.945 12.439q-1.685 0-2.56-.94-.874-.94-.874-2.689v-5.668q0-1.75.875-2.69.874-.938 2.559-.938 1.684 0 2.559.939.875.94.875 2.689v5.668q0 1.75-.875 2.69-.875.939-2.56.939m0-2.041q1.166 0 1.166-1.426v-5.992q0-1.426-1.166-1.426t-1.166 1.426v5.992q0 1.426 1.166 1.426" aria-label="90%" style="font-weight:700;font-size:20.7909px;line-height:1.25;font-family:&quot;Bebas Neue&quot;;-inkscape-font-specification:&quot;Bebas Neue, Bold&quot;;stroke-width:.809837" transform="translate(-397.952 -25.98)"/><path d="M942.094 204.305h-3.726v-2.527q1.523 0 2.43-.26.94-.258 1.49-.841.55-.616.972-1.75h2.397v22.676h-3.563zm13.119 17.622q-2.624 0-4.017-1.49t-1.393-4.212v-11.92q0-2.721 1.393-4.211t4.017-1.49 4.017 1.49 1.393 4.21v11.921q0 2.722-1.393 4.212t-4.017 1.49m0-3.24q1.846 0 1.846-2.235v-12.374q0-2.235-1.846-2.235t-1.847 2.235v12.374q0 2.235 1.847 2.235m11.046-7.159q-1.684 0-2.559-.939-.875-.94-.875-2.689v-5.669q0-1.749.875-2.688t2.56-.94 2.558.94.875 2.688v5.67q0 1.749-.875 2.688-.874.94-2.559.94m8.228-12.6h2.268l-8.78 22.675h-2.267zm-8.228 10.56q1.166 0 1.166-1.426v-5.992q0-1.426-1.166-1.426t-1.166 1.426v5.992q0 1.426 1.166 1.426m9.945 12.439q-1.685 0-2.56-.94-.874-.94-.874-2.688v-5.67q0-1.748.875-2.688.874-.94 2.559-.94 1.684 0 2.559.94t.875 2.689v5.669q0 1.749-.875 2.688t-2.56.94m0-2.041q1.166 0 1.166-1.425v-5.993q0-1.425-1.166-1.425t-1.166 1.425v5.993q0 1.425 1.166 1.425" aria-label="10%" style="font-weight:700;font-size:20.7909px;line-height:1.25;font-family:&quot;Bebas Neue&quot;;-inkscape-font-specification:&quot;Bebas Neue, Bold&quot;;stroke-width:.809837" transform="translate(-397.952 -25.98)"/><path d="M689.633 331.294h3.529l1.573 11.26h.045l1.573-11.26h3.528v15.732h-2.337v-11.911h-.045l-1.798 11.911h-2.067l-1.798-11.911h-.045v11.911h-2.158zm14.001 0h3.35l2.561 15.732h-2.472l-.45-3.124v.045h-2.809l-.45 3.08h-2.292zm2.697 10.518-1.1-7.776h-.046l-1.079 7.776zm4.405-10.518h2.472v15.732h-2.472zm4.315 0h3.102l2.404 9.417h.045v-9.417h2.203v15.732h-2.54l-2.966-11.484h-.045v11.484h-2.203zm11.53 2.248h-2.585v-2.248h7.641v2.248h-2.584v13.484h-2.473zm6.247-2.248h6.742v2.248h-4.27v4.157h3.394v2.248H735.3v4.832h4.27v2.247h-6.742zm8.158 0h3.102l2.404 9.417h.045v-9.417h2.203v15.732h-2.54l-2.966-11.484h-.045v11.484h-2.203zm11.507 0h3.349l2.562 15.732h-2.473l-.449-3.124v.045h-2.81l-.449 3.08h-2.292zm2.697 10.518-1.101-7.776h-.045l-1.079 7.776zm4.405-10.518h3.101l2.405 9.417h.045v-9.417h2.202v15.732h-2.54l-2.966-11.484h-.045v11.484h-2.202zm13.08 15.957q-1.776 0-2.72-1.011-.921-1.012-.921-2.855v-8.45q0-1.843.921-2.854.944-1.011 2.72-1.011 1.775 0 2.697 1.01.943 1.012.943 2.855v1.663h-2.337v-1.82q0-1.461-1.236-1.461t-1.236 1.46v8.788q0 1.438 1.236 1.438t1.236-1.438v-2.405h2.337v2.225q0 1.843-.943 2.855-.922 1.01-2.697 1.01m5.124-15.957h6.742v2.248h-4.27v4.157h3.393v2.248h-3.393v4.832h4.27v2.247h-6.742z" aria-label="maintenance" style="font-weight:700;font-size:14.4244px;line-height:1.25;font-family:&quot;Bebas Neue&quot;;-inkscape-font-specification:&quot;Bebas Neue, Bold&quot;;stroke-width:.561853" transform="translate(-397.952 -25.98)"/><path d="M910.92 265.071h3.775q1.843 0 2.765.989.921.989.921 2.899v7.956q0 1.91-.921 2.899-.922.989-2.765.989h-3.775zm3.73 13.484q.607 0 .922-.36.337-.359.337-1.168v-8.18q0-.81-.337-1.169-.315-.36-.922-.36h-1.258v11.237zm5.394-13.484h6.742v2.247h-4.27v4.158h3.394v2.248h-3.394v4.831h4.27v2.248h-6.742zm7.507 0h2.494l1.618 12.203h.045l1.618-12.203h2.27l-2.382 15.732h-3.281zm9.236 0h6.743v2.247h-4.27v4.158h3.393v2.248h-3.393v4.831h4.27v2.248h-6.743zm8.158 0h2.473v13.484h4.067v2.248h-6.54zm11.215 15.957q-1.82 0-2.787-1.034t-.966-2.922v-8.27q0-1.888.966-2.922.967-1.034 2.787-1.034t2.787 1.034q.966 1.034.966 2.922v8.27q0 1.888-.966 2.922-.967 1.034-2.787 1.034m0-2.248q1.281 0 1.281-1.55v-8.586q0-1.55-1.281-1.55t-1.281 1.55v8.585q0 1.551 1.281 1.551m5.416-13.709h3.641q1.843 0 2.764.989.922.989.922 2.899v1.55q0 1.911-.922 2.9-.921.989-2.764.989h-1.169v6.405h-2.472zm3.641 7.08q.607 0 .899-.338.315-.337.315-1.146v-1.865q0-.81-.315-1.146-.292-.338-.899-.338h-1.169v4.832zm5.034-7.08h3.529l1.573 11.26h.045l1.573-11.26h3.528v15.732h-2.337v-11.911h-.045l-1.798 11.91h-2.067l-1.798-11.91h-.045v11.91h-2.158zm12.091 0h6.742v2.247h-4.27v4.158h3.394v2.248h-3.394v4.831h4.27v2.248h-6.742zm8.158 0h3.102l2.404 9.417h.045v-9.417h2.203v15.732h-2.54l-2.966-11.484h-.045v11.484H990.5zm11.53 2.247h-2.585v-2.247h7.641v2.247h-2.584v13.485h-2.473z" aria-label="development" style="font-weight:700;font-size:14.4244px;line-height:1.25;font-family:&quot;Bebas Neue&quot;;-inkscape-font-specification:&quot;Bebas Neue, Bold&quot;;stroke-width:.561853" transform="translate(-397.952 -25.98)"/><path d="M756.872 40.88h6.48q3.28 0 4.92 1.76t1.64 5.16v2.76q0 3.4-1.64 5.16t-4.92 1.76h-2.08v11.4h-4.4zm6.48 12.6q1.08 0 1.6-.6.56-.6.56-2.04v-3.32q0-1.44-.56-2.04-.52-.6-1.6-.6h-2.08v8.6zm8.96-12.6h6.52q3.4 0 4.96 1.6 1.56 1.56 1.56 4.84v1.72q0 4.36-2.88 5.52v.08q1.6.48 2.24 1.96.68 1.48.68 3.96v4.92q0 1.2.08 1.96.08.72.4 1.44h-4.48q-.24-.68-.32-1.28t-.08-2.16v-5.12q0-1.92-.64-2.68-.6-.76-2.12-.76h-1.52v12h-4.4zm6 12q1.32 0 1.96-.68.68-.68.68-2.28v-2.16q0-1.52-.56-2.2-.52-.68-1.68-.68h-2v8zm16.48 16.4q-3.24 0-4.96-1.84t-1.72-5.2V47.52q0-3.36 1.72-5.2t4.96-1.84 4.96 1.84 1.72 5.2v14.72q0 3.36-1.72 5.2t-4.96 1.84m0-4q2.28 0 2.28-2.76V47.24q0-2.76-2.28-2.76t-2.28 2.76v15.28q0 2.76 2.28 2.76m10.68 3.76q-1.2 0-2.04-.16v-4q.64.16 1.44.16 1.32 0 1.96-.64.64-.68.64-2.04V40.88h4.4v21.36q0 3.44-1.6 5.12-1.56 1.68-4.8 1.68m9.56-28.16h12v4h-7.6v7.4h6.04v4h-6.04v8.6h7.6v4h-12zm20.72 28.4q-3.16 0-4.84-1.8-1.64-1.8-1.64-5.08V47.36q0-3.28 1.64-5.08 1.68-1.8 4.84-1.8t4.8 1.8q1.68 1.8 1.68 5.08v2.96h-4.16v-3.24q0-2.6-2.2-2.6t-2.2 2.6v15.64q0 2.56 2.2 2.56t2.2-2.56v-4.28h4.16v3.96q0 3.28-1.68 5.08-1.64 1.8-4.8 1.8m12.56-24.4h-4.6v-4h13.6v4h-4.6v24h-4.4zm23.72 24.4q-3.16 0-4.84-1.8-1.64-1.8-1.64-5.08V47.36q0-3.28 1.64-5.08 1.68-1.8 4.84-1.8t4.8 1.8q1.68 1.8 1.68 5.08v2.96h-4.16v-3.24q0-2.6-2.2-2.6t-2.2 2.6v15.64q0 2.56 2.2 2.56t2.2-2.56v-4.28h4.16v3.96q0 3.28-1.68 5.08-1.64 1.8-4.8 1.8m15.56 0q-3.24 0-4.96-1.84t-1.72-5.2V47.52q0-3.36 1.72-5.2t4.96-1.84 4.96 1.84 1.72 5.2v14.72q0 3.36-1.72 5.2t-4.96 1.84m0-4q2.28 0 2.28-2.76V47.24q0-2.76-2.28-2.76t-2.28 2.76v15.28q0 2.76 2.28 2.76m15.36 4q-3.2 0-4.84-1.8-1.64-1.84-1.64-5.24v-1.6h4.16v1.92q0 2.72 2.28 2.72 1.12 0 1.68-.64.6-.68.6-2.16 0-1.76-.8-3.08-.8-1.36-2.96-3.24-2.72-2.4-3.8-4.32-1.08-1.96-1.08-4.4 0-3.32 1.68-5.12 1.68-1.84 4.88-1.84 3.16 0 4.76 1.84 1.64 1.8 1.64 5.2v1.16h-4.16v-1.44q0-1.44-.56-2.08-.56-.68-1.64-.68-2.2 0-2.2 2.68 0 1.52.8 2.84.84 1.32 3 3.2 2.76 2.4 3.8 4.36t1.04 4.6q0 3.44-1.72 5.28-1.68 1.84-4.92 1.84m12.6-24.4h-4.6v-4h13.6v4h-4.6v24h-4.4zm16.84 24.4q-3.2 0-4.84-1.8-1.64-1.84-1.64-5.24v-1.6h4.16v1.92q0 2.72 2.28 2.72 1.12 0 1.68-.64.6-.68.6-2.16 0-1.76-.8-3.08-.8-1.36-2.96-3.24-2.72-2.4-3.8-4.32-1.08-1.96-1.08-4.4 0-3.32 1.68-5.12 1.68-1.84 4.88-1.84 3.16 0 4.76 1.84 1.64 1.8 1.64 5.2v1.16h-4.16v-1.44q0-1.44-.56-2.08-.56-.68-1.64-.68-2.2 0-2.2 2.68 0 1.52.8 2.84.84 1.32 3 3.2 2.76 2.4 3.8 4.36t1.04 4.6q0 3.44-1.72 5.28-1.68 1.84-4.92 1.84" aria-label="Project Costs" style="font-size:40px;line-height:1.25;font-family:&quot;Bebas Neue&quot;;-inkscape-font-specification:&quot;Bebas Neue, Normal&quot;" transform="translate(-397.952 -25.98)"/></svg>