<?xml version="1.0" encoding="UTF-8" standalone="no"?>
<!-- Created with Inkscape (http://www.inkscape.org/) -->

<svg
   width="210.12694mm"
   height="128.26419mm"
   viewBox="0 0 210.12694 128.26419"
   version="1.1"
   id="svg1"
   xml:space="preserve"
   inkscape:version="1.3 (0e150ed, 2023-07-21)"
   sodipodi:docname="hero.svg"
   inkscape:export-filename="rust-in-ten-years-main-v2-alt.png"
   inkscape:export-xdpi="377.49"
   inkscape:export-ydpi="377.49"
   xmlns:inkscape="http://www.inkscape.org/namespaces/inkscape"
   xmlns:sodipodi="http://sodipodi.sourceforge.net/DTD/sodipodi-0.dtd"
   xmlns:xlink="http://www.w3.org/1999/xlink"
   xmlns="http://www.w3.org/2000/svg"
   xmlns:svg="http://www.w3.org/2000/svg"><sodipodi:namedview
     id="namedview1"
     pagecolor="#ffffff"
     bordercolor="#666666"
     borderopacity="1.0"
     inkscape:showpageshadow="2"
     inkscape:pageopacity="0.0"
     inkscape:pagecheckerboard="0"
     inkscape:deskcolor="#d1d1d1"
     inkscape:document-units="mm"
     inkscape:zoom="0.99666649"
     inkscape:cx="371.7392"
     inkscape:cy="237.79268"
     inkscape:window-width="1920"
     inkscape:window-height="1027"
     inkscape:window-x="0"
     inkscape:window-y="25"
     inkscape:window-maximized="0"
     inkscape:current-layer="layer1" /><defs
     id="defs1"><linearGradient
       id="linearGradient4"
       inkscape:collect="always"><stop
         style="stop-color:#fde1ae;stop-opacity:0;"
         offset="0"
         id="stop5" /><stop
         style="stop-color:#fde1ae;stop-opacity:1;"
         offset="1"
         id="stop4" /></linearGradient><linearGradient
       inkscape:collect="always"
       xlink:href="#linearGradient4"
       id="linearGradient5"
       x1="17.641893"
       y1="93.704803"
       x2="66.431732"
       y2="93.173874"
       gradientUnits="userSpaceOnUse" /></defs><g
     inkscape:label="Layer 1"
     inkscape:groupmode="layer"
     id="layer1"
     transform="translate(1.1317428,1.1317428)"><path
       style="opacity:0.468707;fill:url(#linearGradient5);fill-opacity:1;stroke:none;stroke-width:2.04525;stroke-linecap:butt;stroke-linejoin:miter;stroke-dasharray:none;stroke-opacity:1"
       d="M 17.167368,96.962454 16.845487,123.10159 H 195.98026 l -10e-5,-96.553781 C 173.57932,48.389717 132.25362,87.915577 17.167368,96.962454 Z"
       id="path35"
       sodipodi:nodetypes="ccccc" /><path
       style="fill:#f8aa18;fill-opacity:0;stroke:none;stroke-width:2;stroke-linecap:butt;stroke-linejoin:miter;stroke-dasharray:none;stroke-opacity:1"
       d="M 16.9019,96.166049 H 195.98016 V 26.547809 C 125.58315,86.14838 70.85282,92.4822 16.9019,96.166049 Z"
       id="path36"
       sodipodi:nodetypes="cccc" /><path
       d="m 125.19151,37.521779 -1.83687,-1.137309 c -0.0143,-0.16836 -0.0286,-0.33083 -0.0463,-0.494991 l 1.57589,-1.47319 a 0.61874095,0.61874095 0 0 0 -0.20539,-1.03124 l -2.02038,-0.75764 c -0.0455,-0.15827 -0.0909,-0.318219 -0.14058,-0.47479 l 1.26273,-1.75353 a 0.61874095,0.61874095 0 0 0 -0.40323,-0.97145 l -2.13991,-0.34936 c -0.0757,-0.14564 -0.15069,-0.29043 -0.22981,-0.43354 l 0.89906,-1.97156 a 0.61874095,0.61874095 0 0 0 -0.58506,-0.87466 l -2.17358,0.0766 q -0.15068,-0.18688 -0.30391,-0.37039 l 0.495,-2.11804 a 0.61958276,0.61958276 0 0 0 -0.74417,-0.74417 l -2.118,0.49919 q -0.18268,-0.15405 -0.37041,-0.30389 l 0.0766,-2.17359 a 0.61874095,0.61874095 0 0 0 -0.87465,-0.58927 l -1.97155,0.90327 c -0.14312,-0.0791 -0.28874,-0.15489 -0.43353,-0.22982 l -0.34936,-2.13992 a 0.61874095,0.61874095 0 0 0 -0.97146,-0.40323 l -1.75603,1.26021 c -0.15659,-0.0496 -0.31569,-0.0951 -0.4748,-0.14059 l -0.75761,-2.02037 a 0.61874095,0.61874095 0 0 0 -1.03124,-0.2054 l -1.47318,1.57589 c -0.16415,-0.0177 -0.32915,-0.0319 -0.49499,-0.0463 l -1.13477,-1.83855 a 0.61874095,0.61874095 0 0 0 -1.05228,0 l -1.13729,1.83686 c -0.16838,0.0143 -0.33083,0.0286 -0.49501,0.0463 l -1.47318,-1.57589 a 0.61874095,0.61874095 0 0 0 -1.031244,0.2054 l -0.75764,2.02038 c -0.1591,0.0463 -0.31905,0.0909 -0.47647,0.14143 l -1.75263,-1.26274 a 0.61874095,0.61874095 0 0 0 -0.97147,0.40324 l -0.34936,2.13907 c -0.14563,0.0757 -0.29042,0.1507 -0.43438,0.22982 l -1.96986,-0.89486 a 0.61874095,0.61874095 0 0 0 -0.87465,0.58927 l 0.0774,2.17276 c -0.12543,0.10017 -0.25254,0.20119 -0.37209,0.3039 l -2.11718,-0.50257 a 0.61958276,0.61958276 0 0 0 -0.744166,0.74417 l 0.499196,2.11804 c -0.10355,0.12205 -0.20456,0.24664 -0.304746,0.37123 l -2.17274,-0.0766 a 0.6246337,0.6246337 0 0 0 -0.53625,0.27444 0.61874095,0.61874095 0 0 0 -0.048,0.60021 l 0.89739,1.97072 c -0.0791,0.14311 -0.15406,0.28875 -0.22982,0.43438 l -2.13908,0.34852 a 0.61874095,0.61874095 0 0 0 -0.40324,0.97145 l 1.26273,1.75269 c -0.0496,0.15741 -0.0951,0.31736 -0.14141,0.47647 l -2.02039,0.75764 a 0.61874095,0.61874095 0 0 0 -0.2054,1.03124 l 1.57589,1.47319 c -0.0177,0.16416 -0.0319,0.32915 -0.0463,0.49499 l -1.84023,1.13647 a 0.61874095,0.61874095 0 0 0 0,1.05227 l 1.83686,1.13731 c 0.0143,0.16836 0.0286,0.32999 0.0463,0.49414 l -1.5759,1.4732 a 0.61874095,0.61874095 0 0 0 0.20541,1.03123 l 2.02038,0.75765 c 0.0463,0.15911 0.0909,0.31821 0.14142,0.47563 l -1.26273,1.75352 a 0.61874095,0.61874095 0 0 0 0.40323,0.97147 l 2.13992,0.34935 c 0.0757,0.14479 0.15068,0.29043 0.22981,0.4327 l -0.89486,1.97239 a 0.61874095,0.61874095 0 0 0 0.048,0.60023 0.60022081,0.60022081 0 0 0 0.53624,0.27443 l 2.17443,-0.0766 q 0.149006,0.18688 0.303056,0.3704 l -0.499196,2.11803 a 0.61958276,0.61958276 0 0 0 0.744166,0.74418 l 2.11803,-0.49921 q 0.18352,0.15405 0.37125,0.3039 l -0.0774,2.17359 a 0.61874095,0.61874095 0 0 0 0.87465,0.58507 l 1.9724,-0.89906 c 0.14226,0.0791 0.28789,0.15404 0.43269,0.22981 l 0.34936,2.13991 a 0.61789913,0.61789913 0 0 0 0.97147,0.4024 l 1.7535,-1.26274 c 0.15658,0.0505 0.31653,0.0951 0.47564,0.14142 l 0.75763,2.02039 a 0.61958276,0.61958276 0 0 0 1.031244,0.2054 l 1.47319,-1.57589 c 0.16416,0.0177 0.33,0.0319 0.495,0.0463 l 1.13729,1.83686 a 0.61874095,0.61874095 0 0 0 1.05227,0 l 1.1373,-1.83686 c 0.16837,-0.0144 0.33084,-0.0286 0.495,-0.0472 l 1.47317,1.57673 a 0.61958276,0.61958276 0 0 0 1.03124,-0.2054 l 0.75764,-2.02037 c 0.1591,-0.0463 0.3182,-0.091 0.47562,-0.14143 l 1.75268,1.26272 a 0.61789913,0.61789913 0 0 0 0.97146,-0.40237 l 0.34936,-2.13992 c 0.14479,-0.0757 0.29042,-0.150689 0.43353,-0.229819 l 1.97155,0.89907 a 0.61874095,0.61874095 0 0 0 0.87465,-0.58507 l -0.0766,-2.1736 q 0.18689,-0.15068 0.37041,-0.303891 l 2.11717,0.499201 a 0.61958276,0.61958276 0 0 0 0.74416,-0.74418 l -0.4992,-2.118021 q 0.15406,-0.182679 0.3039,-0.37041 l 2.17358,0.0766 a 0.60863904,0.60863904 0 0 0 0.53624,-0.27443 0.61874095,0.61874095 0 0 0 0.0488,-0.60022 l -0.89907,-1.97154 c 0.0792,-0.14312 0.15405,-0.28875 0.2298,-0.43354 l 2.13991,-0.34937 a 0.61874095,0.61874095 0 0 0 0.40324,-0.97146 l -1.26273,-1.75352 c 0.0496,-0.15742 0.0951,-0.31653 0.14057,-0.47563 l 2.02039,-0.75765 a 0.61874095,0.61874095 0 0 0 0.20539,-1.03123 l -1.57589,-1.47319 c 0.0177,-0.16416 0.0319,-0.32916 0.0463,-0.49416 l 1.83686,-1.1373 a 0.61874095,0.61874095 0 0 0 0,-1.05228 z m -12.71147,10.86626 a 1.1709777,1.1709777 0 0 0 -1.39069,0.89907 l -0.64315,3.00279 a 15.78505,15.78505 0 0 1 -13.162724,-0.0623 l -0.64315,-3.00195 a 1.1676104,1.1676104 0 0 0 -1.38563,-0.89907 l -2.6526,0.56907 a 15.774106,15.774106 0 0 1 -1.36881,-1.61714 H 104.1275 c 0.14479,0 0.24329,-0.0244 0.24329,-0.16079 v -4.56184 c 0,-0.13218 -0.0985,-0.16079 -0.24329,-0.16079 h -3.77388 l 0.004,-2.89166 h 4.08115 c 0.37125,0 1.99175,0.10775 2.50779,2.1778 0.16078,0.63557 0.5194,2.70561 0.76268,3.36729 0.24329,0.74249 1.22906,2.22747 2.28133,2.22747 h 6.65459 a 15.767371,15.767371 0 0 1 -1.45972,1.69122 z m 2.16936,2.90346 a 1.2829404,1.2829404 0 1 1 -1.28714,-1.28295 h 0.037 a 1.2820986,1.2820986 0 0 1 1.24589,1.28295 z M 95.656246,51.2342 a 1.2829404,1.2829404 0 1 1 -1.28379,-1.283791 h 0.0379 a 1.2837822,1.2837822 0 0 1 1.2417,1.283791 z m -7.416466,-15.025731 2.763696,-1.22907 a 1.1684523,1.1684523 0 0 0 0.59433,-1.543059 l -0.56992,-1.28125 h 2.23588 V 42.234259 H 88.7516 a 15.796836,15.796836 0 0 1 -0.51182,-6.02579 z m -0.94791,-3.03562 a 1.2829404,1.2829404 0 0 1 1.28211,-1.28378 h 0.0388 a 1.2829404,1.2829404 0 1 1 -1.31915,1.28294 z m 13.06175,2.06164 0.004,-2.97333 h 5.32536 c 0.27612,0 1.94208,0.31736 1.94208,1.567481 0,1.034599 -1.27872,1.40585 -2.33015,1.40585 z m 15.61828,7.08225 c -0.82498,0.0951 -1.73668,-0.34683 -1.85199,-0.84939 -0.48659,-2.73509 -1.29557,-3.31679 -2.57346,-4.32698 1.58768,-1.00598 3.23764,-2.49517 3.23764,-4.48355 0,-2.14834 -1.47234,-3.50115 -2.47494,-4.16535 -1.4109,-0.92601 -2.96994,-1.11374 -3.39002,-1.11374 H 92.175296 a 15.783365,15.783365 0 0 1 8.829884,-4.98276 l 1.97575,2.07089 a 1.1634013,1.1634013 0 0 0 1.64998,0.0371 l 2.21062,-2.10456 a 15.78505,15.78505 0 0 1 10.80643,7.6968 l -1.51527,3.41527 a 1.1785542,1.1785542 0 0 0 0.59686,1.54307 l 2.91183,1.29053 a 15.752218,15.752218 0 0 1 0.0336,2.73929 h -1.62302 c -0.16078,0 -0.22645,0.10691 -0.22645,0.26349 v 0.74249 c -10e-4,1.74678 -0.98576,2.13234 -1.85367,2.22746 z m -13.38493,-20.75096 a 1.2829404,1.2829404 0 0 1 1.2804,-1.28042 h 0.038 a 1.2829404,1.2829404 0 1 1 -1.31828,1.28042 z m 16.57037,12.94642 a 1.2829414,1.2829414 0 1 1 0,-2.565879 h 0.0371 a 1.2830753,1.2830753 0 0 1 -0.0371,2.565879 z"
       id="path37"
       style="fill:#000000;fill-opacity:1;stroke-width:0.0841824" /><path
       d="m 12.281547,110.16991 v -0.006 q 0,-0.15929 0.0061,-0.31858 0.0061,-0.16541 0.0245,-0.31857 0.02451,-0.15929 0.06739,-0.31245 0.04289,-0.15929 0.110277,-0.3002 0.06739,-0.14703 0.153161,-0.28181 0.0919,-0.13479 0.196047,-0.25119 0.10415,-0.12253 0.220552,-0.22668 0.12253,-0.11028 0.251185,-0.2083 0.128656,-0.098 0.251185,-0.20217 0.122529,-0.10415 0.214426,-0.23281 0.09802,-0.12865 0.140909,-0.28181 0.04901,-0.15929 0.04901,-0.31858 0,-0.0858 -0.01225,-0.16541 -0.0061,-0.0797 -0.03063,-0.15929 -0.02451,-0.0797 -0.06739,-0.14704 -0.03676,-0.0735 -0.09802,-0.12865 -0.06127,-0.0551 -0.140909,-0.0796 -0.07964,-0.0245 -0.159288,-0.0245 -0.110276,0 -0.214426,0.0429 -0.10415,0.0429 -0.171541,0.12866 -0.06126,0.0858 -0.0919,0.19604 -0.03063,0.10415 -0.03063,0.21443 0,0 0,0 0,0 0,0.006 h -0.680037 q 0,-0.006 0,-0.006 0,0 0,-0.006 0,-0.15316 0.03063,-0.30632 0.03676,-0.15929 0.110277,-0.29407 0.07352,-0.14091 0.183794,-0.25118 0.116402,-0.11641 0.251184,-0.1838 0.140909,-0.0735 0.29407,-0.098 0.159288,-0.0306 0.318576,-0.0306 0.165415,0 0.330829,0.0368 0.165415,0.0306 0.306323,0.1164 0.147035,0.0796 0.257312,0.2083 0.110276,0.12865 0.177667,0.28182 0.06739,0.14703 0.0919,0.31857 0.02451,0.16542 0.02451,0.33083 0,0.20217 -0.05514,0.39822 -0.04901,0.19605 -0.153161,0.37371 -0.10415,0.17154 -0.251185,0.31858 -0.147035,0.14091 -0.300196,0.26956 -0.153162,0.12866 -0.300197,0.26957 -0.147035,0.14091 -0.269564,0.30632 -0.116403,0.15929 -0.202173,0.34921 -0.07964,0.18379 -0.110277,0.38597 h 1.617386 v 0.58814 z m 4.233372,0.049 q -0.165414,0 -0.336955,-0.0306 -0.165414,-0.0306 -0.312449,-0.11028 -0.147036,-0.0796 -0.263438,-0.20217 -0.110277,-0.12866 -0.183794,-0.27569 -0.06739,-0.15317 -0.09802,-0.31858 -0.02451,-0.17154 -0.02451,-0.33696 v -2.05236 q 0,-0.16541 0.02451,-0.33083 0.03063,-0.17154 0.09802,-0.31857 0.07352,-0.15317 0.183794,-0.27569 0.116402,-0.12866 0.263438,-0.2083 0.147035,-0.0797 0.312449,-0.11028 0.171541,-0.0306 0.336955,-0.0306 0.165415,0 0.330829,0.0306 0.171541,0.0306 0.318576,0.11028 0.147035,0.0796 0.257311,0.2083 0.116403,0.12252 0.183794,0.27569 0.07352,0.14703 0.09802,0.31857 0.03063,0.16542 0.03063,0.33083 v 2.05236 q 0,0.16542 -0.03063,0.33696 -0.02451,0.16541 -0.09802,0.31858 -0.06739,0.14703 -0.183794,0.27569 -0.110276,0.12253 -0.257311,0.20217 -0.147035,0.0796 -0.318576,0.11028 -0.165414,0.0306 -0.330829,0.0306 z m -0.539128,-2.16877 1.078257,-0.85158 v -0.30632 q 0,-0.12253 -0.02451,-0.24506 -0.02451,-0.12253 -0.09802,-0.22668 -0.06739,-0.10415 -0.183794,-0.15928 -0.110277,-0.0551 -0.232806,-0.0551 -0.122529,0 -0.238932,0.0551 -0.110276,0.0551 -0.183793,0.15928 -0.06739,0.10415 -0.0919,0.22668 -0.02451,0.12253 -0.02451,0.24506 z m 0.539128,1.58063 q 0.122529,0 0.232806,-0.0551 0.116403,-0.0551 0.183794,-0.15929 0.07352,-0.10415 0.09802,-0.22668 0.02451,-0.12253 0.02451,-0.24506 v -1.1579 l -1.078257,0.85158 v 0.30632 q 0,0.12253 0.02451,0.24506 0.02451,0.12253 0.0919,0.22668 0.07352,0.10415 0.183793,0.15929 0.116403,0.0551 0.238932,0.0551 z m 3.063219,0.58814 q -0.165415,0 -0.336956,-0.0306 -0.165414,-0.0306 -0.312449,-0.11028 -0.147035,-0.0796 -0.263438,-0.20217 -0.110276,-0.12866 -0.183794,-0.27569 -0.06739,-0.15317 -0.09802,-0.31858 -0.02451,-0.17154 -0.02451,-0.33696 v -2.05236 q 0,-0.16541 0.02451,-0.33083 0.03063,-0.17154 0.09802,-0.31857 0.07352,-0.15317 0.183794,-0.27569 0.116403,-0.12866 0.263438,-0.2083 0.147035,-0.0797 0.312449,-0.11028 0.171541,-0.0306 0.336956,-0.0306 0.165414,0 0.330828,0.0306 0.171541,0.0306 0.318576,0.11028 0.147035,0.0796 0.257312,0.2083 0.116402,0.12252 0.183794,0.27569 0.07352,0.14703 0.09802,0.31857 0.03063,0.16542 0.03063,0.33083 v 2.05236 q 0,0.16542 -0.03063,0.33696 -0.02451,0.16541 -0.09802,0.31858 -0.06739,0.14703 -0.183794,0.27569 -0.110277,0.12253 -0.257312,0.20217 -0.147035,0.0796 -0.318576,0.11028 -0.165414,0.0306 -0.330828,0.0306 z m -0.539129,-2.16877 1.078257,-0.85158 v -0.30632 q 0,-0.12253 -0.02451,-0.24506 -0.02451,-0.12253 -0.09802,-0.22668 -0.06739,-0.10415 -0.183794,-0.15928 -0.110276,-0.0551 -0.232805,-0.0551 -0.12253,0 -0.238932,0.0551 -0.110277,0.0551 -0.183794,0.15928 -0.06739,0.10415 -0.0919,0.22668 -0.02451,0.12253 -0.02451,0.24506 z m 0.539129,1.58063 q 0.122529,0 0.232805,-0.0551 0.116403,-0.0551 0.183794,-0.15929 0.07352,-0.10415 0.09802,-0.22668 0.02451,-0.12253 0.02451,-0.24506 v -1.1579 l -1.078257,0.85158 v 0.30632 q 0,0.12253 0.02451,0.24506 0.02451,0.12253 0.0919,0.22668 0.07352,0.10415 0.183794,0.15929 0.116402,0.0551 0.238932,0.0551 z m 3.063218,0.58814 q -0.18992,0 -0.37984,-0.0551 -0.183794,-0.0551 -0.330829,-0.17154 -0.147035,-0.12253 -0.251185,-0.28182 -0.09802,-0.16541 -0.159288,-0.34921 -0.05514,-0.18379 -0.07964,-0.37371 -0.01838,-0.18992 -0.01838,-0.37984 0,-0.23893 0.04288,-0.47786 0.04901,-0.23894 0.128656,-0.46562 0.08577,-0.22667 0.18992,-0.4411 0.10415,-0.22055 0.208299,-0.43498 l 0.539129,-1.12114 h 0.741302 l -0.667785,1.37845 q -0.03676,0.0797 -0.07964,0.16542 -0.04288,0.0796 -0.08577,0.15928 0.05514,-0.0122 0.110276,-0.0122 0.05514,-0.006 0.110277,-0.006 0.177667,0 0.349208,0.0429 0.177667,0.0429 0.318576,0.14704 0.147035,0.098 0.251185,0.24505 0.110276,0.14091 0.171541,0.30633 0.06126,0.16541 0.08577,0.34308 0.02451,0.17154 0.02451,0.34921 0,0.17766 -0.02451,0.35533 -0.02451,0.17767 -0.0919,0.34308 -0.06127,0.16542 -0.171541,0.31245 -0.10415,0.14091 -0.251185,0.24506 -0.147035,0.098 -0.324702,0.13478 -0.177667,0.0429 -0.355335,0.0429 z m 0,-0.58814 q 0.0919,0 0.177668,-0.0368 0.0919,-0.0368 0.153161,-0.10415 0.06739,-0.0674 0.10415,-0.15316 0.04288,-0.0919 0.06126,-0.17767 0.02451,-0.0919 0.03063,-0.18379 0.01225,-0.098 0.01225,-0.18992 0,-0.0919 -0.01225,-0.1838 -0.0061,-0.098 -0.03063,-0.18992 -0.01838,-0.0919 -0.06126,-0.17766 -0.03676,-0.0858 -0.09802,-0.15317 -0.06126,-0.0674 -0.153162,-0.10415 -0.08577,-0.0367 -0.177667,-0.0367 -0.09802,0 -0.189921,0.0367 -0.08577,0.0368 -0.147035,0.10415 -0.06126,0.0674 -0.104149,0.15317 -0.04289,0.0858 -0.06739,0.17766 -0.01838,0.0919 -0.02451,0.18992 -0.0061,0.0919 -0.0061,0.1838 0,0.0919 0.0061,0.18992 0.0061,0.0919 0.02451,0.18379 0.02451,0.0858 0.06126,0.17767 0.04288,0.0858 0.10415,0.15316 0.06739,0.0674 0.153161,0.10415 0.0919,0.0368 0.183794,0.0368 z"
       id="text37"
       style="font-weight:bold;font-size:6.12646px;line-height:1.25;font-family:Iosevka;-inkscape-font-specification:'Iosevka, Bold';fill:#000000;stroke-width:0.153162;fill-opacity:1"
       aria-label="2006" /><path
       d="m 11.843512,117.55821 q -0.159288,0 -0.318576,-0.0306 -0.159288,-0.0245 -0.306323,-0.0919 -0.140908,-0.0674 -0.257311,-0.17767 -0.116403,-0.1164 -0.196047,-0.25119 -0.07352,-0.1409 -0.110276,-0.29407 -0.03676,-0.15928 -0.03676,-0.31857 0,-0.006 0,-0.006 0,0 0,-0.006 h 0.680037 q 0,0.006 0,0.006 0,0 0,0 0,0.11028 0.03063,0.22055 0.03676,0.11028 0.110276,0.19605 0.07352,0.0858 0.177667,0.12866 0.110276,0.0367 0.226679,0.0367 0.116403,0 0.226679,-0.0429 0.110277,-0.049 0.177668,-0.14091 0.07352,-0.098 0.104149,-0.21442 0.03676,-0.11641 0.03676,-0.23281 0,-0.14704 -0.06126,-0.28182 -0.06127,-0.13478 -0.171541,-0.2328 -0.10415,-0.10415 -0.238932,-0.17154 -0.128656,-0.0674 -0.263438,-0.13479 -0.128656,-0.0674 -0.251185,-0.14703 -0.122529,-0.0797 -0.232805,-0.17154 -0.110277,-0.098 -0.2083,-0.2083 -0.0919,-0.1164 -0.159288,-0.24506 -0.06127,-0.13478 -0.0919,-0.27569 -0.03063,-0.14704 -0.03063,-0.29407 0,-0.15929 0.03063,-0.31858 0.03676,-0.15928 0.10415,-0.30019 0.07352,-0.14704 0.177667,-0.26344 0.110277,-0.12253 0.251185,-0.19605 0.140909,-0.0796 0.29407,-0.11027 0.159288,-0.0306 0.318576,-0.0306 0.159288,0 0.31245,0.0306 0.159288,0.0245 0.29407,0.098 0.140908,0.0735 0.251185,0.18992 0.110276,0.11028 0.177667,0.25118 0.07352,0.13479 0.10415,0.29407 0.03676,0.15317 0.03676,0.30633 0,0 0,0.006 0,0 0,0 h -0.680037 q 0,0 0,0 0,0 0,0 0,-0.11027 -0.03063,-0.21442 -0.02451,-0.11028 -0.0919,-0.19605 -0.06126,-0.0858 -0.165414,-0.12865 -0.09802,-0.049 -0.2083,-0.049 -0.110276,0 -0.214426,0.0551 -0.10415,0.049 -0.165414,0.14091 -0.06127,0.0919 -0.0919,0.2083 -0.02451,0.11028 -0.02451,0.22055 0,0.14704 0.06126,0.28795 0.06127,0.13478 0.165415,0.23893 0.110276,0.098 0.238932,0.16541 0.128656,0.0674 0.257311,0.13478 0.134782,0.0674 0.257312,0.14704 0.128655,0.0735 0.238931,0.17154 0.110277,0.098 0.202174,0.21443 0.0919,0.11027 0.153161,0.24506 0.06739,0.12865 0.09802,0.27569 0.03676,0.1409 0.03676,0.28794 0,0.16541 -0.03676,0.3247 -0.03676,0.15929 -0.110276,0.30632 -0.07352,0.14091 -0.18992,0.26344 -0.116403,0.11641 -0.263438,0.18992 -0.140908,0.0735 -0.306323,0.10415 -0.159288,0.0306 -0.318576,0.0306 z m 3.449186,0 q -0.153162,0 -0.306323,-0.0368 -0.153162,-0.0368 -0.281818,-0.12866 -0.122529,-0.0919 -0.214426,-0.22055 -0.08577,-0.12866 -0.140908,-0.27569 -0.04901,-0.14704 -0.06739,-0.3002 -0.01838,-0.15929 -0.01838,-0.31245 v -1.43359 h -0.594266 v -0.58814 h 0.594266 v -1.25592 h 0.686164 v 1.25592 h 0.863831 v 0.58814 h -0.863831 v 1.43359 q 0,0.0735 0,0.14704 0.0061,0.0674 0.01838,0.14091 0.01225,0.0674 0.03063,0.13478 0.02451,0.0674 0.06126,0.12865 0.04289,0.0551 0.10415,0.098 0.06127,0.0367 0.128656,0.0367 0.0919,0 0.165414,-0.0551 0.07964,-0.0613 0.116403,-0.14704 0.03676,-0.0858 0.04901,-0.17767 0.01225,-0.0919 0.01225,-0.18379 0,-0.006 0,-0.0122 0,-0.0123 0,-0.0184 h 0.686164 q 0,0.0184 0,0.0368 0,0.0122 0,0.0245 0,0.14704 -0.03063,0.28795 -0.02451,0.14091 -0.07964,0.27569 -0.05514,0.12865 -0.153162,0.23893 -0.0919,0.11028 -0.214426,0.18379 -0.122529,0.0735 -0.263438,0.10415 -0.140908,0.0306 -0.287943,0.0306 z m 2.309663,0 q -0.122529,0 -0.245058,-0.0245 -0.116403,-0.0245 -0.220553,-0.0858 -0.09802,-0.0613 -0.177667,-0.15316 -0.07352,-0.098 -0.122529,-0.2083 -0.04288,-0.11641 -0.06126,-0.23281 -0.01838,-0.1164 -0.01838,-0.23893 0,-0.16541 0.03676,-0.3247 0.03676,-0.15929 0.134782,-0.28795 0.09802,-0.13478 0.232805,-0.22667 0.134782,-0.0919 0.287944,-0.14704 0.159288,-0.0551 0.318576,-0.0735 0.165414,-0.0184 0.324702,-0.0184 h 0.373714 v -0.23893 q 0,-0.10415 -0.03063,-0.19605 -0.03063,-0.098 -0.10415,-0.16541 -0.06739,-0.0735 -0.165414,-0.10415 -0.09802,-0.0306 -0.202174,-0.0306 -0.08577,0 -0.177667,0.0245 -0.08577,0.0184 -0.159288,0.0735 -0.07352,0.0551 -0.116403,0.14091 -0.03676,0.0858 -0.03676,0.17154 h -0.680037 q 0,-0.14091 0.03676,-0.28182 0.04289,-0.1409 0.12253,-0.26343 0.07964,-0.12253 0.196046,-0.21443 0.116403,-0.0919 0.251185,-0.14091 0.134782,-0.0551 0.275691,-0.0735 0.147035,-0.0245 0.287943,-0.0245 0.153162,0 0.306323,0.0245 0.153162,0.0184 0.287944,0.0797 0.140909,0.0613 0.257311,0.16541 0.116403,0.098 0.189921,0.23281 0.07964,0.12865 0.110276,0.28181 0.03063,0.14704 0.03063,0.3002 v 2.21165 h -0.680037 v -0.47786 q -0.03063,0.0613 -0.04288,0.0796 -0.0061,0.0123 -0.02451,0.0429 -0.01838,0.0245 -0.04288,0.0551 -0.01838,0.0245 -0.04289,0.049 -0.01838,0.0245 -0.04289,0.049 -0.0245,0.0245 -0.04901,0.049 -0.02451,0.0184 -0.05514,0.0368 -0.02451,0.0184 -0.05514,0.0368 -0.02451,0.0184 -0.05514,0.0368 -0.03063,0.0123 -0.06126,0.0245 -0.03063,0.0123 -0.06739,0.0184 -0.03063,0.0123 -0.06127,0.0184 -0.03063,0.006 -0.06739,0.0123 -0.03063,0.006 -0.06739,0.006 -0.03063,0.006 -0.06739,0.006 -0.03063,0.006 -0.06127,0.006 z m 0.275691,-0.58815 q 0.116403,0 0.226679,-0.0306 0.116403,-0.0368 0.196047,-0.1164 0.08577,-0.0796 0.122529,-0.18992 0.04288,-0.11028 0.04288,-0.22668 v -0.28182 h -0.373714 q -0.07352,0 -0.147035,0.006 -0.07352,0.006 -0.147035,0.0245 -0.06739,0.0184 -0.134782,0.049 -0.06739,0.0306 -0.122529,0.0796 -0.04901,0.049 -0.07964,0.12253 -0.02451,0.0674 -0.02451,0.14091 0,0.0858 0.03063,0.17154 0.03063,0.0858 0.0919,0.14704 0.06126,0.0551 0.147035,0.0796 0.08577,0.0245 0.171541,0.0245 z m 2.33417,0.53913 v -3.24702 h 0.686163 v 0.70454 q 0.03676,-0.14091 0.0919,-0.26956 0.05514,-0.13478 0.147035,-0.24506 0.0919,-0.11028 0.220553,-0.17154 0.134782,-0.0674 0.275691,-0.0674 0.116402,0 0.226679,0.0368 0.116402,0.0368 0.196046,0.1164 0.08577,0.0796 0.134782,0.18379 0.05514,0.10415 0.08577,0.22056 0.03063,0.11027 0.03676,0.22667 0.01225,0.11641 0.01225,0.23281 h -0.686164 q 0,-0.0735 -0.01225,-0.14703 -0.0061,-0.0735 -0.03676,-0.13479 -0.03063,-0.0674 -0.09802,-0.10415 -0.06126,-0.0429 -0.134782,-0.0429 -0.09802,0 -0.183794,0.0613 -0.07964,0.0613 -0.128656,0.14704 -0.04901,0.0858 -0.07964,0.18379 -0.02451,0.098 -0.04289,0.19605 -0.01838,0.098 -0.02451,0.20217 0,0.098 0,0.19605 v 1.72153 z m 4.270131,0.049 q -0.153162,0 -0.306323,-0.0368 -0.153162,-0.0368 -0.281818,-0.12866 -0.122529,-0.0919 -0.214426,-0.22055 -0.08577,-0.12866 -0.140908,-0.27569 -0.04901,-0.14704 -0.06739,-0.3002 -0.01838,-0.15929 -0.01838,-0.31245 v -1.43359 h -0.594266 v -0.58814 h 0.594266 v -1.25592 h 0.686164 v 1.25592 h 0.863831 v 0.58814 h -0.863831 v 1.43359 q 0,0.0735 0,0.14704 0.0061,0.0674 0.01838,0.14091 0.01225,0.0674 0.03063,0.13478 0.02451,0.0674 0.06126,0.12865 0.04289,0.0551 0.10415,0.098 0.06126,0.0367 0.128656,0.0367 0.0919,0 0.165414,-0.0551 0.07964,-0.0613 0.116403,-0.14704 0.03676,-0.0858 0.04901,-0.17767 0.01225,-0.0919 0.01225,-0.18379 0,-0.006 0,-0.0122 0,-0.0123 0,-0.0184 h 0.686164 q 0,0.0184 0,0.0368 0,0.0122 0,0.0245 0,0.14704 -0.03063,0.28795 -0.02451,0.14091 -0.07964,0.27569 -0.05514,0.12865 -0.153162,0.23893 -0.0919,0.11028 -0.214426,0.18379 -0.122529,0.0735 -0.263438,0.10415 -0.140908,0.0306 -0.287943,0.0306 z"
       id="text38"
       style="font-weight:bold;font-size:6.12646px;line-height:1.25;font-family:Iosevka;-inkscape-font-specification:'Iosevka, Bold';fill:#000000;stroke-width:0.153162;fill-opacity:1"
       aria-label="Start" /><path
       d="m 196.40871,15.369528 h -1.49926 q 0,-0.307882 0.0134,-0.602379 0.0268,-0.307882 0.0937,-0.588993 0.0803,-0.294496 0.2008,-0.56222 0.12047,-0.28111 0.29449,-0.522062 0.17402,-0.254338 0.37482,-0.468517 0.21418,-0.227565 0.40158,-0.455131 0.18741,-0.227565 0.30788,-0.508675 0.13387,-0.28111 0.13387,-0.575607 0,-0.227565 -0.0669,-0.441744 -0.0669,-0.227566 -0.21418,-0.3882 -0.14725,-0.174021 -0.36143,-0.254338 -0.21418,-0.080317 -0.44175,-0.080317 -0.22756,0 -0.44174,0.080317 -0.20079,0.06693 -0.34804,0.240952 -0.14725,0.160634 -0.22757,0.374813 -0.0669,0.214179 -0.0669,0.428359 0,0.01339 0,0.02677 0,0 0,0.01339 h -1.48587 q 0,-0.01339 0,-0.02677 0,-0.02677 0,-0.04016 0,-0.334655 0.0803,-0.655924 0.0803,-0.321268 0.24095,-0.6023785 0.16064,-0.2944964 0.40159,-0.5086756 0.25434,-0.2275654 0.54883,-0.3614274 0.30789,-0.1472482 0.62915,-0.200793 0.33466,-0.053545 0.66931,-0.053545 0.33466,0 0.66931,0.053545 0.33466,0.053545 0.62916,0.200793 0.30788,0.1472482 0.54883,0.3881998 0.25434,0.2409516 0.41497,0.535448 0.16064,0.2944967 0.22757,0.6291517 0.0803,0.321268 0.0803,0.655923 0,0.307883 -0.0535,0.602379 -0.0535,0.294497 -0.16063,0.575607 -0.0937,0.267724 -0.24096,0.535448 -0.14724,0.254338 -0.33465,0.495289 -0.17402,0.240952 -0.3882,0.455131 -0.20079,0.214179 -0.36143,0.468517 -0.16063,0.240952 -0.21418,0.535448 -0.0535,0.294497 -0.0535,0.602379 z m -0.74963,3.319778 q -0.24095,0 -0.46852,-0.08032 -0.22756,-0.06693 -0.40158,-0.227566 -0.16064,-0.17402 -0.24095,-0.401586 -0.0669,-0.227565 -0.0669,-0.468517 0,-0.240951 0.0669,-0.468517 0.0803,-0.240951 0.24095,-0.401586 0.17402,-0.17402 0.40158,-0.240951 0.22757,-0.06693 0.46852,-0.06693 0.24095,0 0.46852,0.06693 0.22756,0.06693 0.3882,0.240951 0.17402,0.160635 0.24095,0.401586 0.0803,0.227566 0.0803,0.468517 0,0.240952 -0.0803,0.468517 -0.0669,0.227566 -0.24095,0.401586 -0.16064,0.160635 -0.3882,0.227566 -0.22757,0.08032 -0.46852,0.08032 z"
       id="text39"
       style="font-weight:bold;font-size:13.3862px;line-height:1.25;font-family:Iosevka;-inkscape-font-specification:'Iosevka, Bold';fill:#000000;stroke-width:0.334655;fill-opacity:1"
       aria-label="?" /><path
       style="fill:none;stroke:#0b1b31;stroke-width:2;stroke-linecap:butt;stroke-linejoin:miter;stroke-dasharray:none;stroke-opacity:1"
       d="M 17.6147,96.00484 C 88.08968,94.899799 157.22961,65.83357 196.69296,26.386609"
       id="path39"
       sodipodi:nodetypes="cc" /><path
       d="m 60.353179,103.81992 v -0.006 q 0,-0.15929 0.0061,-0.31858 0.0061,-0.16541 0.02451,-0.31857 0.02451,-0.15929 0.06739,-0.31245 0.04288,-0.15929 0.110276,-0.3002 0.06739,-0.14704 0.153162,-0.28182 0.0919,-0.13478 0.196046,-0.25118 0.10415,-0.12253 0.220553,-0.22668 0.122529,-0.11028 0.251185,-0.2083 0.128655,-0.098 0.251185,-0.20217 0.122529,-0.10415 0.214426,-0.23281 0.09802,-0.12866 0.140908,-0.28182 0.04901,-0.15929 0.04901,-0.31857 0,-0.0858 -0.01225,-0.16542 -0.0061,-0.0796 -0.03063,-0.15929 -0.02451,-0.0796 -0.06739,-0.14703 -0.03676,-0.0735 -0.09802,-0.128656 -0.06126,-0.05514 -0.140908,-0.07964 -0.07964,-0.02451 -0.159288,-0.02451 -0.110277,0 -0.214426,0.04288 -0.10415,0.04288 -0.171541,0.128651 -0.06126,0.0858 -0.0919,0.19605 -0.03063,0.10415 -0.03063,0.21443 0,0 0,0 0,0 0,0.006 h -0.680037 q 0,-0.006 0,-0.006 0,0 0,-0.006 0,-0.15316 0.03063,-0.30632 0.03676,-0.15929 0.110276,-0.294072 0.07352,-0.140909 0.183794,-0.251185 0.116403,-0.116403 0.251185,-0.183794 0.140908,-0.07352 0.29407,-0.09802 0.159288,-0.03063 0.318576,-0.03063 0.165414,0 0.330829,0.03676 0.165414,0.03063 0.306323,0.116403 0.147035,0.07964 0.257311,0.2083 0.110276,0.128655 0.177667,0.281817 0.06739,0.147038 0.0919,0.318578 0.02451,0.16541 0.02451,0.33083 0,0.20217 -0.05514,0.39822 -0.04901,0.19604 -0.153162,0.37371 -0.104149,0.17154 -0.251184,0.31858 -0.147036,0.14091 -0.300197,0.26956 -0.153162,0.12866 -0.300197,0.26957 -0.147035,0.1409 -0.269564,0.30632 -0.116403,0.15929 -0.202173,0.34921 -0.07964,0.18379 -0.110276,0.38596 h 1.617385 v 0.58814 z m 4.233373,0.049 q -0.165415,0 -0.336956,-0.0306 -0.165414,-0.0306 -0.312449,-0.11027 -0.147035,-0.0797 -0.263438,-0.20218 -0.110276,-0.12865 -0.183794,-0.27569 -0.06739,-0.15316 -0.09802,-0.31857 -0.02451,-0.17154 -0.02451,-0.33696 v -2.05236 q 0,-0.16542 0.02451,-0.33083 0.03063,-0.17154 0.09802,-0.318578 0.07352,-0.153161 0.183794,-0.27569 0.116403,-0.128656 0.263438,-0.2083 0.147035,-0.07964 0.312449,-0.110276 0.171541,-0.03063 0.336956,-0.03063 0.165414,0 0.330829,0.03063 0.17154,0.03063 0.318575,0.110276 0.147035,0.07964 0.257312,0.2083 0.116402,0.122529 0.183794,0.27569 0.07352,0.147038 0.09802,0.318578 0.03063,0.16541 0.03063,0.33083 v 2.05236 q 0,0.16542 -0.03063,0.33696 -0.02451,0.16541 -0.09802,0.31857 -0.06739,0.14704 -0.183794,0.27569 -0.110277,0.12253 -0.257312,0.20218 -0.147035,0.0796 -0.318575,0.11027 -0.165415,0.0306 -0.330829,0.0306 z m -0.539129,-2.16877 1.078257,-0.85158 v -0.30632 q 0,-0.12253 -0.02451,-0.24506 -0.02451,-0.12253 -0.09802,-0.22668 -0.06739,-0.10415 -0.183794,-0.159288 -0.110276,-0.05514 -0.232805,-0.05514 -0.12253,0 -0.238932,0.05514 -0.110277,0.05514 -0.183794,0.159288 -0.06739,0.10415 -0.0919,0.22668 -0.02451,0.12253 -0.02451,0.24506 z m 0.539129,1.58062 q 0.122529,0 0.232805,-0.0551 0.116403,-0.0551 0.183794,-0.15929 0.07352,-0.10415 0.09802,-0.22668 0.02451,-0.12253 0.02451,-0.24506 v -1.1579 l -1.078257,0.85158 v 0.30632 q 0,0.12253 0.02451,0.24506 0.02451,0.12253 0.0919,0.22668 0.07352,0.10415 0.183794,0.15929 0.116402,0.0551 0.238932,0.0551 z m 2.90393,0.53913 v -3.871919 l -0.704543,0.563629 -0.336955,-0.36146 1.041498,-0.833195 h 0.686164 v 4.502945 z m 3.23476,0.049 q -0.153162,0 -0.306323,-0.0306 -0.147036,-0.0245 -0.281818,-0.098 -0.134782,-0.0735 -0.245058,-0.18379 -0.10415,-0.11028 -0.177667,-0.23894 -0.07352,-0.13478 -0.116403,-0.28181 -0.04288,-0.14704 -0.06126,-0.3002 v 0 h 0.686164 v 0.0122 q 0.01838,0.098 0.04901,0.19605 0.03676,0.0919 0.09802,0.17154 0.06126,0.0796 0.153161,0.12253 0.09802,0.0429 0.202174,0.0429 0.0919,0 0.183793,-0.0429 0.0919,-0.0429 0.153162,-0.1164 0.06126,-0.0797 0.0919,-0.17154 0.03676,-0.0919 0.05514,-0.1838 0.02451,-0.098 0.03063,-0.18992 0.01225,-0.098 0.01225,-0.19604 0,-0.098 -0.01225,-0.19605 -0.0061,-0.098 -0.02451,-0.18992 -0.01838,-0.0919 -0.05514,-0.1838 -0.03063,-0.0919 -0.0919,-0.16541 -0.05514,-0.0796 -0.147035,-0.12253 -0.08577,-0.0429 -0.183794,-0.0429 -0.09802,0 -0.196046,0.0429 -0.0919,0.0429 -0.153162,0.12253 -0.05514,0.0796 -0.08577,0.17767 -0.02451,0.098 -0.03063,0.20217 h -0.680037 v -2.707895 h 2.174894 v 0.58814 h -1.494857 v 1.059875 q 0.110277,-0.0429 0.22668,-0.0551 0.122529,-0.0184 0.238931,-0.0184 0.183794,0 0.361462,0.049 0.177667,0.0429 0.318576,0.14703 0.147035,0.10415 0.251184,0.25731 0.10415,0.15317 0.159288,0.32471 0.06126,0.17154 0.07964,0.3492 0.02451,0.17767 0.02451,0.36147 0,0.17766 -0.02451,0.36146 -0.01838,0.18379 -0.07964,0.35533 -0.06126,0.16542 -0.165414,0.31858 -0.10415,0.15316 -0.257311,0.25731 -0.147035,0.10415 -0.324703,0.14703 -0.177667,0.049 -0.355334,0.049 z"
       id="text40"
       style="font-weight:bold;font-size:6.12646px;line-height:1.25;font-family:Iosevka;-inkscape-font-specification:'Iosevka, Bold';fill:#000000;stroke-width:0.153162;fill-opacity:1"
       aria-label="2015" /><path
       d="m 54.220619,111.71976 v -4.50295 h 1.200786 q 0.171541,0 0.336955,0.0429 0.171541,0.0368 0.318576,0.12866 0.147035,0.0919 0.251185,0.23281 0.110276,0.13478 0.171541,0.29407 0.06126,0.15928 0.08577,0.33082 0.02451,0.17155 0.02451,0.34309 0,0.20217 -0.03676,0.40434 -0.03063,0.20218 -0.122529,0.38597 -0.0919,0.17767 -0.251185,0.31858 -0.153161,0.13478 -0.343081,0.20217 l 0.869957,1.81956 h -0.716796 l -0.839325,-1.7583 h -0.269564 v 1.7583 z m 0.680037,-2.34644 h 0.520749 q 0.08577,0 0.165414,-0.0306 0.08577,-0.0368 0.147035,-0.098 0.06126,-0.0613 0.09802,-0.14091 0.03676,-0.0858 0.05514,-0.16542 0.02451,-0.0858 0.03063,-0.17154 0.01225,-0.0919 0.01225,-0.17766 0,-0.0858 -0.01225,-0.17154 -0.0061,-0.0919 -0.03063,-0.17767 -0.01838,-0.0858 -0.05514,-0.16542 -0.03676,-0.0796 -0.09802,-0.14091 -0.06126,-0.0613 -0.147035,-0.0919 -0.07964,-0.0368 -0.165414,-0.0368 h -0.520749 z m 3.271518,2.39545 q -0.147035,0 -0.287944,-0.049 -0.140908,-0.049 -0.251185,-0.14704 -0.10415,-0.098 -0.171541,-0.22668 -0.06739,-0.13478 -0.110276,-0.27569 -0.03676,-0.14091 -0.05514,-0.28181 -0.01225,-0.14704 -0.01225,-0.29407 v -2.02174 h 0.680037 v 2.02174 q 0,0.0796 0.0061,0.15928 0.01225,0.0797 0.03063,0.15929 0.02451,0.0735 0.06126,0.14091 0.04289,0.0674 0.09802,0.12253 0.06126,0.0551 0.134782,0.0796 0.07964,0.0245 0.159288,0.0245 0.07964,0 0.153161,-0.0245 0.07964,-0.0245 0.134783,-0.0796 0.06126,-0.0551 0.09802,-0.12253 0.04288,-0.0674 0.06126,-0.14091 0.0245,-0.0796 0.03063,-0.15929 0.01225,-0.0796 0.01225,-0.15928 v -2.02174 h 0.680037 v 3.24703 h -0.680037 v -0.50237 q -0.04901,0.12253 -0.122529,0.22668 -0.07352,0.10415 -0.177668,0.18379 -0.09802,0.0735 -0.220552,0.10415 -0.12253,0.0368 -0.251185,0.0368 z m 3.332782,0 q -0.140908,0 -0.281817,-0.0184 -0.140908,-0.0184 -0.27569,-0.0674 -0.134783,-0.0551 -0.251185,-0.14091 -0.116403,-0.0858 -0.196047,-0.20217 -0.07964,-0.11641 -0.122529,-0.25731 -0.04289,-0.14091 -0.04289,-0.28182 h 0.680038 q 0.0061,0.0858 0.04288,0.16541 0.04289,0.0797 0.116403,0.12866 0.07352,0.049 0.159287,0.0674 0.08577,0.0184 0.171541,0.0184 0.0919,0 0.177668,-0.0184 0.08577,-0.0184 0.159288,-0.0613 0.07352,-0.049 0.116402,-0.12865 0.04901,-0.0797 0.04901,-0.16542 0,-0.098 -0.06739,-0.17766 -0.06126,-0.0797 -0.153161,-0.11641 -0.08577,-0.0367 -0.183794,-0.0613 -0.0919,-0.0245 -0.189921,-0.049 -0.0919,-0.0306 -0.183793,-0.0613 -0.0919,-0.0306 -0.183794,-0.0674 -0.08577,-0.0368 -0.171541,-0.0858 -0.07964,-0.0551 -0.159288,-0.1164 -0.07352,-0.0613 -0.134782,-0.13478 -0.05514,-0.0797 -0.09802,-0.16542 -0.04289,-0.0919 -0.06739,-0.18379 -0.01838,-0.098 -0.01838,-0.19605 0,-0.14091 0.03676,-0.27569 0.04288,-0.13478 0.116403,-0.25118 0.07964,-0.11641 0.18992,-0.20218 0.110276,-0.0919 0.238932,-0.14703 0.128655,-0.0551 0.269564,-0.0735 0.140909,-0.0184 0.281817,-0.0184 0.134782,0 0.269564,0.0184 0.140909,0.0184 0.269565,0.0735 0.128655,0.049 0.238932,0.13478 0.110276,0.0858 0.183793,0.20217 0.07964,0.11641 0.116403,0.25119 0.04288,0.13478 0.04288,0.27569 h -0.680037 q -0.0061,-0.0796 -0.04289,-0.15316 -0.03063,-0.0797 -0.09802,-0.12866 -0.06126,-0.049 -0.140909,-0.0674 -0.07964,-0.0184 -0.159288,-0.0184 -0.08577,0 -0.165414,0.0184 -0.07964,0.0184 -0.147035,0.0674 -0.06739,0.049 -0.10415,0.12866 -0.03676,0.0735 -0.03676,0.15929 0,0.098 0.06126,0.17766 0.06739,0.0797 0.153161,0.11641 0.0919,0.0367 0.183794,0.0613 0.09802,0.0245 0.18992,0.0551 0.0919,0.0245 0.183794,0.0551 0.0919,0.0245 0.183794,0.0674 0.0919,0.0368 0.171541,0.0858 0.08577,0.049 0.159288,0.1164 0.07352,0.0613 0.134782,0.14091 0.06127,0.0735 0.10415,0.15929 0.04288,0.0858 0.06126,0.18379 0.02451,0.098 0.02451,0.18992 0,0.14704 -0.04288,0.28795 -0.04288,0.13478 -0.128656,0.25731 -0.07964,0.1164 -0.196046,0.20217 -0.116403,0.0858 -0.251185,0.14091 -0.134782,0.049 -0.275691,0.0674 -0.140909,0.0184 -0.287944,0.0184 z m 3.455312,0 q -0.153161,0 -0.306323,-0.0368 -0.153161,-0.0368 -0.281817,-0.12866 -0.122529,-0.0919 -0.214426,-0.22055 -0.08577,-0.12865 -0.140908,-0.27569 -0.04901,-0.14703 -0.06739,-0.3002 -0.01838,-0.15928 -0.01838,-0.31244 v -1.4336 h -0.594267 v -0.58814 h 0.594267 v -1.25592 h 0.686164 v 1.25592 h 0.863831 v 0.58814 h -0.863831 v 1.4336 q 0,0.0735 0,0.14703 0.0061,0.0674 0.01838,0.14091 0.01225,0.0674 0.03063,0.13478 0.02451,0.0674 0.06127,0.12866 0.04288,0.0551 0.10415,0.098 0.06126,0.0368 0.128655,0.0368 0.0919,0 0.165415,-0.0551 0.07964,-0.0613 0.116403,-0.14703 0.03676,-0.0858 0.04901,-0.17767 0.01225,-0.0919 0.01225,-0.1838 0,-0.006 0,-0.0122 0,-0.0123 0,-0.0184 h 0.686164 q 0,0.0184 0,0.0368 0,0.0122 0,0.0245 0,0.14703 -0.03063,0.28794 -0.02451,0.14091 -0.07964,0.27569 -0.05514,0.12866 -0.153161,0.23893 -0.0919,0.11028 -0.214426,0.1838 -0.122529,0.0735 -0.263438,0.10415 -0.140909,0.0306 -0.287944,0.0306 z m 5.587308,-0.049 v -3.87193 l -0.704543,0.56364 -0.336955,-0.36146 1.041498,-0.8332 h 0.686164 v 4.50295 z m 3.222507,0.049 q -0.122529,0 -0.238932,-0.0368 -0.116402,-0.0368 -0.202173,-0.1164 -0.08577,-0.0858 -0.122529,-0.20218 -0.03063,-0.12253 -0.03063,-0.23893 0,-0.12253 0.03063,-0.23893 0.03676,-0.1164 0.122529,-0.20217 0.08577,-0.0858 0.202173,-0.12253 0.116403,-0.0368 0.238932,-0.0368 0.122529,0 0.238932,0.0368 0.116403,0.0368 0.202173,0.12253 0.08577,0.0858 0.116403,0.20217 0.03676,0.1164 0.03676,0.23893 0,0.1164 -0.03676,0.23893 -0.03063,0.11641 -0.116403,0.20218 -0.08577,0.0796 -0.202173,0.1164 -0.116403,0.0368 -0.238932,0.0368 z m 3.063217,0 q -0.165414,0 -0.336955,-0.0306 -0.165414,-0.0306 -0.312449,-0.11028 -0.147035,-0.0796 -0.263438,-0.20217 -0.110276,-0.12866 -0.183794,-0.27569 -0.06739,-0.15317 -0.09802,-0.31858 -0.02451,-0.17154 -0.02451,-0.33695 v -2.05237 q 0,-0.16541 0.02451,-0.33083 0.03063,-0.17154 0.09802,-0.31857 0.07352,-0.15317 0.183794,-0.27569 0.116403,-0.12866 0.263438,-0.2083 0.147035,-0.0797 0.312449,-0.11028 0.171541,-0.0306 0.336955,-0.0306 0.165415,0 0.330829,0.0306 0.171541,0.0306 0.318576,0.11028 0.147035,0.0796 0.257311,0.2083 0.116403,0.12252 0.183794,0.27569 0.07352,0.14703 0.09802,0.31857 0.03063,0.16542 0.03063,0.33083 v 2.05237 q 0,0.16541 -0.03063,0.33695 -0.02451,0.16541 -0.09802,0.31858 -0.06739,0.14703 -0.183794,0.27569 -0.110276,0.12253 -0.257311,0.20217 -0.147035,0.0796 -0.318576,0.11028 -0.165414,0.0306 -0.330829,0.0306 z M 76.294172,109.6 l 1.078257,-0.85158 v -0.30632 q 0,-0.12253 -0.02451,-0.24506 -0.02451,-0.12253 -0.09802,-0.22668 -0.06739,-0.10415 -0.183794,-0.15928 -0.110276,-0.0551 -0.232806,-0.0551 -0.122529,0 -0.238932,0.0551 -0.110276,0.0551 -0.183793,0.15928 -0.06739,0.10415 -0.0919,0.22668 -0.02451,0.12253 -0.02451,0.24506 z m 0.539128,1.58063 q 0.12253,0 0.232806,-0.0551 0.116403,-0.0551 0.183794,-0.15929 0.07352,-0.10415 0.09802,-0.22668 0.02451,-0.12253 0.02451,-0.24505 v -1.15791 l -1.078257,0.85158 v 0.30633 q 0,0.12252 0.02451,0.24505 0.02451,0.12253 0.0919,0.22668 0.07352,0.10415 0.183793,0.15929 0.116403,0.0551 0.238932,0.0551 z"
       id="text41"
       style="font-weight:bold;font-size:6.12646px;line-height:1.25;font-family:Iosevka;-inkscape-font-specification:'Iosevka, Bold';fill:#000000;stroke-width:0.153162;fill-opacity:1"
       aria-label="Rust 1.0" /><path
       d="m 107.66208,90.012482 v -3.914808 h -0.90059 v -0.58814 h 2.48735 v 0.58814 h -0.90059 v 3.914808 z m 3.4063,0.04901 q -0.16541,0 -0.33695,-0.03063 -0.16542,-0.03063 -0.31245,-0.110276 -0.14704,-0.07964 -0.26344,-0.202173 -0.11028,-0.128656 -0.18379,-0.275691 -0.0674,-0.153162 -0.098,-0.318576 -0.0245,-0.171541 -0.0245,-0.336955 v -0.79644 q 0,-0.165415 0.0245,-0.330829 0.0306,-0.171541 0.098,-0.318576 0.0735,-0.153161 0.18379,-0.275691 0.1164,-0.128655 0.26344,-0.208299 0.14703,-0.07964 0.31245,-0.110277 0.17154,-0.03063 0.33695,-0.03063 0.16542,0 0.33083,0.03063 0.17154,0.03063 0.31858,0.110277 0.14703,0.07964 0.25731,0.208299 0.1164,0.12253 0.18379,0.275691 0.0735,0.147035 0.098,0.318576 0.0306,0.165414 0.0306,0.330829 v 0.79644 q 0,0.165414 -0.0306,0.336955 -0.0245,0.165414 -0.098,0.318576 -0.0674,0.147035 -0.18379,0.275691 -0.11028,0.122529 -0.25731,0.202173 -0.14704,0.07964 -0.31858,0.110276 -0.16541,0.03063 -0.33083,0.03063 z m 0,-0.58814 q 0.12253,0 0.23281,-0.05514 0.1164,-0.05514 0.18379,-0.159288 0.0735,-0.10415 0.098,-0.226679 0.0245,-0.122529 0.0245,-0.245058 v -0.79644 q 0,-0.122529 -0.0245,-0.245059 -0.0245,-0.122529 -0.098,-0.226679 -0.0674,-0.104149 -0.18379,-0.159288 -0.11028,-0.05514 -0.23281,-0.05514 -0.12253,0 -0.23893,0.05514 -0.11028,0.05514 -0.18379,0.159288 -0.0674,0.10415 -0.0919,0.226679 -0.0245,0.12253 -0.0245,0.245059 v 0.79644 q 0,0.122529 0.0245,0.245058 0.0245,0.122529 0.0919,0.226679 0.0735,0.10415 0.18379,0.159288 0.1164,0.05514 0.23893,0.05514 z m 2.77528,0.58814 q -0.14704,0 -0.29407,-0.04901 -0.14091,-0.04289 -0.25731,-0.134782 -0.11028,-0.09802 -0.18992,-0.226679 -0.0735,-0.134783 -0.11641,-0.275691 -0.0429,-0.140909 -0.0613,-0.287944 -0.0122,-0.153161 -0.0122,-0.300196 v -0.79644 q 0,-0.147035 0.0122,-0.29407 0.0184,-0.153162 0.0613,-0.29407 0.0429,-0.140909 0.11641,-0.269565 0.0796,-0.134782 0.18992,-0.226679 0.1164,-0.09802 0.25731,-0.140908 0.14703,-0.04901 0.29407,-0.04901 0.12865,0 0.25118,0.03676 0.12253,0.03063 0.22668,0.110276 0.10415,0.07352 0.17767,0.177668 0.0735,0.104149 0.12253,0.226679 v -1.758294 h 0.68003 v 4.502948 h -0.68003 v -0.50237 q -0.049,0.122529 -0.12253,0.226679 -0.0735,0.10415 -0.17767,0.183794 -0.10415,0.07352 -0.22668,0.10415 -0.12253,0.03676 -0.25118,0.03676 z m 0.28181,-0.58814 q 0,0 0,0 0,0 0,0 0.0796,0 0.15317,-0.02451 0.0796,-0.02451 0.1409,-0.07352 0.0613,-0.05514 0.098,-0.122529 0.0429,-0.07352 0.0613,-0.147035 0.0245,-0.07964 0.0306,-0.159288 0.0123,-0.07964 0.0123,-0.159288 v -0.79644 q 0,-0.07964 -0.0123,-0.159288 -0.006,-0.07964 -0.0306,-0.153162 -0.0184,-0.07964 -0.0613,-0.147035 -0.0368,-0.07352 -0.098,-0.122529 -0.0613,-0.05514 -0.1409,-0.07964 -0.0735,-0.02451 -0.15317,-0.02451 -0.12253,0 -0.23893,0.06127 -0.11027,0.05514 -0.17767,0.159288 -0.0674,0.09802 -0.0919,0.220552 -0.0245,0.12253 -0.0245,0.245059 v 0.79644 q 0,0.122529 0.0245,0.245058 0.0245,0.122529 0.0919,0.226679 0.0674,0.09802 0.17767,0.159288 0.1164,0.05514 0.23893,0.05514 z m 2.69564,0.58814 q -0.12253,0 -0.24506,-0.02451 -0.11641,-0.02451 -0.22056,-0.08577 -0.098,-0.06127 -0.17766,-0.153161 -0.0735,-0.09802 -0.12253,-0.2083 -0.0429,-0.116403 -0.0613,-0.232806 -0.0184,-0.116402 -0.0184,-0.238931 0,-0.165415 0.0368,-0.324703 0.0368,-0.159288 0.13478,-0.287943 0.098,-0.134783 0.23281,-0.22668 0.13478,-0.0919 0.28794,-0.147035 0.15929,-0.05514 0.31858,-0.07352 0.16541,-0.01838 0.3247,-0.01838 h 0.37372 V 87.80083 q 0,-0.10415 -0.0306,-0.196047 -0.0306,-0.09802 -0.10415,-0.165415 -0.0674,-0.07352 -0.16541,-0.104149 -0.098,-0.03063 -0.20217,-0.03063 -0.0858,0 -0.17767,0.02451 -0.0858,0.01838 -0.15929,0.07352 -0.0735,0.05514 -0.1164,0.140908 -0.0368,0.08577 -0.0368,0.171541 h -0.68004 q 0,-0.140908 0.0368,-0.281817 0.0429,-0.140909 0.12253,-0.263438 0.0796,-0.122529 0.19605,-0.214426 0.1164,-0.0919 0.25118,-0.140908 0.13478,-0.05514 0.27569,-0.07352 0.14704,-0.02451 0.28795,-0.02451 0.15316,0 0.30632,0.02451 0.15316,0.01838 0.28794,0.07964 0.14091,0.06127 0.25731,0.165414 0.11641,0.09802 0.18992,0.232806 0.0797,0.128656 0.11028,0.281817 0.0306,0.147035 0.0306,0.300197 v 2.211652 h -0.68003 v -0.477864 q -0.0306,0.06126 -0.0429,0.07964 -0.006,0.01225 -0.0245,0.04288 -0.0184,0.02451 -0.0429,0.05514 -0.0184,0.02451 -0.0429,0.04901 -0.0184,0.02451 -0.0429,0.04901 -0.0245,0.0245 -0.049,0.04901 -0.0245,0.01838 -0.0551,0.03676 -0.0245,0.01838 -0.0551,0.03676 -0.0245,0.01838 -0.0551,0.03676 -0.0306,0.01225 -0.0613,0.02451 -0.0306,0.01225 -0.0674,0.01838 -0.0306,0.01225 -0.0613,0.01838 -0.0306,0.0061 -0.0674,0.01225 -0.0306,0.0061 -0.0674,0.0061 -0.0306,0.0061 -0.0674,0.0061 -0.0306,0.0061 -0.0613,0.0061 z m 0.27569,-0.58814 q 0.1164,0 0.22667,-0.03063 0.11641,-0.03676 0.19605,-0.116403 0.0858,-0.07964 0.12253,-0.18992 0.0429,-0.110276 0.0429,-0.226679 v -0.281817 h -0.37372 q -0.0735,0 -0.14703,0.0061 -0.0735,0.0061 -0.14704,0.02451 -0.0674,0.01838 -0.13478,0.04901 -0.0674,0.03063 -0.12253,0.07964 -0.049,0.04901 -0.0796,0.122529 -0.0245,0.06739 -0.0245,0.140908 0,0.08577 0.0306,0.171541 0.0306,0.08577 0.0919,0.147035 0.0613,0.05514 0.14703,0.07964 0.0858,0.02451 0.17155,0.02451 z m 2.45669,1.795053 q 0.0674,-0.220553 0.12866,-0.447232 0.0613,-0.220552 0.12253,-0.441105 l 0.11028,-0.410473 -0.90059,-3.204138 h 0.70454 l 0.55138,2.321928 0.52688,-2.321928 h 0.70454 l -1.24367,4.502948 z"
       id="text42"
       style="font-weight:bold;font-size:6.12646px;line-height:1.25;font-family:Iosevka;-inkscape-font-specification:'Iosevka, Bold';fill:#000000;stroke-width:0.153162;fill-opacity:1"
       aria-label="Today" /><path
       d="m 150.22299,71.011368 v -0.0061 q 0,-0.159288 0.006,-0.318576 0.006,-0.165414 0.0245,-0.318576 0.0245,-0.159287 0.0674,-0.312449 0.0429,-0.159288 0.11028,-0.300197 0.0674,-0.147035 0.15316,-0.281817 0.0919,-0.134782 0.19605,-0.251185 0.10415,-0.122529 0.22055,-0.226679 0.12253,-0.110276 0.25118,-0.208299 0.12866,-0.09802 0.25119,-0.202173 0.12253,-0.10415 0.21442,-0.232806 0.098,-0.128656 0.14091,-0.281817 0.049,-0.159288 0.049,-0.318576 0,-0.08577 -0.0122,-0.165414 -0.006,-0.07964 -0.0306,-0.159288 -0.0245,-0.07964 -0.0674,-0.147035 -0.0368,-0.07352 -0.098,-0.128656 -0.0613,-0.05514 -0.1409,-0.07964 -0.0796,-0.02451 -0.15929,-0.02451 -0.11028,0 -0.21443,0.04288 -0.10415,0.04289 -0.17154,0.128656 -0.0613,0.08577 -0.0919,0.196047 -0.0306,0.10415 -0.0306,0.214426 0,0 0,0 0,0 0,0.0061 h -0.68004 q 0,-0.0061 0,-0.0061 0,0 0,-0.0061 0,-0.153161 0.0306,-0.306323 0.0368,-0.159288 0.11027,-0.29407 0.0735,-0.140908 0.1838,-0.251185 0.1164,-0.116402 0.25118,-0.183793 0.14091,-0.07352 0.29407,-0.09802 0.15929,-0.03063 0.31858,-0.03063 0.16541,0 0.33083,0.03676 0.16541,0.03063 0.30632,0.116402 0.14703,0.07964 0.25731,0.2083 0.11028,0.128656 0.17767,0.281817 0.0674,0.147035 0.0919,0.318576 0.0245,0.165415 0.0245,0.330829 0,0.202173 -0.0551,0.39822 -0.049,0.196047 -0.15316,0.373714 -0.10415,0.171541 -0.25118,0.318576 -0.14704,0.140909 -0.3002,0.269564 -0.15316,0.128656 -0.3002,0.269564 -0.14703,0.140909 -0.26956,0.306323 -0.1164,0.159288 -0.20217,0.349209 -0.0796,0.183793 -0.11028,0.385967 h 1.61739 v 0.58814 z m 4.23337,0.04901 q -0.16541,0 -0.33696,-0.03063 -0.16541,-0.03063 -0.31244,-0.110276 -0.14704,-0.07964 -0.26344,-0.202173 -0.11028,-0.128656 -0.1838,-0.275691 -0.0674,-0.153161 -0.098,-0.318576 -0.0245,-0.171541 -0.0245,-0.336955 v -2.052364 q 0,-0.165415 0.0245,-0.330829 0.0306,-0.171541 0.098,-0.318576 0.0735,-0.153162 0.1838,-0.275691 0.1164,-0.128655 0.26344,-0.208299 0.14703,-0.07964 0.31244,-0.110277 0.17155,-0.03063 0.33696,-0.03063 0.16541,0 0.33083,0.03063 0.17154,0.03063 0.31857,0.110277 0.14704,0.07964 0.25732,0.208299 0.1164,0.122529 0.18379,0.275691 0.0735,0.147035 0.098,0.318576 0.0306,0.165414 0.0306,0.330829 v 2.052364 q 0,0.165414 -0.0306,0.336955 -0.0245,0.165415 -0.098,0.318576 -0.0674,0.147035 -0.18379,0.275691 -0.11028,0.122529 -0.25732,0.202173 -0.14703,0.07964 -0.31857,0.110276 -0.16542,0.03063 -0.33083,0.03063 z m -0.53913,-2.168766 1.07826,-0.851578 v -0.306323 q 0,-0.12253 -0.0245,-0.245059 -0.0245,-0.122529 -0.098,-0.226679 -0.0674,-0.10415 -0.18379,-0.159288 -0.11028,-0.05514 -0.23281,-0.05514 -0.12253,0 -0.23893,0.05514 -0.11028,0.05514 -0.1838,0.159288 -0.0674,0.10415 -0.0919,0.226679 -0.0245,0.122529 -0.0245,0.245059 z m 0.53913,1.580626 q 0.12253,0 0.23281,-0.05514 0.1164,-0.05514 0.18379,-0.159288 0.0735,-0.10415 0.098,-0.226679 0.0245,-0.122529 0.0245,-0.245058 v -1.157901 l -1.07826,0.851578 v 0.306323 q 0,0.122529 0.0245,0.245058 0.0245,0.122529 0.0919,0.226679 0.0735,0.10415 0.1838,0.159288 0.1164,0.05514 0.23893,0.05514 z m 3.07547,0.58814 q -0.15929,0 -0.3247,-0.03063 -0.15929,-0.02451 -0.30632,-0.0919 -0.14091,-0.07352 -0.26344,-0.183794 -0.1164,-0.116402 -0.19605,-0.257311 -0.0796,-0.147035 -0.1164,-0.306323 -0.0368,-0.159288 -0.0368,-0.318576 h 0.68004 q 0,0.116403 0.0368,0.232806 0.0367,0.110276 0.11027,0.202173 0.0797,0.08577 0.18992,0.128656 0.11028,0.03676 0.22668,0.03676 0.12866,0 0.24506,-0.04901 0.1164,-0.05514 0.18992,-0.153162 0.0735,-0.10415 0.10415,-0.226679 0.0368,-0.122529 0.0368,-0.245058 0,-0.122529 -0.0368,-0.245059 -0.0368,-0.122529 -0.11028,-0.220552 -0.0674,-0.10415 -0.17154,-0.171541 -0.10415,-0.07352 -0.22055,-0.110276 -0.1164,-0.03676 -0.24506,-0.04289 -0.12253,-0.01225 -0.24506,-0.01225 v -0.58814 q 0.11028,0 0.22668,-0.0061 0.1164,-0.01225 0.22055,-0.04901 0.11028,-0.03676 0.20218,-0.10415 0.0919,-0.06739 0.15316,-0.159288 0.0674,-0.0919 0.098,-0.202173 0.0306,-0.116403 0.0306,-0.226679 0,-0.110276 -0.0245,-0.214426 -0.0245,-0.110276 -0.0858,-0.202173 -0.0551,-0.0919 -0.15929,-0.140909 -0.098,-0.05514 -0.20217,-0.05514 -0.10415,0 -0.20218,0.04901 -0.098,0.04288 -0.15928,0.128655 -0.0551,0.08577 -0.0858,0.189921 -0.0245,0.10415 -0.0245,0.208299 0,0 0,0 0,0 0,0.0061 h -0.68004 q 0,-0.0061 0,-0.0061 0,-0.0061 0,-0.0061 0,-0.153162 0.0306,-0.306323 0.0368,-0.153162 0.10415,-0.287944 0.0674,-0.140908 0.17766,-0.251185 0.11028,-0.110276 0.24506,-0.183793 0.13478,-0.07352 0.28794,-0.09802 0.15317,-0.03063 0.30633,-0.03063 0.15316,0 0.30632,0.03063 0.15929,0.03063 0.29407,0.110277 0.13478,0.07352 0.23893,0.18992 0.11028,0.116403 0.17767,0.257311 0.0674,0.140909 0.098,0.29407 0.0368,0.153162 0.0368,0.31245 0,0.159288 -0.0429,0.318576 -0.0368,0.159288 -0.12253,0.29407 -0.0858,0.134782 -0.2083,0.245058 -0.12253,0.110276 -0.26957,0.177667 0.16542,0.06739 0.30633,0.183794 0.14091,0.110277 0.23893,0.257312 0.098,0.147035 0.14703,0.324702 0.049,0.171541 0.049,0.349208 0,0.165415 -0.0368,0.330829 -0.0368,0.165414 -0.11641,0.318576 -0.0735,0.147035 -0.18992,0.269564 -0.1164,0.116403 -0.26343,0.196047 -0.14704,0.07964 -0.31245,0.110276 -0.16542,0.03063 -0.33696,0.03063 z m 3.05097,0 q -0.16542,0 -0.33696,-0.03063 -0.16541,-0.03063 -0.31245,-0.110276 -0.14703,-0.07964 -0.26344,-0.202173 -0.11027,-0.128656 -0.18379,-0.275691 -0.0674,-0.153161 -0.098,-0.318576 -0.0245,-0.171541 -0.0245,-0.336955 v -2.052364 q 0,-0.165415 0.0245,-0.330829 0.0306,-0.171541 0.098,-0.318576 0.0735,-0.153162 0.18379,-0.275691 0.11641,-0.128655 0.26344,-0.208299 0.14704,-0.07964 0.31245,-0.110277 0.17154,-0.03063 0.33696,-0.03063 0.16541,0 0.33083,0.03063 0.17154,0.03063 0.31857,0.110277 0.14704,0.07964 0.25731,0.208299 0.11641,0.122529 0.1838,0.275691 0.0735,0.147035 0.098,0.318576 0.0306,0.165414 0.0306,0.330829 v 2.052364 q 0,0.165414 -0.0306,0.336955 -0.0245,0.165415 -0.098,0.318576 -0.0674,0.147035 -0.1838,0.275691 -0.11027,0.122529 -0.25731,0.202173 -0.14703,0.07964 -0.31857,0.110276 -0.16542,0.03063 -0.33083,0.03063 z m -0.53913,-2.168766 1.07826,-0.851578 v -0.306323 q 0,-0.12253 -0.0245,-0.245059 -0.0245,-0.122529 -0.098,-0.226679 -0.0674,-0.10415 -0.1838,-0.159288 -0.11027,-0.05514 -0.2328,-0.05514 -0.12253,0 -0.23894,0.05514 -0.11027,0.05514 -0.18379,0.159288 -0.0674,0.10415 -0.0919,0.226679 -0.0245,0.122529 -0.0245,0.245059 z m 0.53913,1.580626 q 0.12253,0 0.2328,-0.05514 0.11641,-0.05514 0.1838,-0.159288 0.0735,-0.10415 0.098,-0.226679 0.0245,-0.122529 0.0245,-0.245058 v -1.157901 l -1.07826,0.851578 v 0.306323 q 0,0.122529 0.0245,0.245058 0.0245,0.122529 0.0919,0.226679 0.0735,0.10415 0.18379,0.159288 0.11641,0.05514 0.23894,0.05514 z"
       id="text43"
       style="font-weight:bold;font-size:6.12646px;line-height:1.25;font-family:Iosevka;-inkscape-font-specification:'Iosevka, Bold';fill:#000000;stroke-width:0.153162;fill-opacity:1"
       aria-label="2030" /><circle
       style="fill:#f8aa18;fill-opacity:1;stroke:#0b1b31;stroke-width:1.5;stroke-linecap:round;stroke-miterlimit:1000;stroke-dasharray:none;stroke-opacity:1;paint-order:fill markers stroke"
       id="circle39"
       cx="66.136543"
       cy="90.39801"
       r="4.3847241" /><circle
       style="fill:#f8aa18;fill-opacity:1;stroke:#0b1b31;stroke-width:1.5;stroke-linecap:round;stroke-miterlimit:1000;stroke-dasharray:none;stroke-opacity:1;paint-order:fill markers stroke"
       id="circle42"
       cx="114.1316"
       cy="76.639587"
       r="4.3847241" /><circle
       style="fill:#f8aa18;fill-opacity:1;stroke:#0b1b31;stroke-width:1.5;stroke-linecap:round;stroke-miterlimit:1000;stroke-dasharray:none;stroke-opacity:1;paint-order:fill markers stroke"
       id="circle43"
       cx="156.00635"
       cy="56.960377"
       r="4.3847241" /><circle
       style="fill:#f8aa18;fill-opacity:1;stroke:#0b1b31;stroke-width:1.5;stroke-linecap:round;stroke-miterlimit:1000;stroke-dasharray:none;stroke-opacity:1;paint-order:fill markers stroke"
       id="circle45"
       cx="195.64569"
       cy="27.856005"
       r="4.3847241" /><circle
       style="fill:#f8aa18;fill-opacity:1;stroke:#0b1b31;stroke-width:1.5;stroke-linecap:round;stroke-miterlimit:1000;stroke-dasharray:none;stroke-opacity:1;paint-order:fill markers stroke"
       id="circle37"
       cx="18.064909"
       cy="96.748009"
       r="4.3847241" /></g></svg>
