<?xml version="1.0" encoding="UTF-8" standalone="no"?><svg xmlns="http://www.w3.org/2000/svg" xmlns:xlink="http://www.w3.org/1999/xlink" xml:space="preserve" viewBox="0 0 210.1269 128.2642"><defs><linearGradient id="a"><stop offset="0" stop-color="#fde1ae" stop-opacity="0"/><stop offset="1" stop-color="#fde1ae"/></linearGradient><linearGradient xlink:href="#a" id="b" x1="17.6419" x2="66.4317" y1="93.7048" y2="93.1739" gradientUnits="userSpaceOnUse"/></defs><g transform="translate(1.1317 1.1317)"><path fill="url(#b)" d="m17.1674 96.9625-.322 26.139h179.1349l-.0001-96.5537c-22.4009 21.842-63.7266 61.3678-178.8128 70.4147Z" opacity=".4687"/><path fill="none" d="M16.9019 96.166h179.0783V26.5478C125.5832 86.1484 70.8528 92.4822 16.9019 96.166Z"/><path d="m125.1915 37.5218-1.8369-1.1373a21.8168 21.8168 0 0 0-.0463-.495l1.576-1.4732a.6187.6187 0 0 0-.2055-1.0313l-2.0203-.7576c-.0455-.1583-.091-.3182-.1406-.4748l1.2627-1.7535a.6187.6187 0 0 0-.4032-.9715l-2.14-.3493c-.0756-.1457-.1506-.2905-.2297-.4336l.899-1.9715a.6187.6187 0 0 0-.585-.8747l-2.1736.0766q-.1507-.1869-.304-.3704l.495-2.118a.6196.6196 0 0 0-.7441-.7442l-2.118.4992q-.1827-.154-.3704-.3039l.0766-2.1736a.6187.6187 0 0 0-.8747-.5892l-1.9715.9032a17.969 17.969 0 0 0-.4335-.2298l-.3494-2.14a.6187.6187 0 0 0-.9715-.4031l-1.756 1.2602a17.554 17.554 0 0 0-.4748-.1406l-.7576-2.0204a.6187.6187 0 0 0-1.0312-.2054l-1.4732 1.5759c-.1642-.0177-.3292-.0319-.495-.0463l-1.1348-1.8386a.6187.6187 0 0 0-1.0523 0l-1.1372 1.837a21.818 21.818 0 0 0-.495.0462l-1.4732-1.5759a.6187.6187 0 0 0-1.0313.2054l-.7576 2.0204c-.1591.0463-.319.0909-.4765.1414l-1.7526-1.2627a.6187.6187 0 0 0-.9715.4032l-.3494 2.1391c-.1456.0757-.2904.1507-.4343.2298l-1.9699-.8948a.6187.6187 0 0 0-.8746.5892l.0774 2.1728c-.1255.1002-.2526.2012-.3721.3039l-2.1172-.5026a.6196.6196 0 0 0-.7442.7442l.4992 2.118c-.1035.122-.2045.2467-.3047.3713l-2.1728-.0766a.6246.6246 0 0 0-.5362.2744.6187.6187 0 0 0-.048.6002l.8974 1.9707c-.0791.1431-.154.2888-.2298.4344l-2.1391.3485a.6187.6187 0 0 0-.4033.9715l1.2628 1.7527c-.0496.1574-.0951.3173-.1414.4764l-2.0204.7577a.6187.6187 0 0 0-.2054 1.0312l1.5759 1.4732c-.0177.1642-.032.3292-.0463.495l-1.8403 1.1365a.6187.6187 0 0 0 0 1.0522l1.8369 1.1373c.0143.1684.0286.33.0463.4942l-1.576 1.4732a.6187.6187 0 0 0 .2055 1.0312l2.0204.7577c.0463.159.0909.3182.1414.4756l-1.2627 1.7535a.6187.6187 0 0 0 .4032.9715l2.14.3493c.0756.1448.1506.2905.2297.4327l-.8948 1.9724a.6187.6187 0 0 0 .048.6003.6002.6002 0 0 0 .5362.2744l2.1744-.0766q.149.1869.303.3704l-.4991 2.118a.6196.6196 0 0 0 .7442.7442l2.118-.4992q.1835.154.3712.3039l-.0774 2.1736a.6187.6187 0 0 0 .8747.585l1.9724-.899c.1422.079.2879.154.4327.2298l.3493 2.14a.6179.6179 0 0 0 .9715.4023l1.7535-1.2627c.1566.0505.3165.095.4756.1414l.7577 2.0204a.6196.6196 0 0 0 1.0312.2054l1.4732-1.576c.1642.0178.33.032.495.0464l1.1373 1.8368a.6187.6187 0 0 0 1.0523 0l1.1373-1.8368c.1683-.0144.3308-.0286.495-.0472l1.4731 1.5767a.6196.6196 0 0 0 1.0313-.2054l.7576-2.0204c.1591-.0463.3182-.091.4756-.1414l1.7527 1.2627a.6179.6179 0 0 0 .9715-.4023l.3493-2.14c.1448-.0757.2905-.1506.4336-.2298l1.9715.8991a.6187.6187 0 0 0 .8747-.585l-.0766-2.1737q.1869-.1507.3704-.3039l2.1172.4992a.6196.6196 0 0 0 .7441-.7441l-.4992-2.118q.154-.1827.304-.3705l2.1735.0766a.6086.6086 0 0 0 .5362-.2744.6187.6187 0 0 0 .0488-.6002l-.899-1.9716c.0792-.143.154-.2887.2298-.4335l2.1399-.3494a.6187.6187 0 0 0 .4032-.9714l-1.2627-1.7536c.0496-.1574.095-.3165.1406-.4756l2.0203-.7576a.6187.6187 0 0 0 .2054-1.0313l-1.5759-1.4732c.0177-.1641.032-.3291.0463-.4941l1.8369-1.1373a.6187.6187 0 0 0 0-1.0523zM112.48 48.388a1.171 1.171 0 0 0-1.3907.8991l-.6431 3.0028a15.785 15.785 0 0 1-13.1627-.0623l-.6432-3.002a1.1676 1.1676 0 0 0-1.3856-.899l-2.6526.569a15.7741 15.7741 0 0 1-1.3688-1.617h12.8942c.1448 0 .2433-.0245.2433-.1609V42.556c0-.1322-.0985-.1608-.2433-.1608h-3.7739l.004-2.8917h4.0812c.3712 0 1.9917.1078 2.5078 2.1778.1607.6356.5194 2.7056.7626 3.3673.2433.7425 1.2291 2.2275 2.2814 2.2275h6.6546a15.7674 15.7674 0 0 1-1.4598 1.6912zm2.1694 2.9035a1.283 1.283 0 1 1-1.2871-1.283h.037a1.2821 1.2821 0 0 1 1.2459 1.283zm-18.9932-.0573a1.283 1.283 0 1 1-1.2837-1.2838h.0379a1.2838 1.2838 0 0 1 1.2417 1.2838zm-7.4164-15.0257 2.7637-1.2291a1.1685 1.1685 0 0 0 .5943-1.543l-.57-1.2813h2.236v10.0792h-4.5122a15.7968 15.7968 0 0 1-.5118-6.0258zm-.948-3.0357a1.283 1.283 0 0 1 1.2822-1.2837h.0388a1.283 1.283 0 1 1-1.3192 1.283zm13.0618 2.0617.004-2.9733h5.3254c.2761 0 1.942.3173 1.942 1.5674 0 1.0346-1.2787 1.4059-2.33 1.4059zm15.6183 7.0822c-.825.0951-1.7367-.3468-1.852-.8494-.4866-2.735-1.2956-3.3167-2.5734-4.327 1.5876-1.006 3.2376-2.4951 3.2376-4.4835 0-2.1483-1.4723-3.5011-2.475-4.1653-1.4108-.926-2.9699-1.1138-3.39-1.1138H92.1753a15.7834 15.7834 0 0 1 8.8299-4.9827l1.9757 2.0709a1.1634 1.1634 0 0 0 1.65.037l2.2106-2.1045a15.785 15.785 0 0 1 10.8065 7.6968l-1.5153 3.4153a1.1786 1.1786 0 0 0 .5969 1.543l2.9118 1.2906a15.7522 15.7522 0 0 1 .0336 2.7393h-1.623c-.1608 0-.2265.1069-.2265.2634v.7425c-.001 1.7468-.9857 2.1324-1.8537 2.2275zm-13.385-20.751a1.283 1.283 0 0 1 1.2805-1.2803h.038a1.283 1.283 0 1 1-1.3183 1.2804zm16.5704 12.9465a1.283 1.283 0 1 1 0-2.5659h.0371a1.283 1.283 0 0 1-.037 2.5659z"/><path d="M12.2815 110.17v-.006q0-.1594.0061-.3187.0061-.1654.0245-.3185.0246-.1593.0674-.3125.043-.1593.1103-.3002.0674-.147.1532-.2818.0919-.1348.196-.2512.1042-.1225.2206-.2267.1225-.1102.2512-.2083.1286-.098.2511-.2021.1226-.1042.2145-.2328.098-.1287.1409-.2819.049-.1592.049-.3185 0-.0858-.0123-.1654-.006-.0797-.0306-.1593-.0245-.0797-.0674-.147-.0367-.0736-.098-.1287-.0613-.0551-.141-.0796-.0796-.0245-.1592-.0245-.1103 0-.2144.0429-.1042.0429-.1716.1286-.0612.0858-.0919.196-.0306.1042-.0306.2145v.006h-.68v-.012q0-.1532.0306-.3063.0368-.1593.1103-.294.0735-.141.1838-.2513.1164-.1164.2512-.1838.1409-.0735.294-.098.1593-.0306.3186-.0306.1654 0 .3308.0368.1654.0306.3064.1164.147.0796.2573.2083.1102.1287.1776.2819.0674.147.092.3185.0244.1654.0244.3308 0 .2022-.0551.3983-.049.196-.1532.3737-.1041.1715-.2511.3186-.147.1409-.3002.2695-.1532.1287-.3002.2696-.147.1409-.2696.3063-.1164.1593-.2022.3492-.0796.1838-.1103.386h1.6174v.5881zm4.2334.049q-.1654 0-.337-.0307-.1654-.0306-.3124-.1103-.147-.0796-.2634-.2021-.1103-.1287-.1838-.2757-.0674-.1532-.098-.3186-.0245-.1715-.0245-.337v-2.0523q0-.1654.0245-.3309.0306-.1715.098-.3185.0735-.1532.1838-.2757.1164-.1287.2634-.2083.147-.0797.3125-.1103.1715-.0306.337-.0306.1653 0 .3307.0306.1716.0306.3186.1103.147.0796.2573.2083.1164.1225.1838.2757.0735.147.098.3185.0307.1655.0307.3309v2.0523q0 .1654-.0307.337-.0245.1654-.098.3186-.0674.147-.1838.2757-.1102.1225-.2573.2021-.147.0796-.3186.1103-.1654.0306-.3308.0306zm-.5391-2.1689 1.0782-.8515v-.3064q0-.1225-.0245-.245t-.098-.2267q-.0674-.1041-.1838-.1593-.1103-.055-.2328-.055-.1225 0-.239.055-.1102.0551-.1837.1593-.0674.1042-.092.2267-.0244.1225-.0244.245zm.5391 1.5807q.1225 0 .2328-.0551.1164-.0551.1838-.1593.0735-.1042.098-.2267.0245-.1225.0245-.245v-1.158l-1.0782.8516v.3063q0 .1226.0245.2451.0245.1225.0919.2267.0735.1041.1838.1593.1164.055.239.055zm3.0632.5881q-.1654 0-.337-.0306-.1653-.0306-.3124-.1103-.147-.0796-.2634-.2021-.1103-.1287-.1838-.2757-.0674-.1532-.098-.3186-.0245-.1715-.0245-.337v-2.0523q0-.1654.0245-.3309.0306-.1715.098-.3185.0735-.1532.1838-.2757.1164-.1287.2634-.2083.147-.0797.3125-.1103.1715-.0306.337-.0306.1654 0 .3308.0306.1715.0306.3185.1103.147.0796.2574.2083.1164.1225.1837.2757.0736.147.098.3185.0307.1655.0307.3309v2.0523q0 .1654-.0306.337-.0245.1654-.098.3186-.0674.147-.1838.2757-.1103.1225-.2574.2021-.147.0796-.3185.1103-.1654.0306-.3309.0306zm-.539-2.1688 1.0782-.8515v-.3064q0-.1225-.0245-.245-.0246-.1225-.098-.2267-.0675-.1041-.1839-.1593-.1102-.055-.2328-.055-.1225 0-.2389.055-.1103.0551-.1838.1593-.0674.1042-.0919.2267-.0245.1225-.0245.245zm.539 1.5807q.1226 0 .2328-.0551.1164-.0551.1838-.1593.0736-.1042.098-.2267.0246-.1225.0246-.245v-1.158l-1.0783.8516v.3063q0 .1226.0245.2451.0245.1225.092.2267.0734.1041.1837.1593.1164.055.239.055zm3.0633.5881q-.19 0-.3799-.055-.1838-.0552-.3308-.1716-.147-.1226-.2512-.2818-.098-.1655-.1593-.3493-.0551-.1837-.0796-.3737-.0184-.1899-.0184-.3798 0-.239.0429-.4779.049-.239.1286-.4656.0858-.2267.19-.441.1041-.2206.2082-.435l.5392-1.1212h.7413l-.6678 1.3784q-.0368.0797-.0796.1655l-.0858.1592q.0551-.0122.1103-.0122.0551-.006.1102-.006.1777 0 .3492.043.1777.0428.3186.147.147.098.2512.245.1103.141.1715.3064.0613.1654.0858.343.0245.1716.0245.3493 0 .1776-.0245.3553t-.0919.343q-.0613.1655-.1715.3125-.1042.141-.2512.245-.147.098-.3247.1349-.1777.0429-.3553.0429zm0-.5881q.0919 0 .1776-.0368.092-.0368.1532-.1042.0674-.0674.1041-.1531.043-.092.0613-.1777.0245-.092.0306-.1838.0123-.098.0123-.19 0-.0918-.0123-.1837-.006-.098-.0306-.19-.0184-.0918-.0613-.1776-.0367-.0858-.098-.1532-.0612-.0674-.1531-.1041-.0858-.0367-.1777-.0367-.098 0-.19.0367-.0857.0368-.147.1041-.0612.0674-.1041.1532-.043.0858-.0674.1777-.0184.0919-.0245.1899-.0061.0919-.0061.1838t.006.1899q.0062.0919.0246.1838.0245.0858.0613.1777.0428.0858.1041.1531.0674.0674.1532.1042.0919.0368.1838.0368z" aria-label="2006" font-family="Iosevka" font-size="6.1265" font-weight="700" style="line-height:1.25;-inkscape-font-specification:&quot;Iosevka, Bold&quot;"/><path d="M11.8435 117.5582q-.1593 0-.3186-.0306-.1593-.0245-.3063-.0919-.1409-.0674-.2573-.1777-.1164-.1164-.196-.2512-.0736-.1408-.1103-.294-.0368-.1593-.0368-.3186v-.012h.68v.006q0 .1103.0307.2206.0367.1102.1103.196.0735.0858.1776.1287.1103.0367.2267.0367.1164 0 .2267-.043.1103-.049.1777-.1408.0735-.098.1041-.2145.0368-.1164.0368-.2328 0-.147-.0613-.2818t-.1715-.2328q-.1042-.1041-.239-.1715-.1286-.0674-.2634-.1348-.1287-.0674-.2512-.147-.1225-.0798-.2328-.1716-.1103-.098-.2083-.2083-.0919-.1164-.1593-.245-.0613-.1348-.0919-.2757-.0306-.147-.0306-.2941 0-.1593.0306-.3186.0368-.1593.1042-.3002.0735-.147.1776-.2634.1103-.1225.2512-.196.141-.0797.294-.1103.1594-.0306.3187-.0306t.3124.0306q.1593.0245.294.098.141.0735.2513.1899.1102.1103.1776.2512.0736.1348.1042.294.0367.1532.0367.3064v.006h-.68q0-.1103-.0306-.2145-.0245-.1102-.092-.196-.0612-.0858-.1653-.1287-.098-.049-.2083-.049-.1103 0-.2145.0551-.1041.049-.1654.141-.0612.0919-.0919.2083-.0245.1102-.0245.2205 0 .147.0613.288.0612.1347.1654.2389.1103.098.239.1654l.2572.1348q.1348.0674.2573.147.1287.0735.239.1716.1103.098.2021.2144.092.1103.1532.245.0674.1287.098.2757.0368.141.0368.288 0 .1654-.0368.3247-.0367.1593-.1102.3063-.0736.1409-.19.2634-.1164.1164-.2634.19-.141.0734-.3063.1041-.1593.0306-.3186.0306zm3.4492 0q-.1532 0-.3063-.0368-.1532-.0368-.2818-.1286-.1226-.092-.2145-.2206-.0857-.1287-.1409-.2757-.049-.147-.0674-.3002-.0183-.1593-.0183-.3124v-1.4336h-.5943v-.5882h.5943v-1.2559h.6861v1.256h.8638v.588h-.8638v1.5807q.0061.0674.0184.141.0122.0673.0306.1347.0245.0674.0613.1286.0429.0551.1041.098.0613.0367.1287.0367.0919 0 .1654-.055.0796-.0614.1164-.1471.0368-.0858.049-.1777.0123-.0919.0123-.1838V116.3757h.6861v.0613q0 .147-.0306.288-.0245.1409-.0796.2757-.0552.1286-.1532.239-.0919.1102-.2144.1837-.1226.0735-.2635.1041-.1409.0306-.2879.0306zm2.3097 0q-.1226 0-.2451-.0245-.1164-.0245-.2205-.0858-.098-.0613-.1777-.1532-.0735-.098-.1225-.2083-.043-.1164-.0613-.2328-.0184-.1164-.0184-.2389 0-.1654.0368-.3247.0367-.1593.1348-.288.098-.1347.2328-.2266.1347-.092.288-.147.1592-.0552.3185-.0736.1654-.0183.3247-.0183h.3737v-.239q0-.1041-.0306-.196-.0307-.098-.1042-.1654-.0674-.0735-.1654-.1042-.098-.0306-.2022-.0306-.0857 0-.1776.0245-.0858.0184-.1593.0735-.0735.0551-.1164.141-.0368.0857-.0368.1715h-.68q0-.141.0367-.2819.043-.1409.1226-.2634.0796-.1225.196-.2144.1164-.092.2512-.141.1348-.055.2757-.0734.147-.0245.288-.0245.153 0 .3063.0245.1531.0184.2879.0797.141.0613.2573.1654.1164.098.19.2328.0796.1286.1102.2818.0306.147.0306.3002v2.2117h-.68v-.478q-.0306.0614-.0429.0797-.006.0123-.0245.0429-.0184.0245-.0429.055-.0184.0246-.0429.049-.0183.0246-.0429.049l-.049.049q-.0245.0185-.0551.0369-.0245.0184-.0551.0368-.0246.0184-.0552.0368l-.0612.0245q-.0307.0123-.0674.0184-.0307.0123-.0613.0184-.0306.006-.0674.0123-.0306.006-.0674.006-.0306.006-.0674.006-.0306.006-.0612.006zm.2757-.5881q.1164 0 .2266-.0306.1164-.0368.196-.1164.0858-.0796.1226-.19.0429-.1102.0429-.2266v-.2819h-.3737q-.0735 0-.147.006-.0736.006-.1471.0245-.0674.0184-.1348.049-.0674.0306-.1225.0796-.049.049-.0796.1226-.0246.0674-.0246.1409 0 .0858.0307.1715.0306.0858.0919.147.0612.0552.147.0797.0858.0245.1715.0245zm2.3341.539v-3.247h.6862v.7046q.0367-.1409.0919-.2696.0551-.1347.147-.245.092-.1103.2206-.1716.1348-.0673.2757-.0673.1164 0 .2266.0367.1164.0369.196.1165.0859.0795.1349.1837.0551.1042.0857.2206.0307.1103.0368.2267.0123.1164.0123.2328h-.6862q0-.0735-.0123-.147-.006-.0736-.0367-.1348-.0307-.0674-.098-.1042-.0613-.0429-.1348-.0429-.098 0-.1838.0613-.0797.0613-.1287.147-.049.0859-.0796.1838-.0245.098-.043.196-.0183.098-.0244.2023v1.9175zm4.2702.049q-.1532 0-.3064-.0367-.1531-.0368-.2818-.1287-.1225-.0919-.2144-.2205-.0858-.1287-.141-.2757-.049-.147-.0673-.3002-.0184-.1593-.0184-.3125v-1.4335h-.5943v-.5882h.5943v-1.256h.6862v1.256h.8638v.5882h-.8638v1.5805q.006.0675.0184.141.0122.0674.0306.1348.0245.0674.0612.1286.043.0551.1042.098.0613.0367.1286.0367.092 0 .1655-.055.0796-.0614.1164-.1471.0367-.0858.049-.1777.0122-.0919.0122-.1838V116.3757h.6862v.0613q0 .147-.0306.288-.0246.1409-.0797.2757-.0551.1286-.1531.2389-.092.1103-.2145.1838t-.2634.1041q-.141.0306-.288.0306z" aria-label="Start" font-family="Iosevka" font-size="6.1265" font-weight="700" style="line-height:1.25;-inkscape-font-specification:&quot;Iosevka, Bold&quot;"/><path d="M196.4087 15.3695h-1.4992q0-.3079.0134-.6024.0268-.3078.0937-.589.0803-.2944.2008-.5622.1204-.281.2944-.522.174-.2544.3749-.4685.2141-.2276.4015-.4552.1875-.2275.308-.5086.1338-.2812.1338-.5757 0-.2275-.067-.4417-.0668-.2276-.214-.3882-.1473-.174-.3615-.2543-.2142-.0804-.4418-.0804-.2275 0-.4417.0804-.2008.0669-.348.241-.1473.1605-.2276.3747-.067.2142-.067.4284v.0401h-1.4858v-.0669q0-.3346.0803-.656.0803-.3212.241-.6023.1606-.2945.4015-.5087.2544-.2275.5489-.3614.3079-.1472.6291-.2008.3347-.0535.6693-.0535.3347 0 .6693.0535.3347.0536.6292.2008.3079.1473.5488.3882.2544.241.415.5355.1607.2945.2276.6291.0803.3213.0803.656 0 .3078-.0535.6023-.0535.2945-.1607.5756-.0937.2677-.241.5355-.1472.2543-.3346.4953-.174.241-.3882.455-.2008.2143-.3614.4686-.1606.241-.2142.5355-.0535.2944-.0535.6023zm-.7496 3.3198q-.241 0-.4685-.0803-.2276-.067-.4016-.2276-.1607-.174-.241-.4016-.0669-.2275-.0669-.4685 0-.241.067-.4685.0802-.241.2409-.4016.174-.174.4016-.241.2275-.0669.4685-.0669.241 0 .4685.067.2276.0669.3882.241.174.1605.241.4015.0803.2276.0803.4685 0 .241-.0803.4685-.067.2276-.241.4016-.1606.1607-.3882.2276-.2276.0803-.4685.0803z" aria-label="?" font-family="Iosevka" font-size="13.3862" font-weight="700" style="line-height:1.25;-inkscape-font-specification:&quot;Iosevka, Bold&quot;"/><path fill="none" stroke="#0b1b31" stroke-width="2" d="M17.6147 96.0048c70.475-1.105 139.615-30.1712 179.0783-69.6182"/><path d="M60.3532 103.82v-.006q0-.1594.006-.3187.0062-.1654.0246-.3185.0245-.1593.0674-.3125.0429-.1593.1103-.3002.0673-.147.1531-.2818.092-.1348.196-.2512.1042-.1225.2206-.2267.1225-.1102.2512-.2083.1287-.098.2512-.2021.1225-.1042.2144-.2328.098-.1287.141-.2819.049-.1592.049-.3185 0-.0858-.0123-.1654-.0061-.0796-.0306-.1593-.0246-.0796-.0674-.147-.0368-.0736-.098-.1287-.0613-.0552-.141-.0797-.0796-.0245-.1593-.0245-.1102 0-.2144.0429-.1041.0429-.1715.1287-.0613.0858-.092.196-.0306.1042-.0306.2144v.006h-.68v-.012q0-.1531.0306-.3063.0368-.1593.1103-.294.0735-.141.1838-.2512.1164-.1164.2512-.1838.1409-.0736.294-.098.1594-.0307.3186-.0307.1655 0 .3309.0368.1654.0306.3063.1164.147.0796.2573.2083.1103.1286.1777.2818.0674.147.0919.3186.0245.1654.0245.3308 0 .2022-.0552.3982-.049.196-.1531.3737-.1042.1716-.2512.3186-.147.141-.3002.2696-.1532.1286-.3002.2695-.147.141-.2696.3064-.1164.1593-.2021.3492-.0797.1838-.1103.386h1.6174v.588zm4.2334.049q-.1655 0-.337-.0307-.1654-.0306-.3125-.1103-.147-.0796-.2634-.2021-.1103-.1287-.1838-.2757-.0674-.1532-.098-.3186-.0245-.1715-.0245-.337v-2.0523q0-.1654.0245-.3308.0306-.1716.098-.3186.0735-.1532.1838-.2757.1164-.1287.2634-.2083.147-.0796.3125-.1103.1715-.0306.337-.0306.1654 0 .3308.0306.1715.0306.3186.1103.147.0796.2573.2083.1164.1225.1838.2757.0735.147.098.3186.0306.1654.0306.3308v2.0524q0 .1654-.0306.337-.0245.1653-.098.3185-.0674.147-.1838.2757-.1103.1225-.2573.2022-.147.0795-.3186.1102-.1654.0306-.3308.0306zm-.5392-2.1688 1.0783-.8516v-.3063q0-.1226-.0245-.2451-.0245-.1225-.098-.2267-.0674-.1041-.1838-.1593-.1103-.0551-.2328-.0551-.1226 0-.239.0551-.1103.0552-.1838.1593-.0674.1042-.0919.2267-.0245.1225-.0245.245zm.5392 1.5806q.1225 0 .2328-.0551.1164-.0551.1838-.1593.0735-.1042.098-.2267.0245-.1225.0245-.245v-1.158l-1.0783.8516v.3063q0 .1226.0245.2451.0245.1225.092.2267.0735.1041.1837.1593.1164.055.239.055zm2.9039.5391v-3.872l-.7046.5637-.337-.3614 1.0416-.8332h.6861v4.5029zm3.2347.049q-.1531 0-.3063-.0306-.147-.0245-.2818-.098-.1348-.0735-.245-.1838-.1042-.1103-.1777-.239-.0735-.1347-.1164-.2817-.043-.147-.0613-.3002h.6862v.0122q.0184.098.049.196.0367.092.098.1716t.1532.1225q.098.0429.2021.0429.092 0 .1838-.043.092-.0428.1532-.1163.0613-.0797.0919-.1716.0368-.0919.0551-.1838.0245-.098.0307-.1899.0122-.098.0122-.196t-.0122-.196q-.0061-.098-.0245-.19-.0184-.0919-.0552-.1838-.0306-.0919-.0919-.1654-.0551-.0796-.147-.1225-.0858-.043-.1838-.043-.098 0-.196.043-.092.0429-.1532.1225-.0552.0796-.0858.1777-.0245.098-.0306.2021h-.68V99.317h2.1748v.5882H70.272v1.0599q.1103-.043.2267-.0551.1225-.0184.2389-.0184.1838 0 .3615.049.1776.0429.3185.147.147.1041.2512.2573.1042.1532.1593.3247.0613.1716.0796.3492.0246.1777.0246.3615 0 .1776-.0246.3614-.0183.1838-.0796.3554-.0613.1654-.1654.3186-.1042.1531-.2573.2573-.147.1041-.3247.147-.1777.049-.3554.049z" aria-label="2015" font-family="Iosevka" font-size="6.1265" font-weight="700" style="line-height:1.25;-inkscape-font-specification:&quot;Iosevka, Bold&quot;"/><path d="M54.2206 111.7198v-4.503h1.2008q.1715 0 .337.043.1715.0367.3185.1286.147.0919.2512.2328.1103.1348.1716.294.0612.1593.0857.3309.0245.1715.0245.343 0 .2022-.0367.4044-.0306.2022-.1225.386-.092.1776-.2512.3186-.1532.1347-.3431.2021l.87 1.8196h-.7169l-.8393-1.7583h-.2695v1.7583zm.68-2.3465h.5208q.0858 0 .1654-.0306.0858-.0368.147-.098.0613-.0613.098-.1409.0368-.0858.0552-.1654.0245-.0858.0306-.1716.0123-.0919.0123-.1776 0-.0858-.0123-.1716-.006-.0918-.0306-.1776-.0184-.0858-.0551-.1654-.0368-.0796-.098-.141-.0613-.0613-.147-.0919-.0797-.0368-.1655-.0368h-.5207zm3.2716 2.3955q-.147 0-.288-.049-.1409-.049-.2512-.147-.1041-.098-.1715-.2268-.0674-.1347-.1103-.2756-.0367-.141-.0551-.2819-.0123-.147-.0123-.294v-2.0218h.68v2.0218q0 .0796.0062.1593.0122.0797.0306.1592.0245.0735.0613.141.0429.0674.098.1225.0612.055.1348.0796.0796.0245.1593.0245.0796 0 .1531-.0245.0797-.0245.1348-.0796.0613-.0551.098-.1225.0429-.0674.0613-.141.0245-.0796.0306-.1592.0123-.0796.0123-.1593v-2.0218h.68v3.247h-.68v-.5023q-.049.1225-.1226.2267-.0735.1041-.1776.1838-.098.0735-.2206.1041-.1225.0368-.2512.0368zm3.3328 0q-.141 0-.2819-.0184t-.2757-.0674q-.1347-.0551-.2511-.141-.1164-.0857-.196-.2021-.0797-.1164-.1226-.2573-.0429-.141-.0429-.2818h.68q.0061.0858.043.1654.0428.0797.1163.1286.0735.049.1593.0674t.1715.0184q.092 0 .1777-.0184.0858-.0184.1593-.0613.0735-.049.1164-.1286.049-.0797.049-.1654 0-.098-.0674-.1777-.0612-.0797-.1531-.1164-.0858-.0367-.1838-.0613-.092-.0245-.19-.049l-.1837-.0613q-.092-.0306-.1838-.0674-.0858-.0368-.1716-.0858-.0796-.0551-.1593-.1164-.0735-.0613-.1347-.1348-.0552-.0797-.098-.1654-.043-.092-.0675-.1838-.0183-.098-.0183-.196 0-.141.0367-.2757.0429-.1348.1164-.2512.0797-.1164.19-.2022.1102-.0919.2389-.147.1286-.0551.2695-.0735.141-.0184.2819-.0184.1347 0 .2695.0184.141.0184.2696.0735.1286.049.239.1347.1102.0858.1837.2022.0797.1164.1164.2512.0429.1348.0429.2757h-.68q-.0061-.0796-.043-.1532-.0306-.0797-.098-.1286-.0612-.049-.1409-.0674-.0796-.0184-.1592-.0184-.0858 0-.1655.0184-.0796.0184-.147.0674-.0674.049-.1041.1286-.0368.0735-.0368.1593 0 .098.0613.1777.0673.0797.1531.1164.092.0367.1838.0613.098.0245.19.0551.0918.0245.1837.0551.092.0245.1838.0674.092.0368.1716.0858.0857.049.1592.1164.0736.0613.1348.141.0613.0734.1042.1592t.0612.1838q.0245.098.0245.19 0 .147-.0428.2879-.043.1347-.1287.2573-.0796.1164-.196.2021-.1164.0858-.2512.141-.1348.049-.2757.0673-.141.0184-.288.0184zm3.4553 0q-.1532 0-.3064-.0368-.1531-.0368-.2818-.1287-.1225-.0919-.2144-.2205-.0858-.1287-.141-.2757-.049-.147-.0673-.3002-.0184-.1593-.0184-.3125v-1.4336h-.5942v-.5881h.5942v-1.256h.6862v1.256h.8638v.5881h-.8638v1.5806q.006.0675.0184.141.0122.0674.0306.1348.0245.0674.0613.1286.0428.0551.1041.098.0613.0368.1287.0368.0919 0 .1654-.055.0796-.0614.1164-.1471.0368-.0858.049-.1777.0123-.0919.0123-.1838V110.5864h.6861v.0613q0 .147-.0306.288-.0245.1409-.0797.2756-.0551.1287-.1531.239-.092.1102-.2144.1838-.1226.0735-.2635.1041-.1409.0306-.288.0306zm5.5873-.049v-3.872l-.7046.5637-.337-.3615 1.0416-.8332h.6861v4.503zm3.2225.049q-.1225 0-.239-.0368-.1164-.0368-.2021-.1164-.0858-.0858-.1226-.2022-.0306-.1225-.0306-.239 0-.1225.0306-.2389.0368-.1164.1226-.2021.0857-.0858.2022-.1226.1164-.0368.2389-.0368t.239.0368q.1163.0368.202.1226.0859.0858.1165.2021.0368.1164.0368.239 0 .1164-.0368.2389-.0306.1164-.1164.2022-.0858.0796-.2022.1164-.1164.0368-.239.0368zm3.0632 0q-.1654 0-.337-.0306-.1654-.0306-.3124-.1103-.147-.0796-.2634-.2022-.1103-.1286-.1838-.2757-.0674-.1531-.098-.3186-.0246-.1715-.0246-.3369v-2.0524q0-.1654.0245-.3308.0307-.1715.098-.3186.0736-.1531.1839-.2757.1164-.1286.2634-.2083.147-.0797.3124-.1102.1716-.0306.337-.0306.1654 0 .3308.0306.1716.0306.3186.1102t.2573.2083q.1164.1226.1838.2757.0735.147.098.3186.0307.1654.0307.3308v2.0524q0 .1654-.0307.337-.0245.1654-.098.3185-.0674.147-.1838.2757-.1103.1225-.2573.2022-.147.0796-.3186.1103-.1654.0306-.3308.0306zm-.5391-2.1688 1.0782-.8516v-.3063q0-.1225-.0245-.245-.0245-.1226-.098-.2267-.0674-.1042-.1838-.1593-.1103-.0551-.2328-.0551-.1225 0-.239.055-.1102.0552-.1837.1594-.0674.1041-.092.2266-.0244.1226-.0244.2451zm.5391 1.5806q.1225 0 .2328-.055.1164-.0552.1838-.1594.0735-.1041.098-.2266.0245-.1226.0245-.245v-1.158l-1.0782.8516v.3063q0 .1225.0245.245.0245.1226.0919.2267.0735.1042.1838.1593.1164.0551.239.0551z" aria-label="Rust 1.0" font-family="Iosevka" font-size="6.1265" font-weight="700" style="line-height:1.25;-inkscape-font-specification:&quot;Iosevka, Bold&quot;"/><path d="M107.662 90.0125v-3.9148h-.9005v-.5882h2.4873v.5882h-.9005v3.9148zm3.4064.049q-.1654 0-.337-.0306-.1654-.0307-.3124-.1103-.147-.0797-.2635-.2022-.1102-.1286-.1838-.2757-.0673-.1531-.098-.3186-.0244-.1715-.0244-.337v-.7963q0-.1655.0244-.3309.0307-.1715.098-.3186.0736-.1531.1838-.2756.1164-.1287.2635-.2083.147-.0797.3124-.1103.1716-.0307.337-.0307.1654 0 .3308.0307.1716.0306.3186.1103.147.0796.2573.2083.1164.1225.1838.2756.0735.147.098.3186.0306.1654.0306.3309v.7964q0 .1654-.0306.337-.0245.1654-.098.3185-.0674.147-.1838.2757-.1103.1225-.2573.2022-.147.0796-.3186.1103-.1654.0306-.3308.0306zm0-.5881q.1225 0 .2328-.0552.1164-.0551.1838-.1593.0735-.1041.098-.2267.0245-.1225.0245-.245v-.7965q0-.1225-.0245-.245t-.098-.2267q-.0674-.1041-.1838-.1593-.1103-.0551-.2328-.0551-.1225 0-.239.0551-.1102.0552-.1837.1593-.0674.1042-.092.2267-.0244.1225-.0244.245v.7965q0 .1225.0245.245.0245.1226.0919.2267.0735.1042.1838.1593.1164.0552.2389.0552zm2.7753.588q-.147 0-.2941-.049-.141-.0428-.2573-.1347-.1103-.098-.19-.2267-.0734-.1348-.1164-.2757-.0429-.1409-.0613-.288-.0122-.153-.0122-.3001v-.7964q0-.147.0122-.2941.0184-.1532.0613-.294.043-.141.1165-.2697.0796-.1347.1899-.2266.1164-.098.2573-.141.147-.049.294-.049.1287 0 .2512.0368.1226.0306.2267.1103.1042.0735.1777.1777.0735.1041.1225.2266v-1.7583h.68v4.503h-.68V89.51q-.049.1225-.1225.2267-.0735.1041-.1777.1838-.1041.0735-.2267.1041-.1225.0368-.2511.0368zm.2818-.588q.0796 0 .1531-.0246.0796-.0245.141-.0735.0612-.0551.098-.1225.0428-.0735.0612-.147.0245-.0797.0306-.1593.0123-.0797.0123-.1593v-.7965q0-.0796-.0123-.1592-.006-.0797-.0306-.1532-.0184-.0796-.0613-.147-.0368-.0736-.098-.1226-.0613-.0551-.1409-.0796-.0735-.0245-.1531-.0245-.1226 0-.239.0612-.1102.0552-.1776.1593-.0674.098-.092.2206-.0244.1225-.0244.245v.7965q0 .1225.0245.245.0245.1226.0919.2267.0674.098.1776.1593.1164.0552.239.0552zm2.6956.588q-.1225 0-.245-.0244-.1165-.0245-.2206-.0858-.098-.0613-.1777-.1531-.0735-.098-.1225-.2083-.0429-.1165-.0613-.2329-.0184-.1164-.0184-.2389 0-.1654.0368-.3247t.1348-.288q.098-.1347.2328-.2266.1348-.092.288-.147.1592-.0552.3185-.0736.1654-.0183.3247-.0183h.3737v-.239q0-.1041-.0306-.196-.0306-.098-.1041-.1654-.0674-.0736-.1654-.1042-.098-.0306-.2022-.0306-.0858 0-.1777.0245-.0858.0184-.1593.0735-.0735.0552-.1164.141-.0368.0857-.0368.1715h-.68q0-.141.0368-.2818.0429-.141.1225-.2635.0796-.1225.196-.2144.1165-.092.2513-.141.1347-.055.2756-.0734.147-.0246.288-.0246.1532 0 .3063.0246.1532.0183.288.0796.1409.0613.2573.1654.1164.098.1899.2328.0797.1287.1103.2818.0306.147.0306.3002v2.2117h-.68v-.4779q-.0307.0613-.043.0797-.006.0122-.0245.0428-.0184.0246-.0429.0552-.0184.0245-.0429.049-.0184.0245-.0429.049l-.049.049q-.0245.0184-.055.0368-.0246.0184-.0552.0367-.0245.0184-.055.0368l-.0614.0245q-.0306.0123-.0674.0184-.0306.0122-.0613.0184-.0306.006-.0674.0122-.0306.0061-.0674.0061-.0306.0061-.0674.0061-.0306.0061-.0613.0061zm.2757-.588q.1164 0 .2267-.0307.1164-.0367.196-.1164.0858-.0796.1225-.1899.043-.1103.043-.2267v-.2818h-.3738q-.0735 0-.147.0061t-.147.0245q-.0674.0184-.1348.049-.0674.0307-.1226.0797-.049.049-.0796.1225-.0245.0674-.0245.1409 0 .0858.0306.1715.0306.0858.092.147.0612.0552.147.0797.0858.0245.1715.0245zm2.4567 1.795q.0674-.2205.1286-.4472l.1226-.4411.1103-.4105-.9006-3.2041h.7045l.5514 2.3219.5269-2.322h.7045l-1.2437 4.503z" aria-label="Today" font-family="Iosevka" font-size="6.1265" font-weight="700" style="line-height:1.25;-inkscape-font-specification:&quot;Iosevka, Bold&quot;"/><path d="M150.223 71.0114v-.0061q0-.1593.006-.3186.006-.1654.0245-.3186.0245-.1593.0674-.3124.0429-.1593.1103-.3002.0674-.147.1531-.2818.092-.1348.196-.2512.1042-.1226.2206-.2267.1226-.1103.2512-.2083.1287-.098.2512-.2022.1225-.1041.2144-.2328.098-.1286.141-.2818.049-.1593.049-.3186 0-.0858-.0123-.1654-.006-.0796-.0306-.1593-.0245-.0796-.0674-.147-.0368-.0735-.098-.1287-.0613-.0551-.1409-.0796t-.1593-.0245q-.1102 0-.2144.0429-.1041.0428-.1715.1286-.0613.0858-.092.196-.0305.1042-.0305.2145v.006h-.68v-.0121q0-.1532.0305-.3063.0368-.1593.1103-.2941.0735-.141.1838-.2512.1164-.1164.2512-.1838.1409-.0735.294-.098.1593-.0306.3186-.0306.1654 0 .3309.0367.1654.0307.3063.1164.147.0797.2573.2083.1103.1287.1777.2818.0674.147.0919.3186.0245.1654.0245.3308 0 .2022-.0551.3983-.049.196-.1532.3737-.1042.1715-.2512.3186-.147.1409-.3002.2695-.1531.1287-.3002.2696-.147.1409-.2695.3063-.1164.1593-.2022.3492-.0796.1838-.1103.386h1.6174v.5881zm4.2334.049q-.1654 0-.337-.0307-.1654-.0306-.3124-.1102-.147-.0797-.2635-.2022-.1103-.1287-.1838-.2757-.0674-.1532-.098-.3186-.0245-.1715-.0245-.337v-2.0523q0-.1654.0245-.3308.0306-.1716.098-.3186.0735-.1532.1838-.2757.1164-.1286.2635-.2083.147-.0796.3124-.1103.1716-.0306.337-.0306.1654 0 .3308.0306.1715.0307.3186.1103.147.0797.2573.2083.1164.1225.1838.2757.0735.147.098.3186.0306.1654.0306.3308v2.0524q0 .1654-.0306.337-.0245.1653-.098.3185-.0674.147-.1838.2757-.1103.1225-.2573.2022-.147.0796-.3186.1102-.1654.0307-.3308.0307zm-.5392-2.1688 1.0783-.8516v-.3063q0-.1225-.0245-.245-.0245-.1226-.098-.2267-.0674-.1042-.1838-.1593-.1103-.0552-.2328-.0552-.1225 0-.239.0552-.1102.0551-.1837.1593-.0674.1041-.092.2267-.0244.1225-.0244.245zm.5392 1.5806q.1225 0 .2328-.0551.1164-.0551.1838-.1593.0735-.1041.098-.2267.0245-.1225.0245-.245v-1.158l-1.0783.8516v.3064q0 .1225.0245.245.0245.1226.0919.2267.0735.1042.1838.1593.1164.0551.239.0551zm3.0754.5882q-.1593 0-.3247-.0307-.1593-.0245-.3063-.0919-.1409-.0735-.2634-.1837-.1164-.1164-.196-.2574-.0797-.147-.1165-.3063-.0368-.1593-.0368-.3186h.68q0 .1164.0369.2328.0367.1103.1102.2022.0797.0858.19.1287.1102.0367.2266.0367.1287 0 .245-.049.1165-.0551.19-.1531.0735-.1042.1042-.2267.0368-.1225.0368-.245 0-.1226-.0368-.2451-.0368-.1226-.1103-.2206-.0674-.1041-.1716-.1715-.1041-.0735-.2205-.1103t-.245-.0429q-.1226-.0122-.2451-.0122v-.5882q.1103 0 .2267-.006.1163-.0123.2205-.049.1103-.0368.2022-.1042t.1531-.1593q.0674-.092.098-.2022.0306-.1164.0306-.2267 0-.1103-.0245-.2144-.0245-.1103-.0858-.2022-.055-.0919-.1592-.1409-.098-.0551-.2022-.0551-.1042 0-.2022.049-.098.0429-.1593.1286-.055.0858-.0858.19-.0245.1041-.0245.2083v.006h-.68v-.0121q0-.1532.0306-.3064.0368-.1531.1041-.288.0674-.1408.1777-.251.1103-.1104.245-.1839.1348-.0735.288-.098.1532-.0306.3063-.0306.1532 0 .3063.0306.1593.0306.2941.1103.1348.0735.239.1899.1102.1164.1776.2573.0674.141.098.294.0368.1532.0368.3125t-.0429.3186q-.0368.1593-.1225.294-.0858.1348-.2083.2451-.1225.1103-.2696.1777.1654.0674.3063.1838.141.1103.239.2573.098.147.147.3247.049.1715.049.3492 0 .1654-.0368.3308-.0368.1655-.1164.3186-.0735.147-.19.2696-.1163.1164-.2634.196-.147.0797-.3124.1103-.1654.0306-.337.0306zm3.051 0q-.1654 0-.337-.0307-.1654-.0306-.3124-.1102-.147-.0797-.2635-.2022-.1102-.1287-.1837-.2757-.0674-.1532-.098-.3186-.0245-.1715-.0245-.337v-2.0523q0-.1654.0245-.3308.0306-.1716.098-.3186.0735-.1532.1838-.2757.1164-.1286.2634-.2083.147-.0796.3124-.1103.1716-.0306.337-.0306.1654 0 .3308.0306.1716.0307.3186.1103.147.0797.2573.2083.1164.1225.1838.2757.0735.147.098.3186.0306.1654.0306.3308v2.0524q0 .1654-.0306.337-.0245.1653-.098.3185-.0674.147-.1838.2757-.1103.1225-.2573.2022-.147.0796-.3186.1102-.1654.0307-.3308.0307zm-.5391-2.1688 1.0782-.8516v-.3063q0-.1225-.0245-.245-.0245-.1226-.098-.2267-.0674-.1042-.1838-.1593-.1102-.0552-.2328-.0552-.1225 0-.239.0552-.1102.0551-.1837.1593-.0674.1041-.0919.2267-.0245.1225-.0245.245zm.5391 1.5806q.1225 0 .2328-.0551.1164-.0551.1838-.1593.0735-.1041.098-.2267.0245-.1225.0245-.245v-1.158l-1.0783.8516v.3064q0 .1225.0245.245.0245.1226.092.2267.0734.1042.1837.1593.1164.0551.239.0551z" aria-label="2030" font-family="Iosevka" font-size="6.1265" font-weight="700" style="line-height:1.25;-inkscape-font-specification:&quot;Iosevka, Bold&quot;"/><circle cx="66.1365" cy="90.398" r="4.3847" fill="#f8aa18" stroke="#0b1b31" stroke-linecap="round" stroke-miterlimit="1000" stroke-width="1.5" paint-order="fill markers stroke"/><circle cx="114.1316" cy="76.6396" r="4.3847" fill="#f8aa18" stroke="#0b1b31" stroke-linecap="round" stroke-miterlimit="1000" stroke-width="1.5" paint-order="fill markers stroke"/><circle cx="156.0063" cy="56.9604" r="4.3847" fill="#f8aa18" stroke="#0b1b31" stroke-linecap="round" stroke-miterlimit="1000" stroke-width="1.5" paint-order="fill markers stroke"/><circle cx="195.6457" cy="27.856" r="4.3847" fill="#f8aa18" stroke="#0b1b31" stroke-linecap="round" stroke-miterlimit="1000" stroke-width="1.5" paint-order="fill markers stroke"/><circle cx="18.0649" cy="96.748" r="4.3847" fill="#f8aa18" stroke="#0b1b31" stroke-linecap="round" stroke-miterlimit="1000" stroke-width="1.5" paint-order="fill markers stroke"/></g></svg>