<?xml version="1.0" encoding="UTF-8" standalone="no"?>
<svg xmlns="http://www.w3.org/2000/svg" xml:space="preserve" viewBox="0 0 128 128">
   <path fill="#030303" d="M38.53 9.82c-3.69-.08-12.33 1.07-19.8 10.4-4.75 5.9-3.85 12.09-3.4 15.98.19 1.66 1.91 4.78 2.57 5.15.74.4 1.48.8 2.22 1.15l-.13 5a2.9 2.9 0 0 0 2.02 2.84 2.2 2.2 0 0 0 .34 1.84A18.72 18.72 0 0 0 27.77 57a11.14 11.14 0 0 0-1.27 3.32l-1.67-1.47c-.8-.21-1.6 0-2.18.5-.46-.56-1.03-.94-1.67-.9l-4.76-.95a2.84 2.84 0 0 0-2.65 2.45c-.7-.18-1.5.06-1.97.73l-7 9.21c-.89 1.3.48 2.16 2.04 1.98l2.21-.85a9.5 9.5 0 0 0 2.94-1.9l3.96-3.37c.5.19 1.05.25 1.6.13l4.21-.65c.15-.03.29-.07.43-.13.38.45.92.76 1.55.83l3.35 1.14.66 3.29-1.58-.55a2.39 2.39 0 0 0-2.66 1.07c-.4-.18-.85-.27-1.32-.24l-7.22-1.55a2.83 2.83 0 0 0-2.64 2.47c-.71-.2-1.52.04-1.99.72l-8.46 12.3c-.9 1.28.47 2.14 2.03 1.97l2.21-.85a9.5 9.5 0 0 0 2.94-1.9l5.53-6.43c.47.16 1 .21 1.52.1l6.81-1.27c.15-.03.3-.08.43-.13.38.44.91.74 1.54.81l4.17-.01.85 4.23-2.63-.34a2.4 2.4 0 0 0-2.53 1.35 2.83 2.83 0 0 0-1.36-.1l-6.06-.16a2.84 2.84 0 0 0-2.38 2.71c-.72-.1-1.48.22-1.88.93L6.5 95.76c-.75 1.38.7 2.09 2.24 1.76l2.11-1.08a8.13 8.13 0 0 0 2.55-2.19l4.12-4.16a2.8 2.8 0 0 0 1.62-.03l5.36-2.6c.15-.05.28-.1.42-.17.42.4.99.64 1.62.65l4.95-.53c.6 1.14 1.36 2.18 2.25 3.12l-4.28.24a2.32 2.32 0 0 0-2.16 2.67l-1.86.26c-.97.13-1.73.9-1.89 1.85l-.71 6.11c-.2 1.27.54 2.92 1.99 3.34-.08.73.13 1.5.7 2.1 0 0 2.23 3.21 4.93 4.64 2.84 1.51 4.37 1.42 4.58.82.33-.96-2.87-3.08-4.57-5.32a41.13 41.13 0 0 1-2.01-2.89c.12-.18.22-.38.28-.6l1.7-5.76a2.3 2.3 0 0 0 2.05.37l10.54-3.13.09.02c1.3.17 2.5.77 3.46 1.68 2.1 2 7.02 5.85 16.83 5.85 9.66 0 14.2-3.56 16.13-5.44a5.83 5.83 0 0 1 3.31-1.66c.69-.09 1.36-.23 2.01-.4l10.38 3.08c.72.21 1.48.06 2.06-.37l1.7 5.76c.06.21.16.41.28.6-.48.73-1.16 1.76-2.02 2.89-1.7 2.24-4.9 4.36-4.57 5.32.2.6 1.74.69 4.58-.82 2.7-1.43 4.93-4.64 4.93-4.64.57-.6.79-1.37.7-2.1 1.46-.42 2.2-2.07 2-3.34l-.71-6.1a2.23 2.23 0 0 0-1.89-1.86l-1.87-.26c.2-1.27-.72-2.6-2.16-2.67l-5.53-.31a14.3 14.3 0 0 0 2.08-3.2l6.38.68c.63 0 1.2-.25 1.62-.65.13.07.27.13.41.17l5.36 2.6c.55.18 1.11.17 1.63.03l4.12 4.16a8.13 8.13 0 0 0 2.55 2.19l2.11 1.08c1.54.33 2.99-.38 2.23-1.76l-6.36-10.27a1.84 1.84 0 0 0-1.9-.93 2.83 2.83 0 0 0-2.37-2.71l-6.06.16a2.82 2.82 0 0 0-1.35.1 2.4 2.4 0 0 0-2.53-1.35l-4.24.55 1.06-4.44 5.57.02a2.36 2.36 0 0 0 1.55-.82c.13.06.27.1.42.13l6.81 1.27c.53.11 1.05.06 1.52-.1l5.52 6.43a9.52 9.52 0 0 0 2.94 1.9l2.21.85c1.57.17 2.94-.69 2.03-1.97l-8.46-12.3a1.83 1.83 0 0 0-1.98-.73 2.83 2.83 0 0 0-2.64-2.46l-7.22 1.55a2.8 2.8 0 0 0-1.33.24 2.39 2.39 0 0 0-2.66-1.07l-2.83.98.8-3.34 4.47-1.52a2.37 2.37 0 0 0 1.55-.82l.42.12 4.2.65c.56.12 1.12.06 1.61-.14l3.97 3.38a9.52 9.52 0 0 0 2.94 1.9l2.21.85c1.56.18 2.93-.69 2.03-1.98l-6.99-9.21a1.83 1.83 0 0 0-1.98-.72 2.84 2.84 0 0 0-2.65-2.46l-4.76.95c-.63-.04-1.2.34-1.67.9a2.38 2.38 0 0 0-2.17-.5L100.46 61c-.2-1.4-.62-2.7-1.27-3.87 1.8-1.08 4-2.7 5.63-4.95.4-.56.5-1.23.34-1.84a2.9 2.9 0 0 0 2.02-2.84l-.15-5.69.87-.46c.65-.37 2.38-3.5 2.57-5.15.45-3.9 1.35-10.09-3.39-15.99C99.1 10.27 89.8 9.62 86.6 9.85c-3.2.22-1.94 1.43-.19 3.16.81.79 3.29 2.88 5.03 5.3 1.78 2.46 2.79 5.26 1.97 5.8-1.38.92-4.97-1.6-6.1-2.98-1.25-1.5-1.44-1.97-2.66-4.22-1.19-2.2-1.53-3.24-2-2.64-.48.6-1.04 2.37-.75 4.66.24 1.89 1.22 3.92 1.8 6.31.99 4.11.17 3.17 1.52 8.3.8 3.02 1.94 4.81 5.37 7.55a13.14 13.14 0 0 0 7.66 2.77l1.43 4.68c.12.38.3.72.55 1.01a20.02 20.02 0 0 1-3.91 4.06c-2.73-2.38-6.59-4.07-11.09-5.11 0 0-10.19-2.66-21.82-2.66S41.58 48.5 41.58 48.5c-4.28 1-8.09 2.68-10.84 5.02-1.23-1-2.68-2.35-3.8-3.97a3 3 0 0 0 .55-1.01l1.47-4.83a12.5 12.5 0 0 0 6.25-2.62c3.43-2.74 4.57-4.53 5.37-7.55 1.35-5.13.53-4.19 1.52-8.3.58-2.39 1.56-4.42 1.8-6.31.29-2.29-.27-4.06-.75-4.66-.47-.6-.81.44-2 2.64-1.22 2.25-1.41 2.72-2.65 4.22-1.14 1.38-4.73 3.9-6.1 2.98-.83-.54.18-3.34 1.96-5.8 1.74-2.42 4.22-4.51 5.03-5.3 1.75-1.73 3-2.94-.2-3.16-.2-.01-.41-.03-.66-.03z"/>
</svg>