<?xml version="1.0" encoding="UTF-8" standalone="no"?>
<svg
   width="48"
   height="49"
   viewBox="0 0 48 49"
   fill="none"
   version="1.1"
   id="svg7"
   xmlns="http://www.w3.org/2000/svg"
   xmlns:svg="http://www.w3.org/2000/svg">
  <rect
     y="0.5"
     width="48"
     height="48"
     rx="12"
     fill="#ffffff"
     id="rect14"
     x="0"
     style="fill:#1f1f1f;fill-opacity:1" />
  <g
     clip-path="url(#clip0_1869_5580)"
     id="g7"
     style="stroke:none;stroke-opacity:1"
     transform="matrix(0.93694169,0,0,0.93694169,1.5133995,1.2640293)">
    <rect
       x="-280.00745"
       y="-97.353691"
       width="636"
       height="412"
       rx="16"
       fill="#ffffff"
       id="rect1"
       style="stroke:none;stroke-opacity:1" />
    <path
       d="m 72.492655,28.244703 c -0.08612,0.244675 -0.198029,0.507255 -0.343633,0.791722 -0.564509,1.104033 -2.512956,4.125149 -4.543721,7.203432 -1.387367,2.107164 -2.813986,4.236923 -3.864142,5.799575 -1.103032,1.977914 -1.854801,3.197051 -1.928886,3.077686 -0.115479,-0.189832 0.593518,-3.919032 2.764777,-8.133142 0.127365,-0.293128 0.261732,-0.595765 0.394583,-0.909499 1.210578,-2.834271 2.548096,-6.391803 2.932975,-8.242438 -1.009919,0.885878 -7.807477,5.689108 -21.901741,8.156135 -0.0024,0.0032 -0.0079,0.004 -0.01108,0.0016 -4.743401,0.83548 -10.311016,1.400476 -16.76231,1.46304 -0.0024,0.0032 -0.0028,4.03e-4 -0.0055,8.07e-4 -1.564577,0.01576 -3.178947,0.0019 -4.848743,-0.04352 -18.9001729,-0.529514 -30.5332797,-4.235064 -36.444533,-6.8836 l -0.0028,4.04e-4 c -2.458634,-1.10231 -3.924213,-2.020988 -4.514175,-2.453037 0.324652,1.022676 0.725928,2.202949 1.212912,3.425608 -0.874434,0.280213 -1.573962,0.493001 -2.461024,0.783643 l -0.185711,0.06748 c -1.453011,-2.174413 -2.646122,-4.041692 -3.059514,-4.836289 -0.274521,-0.523285 -0.418845,-0.969336 -0.484545,-1.341856 -0.173791,-0.959669 0.182689,-1.410784 0.182689,-1.410784 l 0.236053,-0.402341 0.643051,-1.090012 c -0.189572,-0.620651 -0.26699,-1.249055 -0.226225,-1.883361 0.05214,-0.80867 0.29433,-1.596827 0.71535,-2.36304 1.656566,-3.040755 6.087302,-5.730024 12.3679638,-7.780245 l -0.033484,0.684208 C 0.07864464,9.6077147 10.646543,8.1612483 22.501251,8.1378583 36.443775,8.1102935 49.327597,10.054174 58.27355,13.208826 l 0.03325,1.005615 c 0.673522,0.227361 1.31964,0.461545 1.94163,0.704904 L 60.1713,12.756767 c 4.525325,1.848512 7.831398,4.041628 9.45788,6.434209 0.659584,0.968111 1.043775,1.970793 1.122231,2.995387 0.0045,0.05028 0.009,0.100555 0.01072,0.151235 0.0066,0.123641 0.0046,0.245609 0.0025,0.367577 l 0.951938,1.769128 0.793395,1.477945 c 0,0 0.529752,0.738028 -0.01733,2.292455 z"
       fill="#973516"
       id="path1"
       style="fill:#666666;stroke:none;stroke-opacity:1" />
    <path
       d="m 82.099202,29.811108 c -0.586439,1.186558 -2.436459,4.085606 -4.631512,7.417225 -2.548959,3.858656 -5.561484,8.288624 -7.612255,11.287865 -1.529985,2.781778 -2.615358,4.530653 -2.790096,4.420295 -0.27769,-0.174686 -0.0066,-4.847812 2.906312,-10.681481 0.699286,-1.715254 1.439024,-3.716732 2.070381,-5.645725 1.25114,-3.819515 2.080086,-7.348316 1.335014,-7.77474 0,0 -0.30396,-0.258574 -0.86829,-0.592392 -1.076728,-0.641349 -3.109762,-1.56506 -5.808764,-1.517191 -0.534053,0.0099 -1.091066,0.05712 -1.675273,0.150732 -0.275633,0.130709 -0.554023,0.261921 -0.83006,0.38986 -29.322586,13.582346 -57.9884006,7.461799 -73.0461865,2.304885 -6.8505655,-2.34745 -10.8864985,-4.493638 -10.8864985,-4.493638 -0.735478,0.339193 -1.341105,0.733135 -1.810015,1.093007 -0.7776,0.594535 -1.180766,1.094896 -1.180766,1.094896 -0.528937,0.453506 0.559281,2.967872 1.917139,6.005324 -0.486103,0.164206 -1.076022,0.384367 -1.564492,0.551749 -1.071273,0.368416 -1.98316,0.672478 -3.055588,1.052381 -2.076963,-2.547747 -3.679963,-4.513554 -4.272436,-5.449001 -1.566499,-2.466401 -0.62357,-3.518657 -0.62357,-3.518657 l 4.056206,-4.267862 3.50574,-3.689546 0.938745,-0.985961 c 0.02561,-0.0774 0.05113,-0.154689 0.07992,-0.229624 l -2.485007,-4.316808 c -0.250512,-0.436197 -0.270232,-0.999439 -0.05305,-1.492457 0.21718,-0.493027 0.642064,-0.843655 1.119671,-0.9302352 l 4.739411,-0.8434377 c 0.205876,-0.3951443 0.421375,-0.7831922 0.637682,-1.1656986 L -19.458901,3.249351 c -0.16579,-0.4768579 -0.09115,-1.0340328 0.202321,-1.4702365 0.295837,-0.4393881 0.766241,-0.6919143 1.240857,-0.6818135 l 4.745553,0.1322022 c 0.26564,-0.33591291 0.534347,-0.66944294 0.809048,-1.0010169 l -0.810665,-4.9995555 c -0.08182,-0.503161 0.08728,-1.034495 0.449505,-1.4071182 0.35986,-0.3694488 0.857849,-0.5298295 1.321285,-0.4218236 l 4.5938372,1.0940593 c 0.3160726,-0.281021 0.6385055,-0.5572995 0.9617504,-0.8279362 l 0.076502,-5.0948721 c 0.00738,-0.513328 0.2642021,-1.006513 0.6805651,-1.299308 0.4159602,-0.295566 0.9344439,-0.354138 1.3664013,-0.150999 l 4.28973418,2.001683 c 0.36265459,-0.214129 0.72847912,-0.425991 1.09829012,-0.629844 l 0.9676751,-5.026556 c 0.096598,-0.503793 0.4380422,-0.941297 0.8978522,-1.149877 0.4594108,-0.21125 0.9761971,-0.16488 1.3667769,0.123617 l 3.8605253,2.848216 c 0.3961844,-0.139786 0.7927725,-0.276802 1.1959998,-0.406398 l 1.8454024,-4.797723 c 0.186696,-0.488626 0.598074,-0.854263 1.091444,-0.968597 0.490196,-0.1167 0.993823,0.03355 1.324307,0.395785 l 3.310643,3.624718 c 0.410663,-0.05984 0.824805,-0.114526 1.240258,-0.160914 l 2.703645,-4.430334 c 0.272061,-0.447202 0.74633,-0.731457 1.253845,-0.748716 0.510675,-0.01499 0.980425,0.233574 1.244478,0.664908 l 2.627972,4.287477 c 0.422789,0.02338 0.844005,0.05538 1.262755,0.09057 l 3.496569,-3.88911 c 0.353889,-0.391215 0.879116,-0.578202 1.389679,-0.49687 0.511356,0.08677 0.932983,0.432999 1.117115,0.918523 l 1.82641,4.814663 c 0.421452,0.111294 0.840423,0.225678 1.257948,0.348863 l 4.209374,-3.177857 c 0.425746,-0.325287 0.986227,-0.406956 1.481249,-0.218665 0.497695,0.187901 0.856122,0.625391 0.951837,1.146334 l 0.931018,5.202795 c 0.39981,0.196495 0.79529,0.40211 1.190771,0.607724 l 4.822687,-2.333102 c 0.492216,-0.238767 1.069265,-0.206737 1.533885,0.085 0.461552,0.289404 0.742866,0.80036 0.737189,1.344657 l -0.04555,5.4243108 c 0.360437,0.2758211 0.718814,0.5576116 1.072454,0.8457412 l 5.311048,-1.3541383 c 0.538146,-0.1378557 1.118599,0.01533 1.529248,0.4027167 0.413419,0.3869832 0.598177,0.9544833 0.488168,1.5026548 l -1.083987,5.43409456 c 0.314213,0.34766679 0.621225,0.70486151 0.922796,1.06285916 l 5.62197,-0.25024508 c 0.5741,-0.0270419 1.129551,0.24583947 1.470654,0.7197887 0.341103,0.47394926 0.421642,1.08493106 0.203766,1.61202456 l -2.131823,5.2046347 c 0.248195,0.4195976 0.49391,0.8422851 0.732637,1.2745806 l 5.719453,0.924374 c 0.583564,0.096162 1.096473,0.4855746 1.348982,1.0318736 0.255585,0.548681 0.216379,1.174272 -0.104274,1.656951 l -3.159216,4.745819 c 0.101498,0.288075 0.2034,0.578922 0.302935,0.872942 0.01396,0.03758 0.02556,0.07833 0.03953,0.115912 l 4.601505,3.227134 2.174542,1.525899 4.150276,2.910791 c 0,0 1.655331,0.840098 0.228699,3.728487 z"
       fill="#f74c00"
       id="path2"
       style="fill:#b3b3b3;stroke:none;stroke-opacity:1" />
    <path
       d="m 30.498175,14.387665 c 0,0 4.415876,-4.8524308 8.911546,0.04037 0,0 3.637572,6.665251 0.09342,9.975371 0,0 -5.806626,4.622055 -9.018825,-0.135091 0,0 -3.79106,-3.693364 0.01386,-9.88065 z"
       fill="#000000"
       id="path3"
       style="stroke:none;stroke-opacity:1" />
    <path
       d="m 35.640089,16.237182 c 0.0083,1.923612 -1.110924,3.479342 -2.498798,3.463595 -1.387874,-0.01575 -2.497527,-1.58353 -2.495936,-3.497157 0.0017,-1.91374 1.113905,-3.440163 2.483036,-3.435832 1.369231,0.0043 2.501498,1.551826 2.508524,3.467027 z"
       fill="#ffffff"
       id="path4"
       style="stroke:none;stroke-opacity:1" />
    <path
       d="m 11.225124,12.996097 c 0,0 7.365727,-3.2952768 9.268571,4.163375 0,0 2.031686,8.906019 -6.265824,9.268724 0,0 -10.2945676,-2.258835 -3.002747,-13.432099 z"
       fill="#000000"
       id="path5"
       style="stroke:none;stroke-opacity:1" />
    <path
       d="m 14.819236,16.222782 c -0.04011,1.941976 -1.185876,3.510071 -2.553852,3.494253 -1.364901,-0.01344 -2.4257932,-1.596812 -2.3730735,-3.529207 0.052804,-1.932509 1.1886595,-3.470863 2.5408615,-3.466895 1.352203,0.004 2.426879,1.565428 2.388431,3.498674 z"
       fill="#ffffff"
       id="path6"
       style="stroke:none;stroke-opacity:1" />
    <path
       d="m 20.386058,29.688722 9.732658,-0.605778 c 0,0 -0.335934,1.622695 -1.623426,2.820858 0,0 -3.396957,3.755754 -7.1966,-0.482669 0,0 -0.614128,-0.714414 -0.914999,-1.729237 z"
       fill="#000000"
       id="path7"
       style="stroke:none;stroke-opacity:1" />
  </g>
  <defs
     id="defs7">
    <clipPath
       id="clip0_1869_5580">
      <rect
         y="0.799805"
         width="48"
         height="48"
         rx="12"
         fill="white"
         id="rect7" />
    </clipPath>
  </defs>
</svg>
