<?xml version="1.0" encoding="UTF-8" standalone="no"?>
<svg
   width="30"
   height="30"
   viewBox="-5 -10 30 30"
   version="1.1"
   id="svg1"
   sodipodi:docname="heart.svg"
   inkscape:version="1.3 (0e150ed, 2023-07-21)"
   xmlns:inkscape="http://www.inkscape.org/namespaces/inkscape"
   xmlns:sodipodi="http://sodipodi.sourceforge.net/DTD/sodipodi-0.dtd"
   xmlns="http://www.w3.org/2000/svg"
   xmlns:svg="http://www.w3.org/2000/svg">
  <defs
     id="defs1" />
  <sodipodi:namedview
     id="namedview1"
     pagecolor="#ffffff"
     bordercolor="#666666"
     borderopacity="1.0"
     inkscape:showpageshadow="2"
     inkscape:pageopacity="0.0"
     inkscape:pagecheckerboard="0"
     inkscape:deskcolor="#d1d1d1"
     inkscape:zoom="1.6999873"
     inkscape:cx="35.588501"
     inkscape:cy="28.823744"
     inkscape:window-width="1728"
     inkscape:window-height="1051"
     inkscape:window-x="0"
     inkscape:window-y="38"
     inkscape:window-maximized="0"
     inkscape:current-layer="svg1" />
  <path
     d="M 0.84166164,8.3191121 C 2.7409113,10.031159 6.4164134,13.243757 9.6804858,15.540168 c 0.091461,0.06574 0.2157755,0.09859 0.3286752,0.09859 0.1129,0 0.222946,-0.03713 0.314408,-0.09859 3.264072,-2.297948 6.93972,-5.509265 8.838824,-7.2210559 1.284739,-1.1561446 2.267948,-2.4951752 2.933897,-3.9800318 2.122195,-4.75159972 -0.461587,-7.4884889 -2.190792,-8.6961445 -1.308995,-0.9146134 -2.882459,-1.3647857 -4.430022,-1.2690444 -3.083967,0.1900567 -4.73038,2.2822532 -5.4763389,3.6398688 -0.7459587,-1.3576522 -2.3894093,-3.4469951 -5.4763394,-3.6398688 -1.5477088,-0.095741 -3.1211,0.3543944 -4.43002156,1.2690444 -1.72635114,1.2075824 -4.31002434,3.94417898 -2.19079184,8.6961445 0.6716921,1.4876736 1.65486504,2.8267408 2.93964074,3.9800318 z"
     id="path1"
     style="stroke-width:0.365845" />
</svg>
