<?xml version="1.0" encoding="UTF-8"?>
<svg version="1.1" viewBox="0 0 92.9 83" xml:space="preserve" xmlns="http://www.w3.org/2000/svg"><path d="m51.5 4c-20.7-0.1-37.5 16.7-37.6 37.4 0 9.8 3.7 18.8 9.9 25.5l-13.4 12 40.9 0.1c20.7 0 37.5-16.7 37.6-37.4 0-20.7-16.7-37.6-37.4-37.6z" fill="none" stroke="#000" stroke-width="8"/><path d="m43.6 59.5 3.48-0.52v-20l-3.51-1.07v-3.98l10.2-1.3h0.13l1.61 1.14v25.2l3.33 0.494v3.48h-15.3zm7.12-30.9q-0.988 0-1.82-0.312-0.806-0.338-1.4-0.91-0.598-0.598-0.936-1.38-0.312-0.806-0.312-1.72 0-1.04 0.312-1.98 0.338-0.936 0.962-1.64 0.65-0.702 1.59-1.09 0.936-0.416 2.13-0.416h0.026q1.14 0 2 0.364 0.884 0.338 1.48 0.936 0.598 0.598 0.91 1.4 0.312 0.78 0.312 1.66 0 1.07-0.338 2-0.312 0.91-0.962 1.61-0.65 0.676-1.64 1.07-0.962 0.39-2.29 0.39h-0.026z" stroke-width="1.33" aria-label="i"/></svg>
