<svg xmlns="http://www.w3.org/2000/svg" xml:space="preserve" viewBox="0 0 92.9 83"><path d="m39.906 57.41 3-.45V39.718l-3.026-.923v-3.431l8.794-1.12h.113l1.388.982v21.727l2.87.426v3h-13.19Zm6.139-26.643q-.852 0-1.57-.269-.694-.29-1.206-.784-.516-.516-.807-1.19-.27-.695-.27-1.483 0-.897.27-1.707.29-.807.829-1.414.56-.605 1.37-.94.808-.358 1.837-.358h.023q.983 0 1.724.313.762.292 1.276.807.516.516.785 1.207.269.673.269 1.432 0 .922-.292 1.724-.269.785-.83 1.388-.56.583-1.413.923-.83.336-1.975.336h-.022z" aria-label="i"/><circle cx="46.45" cy="41.5" r="35.852" fill="none" stroke="#000" stroke-linecap="square" stroke-miterlimit="1000" stroke-width="7.52" paint-order="fill markers stroke"/></svg>