<svg xmlns="http://www.w3.org/2000/svg" xml:space="preserve" viewBox="0 0 100 125"><path d="M37.272 50.728a2 2 0 0 0 1.414-3.414C35.664 44.292 34 40.274 34 36s1.664-8.292 4.686-11.314a2 2 0 1 0-2.828-2.828C32.08 25.635 30 30.658 30 36s2.08 10.365 5.858 14.142c.39.391.902.586 1.414.586m-8.485 6.485C23.121 51.548 20 44.014 20 36c0-8.013 3.121-15.546 8.787-21.213a2 2 0 1 0-2.828-2.828C19.537 18.381 16 26.919 16 36c0 9.083 3.537 17.62 9.958 24.041.391.391.902.586 1.414.586s1.024-.195 1.415-.586a2 2 0 0 0 0-2.828m32.526-7.071c.391.391.902.586 1.414.586s1.023-.195 1.414-.585C67.92 46.365 70 41.343 70 36s-2.08-10.365-5.858-14.143a2 2 0 0 0-2.828 2.829C64.336 27.708 66 31.726 66 36s-1.664 8.292-4.687 11.313a2 2 0 0 0 0 2.829m12.728-38.184a2 2 0 1 0-2.828 2.828C76.879 20.453 80 27.987 80 36c0 8.014-3.121 15.547-8.787 21.213a2 2 0 1 0 2.828 2.828C80.463 53.62 84 45.082 84 36s-3.537-17.62-9.959-24.042"/><path d="M52 47.527v-5.876A5.997 5.997 0 0 0 50 30a5.996 5.996 0 0 0-2 11.651v5.876L28.211 87.105A2.002 2.002 0 0 0 30 90c.344 0 .691-.089 1.004-.271L50 78.7l18.996 11.03a2.001 2.001 0 0 0 2.793-2.625zm6.371 21.687L52 72.913v-16.44zM48 72.913l-6.371-3.699L48 56.473zm-13.22 9.999 5.057-10.113 6.18 3.589zm19.203-6.525 6.18-3.589 5.057 10.114z"/></svg>