<svg xmlns="http://www.w3.org/2000/svg"
    xmlns:xlink="http://www.w3.org/1999/xlink" version="1.1" x="0px" y="0px" viewBox="0 0 100 125" enable-background="new 0 0 100 100" xml:space="preserve">
    <g>
        <g>
            <path fill="#000000" d="M37.272,50.728c0.512,0,1.024-0.195,1.414-0.586c0.781-0.781,0.781-2.047,0-2.828    C35.664,44.292,34,40.274,34,36s1.664-8.292,4.686-11.314c0.781-0.781,0.781-2.047,0-2.828c-0.78-0.781-2.048-0.781-2.828,0    C32.08,25.635,30,30.658,30,36s2.08,10.365,5.858,14.142C36.248,50.533,36.76,50.728,37.272,50.728z"/>
            <path fill="#000000" d="M28.787,57.213C23.121,51.548,20,44.014,20,36c0-8.013,3.121-15.546,8.787-21.213    c0.781-0.781,0.781-2.047,0-2.828c-0.781-0.781-2.048-0.781-2.828,0C19.537,18.381,16,26.919,16,36    c0,9.083,3.537,17.62,9.958,24.041c0.391,0.391,0.902,0.586,1.414,0.586s1.024-0.195,1.415-0.586    C29.568,59.26,29.568,57.993,28.787,57.213z"/>
            <path fill="#000000" d="M61.313,50.142c0.391,0.391,0.902,0.586,1.414,0.586s1.023-0.195,1.414-0.585    C67.92,46.365,70,41.343,70,36s-2.08-10.365-5.858-14.143c-0.781-0.78-2.047-0.781-2.828,0s-0.781,2.047,0,2.829    C64.336,27.708,66,31.726,66,36s-1.664,8.292-4.687,11.313C60.532,48.095,60.532,49.361,61.313,50.142z"/>
            <path fill="#000000" d="M74.041,11.958c-0.781-0.781-2.047-0.781-2.828,0c-0.781,0.781-0.781,2.047,0,2.828    C76.879,20.453,80,27.987,80,36c0,8.014-3.121,15.547-8.787,21.213c-0.781,0.78-0.781,2.047,0,2.828    c0.391,0.391,0.902,0.586,1.414,0.586s1.023-0.195,1.414-0.586C80.463,53.62,84,45.082,84,36    C84,26.918,80.463,18.38,74.041,11.958z"/>
            <path fill="#000000" d="M52,47.527v-5.876c2.329-0.825,4-3.04,4-5.651c0-3.314-2.686-6-6-6s-6,2.686-6,6    c0,2.611,1.671,4.827,4,5.651v5.876L28.211,87.105c-0.395,0.791-0.225,1.747,0.419,2.353C29.011,89.815,29.503,90,30,90    c0.344,0,0.691-0.089,1.004-0.271L50,78.7l18.996,11.03C69.309,89.911,69.655,90,69.999,90c0.497,0,0.99-0.185,1.37-0.542    c0.645-0.605,0.815-1.562,0.42-2.353L52,47.527z M58.371,69.214L52,72.913V56.473L58.371,69.214z M48,72.913l-6.371-3.699    L48,56.473V72.913z M34.78,82.912l5.057-10.113l6.18,3.589L34.78,82.912z M53.983,76.387l6.18-3.589l5.057,10.114L53.983,76.387z"/>
        </g>
    </g>
</svg>