<?xml version="1.0" encoding="UTF-8"?>
<svg data-name="Layer 1" version="1.1" viewBox="0 0 64 60" xmlns="http://www.w3.org/2000/svg"><title>Artboard 16</title><g transform="translate(-18 -20)"><path d="m18 69.3a10.8 10.8 0 0 0 10.7 10.7h42.5a10.7 10.7 0 0 0 9.33-16.1l-22.4-39.2a9.45 9.45 0 0 0-16.4 0l-22.4 39.2a10.8 10.8 0 0 0-1.42 5.33zm6.62-2.35 22.4-39.2a3.45 3.45 0 0 1 6 0l22.4 39.2a4.74 4.74 0 0 1-4.12 7.09h-42.5a4.74 4.74 0 0 1-4.12-7.09z"/><rect x="47" y="41" width="6" height="16"/><circle cx="50" cy="65" r="3"/></g></svg>
