<svg xmlns="http://www.w3.org/2000/svg" width="287.519" height="287.519" fill="none" viewBox="0 0 287.519 287.519"><path stroke="#fff" stroke-miterlimit="10" stroke-width="15.874" d="M29.39 162.351c-.68-3.175-.907-6.349-1.134-9.524M30.98 125.843c9.977-61.91 68.033-103.865 129.943-94.113s103.865 68.034 94.113 129.945c-9.978 61.91-68.033 103.865-129.944 94.113-32.883-5.216-61.684-24.719-78.919-53.066" style="stroke:#000;stroke-opacity:1"/><path fill="#fff" stroke="#fff" stroke-miterlimit="10" stroke-width="13.607" d="m30.98 130.603-4.536-7.257 10.432 1.814z" style="stroke:#000;stroke-opacity:1"/><path stroke="#fff" stroke-miterlimit="10" stroke-width="15.874" d="M170.452 72.321c-54.427 70.755 47.624 67.58-16.782 146.726M128.718 70.053c-54.427 70.755 47.623 67.581-16.782 146.727M33.931 180.042c-1.134-2.948-2.04-6.123-2.722-9.07M41.41 195.692c-1.589-2.72-2.949-5.669-4.31-8.617" style="stroke:#000;stroke-opacity:1"/></svg>