<?xml version="1.0" encoding="UTF-8" standalone="no"?>
<svg
   width="146.03978mm"
   height="62.426327mm"
   viewBox="0 0 146.03978 62.426327"
   version="1.1"
   id="svg5"
   inkscape:version="1.2-dev (9ee32be, 2021-06-19)"
   sodipodi:docname="corrode.svg"
   xmlns:inkscape="http://www.inkscape.org/namespaces/inkscape"
   xmlns:sodipodi="http://sodipodi.sourceforge.net/DTD/sodipodi-0.dtd"
   xmlns="http://www.w3.org/2000/svg"
   xmlns:svg="http://www.w3.org/2000/svg">
  <sodipodi:namedview
     id="namedview7"
     pagecolor="#ffffff"
     bordercolor="#666666"
     borderopacity="1.0"
     objecttolerance="10.0"
     gridtolerance="10.0"
     guidetolerance="10.0"
     inkscape:pageshadow="2"
     inkscape:pageopacity="0.0"
     inkscape:pagecheckerboard="0"
     inkscape:document-units="mm"
     showgrid="false"
     inkscape:snap-global="false"
     inkscape:zoom="0.69932433"
     inkscape:cx="180.88889"
     inkscape:cy="206.62802"
     inkscape:window-width="1440"
     inkscape:window-height="847"
     inkscape:window-x="0"
     inkscape:window-y="25"
     inkscape:window-maximized="1"
     inkscape:current-layer="layer1"
     showguides="true"
     inkscape:guide-bbox="true"
     fit-margin-top="0"
     fit-margin-left="0"
     fit-margin-right="0"
     fit-margin-bottom="0" />
  <defs
     id="defs2" />
  <g
     inkscape:label="Layer 1"
     inkscape:groupmode="layer"
     id="layer1"
     transform="translate(-6.4318037,-65.074715)">
    <rect
       style="fill:#ffffff;fill-opacity:1;stroke:none;stroke-width:5.29167;stroke-linecap:square;stop-color:#000000"
       id="rect3191"
       width="135.00865"
       height="51.484032"
       x="284.80527"
       y="514.84033"
       inkscape:export-filename="/Users/mendler/Code/corrode/assets/logo/rect3191.png"
       inkscape:export-xdpi="96"
       inkscape:export-ydpi="96" />
    <g
       id="g1498"
       transform="translate(-4.7908971,-9.6892917)">
      <path
         id="path3480"
         style="color:#000000;font-size:37.1164px;-inkscape-font-specification:'Futura PT, Normal';fill:#000000;stroke-width:3.50707"
         d="m 146.8457,390.16211 c -10.00681,0 -17.90869,2.8989 -23.70703,8.69727 -5.98538,5.98537 -8.97851,13.60855 -8.97851,22.86718 0,8.97808 2.80471,16.36578 8.41601,22.16406 5.51778,5.79837 12.99963,8.69727 22.44531,8.69727 6.74005,0 12.52105,-1.43936 17.36133,-4.28906 -2.08961,-2.78344 -4.78961,-7.09306 -6.11241,-10.25991 l 0.0245,-0.13462 c -3.07013,1.55682 -6.50011,2.33789 -10.29101,2.33789 -4.95665,0 -9.1176,-1.58978 -12.48438,-4.76953 -3.55382,-3.55382 -5.33203,-8.2761 -5.33203,-14.16797 0,-5.70482 1.684,-10.24062 5.05078,-13.60742 3.4603,-3.46028 7.80967,-5.18946 13.04688,-5.18946 3.44781,0 6.70496,0.75803 9.77343,2.27539 l -0.0135,0.0679 c 1.32205,-3.02605 4.44377,-8.07839 6.48615,-10.71052 -4.92093,-2.64379 -10.14776,-3.97851 -15.68555,-3.97851 z"
         transform="scale(0.26458333)"
         sodipodi:nodetypes="ssscscccscssscccss" />
      <path
         style="color:#000000;font-size:37.1164px;-inkscape-font-specification:'Futura PT, Normal';fill:#000000;stroke-width:0.927911;-inkscape-stroke:none"
         d="m 46.578777,105.56878 q 2.412566,-2.33834 5.975741,-2.33834 3.563174,0 5.938624,2.33834 2.412566,2.30121 2.412566,5.9015 0,3.56318 -2.412566,5.93863 -2.37545,2.33833 -5.938624,2.33833 -3.563175,0 -5.975741,-2.33833 -2.375449,-2.37545 -2.375449,-5.93863 0,-3.60029 2.375449,-5.9015 z m 2.598148,9.57603 q 1.261958,1.33619 3.377593,1.33619 2.115635,0 3.377592,-1.33619 1.261958,-1.37331 1.261958,-3.63741 0,-2.4868 -1.373307,-3.74876 -1.33619,-1.26195 -3.266243,-1.26195 -1.930053,0 -3.30336,1.26195 -1.33619,1.26196 -1.33619,3.74876 0,2.2641 1.261957,3.63741 z"
         id="path3482" />
      <path
         id="path3484"
         style="color:#000000;font-size:37.1164px;-inkscape-font-specification:'Futura PT, Normal';fill:#000000;stroke-width:0.927912"
         d="m 71.522248,103.23039 c -7.615793,0.0569 -7.601101,4.48683 -7.386111,16.03416 h 3.637502 v -8.09098 c 0,-1.68261 0.333912,-2.8827 1.002006,-3.60029 0.544375,-0.56912 1.299435,-0.8537 2.264463,-0.8537 0.453202,0 0.893752,0.0938 1.322398,0.27802 l 2.006079,-3.03082 c -0.838459,-0.49036 -1.787216,-0.73639 -2.846337,-0.73639 z" />
      <path
         style="color:#000000;font-size:37.1164px;-inkscape-font-specification:'Futura PT, Normal';fill:#000000;stroke-width:0.927911;-inkscape-stroke:none"
         d="m 86.972037,105.56878 q 2.41257,-2.33834 5.97574,-2.33834 3.56318,0 5.93863,2.33834 2.412563,2.30121 2.412563,5.9015 0,3.56318 -2.412563,5.93863 -2.37545,2.33833 -5.93863,2.33833 -3.56317,0 -5.97574,-2.33833 -2.375447,-2.37545 -2.375447,-5.93863 0,-3.60029 2.375447,-5.9015 z m 2.59815,9.57603 q 1.26196,1.33619 3.37759,1.33619 2.11564,0 3.37759,-1.33619 1.26196,-1.37331 1.26196,-3.63741 0,-2.4868 -1.37331,-3.74876 -1.33619,-1.26195 -3.26624,-1.26195 -1.93005,0 -3.30336,1.26195 -1.33619,1.26196 -1.33619,3.74876 0,2.2641 1.26196,3.63741 z"
         id="path3486" />
      <path
         style="color:#000000;font-size:37.1164px;-inkscape-font-specification:'Futura PT, Normal';fill:#000000;stroke-width:0.927911;-inkscape-stroke:none"
         d="M 115.96143,105.45743 V 92.206873 h 4.16657 c 0.0967,20.632207 1.47164,27.586367 -8.84324,27.540367 -2.30122,0 -4.14467,-0.81656 -5.53035,-2.44968 -1.36093,-1.63312 -2.0414,-3.58792 -2.0414,-5.86439 0,-2.47443 0.72996,-4.45397 2.18987,-5.93863 1.48465,-1.5094 3.29098,-2.2641 5.41899,-2.2641 1.9548,0 3.50132,0.74233 4.63956,2.22699 z m -4.19416,1.03926 c -1.2867,0 -2.33833,0.48251 -3.15489,1.44754 -0.79182,0.96503 -1.18773,2.15275 -1.18773,3.56317 0,1.38568 0.39591,2.56103 1.18773,3.52606 0.81656,0.96503 1.86819,1.44754 3.15489,1.44754 1.23721,0 2.27647,-0.43303 3.11778,-1.29908 0.86605,-0.86605 1.29907,-2.07851 1.29907,-3.6374 0,-1.60838 -0.43302,-2.84559 -1.29907,-3.71164 -0.84131,-0.89079 -1.88057,-1.33619 -3.11778,-1.33619 z"
         id="path3488"
         sodipodi:nodetypes="cccccscscscscscscs" />
      <path
         id="path3492"
         style="color:#000000;font-size:37.1164px;-inkscape-font-specification:'Futura PT, Normal';fill:#000000;stroke-width:0.927912"
         d="m 81.576415,103.23039 c -7.615793,0.0569 -7.601101,4.48683 -7.386111,16.03416 h 3.637502 v -8.09098 c 0,-1.68261 0.333912,-2.88271 1.002006,-3.6003 0.544375,-0.56912 1.299435,-0.85369 2.264463,-0.85369 0.453202,0 0.893752,0.0938 1.322398,0.27802 l 2.006077,-3.03083 c -0.838457,-0.49035 -1.787214,-0.73638 -2.846335,-0.73638 z" />
      <path
         style="color:#000000;font-size:37.1164px;-inkscape-font-specification:'Futura PT, Normal';fill:#000000;stroke-width:0.927911;-inkscape-stroke:none"
         d="m 46.578777,105.56878 q 2.412566,-2.33834 5.975741,-2.33834 3.563174,0 5.938624,2.33834 2.412566,2.30121 2.412566,5.9015 0,3.56318 -2.412566,5.93863 -2.37545,2.33833 -5.938624,2.33833 -3.563175,0 -5.975741,-2.33833 -2.375449,-2.37545 -2.375449,-5.93863 0,-3.60029 2.375449,-5.9015 z m 2.598148,9.57603 q 1.261958,1.33619 3.377593,1.33619 2.115635,0 3.377592,-1.33619 1.261958,-1.37331 1.261958,-3.63741 0,-2.4868 -1.373307,-3.74876 -1.33619,-1.26195 -3.266243,-1.26195 -1.930053,0 -3.30336,1.26195 -1.33619,1.26196 -1.33619,3.74876 0,2.2641 1.261957,3.63741 z"
         id="path3608" />
      <path
         id="path3651"
         style="color:#000000;font-size:37.1164px;-inkscape-font-specification:'Futura PT, Normal';fill:#000000;stroke-width:0.927912"
         d="m 131.98627,103.23039 c -2.64764,0 -4.73835,0.767 -6.27249,2.30115 -1.58364,1.58363 -2.37557,3.6006 -2.37557,6.05028 0,2.37545 0.74208,4.33011 2.22674,5.86424 1.45991,1.53415 3.43949,2.30115 5.93866,2.30115 1.7833,0 3.31286,-0.38083 4.59352,-1.13481 -0.55288,-0.73645 -1.0029,-1.52424 -1.35289,-2.36213 l -0.25787,-0.38809 c -0.8123,0.41191 -1.71982,0.61856 -2.72283,0.61856 -1.31144,0 -2.41236,-0.42062 -3.30316,-1.26193 -0.94028,-0.94029 -1.41076,-2.18972 -1.41076,-3.74861 0,-1.5094 0.44555,-2.7095 1.33635,-3.6003 0.91554,-0.91553 2.06631,-1.37304 3.45199,-1.37304 0.91223,0 2.59363,0.37268 3.5296,2.41688 0.48883,1.43736 2.27723,3.04244 2.87408,2.26574 0.51285,-6.14407 -4.20942,-7.94909 -6.25537,-7.94909 z"
         sodipodi:nodetypes="ssscscccscsssccs" />
      <rect
         style="fill:#000000;fill-opacity:1;stroke:none;stroke-width:0.312733;stroke-linecap:square;stop-color:#000000"
         id="rect3709"
         width="13.14959"
         height="2.6530793"
         x="99.235512"
         y="127.55591"
         transform="matrix(0.98979579,-0.14249314,0.20698279,0.97834458,0,0)" />
    </g>
  </g>
</svg>
