<svg xmlns="http://www.w3.org/2000/svg" width="200" height="85" viewBox="0 0 200 85.5"><path d="m165.192 18.534-6.6.03v20.6c-8.634-5.485-23.28-1.166-23.28 12.48 0 20.182 30.335 18.865 29.88-.01zM43.093 36.7c-8.148 0-14.96 5.716-14.96 14.79 0 8.599 6.367 14.801 14.96 14.801 8.464 0 14.92-6.2 14.92-14.79 0-8.791-6.591-14.801-14.92-14.801m72.5 0c-6.784 0-14.614 4.16-14.97 14.79 0 8.748 6.556 14.801 14.97 14.801 8.474 0 14.93-6.212 14.93-14.79 0-8.87-6.698-14.801-14.93-14.801m-41.054.002c-6.02.032-11.877 4.563-11.707 11.739v17.85l6.683-.022-.25-15.927c0-7.276 5.415-7.84 8.31-7.39l2.9-4.657a11.5 11.5 0 0 0-5.936-1.593m17.917 0c-6.019.032-11.877 4.563-11.707 11.739v17.85l6.683-.022-.25-15.927c0-7.276 5.415-7.84 8.311-7.39l2.9-4.657a11.5 11.5 0 0 0-5.937-1.593m-74.936.002c-7.362.053-14.377 5.52-14.377 14.945 0 14.417 15.027 17.221 22.82 12.59-1.16-1.52-2.078-3.198-2.891-4.92-5.261 2.648-13.32.717-13.32-7.87 0-8.528 8.048-10.399 13.21-7.84.52-1.397 2.136-4.165 3.07-5.04-2.279-1.243-4.835-1.892-8.512-1.865m166.727.126c-6.922.155-14.114 5.18-14.114 14.8 0 14.198 14.814 17.353 22.83 12.588l-2.88-4.929c-5.135 2.544-11.713.7-13.04-5.21l19.7-2.829c1.078-9.86-5.574-14.575-12.496-14.42m.998 5.736c2.797-.086 5.255 1.465 6.568 4.8l-14.49 1.994c.679-4.107 4.325-6.683 7.922-6.794m-141.653.024c2.716 0 8.31 1.41 8.31 8.98 0 5.313-3.079 8.92-8.31 8.92-5.172 0-8.32-3.526-8.32-8.92 0-8.535 6.885-8.98 8.32-8.98m72.5 0c2.716 0 8.31 1.41 8.31 8.98 0 5.295-3.056 8.92-8.31 8.92-5.242 0-8.32-3.629-8.32-8.92 0-8.535 6.885-8.98 8.32-8.98m34.505.03c4.157.034 8.316 3.11 8.316 9.125 0 12.024-16.63 12.05-16.63 0 0-6.152 4.156-9.16 8.314-9.126m2226.692-755.486h6.52c0-12.105-1.226-24.512 8.22-21.981l3.6-5.43c-20.776-6.381-18.34 15.492-18.34 27.41"/></svg>