<svg xmlns="http://www.w3.org/2000/svg" width="933.333" height="933.333" viewBox="0 0 700 700"><path d="M216.9.4c-.2.2-3.3.7-6.9 1.1-13.4 1.3-15.4 1.6-24.3 3.6-11.3 2.5-24.6 6.2-31.2 8.7-2.7 1.1-7.7 3-11 4.3-8 3-30.8 14.7-37.6 19.2-10.2 6.9-12.1 8.2-21.2 15.5-13 10.4-26.3 23.5-35.2 34.7-2.2 2.7-4.8 5.9-5.8 7-4.9 5.4-21.3 32.4-25.6 42-.7 1.6-1.7 3.8-2.2 4.8-.5.9-2.3 5.2-4 9.5-2.6 6.5-3.6 9.2-5.4 15.2-.1.3-.4 1.2-.8 2-.5 1.4-2.4 8-4.4 15.5-.4 1.6-.8 76.8-.8 167 0 157.2.1 164.2 1.9 170 1 3.3 1.9 6.4 2 7 .8 3.4 3.1 10.1 3.8 11 .4.5.8 1.7.8 2.7s.4 2.6.9 3.6c.5.9 2.6 5.7 4.7 10.7 2.1 4.9 5.1 11.2 6.6 14 1.6 2.7 3.6 6.7 4.4 8.8.9 2 2 3.7 2.5 3.7s.9.5.9 1.1 2.3 4.5 5.1 8.7c28 41.8 67 73.4 112.9 91.5 10.5 4.1 25.8 9 32 10.1 1.4.2 5.8 1.2 9.8 2 7.9 1.7 10.7 2.1 22.2 3.3 4.1.5 65.8.8 137 .8 99 0 131.3-.3 137-1.3 4.1-.6 9.1-1.5 11-1.8 20.6-3.3 50-13.2 69-23.2 47.3-25 82.9-61.7 106-109.6 3.3-6.8 6-13 6-13.8s.4-1.8.8-2.4c.9-1 4.3-9.6 4.6-11.7.1-.6.5-1.7.9-2.3 1.1-1.8 7.4-28.4 8.1-34.3.4-2.9.8-5.6 1-6 1.6-2.6 2-35.7 2.1-143.1 0-108.4-.3-130.8-1.9-142-1.4-9.4-1.9-12.2-3.2-18-.9-3.6-1.7-7.2-1.9-8-1-4.9-4-15.6-5.5-19.5-4.8-12.8-9.3-23.1-14.6-33.2-6.6-12.8-19-32.3-20.5-32.3-.5 0-.8-.3-.6-.8.1-.4-1.6-3-3.8-5.7-15.5-19.3-33.7-36-54.1-49.8-8.4-5.6-25.4-15.5-27.6-15.9-.7-.2-1.5-.6-1.8-.9s-4.8-2.4-10-4.6c-8.1-3.4-15.3-5.9-32.5-11.2-2.5-.8-9.7-2.4-20.5-4.6-.8-.1-4-.6-7-1s-6.4-1-7.5-1.3C479.3.5 217.6-.2 216.9.4"/></svg>