<?xml version="1.0" encoding="UTF-8" standalone="no"?>
<svg
   class="viz"
   preserveAspectRatio="xMinYMin meet"
   viewBox="0 0 896 230"
   version="1.1"
   id="svg27"
   sodipodi:docname="async-std-github.svg"
   inkscape:version="1.3 (0e150ed, 2023-07-21)"
   xmlns:inkscape="http://www.inkscape.org/namespaces/inkscape"
   xmlns:sodipodi="http://sodipodi.sourceforge.net/DTD/sodipodi-0.dtd"
   xmlns="http://www.w3.org/2000/svg"
   xmlns:svg="http://www.w3.org/2000/svg">
  <defs
     id="defs27" />
  <sodipodi:namedview
     id="namedview27"
     pagecolor="#ffffff"
     bordercolor="#666666"
     borderopacity="1.0"
     inkscape:showpageshadow="2"
     inkscape:pageopacity="0.0"
     inkscape:pagecheckerboard="0"
     inkscape:deskcolor="#d1d1d1"
     inkscape:zoom="0.78469413"
     inkscape:cx="351.72941"
     inkscape:cy="95.578643"
     inkscape:window-width="1728"
     inkscape:window-height="1051"
     inkscape:window-x="0"
     inkscape:window-y="38"
     inkscape:window-maximized="0"
     inkscape:current-layer="svg27" />
  <path
     stroke="currentColor"
     d="m 50.5,186 v -5.5 h 826 v 5.5"
     class="domain"
     id="path1"
     style="font-size:10px;font-family:sans-serif;text-anchor:middle;fill:none" />
  <path
     stroke="currentColor"
     d="m 82.435,180 v 6"
     id="path2"
     style="font-size:10px;font-family:sans-serif;text-anchor:middle;fill:none" />
  <text
     y="189"
     fill="#6a737d"
     dy="8.5199995"
     id="text2"
     style="font-size:10px;font-family:sans-serif;text-anchor:middle;fill:#000000;fill-opacity:1"
     x="82.434998">October</text>
  <path
     stroke="currentColor"
     d="m 133.187,180 v 6"
     id="path3"
     style="font-size:10px;font-family:sans-serif;text-anchor:middle;fill:none" />
  <text
     y="189"
     fill="#6a737d"
     dy="8.5199995"
     id="text3"
     style="font-size:10px;font-family:sans-serif;text-anchor:middle;fill:#000000;fill-opacity:1"
     x="133.187">2020</text>
  <path
     stroke="currentColor"
     d="m 183.34,180 v 6"
     id="path4"
     style="font-size:10px;font-family:sans-serif;text-anchor:middle;fill:none" />
  <text
     y="189"
     fill="#6a737d"
     dy="8.5199995"
     id="text4"
     style="font-size:10px;font-family:sans-serif;text-anchor:middle;fill:#000000;fill-opacity:1"
     x="183.34">April</text>
  <path
     stroke="currentColor"
     d="m 233.52,180 v 6"
     id="path5"
     style="font-size:10px;font-family:sans-serif;text-anchor:middle;fill:none" />
  <text
     y="189"
     fill="#6a737d"
     dy="8.5199995"
     id="text5"
     style="font-size:10px;font-family:sans-serif;text-anchor:middle;fill:#000000;fill-opacity:1"
     x="233.52">July</text>
  <path
     stroke="currentColor"
     d="m 284.25,180 v 6"
     id="path6"
     style="font-size:10px;font-family:sans-serif;text-anchor:middle;fill:none" />
  <text
     y="189"
     fill="#6a737d"
     dy="8.5199995"
     id="text6"
     style="font-size:10px;font-family:sans-serif;text-anchor:middle;fill:#000000;fill-opacity:1"
     x="284.25">October</text>
  <path
     stroke="currentColor"
     d="m 335,180 v 6"
     id="path7"
     style="font-size:10px;font-family:sans-serif;text-anchor:middle;fill:none" />
  <text
     y="189"
     fill="#6a737d"
     dy="8.5199995"
     id="text7"
     style="font-size:10px;font-family:sans-serif;text-anchor:middle;fill:#000000;fill-opacity:1"
     x="335">2021</text>
  <path
     stroke="currentColor"
     d="m 384.6,180 v 6"
     id="path8"
     style="font-size:10px;font-family:sans-serif;text-anchor:middle;fill:none" />
  <text
     y="189"
     fill="#6a737d"
     dy="8.5199995"
     id="text8"
     style="font-size:10px;font-family:sans-serif;text-anchor:middle;fill:#000000;fill-opacity:1"
     x="384.60001">April</text>
  <path
     stroke="currentColor"
     d="m 434.78,180 v 6"
     id="path9"
     style="font-size:10px;font-family:sans-serif;text-anchor:middle;fill:none" />
  <text
     y="189"
     fill="#6a737d"
     dy="8.5199995"
     id="text9"
     style="font-size:10px;font-family:sans-serif;text-anchor:middle;fill:#000000;fill-opacity:1"
     x="434.78">July</text>
  <path
     stroke="currentColor"
     d="m 485.51,180 v 6"
     id="path10"
     style="font-size:10px;font-family:sans-serif;text-anchor:middle;fill:none" />
  <text
     y="189"
     fill="#6a737d"
     dy="8.5199995"
     id="text10"
     style="font-size:10px;font-family:sans-serif;text-anchor:middle;fill:#000000;fill-opacity:1"
     x="485.51001">October</text>
  <path
     stroke="currentColor"
     d="m 536.26,180 v 6"
     id="path11"
     style="font-size:10px;font-family:sans-serif;text-anchor:middle;fill:none" />
  <text
     y="189"
     fill="#6a737d"
     dy="8.5199995"
     id="text11"
     style="font-size:10px;font-family:sans-serif;text-anchor:middle;fill:#000000;fill-opacity:1"
     x="536.26001">2022</text>
  <path
     stroke="currentColor"
     d="m 585.87,180 v 6"
     id="path12"
     style="font-size:10px;font-family:sans-serif;text-anchor:middle;fill:none" />
  <text
     y="189"
     fill="#6a737d"
     dy="8.5199995"
     id="text12"
     style="font-size:10px;font-family:sans-serif;text-anchor:middle;fill:#000000;fill-opacity:1"
     x="585.87">April</text>
  <path
     stroke="currentColor"
     d="m 636.04,180 v 6"
     id="path13"
     style="font-size:10px;font-family:sans-serif;text-anchor:middle;fill:none" />
  <text
     y="189"
     fill="#6a737d"
     dy="8.5199995"
     id="text13"
     style="font-size:10px;font-family:sans-serif;text-anchor:middle;fill:#000000;fill-opacity:1"
     x="636.03998">July</text>
  <path
     stroke="currentColor"
     d="m 686.77,180 v 6"
     id="path14"
     style="font-size:10px;font-family:sans-serif;text-anchor:middle;fill:none" />
  <text
     y="189"
     fill="#6a737d"
     dy="8.5199995"
     id="text14"
     style="font-size:10px;font-family:sans-serif;text-anchor:middle;fill:#000000;fill-opacity:1"
     x="686.77002">October</text>
  <path
     stroke="currentColor"
     d="m 737.52,180 v 6"
     id="path15"
     style="font-size:10px;font-family:sans-serif;text-anchor:middle;fill:none" />
  <text
     y="189"
     fill="#6a737d"
     dy="8.5199995"
     id="text15"
     style="font-size:10px;font-family:sans-serif;text-anchor:middle;fill:#000000;fill-opacity:1"
     x="737.52002">2023</text>
  <path
     stroke="currentColor"
     d="m 787.13,180 v 6"
     id="path16"
     style="font-size:10px;font-family:sans-serif;text-anchor:middle;fill:none" />
  <text
     y="189"
     fill="#6a737d"
     dy="8.5199995"
     id="text16"
     style="font-size:10px;font-family:sans-serif;text-anchor:middle;fill:#000000;fill-opacity:1"
     x="787.13">April</text>
  <path
     stroke="currentColor"
     d="m 837.3,180 v 6"
     id="path17"
     style="font-size:10px;font-family:sans-serif;text-anchor:middle;fill:none" />
  <text
     y="189"
     fill="#6a737d"
     dy="8.5199995"
     id="text17"
     style="font-size:10px;font-family:sans-serif;text-anchor:middle;fill:#000000;fill-opacity:1"
     x="837.29999">July</text>
  <path
     stroke="currentColor"
     d="M 50,180.5 H 876"
     id="path19"
     style="font-size:10px;font-family:sans-serif;text-anchor:end;fill:none" />
  <text
     x="40"
     fill="#6a737d"
     dy="3.8399999"
     id="text19"
     style="font-size:10px;font-family:sans-serif;text-anchor:end;fill:#000000;fill-opacity:1"
     y="180.5">0</text>
  <text
     x="40"
     fill="#6a737d"
     dy="3.8399999"
     id="text20"
     style="font-size:10px;font-family:sans-serif;text-anchor:end;fill:#000000;fill-opacity:1"
     y="154.05">20</text>
  <text
     x="40"
     fill="#6a737d"
     dy="3.8399999"
     id="text21"
     style="font-size:10px;font-family:sans-serif;text-anchor:end;fill:#000000;fill-opacity:1"
     y="127.61">40</text>
  <text
     x="40"
     fill="#6a737d"
     dy="3.8399999"
     id="text22"
     style="font-size:10px;font-family:sans-serif;text-anchor:end;fill:#000000;fill-opacity:1"
     y="101.161">60</text>
  <text
     x="40"
     fill="#6a737d"
     dy="3.8399999"
     id="text23"
     style="font-size:10px;font-family:sans-serif;text-anchor:end;fill:#000000;fill-opacity:1"
     y="74.714996">80</text>
  <text
     x="40"
     fill="#6a737d"
     dy="3.8399999"
     id="text24"
     style="font-size:10px;font-family:sans-serif;text-anchor:end;fill:#000000;fill-opacity:1"
     y="48.269001">100</text>
  <text
     x="40"
     fill="#6a737d"
     dy="3.8399999"
     id="text25"
     style="font-size:10px;font-family:sans-serif;text-anchor:end;fill:#000000;fill-opacity:1"
     y="21.822001">120</text>
  <path
     d="m50 172.07.643-11.901c.644-11.901 1.93-35.702 3.217-39.008 1.286-3.306 2.573 13.884 3.86 23.361 1.286 9.477 2.573 11.24 3.86 12.342 1.286 1.102 2.573 1.543 3.86-3.747 1.286-5.289 2.572-16.309 3.859-25.124 1.287-8.815 2.573-15.427 3.86-13.223 1.286 2.204 2.573 13.223 3.86 16.97 1.286 3.747 2.573.22 3.86 1.543 1.286 1.322 2.573 7.493 3.86-10.579 1.286-18.072 2.572-60.386 3.859-64.353 1.287-3.967 2.573 30.413 3.86 38.347 1.286 7.934 2.573-10.579 3.86-7.934 1.286 2.645 2.573 26.446 3.86 28.43 1.286 1.984 2.573-17.85 3.86-17.85 1.286 0 2.572 19.834 3.859 31.514s2.573 15.207 3.86 20.716c1.286 5.51 2.573 13.003 3.86 14.766 1.286 1.763 2.573-2.204 3.86-3.526 1.286-1.322 2.573 0 3.86 2.424 1.286 2.424 2.572 5.95 3.859 8.375 1.287 2.424 2.573 3.746 3.86 3.526 1.286-.22 2.573-1.983 3.86-8.154 1.286-6.171 2.573-16.75 3.86-16.53 1.286.221 2.573 11.24 3.86 16.31 1.286 5.069 2.572 4.187 3.859 3.085 1.287-1.102 2.573-2.424 3.86-1.322 1.286 1.102 2.573 4.628 3.86 5.069 1.286.44 2.573-2.204 3.86-1.984 1.286.22 2.573 3.306 3.86 2.645 1.286-.661 2.572-5.069 3.859-5.95 1.287-.882 2.573 1.763 3.86.881 1.286-.882 2.573-5.29 3.86-5.069 1.286.22 2.573 5.069 3.86 7.714 1.286 2.644 2.573 3.085 3.86 3.305 1.286.22 2.572.22 3.859.441 1.287.22 2.573.661 3.86-1.763 1.286-2.424 2.573-7.713 3.86-11.019 1.286-3.306 2.573-4.628 3.86-3.306 1.286 1.323 2.573 5.29 3.86 7.934 1.286 2.645 2.572 3.967 3.859 4.408 1.287.44 2.573 0 3.86.661 1.286.661 2.573 2.424 3.86 1.763 1.286-.661 2.573-3.746 3.86-4.628 1.286-.881 2.573.44 3.86.661 1.286.22 2.572-.66 3.859-1.102 1.287-.44 2.573-.44 3.86 1.102 1.286 1.543 2.573 4.628 3.86 6.171 1.286 1.543 2.573 1.543 3.86 1.102 1.286-.44 2.573-1.322 3.86-2.424 1.286-1.102 2.572-2.424 3.859-2.424s2.573 1.322 3.86 1.983c1.286.661 2.573.661 3.86.882 1.286.22 2.573.66 3.86 0 1.286-.662 2.573-2.425 3.86-2.425 1.286 0 2.572 1.763 3.859 2.645 1.287.882 2.573.882 3.86.882 1.286 0 2.573 0 3.86-1.323 1.286-1.322 2.573-3.967 3.86-3.967 1.286 0 2.573 2.645 3.86 3.967 1.286 1.323 2.572 1.323 3.859 1.543 1.287.22 2.573.661 3.86.44 1.286-.22 2.573-1.101 3.86-1.322 1.286-.22 2.573.22 3.86.441 1.286.22 2.573.22 3.86-.22 1.286-.441 2.572-1.323 3.859-1.323s2.573.882 3.86 1.543c1.286.661 2.573 1.102 3.86 1.322 1.286.22 2.573.22 3.86-1.101 1.286-1.323 2.573-3.967 3.86-4.629 1.286-.66 2.572.662 3.859 1.984s2.573 2.645 3.86 2.865c1.286.22 2.573-.661 3.86-1.102a5.799 5.799 0 0 1 3.86 0c1.286.44 2.573 1.322 3.86.22 1.286-1.101 2.572-4.187 3.859-4.187s2.573 3.086 3.86 4.628c1.286 1.543 2.573 1.543 3.86 1.543h3.86c1.286 0 2.573 0 3.86-.22 1.286-.22 2.572-.662 3.859-.662s2.573.441 3.86.441 2.573-.44 3.86-.44c1.286 0 2.573.44 3.86.66 1.286.22 2.573.22 3.86.22H455.278c1.287 0 2.573 0 3.86-.44 1.286-.44 2.573-1.322 3.86-1.322s2.573.881 3.86 1.322c1.286.44 2.573.44 3.86.44 1.286 0 2.572 0 3.859-.44s2.573-1.322 3.86-1.322c1.286 0 2.573.881 3.86 1.322 1.286.44 2.573.44 3.86.44h77.196c1.286 0 2.573 0 3.86-2.644 1.286-2.644 2.572-7.934 3.859-8.374 1.287-.441 2.573 3.967 3.86 6.611s2.573 3.526 3.86 3.967c1.286.44 2.573.44 3.86.44h3.86c1.286 0 2.572 0 3.859-.22s2.573-.66 3.86-.881a11.35 11.35 0 0 1 3.86 0c1.286.22 2.573.661 3.86.882 1.286.22 2.573.22 3.86.22h3.859c1.287 0 2.573 0 3.86-2.204 1.286-2.204 2.573-6.612 3.86-6.612 1.286 0 2.573 4.408 3.86 5.73 1.286 1.323 2.573-.44 3.86-1.101 1.286-.662 2.572-.22 3.859.44s2.573 1.543 3.86 2.204c1.286.661 2.573 1.102 3.86 1.322 1.286.22 2.573.22 3.86.22H648.268c1.287 0 2.573 0 3.86-.22 1.286-.22 2.573-.66 3.86-1.322 1.286-.661 2.573-1.543 3.86-1.322 1.286.22 2.573 1.543 3.86 2.204 1.286.66 2.572.66 3.859.66h38.598c1.287 0 2.573 0 3.86-.22 1.286-.22 2.573-.66 3.86-.66 1.286 0 2.573.44 3.86.66 1.286.22 2.573.22 3.86.22h73.336c1.286 0 2.573 0 3.86-.66 1.286-.661 2.572-1.984 3.859-1.984s2.573 1.323 3.86 1.984c1.286.66 2.573.66 3.86.66h65.616H50z"
     class="area"
     id="path26" />
  <g
     fill="none"
     class="selection"
     id="g27">
    <path
       d="M50 20h826v160H50z"
       class="overlay"
       id="path27" />
  </g>
</svg>
