<svg xmlns="http://www.w3.org/2000/svg" fill="currentColor" viewBox="0 0 78 26"><path d="M77.885 7.543c-.793-5.095-5.17-7.21-10.169-7.21-5.688 0-10.76 2.527-13.866 7.163-1.867 2.786-3.139 6.886-2.623 10.199.798 5.13 5.168 7.162 10.18 7.162 5.736 0 10.722-2.368 13.836-7.044 1.865-2.801 3.16-6.941 2.642-10.27m-11.223 9.54c-1.654 1.706-5.215 2.473-6.433.024-1.169-2.35.441-6.998 2.243-8.806q1.533-1.539 3.61-1.539t2.817 1.539c1.135 2.358-.466 6.956-2.237 8.782M51.27 10.387c.65-2.518.411-5.195-1.442-7.209C47.88 1.061 44.898.333 42.043.333c-5.327 0-10.007 2.386-13.035 6.52-2.042 2.789-3.14 5.965-3.086 8.865.123 6.724 6.093 9.314 12.138 9.13 3.799-.115 8.313-2.052 9.606-4.551.66-1.276.096-3.822-2.03-2.55-3.03 1.815-11.73 2.322-12.326-1.968l13.519-1.876c2.272-.315 3.87-1.31 4.44-3.516m-7.924-1.342-8.705 1.288c.787-2.395 2.893-4.047 5.613-4.047 1.757 0 3.278.952 3.092 2.76M20.036 2.523 12.284 18.85c-.131-4.676-.45-10.72-.807-15.384C11.157-.344 8.265.078 5.487.98c-1.65.536-3.467 1.344-4.86 1.886-.893.347-.826 1.502.16 1.757 2.546.657 2.558 2.085 2.861 4.43l1.538 11.88c.21 1.618.434 3.178 2.152 3.692 2.877.863 8.923.93 11.256-3.256l11.091-19.9C30.95-.8 20.882.743 20.036 2.524"/></svg>