<svg xmlns="http://www.w3.org/2000/svg" xml:space="preserve" width="272.811" height="272.415" viewBox="0 0 72.181 72.076"><path d="M-167.645 200.836c-2.62.058-5.635-.004-6.7-.138-1.067-.134-2.95-.484-4.187-.778-1.236-.293-3.47-1.012-4.964-1.596s-3.76-1.684-5.036-2.444-3.288-2.186-4.474-3.168c-1.186-.981-2.91-2.65-3.83-3.707-.922-1.058-2.206-2.72-2.855-3.694-.65-.974-1.699-2.82-2.333-4.101-.633-1.281-1.455-3.297-1.826-4.48a60 60 0 0 1-1.153-4.365c-.37-1.72-.477-3.4-.477-7.508 0-4.107.107-5.787.477-7.507a60 60 0 0 1 1.153-4.366c.37-1.182 1.193-3.198 1.826-4.48.634-1.281 1.686-3.126 2.338-4.1.652-.975 1.867-2.578 2.7-3.563s2.554-2.652 3.825-3.704c1.27-1.052 3.264-2.488 4.43-3.192 1.166-.703 3.282-1.757 4.702-2.341s3.685-1.343 5.033-1.685 3.74-.763 5.314-.934c1.712-.187 4.563-.253 7.095-.165 2.733.095 5.219.347 7.012.712 1.528.31 3.67.945 4.762 1.411l1.985.848.07 7.471.07 7.471h-.888c-.757 0-1.217-.323-3.113-2.188-1.64-1.614-2.746-2.445-4.209-3.161-1.091-.535-3.009-1.268-4.26-1.628-1.252-.36-3.11-.738-4.127-.838-1.057-.104-2.846-.05-4.168.126-1.274.17-3.309.641-4.522 1.049-1.212.407-3.135 1.265-4.272 1.905-1.43.805-2.89 1.978-4.744 3.81-1.871 1.849-3.047 3.282-3.907 4.762-.677 1.164-1.588 3.04-2.024 4.17s-.97 2.814-1.185 3.742c-.215.929-.504 2.77-.64 4.094a25 25 0 0 0 .008 4.914c.14 1.38.483 3.398.76 4.483.278 1.085.873 2.855 1.321 3.932.449 1.078 1.434 2.901 2.189 4.051s2.21 2.936 3.235 3.97c1.024 1.032 2.576 2.357 3.45 2.943.873.586 2.242 1.397 3.042 1.802s2.276 1.016 3.278 1.357 2.772.8 3.932 1.02 3.316.398 4.792.396c1.579-.002 3.662-.206 5.064-.497 1.31-.272 3.359-.872 4.553-1.335 1.195-.462 3.094-1.442 4.221-2.178s2.813-2.068 3.746-2.961 2.216-2.351 2.852-3.24c.636-.888 1.512-2.377 1.945-3.307s.985-2.461 1.224-3.401c.366-1.436.385-1.937.118-3.129-.237-1.061-.595-1.707-1.418-2.563-.79-.82-1.507-1.263-2.539-1.567-.79-.234-2.202-.424-3.136-.424s-2.422.187-3.305.415c-.882.229-2.328.78-3.213 1.226-.968.488-2.294 1.507-3.33 2.561-1.153 1.172-2.046 2.407-2.699 3.735-.537 1.091-1.216 2.877-1.51 3.969-.293 1.091-.656 2.993-.807 4.226-.15 1.233-.274 2.751-.274 3.374v1.131h-2.305l-.183-2.425c-.101-1.333-.345-3.268-.543-4.3a27 27 0 0 0-1.04-3.675c-.374-.991-1.174-2.507-1.778-3.368-.604-.862-1.713-2.04-2.464-2.62-.75-.579-2.06-1.371-2.91-1.76-.85-.39-2.394-.931-3.43-1.204s-3.223-.573-4.86-.667l-2.977-.17v-2.491l2.977-.147c1.692-.083 3.89-.385 5.093-.7 1.164-.304 2.89-.93 3.837-1.392 1.07-.521 2.322-1.445 3.313-2.445.876-.884 1.97-2.323 2.429-3.197s1.085-2.482 1.39-3.572.695-3.5.866-5.356l.31-3.373h2.196l.172 2.58c.095 1.418.408 3.56.697 4.761.289 1.2.895 2.916 1.348 3.813s1.406 2.247 2.118 3 1.888 1.692 2.612 2.086 2.125.888 3.112 1.097c1.394.296 4.266.382 12.881.385l11.088.005-.163 4.035c-.09 2.22-.349 5.106-.577 6.416s-.77 3.535-1.204 4.945-1.44 3.85-2.234 5.424c-.794 1.573-1.983 3.575-2.642 4.448s-2 2.412-2.98 3.42-2.682 2.5-3.781 3.315-2.947 1.972-4.106 2.572-3.155 1.46-4.435 1.909c-1.281.45-3.484 1.061-4.895 1.36-1.861.394-3.875.572-7.329.648z" style="fill:#000" transform="translate(205.48 -128.781)"/></svg>