<svg xmlns="http://www.w3.org/2000/svg" xml:space="preserve" viewBox="-173 -143 900 900"><path fill="none" d="M-173-143h900v900h-900z"/><path d="m694.1 394.9-81-352.7A64.6 64.6 0 0 0 571.7-2L201.5-116.2c-4.6-1.8-10.1-1.8-15.7-1.8a70.5 70.5 0 0 0-43.3 15.7l-265.2 246.8a63 63 0 0 0-17.5 57.1l86.6 377.6a64.4 64.4 0 0 0 41.4 44.2L334 730.2c4.6 1.8 10.1 1.8 15.7 1.8 15.7 0 32.2-6.4 43.3-15.7L676.6 453a64.6 64.6 0 0 0 17.5-58.1M240.2-32.4l254.1 78.3c10.1 2.8 10.1 7.4 0 10.1L360.8 86.4a35.6 35.6 0 0 1-31.3-9.2l-93-100.4c-8.3-8.2-6.5-11.9 3.7-9.2m158.3 455.9c2.8 10.1-3.7 15.7-13.8 12.9l-274.4-84.7c-10.1-2.8-12-11.1-4.6-18.4l210-195.3c7.4-7.4 15.7-4.6 18.4 5.5zM-53.6 174.8 169.3-32.4c7.4-7.4 19.3-6.4 26.7.9L307.4 89.2c7.4 7.4 6.4 19.3-.9 26.7L83.6 323.1c-7.4 7.4-19.3 6.4-26.7-.9L-54.5 201.6a19 19 0 0 1 .9-26.8M.8 503.6l-58.9-258.8c-2.8-10.1 1.8-12 8.3-4.6l93 100.4c7.4 7.4 10.1 22.1 7.4 32.2L10 503.6c-2.8 10.1-7.4 10.1-9.2 0m325.9 151-291-89.3a19.4 19.4 0 0 1-12.9-23.9l48.8-156.6a19.4 19.4 0 0 1 23.9-12.9l291 89.3a19.4 19.4 0 0 1 12.9 23.9l-48.8 156.6a19.6 19.6 0 0 1-23.9 12.9m257.8-211.8L390.3 623.3c-7.4 7.4-11 4.6-8.3-5.5L422.5 487a34 34 0 0 1 23.9-22.1l133.5-30.4c10.2-2.7 12 1.9 4.6 8.3m21.2-38.6L445.5 441a19 19 0 0 1-23-13.8l-68.1-296.5a19 19 0 0 1 13.8-23l160.2-36.8a19 19 0 0 1 23 13.8l68.1 296.5c2.8 11-3.6 21.1-13.8 23"/></svg>