<?xml version="1.0" encoding="UTF-8" standalone="no"?>
<!-- Created with Inkscape (http://www.inkscape.org/) -->

<svg
   width="164.00198mm"
   height="164.00198mm"
   viewBox="0 0 164.00198 164.00198"
   version="1.1"
   id="svg1"
   xml:space="preserve"
   inkscape:version="1.3 (0e150ed, 2023-07-21)"
   sodipodi:docname="logo.svg"
   xmlns:inkscape="http://www.inkscape.org/namespaces/inkscape"
   xmlns:sodipodi="http://sodipodi.sourceforge.net/DTD/sodipodi-0.dtd"
   xmlns="http://www.w3.org/2000/svg"
   xmlns:svg="http://www.w3.org/2000/svg"><sodipodi:namedview
     id="namedview1"
     pagecolor="#ffffff"
     bordercolor="#666666"
     borderopacity="1.0"
     inkscape:showpageshadow="2"
     inkscape:pageopacity="0.0"
     inkscape:pagecheckerboard="0"
     inkscape:deskcolor="#d1d1d1"
     inkscape:document-units="mm"
     inkscape:zoom="0.70135184"
     inkscape:cx="418.47755"
     inkscape:cy="402.08064"
     inkscape:window-width="1920"
     inkscape:window-height="1027"
     inkscape:window-x="0"
     inkscape:window-y="25"
     inkscape:window-maximized="0"
     inkscape:current-layer="layer1" /><defs
     id="defs1" /><g
     inkscape:label="Layer 1"
     inkscape:groupmode="layer"
     id="layer1"
     transform="translate(6.1747365,288.46766)"><path
       style="fill:#000000;stroke-width:0.687295"
       d="m 73.977109,-191.61868 c -2.097873,-0.38371 -3.925208,-1.348 -5.473611,-2.88844 -1.025509,-1.02025 -1.280351,-1.3742 -1.894105,-2.63078 -1.013332,-2.07467 -1.288879,-3.49955 -1.201785,-6.21451 0.04986,-1.55419 0.139009,-2.30942 0.364354,-3.08651 1.055986,-3.64156 3.47985,-6.18327 6.934407,-7.27156 1.193969,-0.37614 3.864511,-0.52516 5.038555,-0.28116 0.739392,0.15367 0.794754,0.19333 0.933265,0.66863 0.473188,1.62373 1.866425,6.9614 1.828974,7.00704 -0.02454,0.0299 -0.282478,-0.10304 -0.573197,-0.29543 -1.882996,-1.24611 -4.208919,-1.01623 -5.798195,0.57304 -2.287052,2.28705 -1.625307,6.00137 1.314179,7.37635 1.148834,0.53738 2.669798,0.54917 3.772411,0.0292 2.140512,-1.00935 3.181778,-3.33443 2.495603,-5.5725 -0.272038,-0.88728 -0.287977,-1.30747 -0.343579,-9.05828 l -0.05835,-8.12785 h 4.577481 4.577481 v 14.67813 14.67813 h -4.321134 -4.321134 v -0.3354 -0.33539 l -0.720189,0.31632 c -1.314369,0.57731 -2.404144,0.78018 -4.492607,0.83632 -1.094001,0.0294 -2.281492,-1e-5 -2.638858,-0.0654 z m -62.682786,-0.20168 c -4.8389621,-0.85404 -8.3267966,-3.84826 -9.5274722,-8.1791 -0.3435114,-1.23905 -0.3443932,-4.49788 -0.00158,-5.75357 0.5750865,-2.10635 1.9831107,-4.26586 3.6244282,-5.55882 3.9049299,-3.07614 10.35182,-3.66668 15.051513,-1.37873 2.393845,1.16539 3.996809,2.72899 5.073046,4.94846 0.790984,1.6312 1.088518,3.01007 1.080422,5.00702 -0.0078,1.91975 -0.262679,3.03682 -1.079921,4.73267 -1.424393,2.95576 -4.024303,4.99378 -7.542766,5.91265 -1.691633,0.44178 -4.955037,0.57345 -6.677693,0.26942 z m 4.139883,-6.69284 c 0.697825,-0.21605 1.362751,-0.66952 2.004868,-1.3673 1.552321,-1.68688 1.514427,-4.32793 -0.08702,-6.0653 -1.703732,-1.84833 -4.549161,-1.93453 -6.389954,-0.19359 -1.8780625,1.77619 -1.9689476,4.59787 -0.206381,6.40743 0.769612,0.79013 1.323419,1.10556 2.346449,1.33646 0.77969,0.17596 1.501117,0.13956 2.33204,-0.1177 z m 10.322513,6.2113 c 0.10276,-0.14671 3.825522,-5.02229 8.272803,-10.83463 l 8.085967,-10.56789 4.904143,-0.003 c 2.697279,-10e-4 4.904143,0.0287 4.904143,0.0667 0,0.0381 -3.711882,4.91477 -8.248627,10.83713 l -8.248627,10.76816 h -4.928319 c -4.854044,0 -4.925503,-0.004 -4.741483,-0.26675 z m 15.54392,-0.75721 c -0.625445,-0.81658 -0.764311,-1.08692 -0.685635,-1.33481 0.174339,-0.54929 3.234999,-7.85776 3.329669,-7.95083 0.06955,-0.0684 6.827016,8.60124 7.82436,10.0384 0.186409,0.26861 0.141066,0.2712 -4.747948,0.2712 H 42.08493 Z m 12.817997,-6.72665 v -7.7506 h 4.526902 4.526901 v 7.7506 7.75061 h -4.526901 -4.526902 z m 41.153652,-6.92753 v -14.67813 h 4.321133 4.321139 v 1.9891 1.98909 h -1.85192 -1.85192 v 10.69994 10.69995 h 1.85192 1.85192 v 1.98909 1.9891 h -4.321139 -4.321133 z m 46.366442,12.68904 v -1.98909 h 1.78332 1.78333 v -10.69995 -10.69994 h -1.78333 -1.78332 v -1.98909 -1.9891 h 4.25255 4.25254 v 14.67813 14.67814 h -4.25254 -4.25255 z m -29.09981,-3.90993 c -3.48958,-0.55515 -6.33499,-3.00064 -7.1894,-6.17892 -0.32872,-1.22283 -0.38839,-2.93565 -0.14555,-4.17774 0.85585,-4.37744 4.74576,-7.143 9.68489,-6.88551 2.75611,0.14367 4.51401,0.88002 6.25511,2.62013 1.72769,1.72669 2.39757,3.38828 2.41095,5.98011 0.0136,2.63119 -0.6695,4.35441 -2.42154,6.10884 -1.21227,1.21391 -2.43734,1.91972 -4.04337,2.32954 -1.05106,0.26819 -3.46585,0.3762 -4.55109,0.20355 z m 3.67805,-4.46459 c 1.66818,-0.81513 2.5736,-2.83442 2.2314,-4.97652 -0.3683,-2.30547 -1.88652,-3.6551 -4.10822,-3.65203 -1.33582,0.002 -2.24784,0.39225 -3.0809,1.31882 -0.80236,0.89242 -1.10321,1.78771 -1.09869,3.26958 0.003,0.98119 0.064,1.29648 0.38459,1.98908 0.41936,0.90586 0.87305,1.44395 1.59335,1.88972 1.16777,0.72271 2.79768,0.78719 4.07847,0.16135 z m 14.58463,4.52525 c -0.18862,-0.0323 -0.77506,-0.12798 -1.3032,-0.21262 -1.54591,-0.24775 -3.45597,-0.89983 -4.29105,-1.46495 -0.13445,-0.091 0.0202,-0.534 0.65893,-1.88741 0.45904,-0.97269 0.85166,-1.78556 0.87249,-1.80639 0.0208,-0.0208 0.37248,0.1431 0.78145,0.36428 0.40897,0.2212 1.29915,0.57019 1.97818,0.77556 1.04319,0.31549 1.50049,0.37535 2.94935,0.38609 1.45749,0.0108 1.79676,-0.0284 2.26153,-0.26165 0.66192,-0.33214 0.97244,-0.83317 0.84097,-1.35698 -0.14087,-0.56126 -0.91649,-0.83727 -3.66848,-1.30546 -2.59987,-0.4423 -3.59921,-0.75178 -4.61082,-1.42785 -1.75524,-1.17307 -2.29192,-3.65564 -1.25678,-5.81366 0.95687,-1.99485 3.21185,-3.12441 6.57076,-3.29142 2.23426,-0.1111 4.27827,0.18957 6.17507,0.90835 1.26428,0.47908 1.24114,0.33382 0.35491,2.22811 -0.43512,0.93005 -0.84116,1.74304 -0.90231,1.80665 -0.0612,0.0636 -0.25668,0.0213 -0.4345,-0.094 -0.17783,-0.11532 -0.81716,-0.3798 -1.42075,-0.58773 -0.96172,-0.3313 -1.3099,-0.37905 -2.8155,-0.3861 -1.41545,-0.007 -1.82184,0.0387 -2.3072,0.25712 -1.17822,0.53029 -1.23315,1.58922 -0.10992,2.1186 0.3127,0.14736 1.34017,0.39799 2.28327,0.55695 3.74722,0.6316 4.92161,1.06943 5.95676,2.22076 0.80549,0.89591 1.09781,1.82895 1.00859,3.21924 -0.15135,2.35841 -1.87902,4.08215 -4.80581,4.79488 -0.82991,0.2021 -4.07087,0.37868 -4.76594,0.25966 z M 29.563005,-208.38097 c -2.149936,-2.80344 -3.929552,-5.1492 -3.954701,-5.2128 -0.02515,-0.0636 2.16788,-0.11564 4.8734,-0.11564 h 4.919126 l 0.750931,0.99405 c 0.413013,0.54673 0.773284,1.04589 0.800602,1.10926 0.05558,0.12892 -3.302368,8.32074 -3.411172,8.32169 -0.03807,3.3e-4 -1.82825,-2.29313 -3.978186,-5.09656 z m 24.555631,-2.36309 v -2.96535 h 4.526902 4.526901 v 1.75907 1.75907 l -4.286838,1.14049 c -2.357762,0.62726 -4.394867,1.17009 -4.526902,1.20628 -0.223257,0.0612 -0.240063,-0.14181 -0.240063,-2.89956 z"
       id="path1"
       sodipodi:nodetypes="csssssssscsscsccccccccccssccsscscssssssssssscscsccsccscsscsscscccccccccccccccccccccccccccccccccccccccccccssssscssssscsccsssssssssssssssssssssccssssssscsccsssscccccscs" /></g></svg>
