<?xml version="1.0" encoding="UTF-8" standalone="no"?><svg xmlns="http://www.w3.org/2000/svg" xml:space="preserve" viewBox="0 0 164.002 164.002"><path d="M1.1192 82.01V24.049h32.8814l22.4246 17.163 22.4246 17.1631.2337.6121.2337.6121-3.8283 1.4575-3.8283 1.4575-14.022 5.816-14.022 5.8158-4.6244-3.6033-4.6243-3.6032v-27.614H20.8886V124.6942H34.368l.001-13.704.0008-13.7038 13.7026-10.4622L61.775 76.3622l34.1475-26.1656L130.07 24.0311l16.1752.2336 16.1751.2337.2313 57.7363.2313 57.7362h-33.2816l-22.4719-17.237-22.4718-17.2369.6905-.583.6905-.5832 16.6445-6.892 16.6446-6.892h1.3544l4.4698 3.337 4.4697 3.337v27.4736h13.4793V39.3256h-13.4793V66.994l-28.5312 21.8495-28.5311 21.8494-19.0282 14.639-19.0283 14.639H1.119Z"/></svg>