<svg xmlns="http://www.w3.org/2000/svg" xml:space="preserve" viewBox="0 0 164.002 164.002"><path d="M1.12 82.01V24.049H34l22.425 17.163L78.85 58.375l.234.612.233.612-3.828 1.458-3.828 1.457-14.022 5.816-14.022 5.816-4.625-3.603-4.624-3.603V39.326h-13.48v85.368h13.48l.001-13.704V97.286l13.703-10.462 13.703-10.462 34.148-26.165L130.07 24.03l16.175.234 16.175.233.232 57.737.23 57.736h-33.28l-22.473-17.237-22.471-17.237.69-.583.69-.583 16.645-6.892 16.645-6.892h1.354l4.47 3.337 4.47 3.337v27.473H143.1V39.326h-13.48v27.668l-28.53 21.85-28.532 21.849-19.028 14.639-19.028 14.639H1.119Z"/></svg>