<svg xmlns="http://www.w3.org/2000/svg" xml:space="preserve" viewBox="0 0 274 221"><path fill="#ffd885" d="m24.7 110 230 5.28-.027 40.2-230 2.26z"/><path d="M45.7 119q3.86 0 6.53 1.31 2.67 1.27 4.07 3.64 1.4 2.33 1.4 5.55 0 1.91-.593 3.86-.551 1.91-1.82 3.48-1.23 1.57-3.35 2.54-2.08.932-5.13.932h-4.41v9.87h-6.15v-31.2zm1.06 15.3q1.4 0 2.33-.466.932-.509 1.44-1.23.551-.763.763-1.57.254-.805.254-1.4 0-.466-.17-1.23-.127-.805-.593-1.61t-1.44-1.36q-.932-.551-2.54-.551h-4.41v9.41zm20.8-2.67.551 5.09-.127-.763q.805-1.65 2.2-2.8 1.4-1.19 2.75-1.82 1.4-.636 2.12-.636l-.297 5.93q-2.08-.254-3.56.678t-2.29 2.46q-.805 1.53-.805 3.14v7.25h-5.89v-18.5zm9.75 9.03q0-2.84 1.31-5.09 1.36-2.25 3.77-3.52 2.42-1.31 5.55-1.31 3.18 0 5.51 1.31 2.33 1.27 3.56 3.52 1.27 2.25 1.27 5.09t-1.27 5.13q-1.23 2.25-3.56 3.56t-5.59 1.31q-3.05 0-5.47-1.19-2.37-1.19-3.73-3.43t-1.36-5.38zm5.98.042q0 1.44.593 2.63.593 1.14 1.61 1.82 1.02.678 2.29.678 1.4 0 2.42-.678t1.57-1.82q.551-1.19.551-2.63 0-1.48-.551-2.63t-1.57-1.82-2.42-.678q-1.27 0-2.29.678t-1.61 1.82-.593 2.63m27.2 9.96q-2.59 0-4.62-1.19-2.03-1.23-3.22-3.52-1.14-2.29-1.14-5.42t1.27-5.34 3.48-3.35 5-1.14q1.78 0 3.39.551 1.65.551 2.75 1.7v1.86-18.1h5.89v33.4h-5.93v-3.6l.466 1.27q-1.44 1.19-3.22 2.03-1.78.805-4.11.805zm1.95-5q1.19 0 2.08-.297.932-.339 1.61-.932.72-.636 1.23-1.57v-4.53q-.339-.932-1.06-1.57-.678-.678-1.7-1.02-.975-.38-2.16-.38-1.31 0-2.46.677-1.1.636-1.78 1.78-.678 1.14-.678 2.63t.678 2.67q.678 1.19 1.78 1.86 1.14.678 2.46.678zm22.9 5.38q-2.5 0-4.2-1.53-1.7-1.57-1.78-4.03v-13.9h5.93v11.7q.085 1.23.636 1.99.551.72 1.86.72t2.25-.89q.975-.89 1.48-2.42.551-1.57.551-3.52v-7.54h5.93v18.5h-5.38l-.466-3.39.085.381q-.636 1.14-1.61 2.03t-2.33 1.36q-1.31.51-2.97.51zm34.5-2.54q-1.23.975-3.09 1.57-1.82.593-3.6.593-3.18 0-5.55-1.14-2.33-1.19-3.64-3.35-1.27-2.2-1.27-5.3t1.4-5.26q1.4-2.2 3.64-3.35 2.29-1.14 4.79-1.14t4.32.678q1.86.678 3.18 1.78l-2.88 3.81q-.593-.466-1.65-.932-1.02-.509-2.42-.509-1.23 0-2.25.636t-1.61 1.74-.593 2.54q0 1.36.636 2.5t1.74 1.82q1.14.636 2.67.636.975 0 1.78-.254.848-.297 1.44-.805zm6.31-25h5.93v8.05h4.49v4.62h-4.49v14h-5.93v-14h-2.88v-4.62h2.88zm15 8.14h5.93v18.5h-5.93zm-.127-6.57q0-1.31 1.02-2.16 1.06-.848 2.25-.848t2.16.848q1.02.848 1.02 2.16 0 1.31-1.02 2.16-.975.805-2.16.805t-2.25-.805q-1.02-.848-1.02-2.16m10.7 15.6q0-2.84 1.31-5.09 1.36-2.25 3.77-3.52 2.42-1.31 5.55-1.31 3.18 0 5.51 1.31 2.33 1.27 3.56 3.52 1.27 2.25 1.27 5.09t-1.27 5.13q-1.23 2.25-3.56 3.56t-5.59 1.31q-3.05 0-5.47-1.19-2.37-1.19-3.73-3.43-1.36-2.25-1.36-5.38zm5.98.043q0 1.44.593 2.63.593 1.14 1.61 1.82 1.02.678 2.29.678 1.4 0 2.42-.678t1.57-1.82q.551-1.19.551-2.63 0-1.48-.551-2.63-.551-1.14-1.57-1.82t-2.42-.678q-1.27 0-2.29.678t-1.61 1.82q-.593 1.14-.593 2.63m25-9.07.466 3.31-.085-.297q.975-1.74 2.75-2.8 1.78-1.1 4.37-1.1 2.63 0 4.37 1.57 1.78 1.53 1.82 3.98v13.9h-5.93v-11.7q-.042-1.23-.678-1.95-.593-.763-2.03-.763-1.36 0-2.37.89-1.02.89-1.57 2.42t-.55 3.52v7.54h-5.93v-18.5z" aria-label="Production"/><path fill="#ffd885" d="m6.95 114 106-1.03.095 45.7-106 3.62z" style="paint-order:stroke fill markers" transform="translate(72.2 -113)scale(1.12)"/><path d="M104.68 22.52q3.091 0 5.51.806 2.42.762 4.032 2.24 1.658 1.434 2.51 3.495.85 2.016.85 4.57 0 2.015-.627 4.031-.582 2.016-1.971 3.674-1.344 1.658-3.584 2.688-2.24.986-5.555.986h-4.66v10.483H94.69V22.565zm1.12 16.24q1.478 0 2.464-.493t1.523-1.254q.583-.762.807-1.568.268-.851.268-1.568 0-.538-.179-1.344-.134-.851-.627-1.703t-1.523-1.433q-.986-.583-2.688-.583h-4.66v9.946zm6.093 4.032 8.153 12.768h-7.57l-8.334-12.544zm18.816 13.664q-2.643 0-4.435-1.613-1.792-1.657-1.882-4.256V35.915h6.272v12.32q.09 1.3.672 2.106.582.761 1.971.761t2.375-.94q1.03-.941 1.568-2.554.582-1.658.582-3.718v-7.975h6.272v19.6h-5.69l-.492-3.584.09.403q-.673 1.21-1.703 2.15t-2.464 1.434q-1.389.538-3.136.538m26.208-.538q-2.42 0-4.525-.85-2.06-.852-3.494-2.375l2.598-3.45q1.434 1.3 2.643 1.882 1.255.537 2.24.537.762 0 1.344-.134.627-.18.986-.493.358-.358.358-.896 0-.761-.627-1.21-.582-.447-1.523-.716-.941-.314-2.016-.627-2.688-.852-3.898-2.464-1.165-1.658-1.165-3.584 0-1.479.762-2.957.806-1.523 2.509-2.509 1.747-1.03 4.48-1.03 2.464 0 4.166.492t3.226 1.613l-2.375 3.674q-.85-.672-1.926-1.12-1.03-.493-1.926-.538-.807-.045-1.39.18-.537.223-.85.582t-.314.761q-.045.852.627 1.344.717.493 1.792.762t2.106.627q1.433.448 2.464 1.21t1.568 1.837q.582 1.03.582 2.508 0 1.792-.94 3.405-.897 1.568-2.778 2.554-1.837.985-4.704.985m15.456-28.56h6.272v8.512h4.749v4.884h-4.75v14.784h-6.271V40.754h-3.047V35.87h3.047z" aria-label="Rust"/><path fill="#ffd885" d="m135 72.6 39.7-1.93.729 34.6-37.7 1.02z" style="paint-order:stroke fill markers"/><path d="M148 85.9h4.14v12.9H148zm-.089-4.58q0-.917.71-1.51.74-.592 1.57-.592t1.51.592q.71.592.71 1.51 0 .917-.71 1.51-.68.562-1.51.562t-1.57-.562q-.71-.592-.71-1.51m12.2 4.58.325 2.31-.059-.207q.68-1.21 1.92-1.95 1.24-.769 3.05-.769 1.83 0 3.05 1.09 1.24 1.06 1.27 2.78v9.67h-4.14v-8.13q-.03-.858-.473-1.36-.414-.532-1.42-.532-.946 0-1.66.621-.71.621-1.09 1.69-.384 1.06-.384 2.45v5.26h-4.14v-12.9z" aria-label="in"/><path fill="#ffd885" d="m50.6 172 183-6.5-2.19 49.4-178 3.46z"/><path fill="#ee3756" d="M76.6 179q3.86 0 6.53 1.31 2.67 1.27 4.07 3.64 1.4 2.33 1.4 5.55 0 1.91-.593 3.86-.551 1.91-1.82 3.48-1.23 1.57-3.35 2.54-2.08.932-5.13.932h-4.41v9.87h-6.15v-31.2zm1.06 15.3q1.4 0 2.33-.466.932-.509 1.44-1.23.551-.763.763-1.57.254-.805.254-1.4 0-.466-.17-1.23-.127-.805-.593-1.61t-1.44-1.36q-.932-.551-2.54-.551h-4.41v9.41zm14 6.36q0-2.84 1.31-5.09 1.36-2.25 3.77-3.52 2.42-1.31 5.55-1.31 3.18 0 5.51 1.31 2.33 1.27 3.56 3.52 1.27 2.25 1.27 5.09t-1.27 5.13q-1.23 2.25-3.56 3.56t-5.59 1.31q-3.05 0-5.47-1.19-2.37-1.19-3.73-3.43t-1.36-5.38zm5.98.042q0 1.44.593 2.63.593 1.14 1.61 1.82 1.02.678 2.29.678 1.4 0 2.42-.678t1.57-1.82q.551-1.19.551-2.63 0-1.48-.551-2.63-.551-1.14-1.57-1.82-1.02-.678-2.42-.678-1.27 0-2.29.678t-1.61 1.82q-.593 1.14-.593 2.63m27.2 9.96q-2.59 0-4.62-1.19-2.03-1.23-3.22-3.52-1.14-2.29-1.14-5.42t1.27-5.34q1.27-2.2 3.48-3.35 2.2-1.14 5-1.14 1.78 0 3.39.551 1.65.551 2.75 1.7v1.86-18.1h5.89v33.4h-5.93v-3.6l.466 1.27q-1.44 1.19-3.22 2.03-1.78.805-4.11.805zm1.95-5q1.19 0 2.08-.297.932-.339 1.61-.932.72-.636 1.23-1.57v-4.53q-.339-.932-1.06-1.57-.678-.678-1.7-1.02-.975-.38-2.16-.38-1.31 0-2.46.677-1.1.636-1.78 1.78-.678 1.14-.678 2.63 0 1.48.678 2.67t1.78 1.86q1.14.678 2.46.678zm32.7 2.84q-1.23.975-3.09 1.57-1.82.593-3.6.593-3.18 0-5.55-1.14-2.33-1.19-3.64-3.35-1.27-2.2-1.27-5.3t1.4-5.26q1.4-2.2 3.64-3.35 2.29-1.14 4.79-1.14t4.32.678q1.86.678 3.18 1.78l-2.88 3.81q-.593-.466-1.65-.932-1.02-.509-2.42-.509-1.23 0-2.25.636t-1.61 1.74q-.593 1.1-.593 2.54 0 1.36.636 2.5t1.74 1.82q1.14.636 2.67.636.975 0 1.78-.254.848-.297 1.44-.805zm12.4 2.16q-2.59 0-4.7-1.02-2.08-1.06-3.31-3.22t-1.23-5.51q0-3.14 1.27-5.42t3.35-3.52q2.08-1.27 4.41-1.27 2.75 0 4.15.932 1.44.89 2.37 1.99l-.254.72.551-2.71h5.51v18.5h-5.93v-4.03l.466 1.27q-.085 0-.509.51-.424.465-1.27 1.14-.805.635-2.03 1.1-1.19.508-2.84.508zm1.7-4.83q1.06 0 1.91-.297.848-.339 1.48-.932.636-.636 1.1-1.57v-4.53q-.339-.932-1.02-1.57-.678-.678-1.61-1.02-.932-.38-2.08-.38-1.27 0-2.37.677-1.06.636-1.7 1.78-.636 1.14-.636 2.63 0 1.48.678 2.67t1.78 1.86q1.14.678 2.46.678zm22.5 4.7q-2.29 0-4.28-.805-1.95-.805-3.31-2.25l2.46-3.26q1.36 1.23 2.5 1.78 1.19.51 2.12.51.72 0 1.27-.128.593-.17.932-.466.339-.339.339-.848 0-.72-.593-1.14-.551-.424-1.44-.678-.89-.297-1.91-.593-2.54-.805-3.69-2.33-1.1-1.57-1.1-3.39 0-1.4.72-2.8.763-1.44 2.37-2.37 1.65-.975 4.24-.975 2.33 0 3.94.466t3.05 1.53l-2.25 3.48q-.805-.636-1.82-1.06-.975-.466-1.82-.509-.763-.042-1.31.17-.509.212-.805.551t-.297.72q-.042.805.593 1.27.678.466 1.7.72 1.02.254 1.99.593 1.36.424 2.33 1.14.975.72 1.48 1.74.551.975.551 2.37 0 1.7-.89 3.22-.848 1.48-2.63 2.42-1.74.932-4.45.932zm14.7-27h5.93v8.05h4.49v4.62h-4.49v14h-5.93v-14h-2.88v-4.62h2.88z" aria-label="Podcast"/></svg>