<svg xmlns="http://www.w3.org/2000/svg" width="64" height="64" fill-rule="evenodd" clip-rule="evenodd" image-rendering="optimizeQuality" shape-rendering="geometricPrecision" text-rendering="geometricPrecision" viewBox="0 0 640 640"><path d="M116 449c-40.8 0-73.9 33.2-73.9 73.7 0 40.7 33.1 73.6 73.9 73.6 40.9 0 74-32.9 74-73.6 0-40.5-33.1-73.7-74-73.7M42.2 231v106c69.3 0 134 27.1 183 76.2 49 48.9 76 114 76 184h107c0-202-164-366-366-366v-.031zm.133-189v106c247 0 448 201 448 449l107 .01c0-306-249-555-555-555z"/></svg>