<?xml version="1.0" encoding="UTF-8" standalone="no"?>
<!-- Created with Inkscape (http://www.inkscape.org/) -->

<svg
   width="400"
   height="400"
   viewBox="0 0 105.83333 105.83333"
   version="1.1"
   id="svg1"
   xml:space="preserve"
   inkscape:version="1.4 (e7c3feb1, 2024-10-09)"
   sodipodi:docname="logo.svg"
   xmlns:inkscape="http://www.inkscape.org/namespaces/inkscape"
   xmlns:sodipodi="http://sodipodi.sourceforge.net/DTD/sodipodi-0.dtd"
   xmlns="http://www.w3.org/2000/svg"
   xmlns:svg="http://www.w3.org/2000/svg"><sodipodi:namedview
     id="namedview1"
     pagecolor="#ffffff"
     bordercolor="#666666"
     borderopacity="1.0"
     inkscape:showpageshadow="2"
     inkscape:pageopacity="0.0"
     inkscape:pagecheckerboard="0"
     inkscape:deskcolor="#d1d1d1"
     inkscape:document-units="mm"
     inkscape:zoom="0.27055687"
     inkscape:cx="532.2356"
     inkscape:cy="22.176483"
     inkscape:window-width="2056"
     inkscape:window-height="1257"
     inkscape:window-x="0"
     inkscape:window-y="44"
     inkscape:window-maximized="0"
     inkscape:current-layer="layer1" /><defs
     id="defs1" /><g
     inkscape:label="Layer 1"
     inkscape:groupmode="layer"
     id="layer1"><path
       d="m 56.624444,92.57748 c 5.82533,-0.587461 12.073697,-2.223933 16.612408,-4.350841 5.190665,-2.432425 9.322574,-5.961552 8.350765,-7.132513 -0.465898,-0.561378 -0.988531,-0.457249 -3.289245,0.655353 C 66.01739,87.68842 46.62378,88.497057 32.504363,83.658905 28.733102,82.36665 23.575757,79.73879 20.664226,77.62591 c -2.681899,-1.946234 -3.588005,-2.204926 -3.748723,-1.070276 -0.285449,2.015214 6.160693,7.956414 11.744371,10.824412 5.87822,3.019286 10.701042,4.381253 18.772199,5.301293 1.777225,0.202585 6.705799,0.146902 9.192371,-0.103859 z M 85.43559,86.206051 c 2.428177,-2.46312 3.636399,-5.203831 3.643256,-8.264326 0.0022,-1.09777 -0.117594,-1.486316 -0.612024,-1.980753 -0.894739,-0.894731 -2.537307,-1.288059 -5.31647,-1.273058 -2.614428,0.01411 -4.610218,0.605255 -6.586132,1.950781 -0.915836,0.623648 -1.202732,1.591951 -0.546304,1.843844 0.190559,0.07313 1.554171,-0.04752 3.030245,-0.268101 3.317328,-0.495731 5.48383,-0.304484 6.027729,0.532093 0.54482,0.837996 0.08286,2.544581 -1.551875,5.732905 -0.762114,1.486404 -1.319622,2.874644 -1.238908,3.084978 0.333372,0.868757 1.414459,0.402641 3.150483,-1.358363 z M 48.618788,67.936857 c 0.76245,-0.383298 2.294851,-2.03849 2.294851,-2.478736 0,-0.644036 0.402392,0.164045 0.645754,1.296802 0.258912,1.205144 0.258912,1.205144 2.130178,1.280968 1.871265,0.07582 1.871265,0.07582 1.804236,-11.992062 -0.06704,-12.067877 -0.06704,-12.067877 -2.130177,-12.067877 -2.063148,0 -2.063148,0 -2.134008,4.190774 -0.03896,2.304924 -0.155031,4.189334 -0.257895,4.187579 -0.102872,-0.0015 -0.451781,-0.411859 -0.775367,-0.911333 -0.883145,-1.363187 -1.977033,-1.920208 -3.773206,-1.921341 -2.693164,-0.0015 -4.566951,1.620351 -5.560534,4.813508 -1.316188,4.229914 -0.715963,9.311135 1.432651,12.128115 1.42379,1.866689 4.237363,2.522349 6.323517,1.473603 z m -1.44461,-3.434501 c -1.45108,-0.621375 -2.165654,-2.40496 -2.179339,-5.43962 -0.01199,-2.659244 0.302342,-3.893549 1.266237,-4.972341 0.950597,-1.063901 2.466776,-1.14873 3.482165,-0.194814 1.86481,1.751894 1.908256,8.283699 0.0666,10.013838 -0.686268,0.644709 -1.885002,0.914381 -2.635675,0.592937 z m 22.30781,3.283673 c 0.638284,-0.274095 1.490483,-0.811268 1.893775,-1.193733 0.701832,-0.665572 1.974627,-2.84731 1.974627,-3.384746 0,-0.27365 -1.248634,-0.663505 -3.014097,-0.941065 -1.041531,-0.163752 -1.092944,-0.138926 -1.447293,0.698748 -0.702,1.659535 -2.114891,2.30537 -3.644894,1.666092 -0.974312,-0.407093 -1.759585,-1.671283 -2.057336,-3.312023 -0.175501,-0.967097 -0.175501,-0.967097 4.962486,-0.967097 4.26958,0 5.192654,-0.06587 5.461456,-0.38976 0.43303,-0.521778 -0.04788,-4.342457 -0.744964,-5.918303 -0.662327,-1.497303 -2.387714,-3.338246 -3.744095,-3.994856 -1.56877,-0.759431 -4.238255,-0.724407 -5.958065,0.07816 -1.573667,0.73437 -3.055875,2.328712 -3.962493,4.262247 -0.62065,1.32366 -0.679594,1.728962 -0.679594,4.67304 0,2.931496 0.06053,3.352223 0.667985,4.642087 0.367398,0.780127 0.988904,1.797862 1.381127,2.261625 2.025391,2.394827 5.784385,3.162358 8.911375,1.819581 z M 63.292536,56.604462 c 0,-0.942234 0.601914,-2.215643 1.391544,-2.943954 0.757063,-0.698272 2.198435,-0.823564 2.888256,-0.25106 0.567541,0.471015 1.19396,1.757538 1.402751,2.880931 0.179748,0.967096 0.179748,0.967096 -2.751398,0.967096 -2.931153,0 -2.931153,0 -2.931153,-0.653013 z m 22.794649,11.411471 c 1.503518,-0.431495 3.551468,-2.44589 4.437595,-4.364885 0.695275,-1.505703 0.749225,-1.845387 0.749225,-4.71726 0,-2.812111 -0.06265,-3.228385 -0.6861,-4.55831 -0.923776,-1.970585 -2.514177,-3.638717 -4.133198,-4.335198 -1.078331,-0.463887 -1.697476,-0.553505 -3.316081,-0.480007 -1.804321,0.08194 -2.119501,0.179894 -3.37475,1.048768 -1.494804,1.034703 -2.787329,2.737735 -3.480016,4.585286 -0.660712,1.762261 -0.595247,5.888068 0.12296,7.74915 1.735607,4.497503 5.256028,6.342181 9.680365,5.072456 z M 81.86536,64.006866 c -0.961834,-0.961833 -1.291064,-2.255521 -1.291064,-5.073078 0,-2.817557 0.32923,-4.111252 1.291064,-5.073078 1.008397,-1.0084 2.581334,-1.026968 3.49486,-0.04123 2.028804,2.189113 1.762144,9.499436 -0.388503,10.650418 -0.971073,0.519709 -2.325525,0.317825 -3.106357,-0.46301 z m -56.645331,2.728209 c 2.191752,-7.604031 4.542944,-16.495456 4.416182,-16.700563 -0.08701,-0.140776 -1.075678,-0.255951 -2.197045,-0.255951 -1.680121,0 -2.080299,0.0794 -2.274382,0.451313 -0.129532,0.248224 -0.847148,3.265581 -1.594692,6.705236 -0.747544,3.439655 -1.435896,6.253922 -1.529667,6.253922 -0.09377,0 -0.794228,-2.872289 -1.556561,-6.38287 -0.76234,-3.51058 -1.494979,-6.527937 -1.628086,-6.705236 -0.287495,-0.382946 -4.193267,-0.454149 -4.424107,-0.08065 -0.168131,0.272034 4.459423,17.244419 4.838583,17.746372 0.167152,0.221285 1.076906,0.322365 2.90151,0.322365 2.658008,0 2.658008,0 3.048265,-1.35394 z m 11.896295,-7.801287 c 0,-9.026279 0,-9.026279 -2.127625,-9.101189 -2.127619,-0.0749 -2.127619,-0.0749 -2.127619,9.101189 0,9.176084 0,9.176084 2.127619,9.101182 2.127625,-0.0749 2.127625,-0.0749 2.127625,-9.101182 z m -0.46396,-11.090232 c 0.830312,-0.581577 1.216607,-1.985519 0.851067,-3.093129 -0.388262,-1.176429 -1.142802,-1.677109 -2.527474,-1.677109 -0.897327,0 -1.274454,0.151478 -1.876822,0.753846 -1.683177,1.683177 -0.523657,4.404032 1.876822,4.404032 0.617631,0 1.372018,-0.17444 1.676407,-0.38764 z M 17.335878,43.537527 c 0.213865,-0.213865 0.30947,-1.534623 0.30947,-4.27529 0,-3.965826 0,-3.965826 0.838157,-2.876032 1.208865,1.571803 2.306861,2.098435 4.127634,1.979737 3.602399,-0.234854 5.865749,-3.903236 5.865749,-9.507098 0,-2.606192 -0.387728,-4.391341 -1.350562,-6.218204 -0.898306,-1.704436 -1.995637,-2.640068 -3.599402,-3.069005 -2.010243,-0.537663 -4.138066,0.287868 -5.236845,2.031721 -0.654103,1.038125 -0.821452,1.038176 -1.030338,3.07e-4 -0.372486,-1.850745 -0.26256,-1.769351 -2.278637,-1.687183 -1.848895,0.07535 -1.848895,0.07535 -1.916034,11.79265 -0.05271,9.202788 0.0029,11.76158 0.257895,11.923636 0.514468,0.326598 3.665868,0.251806 4.012913,-0.09524 z m 1.782935,-9.493259 c -2.160611,-1.699538 -2.160611,-8.61067 0,-10.310208 1.67091,-1.314332 3.869125,-0.05775 4.423843,2.528827 0.931846,4.34503 -0.436166,8.299942 -2.870959,8.299942 -0.50473,0 -1.180545,-0.225678 -1.552884,-0.518561 z m 68.831502,4.005938 c 1.597426,-0.474384 3.239402,-1.852463 3.945752,-3.311599 0.814397,-1.682314 0.740497,-1.855731 -0.944427,-2.216249 -0.815589,-0.174506 -1.688324,-0.375615 -1.939413,-0.446905 -0.334823,-0.09507 -0.556524,0.109721 -0.831658,0.76821 -0.749445,1.793666 -2.806635,2.550955 -4.227062,1.55605 -0.749818,-0.525199 -1.563675,-2.274755 -1.571175,-3.377583 -0.0058,-0.83282 -0.0058,-0.83282 5.21669,-0.902626 5.222348,-0.06981 5.222348,-0.06981 5.180811,-2.13297 -0.07128,-3.54037 -1.706556,-6.552574 -4.309597,-7.938291 -1.492537,-0.794543 -4.722261,-0.790062 -6.251537,0.0087 -1.476059,0.770952 -3.314808,2.906108 -4.007868,4.653938 -0.821643,2.072103 -0.827133,6.477875 -0.01067,8.562494 1.609364,4.109103 5.530221,6.030028 9.750157,4.776847 z M 82.45352,26.45235 c 0.496031,-3.056665 2.904792,-4.498571 4.558201,-2.72859 0.61065,0.653701 1.296509,2.423433 1.296509,3.345402 0,0.175961 -1.063615,0.272641 -2.999526,0.272641 -2.999517,0 -2.999517,0 -2.855184,-0.889453 z m -47.012068,5.853906 c 0.0015,-5.946207 0.164162,-7.132937 1.094217,-7.984215 0.906559,-0.829764 1.630893,-0.931342 3.175918,-0.44537 0.777576,0.244576 1.478056,0.38041 1.556613,0.301845 0.07856,-0.07856 0.361951,-0.994649 0.629745,-2.035756 0.579274,-2.251998 0.456101,-2.481441 -1.444574,-2.690832 -1.543242,-0.17001 -3.297892,0.61421 -4.108649,1.836307 -0.770463,1.161385 -0.962038,1.140879 -1.269746,-0.135885 -0.279695,-1.160522 -0.279695,-1.160522 -2.149426,-1.236294 -1.86973,-0.07577 -1.86973,-0.07577 -1.86973,8.96181 0,9.037581 0,9.037581 2.192096,9.037581 2.192103,0 2.192103,0 2.193536,-5.609191 z M 48.3347,28.879123 c 0,-9.036324 0,-9.036324 -2.256566,-8.961809 -2.256574,0.07451 -2.256574,0.07451 -2.324597,8.712123 -0.03743,4.750683 -0.01206,8.783495 0.05636,8.96181 0.08645,0.225283 0.795712,0.3242 2.324597,0.3242 2.200188,0 2.200188,0 2.200188,-9.036324 z m 7.73681,2.50286 c 0.128947,-6.404523 0.128947,-6.404523 0.971176,-7.156556 0.8912,-0.795764 1.4283,-0.905543 2.477924,-0.506485 1.212074,0.460832 1.313162,1.000747 1.450882,7.749157 0.128948,6.3184 0.128948,6.3184 2.368832,6.392674 2.239884,0.07427 2.239884,0.07427 2.321044,-6.235683 0.07633,-5.934057 0.113354,-6.353285 0.621659,-7.037397 0.743655,-1.000886 2.161824,-1.346235 3.073961,-0.748583 1.270785,0.832652 1.41447,1.660172 1.41447,8.146535 0,5.949884 0,5.949884 2.256566,5.875369 2.256574,-0.07451 2.256574,-0.07451 2.328603,-5.619228 0.09984,-7.684834 -0.312161,-9.891214 -2.176035,-11.653285 -2.02485,-1.914258 -4.985383,-1.580532 -7.135744,0.804368 -0.542934,0.602155 -1.011836,1.055486 -1.042006,1.007413 -1.406501,-2.241083 -3.079978,-3.207163 -5.134112,-2.963881 -1.464875,0.173497 -2.808331,1.067512 -3.440131,2.28928 -0.472242,0.913205 -0.691524,0.712878 -0.980438,-0.895696 -0.173701,-0.967104 -0.173701,-0.967104 -2.09622,-0.967104 -1.922511,0 -1.922511,0 -1.922511,9.036324 0,9.036324 0,9.036324 2.256566,8.961809 2.256566,-0.07451 2.256566,-0.07451 2.385514,-6.479031 z M 47.143906,18.069142 c 1.590942,-0.604883 2.058045,-3.129893 0.809894,-4.378052 -0.536852,-0.536844 -0.909908,-0.662393 -1.968333,-0.662393 -1.111133,0 -1.398781,0.107938 -1.928337,0.723596 -0.672072,0.781325 -0.845686,2.374687 -0.358033,3.285874 0.557679,1.042028 2.156882,1.520638 3.444809,1.030975 z"
       style="fill:#000000;stroke-width:0.731037"
       id="path1-8" /></g></svg>
