<?xml version="1.0" encoding="UTF-8" standalone="no"?>
<svg xmlns="http://www.w3.org/2000/svg" viewBox="0 0 100 100" width="500" height="500">
  <path fill="#000000" d="M 95.00015,50.000432 C 95.00015,74.852315 74.852463,95 49.999138,95 25.146388,95 4.9998625,74.852315 4.9998625,50.000432 c 0,-24.853612 20.1465255,-45.0004322 44.9992755,-45.0004322 24.853325,0 45.001012,20.1468202 45.001012,45.0004322 m -32.704103,-21.299345 c 2.873376,1.659372 6.546563,0.675122 8.204788,-2.197388 1.659075,-2.873664 0.675688,-6.546562 -2.197975,-8.205644 -2.872238,-1.658225 -6.545126,-0.674547 -8.204775,2.198388 -1.658225,2.872238 -0.67455,6.545126 2.197962,8.204644 m -6.043175,7.551675 c -0.175913,3.309837 -2.880988,5.912462 -6.190826,5.912462 l 0,0 C 49.505198,35.121049 43.513761,29.129612 43.513761,22.572899 c 0,-3.309837 2.602625,-6.014912 5.912462,-6.190825 3.309263,-0.175913 6.014913,2.602625 6.190825,5.912462 0.175338,3.309838 -2.602625,6.014913 -5.912462,6.190826 -3.309837,0.175912 -6.014912,-2.602625 -6.190825,-5.912463 0.175913,-3.309837 2.881562,-5.912462 6.190825,-5.912462 6.556713,0 12.54815,6.556712 12.54815,13.113425 0,3.309837 -2.603199,6.014912 -5.912462,6.190825 m -21.505625,35.02125 c -2.873376,-1.659372 -6.546562,-0.675122 -8.204787,2.197388 -1.659075,2.873663 -0.675688,6.546562 2.197975,8.205644 2.872237,1.658225 6.545125,0.674547 8.204775,-2.198388 1.658225,-2.872238 0.67455,-6.545126 -2.197963,-8.204644 m 6.043175,-7.551675 c 0.175913,-3.309837 2.880988,-5.912462 6.190826,-5.912462 l 0,0 c 0.556713,0 6.548149,6.556712 6.548149,13.113425 0,3.309837 -2.602624,6.014912 -5.912462,6.190825 -3.309262,0.175913 -6.014912,-2.602625 -6.190825,-5.912462 -0.175337,-3.309838 2.602625,-6.014913 5.912462,-6.190826 3.309838,-0.175912 6.014913,2.602625 6.190826,5.912463 -0.175913,3.309837 -2.881563,5.912462 -6.190826,5.912462 -6.556712,0 -12.548149,-6.556712 -12.548149,-13.113425 0,-3.309837 2.6032,-6.014912 5.912462,-6.190825 m -21.505626,-35.02125 c -2.873375,1.659372 -3.857051,5.332406 -2.197975,8.205644 1.658225,2.872238 5.331411,3.85676 8.204787,2.197388 2.873376,-1.659372 3.857051,-5.332406 2.197963,-8.204644 -1.658225,-2.872238 -5.331412,-3.85676 -8.204775,-2.198388 m 6.043175,7.551675 c 3.309263,0.175913 5.888375,2.880988 5.888375,6.190825 l 0,0 c 0,6.556713 -5.991437,12.548149 -12.548149,12.548149 -3.309838,0 -6.014913,-2.602624 -6.190826,-5.912462 -0.175913,-3.309262 2.602625,-6.014912 5.912463,-6.190825 3.309262,-0.175337 6.014912,2.602625 6.190825,5.912462 0.175913,3.309838 -2.602625,6.014913 -5.912463,6.190826 -3.309837,0.175912 -5.912462,-2.881563 -5.912462,-6.190826 0,-6.556712 6.556712,-12.548149 13.113425,-12.548149 3.309837,0 6.014912,2.6032 6.190825,5.912462"/>
</svg>
