<svg xmlns="http://www.w3.org/2000/svg" viewBox="26.7 28.9 1173.9 1144.1"><path d="M599.5 29.7 581 31.1a569.7 569.7 0 0 0-358 166 571.7 571.7 0 0 0-46.6 755.4A571.4 571.4 0 0 0 628 1173a532 532 0 0 0 137.7-16.5 561.4 561.4 0 0 0 193.3-88.6A582 582 0 0 0 1112.3 906a573 573 0 0 0 86.8-267.9 775 775 0 0 0-1.6-92.6c-4.4-41.7-15.6-96.7-22.1-108.2a34.5 34.5 0 0 0-15.3-12.2 40 40 0 0 0-9.5-1.1c-15 0-27.6 12.5-27.6 27.2 0 3.5 1.6 11.9 3.9 21a525 525 0 0 1 4.5 238.8 509.1 509.1 0 0 1-142.5 257.6 505.4 505.4 0 0 1-109 82.1 517 517 0 0 1-336.4 58.7A507.7 507.7 0 0 1 308 1005.2a556.8 556.8 0 0 1-100.8-106.3c-44.2-62.8-72-129-86.4-205.9a551.4 551.4 0 0 1-6.4-133.5A502.3 502.3 0 0 1 163 379.2c12.6-26.3 20.4-40 35.5-62.7a525.5 525.5 0 0 1 116.7-124.8A510.5 510.5 0 0 1 591 87.5a510.9 510.9 0 0 1 365.3 116.7l3.8 3.3-1.5 4.2a70.3 70.3 0 0 0 14.2 67.3 75.6 75.6 0 0 0 36 21.6 85.1 85.1 0 0 0 32.6 0A72 72 0 0 0 1091 255a69.6 69.6 0 0 0-12.1-66.1 70.6 70.6 0 0 0-72.4-23.4l-5.8 1.5-8.2-6.8a569.4 569.4 0 0 0-116-74.2A560.4 560.4 0 0 0 660 30c-15.1-.9-50.8-1.1-60.5-.3"/><path d="M540.3 358.7 489 492l-80.7 209.5c-26.6 69.3-48.7 126.3-49 126.7-.2.5 27.9.8 62.4.8h62.9l3.7-10.3 16.4-44 12.6-33.7h94.4c75.2 0 94.4-.3 94-1.3l-24.5-70.2-8.8-25-62.5-.5-62.4-.5L588 531.6a2776 2776 0 0 1 41.2-110.2l36 102.4L737 726.5l35.9 102 62.6.3c34.4.1 62.6 0 62.6-.2s-8.1-21.5-18.1-47.2A70712 70712 0 0 1 791.8 553l-23.3-60.5L729 390l-29.2-75.8-2-5.2H559.5z"/></svg>