<?xml version="1.0" encoding="UTF-8" standalone="no"?>
<svg
   version="1.1"
   viewBox="0 0 274 221"
   xml:space="preserve"
   id="svg8"
   sodipodi:docname="hero-font.svg"
   inkscape:version="1.3 (0e150ed, 2023-07-21)"
   xmlns:inkscape="http://www.inkscape.org/namespaces/inkscape"
   xmlns:sodipodi="http://sodipodi.sourceforge.net/DTD/sodipodi-0.dtd"
   xmlns="http://www.w3.org/2000/svg"
   xmlns:svg="http://www.w3.org/2000/svg"><defs
     id="defs8" /><sodipodi:namedview
     id="namedview8"
     pagecolor="#ffffff"
     bordercolor="#666666"
     borderopacity="1.0"
     inkscape:showpageshadow="2"
     inkscape:pageopacity="0.0"
     inkscape:pagecheckerboard="0"
     inkscape:deskcolor="#d1d1d1"
     inkscape:zoom="2.0046606"
     inkscape:cx="82.308197"
     inkscape:cy="87.79541"
     inkscape:window-width="1920"
     inkscape:window-height="1027"
     inkscape:window-x="0"
     inkscape:window-y="25"
     inkscape:window-maximized="0"
     inkscape:current-layer="svg8" /><path
     d="M 24.690642,109.81802 254.2294,115.102 254.202,155.27105 24.288068,157.52781 Z"
     fill="#ffd885"
     stroke-width="1.00018"
     id="path1"
     sodipodi:nodetypes="ccccc" /><text
     xml:space="preserve"
     style="font-size:42.3804px;line-height:1.25;font-family:Iosevka;-inkscape-font-specification:'Iosevka, Normal';stroke-width:1.05951"
     x="32.216557"
     y="150.29608"
     id="text8"><tspan
       sodipodi:role="line"
       id="tspan8"
       x="32.216557"
       y="150.29608"
       style="font-style:normal;font-variant:normal;font-weight:bold;font-stretch:normal;font-size:42.3804px;font-family:'Josefin Sans';-inkscape-font-specification:'Josefin Sans, Bold';font-variant-ligatures:normal;font-variant-caps:normal;font-variant-numeric:normal;font-variant-east-asian:normal;stroke-width:1.05951">Production</tspan></text><g
     id="g9"
     transform="matrix(1.1165006,0,0,1.1165006,72.157105,-113.42274)"><path
       d="m 6.95,114 106,-1.03 0.0946,45.7 -106,3.62 z"
       fill="#ffd885"
       stroke-linecap="round"
       stroke-linejoin="round"
       stroke-width="0.779"
       style="paint-order:stroke fill markers"
       id="path8" /><path
       d="m 29,121 q 2.76,0 4.92,0.72 2.16,0.68 3.6,2 1.48,1.28 2.24,3.12 0.76,1.8 0.76,4.08 0,1.8 -0.56,3.6 -0.52,1.8 -1.76,3.28 -1.2,1.48 -3.2,2.4 -2,0.88 -4.96,0.88 h -4.16 v 9.36 h -5.8 v -29.4 z m 1,14.5 q 1.32,0 2.2,-0.44 0.88,-0.44 1.36,-1.12 0.52,-0.68 0.72,-1.4 0.24,-0.76 0.24,-1.4 0,-0.48 -0.16,-1.2 -0.12,-0.76 -0.56,-1.52 -0.44,-0.76 -1.36,-1.28 -0.88,-0.52 -2.4,-0.52 h -4.16 v 8.88 z m 5.44,3.6 7.28,11.4 h -6.76 l -7.44,-11.2 z m 16.8,12.2 q -2.36,0 -3.96,-1.44 -1.6,-1.48 -1.68,-3.8 v -13.1 h 5.6 v 11 q 0.08,1.16 0.6,1.88 0.52,0.68 1.76,0.68 1.24,0 2.12,-0.84 0.92,-0.84 1.4,-2.28 0.52,-1.48 0.52,-3.32 v -7.12 h 5.6 v 17.5 h -5.08 l -0.44,-3.2 0.08,0.36 q -0.6,1.08 -1.52,1.92 -0.92,0.84 -2.2,1.28 -1.24,0.48 -2.8,0.48 z m 23.4,-0.48 q -2.16,0 -4.04,-0.76 -1.84,-0.76 -3.12,-2.12 l 2.32,-3.08 q 1.28,1.16 2.36,1.68 1.12,0.48 2,0.48 0.68,0 1.2,-0.12 0.56,-0.16 0.88,-0.44 0.32,-0.32 0.32,-0.8 0,-0.68 -0.56,-1.08 -0.52,-0.4 -1.36,-0.64 -0.84,-0.28 -1.8,-0.56 -2.4,-0.76 -3.48,-2.2 -1.04,-1.48 -1.04,-3.2 0,-1.32 0.68,-2.64 0.72,-1.36 2.24,-2.24 1.56,-0.92 4,-0.92 2.2,0 3.72,0.44 1.52,0.44 2.88,1.44 l -2.12,3.28 q -0.76,-0.6 -1.72,-1 -0.92,-0.44 -1.72,-0.48 -0.72,-0.04 -1.24,0.16 -0.48,0.2 -0.76,0.52 -0.28,0.32 -0.28,0.68 -0.04,0.76 0.56,1.2 0.64,0.44 1.6,0.68 0.96,0.24 1.88,0.56 1.28,0.4 2.2,1.08 0.92,0.68 1.4,1.64 0.52,0.92 0.52,2.24 0,1.6 -0.84,3.04 -0.8,1.4 -2.48,2.28 -1.64,0.88 -4.2,0.88 z m 13.8,-25.5 h 5.6 v 7.6 h 4.24 v 4.36 h -4.24 v 13.2 h -5.6 v -13.2 h -2.72 v -4.36 h 2.72 z"
       aria-label="Rust"
       id="path9" /></g><g
     id="g11"
     transform="matrix(0.7393918,0,0,0.7393918,96.62708,8.372211)"><g
       id="g14"
       transform="translate(7.4212523,-30.359669)"><path
         d="m 45.104892,117.15787 53.683652,-2.61053 0.98624,46.82759 -50.98027,1.37429 z"
         fill="#ffd885"
         stroke-linecap="round"
         stroke-linejoin="round"
         stroke-width="0.779"
         style="paint-order:stroke fill markers"
         id="path10"
         sodipodi:nodetypes="ccccc" /><text
         xml:space="preserve"
         style="font-size:40px;line-height:1.25;font-family:Iosevka;-inkscape-font-specification:'Iosevka, Normal'"
         x="59.51112"
         y="152.70781"
         id="text11"><tspan
           sodipodi:role="line"
           id="tspan11"
           x="59.51112"
           y="152.70781"
           style="font-style:normal;font-variant:normal;font-weight:bold;font-stretch:normal;font-size:40px;font-family:'Josefin Sans';-inkscape-font-specification:'Josefin Sans, Bold';font-variant-ligatures:normal;font-variant-caps:normal;font-variant-numeric:normal;font-variant-east-asian:normal">in</tspan></text></g></g><path
     d="m 50.563095,172.49897 182.944365,-6.50158 -2.18875,49.44604 -177.613215,3.45535 z"
     fill="#ffd885"
     stroke-width="0.868142"
     id="path14"
     sodipodi:nodetypes="ccccc" /><text
     xml:space="preserve"
     style="font-size:42.3804px;line-height:1.25;font-family:Iosevka;-inkscape-font-specification:'Iosevka, Normal';stroke-width:1.05951;fill:#ee3756;fill-opacity:1"
     x="63.130539"
     y="210.66936"
     id="text14"><tspan
       sodipodi:role="line"
       id="tspan14"
       x="63.130539"
       y="210.66936"
       style="font-style:normal;font-variant:normal;font-weight:bold;font-stretch:normal;font-size:42.3804px;font-family:'Josefin Sans';-inkscape-font-specification:'Josefin Sans, Bold';font-variant-ligatures:normal;font-variant-caps:normal;font-variant-numeric:normal;font-variant-east-asian:normal;stroke-width:1.05951;fill:#ee3756;fill-opacity:1">Podcast</tspan></text></svg>
