<?xml version="1.0" encoding="UTF-8"?>
<svg version="1.1" viewBox="0 0 274 221" xml:space="preserve" xmlns="http://www.w3.org/2000/svg"><path d="m24.7 110 230 5.28-0.0274 40.2-230 2.26z" fill="#ffd885"/><path d="m45.7 119q3.86 0 6.53 1.31 2.67 1.27 4.07 3.64 1.4 2.33 1.4 5.55 0 1.91-0.593 3.86-0.551 1.91-1.82 3.48-1.23 1.57-3.35 2.54-2.08 0.932-5.13 0.932h-4.41v9.87h-6.15v-31.2zm1.06 15.3q1.4 0 2.33-0.466 0.932-0.509 1.44-1.23 0.551-0.763 0.763-1.57 0.254-0.805 0.254-1.4 0-0.466-0.17-1.23-0.127-0.805-0.593-1.61-0.466-0.805-1.44-1.36-0.932-0.551-2.54-0.551h-4.41v9.41zm20.8-2.67 0.551 5.09-0.127-0.763q0.805-1.65 2.2-2.8 1.4-1.19 2.75-1.82 1.4-0.636 2.12-0.636l-0.297 5.93q-2.08-0.254-3.56 0.678t-2.29 2.46q-0.805 1.53-0.805 3.14v7.25h-5.89v-18.5zm9.75 9.03q0-2.84 1.31-5.09 1.36-2.25 3.77-3.52 2.42-1.31 5.55-1.31 3.18 0 5.51 1.31 2.33 1.27 3.56 3.52 1.27 2.25 1.27 5.09t-1.27 5.13q-1.23 2.25-3.56 3.56-2.33 1.31-5.59 1.31-3.05 0-5.47-1.19-2.37-1.19-3.73-3.43t-1.36-5.38zm5.98 0.0424q0 1.44 0.593 2.63 0.593 1.14 1.61 1.82 1.02 0.678 2.29 0.678 1.4 0 2.42-0.678 1.02-0.678 1.57-1.82 0.551-1.19 0.551-2.63 0-1.48-0.551-2.63t-1.57-1.82-2.42-0.678q-1.27 0-2.29 0.678-1.02 0.678-1.61 1.82t-0.593 2.63zm27.2 9.96q-2.59 0-4.62-1.19-2.03-1.23-3.22-3.52-1.14-2.29-1.14-5.42t1.27-5.34 3.48-3.35 5-1.14q1.78 0 3.39 0.551 1.65 0.551 2.75 1.7v1.86-18.1h5.89v33.4h-5.93v-3.6l0.466 1.27q-1.44 1.19-3.22 2.03-1.78 0.805-4.11 0.805zm1.95-5q1.19 0 2.08-0.297 0.932-0.339 1.61-0.932 0.72-0.636 1.23-1.57v-4.53q-0.339-0.932-1.06-1.57-0.678-0.678-1.7-1.02-0.975-0.381-2.16-0.381-1.31 0-2.46 0.678-1.1 0.636-1.78 1.78-0.678 1.14-0.678 2.63t0.678 2.67q0.678 1.19 1.78 1.86 1.14 0.678 2.46 0.678zm22.9 5.38q-2.5 0-4.2-1.53-1.7-1.57-1.78-4.03v-13.9h5.93v11.7q0.0848 1.23 0.636 1.99 0.551 0.72 1.86 0.72 1.31 0 2.25-0.89 0.975-0.89 1.48-2.42 0.551-1.57 0.551-3.52v-7.54h5.93v18.5h-5.38l-0.466-3.39 0.0848 0.381q-0.636 1.14-1.61 2.03t-2.33 1.36q-1.31 0.509-2.97 0.509zm34.5-2.54q-1.23 0.975-3.09 1.57-1.82 0.593-3.6 0.593-3.18 0-5.55-1.14-2.33-1.19-3.64-3.35-1.27-2.2-1.27-5.3t1.4-5.26q1.4-2.2 3.64-3.35 2.29-1.14 4.79-1.14 2.5 0 4.32 0.678 1.86 0.678 3.18 1.78l-2.88 3.81q-0.593-0.466-1.65-0.932-1.02-0.509-2.42-0.509-1.23 0-2.25 0.636-1.02 0.636-1.61 1.74t-0.593 2.54q0 1.36 0.636 2.5t1.74 1.82q1.14 0.636 2.67 0.636 0.975 0 1.78-0.254 0.848-0.297 1.44-0.805zm6.31-25h5.93v8.05h4.49v4.62h-4.49v14h-5.93v-14h-2.88v-4.62h2.88zm15 8.14h5.93v18.5h-5.93zm-0.127-6.57q0-1.31 1.02-2.16 1.06-0.848 2.25-0.848t2.16 0.848q1.02 0.848 1.02 2.16 0 1.31-1.02 2.16-0.975 0.805-2.16 0.805t-2.25-0.805q-1.02-0.848-1.02-2.16zm10.7 15.6q0-2.84 1.31-5.09 1.36-2.25 3.77-3.52 2.42-1.31 5.55-1.31 3.18 0 5.51 1.31 2.33 1.27 3.56 3.52 1.27 2.25 1.27 5.09t-1.27 5.13q-1.23 2.25-3.56 3.56-2.33 1.31-5.59 1.31-3.05 0-5.47-1.19-2.37-1.19-3.73-3.43-1.36-2.25-1.36-5.38zm5.98 0.0424q0 1.44 0.593 2.63 0.593 1.14 1.61 1.82 1.02 0.678 2.29 0.678 1.4 0 2.42-0.678 1.02-0.678 1.57-1.82 0.551-1.19 0.551-2.63 0-1.48-0.551-2.63-0.551-1.14-1.57-1.82t-2.42-0.678q-1.27 0-2.29 0.678t-1.61 1.82q-0.593 1.14-0.593 2.63zm25-9.07 0.466 3.31-0.0848-0.297q0.975-1.74 2.75-2.8 1.78-1.1 4.37-1.1 2.63 0 4.37 1.57 1.78 1.53 1.82 3.98v13.9h-5.93v-11.7q-0.0424-1.23-0.678-1.95-0.593-0.763-2.03-0.763-1.36 0-2.37 0.89-1.02 0.89-1.57 2.42-0.551 1.53-0.551 3.52v7.54h-5.93v-18.5z" stroke-width="1.06" aria-label="Production"/><g transform="matrix(1.12 0 0 1.12 72.2 -113)"><path d="m6.95 114 106-1.03 0.0946 45.7-106 3.62z" fill="#ffd885" stroke-linecap="round" stroke-linejoin="round" stroke-width=".779" style="paint-order:stroke fill markers"/><path d="m29 121q2.76 0 4.92 0.72 2.16 0.68 3.6 2 1.48 1.28 2.24 3.12 0.76 1.8 0.76 4.08 0 1.8-0.56 3.6-0.52 1.8-1.76 3.28-1.2 1.48-3.2 2.4-2 0.88-4.96 0.88h-4.16v9.36h-5.8v-29.4zm1 14.5q1.32 0 2.2-0.44t1.36-1.12q0.52-0.68 0.72-1.4 0.24-0.76 0.24-1.4 0-0.48-0.16-1.2-0.12-0.76-0.56-1.52t-1.36-1.28q-0.88-0.52-2.4-0.52h-4.16v8.88zm5.44 3.6 7.28 11.4h-6.76l-7.44-11.2zm16.8 12.2q-2.36 0-3.96-1.44-1.6-1.48-1.68-3.8v-13.1h5.6v11q0.08 1.16 0.6 1.88 0.52 0.68 1.76 0.68t2.12-0.84q0.92-0.84 1.4-2.28 0.52-1.48 0.52-3.32v-7.12h5.6v17.5h-5.08l-0.44-3.2 0.08 0.36q-0.6 1.08-1.52 1.92t-2.2 1.28q-1.24 0.48-2.8 0.48zm23.4-0.48q-2.16 0-4.04-0.76-1.84-0.76-3.12-2.12l2.32-3.08q1.28 1.16 2.36 1.68 1.12 0.48 2 0.48 0.68 0 1.2-0.12 0.56-0.16 0.88-0.44 0.32-0.32 0.32-0.8 0-0.68-0.56-1.08-0.52-0.4-1.36-0.64-0.84-0.28-1.8-0.56-2.4-0.76-3.48-2.2-1.04-1.48-1.04-3.2 0-1.32 0.68-2.64 0.72-1.36 2.24-2.24 1.56-0.92 4-0.92 2.2 0 3.72 0.44t2.88 1.44l-2.12 3.28q-0.76-0.6-1.72-1-0.92-0.44-1.72-0.48-0.72-0.04-1.24 0.16-0.48 0.2-0.76 0.52t-0.28 0.68q-0.04 0.76 0.56 1.2 0.64 0.44 1.6 0.68t1.88 0.56q1.28 0.4 2.2 1.08t1.4 1.64q0.52 0.92 0.52 2.24 0 1.6-0.84 3.04-0.8 1.4-2.48 2.28-1.64 0.88-4.2 0.88zm13.8-25.5h5.6v7.6h4.24v4.36h-4.24v13.2h-5.6v-13.2h-2.72v-4.36h2.72z" aria-label="Rust"/></g><path d="m135 72.6 39.7-1.93 0.729 34.6-37.7 1.02z" fill="#ffd885" stroke-linecap="round" stroke-linejoin="round" stroke-width=".576" style="paint-order:stroke fill markers"/><path d="m148 85.9h4.14v12.9h-4.14zm-0.0887-4.58q0-0.917 0.71-1.51 0.739-0.592 1.57-0.592t1.51 0.592q0.71 0.592 0.71 1.51 0 0.917-0.71 1.51-0.68 0.562-1.51 0.562t-1.57-0.562q-0.71-0.592-0.71-1.51zm12.2 4.58 0.325 2.31-0.0592-0.207q0.68-1.21 1.92-1.95 1.24-0.769 3.05-0.769 1.83 0 3.05 1.09 1.24 1.06 1.27 2.78v9.67h-4.14v-8.13q-0.0296-0.858-0.473-1.36-0.414-0.532-1.42-0.532-0.946 0-1.66 0.621-0.71 0.621-1.09 1.69-0.384 1.06-0.384 2.45v5.26h-4.14v-12.9z" stroke-width=".739" aria-label="in"/><path d="m50.6 172 183-6.5-2.19 49.4-178 3.46z" fill="#ffd885" stroke-width=".868"/><path d="m76.6 179q3.86 0 6.53 1.31 2.67 1.27 4.07 3.64 1.4 2.33 1.4 5.55 0 1.91-0.593 3.86-0.551 1.91-1.82 3.48-1.23 1.57-3.35 2.54-2.08 0.932-5.13 0.932h-4.41v9.87h-6.15v-31.2zm1.06 15.3q1.4 0 2.33-0.466 0.932-0.509 1.44-1.23 0.551-0.763 0.763-1.57 0.254-0.805 0.254-1.4 0-0.466-0.17-1.23-0.127-0.805-0.593-1.61-0.466-0.805-1.44-1.36-0.932-0.551-2.54-0.551h-4.41v9.41zm14 6.36q0-2.84 1.31-5.09 1.36-2.25 3.77-3.52 2.42-1.31 5.55-1.31 3.18 0 5.51 1.31 2.33 1.27 3.56 3.52 1.27 2.25 1.27 5.09 0 2.84-1.27 5.13-1.23 2.25-3.56 3.56t-5.59 1.31q-3.05 0-5.47-1.19-2.37-1.19-3.73-3.43t-1.36-5.38zm5.98 0.0424q0 1.44 0.593 2.63 0.593 1.14 1.61 1.82 1.02 0.678 2.29 0.678 1.4 0 2.42-0.678t1.57-1.82q0.551-1.19 0.551-2.63 0-1.48-0.551-2.63-0.551-1.14-1.57-1.82-1.02-0.678-2.42-0.678-1.27 0-2.29 0.678-1.02 0.678-1.61 1.82-0.593 1.14-0.593 2.63zm27.2 9.96q-2.59 0-4.62-1.19-2.03-1.23-3.22-3.52-1.14-2.29-1.14-5.42t1.27-5.34q1.27-2.2 3.48-3.35 2.2-1.14 5-1.14 1.78 0 3.39 0.551 1.65 0.551 2.75 1.7v1.86-18.1h5.89v33.4h-5.93v-3.6l0.466 1.27q-1.44 1.19-3.22 2.03-1.78 0.805-4.11 0.805zm1.95-5q1.19 0 2.08-0.297 0.932-0.339 1.61-0.932 0.72-0.636 1.23-1.57v-4.53q-0.339-0.932-1.06-1.57-0.678-0.678-1.7-1.02-0.975-0.381-2.16-0.381-1.31 0-2.46 0.678-1.1 0.636-1.78 1.78-0.678 1.14-0.678 2.63 0 1.48 0.678 2.67 0.678 1.19 1.78 1.86 1.14 0.678 2.46 0.678zm32.7 2.84q-1.23 0.975-3.09 1.57-1.82 0.593-3.6 0.593-3.18 0-5.55-1.14-2.33-1.19-3.64-3.35-1.27-2.2-1.27-5.3t1.4-5.26q1.4-2.2 3.64-3.35 2.29-1.14 4.79-1.14 2.5 0 4.32 0.678 1.86 0.678 3.18 1.78l-2.88 3.81q-0.593-0.466-1.65-0.932-1.02-0.509-2.42-0.509-1.23 0-2.25 0.636-1.02 0.636-1.61 1.74-0.593 1.1-0.593 2.54 0 1.36 0.636 2.5t1.74 1.82q1.14 0.636 2.67 0.636 0.975 0 1.78-0.254 0.848-0.297 1.44-0.805zm12.4 2.16q-2.59 0-4.7-1.02-2.08-1.06-3.31-3.22t-1.23-5.51q0-3.14 1.27-5.42t3.35-3.52q2.08-1.27 4.41-1.27 2.75 0 4.15 0.932 1.44 0.89 2.37 1.99l-0.254 0.72 0.551-2.71h5.51v18.5h-5.93v-4.03l0.466 1.27q-0.0848 0-0.509 0.509-0.424 0.466-1.27 1.14-0.805 0.636-2.03 1.1-1.19 0.509-2.84 0.509zm1.7-4.83q1.06 0 1.91-0.297 0.848-0.339 1.48-0.932 0.636-0.636 1.1-1.57v-4.53q-0.339-0.932-1.02-1.57-0.678-0.678-1.61-1.02-0.932-0.381-2.08-0.381-1.27 0-2.37 0.678-1.06 0.636-1.7 1.78-0.636 1.14-0.636 2.63 0 1.48 0.678 2.67 0.678 1.19 1.78 1.86 1.14 0.678 2.46 0.678zm22.5 4.7q-2.29 0-4.28-0.805-1.95-0.805-3.31-2.25l2.46-3.26q1.36 1.23 2.5 1.78 1.19 0.509 2.12 0.509 0.72 0 1.27-0.127 0.593-0.17 0.932-0.466 0.339-0.339 0.339-0.848 0-0.72-0.593-1.14-0.551-0.424-1.44-0.678-0.89-0.297-1.91-0.593-2.54-0.805-3.69-2.33-1.1-1.57-1.1-3.39 0-1.4 0.72-2.8 0.763-1.44 2.37-2.37 1.65-0.975 4.24-0.975 2.33 0 3.94 0.466 1.61 0.466 3.05 1.53l-2.25 3.48q-0.805-0.636-1.82-1.06-0.975-0.466-1.82-0.509-0.763-0.0424-1.31 0.17-0.509 0.212-0.805 0.551-0.297 0.339-0.297 0.72-0.0424 0.805 0.593 1.27 0.678 0.466 1.7 0.72 1.02 0.254 1.99 0.593 1.36 0.424 2.33 1.14 0.975 0.72 1.48 1.74 0.551 0.975 0.551 2.37 0 1.7-0.89 3.22-0.848 1.48-2.63 2.42-1.74 0.932-4.45 0.932zm14.7-27h5.93v8.05h4.49v4.62h-4.49v14h-5.93v-14h-2.88v-4.62h2.88z" fill="#ee3756" stroke-width="1.06" aria-label="Podcast"/></svg>
