<svg xmlns="http://www.w3.org/2000/svg" xmlns:xlink="http://www.w3.org/1999/xlink" width="900" height="600" viewBox="0 0 900 600"><defs><path id="e" d="M6.281.234c-1.73 0-3.043-.476-3.937-1.437C1.445-2.16 1-3.47 1-5.125q-.001-1.247.344-2.266.356-1.014 1-1.718a4.4 4.4 0 0 1 1.578-1.078c.625-.25 1.32-.376 2.094-.376q1.17 0 2.078.376.919.376 1.562 1.062a4.6 4.6 0 0 1 .985 1.64q.358.973.359 2.173v.875H3.938v.171q0 1.002.624 1.61.623.61 1.813.61.92 0 1.578-.345a3.5 3.5 0 0 0 1.14-.921l1.61 1.734q-.61.737-1.687 1.281-1.081.53-2.735.531m-.234-8.671q-.973.001-1.547.593-.562.581-.562 1.578v.172h4.156v-.172q-.001-1.013-.547-1.593-.55-.576-1.5-.578m0 0"/><path id="h" d="M2.688 0H.906v-8.375h3.25q.61 0 1.078.188c.32.124.594.304.813.53q.34.346.5.845.17.485.172 1.093c0 .594-.133 1.106-.39 1.532q-.375.644-1.079.843L6.89 0H4.923L3.516-3.11h-.828zm1.03-4.5q.641 0 .876-.234.248-.246.25-.797v-.36q-.002-.546-.25-.78-.237-.249-.875-.25H2.688V-4.5zm0 0"/><path id="i" d="M4.64-1.125h-.062a2.2 2.2 0 0 1-.656.906q-.44.36-1.172.36A2.4 2.4 0 0 1 1.922 0a1.7 1.7 0 0 1-.625-.453 2.1 2.1 0 0 1-.422-.734 3.3 3.3 0 0 1-.14-1v-4h1.78v3.765c0 .805.344 1.203 1.032 1.203q.2 0 .406-.047a1 1 0 0 0 .594-.453.83.83 0 0 0 .094-.406v-4.062h1.78V0h-1.78zm0 0"/><path id="j" d="M3.531.14c-.687 0-1.289-.105-1.797-.312q-.766-.31-1.14-.844l.984-.921q.358.391.844.609.498.22 1.125.219.515.001.812-.157a.52.52 0 0 0 .313-.5q-.002-.264-.203-.359a2 2 0 0 0-.563-.172l-1-.156a4 4 0 0 1-.781-.188 2.1 2.1 0 0 1-.625-.328q-.27-.215-.422-.531-.157-.309-.156-.766-.002-.965.734-1.515.749-.563 2.094-.563.919.002 1.563.25.638.253 1.03.703l-.89 1.016a2.3 2.3 0 0 0-.719-.516c-.28-.132-.625-.203-1.03-.203-.7 0-1.048.211-1.048.625q0 .284.203.39.216.096.579.157l.984.156q.42.065.781.188.356.129.625.344.264.204.422.515.155.315.156.766 0 .97-.75 1.531-.751.563-2.125.563m0 0"/><path id="k" d="M4.078 0c-.637 0-1.11-.164-1.422-.5q-.469-.515-.469-1.281v-3.032H.5v-1.375h1.094q.387.002.562-.156c.114-.101.172-.297.172-.578v-1.453h1.625v2.188h2.422v1.375H3.953v3.437h2.422V0zm0 0"/><path id="l" d="M.766-8.375h2.703q1.686 0 2.5 1.078.827 1.08.828 3.11 0 2.031-.828 3.109Q5.155 0 3.469 0H.766zm2.578 6.953q.809 0 1.172-.516.375-.514.375-1.5v-1.515q0-.968-.375-1.484-.364-.516-1.172-.516h-.797v5.531zm0 0"/><path id="m" d="M3.766.14Q2.2.142 1.39-.718c-.532-.57-.797-1.36-.797-2.36q-.001-.75.203-1.358.216-.61.61-1.032.388-.42.952-.64a3.2 3.2 0 0 1 1.25-.235c.47 0 .883.078 1.25.235q.545.221.938.625.388.409.594 1c.132.386.203.82.203 1.297v.53H2.359v.095q0 .609.375.984.374.361 1.094.36.545 0 .938-.204.406-.216.687-.562l.969 1.03c-.242.306-.578.563-1.016.782q-.644.312-1.64.313M3.625-5.06q-.581 0-.922.359-.344.345-.344.953v.094h2.5v-.094q0-.622-.328-.969c-.218-.226-.523-.343-.906-.343m0 0"/><path id="n" d="M.781-8.875h1.781v5.031h.079l.828-.969 1.297-1.375h2.03L4.407-3.75 7.063 0H4.938L3.14-2.734l-.578.593V0H.78zm0 0"/><path id="o" d="M3.594.14q-.721 0-1.297-.217-.564-.219-.969-.64a2.8 2.8 0 0 1-.625-1.016 4 4 0 0 1-.219-1.36c0-.508.07-.96.22-1.36q.215-.592.624-1.015.406-.42.969-.64a3.4 3.4 0 0 1 1.297-.235q.715 0 1.297.235.573.22.984.64.405.423.61 1.016.217.597.218 1.36 0 .75-.219 1.359-.205.595-.609 1.015a2.7 2.7 0 0 1-.984.64Q4.31.14 3.594.142m0-1.312q.61 0 .937-.375c.227-.25.344-.601.344-1.062v-.985c0-.445-.117-.797-.344-1.047q-.327-.375-.937-.375-.598 0-.938.375c-.219.25-.328.602-.328 1.047v.985q0 .688.328 1.062.34.375.938.375m0 0"/><path id="p" d="M.703-6.187h1.781v1.125h.079q.233-.545.656-.907.435-.375 1.187-.375.516.002.938.203.42.189.734.594.31.392.484 1 .171.609.172 1.453T6.563-1.64q-.176.61-.485 1.016-.314.392-.734.578a2.3 2.3 0 0 1-.938.188c-.5 0-.898-.118-1.187-.344a2.4 2.4 0 0 1-.656-.922h-.079v3.531H.704zm2.938 4.953q.592.002.922-.36.328-.373.328-1.015v-.97q0-.636-.328-1-.33-.375-.922-.374-.471 0-.813.234-.344.223-.344.703v1.829q0 .501.344.734.342.22.813.219m0 0"/><path id="q" d="m5.219 0-.532-2.016h-2.28L1.89 0H.063l2.265-8.375h2.547L7.141 0zM3.594-6.64H3.5l-.812 3.17h1.734zm0 0"/><path id="r" d="M2.094-3.734q0-.873.187-1.688a7.2 7.2 0 0 1 .547-1.5 6 6 0 0 1 .797-1.25q.45-.561.953-.953H6.36a8 8 0 0 0-1.078.906 6 6 0 0 0-.875 1.125q-.375.61-.61 1.313c-.148.46-.218.937-.218 1.437v1.219c0 .512.07 1 .219 1.469q.235.688.61 1.297c.25.402.538.773.874 1.109a8 8 0 0 0 1.078.906H4.58A5.3 5.3 0 0 1 3.624.72a6.6 6.6 0 0 1-.797-1.25 7.4 7.4 0 0 1-.547-1.516 7.5 7.5 0 0 1-.187-1.687m0 0"/><path id="s" d="M5.844 0q-.55 0-.89-.281-.331-.28-.391-.813H4.5q-.175.611-.672.922Q3.342.14 2.61.141q-.891.001-1.437-.485-.549-.48-.547-1.36 0-.967.703-1.437.717-.468 2.078-.468h1v-.313q-.001-.545-.265-.828c-.168-.195-.453-.297-.86-.297q-.563 0-.922.219-.347.223-.593.562l-.97-.859q.313-.529.97-.875.67-.342 1.718-.344 1.265.002 1.985.594.716.58.718 1.75v2.719h.672V0zM3.28-1.016c.313 0 .578-.07.797-.218q.328-.235.328-.672v-.75h-.953q-1.094.001-1.094.734v.234q-.001.33.25.5c.176.118.399.172.672.172m0 0"/><path id="t" d="M.89-1.375h1.422v-3.437H.892v-1.375h3.203v1.75h.078q.093-.34.234-.657c.102-.207.235-.394.39-.562.157-.164.345-.297.563-.39q.34-.142.797-.141h.594v1.625H5.422q-.659.002-1 .39a1.44 1.44 0 0 0-.328.953v1.844h2.031V0H.891zm0 0"/><path id="u" d="M3.984-6.984c-.398 0-.671-.079-.828-.235a.85.85 0 0 1-.234-.61v-.343q0-.358.234-.594c.156-.164.43-.25.828-.25.395 0 .672.086.829.25a.8.8 0 0 1 .234.594v.344a.85.85 0 0 1-.234.61q-.236.233-.829.234M1.125-1.375h1.969v-3.437H1.125v-1.375h3.75v4.812h1.828V0H1.125zm0 0"/><path id="v" d="M5.11-3.734a7 7 0 0 1-.204 1.687A7.2 7.2 0 0 1 4.375-.53Q4.03.158 3.578.719a5.2 5.2 0 0 1-.969.937H.844A8 8 0 0 0 1.89.75q.515-.505.89-1.11c.258-.406.461-.835.61-1.296q.234-.702.234-1.469v-1.219c0-.5-.078-.976-.234-1.437a5.6 5.6 0 0 0-.61-1.313 5.7 5.7 0 0 0-.89-1.125 8 8 0 0 0-1.047-.906h1.765c.344.262.664.578.97.953q.45.548.796 1.25.342.692.531 1.5.201.815.203 1.688m0 0"/><path id="F" d="M.813-1.375h1.906V-7.5H.813v-1.375h3.671v7.5h1.907V0H.813zm0 0"/><path id="G" d="M.64 0 .126-8.375h1.563l.234 5.016.062 1.578h.11l.719-4.766h1.624l.72 4.766h.109l.078-1.531.234-5.063h1.484L6.548 0H4.266l-.61-4.625h-.11L2.923 0zm0 0"/><path id="H" d="M.703-8.875h1.781v3.813h.079q.233-.545.656-.907.435-.375 1.187-.375.516.002.938.203.42.189.734.594.31.392.484 1 .171.609.172 1.453T6.563-1.64q-.176.61-.485 1.016-.314.392-.734.578a2.3 2.3 0 0 1-.938.188c-.5 0-.898-.118-1.187-.344a2.4 2.4 0 0 1-.656-.922h-.079V0H.704zm2.938 7.64c.394 0 .703-.117.922-.359q.328-.373.328-1.015v-.97q0-.636-.328-1-.33-.375-.922-.374-.471 0-.813.234-.344.223-.344.703v1.829q0 .501.344.734.342.22.813.219m0 0"/><path id="K" d="M3.86.14q-.739 0-1.33-.217a2.6 2.6 0 0 1-.984-.64 2.9 2.9 0 0 1-.61-1.016 4 4 0 0 1-.218-1.36c0-.508.07-.96.219-1.36q.216-.592.609-1.015.405-.42.984-.64a3.5 3.5 0 0 1 1.313-.235q1.015 0 1.625.422.623.41.953 1.094l-1.375.75a1.6 1.6 0 0 0-.438-.594c-.18-.164-.433-.25-.765-.25-.406 0-.727.121-.953.36q-.329.346-.328.968v1q0 .61.328.969.34.361.968.36.515 0 .813-.235.293-.247.5-.64l1.344.765q-.329.688-.985 1.11C5.101.003 4.547.14 3.86.14m0 0"/><path id="N" d="M7 .625q0 .984-.828 1.453c-.555.313-1.422.469-2.61.469-.593 0-1.085-.04-1.468-.11-.375-.062-.68-.164-.906-.296q-.345-.189-.485-.453a1.2 1.2 0 0 1-.14-.579C.563.766.664.5.875.313q.312-.268.875-.407v-.078A1.4 1.4 0 0 1 1.125-.5Q.891-.732.891-1.14q-.002-.45.297-.673.31-.216.812-.328v-.078a2.1 2.1 0 0 1-.86-.734q-.297-.48-.296-1.172 0-.544.187-.953a1.7 1.7 0 0 1 .547-.688q.358-.281.844-.421a3.8 3.8 0 0 1 1.11-.157c.382 0 .75.047 1.093.14v-.343q-.001-.358.25-.594.247-.234.688-.234h1.093v1.297H5.172v.11q.5.25.781.718.282.47.281 1.125 0 .532-.187.953a1.84 1.84 0 0 1-.547.688 2.5 2.5 0 0 1-.86.422q-.5.14-1.109.14a3.8 3.8 0 0 1-1.015-.125 1 1 0 0 0-.22.188.42.42 0 0 0-.093.28.34.34 0 0 0 .078.235.5.5 0 0 0 .203.125q.123.036.282.047.17.017.359.016h1.406q.668.001 1.125.125.469.128.766.375.31.234.437.562Q7 .23 7 .625M5.313.75a.45.45 0 0 0-.188-.375q-.189-.14-.734-.14H2.266A.65.65 0 0 0 2.03.75q0 .282.235.469.246.187.843.187h1.047c.407 0 .696-.058.875-.172A.54.54 0 0 0 5.313.75M3.53-3.047q.53.002.781-.265a.95.95 0 0 0 .25-.672v-.282q-.001-.42-.25-.671c-.167-.176-.43-.266-.78-.266q-.535.001-.782.266-.234.25-.234.671v.282q0 .409.234.672c.164.18.426.265.781.265m0 0"/><path id="O" d="M.781-8.875h1.781v3.813h.063q.106-.263.266-.485.152-.232.375-.406a1.9 1.9 0 0 1 .515-.281 2.15 2.15 0 0 1 1.484.047q.374.158.641.453.265.3.407.734c.101.281.156.61.156.984V0H4.687v-3.766q-.002-1.202-1.046-1.203c-.137 0-.274.024-.407.063a.9.9 0 0 0-.343.172.8.8 0 0 0-.25.28.84.84 0 0 0-.079.391V0H.783zm0 0"/><path id="P" d="M4.719-1.125h-.094a2.4 2.4 0 0 1-.656.922C3.688.023 3.297.14 2.797.14q-.518 0-.953-.188a1.9 1.9 0 0 1-.735-.578Q.81-1.031.641-1.641C.523-2.047.469-2.53.469-3.094c0-.562.054-1.047.172-1.453q.17-.608.468-1 .312-.406.735-.594a2.3 2.3 0 0 1 .953-.203c.25 0 .469.04.656.11q.292.094.516.265.217.158.375.39.17.236.281.516h.094v-3.812h1.765V0H4.72zm-1.157-.11q.469.002.813-.218.342-.233.344-.734v-1.829q-.002-.48-.344-.703a1.4 1.4 0 0 0-.812-.234q-.597 0-.922.375-.329.362-.328 1v.969c0 .43.109.765.328 1.015q.325.361.922.36m0 0"/><clipPath id="a"><path d="M512.023 250.316h173.25V522.56h-173.25zm0 0"/></clipPath><clipPath id="b"><path d="M534.523 250.316H663.22c12.426 0 22.5 10.075 22.5 22.5V500.06c0 12.425-10.074 22.5-22.5 22.5H534.523c-12.425 0-22.5-10.075-22.5-22.5V272.816c0-12.425 10.075-22.5 22.5-22.5m0 0"/></clipPath><clipPath id="c"><path d="M755.023 250.316h173.25V522.56h-173.25zm0 0"/></clipPath><clipPath id="d"><path d="M777.523 250.316H906.22c12.426 0 22.5 10.075 22.5 22.5V500.06c0 12.425-10.074 22.5-22.5 22.5H777.523c-12.425 0-22.5-10.075-22.5-22.5V272.816c0-12.425 10.075-22.5 22.5-22.5m0 0"/></clipPath><clipPath id="f"><path d="M543.75 394.313H654v99.75H543.75zm0 0"/></clipPath><clipPath id="g"><path d="M566.25 394.313h65.25c12.426 0 22.5 10.074 22.5 22.5v54.75c0 12.425-10.074 22.5-22.5 22.5h-65.25c-12.426 0-22.5-10.075-22.5-22.5v-54.75c0-12.426 10.074-22.5 22.5-22.5m0 0"/></clipPath><clipPath id="w"><path d="M543.75 278.813H654v99.75H543.75zm0 0"/></clipPath><clipPath id="E"><path d="M566.25 278.813h65.25c12.426 0 22.5 10.074 22.5 22.5v54.75c0 12.425-10.074 22.5-22.5 22.5h-65.25c-12.426 0-22.5-10.075-22.5-22.5v-54.75c0-12.426 10.074-22.5 22.5-22.5m0 0"/></clipPath><clipPath id="I"><path d="M786.75 394.313H897v99.75H786.75zm0 0"/></clipPath><clipPath id="J"><path d="M809.25 394.313h65.25c12.426 0 22.5 10.074 22.5 22.5v54.75c0 12.425-10.074 22.5-22.5 22.5h-65.25c-12.426 0-22.5-10.075-22.5-22.5v-54.75c0-12.426 10.074-22.5 22.5-22.5m0 0"/></clipPath><clipPath id="L"><path d="M786.75 278.813H897v99.75H786.75zm0 0"/></clipPath><clipPath id="M"><path d="M809.25 278.813h65.25c12.426 0 22.5 10.074 22.5 22.5v54.75c0 12.425-10.074 22.5-22.5 22.5h-65.25c-12.426 0-22.5-10.075-22.5-22.5v-54.75c0-12.426 10.074-22.5 22.5-22.5m0 0"/></clipPath></defs><g clip-path="url(#a)" transform="translate(-651.023 -315.271)scale(1.52888)"><g clip-path="url(#b)"><path d="M546.523 247.316h9v6h-9zm12 0h9v6h-9zm12 0h9v6h-9zm12 0h9v6h-9zm12 0h9v6h-9zm12 0h9v6h-9zm12 0h9v6h-9zm12 0h9v6h-9zm12 0h9v6h-9zm12 0h8.696l.332.004-.043 6-.29-.004h-8.695zm12.45.278q5.114.75 9.53 3.453l-3.128 5.121a19.2 19.2 0 0 0-7.277-2.64zm12.308 5.414a25.3 25.3 0 0 1 6.45 7.82l-5.294 2.824a19.4 19.4 0 0 0-4.937-5.984zm7.848 10.922a25.4 25.4 0 0 1 1.59 8.886v1.012h-6v-1.012q-.001-3.527-1.215-6.796zm1.59 12.898v9h-6v-9zm0 12v9h-6v-9zm0 12v9h-6v-9zm0 12v9h-6v-9zm0 12v9h-6v-9zm0 12v9h-6v-9zm0 12v9h-6v-9zm0 12v9h-6v-9zm0 12v9h-6v-9zm0 12v9h-6v-9zm0 12v9h-6v-9zm0 12v9h-6v-9zm0 12v9h-6v-9zm0 12v9h-6v-9zm0 12v9h-6v-9zm0 12v9h-6v-9zm0 12v9h-6v-9zm0 12v9h-6v-9zm0 12v7.23q-.001 1.019-.078 2.032l-5.98-.473q.058-.78.058-1.558v-7.23zm-.567 12.606a25.2 25.2 0 0 1-4.074 9.296l-4.906-3.453a19.2 19.2 0 0 0 3.113-7.101zm-6.215 11.941a25.3 25.3 0 0 1-8.226 5.93l-2.473-5.465a19.4 19.4 0 0 0 6.297-4.54zm-11.406 7.117a25.4 25.4 0 0 1-7.312 1.067h-2.48v-6h2.48a19.5 19.5 0 0 0 5.593-.813zm-12.793 1.067h-9v-6h9zm-12 0h-9v-6h9zm-12 0h-9v-6h9zm-12 0h-9v-6h9zm-12 0h-9v-6h9zm-12 0h-9v-6h9zm-12 0h-9v-6h9zm-12 0h-9v-6h9zm-12 0h-9v-6h9zm-12 0h-9v-6h9zm-12 0h-3.215q-3.321-.001-6.503-.84l1.527-5.801q2.433.64 4.976.64h3.215zm-12.937-1.922a25.2 25.2 0 0 1-8.418-5.66l4.265-4.215a19.3 19.3 0 0 0 6.442 4.328zm-10.64-8.23a25.2 25.2 0 0 1-4.38-9.153l5.824-1.453a19.2 19.2 0 0 0 3.344 6.992zm-4.977-12.489q-.16-1.424-.16-2.86v-6.495h6v6.496q.002 1.1.12 2.191zm-.16-12.355v-9h6v9zm0-12v-9h6v9zm0-12v-9h6v9zm0-12v-9h6v9zm0-12v-9h6v9zm0-12v-9h6v9zm0-12v-9h6v9zm0-12v-9h6v9zm0-12v-9h6v9zm0-12v-9h6v9zm0-12v-9h6v9zm0-12v-9h6v9zm0-12v-9h6v9zm0-12v-9h6v9zm0-12v-9h6v9zm0-12v-9h6v9zm0-12v-9h6v9zm0-12v-9h6v9zm0-12v-1.747c0-2.785.437-5.484 1.316-8.105l5.691 1.906q-1.008 3-1.008 6.2v1.746zm2.609-12.993a25.3 25.3 0 0 1 6.195-8.027l3.93 4.535a19.3 19.3 0 0 0-4.742 6.14zm8.906-10.078a25.1 25.1 0 0 1 9.422-3.765l1.066 5.902a19.2 19.2 0 0 0-7.195 2.879zm12.793-4.148q.593-.026 1.191-.028h9v6h-9q-.456 0-.914.024zm0 0"/></g></g><g clip-path="url(#c)" transform="translate(-651.023 -315.271)scale(1.52888)"><g clip-path="url(#d)"><path d="M789.523 247.316h9v6h-9zm12 0h9v6h-9zm12 0h9v6h-9zm12 0h9v6h-9zm12 0h9v6h-9zm12 0h9v6h-9zm12 0h9v6h-9zm12 0h9v6h-9zm12 0h9v6h-9zm12 0h8.696l.332.004-.043 6-.29-.004h-8.695zm12.45.278q5.114.75 9.53 3.453l-3.128 5.121a19.2 19.2 0 0 0-7.277-2.64zm12.308 5.414a25.3 25.3 0 0 1 6.45 7.82l-5.294 2.824a19.4 19.4 0 0 0-4.937-5.984zm7.848 10.922a25.4 25.4 0 0 1 1.59 8.886v1.012h-6v-1.012q-.001-3.527-1.215-6.796zm1.59 12.898v9h-6v-9zm0 12v9h-6v-9zm0 12v9h-6v-9zm0 12v9h-6v-9zm0 12v9h-6v-9zm0 12v9h-6v-9zm0 12v9h-6v-9zm0 12v9h-6v-9zm0 12v9h-6v-9zm0 12v9h-6v-9zm0 12v9h-6v-9zm0 12v9h-6v-9zm0 12v9h-6v-9zm0 12v9h-6v-9zm0 12v9h-6v-9zm0 12v9h-6v-9zm0 12v9h-6v-9zm0 12v9h-6v-9zm0 12v7.23q-.001 1.019-.078 2.032l-5.98-.473q.058-.78.058-1.558v-7.23zm-.567 12.606a25.2 25.2 0 0 1-4.074 9.296l-4.906-3.453a19.2 19.2 0 0 0 3.113-7.101zm-6.215 11.941a25.3 25.3 0 0 1-8.226 5.93l-2.473-5.465a19.4 19.4 0 0 0 6.297-4.54zm-11.406 7.117a25.4 25.4 0 0 1-7.312 1.067h-2.48v-6h2.48a19.5 19.5 0 0 0 5.593-.813zm-12.793 1.067h-9v-6h9zm-12 0h-9v-6h9zm-12 0h-9v-6h9zm-12 0h-9v-6h9zm-12 0h-9v-6h9zm-12 0h-9v-6h9zm-12 0h-9v-6h9zm-12 0h-9v-6h9zm-12 0h-9v-6h9zm-12 0h-9v-6h9zm-12 0h-3.215q-3.321-.001-6.503-.84l1.527-5.801q2.432.64 4.976.64h3.215zm-12.937-1.922a25.2 25.2 0 0 1-8.418-5.66l4.265-4.215a19.3 19.3 0 0 0 6.442 4.328zm-10.64-8.23a25.2 25.2 0 0 1-4.38-9.153l5.824-1.453a19.2 19.2 0 0 0 3.344 6.992zm-4.977-12.489q-.16-1.424-.16-2.86v-6.495h6v6.496q.002 1.1.12 2.191zm-.16-12.355v-9h6v9zm0-12v-9h6v9zm0-12v-9h6v9zm0-12v-9h6v9zm0-12v-9h6v9zm0-12v-9h6v9zm0-12v-9h6v9zm0-12v-9h6v9zm0-12v-9h6v9zm0-12v-9h6v9zm0-12v-9h6v9zm0-12v-9h6v9zm0-12v-9h6v9zm0-12v-9h6v9zm0-12v-9h6v9zm0-12v-9h6v9zm0-12v-9h6v9zm0-12v-9h6v9zm0-12v-1.747c0-2.785.437-5.484 1.316-8.105l5.691 1.906q-1.008 3-1.008 6.2v1.746zm2.609-12.993a25.3 25.3 0 0 1 6.195-8.027l3.93 4.535a19.3 19.3 0 0 0-4.742 6.14zm8.906-10.078a25.1 25.1 0 0 1 9.422-3.765l1.066 5.902a19.2 19.2 0 0 0-7.195 2.879zm12.793-4.148q.593-.026 1.191-.028h9v6h-9q-.456 0-.914.024zm0 0"/></g></g><path d="M267.404 510.875v13.497q0 1.03.072 1.863c.06.561.191 1.04.382 1.433.191.382.477.682.86.884.394.209.932.311 1.6.311q1.005 0 1.577-.311a1.97 1.97 0 0 0 .883-.884 4.1 4.1 0 0 0 .36-1.433q.091-.835.094-1.863v-13.497h4.587v12.899c0 1.469-.107 2.747-.31 3.846q-.288 1.652-1.123 2.748-.816 1.1-2.293 1.648-1.461.549-3.775.55-2.32-.004-3.797-.552-1.46-.545-2.294-1.648-.82-1.094-1.125-2.746c-.191-1.099-.286-2.377-.286-3.846v-12.9zM281.777 532.207v-3.393h4.587v-14.547h-4.587v-3.394h13.76v3.394h-4.586v14.547h4.586v3.393zM575.013 532.565q-2.704-.003-4.68-.884-1.987-.879-3.203-2.412l2.652-2.939q1.166 1.292 2.556 1.911 1.383.598 2.82.596 1.649 0 2.506-.715.861-.735.861-2.125-.003-1.122-.668-1.697-.648-.594-2.198-.837l-2.246-.357q-2.865-.5-4.156-2.126c-.848-1.1-1.266-2.426-1.266-3.99q0-3.1 2.006-4.8 2.008-1.698 5.662-1.698 2.453.002 4.3.765 1.835.77 2.962 2.08l-2.58 2.913a6.1 6.1 0 0 0-2.03-1.483q-1.148-.547-2.63-.549-3.08.002-3.08 2.557 0 1.1.67 1.648.69.555 2.268.813l2.222.405q2.599.456 4.013 1.959c.937 1.004 1.41 2.354 1.41 4.037q-.003 1.506-.526 2.772a6 6 0 0 1-1.576 2.197c-.688.621-1.542 1.112-2.557 1.457-1.003.33-2.174.502-3.512.502m0 0"/><use xlink:href="#e" x="808.132" y="554.313" transform="translate(-651.023 -315.271)scale(1.52888)"/><path d="M605.122 528.695h3.632v-8.743h-3.632v-3.51h8.147v4.442h.214q.214-.835.596-1.648a5.4 5.4 0 0 1 .98-1.434c.395-.43.886-.764 1.459-1.003q.856-.36 2.03-.36h1.48v4.16h-3.343q-1.699 0-2.557 1.002c-.573.658-.859 1.457-.859 2.413v4.681h5.207v3.512h-13.354zM627.665 532.207l-5.637-15.766h4.755l2.053 6.736 1.505 5.28h.24l1.504-5.28 2.03-6.736h4.587l-5.637 15.766zM649.684 514.41q-1.532.004-2.125-.621a2.1 2.1 0 0 1-.597-1.53v-.883q-.003-.907.597-1.504.593-.621 2.125-.623 1.527.002 2.127.623.594.599.596 1.504v.884q-.003.913-.596 1.529c-.4.419-1.11.62-2.126.62m-7.285 14.285h5.017v-8.744h-5.018v-3.51h9.555v12.254h4.634v3.513h-14.19zM667.69 532.565q-1.866 0-3.346-.55a6.7 6.7 0 0 1-2.507-1.647 7.2 7.2 0 0 1-1.576-2.604c-.372-1.015-.55-2.162-.55-3.44 0-1.29.178-2.443.55-3.464a7 7 0 0 1 1.574-2.58 6.7 6.7 0 0 1 2.51-1.648q1.478-.574 3.32-.574 2.58.001 4.157 1.051c1.052.704 1.85 1.636 2.413 2.795l-3.488 1.911a4.4 4.4 0 0 0-1.123-1.529q-.696-.619-1.957-.62-1.58.003-2.415.908-.837.911-.836 2.46v2.58q-.003 1.557.836 2.46.832.887 2.462.884 1.309 0 2.053-.596.763-.618 1.29-1.6l3.416 1.956a6.83 6.83 0 0 1-2.506 2.798c-1.087.699-2.507 1.05-4.276 1.05m0 0"/><use xlink:href="#e" x="868.108" y="554.313" transform="translate(-651.023 -315.271)scale(1.52888)"/><path d="M703.533 532.565c-1.756 0-3.272-.266-4.563-.786q-1.935-.789-2.915-2.176l2.533-2.34q.904 1.001 2.15 1.574c.824.372 1.773.55 2.843.55q1.33.004 2.101-.404a1.35 1.35 0 0 0 .765-1.266q-.003-.665-.525-.933-.529-.26-1.434-.405l-2.532-.407a12 12 0 0 1-2.007-.478 4.7 4.7 0 0 1-1.576-.86 4.1 4.1 0 0 1-1.075-1.337q-.384-.808-.382-1.936-.002-2.48 1.885-3.892c1.253-.938 3.035-1.408 5.328-1.408q2.31 0 3.941.643c1.1.42 1.971 1.005 2.628 1.77l-2.268 2.577a5.8 5.8 0 0 0-1.792-1.29q-1.1-.522-2.676-.525-2.63.003-2.626 1.6-.002.696.524.956.52.266 1.434.405l2.507.407a9.4 9.4 0 0 1 1.983.477q.93.314 1.601.86.688.556 1.1 1.362.403.79.405 1.91 0 2.488-1.912 3.92-1.915 1.432-5.445 1.432m0 0"/><g clip-path="url(#f)" transform="translate(-651.023 -315.271)scale(1.52888)"><g clip-path="url(#g)"><path fill="#f7aa18" d="M543.75 394.313h110.27v99.75H543.75zm0 0"/></g></g><use xlink:href="#h" x="584.098" y="431.063" transform="translate(-651.023 -315.271)scale(1.52888)"/><use xlink:href="#i" x="591.298" y="431.063" transform="translate(-651.023 -315.271)scale(1.52888)"/><use xlink:href="#j" x="598.498" y="431.063" transform="translate(-651.023 -315.271)scale(1.52888)"/><use xlink:href="#k" x="605.698" y="431.063" transform="translate(-651.023 -315.271)scale(1.52888)"/><use xlink:href="#l" x="573.293" y="447.563" transform="translate(-651.023 -315.271)scale(1.52888)"/><use xlink:href="#m" x="580.493" y="447.563" transform="translate(-651.023 -315.271)scale(1.52888)"/><use xlink:href="#j" x="587.693" y="447.563" transform="translate(-651.023 -315.271)scale(1.52888)"/><use xlink:href="#n" x="594.893" y="447.563" transform="translate(-651.023 -315.271)scale(1.52888)"/><use xlink:href="#k" x="602.093" y="447.563" transform="translate(-651.023 -315.271)scale(1.52888)"/><use xlink:href="#o" x="609.293" y="447.563" transform="translate(-651.023 -315.271)scale(1.52888)"/><use xlink:href="#p" x="616.493" y="447.563" transform="translate(-651.023 -315.271)scale(1.52888)"/><use xlink:href="#q" x="562.488" y="464.063" transform="translate(-651.023 -315.271)scale(1.52888)"/><use xlink:href="#p" x="569.688" y="464.063" transform="translate(-651.023 -315.271)scale(1.52888)"/><use xlink:href="#p" x="576.888" y="464.063" transform="translate(-651.023 -315.271)scale(1.52888)"/><use xlink:href="#r" x="584.088" y="464.063" transform="translate(-651.023 -315.271)scale(1.52888)"/><path d="M259.865 383.667v10.559h-2.747v-10.559h-3.703v-2.246h10.129v2.246zm0 0"/><use xlink:href="#s" x="598.488" y="464.063" transform="translate(-651.023 -315.271)scale(1.52888)"/><use xlink:href="#i" x="605.688" y="464.063" transform="translate(-651.023 -315.271)scale(1.52888)"/><use xlink:href="#t" x="612.888" y="464.063" transform="translate(-651.023 -315.271)scale(1.52888)"/><use xlink:href="#u" x="620.088" y="464.063" transform="translate(-651.023 -315.271)scale(1.52888)"/><use xlink:href="#v" x="627.288" y="464.063" transform="translate(-651.023 -315.271)scale(1.52888)"/><g clip-path="url(#w)" transform="translate(-651.023 -315.271)scale(1.52888)"><g clip-path="url(#E)"><path d="M543.75 278.813h110.27v99.75H543.75zm0 0"/></g></g><use xlink:href="#h" x="580.488" y="323.813" fill="#fff" transform="translate(-651.023 -315.271)scale(1.52888)"/><use xlink:href="#s" x="587.688" y="323.813" fill="#fff" transform="translate(-651.023 -315.271)scale(1.52888)"/><use xlink:href="#u" x="594.888" y="323.813" fill="#fff" transform="translate(-651.023 -315.271)scale(1.52888)"/><use xlink:href="#F" x="602.088" y="323.813" fill="#fff" transform="translate(-651.023 -315.271)scale(1.52888)"/><use xlink:href="#j" x="609.288" y="323.813" fill="#fff" transform="translate(-651.023 -315.271)scale(1.52888)"/><use xlink:href="#G" x="573.293" y="340.313" fill="#fff" transform="translate(-651.023 -315.271)scale(1.52888)"/><use xlink:href="#m" x="580.493" y="340.313" fill="#fff" transform="translate(-651.023 -315.271)scale(1.52888)"/><use xlink:href="#H" x="587.693" y="340.313" fill="#fff" transform="translate(-651.023 -315.271)scale(1.52888)"/><use xlink:href="#q" x="602.093" y="340.313" fill="#fff" transform="translate(-651.023 -315.271)scale(1.52888)"/><use xlink:href="#p" x="609.293" y="340.313" fill="#fff" transform="translate(-651.023 -315.271)scale(1.52888)"/><use xlink:href="#p" x="616.493" y="340.313" fill="#fff" transform="translate(-651.023 -315.271)scale(1.52888)"/><g clip-path="url(#I)" transform="translate(-651.023 -315.271)scale(1.52888)"><g clip-path="url(#J)"><path fill="#f7aa18" d="M786.75 394.313h110.27v99.75H786.75zm0 0"/></g></g><use xlink:href="#h" x="827.098" y="431.063" transform="translate(-651.023 -315.271)scale(1.52888)"/><use xlink:href="#i" x="834.298" y="431.063" transform="translate(-651.023 -315.271)scale(1.52888)"/><use xlink:href="#j" x="841.498" y="431.063" transform="translate(-651.023 -315.271)scale(1.52888)"/><use xlink:href="#k" x="848.698" y="431.063" transform="translate(-651.023 -315.271)scale(1.52888)"/><use xlink:href="#G" x="816.293" y="447.563" transform="translate(-651.023 -315.271)scale(1.52888)"/><use xlink:href="#m" x="823.493" y="447.563" transform="translate(-651.023 -315.271)scale(1.52888)"/><use xlink:href="#H" x="830.693" y="447.563" transform="translate(-651.023 -315.271)scale(1.52888)"/><path d="M637.133 363.648h-3.226v5.351h-2.768v-12.804h2.771v5.183h3.226v-5.183h2.77v12.804h-2.773zm0 0"/><use xlink:href="#o" x="845.093" y="447.563" transform="translate(-651.023 -315.271)scale(1.52888)"/><use xlink:href="#o" x="852.293" y="447.563" transform="translate(-651.023 -315.271)scale(1.52888)"/><use xlink:href="#n" x="859.493" y="447.563" transform="translate(-651.023 -315.271)scale(1.52888)"/><path d="M602.295 394.44c-1.087 0-2.025-.18-2.82-.525a4.9 4.9 0 0 1-1.91-1.457l1.6-1.743q.688.768 1.529 1.147.833.356 1.697.358.979 0 1.48-.431.523-.447.526-1.29-.002-.667-.407-1.027-.382-.359-1.315-.501l-1.336-.216q-1.72-.284-2.507-1.266c-.515-.65-.765-1.446-.765-2.39q0-1.861 1.217-2.866c.812-.68 1.942-1.027 3.393-1.027.985 0 1.845.156 2.58.454q1.092.455 1.791 1.243l-1.553 1.743a3.75 3.75 0 0 0-2.795-1.217q-1.862.001-1.862 1.529-.003.67.405 1.003.431.313 1.36.477l1.34.24q1.549.287 2.388 1.192.86.89.86 2.414-.002.913-.31 1.673-.313.741-.932 1.313-.626.555-1.53.86c-.608.203-1.312.31-2.123.31m0 0"/><use xlink:href="#m" x="823.493" y="464.063" transform="translate(-651.023 -315.271)scale(1.52888)"/><use xlink:href="#t" x="830.693" y="464.063" transform="translate(-651.023 -315.271)scale(1.52888)"/><path d="m633.909 394.226-3.393-9.46h2.867l1.218 4.037.909 3.177h.143l.884-3.177 1.242-4.037h2.747l-3.393 9.46zm0 0"/><use xlink:href="#u" x="845.093" y="464.063" transform="translate(-651.023 -315.271)scale(1.52888)"/><use xlink:href="#K" x="852.293" y="464.063" transform="translate(-651.023 -315.271)scale(1.52888)"/><use xlink:href="#m" x="859.493" y="464.063" transform="translate(-651.023 -315.271)scale(1.52888)"/><g clip-path="url(#L)" transform="translate(-651.023 -315.271)scale(1.52888)"><g clip-path="url(#M)"><path d="M786.75 278.813h110.27v99.75H786.75zm0 0"/></g></g><g fill="#fff"><use xlink:href="#h" x="805.488" y="299.063" transform="translate(-651.023 -315.271)scale(1.52888)"/><use xlink:href="#s" x="812.688" y="299.063" transform="translate(-651.023 -315.271)scale(1.52888)"/><use xlink:href="#u" x="819.888" y="299.063" transform="translate(-651.023 -315.271)scale(1.52888)"/><use xlink:href="#F" x="827.088" y="299.063" transform="translate(-651.023 -315.271)scale(1.52888)"/><use xlink:href="#j" x="834.288" y="299.063" transform="translate(-651.023 -315.271)scale(1.52888)"/><use xlink:href="#q" x="848.688" y="299.063" transform="translate(-651.023 -315.271)scale(1.52888)"/><use xlink:href="#p" x="855.888" y="299.063" transform="translate(-651.023 -315.271)scale(1.52888)"/><use xlink:href="#p" x="863.088" y="299.063" transform="translate(-651.023 -315.271)scale(1.52888)"/><use xlink:href="#j" x="870.288" y="299.063" transform="translate(-651.023 -315.271)scale(1.52888)"/><use xlink:href="#r" x="798.293" y="315.563" transform="translate(-651.023 -315.271)scale(1.52888)"/><path d="M582.176 167.187v-12.804h2.77v10.558h5.495v2.246zm0 0"/><use xlink:href="#u" x="812.693" y="315.563" transform="translate(-651.023 -315.271)scale(1.52888)"/><use xlink:href="#N" x="819.893" y="315.563" transform="translate(-651.023 -315.271)scale(1.52888)"/><use xlink:href="#O" x="827.093" y="315.563" transform="translate(-651.023 -315.271)scale(1.52888)"/><use xlink:href="#k" x="834.293" y="315.563" transform="translate(-651.023 -315.271)scale(1.52888)"/><path d="M635.638 157.728h2.27l.669 7.666h.19l1.123-7.668h2.39l1.099 7.668h.166l.717-7.668h2.126l-1.098 9.461h-3.249l-.933-6.522h-.168l-.952 6.522h-3.228zm0 0"/><use xlink:href="#m" x="848.693" y="315.563" transform="translate(-651.023 -315.271)scale(1.52888)"/><use xlink:href="#u" x="855.893" y="315.563" transform="translate(-651.023 -315.271)scale(1.52888)"/><use xlink:href="#N" x="863.093" y="315.563" transform="translate(-651.023 -315.271)scale(1.52888)"/><use xlink:href="#O" x="870.293" y="315.563" transform="translate(-651.023 -315.271)scale(1.52888)"/><use xlink:href="#k" x="877.493" y="315.563" transform="translate(-651.023 -315.271)scale(1.52888)"/><use xlink:href="#q" x="823.488" y="332.063" transform="translate(-651.023 -315.271)scale(1.52888)"/><path d="M620.384 192.413V179.61h4.97q.932 0 1.647.288c.49.19.909.464 1.243.81q.52.529.765 1.292.26.741.263 1.67-.002.96-.263 1.72a3.13 3.13 0 0 1-.765 1.267 3.4 3.4 0 0 1-1.243.813 4.4 4.4 0 0 1-1.648.286h-2.195v4.658zm2.774-6.88h1.504q.951 0 1.338-.357c.25-.251.382-.658.382-1.219v-.55c0-.555-.131-.956-.382-1.193q-.385-.38-1.338-.382h-1.504zM631.392 192.413v-2.03h2.748v-8.744h-2.748v-2.03h8.241v2.03h-2.746v8.744h2.748v2.03zm0 0"/><use xlink:href="#j" x="845.088" y="332.063" transform="translate(-651.023 -315.271)scale(1.52888)"/><path d="M656.18 189.212h3.487l-2.507 5.973h-2.009zm0 0"/><use xlink:href="#l" x="809.098" y="348.563" transform="translate(-651.023 -315.271)scale(1.52888)"/><use xlink:href="#s" x="816.298" y="348.563" transform="translate(-651.023 -315.271)scale(1.52888)"/><use xlink:href="#j" x="823.498" y="348.563" transform="translate(-651.023 -315.271)scale(1.52888)"/><use xlink:href="#O" x="830.698" y="348.563" transform="translate(-651.023 -315.271)scale(1.52888)"/><use xlink:href="#H" x="837.898" y="348.563" transform="translate(-651.023 -315.271)scale(1.52888)"/><use xlink:href="#o" x="845.098" y="348.563" transform="translate(-651.023 -315.271)scale(1.52888)"/><use xlink:href="#s" x="852.298" y="348.563" transform="translate(-651.023 -315.271)scale(1.52888)"/><use xlink:href="#t" x="859.498" y="348.563" transform="translate(-651.023 -315.271)scale(1.52888)"/><use xlink:href="#P" x="866.698" y="348.563" transform="translate(-651.023 -315.271)scale(1.52888)"/><path d="M592.9 230.062h4.49c1.254 0 2.223.31 2.891.933q1.005.91 1.003 2.483 0 1.1-.55 1.744-.526.647-1.53.956v.096q1.17.313 1.817 1.05.668.72.67 2.03c0 1.07-.347 1.924-1.028 2.557q-1.004.957-2.843.956H592.9zm4.085 10.87q.977 0 1.432-.311.477-.33.479-1.219v-.524q-.002-.88-.479-1.219-.455-.333-1.432-.335h-1.41v3.608zm-.36-5.447q.98 0 1.41-.31.451-.33.454-1.171v-.55q-.003-.833-.454-1.147c-.286-.202-.758-.31-1.41-.31h-1.05v3.487zm0 0"/><use xlink:href="#s" x="819.895" y="365.063" transform="translate(-651.023 -315.271)scale(1.52888)"/><use xlink:href="#K" x="827.095" y="365.063" transform="translate(-651.023 -315.271)scale(1.52888)"/><use xlink:href="#n" x="834.295" y="365.063" transform="translate(-651.023 -315.271)scale(1.52888)"/><use xlink:href="#m" x="841.495" y="365.063" transform="translate(-651.023 -315.271)scale(1.52888)"/><path d="M647.724 242.867v-9.46h2.723v1.72h.096q.162-.402.407-.741.232-.355.573-.62a2.9 2.9 0 0 1 .788-.43 3.3 3.3 0 0 1 2.268.071q.572.242.98.693.406.459.623 1.122c.154.43.238.933.238 1.505v6.14h-2.724v-5.758q-.003-1.838-1.6-1.84c-.209 0-.418.037-.622.097a1.4 1.4 0 0 0-.524.263 1.2 1.2 0 0 0-.382.428 1.3 1.3 0 0 0-.121.598v6.212zm0 0"/><use xlink:href="#P" x="855.895" y="365.063" transform="translate(-651.023 -315.271)scale(1.52888)"/><use xlink:href="#v" x="863.095" y="365.063" transform="translate(-651.023 -315.271)scale(1.52888)"/></g><path d="M398.92 258.06h13.76v4.587h-13.76m18.346-4.587h13.76v4.587h-13.76m18.347-4.587h13.76v4.587h-13.76m18.347-4.587h13.76v4.587h-13.76m18.346-4.587h13.76v4.587h-13.76m18.347-4.587h11.926v4.587h-11.926"/><path fill="none" stroke="#000" stroke-linecap="round" stroke-linejoin="round" stroke-width="4.587" d="m493.406 253.474 9.173 6.88-9.173 6.88"/><path d="M504.873 293.033h-13.76v-4.586h13.76m-18.347 4.586h-13.76v-4.586h13.76m-18.347 4.586h-13.76v-4.586h13.76m-18.346 4.586h-13.76v-4.586h13.76m-18.347 4.586h-13.76v-4.586h13.76m-18.346 4.586h-13.474v-4.586h13.474"/><path fill="none" stroke="#000" stroke-linecap="round" stroke-linejoin="round" stroke-width="4.587" d="m408.84 297.62-9.174-6.88 9.174-6.88"/></svg>