<svg height="600" viewBox="0 0 900 600" width="900" xmlns="http://www.w3.org/2000/svg" xmlns:xlink="http://www.w3.org/1999/xlink"><defs><path id="a" d="m6.281.234c-1.73 0-3.043-.476-3.937-1.437-.899-.957-1.344-2.267-1.344-3.922q-.001-1.247.344-2.266.356-1.014 1-1.718a4.4 4.4 0 0 1 1.578-1.078c.625-.25 1.32-.376 2.094-.376q1.17 0 2.078.376.919.376 1.562 1.062a4.6 4.6 0 0 1 .985 1.64q.358.973.359 2.173v.875h-7.062v.171q0 1.002.624 1.61.623.61 1.813.61.92 0 1.578-.345a3.5 3.5 0 0 0 1.14-.921l1.61 1.734q-.61.737-1.687 1.281-1.081.53-2.735.531m-.234-8.671q-.973.001-1.547.593-.562.581-.562 1.578v.172h4.156v-.172q-.001-1.013-.547-1.593-.55-.576-1.5-.578m0 0"/><path id="b" d="m2.688 0h-1.782v-8.375h3.25q.61 0 1.078.188c.32.124.594.304.813.53q.34.346.5.845.17.485.172 1.093c0 .594-.133 1.106-.39 1.532q-.375.644-1.079.843l1.64 3.344h-1.967l-1.407-3.11h-.828zm1.03-4.5q.641 0 .876-.234c.164-.164.25-.43.25-.797v-.36c0-.363-.086-.625-.25-.78q-.237-.249-.875-.25h-1.031v2.421zm0 0"/><path id="c" d="m4.64-1.125h-.062a2.2 2.2 0 0 1 -.656.906q-.44.36-1.172.36c-.305-.001-.578-.047-.828-.141a1.7 1.7 0 0 1 -.625-.453 2.1 2.1 0 0 1 -.422-.734 3.3 3.3 0 0 1 -.14-1v-4h1.78v3.765c0 .805.344 1.203 1.032 1.203q.2 0 .406-.047a1.01 1.01 0 0 0 .594-.453.83.83 0 0 0 .094-.406v-4.062h1.78v6.187h-1.78zm0 0"/><path id="d" d="m3.531.14c-.687 0-1.289-.105-1.797-.312q-.766-.31-1.14-.844l.984-.921q.358.391.844.609.498.22 1.125.219.515.001.812-.157a.52.52 0 0 0 .313-.5q-.002-.264-.203-.359a2 2 0 0 0 -.563-.172l-1-.156a4 4 0 0 1 -.781-.188 2.1 2.1 0 0 1 -.625-.328q-.27-.215-.422-.531-.157-.309-.156-.766c0-.644.242-1.148.734-1.515q.749-.563 2.094-.563c.613 0 1.133.086 1.563.25q.638.253 1.03.703l-.89 1.016a2.3 2.3 0 0 0 -.719-.516c-.28-.132-.625-.203-1.03-.203-.7 0-1.048.211-1.048.625q0 .284.203.39.216.096.579.157l.984.156q.42.065.781.188.356.129.625.344.264.204.422.515.155.315.156.766 0 .97-.75 1.531-.751.563-2.125.563m0 0"/><path id="e" d="m4.078 0c-.637 0-1.11-.164-1.422-.5q-.469-.515-.469-1.281v-3.032h-1.687v-1.375h1.094q.387.002.562-.156c.114-.101.172-.297.172-.578v-1.453h1.625v2.188h2.422v1.375h-2.422v3.437h2.422v1.375zm0 0"/><path id="f" d="m.766-8.375h2.703q1.686 0 2.5 1.078.827 1.08.828 3.11 0 2.031-.828 3.109-.814 1.078-2.5 1.078h-2.703zm2.578 6.953q.809 0 1.172-.516.375-.514.375-1.5v-1.515q0-.968-.375-1.484-.364-.516-1.172-.516h-.797v5.531zm0 0"/><path id="g" d="m3.766.14q-1.566.002-2.376-.858c-.532-.57-.797-1.36-.797-2.36q-.001-.75.203-1.358.216-.61.61-1.032.388-.42.952-.64a3.2 3.2 0 0 1 1.25-.235c.47 0 .883.078 1.25.235q.545.221.938.625.388.409.594 1c.132.386.203.82.203 1.297v.53h-4.234v.095q0 .609.375.984.374.361 1.094.36.545 0 .938-.204.406-.216.687-.562l.969 1.03c-.242.306-.578.563-1.016.782q-.644.312-1.64.313m-.141-5.202q-.581 0-.922.359-.344.345-.344.953v.094h2.5v-.094q0-.622-.328-.969c-.218-.226-.523-.343-.906-.343m0 0"/><path id="h" d="m.781-8.875h1.781v5.031h.079l.828-.969 1.297-1.375h2.03l-2.389 2.438 2.656 3.75h-2.125l-1.798-2.734-.578.593v2.141h-1.782zm0 0"/><path id="i" d="m3.594.14q-.721 0-1.297-.217-.564-.219-.969-.64a2.8 2.8 0 0 1 -.625-1.016 4 4 0 0 1 -.219-1.36c0-.508.07-.96.22-1.36q.215-.592.624-1.015.406-.42.969-.64a3.4 3.4 0 0 1 1.297-.235q.715 0 1.297.235.573.22.984.64.405.423.61 1.016.217.597.218 1.36 0 .75-.219 1.359-.205.595-.609 1.015a2.7 2.7 0 0 1 -.984.64q-.581.218-1.297.22m0-1.312q.61 0 .937-.375c.227-.25.344-.601.344-1.062v-.985c0-.445-.117-.797-.344-1.047q-.327-.375-.937-.375-.598 0-.938.375c-.219.25-.328.602-.328 1.047v.985q0 .688.328 1.062.34.375.938.375m0 0"/><path id="j" d="m.703-6.187h1.781v1.125h.079q.233-.545.656-.907.435-.375 1.187-.375.516.002.938.203c.281.125.523.325.734.594q.31.392.484 1 .171.609.172 1.453t-.171 1.454q-.176.61-.485 1.016-.314.392-.734.578a2.3 2.3 0 0 1 -.938.188c-.5 0-.898-.118-1.187-.344a2.4 2.4 0 0 1 -.656-.922h-.079v3.531h-1.78zm2.938 4.953q.592.002.922-.36.328-.373.328-1.015v-.97q0-.636-.328-1-.33-.375-.922-.374-.471 0-.813.234-.344.223-.344.703v1.829q0 .501.344.734.342.22.813.219m0 0"/><path id="k" d="m5.219 0-.532-2.016h-2.28l-.517 2.016h-1.827l2.265-8.375h2.547l2.266 8.375zm-1.625-6.64h-.094l-.812 3.17h1.734zm0 0"/><path id="l" d="m2.094-3.734q0-.873.187-1.688a7.2 7.2 0 0 1 .547-1.5 6 6 0 0 1 .797-1.25q.45-.561.953-.953h1.782a8 8 0 0 0 -1.078.906c-.336.336-.625.711-.875 1.125q-.375.61-.61 1.313c-.148.46-.218.937-.218 1.437v1.219c0 .512.07 1 .219 1.469q.235.688.61 1.297c.25.402.538.773.874 1.109a8 8 0 0 0 1.078.906h-1.78a5.3 5.3 0 0 1 -.956-.936 6.6 6.6 0 0 1 -.797-1.25 7.4 7.4 0 0 1 -.547-1.516 7.5 7.5 0 0 1 -.187-1.687m0 0"/><path id="m" d="m5.844 0q-.55 0-.89-.281-.331-.28-.391-.813h-.063q-.175.611-.672.922-.486.312-1.218.313-.891.001-1.437-.485-.549-.48-.547-1.36 0-.967.703-1.437.717-.468 2.078-.468h1v-.313q-.001-.545-.265-.828c-.168-.195-.453-.297-.86-.297q-.563 0-.922.219-.347.223-.593.562l-.97-.859q.313-.529.97-.875.67-.342 1.718-.344 1.265.002 1.985.594.716.58.718 1.75v2.719h.672v1.281zm-2.564-1.016c.313 0 .578-.07.797-.218q.328-.235.328-.672v-.75h-.953q-1.094.001-1.094.734v.234q-.001.33.25.5c.176.118.399.172.672.172m0 0"/><path id="n" d="m.89-1.375h1.422v-3.437h-1.42v-1.375h3.203v1.75h.078q.093-.34.234-.657c.102-.207.235-.394.39-.562.157-.164.345-.297.563-.39q.34-.142.797-.141h.594v1.625h-1.329q-.659.002-1 .39a1.44 1.44 0 0 0 -.328.953v1.844h2.031v1.375h-5.234zm0 0"/><path id="o" d="m3.984-6.984c-.398 0-.671-.079-.828-.235a.85.85 0 0 1 -.234-.61v-.343q0-.358.234-.594c.156-.164.43-.25.828-.25.395 0 .672.086.829.25a.8.8 0 0 1 .234.594v.344a.85.85 0 0 1 -.234.61q-.236.233-.829.234m-2.859 5.609h1.969v-3.437h-1.969v-1.375h3.75v4.812h1.828v1.375h-5.578zm0 0"/><path id="p" d="m5.11-3.734a7 7 0 0 1 -.204 1.687 7.2 7.2 0 0 1 -.531 1.517q-.345.688-.797 1.249a5.2 5.2 0 0 1 -.969.937h-1.765a8 8 0 0 0 1.046-.906q.515-.505.89-1.11c.258-.406.461-.835.61-1.296q.234-.702.234-1.469v-1.219c0-.5-.078-.976-.234-1.437a5.6 5.6 0 0 0 -.61-1.313 5.7 5.7 0 0 0 -.89-1.125 8 8 0 0 0 -1.047-.906h1.765c.344.262.664.578.97.953q.45.548.796 1.25.342.692.531 1.5.201.815.203 1.688m0 0"/><path id="q" d="m.813-1.375h1.906v-6.125h-1.906v-1.375h3.671v7.5h1.907v1.375h-5.578zm0 0"/><path id="r" d="m.64 0-.514-8.375h1.563l.234 5.016.062 1.578h.11l.719-4.766h1.624l.72 4.766h.109l.078-1.531.234-5.063h1.484l-.515 8.375h-2.282l-.61-4.625h-.11l-.623 4.625zm0 0"/><path id="s" d="m.703-8.875h1.781v3.813h.079q.233-.545.656-.907.435-.375 1.187-.375.516.002.938.203c.281.125.523.325.734.594q.31.392.484 1 .171.609.172 1.453t-.171 1.454q-.176.61-.485 1.016-.314.392-.734.578a2.3 2.3 0 0 1 -.938.188c-.5 0-.898-.118-1.187-.344a2.4 2.4 0 0 1 -.656-.922h-.079v1.124h-1.78zm2.938 7.64c.394 0 .703-.117.922-.359q.328-.373.328-1.015v-.97q0-.636-.328-1-.33-.375-.922-.374-.471 0-.813.234-.344.223-.344.703v1.829q0 .501.344.734.342.22.813.219m0 0"/><path id="t" d="m3.86.14q-.739 0-1.33-.217a2.6 2.6 0 0 1 -.984-.64 2.9 2.9 0 0 1 -.61-1.016 4 4 0 0 1 -.218-1.36c0-.508.07-.96.219-1.36q.216-.592.609-1.015.405-.42.984-.64a3.5 3.5 0 0 1 1.313-.235q1.015 0 1.625.422.623.41.953 1.094l-1.375.75a1.6 1.6 0 0 0 -.438-.594c-.18-.164-.433-.25-.765-.25-.406 0-.727.121-.953.36q-.329.346-.328.968v1q0 .61.328.969.34.361.968.36.515 0 .813-.235.293-.247.5-.64l1.344.765q-.329.688-.985 1.11c-.429.267-.983.404-1.67.404m0 0"/><path id="u" d="m7 .625q0 .984-.828 1.453c-.555.313-1.422.469-2.61.469-.593 0-1.085-.04-1.468-.11-.375-.062-.68-.164-.906-.296q-.345-.189-.485-.453a1.2 1.2 0 0 1 -.14-.579c0-.343.101-.609.312-.796q.312-.268.875-.407v-.078a1.4 1.4 0 0 1 -.625-.328q-.234-.232-.234-.64-.002-.45.297-.673.31-.216.812-.328v-.078a2.1 2.1 0 0 1 -.86-.734q-.297-.48-.296-1.172 0-.544.187-.953a1.7 1.7 0 0 1 .547-.688q.358-.281.844-.421a3.8 3.8 0 0 1 1.11-.157c.382 0 .75.047 1.093.14v-.343q-.001-.358.25-.594.247-.234.688-.234h1.093v1.297h-1.484v.11q.5.25.781.718.282.47.281 1.125 0 .532-.187.953c-.125.274-.309.5-.547.688a2.5 2.5 0 0 1 -.86.422q-.5.14-1.109.14a3.8 3.8 0 0 1 -1.015-.125 1 1 0 0 0 -.22.188.42.42 0 0 0 -.093.28.34.34 0 0 0 .078.235.5.5 0 0 0 .203.125q.123.036.282.047.17.017.359.016h1.406q.668.001 1.125.125.469.128.766.375.31.234.437.562.141.324.141.719m-1.687.125a.45.45 0 0 0 -.188-.375q-.189-.14-.734-.14h-2.125a.65.65 0 0 0 -.236.515q0 .282.235.469.246.187.843.187h1.047c.407 0 .696-.058.875-.172a.54.54 0 0 0 .283-.484m-1.783-3.797q.53.002.781-.265a.95.95 0 0 0 .25-.672v-.282q-.001-.42-.25-.671c-.167-.176-.43-.266-.78-.266q-.535.001-.782.266-.234.25-.234.671v.282q0 .409.234.672c.164.18.426.265.781.265m0 0"/><path id="v" d="m.781-8.875h1.781v3.813h.063q.106-.263.266-.485.152-.232.375-.406a1.9 1.9 0 0 1 .515-.281 2.15 2.15 0 0 1 1.484.047q.374.158.641.453.265.3.407.734c.101.281.156.61.156.984v4.016h-1.782v-3.766q-.002-1.202-1.046-1.203c-.137 0-.274.024-.407.063a.9.9 0 0 0 -.343.172.8.8 0 0 0 -.25.28.84.84 0 0 0 -.079.391v4.063h-1.779zm0 0"/><path id="w" d="m4.719-1.125h-.094a2.4 2.4 0 0 1 -.656.922c-.281.226-.672.343-1.172.343q-.518 0-.953-.188a1.9 1.9 0 0 1 -.735-.578q-.299-.405-.468-1.015c-.118-.406-.172-.889-.172-1.453 0-.562.054-1.047.172-1.453q.17-.608.468-1 .312-.406.735-.594c.289-.132.61-.203.953-.203.25 0 .469.04.656.11q.292.094.516.265.217.158.375.39.17.236.281.516h.094v-3.812h1.765v8.875h-1.764zm-1.157-.11c.313 0 .583-.07.813-.218q.342-.233.344-.734v-1.829q-.002-.48-.344-.703a1.4 1.4 0 0 0 -.812-.234q-.597 0-.922.375-.329.362-.328 1v.969c0 .43.109.765.328 1.015q.325.361.922.36m0 0"/><clipPath id="x"><path d="m512.023 250.316h173.25v272.244h-173.25zm0 0"/></clipPath><clipPath id="y"><path d="m534.523 250.316h128.697c12.426 0 22.5 10.075 22.5 22.5v227.244c0 12.425-10.074 22.5-22.5 22.5h-128.697c-12.425 0-22.5-10.075-22.5-22.5v-227.244c0-12.425 10.075-22.5 22.5-22.5m0 0"/></clipPath><clipPath id="z"><path d="m755.023 250.316h173.25v272.244h-173.25zm0 0"/></clipPath><clipPath id="A"><path d="m777.523 250.316h128.697c12.426 0 22.5 10.075 22.5 22.5v227.244c0 12.425-10.074 22.5-22.5 22.5h-128.697c-12.425 0-22.5-10.075-22.5-22.5v-227.244c0-12.425 10.075-22.5 22.5-22.5m0 0"/></clipPath><clipPath id="B"><path d="m543.75 394.313h110.25v99.75h-110.25zm0 0"/></clipPath><clipPath id="C"><path d="m566.25 394.313h65.25c12.426 0 22.5 10.074 22.5 22.5v54.75c0 12.425-10.074 22.5-22.5 22.5h-65.25c-12.426 0-22.5-10.075-22.5-22.5v-54.75c0-12.426 10.074-22.5 22.5-22.5m0 0"/></clipPath><clipPath id="D"><path d="m543.75 278.813h110.25v99.75h-110.25zm0 0"/></clipPath><clipPath id="E"><path d="m566.25 278.813h65.25c12.426 0 22.5 10.074 22.5 22.5v54.75c0 12.425-10.074 22.5-22.5 22.5h-65.25c-12.426 0-22.5-10.075-22.5-22.5v-54.75c0-12.426 10.074-22.5 22.5-22.5m0 0"/></clipPath><clipPath id="F"><path d="m786.75 394.313h110.25v99.75h-110.25zm0 0"/></clipPath><clipPath id="G"><path d="m809.25 394.313h65.25c12.426 0 22.5 10.074 22.5 22.5v54.75c0 12.425-10.074 22.5-22.5 22.5h-65.25c-12.426 0-22.5-10.075-22.5-22.5v-54.75c0-12.426 10.074-22.5 22.5-22.5m0 0"/></clipPath><clipPath id="H"><path d="m786.75 278.813h110.25v99.75h-110.25zm0 0"/></clipPath><clipPath id="I"><path d="m809.25 278.813h65.25c12.426 0 22.5 10.074 22.5 22.5v54.75c0 12.425-10.074 22.5-22.5 22.5h-65.25c-12.426 0-22.5-10.075-22.5-22.5v-54.75c0-12.426 10.074-22.5 22.5-22.5m0 0"/></clipPath></defs><g clip-path="url(#x)" transform="matrix(1.52888 0 0 1.52888 -651.023 -315.271)"><g clip-path="url(#y)"><path d="m546.523 247.316h9v6h-9zm12 0h9v6h-9zm12 0h9v6h-9zm12 0h9v6h-9zm12 0h9v6h-9zm12 0h9v6h-9zm12 0h9v6h-9zm12 0h9v6h-9zm12 0h9v6h-9zm12 0h8.696l.332.004-.043 6-.29-.004h-8.695zm12.45.278q5.114.75 9.53 3.453l-3.128 5.121a19.2 19.2 0 0 0 -7.277-2.64zm12.308 5.414a25.3 25.3 0 0 1 6.45 7.82l-5.294 2.824a19.4 19.4 0 0 0 -4.937-5.984zm7.848 10.922a25.4 25.4 0 0 1 1.59 8.886v1.012h-6v-1.012q-.001-3.527-1.215-6.796zm1.59 12.898v9h-6v-9zm0 12v9h-6v-9zm0 12v9h-6v-9zm0 12v9h-6v-9zm0 12v9h-6v-9zm0 12v9h-6v-9zm0 12v9h-6v-9zm0 12v9h-6v-9zm0 12v9h-6v-9zm0 12v9h-6v-9zm0 12v9h-6v-9zm0 12v9h-6v-9zm0 12v9h-6v-9zm0 12v9h-6v-9zm0 12v9h-6v-9zm0 12v9h-6v-9zm0 12v9h-6v-9zm0 12v9h-6v-9zm0 12v7.23q-.001 1.019-.078 2.032l-5.98-.473q.058-.78.058-1.558v-7.23zm-.567 12.606a25.2 25.2 0 0 1 -4.074 9.296l-4.906-3.453a19.2 19.2 0 0 0 3.113-7.101zm-6.215 11.941a25.3 25.3 0 0 1 -8.226 5.93l-2.473-5.465a19.4 19.4 0 0 0 6.297-4.54zm-11.406 7.117a25.4 25.4 0 0 1 -7.312 1.067h-2.48v-6h2.48c1.914 0 3.781-.274 5.593-.813zm-12.793 1.067h-9v-6h9zm-12 0h-9v-6h9zm-12 0h-9v-6h9zm-12 0h-9v-6h9zm-12 0h-9v-6h9zm-12 0h-9v-6h9zm-12 0h-9v-6h9zm-12 0h-9v-6h9zm-12 0h-9v-6h9zm-12 0h-9v-6h9zm-12 0h-3.215q-3.321-.001-6.503-.84l1.527-5.801q2.433.64 4.976.64h3.215zm-12.937-1.922a25.2 25.2 0 0 1 -8.418-5.66l4.265-4.215a19.3 19.3 0 0 0 6.442 4.328zm-10.64-8.23a25.2 25.2 0 0 1 -4.38-9.153l5.824-1.453a19.2 19.2 0 0 0 3.344 6.992zm-4.977-12.489q-.16-1.424-.16-2.86v-6.495h6v6.496q.002 1.1.12 2.191zm-.16-12.355v-9h6v9zm0-12v-9h6v9zm0-12v-9h6v9zm0-12v-9h6v9zm0-12v-9h6v9zm0-12v-9h6v9zm0-12v-9h6v9zm0-12v-9h6v9zm0-12v-9h6v9zm0-12v-9h6v9zm0-12v-9h6v9zm0-12v-9h6v9zm0-12v-9h6v9zm0-12v-9h6v9zm0-12v-9h6v9zm0-12v-9h6v9zm0-12v-9h6v9zm0-12v-9h6v9zm0-12v-1.747c0-2.785.437-5.484 1.316-8.105l5.691 1.906q-1.008 3-1.008 6.2v1.746zm2.609-12.993a25.3 25.3 0 0 1 6.195-8.027l3.93 4.535c-2 1.73-3.578 3.777-4.742 6.14zm8.906-10.078a25.1 25.1 0 0 1 9.422-3.765l1.066 5.902a19.2 19.2 0 0 0 -7.195 2.879zm12.793-4.148q.593-.026 1.191-.028h9v6h-9q-.456 0-.914.024zm0 0"/></g></g><g clip-path="url(#z)" transform="matrix(1.52888 0 0 1.52888 -651.023 -315.271)"><g clip-path="url(#A)"><path d="m789.523 247.316h9v6h-9zm12 0h9v6h-9zm12 0h9v6h-9zm12 0h9v6h-9zm12 0h9v6h-9zm12 0h9v6h-9zm12 0h9v6h-9zm12 0h9v6h-9zm12 0h9v6h-9zm12 0h8.696l.332.004-.043 6-.29-.004h-8.695zm12.45.278q5.114.75 9.53 3.453l-3.128 5.121a19.2 19.2 0 0 0 -7.277-2.64zm12.308 5.414a25.3 25.3 0 0 1 6.45 7.82l-5.294 2.824a19.4 19.4 0 0 0 -4.937-5.984zm7.848 10.922a25.4 25.4 0 0 1 1.59 8.886v1.012h-6v-1.012q-.001-3.527-1.215-6.796zm1.59 12.898v9h-6v-9zm0 12v9h-6v-9zm0 12v9h-6v-9zm0 12v9h-6v-9zm0 12v9h-6v-9zm0 12v9h-6v-9zm0 12v9h-6v-9zm0 12v9h-6v-9zm0 12v9h-6v-9zm0 12v9h-6v-9zm0 12v9h-6v-9zm0 12v9h-6v-9zm0 12v9h-6v-9zm0 12v9h-6v-9zm0 12v9h-6v-9zm0 12v9h-6v-9zm0 12v9h-6v-9zm0 12v9h-6v-9zm0 12v7.23q-.001 1.019-.078 2.032l-5.98-.473q.058-.78.058-1.558v-7.23zm-.567 12.606a25.2 25.2 0 0 1 -4.074 9.296l-4.906-3.453a19.2 19.2 0 0 0 3.113-7.101zm-6.215 11.941a25.3 25.3 0 0 1 -8.226 5.93l-2.473-5.465a19.4 19.4 0 0 0 6.297-4.54zm-11.406 7.117a25.4 25.4 0 0 1 -7.312 1.067h-2.48v-6h2.48c1.914 0 3.781-.274 5.593-.813zm-12.793 1.067h-9v-6h9zm-12 0h-9v-6h9zm-12 0h-9v-6h9zm-12 0h-9v-6h9zm-12 0h-9v-6h9zm-12 0h-9v-6h9zm-12 0h-9v-6h9zm-12 0h-9v-6h9zm-12 0h-9v-6h9zm-12 0h-9v-6h9zm-12 0h-3.215q-3.321-.001-6.503-.84l1.527-5.801q2.432.64 4.976.64h3.215zm-12.937-1.922a25.2 25.2 0 0 1 -8.418-5.66l4.265-4.215a19.3 19.3 0 0 0 6.442 4.328zm-10.64-8.23a25.2 25.2 0 0 1 -4.38-9.153l5.824-1.453a19.2 19.2 0 0 0 3.344 6.992zm-4.977-12.489q-.16-1.424-.16-2.86v-6.495h6v6.496q.002 1.1.12 2.191zm-.16-12.355v-9h6v9zm0-12v-9h6v9zm0-12v-9h6v9zm0-12v-9h6v9zm0-12v-9h6v9zm0-12v-9h6v9zm0-12v-9h6v9zm0-12v-9h6v9zm0-12v-9h6v9zm0-12v-9h6v9zm0-12v-9h6v9zm0-12v-9h6v9zm0-12v-9h6v9zm0-12v-9h6v9zm0-12v-9h6v9zm0-12v-9h6v9zm0-12v-9h6v9zm0-12v-9h6v9zm0-12v-1.747c0-2.785.437-5.484 1.316-8.105l5.691 1.906q-1.008 3-1.008 6.2v1.746zm2.609-12.993a25.3 25.3 0 0 1 6.195-8.027l3.93 4.535c-2 1.73-3.578 3.777-4.742 6.14zm8.906-10.078a25.1 25.1 0 0 1 9.422-3.765l1.066 5.902a19.2 19.2 0 0 0 -7.195 2.879zm12.793-4.148q.593-.026 1.191-.028h9v6h-9q-.456 0-.914.024zm0 0"/></g></g><path d="m4.094-13.953v8.828q0 .674.047 1.219c.039.367.125.68.25.937.125.25.312.446.562.578.258.137.61.204 1.047.204q.657 0 1.031-.204c.258-.132.453-.328.578-.578a2.7 2.7 0 0 0 .235-.937q.06-.546.062-1.219v-8.828h3v8.437c0 .961-.07 1.797-.203 2.516q-.188 1.08-.734 1.797-.534.72-1.5 1.078-.956.359-2.469.36-1.518-.003-2.484-.361-.955-.357-1.5-1.078-.536-.716-.736-1.796c-.125-.719-.187-1.555-.187-2.516v-8.437zm0 0" transform="matrix(1.52888 0 0 1.52888 261.14503 532.20705944)"/><path d="m1.5 0v-2.219h3v-9.515h-3v-2.22h9v2.22h-3v9.515h3v2.219zm0 0" transform="matrix(1.52888 0 0 1.52888 279.4839456 532.20705944)"/><path d="m5.781.234q-1.769-.002-3.061-.578-1.3-.575-2.095-1.578l1.734-1.922q.763.845 1.672 1.25.905.391 1.844.39 1.079 0 1.64-.468.563-.481.563-1.39-.002-.734-.437-1.11-.424-.388-1.438-.547l-1.469-.234q-1.874-.327-2.718-1.39c-.555-.72-.828-1.587-.828-2.61q0-2.028 1.312-3.14 1.313-1.11 3.703-1.11 1.605.001 2.813.5 1.2.504 1.937 1.36l-1.687 1.906a4 4 0 0 0 -1.328-.97q-.751-.358-1.72-.359-2.015.001-2.015 1.672 0 .72.438 1.078.452.363 1.484.532l1.453.265q1.7.298 2.625 1.281c.613.657.922 1.54.922 2.641q-.002.985-.344 1.813a3.9 3.9 0 0 1 -1.031 1.437c-.45.406-1.008.727-1.672.953-.656.215-1.422.328-2.297.328m0 0" transform="matrix(1.52888 0 0 1.52888 566.17493656 532.20705944)"/><use transform="matrix(1.52888 0 0 1.52888 -651.023 -315.271)" x="808.132" xlink:href="#a" y="554.313"/><path d="m1.484-2.297h2.376v-5.719h-2.376v-2.296h5.329v2.906h.14q.14-.546.39-1.078a3.5 3.5 0 0 1 .641-.938c.258-.281.579-.5.954-.656q.56-.235 1.328-.235h.968v2.72h-2.187q-1.111 0-1.672.656c-.375.43-.562.953-.562 1.578v3.062h3.406v2.297h-8.735zm0 0" transform="matrix(1.52888 0 0 1.52888 602.85276776 532.20705944)"/><path d="m4.234 0-3.687-10.312h3.11l1.343 4.406.984 3.453h.157l.984-3.453 1.328-4.406h3l-3.687 10.312zm0 0" transform="matrix(1.52888 0 0 1.52888 621.19168336 532.20705944)"/><path d="m6.64-11.64q-1.002.002-1.39-.407a1.38 1.38 0 0 1 -.39-1v-.578q-.002-.593.39-.984.388-.406 1.39-.407.999.001 1.391.407.389.392.39.984v.578q-.002.597-.39 1c-.261.274-.726.406-1.39.406m-4.765 9.343h3.281v-5.719h-3.282v-2.296h6.25v8.015h3.031v2.298h-9.281zm0 0" transform="matrix(1.52888 0 0 1.52888 639.53212784 532.20705944)"/><path d="m6.422.234q-1.22 0-2.188-.359a4.4 4.4 0 0 1 -1.64-1.078 4.7 4.7 0 0 1 -1.031-1.703c-.243-.664-.36-1.414-.36-2.25 0-.844.117-1.598.36-2.266a4.6 4.6 0 0 1 1.03-1.687 4.4 4.4 0 0 1 1.641-1.078q.967-.376 2.172-.376 1.688.001 2.719.688c.688.46 1.21 1.07 1.578 1.828l-2.281 1.25a2.9 2.9 0 0 0 -.735-1q-.455-.405-1.28-.406-1.033.002-1.579.594-.548.596-.547 1.609v1.688q-.002 1.018.547 1.609.544.58 1.61.578.856 0 1.343-.39.499-.404.844-1.047l2.234 1.28a4.47 4.47 0 0 1 -1.639 1.83c-.711.457-1.64.687-2.797.687m0 0" transform="matrix(1.52888 0 0 1.52888 657.87104344 532.20705944)"/><use transform="matrix(1.52888 0 0 1.52888 -651.023 -315.271)" x="868.108" xlink:href="#a" y="554.313"/><path d="m5.875.234c-1.148 0-2.14-.174-2.984-.514q-1.266-.516-1.907-1.423l1.657-1.531q.591.655 1.406 1.03c.539.243 1.16.36 1.86.36q.87.002 1.374-.265a.88.88 0 0 0 .5-.828q-.002-.435-.343-.61-.346-.17-.938-.265l-1.656-.266a7.7 7.7 0 0 1 -1.313-.313 3.1 3.1 0 0 1 -1.031-.562 2.7 2.7 0 0 1 -.703-.875q-.251-.528-.25-1.266-.001-1.622 1.233-2.546c.82-.613 1.985-.921 3.485-.921q1.511 0 2.578.421c.719.274 1.289.657 1.719 1.157l-1.484 1.686a3.8 3.8 0 0 0 -1.172-.844q-.719-.341-1.75-.343-1.72.002-1.718 1.047-.001.455.343.625.34.174.938.265l1.64.266c.47.062.899.168 1.297.312q.608.205 1.047.563.45.363.719.89.264.517.265 1.25 0 1.627-1.25 2.563-1.253.937-3.562.937m0 0" transform="matrix(1.52888 0 0 1.52888 694.55040352 532.20705944)"/><g clip-path="url(#B)" transform="matrix(1.52888 0 0 1.52888 -651.023 -315.271)"><g clip-path="url(#C)"><path d="m543.75 394.313h110.27v99.75h-110.27zm0 0" fill="#f7aa18"/></g></g><use transform="matrix(1.52888 0 0 1.52888 -651.023 -315.271)" x="584.098" xlink:href="#b" y="431.063"/><use transform="matrix(1.52888 0 0 1.52888 -651.023 -315.271)" x="591.298" xlink:href="#c" y="431.063"/><use transform="matrix(1.52888 0 0 1.52888 -651.023 -315.271)" x="598.498" xlink:href="#d" y="431.063"/><use transform="matrix(1.52888 0 0 1.52888 -651.023 -315.271)" x="605.698" xlink:href="#e" y="431.063"/><use transform="matrix(1.52888 0 0 1.52888 -651.023 -315.271)" x="573.293" xlink:href="#f" y="447.563"/><use transform="matrix(1.52888 0 0 1.52888 -651.023 -315.271)" x="580.493" xlink:href="#g" y="447.563"/><use transform="matrix(1.52888 0 0 1.52888 -651.023 -315.271)" x="587.693" xlink:href="#d" y="447.563"/><use transform="matrix(1.52888 0 0 1.52888 -651.023 -315.271)" x="594.893" xlink:href="#h" y="447.563"/><use transform="matrix(1.52888 0 0 1.52888 -651.023 -315.271)" x="602.093" xlink:href="#e" y="447.563"/><use transform="matrix(1.52888 0 0 1.52888 -651.023 -315.271)" x="609.293" xlink:href="#i" y="447.563"/><use transform="matrix(1.52888 0 0 1.52888 -651.023 -315.271)" x="616.493" xlink:href="#j" y="447.563"/><use transform="matrix(1.52888 0 0 1.52888 -651.023 -315.271)" x="562.488" xlink:href="#k" y="464.063"/><use transform="matrix(1.52888 0 0 1.52888 -651.023 -315.271)" x="569.688" xlink:href="#j" y="464.063"/><use transform="matrix(1.52888 0 0 1.52888 -651.023 -315.271)" x="576.888" xlink:href="#j" y="464.063"/><use transform="matrix(1.52888 0 0 1.52888 -651.023 -315.271)" x="584.088" xlink:href="#l" y="464.063"/><path d="m4.5-6.906v6.906h-1.797v-6.906h-2.422v-1.469h6.625v1.469zm0 0" transform="matrix(1.52888 0 0 1.52888 252.98539744 394.22563944)"/><use transform="matrix(1.52888 0 0 1.52888 -651.023 -315.271)" x="598.488" xlink:href="#m" y="464.063"/><use transform="matrix(1.52888 0 0 1.52888 -651.023 -315.271)" x="605.688" xlink:href="#c" y="464.063"/><use transform="matrix(1.52888 0 0 1.52888 -651.023 -315.271)" x="612.888" xlink:href="#n" y="464.063"/><use transform="matrix(1.52888 0 0 1.52888 -651.023 -315.271)" x="620.088" xlink:href="#o" y="464.063"/><use transform="matrix(1.52888 0 0 1.52888 -651.023 -315.271)" x="627.288" xlink:href="#p" y="464.063"/><g clip-path="url(#D)" transform="matrix(1.52888 0 0 1.52888 -651.023 -315.271)"><g clip-path="url(#E)"><path d="m543.75 278.813h110.27v99.75h-110.27zm0 0"/></g></g><use fill="#fff" transform="matrix(1.52888 0 0 1.52888 -651.023 -315.271)" x="580.488" xlink:href="#b" y="323.813"/><use fill="#fff" transform="matrix(1.52888 0 0 1.52888 -651.023 -315.271)" x="587.688" xlink:href="#m" y="323.813"/><use fill="#fff" transform="matrix(1.52888 0 0 1.52888 -651.023 -315.271)" x="594.888" xlink:href="#o" y="323.813"/><use fill="#fff" transform="matrix(1.52888 0 0 1.52888 -651.023 -315.271)" x="602.088" xlink:href="#q" y="323.813"/><use fill="#fff" transform="matrix(1.52888 0 0 1.52888 -651.023 -315.271)" x="609.288" xlink:href="#d" y="323.813"/><use fill="#fff" transform="matrix(1.52888 0 0 1.52888 -651.023 -315.271)" x="573.293" xlink:href="#r" y="340.313"/><use fill="#fff" transform="matrix(1.52888 0 0 1.52888 -651.023 -315.271)" x="580.493" xlink:href="#g" y="340.313"/><use fill="#fff" transform="matrix(1.52888 0 0 1.52888 -651.023 -315.271)" x="587.693" xlink:href="#s" y="340.313"/><use fill="#fff" transform="matrix(1.52888 0 0 1.52888 -651.023 -315.271)" x="602.093" xlink:href="#k" y="340.313"/><use fill="#fff" transform="matrix(1.52888 0 0 1.52888 -651.023 -315.271)" x="609.293" xlink:href="#j" y="340.313"/><use fill="#fff" transform="matrix(1.52888 0 0 1.52888 -651.023 -315.271)" x="616.493" xlink:href="#j" y="340.313"/><g clip-path="url(#F)" transform="matrix(1.52888 0 0 1.52888 -651.023 -315.271)"><g clip-path="url(#G)"><path d="m786.75 394.313h110.27v99.75h-110.27zm0 0" fill="#f7aa18"/></g></g><use transform="matrix(1.52888 0 0 1.52888 -651.023 -315.271)" x="827.098" xlink:href="#b" y="431.063"/><use transform="matrix(1.52888 0 0 1.52888 -651.023 -315.271)" x="834.298" xlink:href="#c" y="431.063"/><use transform="matrix(1.52888 0 0 1.52888 -651.023 -315.271)" x="841.498" xlink:href="#d" y="431.063"/><use transform="matrix(1.52888 0 0 1.52888 -651.023 -315.271)" x="848.698" xlink:href="#e" y="431.063"/><use transform="matrix(1.52888 0 0 1.52888 -651.023 -315.271)" x="816.293" xlink:href="#r" y="447.563"/><use transform="matrix(1.52888 0 0 1.52888 -651.023 -315.271)" x="823.493" xlink:href="#g" y="447.563"/><use transform="matrix(1.52888 0 0 1.52888 -651.023 -315.271)" x="830.693" xlink:href="#s" y="447.563"/><path d="m4.656-3.5h-2.11v3.5h-1.811v-8.375h1.813v3.39h2.11v-3.39h1.812v8.375h-1.814zm0 0" transform="matrix(1.52888 0 0 1.52888 630.01484984 368.99911944)"/><use transform="matrix(1.52888 0 0 1.52888 -651.023 -315.271)" x="845.093" xlink:href="#i" y="447.563"/><use transform="matrix(1.52888 0 0 1.52888 -651.023 -315.271)" x="852.293" xlink:href="#i" y="447.563"/><use transform="matrix(1.52888 0 0 1.52888 -651.023 -315.271)" x="859.493" xlink:href="#h" y="447.563"/><path d="m3.469.14c-.711 0-1.324-.117-1.844-.343a3.2 3.2 0 0 1 -1.25-.953l1.047-1.14q.45.502 1 .75.545.233 1.11.234.64 0 .968-.282.342-.292.344-.843-.001-.437-.266-.672-.25-.235-.86-.328l-.874-.141q-1.125-.186-1.64-.828c-.337-.426-.5-.946-.5-1.563q0-1.218.796-1.875c.531-.445 1.27-.672 2.219-.672.644 0 1.207.102 1.687.297q.715.298 1.172.813l-1.016 1.14a2.45 2.45 0 0 0 -1.828-.796q-1.218.001-1.218 1-.002.438.265.656.282.205.89.312l.876.157q1.013.188 1.562.78.563.582.563 1.579-.002.597-.203 1.094-.205.485-.61.859-.409.363-1 .563c-.398.132-.859.202-1.389.202m0 0" transform="matrix(1.52888 0 0 1.52888 596.99104184 394.22563944)"/><use transform="matrix(1.52888 0 0 1.52888 -651.023 -315.271)" x="823.493" xlink:href="#g" y="464.063"/><use transform="matrix(1.52888 0 0 1.52888 -651.023 -315.271)" x="830.693" xlink:href="#n" y="464.063"/><path d="m2.547 0-2.219-6.187h1.875l.797 2.64.594 2.078h.094l.578-2.078.812-2.64h1.797l-2.219 6.187zm0 0" transform="matrix(1.52888 0 0 1.52888 630.01484984 394.22563944)"/><use transform="matrix(1.52888 0 0 1.52888 -651.023 -315.271)" x="845.093" xlink:href="#o" y="464.063"/><use transform="matrix(1.52888 0 0 1.52888 -651.023 -315.271)" x="852.293" xlink:href="#t" y="464.063"/><use transform="matrix(1.52888 0 0 1.52888 -651.023 -315.271)" x="859.493" xlink:href="#g" y="464.063"/><g clip-path="url(#H)" transform="matrix(1.52888 0 0 1.52888 -651.023 -315.271)"><g clip-path="url(#I)"><path d="m786.75 278.813h110.27v99.75h-110.27zm0 0"/></g></g><g fill="#fff"><use transform="matrix(1.52888 0 0 1.52888 -651.023 -315.271)" x="805.488" xlink:href="#b" y="299.063"/><use transform="matrix(1.52888 0 0 1.52888 -651.023 -315.271)" x="812.688" xlink:href="#m" y="299.063"/><use transform="matrix(1.52888 0 0 1.52888 -651.023 -315.271)" x="819.888" xlink:href="#o" y="299.063"/><use transform="matrix(1.52888 0 0 1.52888 -651.023 -315.271)" x="827.088" xlink:href="#q" y="299.063"/><use transform="matrix(1.52888 0 0 1.52888 -651.023 -315.271)" x="834.288" xlink:href="#d" y="299.063"/><use transform="matrix(1.52888 0 0 1.52888 -651.023 -315.271)" x="848.688" xlink:href="#k" y="299.063"/><use transform="matrix(1.52888 0 0 1.52888 -651.023 -315.271)" x="855.888" xlink:href="#j" y="299.063"/><use transform="matrix(1.52888 0 0 1.52888 -651.023 -315.271)" x="863.088" xlink:href="#j" y="299.063"/><use transform="matrix(1.52888 0 0 1.52888 -651.023 -315.271)" x="870.288" xlink:href="#d" y="299.063"/><use transform="matrix(1.52888 0 0 1.52888 -651.023 -315.271)" x="798.293" xlink:href="#l" y="315.563"/><path d="m1.11 0v-8.375h1.812v6.906h3.594v1.469zm0 0" transform="matrix(1.52888 0 0 1.52888 580.47913784 167.18695944)"/><use transform="matrix(1.52888 0 0 1.52888 -651.023 -315.271)" x="812.693" xlink:href="#o" y="315.563"/><use transform="matrix(1.52888 0 0 1.52888 -651.023 -315.271)" x="819.893" xlink:href="#u" y="315.563"/><use transform="matrix(1.52888 0 0 1.52888 -651.023 -315.271)" x="827.093" xlink:href="#v" y="315.563"/><use transform="matrix(1.52888 0 0 1.52888 -651.023 -315.271)" x="834.293" xlink:href="#e" y="315.563"/><path d="m.078-6.187h1.485l.437 5.014h.125l.734-5.015h1.563l.719 5.015h.109l.469-5.015h1.39l-.718 6.188h-2.125l-.61-4.266h-.11l-.623 4.266h-2.111zm0 0" transform="matrix(1.52888 0 0 1.52888 635.51881784 167.18695944)"/><use transform="matrix(1.52888 0 0 1.52888 -651.023 -315.271)" x="848.693" xlink:href="#g" y="315.563"/><use transform="matrix(1.52888 0 0 1.52888 -651.023 -315.271)" x="855.893" xlink:href="#o" y="315.563"/><use transform="matrix(1.52888 0 0 1.52888 -651.023 -315.271)" x="863.093" xlink:href="#u" y="315.563"/><use transform="matrix(1.52888 0 0 1.52888 -651.023 -315.271)" x="870.293" xlink:href="#v" y="315.563"/><use transform="matrix(1.52888 0 0 1.52888 -651.023 -315.271)" x="877.493" xlink:href="#e" y="315.563"/><use transform="matrix(1.52888 0 0 1.52888 -651.023 -315.271)" x="823.488" xlink:href="#k" y="332.063"/><path d="m.906 0v-8.375h3.25q.61 0 1.078.188c.32.124.594.304.813.53q.34.346.5.845.17.485.172 1.093-.001.627-.172 1.125a2.05 2.05 0 0 1 -.5.828 2.2 2.2 0 0 1 -.813.532 2.9 2.9 0 0 1 -1.078.187h-1.436v3.047zm1.814-4.5h.984q.622 0 .875-.234c.164-.164.25-.43.25-.797v-.36c0-.363-.086-.625-.25-.78q-.252-.249-.875-.25h-.984zm0 0" transform="matrix(1.52888 0 0 1.52888 618.99926944 192.41347944)"/><path d="m.906 0v-1.328h1.797v-5.719h-1.797v-1.328h5.39v1.328h-1.796v5.719h1.797v1.328zm0 0" transform="matrix(1.52888 0 0 1.52888 630.00720544 192.41347944)"/><use transform="matrix(1.52888 0 0 1.52888 -651.023 -315.271)" x="845.088" xlink:href="#d" y="332.063"/><path d="m2.719-2.094h2.281l-1.64 3.907h-1.314zm0 0" transform="matrix(1.52888 0 0 1.52888 652.02307744 192.41347944)"/><use transform="matrix(1.52888 0 0 1.52888 -651.023 -315.271)" x="809.098" xlink:href="#f" y="348.563"/><use transform="matrix(1.52888 0 0 1.52888 -651.023 -315.271)" x="816.298" xlink:href="#m" y="348.563"/><use transform="matrix(1.52888 0 0 1.52888 -651.023 -315.271)" x="823.498" xlink:href="#d" y="348.563"/><use transform="matrix(1.52888 0 0 1.52888 -651.023 -315.271)" x="830.698" xlink:href="#v" y="348.563"/><use transform="matrix(1.52888 0 0 1.52888 -651.023 -315.271)" x="837.898" xlink:href="#s" y="348.563"/><use transform="matrix(1.52888 0 0 1.52888 -651.023 -315.271)" x="845.098" xlink:href="#i" y="348.563"/><use transform="matrix(1.52888 0 0 1.52888 -651.023 -315.271)" x="852.298" xlink:href="#m" y="348.563"/><use transform="matrix(1.52888 0 0 1.52888 -651.023 -315.271)" x="859.498" xlink:href="#n" y="348.563"/><use transform="matrix(1.52888 0 0 1.52888 -651.023 -315.271)" x="866.698" xlink:href="#w" y="348.563"/><path d="m.922-8.375h2.937c.82 0 1.454.203 1.891.61q.657.595.656 1.624 0 .72-.36 1.141-.344.423-1 .625v.063q.765.205 1.188.687.437.471.438 1.328c0 .7-.227 1.258-.672 1.672q-.657.626-1.86.625h-3.217zm2.672 7.11q.639 0 .937-.204.312-.216.313-.797v-.343q-.001-.575-.313-.797-.298-.218-.937-.219h-.922v2.36zm-.235-3.563q.64 0 .922-.203.295-.216.297-.766v-.36q-.002-.544-.297-.75c-.187-.132-.496-.202-.922-.202h-.687v2.28zm0 0" transform="matrix(1.52888 0 0 1.52888 591.4901316 242.86651944)"/><use transform="matrix(1.52888 0 0 1.52888 -651.023 -315.271)" x="819.895" xlink:href="#m" y="365.063"/><use transform="matrix(1.52888 0 0 1.52888 -651.023 -315.271)" x="827.095" xlink:href="#t" y="365.063"/><use transform="matrix(1.52888 0 0 1.52888 -651.023 -315.271)" x="834.295" xlink:href="#h" y="365.063"/><use transform="matrix(1.52888 0 0 1.52888 -651.023 -315.271)" x="841.495" xlink:href="#g" y="365.063"/><path d="m.781 0v-6.187h1.781v1.125h.063q.106-.263.266-.485.152-.232.375-.406a1.9 1.9 0 0 1 .515-.281 2.15 2.15 0 0 1 1.484.047q.374.158.641.453.265.3.407.734c.101.281.156.61.156.984v4.016h-1.782v-3.766q-.002-1.202-1.046-1.203c-.137 0-.274.024-.407.063a.9.9 0 0 0 -.343.172.8.8 0 0 0 -.25.28.84.84 0 0 0 -.079.391v4.063zm0 0" transform="matrix(1.52888 0 0 1.52888 646.5298116 242.86651944)"/><use transform="matrix(1.52888 0 0 1.52888 -651.023 -315.271)" x="855.895" xlink:href="#w" y="365.063"/><use transform="matrix(1.52888 0 0 1.52888 -651.023 -315.271)" x="863.095" xlink:href="#p" y="365.063"/></g><path d="m398.92 258.06h13.76v4.587h-13.76m18.346-4.587h13.76v4.587h-13.76m18.347-4.587h13.76v4.587h-13.76m18.347-4.587h13.76v4.587h-13.76m18.346-4.587h13.76v4.587h-13.76m18.347-4.587h11.926v4.587h-11.926"/><path d="m493.406 253.474 9.173 6.88-9.173 6.88" fill="none" stroke="#000" stroke-linecap="round" stroke-linejoin="round" stroke-width="4.58664"/><path d="m504.873 293.033h-13.76v-4.586h13.76m-18.347 4.586h-13.76v-4.586h13.76m-18.347 4.586h-13.76v-4.586h13.76m-18.346 4.586h-13.76v-4.586h13.76m-18.347 4.586h-13.76v-4.586h13.76m-18.346 4.586h-13.474v-4.586h13.474"/><path d="m408.84 297.62-9.174-6.88 9.174-6.88" fill="none" stroke="#000" stroke-linecap="round" stroke-linejoin="round" stroke-width="4.58664"/></svg>