<svg xmlns="http://www.w3.org/2000/svg" id="svg157" version="1.1" viewBox="0 0 608.28 419.45"><defs id="defs1"/><path id="path1" fill="none" d="M0 419.45h608.28V0H0Z"/><g id="patch_2"><path id="path2" fill="none" d="M43.08 358h558V25.36h-558z"/></g><g id="patch_3"><path id="path3" d="M68.45 358h46.11v-4.18H68.45Z" clip-path="url(#p8b765c4bd4)"/></g><g id="patch_4"><path id="path4" d="M126.1 358h46.1v-4.3h-46.1z" clip-path="url(#p8b765c4bd4)"/></g><g id="patch_5"><path id="path5" d="M183.74 358h46.11v-5.6h-46.11z" clip-path="url(#p8b765c4bd4)"/></g><g id="patch_6"><path id="path6" d="M241.38 358h46.12v-8.27h-46.12z" clip-path="url(#p8b765c4bd4)"/></g><g id="patch_7"><path id="path7" d="M299.03 358h46.11V344.5h-46.11z" clip-path="url(#p8b765c4bd4)"/></g><g id="patch_8"><path id="path8" d="M356.67 358h46.12v-18.58h-46.12z" clip-path="url(#p8b765c4bd4)"/></g><g id="patch_9"><path id="path9" d="M414.32 358h46.11V235.67h-46.11z" clip-path="url(#p8b765c4bd4)"/></g><g id="patch_10"><path id="path10" d="M471.96 358h46.12V66.12h-46.12z" clip-path="url(#p8b765c4bd4)"/></g><g id="patch_11"><path id="path11" d="M529.6 358h46.12V41.2H529.6z" clip-path="url(#p8b765c4bd4)"/></g><g id="patch_12"><path id="path102" fill="none" stroke="#000" stroke-linecap="square" stroke-linejoin="miter" d="M43.08 358h558"/></g><defs id="defs157"><clipPath id="p8b765c4bd4"><path id="rect157" d="M43.08 25.36h558V358h-558z"/></clipPath></defs><path id="text157" stroke-width=".46" d="M54.38 27.84V14.38h6.67v1.28H55.8v4.4h4.21v1.28h-4.2v5.22h5.23v1.28zm9 0v-9.7h1.44v1.66q.14-.38.38-.73t.57-.6q.35-.26.75-.37.42-.11.82-.11.46 0 .9.13t.77.42q.35.27.58.68.24.38.37.82.15.42.18.88.06.44.06.88v6.04h-1.43V21.8q0-.31-.04-.6-.03-.32-.12-.6-.1-.29-.28-.54-.16-.26-.4-.44-.24-.18-.53-.26-.3-.09-.6-.09-.32 0-.61.1-.3.07-.53.25-.24.18-.42.44-.17.25-.26.55-.09.27-.13.58-.03.3-.03.6v6.05zm12.6.14q-.51 0-1-.09-.48-.09-.92-.33-.44-.25-.77-.62-.33-.38-.55-.82-.2-.46-.27-.96-.08-.49-.08-.98V21.8q0-.5.08-1 .07-.49.27-.93.2-.45.53-.82.35-.38.77-.62.42-.24.92-.33.5-.11.99-.11t.98.1q.5.1.92.34.42.24.75.62.35.37.55.82.2.44.27.94.08.5.08.99v1.83h-5.68v.55q0 .3.04.62.04.31.15.6.12.3.3.55.2.26.46.44.26.17.57.24.31.07.64.07.35 0 .7-.07.36-.07.66-.26.3-.2.5-.51.17-.33.2-.68h1.42q-.02.4-.16.8-.13.41-.39.76-.24.33-.58.58-.33.24-.72.4-.38.15-.8.2-.43.06-.83.06zm-2.16-5.63h4.25v-.55q0-.31-.04-.63-.03-.3-.14-.6-.11-.3-.32-.55-.18-.26-.43-.42-.26-.18-.57-.26-.31-.07-.62-.07-.32 0-.63.07-.3.08-.56.26-.26.16-.46.42-.18.26-.3.55-.1.3-.14.6-.04.32-.04.63zm8.97 5.49v-9.7h1.43v2.28q.1-.44.3-.86.17-.44.45-.8.3-.37.71-.57.44-.2.9-.2.35 0 .68.1.33.06.6.27.28.2.46.49.18.27.27.6.11.33.15.68.04.33.04.66h-1.43q0-.27-.06-.53-.03-.28-.18-.51-.13-.24-.38-.35-.24-.13-.52-.13-.36 0-.71.17-.35.16-.59.45-.22.3-.36.64-.13.33-.2.7-.08.37-.11.73l-.02.73v5.15zm11.4 3.9q-.42 0-.84-.08-.4-.05-.78-.22-.39-.14-.72-.42-.33-.25-.57-.6-.22-.35-.34-.75-.11-.4-.13-.83h1.43q.01.37.16.68.17.33.44.55.3.22.64.3.35.08.71.08.32 0 .6-.07.32-.07.56-.26.25-.18.42-.43.18-.26.27-.55.11-.3.15-.6.04-.3.04-.61v-1.76q-.15.39-.39.75-.24.35-.58.6-.33.24-.75.35-.4.11-.83.11-.46 0-.91-.12-.44-.13-.8-.4-.37-.28-.63-.67-.24-.38-.39-.8-.14-.44-.2-.9-.05-.46-.05-.91V21.8q0-.46.05-.92.06-.46.2-.88.15-.44.39-.82.26-.39.62-.66.37-.27.8-.4.46-.13.92-.13.42 0 .83.1.42.12.75.38.34.23.58.6.24.35.39.73v-1.66h1.42v9.79q0 .5-.07.97-.07.5-.27.93-.19.46-.52.83-.3.38-.73.62-.42.25-.91.35-.48.1-.96.1zm.04-5.04q.31 0 .6-.07.32-.07.55-.26.24-.18.4-.44.19-.27.28-.55.1-.29.13-.58.04-.31.04-.62V21.8q0-.31-.04-.6-.04-.32-.13-.6-.09-.29-.27-.54-.17-.28-.4-.46-.24-.18-.55-.26-.3-.07-.6-.07-.32 0-.63.07-.3.08-.55.26-.26.16-.46.42-.18.26-.3.55-.1.3-.14.6-.03.32-.03.63v2.38q0 .3.03.62.04.31.15.6.1.3.3.55.2.26.45.44.26.17.55.24.31.07.62.07zm7.36 4.89.33-1.12.33-1.1.42-1.44-2.91-9.8h1.48l2.18 7.6 2.14-7.6h1.48l-3.97 13.46zm20.06-3.6q-.48 0-.97-.1-.48-.09-.9-.33-.42-.24-.75-.6-.33-.37-.53-.8-.2-.45-.27-.92-.08-.5-.08-.97v-6.32q0-.47.08-.95.07-.5.27-.93.2-.44.53-.8.33-.37.75-.61t.9-.33q.5-.1.97-.1.46 0 .9.08.46.07.86.27.42.2.75.52.35.3.55.71.22.4.33.84.1.44.1.9v.05h-1.42v-.03q0-.4-.15-.8-.13-.41-.42-.7-.27-.3-.68-.42-.4-.13-.82-.13-.46 0-.9.18-.42.17-.7.53-.27.37-.38.83-.09.44-.09.9v6.3q0 .47.1.92.1.44.38.8.27.37.7.56.43.16.9.16.41 0 .81-.13.4-.12.68-.42.3-.29.42-.7.15-.4.15-.8v-.03h1.43v.05q0 .46-.11.9t-.33.84q-.2.4-.55.71-.33.31-.75.52-.4.2-.86.27-.44.07-.9.07zm9.2 0q-.49 0-.98-.12-.5-.09-.92-.33-.42-.23-.76-.6-.33-.38-.54-.82-.2-.46-.27-.96-.07-.49-.07-.98V21.8q0-.5.07-1 .07-.49.27-.93.2-.45.54-.82.34-.38.76-.62.43-.24.92-.33.5-.11.99-.11.5 0 .99.1t.91.34q.42.24.75.62.35.37.55.82.2.44.28.94.07.5.07.99v2.38q0 .49-.07.98-.08.5-.28.96-.2.44-.55.82-.33.37-.75.6-.42.24-.91.33-.5.11-1 .11zm0-1.29q.32 0 .63-.07t.57-.24q.25-.18.44-.44.2-.25.3-.55.12-.29.15-.6.04-.31.04-.62V21.8q0-.31-.04-.63-.03-.3-.14-.6-.11-.3-.31-.55-.19-.26-.44-.42-.26-.18-.57-.26-.31-.07-.62-.07t-.62.07q-.32.08-.57.26-.26.16-.46.42-.18.26-.3.55-.1.3-.14.6-.04.32-.04.63v2.38q0 .3.04.62.04.31.15.6.1.3.29.55.2.26.46.44.25.17.57.24.3.07.62.07zm5.76 1.14v-9.7h1.42v1.66q.15-.38.39-.73.24-.35.56-.6.35-.26.76-.37.42-.11.82-.11.46 0 .9.13.43.13.76.42.35.27.59.68.24.38.37.82.14.42.18.88.05.44.05.88v6.04H142V21.8q0-.31-.04-.6-.04-.32-.13-.6-.09-.29-.27-.54-.17-.26-.4-.44-.24-.18-.54-.26-.29-.09-.6-.09t-.6.1q-.3.07-.54.25-.23.18-.42.44-.16.25-.25.55-.1.27-.13.58-.04.3-.04.6v6.05zm12.53.14q-.42 0-.82-.05-.4-.04-.79-.17-.38-.14-.73-.38-.33-.24-.59-.55-.23-.33-.36-.73-.13-.4-.13-.8v-.03h1.43q0 .35.18.66.18.3.48.48.3.16.64.24.35.05.7.05.34 0 .67-.05.35-.08.64-.24.31-.18.5-.5.2-.3.2-.65 0-.32-.19-.59-.16-.27-.44-.44-.25-.18-.56-.26l-.6-.18-.61-.18-.59-.2-.58-.24q-.28-.15-.53-.33-.26-.18-.48-.4-.22-.24-.38-.52-.15-.27-.22-.58-.08-.31-.08-.62 0-.4.11-.8.13-.37.35-.7.22-.35.55-.59.33-.24.7-.38.38-.15.76-.2.4-.06.81-.06.4 0 .79.05.4.06.77.2.38.13.7.37.32.22.54.55.24.33.35.71.13.39.13.77v.02h-1.43q0-.33-.17-.62-.16-.3-.44-.46-.27-.18-.6-.24-.31-.07-.64-.07t-.66.07q-.33.06-.6.24-.28.18-.44.5-.17.29-.17.62t.17.6q.18.28.44.46.27.16.56.26.32.07.6.16l.61.18.6.2q.3.12.57.26.3.13.55.31.26.19.46.42.22.22.37.5.16.27.23.58.1.3.1.63 0 .4-.13.8t-.37.73q-.24.33-.58.57-.35.24-.74.39-.38.12-.8.18-.4.05-.8.05zm8.62 0q-.45 0-.9-.12-.43-.13-.78-.4-.33-.3-.57-.68-.23-.4-.38-.83-.13-.44-.18-.88-.04-.45-.04-.9v-6.03h1.43v6.04q0 .3.03.62.04.3.13.58.1.28.26.53.18.26.42.44.24.19.53.28.3.07.6.07.31 0 .6-.07.3-.1.54-.28.24-.18.4-.44.18-.25.28-.53.09-.29.12-.58.04-.31.04-.62v-6.04h1.43v9.7h-1.43v-1.67q-.15.39-.38.73-.24.35-.59.6-.33.26-.75.37-.4.11-.8.11zm6-.14v-9.7h1.44v.76q.09-.2.22-.36.12-.18.29-.31.18-.13.38-.19.22-.05.44-.05.28 0 .53.1.26.08.44.27.2.18.33.42.13.23.2.5.08-.25.2-.49.13-.25.32-.43.18-.19.43-.28.26-.1.54-.1.27 0 .53.12.27.1.47.3.2.17.31.43.13.26.2.53.08.26.1.53.03.28.03.55v7.4h-1.42v-7.4q0-.2-.04-.38-.02-.2-.11-.39-.1-.18-.28-.29-.16-.1-.36-.1-.18 0-.37.1-.16.11-.25.3-.1.18-.13.38-.02.18-.02.38v7.4h-1.43v-7.4q0-.2-.03-.38-.02-.2-.11-.39-.1-.18-.28-.29-.16-.1-.35-.1-.2 0-.38.1-.17.11-.26.3-.09.18-.13.38l-.01.38v7.4zm9.45 3.75V18.14h1.43v1.66q.15-.38.39-.73.23-.37.56-.6.35-.26.75-.37.42-.11.85-.11.45 0 .9.13t.82.4q.36.27.6.66.26.38.4.82.15.42.2.88.06.46.06.92v2.38q0 .45-.06.91-.05.46-.2.9-.14.42-.4.8-.24.39-.6.66-.37.28-.83.4-.44.13-.9.13-.42 0-.84-.1-.4-.12-.75-.35-.33-.26-.56-.6-.24-.37-.39-.76v5.42zm3.43-4.89q.3 0 .6-.07.31-.07.57-.24.25-.18.44-.44.2-.25.3-.55.12-.29.15-.6.04-.31.04-.62V21.8q0-.31-.04-.63-.03-.3-.14-.6-.11-.3-.31-.55-.19-.26-.44-.42-.26-.18-.57-.26-.3-.07-.6-.07-.32 0-.63.07-.29.08-.53.26-.24.18-.42.46-.16.25-.25.55-.1.27-.13.58-.04.3-.04.6v2.39q0 .3.04.62.03.3.13.58.09.28.25.55.18.26.42.44.24.19.53.26.31.07.63.07zm10.43 1.28q-.44 0-.88-.1-.44-.12-.8-.37-.35-.26-.6-.62-.25-.39-.4-.8-.14-.41-.2-.85-.05-.44-.05-.88v-4.94h-2.01v-1.28h2.01v-3.76h1.43v3.76h2.96v1.28h-2.96v4.94l.02.53q.01.26.07.51.07.24.18.5.11.23.28.42.18.18.44.29.25.1.5.1.36 0 .67-.17.33-.17.51-.46.18-.31.26-.66.07-.35.07-.7l-.02-.05v-.05h1.43v.18q0 .4-.07.8-.08.4-.24.8-.17.36-.44.69-.26.3-.6.53-.35.2-.76.27-.4.1-.8.1zm4.65-.14v-1.28h2.62v-7.14h-2.37v-1.28h3.8v8.42h2.35v1.28zm3.2-11.4q-.24 0-.46-.06-.22-.07-.38-.24-.16-.16-.24-.38-.05-.22-.05-.46 0-.24.05-.46.08-.22.24-.38.16-.17.38-.24.22-.07.46-.07.24 0 .46.07.22.07.38.24.17.16.24.38.07.22.07.46 0 .24-.07.46-.07.22-.24.38-.16.17-.38.24-.22.05-.46.05zm9.15 11.54q-.49 0-.98-.1-.5-.1-.92-.34-.42-.23-.77-.6-.33-.38-.53-.82-.2-.46-.27-.96-.08-.49-.08-.98V21.8q0-.5.08-1 .07-.49.27-.93.2-.45.53-.82.35-.38.77-.62.42-.24.92-.33.49-.11.98-.11.5 0 1 .1.49.1.9.34.43.24.76.62.35.37.55.82.2.44.27.94.07.5.07.99v2.38q0 .49-.07.98-.07.5-.27.96-.2.44-.55.82-.33.37-.75.6-.42.24-.92.33-.5.11-.99.11zm0-1.28q.31 0 .63-.07.3-.07.56-.24.26-.18.44-.44.2-.25.31-.55.11-.29.15-.6.04-.31.04-.62V21.8q0-.31-.04-.63-.04-.3-.15-.6-.1-.3-.3-.55-.19-.26-.45-.42-.25-.18-.56-.26-.32-.07-.63-.07-.3 0-.62.07-.31.08-.57.26-.25.16-.45.42-.19.26-.3.55-.1.3-.14.6-.04.32-.04.63v2.38q0 .3.04.62.03.31.14.6.11.3.3.55.2.26.45.44.26.17.57.24.31.07.62.07zm5.75 1.14v-9.7h1.43v1.66q.15-.38.38-.73.24-.35.57-.6.35-.26.75-.37.42-.11.82-.11.46 0 .9.13t.77.42q.35.27.59.68.23.38.36.82.15.42.19.88.05.44.05.88v6.04h-1.43V21.8q0-.31-.03-.6-.04-.32-.13-.6-.1-.29-.28-.54-.16-.26-.4-.44-.24-.18-.53-.26-.3-.09-.6-.09-.32 0-.6.1-.3.07-.54.25-.24.18-.42.44-.16.25-.26.55-.09.27-.12.58-.04.3-.04.6v6.05zm22.28.14q-.42 0-.84-.1-.4-.12-.76-.35-.32-.26-.56-.6-.24-.37-.39-.76v1.67h-1.42V14.38h1.42v5.42q.15-.38.39-.73.24-.37.56-.6.35-.26.76-.37.42-.11.84-.11.45 0 .9.13t.82.4q.36.27.6.66.26.38.4.82.15.42.2.88.06.46.06.92v2.38q0 .45-.05.91-.06.46-.2.9-.15.42-.4.8-.25.39-.61.66-.37.28-.83.4-.44.13-.9.13zm-.55-1.28q.3 0 .6-.07.31-.07.57-.24.26-.18.44-.44.2-.25.31-.55.11-.29.15-.6.03-.31.03-.62V21.8q0-.31-.03-.63-.04-.3-.15-.6-.11-.3-.31-.55-.18-.26-.44-.42-.26-.18-.57-.26-.3-.07-.6-.07-.31 0-.62.07-.3.08-.54.26-.23.18-.42.46-.16.25-.25.55-.1.27-.13.58-.04.3-.04.6v2.39q0 .3.04.62.04.3.13.58.09.28.25.55.19.26.42.44.24.19.54.26.3.07.62.07zm7.32 4.89.33-1.12.33-1.1.42-1.44-2.91-9.8h1.48l2.18 7.6 2.14-7.6h1.48l-3.97 13.46zm17-3.75V14.38h3.23q.49 0 .98.11.52.1.96.35.44.26.76.66.33.38.54.86.2.46.27.97.07.5.07.99 0 .51-.07 1.02-.07.5-.27.97-.2.46-.54.86-.32.39-.76.64-.44.26-.96.37-.49.1-.98.1h-1.8v5.56zm1.43-6.85h1.8q.33 0 .64-.07.3-.1.56-.28.28-.18.46-.45.2-.28.31-.57.11-.31.15-.64.04-.33.04-.66 0-.31-.04-.64t-.15-.62q-.1-.32-.3-.59-.2-.27-.47-.46-.25-.18-.56-.25-.31-.1-.64-.1h-1.8zm8.53 6.85v-9.7h1.43v2.28q.1-.44.3-.86.18-.44.45-.8.3-.37.71-.57.44-.2.9-.2.35 0 .68.1.33.06.6.27.28.2.46.49.18.27.27.6.11.33.15.68.04.33.04.66h-1.43q0-.27-.06-.53-.03-.28-.18-.51-.13-.24-.38-.35-.24-.13-.52-.13-.36 0-.7.17-.36.16-.6.45-.21.3-.36.64-.13.33-.2.7-.08.37-.11.73l-.02.73v5.15zm11.46.14q-.5 0-.99-.1-.5-.1-.91-.34-.42-.23-.77-.6-.33-.38-.53-.82-.2-.46-.28-.96-.07-.49-.07-.98V21.8q0-.5.07-1 .08-.49.28-.93.2-.45.53-.82.35-.38.77-.62.42-.24.91-.33.5-.11.99-.11.5 0 .99.1.5.1.91.34.42.24.75.62.35.37.55.82.2.44.28.94.07.5.07.99v2.38q0 .49-.07.98-.08.5-.28.96-.2.44-.55.82-.33.37-.75.6-.42.24-.91.33-.5.11-.99.11zm0-1.28q.31 0 .62-.07t.57-.24q.26-.18.44-.44.2-.25.31-.55.11-.29.15-.6.03-.31.03-.62V21.8q0-.31-.03-.63-.04-.3-.15-.6-.11-.3-.31-.55-.18-.26-.44-.42-.26-.18-.57-.26-.3-.07-.62-.07-.31 0-.62.07-.31.08-.57.26-.26.16-.46.42-.18.26-.29.55-.11.3-.15.6-.03.32-.03.63v2.38q0 .3.03.62.04.31.15.6.1.3.3.55.2.26.45.44.26.17.57.24.3.07.62.07zm9.1 5.04q-.42 0-.85-.08-.4-.05-.78-.22-.39-.14-.72-.42-.33-.25-.56-.6-.22-.35-.35-.75-.11-.4-.13-.83h1.43q.02.37.16.68.17.33.44.55.3.22.64.3.35.08.72.08.3 0 .6-.07.31-.07.55-.26.26-.18.42-.43.18-.26.28-.55.1-.3.14-.6.04-.3.04-.61v-1.76q-.15.39-.39.75-.23.35-.58.6-.33.24-.75.35-.4.11-.83.11-.45 0-.91-.12-.44-.13-.8-.4-.37-.28-.63-.67-.24-.38-.38-.8-.15-.44-.2-.9-.06-.46-.06-.91V21.8q0-.46.06-.92.05-.46.2-.88.14-.44.38-.82.26-.39.62-.66.37-.27.8-.4.47-.13.92-.13.43 0 .83.1.42.12.75.38.35.23.58.6.24.35.39.73v-1.66h1.43v9.79q0 .5-.08.97-.07.5-.27.93-.18.46-.51.83-.32.38-.74.62-.42.25-.91.35-.48.1-.95.1zm.03-5.04q.31 0 .6-.07.32-.07.56-.26.23-.18.4-.44.18-.27.27-.55.1-.29.13-.58.04-.31.04-.62V21.8q0-.31-.04-.6-.03-.32-.13-.6-.09-.29-.27-.54-.17-.28-.4-.46-.24-.18-.55-.26-.3-.07-.6-.07-.32 0-.63.07-.3.08-.55.26-.25.16-.46.42-.18.26-.29.55-.1.3-.14.6-.04.32-.04.63v2.38q0 .3.04.62.03.31.14.6.11.3.3.55.2.26.45.44.26.17.55.24.31.07.62.07zm6.87 1.14v-9.7h1.43v2.28q.1-.44.29-.86.18-.44.46-.8.29-.37.71-.57.44-.2.9-.2.34 0 .67.1.33.06.6.27.28.2.47.49.18.27.27.6.11.33.15.68.03.33.03.66h-1.42q0-.27-.06-.53-.04-.28-.18-.51-.13-.24-.39-.35-.23-.13-.51-.13-.37 0-.71.17-.35.16-.59.45-.22.3-.37.64-.12.33-.2.7-.07.37-.1.73l-.02.73v5.15zm10.58.14q-.37 0-.73-.07-.37-.05-.7-.22-.31-.18-.57-.46-.24-.27-.4-.6-.15-.33-.22-.7-.06-.36-.06-.73 0-.47.11-.93.13-.46.4-.83.3-.38.68-.64.4-.25.85-.4.45-.15.91-.2.48-.06.95-.06h1.63v-.98q0-.39-.13-.77-.12-.39-.42-.64-.29-.26-.67-.37-.39-.1-.77-.1-.37 0-.73.06-.35.08-.65.28-.29.2-.45.53-.17.33-.17.68h-1.43q0-.42.11-.83.13-.4.37-.75t.57-.58q.35-.26.73-.4.38-.17.8-.23.43-.05.85-.05.44 0 .88.07.44.06.84.24.4.18.73.48.35.29.57.67.22.39.3.83.1.44.1.88v6.68h-1.43v-1.58q-.16.4-.47.75-.3.33-.68.57-.38.22-.82.31-.44.1-.88.1zm.55-1.28q.44 0 .88-.13.45-.12.78-.42.33-.29.48-.71.16-.44.16-.9v-1.11h-1.63q-.29 0-.56.03-.28.02-.55.1-.26.05-.52.18-.25.1-.45.3-.2.2-.3.48-.09.26-.09.53 0 .35.11.68.13.33.39.57.25.24.6.33.35.07.7.07zm5.78 1.14v-9.7h1.43v.76q.09-.2.22-.36.13-.18.3-.31.17-.13.38-.19.21-.05.43-.05.28 0 .54.1.25.08.43.27.2.18.33.42.13.23.2.5.08-.25.2-.49.13-.25.32-.43.18-.19.44-.28.25-.1.53-.1.27 0 .53.12.27.1.47.3.2.17.32.43t.2.53q.07.26.09.53.04.28.04.55v7.4h-1.43v-7.4q0-.2-.04-.38-.02-.2-.1-.39-.1-.18-.28-.29-.17-.1-.37-.1-.18 0-.37.1-.16.11-.25.3-.1.18-.13.38-.02.18-.02.38v7.4h-1.43v-7.4q0-.2-.03-.38-.02-.2-.11-.39-.1-.18-.28-.29-.16-.1-.34-.1-.2 0-.39.1-.16.11-.26.3-.09.18-.12.38-.02.18-.02.38v7.4zm9.15 0v-9.7h1.43v.76q.1-.2.22-.36.13-.18.3-.31.18-.13.38-.19.22-.05.44-.05.27 0 .53.1.25.08.44.27.2.18.33.42.12.23.2.5.07-.25.2-.49.13-.25.31-.43.18-.19.44-.28.26-.1.53-.1t.53.12q.28.1.48.3.2.17.3.43.14.26.2.53.08.26.1.53.04.28.04.55v7.4h-1.43v-7.4q0-.2-.04-.38-.02-.2-.1-.39-.1-.18-.28-.29-.17-.1-.37-.1-.18 0-.36.1-.17.11-.26.3-.1.18-.13.38-.02.18-.02.38v7.4h-1.42v-7.4q0-.2-.04-.38-.02-.2-.11-.39-.1-.18-.27-.29-.17-.1-.35-.1-.2 0-.39.1-.16.11-.25.3-.1.18-.13.38-.02.18-.02.38v7.4zm9.65 0v-1.28h2.62v-7.14h-2.36v-1.28h3.78v8.42h2.37v1.28zm3.2-11.4q-.24 0-.46-.06-.22-.07-.38-.24-.16-.16-.24-.38-.05-.22-.05-.46 0-.24.05-.46.08-.22.24-.38.16-.17.38-.24.22-.07.46-.07.24 0 .46.07.22.07.38.24.17.16.24.38.08.22.08.46 0 .24-.08.46-.07.22-.24.38-.16.17-.38.24-.22.05-.46.05zm5.75 11.4v-9.7h1.43v1.66q.14-.38.38-.73t.57-.6q.35-.26.75-.37.42-.11.82-.11.46 0 .9.13t.77.42q.35.27.58.68.24.38.37.82.15.42.18.88.06.44.06.88v6.04h-1.43V21.8q0-.31-.04-.6-.03-.32-.12-.6-.1-.29-.28-.54-.16-.26-.4-.44-.24-.18-.53-.26-.3-.09-.6-.09-.32 0-.61.1-.3.07-.53.25-.24.18-.42.44-.17.25-.26.55-.09.27-.13.58-.03.3-.03.6v6.05zm12.5 3.9q-.42 0-.84-.08-.4-.05-.79-.22-.38-.14-.71-.42-.33-.25-.57-.6-.22-.35-.35-.75-.1-.4-.13-.83h1.43q.02.37.17.68.16.33.44.55.29.22.64.3.34.08.71.08.31 0 .6-.07.32-.07.55-.26.26-.18.43-.43.18-.26.27-.55.11-.3.15-.6.03-.3.03-.61v-1.76q-.14.39-.38.75-.24.35-.59.6-.33.24-.75.35-.4.11-.82.11-.46 0-.92-.12-.44-.13-.8-.4-.37-.28-.62-.67-.24-.38-.39-.8-.15-.44-.2-.9-.06-.46-.06-.91V21.8q0-.46.06-.92.05-.46.2-.88.15-.44.39-.82.25-.39.62-.66.36-.27.8-.4.46-.13.92-.13.42 0 .82.1.42.12.75.38.35.23.59.6.24.35.38.73v-1.66h1.43v9.79q0 .5-.07.97-.08.5-.28.93-.18.46-.51.83-.31.38-.73.62-.42.25-.92.35-.47.1-.95.1zm.04-5.04q.3 0 .6-.07.31-.07.55-.26.24-.18.4-.44.19-.27.28-.55.09-.29.13-.58.03-.31.03-.62V21.8q0-.31-.03-.6-.04-.32-.13-.6-.1-.29-.28-.54-.16-.28-.4-.46-.24-.18-.55-.26-.3-.07-.6-.07-.31 0-.62.07-.3.08-.55.26-.26.16-.46.42-.18.26-.3.55-.1.3-.14.6-.04.32-.04.63v2.38q0 .3.04.62.04.31.15.6.1.3.29.55.2.26.46.44.25.17.55.24.3.07.62.07zm15.5 1.14V14.38h1.43v12.18h4.94v1.28zm11.1.14q-.37 0-.74-.07-.36-.05-.7-.22-.3-.18-.56-.46-.24-.27-.4-.6-.15-.33-.22-.7-.06-.36-.06-.73 0-.47.11-.93.13-.46.4-.83.3-.38.68-.64.4-.25.84-.4.46-.15.92-.2.47-.06.95-.06h1.63v-.98q0-.39-.13-.77-.13-.39-.42-.64-.3-.26-.68-.37-.38-.1-.77-.1-.36 0-.73.06-.35.08-.64.28-.3.2-.46.53-.16.33-.16.68h-1.43q0-.42.11-.83.13-.4.37-.75.23-.35.56-.58.35-.26.74-.4.38-.17.8-.23.42-.05.84-.05.44 0 .88.07.44.06.84.24.4.18.74.48.34.29.56.67.22.39.32.83.09.44.09.88v6.68h-1.43v-1.58q-.17.4-.48.75-.29.33-.67.57-.39.22-.83.31-.44.1-.88.1zm.54-1.28q.44 0 .88-.13.46-.12.79-.42.33-.29.47-.71.17-.44.17-.9v-1.11h-1.63q-.3 0-.57.03-.27.02-.55.1-.25.05-.5.18-.27.1-.47.3-.2.2-.29.48-.1.26-.1.53 0 .35.12.68.13.33.38.57.26.24.6.33.35.07.7.07zm6.08 1.14v-9.7h1.43v1.66q.14-.38.38-.73t.57-.6q.35-.26.75-.37.42-.11.82-.11.46 0 .9.13t.77.42q.35.27.58.68.24.38.37.82.15.42.18.88.06.44.06.88v6.04h-1.43V21.8q0-.31-.04-.6-.03-.32-.12-.6-.1-.29-.28-.54-.16-.26-.4-.44-.24-.18-.53-.26-.3-.09-.6-.09-.32 0-.61.1-.3.07-.53.25-.24.18-.42.44-.17.25-.26.55-.09.27-.13.58-.03.3-.03.6v6.05zm12.5 3.9q-.42 0-.84-.08-.4-.05-.79-.22-.38-.14-.71-.42-.33-.25-.57-.6-.22-.35-.35-.75-.1-.4-.13-.83h1.43q.02.37.17.68.16.33.44.55.29.22.64.3.35.08.71.08.31 0 .6-.07.32-.07.55-.26.26-.18.43-.43.18-.26.27-.55.11-.3.15-.6.03-.3.03-.61v-1.76q-.14.39-.38.75-.24.35-.59.6-.33.24-.75.35-.4.11-.82.11-.46 0-.92-.12-.44-.13-.8-.4-.37-.28-.62-.67-.24-.38-.39-.8-.15-.44-.2-.9-.05-.46-.05-.91V21.8q0-.46.05-.92t.2-.88q.15-.44.39-.82.25-.39.62-.66.36-.27.8-.4.46-.13.92-.13.42 0 .82.1.42.12.75.38.35.23.59.6.24.35.38.73v-1.66h1.43v9.79q0 .5-.07.97-.08.5-.28.93-.18.46-.51.83-.31.38-.73.62-.42.25-.92.35-.47.1-.95.1zm.04-5.04q.3 0 .6-.07.31-.07.55-.26.24-.18.4-.44.19-.27.28-.55.09-.29.13-.58.03-.31.03-.62V21.8q0-.31-.03-.6-.04-.32-.13-.6-.1-.29-.28-.54-.16-.28-.4-.46-.24-.18-.55-.26-.3-.07-.6-.07-.31 0-.62.07-.3.08-.55.26-.26.16-.46.42-.18.26-.3.55-.1.3-.14.6-.04.32-.04.63v2.38q0 .3.04.62.04.31.15.6.1.3.29.55.2.26.46.44.25.17.55.24.3.07.62.07zm8.62 1.28q-.46 0-.9-.12-.44-.13-.79-.4-.32-.3-.56-.68-.24-.4-.39-.83-.13-.44-.18-.88-.04-.45-.04-.9v-6.03h1.43v6.04q0 .3.04.62.03.3.13.58.09.28.25.53.19.26.42.44.24.19.53.28.3.07.6.07.32 0 .61-.07.3-.1.53-.28.24-.18.4-.44.19-.25.28-.53.1-.29.13-.58.03-.31.03-.62v-6.04h1.43v9.7h-1.43v-1.67q-.14.39-.38.73-.24.35-.59.6-.32.26-.75.37-.4.11-.8.11zm8.82 0q-.36 0-.73-.07-.37-.05-.7-.22-.3-.18-.56-.46-.24-.27-.4-.6-.15-.33-.23-.7-.05-.36-.05-.73 0-.47.1-.93.14-.46.41-.83.3-.38.68-.64.4-.25.84-.4.46-.15.92-.2.47-.06.95-.06h1.63v-.98q0-.39-.13-.77-.13-.39-.42-.64-.3-.26-.68-.37-.38-.1-.77-.1-.36 0-.73.06-.35.08-.64.28-.3.2-.46.53-.16.33-.16.68h-1.43q0-.42.1-.83.14-.4.37-.75.24-.35.57-.58.35-.26.73-.4.39-.17.81-.23.42-.05.84-.05.44 0 .88.07.44.06.84.24.4.18.73.48.35.29.57.67.22.39.31.83.1.44.1.88v6.68h-1.43v-1.58q-.17.4-.48.75-.3.33-.68.57-.38.22-.82.31-.44.1-.88.1zm.55-1.28q.44 0 .88-.13.46-.12.79-.42.33-.29.47-.71.17-.44.17-.9v-1.11h-1.63q-.3 0-.57.03-.27.02-.55.1-.25.05-.51.18-.26.1-.46.3-.2.2-.3.48-.08.26-.08.53 0 .35.1.68.13.33.4.57.25.24.6.33.34.07.7.07zm9.43 5.04q-.42 0-.84-.08-.4-.05-.8-.22-.38-.14-.7-.42-.34-.25-.57-.6-.22-.35-.35-.75-.11-.4-.13-.83h1.43q.02.37.16.68.17.33.44.55.3.22.64.3.35.08.72.08.3 0 .6-.07.31-.07.55-.26.26-.18.42-.43.18-.26.28-.55.1-.3.14-.6.04-.3.04-.61v-1.76q-.15.39-.39.75-.23.35-.58.6-.33.24-.75.35-.4.11-.83.11-.45 0-.91-.12-.44-.13-.8-.4-.37-.28-.63-.67-.24-.38-.38-.8-.15-.44-.2-.9-.06-.46-.06-.91V21.8q0-.46.06-.92.05-.46.2-.88.14-.44.38-.82.26-.39.62-.66.37-.27.8-.4.47-.13.92-.13.43 0 .83.1.42.12.75.38.35.23.58.6.24.35.39.73v-1.66h1.43v9.79q0 .5-.08.97-.07.5-.27.93-.18.46-.51.83-.31.38-.74.62-.42.25-.91.35-.48.1-.95.1zm.03-5.04q.31 0 .6-.07.32-.07.56-.26.23-.18.4-.44.18-.27.27-.55.1-.29.13-.58.04-.31.04-.62V21.8q0-.31-.04-.6-.03-.32-.13-.6-.09-.29-.27-.54-.17-.28-.4-.46-.24-.18-.55-.26-.3-.07-.6-.07-.32 0-.63.07-.3.08-.55.26-.25.16-.46.42-.18.26-.29.55-.1.3-.14.6-.04.32-.04.63v2.38q0 .3.04.62.03.31.14.6.11.3.3.55.2.26.45.44.26.17.55.24.31.07.62.07zm9.21 1.28q-.51 0-1-.09-.48-.09-.92-.33-.44-.25-.77-.62-.33-.38-.55-.82-.2-.46-.27-.96-.08-.49-.08-.98V21.8q0-.5.08-1 .07-.49.27-.93.2-.45.53-.82.35-.38.77-.62.42-.24.92-.33.49-.11.98-.11.5 0 1 .1.49.1.9.34.43.24.76.62.35.37.55.82.2.44.27.94.08.5.08.99v1.83h-5.68v.55q0 .3.04.62.03.31.14.6.13.3.32.55.2.26.45.44.26.17.57.24.31.07.64.07.35 0 .7-.07.36-.07.66-.26.3-.2.49-.51.18-.33.2-.68h1.43q-.02.4-.17.8-.12.41-.38.76-.24.33-.59.58-.33.24-.71.4-.38.15-.8.2-.43.06-.83.06zm-2.16-5.63H435v-.55q0-.31-.04-.63-.04-.3-.15-.6-.1-.3-.3-.55-.19-.26-.45-.42-.25-.18-.56-.26-.31-.07-.63-.07-.3 0-.62.07-.3.08-.57.26-.25.16-.45.42-.19.26-.3.55-.1.3-.14.6-.04.32-.04.63zm23.16 8.43q-.81-.44-1.5-1.04-.68-.59-1.23-1.32-.55-.71-.95-1.52-.4-.82-.64-1.7t-.35-1.77q-.11-.9-.11-1.82 0-.91.1-1.8.12-.9.36-1.78.23-.88.64-1.69.4-.82.95-1.54.55-.73 1.22-1.31.7-.6 1.5-1.05l.7 1.12q-1.02.59-1.83 1.48-.8.9-1.32 1.98-.5 1.06-.7 2.23-.2 1.17-.2 2.36 0 1.2.2 2.36.2 1.18.7 2.26.52 1.06 1.32 1.95.8.9 1.83 1.49zm3.02-2.94V14.38h1.75l1.89 5.57 1.9 5.54q0-.18-.02-.34v-.33l-.09-2.04-.03-1.5-.02-1.52v-5.38h1.42v13.46h-1.75l-3.8-11.11v.34q.03.17.03.33l.09 2.04.03 1.51.02 1.5v5.39zm12.55.14q-.5 0-.99-.1t-.91-.34q-.42-.23-.77-.6-.33-.38-.53-.82-.2-.46-.28-.96-.07-.49-.07-.98V21.8q0-.5.07-1 .08-.49.28-.93.2-.45.53-.82.35-.38.77-.62.42-.24.91-.33.5-.11 1-.11.49 0 .98.1.5.1.92.34.42.24.75.62.34.37.55.82.2.44.27.94.07.5.07.99v2.38q0 .49-.07.98-.07.5-.27.96-.2.44-.55.82-.33.37-.75.6-.43.24-.92.33-.5.11-.99.11zm0-1.28q.31 0 .62-.07.32-.07.57-.24.26-.18.44-.44.2-.25.31-.55.11-.29.15-.6.04-.31.04-.62V21.8q0-.31-.04-.63-.04-.3-.15-.6-.1-.3-.3-.55-.2-.26-.45-.42-.25-.18-.57-.26-.3-.07-.62-.07-.3 0-.62.07-.31.08-.57.26-.25.16-.46.42-.18.26-.29.55-.1.3-.14.6-.04.32-.04.63v2.38q0 .3.04.62.03.31.14.6.11.3.3.55.2.26.45.44.26.17.57.24.31.07.62.07zm6.85 1.14v-9.7h1.43v2.28q.1-.44.29-.86.18-.44.46-.8.29-.37.71-.57.44-.2.9-.2.34 0 .67.1.33.06.6.27.28.2.47.49.18.27.27.6.11.33.15.68.03.33.03.66h-1.42q0-.27-.06-.53-.04-.28-.18-.51-.13-.24-.39-.35-.23-.13-.5-.13-.38 0-.72.17-.35.16-.59.45-.22.3-.36.64-.13.33-.2.7-.08.37-.12.73l-.01.73v5.15zm7.76 0v-9.7h1.43v.76q.09-.2.22-.36.12-.18.29-.31.18-.13.38-.19.22-.05.44-.05.28 0 .53.1.26.08.44.27.2.18.33.42.13.23.2.5.08-.25.2-.49.13-.25.32-.43.18-.19.44-.28.25-.1.53-.1.27 0 .53.12.27.1.47.3.2.17.31.43.13.26.2.53.08.26.1.53.03.28.03.55v7.4h-1.42v-7.4q0-.2-.04-.38-.02-.2-.11-.39-.1-.18-.28-.29-.16-.1-.36-.1-.18 0-.37.1-.16.11-.25.3-.1.18-.13.38-.02.18-.02.38v7.4h-1.43v-7.4q0-.2-.03-.38-.02-.2-.11-.39-.1-.18-.28-.29-.16-.1-.35-.1-.2 0-.38.1-.17.11-.26.3-.09.18-.13.38l-.01.38v7.4zm11.97.14q-.37 0-.73-.07-.37-.05-.7-.22-.3-.18-.57-.46-.23-.27-.4-.6-.14-.33-.22-.7-.05-.36-.05-.73 0-.47.1-.93.14-.46.41-.83.3-.38.68-.64.4-.25.84-.4.46-.15.91-.2.48-.06.96-.06h1.63v-.98q0-.39-.13-.77-.13-.39-.42-.64-.3-.26-.68-.37-.39-.1-.77-.1-.37 0-.73.06-.35.08-.64.28-.3.2-.46.53-.17.33-.17.68h-1.42q0-.42.1-.83.13-.4.37-.75t.57-.58q.35-.26.73-.4.39-.17.8-.23.43-.05.85-.05.44 0 .88.07.44.06.84.24.4.18.73.48.35.29.57.67.22.39.31.83.1.44.1.88v6.68h-1.43v-1.58q-.17.4-.48.75-.3.33-.68.57-.38.22-.82.31-.44.1-.88.1zm.55-1.28q.44 0 .88-.13.45-.12.78-.42.33-.29.48-.71.17-.44.17-.9v-1.11h-1.63q-.3 0-.57.03-.28.02-.55.1-.26.05-.51.18-.26.1-.46.3-.2.2-.3.48-.09.26-.09.53 0 .35.11.68.13.33.39.57.26.24.6.33.35.07.7.07zm6.28 1.14v-1.28h2.61v-10.9h-2.36v-1.28h3.8v12.18h2.35v1.28zm9.15 0v-1.28h2.62v-7.14h-2.36v-1.28h3.78v8.42h2.37v1.28zm3.2-11.4q-.24 0-.46-.06-.22-.07-.38-.24-.16-.16-.24-.38-.05-.22-.05-.46 0-.24.05-.46.08-.22.24-.38.16-.17.38-.24.22-.07.46-.07.24 0 .46.07.22.07.38.24.17.16.24.38.08.22.08.46 0 .24-.08.46-.07.22-.24.38-.16.17-.38.24-.22.05-.46.05zm5.75 11.4v-1.28l5.1-7.14H521v-1.28h6.8v1.28l-5.1 7.14h5.1v1.28zm12.6.14q-.52 0-1.01-.09-.48-.09-.92-.33-.44-.25-.77-.62-.33-.38-.55-.82-.2-.46-.27-.96-.07-.49-.07-.98V21.8q0-.5.07-1 .07-.49.27-.93.2-.45.53-.82.35-.38.77-.62.42-.24.92-.33.5-.11.99-.11t.98.1q.5.1.92.34.42.24.75.62.35.37.55.82.2.44.27.94.08.5.08.99v1.83h-5.68v.55q0 .3.04.62.04.31.15.6.12.3.3.55.2.26.46.44.26.17.57.24.31.07.64.07.35 0 .7-.07.36-.07.66-.26.3-.2.5-.51.17-.33.2-.68h1.42q-.02.4-.16.8-.13.41-.39.76-.24.33-.58.58-.33.24-.72.4-.38.15-.8.2-.42.06-.83.06zm-2.17-5.63h4.25v-.55q0-.31-.04-.63-.03-.3-.14-.6-.11-.3-.31-.55-.19-.26-.44-.42-.26-.18-.57-.26-.31-.07-.62-.07t-.63.07q-.3.08-.56.26-.26.16-.46.42-.18.26-.3.55-.1.3-.14.6-.04.32-.04.63zm10.71 5.63q-.46 0-.91-.12-.44-.13-.81-.4-.37-.28-.62-.67-.24-.38-.39-.8-.14-.44-.2-.9-.05-.46-.05-.91V21.8q0-.46.05-.92.06-.46.2-.88.15-.44.39-.82.25-.39.62-.66t.8-.4q.46-.13.92-.13.42 0 .82.1.43.12.76.38.34.23.58.6.24.35.39.73v-5.42h1.42v13.46h-1.42v-1.67q-.15.39-.39.75-.24.35-.58.6-.33.24-.76.35-.4.11-.82.11zm.55-1.28q.31 0 .6-.07.32-.1.55-.28.24-.18.4-.44.19-.25.28-.53.1-.29.13-.58.04-.31.04-.62V21.8q0-.31-.04-.6-.04-.32-.13-.6-.1-.29-.27-.54-.17-.28-.4-.46-.24-.18-.56-.26-.29-.07-.6-.07t-.62.07q-.3.08-.55.26-.26.16-.46.42-.18.26-.3.55-.1.3-.14.6-.03.32-.03.63v2.38q0 .3.03.62.04.31.15.6.1.3.3.55.2.26.45.44.25.17.55.24.3.07.62.07zm6.44 4.08-.7-1.11q1.03-.59 1.84-1.49.8-.9 1.3-1.95.51-1.08.71-2.26.2-1.17.2-2.36t-.2-2.36q-.2-1.17-.71-2.23-.5-1.08-1.3-1.98-.8-.9-1.83-1.48l.7-1.12q.8.44 1.48 1.05.7.58 1.24 1.31.55.72.95 1.54.4.8.64 1.69.24.87.35 1.77.11.9.11 1.81 0 .92-.1 1.82-.12.9-.36 1.77-.24.88-.64 1.7-.4.8-.95 1.52-.55.73-1.24 1.32-.68.6-1.49 1.04z" aria-label="Energy Consumption by Programming Language (Normalized)" font-family="Iosevka" font-size="18.3" style="line-height:1.25;-inkscape-font-specification:&quot;Iosevka, Normal&quot;"/><path id="text158" stroke-width=".25" d="M-286.51 11.37V4.04h3.63v.7h-2.85v2.4h2.3v.69h-2.3v2.85h2.85v.7zm4.91 0V6.08h.78V7q.08-.2.21-.4.13-.19.31-.33.19-.14.41-.2.23-.06.45-.06.25 0 .49.07t.42.23q.19.15.32.37.13.21.2.45.08.23.1.48.03.24.03.48v3.3h-.78v-3.3q0-.17-.02-.33-.02-.17-.07-.32-.05-.16-.15-.3-.1-.14-.22-.24-.13-.1-.3-.14-.15-.05-.32-.05t-.33.05q-.16.04-.29.14-.13.1-.23.24-.09.14-.14.3-.05.15-.07.32-.02.16-.02.33v3.3zm6.82 2.13q-.23 0-.46-.04-.22-.03-.43-.12-.2-.08-.39-.23-.18-.14-.3-.33-.13-.19-.2-.4-.06-.23-.07-.46h.78q.01.2.1.37.08.18.23.3.16.12.35.16.2.05.4.05.16 0 .32-.04.17-.04.3-.14.14-.1.23-.24.1-.14.15-.3.06-.16.08-.33.02-.16.02-.33v-.95q-.08.2-.21.4t-.32.33q-.18.13-.4.2-.23.05-.46.05-.25 0-.5-.07-.24-.07-.44-.22t-.34-.36q-.13-.2-.2-.43-.09-.24-.12-.5-.03-.24-.03-.5v-1.3q0-.24.03-.49t.11-.48q.08-.24.21-.45.14-.2.34-.36.2-.15.44-.22.25-.07.5-.07.23 0 .45.06.23.06.41.2.19.13.32.33t.21.4v-.9h.78v5.33q0 .27-.04.53-.04.27-.15.51-.1.25-.28.45-.17.21-.4.34-.23.14-.5.2-.26.05-.52.05zm.02-2.74q.17 0 .33-.04.17-.04.3-.14.13-.1.22-.24.1-.15.15-.3.05-.16.07-.32l.02-.34v-1.3q0-.17-.02-.33-.02-.17-.07-.32-.05-.16-.15-.3-.09-.15-.22-.25t-.3-.14q-.16-.04-.33-.04t-.34.04q-.16.04-.3.14-.14.1-.25.23-.1.14-.16.3-.06.16-.08.33l-.02.34v1.3l.02.34q.02.17.08.33t.16.3q.11.14.25.24.14.09.3.13.17.04.34.04zm5.02.7q-.28 0-.55-.06-.26-.05-.5-.18-.23-.14-.41-.34-.18-.2-.3-.44-.11-.25-.15-.52-.04-.27-.04-.54v-1.3q0-.27.04-.54t.15-.5q.1-.26.29-.46.19-.2.42-.34.22-.13.5-.18.26-.06.53-.06t.54.06q.27.05.5.18.23.13.41.34.2.2.3.45.11.24.15.51.04.27.04.54v1h-3.1v.3q0 .17.03.34.02.17.08.33.07.16.16.3.11.14.25.24.14.09.31.13.17.04.35.04.2 0 .38-.04.2-.04.36-.14.17-.11.27-.28.1-.18.11-.37h.78q-.01.22-.09.44-.07.22-.2.4-.14.18-.33.32-.18.13-.39.22-.2.08-.44.11-.23.03-.45.03zm-1.17-3.08h2.31v-.3l-.02-.34q-.02-.17-.08-.33t-.17-.3q-.1-.14-.24-.23-.14-.1-.3-.14-.18-.04-.35-.04-.17 0-.34.04t-.3.14q-.15.1-.26.23-.1.14-.15.3-.06.16-.08.33l-.02.34zm4.89 3v-5.3h.78v1.25q.06-.24.16-.47.1-.24.25-.44.16-.2.38-.3.24-.12.5-.12.18 0 .36.05.18.04.33.15.15.11.25.27.1.15.15.33.06.18.08.37l.02.36h-.78q0-.15-.03-.29-.02-.15-.1-.28-.07-.13-.2-.19-.14-.07-.29-.07-.2 0-.38.1-.2.08-.32.24-.12.16-.2.35-.07.18-.11.38l-.06.4-.01.4v2.8zm5.26 2.04.18-.6.18-.6.23-.8-1.59-5.34h.8l1.2 4.15 1.17-4.15h.8l-2.16 7.34zm10.94-1.97q-.26 0-.53-.05-.26-.05-.49-.18-.23-.13-.4-.33-.19-.2-.3-.43-.1-.24-.15-.5-.04-.27-.04-.53V5.98q0-.26.04-.52.04-.27.15-.5.11-.25.3-.44.17-.2.4-.33t.5-.18q.26-.05.52-.05.25 0 .5.04.24.04.46.15.23.1.4.28.2.16.3.38.13.22.19.46.06.24.06.5v.02h-.78v-.02q0-.22-.08-.44-.07-.22-.23-.38-.15-.16-.37-.23t-.45-.07q-.25 0-.49.1-.23.1-.38.3-.15.2-.2.44-.06.24-.06.5v3.44q0 .25.05.5.06.24.21.44t.38.3q.24.09.5.09.22 0 .44-.07t.37-.23q.16-.16.23-.38.08-.22.08-.44v-.02h.78v.02q0 .26-.06.5t-.18.46q-.11.21-.3.38-.18.17-.41.28-.22.11-.47.15-.24.04-.49.04zm5.02 0q-.27 0-.54-.06-.27-.05-.5-.18-.22-.13-.41-.33-.18-.2-.3-.44-.1-.25-.14-.52-.04-.27-.04-.54v-1.3q0-.27.04-.54t.15-.5q.1-.26.29-.46.19-.2.41-.34.23-.13.5-.18.27-.06.54-.06t.54.06q.27.05.5.18.23.13.41.34.2.2.3.45.11.24.15.51.04.27.04.54v1.3q0 .27-.04.54t-.15.52q-.1.24-.3.44-.18.2-.4.33-.24.13-.5.18-.28.06-.55.06zm0-.7q.17 0 .34-.03.17-.04.31-.13.14-.1.24-.24.11-.14.17-.3.06-.16.08-.33l.02-.34v-1.3l-.02-.34q-.02-.17-.08-.33t-.17-.3q-.1-.14-.24-.23-.14-.1-.3-.14-.18-.04-.35-.04-.17 0-.34.04t-.3.14q-.15.1-.26.23-.1.14-.16.3-.05.16-.07.33l-.02.34v1.3l.02.34q.02.17.07.33.06.16.16.3.11.14.25.24.14.09.31.13.17.04.34.04zm3.14.62V6.08h.78V7q.08-.2.2-.4.14-.19.32-.33.19-.14.4-.2.24-.06.45-.06.25 0 .5.07.23.07.41.23.2.15.32.37.13.21.2.45.08.23.1.48.03.24.03.48v3.3h-.78v-3.3q0-.17-.02-.33-.02-.17-.07-.32-.05-.16-.15-.3-.09-.14-.22-.24-.13-.1-.29-.14-.16-.05-.32-.05-.17 0-.33.05-.16.04-.3.14-.12.1-.22.24-.1.14-.14.3-.05.15-.07.32-.02.16-.02.33v3.3zm6.84.08q-.23 0-.45-.03-.22-.02-.43-.09-.21-.08-.4-.2-.18-.14-.32-.3-.13-.18-.2-.4-.07-.22-.07-.44v-.01h.78q0 .19.1.36.1.16.26.26.17.09.35.13.19.03.38.03t.37-.03q.19-.04.35-.13.17-.1.27-.27t.1-.36q0-.17-.1-.32-.08-.15-.23-.24-.14-.1-.31-.14l-.33-.1-.33-.1-.32-.11-.32-.13-.3-.18q-.13-.1-.25-.22-.12-.13-.21-.28-.08-.15-.12-.32-.04-.17-.04-.34 0-.22.06-.43.07-.2.19-.39t.3-.32q.18-.13.38-.2.2-.09.42-.12.22-.03.44-.03t.43.03q.22.03.42.11.2.07.38.2.17.12.3.3.12.18.18.4.07.2.07.41v.01h-.77q0-.18-.1-.34-.08-.16-.23-.25-.15-.1-.33-.13-.17-.04-.35-.04-.18 0-.36.04-.18.03-.33.13-.15.1-.24.27-.1.16-.1.34 0 .18.1.33.1.15.24.25.15.09.3.14l.34.09.33.1.33.1.3.15q.17.07.3.17.15.1.25.23.12.12.2.27.1.15.13.32.05.16.05.34 0 .22-.07.44t-.2.4q-.13.17-.31.3-.2.13-.4.21-.21.07-.44.1-.22.03-.44.03zm4.7 0q-.25 0-.49-.07t-.43-.22q-.18-.16-.3-.37-.14-.21-.22-.44-.07-.24-.1-.48l-.02-.5V6.09h.78v3.3l.02.34q.02.16.07.32.05.15.14.29.1.14.23.24.13.1.29.15.16.04.33.04t.33-.04q.16-.05.29-.15.13-.1.22-.24.1-.14.15-.3.05-.15.07-.31l.02-.34v-3.3h.78v5.3h-.78v-.91q-.08.2-.21.4-.13.18-.32.32-.18.14-.41.2-.22.06-.44.06zm3.27-.08V6.08h.78v.42l.12-.2q.07-.1.16-.17.1-.07.21-.1.12-.03.24-.03.15 0 .3.05.13.05.23.15.11.1.18.23.07.13.11.28.04-.14.11-.27.07-.14.17-.24.1-.1.24-.15.14-.05.29-.05.15 0 .29.06.15.05.26.16.1.1.17.24.07.14.1.3.05.13.06.28l.02.3v4.03h-.78V7.34l-.02-.2q-.01-.12-.06-.22-.05-.1-.15-.16-.1-.06-.2-.06t-.2.06q-.09.06-.14.16-.05.1-.07.21l-.01.21v4.03h-.78V7.34l-.02-.2q0-.12-.06-.22-.05-.1-.15-.16-.09-.06-.19-.06t-.2.06q-.1.06-.15.16-.05.1-.07.21v4.24zm5.16 2.05V6.08h.77V7q.08-.2.21-.4t.31-.33q.2-.14.41-.2.23-.06.46-.06.25 0 .5.07.24.07.44.22t.33.36q.14.21.22.45.08.23.11.48.03.25.03.5v1.3q0 .25-.03.5t-.11.49q-.08.23-.22.43-.13.21-.33.36t-.45.22q-.24.07-.49.07-.23 0-.46-.06-.22-.06-.4-.19-.19-.14-.32-.33-.13-.2-.2-.4v2.95zm1.86-2.66q.17 0 .33-.04.17-.04.31-.13.14-.1.24-.24.11-.14.17-.3.06-.16.08-.33l.02-.34v-1.3l-.02-.34q-.02-.17-.08-.33t-.17-.3q-.1-.14-.24-.23-.14-.1-.3-.14-.17-.04-.34-.04t-.34.04q-.16.04-.29.14-.13.1-.23.25-.09.14-.14.3-.05.15-.07.32-.02.16-.02.33v1.3l.02.34q.02.16.07.32.05.15.14.3.1.14.23.24.13.1.3.14.16.04.33.04zm5.7.7q-.25 0-.49-.07-.24-.06-.43-.2-.2-.14-.33-.34t-.21-.42q-.08-.23-.11-.47-.03-.24-.03-.48v-2.7h-1.1v-.7h1.1V4.04h.78v2.04h1.61v.7h-1.61v2.99l.04.28.1.27q.06.13.15.23.1.1.24.16.14.05.28.05.2 0 .36-.1.18-.08.28-.24.1-.17.14-.36.04-.2.04-.38v-.06h.77v.1q0 .22-.04.44t-.13.43q-.09.2-.24.37-.14.17-.33.3-.19.1-.4.14-.23.05-.45.05zm2.53-.09v-.7h1.43V6.79h-1.3v-.7h2.08v4.6h1.28v.7zm1.75-6.22q-.13 0-.25-.03-.12-.04-.21-.13-.1-.09-.13-.2-.03-.13-.03-.25 0-.13.03-.25.04-.12.13-.21.09-.1.2-.13.13-.04.26-.04t.25.04q.12.04.2.13.1.09.14.2.04.13.04.26 0 .12-.04.24t-.13.21q-.1.1-.21.13-.12.03-.25.03zm4.99 6.3q-.27 0-.54-.06-.27-.05-.5-.18-.23-.13-.42-.33-.18-.2-.29-.44-.1-.25-.15-.52-.04-.27-.04-.54v-1.3q0-.27.04-.54t.15-.5q.11-.26.3-.46.18-.2.41-.34.23-.13.5-.18.27-.06.54-.06t.54.06q.27.05.5.18.23.13.4.34.2.2.3.45.12.24.16.51.04.27.04.54v1.3q0 .27-.04.54t-.15.52q-.11.24-.3.44-.18.2-.41.33-.23.13-.5.18-.27.06-.54.06zm0-.7q.17 0 .34-.03.17-.04.3-.13.15-.1.25-.24.1-.14.17-.3.06-.16.08-.33l.02-.34v-1.3l-.02-.34q-.02-.17-.08-.33t-.17-.3q-.1-.14-.24-.23-.14-.1-.31-.14-.17-.04-.34-.04t-.34.04q-.17.04-.31.14-.14.1-.25.23-.1.14-.16.3-.06.16-.08.33l-.02.34v1.3l.02.34q.02.17.08.33t.16.3q.11.14.25.24.14.09.3.13.18.04.35.04zm3.13.62V6.08h.78V7q.08-.2.21-.4.13-.19.31-.33.2-.14.41-.2.23-.06.45-.06.25 0 .49.07t.42.23q.19.15.32.37.13.21.2.45.08.23.1.48.03.24.03.48v3.3h-.78v-3.3q0-.17-.02-.33-.02-.17-.07-.32-.05-.16-.15-.3-.09-.14-.22-.24-.13-.1-.29-.14-.16-.05-.33-.05t-.33.05q-.16.04-.29.14-.13.1-.23.24-.09.14-.14.3-.05.15-.07.32-.02.16-.02.33v3.3zm13.33 1.61q-.44-.24-.82-.57-.37-.32-.67-.72-.3-.39-.51-.83-.22-.44-.35-.92-.13-.48-.2-.97-.05-.5-.05-1 0-.49.06-.98t.19-.97q.13-.48.35-.92.22-.45.51-.83.3-.4.67-.72.38-.33.82-.57l.38.6q-.56.33-1 .82-.44.48-.72 1.07-.27.58-.37 1.22-.11.64-.11 1.29t.1 1.29q.11.64.38 1.23.28.57.72 1.06.44.5 1 .81zm1.65-1.6V4.03h.96l1.03 3.03 1.03 3.03v-.37l-.06-1.11-.02-.82V4.04h.77v7.33h-.95l-2.07-6.06v.37l.06 1.11.02.83v3.75zm6.85.07q-.27 0-.54-.06-.27-.05-.5-.18-.23-.13-.42-.33-.18-.2-.29-.44-.1-.25-.15-.52-.04-.27-.04-.54v-1.3q0-.27.04-.54t.15-.5q.11-.26.3-.46.18-.2.41-.34.23-.13.5-.18.27-.06.54-.06t.54.06q.27.05.5.18.23.13.4.34.2.2.3.45.12.24.16.51.04.27.04.54v1.3q0 .27-.04.54t-.15.52q-.11.24-.3.44-.18.2-.41.33-.23.13-.5.18-.27.06-.54.06zm0-.7q.17 0 .34-.03.17-.04.3-.13.15-.1.25-.24.1-.14.17-.3.06-.16.08-.33l.02-.34v-1.3l-.02-.34q-.02-.17-.08-.33t-.17-.3q-.1-.14-.24-.23-.14-.1-.31-.14-.17-.04-.34-.04t-.34.04q-.17.04-.31.14-.14.1-.25.23-.1.14-.16.3-.06.16-.08.33l-.02.34v1.3l.02.34q.02.17.08.33t.16.3q.11.14.25.24.14.09.3.13.18.04.35.04zm3.73.62V6.08h.78v1.25q.06-.24.16-.47.1-.24.25-.44.16-.2.39-.3.24-.12.49-.12.19 0 .37.05.18.04.33.15.15.11.25.27.1.15.15.33.06.18.08.37l.02.36h-.78q0-.15-.03-.29-.02-.15-.1-.28-.07-.13-.21-.19-.13-.07-.28-.07-.2 0-.39.1-.19.08-.32.24-.12.16-.2.35-.07.18-.1.38-.05.2-.07.4V11.37zm4.24 0V6.08h.77v.42l.12-.2q.07-.1.16-.17.1-.07.21-.1.12-.03.24-.03.15 0 .3.05.13.05.23.15.11.1.18.23.07.13.11.28.04-.14.11-.27.07-.14.17-.24.1-.1.24-.15.14-.05.3-.05.14 0 .28.06.15.05.26.16.11.1.17.24.07.14.1.3.05.13.06.28l.02.3v4.03h-.78V7.34l-.02-.2q0-.12-.06-.22-.05-.1-.15-.16-.09-.06-.2-.06-.1 0-.2.06-.09.06-.14.16-.05.1-.07.21v4.24h-.79V7.34l-.02-.2q0-.12-.06-.22-.05-.1-.15-.16-.09-.06-.19-.06t-.2.06q-.1.06-.15.16-.05.1-.07.21v4.24zm6.53.08q-.2 0-.4-.04-.2-.03-.38-.12-.17-.1-.31-.25-.13-.15-.22-.32-.08-.18-.12-.38-.03-.2-.03-.4 0-.26.06-.51.07-.25.22-.45.16-.21.37-.35.22-.14.46-.22.25-.08.5-.11t.51-.03h.9v-.54q0-.21-.08-.42-.07-.2-.23-.35-.16-.14-.37-.2-.2-.06-.42-.06-.2 0-.4.04-.18.04-.34.15-.16.11-.25.3-.1.17-.1.36h-.77q0-.23.06-.45.07-.22.2-.4.13-.2.3-.33.2-.14.4-.22.22-.09.45-.12.22-.03.45-.03.24 0 .48.04.24.03.46.13.22.1.4.26.2.16.31.37.12.21.17.45.05.24.05.48v3.64h-.78v-.85q-.09.22-.26.4-.16.18-.37.31-.2.12-.45.17-.24.05-.47.05zm.3-.7q.23 0 .47-.06.25-.07.43-.23t.26-.4q.1-.23.1-.48v-.61h-.9q-.16 0-.3.02-.16 0-.3.05-.14.03-.28.1-.14.06-.25.17-.11.1-.16.26-.05.14-.05.29 0 .19.06.37.07.18.2.3.15.14.34.19.19.04.37.04zm3.42.62v-.7h1.43V4.74h-1.3v-.7h2.08v6.65h1.28v.7zm5 0v-.7h1.42V6.79h-1.29v-.7h2.07v4.6h1.29v.7zm1.74-6.22q-.13 0-.25-.03-.12-.04-.21-.13-.1-.09-.13-.2-.03-.13-.03-.25 0-.13.03-.25.04-.12.13-.21.09-.1.2-.13.13-.04.26-.04t.25.04q.12.04.2.13.1.09.14.2.04.13.04.26 0 .12-.04.24t-.13.21q-.1.1-.21.13-.12.03-.25.03zm3.13 6.22v-.7l2.79-3.89h-2.79v-.7h3.72v.7l-2.79 3.9h2.79v.7zm6.87.08q-.28 0-.55-.05-.26-.05-.5-.18-.24-.14-.42-.34t-.3-.44q-.1-.25-.14-.52-.04-.27-.04-.54v-1.3q0-.27.04-.54t.15-.5q.1-.26.28-.46.2-.2.42-.34.23-.13.5-.18.27-.06.54-.06t.54.06q.27.05.5.18.23.13.41.34.19.2.3.45.1.24.15.51.04.27.04.54v1h-3.1v.3l.02.34q.02.17.08.33.07.16.17.3.11.14.25.24.14.09.31.13.17.04.35.04.2 0 .38-.04.2-.04.36-.14.17-.11.27-.28.1-.18.11-.37h.78q-.01.22-.1.44-.06.22-.2.4-.13.18-.32.32-.18.13-.39.22-.2.08-.44.11-.23.03-.45.03zm-1.18-3.07h2.32v-.3l-.02-.34q-.02-.17-.08-.33t-.17-.3q-.1-.14-.24-.23-.14-.1-.3-.14-.18-.04-.35-.04-.17 0-.34.04t-.3.14q-.15.1-.26.23-.1.14-.16.3-.06.16-.08.33l-.02.34zm5.84 3.07q-.24 0-.5-.07-.23-.07-.43-.22-.2-.15-.34-.36-.13-.2-.21-.43-.08-.24-.11-.5-.03-.24-.03-.5v-1.3q0-.24.03-.49t.1-.48q.09-.24.22-.45.14-.2.34-.36.2-.15.44-.22.25-.07.5-.07.22 0 .44.06.23.06.41.2.2.13.32.33.13.2.21.4V4.04h.78v7.33h-.78v-.9q-.08.2-.2.4-.14.2-.33.33-.18.13-.4.2-.23.05-.46.05zm.3-.7q.17 0 .33-.03.17-.05.3-.15.13-.1.22-.24.1-.14.15-.3.05-.15.07-.31l.02-.34v-1.3q0-.17-.02-.33-.02-.17-.07-.32-.05-.16-.15-.3-.09-.15-.22-.25t-.3-.14q-.16-.04-.33-.04t-.34.04q-.15.04-.3.14-.13.1-.24.23-.1.14-.16.3-.06.16-.08.33l-.02.34v1.3l.02.34q.02.17.08.33t.16.3q.1.14.25.24.14.09.3.13.16.04.33.04zm3.52 2.23-.38-.6q.56-.33 1-.82.44-.49.7-1.06.29-.6.4-1.23.1-.64.1-1.3 0-.64-.1-1.28-.11-.64-.4-1.22-.26-.59-.7-1.07-.44-.5-1-.81l.38-.61q.44.24.8.57.39.32.69.72.3.38.52.83.21.44.34.92.13.48.2.97.05.49.05.99t-.06.99q-.06.49-.19.97t-.34.92q-.22.44-.52.83-.3.4-.68.72-.37.33-.81.57z" aria-label="Engery Consumption (Normalized)" font-family="Iosevka" font-size="9.98" style="line-height:1.25;-inkscape-font-specification:&quot;Iosevka, Normal&quot;" transform="rotate(-90)"/><path id="text159" stroke-width=".39" d="M88.96 380.79q-.41 0-.84-.08-.4-.08-.77-.28-.36-.2-.64-.52-.29-.32-.46-.7-.18-.37-.24-.78-.06-.43-.06-.84v-5.44q0-.4.06-.82.06-.42.24-.8.17-.38.46-.7.28-.31.64-.51.36-.21.77-.29.43-.08.84-.08.4 0 .77.07.4.06.74.23.36.18.65.44.3.27.47.62.2.34.29.72.09.38.09.78v.04h-1.23v-.03q0-.35-.13-.7-.1-.34-.36-.6-.23-.24-.58-.35-.35-.11-.71-.11-.4 0-.77.15t-.6.46q-.24.32-.33.71-.08.38-.08.77v5.44q0 .4.08.79.1.38.33.7.23.3.6.46.38.15.77.15.36 0 .7-.11.36-.11.6-.37.24-.25.35-.6.13-.34.13-.69v-.03h1.23v.05q0 .4-.1.77-.09.38-.28.72-.17.35-.47.62-.29.27-.65.44-.34.17-.74.24-.38.06-.77.06z" aria-label="C" font-family="Iosevka" font-size="15.76" style="line-height:1.25;-inkscape-font-specification:&quot;Iosevka, Normal&quot;"/><path id="text160" stroke-width=".39" d="M126.64 380.6v-11.58h3.03q.42 0 .83.09.43.1.8.33.35.22.62.57.27.33.43.72.17.4.22.82.06.43.06.85 0 .56-.11 1.1-.1.53-.36 1-.27.46-.73.79-.44.33-.96.44l2.46 4.87h-1.3l-2.44-4.8h-1.32v4.8zm1.23-5.9h1.8q.27 0 .53-.07.27-.08.48-.24.22-.17.36-.4.14-.25.22-.5.08-.27.1-.53.04-.27.04-.56 0-.26-.03-.53t-.11-.52q-.08-.27-.22-.5-.14-.24-.36-.4-.2-.17-.48-.25-.26-.08-.53-.08h-1.8zm9.11 6.03q-.4 0-.77-.11-.38-.11-.68-.35-.28-.25-.49-.58-.2-.35-.33-.71-.1-.38-.16-.76-.03-.4-.03-.77v-5.2h1.23v5.2q0 .27.03.53t.11.5q.08.24.22.47.16.22.37.37.2.16.45.24.26.06.52.06.27 0 .52-.06.26-.08.46-.24.2-.15.35-.37.16-.23.23-.46.08-.25.11-.5.04-.27.04-.54v-5.2h1.23v8.35h-1.23v-1.43q-.13.33-.34.63-.2.3-.5.52-.28.22-.65.31-.34.1-.69.1zm8.34 0q-.36 0-.71-.05-.35-.03-.68-.14-.33-.13-.63-.33-.28-.2-.5-.48-.2-.28-.32-.63-.1-.34-.1-.69v-.02h1.22q0 .3.16.57.16.25.4.41.28.14.56.2.3.05.6.05t.58-.04q.3-.07.55-.2.27-.17.43-.43.17-.27.17-.57 0-.27-.16-.5-.14-.24-.37-.38-.22-.16-.5-.23l-.51-.15-.52-.16-.5-.17-.51-.2q-.24-.13-.46-.3-.22-.15-.4-.34-.2-.2-.34-.44-.13-.24-.19-.5-.06-.27-.06-.54 0-.35.1-.68.1-.33.3-.61.18-.3.47-.5.28-.21.6-.34.33-.12.66-.17.34-.05.69-.05.35 0 .68.05.34.05.66.17.33.11.6.32.28.19.47.47.2.28.3.61.11.34.11.67v.01h-1.23q0-.28-.14-.53-.14-.26-.38-.4-.23-.16-.52-.2-.27-.07-.55-.07t-.57.07q-.28.04-.52.2-.23.16-.38.43-.14.25-.14.53 0 .29.14.52.16.24.38.4.24.14.5.22.26.06.51.14l.52.16.52.17q.25.1.49.22.25.11.47.27.22.16.4.36.19.2.31.43.14.23.2.5.09.25.09.54 0 .34-.11.7-.11.34-.32.62-.2.29-.5.5-.3.2-.63.32-.34.11-.7.16-.34.05-.7.05zm9.01 0q-.37 0-.75-.1t-.7-.31q-.3-.22-.52-.54-.2-.33-.33-.68-.12-.36-.17-.74-.05-.38-.05-.75v-4.26h-1.73v-1.1h1.73v-3.23h1.23v3.23h2.56v1.1h-2.56v4.26l.02.45q.01.22.06.44.06.2.16.43.1.2.23.36.16.16.38.25.22.08.44.08.3 0 .57-.14.29-.14.44-.4.16-.26.22-.56.07-.3.07-.6l-.02-.05v-.04h1.23V377.98q0 .35-.06.7-.07.34-.2.68-.15.31-.39.6-.22.26-.52.45-.3.17-.64.24-.35.08-.7.08z" aria-label="Rust" font-family="Iosevka" font-size="15.76" style="line-height:1.25;-inkscape-font-specification:&quot;Iosevka, Normal&quot;"/><path id="text161" stroke-width=".39" d="M194.52 380.79q-.4 0-.83-.08-.41-.08-.78-.28-.36-.2-.64-.52-.29-.32-.46-.7-.17-.37-.24-.78-.06-.43-.06-.84v-5.44q0-.4.06-.82.07-.42.24-.8.17-.38.46-.7.28-.31.64-.51.37-.21.78-.29.42-.08.83-.08.4 0 .77.07.4.06.75.23.36.18.64.44.3.27.47.62.2.34.29.72.1.38.1.78v.04h-1.24v-.03q0-.35-.12-.7-.11-.34-.37-.6-.23-.24-.58-.35-.35-.11-.7-.11-.4 0-.78.15-.36.15-.6.46-.24.32-.33.71-.08.38-.08.77v5.44q0 .4.08.79.1.38.33.7.24.3.6.46.38.15.77.15.36 0 .71-.11t.58-.37q.26-.25.37-.6.12-.34.12-.69v-.03h1.23v.05q0 .4-.1.77-.09.38-.28.72-.17.35-.47.62-.28.27-.64.44-.35.17-.75.24-.37.06-.77.06zm8.32-2.44v-2.5h-3.32v-1.1h3.32v-2.49h1.23v2.5h2.45v1.1h-2.45v2.49zm5.87 0v-2.5h-2.45v-1.1h2.45v-2.49h1.23v2.5h3.32v1.1h-3.32v2.49z" aria-label="C++" font-family="Iosevka" font-size="15.76" style="line-height:1.25;-inkscape-font-specification:&quot;Iosevka, Normal&quot;"/><path id="text162" stroke-width=".39" d="M250.8 380.73q-.38 0-.75-.08-.38-.07-.73-.24-.33-.17-.6-.46-.27-.28-.44-.61-.17-.35-.27-.73-.08-.37-.08-.75v-.03h1.23v.01q0 .35.1.7.1.33.33.58.22.25.55.38.33.12.66.12.27 0 .5-.06.26-.06.46-.22t.35-.36q.14-.22.22-.46.08-.24.11-.49t.03-.5v-7.41h-2.14v-1.1h3.37v8.5q0 .42-.06.83-.06.4-.22.77-.16.38-.43.7-.26.32-.61.53-.35.2-.76.28-.4.1-.82.1zm7.47 0q-.31 0-.63-.07-.31-.04-.6-.19-.26-.15-.48-.39-.2-.24-.35-.52-.13-.28-.19-.6-.05-.31-.05-.63 0-.4.1-.8t.34-.71q.26-.33.59-.55.34-.22.72-.35.4-.13.79-.17.41-.05.82-.05h1.4v-.85q0-.33-.1-.66-.12-.34-.37-.56-.25-.22-.58-.31-.33-.1-.67-.1-.31 0-.63.07-.3.06-.55.23-.25.18-.4.46-.13.28-.13.58h-1.23q0-.36.1-.7.1-.35.3-.65.21-.3.5-.5.3-.23.63-.35.33-.14.69-.2.36-.04.72-.04.38 0 .76.06.38.05.73.2.34.17.63.42.3.25.49.58.18.33.26.71.08.38.08.76v5.75h-1.23v-1.36q-.14.35-.4.65-.26.28-.59.49-.33.19-.71.27-.38.08-.76.08zm.48-1.1q.37 0 .75-.12.4-.1.68-.36.28-.25.41-.61.14-.38.14-.78v-.96h-1.4q-.25 0-.49.03-.24.02-.47.08-.22.05-.44.16-.22.1-.4.27-.17.17-.25.4-.08.23-.08.46 0 .3.1.59.1.28.33.49.22.2.52.28.3.06.6.06zm7.45.97-2.54-8.35h1.3l1.57 5.56.2.7.18.67.19-.68.19-.69 1.58-5.56h1.29l-2.54 8.35zm7.84.13q-.32 0-.63-.07-.32-.04-.6-.19-.27-.15-.5-.39-.2-.24-.34-.52-.13-.28-.19-.6-.05-.31-.05-.63 0-.4.1-.8t.35-.71q.25-.33.58-.55.35-.22.72-.35.4-.13.8-.17.4-.05.81-.05h1.4v-.85q0-.33-.1-.66-.12-.34-.37-.56-.25-.22-.58-.31-.33-.1-.66-.1-.32 0-.63.07-.3.06-.56.23-.25.18-.39.46t-.14.58h-1.23q0-.36.1-.7.1-.35.3-.65.21-.3.5-.5.3-.23.63-.35.33-.14.7-.2.35-.04.72-.04t.75.06q.38.05.73.2.34.17.63.42.3.25.49.58.19.33.27.71.07.38.07.76v5.75h-1.23v-1.36q-.14.35-.4.65-.26.28-.59.49-.33.19-.7.27-.39.08-.76.08zm.47-1.1q.38 0 .76-.12.39-.1.67-.36.29-.25.41-.61.14-.38.14-.78v-.96h-1.4q-.25 0-.49.03-.23.02-.47.08-.22.05-.44.16-.22.1-.4.27-.17.17-.25.4-.08.23-.08.46 0 .3.1.59.1.28.33.49.22.2.52.28.3.06.6.06z" aria-label="Java" font-family="Iosevka" font-size="15.76" style="line-height:1.25;-inkscape-font-specification:&quot;Iosevka, Normal&quot;"/><path id="text163" stroke-width=".39" d="M314.96 380.79q-.39 0-.77-.11-.38-.1-.7-.32-.3-.23-.53-.55-.22-.33-.34-.7-.13-.35-.18-.73-.04-.4-.04-.79v-5.44q0-.4.06-.82.06-.42.23-.8.18-.38.46-.7.29-.31.65-.51.36-.21.77-.29.43-.08.84-.08.39 0 .77.07.4.06.74.23.36.18.64.44.3.27.48.62.19.34.28.72.1.38.1.78v.04h-1.23v-.03q0-.35-.13-.7-.11-.34-.36-.6-.24-.24-.59-.35-.34-.11-.7-.11-.4 0-.78.15-.36.15-.6.46-.23.32-.33.71-.08.38-.08.77v5.44q0 .27.04.54.03.25.12.5.11.24.27.44.16.2.38.35.23.14.49.2.25.07.52.07.25 0 .5-.07.27-.06.47-.2.2-.16.35-.36.16-.22.24-.46.1-.24.12-.49.04-.27.04-.52v-2.13h-1.7v-1.1h2.92v6.3h-1.08v-1.8q-.11.39-.32.76-.19.37-.5.65-.3.27-.71.4-.4.12-.8.12zm8.37 0q-.42 0-.85-.1-.42-.07-.79-.28-.36-.2-.66-.52-.28-.33-.45-.7-.18-.4-.24-.83-.06-.42-.06-.85v-2.05q0-.42.06-.85.06-.42.24-.8.17-.4.45-.71.3-.33.66-.54.37-.2.8-.28.42-.1.84-.1.43 0 .85.1.43.08.8.28.36.2.64.54.3.31.47.7.18.39.24.81.06.43.06.85v2.05q0 .43-.06.85-.06.43-.24.82-.17.38-.47.71-.28.32-.65.52-.36.2-.79.29-.42.09-.85.09zm0-1.1q.27 0 .54-.07.27-.06.49-.2.22-.16.38-.38.17-.22.26-.47.1-.25.13-.52t.03-.54v-2.05q0-.27-.03-.53-.03-.27-.13-.52-.09-.26-.26-.48-.16-.22-.38-.36-.22-.16-.49-.22t-.54-.06q-.26 0-.53.06t-.5.22q-.21.14-.38.36-.16.22-.26.48-.1.25-.12.52-.03.26-.03.53v2.05q0 .27.03.54t.12.52q.1.25.26.47.17.22.39.38.22.14.49.2.27.07.53.07z" aria-label="Go" font-family="Iosevka" font-size="15.76" style="line-height:1.25;-inkscape-font-specification:&quot;Iosevka, Normal&quot;"/><path id="text164" stroke-width=".39" d="M363.93 380.79a3.7 3.7 0 0 1-1.48-.32 2.27 2.27 0 0 1-.6-.45 2.76 2.76 0 0 1-.7-1.34 3.7 3.7 0 0 1-.09-.76v-.03h1.23v.02c0 .23.03.46.1.69.07.22.18.41.33.58.14.17.33.3.55.38a1.85 1.85 0 0 0 1.17.06c.16-.04.32-.11.45-.22a1.62 1.62 0 0 0 .57-.82 4.07 4.07 0 0 0 .14-1v-7.4h-2.14v-1.1h3.37v8.51c0 .27-.02.55-.06.82a3.4 3.4 0 0 1-.22.77c-.1.25-.25.5-.43.71a2.42 2.42 0 0 1-1.37.8c-.27.07-.55.1-.82.1zm9.36 0c-.27 0-.53-.02-.8-.06a3.13 3.13 0 0 1-.75-.22 2.94 2.94 0 0 1-1.15-1.04 3.06 3.06 0 0 1-.38-1.52v-.04h1.23v.03c0 .23.04.46.13.69.08.23.2.43.38.6.17.17.38.29.61.36a2.48 2.48 0 0 0 1.45-.02c.25-.08.46-.2.63-.39.17-.19.3-.4.38-.64.08-.25.13-.5.13-.75 0-.26-.06-.52-.18-.77-.1-.25-.25-.47-.44-.66-.18-.2-.39-.36-.63-.49a9.17 9.17 0 0 0-.7-.38 6.96 6.96 0 0 1-1.39-.82 4.83 4.83 0 0 1-1.06-1.2 3 3 0 0 1-.38-1.52 3.45 3.45 0 0 1 .35-1.53 2.51 2.51 0 0 1 1.8-1.39 4.01 4.01 0 0 1 2.3.22c.23.12.44.27.63.46.18.18.34.38.45.61a3.17 3.17 0 0 1 .36 1.48v.05h-1.22v-.03c0-.23-.04-.46-.11-.68a1.55 1.55 0 0 0-.35-.6 1.34 1.34 0 0 0-.58-.36 1.89 1.89 0 0 0-1.4.02c-.22.08-.42.22-.58.4a2.27 2.27 0 0 0-.44 1.32c0 .28.06.55.16.8.12.25.26.48.44.68.2.19.4.35.63.49l.71.36a9.18 9.18 0 0 1 1.39.82 4 4 0 0 1 1.06 1.2 3 3 0 0 1 .28.74 3.43 3.43 0 0 1-.27 2.35c-.13.24-.29.45-.49.64-.19.2-.4.35-.64.47a4.01 4.01 0 0 1-1.56.32z" aria-label="JavaScript" font-family="Iosevka" font-size="15.76" style="line-height:1.25;-inkscape-font-specification:&quot;Iosevka, Normal&quot;"/><path id="text165" stroke-width=".39" d="M411.03 380.66v-11.58h2.77q.43 0 .86.1.44.07.82.3.37.21.66.56.28.33.45.74.18.4.24.84.06.42.06.85 0 .44-.06.88-.06.43-.24.84-.17.39-.45.74-.29.33-.66.55-.38.22-.82.31-.43.08-.86.08h-1.54v4.8zm1.23-5.9h1.54q.29 0 .56-.05.26-.08.48-.24.24-.16.4-.4.17-.23.27-.48.1-.27.12-.56.03-.28.03-.56 0-.27-.03-.55-.03-.29-.12-.54-.1-.27-.27-.5-.16-.24-.4-.4-.22-.16-.48-.22-.27-.08-.56-.08h-1.54zm6.4 5.9v-11.58h1.23v5.04h3.4v-5.04h1.23v11.58h-1.23v-5.43h-3.4v5.43zm8.13 0v-11.58h2.78q.42 0 .85.1.44.07.82.3.38.21.66.56.28.33.46.74.17.4.23.84.07.42.07.85 0 .44-.07.88-.06.43-.23.84-.18.39-.46.74-.28.33-.66.55-.38.22-.82.31-.43.08-.85.08h-1.55v4.8zm1.23-5.9h1.55q.28 0 .55-.05.27-.08.49-.24.23-.16.4-.4.16-.23.26-.48.1-.27.12-.56.04-.28.04-.56 0-.27-.04-.55-.03-.29-.12-.54-.1-.27-.27-.5-.16-.24-.4-.4-.21-.16-.48-.22-.27-.08-.55-.08h-1.55z" aria-label="PHP" font-family="Iosevka" font-size="15.76" style="line-height:1.25;-inkscape-font-specification:&quot;Iosevka, Normal&quot;"/><path id="text166" stroke-width=".39" d="M467.33 379.05v-11.59h3.02q.43 0 .84.1.42.1.79.33.36.22.63.57.27.33.42.72.18.4.22.82.07.43.07.85 0 .55-.11 1.09-.1.54-.37 1-.26.47-.72.8-.44.33-.96.44l2.46 4.87h-1.31l-2.43-4.8h-1.32v4.8zm1.23-5.9h1.8q.26 0 .53-.08.27-.07.47-.23.22-.18.36-.41.15-.24.23-.5.07-.26.1-.53.04-.26.04-.55 0-.27-.03-.53-.04-.27-.11-.52-.08-.27-.23-.5-.14-.24-.36-.4-.2-.18-.47-.25-.27-.08-.54-.08h-1.8zm9.1 6.02q-.39 0-.77-.1-.37-.12-.67-.35-.29-.26-.5-.59-.2-.34-.32-.7-.11-.38-.16-.76-.03-.4-.03-.77v-5.2h1.23v5.2q0 .26.03.53.03.25.1.5.09.24.23.46.16.22.36.38.2.16.46.24.25.06.52.06t.52-.06q.25-.08.46-.24.2-.16.34-.38.16-.22.24-.45.08-.26.11-.5.03-.28.03-.54v-5.2h1.23v8.35h-1.23v-1.44q-.12.33-.33.63-.2.3-.5.52-.29.22-.65.32-.35.1-.7.1zm8.85 0q-.36 0-.73-.09-.34-.1-.64-.3-.29-.22-.5-.52-.2-.32-.32-.65v1.44h-1.23v-11.59h1.23v4.67q.12-.33.33-.63.2-.32.49-.52.3-.22.64-.32.37-.1.73-.1.4 0 .77.12.4.1.71.35.32.23.52.56.22.33.35.71.12.36.17.76.05.4.05.79v2.05q0 .39-.05.78-.05.4-.17.78-.13.36-.35.69-.2.33-.52.57-.31.23-.7.34-.39.11-.78.11zm-.47-1.1q.26 0 .52-.06.26-.07.48-.2.23-.16.38-.39.18-.22.27-.47.1-.25.13-.52t.03-.53v-2.05q0-.27-.03-.54t-.13-.52q-.1-.25-.27-.47-.15-.22-.38-.36-.22-.16-.48-.23-.26-.06-.52-.06-.27 0-.54.06-.25.07-.46.23-.2.15-.36.39-.14.22-.22.47-.08.24-.11.5t-.03.53v2.05q0 .26.03.53.03.25.11.5.08.24.22.48.16.22.36.38.2.15.46.22.27.06.54.06zm6.3 4.2.28-.95.29-.95.36-1.24-2.5-8.44h1.27l1.88 6.55 1.84-6.55h1.28l-3.42 11.59z" aria-label="Ruby" font-family="Iosevka" font-size="15.76" style="line-height:1.25;-inkscape-font-specification:&quot;Iosevka, Normal&quot;"/><path id="text167" stroke-width=".39" d="M531.7 379.05v-11.59h2.78q.43 0 .85.1.45.08.82.3.38.22.67.56.28.34.45.75.18.39.24.83.06.43.06.85 0 .44-.06.88-.06.43-.24.84-.17.4-.45.74-.29.33-.67.55-.37.22-.82.32-.42.08-.85.08h-1.54v4.79zm1.24-5.9h1.54q.29 0 .55-.06.27-.08.5-.24.23-.15.39-.39.17-.24.27-.49.09-.27.12-.55t.03-.57q0-.27-.03-.55t-.12-.54q-.1-.26-.27-.5-.16-.24-.4-.4-.22-.15-.49-.21-.26-.08-.55-.08h-1.54zm7.77 9.13.28-.96.29-.95.36-1.24-2.5-8.44h1.27l1.88 6.55 1.84-6.55h1.28l-3.42 11.59zm10.56-3.1q-.38 0-.76-.1t-.7-.32q-.29-.22-.51-.53-.2-.33-.33-.68-.13-.36-.18-.74-.04-.38-.04-.76v-4.25H547v-1.1h1.74v-3.24h1.23v3.23h2.55v1.1h-2.55v4.26l.01.46q.02.22.07.44l.15.43q.1.2.24.36.16.16.38.25.22.08.44.08.3 0 .57-.14.28-.14.44-.4.16-.26.22-.56.06-.3.06-.6l-.01-.05v-.05h1.23v.16q0 .35-.07.7-.06.34-.2.67-.14.32-.38.6-.22.27-.52.46-.3.17-.65.24-.34.07-.7.07zm3.83-.13v-11.59h1.23v4.67q.12-.33.33-.63.2-.3.49-.52.3-.22.64-.32.37-.1.71-.1.4 0 .78.12.37.1.66.36.3.24.5.58.2.34.32.71.12.37.16.76.04.38.04.76v5.2h-1.23v-5.2q0-.27-.03-.52-.03-.27-.1-.5-.09-.26-.24-.48-.15-.22-.35-.38-.2-.16-.46-.22-.25-.08-.52-.08t-.52.08q-.25.06-.46.22-.2.16-.36.38-.14.22-.22.47-.08.24-.11.5t-.03.53v5.2zm10.81.12q-.42 0-.85-.09-.42-.08-.79-.28-.36-.2-.66-.52-.28-.34-.46-.71-.17-.4-.23-.82-.07-.43-.07-.85v-2.05q0-.43.07-.85.06-.43.23-.8.18-.4.46-.72.3-.33.66-.53.37-.2.8-.29.42-.1.84-.1.43 0 .85.1.43.08.8.29.35.2.64.53.3.32.47.71.17.38.24.8.06.43.06.86v2.05q0 .42-.06.85-.07.42-.24.82-.17.37-.47.7-.29.32-.65.53-.36.2-.79.28-.42.1-.85.1zm0-1.1q.27 0 .54-.06.27-.07.49-.2.22-.16.37-.39.18-.22.27-.47.1-.25.13-.52t.03-.53v-2.05q0-.27-.03-.54t-.13-.52q-.1-.25-.27-.47-.15-.22-.37-.36-.22-.16-.5-.23-.26-.06-.53-.06t-.53.06q-.27.07-.5.23-.21.14-.39.36-.15.22-.25.47-.1.25-.12.52-.04.27-.04.54v2.05q0 .26.04.53.03.27.12.52.1.25.25.47.18.23.4.38.22.14.49.2.26.07.53.07zm4.95.98v-8.36h1.23v1.44q.13-.33.33-.63t.49-.52q.3-.22.65-.32.36-.1.7-.1.4 0 .78.12.38.1.66.36.3.24.5.58.2.34.32.71.13.37.16.76.04.38.04.76v5.2h-1.22v-5.2q0-.27-.04-.52-.03-.27-.1-.5-.09-.26-.24-.48-.14-.22-.35-.38-.2-.16-.46-.22-.25-.08-.52-.08t-.52.08q-.25.06-.45.22t-.37.38q-.14.22-.22.47-.08.24-.1.5-.04.26-.04.53v5.2z" aria-label="Python" font-family="Iosevka" font-size="15.76" style="line-height:1.25;-inkscape-font-specification:&quot;Iosevka, Normal&quot;"/><path id="path175" stroke-width=".75" d="m24.41 73.1 2.93-9.3h-4.08v-.99h5.21v.98l-1.26 4-1.68 5.31zm8.46.11q-.38 0-.76-.08-.38-.07-.7-.25-.32-.18-.59-.46-.25-.3-.4-.63-.16-.35-.21-.73-.06-.38-.06-.76v-4.69q0-.38.06-.75.05-.38.2-.72.16-.35.41-.63.27-.3.59-.47.32-.19.7-.26.38-.08.76-.08.37 0 .75.08.38.07.7.26.32.18.58.47.26.28.42.63.15.34.2.72.06.37.06.75v4.7q0 .37-.05.75-.06.38-.21.73-.16.33-.42.63-.26.28-.58.46-.32.18-.7.25-.38.08-.75.08zm-1.63-4.56 3.25-2.59v-.45q0-.24-.03-.47-.03-.24-.11-.47-.08-.22-.24-.42-.14-.2-.33-.32-.2-.14-.44-.2-.24-.05-.47-.05-.24 0-.48.06-.24.05-.43.2-.2.12-.35.31-.14.2-.23.42-.08.23-.11.47-.03.23-.03.47zm1.63 3.58q.23 0 .47-.05.24-.06.44-.18.2-.14.33-.34.16-.2.24-.42.08-.22.11-.46.03-.24.03-.48v-3.04l-3.25 2.6v.44q0 .24.03.48t.11.46q.09.22.23.42.15.2.35.34.2.12.43.18.24.05.48.05z" font-family="Iosevka" font-size="14" style="line-height:2.95;-inkscape-font-specification:&quot;Iosevka, Normal&quot;;text-align:end" text-anchor="end"/><path id="path176" stroke-width=".75" d="M25.87 114.51q-.42 0-.83-.1-.4-.12-.74-.37-.32-.25-.56-.6-.23-.37-.37-.76-.12-.4-.18-.81-.04-.42-.04-.84 0-.6.13-1.2.12-.58.33-1.14.23-.57.5-1.1.26-.55.54-1.08l1.19-2.4h1.2l-1.43 2.83q-.16.34-.35.67l-.37.67-.02.03-.01.03q.25-.11.5-.15.27-.05.53-.05.4 0 .79.1.39.09.71.31.32.22.56.55.25.32.4.68.13.37.18.76.05.39.05.78 0 .4-.05.8-.06.4-.2.77-.14.36-.4.69-.23.32-.57.54-.32.21-.71.3-.4.1-.78.1zm0-.98q.25 0 .5-.07.25-.08.45-.25.2-.17.33-.39.14-.22.21-.46.07-.25.1-.5.03-.27.03-.54 0-.25-.03-.5-.03-.27-.1-.5-.07-.26-.2-.48-.13-.23-.33-.4-.2-.16-.45-.23-.25-.09-.51-.09t-.5.09q-.26.07-.46.24-.2.15-.33.39-.13.22-.21.47-.07.24-.1.5t-.03.51q0 .27.03.53t.1.5q.07.25.2.47.13.22.33.4.21.16.46.24.25.07.5.07zm7 .98q-.38 0-.76-.08-.38-.07-.7-.25-.32-.18-.59-.46-.25-.3-.4-.63-.16-.35-.21-.73-.06-.38-.06-.76v-4.69q0-.38.06-.75.05-.38.2-.72.16-.35.41-.63.27-.3.59-.47.32-.19.7-.26.38-.08.76-.08.37 0 .75.08.38.07.7.26.32.18.58.47.26.28.42.63.15.34.2.72.06.37.06.75v4.7q0 .37-.05.75-.06.38-.21.73-.16.33-.42.63-.26.28-.58.46-.32.18-.7.25-.38.08-.75.08zm-1.63-4.56 3.25-2.59v-.45q0-.24-.03-.47-.03-.24-.11-.47-.08-.22-.24-.42-.14-.2-.33-.32-.2-.14-.44-.2-.24-.05-.47-.05-.24 0-.48.06-.24.05-.43.2-.2.12-.35.31-.14.2-.23.42-.08.23-.11.47-.03.23-.03.47zm1.63 3.58q.23 0 .47-.05.24-.06.44-.18.2-.14.33-.34.16-.2.24-.42.08-.22.11-.46.03-.24.03-.48v-3.04l-3.25 2.6v.44q0 .24.03.48t.11.46q.09.22.23.42.15.2.35.34.2.12.43.18.24.05.48.05z" font-family="Iosevka" font-size="14" style="line-height:2.95;-inkscape-font-specification:&quot;Iosevka, Normal&quot;;text-align:end" text-anchor="end"/><path id="path177" stroke-width=".75" d="M25.9 155.81q-.34 0-.68-.07-.33-.05-.63-.2-.3-.16-.54-.4-.24-.24-.41-.53-.17-.3-.27-.62-.08-.32-.12-.65v-.07h1.09l.01.15q.06.28.17.55.11.26.31.47.21.2.49.3.28.1.57.1.27 0 .52-.1.27-.1.46-.3.2-.2.31-.43.13-.25.2-.52t.08-.53q.03-.28.03-.55 0-.28-.03-.54-.01-.27-.08-.54-.07-.26-.18-.5-.12-.25-.31-.45-.18-.2-.44-.3-.25-.09-.53-.09t-.56.1q-.28.08-.49.3-.2.19-.3.47-.1.28-.12.57h-1.09v-6.02h4.84v.98h-3.75v3q.32-.21.7-.3.4-.08.77-.08.4 0 .8.11.4.1.73.35.33.25.56.6.22.34.35.73.12.38.17.8.05.4.05.81 0 .4-.05.83-.05.4-.19.8-.12.37-.36.72-.22.35-.56.6-.32.24-.73.34-.39.11-.8.11zm6.97 0q-.38 0-.76-.08-.38-.07-.7-.25-.32-.18-.59-.46-.25-.3-.4-.63-.16-.35-.21-.73-.06-.38-.06-.76v-4.69q0-.38.06-.75.05-.38.2-.72.16-.35.41-.63.27-.3.59-.47.32-.19.7-.26.38-.08.76-.08.37 0 .75.08.38.07.7.26.32.18.58.47.26.28.42.63.15.34.2.72.06.37.06.75v4.7q0 .37-.05.75-.06.38-.21.73-.16.33-.42.63-.26.28-.58.46-.32.18-.7.25-.38.08-.75.08zm-1.63-4.56 3.25-2.59v-.45q0-.24-.03-.47-.03-.24-.11-.47-.08-.22-.24-.42-.14-.2-.33-.32-.2-.14-.44-.2-.24-.05-.47-.05-.24 0-.48.06-.24.05-.43.2-.2.12-.35.31-.14.2-.23.42-.08.23-.11.47-.03.23-.03.47zm1.63 3.58q.23 0 .47-.05.24-.06.44-.18.2-.14.33-.34.16-.2.24-.42.08-.22.11-.46.03-.24.03-.48v-3.04l-3.25 2.6v.44q0 .24.03.48t.11.46q.09.22.23.42.15.2.35.34.2.12.43.18.24.05.48.05z" font-family="Iosevka" font-size="14" style="line-height:2.95;-inkscape-font-specification:&quot;Iosevka, Normal&quot;;text-align:end" text-anchor="end"/><path id="path178" stroke-width=".75" d="M26.48 197v-2.71h-3.33v-.98l3.28-6.6h1.19l-3.28 6.6h2.14v-2.52h1.1v2.52h.89v.98h-.9V197zm6.39.11q-.38 0-.76-.08-.38-.07-.7-.25-.32-.18-.59-.46-.25-.3-.4-.63-.16-.35-.21-.73-.06-.38-.06-.76v-4.69q0-.38.06-.75.05-.38.2-.72.16-.35.41-.63.27-.3.59-.47.32-.19.7-.26.38-.08.76-.08.37 0 .75.08.38.07.7.26.32.18.58.47.26.28.42.63.15.34.2.72.06.37.06.75v4.7q0 .37-.05.75-.06.38-.21.73-.16.33-.42.63-.26.28-.58.46-.32.18-.7.25-.38.08-.75.08zm-1.63-4.56 3.25-2.59v-.45q0-.24-.03-.47-.03-.24-.11-.47-.08-.22-.24-.42-.14-.2-.33-.32-.2-.14-.44-.2-.24-.05-.47-.05-.24 0-.48.06-.24.05-.43.2-.2.12-.35.31-.14.2-.23.42-.08.23-.11.47-.03.23-.03.47zm1.63 3.58q.23 0 .47-.05.24-.06.44-.18.2-.14.33-.34.16-.2.24-.42.08-.22.11-.46.03-.24.03-.48v-3.04l-3.25 2.6v.44q0 .24.03.48t.11.46q.09.22.23.42.15.2.35.34.2.12.43.18.24.05.48.05z" font-family="Iosevka" font-size="14" style="line-height:2.95;-inkscape-font-specification:&quot;Iosevka, Normal&quot;;text-align:end" text-anchor="end"/><path id="path179" stroke-width=".75" d="M25.9 238.41q-.36 0-.72-.05-.35-.06-.67-.21-.32-.16-.59-.4-.27-.23-.45-.54-.18-.32-.26-.67-.09-.35-.09-.7v-.03h1.1v.01q0 .34.1.66.13.31.37.53.24.23.56.33.32.1.66.1.35 0 .68-.12.34-.12.56-.39.24-.27.35-.6.12-.35.12-.7 0-.32-.12-.65-.1-.32-.29-.58-.2-.28-.48-.48-.26-.2-.58-.3-.31-.1-.65-.12-.33-.03-.66-.03v-.98l.6-.01q.31-.03.6-.11.3-.1.55-.28.26-.19.44-.42.18-.26.26-.55.1-.3.1-.62 0-.3-.1-.6-.08-.3-.28-.54-.2-.26-.5-.37-.3-.11-.6-.11-.31 0-.6.1-.28.1-.5.32-.19.22-.29.52-.08.3-.08.6v.03h-1.1v-.06q0-.33.08-.66t.23-.63q.16-.3.4-.54.25-.24.54-.4.31-.15.65-.2.33-.06.67-.06.33 0 .67.07.35.06.64.22.31.16.55.41.25.25.4.56.15.3.22.64.08.34.08.69 0 .4-.11.8-.11.38-.34.71-.22.34-.54.59-.33.24-.7.38.42.15.78.42.36.25.62.61.26.35.39.79.12.42.12.87 0 .36-.08.72-.08.37-.25.7-.17.33-.44.6-.26.26-.58.43-.33.16-.7.23-.37.07-.73.07zm6.97 0q-.38 0-.76-.08-.38-.07-.7-.25-.32-.18-.59-.46-.25-.3-.4-.63-.16-.35-.21-.73-.06-.38-.06-.76v-4.69q0-.38.06-.75.05-.38.2-.72.16-.35.41-.63.27-.3.59-.47.32-.19.7-.26.38-.08.76-.08.37 0 .75.08.38.07.7.26.32.18.58.47.26.28.42.63.15.34.2.72.06.37.06.75v4.7q0 .37-.05.75-.06.38-.21.73-.16.33-.42.63-.26.28-.58.46-.32.18-.7.25-.38.08-.75.08zm-1.63-4.56 3.25-2.59v-.45q0-.24-.03-.47-.03-.24-.11-.47-.08-.22-.24-.42-.14-.2-.33-.32-.2-.14-.44-.2-.24-.05-.47-.05-.24 0-.48.06-.24.05-.43.2-.2.12-.35.31-.14.2-.23.42-.08.23-.11.47-.03.23-.03.47zm1.63 3.58q.23 0 .47-.05.24-.06.44-.18.2-.14.33-.34.16-.2.24-.42.08-.22.11-.46.03-.24.03-.48v-3.04l-3.25 2.6v.44q0 .24.03.48t.11.46q.09.22.23.42.15.2.35.34.2.12.43.18.24.05.48.05z" font-family="Iosevka" font-size="14" style="line-height:2.95;-inkscape-font-specification:&quot;Iosevka, Normal&quot;;text-align:end" text-anchor="end"/><path id="path180" stroke-width=".75" d="M23.26 279.6v-.01l.02-.76q.01-.38.07-.75.07-.38.18-.75.12-.36.3-.68.17-.34.4-.65.24-.3.5-.57.28-.27.58-.49.29-.24.6-.46l.6-.46q.3-.26.5-.56.21-.33.31-.69.11-.38.11-.76 0-.33-.08-.67-.07-.35-.28-.61-.2-.28-.53-.41-.32-.14-.66-.14-.3 0-.62.1-.3.1-.53.32-.2.22-.3.53-.1.3-.1.62v.01h-1.1v-.04q0-.34.07-.67.09-.35.26-.65.16-.3.42-.54.25-.24.56-.4.3-.15.64-.2.35-.06.7-.06.36 0 .73.07.36.07.68.25.33.18.56.46.26.27.41.6.15.34.21.7.06.37.06.73 0 .41-.1.82-.09.39-.28.75-.18.35-.46.66-.27.3-.58.57-.3.26-.63.5-.32.25-.63.53-.3.26-.56.57-.25.3-.45.67-.2.35-.3.74-.12.4-.16.8h4.09v.98zm9.6.11q-.37 0-.75-.08-.38-.07-.7-.25-.32-.18-.59-.46-.25-.3-.4-.63-.16-.35-.21-.73-.06-.38-.06-.76v-4.69q0-.38.06-.75.05-.38.2-.72.16-.35.41-.63.27-.3.59-.47.32-.19.7-.26.38-.08.76-.08.37 0 .75.08.38.07.7.26.32.18.58.47.26.28.42.63.15.34.2.72.06.37.06.75v4.7q0 .37-.05.75-.06.38-.21.73-.16.33-.42.63-.26.28-.58.46-.32.18-.7.25-.38.08-.75.08zm-1.62-4.56 3.25-2.59v-.45q0-.24-.03-.47-.03-.24-.11-.47-.08-.22-.24-.42-.14-.2-.33-.32-.2-.14-.44-.2-.24-.05-.47-.05-.24 0-.48.06-.24.05-.43.2-.2.12-.35.31-.14.2-.23.42-.08.23-.11.47-.03.23-.03.47zm1.63 3.58q.23 0 .47-.05.24-.06.44-.18.2-.14.33-.34.16-.2.24-.42.08-.22.11-.46.03-.24.03-.48v-3.04l-3.25 2.6v.44q0 .24.03.48t.11.46q.09.22.23.42.15.2.35.34.2.12.43.18.24.05.48.05z" font-family="Iosevka" font-size="14" style="line-height:2.95;-inkscape-font-specification:&quot;Iosevka, Normal&quot;;text-align:end" text-anchor="end"/><path id="path181" stroke-width=".75" d="M25.74 320.9v-9.04l-1.93 1.4-.63-.8 2.56-1.85h1.1v10.3zm7.13.11q-.38 0-.76-.08-.38-.07-.7-.25-.32-.18-.59-.46-.25-.3-.4-.63-.16-.35-.21-.73-.06-.38-.06-.76v-4.69q0-.38.06-.75.05-.38.2-.72.16-.35.41-.63.27-.3.59-.47.32-.19.7-.26.38-.08.76-.08.37 0 .75.08.38.07.7.26.32.18.58.47.26.28.42.63.15.34.2.72.06.37.06.75v4.7q0 .37-.05.75-.06.38-.21.73-.16.33-.42.63-.26.28-.58.46-.32.18-.7.25-.38.08-.75.08zm-1.63-4.56 3.25-2.59v-.45q0-.24-.03-.47-.03-.24-.11-.47-.08-.22-.24-.42-.14-.2-.33-.32-.2-.14-.44-.2-.24-.05-.47-.05-.24 0-.48.06-.24.05-.43.2-.2.12-.35.31-.14.2-.23.42-.08.23-.11.47-.03.23-.03.47zm1.63 3.58q.23 0 .47-.05.24-.06.44-.18.2-.14.33-.34.16-.2.24-.42.08-.22.11-.46.03-.24.03-.48v-3.04l-3.25 2.6v.44q0 .24.03.48t.11.46q.09.22.23.42.15.2.35.34.2.12.43.18.24.05.48.05z" font-family="Iosevka" font-size="14" style="line-height:2.95;-inkscape-font-specification:&quot;Iosevka, Normal&quot;;text-align:end" text-anchor="end"/><path id="path182" stroke-width=".75" d="M32.87 362.31q-.38 0-.76-.08-.38-.07-.7-.25-.32-.18-.59-.46-.25-.3-.4-.63-.16-.35-.21-.73-.06-.38-.06-.76v-4.69q0-.38.06-.75.05-.38.2-.72.16-.35.41-.63.27-.3.59-.47.32-.19.7-.26.38-.08.76-.08.37 0 .75.08.38.07.7.26.32.18.58.47.26.28.42.63.15.34.2.72.06.37.06.75v4.7q0 .37-.05.75-.06.38-.21.73-.16.33-.42.63-.26.28-.58.46-.32.18-.7.25-.38.08-.75.08zm-1.63-4.56 3.25-2.59v-.45q0-.24-.03-.47-.03-.24-.11-.47-.08-.22-.24-.42-.14-.2-.33-.32-.2-.14-.44-.2-.24-.05-.47-.05-.24 0-.48.06-.24.05-.43.2-.2.12-.35.31-.14.2-.23.42-.08.23-.11.47-.03.23-.03.47zm1.63 3.58q.23 0 .47-.05.24-.06.44-.18.2-.14.33-.34.16-.2.24-.42.08-.22.11-.46.03-.24.03-.48v-3.04l-3.25 2.6v.44q0 .24.03.48t.11.46q.09.22.23.42.15.2.35.34.2.12.43.18.24.05.48.05z" font-family="Iosevka" font-size="14" style="line-height:2.95;-inkscape-font-specification:&quot;Iosevka, Normal&quot;;text-align:end" text-anchor="end"/></svg>