<svg xmlns="http://www.w3.org/2000/svg" width="3779.528" height="1898.814" viewBox="0 0 1000 502.394"><defs><marker id="b" markerHeight="1" markerWidth="1" orient="auto-start-reverse" preserveAspectRatio="xMidYMid" refX="0" refY="0" style="overflow:visible" viewBox="0 0 1 1"><path d="m1 0-3 3h-2l3-3-3-3h2z" style="fill:context-stroke;fill-rule:evenodd;stroke:none"/></marker><marker id="a" markerHeight="1" markerWidth="1" orient="auto-start-reverse" preserveAspectRatio="xMidYMid" refX="0" refY="0" style="overflow:visible" viewBox="0 0 1 1"><path d="m1 0-3 3h-2l3-3-3-3h2z" style="fill:context-stroke;fill-rule:evenodd;stroke:none"/></marker></defs><path d="M168.217 574.059V254.864" style="fill:none;stroke:#000;stroke-width:1.96771;stroke-linecap:butt;stroke-linejoin:miter;stroke-dasharray:none;stroke-opacity:1;marker-end:url(#a)" transform="translate(5.606 -157.032)"/><path d="M167.106 573.403h745.899" style="fill:none;stroke:#000;stroke-width:1.99847;stroke-linecap:butt;stroke-linejoin:miter;stroke-dasharray:none;stroke-opacity:1;marker-end:url(#b)" transform="translate(5.606 -157.032)"/><path d="M254.619 223.087v-18.67h4.292q.66 0 1.296.128.66.101 1.244.406.585.28 1.042.762.482.457.787 1.067.305.584.407 1.244.127.635.127 1.296 0 .61-.127 1.244-.102.61-.407 1.143-.305.534-.762.966t-1.016.685q.66.254 1.245.686.61.432.99 1.042.407.61.56 1.32.177.712.177 1.448 0 .711-.152 1.448-.127.711-.483 1.346t-.914 1.118q-.534.482-1.194.787t-1.397.432q-.711.102-1.423.102zm4.292-10.567q.61 0 1.194-.203.61-.203 1.016-.66.407-.483.559-1.067.152-.61.152-1.245 0-.61-.152-1.194-.152-.61-.559-1.066-.406-.483-1.016-.686-.584-.203-1.194-.203H256.6v6.324zm0 8.789q.483 0 .94-.077.483-.076.89-.279.431-.203.787-.533.355-.356.584-.762.228-.432.305-.89.076-.482.076-.965 0-.457-.076-.94-.077-.482-.305-.888-.229-.432-.584-.762-.33-.33-.762-.534-.432-.228-.915-.305-.457-.076-.94-.076H256.6v7.01zm12.37 1.98q-.635 0-1.244-.177-.61-.178-1.093-.559-.457-.406-.787-.94-.33-.558-.533-1.143-.178-.61-.254-1.219-.051-.635-.051-1.244v-8.382h1.981v8.382q0 .431.05.863.052.407.179.813.127.381.355.737.254.355.584.61.33.253.737.38.406.102.838.102t.838-.102q.407-.127.737-.38.33-.255.559-.61.254-.356.38-.737.128-.406.179-.813.05-.432.05-.863v-8.382h1.982v13.462h-1.982v-2.312q-.203.534-.533 1.016-.33.483-.813.838-.457.356-1.041.508-.56.153-1.118.153m13.386 5.208q-.584 0-1.169-.102-.558-.076-1.092-.305-.533-.203-.99-.584-.458-.355-.788-.838-.305-.483-.482-1.041-.153-.56-.178-1.143h1.981q.025.508.229.94.228.457.61.761.406.305.888.407.483.127.99.127.433 0 .84-.102.43-.101.761-.355.356-.254.584-.61.254-.356.381-.762.153-.406.203-.838.051-.407.051-.838v-2.439q-.203.534-.533 1.042-.33.482-.813.838-.457.33-1.041.482-.56.153-1.143.153-.635 0-1.27-.178-.61-.178-1.118-.559-.508-.38-.864-.914-.33-.534-.533-1.118-.203-.61-.28-1.244-.076-.635-.076-1.27v-3.302q0-.635.077-1.27.076-.635.28-1.22.202-.61.532-1.143.356-.533.864-.914t1.118-.559q.635-.178 1.27-.178.584 0 1.143.153.584.152 1.041.508.483.33.813.838.33.483.533 1.016v-2.311h1.981v13.589q0 .685-.101 1.346-.102.686-.381 1.295-.254.635-.711 1.143-.432.534-1.016.864-.585.355-1.27.482-.66.153-1.321.153m.05-6.985q.432 0 .839-.102.432-.101.762-.355t.559-.61q.254-.381.38-.762.128-.406.178-.813.051-.432.051-.863v-3.302q0-.432-.05-.839-.051-.431-.178-.812-.127-.407-.381-.762-.229-.381-.56-.635-.33-.254-.761-.356-.407-.102-.838-.102-.432 0-.864.102-.406.102-.762.356-.356.228-.635.584-.254.355-.406.762-.153.406-.204.838t-.05.864v3.302q0 .431.05.863t.204.838q.152.407.406.762.28.356.635.61.356.229.762.33.432.102.864.102m12.7 1.778q-.584 0-1.142-.076-.56-.051-1.093-.229-.533-.203-1.016-.533-.457-.33-.812-.762-.33-.458-.508-1.016-.178-.56-.178-1.118v-.025h1.981q0 .482.254.914.254.406.66.66.432.229.89.33.482.077.965.077.482 0 .94-.076.482-.102.888-.33.432-.255.686-.686.28-.432.28-.915 0-.432-.254-.813-.229-.38-.61-.61-.356-.253-.787-.355-.407-.127-.839-.254-.406-.127-.838-.254-.406-.127-.813-.28-.406-.152-.812-.33-.381-.203-.737-.457t-.66-.558q-.305-.33-.534-.712-.203-.38-.305-.812t-.101-.864q0-.559.152-1.092.178-.534.483-.99.305-.483.762-.814t.965-.533q.533-.203 1.067-.28.559-.076 1.117-.076.56 0 1.093.077.558.076 1.066.279.534.178.966.508.457.305.762.762.33.457.482.99.178.534.178 1.067v.026h-1.981q0-.457-.229-.864-.228-.406-.61-.635-.38-.254-.838-.33-.431-.102-.889-.102-.457 0-.914.102-.457.076-.838.33t-.61.686q-.228.406-.228.864t.228.838q.254.38.61.635.38.228.787.355.432.102.838.229.432.127.839.254.431.127.838.28.406.152.787.355.407.178.762.432t.635.584q.305.305.508.686.229.38.33.813.127.406.127.863 0 .559-.177 1.118-.178.559-.508 1.016t-.813.787-1.016.534q-.534.177-1.118.254-.559.076-1.117.076m24.639 0q-.635 0-1.27-.178-.61-.178-1.118-.559-.508-.38-.864-.914-.33-.534-.533-1.118-.203-.61-.28-1.244-.076-.635-.076-1.27v-3.302q0-.635.077-1.27.076-.635.279-1.22.203-.61.533-1.143.356-.533.864-.914t1.118-.559q.635-.178 1.27-.178.584 0 1.143.153.584.152 1.04.508.484.33.814.838.33.483.533 1.016v-7.518h1.981v18.669h-1.98v-2.312q-.204.534-.534 1.042-.33.482-.813.838-.457.33-1.041.482-.56.153-1.143.153m.762-1.778q.431 0 .838-.102.432-.127.762-.38.33-.255.559-.61.254-.356.38-.737.128-.406.178-.813.051-.432.051-.863v-3.302q0-.432-.05-.839-.051-.431-.178-.812-.127-.407-.381-.762-.23-.381-.56-.635t-.761-.356q-.407-.102-.838-.102-.432 0-.864.102-.406.102-.762.356-.356.228-.635.584-.254.355-.406.762-.153.406-.204.838t-.05.864v3.302q0 .431.05.863t.204.838q.152.407.406.762.28.356.635.61.356.229.762.33.432.102.864.102m12.776 1.778q-.712 0-1.397-.127-.66-.127-1.27-.457-.61-.356-1.067-.864-.457-.533-.762-1.143-.28-.635-.381-1.32-.102-.687-.102-1.372v-3.302q0-.686.102-1.372t.38-1.295q.28-.635.737-1.143.483-.534 1.067-.864t1.27-.457q.686-.153 1.372-.153t1.371.153q.686.127 1.27.457.585.33 1.042.864.482.508.762 1.143.28.61.38 1.295.102.686.102 1.372v2.54h-7.874v.762q0 .431.051.863t.203.838q.178.407.432.762.28.356.635.61.356.229.788.33.431.102.889.102.482 0 .965-.102.508-.101.914-.355.432-.28.686-.712.254-.457.28-.94h1.98q-.025.56-.228 1.118-.178.559-.533 1.042-.33.457-.813.812-.457.33-.99.56-.534.202-1.118.279-.585.076-1.143.076m-2.998-7.823h5.893v-.762q0-.432-.05-.864t-.204-.838-.432-.762q-.254-.356-.61-.584-.355-.254-.787-.356-.431-.102-.863-.102t-.864.102q-.432.102-.787.356-.356.228-.635.584-.254.355-.407.762-.152.406-.203.838-.05.432-.05.864zm17.45 7.823q-.61 0-1.219-.153-.61-.152-1.118-.508-.482-.355-.838-.863-.33-.534-.533-1.092-.203-.585-.28-1.194-.076-.61-.076-1.22v-6.857h-2.794v-1.778h2.794v-5.207h1.981v5.207h4.115v1.778h-4.115v6.858q0 .355.026.736.025.356.101.711.102.33.254.686.153.33.381.584.254.254.61.407.356.127.711.127.483 0 .915-.229.457-.228.71-.635.255-.432.356-.914.102-.483.102-.965 0-.026-.025-.077v-.076h1.98v.254q0 .559-.1 1.118-.102.559-.33 1.092-.23.508-.61.965-.356.432-.839.737-.482.28-1.041.38-.559.128-1.118.128m10.948 0q-.712 0-1.397-.127-.66-.127-1.27-.457-.61-.356-1.067-.864-.457-.533-.762-1.143-.28-.635-.381-1.32-.102-.687-.102-1.372v-3.302q0-.686.102-1.372t.38-1.295q.28-.635.737-1.143.483-.534 1.067-.864t1.27-.457q.686-.153 1.372-.153t1.371.153q.686.127 1.27.457.585.33 1.042.864.482.508.762 1.143.28.61.38 1.295.102.686.102 1.372v2.54h-7.874v.762q0 .431.051.863t.203.838q.178.407.432.762.28.356.635.61.356.229.788.33.431.102.889.102.482 0 .965-.102.508-.101.914-.355.432-.28.686-.712.254-.457.28-.94h1.98q-.025.56-.228 1.118-.178.559-.533 1.042-.33.457-.813.812-.457.33-.99.56-.534.202-1.118.279-.585.076-1.143.076m-2.998-7.823h5.893v-.762q0-.432-.05-.864t-.204-.838-.432-.762q-.254-.356-.61-.584-.355-.254-.787-.356-.431-.102-.863-.102t-.864.102q-.432.102-.787.356-.356.228-.635.584-.254.355-.407.762-.152.406-.203.838-.05.432-.05.864zm15.57 7.823q-.66 0-1.346-.153-.685-.127-1.27-.457-.584-.355-1.041-.863-.432-.534-.711-1.143-.28-.635-.381-1.296-.102-.686-.102-1.371v-3.302q0-.686.102-1.347.101-.685.38-1.295.28-.635.712-1.143.457-.533 1.041-.864.585-.355 1.27-.482.686-.153 1.347-.153.635 0 1.27.127.635.102 1.193.381.585.28 1.042.737.457.432.762.99.305.56.432 1.194.152.61.152 1.245v.051h-1.981v-.026q0-.584-.178-1.143-.178-.558-.584-.965-.407-.432-.965-.61-.56-.203-1.143-.203-.432 0-.864.102-.406.102-.762.356t-.61.61q-.228.355-.38.761-.153.381-.204.813t-.05.864v3.302q0 .431.05.863t.203.838q.153.381.381.737.254.356.61.61t.762.355q.432.102.864.102.584 0 1.143-.178.558-.203.965-.61.406-.431.584-.99t.178-1.143v-.026h1.98v.051q0 .635-.151 1.27-.127.61-.432 1.169-.305.558-.762 1.016-.457.431-1.042.71-.558.28-1.193.382-.635.127-1.27.127m14.58 0q-.61 0-1.22-.153-.609-.152-1.117-.508-.482-.355-.838-.863-.33-.534-.533-1.092-.203-.585-.28-1.194-.076-.61-.076-1.22v-6.857h-2.794v-1.778h2.794v-5.207h1.981v5.207h4.115v1.778h-4.115v6.858q0 .355.026.736.025.356.101.711.102.33.254.686.153.33.381.584.254.254.61.407.356.127.711.127.483 0 .915-.229.457-.228.71-.635.255-.432.356-.914.102-.483.102-.965 0-.026-.025-.077v-.076h1.98v.254q0 .559-.1 1.118-.102.559-.331 1.092-.229.508-.61.965-.355.432-.838.737-.482.28-1.041.38-.56.128-1.118.128m10.947 0q-.71 0-1.397-.127-.66-.127-1.27-.457-.61-.356-1.066-.864-.458-.533-.762-1.143-.28-.635-.381-1.32-.102-.687-.102-1.372v-3.302q0-.686.102-1.372t.38-1.295q.28-.635.737-1.143.483-.534 1.067-.864t1.27-.457q.686-.153 1.372-.153.685 0 1.371.153.686.127 1.27.457t1.042.864q.482.508.762 1.143.28.61.38 1.295.102.686.102 1.372v2.54h-7.874v.762q0 .431.051.863t.203.838q.178.407.432.762.28.356.635.61.356.229.787.33t.89.102q.482 0 .965-.102.508-.101.914-.355.432-.28.686-.712.254-.457.28-.94h1.98q-.025.56-.228 1.118-.178.559-.534 1.042-.33.457-.812.812-.458.33-.99.56-.534.202-1.119.279-.584.076-1.143.076m-2.997-7.823h5.893v-.762q0-.432-.05-.864-.052-.432-.204-.838-.152-.407-.432-.762-.254-.356-.61-.584-.355-.254-.787-.356t-.863-.102-.864.102-.787.356q-.356.228-.635.584-.254.355-.407.762-.152.406-.203.838-.05.432-.05.864zm14.86 7.823q-.636 0-1.27-.178-.61-.178-1.118-.559-.508-.38-.864-.914-.33-.534-.533-1.118-.204-.61-.28-1.244-.076-.635-.076-1.27v-3.302q0-.635.076-1.27t.28-1.22q.203-.61.533-1.143.356-.533.864-.914t1.117-.559q.635-.178 1.27-.178.584 0 1.143.153.584.152 1.042.508.482.33.812.838.33.483.534 1.016v-7.518h1.981v18.669h-1.981v-2.312q-.203.534-.534 1.042-.33.482-.812.838-.458.33-1.042.482-.559.153-1.143.153m.761-1.778q.432 0 .838-.102.432-.127.762-.38.33-.255.56-.61.253-.356.38-.737.127-.406.178-.813.05-.432.05-.863v-3.302q0-.432-.05-.839-.05-.431-.178-.812-.127-.407-.38-.762-.23-.381-.56-.635t-.762-.356q-.406-.102-.838-.102t-.863.102q-.407.102-.762.356-.356.228-.635.584-.254.355-.407.762-.152.406-.203.838-.05.432-.05.864v3.302q0 .431.05.863t.203.838q.153.407.407.762.279.356.635.61.355.229.762.33.431.102.863.102m24.638 1.778q-.635 0-1.27-.178-.61-.178-1.117-.559-.508-.38-.864-.914-.33-.534-.533-1.118-.204-.61-.28-1.244-.076-.635-.076-1.27v-3.302q0-.635.076-1.27t.28-1.22q.203-.61.533-1.143.356-.533.864-.914t1.117-.559q.635-.178 1.27-.178.584 0 1.143.153.584.152 1.042.508.482.33.812.838.33.483.534 1.016v-7.518h1.98v18.669h-1.98v-2.312q-.203.534-.534 1.042-.33.482-.812.838-.458.33-1.042.482-.559.153-1.143.153m.762-1.778q.432 0 .838-.102.432-.127.762-.38.33-.255.56-.61.253-.356.38-.737.127-.406.178-.813.05-.432.05-.863v-3.302q0-.432-.05-.839-.05-.431-.178-.812-.127-.407-.38-.762-.23-.381-.56-.635t-.762-.356q-.406-.102-.838-.102t-.863.102q-.407.102-.762.356-.356.228-.635.584-.254.355-.407.762-.152.406-.203.838-.05.432-.05.864v3.302q0 .431.05.863t.203.838q.153.407.407.762.279.356.635.61.355.229.762.33.431.102.863.102m11.963 1.778q-.635 0-1.244-.178-.61-.178-1.092-.559-.458-.406-.788-.94-.33-.558-.533-1.143-.178-.61-.254-1.219-.05-.635-.05-1.244v-8.382h1.98v8.382q0 .431.051.863.05.407.178.813.127.381.355.737.254.355.585.61.33.253.736.38.407.102.838.102.432 0 .839-.102.406-.127.736-.38.33-.255.56-.61.253-.356.38-.737.127-.406.178-.813.05-.432.05-.863v-8.382h1.982v13.462h-1.981v-2.312q-.204.534-.534 1.016-.33.483-.813.838-.457.356-1.04.508-.56.153-1.119.153m10.262-.203v-13.462h1.981v3.175q.153-.61.407-1.194.254-.61.635-1.118.406-.508.99-.787.61-.28 1.245-.28.482 0 .94.127.457.102.838.381.38.28.635.686.254.381.38.838.153.458.204.94.05.457.05.915h-1.98q0-.381-.077-.737-.05-.381-.254-.711-.177-.33-.533-.483-.33-.178-.711-.178-.508 0-.99.229-.483.229-.814.635-.304.406-.508.889-.177.457-.279.965t-.152 1.016q-.026.508-.026 1.016v7.138zm11.455 0v-1.778h3.633v-9.906h-3.277v-1.778h5.258v11.684h3.276v1.778zm4.445-15.825q-.33 0-.635-.076-.304-.101-.533-.33t-.33-.533q-.076-.305-.076-.635t.076-.635q.101-.305.33-.534.229-.228.533-.33t.635-.102.635.102q.305.102.534.33.228.229.33.534.102.304.102.635 0 .33-.102.635-.102.304-.33.533t-.534.33q-.304.076-.635.076m7.976 15.825v-13.462h1.981v2.311q.203-.533.534-1.016.33-.483.787-.838.483-.356 1.041-.508.585-.153 1.143-.153.635 0 1.245.178t1.067.584q.482.381.813.94.33.534.508 1.143.203.584.254 1.22.076.609.076 1.219v8.382h-1.981v-8.382q0-.432-.051-.839-.051-.431-.178-.812-.127-.407-.381-.762-.229-.356-.559-.61t-.736-.356q-.407-.127-.839-.127-.431 0-.838.127-.406.102-.736.356t-.585.61q-.228.355-.355.762-.127.38-.178.812-.05.407-.05.839v8.382zm17.348 5.41q-.584 0-1.168-.102-.56-.076-1.093-.305-.533-.203-.99-.584-.457-.355-.788-.838-.304-.483-.482-1.041-.153-.56-.178-1.143h1.981q.026.508.229.94.228.457.61.761.406.305.888.407.483.127.991.127.432 0 .838-.102.432-.101.762-.355.356-.254.584-.61.254-.356.381-.762.153-.406.204-.838.05-.407.05-.838v-2.439q-.203.534-.533 1.042-.33.482-.813.838-.457.33-1.041.482-.559.153-1.143.153-.635 0-1.27-.178-.61-.178-1.118-.559-.508-.38-.863-.914-.33-.534-.534-1.118-.203-.61-.28-1.244-.075-.635-.075-1.27v-3.302q0-.635.076-1.27t.28-1.22q.202-.61.533-1.143.355-.533.863-.914t1.118-.559q.635-.178 1.27-.178.584 0 1.143.153.584.152 1.041.508.483.33.813.838.33.483.533 1.016v-2.311h1.982v13.589q0 .685-.102 1.346-.102.686-.38 1.295-.255.635-.712 1.143-.432.534-1.016.864-.584.355-1.27.482-.66.153-1.32.153m.05-6.985q.433 0 .84-.102.43-.101.761-.355.33-.254.559-.61.254-.381.38-.762.128-.406.179-.813.05-.432.05-.863v-3.302q0-.432-.05-.839-.051-.431-.178-.812-.127-.407-.381-.762-.229-.381-.559-.635t-.762-.356q-.406-.102-.838-.102t-.864.102q-.406.102-.762.356-.355.228-.635.584-.254.355-.406.762-.153.406-.203.838t-.051.864v3.302q0 .431.05.863t.204.838q.152.407.406.762.28.356.635.61.356.229.762.33.432.102.864.102m24.639 1.778q-.635 0-1.27-.178-.61-.178-1.118-.559-.508-.38-.863-.914-.33-.534-.534-1.118-.203-.61-.28-1.244-.075-.635-.075-1.27v-3.302q0-.635.076-1.27t.28-1.22q.202-.61.533-1.143.355-.533.863-.914t1.118-.559q.635-.178 1.27-.178.584 0 1.143.153.584.152 1.041.508.483.33.813.838.33.483.533 1.016v-7.518h1.982v18.669h-1.982v-2.312q-.203.534-.533 1.042-.33.482-.813.838-.457.33-1.041.482-.559.153-1.143.153m.762-1.778q.432 0 .838-.102.432-.127.762-.38.33-.255.559-.61.254-.356.38-.737.128-.406.179-.813.05-.432.05-.863v-3.302q0-.432-.05-.839-.051-.431-.178-.812-.127-.407-.381-.762-.229-.381-.559-.635t-.762-.356q-.406-.102-.838-.102t-.864.102q-.406.102-.762.356-.355.228-.635.584-.254.355-.406.762-.153.406-.203.838t-.051.864v3.302q0 .431.05.863t.204.838q.152.407.406.762.28.356.635.61.356.229.762.33.432.102.864.102m12.776 1.778q-.711 0-1.397-.127-.66-.127-1.27-.457-.61-.356-1.067-.864-.457-.533-.762-1.143-.28-.635-.38-1.32-.102-.687-.102-1.372v-3.302q0-.686.101-1.372t.381-1.295q.28-.635.737-1.143.482-.534 1.067-.864.584-.33 1.27-.457.685-.153 1.371-.153t1.372.153q.686.127 1.27.457t1.041.864q.483.508.762 1.143.28.61.381 1.295.102.686.102 1.372v2.54h-7.874v.762q0 .431.05.863t.204.838q.178.407.432.762.279.356.635.61.355.229.787.33t.889.102q.483 0 .965-.102.508-.101.915-.355.431-.28.685-.712.254-.457.28-.94h1.98q-.024.56-.228 1.118-.177.559-.533 1.042-.33.457-.813.812-.457.33-.99.56-.534.202-1.118.279-.584.076-1.143.076m-2.997-7.823h5.893v-.762q0-.432-.051-.864t-.203-.838-.432-.762q-.254-.356-.61-.584-.355-.254-.787-.356t-.864-.102-.863.102-.788.356q-.355.228-.635.584-.254.355-.406.762-.153.406-.203.838t-.051.864zm14.503 7.62-4.09-13.462h2.083l2.54 8.966.305 1.117q.153.56.305 1.093.152-.534.305-1.093l.305-1.117 2.54-8.966h2.082l-4.089 13.462zm13.894.203q-.711 0-1.397-.127-.66-.127-1.27-.457-.61-.356-1.067-.864-.457-.533-.762-1.143-.28-.635-.381-1.32-.102-.687-.102-1.372v-3.302q0-.686.102-1.372t.381-1.295q.28-.635.737-1.143.482-.534 1.066-.864t1.27-.457q.686-.153 1.372-.153t1.372.153q.685.127 1.27.457.584.33 1.041.864.483.508.762 1.143.28.61.381 1.295.102.686.102 1.372v2.54h-7.874v.762q0 .431.05.863t.204.838q.177.407.431.762.28.356.635.61.356.229.788.33t.889.102q.482 0 .965-.102.508-.101.914-.355.432-.28.686-.712.254-.457.28-.94h1.98q-.025.56-.228 1.118-.178.559-.533 1.042-.33.457-.813.812-.457.33-.99.56-.534.202-1.118.279-.584.076-1.143.076m-2.997-7.823h5.892v-.762q0-.432-.05-.864t-.204-.838-.431-.762q-.254-.356-.61-.584-.356-.254-.787-.356t-.864-.102-.864.102-.787.356q-.356.228-.635.584-.254.355-.406.762-.153.406-.204.838t-.05.864zm11.201 7.62v-1.778h3.632v-15.113h-3.276v-1.778h5.257v16.89h3.277v1.779zm17.145.203q-.686 0-1.372-.153-.685-.127-1.27-.457-.584-.33-1.066-.838-.458-.533-.737-1.143-.28-.635-.381-1.32-.102-.687-.102-1.372v-3.302q0-.686.102-1.372t.38-1.295q.28-.635.738-1.143.482-.534 1.066-.864t1.27-.457q.686-.153 1.372-.153t1.372.153q.685.127 1.27.457.584.33 1.04.864.484.508.763 1.143.28.61.38 1.295.103.686.103 1.372v3.302q0 .685-.102 1.371t-.381 1.321q-.28.61-.762 1.143-.457.508-1.041.838-.585.33-1.27.457-.686.153-1.372.153m0-1.778q.432 0 .864-.102.431-.101.787-.33.356-.254.61-.61.279-.355.431-.762.153-.406.204-.838t.05-.863v-3.302q0-.432-.05-.864t-.204-.838-.431-.762q-.254-.356-.61-.584-.356-.254-.787-.356t-.864-.102-.864.102-.787.356q-.356.228-.635.584-.254.355-.406.762-.153.406-.204.838t-.05.864v3.302q0 .431.05.863t.204.838q.152.407.406.762.28.356.635.61.356.229.787.33t.864.102m7.975 6.782v-18.67h1.982v2.312q.203-.533.533-1.016.33-.508.787-.838.483-.356 1.042-.508.584-.153 1.168-.153.635 0 1.245.178.635.178 1.143.559t.838.914q.356.534.559 1.143.203.585.28 1.22.075.635.075 1.27v3.302q0 .635-.076 1.27t-.28 1.244q-.202.584-.558 1.118-.33.533-.838.914t-1.143.559q-.61.178-1.245.178-.584 0-1.168-.153-.559-.152-1.042-.482-.457-.356-.787-.838-.33-.508-.533-1.042v7.519zm4.75-6.782q.432 0 .838-.102.432-.101.788-.33.355-.254.61-.61.279-.355.431-.762.153-.406.203-.838t.051-.863v-3.302q0-.432-.05-.864t-.204-.838-.432-.762q-.254-.356-.61-.584-.355-.254-.787-.356-.406-.102-.838-.102t-.863.102q-.407.102-.737.356t-.584.635q-.229.355-.356.762-.127.38-.178.812-.05.407-.05.839v3.302q0 .431.05.863.051.407.178.813.127.381.356.762.254.356.584.61t.737.355q.431.102.863.102m7.544 1.575v-13.462h1.981v1.066q.127-.279.305-.508.178-.254.406-.431.254-.178.534-.254.305-.077.61-.077.38 0 .736.127t.61.381q.279.254.457.585t.28.71q.1-.355.279-.685.177-.356.431-.61t.61-.38q.356-.128.737-.128.38 0 .736.153.381.127.66.406.28.254.432.61.178.355.28.736.101.356.127.737.05.381.05.762v10.262h-1.98v-10.262q0-.28-.051-.533-.026-.28-.153-.534t-.38-.406q-.23-.153-.509-.153-.254 0-.508.153-.228.152-.355.406t-.178.534q-.026.254-.026.533v10.262h-1.98v-10.262q0-.28-.052-.533-.025-.28-.152-.534t-.381-.406q-.229-.153-.483-.153-.279 0-.533.153-.229.152-.356.406t-.177.534q-.026.254-.026.533v10.262zm17.882.203q-.712 0-1.397-.127-.66-.127-1.27-.457-.61-.356-1.067-.864-.457-.533-.762-1.143-.28-.635-.381-1.32-.102-.687-.102-1.372v-3.302q0-.686.102-1.372t.38-1.295q.28-.635.737-1.143.483-.534 1.067-.864t1.27-.457q.686-.153 1.372-.153t1.371.153q.686.127 1.27.457.585.33 1.042.864.482.508.762 1.143.28.61.38 1.295.102.686.102 1.372v2.54h-7.874v.762q0 .431.051.863t.203.838q.178.407.432.762.28.356.635.61.356.229.788.33.431.102.889.102.482 0 .965-.102.508-.101.914-.355.432-.28.686-.712.254-.457.28-.94h1.98q-.025.56-.228 1.118-.178.559-.533 1.042-.33.457-.813.812-.457.33-.99.56-.534.202-1.118.279-.585.076-1.143.076m-2.998-7.823h5.893v-.762q0-.432-.05-.864t-.204-.838-.432-.762q-.254-.356-.61-.584-.355-.254-.787-.356-.431-.102-.863-.102t-.864.102-.787.356q-.356.228-.635.584-.254.355-.407.762-.152.406-.203.838-.05.432-.05.864zm10.922 7.62v-13.462h1.982v2.311q.203-.533.533-1.016t.787-.838q.483-.356 1.042-.508.584-.153 1.143-.153.635 0 1.244.178.61.178 1.067.584.483.381.813.94.33.534.508 1.143.203.584.254 1.22.076.609.076 1.219v8.382h-1.981v-8.382q0-.432-.05-.839-.052-.431-.179-.812-.127-.407-.38-.762-.23-.356-.56-.61t-.736-.356q-.406-.127-.838-.127t-.838.127q-.407.102-.737.356t-.584.61q-.229.355-.356.762-.127.38-.178.812-.05.407-.05.839v8.382zm19.228.203q-.61 0-1.22-.153-.609-.152-1.117-.508-.482-.355-.838-.863-.33-.534-.533-1.092-.204-.585-.28-1.194-.076-.61-.076-1.22v-6.857h-2.794v-1.778h2.794v-5.207h1.981v5.207h4.115v1.778h-4.115v6.858q0 .355.026.736.025.356.101.711.102.33.254.686.153.33.381.584.254.254.61.407.355.127.711.127.483 0 .914-.229.458-.228.712-.635.254-.432.355-.914.102-.483.102-.965 0-.026-.026-.077v-.076h1.982v.254q0 .559-.102 1.118t-.33 1.092q-.229.508-.61.965-.355.432-.838.737-.483.28-1.041.38-.56.128-1.118.128m23.52 0q-.66 0-1.346-.153-.686-.127-1.27-.457-.584-.355-1.041-.863-.432-.534-.711-1.143-.28-.635-.381-1.296-.102-.686-.102-1.371v-3.302q0-.686.102-1.347.101-.685.38-1.295.28-.635.712-1.143.457-.533 1.041-.864.584-.355 1.27-.482.686-.153 1.346-.153.635 0 1.27.127.635.102 1.194.381.584.28 1.042.737.457.432.762.99.304.56.431 1.194.153.61.153 1.245v.051h-1.981v-.026q0-.584-.178-1.143-.178-.558-.584-.965-.407-.432-.966-.61-.558-.203-1.143-.203-.431 0-.863.102-.407.102-.762.356t-.61.61q-.228.355-.38.761-.153.381-.204.813t-.05.864v3.302q0 .431.05.863t.203.838q.153.381.381.737.254.356.61.61.355.254.762.355.432.102.863.102.585 0 1.143-.178.56-.203.966-.61.406-.431.584-.99t.178-1.143v-.026h1.98v.051q0 .635-.152 1.27-.127.61-.431 1.169-.305.558-.762 1.016-.458.431-1.042.71-.559.28-1.194.382-.635.127-1.27.127m10.262 5.004q.229-.762.457-1.55l.457-1.524.585-2.006-4.04-13.59h2.058l3.023 10.542 2.972-10.541h2.057l-5.512 18.669zm15.138-5.004q-.66 0-1.346-.153-.686-.127-1.27-.457-.584-.355-1.041-.863-.432-.534-.712-1.143-.279-.635-.38-1.296-.102-.686-.102-1.371v-3.302q0-.686.101-1.347.102-.685.381-1.295.28-.635.712-1.143.457-.533 1.041-.864.584-.355 1.27-.482.686-.153 1.346-.153.635 0 1.27.127.635.102 1.194.381.584.28 1.041.737.458.432.762.99.305.56.432 1.194.153.61.153 1.245v.051h-1.982v-.026q0-.584-.177-1.143-.178-.558-.585-.965-.406-.432-.965-.61-.559-.203-1.143-.203-.432 0-.863.102-.407.102-.762.356t-.61.61q-.229.355-.38.761-.153.381-.204.813t-.05.864v3.302q0 .431.05.863t.203.838q.152.381.381.737.254.356.61.61.355.254.762.355.431.102.863.102.584 0 1.143-.178.56-.203.965-.61.407-.431.585-.99.177-.559.177-1.143v-.026h1.982v.051q0 .635-.153 1.27-.127.61-.432 1.169-.304.558-.762 1.016-.457.431-1.04.71-.56.28-1.195.382-.635.127-1.27.127m8.331-.203v-1.778h3.633v-15.113h-3.277v-1.778h5.258v16.89h3.276v1.779zm17.196.203q-.711 0-1.397-.127-.66-.127-1.27-.457-.61-.356-1.067-.864-.457-.533-.762-1.143-.279-.635-.38-1.32-.102-.687-.102-1.372v-3.302q0-.686.101-1.372t.381-1.295q.28-.635.737-1.143.483-.534 1.067-.864t1.27-.457q.686-.153 1.371-.153.686 0 1.372.153.686.127 1.27.457t1.041.864q.483.508.762 1.143.28.61.381 1.295.102.686.102 1.372v2.54h-7.874v.762q0 .431.05.863.052.432.204.838.178.407.432.762.28.356.635.61.355.229.787.33t.89.102q.482 0 .964-.102.508-.101.915-.355.432-.28.686-.712.254-.457.279-.94h1.981q-.025.56-.228 1.118-.178.559-.534 1.042-.33.457-.813.812-.457.33-.99.56-.534.202-1.118.279-.584.076-1.143.076m-2.997-7.823h5.893v-.762q0-.432-.051-.864t-.203-.838-.432-.762q-.254-.356-.61-.584-.355-.254-.787-.356t-.864-.102-.863.102-.788.356q-.355.228-.635.584-.254.355-.406.762-.152.406-.203.838t-.051.864z" aria-label="Bugs detected during development cycle" style="font-size:25.4px;line-height:1.25;font-family:Iosevka;-inkscape-font-specification:&quot;Iosevka, Normal&quot;;stroke-width:.874638" transform="translate(5.606 -157.032)"/><g aria-label="Bugs found" style="font-size:19.7556px;line-height:1.25;font-family:Iosevka;-inkscape-font-specification:&quot;Iosevka, Normal&quot;;stroke-width:1.04124"><path d="M88.224 401.736v-14.52h3.339q.514 0 1.008.099.513.079.968.316.454.217.81.593.375.355.612.83.237.454.316.967.099.494.099 1.008 0 .474-.099.968-.079.474-.316.889t-.593.75q-.355.337-.79.534.514.198.968.534.474.335.77.81.317.474.435 1.027.138.553.138 1.126 0 .553-.118 1.126-.099.553-.375 1.047-.277.494-.712.87-.415.375-.928.612t-1.087.335q-.553.08-1.106.08zm3.339-8.218q.474 0 .928-.158.475-.158.79-.514.317-.375.435-.83.119-.473.119-.967 0-.474-.119-.929-.118-.474-.434-.83-.316-.375-.79-.533-.455-.158-.929-.158h-1.798v4.92zm0 6.836q.375 0 .73-.06.376-.059.692-.217.336-.158.613-.415.276-.276.454-.593.178-.335.237-.691.06-.375.06-.75 0-.356-.06-.732-.059-.375-.237-.691-.178-.336-.454-.593-.257-.257-.593-.415-.336-.177-.711-.237-.356-.059-.731-.059h-1.798v5.453zm9.62 1.54q-.493 0-.967-.138t-.85-.434q-.355-.316-.612-.731-.257-.435-.415-.89-.138-.473-.197-.948-.04-.494-.04-.968v-6.519h1.541v6.52q0 .335.04.671.039.316.138.632.099.297.276.573.198.277.455.474.257.198.573.297.316.079.652.079.335 0 .651-.08.317-.098.573-.296.257-.197.435-.474.198-.276.296-.573.1-.316.139-.632.04-.336.04-.672v-6.519h1.54v10.47h-1.54v-1.797q-.159.415-.416.79t-.632.652q-.356.276-.81.395-.435.119-.87.119m10.412 4.05q-.454 0-.909-.079-.434-.059-.85-.237-.414-.158-.77-.454-.355-.277-.612-.652-.237-.375-.375-.81-.119-.435-.139-.889h1.541q.02.395.178.731.178.356.474.593.316.237.692.316.375.099.77.099.336 0 .652-.08.336-.078.593-.276.276-.198.454-.474.198-.277.296-.593.119-.316.158-.652.04-.316.04-.652v-1.896q-.158.415-.415.81-.257.375-.632.652-.356.257-.81.375-.435.119-.89.119-.493 0-.987-.139-.474-.138-.87-.434-.394-.297-.67-.712-.258-.414-.416-.869-.158-.474-.217-.968-.06-.494-.06-.988v-2.568q0-.494.06-.988.06-.493.217-.948.158-.474.415-.889.277-.415.672-.711t.87-.435q.493-.138.987-.138.454 0 .889.119.454.118.81.395.375.257.632.652.257.375.415.79v-1.798h1.54v10.57q0 .533-.078 1.046-.08.534-.297 1.008-.197.494-.553.889-.336.415-.79.672-.454.276-.988.375-.513.118-1.027.118m.04-5.432q.335 0 .651-.08.336-.078.593-.276.257-.197.435-.474.197-.296.296-.593.099-.316.138-.632.04-.336.04-.672v-2.568q0-.336-.04-.652-.04-.336-.138-.632-.099-.316-.296-.593-.178-.296-.435-.493-.257-.198-.593-.277-.316-.08-.651-.08-.336 0-.672.08-.316.079-.593.277-.276.177-.494.454-.197.276-.316.593-.118.316-.158.651-.04.336-.04.672v2.568q0 .336.04.672t.158.652.316.593q.218.276.494.474.277.178.593.257.336.079.672.079m9.877 1.383q-.454 0-.889-.06-.434-.04-.85-.178-.414-.158-.79-.414-.355-.257-.632-.593-.256-.356-.395-.79-.138-.435-.138-.87v-.02h1.54q0 .376.198.712.198.316.514.513.336.178.692.257.375.06.75.06.376 0 .731-.06.376-.079.692-.257.336-.197.533-.533.217-.336.217-.711 0-.336-.197-.632-.178-.297-.474-.474-.277-.198-.613-.277-.316-.099-.652-.198-.316-.098-.652-.197-.316-.099-.632-.217-.316-.119-.632-.257-.296-.158-.573-.356t-.514-.434q-.237-.257-.414-.554-.158-.296-.237-.632-.08-.336-.08-.672 0-.434.12-.849.137-.415.374-.77.238-.376.593-.633.356-.256.75-.415.416-.158.83-.217.435-.06.87-.06.434 0 .85.06.434.06.829.217.415.139.75.396.356.237.593.592.257.356.376.77.138.416.138.83v.02h-1.54q0-.355-.179-.672-.177-.316-.474-.493-.296-.198-.652-.257-.336-.08-.691-.08-.356 0-.711.08-.356.06-.652.257t-.474.533q-.178.316-.178.672 0 .355.178.652.197.296.474.494.296.177.612.276.336.08.652.178.336.099.652.197.336.1.652.218t.612.276q.316.139.593.336.277.198.494.455.237.237.395.533.178.296.257.632.099.316.099.672 0 .434-.139.87-.138.434-.395.79-.257.355-.632.612t-.79.415q-.415.138-.87.197-.434.06-.869.06M85.478 426.431v-8.495h-2.193v-1.383h2.193v-1.56q0-.396.04-.79.06-.416.197-.79.158-.376.395-.712t.573-.553q.356-.218.751-.297.395-.098.79-.098.553 0 1.087.177.553.158.928.573.376.395.554.929.177.533.177 1.086v.158h-1.54v-.079q0-.276-.06-.533-.06-.277-.217-.494-.158-.217-.415-.316-.237-.119-.514-.119-.316 0-.592.178-.257.178-.395.455-.139.276-.198.592-.04.316-.04.632v1.561h3.26v1.383H87v8.495zm11.36.158q-.534 0-1.067-.119-.534-.098-.988-.355t-.83-.652q-.355-.415-.573-.889-.217-.494-.296-1.027-.079-.534-.079-1.067v-2.568q0-.534.08-1.067.078-.534.295-1.008.218-.494.573-.889.376-.415.83-.671t.988-.356q.533-.119 1.067-.119t1.066.119q.534.099.988.356.455.256.81.671.376.395.593.89.217.473.296 1.007.08.533.08 1.067v2.568q0 .533-.08 1.067-.079.533-.296 1.027-.217.474-.593.889-.355.395-.81.652-.454.257-.988.355-.533.119-1.066.119m0-1.383q.336 0 .671-.079.336-.079.613-.257.276-.197.474-.474.217-.276.336-.592.118-.317.158-.652.04-.336.04-.672v-2.568q0-.336-.04-.672t-.158-.652-.336-.593q-.198-.276-.474-.454-.277-.198-.613-.277t-.671-.079-.672.08q-.336.078-.612.276-.277.178-.494.454-.198.277-.316.593-.119.316-.158.652t-.04.672v2.568q0 .336.04.672.04.335.158.652.118.316.316.592.217.277.494.474.276.178.612.257t.672.08m9.285 1.383q-.494 0-.968-.138-.474-.139-.85-.435-.355-.316-.612-.73-.257-.435-.415-.89-.138-.474-.198-.948-.04-.494-.04-.968v-6.52h1.542v6.52q0 .336.04.672.039.316.138.632.098.296.276.573.198.276.455.474.256.197.572.296.317.08.652.08.336 0 .652-.08.316-.099.573-.296.257-.198.435-.474.197-.277.296-.573.099-.316.139-.632.039-.336.039-.672v-6.52h1.54v10.471h-1.54v-1.798q-.158.415-.415.79t-.632.652q-.356.277-.81.395-.435.119-.87.119m6.796-.158v-10.47h1.54v1.797q.159-.415.415-.79.257-.375.613-.652.375-.276.81-.395.454-.119.889-.119.494 0 .968.139.474.138.83.454.375.296.632.731.257.415.395.89.158.453.197.947.06.475.06.949v6.519h-1.541v-6.52q0-.335-.04-.651-.04-.336-.138-.632-.099-.317-.296-.593-.178-.277-.435-.474-.257-.198-.573-.277-.316-.099-.652-.099t-.652.1q-.316.078-.573.276-.256.197-.454.474-.178.276-.277.593-.098.296-.138.632-.04.316-.04.652v6.519zm12.94.158q-.494 0-.988-.138-.474-.139-.87-.435-.395-.296-.671-.711-.257-.415-.415-.87-.158-.473-.217-.967-.06-.494-.06-.988v-2.568q0-.494.06-.988.059-.494.217-.948.158-.475.415-.89.276-.414.671-.71.396-.297.87-.435.494-.139.987-.139.455 0 .89.119.454.119.81.395.375.257.632.652.256.375.415.79v-5.847h1.54v14.52h-1.54v-1.798q-.159.415-.415.81-.257.376-.633.652-.355.257-.81.375-.434.119-.889.119m.592-1.383q.336 0 .652-.079.336-.099.593-.296.257-.198.434-.474.198-.277.297-.573.099-.316.138-.632.04-.336.04-.672v-2.568q0-.336-.04-.652-.04-.336-.138-.632-.1-.317-.297-.593-.177-.296-.434-.494t-.593-.277q-.316-.079-.652-.079t-.672.08q-.316.078-.592.276-.277.178-.494.454-.198.277-.316.593-.119.316-.158.652t-.04.672v2.568q0 .336.04.672.04.335.158.652.118.316.316.592.217.277.494.474.276.178.592.257.336.08.672.08" style="font-size:19.7556px;text-align:center;text-anchor:middle" transform="translate(5.606 -157.032)"/></g><path d="M189.114 613.567v-14.52h3.477q.533 0 1.067.118.553.099 1.027.375.474.277.83.711.355.415.573.929.217.494.296 1.047.079.533.079 1.067 0 .553-.079 1.106-.079.534-.296 1.047-.218.494-.573.929-.356.415-.83.691-.474.277-1.027.395-.534.099-1.067.099h-1.936v6.006zm1.54-7.389h1.937q.355 0 .691-.079.336-.099.613-.296.296-.198.494-.494.217-.296.335-.613.119-.335.159-.691.039-.356.039-.711 0-.336-.04-.692-.039-.355-.158-.671-.118-.336-.335-.632-.198-.297-.494-.494-.277-.198-.613-.277-.336-.099-.691-.099h-1.936zm8.239 7.389v-1.383h2.825v-11.755h-2.549v-1.383h4.09v13.138h2.548v1.383zm12.387.158q-.396 0-.79-.08-.396-.059-.751-.236-.336-.198-.613-.494-.257-.297-.434-.652-.158-.356-.237-.75-.06-.396-.06-.791 0-.514.119-1.008.138-.493.434-.889.316-.414.731-.691.435-.277.91-.435.493-.158.987-.217.514-.06 1.027-.06h1.758v-1.066q0-.415-.138-.83t-.454-.691-.731-.395-.83-.119q-.395 0-.79.08-.376.078-.692.295-.316.218-.493.573-.178.356-.178.731h-1.541q0-.454.118-.889.139-.434.395-.81.257-.375.613-.632.375-.276.79-.434.415-.178.87-.238.454-.059.908-.059.474 0 .948.08.474.058.91.256.434.198.79.514.375.316.612.73.237.415.336.89.098.474.098.948v7.21h-1.54v-1.698q-.178.434-.514.81-.316.355-.731.612-.415.237-.89.336-.473.099-.947.099m.592-1.383q.474 0 .949-.138.493-.139.849-.455t.514-.77q.177-.474.177-.968v-1.205h-1.758q-.316 0-.612.04-.297.019-.593.098-.276.06-.553.197-.277.119-.494.336t-.316.514q-.099.277-.099.573 0 .375.119.73.138.356.415.613t.652.356q.375.079.75.079m6.559 1.225v-10.47h1.541v1.797q.158-.415.415-.79t.612-.652q.376-.277.81-.395.455-.119.89-.119.493 0 .967.139.474.138.83.454.375.296.632.73.257.416.395.89.158.454.198.948.06.474.06.948v6.52h-1.542v-6.52q0-.335-.04-.652-.039-.335-.138-.632-.098-.316-.296-.592-.178-.277-.435-.475-.256-.197-.572-.276-.317-.099-.652-.099-.336 0-.652.099-.316.079-.573.276-.257.198-.455.475-.177.276-.276.592-.099.297-.138.632-.04.317-.04.652v6.52z" aria-label="Plan" style="font-size:19.7556px;line-height:1.25;font-family:Iosevka;-inkscape-font-specification:&quot;Iosevka, Normal&quot;;stroke-width:.728595" transform="translate(5.606 -157.032)"/><path d="M299.94 613.567v-14.52h3.1q.594 0 1.166.098.573.099 1.087.356.533.237.968.632t.692.909q.276.513.375 1.086.118.573.118 1.146v6.045q0 .593-.118 1.166-.099.573-.375 1.086-.257.514-.692.91-.435.394-.968.651-.514.237-1.087.336-.572.099-1.165.099zm3.1-1.383q.396 0 .771-.06.376-.078.712-.237.355-.177.632-.454.276-.277.434-.612.178-.356.237-.731.08-.376.08-.77v-6.046q0-.375-.08-.75-.059-.376-.237-.712-.158-.355-.434-.632-.277-.277-.632-.435-.336-.177-.712-.237-.375-.079-.75-.079h-1.58v11.755zm10.491 1.54q-.553 0-1.086-.098-.514-.099-.988-.356-.474-.276-.83-.671-.356-.415-.593-.89-.217-.493-.296-1.027t-.079-1.066v-2.569q0-.533.079-1.066.079-.534.296-1.008.218-.494.573-.889.376-.415.83-.672.454-.256.988-.355.533-.119 1.067-.119t1.066.119q.534.099.988.355.455.257.81.672.375.395.593.889.217.474.296 1.008.08.533.08 1.066v1.976H311.2v.593q0 .335.04.671.039.336.157.652.139.316.336.593.218.276.494.474.277.178.613.257t.691.079q.375 0 .75-.08.396-.078.712-.276.336-.217.533-.553.198-.356.218-.73h1.54q-.02.434-.177.868-.138.435-.415.81-.257.356-.632.633-.356.256-.77.434-.416.158-.87.217-.454.06-.889.06m-2.331-6.084h4.583v-.593q0-.335-.04-.671-.039-.336-.157-.652-.119-.316-.336-.593-.198-.276-.474-.454-.277-.198-.613-.277t-.671-.079-.672.08q-.336.078-.613.276-.276.178-.493.454-.198.277-.317.593-.118.316-.158.652t-.04.671zm11.28 5.927-3.18-10.47h1.62l1.975 6.973.237.87q.119.434.237.849.119-.415.237-.85l.237-.869 1.976-6.974h1.62l-3.18 10.47zm10.807.158q-.554 0-1.087-.099-.514-.099-.988-.356-.474-.276-.83-.671-.355-.415-.592-.89-.218-.493-.297-1.027t-.079-1.066v-2.569q0-.533.08-1.066.078-.534.296-1.008.217-.494.573-.889.375-.415.83-.672.454-.256.987-.355.534-.119 1.067-.119t1.067.119q.533.099.988.355.454.257.81.672.375.395.592.889.218.474.297 1.008.079.533.079 1.066v1.976h-6.125v.593q0 .335.04.671t.158.652q.138.316.336.593.217.276.494.474.276.178.612.257t.692.079q.375 0 .75-.08.395-.078.711-.276.336-.217.534-.553.197-.356.217-.73h1.541q-.02.434-.178.868-.138.435-.415.81-.256.356-.632.633-.355.256-.77.434-.415.158-.87.217-.454.06-.888.06m-2.332-6.085h4.584v-.593q0-.335-.04-.671t-.158-.652-.336-.593q-.197-.276-.474-.454-.276-.198-.612-.277t-.672-.079-.672.08q-.335.078-.612.276-.277.178-.494.454-.198.277-.316.593-.119.316-.158.652t-.04.671zm8.713 5.927v-1.383h2.825v-11.755h-2.549v-1.383h4.09v13.138h2.548v1.383zm13.335.158q-.534 0-1.067-.119-.534-.099-.988-.355-.454-.257-.83-.652-.355-.415-.573-.89-.217-.493-.296-1.027t-.079-1.066v-2.569q0-.533.079-1.066.079-.534.296-1.008.218-.494.573-.889.376-.415.83-.672.454-.256.988-.355.533-.119 1.067-.119t1.066.119q.534.099.988.355.454.257.81.672.375.395.593.889.217.474.296 1.008.08.533.08 1.066v2.569q0 .533-.08 1.066-.079.534-.296 1.028-.218.474-.593.889-.356.395-.81.652-.454.256-.988.355-.533.119-1.066.119m0-1.383q.335 0 .671-.08.336-.078.613-.256.276-.197.474-.474.217-.277.336-.593.118-.316.158-.652t.04-.671v-2.569q0-.335-.04-.671t-.158-.652-.336-.593q-.198-.276-.474-.454-.277-.198-.613-.277t-.671-.079-.672.08q-.336.078-.613.276-.276.178-.493.454-.198.277-.317.593-.118.316-.158.652t-.04.671v2.569q0 .335.04.671t.158.652.317.593q.217.277.493.474.277.178.613.257t.672.079m6.203 5.275v-14.52h1.54v1.797q.159-.415.416-.79.256-.395.612-.652.375-.277.81-.395.454-.119.909-.119.494 0 .968.139.494.138.889.434t.652.711q.276.415.434.89.158.454.218.948.059.493.059.987v2.569q0 .493-.06.987-.059.494-.217.968-.158.455-.434.87-.257.415-.652.71-.395.297-.89.435-.473.139-.967.139-.455 0-.91-.119-.434-.118-.81-.375-.355-.277-.611-.652-.257-.395-.415-.81v5.848zm3.694-5.275q.336 0 .652-.08.336-.078.612-.256.277-.197.475-.474.217-.277.335-.593t.158-.652.04-.671v-2.569q0-.335-.04-.671t-.158-.652-.335-.593q-.198-.276-.475-.454-.276-.198-.612-.277-.316-.079-.652-.079t-.672.08q-.316.078-.573.276-.256.197-.454.494-.178.276-.277.592-.098.297-.138.632-.04.317-.04.652v2.569q0 .335.04.671.04.316.138.632.1.297.277.593.198.277.454.474.257.198.573.277.336.079.672.079" aria-label="Develop" style="font-size:19.7556px;line-height:1.25;font-family:Iosevka;-inkscape-font-specification:&quot;Iosevka, Normal&quot;;stroke-width:.728595" transform="translate(5.606 -157.032)"/><path d="M458.283 613.567v-13.138h-3.141v-1.383h7.823v1.383h-3.141v13.138zm10.688.158q-.553 0-1.087-.099-.514-.099-.988-.356-.474-.276-.83-.671-.355-.415-.592-.89-.217-.493-.296-1.027-.08-.533-.08-1.066v-2.569q0-.533.08-1.066.079-.534.296-1.008.217-.494.573-.889.375-.415.83-.672.454-.256.987-.355.534-.119 1.067-.119.534 0 1.067.119.533.099.988.355.454.257.81.672.375.395.592.889.218.474.297 1.008.079.533.079 1.066v1.976h-6.124v.593q0 .335.039.671.04.336.158.652.138.316.336.593.217.276.494.474.276.178.612.257t.692.079q.375 0 .75-.08.396-.078.712-.276.335-.217.533-.553.198-.356.217-.73h1.541q-.02.434-.178.868-.138.435-.414.81-.257.356-.633.633-.355.256-.77.434-.415.158-.87.217-.454.06-.888.06m-2.331-6.085h4.583v-.593q0-.335-.04-.671t-.158-.652-.336-.593q-.197-.276-.474-.454-.276-.198-.612-.277t-.672-.079-.671.08q-.336.078-.613.276-.276.178-.494.454-.197.277-.316.593-.118.316-.158.652t-.04.671zm12.15 6.085q-.455 0-.89-.06-.434-.039-.85-.177-.414-.158-.79-.415-.355-.257-.632-.593-.257-.355-.395-.79t-.138-.87v-.02h1.54q0 .376.198.712.198.316.514.514.336.178.691.257.376.059.751.059.376 0 .731-.06.375-.078.692-.256.335-.198.533-.534.217-.336.217-.71 0-.337-.197-.633-.178-.296-.474-.474-.277-.198-.613-.277-.316-.099-.652-.197-.316-.1-.652-.198-.316-.099-.632-.217-.316-.119-.632-.257-.296-.158-.573-.356t-.514-.434q-.237-.257-.414-.553-.159-.297-.238-.633-.079-.335-.079-.671 0-.435.119-.85.138-.415.375-.77.237-.376.593-.632.356-.257.75-.415.416-.158.83-.218.435-.059.87-.059.434 0 .85.06.434.059.829.217.415.138.75.395.356.237.593.593.257.355.376.77.138.415.138.83v.02h-1.541q0-.356-.178-.672t-.474-.494q-.296-.198-.652-.257-.336-.079-.691-.079-.356 0-.712.08-.355.058-.651.256-.297.197-.475.533-.177.316-.177.672t.177.652q.198.296.475.494.296.178.612.276.336.08.652.178.336.099.652.198.336.099.652.217.316.119.612.277.316.138.593.336.276.197.494.454.237.237.395.533.178.297.257.632.098.317.098.672 0 .435-.138.87-.138.434-.395.79-.257.355-.632.612t-.79.415q-.415.138-.87.197-.434.06-.869.06m11.3 0q-.475 0-.949-.119-.474-.118-.87-.395-.375-.276-.651-.672-.257-.414-.415-.85-.158-.453-.217-.928-.06-.474-.06-.948v-5.334h-2.173v-1.383h2.173v-4.05h1.541v4.05h3.2v1.383h-3.2v5.334q0 .277.02.573.02.277.08.553.078.257.197.534.118.256.296.454.198.198.474.316.277.099.553.099.376 0 .711-.178.356-.178.554-.494.197-.336.276-.711t.08-.75q0-.02-.02-.06v-.06h1.54v.198q0 .435-.079.87-.079.434-.256.849-.178.395-.474.75-.277.337-.652.574-.376.217-.81.296-.435.099-.87.099" aria-label="Test" style="font-size:19.7556px;line-height:1.25;font-family:Iosevka;-inkscape-font-specification:&quot;Iosevka, Normal&quot;;stroke-width:.728595" transform="translate(5.606 -157.032)"/><path d="M567.803 613.567v-14.52h3.793q.533 0 1.047.118.533.118.988.415.454.276.79.711.336.415.533.909.218.494.277 1.027.079.533.079 1.067 0 .691-.139 1.363-.118.672-.454 1.264-.336.573-.909.988-.553.415-1.205.553l3.082 6.105h-1.64l-3.042-6.006h-1.66v6.006zm1.54-7.389h2.253q.336 0 .671-.099.336-.098.593-.296.277-.217.454-.514.178-.296.277-.612.099-.336.138-.672t.04-.691q0-.336-.04-.672t-.138-.652q-.099-.336-.277-.632-.177-.296-.454-.494-.257-.217-.593-.316t-.671-.099h-2.252zm12.012 7.547q-.533 0-1.067-.119-.533-.099-.988-.355-.454-.257-.83-.652-.355-.415-.572-.89-.218-.493-.297-1.027t-.079-1.066v-2.569q0-.533.08-1.066.078-.534.296-1.008.217-.494.573-.889.375-.415.83-.672.454-.256.987-.355.534-.119 1.067-.119t1.067.119q.533.099.988.355.454.257.81.672.375.395.592.889.217.474.297 1.008.079.533.079 1.066v2.569q0 .533-.08 1.066-.078.534-.296 1.028-.217.474-.592.889-.356.395-.81.652-.455.256-.988.355-.534.119-1.067.119m0-1.383q.336 0 .672-.08.335-.078.612-.256.277-.197.474-.474.218-.277.336-.593t.158-.652.04-.671v-2.569q0-.335-.04-.671t-.158-.652-.336-.593q-.197-.276-.474-.454-.277-.198-.612-.277-.336-.079-.672-.079t-.672.08-.612.276q-.277.178-.494.454-.198.277-.316.593-.119.316-.158.652t-.04.671v2.569q0 .335.04.671t.158.652.316.593q.217.277.494.474.276.178.612.257t.672.079m6.42 1.225v-1.383h2.826v-11.755h-2.549v-1.383h4.09v13.138h2.548v1.383zm9.878 0v-1.383h2.825v-11.755h-2.548v-1.383h4.09v13.138h2.548v1.383zm13.335.158q-.533 0-1.067-.119-.533-.099-.987-.355-.455-.257-.83-.652-.356-.415-.573-.89-.217-.493-.296-1.027-.08-.533-.08-1.066v-2.569q0-.533.08-1.066.079-.534.296-1.008.217-.494.573-.889.375-.415.83-.672.454-.256.987-.355.534-.119 1.067-.119.534 0 1.067.119.533.099.988.355.454.257.81.672.375.395.592.889.218.474.297 1.008.079.533.079 1.066v2.569q0 .533-.08 1.066-.078.534-.296 1.028-.217.474-.592.889-.356.395-.81.652-.455.256-.988.355-.533.119-1.067.119m0-1.383q.336 0 .672-.08.336-.078.612-.256.277-.197.474-.474.218-.277.336-.593t.158-.652.04-.671v-2.569q0-.335-.04-.671t-.158-.652-.336-.593q-.197-.276-.474-.454-.276-.198-.612-.277t-.672-.079-.672.08q-.335.078-.612.276-.277.178-.494.454-.197.277-.316.593-.118.316-.158.652t-.04.671v2.569q0 .335.04.671t.158.652.316.593q.217.277.494.474.277.178.612.257.336.079.672.079m9.285 1.383q-.494 0-.968-.139-.474-.138-.85-.434-.355-.316-.612-.731-.256-.435-.415-.89-.138-.473-.197-.947-.04-.494-.04-.968v-6.52h1.541v6.52q0 .335.04.671.04.316.138.632.099.297.277.573.197.277.454.475t.573.296q.316.079.652.079t.652-.08q.316-.098.573-.295.257-.198.434-.475.198-.276.297-.573.099-.316.138-.632.04-.336.04-.671v-6.52h1.54v10.47H623v-1.797q-.159.415-.415.79-.257.376-.633.652-.355.277-.81.395-.434.119-.869.119m11.873 0q-.474 0-.948-.119-.474-.118-.87-.395-.375-.276-.651-.672-.257-.414-.415-.85-.158-.453-.217-.928-.06-.474-.06-.948v-5.334h-2.173v-1.383h2.173v-4.05h1.541v4.05h3.2v1.383h-3.2v5.334q0 .277.02.573.02.277.08.553.078.257.197.534.118.256.296.454.198.198.474.316.277.099.553.099.376 0 .711-.178.356-.178.554-.494.197-.336.276-.711t.08-.75q0-.02-.02-.06v-.06h1.54v.198q0 .435-.079.87-.079.434-.256.849-.178.395-.475.75-.276.337-.652.574-.375.217-.81.296-.434.099-.869.099" aria-label="Rollout" style="font-size:19.7556px;line-height:1.25;font-family:Iosevka;-inkscape-font-specification:&quot;Iosevka, Normal&quot;;stroke-width:.728595" transform="translate(5.606 -157.032)"/><path d="M723.792 613.946v-14.52h3.477q.533 0 1.066.118.553.099 1.028.375.474.277.83.711.355.415.572.929.218.494.297 1.047.079.533.079 1.067 0 .553-.08 1.106-.078.533-.296 1.047-.217.494-.573.928-.355.415-.83.692-.473.276-1.027.395-.533.099-1.066.099h-1.936v6.006zm1.54-7.39h1.937q.355 0 .691-.078.336-.099.612-.296.297-.198.494-.494.218-.297.336-.613.119-.336.158-.691.04-.356.04-.711 0-.336-.04-.692t-.158-.672q-.118-.335-.336-.632-.197-.296-.494-.494-.276-.197-.612-.276-.336-.099-.691-.099h-1.936zm9.207 7.39v-10.47h1.54v2.469q.119-.475.317-.929.197-.474.493-.87.317-.394.77-.612.475-.217.969-.217.375 0 .73.099.357.079.653.296t.494.534q.197.296.296.651.119.356.158.731.04.356.04.712h-1.541q0-.297-.06-.573-.04-.297-.197-.553-.138-.257-.415-.376-.257-.138-.553-.138-.395 0-.77.178-.376.178-.633.494-.237.316-.395.691-.138.356-.217.75-.08.396-.119.791-.02.395-.02.79v5.552zm12.366.158q-.533 0-1.066-.119-.534-.099-.988-.356-.454-.256-.83-.652-.355-.414-.573-.889-.217-.493-.296-1.027-.08-.533-.08-1.067v-2.568q0-.533.08-1.067.079-.533.296-1.007.218-.494.573-.89.376-.414.83-.67.454-.258.988-.356.533-.119 1.066-.119.534 0 1.067.119.534.098.988.355t.81.672q.375.395.593.889.217.474.296 1.007.079.534.079 1.067v2.568q0 .534-.079 1.067-.079.534-.296 1.027-.218.475-.593.89-.356.395-.81.651-.454.257-.988.356-.533.119-1.067.119m0-1.383q.336 0 .672-.08.336-.078.613-.256.276-.198.474-.474.217-.277.336-.593.118-.316.158-.652t.04-.672v-2.568q0-.336-.04-.672-.04-.335-.158-.651-.119-.317-.336-.593-.198-.277-.474-.454-.277-.198-.613-.277t-.672-.08q-.335 0-.671.08-.336.079-.613.277-.276.177-.494.454-.197.276-.316.593-.118.316-.158.651-.04.336-.04.672v2.568q0 .336.04.672t.158.652.316.593q.218.276.494.474.277.178.613.257t.671.079m9.266 1.383q-.494 0-.988-.139-.474-.138-.87-.434-.394-.297-.67-.712-.258-.414-.416-.869-.158-.474-.217-.968-.06-.494-.06-.988v-2.568q0-.494.06-.988.06-.493.217-.948.158-.474.415-.889.277-.415.672-.711t.869-.435q.494-.138.988-.138.454 0 .889.119.454.118.81.395.375.256.632.652.257.375.415.79v-5.848h1.54v14.52h-1.54v-1.797q-.158.415-.415.81-.257.375-.632.652-.356.256-.81.375-.435.119-.89.119m.592-1.383q.336 0 .652-.08.336-.098.593-.296t.435-.474q.197-.276.296-.573.099-.316.138-.632.04-.336.04-.672v-2.568q0-.336-.04-.652-.04-.336-.138-.632-.099-.316-.296-.593-.178-.296-.435-.493-.257-.198-.593-.277-.316-.08-.652-.08-.335 0-.671.08-.316.079-.593.277-.276.177-.494.454-.197.276-.316.593-.118.316-.158.651-.04.336-.04.672v2.568q0 .336.04.672t.158.652.316.593q.218.276.494.474.277.178.593.257.336.079.671.079m9.305 1.383q-.494 0-.968-.139-.474-.138-.85-.434-.355-.316-.612-.731-.256-.435-.415-.89-.138-.473-.197-.948-.04-.493-.04-.968v-6.519h1.541v6.52q0 .335.04.671.04.316.138.632.099.297.277.573.197.277.454.474.257.198.573.297.316.079.652.079t.652-.08q.316-.098.573-.296t.434-.474q.198-.276.297-.573.099-.316.138-.632.04-.336.04-.672v-6.519h1.54v10.47h-1.54v-1.797q-.158.415-.415.79t-.632.652q-.356.276-.81.395-.435.119-.87.119m10.411 0q-.513 0-1.047-.119-.533-.099-.987-.356-.455-.276-.81-.671-.336-.415-.554-.89-.217-.493-.296-1.007-.079-.533-.079-1.067v-2.568q0-.533.08-1.047.078-.533.295-1.007.218-.494.554-.89.355-.414.81-.671.454-.277.987-.375.534-.119 1.047-.119.494 0 .988.099.494.079.929.296.454.217.81.573.355.336.592.77.237.435.336.929.119.474.119.968v.04h-1.541v-.02q0-.455-.138-.89-.139-.434-.455-.75-.316-.336-.75-.474-.435-.158-.89-.158-.335 0-.671.079-.316.079-.593.276-.276.198-.474.475-.178.276-.296.592-.119.297-.158.632-.04.336-.04.672v2.568q0 .336.04.672t.158.652q.118.296.296.573.198.276.474.474.277.198.593.277.336.079.671.079.455 0 .89-.139.434-.158.75-.474.316-.336.455-.77.138-.435.138-.89v-.02h1.54v.04q0 .494-.118.988-.099.474-.336.909t-.592.79q-.356.336-.81.553-.435.218-.929.297-.494.098-.988.098zm11.34 0q-.474 0-.948-.119t-.87-.395q-.375-.277-.651-.672-.257-.415-.415-.85-.158-.454-.218-.928-.059-.474-.059-.948v-5.334h-2.173v-1.383h2.173v-4.05h1.541v4.05h3.2v1.383h-3.2v5.334q0 .277.02.573.02.276.079.553.079.257.197.533.119.257.297.455.197.197.474.316.277.099.553.099.375 0 .711-.178.356-.178.553-.494.198-.336.277-.711.079-.376.079-.75 0-.02-.02-.06v-.06h1.541v.198q0 .435-.079.87-.079.434-.257.849-.177.395-.474.75-.276.336-.652.573-.375.218-.81.297-.434.099-.869.099m5.018-.158v-1.383h2.825v-7.705h-2.548v-1.383h4.089v9.088h2.548v1.383zm3.457-12.308q-.257 0-.494-.06-.237-.079-.415-.256-.177-.178-.256-.415-.06-.237-.06-.494t.06-.494q.079-.237.256-.415.178-.178.415-.257t.494-.079.494.08q.237.078.415.256t.257.415.079.494-.08.494q-.078.237-.256.415-.178.177-.415.256-.237.06-.494.06m9.878 12.466q-.533 0-1.067-.119-.533-.099-.988-.356-.454-.256-.83-.652-.355-.414-.572-.889-.218-.493-.297-1.027t-.079-1.067v-2.568q0-.533.08-1.067.078-.533.296-1.007.217-.494.573-.89.375-.414.83-.67.454-.258.987-.356.534-.119 1.067-.119t1.067.119q.533.098.988.355t.81.672q.375.395.592.889.217.474.296 1.007.08.534.08 1.067v2.568q0 .534-.08 1.067-.079.534-.296 1.027-.217.475-.593.89-.355.395-.81.651-.454.257-.987.356-.534.119-1.067.119m0-1.383q.336 0 .672-.08.335-.078.612-.256.277-.198.474-.474.217-.277.336-.593t.158-.652.04-.672v-2.568q0-.336-.04-.672-.04-.335-.158-.651-.119-.317-.336-.593-.197-.277-.474-.454-.277-.198-.612-.277-.336-.08-.672-.08t-.672.08q-.336.079-.612.277-.277.177-.494.454-.198.276-.316.593-.119.316-.158.651-.04.336-.04.672v2.568q0 .336.04.672t.158.652.316.593q.217.276.494.474.276.178.612.257t.672.079m6.203 1.225v-10.47h1.541v1.797q.158-.415.415-.79t.612-.652q.376-.277.81-.395.455-.119.89-.119.493 0 .967.138.474.139.83.455.375.296.632.73.257.416.395.89.158.454.198.948.06.474.06.948v6.52h-1.542v-6.52q0-.336-.04-.652-.039-.336-.137-.632-.1-.316-.297-.593-.178-.276-.434-.474-.257-.197-.573-.276-.316-.1-.652-.1t-.652.1q-.316.079-.573.276-.257.198-.455.474-.177.277-.276.593-.099.296-.138.632-.04.316-.04.652v6.52z" aria-label="Production" style="font-size:19.7556px;line-height:1.25;font-family:Iosevka;-inkscape-font-specification:&quot;Iosevka, Normal&quot;;stroke-width:.728595" transform="translate(5.606 -157.032)"/><path d="M599.685 370.642V352.29h-4.388v-1.932h10.929v1.932h-4.388v18.352zm11.397 0v-14.626h2.153v3.45q.166-.663.442-1.298.275-.662.69-1.214.44-.552 1.076-.855.662-.304 1.352-.304.524 0 1.021.138.497.11.91.414.415.304.69.745.276.414.414.91.166.498.221 1.022.055.497.055.993h-2.152q0-.413-.083-.8-.055-.414-.276-.773-.193-.358-.58-.524-.358-.193-.772-.193-.552 0-1.076.248-.525.249-.883.69-.331.442-.552.966-.193.497-.304 1.049t-.165 1.104q-.028.551-.028 1.103v7.755zm15.951.22q-.552 0-1.104-.11-.552-.082-1.048-.33-.47-.276-.856-.69-.359-.414-.607-.911-.22-.497-.331-1.049-.083-.552-.083-1.104 0-.717.166-1.407.193-.69.607-1.242.442-.58 1.021-.966.607-.386 1.27-.607.69-.22 1.38-.303.717-.083 1.434-.083h2.457v-1.49q0-.58-.194-1.16-.193-.579-.634-.965-.442-.387-1.021-.552-.58-.166-1.16-.166-.551 0-1.103.11-.525.111-.966.415-.442.303-.69.8t-.248 1.021h-2.153q0-.635.166-1.242.193-.607.552-1.131t.855-.883q.524-.387 1.104-.607.58-.249 1.214-.331.635-.083 1.27-.083.662 0 1.324.11.663.083 1.27.36.607.275 1.104.717.524.442.855 1.021.331.58.47 1.242.137.662.137 1.325v10.072h-2.152v-2.373q-.248.607-.718 1.131-.441.497-1.02.856-.58.33-1.243.469-.662.138-1.324.138zm.828-1.931q.662 0 1.325-.193.69-.194 1.186-.635.497-.442.718-1.076.248-.663.248-1.353v-1.683h-2.456q-.442 0-.856.055-.413.028-.827.138-.387.083-.773.276-.387.166-.69.47t-.442.717q-.138.386-.138.8 0 .524.166 1.021.193.497.58.856.386.358.91.496.525.11 1.049.11zm13.44 1.932q-.69 0-1.38-.194-.663-.193-1.215-.607t-.938-.993q-.359-.58-.58-1.215-.22-.662-.303-1.352t-.083-1.38v-3.587q0-.69.083-1.38t.303-1.325q.221-.662.58-1.241.386-.58.938-.994t1.214-.607q.69-.193 1.38-.193.635 0 1.242.166.635.165 1.132.551.524.36.883.911.359.524.58 1.104v-8.169h2.152v20.284h-2.153v-2.512q-.22.58-.58 1.132-.358.524-.882.91-.497.36-1.132.525-.607.166-1.242.166m.827-1.932q.47 0 .91-.11.47-.139.829-.414.359-.276.607-.663.276-.386.414-.8.138-.441.193-.883.055-.47.055-.938v-3.588q0-.469-.055-.91-.055-.47-.193-.884-.138-.441-.414-.827-.248-.414-.607-.69-.36-.276-.828-.387-.442-.11-.91-.11-.47 0-.94.11-.44.11-.827.387-.386.248-.69.634-.276.387-.441.828-.166.442-.221.91-.055.47-.055.94v3.587q0 .469.055.938.055.47.22.91.166.442.442.829.304.386.69.662.386.248.828.359.47.11.938.11zm8.997 1.71v-1.931h3.946v-10.762h-3.56v-1.932h5.712v12.694h3.56v1.932zm4.829-17.192q-.359 0-.69-.082-.331-.11-.58-.36-.248-.248-.358-.579-.083-.331-.083-.69t.083-.69q.11-.33.358-.58.249-.247.58-.358t.69-.11q.359 0 .69.11t.58.359.358.58q.11.33.11.69 0 .358-.11.69-.11.33-.359.579-.248.248-.58.359-.33.082-.69.082m15.757 17.414q-.662 0-1.324-.166-.663-.166-1.215-.552-.524-.387-.91-.938-.36-.58-.58-1.187-.22-.635-.303-1.297t-.083-1.325v-7.45h-3.035v-1.932h3.035v-5.658h2.153v5.658h4.47v1.931h-4.47v7.451q0 .387.027.8.028.387.11.773.112.36.277.745.165.36.414.635.276.276.662.442.387.138.773.138.524 0 .993-.248.497-.249.773-.69.276-.47.386-.994.111-.524.111-1.049 0-.027-.028-.082v-.083h2.153v.276q0 .608-.11 1.215-.111.607-.36 1.186-.248.552-.662 1.049-.386.47-.91.8-.525.304-1.132.414-.607.138-1.214.138zm7.01-.221v-1.932h3.946v-10.762h-3.56v-1.932h5.712v12.694h3.56v1.932zm4.83-17.193q-.36 0-.69-.082-.332-.11-.58-.36-.249-.248-.36-.579-.082-.331-.082-.69t.083-.69q.11-.33.359-.58.248-.247.58-.358.33-.11.69-.11.358 0 .689.11t.58.359.358.58q.111.33.111.69 0 .358-.11.69-.111.33-.36.579-.248.248-.579.359-.331.082-.69.082m13.797 17.414q-.745 0-1.49-.166-.745-.138-1.38-.497t-1.159-.91q-.497-.58-.8-1.242-.304-.69-.414-1.435t-.11-1.49v-3.588q0-.745.11-1.49t.414-1.408q.303-.69.8-1.242.524-.58 1.16-.938.634-.359 1.379-.497.745-.165 1.49-.165t1.49.165q.745.139 1.38.497.635.36 1.132.938.524.552.828 1.242.303.663.413 1.408.111.745.111 1.49v3.587q0 .746-.11 1.49-.11.746-.414 1.436-.304.662-.828 1.241-.497.552-1.132.911t-1.38.497q-.745.166-1.49.166m0-1.932q.47 0 .938-.11.47-.111.856-.36.386-.275.662-.662.304-.386.47-.827.165-.442.22-.911t.055-.938v-3.588q0-.47-.055-.938-.055-.47-.22-.91-.166-.442-.47-.829-.276-.386-.662-.635-.387-.275-.856-.386t-.938-.11-.938.11q-.47.11-.856.386-.386.249-.69.635-.275.387-.441.828-.166.442-.22.91-.056.47-.056.94v3.587q0 .469.055.938t.221.91.442.828q.303.387.69.663.386.248.855.359.47.11.938.11m8.665 1.71v-14.625h2.153v2.511q.22-.58.58-1.104.358-.524.855-.91.524-.387 1.131-.552.635-.166 1.242-.166.69 0 1.352.193t1.16.635q.524.414.882 1.02.36.58.552 1.243.221.634.276 1.324.083.663.083 1.325v9.107h-2.153v-9.107q0-.47-.055-.91-.055-.47-.193-.884-.138-.441-.414-.828-.248-.386-.607-.662t-.8-.386q-.442-.139-.91-.139-.47 0-.912.139-.441.11-.8.386t-.635.662q-.248.387-.386.828-.138.414-.193.883-.055.442-.055.911v9.107zm17.607.222q-.552 0-1.104-.11-.552-.083-1.049-.332-.469-.275-.855-.69-.36-.414-.607-.91-.221-.497-.331-1.049-.083-.552-.083-1.104 0-.717.166-1.407.193-.69.607-1.242.441-.58 1.02-.966.608-.386 1.27-.607.69-.22 1.38-.303.718-.083 1.435-.083h2.456v-1.49q0-.58-.193-1.16-.193-.579-.635-.965-.441-.387-1.02-.552-.58-.166-1.16-.166-.552 0-1.104.11-.524.111-.965.415-.442.303-.69.8-.249.497-.249 1.021h-2.152q0-.635.165-1.242.194-.607.552-1.131.36-.524.856-.883.524-.387 1.104-.607.58-.249 1.214-.331.635-.083 1.27-.083.662 0 1.324.11.662.083 1.27.36.607.275 1.103.717.525.442.856 1.021.33.58.469 1.242t.138 1.325v10.072h-2.152v-2.373q-.249.607-.718 1.131-.442.497-1.021.856-.58.33-1.242.469t-1.324.138zm.828-1.932q.662 0 1.324-.193.69-.194 1.187-.635.497-.442.717-1.076.249-.663.249-1.353v-1.683h-2.456q-.442 0-.856.055-.414.028-.828.138-.386.083-.772.276-.387.166-.69.47-.304.303-.442.717-.138.386-.138.8 0 .524.166 1.021.193.497.58.856.386.358.91.496.524.11 1.049.11zm9.465 1.71v-1.931h3.946v-16.42h-3.56v-1.932h5.713v18.352h3.56v1.932zM609.73 405.137v-1.932h3.946v-16.42h-3.56v-1.931h5.713v18.351h3.56v1.932zm17.303.22q-.552 0-1.104-.11-.552-.082-1.048-.33-.47-.276-.856-.69-.359-.414-.607-.911-.22-.497-.331-1.049-.083-.552-.083-1.104 0-.717.166-1.407.193-.69.607-1.242.442-.58 1.021-.966.607-.386 1.27-.607.69-.22 1.38-.303.717-.083 1.434-.083h2.457v-1.49q0-.58-.194-1.16-.193-.579-.634-.965-.442-.387-1.021-.552-.58-.166-1.16-.166-.551 0-1.103.11-.525.111-.966.415-.442.303-.69.8t-.248 1.021h-2.153q0-.634.166-1.242.193-.607.552-1.131t.855-.883q.524-.387 1.104-.607.58-.249 1.214-.331.635-.083 1.27-.083.662 0 1.324.11.663.083 1.27.36.607.275 1.104.717.524.441.855 1.02.331.58.47 1.243.137.662.137 1.324v10.073h-2.152v-2.373q-.248.607-.718 1.131-.441.497-1.02.856-.58.33-1.243.469-.662.138-1.324.138zm.828-1.93q.662 0 1.325-.194.69-.193 1.186-.635.497-.441.718-1.076.248-.662.248-1.352v-1.684h-2.456q-.442 0-.856.056-.413.027-.827.138-.387.082-.773.276-.387.165-.69.469t-.442.717q-.138.387-.138.8 0 .525.166 1.022.193.496.58.855t.91.497q.525.11 1.049.11zm9.162 1.71v-14.626h2.152v2.511q.221-.58.58-1.103.359-.525.855-.911.525-.387 1.132-.552.635-.166 1.242-.166.69 0 1.352.193.662.194 1.159.635.524.414.883 1.021.359.58.552 1.242.22.635.276 1.325.083.662.083 1.324v9.107h-2.153v-9.107q0-.469-.055-.91-.055-.47-.193-.883-.138-.442-.414-.828-.249-.387-.607-.663-.36-.275-.8-.386-.442-.138-.911-.138t-.911.138q-.442.11-.8.386t-.635.663q-.248.386-.387.828-.138.414-.193.883-.055.441-.055.91v9.107zm18.848 5.878q-.635 0-1.27-.11-.606-.083-1.186-.331-.58-.221-1.076-.635-.497-.387-.856-.91-.33-.525-.524-1.132-.166-.607-.193-1.242h2.152q.028.552.249 1.021.248.497.662.828.441.33.966.441.524.139 1.076.139.47 0 .91-.11.47-.111.829-.387.386-.276.634-.662.276-.387.414-.828.166-.442.221-.91.055-.442.055-.912v-2.649q-.22.58-.58 1.132-.358.524-.882.91-.497.36-1.132.525-.607.165-1.242.165-.69 0-1.38-.193-.662-.193-1.214-.607t-.938-.994q-.359-.58-.58-1.214-.22-.662-.303-1.352t-.083-1.38v-3.587q0-.69.083-1.38t.303-1.325q.221-.662.58-1.242.386-.58.938-.993t1.214-.607q.69-.193 1.38-.193.635 0 1.242.165.635.166 1.132.552.524.36.883.91.358.525.58 1.105v-2.512h2.152v14.764q0 .746-.11 1.463-.111.745-.414 1.407-.276.69-.773 1.242-.47.58-1.104.939-.635.386-1.38.524-.717.166-1.435.166zm.055-7.589q.47 0 .91-.11.47-.111.829-.387t.607-.662q.276-.414.414-.828.138-.442.193-.883.055-.47.055-.938v-3.588q0-.47-.055-.91-.055-.47-.193-.884-.138-.441-.414-.828-.248-.414-.607-.69-.36-.275-.828-.386-.442-.11-.91-.11-.47 0-.94.11-.44.11-.827.386-.386.249-.69.635-.276.387-.441.828-.166.442-.221.91-.055.47-.055.94v3.587q0 .469.055.938t.22.91.442.828q.304.387.69.663.386.248.828.359.47.11.938.11m12.998 1.932q-.69 0-1.352-.193-.663-.194-1.187-.607-.497-.442-.855-1.021-.36-.608-.58-1.242-.193-.663-.276-1.325-.055-.69-.055-1.352v-9.107h2.153v9.107q0 .469.055.938.055.442.193.883.138.414.386.8.276.387.635.663.36.276.8.414.442.11.911.11t.91-.11q.442-.138.801-.414t.607-.662q.276-.387.414-.8.138-.442.193-.884.056-.469.056-.938v-9.107h2.152v14.626h-2.152v-2.511q-.221.58-.58 1.104t-.883.91q-.497.387-1.132.552-.607.166-1.214.166zm13.301 0q-.552 0-1.103-.11-.552-.083-1.05-.332-.468-.275-.855-.69-.359-.413-.607-.91-.22-.497-.331-1.049-.083-.552-.083-1.104 0-.717.166-1.407.193-.69.607-1.242.442-.58 1.021-.966.607-.386 1.27-.607.69-.22 1.38-.303.717-.083 1.434-.083h2.456v-1.49q0-.58-.193-1.16-.193-.579-.634-.965-.442-.387-1.022-.552-.579-.166-1.159-.166-.551 0-1.103.11-.525.111-.966.415-.442.303-.69.8t-.248 1.021h-2.153q0-.634.166-1.242.193-.607.552-1.131t.855-.883q.524-.387 1.104-.607.58-.249 1.214-.331.635-.083 1.27-.083.662 0 1.324.11.663.083 1.27.36.607.275 1.104.717.524.441.855 1.02.331.58.47 1.243.137.662.137 1.324v10.073h-2.152v-2.373q-.249.607-.718 1.131-.441.497-1.02.856-.58.33-1.243.469-.662.138-1.324.138zm.828-1.932q.663 0 1.325-.193.69-.193 1.187-.635.496-.441.717-1.076.248-.662.248-1.352v-1.684h-2.456q-.441 0-.855.056-.414.027-.828.138-.387.082-.773.276-.386.165-.69.469t-.441.717q-.138.387-.138.8 0 .525.165 1.022.194.496.58.855t.91.497q.525.11 1.05.11zm14.212 7.59q-.634 0-1.27-.111-.606-.083-1.186-.331-.58-.221-1.076-.635-.497-.387-.856-.91-.33-.525-.524-1.132-.166-.607-.193-1.242h2.152q.028.552.249 1.021.248.497.662.828.442.33.966.441.524.139 1.076.139.47 0 .91-.11.47-.111.829-.387.386-.276.634-.662.276-.387.414-.828.166-.442.221-.91.055-.442.055-.912v-2.649q-.22.58-.58 1.132-.358.524-.882.91-.497.36-1.132.525-.607.165-1.242.165-.69 0-1.38-.193-.662-.193-1.214-.607t-.938-.994q-.359-.58-.58-1.214-.22-.662-.303-1.352t-.082-1.38v-3.587q0-.69.082-1.38.083-.69.304-1.325.22-.662.58-1.242.386-.58.937-.993.552-.414 1.215-.607.69-.193 1.38-.193.634 0 1.241.165.635.166 1.132.552.524.36.883.91.359.525.58 1.105v-2.512h2.152v14.764q0 .746-.11 1.463-.111.745-.415 1.407-.276.69-.772 1.242-.47.58-1.104.939-.635.386-1.38.524-.718.166-1.435.166zm.055-7.59q.47 0 .911-.11.47-.111.828-.387.359-.276.607-.662.276-.414.414-.828.138-.442.193-.883.055-.47.055-.938v-3.588q0-.47-.055-.91-.055-.47-.193-.884-.138-.441-.414-.828-.248-.414-.607-.69t-.828-.386q-.441-.11-.91-.11t-.939.11q-.441.11-.828.386-.386.249-.69.635-.276.387-.441.828-.166.442-.221.91-.055.47-.055.94v3.587q0 .469.055.938t.22.91.442.828q.304.387.69.663.387.248.828.359.47.11.938.11m13.881 1.932q-.772 0-1.517-.138-.718-.138-1.38-.497-.663-.386-1.16-.938-.496-.58-.827-1.242-.304-.69-.414-1.435t-.11-1.49v-3.588q0-.745.11-1.49t.414-1.407q.303-.69.8-1.242.524-.58 1.16-.938.634-.36 1.379-.497.745-.166 1.49-.166t1.49.166q.745.138 1.38.497.635.358 1.132.938.524.552.827 1.242.304.662.414 1.407.111.745.111 1.49v2.76h-8.555v.828q0 .469.055.938.055.47.221.91.193.442.47.829.303.386.689.662.386.248.856.359.469.11.965.11.525 0 1.049-.11.552-.11.994-.387.469-.303.745-.772.276-.497.303-1.021h2.153q-.028.607-.249 1.214-.193.607-.58 1.131-.358.497-.882.883-.497.36-1.077.607-.58.221-1.214.304-.635.083-1.242.083zm-3.256-8.5h6.402v-.828q0-.469-.055-.938t-.22-.91-.47-.828q-.276-.387-.662-.635-.387-.276-.856-.387t-.938-.11-.938.11q-.47.11-.856.387-.386.248-.69.635-.275.386-.441.827-.166.442-.22.911-.056.47-.056.938zm16.972 8.5q-.635 0-1.242-.083-.607-.055-1.187-.248-.58-.22-1.104-.58-.496-.359-.883-.827-.359-.497-.552-1.104t-.193-1.215v-.027h2.153q0 .524.275.993.276.442.718.718.469.248.966.359.524.082 1.048.082.525 0 1.021-.082.525-.11.966-.36.47-.275.745-.744.304-.47.304-.994 0-.469-.276-.883-.248-.414-.662-.662-.387-.276-.856-.387-.441-.138-.91-.275-.442-.139-.911-.276-.442-.138-.883-.304-.442-.165-.883-.359-.414-.22-.8-.496t-.718-.608q-.331-.358-.58-.772-.22-.414-.33-.883t-.11-.939q0-.607.165-1.186.193-.58.524-1.076.331-.525.828-.884.497-.358 1.049-.58.58-.22 1.159-.303.607-.082 1.214-.082t1.187.082q.607.083 1.159.304.58.193 1.048.552.497.33.828.828.36.496.525 1.076.193.58.193 1.16v.027h-2.153q0-.497-.248-.939t-.662-.69q-.414-.276-.911-.359-.47-.11-.966-.11-.497 0-.993.11-.497.083-.911.36-.414.275-.662.744-.249.442-.249.939t.249.91q.276.414.662.69.414.249.855.387.47.11.911.248.47.138.91.276.47.138.911.303.442.166.856.387.442.193.828.469t.69.635q.331.331.552.745.248.414.359.883.138.441.138.938 0 .607-.193 1.214-.194.608-.552 1.104-.36.497-.884.856t-1.103.58q-.58.193-1.215.275-.607.083-1.214.083z" style="font-size:7.0123px;line-height:1.25;font-family:Iosevka;-inkscape-font-specification:&quot;Iosevka, Normal&quot;;text-align:center;text-anchor:middle;stroke-width:2.035;stroke-dasharray:none" transform="translate(5.606 -157.032)"/><path d="M171.91 571.845s13.497-75.161 161.22-77.251c145.427-2.058 200.627-194.003 326.942-193.129 89.667.621 183.561 117.047 233.97 228.395" style="fill:none;stroke:#000;stroke-width:2.035;stroke-linecap:butt;stroke-linejoin:miter;stroke-dasharray:8.14000034,2.03500009;stroke-dashoffset:0;stroke-opacity:1" transform="translate(5.606 -157.032)"/><g style="stroke-width:.51709944;stroke-dasharray:none"><path d="M201.764 251.773s-61.043-8.439-71.265-10.941c-35.897-8.788-54.269-58.068-71.828-57.763-15.525.27-34.352 43.79-40.403 68.704" style="opacity:1;fill:#fff;fill-opacity:.365854;stroke:#000;stroke-width:.51709944;stroke-linecap:butt;stroke-linejoin:miter;stroke-dasharray:none;stroke-opacity:1" transform="translate(104.503 -576.018)scale(3.93541)"/><path d="M50.8 200.556v-5.154h1.346q.19 0 .372.042.19.042.35.147.162.098.28.252.12.148.19.323.077.175.098.365.028.189.028.378 0 .246-.049.484-.042.239-.161.449-.12.203-.323.35-.196.148-.427.197l1.094 2.167h-.582l-1.08-2.132h-.59v2.132zm.547-2.623h.8q.118 0 .238-.035.119-.035.21-.105.098-.077.161-.183.063-.105.098-.217.035-.12.05-.238.013-.12.013-.246 0-.119-.014-.238-.014-.12-.049-.232-.035-.119-.098-.224t-.161-.175q-.091-.077-.21-.113-.12-.035-.239-.035h-.8zm4.053 2.679q-.176 0-.344-.05-.168-.048-.301-.154-.127-.112-.218-.26-.09-.153-.147-.315-.05-.168-.07-.336-.014-.176-.014-.344v-2.314h.547v2.314q0 .12.014.239.014.112.049.224.035.105.098.203.07.099.161.169.092.07.204.105.112.028.231.028t.232-.028q.112-.035.203-.105t.154-.169q.07-.098.105-.203.035-.112.05-.224.013-.12.013-.239v-2.314h.547v3.717h-.547v-.639q-.056.148-.147.281-.09.133-.224.231-.126.099-.288.14-.154.043-.308.043m3.71 0q-.162 0-.316-.021-.155-.014-.302-.063-.147-.056-.28-.148-.127-.09-.225-.21-.09-.126-.14-.28-.049-.155-.049-.309v-.007h.547q0 .133.07.252.07.113.182.183.12.063.246.09.133.022.266.022.134 0 .26-.021.133-.028.245-.091.12-.07.19-.19.077-.119.077-.252 0-.12-.07-.224-.064-.106-.169-.169-.098-.07-.217-.098-.112-.035-.232-.07-.112-.035-.231-.07-.112-.035-.224-.077-.113-.042-.225-.091-.105-.057-.203-.127t-.182-.154q-.085-.091-.148-.196-.056-.105-.084-.225-.028-.119-.028-.238 0-.154.042-.302.05-.147.133-.273.085-.133.21-.224.127-.092.267-.148.147-.056.295-.077.154-.02.308-.02.155 0 .302.02.154.021.294.077.148.05.267.14.126.085.21.21.091.127.133.274.05.148.05.295v.007h-.547q0-.126-.064-.239-.063-.112-.168-.175-.105-.07-.231-.091-.12-.028-.246-.028t-.252.028q-.126.02-.232.091-.105.07-.168.19-.063.112-.063.238t.063.231q.07.105.168.176.106.063.218.098.119.028.231.063.12.035.232.07.119.035.231.077t.217.098q.113.05.21.12.099.07.176.16.084.085.14.19.063.105.092.225.035.112.035.238 0 .154-.05.308-.049.155-.14.281-.09.126-.224.217-.133.092-.28.148-.148.049-.31.07-.153.02-.308.02m4.01 0q-.168 0-.336-.042-.169-.042-.309-.14-.133-.099-.231-.239-.091-.147-.148-.302-.056-.16-.077-.33-.02-.167-.02-.336v-1.893h-.772v-.49h.771v-1.438h.547v1.437h1.136v.49h-1.136v1.894q0 .098.007.204.007.098.028.196.028.091.07.19.043.09.106.16.07.07.168.113.098.035.196.035.134 0 .253-.063.126-.063.196-.176.07-.119.098-.252t.028-.266q0-.007-.007-.021v-.021h.547v.07q0 .154-.028.308-.028.155-.091.302-.063.14-.168.266-.098.12-.232.204-.133.077-.287.105-.154.035-.309.035z" aria-label="Rust" style="font-size:7.0123px;line-height:1.25;font-family:Iosevka;-inkscape-font-specification:&quot;Iosevka, Normal&quot;" transform="translate(104.503 -576.018)scale(3.93541)"/></g></svg>