<?xml version="1.0" encoding="UTF-8" standalone="no"?><svg xmlns="http://www.w3.org/2000/svg" xml:space="preserve" viewBox="0 0 300 300"><path d="M114.342 279.8124c-19.3482-11.1032-35.5432-20.5104-35.9888-20.905-.7603-.6734-.8102-3.2776-.8102-42.2558 0-32.674.1235-41.6374.5787-42.003.3183-.2557 42.4967-24.6563 93.7298-54.2234 51.2331-29.5672 93.2914-53.7585 93.4629-53.7585.1715 0 3.2535 1.6951 6.8489 3.767 3.5954 2.072 6.9017 4.0834 7.3473 4.47.7146.6198.8102 1.6691.8102 8.8926 0 7.2251-.0954 8.2721-.8102 8.8883-.4456.3841-21.4352 12.5923-46.6435 27.1292-25.2084 14.537-63.6459 36.7154-85.4167 49.2855l-39.5833 22.8547-.2867 3.4443c-.1577 1.8943-.314 8.6877-.3473 15.0962-.0333 6.4086.066 11.9815.2205 12.3843.1546.4028.4708.7323.7027.7323.2318 0 38.865-22.1938 85.8516-49.3195 46.9865-27.1258 85.6287-49.1969 85.8715-49.0468.2662.1645.4389 6.5562.435 16.102-.003 8.706-.1209 16.2558-.261 16.7774-.1735.646-3.603 2.8834-10.7575 7.0183-5.7766 3.3386-35.2946 20.38-65.5955 37.8699-30.301 17.4898-60.8804 35.1453-67.9543 39.2344-7.074 4.0891-12.7873 7.6627-12.6964 7.9412.091.2786 2.0246 1.599 4.297 2.9344 2.2723 1.3354 8.3314 4.8427 13.4647 7.794l9.3333 5.366 64.6201-37.3078c35.5411-20.5194 64.7266-37.308 64.8566-37.308.13 0 .2364 7.5829.2364 16.8508v16.8508l-23.4953 13.5613a907201.806 907201.806 0 0 0-64.641 37.3159C169.0916 289.3104 150.3385 300 150.0483 300c-.2902 0-16.358-9.0844-35.7063-20.1876zm-79.8546-45.8703c-7.7662-4.4796-14.2734-8.3762-14.4605-8.6592-.187-.2829-.3433-34.0758-.3472-75.0954-.0063-70.4581.0376-74.6199.8031-75.2842.4456-.3868 18.6227-10.975 40.3935-23.5293 21.7709-12.5544 50.6978-29.2494 64.282-37.1C138.7428 6.4232 149.9484 0 150.06 0c.1116 0 6.7576 3.7808 14.7689 8.4018 8.0113 4.621 14.566 8.5745 14.566 8.7856 0 .2111-.4688.6892-1.0417 1.0624-.573.3733-29.3488 17.0206-63.9464 36.994-34.5975 19.9735-63.2955 36.65-63.7731 37.059-.8163.699-.8685 1.6488-.8685 15.809 0 12.1259.1204 15.1116.6172 15.3022.3394.1303 2.3707-.7879 4.5139-2.0404 2.1432-1.2525 36.9175-21.3339 77.2763-44.6254 40.3588-23.2915 73.8447-42.5935 74.4132-42.8934.8655-.4567 1.3922-.3579 3.2407.608 1.214.6342 7.7274 4.3486 14.4741 8.254 6.7468 3.9055 12.3183 7.4023 12.381 7.7707.076.4461-13.0689 8.2716-39.3502 23.4262a781304.652 781304.652 0 0 0-91.7791 52.9343c-28.7732 16.598-53.0961 30.6835-54.051 31.3012l-1.736 1.1232v41.4286c0 32.8457-.12 41.4242-.5788 41.4072-.3183-.0118-6.9329-3.6865-14.699-8.1661z"/></svg>