<svg xmlns="http://www.w3.org/2000/svg" width="331.454" height="276.945" viewBox="-51.459 -25.732 123.184 53.447"><path d="M55.322-31.21a4.27 4.27 0 0 1-4.27-4.27 4.267 4.267 0 0 1 4.269-4.269 4.269 4.269 0 1 1 0 8.538m-42.4 72.944a4.27 4.27 0 0 1-4.268-4.27 4.267 4.267 0 0 1 4.268-4.269 4.266 4.266 0 0 1 4.266 4.269 4.27 4.27 0 0 1-4.266 4.27m42.4-85.029a7.816 7.816 0 0 0-7.815 7.816c0 .92.232 1.778.524 2.599L11.365 29.96c-3.543.743-6.26 3.739-6.26 7.504a7.816 7.816 0 0 0 7.816 7.815c4.314 0 7.813-3.5 7.813-7.815 0-.868-.233-1.661-.49-2.44l36.849-63.048c3.435-.824 6.045-3.769 6.045-7.456a7.816 7.816 0 0 0-7.816-7.816M23.342-31.21a4.27 4.27 0 0 1-4.268-4.27 4.267 4.267 0 0 1 4.268-4.269 4.266 4.266 0 0 1 4.266 4.269 4.27 4.27 0 0 1-4.266 4.27M-19.06 41.732a4.27 4.27 0 1 1 0-8.539 4.267 4.267 0 0 1 4.269 4.269 4.27 4.27 0 0 1-4.269 4.27m42.403-85.029a7.814 7.814 0 0 0-7.816 7.816c0 .92.233 1.778.525 2.599L-20.614 29.96c-3.546.743-6.263 3.739-6.263 7.504a7.816 7.816 0 0 0 15.632 0c0-.868-.233-1.661-.49-2.44l36.849-63.048c3.435-.824 6.044-3.769 6.044-7.456a7.82 7.82 0 0 0-7.816-7.816m-58.397 25.152a4.27 4.27 0 0 1 4.269 4.269 4.268 4.268 0 1 1-4.269-4.269m0 12.085a7.816 7.816 0 0 0 7.815-7.816c0-.864-.235-1.66-.494-2.44-1.035-3.103-3.872-5.376-7.321-5.376-.551 0-1.036.206-1.557.317-3.543.739-6.26 3.734-6.26 7.5a7.816 7.816 0 0 0 7.817 7.815m-4.27 19.494a4.27 4.27 0 1 1 8.539 0 4.27 4.27 0 0 1-4.27 4.266 4.27 4.27 0 0 1-4.268-4.266m12.084 0c0-.868-.235-1.661-.494-2.44-1.035-3.104-3.869-5.376-7.321-5.376-.551 0-1.036.205-1.557.313-3.543.742-6.26 3.738-6.26 7.503 0 4.313 3.5 7.816 7.817 7.816a7.82 7.82 0 0 0 7.815-7.816"/></svg>