<?xml version="1.0" encoding="UTF-8" standalone="no"?>
<!-- Created with Inkscape (http://www.inkscape.org/) -->

<svg
   width="148.34068mm"
   height="228.03987mm"
   viewBox="0 0 148.34068 228.03987"
   version="1.1"
   id="svg1"
   xml:space="preserve"
   sodipodi:docname="climb.svg"
   inkscape:version="1.3 (0e150ed, 2023-07-21)"
   xmlns:inkscape="http://www.inkscape.org/namespaces/inkscape"
   xmlns:sodipodi="http://sodipodi.sourceforge.net/DTD/sodipodi-0.dtd"
   xmlns="http://www.w3.org/2000/svg"
   xmlns:svg="http://www.w3.org/2000/svg"><sodipodi:namedview
     id="namedview1"
     pagecolor="#ffffff"
     bordercolor="#666666"
     borderopacity="1.0"
     inkscape:showpageshadow="2"
     inkscape:pageopacity="0.0"
     inkscape:pagecheckerboard="0"
     inkscape:deskcolor="#d1d1d1"
     inkscape:document-units="mm"
     inkscape:zoom="0.082178028"
     inkscape:cx="-231.20535"
     inkscape:cy="413.7359"
     inkscape:window-width="1920"
     inkscape:window-height="1027"
     inkscape:window-x="0"
     inkscape:window-y="25"
     inkscape:window-maximized="0"
     inkscape:current-layer="layer1" /><defs
     id="defs1" /><g
     inkscape:label="Layer 1"
     inkscape:groupmode="layer"
     id="layer1"
     transform="translate(-86.43651,-32.95838)"><path
       style="fill:#000000;stroke-width:0.711167"
       d="M 160.767,260.9981 H 86.75616 l -0.15982,-5.13767 -0.15983,-5.13765 0.25039,-1.32263 c 0.137712,-0.72745 0.48654,-2.16938 0.775187,-3.20427 0.288635,-1.03491 1.093777,-3.40577 1.789191,-5.26859 0.695408,-1.86283 1.421884,-3.62913 1.614378,-3.92513 l 0.34999,-0.53818 0.615608,-2.96863 c 0.338567,-1.63275 0.615592,-3.09423 0.615592,-3.24774 v -0.27912 l -1.37987,-0.33103 c -0.758925,-0.18207 -1.37987,-0.40876 -1.37987,-0.50379 0,-0.095 -0.455628,-0.35173 -1.0125,-0.57047 l -1.0125,-0.39773 0.159932,-0.70659 c 0.08796,-0.38863 0.593298,-2.45794 1.122966,-4.59847 0.529658,-2.14053 1.027761,-4.0606 1.106897,-4.2668 l 0.143863,-0.37492 -0.547413,-0.24913 c -0.301081,-0.13704 -0.66054,-0.43336 -0.79883,-0.65853 l -0.251402,-0.40938 0.328541,-0.79319 c 0.180712,-0.43625 0.640376,-1.127 1.021487,-1.53498 l 0.69293,-0.74178 h 0.632749 0.632748 l 0.745398,-0.62721 c 0.409969,-0.34497 0.878427,-0.62722 1.040998,-0.62722 h 0.2956 l -0.51998,-0.66104 -0.51998,-0.66105 -5.35e-4,-1.03243 -5.35e-4,-1.03243 -1.494598,-0.72869 c -0.82203,-0.40079 -1.89431,-1.05818 -2.382831,-1.46086 l -0.888228,-0.73216 v -0.42685 c 0,-0.23478 0.505463,-1.31385 1.123255,-2.39793 0.617798,-1.0841 1.766998,-2.83129 2.553779,-3.88265 0.786787,-1.05136 2.228814,-2.71436 3.204503,-3.69555 l 1.773989,-1.78398 1.520805,-0.76737 c 0.836445,-0.42204 1.937206,-0.84547 2.446136,-0.94094 l 0.92532,-0.1736 -0.002,-0.41113 -0.002,-0.41113 -0.89231,-0.60774 -0.892305,-0.60774 -0.399199,-0.77195 -0.399198,-0.77196 0.01595,-1.05624 c 0.0088,-0.58092 0.146037,-1.45031 0.304994,-1.93198 l 0.289027,-0.87576 0.859481,-0.75464 0.85949,-0.75464 1.06319,-0.28628 1.0632,-0.28629 1.2373,0.16413 c 0.68052,0.0903 1.55777,0.32986 1.94947,0.53242 l 0.71217,0.36827 1.01827,1.28821 1.01828,1.28822 -0.32709,0.20746 c -0.1799,0.1141 -0.52466,0.20919 -0.76613,0.2113 l -0.43905,0.004 v 0.50982 c 0,0.28041 0.17956,0.92957 0.39904,1.44259 l 0.39904,0.93276 0.0612,1.43167 0.0612,1.43165 -0.35538,0.13638 c -0.19545,0.075 -0.55382,0.13637 -0.79635,0.13637 h -0.44098 l -0.29116,0.63902 c -0.16014,0.35145 -0.29115,0.68655 -0.29115,0.74465 0,0.0581 1.40977,1.16016 3.13282,2.44902 1.72306,1.28887 3.57232,2.5904 4.10946,2.89231 l 0.97664,0.54889 1.63338,-1.69259 c 0.89837,-0.93092 2.08878,-2.22581 2.64538,-2.87754 0.55661,-0.65172 1.09353,-1.44201 1.19315,-1.75619 0.0996,-0.31419 0.45376,-1.00324 0.78696,-1.53124 l 0.6058,-0.95999 0.83463,-0.34873 0.83463,-0.34873 1.17937,-1.79018 c 0.64867,-0.98461 1.9145,-3.15284 2.81297,-4.8183 0.89847,-1.66546 2.19661,-4.22239 2.88474,-5.68207 0.68814,-1.45967 2.211,-4.79903 3.38414,-7.42078 1.17313,-2.62175 3.41289,-7.98441 4.97723,-11.91703 1.56434,-3.93263 3.71009,-9.46465 4.76832,-12.29337 1.05824,-2.82874 2.80215,-7.57047 3.87536,-10.53719 1.07323,-2.96671 2.91846,-8.32938 4.10052,-11.91703 1.18207,-3.58767 2.67257,-8.21649 3.31223,-10.28629 0.63965,-2.0698 1.93343,-6.52928 2.87506,-9.90996 0.94163,-3.38067 2.01749,-7.27567 2.39079,-8.65554 l 0.67875,-2.508843 -0.94283,-0.752662 c -0.51855,-0.413956 -1.57131,-1.283407 -2.33948,-1.932106 l -1.39664,-1.179444 -0.18283,0.295824 c -0.10057,0.162711 -0.32119,1.069941 -0.49027,2.016077 l -0.30742,1.720241 -1.14773,-0.11901 c -0.63125,-0.06543 -1.5711,-0.271994 -2.08855,-0.458974 l -0.94081,-0.339942 v -0.264543 -0.264531 l -0.85417,-0.308881 -0.85417,-0.308864 -0.13304,-0.346714 -0.13305,-0.346703 0.46748,-1.543956 c 0.2571,-0.849174 0.65368,-1.828154 0.88128,-2.175516 l 0.41381,-0.631549 0.85858,-0.358747 c 0.47222,-0.197305 0.85858,-0.447245 0.85858,-0.555421 v -0.19669 l -1.67696,0.106784 -1.67695,0.106778 -0.83309,-0.448642 -0.83307,-0.448648 -0.66496,-1.359096 -0.66494,-1.359102 -0.11833,-1.84387 -0.11833,-1.84387 0.164,-0.653453 0.16401,-0.653447 1.3104,-0.616872 c 0.72071,-0.339279 1.02815,-0.538565 0.68318,-0.442861 -0.34496,0.0957 -0.96591,0.179255 -1.37987,0.185673 l -0.75265,0.01167 -0.45267,-0.878096 -0.45266,-0.878095 0.13872,-1.09883 0.13872,-1.098825 0.48478,-0.78281 0.48478,-0.782815 0.8327,-0.501769 0.83271,-0.50177 1.81892,0.01028 c 1.0004,0.0057 1.8182,-0.0508 1.81732,-0.125445 -5.3e-4,-0.07466 -0.33158,-0.323484 -0.73491,-0.552944 l -0.73332,-0.417199 -0.42202,-0.816079 -0.42201,-0.81608 0.11999,-1.064497 0.11998,-1.064493 0.57307,-0.804804 0.57307,-0.804804 1.02836,-0.467025 1.02836,-0.467026 0.82344,-0.0055 0.82343,-0.0055 0.88596,0.370173 0.88594,0.370172 -0.23653,0.422672 -0.23654,0.422666 0.466,1.026078 c 0.25631,0.564338 0.46848,1.287517 0.47151,1.607057 0.003,0.319544 0.12451,0.803333 0.26995,1.075089 l 0.26443,0.494103 0.92727,-0.15955 c 0.51,-0.08775 1.774,-0.323821 2.80891,-0.524598 1.0349,-0.200777 2.78482,-0.645449 3.88872,-0.988166 1.10389,-0.342713 2.61653,-0.929132 3.36141,-1.303147 l 1.35433,-0.680024 0.62667,-1.505313 c 0.34466,-0.827923 1.39255,-3.576598 2.32862,-6.108172 0.93608,-2.531575 1.7381,-4.630794 1.78228,-4.664933 0.0442,-0.03413 1.48945,-1.180452 3.21171,-2.547362 l 3.13139,-2.485294 2.38808,-1.448629 2.38808,-1.448629 1.1587,-2.189205 1.15869,-2.189204 4.03643,-3.066009 4.03644,-3.066009 3.83674,1.873048 c 2.11021,1.030176 5.30441,2.467156 7.09824,3.193287 l 3.26151,1.32024 0.25417,1.598447 0.25417,1.598449 3.5091,1.233634 3.5091,1.233634 0.87811,0.701058 c 0.48294,0.385582 1.78128,1.377019 2.88517,2.203193 1.1039,0.826173 3.05768,2.20615 4.34173,3.066613 l 2.33465,1.56448 0.14805,0.423192 c 0.0814,0.232757 0.50739,1.215754 0.9466,2.184442 l 0.79857,1.761243 0.78263,0.891373 0.78264,0.891375 0.26651,9.766193 c 0.14659,5.371405 0.37498,13.943427 0.50754,19.048941 0.13256,5.105514 0.29981,10.637531 0.37167,12.293372 0.0719,1.655826 0.18758,4.591186 0.25715,6.522996 0.0695,1.93182 0.23763,7.74609 0.37346,12.92059 0.13583,5.17451 0.36552,14.37572 0.51041,20.44714 0.1449,6.07142 0.37019,15.10328 0.50064,20.07081 l 0.23719,9.03186 0.17103,46.10013 0.17103,46.10013 z m 29.40643,-3.56106 c 0.0431,-0.0431 0.31311,-1.65859 0.59999,-3.58997 0.28689,-1.93137 0.96639,-7.97107 1.51,-13.42156 0.54361,-5.45046 1.10939,-11.37763 1.25731,-13.17146 0.14791,-1.79383 0.38563,-5.06788 0.52828,-7.27566 0.14264,-2.2078 0.37473,-7.34466 0.51575,-11.41528 0.14102,-4.0706 0.34436,-11.35254 0.45186,-16.18209 l 0.19546,-8.78098 -0.12424,-5.08461 -0.12424,-5.08462 -0.15042,0.15043 c -0.0827,0.0827 -0.33419,1.74986 -0.55879,3.70475 -0.2246,1.95487 -0.64706,5.30424 -0.93879,7.44304 -0.29173,2.13879 -0.75137,6.09023 -1.02141,8.78098 -0.27005,2.69074 -0.60841,6.52928 -0.75189,8.53009 -0.14349,2.00081 -0.37575,6.06515 -0.51614,9.03187 -0.14038,2.9667 -0.31171,5.95851 -0.38074,6.64845 -0.0691,0.68994 -0.3046,5.31877 -0.52349,10.28629 l -0.398,9.03186 -0.0154,8.40465 -0.0154,8.40465 0.19091,1.83378 c 0.105,1.00858 0.22618,1.7985 0.2693,1.75539 z m -93.384968,-3.05788 c 1.682718,-0.0933 3.830528,-0.23985 4.772908,-0.32563 l 1.71342,-0.15598 -0.17427,-3.78811 -0.17428,-3.78812 1.25866,-5.26858 c 0.69227,-2.89773 1.39235,-5.85476 1.55573,-6.57118 l 0.29706,-1.30258 -0.15898,-0.5009 c -0.0874,-0.2755 -1.12931,-1.60861 -2.31526,-2.96247 -1.18597,-1.35385 -2.22487,-2.43991 -2.30869,-2.41346 -0.0838,0.0264 -0.33636,0.85514 -0.56123,1.84155 -0.22486,0.9864 -0.5981,3.05337 -0.829403,4.59327 -0.231307,1.53991 -0.474598,3.16036 -0.540668,3.601 l -0.120123,0.80118 -1.604904,3.25381 -1.604898,3.2538 -0.500448,1.71538 c -0.275253,0.94345 -0.738177,2.95726 -1.028745,4.47511 -0.290563,1.51786 -0.574884,2.97389 -0.631838,3.23565 l -0.10354,0.47591 z m 58.663618,-5.54899 c 0.54278,-2.62175 1.43869,-7.36348 1.99092,-10.53717 0.55224,-3.1737 1.27535,-7.68964 1.60691,-10.03541 0.33157,-2.34577 0.88599,-6.69236 1.23206,-9.65908 0.34607,-2.96671 0.68748,-6.18431 0.7587,-7.15022 l 0.12948,-1.75619 -0.35788,1.37987 c -0.19683,0.75892 -0.75174,3.30182 -1.23315,5.65088 -0.4814,2.34907 -1.43904,7.65529 -2.12809,11.79161 -0.68905,4.13632 -1.53483,9.83499 -1.8795,12.66372 -0.34468,2.82872 -0.74579,6.3044 -0.89138,7.72371 -0.14558,1.41931 -0.2535,3.05633 -0.23981,3.63783 l 0.0249,1.05727 z m -38.42029,4.27776 2.88697,-0.17342 0.2761,-0.29598 c 0.15185,-0.16278 0.46707,-1.19915 0.70049,-2.30305 0.23342,-1.1039 1.11044,-4.94244 1.94892,-8.5301 0.83847,-3.58765 3.09076,-12.78886 5.00509,-20.44713 1.91431,-7.65827 3.60734,-14.40086 3.76229,-14.98354 l 0.28172,-1.05942 1.95378,-1.24044 1.95379,-1.24043 0.14362,-0.71076 c 0.079,-0.39092 0.32227,-1.78331 0.54059,-3.09418 0.21832,-1.31088 0.95151,-5.37521 1.62932,-9.03186 0.6778,-3.65665 1.96743,-10.2612 2.86585,-14.67678 0.89841,-4.41558 1.79674,-8.62811 1.99627,-9.36117 0.19954,-0.73307 0.54121,-1.57981 0.7593,-1.88164 0.21808,-0.30183 1.00463,-1.3222 1.74791,-2.26747 l 1.3514,-1.71868 0.93053,-3.17359 c 0.5118,-1.74546 1.08079,-3.53613 1.26444,-3.97926 0.18364,-0.44313 1.34235,-2.09585 2.57492,-3.6727 l 2.24104,-2.867 0.54569,-2.97576 c 0.30014,-1.63667 1.05639,-5.74176 1.68057,-9.12244 0.62417,-3.38067 1.35047,-7.27567 1.61401,-8.65554 0.26353,-1.37986 1.10365,-5.78291 1.86691,-9.78452 0.76326,-4.00162 1.73302,-8.91269 2.15501,-10.91349 0.42199,-2.00082 1.11407,-5.044034 1.53797,-6.762707 l 0.7707,-3.124852 -0.83985,-0.701141 c -0.46191,-0.385624 -0.90301,-0.701136 -0.98021,-0.701136 -0.0772,0 -0.57993,1.6088 -1.11715,3.575111 -0.53724,1.966316 -1.6406,5.945975 -2.45193,8.843705 -0.81134,2.89772 -2.04314,7.07495 -2.73732,9.28274 -0.6942,2.20779 -2.00222,6.27213 -2.90672,9.03186 -0.9045,2.75974 -2.46559,7.33212 -3.46909,10.16085 -1.00351,2.82873 -2.67349,7.40111 -3.71106,10.16084 -1.03757,2.75974 -2.67042,7.04988 -3.62856,9.53364 -0.95812,2.48377 -2.76014,6.9997 -4.00448,10.03541 -1.24434,3.0357 -3.08789,7.32584 -4.09675,9.53363 -1.00888,2.20779 -2.83887,5.98158 -4.06665,8.3862 -1.22779,2.40462 -2.91224,5.45126 -3.74325,6.7703 l -1.51091,2.39825 0.3937,1.23115 0.3937,1.23113 -0.32834,0.77955 c -0.18059,0.42874 -0.73768,1.26743 -1.23798,1.86375 l -0.90964,1.0842 -0.25532,0.94818 c -0.14042,0.5215 -0.36457,2.28864 -0.49811,3.92699 l -0.24279,2.97883 0.24677,2.51535 c 0.13572,1.38343 0.46404,3.98302 0.72961,5.77684 0.26557,1.79383 0.55003,3.99535 0.63216,4.89226 l 0.14932,1.63076 -0.38979,1.29832 -0.38978,1.29832 -0.76778,0.64604 -0.76778,0.64604 h -0.63195 -0.63196 l -0.71059,-0.50599 -0.71061,-0.50599 -0.27082,-0.82064 -0.27084,-0.82063 -0.52796,-0.0398 c -0.29038,-0.0219 -0.7567,-0.2434 -1.03628,-0.4923 -0.27958,-0.24888 -0.67872,-0.84766 -0.88697,-1.33062 l -0.37866,-0.87809 -0.12167,-3.19561 -0.12168,-3.1956 -0.314,-0.2606 -0.31399,-0.26059 -0.16023,0.85407 -0.16023,0.85408 -0.60959,0.65776 -0.6096,0.65777 h -1.07904 -1.07904 l -1.74546,-0.49916 -1.74547,-0.49916 -0.18127,0.18555 -0.18128,0.18555 0.58312,1.25443 0.58311,1.25443 0.67833,0.62721 c 0.37308,0.34497 0.83695,0.93207 1.03081,1.30469 l 0.3525,0.67747 v 0.98299 0.98299 l 1.12898,1.12898 1.12898,1.12899 v 0.72984 0.72984 l -0.40074,0.57213 -0.40074,0.57214 0.28391,0.68544 c 0.15616,0.37698 0.73128,1.3583 1.27804,2.18069 l 0.99413,1.49527 5.4e-4,0.84188 c 2.8e-4,0.46304 -0.16568,1.48434 -0.36915,2.26955 -0.20347,0.78521 -0.82965,3.79332 -1.39151,6.68467 l -1.02156,5.25701 -0.1489,2.16377 -0.14891,2.16378 0.16468,0.65612 0.16468,0.65612 1.31121,1.03645 1.31122,1.03646 z m 22.55573,-0.38904 c 0.14577,0 0.42259,-0.25402 0.61515,-0.5645 0.19257,-0.31046 0.65748,-1.80637 1.03315,-3.32422 0.37566,-1.51786 1.18304,-4.84835 1.79416,-7.40111 0.61112,-2.55275 1.55548,-6.6171 2.09857,-9.03186 0.5431,-2.41477 1.6633,-7.4952 2.48934,-11.28983 0.82604,-3.79464 2.57519,-12.20556 3.88702,-18.69094 1.31181,-6.48538 3.19008,-15.91238 4.17393,-20.94891 0.98385,-5.03652 2.67789,-14.01193 3.76453,-19.94536 1.08663,-5.93344 2.88073,-15.24754 3.9869,-20.69802 1.10615,-5.45048 2.12637,-10.24866 2.26715,-10.66262 l 0.25595,-0.75265 -0.12443,1.50531 c -0.0684,0.82792 -0.23982,3.14233 -0.38083,5.14314 -0.14102,2.00081 -0.36496,5.21841 -0.49766,7.15023 -0.13269,1.93181 -0.2344,4.07687 -0.22601,4.76681 l 0.0152,1.25443 1.19629,-6.14668 c 0.65797,-3.38068 1.4016,-7.36084 1.65252,-8.84479 0.25091,-1.48396 0.49583,-2.65849 0.54425,-2.61006 0.0484,0.0484 -0.082,1.93995 -0.28971,4.2034 -0.20777,2.26346 -0.49727,5.30081 -0.64333,6.74967 -0.14607,1.44886 -0.48439,4.44067 -0.75184,6.64846 -0.26744,2.20779 -0.76864,6.89307 -1.11378,10.41173 -0.34513,3.51867 -0.84963,8.82489 -1.1211,11.79159 -0.27149,2.96673 -0.72338,8.49874 -1.00422,12.29338 -0.28085,3.79464 -0.56298,8.81861 -0.62697,11.16439 l -0.11634,4.26504 0.36036,-2.00708 c 0.1982,-1.10389 0.64243,-3.92635 0.98719,-6.27213 0.34476,-2.34577 1.02783,-7.25685 1.51792,-10.91349 0.49011,-3.65666 1.17674,-8.62418 1.52586,-11.03895 0.34911,-2.41477 1.03044,-6.9307 1.51405,-10.0354 0.48362,-3.10471 0.99921,-6.41149 1.14576,-7.34841 0.14654,-0.93692 0.31229,-1.65765 0.36832,-1.60162 0.056,0.056 -0.12297,3.58861 -0.39778,7.85017 -0.27481,4.26157 -0.56428,9.83693 -0.64328,12.38968 -0.079,2.55276 -0.19296,5.20587 -0.25327,5.8958 l -0.10963,1.25443 0.21817,-0.50177 c 0.12,-0.27598 0.79356,-5.29995 1.49681,-11.16439 0.70324,-5.86444 1.45197,-12.58188 1.66384,-14.92766 0.21188,-2.34577 0.78269,-8.32938 1.26848,-13.29691 0.48581,-4.96753 0.99109,-10.27374 1.12287,-11.7916 0.13178,-1.51785 0.35138,-3.88872 0.48799,-5.26858 0.13662,-1.37987 0.35918,-3.86364 0.49459,-5.51947 0.13541,-1.65585 0.58313,-7.01852 0.99494,-11.91705 0.41182,-4.898527 0.818,-9.716122 0.90263,-10.705766 l 0.15387,-1.799345 -0.48998,-0.489982 c -0.26949,-0.269489 -0.58877,-0.532319 -0.7095,-0.584065 -0.12075,-0.05176 -0.38888,-0.394091 -0.59586,-0.760782 -0.20698,-0.366685 -1.75023,-2.076365 -3.42944,-3.799288 l -3.05311,-3.132582 -1.59158,1.067698 c -0.87536,0.587239 -1.71217,1.224381 -1.85956,1.415879 -0.1474,0.191498 -0.47437,1.277487 -0.7266,2.413305 l -0.45859,2.065124 1.75394,1.949032 c 0.96468,1.071981 1.95054,2.252265 2.19081,2.622874 l 0.43684,0.673837 -0.91876,3.967543 c -0.50533,2.182148 -1.07806,4.583978 -1.27274,5.337398 l -0.35396,1.36986 v 1.39677 1.39677 l 0.40605,0.57973 c 0.22334,0.31885 1.01363,0.96839 1.75621,1.4434 l 1.35013,0.86368 v 0.48523 0.48523 l -0.48527,0.25971 -0.48528,0.25972 h -1.15793 -1.15794 l -0.76351,-0.39483 c -0.41993,-0.21716 -0.80037,-0.35798 -0.8454,-0.31294 -0.045,0.045 -0.54274,2.7347 -1.106,5.97702 -0.56327,3.24232 -1.30761,7.47571 -1.6541,9.40753 -0.34648,1.93182 -0.97322,5.48811 -1.39275,7.90288 -0.41954,2.41476 -1.14813,6.43339 -1.6191,8.93028 -0.47097,2.49689 -0.97588,4.85431 -1.12202,5.23871 -0.14616,0.38439 -0.75616,1.24437 -1.35557,1.91107 l -1.08984,1.21216 -0.42963,1.7029 c -0.23629,0.9366 -0.70599,2.94478 -1.04377,4.46264 -0.33778,1.51785 -1.00572,4.5765 -1.4843,6.797 -0.47858,2.22052 -1.03181,4.47848 -1.22938,5.01771 l -0.35923,0.98042 -0.0177,-0.54412 c -0.01,-0.29927 0.37716,-3.68622 0.85972,-7.52656 0.48257,-3.84034 0.86905,-7.15177 0.85882,-7.35875 -0.0102,-0.20698 -0.56365,1.22559 -1.22985,3.18348 -0.66619,1.95789 -1.56576,4.25742 -1.99903,5.11005 -0.43329,0.85263 -1.16311,2.13696 -1.62185,2.85408 l -0.83404,1.30384 -0.63856,3.49607 c -0.35122,1.92284 -1.10258,5.97983 -1.6697,9.01555 -0.56712,3.03571 -1.30375,6.9307 -1.63697,8.65553 -0.3332,1.72484 -0.90615,4.97826 -1.27319,7.22984 -0.36706,2.25159 -0.60685,4.15431 -0.53287,4.22829 0.074,0.074 0.57938,-0.75214 1.12311,-1.83582 0.54373,-1.08367 1.19199,-2.61811 1.44058,-3.40986 0.24859,-0.79175 0.49395,-1.39757 0.54526,-1.34626 0.0513,0.0513 -0.30168,2.16678 -0.78443,4.70105 -0.48275,2.53427 -1.33222,7.14798 -1.88774,10.25268 -0.55551,3.1047 -1.39597,8.01578 -1.86769,10.91351 -0.47172,2.89772 -0.92115,5.94597 -0.99874,6.77389 l -0.14107,1.50532 0.63828,-2.6343 c 0.35106,-1.44886 1.25665,-5.23095 2.01244,-8.40465 0.75578,-3.1737 2.37386,-10.13142 3.59572,-15.4616 1.22188,-5.33018 2.90997,-12.27343 3.75132,-15.42944 0.84135,-3.156 2.21852,-7.99615 3.06038,-10.75589 0.84187,-2.75974 1.58361,-5.07415 1.64835,-5.14313 0.0647,-0.069 0.0505,0.26969 -0.0315,0.75265 -0.0821,0.48295 -0.71753,4.60374 -1.41215,9.1573 -0.6946,4.55356 -1.59655,10.70652 -2.00433,13.67324 -0.40777,2.96671 -1.01626,6.91816 -1.35217,8.78098 -0.33593,1.86282 -1.36176,7.28194 -2.27963,12.04248 -0.91787,4.76055 -2.27328,11.87313 -3.01202,15.80577 -0.73874,3.93262 -1.74474,9.40818 -2.23555,12.16792 -0.49082,2.75973 -1.0099,5.92088 -1.15354,7.02478 -0.14362,1.1039 -0.32288,2.31755 -0.39835,2.69701 l -0.13723,0.68994 z M 170.8219,118.72534 c -0.0544,0.0575 -0.0985,-0.0554 -0.0981,-0.25088 5.3e-4,-0.19548 0.11961,-1.65376 0.26475,-3.2406 0.14516,-1.58685 0.64873,-5.98988 1.11906,-9.78452 0.47033,-3.79464 1.09526,-8.53636 1.38872,-10.53717 0.29347,-2.000815 0.58571,-3.690807 0.64945,-3.755534 0.0637,-0.06472 0.0481,0.951349 -0.0348,2.257966 -0.0829,1.306611 -0.31805,4.633629 -0.52252,7.393368 -0.20449,2.75973 -0.54632,6.25958 -0.75962,7.77743 -0.21331,1.51786 -0.72988,4.39676 -1.14793,6.39757 -0.41806,2.00081 -0.80461,3.68488 -0.85901,3.74237 z m 32.29275,130.10483 c 0.0936,-1.24188 0.16889,-7.95933 0.16719,-14.92767 -0.002,-6.96833 -0.0771,-14.19382 -0.16752,-16.05664 l -0.16446,-3.38695 -0.24201,2.00708 -0.242,2.00709 -0.003,11.66616 c -0.002,6.41638 0.0446,13.13383 0.10281,14.92765 0.0582,1.79383 0.16717,3.88245 0.24221,4.64138 l 0.13644,1.37987 z m -76.40341,-0.25089 c 0.21061,-0.55194 1.21979,-4.39049 2.2426,-8.53009 1.02282,-4.13961 2.19625,-9.38937 2.60764,-11.66616 0.41137,-2.27678 0.80922,-4.70409 0.88411,-5.39403 l 0.13615,-1.25442 -0.37989,1.25442 c -0.20893,0.68994 -1.04723,3.90754 -1.86289,7.15024 -0.81564,3.24269 -1.98723,8.49245 -2.60351,11.66614 -0.61629,3.17371 -1.18502,6.22196 -1.26385,6.7739 l -0.14331,1.00355 z m 42.3832,-9.53363 c 0.19234,-1.24188 0.86222,-5.9836 1.48863,-10.53717 0.6264,-4.55357 1.47664,-11.21456 1.88942,-14.80223 0.41277,-3.58765 1.14835,-10.41799 1.63462,-15.17854 0.48627,-4.76055 0.94774,-9.38938 1.02548,-10.28629 0.0778,-0.89692 0.41104,-4.17096 0.74065,-7.27566 0.3296,-3.10471 0.77065,-7.50775 0.9801,-9.78452 0.20945,-2.27678 0.44382,-5.66374 0.52084,-7.52656 0.077,-1.86282 0.19953,-3.95144 0.27227,-4.64137 l 0.13226,-1.25442 -0.23128,0.25087 c -0.12719,0.13799 -0.4142,1.21053 -0.63778,2.38342 -0.22357,1.17289 -0.91088,5.35012 -1.52735,9.28274 -0.61648,3.93263 -1.35832,9.18239 -1.64853,11.66616 -0.29022,2.48376 -0.75089,6.4352 -1.0237,8.78098 -0.27282,2.34578 -0.65601,5.90207 -0.85152,7.90288 -0.19553,2.00081 -0.58918,6.17805 -0.87482,9.28275 -0.28563,3.1047 -0.57367,6.2094 -0.64009,6.89934 -0.0664,0.68994 -0.22936,2.55275 -0.36208,4.1396 -0.13273,1.58685 -0.40971,5.82054 -0.61551,9.4082 -0.2058,3.58765 -0.4298,8.10358 -0.49775,10.0354 l -0.12357,3.51238 z m -14.85467,-3.63783 c 0.069,-0.069 0.86551,-4.52848 1.76997,-9.90996 0.90446,-5.38148 1.92899,-11.87314 2.27673,-14.42589 0.34774,-2.55277 0.7479,-5.88326 0.88926,-7.40112 0.14136,-1.51785 0.25711,-3.08902 0.25722,-3.49148 1.1e-4,-0.40246 -0.0594,-0.67216 -0.13221,-0.59933 -0.0728,0.0728 -0.52855,2.15203 -1.01272,4.62046 -0.48416,2.46844 -1.10762,5.89928 -1.38546,7.62412 -0.27783,1.72484 -0.66289,4.37794 -0.8557,5.8958 -0.1928,1.51786 -0.57522,4.50966 -0.84984,6.64845 -0.2746,2.1388 -0.55909,4.62257 -0.63218,5.51947 -0.0731,0.89692 -0.20436,2.53394 -0.29172,3.63784 -0.0874,1.1039 -0.10237,1.95063 -0.0334,1.88164 z m -61.589586,-6.7739 c 0.129801,-0.20698 0.309293,-0.94082 0.398862,-1.63076 l 0.162865,-1.25442 -0.259404,0.4209 c -0.142674,0.23151 -0.32216,0.96534 -0.398861,1.63076 l -0.139468,1.20985 z m 116.509096,-5.0177 0.2247,-5.14314 -0.12855,-14.55134 -0.12855,-14.55134 -0.37882,-8.40464 c -0.20834,-4.62256 -0.39973,-8.7998 -0.42532,-9.28275 -0.0256,-0.48296 -0.13085,0.47668 -0.23397,2.13252 -0.10311,1.65584 -0.30934,4.64764 -0.4583,6.64845 l -0.27081,3.63784 -0.007,6.52301 c -0.004,3.58766 0.11017,9.79706 0.2531,13.79868 0.14292,4.00162 0.43996,10.60129 0.66006,14.66593 0.22012,4.06465 0.4346,7.56449 0.47664,7.77744 0.042,0.21295 0.10242,0.72586 0.13417,1.13983 0.0317,0.41395 0.15884,-1.56177 0.28242,-4.39049 z m -118.238672,4.76681 c 0.119577,0 0.277999,-0.25401 0.352051,-0.56448 0.07404,-0.31047 0.196668,-1.12899 0.272486,-1.81893 l 0.137851,-1.25442 -0.331629,1.00354 c -0.182404,0.55195 -0.40286,1.37046 -0.489908,1.81891 l -0.158273,0.81538 z m -1.547109,-0.75292 c 0.103492,-1.4e-4 0.461013,-1.27026 0.794489,-2.82245 0.333482,-1.5522 0.660626,-3.048 0.726985,-3.32397 l 0.120648,-0.50177 -0.159606,0.14347 c -0.08778,0.0789 -0.498873,1.43368 -0.913542,3.01062 -0.414662,1.57693 -0.754659,3.00828 -0.755531,3.18077 -5.35e-4,0.17248 0.08307,0.31348 0.186557,0.31333 z m 21.903951,-3.01035 c 0.13017,0 0.23667,-0.14967 0.23667,-0.33259 0,-0.18294 -0.28225,-0.59775 -0.62722,-0.92183 l -0.62721,-0.58925 v 0.36424 c 0,0.20034 0.17575,0.61516 0.39055,0.92183 0.2148,0.30668 0.49705,0.5576 0.62721,0.5576 z m 9.59911,-2.05457 0.54751,-0.078 0.43866,-0.87809 0.43866,-0.8781 -0.0126,-1.12898 c -0.007,-0.62094 -0.21202,-2.59667 -0.45569,-4.39049 l -0.44303,-3.26151 -0.18822,1.43486 c -0.10352,0.78916 -0.46277,2.64993 -0.79834,4.13503 -0.33557,1.48509 -0.61012,3.02012 -0.61012,3.41117 0,0.39105 0.12053,0.93623 0.26786,1.21151 l 0.26785,0.5005 z m -2.90113,-2.76021 0.40624,-0.0782 0.44751,-1.75582 c 0.24613,-0.9657 0.68796,-3.1106 0.98183,-4.76644 l 0.53432,-3.01062 0.18528,-4.64137 c 0.1019,-2.55277 0.14393,-4.69155 0.0934,-4.75285 -0.0506,-0.0613 -0.4557,0.32268 -0.90034,0.8533 -0.44464,0.53063 -2.01858,2.61296 -3.49762,4.62741 -1.47905,2.01444 -2.69271,3.73164 -2.69702,3.81599 -0.004,0.0844 0.26177,0.10185 0.59127,0.0388 l 0.5991,-0.11453 0.52729,0.28219 0.52728,0.2822 0.42337,0.80794 0.42338,0.80794 0.16041,3.26151 0.16041,3.2615 0.31384,0.57963 0.31384,0.57962 z m -25.292096,-0.57926 c 0.111382,-0.27596 0.442434,-1.12488 0.735668,-1.88648 0.293239,-0.76159 0.533158,-1.46721 0.533158,-1.56803 0,-0.10083 -0.09203,-0.18331 -0.204494,-0.18331 -0.112469,0 -0.45231,0.70561 -0.755195,1.56803 -0.30289,0.86242 -0.541921,1.79383 -0.531188,2.06979 l 0.01948,0.50178 z m -0.745564,-2.12227 c 0.406243,-1.16725 0.686983,-2.17393 0.623852,-2.23706 -0.06315,-0.0632 -0.150977,-0.0677 -0.195218,-0.0102 -0.04422,0.0575 -0.326481,0.76375 -0.627208,1.56946 -0.300728,0.8057 -0.545267,1.76533 -0.54342,2.13252 l 0.0037,0.6676 z m -1.920801,-0.0102 h 0.329863 l 0.422788,-0.88662 c 0.232538,-0.48763 0.4228,-0.93922 0.4228,-1.00353 0,-0.0643 -0.114556,-0.11694 -0.254571,-0.11694 -0.140014,0 -0.478292,0.36692 -0.751725,0.81539 -0.273428,0.44845 -0.497562,0.90004 -0.498082,1.00353 -5.35e-4,0.1035 0.147503,0.18817 0.328927,0.18817 z m 18.110201,-7.05937 0.75265,0.0236 2.00626,-0.82206 2.00627,-0.82206 0.92802,-1.32834 0.928,-1.32833 -3.43012,-1.71786 c -1.88656,-0.94482 -3.46505,-1.68293 -3.50773,-1.64025 -0.0427,0.0427 -0.35582,1.39113 -0.69586,2.99656 -0.34004,1.60543 -0.61825,3.24896 -0.61825,3.6523 v 0.73332 l 0.43904,0.11474 c 0.24148,0.0631 0.77775,0.12537 1.19172,0.13836 z m 118.74019,-2.22338 c 0.0657,0 0.0439,-3.13293 -0.0483,-6.96207 -0.0924,-3.82913 -0.27781,-10.29255 -0.41215,-14.36316 -0.13435,-4.07061 -0.41577,-10.90097 -0.62538,-15.17855 -0.20962,-4.27759 -0.54768,-10.54345 -0.75126,-13.92412 -0.20359,-3.38068 -0.48874,-7.72727 -0.63367,-9.65908 -0.14494,-1.93182 -0.54631,-6.27594 -0.89194,-9.65361 -0.34563,-3.37768 -0.69326,-6.20014 -0.77251,-6.27214 -0.0792,-0.072 -0.069,4.44148 0.0228,10.02995 0.0918,5.58846 0.22227,11.17693 0.29001,12.41882 0.0677,1.24188 0.23636,4.62882 0.37472,7.52654 0.13837,2.89773 0.3623,7.41366 0.49763,10.03541 0.13533,2.62175 0.29697,5.27486 0.35919,5.8958 0.0622,0.62094 0.18147,2.31441 0.26501,3.76327 0.0835,1.44886 0.37365,5.4003 0.64473,8.78098 0.27108,3.38067 0.53747,6.59828 0.59198,7.15023 0.0546,0.55194 0.29499,3.12038 0.53439,5.70763 0.23941,2.58725 0.48908,4.7041 0.55483,4.7041 z m -14.05852,-13.04603 c 0.0659,-0.34497 0.0476,-6.55437 -0.0404,-13.79868 l -0.16011,-13.17146 -0.32172,-4.01417 -0.32172,-4.01415 -0.14466,2.00707 c -0.0796,1.1039 -0.0961,6.29722 -0.0367,11.54073 l 0.10796,9.53362 0.36364,5.77037 c 0.19999,3.17369 0.37947,5.99615 0.39881,6.27212 l 0.0352,0.50177 z m -28.20851,-6.77952 c 0.0779,-0.0721 0.26393,-1.53977 0.41337,-3.26151 0.14943,-1.72173 0.49216,-5.5013 0.76162,-8.39902 0.26945,-2.89772 0.66696,-7.41364 0.88333,-10.0354 0.21639,-2.62175 0.55526,-7.19413 0.75309,-10.16084 0.19781,-2.96672 0.41934,-5.90208 0.4923,-6.52302 0.0729,-0.62094 0.35816,-5.13687 0.63381,-10.0354 0.27564,-4.89854 0.55249,-9.64027 0.61524,-10.53718 0.0627,-0.89691 0.1806,-2.75973 0.26191,-4.1396 0.0813,-1.37987 0.31278,-4.76682 0.51436,-7.52655 0.2016,-2.75974 0.48152,-6.20314 0.62206,-7.652 0.14054,-1.44886 0.30352,-3.14234 0.36218,-3.76327 0.0587,-0.62095 0.18437,-2.11989 0.27935,-3.331 0.095,-1.2111 0.21978,-2.15494 0.2773,-2.09742 0.0575,0.0575 -0.0151,2.8548 -0.16132,6.21617 -0.14625,3.36137 -0.43046,9.27274 -0.63158,13.13636 -0.20112,3.86364 -0.54646,10.86333 -0.76744,15.55489 -0.22096,4.69155 -0.48881,11.80414 -0.5952,15.80575 -0.1064,4.00162 -0.16044,10.21103 -0.1201,13.79868 0.0403,3.58766 0.15853,8.10359 0.26263,10.03541 l 0.1893,3.51239 0.17468,-2.25797 c 0.0961,-1.24188 0.40943,-5.92716 0.69637,-10.41173 0.28693,-4.48457 0.63074,-9.841 0.76403,-11.90317 0.1333,-2.06217 0.49498,-6.59954 0.80373,-10.08304 l 0.56138,-6.33363 0.20252,0.12517 0.20251,0.12516 0.009,4.56384 c 0.005,2.51012 0.11325,7.32986 0.24062,10.71053 0.12738,3.38068 0.31043,8.32103 0.40677,10.97856 0.0963,2.65753 0.20173,4.8026 0.23419,4.76682 0.0324,-0.0358 0.1291,-1.30694 0.21472,-2.8248 0.0856,-1.51785 0.27062,-5.29994 0.41107,-8.40465 0.14044,-3.1047 0.36279,-8.12867 0.4941,-11.16438 0.13133,-3.03571 0.35048,-10.71279 0.487,-17.06019 0.13652,-6.34739 0.36082,-14.02448 0.49846,-17.06018 0.13763,-3.03571 0.31285,-7.43875 0.38938,-9.78452 0.0765,-2.34577 0.30884,-6.579466 0.51627,-9.408194 0.20743,-2.828728 0.55929,-7.062415 0.78192,-9.408189 0.22264,-2.345773 0.40771,-4.406165 0.41128,-4.578655 0.004,-0.172485 0.0724,-0.313296 0.15284,-0.312922 0.0805,2.89e-4 0.17181,1.214029 0.20291,2.697011 0.0312,1.482982 0.18665,5.913942 0.34562,9.846559 0.15897,3.932627 0.32245,7.319575 0.36328,7.526559 0.0408,0.206973 0.0829,1.100751 0.0934,1.986171 0.0105,0.88542 0.0639,1.5628 0.11838,1.50531 0.0545,-0.0575 0.34348,-4.168872 0.64207,-9.136395 l 0.54287,-9.031873 0.21905,-0.501765 0.21906,-0.501769 0.0171,2.132522 c 0.009,1.172887 0.1796,5.632367 0.37822,9.909958 0.19861,4.27759 0.43982,9.978482 0.53602,12.668642 l 0.17491,4.89119 0.18697,-0.50541 0.18696,-0.5054 0.31739,-8.65084 0.31739,-8.650834 -0.0303,-21.826999 c -0.0167,-12.004857 -0.10507,-23.894681 -0.1964,-26.421836 l -0.16606,-4.594829 -0.1832,0.20434 c -0.10075,0.112387 -0.32029,1.107526 -0.48785,2.21142 -0.16757,1.103895 -0.97752,5.337581 -1.7999,9.408193 -0.82238,4.07061 -1.76673,8.868787 -2.09855,10.662614 -0.33183,1.793831 -0.83573,4.683303 -1.11976,6.421059 -0.28404,1.737755 -0.79811,5.068258 -1.14236,7.40111 -0.34427,2.332857 -0.63853,4.636702 -0.65392,5.119656 l -0.0281,0.878101 -0.24022,-1.128983 -0.24023,-1.128988 0.1459,-16.8093 c 0.0802,-9.245115 0.20141,-19.067266 0.26925,-21.827002 l 0.12334,-5.017702 -0.24496,0.501771 c -0.13474,0.275973 -0.63823,2.533939 -1.11887,5.017702 -0.48066,2.483762 -1.49474,7.507736 -2.25355,11.164386 l -1.37964,6.648454 -0.01,-0.878096 c -0.006,-0.482956 0.0992,-1.837734 0.23255,-3.010621 0.13329,-1.172889 0.40911,-4.051795 0.61291,-6.397571 0.20381,-2.345775 0.43992,-5.619826 0.52469,-7.275667 l 0.15412,-3.010622 -1.14937,1.254426 c -0.63216,0.689934 -1.29914,1.536671 -1.48217,1.881638 l -0.3328,0.627213 -0.28943,2.759736 c -0.1592,1.517854 -0.4013,4.124384 -0.53803,5.792288 -0.13672,1.667904 -0.42089,6.455225 -0.63147,10.638495 -0.21058,4.183265 -0.32497,7.663834 -0.25421,7.734599 0.0708,0.07076 0.12866,-0.155559 0.12866,-0.502931 0,-0.347378 0.10211,-0.958908 0.2269,-1.358963 0.12478,-0.400054 0.41952,-1.574106 0.65494,-2.60901 0.23543,-1.0349 0.53533,-2.050982 0.66646,-2.257965 l 0.23841,-0.376328 -0.14617,5.519472 c -0.0804,3.035712 -0.2097,6.874252 -0.28734,8.530093 l -0.14118,3.010623 0.80832,-1.199052 c 0.44459,-0.65948 0.85739,-1.149992 0.91734,-1.090035 0.0599,0.05996 -0.0703,2.631701 -0.28936,5.714983 -0.21911,3.083282 -0.4496,6.226911 -0.51219,6.985831 -0.0626,0.758936 -0.181,2.508853 -0.26311,3.888724 -0.0821,1.37987 -0.255,3.637835 -0.38422,5.017697 -0.1292,1.37987 -0.51794,6.51674 -0.86386,11.41528 -0.34591,4.89853 -0.84684,12.29336 -1.11317,16.43297 -0.26633,4.1396 -0.55164,8.88133 -0.63401,10.53717 -0.0824,1.65585 -0.19831,3.8009 -0.25764,4.76682 -0.0593,0.96591 -0.17679,3.33677 -0.26101,5.26858 -0.0842,1.93182 -0.32017,6.22196 -0.52432,9.53364 l -0.37119,6.02124 -0.14318,11.66616 c -0.0787,6.41638 -0.0794,11.60717 -0.002,11.53508 z m 7.18259,-109.505711 -0.21623,1.003545 0.13216,-2.257971 c 0.0727,-1.24188 0.2311,-2.8789 0.35204,-3.637836 l 0.21989,-1.379865 -0.13582,2.634297 c -0.0747,1.448857 -0.23311,3.085883 -0.35204,3.63783 z M 202.3809,182.2202 c 0.0971,-1.44887 0.29186,-5.06161 0.43285,-8.02832 l 0.25636,-5.39404 -0.0222,-9.1573 c -0.0123,-5.03651 -0.0952,-10.34274 -0.18439,-11.79161 l -0.16217,-2.63429 -0.19018,2.25797 c -0.10461,1.24188 -0.29897,4.45948 -0.43191,7.15022 l -0.24171,4.89226 -0.002,10.16085 c -5.4e-4,5.58847 0.0819,11.28983 0.18343,12.6697 l 0.18452,2.50885 z m 26.00243,-14.80222 c 0.0661,0 0.0409,-2.73779 -0.056,-6.08397 -0.0969,-3.34617 -0.39614,-9.45008 -0.665,-13.56422 -0.26886,-4.11413 -0.53951,-7.78334 -0.60144,-8.15376 -0.0619,-0.37044 -0.29189,-2.81858 -0.51102,-5.44033 -0.21913,-2.62175 -0.50203,-5.5571 -0.62867,-6.52301 l -0.23026,-1.75619 0.11763,6.523 c 0.0647,3.58766 0.23278,8.72453 0.37354,11.41528 0.14075,2.69074 0.41929,6.75508 0.61898,9.03186 0.19969,2.27679 0.61034,6.48224 0.91256,9.34547 0.30223,2.86323 0.60358,5.20587 0.66967,5.20587 z m -21.05955,-17.06019 h 0.22244 l 0.18206,-6.58573 0.18207,-6.58573 -0.13023,-17.81285 -0.13024,-17.81284 -0.28344,-3.512387 c -0.1559,-1.931818 -0.37159,-3.907533 -0.47932,-4.390488 l -0.19588,-0.8781 -0.29824,2.759735 c -0.16403,1.517855 -0.42425,4.283859 -0.57828,6.14669 l -0.28004,3.38694 0.0308,7.15022 c 0.0169,3.93263 0.14346,10.14203 0.28116,13.79869 0.13769,3.65665 0.31376,7.83388 0.39125,9.28275 0.0775,1.44886 0.30328,4.89225 0.50174,7.65199 0.19846,2.75973 0.36104,5.55397 0.36127,6.20941 l 2.9e-4,1.1917 z m -32.18309,-1.37987 c 0.043,-0.13798 0.52919,-3.69428 1.08028,-7.90288 0.55109,-4.2086 1.23194,-9.48551 1.51299,-11.72647 0.28105,-2.24096 0.9651,-8.61971 1.52011,-14.175 0.55501,-5.55529 1.22698,-12.2456 1.49327,-14.86735 0.26631,-2.621757 0.56049,-5.643412 0.65376,-6.714803 l 0.16958,-1.947978 0.19982,-0.123495 0.19983,-0.123506 0.7845,0.660112 c 0.43146,0.363056 0.82304,0.617835 0.87017,0.566169 0.0472,-0.05165 0.26911,-2.521255 0.49329,-5.487968 0.22418,-2.966719 0.53161,-6.656194 0.68316,-8.198838 0.15156,-1.54264 0.2322,-2.934902 0.1792,-3.093908 l -0.0964,-0.289107 -0.9694,1.407534 c -0.53317,0.774143 -1.05565,1.460837 -1.16107,1.525987 l -0.19166,0.118453 0.0999,-1.442697 c 0.0549,-0.793483 0.27802,-4.20871 0.49578,-7.589385 0.21775,-3.380676 0.67016,-9.401595 1.00533,-13.379822 0.33518,-3.978227 0.60942,-7.342222 0.60942,-7.475545 v -0.242412 l -0.61056,0.450761 -0.61057,0.450762 -0.39244,1.630753 c -0.21584,0.896914 -0.72728,3.493576 -1.13654,5.770357 -0.40925,2.276781 -0.86025,5.099238 -1.00222,6.272127 -0.14198,1.172888 -0.48201,4.390488 -0.75563,7.150227 -0.27362,2.75973 -0.67515,7.317156 -0.89228,10.127599 -0.21713,2.810447 -0.35621,5.148475 -0.30908,5.195613 0.0472,0.04716 0.64542,-0.188394 1.32949,-0.523401 0.68407,-0.335012 1.44134,-0.612648 1.68282,-0.616957 l 0.43905,-0.0078 v 0.592205 0.592201 l -0.65093,0.975833 c -0.35801,0.536702 -1.12648,1.48387 -1.70771,2.10481 -0.58122,0.62094 -1.18719,1.3047 -1.34656,1.519461 l -0.28979,0.39049 -1.00908,12.279198 c -0.555,6.75358 -1.06675,12.95661 -1.13722,13.78453 -0.0705,0.82792 -0.23628,3.19878 -0.36844,5.26859 -0.13215,2.06979 -0.35707,6.64218 -0.49983,10.16085 -0.14277,3.51865 -0.30076,8.82487 -0.3511,11.79159 -0.0504,2.96672 -0.0563,5.28113 -0.0132,5.14314 z m 46.19669,-32.36419 c 0.0705,-0.27598 0.0698,-4.50967 -0.002,-9.40819 l -0.1301,-8.906421 -0.41455,-4.139606 c -0.228,-2.27678 -0.50814,-4.81699 -0.62253,-5.644914 l -0.20798,-1.505308 -0.0296,5.268583 -0.0296,5.268588 0.37212,5.895798 c 0.20466,3.24269 0.48324,7.30703 0.61905,9.03186 0.13581,1.72484 0.2626,3.47476 0.28173,3.88872 l 0.0348,0.75266 z m 6.54801,-4.39049 c 0.0624,0 0.0374,-2.73779 -0.0557,-6.08397 -0.0931,-3.34617 -0.22118,-6.930688 -0.28464,-7.96559 -0.0634,-1.034912 -0.23711,-3.744469 -0.38587,-6.021245 -0.14877,-2.276786 -0.48922,-6.962065 -0.75657,-10.411732 -0.26735,-3.449668 -0.71434,-8.417197 -0.99331,-11.038952 -0.27897,-2.621741 -0.61203,-5.557101 -0.74012,-6.523005 l -0.2329,-1.756198 0.12928,5.895801 c 0.0711,3.242693 0.22877,7.871521 0.35036,10.286287 0.12158,2.414772 0.40161,6.817801 0.62228,9.78452 0.22068,2.966718 0.55484,7.031052 0.7426,9.031862 0.18775,2.000815 0.60004,6.149822 0.9162,9.220032 0.31616,3.0702 0.62593,5.58219 0.68838,5.58219 z m -73.4602,-20.447136 c 0.1,-0.413962 0.18719,-1.034896 0.19379,-1.379865 l 0.012,-0.627213 -0.36447,0.99559 -0.36448,0.995579 0.17068,0.384275 0.17068,0.384291 z m -2.05065,-0.229963 c 0.11937,-0.07378 0.35301,-0.825263 0.51919,-1.669957 0.16618,-0.844693 0.25261,-1.585349 0.19206,-1.645906 -0.0605,-0.06055 -0.29419,0.622797 -0.5192,1.518541 -0.225,0.895749 -0.4091,1.696769 -0.4091,1.780043 0,0.08328 0.0977,0.09105 0.21705,0.01729 z m -1.29572,-0.740265 c 0.0967,-0.09666 0.37403,-0.816559 0.61636,-1.599787 0.24233,-0.783221 0.40007,-1.464573 0.35052,-1.514124 -0.0496,-0.04957 -0.32691,0.542879 -0.61637,1.316503 -0.28943,0.773624 -0.52627,1.53407 -0.52627,1.68988 v 0.283288 z m -0.91344,-0.409637 c 0.10024,0 0.25342,-0.185508 0.34042,-0.412243 l 0.15819,-0.412233 -0.1657,-0.152256 -0.16569,-0.152256 -0.11252,0.31517 -0.11252,0.315175 -0.22947,-0.141813 -0.22945,-0.141813 v 0.223877 c 0,0.123132 0.0753,0.299144 0.16726,0.391132 0.092,0.09199 0.24926,0.16726 0.34948,0.16726 z m 64.66704,-8.028323 0.0875,-6.899341 -0.29557,-5.14315 c -0.16256,-2.828727 -0.38368,-5.820529 -0.49139,-6.64845 l -0.19583,-1.50531 -0.024,7.275665 -0.0241,7.275672 0.36395,5.51947 c 0.20018,3.035711 0.39274,5.858166 0.42795,6.272127 0.0352,0.413962 0.10337,-2.352047 0.15151,-6.146683 z m -64.22439,6.272122 h 0.24055 l 0.41407,-1.034853 c 0.22774,-0.569168 0.36192,-1.087012 0.29818,-1.150753 -0.0637,-0.06374 -0.2825,0.147925 -0.48615,0.47037 -0.20364,0.322438 -0.44606,0.840277 -0.53872,1.150747 l -0.16847,0.564489 z m 12.33599,-1.880693 c 0.10588,-0.06543 0.24678,-0.402886 0.31311,-0.749889 l 0.12061,-0.630918 h -0.16814 c -0.0925,0 -0.38304,0.157133 -0.64568,0.349177 l -0.47753,0.349176 0.33256,0.400713 c 0.18292,0.220393 0.41919,0.34718 0.52507,0.281741 z m 14.61559,-1.636538 c 0.10349,0.0021 0.18934,-0.136278 0.19079,-0.308763 0.002,-0.172484 0.2789,-2.966713 0.61656,-6.209408 0.33766,-3.242684 0.90672,-8.548908 1.26458,-11.791597 l 0.65066,-5.895801 0.15278,-4.626822 0.15278,-4.626824 -1.54542,1.214155 c -0.84999,0.667784 -1.65891,1.350886 -1.79761,1.518009 -0.1387,0.167122 -0.64674,1.450689 -1.12899,2.852371 -0.48224,1.401682 -0.87682,2.647286 -0.87682,2.768009 0,0.120721 0.28624,0.291334 0.6361,0.379142 l 0.63608,0.159647 0.24115,0.634306 0.24117,0.634307 -0.3405,0.675832 -0.34049,0.675835 -0.72492,4.766816 -0.72491,4.766814 -0.083,-0.874102 c -0.0457,-0.48076 0.039,-2.123765 0.18816,-3.651121 0.14914,-1.52736 0.27116,-3.259441 0.27116,-3.849072 v -1.072059 l -0.68994,0.534831 c -0.37945,0.294158 -1.23413,0.934924 -1.89928,1.42392 l -1.20935,0.889085 -1.15273,1.793952 c -0.634,0.986671 -1.47759,2.446443 -1.87464,3.243941 l -0.72192,1.449998 -0.58374,2.647566 -0.58374,2.647567 0.40623,-0.129775 c 0.22343,-0.07138 0.92198,-0.326432 1.55233,-0.566795 l 1.14609,-0.437017 0.38964,0.149516 c 0.2143,0.08223 1.73072,1.694879 3.36984,3.583649 1.6391,1.88877 3.20599,3.70208 3.48197,4.029583 0.27597,0.327503 0.58644,0.597634 0.68993,0.600305 z M 161.6284,79.843159 c 0.24148,-0.0087 1.06,-0.321207 1.81892,-0.694364 l 1.37987,-0.678456 0.21701,-0.999112 c 0.11936,-0.549512 0.42648,-1.902297 0.6825,-3.006191 l 0.46548,-2.007083 1.22899,-2.446129 c 0.67595,-1.345373 1.15911,-2.444631 1.0737,-2.442794 -0.0854,0.0019 -2.01401,0.763903 -4.28579,1.693477 l -4.1305,1.690137 -0.22611,0.957382 -0.2261,0.957376 0.18092,2.654407 0.18094,2.654402 0.60056,0.556588 c 0.33031,0.306124 0.60057,0.684767 0.60057,0.841429 v 0.284835 z"
       id="path2" /></g></svg>
