<svg xmlns="http://www.w3.org/2000/svg" width="48" height="49" fill="none" viewBox="0 0 48 49"><rect width="48" height="48" y=".5" fill="#fff" rx="12" style="fill:#1f1f1f;fill-opacity:1"/><g clip-path="url(#a)" style="stroke:none;stroke-opacity:1" transform="translate(1.513 1.264)scale(.93694)"><rect width="636" height="412" x="-280.007" y="-97.354" fill="#fff" rx="16" style="stroke:none;stroke-opacity:1"/><path fill="#973516" d="M72.493 28.245a6 6 0 0 1-.344.791c-.564 1.104-2.513 4.126-4.544 7.204a757 757 0 0 1-3.864 5.8c-1.103 1.977-1.855 3.196-1.929 3.077-.115-.19.594-3.919 2.765-8.133.127-.293.262-.596.395-.91 1.21-2.834 2.548-6.391 2.933-8.242-1.01.886-7.808 5.69-21.902 8.156q-.005.005-.011.002c-4.744.835-10.311 1.4-16.763 1.463-.002.003-.002 0-.005 0q-2.346.025-4.849-.043c-18.9-.53-30.533-4.235-36.444-6.883h-.003c-2.459-1.102-3.924-2.021-4.514-2.453a51 51 0 0 0 1.213 3.425c-.875.28-1.574.493-2.461.784l-.186.068c-1.453-2.175-2.646-4.042-3.06-4.837-.274-.523-.418-.969-.484-1.342-.174-.96.183-1.41.183-1.41l.236-.403.643-1.09a5.3 5.3 0 0 1-.227-1.883c.053-.809.295-1.597.716-2.363 1.656-3.04 6.087-5.73 12.368-7.78l-.034.684c7.758-2.32 18.326-3.766 30.18-3.79 13.943-.027 26.827 1.917 35.773 5.072l.033 1.005q1.01.341 1.941.705l-.077-2.162c4.526 1.848 7.832 4.041 9.458 6.434.66.968 1.044 1.97 1.122 2.995q.008.075.011.152c.007.123.005.245.003.367l.952 1.77.793 1.477s.53.738-.017 2.293" style="fill:#666;stroke:none;stroke-opacity:1"/><path fill="#f74c00" d="M82.1 29.811c-.587 1.187-2.437 4.086-4.632 7.417a913 913 0 0 1-7.613 11.288c-1.53 2.782-2.615 4.53-2.79 4.42-.277-.174-.006-4.847 2.907-10.681a88 88 0 0 0 2.07-5.646c1.251-3.82 2.08-7.348 1.335-7.774 0 0-.304-.259-.868-.593a11.03 11.03 0 0 0-5.809-1.517c-.534.01-1.091.057-1.675.15q-.415.198-.83.39C34.872 40.849 6.206 34.728-8.852 29.57c-6.85-2.347-10.886-4.493-10.886-4.493a9.6 9.6 0 0 0-1.81 1.093c-.778.594-1.18 1.095-1.18 1.095-.53.453.558 2.968 1.916 6.005-.486.164-1.076.384-1.564.552-1.071.368-1.983.672-3.056 1.052-2.077-2.548-3.68-4.513-4.272-5.449-1.567-2.466-.624-3.518-.624-3.518l4.056-4.268 3.506-3.69.939-.986q.038-.116.08-.23l-2.485-4.316c-.25-.436-.27-1-.053-1.493s.642-.843 1.12-.93l4.739-.843q.31-.594.638-1.166l-1.67-4.736a1.68 1.68 0 0 1 .201-1.47c.296-.44.767-.692 1.241-.682l4.746.133q.397-.504.809-1.002l-.81-5a1.66 1.66 0 0 1 .449-1.406c.36-.37.858-.53 1.321-.422l4.594 1.094q.475-.421.962-.828l.076-5.095a1.63 1.63 0 0 1 .68-1.3c.417-.295.935-.353 1.367-.15l4.29 2.002q.543-.323 1.098-.63l.968-5.027c.096-.504.438-.941.898-1.15a1.34 1.34 0 0 1 1.366.124l3.86 2.848q.594-.211 1.197-.406l1.845-4.798a1.56 1.56 0 0 1 1.092-.969c.49-.116.994.034 1.324.396l3.31 3.625q.617-.091 1.241-.161l2.704-4.43a1.54 1.54 0 0 1 1.253-.749c.511-.015.98.234 1.245.665l2.628 4.287q.635.038 1.263.09l3.496-3.888c.354-.391.88-.578 1.39-.497.511.087.933.433 1.117.918l1.826 4.815q.632.166 1.258.349l4.21-3.178a1.54 1.54 0 0 1 1.481-.219c.498.188.856.626.952 1.147l.93 5.203c.4.196.796.402 1.192.607l4.822-2.333a1.58 1.58 0 0 1 2.271 1.43l-.045 5.424q.541.414 1.072.846l5.311-1.354a1.64 1.64 0 0 1 1.53.403c.413.387.598.954.488 1.502L59.977-.553c.314.348.621.705.923 1.063l5.622-.25a1.72 1.72 0 0 1 1.47.72c.341.474.422 1.085.204 1.612l-2.132 5.204q.373.629.733 1.275l5.72.924a1.83 1.83 0 0 1 1.348 1.032 1.7 1.7 0 0 1-.104 1.657L70.6 17.43q.153.432.304.873.02.057.04.116l4.6 3.227 2.175 1.526 4.15 2.91s1.656.84.23 3.73" style="fill:#b3b3b3;stroke:none;stroke-opacity:1"/><path fill="#000" d="M30.498 14.388s4.416-4.853 8.912.04c0 0 3.637 6.665.093 9.975 0 0-5.806 4.622-9.019-.135 0 0-3.79-3.693.014-9.88" style="stroke:none;stroke-opacity:1"/><path fill="#fff" d="M35.64 16.237c.008 1.924-1.11 3.48-2.499 3.464-1.388-.016-2.497-1.584-2.496-3.497.002-1.914 1.114-3.44 2.483-3.436 1.37.004 2.502 1.552 2.509 3.467z" style="stroke:none;stroke-opacity:1"/><path fill="#000" d="M11.225 12.996s7.366-3.295 9.269 4.163c0 0 2.031 8.906-6.266 9.27 0 0-10.295-2.26-3.003-13.433" style="stroke:none;stroke-opacity:1"/><path fill="#fff" d="M14.82 16.223c-.04 1.942-1.187 3.51-2.555 3.494-1.365-.013-2.425-1.597-2.373-3.53.053-1.932 1.189-3.47 2.541-3.466s2.427 1.565 2.389 3.499z" style="stroke:none;stroke-opacity:1"/><path fill="#000" d="m20.386 29.689 9.733-.606s-.336 1.623-1.624 2.82c0 0-3.397 3.757-7.196-.482 0 0-.614-.714-.915-1.73z" style="stroke:none;stroke-opacity:1"/></g><defs><clipPath id="a"><rect width="48" height="48" y=".8" fill="#fff" rx="12"/></clipPath></defs></svg>