<?xml version="1.0" encoding="UTF-8" standalone="no"?>
<svg
   width="576pt"
   height="288pt"
   version="1.1"
   viewBox="0 0 576 288"
   id="svg18"
   xmlns:xlink="http://www.w3.org/1999/xlink"
   xmlns="http://www.w3.org/2000/svg"
   xmlns:svg="http://www.w3.org/2000/svg">
  <defs
     id="defs1">
    <style
       type="text/css"
       id="style1">*{stroke-linecap:butt;stroke-linejoin:round;}</style>
  </defs>
  <defs
     id="defs2">
    <clipPath
       id="a">
      <rect
         x="95"
         y="29"
         width="470"
         height="217"
         id="rect1" />
    </clipPath>
  </defs>
  <use
     transform="matrix(.12 0 0 -.12 110 259)"
     fill="#1a1a1a"
     xlink:href="#DejaVuSans-35"
     id="use2" />
  <path
     transform="matrix(.895 0 0 .445 -6.06 103)"
     d="m95 236h307v-87.6h-307z"
     clip-path="url(#a)"
     id="path2" />
  <path
     transform="matrix(.895 0 0 .445 -6.06 90)"
     d="m95 127h448v-87.6h-448z"
     clip-path="url(#a)"
     id="path3" />
  <path
     transform="matrix(.895 0 0 .756 -6.06 51.2)"
     d="m95 246v-217"
     clip-path="url(#a)"
     fill="none"
     stroke="#b0b0b0"
     stroke-dasharray="2.22, 0.96"
     stroke-opacity=".7"
     stroke-width=".6"
     id="path4" />
  <use
     transform="matrix(.895 0 0 .756 -6.06 51.2)"
     x="94.980003"
     y="245.94"
     fill="#1a1a1a"
     stroke="#1a1a1a"
     stroke-width=".8"
     xlink:href="#c"
     id="use4" />
  <path
     transform="matrix(.895 0 0 .756 -6.06 51.2)"
     d="m158 246v-217"
     clip-path="url(#a)"
     fill="none"
     stroke="#b0b0b0"
     stroke-dasharray="2.22, 0.96"
     stroke-opacity=".7"
     stroke-width=".6"
     id="path5" />
  <use
     transform="matrix(.895 0 0 .756 -6.06 51.2)"
     x="158.05444"
     y="245.94"
     fill="#1a1a1a"
     stroke="#1a1a1a"
     stroke-width=".8"
     xlink:href="#c"
     id="use5" />
  <g
     transform="matrix(.895 0 0 .756 -6.06 51.2)"
     id="g11">
    <path
       d="m221 246v-217"
       clip-path="url(#a)"
       fill="none"
       stroke="#b0b0b0"
       stroke-dasharray="2.22, 0.96"
       stroke-opacity=".7"
       stroke-width=".6"
       id="path6" />
    <use
       x="221.12889"
       y="245.94"
       fill="#1a1a1a"
       stroke="#1a1a1a"
       stroke-width=".8"
       xlink:href="#c"
       id="use6" />
    <path
       d="m284 246v-217"
       clip-path="url(#a)"
       fill="none"
       stroke="#b0b0b0"
       stroke-dasharray="2.22, 0.96"
       stroke-opacity=".7"
       stroke-width=".6"
       id="path7" />
    <use
       x="284.20334"
       y="245.94"
       fill="#1a1a1a"
       stroke="#1a1a1a"
       stroke-width=".8"
       xlink:href="#c"
       id="use7" />
    <path
       d="m347 246v-217"
       clip-path="url(#a)"
       fill="none"
       stroke="#b0b0b0"
       stroke-dasharray="2.22, 0.96"
       stroke-opacity=".7"
       stroke-width=".6"
       id="path8" />
    <use
       x="347.2778"
       y="245.94"
       fill="#1a1a1a"
       stroke="#1a1a1a"
       stroke-width=".8"
       xlink:href="#c"
       id="use8" />
    <path
       d="m410 246v-217"
       clip-path="url(#a)"
       fill="none"
       stroke="#b0b0b0"
       stroke-dasharray="2.22, 0.96"
       stroke-opacity=".7"
       stroke-width=".6"
       id="path9" />
    <use
       x="410.35223"
       y="245.94"
       fill="#1a1a1a"
       stroke="#1a1a1a"
       stroke-width=".8"
       xlink:href="#c"
       id="use9" />
    <path
       d="m473 246v-217"
       clip-path="url(#a)"
       fill="none"
       stroke="#b0b0b0"
       stroke-dasharray="2.22, 0.96"
       stroke-opacity=".7"
       stroke-width=".6"
       id="path10" />
    <use
       x="473.42667"
       y="245.94"
       fill="#1a1a1a"
       stroke="#1a1a1a"
       stroke-width=".8"
       xlink:href="#c"
       id="use10" />
    <path
       d="m537 246v-217"
       clip-path="url(#a)"
       fill="none"
       stroke="#b0b0b0"
       stroke-dasharray="2.22, 0.96"
       stroke-opacity=".7"
       stroke-width=".6"
       id="path11" />
    <use
       x="536.5011"
       y="245.94"
       fill="#1a1a1a"
       stroke="#1a1a1a"
       stroke-width=".8"
       xlink:href="#c"
       id="use11" />
  </g>
  <g
     transform="matrix(.895 0 0 .895 -6.06 52.8)"
     id="g12">
    <path
       d="m95 82.7h3.5"
       fill="#1a1a1a"
       stroke="#1a1a1a"
       stroke-width=".8"
       id="path12" />
  </g>
  <path
     d="m79 237v-164"
     fill="none"
     stroke="#1a1a1a"
     stroke-linecap="square"
     stroke-width=".823"
     id="path13" />
  <path
     d="m79 235h421"
     fill="none"
     stroke="#1a1a1a"
     stroke-linecap="square"
     stroke-width=".895"
     id="path14" />
  <g
     font-family="Arcon"
     id="g17">
    <path
       style="font-size:18.4px;line-height:1.25;font-family:Video;fill:#ffffff;stroke-width:0.459"
       d="m 113.53397,133.42863 v -1.80585 h 2.21015 v -9.27188 h -2.21015 v -1.80586 h 6.25312 v 1.80586 h -2.21015 v 9.27188 h 2.21015 v 1.80585 z m 15.62383,0 v -8.86757 l -2.34493,4.89648 h -0.9164 l -2.33594,-4.89648 v 8.86757 h -1.8418 v -12.88359 h 1.8418 l 2.79414,5.87578 2.80313,-5.87578 h 1.83281 v 12.88359 z m 11.66171,0 v -8.86757 l -2.34492,4.89648 h -0.9164 l -2.33594,-4.89648 v 8.86757 h -1.8418 v -12.88359 h 1.8418 l 2.79414,5.87578 2.80312,-5.87578 h 1.83282 v 12.88359 z m 6.08243,0 -1.85977,-1.85976 v -11.02383 h 1.8418 v 10.26914 l 0.80859,0.8086 h 3.97109 l 0.81758,-0.8086 v -10.26914 h 1.83281 v 11.02383 l -1.85976,1.85976 z m 12.32656,0 V 122.3509 h -3.71954 v -1.80586 h 9.27188 v 1.80586 h -3.71953 v 11.07773 z m 13.44062,0 v -3.7375 h -5.58828 v 3.7375 h -1.8418 v -9.16406 l 3.71953,-3.71953 h 1.83282 l 3.71953,3.71953 v 9.16406 z m 0,-8.40937 -2.66836,-2.66836 h -0.25156 l -2.66836,2.66836 v 2.875 h 5.58828 z m 4.13282,8.40937 v -12.88359 h 7.4121 l 1.85977,1.85977 v 3.64765 l -0.93437,0.93438 0.93437,0.94336 v 3.63867 l -1.85977,1.85976 z m 7.43906,-10.26914 -0.81758,-0.80859 h -4.77969 v 3.7375 h 4.77969 l 0.81758,-0.80859 z m 0,5.54336 -0.81758,-0.80859 h -4.77969 v 3.72852 h 4.77969 l 0.81758,-0.8086 z m 4.13281,4.72578 v -12.88359 h 1.8418 v 11.07774 h 5.95664 v 1.80585 z m 8.99336,0 v -12.88359 h 8.53516 v 1.80586 h -6.69336 v 3.7375 h 4.86054 v 1.80586 h -4.86054 v 3.72852 h 6.69336 v 1.80585 z m 25.16523,0 h -1.47344 l -1.79687,-1.80585 v 1.80585 h -4.1418 l -1.85976,-1.85976 v -9.16406 l 1.85976,-1.85977 h 5.55235 l 1.85976,1.85977 v 8.05898 h -1.8418 l 1.15899,1.15899 h 0.68281 z m -3.27031,-1.80585 -2.28203,-2.28204 v -1.46445 h 1.83281 v 0.70977 l 1.87773,1.87773 v -7.3043 l -0.80859,-0.80859 h -3.97109 l -0.8086,0.80859 v 7.65469 l 0.8086,0.8086 z m 7.42109,1.80585 -1.85976,-1.85976 v -11.02383 h 1.84179 v 10.26914 l 0.8086,0.8086 h 3.97109 l 0.81758,-0.8086 v -10.26914 h 1.83281 v 11.02383 l -1.85976,1.85976 z m 9.34375,0 v -1.80585 h 2.21016 v -9.27188 h -2.21016 v -1.80586 h 6.25313 v 1.80586 h -2.21016 v 9.27188 h 2.21016 v 1.80585 z m 9.95469,0 -1.85976,-1.85976 v -9.16406 l 1.85976,-1.85977 h 5.55234 l 1.85977,1.85977 v 1.84179 h -1.8418 v -1.08711 l -0.80859,-0.80859 h -3.97109 l -0.8086,0.80859 v 7.65469 l 0.8086,0.8086 h 3.97109 l 0.80859,-0.8086 v -1.08711 h 1.8418 v 1.8418 l -1.85977,1.85976 z m 16.87266,0 -5.59726,-5.59726 v 5.59726 h -1.8418 v -12.88359 h 1.8418 v 5.59727 l 5.59726,-5.59727 h 1.83282 v 1.80586 h -1.04219 l -4.64492,4.63594 4.64492,4.63594 h 1.04219 v 1.80585 z m 10.61952,0 h -5.55234 l -1.85977,-1.84179 v -1.8418 h 1.8418 v 1.06914 l 0.80859,0.8086 h 3.9711 l 0.80859,-0.8086 v -2.1293 l -0.79062,-0.79062 h -4.77969 l -1.85977,-1.85977 v -3.62968 l 1.85977,-1.85977 h 5.55234 l 1.85977,1.85977 v 1.82382 h -1.8418 v -1.06914 l -0.80859,-0.80859 h -3.9711 l -0.80859,0.80859 v 2.13829 l 0.79062,0.79062 h 4.77969 l 1.85977,1.85977 v 3.63867 z m 5.56133,0 -1.85976,-1.85976 v -9.16406 l 1.85976,-1.85977 h 5.55235 l 1.85976,1.85977 v 9.16406 l -1.85976,1.85976 z m 5.57032,-10.26914 -0.8086,-0.80859 h -3.97109 l -0.8086,0.80859 v 7.65469 l 0.8086,0.8086 h 3.97109 l 0.8086,-0.8086 z m 11.57188,10.26914 v -1.0871 l -4.45625,-4.44727 h -1.14102 v 5.53437 h -1.8418 v -12.88359 h 7.41211 l 1.85977,1.85977 v 3.62968 l -1.85977,1.85977 h -1.83281 l 3.69258,3.69258 v 1.84179 z m 0,-10.26914 -0.81758,-0.80859 h -4.77969 v 3.7375 h 4.77969 l 0.81758,-0.80859 z m 6.37889,10.26914 V 122.3509 h -3.71953 v -1.80586 h 9.27188 v 1.80586 h -3.71953 v 11.07773 z"
       id="text14"
       aria-label="IMMUTABLE QUICKSORT" />
    <path
       style="font-size:18.4px;line-height:1.25;font-family:Video;fill:#ffffff;stroke-width:0.459"
       d="m 120.974,195.44843 v -8.86758 l -2.34493,4.89648 h -0.9164 l -2.33594,-4.89648 v 8.86758 h -1.8418 v -12.8836 h 1.8418 l 2.79414,5.87578 2.80313,-5.87578 h 1.83281 v 12.8836 z m 6.08242,0 -1.85977,-1.85977 v -11.02383 h 1.8418 v 10.26914 l 0.80859,0.8086 h 3.9711 l 0.81757,-0.8086 v -10.26914 h 1.83282 v 11.02383 l -1.85977,1.85977 z m 12.32656,0 v -11.07774 h -3.71953 v -1.80586 h 9.27187 v 1.80586 h -3.71953 v 11.07774 z m 13.44062,0 v -3.7375 h -5.58828 v 3.7375 h -1.84179 v -9.16407 l 3.71953,-3.71953 h 1.83281 l 3.71953,3.71953 v 9.16407 z m 0,-8.40938 -2.66835,-2.66836 h -0.25157 l -2.66836,2.66836 v 2.875 h 5.58828 z m 4.13282,8.40938 v -12.8836 h 7.4121 l 1.85977,1.85977 v 3.64765 l -0.93437,0.93438 0.93437,0.94336 v 3.63867 l -1.85977,1.85977 z m 7.43906,-10.26915 -0.81758,-0.80859 h -4.77969 v 3.7375 h 4.77969 l 0.81758,-0.80859 z m 0,5.54336 -0.81758,-0.80859 h -4.77969 v 3.72852 h 4.77969 l 0.81758,-0.8086 z m 4.13281,4.72579 v -12.8836 h 1.8418 v 11.07774 h 5.95664 v 1.80586 z m 8.99336,0 v -12.8836 h 8.53516 v 1.80586 h -6.69336 v 3.7375 h 4.86054 v 1.80586 h -4.86054 v 3.72852 h 6.69336 v 1.80586 z m 25.16523,0 h -1.47344 l -1.79687,-1.80586 v 1.80586 h -4.1418 l -1.85976,-1.85977 v -9.16406 l 1.85976,-1.85977 h 5.55235 l 1.85976,1.85977 v 8.05898 h -1.8418 l 1.15899,1.15899 h 0.68281 z m -3.27031,-1.80586 -2.28203,-2.28204 v -1.46445 h 1.83281 v 0.70977 l 1.87773,1.87773 v -7.3043 l -0.80859,-0.80859 h -3.97109 l -0.8086,0.80859 v 7.65469 l 0.8086,0.8086 z m 7.42109,1.80586 -1.85976,-1.85977 v -11.02383 h 1.84179 v 10.26914 l 0.8086,0.8086 h 3.97109 l 0.81758,-0.8086 v -10.26914 h 1.83281 v 11.02383 l -1.85976,1.85977 z m 9.34375,0 v -1.80586 h 2.21016 v -9.27188 h -2.21016 v -1.80586 h 6.25313 v 1.80586 h -2.21016 v 9.27188 h 2.21016 v 1.80586 z m 9.95469,0 -1.85976,-1.85977 v -9.16406 l 1.85976,-1.85977 h 5.55234 l 1.85977,1.85977 v 1.84179 h -1.8418 v -1.08711 l -0.80859,-0.80859 h -3.97109 l -0.8086,0.80859 v 7.65469 l 0.8086,0.8086 h 3.97109 l 0.80859,-0.8086 v -1.08711 h 1.8418 v 1.8418 l -1.85977,1.85977 z m 16.87266,0 -5.59727,-5.59727 v 5.59727 h -1.8418 v -12.8836 h 1.8418 v 5.59727 l 5.59727,-5.59727 h 1.83281 v 1.80586 h -1.04219 l -4.64492,4.63594 4.64492,4.63594 h 1.04219 v 1.80586 z m 10.61953,0 h -5.55234 l -1.85977,-1.8418 v -1.8418 h 1.8418 v 1.06914 l 0.80859,0.8086 h 3.97109 l 0.8086,-0.8086 v -2.12929 l -0.79063,-0.79063 h -4.77968 l -1.85977,-1.85977 v -3.62968 l 1.85977,-1.85977 h 5.55234 l 1.85977,1.85977 v 1.82383 h -1.8418 v -1.06915 l -0.8086,-0.80859 h -3.97109 l -0.80859,0.80859 v 2.13829 l 0.79062,0.79062 h 4.77969 l 1.85977,1.85977 v 3.63867 z m 5.56133,0 -1.85976,-1.85977 v -9.16406 l 1.85976,-1.85977 h 5.55234 l 1.85977,1.85977 v 9.16406 l -1.85977,1.85977 z m 5.57031,-10.26915 -0.80859,-0.80859 h -3.97109 l -0.8086,0.80859 v 7.65469 l 0.8086,0.8086 h 3.97109 l 0.80859,-0.8086 z m 11.57187,10.26915 v -1.08711 l -4.45625,-4.44727 h -1.14102 v 5.53438 h -1.84179 v -12.8836 h 7.41211 l 1.85976,1.85977 v 3.62968 l -1.85976,1.85977 h -1.83282 l 3.69258,3.69258 v 1.8418 z m 0,-10.26915 -0.81758,-0.80859 h -4.77969 v 3.7375 h 4.77969 l 0.81758,-0.80859 z m 6.37891,10.26915 v -11.07774 h -3.71953 v -1.80586 h 9.27188 v 1.80586 h -3.71954 v 11.07774 z"
       id="text15"
       aria-label="MUTABLE QUICKSORT" />
    <path
       style="font-size:17.4px;line-height:1.25;font-family:Video;stroke-width:0.434"
       d="M 131.87783,42.722656 V 32.246973 h -3.51739 v -1.707715 h 8.76797 v 1.707715 h -3.51738 v 10.475683 z m 5.94726,0 v -1.707715 h 2.09004 v -8.767968 h -2.09004 v -1.707715 h 5.91328 v 1.707715 h -2.09004 v 8.767968 h 2.09004 v 1.707715 z m 14.77471,0 v -8.385644 l -2.21748,4.630371 h -0.86661 l -2.20898,-4.630371 v 8.385644 h -1.7417 V 30.539258 h 1.7417 l 2.64229,5.556445 2.65078,-5.556445 h 1.7332 v 12.183398 z m 3.99316,0 V 30.539258 h 8.07129 v 1.707715 h -6.32959 v 3.534375 h 4.59639 v 1.707715 h -4.59639 v 3.525878 h 6.32959 v 1.707715 z m 16.85625,-4.180078 v 4.180078 h -1.7417 V 30.539258 h 7.00928 l 1.75869,1.758691 v 4.494434 l -1.75869,1.750195 z m 5.29307,-5.530957 -0.77315,-0.764648 h -4.51992 v 4.596387 h 4.51992 l 0.77315,-0.764649 z m 3.55986,9.711035 V 30.539258 h 8.07129 v 1.707715 h -6.32959 v 3.534375 h 4.59639 v 1.707715 h -4.59639 v 3.525878 h 6.32959 v 1.707715 z m 16.93272,0 v -1.028027 l -4.21407,-4.205566 h -1.079 v 5.233593 h -1.7417 V 30.539258 h 7.00928 l 1.75869,1.758691 v 3.432422 l -1.75869,1.758692 h -1.73321 l 3.4919,3.491894 v 1.741699 z m 0,-9.711035 -0.77315,-0.764648 h -4.51992 v 3.534375 h 4.51992 l 0.77315,-0.764649 z m 8.42812,9.711035 v -1.707715 h 2.09004 v -8.767968 h -2.09004 v -1.707715 h 5.91328 v 1.707715 h -2.09004 v 8.767968 h 2.09004 v 1.707715 z m 10.12734,0 V 32.246973 h -3.51738 v -1.707715 h 8.76797 v 1.707715 h -3.51738 v 10.475683 z m 6.38057,0 V 30.539258 h 8.07129 v 1.707715 h -6.32959 v 3.534375 h 4.59639 v 1.707715 h -4.59639 v 3.525878 h 6.32959 v 1.707715 z m 16.93271,0 v -1.028027 l -4.21406,-4.205566 h -1.079 v 5.233593 h -1.7417 V 30.539258 h 7.00928 l 1.75869,1.758691 v 3.432422 l -1.75869,1.758692 h -1.73321 l 3.4919,3.491894 v 1.741699 z m 0,-9.711035 -0.77314,-0.764648 h -4.51992 v 3.534375 h 4.51992 l 0.77314,-0.764649 z m 10.58614,9.711035 v -3.534375 h -5.28457 v 3.534375 h -1.7417 v -8.666015 l 3.51738,-3.517383 h 1.7332 l 3.51738,3.517383 v 8.666015 z m 0,-7.952343 -2.52334,-2.52334 h -0.2379 l -2.52333,2.52334 v 2.71875 h 5.28457 z m 5.68388,7.952343 V 32.246973 h -3.51738 v -1.707715 h 8.76797 v 1.707715 h -3.51738 v 10.475683 z m 5.94727,0 v -1.707715 h 2.09004 v -8.767968 h -2.09004 v -1.707715 h 5.91328 v 1.707715 h -2.09004 v 8.767968 h 2.09004 v 1.707715 z m 9.41367,0 -1.75869,-1.758691 v -8.666016 l 1.75869,-1.758691 h 5.25058 l 1.7587,1.758691 v 8.666016 l -1.7587,1.758691 z m 5.26758,-9.711035 -0.76465,-0.764648 h -3.75528 l -0.76464,0.764648 v 7.238672 l 0.76464,0.764648 h 3.75528 l 0.76465,-0.764648 z m 10.94297,9.711035 v -4.468945 l -5.29307,-5.293066 v 9.762011 h -1.74169 V 30.539258 h 1.74169 l 5.29307,5.293066 v -5.293066 h 1.7332 v 12.183398 z m 11.83505,0 -2.62529,-2.625293 v -6.924316 l 2.62529,-2.633789 h 1.7417 v 1.707715 h -0.99404 l -1.63125,1.639746 v 5.496972 l 1.63125,1.63125 h 0.99404 v 1.707715 z m 4.00166,0 V 30.539258 h 1.7417 v 10.475683 h 5.63291 v 1.707715 z m 10.17832,0 -1.75869,-1.758691 v -8.666016 l 1.75869,-1.758691 h 5.25059 l 1.75869,1.758691 v 8.666016 l -1.75869,1.758691 z m 5.26758,-9.711035 -0.76465,-0.764648 h -3.75527 l -0.76465,0.764648 v 7.238672 l 0.76465,0.764648 h 3.75527 l 0.76465,-0.764648 z m 10.05089,9.711035 -0.8836,-0.883593 -0.89209,0.883593 h -2.6083 l -1.75869,-1.758691 V 30.539258 h 1.7417 v 9.711035 l 0.76465,0.764648 h 1.11299 l 0.76465,-0.764648 v -6.227637 h 1.74169 v 6.227637 l 0.76465,0.764648 h 1.11299 l 0.76465,-0.764648 v -9.711035 h 1.7417 v 10.424707 l -1.75869,1.758691 z m 6.62694,0 V 30.539258 h 8.07129 v 1.707715 h -6.32959 v 3.534375 h 4.59639 v 1.707715 h -4.59639 v 3.525878 h 6.32959 v 1.707715 z m 16.93272,0 v -1.028027 l -4.21406,-4.205566 h -1.07901 v 5.233593 h -1.7417 V 30.539258 h 7.00928 l 1.75869,1.758691 v 3.432422 l -1.75869,1.758692 h -1.7332 l 3.49189,3.491894 v 1.741699 z m 0,-9.711035 -0.77315,-0.764648 h -4.51992 v 3.534375 h 4.51992 l 0.77315,-0.764649 z m 8.42813,9.711035 v -1.707715 h 2.09004 v -8.767968 h -2.09004 v -1.707715 h 5.91328 v 1.707715 h -2.09004 v 8.767968 h 2.09004 v 1.707715 z m 14.31591,0 h -5.25058 l -1.75869,-1.741699 v -1.741699 h 1.7417 v 1.011035 l 0.76465,0.764648 h 3.75527 l 0.76465,-0.764648 v -2.013574 l -0.74766,-0.747656 h -4.51992 l -1.75869,-1.758692 v -3.432422 l 1.75869,-1.758691 h 5.25058 l 1.7587,1.758691 v 1.724707 h -1.7417 v -1.011035 l -0.76465,-0.764648 h -3.75527 l -0.76465,0.764648 v 2.022071 l 0.74765,0.747656 h 4.51992 l 1.7587,1.758691 v 3.440918 z m 8.80196,0 V 30.539258 h 7.00928 l 1.75869,1.758691 v 3.449414 l -0.8836,0.883594 0.8836,0.89209 v 3.440918 l -1.75869,1.758691 z m 7.03476,-9.711035 -0.77314,-0.764648 h -4.51992 v 3.534375 h 4.51992 l 0.77314,-0.764649 z m 0,5.24209 -0.77314,-0.764648 h -4.51992 v 3.525878 h 4.51992 l 0.77314,-0.764648 z m 3.90822,4.468945 V 30.539258 h 8.07128 v 1.707715 h -6.32958 v 3.534375 h 4.59638 v 1.707715 h -4.59638 v 3.525878 h 6.32958 v 1.707715 z m 12.28535,0 V 32.246973 h -3.51739 v -1.707715 h 8.76797 v 1.707715 h -3.51738 v 10.475683 z m 8.76794,0 V 32.246973 h -3.51738 v -1.707715 h 8.76797 v 1.707715 h -3.51738 v 10.475683 z m 6.38057,0 V 30.539258 h 8.07129 v 1.707715 h -6.32959 v 3.534375 h 4.59639 v 1.707715 h -4.59639 v 3.525878 h 6.32959 v 1.707715 z m 16.93272,0 v -1.028027 l -4.21406,-4.205566 h -1.07901 v 5.233593 h -1.7417 V 30.539258 h 7.00928 l 1.75869,1.758691 v 3.432422 l -1.75869,1.758692 h -1.7332 l 3.49189,3.491894 v 1.741699 z m 0,-9.711035 -0.77315,-0.764648 h -4.51992 v 3.534375 h 4.51992 l 0.77315,-0.764649 z m 3.64483,9.711035 v -1.707715 h 0.99404 l 1.63125,-1.63125 v -5.496972 l -1.63125,-1.639746 h -0.99404 v -1.707715 h 1.7417 l 2.62529,2.633789 v 6.924316 l -2.62529,2.625293 z"
       id="text16"
       aria-label="TIME PER ITERATION (LOWER IS BETTER)" />
    <path
       style="font-size:16px;line-height:1.25;font-family:Video;stroke-width:0.402"
       d="m 241.51627,273.89026 v -7.71094 l -2.03907,4.25781 h -0.79687 l -2.03125,-4.25781 v 7.71094 h -1.60156 v -11.20313 h 1.60156 l 2.42969,5.10938 2.4375,-5.10938 h 1.59375 v 11.20313 z m 3.27343,0 v -1.57031 h 1.92188 v -8.0625 h -1.92188 v -1.57032 h 5.4375 v 1.57032 h -1.92187 v 8.0625 h 1.92187 v 1.57031 z m 7.11719,0 v -11.20313 h 1.60156 v 9.63282 h 5.17969 v 1.57031 z m 7.82031,0 v -11.20313 h 1.60157 v 9.63282 h 5.17968 v 1.57031 z m 7.42188,0 v -1.57031 h 1.92187 v -8.0625 h -1.92187 v -1.57032 h 5.4375 v 1.57032 h -1.92188 v 8.0625 h 1.92188 v 1.57031 z m 13.16406,0 h -4.82812 l -1.61719,-1.60156 v -1.60157 h 1.60156 v 0.92969 l 0.70313,0.70313 h 3.45312 l 0.70313,-0.70313 v -1.85156 l -0.6875,-0.6875 h -4.15625 l -1.61719,-1.61719 v -3.15625 l 1.61719,-1.61719 h 4.82812 l 1.61719,1.61719 v 1.58594 h -1.60156 v -0.92969 l -0.70313,-0.70312 h -3.45312 l -0.70313,0.70312 v 1.85938 l 0.6875,0.6875 h 4.15625 l 1.61719,1.61718 v 3.16407 z m 3.29688,0 v -11.20313 h 7.42187 v 1.57032 h -5.82031 v 3.25 h 4.22656 v 1.57031 h -4.22656 v 3.24219 h 5.82031 v 1.57031 z m 10.64062,0 -1.61719,-1.61719 v -7.96875 l 1.61719,-1.61719 h 4.82813 l 1.61718,1.61719 v 1.60156 h -1.60156 v -0.94531 l -0.70312,-0.70312 h -3.45313 l -0.70312,0.70312 v 6.65625 l 0.70312,0.70313 h 3.45313 l 0.70312,-0.70313 v -0.94531 h 1.60156 v 1.60156 l -1.61718,1.61719 z m 9.74219,0 -1.61719,-1.61719 v -7.96875 l 1.61719,-1.61719 h 4.82812 l 1.61719,1.61719 v 7.96875 l -1.61719,1.61719 z m 4.84375,-8.92969 -0.70313,-0.70312 h -3.45312 l -0.70313,0.70312 v 6.65625 l 0.70313,0.70313 h 3.45312 l 0.70313,-0.70313 z m 10.0625,8.92969 v -4.10938 l -4.86719,-4.86718 v 8.97656 h -1.60156 v -11.20313 h 1.60156 l 4.86719,4.86719 v -4.86719 h 1.59375 v 11.20313 z m 3.10937,0 v -1.57031 h 1.60157 v -8.0625 h -1.60157 v -1.57032 h 7.41407 l 1.61718,1.61719 v 7.96875 l -1.61718,1.61719 z m 7.42969,-8.92969 -0.70312,-0.70312 h -3.52344 v 8.0625 h 3.52344 l 0.70312,-0.70313 z m 9.64063,8.92969 h -4.82813 l -1.61719,-1.60156 v -1.60157 h 1.60157 v 0.92969 l 0.70312,0.70313 h 3.45313 l 0.70312,-0.70313 v -1.85156 l -0.6875,-0.6875 h -4.15625 l -1.61719,-1.61719 v -3.15625 l 1.61719,-1.61719 h 4.82813 l 1.61718,1.61719 v 1.58594 h -1.60156 v -0.92969 l -0.70312,-0.70312 h -3.45313 l -0.70312,0.70312 v 1.85938 l 0.6875,0.6875 h 4.15625 l 1.61718,1.61718 v 3.16407 z"
       id="text17"
       aria-label="MILLISECONDS" />
  </g>
  <path
     d="M 81.326431,248.60202 H 79.9319 l -2.830078,-2.83008 v -4.14258 l 2.830078,-2.83007 h 1.394531 l 2.830078,2.83007 v 4.14258 z m 1.428711,-6.39844 -2.030273,-2.03027 h -0.191406 l -2.030274,2.03027 v 2.99414 l 2.030274,2.03028 h 0.191406 l 2.030273,-2.03028 z m 50.661138,6.39844 -1.41504,-1.41504 v -1.38769 h 1.40136 v 0.81347 l 0.61524,0.61524 h 3.02148 l 0.61524,-0.61524 v -2.32422 l -0.60157,-0.60156 h -5.05175 v -4.88769 h 7.05468 v 1.37402 h -5.65332 v 2.13965 h 4.23828 l 1.41504,1.41504 v 3.45898 l -1.41504,1.41504 z m 11.53906,0 h -1.39453 l -2.83008,-2.83008 v -4.14258 l 2.83008,-2.83007 h 1.39453 l 2.83008,2.83007 v 4.14258 z m 1.42871,-6.39844 -2.03027,-2.03027 h -0.19141 l -2.03027,2.03027 v 2.99414 l 2.03027,2.03028 h 0.19141 l 2.03027,-2.03028 z m 37.3789,6.39844 V 247.228 h 2.10547 v -6.05664 h -1.40136 v -1.37403 h 1.40136 v -0.99804 h 1.39453 v 8.42871 h 2.10547 v 1.37402 z m 12.2295,0 h -1.39453 l -2.83008,-2.83008 v -4.14258 l 2.83008,-2.83007 h 1.39453 l 2.83008,2.83007 v 4.14258 z m 1.42871,-6.39844 -2.03028,-2.03027 h -0.1914 l -2.03028,2.03027 v 2.99414 l 2.03028,2.03028 h 0.1914 l 2.03028,-2.03028 z m 7.30078,6.39844 h -1.39453 l -2.83008,-2.83008 v -4.14258 l 2.83008,-2.83007 h 1.39453 l 2.83008,2.83007 v 4.14258 z m 1.42871,-6.39844 -2.03027,-2.03027 h -0.19141 l -2.03027,2.03027 v 2.99414 l 2.03027,2.03028 h 0.19141 l 2.03027,-2.03028 z m 33.18164,6.39844 V 247.228 h 2.10547 v -6.05664 h -1.40137 v -1.37403 h 1.40137 v -0.99804 h 1.39453 v 8.42871 h 2.10547 v 1.37402 z m 9.41992,0 -1.41504,-1.41504 v -1.38769 h 1.40137 v 0.81347 l 0.61524,0.61524 h 3.02148 l 0.61523,-0.61524 v -2.32422 l -0.60156,-0.60156 h -5.05176 v -4.88769 h 7.05469 v 1.37402 h -5.65332 v 2.13965 h 4.23828 l 1.41504,1.41504 v 3.45898 l -1.41504,1.41504 z m 11.53907,0 h -1.39454 l -2.83007,-2.83008 v -4.14258 l 2.83007,-2.83007 h 1.39454 l 2.83007,2.83007 v 4.14258 z m 1.42871,-6.39844 -2.03028,-2.03027 h -0.1914 l -2.03028,2.03027 v 2.99414 l 2.03028,2.03028 h 0.1914 l 2.03028,-2.03028 z m 32.45703,6.39844 v -2.7002 l 5.65332,-3.26074 v -1.85254 l -0.61524,-0.61523 h -3.02148 l -0.61524,0.61523 v 0.81348 h -1.40136 v -1.3877 l 1.41504,-1.41503 h 4.22461 l 1.41503,1.41503 v 3.17872 l -5.65332,3.26074 v 0.57422 h 5.65332 v 1.37402 z m 12.9541,0 h -1.39453 l -2.83008,-2.83008 v -4.14258 l 2.83008,-2.83007 h 1.39453 l 2.83008,2.83007 v 4.14258 z m 1.42871,-6.39844 -2.03027,-2.03027 h -0.19141 l -2.03027,2.03027 v 2.99414 l 2.03027,2.03028 h 0.19141 l 2.03027,-2.03028 z m 7.30078,6.39844 h -1.39453 l -2.83008,-2.83008 v -4.14258 l 2.83008,-2.83007 h 1.39453 l 2.83008,2.83007 v 4.14258 z m 1.42871,-6.39844 -2.03027,-2.03027 h -0.19141 l -2.03027,2.03027 v 2.99414 l 2.03027,2.03028 h 0.19141 l 2.03027,-2.03028 z m 32.45703,6.39844 v -2.7002 l 5.65332,-3.26074 v -1.85254 l -0.61523,-0.61523 h -3.02149 l -0.61523,0.61523 v 0.81348 h -1.40137 v -1.3877 l 1.41504,-1.41503 h 4.22461 l 1.41504,1.41503 v 3.17872 l -5.65332,3.26074 v 0.57422 h 5.65332 v 1.37402 z m 10.14453,0 -1.41503,-1.41504 v -1.38769 h 1.40136 v 0.81347 l 0.61524,0.61524 h 3.02148 l 0.61524,-0.61524 v -2.32422 l -0.60157,-0.60156 h -5.05175 v -4.88769 h 7.05468 v 1.37402 h -5.65332 v 2.13965 h 4.23828 l 1.41504,1.41504 v 3.45898 l -1.41504,1.41504 z m 11.53907,0 h -1.39453 l -2.83008,-2.83008 v -4.14258 l 2.83008,-2.83007 h 1.39453 l 2.83008,2.83007 v 4.14258 z m 1.42871,-6.39844 -2.03028,-2.03027 h -0.1914 l -2.03028,2.03027 v 2.99414 l 2.03028,2.03028 h 0.1914 l 2.03028,-2.03028 z m 33.87207,6.39844 -1.41504,-1.41504 v -1.40137 h 1.40137 v 0.82715 l 0.61523,0.61524 h 3.02149 l 0.61523,-0.61524 v -1.60644 l -0.61523,-0.61524 h -2.24219 v -1.37402 h 2.24219 l 0.61523,-0.61524 v -1.61328 l -0.61523,-0.61523 h -3.02149 l -0.61523,0.61523 v 0.81348 h -1.40137 v -1.3877 l 1.41504,-1.41503 h 4.22461 l 1.41504,1.41503 v 2.7754 l -0.71094,0.71093 0.71094,0.71778 v 2.76855 l -1.41504,1.41504 z m 11.53906,0 h -1.39453 l -2.83008,-2.83008 v -4.14258 l 2.83008,-2.83007 h 1.39453 l 2.83008,2.83007 v 4.14258 z m 1.42871,-6.39844 -2.03027,-2.03027 h -0.19141 l -2.03027,2.03027 v 2.99414 l 2.03027,2.03028 h 0.19141 l 2.03027,-2.03028 z m 7.30078,6.39844 h -1.39453 l -2.83008,-2.83008 v -4.14258 l 2.83008,-2.83007 h 1.39453 l 2.83008,2.83007 v 4.14258 z m 1.42871,-6.39844 -2.03027,-2.03027 h -0.19141 l -2.03027,2.03027 v 2.99414 l 2.03027,2.03028 h 0.19141 l 2.03027,-2.03028 z m 38.06934,6.39844 -1.41504,-1.41504 v -1.40137 h 1.40137 v 0.82715 l 0.61523,0.61524 h 3.02149 l 0.61523,-0.61524 v -1.60644 l -0.61523,-0.61524 h -2.24219 v -1.37402 h 2.24219 l 0.61523,-0.61524 v -1.61328 l -0.61523,-0.61523 h -3.02149 l -0.61523,0.61523 v 0.81348 h -1.40137 v -1.3877 l 1.41504,-1.41503 h 4.22461 l 1.41504,1.41503 v 2.7754 l -0.71094,0.71093 0.71094,0.71778 v 2.76855 l -1.41504,1.41504 z m 8.72949,0 -1.41504,-1.41504 v -1.38769 h 1.40137 v 0.81347 l 0.61523,0.61524 h 3.02149 l 0.61523,-0.61524 v -2.32422 l -0.60156,-0.60156 h -5.05176 v -4.88769 h 7.05469 v 1.37402 h -5.65332 v 2.13965 h 4.23828 l 1.41504,1.41504 v 3.45898 l -1.41504,1.41504 z m 11.53906,0 h -1.39453 l -2.83007,-2.83008 v -4.14258 l 2.83007,-2.83007 h 1.39453 l 2.83008,2.83007 v 4.14258 z m 1.42872,-6.39844 -2.03028,-2.03027 h -0.1914 l -2.03028,2.03027 v 2.99414 l 2.03028,2.03028 h 0.1914 l 2.03028,-2.03028 z"
     id="text18"
     style="font-size:14px;line-height:1.25;font-family:Video;stroke-width:0.75"
     aria-label="0           50        100       150       200       250       300        350      " />
</svg>
