<?xml version="1.0" encoding="UTF-8" standalone="no"?>
<svg
   width="700"
   height="300"
   viewBox="0 0 700 300"
   fill="none"
   version="1.1"
   id="svg9"
   sodipodi:docname="aboutbits.svg"
   inkscape:version="1.3 (0e150ed, 2023-07-21)"
   xmlns:inkscape="http://www.inkscape.org/namespaces/inkscape"
   xmlns:sodipodi="http://sodipodi.sourceforge.net/DTD/sodipodi-0.dtd"
   xmlns="http://www.w3.org/2000/svg"
   xmlns:svg="http://www.w3.org/2000/svg">
  <defs
     id="defs9" />
  <sodipodi:namedview
     id="namedview9"
     pagecolor="#ffffff"
     bordercolor="#666666"
     borderopacity="1.0"
     inkscape:showpageshadow="2"
     inkscape:pageopacity="0.0"
     inkscape:pagecheckerboard="0"
     inkscape:deskcolor="#d1d1d1"
     inkscape:zoom="1.4722694"
     inkscape:cx="316.17856"
     inkscape:cy="86.261389"
     inkscape:window-width="1728"
     inkscape:window-height="1051"
     inkscape:window-x="0"
     inkscape:window-y="38"
     inkscape:window-maximized="0"
     inkscape:current-layer="svg9" />
  <g
     id="g9"
     transform="matrix(2.4694874,0,0,2.4694874,2.1801316,93.16228)"
     style="fill:#000000">
    <path
       d="M 33.216,45 H 41.92 L 24.128,0.391998 H 18.112 L 0.255981,45 H 8.95998 L 12.352,35.784 H 29.824 Z M 15.104,28.424 21.12,12.168 27.136,28.424 Z"
       fill="#1f2125"
       id="path1"
       style="fill:#000000" />
    <path
       d="m 63.4995,12.808 c -3.584,0 -7.104,1.472 -9.088,3.84 V 0.391998 h -7.68 V 45 h 7.68 v -3.136 c 2.176,2.688 5.696,3.776 9.088,3.776 8.576,0 13.312,-6.976 13.312,-16.448 0,-10.304 -5.568,-16.384 -13.312,-16.384 z m -1.856,25.728 c -5.568,0 -7.936,-4.032 -7.936,-9.28 0,-5.248 2.368,-9.472 7.872,-9.472 5.12,0 7.552,3.584 7.552,9.472 0,5.824 -2.368,9.28 -7.488,9.28 z"
       fill="#1f2125"
       id="path2"
       style="fill:#000000" />
    <path
       d="m 96.347,45.64 c 9.728,0 15.808,-7.552 15.808,-16.448 0,-8.96 -6.08,-16.384 -15.808,-16.384 -9.792,0 -15.808,7.424 -15.808,16.384 0,8.896 6.016,16.448 15.808,16.448 z m 0,-6.72 c -5.824,0 -8.128,-4.608 -8.128,-9.728 0,-5.184 2.304,-9.664 8.128,-9.664 5.824,0 8.128,4.48 8.128,9.664 0,5.12 -2.304,9.728 -8.128,9.728 z"
       fill="#1f2125"
       id="path3"
       style="fill:#000000" />
    <path
       d="m 138.071,13.448 v 11.968 c 0,5.632 0,13.504 -7.168,13.504 -5.824,0 -5.824,-5.504 -5.824,-7.68 V 13.448 h -7.68 V 33.16 c 0,6.72 3.328,12.48 11.264,12.48 3.712,0 7.168,-1.28 9.408,-4.288 V 45 h 7.68 V 13.448 Z"
       fill="#1f2125"
       id="path4"
       style="fill:#000000" />
    <path
       d="m 171.562,19.528 v -6.08 H 163.69 V 0.391998 L 156.01,6.088 v 7.36 h -5.12 v 6.08 h 5.12 v 16.64 c 0,6.72 4.48,9.472 9.792,9.472 1.92,0 3.84,-0.32 5.76,-0.96 v -6.144 c -1.408,0.448 -2.752,0.704 -3.84,0.704 -2.496,0 -4.032,-1.152 -4.032,-3.648 V 19.528 Z"
       fill="#1f2125"
       id="path5"
       style="fill:#000000" />
    <path
       d="m 179.257,45 h 17.536 c 9.088,0 14.528,-4.864 14.528,-13.056 0,-5.568 -2.496,-9.28 -7.296,-11.008 3.136,-1.792 4.928,-5.12 4.928,-9.28 0,-7.04 -5.248,-11.264002 -14.144,-11.264002 h -15.552 z m 8,-26.88 V 7.752 h 7.552 c 3.904,0 6.144,1.92 6.144,5.312 0,3.328 -2.112,5.056 -6.144,5.056 z m 0,19.52 V 25.48 h 8.896 c 4.672,0 7.168,2.048 7.168,5.824 0,3.904 -2.688,6.336 -7.168,6.336 z"
       fill="#1f2125"
       id="path6"
       style="fill:#000000" />
    <path
       d="m 218.163,7.496 h 8.064 V 0.391998 h -8.064 z M 218.355,45 h 7.68 V 13.448 h -7.68 z"
       fill="#1f2125"
       id="path7"
       style="fill:#000000" />
    <path
       d="m 251.812,19.528 v -6.08 H 243.94 V 0.391998 L 236.26,6.088 v 7.36 h -5.12 v 6.08 h 5.12 v 16.64 c 0,6.72 4.48,9.472 9.792,9.472 1.92,0 3.84,-0.32 5.76,-0.96 v -6.144 c -1.408,0.448 -2.752,0.704 -3.84,0.704 -2.496,0 -4.032,-1.152 -4.032,-3.648 V 19.528 Z"
       fill="#1f2125"
       id="path8"
       style="fill:#000000" />
    <path
       d="m 269.15,45.64 c 5.952,0 12.288,-3.2 12.288,-10.56 0,-11.52 -16.512,-8.704 -16.512,-13.504 0,-1.472 1.536,-2.688 4.032,-2.688 3.456,0 5.184,2.048 6.272,4.032 l 5.952,-3.264 c -2.368,-4.288 -6.528,-6.848 -11.968,-6.848 -6.08,0 -11.584,3.136 -11.584,9.216 0,11.712 16.256,8.192 16.256,13.504 0,1.664 -1.536,3.712 -5.12,3.712 -4.224,0 -5.888,-2.88 -6.72,-5.184 l -6.144,2.752 c 1.536,4.8 6.592,8.832 13.248,8.832 z"
       fill="#1f2125"
       id="path9"
       style="fill:#000000" />
  </g>
</svg>
