<svg xmlns="http://www.w3.org/2000/svg" width="700" height="300" fill="none"><path fill="#1f2125" d="M33.216 45h8.704L24.128.392h-6.016L.256 45H8.96l3.392-9.216h17.472ZM15.104 28.424l6.016-16.256 6.016 16.256ZM63.5 12.808c-3.585 0-7.105 1.472-9.089 3.84V.392h-7.68V45h7.68v-3.136c2.176 2.688 5.696 3.776 9.088 3.776 8.576 0 13.312-6.976 13.312-16.448 0-10.304-5.568-16.384-13.312-16.384m-1.857 25.728c-5.568 0-7.936-4.032-7.936-9.28s2.368-9.472 7.872-9.472c5.12 0 7.552 3.584 7.552 9.472 0 5.824-2.368 9.28-7.488 9.28m34.705 7.104c9.728 0 15.808-7.552 15.808-16.448 0-8.96-6.08-16.384-15.808-16.384-9.792 0-15.808 7.424-15.808 16.384 0 8.896 6.016 16.448 15.808 16.448m0-6.72c-5.824 0-8.128-4.608-8.128-9.728 0-5.184 2.304-9.664 8.128-9.664s8.128 4.48 8.128 9.664c0 5.12-2.304 9.728-8.128 9.728m41.724-25.472v11.968c0 5.632 0 13.504-7.168 13.504-5.824 0-5.824-5.504-5.824-7.68V13.448h-7.68V33.16c0 6.72 3.328 12.48 11.264 12.48 3.712 0 7.168-1.28 9.408-4.288V45h7.68V13.448Zm33.491 6.08v-6.08h-7.872V.392l-7.68 5.696v7.36h-5.12v6.08h5.12v16.64c0 6.72 4.48 9.472 9.792 9.472q2.88 0 5.76-.96v-6.144c-1.408.448-2.752.704-3.84.704-2.496 0-4.032-1.152-4.032-3.648V19.528ZM179.257 45h17.536c9.088 0 14.528-4.864 14.528-13.056 0-5.568-2.496-9.28-7.296-11.008 3.136-1.792 4.928-5.12 4.928-9.28 0-7.04-5.248-11.264-14.144-11.264h-15.552zm8-26.88V7.752h7.552c3.904 0 6.144 1.92 6.144 5.312 0 3.328-2.112 5.056-6.144 5.056zm0 19.52V25.48h8.896c4.672 0 7.168 2.048 7.168 5.824 0 3.904-2.688 6.336-7.168 6.336zm30.906-30.144h8.064V.392h-8.064zM218.355 45h7.68V13.448h-7.68zm33.457-25.472v-6.08h-7.872V.392l-7.68 5.696v7.36h-5.12v6.08h5.12v16.64c0 6.72 4.48 9.472 9.792 9.472q2.88 0 5.76-.96v-6.144c-1.408.448-2.752.704-3.84.704-2.496 0-4.032-1.152-4.032-3.648V19.528ZM269.15 45.64c5.952 0 12.288-3.2 12.288-10.56 0-11.52-16.512-8.704-16.512-13.504 0-1.472 1.536-2.688 4.032-2.688 3.456 0 5.184 2.048 6.272 4.032l5.952-3.264c-2.368-4.288-6.528-6.848-11.968-6.848-6.08 0-11.584 3.136-11.584 9.216 0 11.712 16.256 8.192 16.256 13.504 0 1.664-1.536 3.712-5.12 3.712-4.224 0-5.888-2.88-6.72-5.184l-6.144 2.752c1.536 4.8 6.592 8.832 13.248 8.832" style="fill:#000" transform="translate(2.18 93.162)scale(2.46949)"/></svg>