<svg xmlns="http://www.w3.org/2000/svg" viewBox="0 0 28.35 3.4"><path d="M4.59.06H3.52v3.2h.66v-.92h.41c.88 0 1.3-.32 1.3-1.14S5.47.06 4.59.06m.04 1.64h-.45v-1h.45c.39 0 .6.11.6.5s-.2.5-.6.5M.95.06 0 3.26h.75L1.44.7h.21l.69 2.56h.76L2.16.06Zm26.79 2.17c-.36 0-.59.26-.59.58s.23.59.59.59.61-.27.61-.59-.25-.58-.61-.58" style="stroke-width:0;fill:#727272;fill-opacity:1"/><path d="m8.26 1.44-.92-.25c-.21-.06-.28-.16-.28-.28 0-.22.17-.31.48-.31.43 0 .64.17.64.55h.68C8.86.46 8.42 0 7.53 0c-.74 0-1.15.32-1.15.93 0 .4.17.72.66.86l.94.27c.21.06.3.17.3.31 0 .24-.17.34-.57.34-.57 0-.77-.2-.77-.69h-.68c0 .82.44 1.29 1.43 1.29.9 0 1.27-.38 1.27-.98 0-.46-.23-.76-.7-.9zm1.22 1.82h2.24v-.63h-1.58v-.67h1.38v-.61h-1.38V.7h1.58V.06H9.48Zm8.23-1.82-.92-.25c-.21-.06-.28-.16-.28-.28 0-.22.17-.31.48-.31.43 0 .64.17.64.55h.68c0-.69-.44-1.15-1.33-1.15-.74 0-1.15.32-1.15.93 0 .4.17.72.66.86l.94.27c.21.06.3.17.3.31 0 .24-.17.34-.57.34-.57 0-.77-.2-.77-.69h-.68c0 .82.44 1.29 1.43 1.29.9 0 1.27-.38 1.27-.98 0-.46-.23-.76-.7-.9zm-3.18 1.19h-.13L13.55.06H12.3v3.2h.67V.7h.13l.84 2.56h1.25V.06h-.66zm8 0h-.13L21.55.06H20.3v3.2h.67V.7h.13l.84 2.56h1.25V.06h-.66ZM18.98.06h.66v3.2h-.66zm6.24 1.41v.56h.8c0 .4-.3.65-.78.65-.6 0-.86-.41-.86-1.01 0-.65.31-1.05.83-1.05.36 0 .62.2.7.52h.68c-.12-.69-.68-1.15-1.41-1.15-.9 0-1.48.65-1.48 1.69 0 .97.51 1.63 1.37 1.63.59 0 .85-.32.96-.57v.52h.6V1.47h-1.42z" style="fill:#1a1a18;stroke-width:0"/></svg>