<?xml version="1.0" encoding="UTF-8" standalone="no"?>
<!-- Generator: Adobe Illustrator 19.2.1, SVG Export Plug-In . SVG Version: 6.00 Build 0)  -->

<svg
   version="1.1"
   id="layer"
   x="0px"
   y="0px"
   viewBox="0 0 700 300"
   xml:space="preserve"
   sodipodi:docname="kraken.svg"
   width="700"
   height="300"
   inkscape:version="1.3 (0e150ed, 2023-07-21)"
   xmlns:inkscape="http://www.inkscape.org/namespaces/inkscape"
   xmlns:sodipodi="http://sodipodi.sourceforge.net/DTD/sodipodi-0.dtd"
   xmlns="http://www.w3.org/2000/svg"
   xmlns:svg="http://www.w3.org/2000/svg"><defs
   id="defs1" /><sodipodi:namedview
   id="namedview1"
   pagecolor="#ffffff"
   bordercolor="#666666"
   borderopacity="1.0"
   inkscape:showpageshadow="2"
   inkscape:pageopacity="0.0"
   inkscape:pagecheckerboard="0"
   inkscape:deskcolor="#d1d1d1"
   inkscape:zoom="1.4590278"
   inkscape:cx="305.34032"
   inkscape:cy="52.089482"
   inkscape:window-width="1728"
   inkscape:window-height="1051"
   inkscape:window-x="0"
   inkscape:window-y="38"
   inkscape:window-maximized="0"
   inkscape:current-layer="layer" />&#10;<style
   type="text/css"
   id="style1">&#10;	.st0{fill:#5741D9;}&#10;</style>&#10;&#10;<g
   id="g1"
   transform="matrix(1.1329719,0,0,1.1329719,10.278376,96.530978)"
   style="fill:#000000"><path
     id="_x23_0da8ffff_1_"
     class="st0"
     d="m 56,0.13164326 c 10.4,-0.7 21,1.40000004 30.3,6.10000004 13.8,6.7999997 24.8,18.9999997 29.9,33.3999997 2.3,6.4 3.5,13.1 3.5,19.9 v 25.1 c 0,1 0,2.1 -0.2,3.1 -0.6,2.5 -2.4,4.8 -4.8,5.9 -1.7,0.8 -3.6,0.9 -5.3,0.6 -3.8,-0.7 -6.8,-4.3 -6.8,-8.2 0,-7.8 0,-15.6 0,-23.4 0.1,-2.2 0.1,-4.6 -1.1,-6.5 -1.9,-3.6 -6.7,-5.3 -10.4,-3.8 -3.2,1.1 -5.5,4.4 -5.6,7.8 0,7.9 0,15.8 0,23.7 0,1.5 0.1,3 -0.4,4.4 -0.8,2.8 -3.1,5 -5.9,5.8 -3.7,1 -7.9,-0.6 -9.7,-4 -1.3,-2 -1.2,-4.5 -1.1,-6.8 0,-7.9 0,-15.7 0,-23.6 -0.1,-4 -3.4,-7.6 -7.3,-8.1 -2.6,-0.4 -5.3,0.5 -7.2,2.3 -1.7,1.6 -2.6,3.9 -2.6,6.2 v 22.9 c 0,1.9 0.2,3.9 -0.5,5.7 -1.1,3.3 -4.4,5.7 -7.9,5.6 -3.6,0.2 -7.1,-2.3 -8.2,-5.6 -0.6,-1.7 -0.5,-3.4 -0.5,-5.2 0,-7.9 0,-15.8 0,-23.7 0,-3.9 -3.1,-7.5 -6.9,-8.2 -3.5,-0.7 -7.3,1 -9.1,4.2 -0.7,1.3 -1.1,2.8 -1.1,4.3 v 25.7 c 0,2.5 -1.1,5 -3,6.6 -2.9,2.5 -7.6,2.7 -10.6,0.4 -2.2,-1.5 -3.5,-4.1 -3.5,-6.8 v -26 c 0,-9.8 2.5,-19.6 7.2,-28.3 3.8,-7.1 9.1,-13.4 15.4,-18.4 C 31.9,5.4316433 43.8,0.83164326 56,0.13164326 Z"
     style="fill:#000000" /><path
     class="st0"
     d="m 289.7,30.231643 h -13 c 0.5,-9.1 2.4,-17.3 10.7,-22.4999997 8.3,-5.1 17.4,-6.3 26.9,-5.5 5.1,0.4 10.2,1.5 14.9,3.7 8.3,3.8 12.4,10.2999997 12.4,19.3999997 0,16.1 0,32.2 0,48.3 0,5.9 1.2,7 7.1,6.4 0.6,-0.1 1.3,-0.2 1.9,-0.3 0.1,0.3 0.1,0.6 0.1,0.8 v 9.8 c -4.7,1.6 -9.5,2.1 -14.2,0.8 -3.5,-1 -5.7,-3.5 -6.9,-6.8 -0.6,-1.7 -1,-3.5 -1.5,-5.4 -0.5,0.6 -0.9,1.1 -1.4,1.6 -10.3,10.4 -22.5,14.8 -36.9,11.1 -10.2,-2.6 -17.2,-11.9 -17.5,-22.5 -0.1,-3.4 0.2,-6.8 1,-10.1 1.9,-7.6 7.3,-12.2 14.1,-15.3 4.8,-2.2 10,-2.8 15.2,-3.5 6.1,-0.8 12.1,-1.5 18.2,-2.4 4.1,-0.6 6.2,-2.8 6.8,-6.9 1.3,-8.3 -2.4,-13.8 -10.4,-15.8 -4.8,-1.2 -9.7,-1.4 -14.6,-0.5 -7.2,1.3 -11.2,5.4 -12.6,12.5 0.1,1 -0.1,2 -0.3,3.1 z m 38.3,16 c -6,3.2 -11.8,4 -17.7,4.9 -4.9,0.8 -9.9,1.5 -14.7,3 -6.3,2.1 -9.2,7.3 -8.6,14.3 0.5,5.8 4.4,10.5 10.7,11.5 9.7,1.6 18.3,-1.1 25.1,-8.3 2,-2.1 3.6,-5.1 4,-7.9 0.9,-5.6 0.8,-11.3 1.2,-17.5 z m 185.3,16.8 c -0.3,1.4 -0.5,2.6 -0.8,3.7 -5.6,17.1 -17,24.4 -30.8,26 -23.9,2.6 -37.6,-13 -41.1,-29.6 -2.8,-13.2 -2.4,-26.3 3.4,-38.7 5.5,-11.7 14.3,-19.3999997 27.4,-21.6999997 15.7,-2.80000004 37.9,5 41.6,29.4999997 1,6.3 1.2,12.8 1.8,19.4 H 454 c 0.5,9 1.9,17.4 8.5,23.9 2.7,2.7 6.2,4 10,4.7 12.3,2.2 22.5,-3.7 26.5,-15.6 0.4,-1.3 1,-1.7 2.3,-1.6 3.9,0 7.8,0 12,0 z m -58.8,-23 H 500 c -0.5,-5.3 -1.4,-10.2 -3.9,-14.8 -2.4,-4.4 -5.9,-7.6 -10.7,-9.2 -15.7,-5.4 -31.9,7.1 -30.9,24 z m 91.5,49.8 H 532.2 V 4.0316433 h 13.1 V 16.031643 c 1,-1.1 1.6,-1.8 2.2,-2.5 9.4,-10.6999997 21.2,-13.49999974 34.6,-10.1999997 9.3,2.3 14.5,8.8999997 16.3,18.0999997 0.7,3.8 1.2,7.7 1.2,11.5 0.1,18.4 0.1,36.8 0.1,55.2 0,0.5 -0.1,1 -0.1,1.6 h -14.1 v -2.3 c 0,-17.2 0.1,-34.4 -0.1,-51.6 0,-3.8 -0.6,-7.7 -1.7,-11.4 -1.8,-6 -6.6,-9.2 -12.9,-9.5 -11.5,-0.4 -20.6,5.7 -23.4,15.9 -1,3.7 -1.3,7.6 -1.3,11.5 -0.1,15.1 -0.1,30.1 -0.1,45 z M 364.1,4.0316433 h 13.3 V 40.431643 c 0.8,-0.8 1.3,-1.2 1.8,-1.7 10.9,-11.1 21.8,-22.3 32.7,-33.3999997 0.9,-1 1.8,-1.4 3.2,-1.4 5.1,0.1 10.3,0 15.9,0 -0.8,0.8 -1.2,1.3 -1.7,1.8 -9.6,9.5999997 -19.1,19.2999997 -28.8,28.7999997 -1.1,1.1 -1.1,1.8 -0.4,3 10.5,16.7 20.9,33.4 31.3,50.1 0.4,0.6 0.7,1.2 1.2,2.1 -0.7,0.1 -1.2,0.1 -1.8,0.1 -4.8,0 -9.5,0 -14.3,0 -1.3,0 -1.9,-0.5 -2.6,-1.5 -8,-13.4 -16,-26.8 -24,-40.3 -0.4,-0.6 -0.7,-1.2 -1.2,-1.9 -3.7,3.7 -7.3,7.2 -10.9,10.9 -0.5,0.5 -0.6,1.4 -0.6,2.1 0,9.4 0,18.8 0,28.2 v 2.4 c -2.6,0 -5.2,0 -7.7,0 -1.8,0 -4.3,0.5 -5.3,-0.5 -0.9,-0.8 -0.4,-3.4 -0.4,-5.2 V 6.3316433 c 0.3,-0.5 0.3,-1.3 0.3,-2.3 z m -153.5,-0.1 C 199.8,14.631643 189.3,25.131643 178.7,35.631643 c 11.4,18.2 22.5,36 33.8,54.2 -0.9,0 -1.5,0.1 -2.1,0.1 -4.6,0 -9.3,0 -13.9,0 -1.3,0 -2.1,-0.5 -2.8,-1.6 -8,-13.4 -16,-26.8 -24,-40.3 -0.3,-0.6 -0.7,-1.1 -1.2,-1.9 -2,2.1 -3.8,4.4 -6,6 -4.5,3.4 -5.8,7.6 -5.5,13.2 0.5,7.3 0.1,14.7 0.1,22 v 2.4 H 143.9 V 4.0316433 h 13.2 V 39.831643 c 0.3,0.2 0.6,0.4 0.8,0.6 0.4,-0.6 0.6,-1.3 1,-1.8 10.8,-11.1 21.7,-22.1 32.5,-33.2999997 1,-1 1.9,-1.5 3.4,-1.4 4.5,0.1 9,0 13.5,0 0.7,0 1.3,0 2.3,0 z M 237,18.231643 C 243.7,8.4316433 250.8,0.23164326 264,2.6316433 V 17.331643 c -3.5,0.2 -7,0.1 -10.3,0.8 -8.1,1.7 -14.4,9.1 -15.7,18.1 -0.2,1.8 -0.4,3.6 -0.4,5.4 0,15.3 0,30.6 0,45.9 v 2.4 H 224 V 4.2316433 h 13 c 0,4.5 0,8.9999997 0,13.9999997 z"
     id="path1"
     style="fill:#000000" /></g>&#10;</svg>
