<?xml version="1.0" encoding="UTF-8" standalone="no"?>
<svg
   version="1.1"
   width="700"
   height="300"
   id="svg6"
   sodipodi:docname="quilt.svg"
   inkscape:version="1.3 (0e150ed, 2023-07-21)"
   xmlns:inkscape="http://www.inkscape.org/namespaces/inkscape"
   xmlns:sodipodi="http://sodipodi.sourceforge.net/DTD/sodipodi-0.dtd"
   xmlns="http://www.w3.org/2000/svg"
   xmlns:svg="http://www.w3.org/2000/svg">
  <defs
     id="defs6" />
  <sodipodi:namedview
     id="namedview6"
     pagecolor="#ffffff"
     bordercolor="#666666"
     borderopacity="1.0"
     inkscape:showpageshadow="2"
     inkscape:pageopacity="0.0"
     inkscape:pagecheckerboard="0"
     inkscape:deskcolor="#d1d1d1"
     inkscape:zoom="1.1715113"
     inkscape:cx="241.14151"
     inkscape:cy="167.30526"
     inkscape:window-width="1728"
     inkscape:window-height="1051"
     inkscape:window-x="0"
     inkscape:window-y="38"
     inkscape:window-maximized="0"
     inkscape:current-layer="svg6" />
  <path
     d="m 256.95572,157.61337 5.6e-4,0.60157 c -0.0348,23.21439 -8.63533,45.89859 -24.35899,63.01548 -0.5095,0.55711 -1.00058,1.12556 -1.4898,1.70043 -1.89364,2.17108 -3.96734,4.22577 -6.17424,6.07719 -0.67211,0.59117 -1.29587,1.22549 -1.92428,1.86253 2.88554,2.39445 5.79262,4.75422 8.75134,7.05754 2.28131,1.77943 4.54285,3.57994 6.78488,5.40866 1.69934,1.38395 3.41928,2.74018 5.14649,4.0891 1.33041,1.03955 2.65782,2.08294 3.9842,3.12764 0.44413,0.34962 0.8888,0.69855 1.33348,1.04747 l 0.78296,0.61864 0.6859,0.54034 0.47859,0.41242 v 0.2823 c -17.63702,0.0784 -35.2705,-0.1184 -52.90587,-0.33804 -3.13616,-0.039 -6.27234,-0.0756 -9.40855,-0.11113 -3.27788,-0.0372 -6.55573,-0.0761 -9.83357,-0.11676 -1.81776,-0.0225 -3.63551,-0.0444 -5.45329,-0.0644 -19.30004,-0.21466 -19.30004,-0.21466 -26.3562,-1.39868 l -0.55151,-0.0896 c -18.23984,-2.97886 -34.81887,-11.44699 -48.421162,-23.83873 -0.598784,-0.54014 -1.209151,-1.06289 -1.823933,-1.58463 -0.947971,-0.82424 -1.759463,-1.71887 -2.570487,-2.67635 -0.457226,-0.52419 -0.933926,-1.00528 -1.434664,-1.4876 -1.153839,-1.1411 -2.165169,-2.38336 -3.172997,-3.65379 -0.279159,-0.35158 -0.559476,-0.70225 -0.840563,-1.05229 -6.871572,-8.56835 -12.034028,-18.14757 -15.641673,-28.51726 l -0.245636,-0.70052 c -2.836392,-8.19441 -4.574694,-17.08519 -4.610829,-25.76634 l -0.0049,-0.94029 c -0.0025,-0.65503 -0.0045,-1.31005 -0.0056,-1.96508 -0.0028,-0.97556 -0.01146,-1.95095 -0.02041,-2.92647 -0.08549,-17.95892 5.52631,-36.53128 15.897097,-51.26251 l 0.335233,-0.48052 c 1.508443,-2.16014 3.063627,-4.26565 4.746192,-6.294715 l 0.691418,-0.840287 c 4.114133,-4.958974 8.603592,-9.605582 13.705954,-13.557084 l 0.58707,-0.459428 c 3.51564,-2.740342 7.137,-5.199777 10.98729,-7.44501 l 0.73814,-0.433102 c 65.26816,-37.940088 141.55285,14.816659 141.61233,82.159356 z m -131.62302,-55.47223 -0.50712,0.3413 c -2.62566,1.7757 -5.02907,3.76642 -7.39732,5.86933 l -0.44275,0.38872 c -1.67693,1.47301 -3.21101,2.97951 -4.63867,4.69271 l -0.69142,0.78735 c -11.53684,13.18885 -17.344888,30.69753 -16.182571,48.16727 1.06481,13.27162 5.812081,26.52312 14.333271,36.865 l 0.37066,0.4575 c 3.53667,4.34937 7.49233,8.40429 12.0506,11.68146 l 0.51264,0.37493 c 14.41356,10.49081 32.30057,14.90349 49.95411,12.19975 12.63824,-2.12579 24.42171,-7.53482 33.8741,-16.22916 0.59528,-0.54646 1.20151,-1.07639 1.81401,-1.60339 2.09907,-1.83878 3.85276,-3.8539 5.59309,-6.03419 0.24419,-0.29684 0.48864,-0.59347 0.73333,-0.88991 3.23778,-3.96513 5.87097,-8.30111 8.01802,-12.94285 l 0.25418,-0.53814 c 2.41825,-5.1421 4.05389,-10.54003 5.10954,-16.11765 l 0.14129,-0.73704 c 1.80483,-9.89388 0.80991,-20.12432 -1.8351,-29.75151 l -0.20676,-0.75565 c -1.76633,-6.24917 -4.79936,-12.57086 -8.54458,-17.87624 l -0.38968,-0.55302 c -3.75764,-5.27111 -8.04838,-10.137 -13.16079,-14.12665 l -0.85131,-0.6848 C 193.65721,97.481161 182.02754,93.00774 169.93632,91.413691 l -0.65668,-0.08822 c -15.20561,-1.787394 -31.32783,2.191627 -43.94694,10.815669 z"
     fill="#ffffff"
     id="path1"
     sodipodi:nodetypes="cccccccccccccccsssccccccccccccccccccccccccccccccccccccccccccccccccccccc"
     style="fill:#000000;fill-opacity:1;stroke-width:0.282301" />
  <path
     d="m 280.31616,118.23232 c 10.3407,0 20.6814,0 31.33545,0 0.004,2.18058 0.008,4.36117 0.0125,6.60783 0.0138,7.00856 0.0317,14.01711 0.0522,21.02567 0.003,1.09198 0.006,2.18397 0.009,3.27595 5.7e-4,0.21736 0.001,0.43472 0.002,0.65867 0.01,3.50127 0.017,7.00254 0.0229,10.50381 0.006,3.6032 0.0156,7.20639 0.0278,10.80958 0.007,2.21629 0.0125,4.43256 0.0143,6.64886 0.002,1.71079 0.008,3.42154 0.0155,5.13232 0.003,0.69351 0.004,1.38702 0.003,2.08054 -0.005,9.39773 0.21517,20.10192 6.33343,27.82773 0.25546,0.25183 0.51092,0.50365 0.77413,0.7631 0.6373,0.64841 0.6373,0.64841 0.6373,1.21301 0.15975,0.071 0.31951,0.14193 0.4841,0.21504 0.73517,0.39837 1.29984,0.88021 1.9331,1.42584 4.73064,3.8289 11.04516,4.16358 16.88405,3.66578 6.73215,-0.81835 13.07224,-4.35387 17.32624,-9.6294 5.10788,-6.66863 7.44773,-15.23208 7.45618,-23.54749 0.003,-0.44247 0.003,-0.44247 0.004,-0.89388 0.004,-0.98303 0.007,-1.96606 0.009,-2.94909 0.003,-0.70682 0.006,-1.41363 0.008,-2.12045 0.006,-1.51896 0.0113,-3.03792 0.0158,-4.55689 0.006,-2.19613 0.0144,-4.39226 0.0226,-6.58839 0.0135,-3.56358 0.0257,-7.12716 0.0371,-10.69075 0.011,-3.46049 0.0229,-6.92098 0.0353,-10.38146 0,-0.32354 0,-0.32354 0.003,-0.6536 0.006,-1.68697 0.0121,-3.37394 0.0183,-5.0609 0.0301,-8.26047 0.0571,-16.52095 0.0845,-24.78143 10.3407,0 20.6814,0 31.33545,0 0,41.17648 0,82.35296 0,124.77721 -9.8749,0 -19.7498,0 -29.92395,0 -0.13973,-9.50226 -0.13973,-9.50226 -0.2823,-19.19649 -0.83843,1.49055 -1.67687,2.9811 -2.54071,4.51682 -0.73672,0.98999 -1.44691,1.9054 -2.25841,2.82301 -0.2067,0.23727 -0.4134,0.47454 -0.62634,0.71899 -0.62874,0.71057 -1.26872,1.40881 -1.91437,2.10403 -0.16303,0.18159 -0.32606,0.36317 -0.49403,0.55027 -6.85272,7.29631 -17.3814,11.83613 -27.32547,12.18878 -1.18983,0.023 -2.37885,0.0341 -3.56888,0.0351 -0.21268,1.8e-4 -0.42536,2.8e-4 -0.64449,5.6e-4 -12.48261,-0.0177 -23.34241,-3.99752 -32.33184,-12.7747 -6.51052,-6.58355 -10.10606,-15.39769 -11.92723,-24.3485 -0.064,-0.31431 -0.064,-0.31431 -0.12923,-0.63497 -0.13448,-0.70412 -0.24999,-1.40985 -0.3648,-2.11746 -0.0478,-0.27814 -0.0957,-0.55628 -0.14494,-0.84284 -0.56173,-3.75671 -0.49661,-7.52031 -0.48519,-11.31048 0.003,-1.02907 0.002,-2.05814 0.001,-3.08721 -2.9e-4,-1.77788 10e-4,-3.55574 0.005,-5.33362 0.005,-2.57042 0.006,-5.14084 0.007,-7.71127 10e-4,-4.17153 0.005,-8.34305 0.0103,-12.51458 0.005,-4.04944 0.009,-8.09888 0.0116,-12.14833 1.4e-4,-0.2501 2.8e-4,-0.50019 5.6e-4,-0.75787 8.5e-4,-1.25481 0.001,-2.50962 0.002,-3.76442 0.006,-10.39068 0.0162,-20.78134 0.0284,-31.17202 z"
     fill="#FFFFFF"
     id="path2"
     style="fill:#000000;fill-opacity:1;stroke-width:0.282301" />
  <path
     d="m 193.04974,119.23802 c 0.58109,0.50668 1.15513,1.02018 1.7291,1.53501 0.37391,0.3226 0.37391,0.3226 0.75537,0.65172 8.738,7.62367 14.0282,18.43293 15.61811,29.83683 0.0266,0.18848 0.0532,0.37696 0.0806,0.57115 1.56613,12.2839 -1.70544,25.58606 -9.28232,35.43793 -1.02732,1.3015 -2.10359,2.55322 -3.23392,3.76675 -0.49247,0.53096 -0.95528,1.07493 -1.41481,1.63426 -0.9331,1.0903 -1.97844,2.00367 -3.08767,2.91123 -0.38702,0.31824 -0.38702,0.31824 -0.78185,0.6429 -10.4814,8.34557 -23.66014,12.18342 -37.00594,10.69981 -11.04011,-1.39992 -20.78792,-6.20928 -28.83534,-13.88342 -0.23472,-0.21652 -0.46944,-0.43305 -0.71127,-0.65613 -9.04464,-8.60629 -13.58294,-21.1103 -14.00369,-33.40419 -0.19782,-12.3762 3.96546,-25.01112 12.57951,-34.06598 0.28414,-0.29325 0.5693,-0.58552 0.85544,-0.87681 0.44337,-0.45353 0.87837,-0.91414 1.31309,-1.37595 16.26271,-17.04546 45.35945,-18.80421 65.42555,-3.42511 z"
     fill="#f98200"
     id="path3"
     style="stroke-width:0.282301;fill:#000000;fill-opacity:1" />
  <path
     d="m 570.23967,82.097746 c 10.24754,0 20.49508,0 31.05315,0 0,11.92441 0,23.848824 0,36.134574 10.24754,0 20.49508,0 31.05315,0 0,8.29119 0,16.58239 0,25.12483 -10.24754,0 -20.49508,0 -31.05315,0 0.0338,10.74124 0.0338,10.74124 0.0728,21.48247 0.0169,4.38141 0.0335,8.76282 0.0463,13.14424 0.009,3.19124 0.0206,6.38246 0.0341,9.57368 0.007,1.68871 0.0133,3.3774 0.0172,5.06613 0.004,1.59184 0.01,3.18366 0.0181,4.7755 0.003,0.58193 0.004,1.16388 0.005,1.74582 0.007,5.83744 0.22632,12.95265 4.35896,17.55758 3.82224,3.49346 9.51784,3.38252 14.35796,3.20581 3.26967,-0.18271 6.29393,-0.915 9.36419,-2.02698 0.80261,-0.27899 0.80261,-0.27899 1.36721,-0.27899 0.50687,8.27591 0.83034,16.55678 1.12921,24.84252 -6.30969,1.87136 -6.30969,1.87136 -9.38652,2.34663 -0.26164,0.0438 -0.52328,0.0877 -0.79287,0.13288 -2.5607,0.42076 -5.06695,0.6708 -7.66293,0.68315 -0.27059,0.002 -0.54118,0.003 -0.81995,0.005 -0.57129,0.003 -1.14259,0.005 -1.71388,0.006 -0.85294,0.003 -1.70572,0.0115 -2.55864,0.0204 -4.71629,0.0259 -9.43801,-0.3174 -13.97612,-1.69381 -0.24179,-0.0716 -0.48358,-0.1431 -0.73268,-0.21683 -5.04289,-1.55777 -9.35519,-4.12433 -13.17066,-7.77583 -0.21142,-0.19032 -0.42286,-0.38065 -0.64068,-0.57674 -8.55134,-7.98222 -9.9719,-20.87926 -10.36907,-31.88792 -0.0995,-3.74715 -0.0734,-7.49752 -0.0655,-11.2456 0.003,-1.48354 0.003,-2.96707 0,-4.45061 0,-2.56003 0.003,-5.12005 0.005,-7.68008 0.005,-3.70121 0.006,-7.40241 0.007,-11.10361 0,-6.00742 0.005,-12.01482 0.0104,-18.02223 0.005,-5.82982 0.009,-11.65963 0.0116,-17.48945 1.5e-4,-0.36037 2.9e-4,-0.72073 0,-1.09202 0,-1.80815 0.003,-3.6163 0.003,-5.42445 0.006,-14.96052 0.0161,-29.921028 0.0284,-44.881544 z"
     fill="#FFFFFF"
     id="path4"
     style="fill:#000000;fill-opacity:1;stroke-width:0.282301" />
  <path
     d="m 502.48733,46.527772 c 10.43386,0 20.86772,0 31.61776,0 0,64.838978 0,129.677958 0,196.481758 -10.43386,0 -20.86772,0 -31.61776,0 0,-64.83898 0,-129.67796 0,-196.481758 z"
     fill="#FFFFFF"
     id="path5"
     style="fill:#000000;fill-opacity:1;stroke-width:0.282301" />
  <path
     d="m 433.04119,118.23232 c 10.3407,0 20.6814,0 31.33546,0 0,41.17648 0,82.35296 0,124.77721 -10.3407,0 -20.6814,0 -31.33546,0 0,-41.17648 0,-82.35296 0,-124.77721 z"
     fill="#FFFFFF"
     id="path6"
     style="fill:#000000;fill-opacity:1;stroke-width:0.282301" />
</svg>
