<?xml version="1.0" encoding="UTF-8" standalone="no"?>
<svg
   version="1.1"
   width="700"
   height="300"
   id="svg6"
   sodipodi:docname="quilt.svg"
   inkscape:version="1.3 (0e150ed, 2023-07-21)"
   xmlns:inkscape="http://www.inkscape.org/namespaces/inkscape"
   xmlns:sodipodi="http://sodipodi.sourceforge.net/DTD/sodipodi-0.dtd"
   xmlns="http://www.w3.org/2000/svg"
   xmlns:svg="http://www.w3.org/2000/svg">
  <defs
     id="defs6" />
  <sodipodi:namedview
     id="namedview6"
     pagecolor="#ffffff"
     bordercolor="#666666"
     borderopacity="1.0"
     inkscape:showpageshadow="2"
     inkscape:pageopacity="0.0"
     inkscape:pagecheckerboard="0"
     inkscape:deskcolor="#d1d1d1"
     inkscape:zoom="0.35241702"
     inkscape:cx="239.77276"
     inkscape:cy="167.4153"
     inkscape:window-width="1728"
     inkscape:window-height="1051"
     inkscape:window-x="0"
     inkscape:window-y="38"
     inkscape:window-maximized="0"
     inkscape:current-layer="svg6" />
  <g
     id="g1"
     transform="matrix(0.28230138,0,0,0.28230138,67.65403,46.527772)">
    <path
       d="m 670.56593,393.5 0.002,2.13095 c -0.12315,82.23268 -30.58907,162.58721 -86.2872,223.22061 -1.8048,1.97345 -3.54436,3.98708 -5.27734,6.02344 -6.70787,7.69065 -14.05356,14.96901 -21.87109,21.52734 -2.38083,2.09411 -4.59035,4.34105 -6.81641,6.59766 10.22152,8.48189 20.51929,16.84094 31,25 8.08111,6.30331 16.09219,12.68129 24.03418,19.15918 6.0196,4.90238 12.11217,9.70658 18.23047,14.48486 4.71275,3.68242 9.41485,7.37844 14.11328,11.0791 1.57327,1.23844 3.14842,2.47449 4.72363,3.71045 l 2.77348,2.19141 2.42969,1.91406 1.69531,1.46094 v 1 c -62.47585,0.27752 -124.93919,-0.41944 -187.40918,-1.19747 -11.10927,-0.13819 -22.21862,-0.26777 -33.32804,-0.39364 -11.61128,-0.13165 -23.22247,-0.26964 -34.83361,-0.41361 -6.43905,-0.0798 -12.87811,-0.15723 -19.31726,-0.22823 -68.36679,-0.76038 -68.36679,-0.76038 -93.36191,-4.95455 l -1.95361,-0.31747 C 214.50107,714.94296 155.77297,684.9462 107.58937,641.05078 c -2.12108,-1.91334 -4.28319,-3.76511 -6.46094,-5.61328 -3.358011,-2.91971 -6.232571,-6.08876 -9.105471,-9.48047 -1.61964,-1.85684 -3.30826,-3.561 -5.08203,-5.26953 -4.08726,-4.04214 -7.66971,-8.4426 -11.23975,-12.94287 -0.98887,-1.24541 -1.98184,-2.48758 -2.97754,-3.72754 C 48.382379,573.66529 30.095339,539.73271 17.315929,503 l -0.87012,-2.48145 C 6.3984192,471.4914 0.24080922,439.99746 0.11280922,409.24609 l -0.0173,-3.33079 c -0.009,-2.32031 -0.016,-4.64063 -0.0198,-6.96095 -0.01,-3.45574 -0.0406,-6.91086 -0.0723,-10.36646 C -0.29941078,324.97175 19.579329,259.18264 56.315909,207 l 1.1875,-1.70215 c 5.34338,-7.65189 10.85233,-15.11026 16.8125,-22.29785 l 2.44922,-2.97656 C 91.338679,162.4572 107.24175,145.99746 125.31593,132 l 2.07959,-1.62744 C 139.84902,120.66541 152.67701,111.95332 166.31593,104 l 2.61475,-1.53418 C 400.13096,-31.92987 670.35526,154.95107 670.56593,393.5 Z m -466.25,-196.5 -1.79639,1.20898 C 193.21863,204.49907 184.705,211.55082 176.31593,219 l -1.56836,1.37695 C 168.80737,225.5948 163.37318,230.9313 158.31593,237 l -2.44922,2.78906 C 114.99962,286.5081 94.425689,348.52931 98.542979,410.4126 102.31487,457.42485 119.1312,504.36583 149.31593,541 l 1.31299,1.62061 C 163.1569,558.02744 177.16911,572.39124 193.31593,584 l 1.81592,1.32812 c 51.05736,37.16176 114.41876,52.79284 176.95312,43.21534 44.76862,-7.53022 86.50936,-26.69069 119.99268,-57.48877 2.10867,-1.93572 4.25614,-3.81289 6.42578,-5.67969 7.43557,-6.51356 13.6477,-13.65174 19.8125,-21.375 0.865,-1.05151 1.73091,-2.10227 2.59766,-3.15234 C 532.38285,526.80191 541.71043,511.44252 549.31593,495 l 0.90039,-1.90625 C 558.78255,474.87884 564.57648,455.75766 568.31593,436 l 0.50049,-2.61084 C 575.20968,398.34192 571.68537,362.10251 562.31593,328 l -0.73242,-2.67676 C 555.32662,303.18673 544.58269,280.7933 531.31593,262 l -1.38037,-1.95898 C 516.62483,241.36909 501.42566,224.13259 483.31593,210 l -3.01563,-2.42578 C 446.34277,180.49288 405.14683,164.64662 362.31593,159 l -2.32617,-0.3125 C 306.12672,152.35599 249.01677,166.45093 204.31593,197 Z"
       fill="#ffffff"
       id="path1"
       sodipodi:nodetypes="cccccccccccccccsssccccccccccccccccccccccccccccccccccccccccccccccccccccc"
       style="fill:#1f1b52;fill-opacity:1" />
    <path
       d="m 753.31593,254 c 36.63,0 73.26,0 111,0 0.0146,7.7243 0.0292,15.44861 0.0442,23.40698 0.049,24.82654 0.11241,49.65303 0.1848,74.47952 0.0113,3.86815 0.0224,7.73631 0.0335,11.60447 0.002,0.76995 0.004,1.5399 0.007,2.33319 0.0352,12.40259 0.0602,24.80519 0.0812,37.20781 0.0219,12.76367 0.0551,25.52728 0.0983,38.2909 0.0263,7.8508 0.0442,15.70152 0.0507,23.55237 0.006,6.06015 0.0278,12.12016 0.0549,18.18026 0.009,2.45663 0.0125,4.91329 0.0107,7.36993 -0.0166,33.28971 0.76217,71.20732 22.43499,98.57457 0.90492,0.89203 1.80984,1.78406 2.74219,2.70312 C 892.31593,594 892.31593,594 892.31593,596 c 0.5659,0.25137 1.1318,0.50273 1.71484,0.76172 2.60421,1.41117 4.60444,3.11799 6.84766,5.05078 16.75738,13.56315 39.12539,14.74871 59.80859,12.98535 23.84737,-2.89888 46.30598,-15.42278 61.37498,-34.11035 18.0937,-23.62238 26.3822,-53.95683 26.4121,-83.41261 0.01,-1.56737 0.01,-1.56737 0.015,-3.1664 0.015,-3.48221 0.024,-6.9644 0.032,-10.44662 0.01,-2.50377 0.02,-5.00752 0.03,-7.51128 0.021,-5.38064 0.04,-10.76127 0.056,-16.14192 0.023,-7.77941 0.051,-15.55878 0.08,-23.33816 0.048,-12.62331 0.091,-25.24664 0.1315,-37.86997 0.039,-12.25815 0.081,-24.51629 0.125,-36.77442 0,-1.14605 0,-1.14605 0.01,-2.31525 0.021,-5.97577 0.043,-11.95153 0.065,-17.92729 0.1065,-29.26118 0.2023,-58.52237 0.2995,-87.78358 36.63,0 73.26,0 111,0 0,145.86 0,291.72 0,442 -34.98,0 -69.96,0 -106,0 -0.495,-33.66 -0.495,-33.66 -1,-68 -2.97,5.28 -5.94,10.56 -9,16 -2.6097,3.50686 -5.1254,6.74953 -8,10 -0.7322,0.84047 -1.4644,1.68094 -2.2187,2.54687 -2.2272,2.51707 -4.4942,4.99044 -6.7813,7.45313 -0.5775,0.64324 -1.155,1.28648 -1.75,1.94922 -24.2745,25.84584 -61.57037,41.92731 -96.79538,43.17651 -4.21477,0.0816 -8.42664,0.12087 -12.64209,0.12427 -0.75339,6.7e-4 -1.50677,10e-4 -2.28299,0.002 -44.21732,-0.0626 -82.68612,-14.16046 -114.52951,-45.252 -23.06229,-23.32101 -35.79885,-54.54344 -42.25,-86.25 -0.22659,-1.11339 -0.22659,-1.11339 -0.45776,-2.24927 -0.47639,-2.49423 -0.88555,-4.99413 -1.29224,-7.50073 -0.16944,-0.98525 -0.33887,-1.97049 -0.51344,-2.9856 -1.98981,-13.30744 -1.75912,-26.63928 -1.71869,-40.06526 0.009,-3.64529 0.006,-7.29057 0.004,-10.93586 -10e-4,-6.2978 0.005,-12.59556 0.0165,-18.89335 0.0163,-9.10525 0.0215,-18.21049 0.024,-27.31575 0.004,-14.77686 0.0176,-29.5537 0.0366,-44.33055 0.0184,-14.3444 0.0325,-28.68879 0.041,-43.0332 5.2e-4,-0.88592 0.001,-1.77184 0.002,-2.68461 0.003,-4.44492 0.005,-8.88985 0.008,-13.33477 0.0207,-36.80704 0.0575,-73.61403 0.10065,-110.42105 z"
       fill="#FFFFFF"
       id="path2"
       style="fill:#1f1b52;fill-opacity:1" />
    <path
       d="m 444.19093,257.5625 c 2.05838,1.79483 4.09181,3.61381 6.125,5.4375 1.32451,1.14275 1.32451,1.14275 2.67578,2.30859 30.95273,27.00542 49.69225,65.2952 55.32422,105.69141 0.0943,0.66765 0.18852,1.33531 0.28564,2.02319 5.54773,43.51343 -6.0412,90.63384 -32.88086,125.53223 -3.63909,4.61034 -7.45159,9.04432 -11.45556,13.34302 -1.7445,1.88084 -3.3839,3.80774 -5.01172,5.78906 -3.30531,3.86219 -7.00824,7.09765 -10.9375,10.3125 -1.37092,1.12729 -1.37092,1.12729 -2.76953,2.27734 -37.12841,29.56262 -83.81166,43.15752 -131.08667,37.9021 C 275.35222,563.22048 240.82242,546.18422 212.31593,519 c -0.83145,-0.76699 -1.66289,-1.53398 -2.51953,-2.32422 -32.03895,-30.48617 -48.11503,-74.77928 -49.60547,-118.32812 -0.70075,-43.84037 14.04689,-88.59722 44.56055,-120.67237 1.00654,-1.03877 2.01664,-2.0741 3.03027,-3.10595 1.57055,-1.60654 3.11144,-3.23816 4.65137,-4.87403 57.60761,-60.38036 160.67738,-66.61042 231.75781,-12.13281 z"
       fill="#f98200"
       id="path3" />
    <path
       d="m 1780.3159,126 c 36.3,0 72.6,0 110,0 0,42.24 0,84.48 0,128 36.3,0 72.6,0 110,0 0,29.37 0,58.74 0,89 -36.3,0 -72.6,0 -110,0 0.1198,38.04887 0.1198,38.04887 0.2578,76.09766 0.06,15.52033 0.1188,31.04065 0.1641,46.56103 0.033,11.30435 0.073,22.60866 0.1209,33.91295 0.025,5.98194 0.047,11.96384 0.061,17.94582 0.013,5.63883 0.035,11.27755 0.064,16.91632 0.01,2.06141 0.015,4.12283 0.017,6.18425 0.025,20.67804 0.8017,45.88237 15.4408,62.19447 13.5396,12.37492 33.7152,11.98194 50.8604,11.35596 11.5822,-0.64721 22.2951,-3.24119 33.1709,-7.18018 C 1993.3159,606 1993.3159,606 1995.3159,606 c 1.7955,29.31589 2.9413,58.64931 4,88 -22.3509,6.62896 -22.3509,6.62896 -33.25,8.3125 -0.9268,0.15533 -1.8536,0.31066 -2.8086,0.4707 -9.0708,1.49048 -17.9487,2.3762 -27.1445,2.41992 -0.9585,0.006 -1.917,0.0114 -2.9045,0.0173 -2.0237,0.009 -4.0474,0.016 -6.0711,0.0198 -3.0214,0.01 -6.0422,0.0406 -9.0635,0.0723 -16.7066,0.0918 -33.4324,-1.12434 -49.5078,-6 -0.8565,-0.25346 -1.713,-0.50692 -2.5954,-0.76807 -17.8635,-5.51812 -33.139,-14.6097 -46.6546,-27.54445 -0.7489,-0.67418 -1.4979,-1.34836 -2.2695,-2.04297 -30.2915,-28.27556 -35.3236,-73.96091 -36.7305,-112.95703 -0.3526,-13.27357 -0.26,-26.55856 -0.2321,-39.83545 0.01,-5.25515 0.01,-10.51029 0,-15.76544 0,-9.06843 0.01,-18.13683 0.016,-27.20526 0.016,-13.11083 0.021,-26.22165 0.024,-39.33248 0,-21.28014 0.018,-42.56025 0.037,-63.84037 0.019,-20.65104 0.033,-41.30208 0.041,-61.95313 5e-4,-1.27653 10e-4,-2.55305 0,-3.86826 0,-6.40503 0.01,-12.81006 0.01,-19.2151 0.021,-52.99485 0.057,-105.98967 0.1006,-158.98451 z"
       fill="#FFFFFF"
       id="path4"
       style="fill:#1f1b52;fill-opacity:1" />
    <path
       d="m 1540.3159,0 c 36.96,0 73.92,0 112,0 0,229.68 0,459.36 0,696 -36.96,0 -73.92,0 -112,0 0,-229.68 0,-459.36 0,-696 z"
       fill="#FFFFFF"
       id="path5"
       style="fill:#1f1b52;fill-opacity:1" />
    <path
       d="m 1294.3159,254 c 36.63,0 73.26,0 111,0 0,145.86 0,291.72 0,442 -36.63,0 -73.26,0 -111,0 0,-145.86 0,-291.72 0,-442 z"
       fill="#FFFFFF"
       id="path6"
       style="fill:#1f1b52;fill-opacity:1" />
  </g>
</svg>
