<svg xmlns="http://www.w3.org/2000/svg" id="Artwork" width="700" height="300"><defs id="defs1"><style id="style1">.cls-1{fill:#e32851}.cls-1,.cls-2,.cls-3{stroke-width:0}.cls-2{fill:#ff932c}.cls-3{fill:#0088d9}</style></defs><g id="g7" style="fill:#000" transform="translate(10.985 54.17)scale(.47913)"><rect id="rect1" width="67.79" height="205.22" x="418.38" y="92.93" class="cls-1" rx="3.19" ry="3.19" style="fill:#000"/><path id="path1" d="m660.444 95-40.415 107.649c-.232.62-1.108.62-1.342.002L577.91 94.99a3.19 3.19 0 0 0-2.984-2.06h-67.144c-2.264 0-3.807 2.292-2.955 4.39l80.757 198.84a3.19 3.19 0 0 0 2.956 1.99h59.051a3.19 3.19 0 0 0 2.954-1.986l81.116-198.84c.856-2.098-.688-4.395-2.954-4.395H663.43a3.19 3.19 0 0 0-2.987 2.07z" class="cls-2" style="fill:#000"/><path id="path2" d="M1304.356 89.818c-64.084 0-110.76 45.194-110.76 105.945 0 60.752 46.676 105.944 110.76 105.944 63.345 0 110.76-45.564 110.76-105.944 0-60.751-47.046-105.945-110.76-105.945m0 154.102c-25.188 0-41.859-19.265-41.859-48.156 0-28.892 16.67-48.159 41.859-48.159 24.819 0 41.859 19.263 41.859 48.159 0 28.524-17.04 48.156-41.859 48.156" class="cls-3" style="fill:#000"/><path id="path3" d="M395.927 91.945c-1.73-.634-4-1.14-6.421-1.517-3.933-.613-45.59-5.3-68.771 25.792-.41.55-1.287.256-1.287-.43V96.12a3.19 3.19 0 0 0-3.19-3.19h-61.411a3.19 3.19 0 0 0-3.19 3.19v198.84a3.19 3.19 0 0 0 3.19 3.19h61.41a3.19 3.19 0 0 0 3.191-3.19v-73.828c0-55.196 25.558-68.925 50.749-68.925 2.964 0 11.58-.017 23.75 3.352a3.185 3.185 0 0 0 4.031-3.068V94.933c0-1.325-.806-2.532-2.05-2.988z" class="cls-1" style="fill:#000"/><path id="path4" d="M452.275 0c-21.416 0-38.778 16.735-38.778 37.376 0 20.642 17.362 37.379 38.778 37.379s38.778-16.735 38.778-37.379S473.691 0 452.275 0" class="cls-1" style="fill:#000"/><path id="path5" d="M941.806 92.93h-61.41a3.19 3.19 0 0 0-3.19 3.19v19.554c0 .765-1.03.996-1.36.305-22.172-46.462-153.525-37.43-153.525 79.549 0 109.363 112.224 128.84 153.63 83.07.445-.492 1.257-.19 1.257.472v15.89a3.19 3.19 0 0 0 3.19 3.19h61.408a3.19 3.19 0 0 0 3.19-3.19V96.12a3.19 3.19 0 0 0-3.19-3.19M834.643 243.696c-27.05 0-45.903-18.853-45.903-47.95s18.854-48.364 45.903-48.364c27.46 0 45.902 19.674 45.902 48.364s-18.442 47.95-45.902 47.95" class="cls-2" style="fill:#000"/><path id="path6" d="M1173.714 92.93h-61.41a3.19 3.19 0 0 0-3.191 3.19v19.552c0 .766-1.032.996-1.36.304-22.272-47.046-144.596-35.248-144.596 73.638 0 106.753 111.505 115.539 144.755 84.483.455-.425 1.197-.095 1.197.528v9.609h-.01c-.844 45.366-57.673 64.996-86.546 30.541a3.187 3.187 0 0 0-4.173-.634l-51.749 33.478c-1.551 1.004-1.92 3.104-.828 4.596 66.032 90.236 210.027 44.344 211.093-67.773h.01V96.12a3.19 3.19 0 0 0-3.19-3.19zm-101.277 140.022c-24.45 0-41.49-17.04-41.49-43.337s17.04-43.714 41.49-43.714c24.818 0 41.486 17.782 41.486 43.713s-16.668 43.338-41.487 43.338" class="cls-3" style="fill:#000"/><path id="path7" d="M230.305 185.84H168.81c-1.636 0-3.045 1.337-3.174 2.968-1.985 25.247-23.087 45.117-48.842 45.117-30.903 0-43.399-26.241-43.4-26.246-5.333-10.048-5.613-19.76-5.607-21.86a.71.71 0 0 1 .371-.618l17.595-9.723 111.18-61.484a5.32 5.32 0 0 0 2.744-4.653V43.248c0-2.43-2.607-3.968-4.734-2.792l-126.096 69.72a.717.717 0 0 1-1.064-.627V5.656c0-2.53-2.802-4.053-4.925-2.678L2.427 42.113A5.32 5.32 0 0 0 0 46.576v139.265c.499 64.077 52.6 115.866 116.794 115.866 63.073 0 114.46-50 116.708-112.525.065-1.821-1.375-3.343-3.197-3.343" class="cls-1" style="fill:#000"/></g></svg>