<?xml version="1.0" encoding="UTF-8" standalone="no"?>
<svg
   id="Artwork"
   viewBox="0 0 699.99997 300.00001"
   version="1.1"
   sodipodi:docname="trivago.svg"
   width="700"
   height="300"
   inkscape:version="1.3 (0e150ed, 2023-07-21)"
   xmlns:inkscape="http://www.inkscape.org/namespaces/inkscape"
   xmlns:sodipodi="http://sodipodi.sourceforge.net/DTD/sodipodi-0.dtd"
   xmlns="http://www.w3.org/2000/svg"
   xmlns:svg="http://www.w3.org/2000/svg">
  <sodipodi:namedview
     id="namedview7"
     pagecolor="#ffffff"
     bordercolor="#666666"
     borderopacity="1.0"
     inkscape:showpageshadow="2"
     inkscape:pageopacity="0.0"
     inkscape:pagecheckerboard="0"
     inkscape:deskcolor="#d1d1d1"
     inkscape:zoom="0.24963162"
     inkscape:cx="707.04184"
     inkscape:cy="200.29514"
     inkscape:window-width="1728"
     inkscape:window-height="1051"
     inkscape:window-x="0"
     inkscape:window-y="38"
     inkscape:window-maximized="0"
     inkscape:current-layer="Artwork" />
  <defs
     id="defs1">
    <style
       id="style1">.cls-1{fill:#e32851;}.cls-1,.cls-2,.cls-3{stroke-width:0px;}.cls-2{fill:#ff932c;}.cls-3{fill:#0088d9;}</style>
  </defs>
  <g
     id="g7"
     transform="matrix(0.47913393,0,0,0.47913393,10.984859,54.169482)">
    <rect
       class="cls-1"
       x="418.3797"
       y="92.930099"
       width="67.790497"
       height="205.2202"
       rx="3.1903"
       ry="3.1903"
       id="rect1" />
    <path
       class="cls-2"
       d="m 660.4436,94.9992 -40.4143,107.6497 c -0.2325,0.6194 -1.1082,0.6206 -1.3425,0.002 L 577.9106,94.9906 c -0.4697,-1.2401 -1.6575,-2.0603 -2.9835,-2.0603 h -67.1437 c -2.2643,0 -3.8079,2.293 -2.9559,4.3908 l 80.7572,198.8395 c 0.4886,1.203 1.6575,1.9898 2.9559,1.9898 h 59.0518 c 1.2966,0 2.4642,-0.7847 2.954,-1.9853 L 731.6618,97.3256 c 0.8561,-2.0985 -0.6876,-4.3954 -2.954,-4.3954 h -65.2773 c -1.3294,0 -2.5195,0.8244 -2.9868,2.069 z"
       id="path1" />
    <path
       class="cls-3"
       d="m 1304.356,89.8176 c -64.0841,0 -110.7604,45.1944 -110.7604,105.9458 0,60.7514 46.6764,105.9437 110.7604,105.9437 63.3446,0 110.7604,-45.5641 110.7604,-105.9437 0,-60.7514 -47.0461,-105.9458 -110.7604,-105.9458 z m 0,154.1021 c -25.1883,0 -41.8587,-19.2646 -41.8587,-48.1562 0,-28.8916 16.6703,-48.1583 41.8587,-48.1583 24.8186,0 41.8587,19.2625 41.8587,48.1583 0,28.524 -17.0401,48.1562 -41.8587,48.1562 z"
       id="path2" />
    <path
       class="cls-1"
       d="m 395.9274,91.945 c -1.73,-0.6338 -4.001,-1.1395 -6.4216,-1.5169 -3.9331,-0.6133 -45.5889,-5.2999 -68.7709,25.7915 -0.4108,0.5509 -1.2868,0.2569 -1.2868,-0.4304 V 99.4903 c 0,0 -3e-4,10e-5 -3e-4,10e-5 h 3e-4 v -3.37 c 0,-1.762 -1.4284,-3.1904 -3.1904,-3.1904 h -61.4108 c -1.762,0 -3.1904,1.4284 -3.1904,3.1904 v 198.8395 c 0,1.762 1.4284,3.1904 3.1904,3.1904 h 61.4109 c 1.762,0 3.1904,-1.4284 3.1904,-3.1904 v -73.8284 c 0,-55.1953 25.558,-68.9246 50.7484,-68.9246 2.9641,0 11.5797,-0.017 23.75,3.3523 2.0256,0.5608 4.0316,-0.9663 4.0316,-3.068 v -57.558 c 0,-1.3251 -0.8065,-2.5324 -2.0507,-2.9882 z"
       id="path3" />
    <path
       class="cls-1"
       d="m 452.275,0 c -21.4164,0 -38.7784,16.7347 -38.7784,37.3764 0,20.6417 17.362,37.3785 38.7784,37.3785 21.4164,0 38.7784,-16.7347 38.7784,-37.3785 C 491.0534,16.7326 473.6914,0 452.275,0 Z"
       id="path4" />
    <path
       class="cls-2"
       d="m 941.8061,92.9301 h -61.4104 c -1.762,0 -3.1904,1.4284 -3.1904,3.1904 v 19.554 c 0,0.7649 -1.0294,0.9951 -1.3588,0.3048 -22.1721,-46.4623 -153.5257,-37.4304 -153.5257,79.5484 0,109.363 112.224,128.8398 153.6304,83.0698 0.4443,-0.4912 1.2568,-0.1898 1.2568,0.4725 v 15.8899 c 0,1.762 1.4283,3.1903 3.1903,3.1903 h 61.4078 c 1.762,0 3.1903,-1.4283 3.1903,-3.1903 V 96.1204 c 0,-1.762 -1.4283,-3.1903 -3.1903,-3.1903 z M 834.643,243.6965 c -27.0493,0 -45.9026,-18.8533 -45.9026,-47.9507 0,-29.0974 18.8533,-48.3639 45.9026,-48.3639 27.4597,0 45.9016,19.6737 45.9016,48.3639 0,28.6902 -18.4419,47.9507 -45.9016,47.9507 z"
       id="path5" />
    <path
       class="cls-3"
       d="m 1173.7137,92.9301 h -61.4103 c -1.762,0 -3.1904,1.4284 -3.1904,3.1904 v 19.5516 c -10e-5,0.7654 -1.0324,0.9955 -1.3599,0.3037 -22.2718,-47.046 -144.5961,-35.2478 -144.5961,73.6386 0,106.7526 111.5045,115.5382 144.755,84.4827 0.4554,-0.4253 1.1968,-0.0947 1.1968,0.5284 v 9.6085 h -0.01 c -0.8436,45.366 -57.6729,64.9961 -86.5455,30.541 -1.0338,-1.2336 -2.8223,-1.5085 -4.1737,-0.6343 l -51.7483,33.4783 c -1.5516,1.0038 -1.9197,3.1044 -0.8284,4.5957 66.0321,90.236 210.027,44.3441 211.0933,-67.773 h 0.01 V 96.1205 c 0,-1.762 -1.4284,-3.1904 -3.1904,-3.1904 z M 1072.4365,232.952 c -24.4489,0 -41.4889,-17.0402 -41.4889,-43.3375 0,-26.2973 17.04,-43.7134 41.4889,-43.7134 24.8186,0 41.4868,17.7815 41.4868,43.7134 0,25.9319 -16.6682,43.3375 -41.4868,43.3375 z"
       id="path6" />
    <path
       class="cls-1"
       d="m 230.3047,185.8392 h -61.4946 c -1.6359,0 -3.0456,1.3377 -3.1738,2.9686 -1.9853,25.2469 -23.0869,45.1171 -48.8428,45.1171 -30.9024,0 -43.3981,-26.2411 -43.4004,-26.2454 -5.3323,-10.0485 -5.6118,-19.7601 -5.6056,-21.8602 8e-4,-0.2599 0.1431,-0.4927 0.3706,-0.6184 l 17.5953,-9.7228 v 0 l 111.1797,-61.4839 c 1.6934,-0.9363 2.7441,-2.7185 2.7441,-4.6531 V 43.2476 c 0,-2.4296 -2.6076,-3.9675 -4.7339,-2.7919 L 68.8471,110.1766 c -0.478,0.2644 -1.0645,-0.0815 -1.0645,-0.6279 V 5.6555 c 0,-2.5289 -2.8019,-4.0525 -4.9246,-2.6779 L 2.4268,42.1133 C 0.9136,43.0933 0,44.7733 0,46.5761 v 139.2653 c 0.499,64.0769 52.6001,115.8657 116.7935,115.8657 63.0732,0 114.4609,-49.9995 116.708,-112.5251 0.0655,-1.8212 -1.3744,-3.3428 -3.1968,-3.3428 z"
       id="path7" />
  </g>
</svg>
