<svg xmlns="http://www.w3.org/2000/svg" width="77.999" height="24.762" fill="currentcolor" viewBox="0 0 77.999 2.146"><path d="M70.528-3.12c-.643-4.13-4.191-5.846-8.244-5.846-4.613 0-8.725 2.05-11.243 5.808-1.514 2.26-2.545 5.583-2.127 8.27.647 4.16 4.19 5.807 8.254 5.807 4.65 0 8.694-1.92 11.218-5.712 1.512-2.27 2.562-5.628 2.142-8.327m-9.1 7.736c-1.34 1.383-4.228 2.004-5.215.019-.948-1.905.358-5.674 1.818-7.14q1.244-1.248 2.927-1.248t2.285 1.248c.92 1.911-.379 5.64-1.814 7.12zm-12.48-5.43c.528-2.041.334-4.212-1.168-5.845-1.58-1.716-3.998-2.307-6.312-2.307-4.32 0-8.114 1.935-10.57 5.287-1.656 2.26-2.546 4.836-2.502 7.187.1 5.452 4.94 7.553 9.842 7.403 3.08-.093 6.74-1.664 7.788-3.69.535-1.034.078-3.099-1.645-2.067-2.457 1.472-9.511 1.883-9.994-1.596l10.96-1.521c1.843-.256 3.14-1.061 3.601-2.85zm-6.424-1.088L35.465-.857c.639-1.943 2.346-3.282 4.551-3.282 1.425 0 2.659.772 2.508 2.237m-18.9-5.288L17.338 6.049a284 284 0 0 0-.654-12.473c-.26-3.091-2.604-2.748-4.857-2.018-1.339.434-2.811 1.09-3.94 1.53-.725.28-.67 1.217.129 1.424 2.064.533 2.074 1.69 2.32 3.592l1.247 9.632c.17 1.312.351 2.577 1.745 2.994 2.332.7 7.234.755 9.126-2.64l8.993-16.135c1.026-1.84-7.138-.589-7.823.855"/></svg>