<svg xmlns="http://www.w3.org/2000/svg" xmlns:xlink="http://www.w3.org/1999/xlink" xml:space="preserve" viewBox="0 0 1992 596"><defs><linearGradient id="c"><stop offset="0" style="stop-color:#000;stop-opacity:1"/><stop offset="1" style="stop-color:gray;stop-opacity:1"/></linearGradient><linearGradient id="b"><stop offset="0" style="stop-color:#000;stop-opacity:1"/><stop offset="1" style="stop-color:gray;stop-opacity:1"/></linearGradient><linearGradient id="a"><stop offset="0" style="stop-color:#000;stop-opacity:1"/><stop offset="1" style="stop-color:#7f7f7f;stop-opacity:1"/></linearGradient><linearGradient xlink:href="#a" id="f" x1="693.405" x2="813.416" y1="-285.77" y2="-288.07" gradientUnits="userSpaceOnUse"/><linearGradient xlink:href="#b" id="e" x1="848.633" x2="835.834" y1="-577.719" y2="-627.291" gradientUnits="userSpaceOnUse"/><linearGradient xlink:href="#c" id="d" x1="482.914" x2="481.796" y1="-567.138" y2="-470.246" gradientUnits="userSpaceOnUse"/></defs><path d="M702.069-705.755c-60.129 21.305-120.354 42.342-180.336 64.05-22.972 8.315-35.775 25.602-38.817 50.368.052 16.488.122 32.559.22 49.096 4.4 1.139 8.766 2.36 13.14 2.394 11.907.096 23.814.105 35.722.102-11.908.003-23.815-.006-35.722-.102-4.374-.035-8.74-1.255-13.155-1.459-.012 13.821.02 27.175.053 40.528 3.496.674 6.99 1.911 10.49 1.933-3.5-.022-6.993-1.26-10.53-1.465-.114 11.883-.189 23.297-.22 34.703.044-.007.074-.09.074-.09 28.27 5.534 56.832 2.076 85.254 2.819-28.421-.742-56.975 2.735-85.093-2.492 33.507 12.46 66.855 24.594 100.537 36.85 0-13.999 0-27.13-.327-40.155-1.5 4.955-4.605 6.238-9.435 6.006 4.83.232 7.935-1.05 9.52-6.465.348-11.26.286-21.959-.133-32.635-3.314 2.766-6.814 3.117-10.735 3.094 3.92.023 7.421-.329 10.82-3.553.388-13.84.331-27.2-.081-40.547-4.989 3.281-10.257 3.082-15.594 3.061 5.337.021 10.605.219 15.687-3.486 2.04-20.227 12.636-32.786 31.104-39.473 74.056-26.817 148.063-53.771 222.084-80.686 1.565-.568 3.079-1.275 5.726-2.382-3.666-1.353-5.969-2.244-8.298-3.057-35.317-12.325-70.636-24.64-106.424-36.957z" style="fill:url(#d)" transform="translate(-482.068 705.755)"/><path fill="#233832" d="M1992 403.55c-.332.775-.883 1.052-.966 1.431-3.918 17.929-16.714 26.224-33.259 29.616-16.638 3.411-32.914 1.797-47.783-7.162-12.297-7.409-19.692-18.109-20.62-33.18 10.918 0 21.655 0 32.393-.007 4.927 13.611 17.36 19.279 30.706 13.99 4.133-1.637 7.245-4.187 7.538-8.983s-2.846-7.524-6.685-8.947c-6.53-2.42-13.33-4.105-19.954-6.287-7.723-2.546-15.788-4.483-22.99-8.107-21.823-10.982-24.63-39.181-5.866-54.824 17.859-14.887 52.486-15.383 70.64-.891 9.818 7.838 14.528 18.262 15.162 31.124h-30.55c-2.862-12.052-11.34-17.728-27.472-14.206-4.337.947-7.626 3.51-8.165 8.32-.526 4.689 2.222 7.779 6.097 9.343 5.991 2.418 12.256 4.157 18.393 6.22 7.87 2.643 15.973 4.768 23.533 8.117 10.908 4.833 17.59 13.412 19.5 25.712.348 2.871.348 5.571.348 8.721z"/><path fill="#969696" d="M996.438 596c-2.991-1.09-5.618-2.037-8.082-3.302-4.249-2.182-6.765-5.663-7.416-10.856 3.767-.816 6.871-1.538 9.662 2.314 2.942 4.059 8.835 5.125 13.635 3.348 4.96-1.835 6.486-5.848 6.722-10.647.08-1.653.013-3.313.013-5.575-5.442 3.857-10.904 7.274-17.25 4.912-3.875-1.442-7.927-3.752-10.603-6.808-6.142-7.014-5.665-19.884.182-26.931 6.348-7.65 15.369-8.312 27.16-1.872.804-5.922 4.917-3.278 8.71-3.517v23.18c0 5.163.02 10.326-.01 15.488-.057 11.501-4.484 17.016-15.957 19.965-2.25.301-4.292.301-6.771.301m-5.782-30.227c.775.626 1.494 1.34 2.333 1.864 4.98 3.107 11.224 2.188 14.884-2.146 4.108-4.863 4.134-13.153.058-18.07-3.769-4.547-9.74-5.549-14.832-2.488-6.438 3.868-7.609 12-2.442 20.84z"/><path fill="#93b9ad" d="M0 115.469a.62.62 0 0 1 .615-.637c.286 16.075.354 32.145.407 49.151.019 14.288.051 27.64.044 41.462-.115 11.883-.19 23.297-.265 34.71 0 0-.438.117-.62-.02C0 198.646 0 157.293 0 115.47M.851 361.137s-.438.013-.645-.062C0 332.645 0 304.292 0 275.469c.591-.41 1.183-.35 1.657.237-.305 2.483-.654 4.436-.66 6.39-.076 26.348-.105 52.695-.146 79.041"/><path d="M888.717-646.95c-.736.034-1.442.149-2.104.384-35.407 12.614-70.72 25.495-106.048 38.33-1.41.513-2.74 1.239-5.164 2.35 13.362 4.291 25.517 8.194 37.666 11.733-1.309-3.216-.153-4.96 1.974-6.39-2.122 1.433-3.243 3.199-1.66 6.581 9.696 3.425 17.456 8.695 23.668 16.268-.751-3.907.83-6.136 3.793-8.082-2.96 1.95-4.53 4.215-3.69 8.408 2.667 6.439 5.23 12.55 8.09 18.463 1.639-2.29 2.648-5.022 4.35-6.666-1.703 1.65-2.715 4.435-4.383 7.13-.216 6.34-.1 12.017.373 17.686 11.311-6.144 22.334-12.16 33.201-18.445-10.867 6.284-21.89 12.299-33.279 18.906a274 274 0 0 0 .074 25.539c2.685-1.478 4.964-3.03 7.346-4.406-2.382 1.376-4.662 2.929-7.424 4.869a562 562 0 0 0 .078 36.54c2.688-1.48 4.972-3.034 7.356-4.415 29.665-17.189 59.325-34.387 89.047-51.479 3.618-2.08 7.252-4.86 12.04-3.562.032-12.156-.022-23.85-.078-35.543-2.88.293-6.197-.182-8.748.695 2.552-.883 5.877-.46 8.83-1.158.007-8.82-.071-17.176-.148-25.533-3.234-1.199-6.025-.607-8.928.896 2.904-1.509 5.7-2.147 8.983-1.304-2.258-6.803-4.57-13.197-6.883-19.592-7.045-.843-12.166 3.258-17.482 6.629 5.315-3.375 10.428-7.514 17.406-6.961-4.87-7.798-12.404-11.702-20.106-15.293-3.014 1.564-6 2.567-8.681 4.105 2.68-1.538 5.667-2.541 8.449-4.377-10.212-4.142-20.36-7.7-30.508-11.257-6.747 3.409-13.646 6.547-20.21 10.277 6.564-3.73 13.465-6.868 19.954-10.541-2.455-.266-4.946-.888-7.154-.785m53.264 113.304c-29.722 17.092-59.382 34.29-89.047 51.479-2.384 1.381-4.667 2.934-7.432 4.877-.45 61.668-.47 122.866-.474 184.064 0 3.821.108 7.644.166 11.465.544.21 1.088.417 2.16.867 26.04-8.962 51.58-18.09 77.056-27.39 19.732-7.203 29.72-21.66 29.721-42.6q.003-89.94-.016-179.879c0-1.994-.117-3.99-.18-5.984-4.701-1.76-8.336 1.02-11.954 3.101" style="fill:url(#e)" transform="translate(-482.068 705.755)"/><path d="M483.938-429.837c-.518 2.27-.866 4.225-.871 6.18-.077 26.347-.107 52.693-.125 79.443 2.646 17.638 12.267 29.248 28.543 35.17 31.755 11.554 63.57 22.95 95.38 34.352 18.014 6.456 36.071 12.794 54.108 19.185 4.542-1.735 5.246-5.112 5.21-9.691.036 4.58-.67 7.956-4.956 9.935 9.998 3.649 19.742 7.053 29.484 10.457 7.18-2.406 5.323-8.431 5.332-13.595-.01 5.164 1.848 11.19-5.096 13.812 8.152 2.186 16.067 4.155 24.223 5.795 6.44-.304 7.008-4.111 6.983-9.205.025 5.094-.543 8.902-6.624 9.394 10.874 1.204 20.966-1.368 30.698-5.71 2.475-4.524 2.993-9.28 3.011-14.088.02 4.798-.376 9.54-2.63 14.023 9.07-3.223 17.76-6.38 26.45-9.537.377-3.645.906-7.29 1.32-10.934-.374 3.644-.782 7.287-.952 10.928 7.457-2.65 14.548-5.295 21.639-7.937 3.242-4.62 3.063-9.864 3.046-15.188.017 5.324.197 10.569-2.673 15.182 4.29-1.4 8.14-3.048 12.146-4.11 3.75-.994 4.7-3.01 4.682-6.775-.156-33.302-.092-66.604-.092-99.906v-6.135c-6.246 2.473-11.72 4.64-17.035 7.16.948 2.514 2.375 4.755 2.728 6.969-.358-2.214-1.827-4.451-3.109-6.93a202 202 0 0 0-21.559 8.082c.457 1.561 1.009 2.979 1.383 4.352-.409-1.369-1.071-2.785-1.762-4.328-9.302 2.977-18.051 6.29-26.64 9.941.638 1.708 1.458 3.287 2.049 4.824-.628-1.533-1.565-3.11-2.428-4.803-7.599 1.52-14.658 3.36-21.717 5.2-.208.22-.518.448-.75.67.18-.241.285-.488.297-.752-3.776-.058-7.112-.036-10.332.336-.176-.039-.325-.051-.504-.092-6.216-1.881-11.95-3.291-17.69-4.272.317 3.545.913 6.656.92 9.77-.007-3.114-.601-6.226-1.17-10.024-10.082-4.172-19.919-7.661-29.757-10.72.322 3.548.92 6.667.928 9.787-.008-3.12-.606-6.24-1.18-10.04-60.36-22.617-120.47-44.554-180.908-66.175m233.648 82.55q.052.008.106.014zm1.83.22c.96.104 1.934.197 2.938.287-.184 21.18-.272 42.347-.276 63.511-.02-21.161-.011-42.323-.011-63.484-.872-.093-1.767-.209-2.65-.314" style="fill:url(#f)" transform="translate(-482.068 705.755)"/><path fill="#223731" d="M750.13 122.196c-4.824 17.383-9.644 34.348-14.224 51.378-.956 3.554-2.299 5.123-6.32 4.97-9.318-.355-18.663-.267-27.988-.036-3.564.089-5.089-.819-6.05-4.556-8-31.099-16.291-62.123-24.5-93.168-.42-1.586-.89-3.16-2.202-4.894L640.53 178.4h-37.456c-13.696-50.862-27.438-101.895-41.265-153.25h34.97l25.396 111.57.822.083 29.32-111.583h35.763l27.569 110.519.97-.13 25.46-110.407h35.222c-9.075 32.37-18.079 64.485-27.172 96.994"/><path fill="#233832" d="M1061.886 69.886c17.51-18.395 52.813-23.252 76.544.014V56.452h33.299v5.397c0 37.817.104 75.634-.096 113.45-.036 6.777-.58 13.731-2.186 20.286-5.022 20.488-18.01 33.905-38.373 39.394-19.15 5.163-38.08 3.752-55.914-5.256-15.546-7.852-24.01-20.877-25.916-38.53h31.73c8.105 14.304 19.193 19.722 34.992 17.227 11.47-1.812 19.035-8.289 21.272-19.544 1.558-7.843 1.378-16.031 2.033-24.855-1.618.826-2.131.936-2.41 1.252-20.1 22.746-68.021 22.806-86.42-17.595-11.735-25.769-7.133-57.86 11.446-77.792m46.548 13.194c-17.14.462-28.967 11.574-30.627 28.733-.924 9.545.345 18.607 5.88 26.704 11.31 16.547 35.988 17.447 47.946 1.393 8.799-11.813 9.25-25.153 3.965-38.431-4.602-11.565-13.9-17.43-27.164-18.399"/><path fill="#223731" d="M1595.132 313.056c21.59-6.723 40.713-3.509 57.634 12.662v-13.621h33.11v4.944c0 38.15.118 76.302-.107 114.451-.041 6.93-.708 14.051-2.422 20.742-5.965 23.302-24.372 38.274-49.4 40.591-14.098 1.305-27.979.132-41.11-5.717-14.924-6.647-24.754-17.673-28.421-33.806-.465-2.045-.602-4.165-.935-6.566h31.879c7.607 15.851 26.719 22.624 42.687 15.036 10.404-4.944 14.034-14.174 14.714-24.88.347-5.45.061-10.941.061-16.909-.817.394-1.46.512-1.802.896-20.56 23.021-68.164 22.435-86.37-17.56-11.96-26.275-7.005-60.297 12.295-78.489 5.084-4.792 11.83-7.82 18.187-11.774m.656 41.389c-4.205 7.826-4.88 16.276-3.595 24.79 1.87 12.391 8.13 21.84 20.397 26.102 11.396 3.96 21.81 1.51 30.508-6.71 8.239-7.785 10.336-18.006 9.685-28.866-.933-15.549-9.65-26.665-23.291-30.145-12.996-3.316-25.643 2.047-33.704 14.829M1199.358 80.423c15.766-23.607 42.442-32.474 66.926-22.369 3.21 1.325 6.307 3.055 9.194 4.99 2.86 1.916 5.39 4.328 8.696 7.04V56.37h32.716v121.674h-32.542v-14.353c-9.461 9.952-20.122 15.283-32.653 16.375-28.803 2.51-51.953-14.2-59.3-43.235-4.918-19.43-3.262-38.338 6.963-56.408m24.519 44.03c.524 2.094.887 4.243 1.598 6.27 4.627 13.204 16.3 21.243 29.778 20.602 13.605-.646 24.669-9.497 27.67-23.2 1.258-5.737 1.522-11.956.856-17.798-1.77-15.535-13.714-26.578-28.461-27.238-15.162-.678-27.99 9.027-30.965 24.174-1.038 5.28-.445 10.881-.476 17.19M902.35 164.991v13.17h-32.822v-14.393c-7.785 7.971-15.926 12.852-25.482 15.132-24.082 5.745-48.037-3.88-59.677-25.68-13.744-25.741-13.886-52.141 2.97-76.562 18.576-26.915 55.375-30.235 79.69-8.394.46.413.937.806 2.361 2.03V56.242h32.96zm-51.192-16.1c16.674-8.482 23.383-29.453 15.282-47.774-7.032-15.906-25.56-22.674-41.08-14.866-11.467 5.77-15.972 15.87-16.998 28.054-2.157 25.63 18.717 42.942 42.796 34.586"/><path fill="#233832" d="M1006.779 310.64c30.954-4.257 54.07 12.705 56.093 43.445 1.735 26.338.36 52.88.36 79.653h-32.217v-5.124c0-20.497.027-40.994-.032-61.49-.01-2.815-.181-5.68-.724-8.432-2.804-14.212-12.668-21.583-27.293-20.57-13.323.922-22.282 9.754-22.964 23.74-.6 12.304-.311 24.652-.357 36.981-.043 11.479-.01 22.958-.01 34.824h-32.323V271.52h32.164v52.704c8.387-7.632 16.907-12.108 27.302-13.584z"/><path fill="#233731" d="M1506.195 173.243c-26.871 13.298-58.861 7.727-76.943-12.8-22.29-25.302-20.869-77.177 12.755-97.448 31.25-18.841 73.978-7.38 88.44 24.146 5.865 12.785 6.872 26.182 4.67 40.318h-86.646c-1.08 12.659 10.52 24.626 24.476 25.427 10.415.598 18.977-2.727 24.453-12.255.61-1.06 2.208-2.182 3.366-2.2 10.639-.168 21.282-.1 32.712-.1-4.325 15.762-13.193 27.114-27.283 34.912m-54.153-79.603c-1.445 3.547-2.89 7.094-4.45 10.928h54.295c-.159-10.137-6.783-18.424-17.138-21.748-12.693-4.075-24.462-.359-32.707 10.82M1853 383.148h-62.44c.038 11.095 7.58 20.884 18.4 24.19 11.756 3.591 23.766.004 29.65-9.427 1.87-2.998 3.758-3.962 7.108-3.894 9.816.2 19.64.072 30.067.072-2.6 10.452-7.452 19.201-15.14 26.041-19.631 17.466-42.446 20.243-66.28 11.5-23.499-8.62-35.14-27.346-37.057-51.68-.732-9.276.16-19.131 2.568-28.118 7.395-27.602 30.71-43.042 61.439-41.982 40.803 1.408 62.837 36.148 55.92 73.298zm-49.106-42.95c-7.522 4.498-11.92 10.985-13.223 19.824h53.924c-.547-6.794-3.105-12.345-8.128-16.356-9.76-7.793-20.53-8.657-32.573-3.468M766 383.148h-58.328c.57 11.983 8.097 21.395 19.166 24.44 11.885 3.268 23.27-.586 29.334-10.322 1.546-2.481 3.145-3.28 5.937-3.238 10.138.152 20.28.06 30.93.06-4.146 14.883-12.32 26.19-25.322 33.683-33.961 19.574-91.058 6.206-93.511-51.486-.375-8.808.86-18.092 3.398-26.54 7.705-25.639 30.558-40.65 59.038-39.98 37.237.874 62.306 29.02 58.929 66.177-.196 2.154-.489 4.3-.824 7.206zm-43.497-22.797h39.261c-2.019-15.319-13.06-23.947-29.009-23.326-12.988.506-23.926 10.66-24.631 23.326z"/><path fill="#223731" d="M1535.399 340.677c13.522 27.663 8.953 58.977-11.195 78.372-17.722 17.06-47.75 22.326-71.385 11.784-24.264-10.821-35.277-30.821-35.545-56.563-.625-60.079 57.666-76.13 94.47-57.089 10.18 5.268 17.979 13.086 23.655 23.496m-85.144 34.556c.275 2.315.445 4.648.845 6.941 2.504 14.36 12.334 24.014 25.325 24.942 14.766 1.056 26.79-6.706 31.06-20.6 3.395-11.044 2.979-22.086-2.305-32.552-5.427-10.752-14.507-15.82-26.417-15.394-12.14.436-21.146 6.305-25.374 17.718-2.086 5.631-2.157 12.01-3.134 18.945M1346.895 359.248c2.632 15.987 1.155 31.014-6.443 45.03-14.227 26.243-46.672 38.3-76.867 28.752-27.732-8.769-44.296-35.861-41.246-66.532 5.612-56.442 63.05-67.15 95.918-48.478 15.91 9.04 24.867 23.126 28.638 41.228m-67.265-20.298c-12.059 2.263-19.475 9.58-22.697 21.214-2.601 9.388-2.4 18.797.83 28.03 7.094 20.278 32.615 25.875 47.596 10.45 6.667-6.863 8.864-15.454 9.182-24.685.777-22.56-13.432-37.169-34.91-35.01M955.23 157.795c-13.91-33.86-27.677-67.364-41.783-101.696 12.095 0 23.483-.124 34.86.189 1.156.031 2.68 2.527 3.291 4.157 8.87 23.676 17.61 47.4 26.387 71.11.625 1.687 1.3 3.357 2.319 5.983 6.096-16.232 11.839-31.526 17.586-46.818 3.92-10.432 7.755-20.898 11.878-31.249.567-1.424 2.557-3.202 3.93-3.239 10.313-.272 20.637-.148 31.803-.148-.737 2.07-1.233 3.713-1.895 5.286-23.855 56.733-47.743 113.453-71.543 170.21-1.102 2.627-2.322 3.847-5.388 3.782-10.127-.215-20.261-.08-31.06-.08 2.386-5.588 4.499-10.604 6.667-15.595 5.897-13.58 11.733-27.187 17.791-40.694 1.46-3.257 1.865-6.033.125-9.346-1.925-3.666-3.24-7.651-4.967-11.852"/><path fill="#233731" d="M1204.996 429.841c-.807 1.724-1.588 4.023-2.426 4.044-9.937.25-19.882.162-30.287.162v-5.885c0-19.653.024-39.306-.024-58.96-.01-3.323-.01-6.7-.557-9.96-2.412-14.284-12.667-22.109-27.384-21.13-13.797.92-22.918 10.264-23.217 25.12-.431 21.478-.154 42.968-.179 64.453v6.116h-32.52V311.989h32.492v12.246c12.557-12.202 26.984-15.97 42.895-13.813 25.622 3.473 40.891 22.086 41.158 49.984.22 22.982.047 45.968.05 69.435"/><path fill="#233832" d="M822.108 411.871c-17.45-26.905-13.889-65.17 6.92-86.29 23.619-23.97 86.038-24.852 99.541 24.779.298 1.093.474 2.22.885 4.182h-20.08c-1.831 0-3.678-.151-5.492.028-5.758.567-9.446-.64-12.82-6.654-7.6-13.549-29.558-13.568-39.46-.891-9.795 12.539-9.638 38.743-.18 51.474 9.506 12.795 35.433 13.109 42.116-4.261.5-1.297 2.4-2.89 3.68-2.92 10.475-.236 20.957-.133 31.418-.133.967 14.332-15.804 34.363-34.145 41.058-26.804 9.784-56.049 1.654-72.383-20.372"/><path fill="#223731" d="M617.028 434.054h-9.268V307.3h-40.248v-26.626h113.07v26.468h-40.06v126.913z"/><path fill="#233832" d="M1392.015 56.081h14.749v27.132h-26.557v21.45c0 11.332-.013 22.664 0 33.997.014 9.154 2.145 11.446 11.424 11.834 4.968.208 9.952.037 15.197.037v28.766c-12.091-.973-24.354-.706-36.024-3.208-15.524-3.328-23.321-16.002-23.47-34.575-.138-17.331-.03-34.664-.03-51.996v-6.092h-14.065V56.114h14.06V26.69h32.841v29.391h11.871z"/><path fill="#243832" d="M1366.377 358v-86.51h32.295v162.283h-32.295z"/><path fill="#233832" d="M1739.624 365v68.724h-32.42V312.026h32.42z"/><path fill="#243832" d="M1705.378 264.632c5.308-8.71 13.419-12.342 22.578-10.365 8.04 1.736 14.189 8.233 15.084 15.94.931 8.007-2.49 15.097-9.42 18.806-7.71 4.125-15.421 3.802-22.542-1.301-6.862-4.919-8.435-11.96-6.848-19.921.192-.967.64-1.883 1.148-3.159"/><path fill="#989898" d="M670.819 555v-29.382c9.1.693 18.07.144 26.328 2.312 10.85 2.849 11.503 13.95 1.974 22.555 1.412 1.13 2.972 2.093 4.17 3.39 3.416 3.701 4.664 8.012 2.905 12.9-2.116 5.878-6.792 8.711-12.6 9.071-7.28.452-14.61.11-22.777.11zm27.297 9.074c1.673-9.085-5.433-11.687-18.76-9.362v14.4c4.184 0 8.079.51 11.748-.18 2.443-.46 4.563-2.633 7.012-4.858m-15.48-16.952c2.329-.013 4.663.067 6.987-.056 5.05-.268 7.495-2.523 7.503-6.764.01-4.248-2.432-6.79-7.31-7.131-3.428-.24-6.888-.047-10.836-.047 0 4.169-.181 7.803.124 11.396.079.931 1.682 1.732 3.531 2.602M1211.614 551.74c1.08 13.681-4.096 22.21-14.632 24.687-6.125 1.441-11.378-.75-16.471-4.37-1.143 6.403-5.396 3.468-9.233 3.736V530.16c0-7.603 0-7.603 8.527-6.672v17.257c16.313-8.621 27.444-4.701 31.809 10.995m-28.66 13.738c5.292 4.689 11.5 5.142 16.08 1.173 4.596-3.98 5.749-12.248 2.482-17.799-2.91-4.947-8.944-6.97-14.208-4.765-7.49 3.139-9.588 12.125-4.353 21.39"/><path fill="#999" d="M895.256 545.464c.728 1.052 1.408 2.162 2.109 2.176 6.77.132 13.544.079 20.887.079v-14.404c0-7.664 0-7.664 8.252-6.713v49.009h-8.098v-21.353c-7.32 0-14.085-.145-20.827.181-.853.041-2.202 2.526-2.268 3.928-.261 5.623-.108 11.266-.108 17.294h-7.848v-49.075h7.863c0 6.237 0 12.332.038 18.878M636.595 575.94c-.939-1.233-1.468-2.388-2.14-3.85-5.051 3.487-10.674 6.541-16.947 4.009-3.843-1.551-7.855-3.96-10.44-7.096-6.214-7.536-5.096-20.696 1.565-27.685 6.427-6.743 16.06-7.075 24.087-1.797l10.765-3.623v40.12c-2.264 0-4.372 0-6.89-.079m-10.787-32.482c-5.397-.99-9.625 1.013-12.243 5.623-2.84 5.001-2.527 10.276.498 15.175 2.671 4.326 6.833 5.575 11.68 4.858 4.88-.722 8.617-4.924 9.3-10.348.944-7.521-1.659-12.133-9.235-15.308M1396.67 543.474c3.402 4.969 4 10.103 2.997 16.168h-29.427c.516 5.094 2.867 7.908 7.007 9.395 3.955 1.422 8.095 1.155 10.623-1.952 3.242-3.985 6.818-2.844 10.721-2.68-2.356 8.097-8.93 12.585-17.848 12.463-9.454-.129-16.647-5.819-18.776-14.851-2.387-10.13 1.261-19.564 9.167-23.704 8.685-4.548 18.303-2.703 25.537 5.161m-13.26 9.418h7.31c.032-6.03-3.359-9.455-9.182-9.862-5.984-.419-10.19 3.206-10.976 9.862zM1108.515 564.825c-3.91 10.024-13.529 14.25-24.12 11.005-9.626-2.95-15.033-13.532-12.576-24.614 2.445-11.027 12.147-17.234 23.333-14.925 10.795 2.227 16.657 11.579 14.224 23.329h-28.96c.039 4.574 2.146 7.272 5.606 8.943 4.088 1.974 8.676 2.046 11.609-1.283 3.29-3.737 6.788-3.342 10.884-2.455M1090.538 543c-6.492.907-9.232 3.457-10.06 9.49h20.404c-.459-6.18-2.52-8.15-10.344-9.49"/><path fill="#989898" d="M835.018 547.273c.665 4.182 1.194 8.002 1.815 12.482H807.18c-.815 4.713 1.739 7.014 4.905 8.705 4.037 2.156 8.614 2.159 11.63-1.083 3.298-3.546 6.726-3.523 10.728-2.96-.607 6.668-7.548 11.973-16.164 12.43-9.61.508-18.134-5.662-20.123-14.568-2.58-11.558 2.174-21.707 11.77-25.127 10.036-3.577 19.688.198 25.09 10.121m-8.477.889c-4.081-4.798-8.264-6.392-13.034-4.666-4.18 1.512-6.544 4.514-7.005 9.013h21.438c-.435-1.537-.738-2.609-1.4-4.347"/><path fill="#969696" d="M735.07 536.57a621 621 0 0 1 8.254 3.94c.801-5.366 4.737-3.63 8.553-3.317v38.42h-7.537l-.701-3.907c-10.29 6.549-18.011 6.759-24.825.804-6.88-6.012-9.07-16.952-5.137-25.666 3.671-8.135 10.917-11.726 21.394-10.275m-14.406 16.741c-1.126 7.304 1.89 13.332 7.75 15.493 6.079 2.241 12.432-.955 14.68-7.387 2.666-7.628-.548-15.138-7.541-17.623-6.267-2.227-12.3 1.356-14.889 9.517M1037.584 550.072c-.15 8.684-.15 16.975-.15 25.617h-8.271v-52.243h7.708v16.443c2.912-1.226 5.223-2.468 7.686-3.19 9.651-2.828 18.96 2.526 19.973 12.431.888 8.694.185 17.55.185 26.623h-7.893c0-6.78.059-13.54-.021-20.299-.053-4.453-.727-8.756-5.196-11.138-5.395-2.874-10.89-.702-14.021 5.756M784.219 549.216a3774 3774 0 0 0-6.63 7.114l17.67 19.352c-6.577.8-11.762 1.133-15.45-4.918-2.297-3.77-5.776-6.82-9.469-11.046v15.903h-8.067v-52.095h7.568v28.572q.516.226 1.03.453c2.621-3.073 5.68-5.876 7.767-9.276 3.8-6.189 9-7.646 16.204-5.825-3.579 3.97-6.977 7.74-10.623 11.766"/><path fill="#9b9b9b" d="M1233.252 576.822c-10.885-2.433-14.947-7.425-15.05-18.185-.067-6.963-.013-13.926-.013-21.341h8.644c0 7.301-.114 14.571.034 21.836.133 6.486 3.099 9.759 8.668 10.048 6.526.34 10.341-3.051 10.499-9.745.172-7.28.039-14.569.039-22.222h8.408v39.285l-9.322-1.633.38-.89c-3.958.958-7.917 1.916-12.288 2.847z"/><path fill="#969696" d="M963.847 552.904V537.21h7.893c0 12.785 0 25.37.01 37.955-5.314 1.64-6.642 1.346-7.9-.85-5.551.677-10.703 2.17-15.668 1.697-6.63-.632-11.445-5.706-11.88-12.251-.58-8.734-.143-17.534-.143-26.6h7.91c0 7.225-.146 14.48.042 21.727.189 7.306 4.186 10.893 11.045 10.302 4.314-.37 7.23-2.556 7.975-6.898.501-2.923.497-5.932.718-9.388zM1324.85 576.022c-2.091.02-3.72.02-5.642.02v-38.994c3.202.327 6.773-2.118 8.389 2.523 2.608-1.09 5.093-2.523 7.767-3.176 9.537-2.33 18.305 3.659 19.308 13.666.678 6.766.205 13.647.243 20.477.01 1.627 0 3.254 0 5.192h-8.094c0-5.225.046-10.481-.018-15.737-.035-2.819.02-5.684-.458-8.444-.97-5.601-4.834-8.694-9.98-8.406-5.342.3-9.065 4.08-9.243 9.875-.195 6.325.05 12.664-.132 18.99-.039 1.347-1.092 2.664-2.14 4.014z"/><path fill="#989898" d="M1121.775 574.446c-3.841-2.394-6.498-5.163-6.772-10.027 3.713-.223 7.154-2.123 10 2.467 1.078 1.738 4.686 2.84 6.982 2.616 2.132-.209 4.052-2.572 6.066-3.986-1.629-1.584-2.997-3.724-4.941-4.634-3.735-1.748-7.991-2.402-11.68-4.22-7.893-3.892-8.194-13.267-.815-18.04 9.185-5.943 22.297-2.169 24.979 7.216.216.754.112 1.6.17 2.647-3.696.312-7.07 1.674-9.651-2.718-.955-1.625-4.293-2.592-6.496-2.513-1.888.067-3.707 2.055-5.556 3.194 1.273 1.7 2.202 4.045 3.9 4.953 2.73 1.46 5.988 1.908 8.985 2.897 6.325 2.087 9.822 6.286 9.526 11.307-.304 5.163-4.002 9.698-10.35 10.461-4.55.548-9.338-.881-14.347-1.62M1272.923 536.514c11.198-1.381 17.457 1.713 19.757 9.47.18.609.117 1.29.193 2.292-3.813.769-7.1 1.809-9.821-2.612-.99-1.608-4.339-2.513-6.542-2.399-1.872.098-3.645 2.121-5.461 3.292 1.319 1.682 2.323 3.89 4.036 4.913 2.218 1.323 4.991 1.73 7.542 2.478 7.458 2.188 11.233 6.212 10.973 11.743-.262 5.56-5.035 9.79-12.4 10.988-8.16 1.328-16.73-3.05-18.867-9.69-.24-.75-.146-1.607-.226-2.67 3.801-.248 7.455-1.86 10.047 2.798.82 1.472 3.897 2.73 5.629 2.408 2.565-.478 4.851-2.452 7.256-3.79-1.687-1.723-3.112-3.916-5.132-5.046-2.252-1.26-5.08-1.446-7.595-2.29-6.789-2.281-9.997-5.897-9.928-10.99.07-5.092 3.269-8.484 10.539-10.895M1447.125 538.972c5.657-3.348 11.312-3.92 17.118-1.936 5.158 1.764 8.164 5.385 8.656 11.296-3.902.694-7.212 1.742-9.942-2.731-1.01-1.657-4.65-2.359-7.056-2.292-1.654.046-3.25 2.167-4.872 3.36 1.21 1.586 2.101 3.79 3.703 4.618 2.758 1.426 5.967 1.967 8.971 2.929 6.407 2.05 9.957 6.083 9.824 11.106-.147 5.529-4.144 9.458-11.034 11.043-5.524 1.272-10.64.26-15.196-2.907-3.011-2.094-5.497-4.796-5.015-9.237 3.774-.144 7.423-1.566 10.023 3.02.867 1.529 4.176 2.574 6.177 2.321 2.279-.288 5.458-1.79 6.256-3.629 1.437-3.31-2.038-4.336-4.5-5.22-3.43-1.23-7.082-1.91-10.402-3.367-8.736-3.835-9.925-11.462-2.711-18.374M1433.13 540.954c1.225 2.477 2.211 4.664 3.405 7.312-4.606.729-8.01 1.797-10.64-2.754-.905-1.568-4.393-2.403-6.595-2.23-1.842.146-3.53 2.249-5.285 3.485 1.24 1.569 2.176 3.688 3.79 4.578 2.423 1.336 5.313 1.84 8.02 2.647 7.172 2.138 10.903 6.11 10.699 11.437-.221 5.762-4.714 9.913-12.122 11.202-9.454 1.646-18.145-3.737-19.215-12.231 3.561-.197 7.215-2.22 9.794 2.58.765 1.422 3.285 2.422 5.114 2.634 3.148.364 6.801.11 7.771-3.7.988-3.88-2.691-4.463-5.2-5.42-3.4-1.299-6.986-2.113-10.4-3.386-4.543-1.694-7.018-5.223-6.838-9.986.18-4.76 3.06-8.179 7.472-9.701 7.134-2.461 14.078-2.446 20.23 3.533"/><path fill="#999" d="M854.677 546.561c-1.188 3.205-2.657 6.102-2.831 9.075-.385 6.59-.12 13.217-.12 20.12h-8.224V536.4l9.461 2.017-.378.99c3.132-1.29 6.264-2.578 10.155-4.178v8.758c-2.494.74-5.125 1.52-8.063 2.574"/><path fill="#969696" d="M1301.149 574.6c-.08-12.584-.08-24.707-.08-37.283h7.719v38.992c-2.673-.442-5.116-.846-7.64-1.71z"/><path fill="#999" d="M1307.885 530.902c-2.537-.407-5.19-.45-6.806-1.767-.965-.786-.983-3.96-.184-5.342.798-1.38 3.149-2.541 4.813-2.533 1.422.007 3.907 1.698 4.022 2.837.217 2.137-.939 4.414-1.845 6.805"/><path fill="#518d7b" d="M363.056 424.303c.613-.1 1.157.109 1.85.58-.542.084-1.23-.093-1.85-.58"/></svg>