<svg xmlns="http://www.w3.org/2000/svg" width="100" height="100"><path d="M1445.987 1344.333c-25.44 42.08-52.054 83.52-80.24 124.04-14.574 20-28.494 40.36-43.867 59.92a928 928 0 0 1-47.327 57.947c7.502-23.987 15.868-47.48 25.13-70.48 8.798-23.267 19.017-45.707 28.618-68.507 13.059-29.346 27.019-58.186 41.339-86.813-42.235.44-84.467.28-126.7-1.28l-48.777-1.787 22.073-41.146c10.928-20.387 22.228-40.6 33.773-60.68 11.671-20.027 23.402-40.027 35.843-59.667l18.708-29.44c6.144-9.88 12.967-19.387 19.419-29.093a941 941 0 0 1 41.461-56.92 917 917 0 0 1-19.787 67.56c-3.773 11.04-7.133 22.28-11.213 33.146l-11.912 32.8c-7.935 21.84-16.64 43.347-25.408 64.8-2.779 6.707-5.741 13.294-8.583 19.96 43.654-.853 87.276-.973 130.93.254l53.04 1.506zM1615.88 847.28h-565.087v1074.84h565.087z" style="fill:#fab71c;fill-opacity:1;fill-rule:nonzero;stroke:none;stroke-width:.133333" transform="translate(-42.643 -42.643)scale(.06948)"/><path d="M1647.48 1953.733h-628.3V815.667h628.3zM1617.853 752.44h-171.24v-49.387c0-29.466-23.893-53.346-53.346-53.346h-119.872c-29.451 0-53.347 23.88-53.347 53.346v49.387h-171.23c-40.72 0-73.754 33.04-73.754 73.76v1117c0 40.733 33.033 73.76 73.753 73.76h569.036c40.747 0 73.747-33.027 73.747-73.76v-1117c0-40.72-33-73.76-73.747-73.76" style="fill:#fff;fill-opacity:1;fill-rule:nonzero;stroke:none;stroke-width:.133333" transform="translate(-42.643 -42.643)scale(.06948)"/><path d="M1126.523 1110.747v-.013z" style="fill:#1c263b;fill-opacity:1;fill-rule:nonzero;stroke:none;stroke-width:.133333" transform="translate(-42.643 -42.643)scale(.06948)"/></svg>