<svg xmlns="http://www.w3.org/2000/svg" xmlns:xlink="http://www.w3.org/1999/xlink" xml:space="preserve" viewBox="0 0 100 100"><defs/><defs><mask id="e"><path fill="#fff" d="M-60-60H60V60H-60z"/><circle id="a" cx="0" cy="-40" r="3"/><use xlink:href="#a" transform="rotate(72)"/><use xlink:href="#a" transform="rotate(144)"/><use xlink:href="#a" transform="rotate(-144)"/><use xlink:href="#a" transform="rotate(-72)"/></mask><mask id="M" maskUnits="userSpaceOnUse"><g transform="matrix(.1 .02 -.02 .1 -141.78 -173.4)"><use xlink:href="#reuse-0" stroke-width="9.31"/><circle cx="1609.37" cy="953.25" r="27.93" stroke-width="9.31"/><use xlink:href="#a" transform="rotate(72 -107.47 1770.46) scale(9.31)"/><use xlink:href="#a" transform="rotate(143.99 589.37 924.3) scale(9.31)"/><use xlink:href="#a" transform="rotate(-143.99 1020.09 401.39) scale(9.31)"/><use xlink:href="#a" transform="rotate(-72 1717.08 -444.65) scale(9.31)"/></g></mask><mask id="L" maskUnits="userSpaceOnUse"><g transform="matrix(.1 .04 -.04 .1 -105.23 -197.72)"><use xlink:href="#reuse-0" stroke-width="9.31"/><circle cx="1609.37" cy="953.25" r="27.93" stroke-width="9.31"/><use xlink:href="#a" transform="rotate(72 -107.47 1770.46) scale(9.31)"/><use xlink:href="#a" transform="rotate(143.99 589.37 924.3) scale(9.31)"/><use xlink:href="#a" transform="rotate(-143.99 1020.09 401.39) scale(9.31)"/><use xlink:href="#a" transform="rotate(-72 1717.08 -444.65) scale(9.31)"/></g></mask><mask id="K" maskUnits="userSpaceOnUse"><g transform="matrix(.09 .06 -.06 .09 -64.63 -214.45)"><use xlink:href="#reuse-0" stroke-width="9.31"/><circle cx="1609.37" cy="953.25" r="27.93" stroke-width="9.31"/><use xlink:href="#a" transform="rotate(72 -107.47 1770.46) scale(9.31)"/><use xlink:href="#a" transform="rotate(143.99 589.37 924.3) scale(9.31)"/><use xlink:href="#a" transform="rotate(-143.99 1020.09 401.39) scale(9.31)"/><use xlink:href="#a" transform="rotate(-72 1717.08 -444.65) scale(9.31)"/></g></mask><mask id="J" maskUnits="userSpaceOnUse"><g transform="matrix(.08 .08 -.08 .08 -21.55 -222.94)"><use xlink:href="#reuse-0" stroke-width="9.31"/><circle cx="1609.37" cy="953.25" r="27.93" stroke-width="9.31"/><use xlink:href="#a" transform="rotate(72 -107.47 1770.46) scale(9.31)"/><use xlink:href="#a" transform="rotate(143.99 589.37 924.3) scale(9.31)"/><use xlink:href="#a" transform="rotate(-143.99 1020.09 401.39) scale(9.31)"/><use xlink:href="#a" transform="rotate(-72 1717.08 -444.65) scale(9.31)"/></g></mask><mask id="I" maskUnits="userSpaceOnUse"><g transform="matrix(.06 .09 -.09 .06 22.35 -222.86)"><use xlink:href="#reuse-0" stroke-width="9.31"/><circle cx="1609.37" cy="953.25" r="27.93" stroke-width="9.31"/><use xlink:href="#a" transform="rotate(72 -107.47 1770.46) scale(9.31)"/><use xlink:href="#a" transform="rotate(143.99 589.37 924.3) scale(9.31)"/><use xlink:href="#a" transform="rotate(-143.99 1020.09 401.39) scale(9.31)"/><use xlink:href="#a" transform="rotate(-72 1717.08 -444.65) scale(9.31)"/></g></mask><mask id="H" maskUnits="userSpaceOnUse"><g transform="matrix(.04 .1 -.1 .04 65.4 -214.22)"><use xlink:href="#reuse-0" stroke-width="9.31"/><circle cx="1609.37" cy="953.25" r="27.93" stroke-width="9.31"/><use xlink:href="#a" transform="rotate(72 -107.47 1770.46) scale(9.31)"/><use xlink:href="#a" transform="rotate(143.99 589.37 924.3) scale(9.31)"/><use xlink:href="#a" transform="rotate(-143.99 1020.09 401.39) scale(9.31)"/><use xlink:href="#a" transform="rotate(-72 1717.08 -444.65) scale(9.31)"/></g></mask><mask id="G" maskUnits="userSpaceOnUse"><g transform="matrix(.02 .1 -.1 .02 105.94 -197.34)"><use xlink:href="#reuse-0" stroke-width="9.31"/><circle cx="1609.37" cy="953.25" r="27.93" stroke-width="9.31"/><use xlink:href="#a" transform="rotate(72 -107.47 1770.46) scale(9.31)"/><use xlink:href="#a" transform="rotate(143.99 589.37 924.3) scale(9.31)"/><use xlink:href="#a" transform="rotate(-143.99 1020.09 401.39) scale(9.31)"/><use xlink:href="#a" transform="rotate(-72 1717.08 -444.65) scale(9.31)"/></g></mask><mask id="F" maskUnits="userSpaceOnUse"><g transform="matrix(0 .1 -.1 0 142.4 -172.88)"><use xlink:href="#reuse-0" stroke-width="9.31"/><circle cx="1609.37" cy="953.25" r="27.93" stroke-width="9.31"/><use xlink:href="#a" transform="rotate(72 -107.47 1770.46) scale(9.31)"/><use xlink:href="#a" transform="rotate(143.99 589.37 924.3) scale(9.31)"/><use xlink:href="#a" transform="rotate(-143.99 1020.09 401.39) scale(9.31)"/><use xlink:href="#a" transform="rotate(-72 1717.08 -444.65) scale(9.31)"/></g></mask><mask id="E" maskUnits="userSpaceOnUse"><g transform="matrix(-.02 .1 -.1 -.02 173.4 -141.78)"><use xlink:href="#reuse-0" stroke-width="9.31"/><circle cx="1609.37" cy="953.25" r="27.93" stroke-width="9.31"/><use xlink:href="#a" transform="rotate(72 -107.47 1770.46) scale(9.31)"/><use xlink:href="#a" transform="rotate(143.99 589.37 924.3) scale(9.31)"/><use xlink:href="#a" transform="rotate(-143.99 1020.09 401.39) scale(9.31)"/><use xlink:href="#a" transform="rotate(-72 1717.08 -444.65) scale(9.31)"/></g></mask><mask id="D" maskUnits="userSpaceOnUse"><g transform="matrix(-.04 .1 -.1 -.04 197.72 -105.23)"><use xlink:href="#reuse-0" stroke-width="9.31"/><circle cx="1609.37" cy="953.25" r="27.93" stroke-width="9.31"/><use xlink:href="#a" transform="rotate(72 -107.47 1770.46) scale(9.31)"/><use xlink:href="#a" transform="rotate(143.99 589.37 924.3) scale(9.31)"/><use xlink:href="#a" transform="rotate(-143.99 1020.09 401.39) scale(9.31)"/><use xlink:href="#a" transform="rotate(-72 1717.08 -444.65) scale(9.31)"/></g></mask><mask id="C" maskUnits="userSpaceOnUse"><g transform="matrix(-.06 .09 -.09 -.06 214.45 -64.63)"><use xlink:href="#reuse-0" stroke-width="9.31"/><circle cx="1609.37" cy="953.25" r="27.93" stroke-width="9.31"/><use xlink:href="#a" transform="rotate(72 -107.47 1770.46) scale(9.31)"/><use xlink:href="#a" transform="rotate(143.99 589.37 924.3) scale(9.31)"/><use xlink:href="#a" transform="rotate(-143.99 1020.09 401.39) scale(9.31)"/><use xlink:href="#a" transform="rotate(-72 1717.08 -444.65) scale(9.31)"/></g></mask><mask id="B" maskUnits="userSpaceOnUse"><g transform="matrix(-.08 .08 -.08 -.08 222.94 -21.55)"><use xlink:href="#reuse-0" stroke-width="9.31"/><circle cx="1609.37" cy="953.25" r="27.93" stroke-width="9.31"/><use xlink:href="#a" transform="rotate(72 -107.47 1770.46) scale(9.31)"/><use xlink:href="#a" transform="rotate(143.99 589.37 924.3) scale(9.31)"/><use xlink:href="#a" transform="rotate(-143.99 1020.09 401.39) scale(9.31)"/><use xlink:href="#a" transform="rotate(-72 1717.08 -444.65) scale(9.31)"/></g></mask><mask id="A" maskUnits="userSpaceOnUse"><g transform="matrix(-.09 .06 -.06 -.09 222.86 22.35)"><use xlink:href="#reuse-0" stroke-width="9.31"/><circle cx="1609.37" cy="953.25" r="27.93" stroke-width="9.31"/><use xlink:href="#a" transform="rotate(72 -107.47 1770.46) scale(9.31)"/><use xlink:href="#a" transform="rotate(143.99 589.37 924.3) scale(9.31)"/><use xlink:href="#a" transform="rotate(-143.99 1020.09 401.39) scale(9.31)"/><use xlink:href="#a" transform="rotate(-72 1717.08 -444.65) scale(9.31)"/></g></mask><mask id="z" maskUnits="userSpaceOnUse"><g transform="matrix(-.1 .04 -.04 -.1 214.22 65.4)"><use xlink:href="#reuse-0" stroke-width="9.31"/><circle cx="1609.37" cy="953.25" r="27.93" stroke-width="9.31"/><use xlink:href="#a" transform="rotate(72 -107.47 1770.46) scale(9.31)"/><use xlink:href="#a" transform="rotate(143.99 589.37 924.3) scale(9.31)"/><use xlink:href="#a" transform="rotate(-143.99 1020.09 401.39) scale(9.31)"/><use xlink:href="#a" transform="rotate(-72 1717.08 -444.65) scale(9.31)"/></g></mask><mask id="y" maskUnits="userSpaceOnUse"><g transform="matrix(-.1 .02 -.02 -.1 197.34 105.94)"><use xlink:href="#reuse-0" stroke-width="9.31"/><circle cx="1609.37" cy="953.25" r="27.93" stroke-width="9.31"/><use xlink:href="#a" transform="rotate(72 -107.47 1770.46) scale(9.31)"/><use xlink:href="#a" transform="rotate(143.99 589.37 924.3) scale(9.31)"/><use xlink:href="#a" transform="rotate(-143.99 1020.09 401.39) scale(9.31)"/><use xlink:href="#a" transform="rotate(-72 1717.08 -444.65) scale(9.31)"/></g></mask><mask id="x" maskUnits="userSpaceOnUse"><g transform="matrix(-.1 0 0 -.1 172.88 142.4)"><use xlink:href="#reuse-0" stroke-width="9.31"/><circle cx="1609.37" cy="953.25" r="27.93" stroke-width="9.31"/><use xlink:href="#a" transform="rotate(72 -107.47 1770.46) scale(9.31)"/><use xlink:href="#a" transform="rotate(143.99 589.37 924.3) scale(9.31)"/><use xlink:href="#a" transform="rotate(-143.99 1020.09 401.39) scale(9.31)"/><use xlink:href="#a" transform="rotate(-72 1717.08 -444.65) scale(9.31)"/></g></mask><mask id="w" maskUnits="userSpaceOnUse"><g transform="matrix(-.1 -.02 .02 -.1 141.78 173.4)"><use xlink:href="#reuse-0" stroke-width="9.31"/><circle cx="1609.37" cy="953.25" r="27.93" stroke-width="9.31"/><use xlink:href="#a" transform="rotate(72 -107.47 1770.46) scale(9.31)"/><use xlink:href="#a" transform="rotate(143.99 589.37 924.3) scale(9.31)"/><use xlink:href="#a" transform="rotate(-143.99 1020.09 401.39) scale(9.31)"/><use xlink:href="#a" transform="rotate(-72 1717.08 -444.65) scale(9.31)"/></g></mask><mask id="v" maskUnits="userSpaceOnUse"><g transform="matrix(-.1 -.04 .04 -.1 105.23 197.72)"><use xlink:href="#reuse-0" stroke-width="9.31"/><circle cx="1609.37" cy="953.25" r="27.93" stroke-width="9.31"/><use xlink:href="#a" transform="rotate(72 -107.47 1770.46) scale(9.31)"/><use xlink:href="#a" transform="rotate(143.99 589.37 924.3) scale(9.31)"/><use xlink:href="#a" transform="rotate(-143.99 1020.09 401.39) scale(9.31)"/><use xlink:href="#a" transform="rotate(-72 1717.08 -444.65) scale(9.31)"/></g></mask><mask id="u" maskUnits="userSpaceOnUse"><g transform="matrix(-.09 -.06 .06 -.09 64.63 214.45)"><use xlink:href="#reuse-0" stroke-width="9.31"/><circle cx="1609.37" cy="953.25" r="27.93" stroke-width="9.31"/><use xlink:href="#a" transform="rotate(72 -107.47 1770.46) scale(9.31)"/><use xlink:href="#a" transform="rotate(143.99 589.37 924.3) scale(9.31)"/><use xlink:href="#a" transform="rotate(-143.99 1020.09 401.39) scale(9.31)"/><use xlink:href="#a" transform="rotate(-72 1717.08 -444.65) scale(9.31)"/></g></mask><mask id="t" maskUnits="userSpaceOnUse"><g transform="matrix(-.08 -.08 .08 -.08 21.55 222.94)"><use xlink:href="#reuse-0" stroke-width="9.31"/><circle cx="1609.37" cy="953.25" r="27.93" stroke-width="9.31"/><use xlink:href="#a" transform="rotate(72 -107.47 1770.46) scale(9.31)"/><use xlink:href="#a" transform="rotate(143.99 589.37 924.3) scale(9.31)"/><use xlink:href="#a" transform="rotate(-143.99 1020.09 401.39) scale(9.31)"/><use xlink:href="#a" transform="rotate(-72 1717.08 -444.65) scale(9.31)"/></g></mask><mask id="s" maskUnits="userSpaceOnUse"><g transform="matrix(-.06 -.09 .09 -.06 -22.35 222.86)"><use xlink:href="#reuse-0" stroke-width="9.31"/><circle cx="1609.37" cy="953.25" r="27.93" stroke-width="9.31"/><use xlink:href="#a" transform="rotate(72 -107.47 1770.46) scale(9.31)"/><use xlink:href="#a" transform="rotate(143.99 589.37 924.3) scale(9.31)"/><use xlink:href="#a" transform="rotate(-143.99 1020.09 401.39) scale(9.31)"/><use xlink:href="#a" transform="rotate(-72 1717.08 -444.65) scale(9.31)"/></g></mask><mask id="r" maskUnits="userSpaceOnUse"><g transform="matrix(-.04 -.1 .1 -.04 -65.4 214.22)"><use xlink:href="#reuse-0" stroke-width="9.31"/><circle cx="1609.37" cy="953.25" r="27.93" stroke-width="9.31"/><use xlink:href="#a" transform="rotate(72 -107.47 1770.46) scale(9.31)"/><use xlink:href="#a" transform="rotate(143.99 589.37 924.3) scale(9.31)"/><use xlink:href="#a" transform="rotate(-143.99 1020.09 401.39) scale(9.31)"/><use xlink:href="#a" transform="rotate(-72 1717.08 -444.65) scale(9.31)"/></g></mask><mask id="q" maskUnits="userSpaceOnUse"><g transform="matrix(-.02 -.1 .1 -.02 -105.94 197.34)"><use xlink:href="#reuse-0" stroke-width="9.31"/><circle cx="1609.37" cy="953.25" r="27.93" stroke-width="9.31"/><use xlink:href="#a" transform="rotate(72 -107.47 1770.46) scale(9.31)"/><use xlink:href="#a" transform="rotate(143.99 589.37 924.3) scale(9.31)"/><use xlink:href="#a" transform="rotate(-143.99 1020.09 401.39) scale(9.31)"/><use xlink:href="#a" transform="rotate(-72 1717.08 -444.65) scale(9.31)"/></g></mask><mask id="p" maskUnits="userSpaceOnUse"><g transform="matrix(0 -.1 .1 0 -142.4 172.88)"><use xlink:href="#reuse-0" stroke-width="9.31"/><circle cx="1609.37" cy="953.25" r="27.93" stroke-width="9.31"/><use xlink:href="#a" transform="rotate(72 -107.47 1770.46) scale(9.31)"/><use xlink:href="#a" transform="rotate(143.99 589.37 924.3) scale(9.31)"/><use xlink:href="#a" transform="rotate(-143.99 1020.09 401.39) scale(9.31)"/><use xlink:href="#a" transform="rotate(-72 1717.08 -444.65) scale(9.31)"/></g></mask><mask id="o" maskUnits="userSpaceOnUse"><g transform="matrix(.02 -.1 .1 .02 -173.4 141.78)"><use xlink:href="#reuse-0" stroke-width="9.31"/><circle cx="1609.37" cy="953.25" r="27.93" stroke-width="9.31"/><use xlink:href="#a" transform="rotate(72 -107.47 1770.46) scale(9.31)"/><use xlink:href="#a" transform="rotate(143.99 589.37 924.3) scale(9.31)"/><use xlink:href="#a" transform="rotate(-143.99 1020.09 401.39) scale(9.31)"/><use xlink:href="#a" transform="rotate(-72 1717.08 -444.65) scale(9.31)"/></g></mask><mask id="n" maskUnits="userSpaceOnUse"><g transform="matrix(.04 -.1 .1 .04 -197.72 105.23)"><use xlink:href="#reuse-0" stroke-width="9.31"/><circle cx="1609.37" cy="953.25" r="27.93" stroke-width="9.31"/><use xlink:href="#a" transform="rotate(72 -107.47 1770.46) scale(9.31)"/><use xlink:href="#a" transform="rotate(143.99 589.37 924.3) scale(9.31)"/><use xlink:href="#a" transform="rotate(-143.99 1020.09 401.39) scale(9.31)"/><use xlink:href="#a" transform="rotate(-72 1717.08 -444.65) scale(9.31)"/></g></mask><mask id="m" maskUnits="userSpaceOnUse"><g transform="matrix(.06 -.09 .09 .06 -214.45 64.63)"><use xlink:href="#reuse-0" stroke-width="9.31"/><circle cx="1609.37" cy="953.25" r="27.93" stroke-width="9.31"/><use xlink:href="#a" transform="rotate(72 -107.47 1770.46) scale(9.31)"/><use xlink:href="#a" transform="rotate(143.99 589.37 924.3) scale(9.31)"/><use xlink:href="#a" transform="rotate(-143.99 1020.09 401.39) scale(9.31)"/><use xlink:href="#a" transform="rotate(-72 1717.08 -444.65) scale(9.31)"/></g></mask><mask id="l" maskUnits="userSpaceOnUse"><g transform="matrix(.08 -.08 .08 .08 -222.94 21.55)"><use xlink:href="#reuse-0" stroke-width="9.31"/><circle cx="1609.37" cy="953.25" r="27.93" stroke-width="9.31"/><use xlink:href="#a" transform="rotate(72 -107.47 1770.46) scale(9.31)"/><use xlink:href="#a" transform="rotate(143.99 589.37 924.3) scale(9.31)"/><use xlink:href="#a" transform="rotate(-143.99 1020.09 401.39) scale(9.31)"/><use xlink:href="#a" transform="rotate(-72 1717.08 -444.65) scale(9.31)"/></g></mask><mask id="k" maskUnits="userSpaceOnUse"><g transform="matrix(.09 -.06 .06 .09 -222.86 -22.35)"><use xlink:href="#reuse-0" stroke-width="9.31"/><circle cx="1609.37" cy="953.25" r="27.93" stroke-width="9.31"/><use xlink:href="#a" transform="rotate(72 -107.47 1770.46) scale(9.31)"/><use xlink:href="#a" transform="rotate(143.99 589.37 924.3) scale(9.31)"/><use xlink:href="#a" transform="rotate(-143.99 1020.09 401.39) scale(9.31)"/><use xlink:href="#a" transform="rotate(-72 1717.08 -444.65) scale(9.31)"/></g></mask><mask id="j" maskUnits="userSpaceOnUse"><g transform="matrix(.1 -.04 .04 .1 -214.22 -65.4)"><use xlink:href="#reuse-0" stroke-width="9.31"/><circle cx="1609.37" cy="953.25" r="27.93" stroke-width="9.31"/><use xlink:href="#a" transform="rotate(72 -107.47 1770.46) scale(9.31)"/><use xlink:href="#a" transform="rotate(143.99 589.37 924.3) scale(9.31)"/><use xlink:href="#a" transform="rotate(-143.99 1020.09 401.39) scale(9.31)"/><use xlink:href="#a" transform="rotate(-72 1717.08 -444.65) scale(9.31)"/></g></mask><mask id="i" maskUnits="userSpaceOnUse"><g transform="matrix(.1 -.02 .02 .1 -197.34 -105.94)"><use xlink:href="#reuse-0" stroke-width="9.31"/><circle cx="1609.37" cy="953.25" r="27.93" stroke-width="9.31"/><use xlink:href="#a" transform="rotate(72 -107.47 1770.46) scale(9.31)"/><use xlink:href="#a" transform="rotate(143.99 589.37 924.3) scale(9.31)"/><use xlink:href="#a" transform="rotate(-143.99 1020.09 401.39) scale(9.31)"/><use xlink:href="#a" transform="rotate(-72 1717.08 -444.65) scale(9.31)"/></g></mask><mask id="h" maskUnits="userSpaceOnUse"><g transform="matrix(.1 0 0 .1 -172.88 -142.4)"><use xlink:href="#reuse-0" stroke-width="9.31"/><circle cx="1609.37" cy="953.25" r="27.93" stroke-width="9.31"/><use xlink:href="#a" transform="rotate(72 -107.47 1770.46) scale(9.31)"/><use xlink:href="#a" transform="rotate(143.99 589.37 924.3) scale(9.31)"/><use xlink:href="#a" transform="rotate(-143.99 1020.09 401.39) scale(9.31)"/><use xlink:href="#a" transform="rotate(-72 1717.08 -444.65) scale(9.31)"/></g></mask><linearGradient id="d"><stop offset="0" stop-color="#b8b8b8" stop-opacity=".5"/><stop offset="1" stop-color="#7f7f7f" stop-opacity="0"/></linearGradient><linearGradient id="b"><stop offset="0" stop-color="#ffd43b"/><stop offset="1" stop-color="#ffe873"/></linearGradient><linearGradient id="c"><stop offset="0" stop-color="#5a9fd4"/><stop offset="1" stop-color="#306998"/></linearGradient></defs><path fill="#fab71c" d="M32.8 62.74h6.51c4 0 4 4 0 4H32.8ZM17.27 81.27h20.04v-5.5H32.8v-4.01h5c5.52 0 2.51 9.51 7.02 9.51h12.52v-9.51h-3v1c0 4-4.51 3.5-5.01 1s-2.5-4.5-3-4.5c7.5-4.02 3-12.03-3.01-12.03H19.78v5.51h5v13.02h-7.5z"/><g mask="url(#e)" transform="matrix(.5 0 0 .5 37.06 70)"><circle r="43" fill="none" stroke="#fff" stroke-width="9"/><path id="f" fill="#fff" stroke="#fff" stroke-linejoin="round" stroke-width="3" d="M46-3v6l5-3z"/><use xlink:href="#f" fill="#f9f9f9" transform="rotate(11)"/><use xlink:href="#f" fill="#f9f9f9" transform="rotate(23)"/><use xlink:href="#f" fill="#f9f9f9" transform="rotate(34)"/><use xlink:href="#f" fill="#f9f9f9" transform="rotate(45)"/><use xlink:href="#f" fill="#f9f9f9" transform="rotate(56)"/><use xlink:href="#f" fill="#f9f9f9" transform="rotate(68)"/><use xlink:href="#f" fill="#f9f9f9" transform="rotate(79)"/><use xlink:href="#f" fill="#f9f9f9" transform="rotate(90)"/><use xlink:href="#f" fill="#f9f9f9" transform="rotate(101)"/><use xlink:href="#f" fill="#f9f9f9" transform="rotate(113)"/><use xlink:href="#f" fill="#f9f9f9" transform="rotate(124)"/><use xlink:href="#f" fill="#f9f9f9" transform="rotate(135)"/><use xlink:href="#f" fill="#f9f9f9" transform="rotate(146)"/><use xlink:href="#f" fill="#f9f9f9" transform="rotate(158)"/><use xlink:href="#f" fill="#f9f9f9" transform="rotate(169)"/><use xlink:href="#f" fill="#f9f9f9" transform="scale(-1)"/><use xlink:href="#f" fill="#f9f9f9" transform="rotate(-169)"/><use xlink:href="#f" fill="#f9f9f9" transform="rotate(-157)"/><use xlink:href="#f" fill="#f9f9f9" transform="rotate(-146)"/><use xlink:href="#f" fill="#f9f9f9" transform="rotate(-135)"/><use xlink:href="#f" fill="#f9f9f9" transform="rotate(-124)"/><use xlink:href="#f" fill="#f9f9f9" transform="rotate(-112)"/><use xlink:href="#f" fill="#f9f9f9" transform="rotate(-101)"/><use xlink:href="#f" fill="#f9f9f9" transform="rotate(-90)"/><use xlink:href="#f" fill="#f9f9f9" transform="rotate(-79)"/><use xlink:href="#f" fill="#f9f9f9" transform="rotate(-67)"/><use xlink:href="#f" fill="#f9f9f9" transform="rotate(-56)"/><use xlink:href="#f" fill="#f9f9f9" transform="rotate(-45)"/><use xlink:href="#f" fill="#f9f9f9" transform="rotate(-34)"/><use xlink:href="#f" fill="#f9f9f9" transform="rotate(-22)"/><use xlink:href="#f" fill="#f9f9f9" transform="rotate(-11)"/><path id="g" fill="#fff" stroke="#fff" stroke-linejoin="round" stroke-width="6" d="M7-42H-7l7 7z"/><use xlink:href="#g" fill="#f9f9f9" transform="rotate(72)"/><use xlink:href="#g" fill="#f9f9f9" transform="rotate(144)"/><use xlink:href="#g" fill="#f9f9f9" transform="rotate(-144)"/><use xlink:href="#g" fill="#f9f9f9" transform="rotate(-72)"/></g><g transform="matrix(.03 0 0 .03 43.56 17.4)"><circle cx="893.9" cy="919.31" r="400.29" fill="none" stroke="#fff" stroke-width="83.78"/><g transform="translate(-715.47 -406.3)"><path fill="#fff" stroke="#fff" stroke-linejoin="round" stroke-width="3" d="m46 3 5-3-5-3z" mask="url(#h)" transform="matrix(9.3 0 0 9.3 1609.37 1325.61)"/><use xlink:href="#f" fill="#f9f9f9" mask="url(#i)" transform="rotate(11.28 -5920.61 8836.43) scale(9.31)"/><use xlink:href="#f" fill="#f9f9f9" mask="url(#j)" transform="rotate(22.51 -2526.39 4709.12) scale(9.31)"/><use xlink:href="#f" fill="#f9f9f9" mask="url(#k)" transform="rotate(33.76 -1379.8 3315.9) scale(9.31)"/><use xlink:href="#f" fill="#f9f9f9" mask="url(#l)" transform="rotate(45.01 -795.19 2605.72) scale(9.31)"/><use xlink:href="#f" fill="#f9f9f9" mask="url(#m)" transform="rotate(56.25 -435.15 2168.42) scale(9.31)"/><use xlink:href="#f" fill="#f9f9f9" mask="url(#n)" transform="rotate(67.5 -187.14 1867.21) scale(9.31)"/><use xlink:href="#f" fill="#f9f9f9" mask="url(#o)" transform="rotate(78.75 -2.84 1643.4) scale(9.31)"/><use xlink:href="#f" fill="#f9f9f9" mask="url(#p)" transform="matrix(0 9.3 -9.3 0 1609.37 1325.61)"/><use xlink:href="#f" fill="#f9f9f9" mask="url(#q)" transform="rotate(101.25 260.8 1323.25) scale(9.31)"/><use xlink:href="#f" fill="#f9f9f9" mask="url(#r)" transform="rotate(112.5 361.87 1200.53) scale(9.31)"/><use xlink:href="#f" fill="#f9f9f9" mask="url(#s)" transform="rotate(123.75 450.46 1092.96) scale(9.31)"/><use xlink:href="#f" fill="#f9f9f9" mask="url(#t)" transform="rotate(134.99 530.19 996.16) scale(9.31)"/><use xlink:href="#f" fill="#f9f9f9" mask="url(#u)" transform="rotate(146.24 603.67 906.94) scale(9.31)"/><use xlink:href="#f" fill="#f9f9f9" mask="url(#v)" transform="rotate(157.49 672.89 822.9) scale(9.31)"/><use xlink:href="#f" fill="#f9f9f9" mask="url(#w)" transform="rotate(168.72 739.45 742.1) scale(9.31)"/><use xlink:href="#f" fill="#f9f9f9" mask="url(#x)" transform="matrix(-9.3 0 0 -9.3 1609.37 1325.61)"/><use xlink:href="#f" fill="#f9f9f9" mask="url(#y)" transform="rotate(-168.72 870 583.59) scale(9.31)"/><use xlink:href="#f" fill="#f9f9f9" mask="url(#z)" transform="rotate(-157.49 936.57 502.78) scale(9.31)"/><use xlink:href="#f" fill="#f9f9f9" mask="url(#A)" transform="rotate(-146.24 1005.79 418.74) scale(9.31)"/><use xlink:href="#f" fill="#f9f9f9" mask="url(#B)" transform="rotate(-134.99 1079.28 329.53) scale(9.31)"/><use xlink:href="#f" fill="#f9f9f9" mask="url(#C)" transform="rotate(-123.75 1159.01 232.74) scale(9.31)"/><use xlink:href="#f" fill="#f9f9f9" mask="url(#D)" transform="rotate(-112.5 1247.62 125.18) scale(9.31)"/><use xlink:href="#f" fill="#f9f9f9" mask="url(#E)" transform="rotate(-101.25 1348.7 2.48) scale(9.31)"/><use xlink:href="#f" fill="#f9f9f9" mask="url(#F)" transform="matrix(0 -9.3 9.3 0 1609.37 1325.61)"/><use xlink:href="#f" fill="#f9f9f9" mask="url(#G)" transform="rotate(-78.75 1612.42 -317.62) scale(9.31)"/><use xlink:href="#f" fill="#f9f9f9" mask="url(#H)" transform="rotate(-67.5 1796.78 -541.38) scale(9.31)"/><use xlink:href="#f" fill="#f9f9f9" mask="url(#I)" transform="rotate(-56.25 2044.9 -842.5) scale(9.31)"/><use xlink:href="#f" fill="#f9f9f9" mask="url(#J)" transform="rotate(-45.01 2405.12 -1279.64) scale(9.31)"/><use xlink:href="#f" fill="#f9f9f9" mask="url(#K)" transform="rotate(-33.76 2990.15 -1989.48) scale(9.31)"/><use xlink:href="#f" fill="#f9f9f9" mask="url(#L)" transform="matrix(8.6 -3.56 3.56 8.6 1609.37 1325.61)"/><use xlink:href="#f" fill="#f9f9f9" mask="url(#M)" transform="rotate(-11.28 7538.55 -7503.76) scale(9.31)"/></g></g><circle cx="46.85" cy="23.82" r="16.48" fill="none" stroke="#fff" stroke-width="3.45"/><g fill="#f9f9f9" color="#fff" mask="url(#h)" transform="matrix(.38 0 0 .38 46.85 23.82)"><path d="m46 3 5-3-5-3Z" style="-inkscape-stroke:none"/><path d="M45.26-4.3A1.5 1.5 0 0 0 44.5-3v6a1.5 1.5 0 0 0 2.27 1.29l5-3a1.5 1.5 0 0 0 0-2.58l-5-3a1.5 1.5 0 0 0-1.5-.01zM47.5-.35l.58.35-.58.35Z" style="-inkscape-stroke:none"/></g><use xlink:href="#f" fill="#f9f9f9" mask="url(#i)" transform="matrix(.38 .07 -.07 .38 46.85 23.82)"/><use xlink:href="#f" fill="#f9f9f9" mask="url(#j)" transform="matrix(.35 .15 -.15 .35 46.85 23.82)"/><use xlink:href="#f" fill="#f9f9f9" mask="url(#k)" transform="matrix(.32 .21 -.21 .32 46.85 23.82)"/><use xlink:href="#f" fill="#f9f9f9" mask="url(#l)" transform="matrix(.27 .27 -.27 .27 46.85 23.82)"/><use xlink:href="#f" fill="#f9f9f9" mask="url(#m)" transform="matrix(.21 .32 -.32 .21 46.85 23.82)"/><use xlink:href="#f" fill="#f9f9f9" mask="url(#n)" transform="matrix(.15 .35 -.35 .15 46.85 23.82)"/><use xlink:href="#f" fill="#f9f9f9" mask="url(#o)" transform="matrix(.07 .38 -.38 .07 46.85 23.82)"/><use xlink:href="#f" fill="#f9f9f9" mask="url(#p)" transform="matrix(0 .38 -.38 0 46.85 23.82)"/><use xlink:href="#f" fill="#f9f9f9" mask="url(#q)" transform="matrix(-.07 .38 -.38 -.07 46.85 23.82)"/><use xlink:href="#f" fill="#f9f9f9" mask="url(#r)" transform="matrix(-.15 .35 -.35 -.15 46.85 23.82)"/><use xlink:href="#f" fill="#f9f9f9" mask="url(#s)" transform="matrix(-.21 .32 -.32 -.21 46.85 23.82)"/><use xlink:href="#f" fill="#f9f9f9" mask="url(#t)" transform="matrix(-.27 .27 -.27 -.27 46.85 23.82)"/><use xlink:href="#f" fill="#f9f9f9" mask="url(#u)" transform="matrix(-.32 .21 -.21 -.32 46.85 23.82)"/><use xlink:href="#f" fill="#f9f9f9" mask="url(#v)" transform="matrix(-.35 .15 -.15 -.35 46.85 23.82)"/><use xlink:href="#f" fill="#f9f9f9" mask="url(#w)" transform="matrix(-.38 .07 -.07 -.38 46.85 23.82)"/><use xlink:href="#f" fill="#f9f9f9" mask="url(#x)" transform="matrix(-.38 0 0 -.38 46.85 23.82)"/><use xlink:href="#f" fill="#f9f9f9" mask="url(#y)" transform="matrix(-.38 -.07 .07 -.38 46.85 23.82)"/><use xlink:href="#f" fill="#f9f9f9" mask="url(#z)" transform="matrix(-.35 -.15 .15 -.35 46.85 23.82)"/><use xlink:href="#f" fill="#f9f9f9" mask="url(#A)" transform="matrix(-.32 -.21 .21 -.32 46.85 23.82)"/><use xlink:href="#f" fill="#f9f9f9" mask="url(#B)" transform="matrix(-.27 -.27 .27 -.27 46.85 23.82)"/><use xlink:href="#f" fill="#f9f9f9" mask="url(#C)" transform="matrix(-.21 -.32 .32 -.21 46.85 23.82)"/><use xlink:href="#f" fill="#f9f9f9" mask="url(#D)" transform="matrix(-.15 -.35 .35 -.15 46.85 23.82)"/><use xlink:href="#f" fill="#f9f9f9" mask="url(#E)" transform="matrix(-.07 -.38 .38 -.07 46.85 23.82)"/><use xlink:href="#f" fill="#f9f9f9" mask="url(#F)" transform="matrix(0 -.38 .38 0 46.85 23.82)"/><use xlink:href="#f" fill="#f9f9f9" stroke="#f9f9f9" mask="url(#G)" transform="matrix(.07 -.38 .38 .07 46.85 23.82)"/><use xlink:href="#f" fill="#f9f9f9" mask="url(#H)" transform="matrix(.15 -.35 .35 .15 46.85 23.82)"/><use xlink:href="#f" fill="#f9f9f9" mask="url(#I)" transform="matrix(.21 -.32 .32 .21 46.85 23.82)"/><use xlink:href="#f" fill="#f9f9f9" mask="url(#J)" transform="matrix(.27 -.27 .27 .27 46.85 23.82)"/><use xlink:href="#f" fill="#f9f9f9" mask="url(#K)" transform="matrix(.32 -.21 .21 .32 46.85 23.82)"/><use xlink:href="#f" fill="#f9f9f9" mask="url(#L)" transform="matrix(.35 -.15 .15 .35 46.85 23.82)"/><use xlink:href="#f" fill="#f9f9f9" mask="url(#M)" transform="matrix(.38 -.07 .07 .38 46.85 23.82)"/><path fill="#fab71c" d="M72.8 39.24c-.65 0-1.27.06-1.82.16-1.61.28-1.9.88-1.9 1.98v1.46h3.81v.48h-5.25c-1.1 0-2.08.67-2.38 1.94a7.13 7.13 0 0 0 0 3.87c.27 1.13.92 1.94 2.02 1.94h1.32v-1.74a2.43 2.43 0 0 1 2.38-2.38h3.81c1.06 0 1.91-.87 1.91-1.94v-3.63c0-1.03-.87-1.81-1.9-1.98a11.9 11.9 0 0 0-2-.16zm-2.06 1.17c.4 0 .72.33.72.73 0 .4-.32.73-.72.73a.72.72 0 0 1-.71-.73c0-.4.32-.73.71-.73z"/><path fill="#fff" d="M77.18 43.32v1.7a2.45 2.45 0 0 1-2.39 2.41H71c-1.05 0-1.92.9-1.92 1.94v3.64c0 1.03.9 1.64 1.91 1.94 1.21.35 2.37.42 3.81 0 .96-.28 1.91-.84 1.91-1.94v-1.46H72.9v-.48h5.72c1.11 0 1.52-.77 1.9-1.94.4-1.2.39-2.34 0-3.87-.27-1.1-.79-1.94-1.9-1.94zm-2.15 9.2c.4 0 .72.33.72.73 0 .4-.32.73-.72.73a.72.72 0 0 1-.71-.73c0-.4.32-.73.71-.73z"/><path fill="#fab71c" d="M49.44 26.74c.68 1.12 1.58 1.94 3.15 1.94 1.33 0 2.18-.66 2.18-1.58 0-1.1-.87-1.48-2.33-2.12l-.8-.34c-2.31-.99-3.84-2.22-3.84-4.82 0-2.4 1.82-4.23 4.68-4.23 2.04 0 3.5.7 4.55 2.56l-2.49 1.6c-.55-.98-1.14-1.37-2.06-1.37-.94 0-1.53.6-1.53 1.37 0 .96.6 1.35 1.97 1.94l.8.35c2.72 1.16 4.25 2.35 4.25 5.02 0 2.88-2.26 4.46-5.3 4.46-2.97 0-4.9-1.42-5.83-3.27zm-11.3.28c.5.89.96 1.64 2.06 1.64 1.05 0 1.71-.41 1.71-2V15.76h3.2V26.7c0 3.32-1.94 4.82-4.78 4.82a4.97 4.97 0 0 1-4.8-2.92z"/></svg>