<svg xmlns="http://www.w3.org/2000/svg" viewBox="0 0 26.46 26.46"><defs><clipPath id="a" clipPathUnits="userSpaceOnUse"/></defs><g clip-path="url(#a)" opacity=".55" transform="matrix(.35 0 0 -.35 -1182.3 -493.87)"><path fill="#72d3ca" d="M321.43 110.32c-.01 0-.01 0 0 0"/></g><path fill="#fff" d="M17.2 22.58a.05.05 0 0 0-.04.03l-.12.27h-.13l-.13-.27a.05.05 0 0 0-.06-.02.05.05 0 0 0-.03.04l-.03.3-.12.04-.22-.2a.05.05 0 0 0-.05 0 .05.05 0 0 0-.02.05l.07.29a1.1 1.1 0 0 0-.09.08l-.27-.12c-.03 0-.05 0-.06.02a.05.05 0 0 0 0 .06l.17.24a1.1 1.1 0 0 0-.06.11l-.3-.01a.05.05 0 0 0-.05.03c0 .02 0 .04.02.05l.25.17-.02.07v.06l-.29.09a.05.05 0 0 0-.03.04c0 .02.01.05.03.05l.29.07c0 .05.02.09.03.13l-.24.18a.05.05 0 0 0-.02.06c0 .01.03.03.05.03l.3-.03.06.1-.16.26a.05.05 0 0 0 0 .06c.02.01.04.02.06 0l.27-.12.1.08-.07.29c0 .02.01.04.03.05h.06l.2-.22.13.04.03.3c0 .02.02.04.04.04s.04 0 .05-.03l.13-.27h.13l.13.27c.01.02.03.03.05.02.02 0 .04-.02.04-.04l.03-.3.11-.05.22.2c.02.02.05.02.06.01a.05.05 0 0 0 .02-.05l-.08-.29.1-.08.27.12c.03 0 .05 0 .06-.02a.05.05 0 0 0 0-.06l-.17-.24.06-.11.3.01c.02 0 .04-.01.05-.03 0-.02 0-.04-.02-.06l-.25-.17.02-.06v-.06l.29-.09c.02 0 .03-.03.03-.04a.05.05 0 0 0-.03-.05l-.3-.08c0-.04 0-.08-.02-.12l.24-.18a.05.05 0 0 0 .02-.06.05.05 0 0 0-.05-.03l-.3.03a1.1 1.1 0 0 0-.07-.1l.17-.26a.05.05 0 0 0 0-.06.05.05 0 0 0-.06 0l-.28.12a1.1 1.1 0 0 0-.1-.08l.07-.3c0-.01 0-.03-.02-.04h-.06l-.2.22a1.08 1.08 0 0 0-.13-.04l-.03-.3a.05.05 0 0 0-.06-.04zm-9.93.15a.1.1 0 0 0-.1.07l-.25.9-.18.03-.11.03-.56-.77a.1.1 0 0 0-.1-.03.1.1 0 0 0-.07.1l.07.94-.26.14-.78-.52a.1.1 0 0 0-.11 0 .1.1 0 0 0-.03.11l.39.86-.2.23-.9-.23a.1.1 0 0 0-.11.04.1.1 0 0 0 .01.12l.66.68-.1.28-.94.1a.1.1 0 0 0-.03.18l.85.4v.3l-.85.41a.1.1 0 0 0-.06.1c.01.04.04.08.09.08l.93.1a2.62 2.62 0 0 0 .1.28l-.65.67a.1.1 0 0 0-.01.12.1.1 0 0 0 .1.04l.91-.23.2.23-.39.86a.1.1 0 0 0 .03.11.1.1 0 0 0 .11 0l.78-.52.26.15-.07.94c0 .04.03.08.07.1a.1.1 0 0 0 .1-.04l.55-.76.3.05.26.9a.1.1 0 0 0 .09.07.1.1 0 0 0 .1-.06l.25-.9.23-.05v-.13c-.17.03-.34.06-.52.07v-.67c.24-.01.47-.06.68-.14l.1-.28a1.84 1.84 0 0 1-2.7-1.65 1.86 1.86 0 1 1 3.7.26l.22-.18v-.02h.02l.18-.12h-.2a2.07 2.07 0 0 0-2-2v-.67h.03a2.75 2.75 0 0 1 2.63 2.6c.05.04.09.08.14.09v-.1l.84-.42a.1.1 0 0 0-.03-.18l-.94-.1-.1-.27.66-.68a.1.1 0 0 0-.1-.16l-.91.23a2.93 2.93 0 0 0-.2-.23l.4-.86a.1.1 0 0 0-.03-.1.1.1 0 0 0-.12-.01l-.78.52a2.7 2.7 0 0 0-.25-.15l.06-.93a.1.1 0 0 0-.06-.1.1.1 0 0 0-.1.03l-.56.77-.3-.06-.25-.9a.1.1 0 0 0-.1-.07zm9.76.56-.09.58-.6-.1c.1-.3.37-.5.7-.48zm.15.02c.3.09.5.36.5.68l-.6-.1.1-.58zm-9.97.5v.66c-1.1.04-1.98.92-2 2.01h-.67c.02-.7.3-1.4.82-1.9a2.68 2.68 0 0 1 1.85-.77zm9.1.11.61.1-.1.62a.7.7 0 0 1-.5-.72zm.75.12.61.1a.7.7 0 0 1-.7.52l.1-.62zm-2.93 0a.28.28 0 0 0-.18.08.43.43 0 0 0-.11.17l-.2.6a2 2 0 0 0-.7.2l-.48-.42a.46.46 0 0 0-.2-.09.26.26 0 0 0-.2.04.27.27 0 0 0-.1.2c0 .08.01.16.04.2l.28.57a2 2 0 0 0-.36.63l-.63.05c-.05 0-.1.02-.15.05.27.15.49.42.61.7l.06.02c.02.23.08.46.18.68.02-.07.04-.17.04-.3.08-.06.15-.15.22-.24-.02-.1-.04-.21-.04-.32l.2.01.05-.08h-.24c0-.17.04-.32.1-.47l.32.13.04-.08-.34-.13c.07-.14.15-.28.26-.4l.27.24.05-.06-.27-.24a1.6 1.6 0 0 1 .37-.3l.15.3.1-.02-.17-.31c.14-.07.3-.12.44-.15l.08.52.09.03-.08-.56a1.6 1.6 0 0 1 .37 0l.1.02-.05.22v.01l-.09.43.07.05.15-.7c.15.04.3.1.44.19l-.4.64.06.05.41-.65c.13.08.25.19.35.31l-.62.5.03.07.64-.5c.1.13.17.27.22.42l-.81.26v.09l.84-.27c.04.15.07.3.06.47h-.02l-.03-.02v.01l-.89-.03c0 .03-.01.06-.03.08l.97.04a1.6 1.6 0 0 1-.1.46l-.93-.38-.04.07.94.39c-.06.14-.14.27-.25.4l-.76-.68-.04.06.75.68-.18.16-.05.03c.2-.03.42-.06.58-.14.24-.38.5-.85.84-1.2l-.36-.12a1.99 1.99 0 0 0-.2-.7l.42-.48a.46.46 0 0 0 .09-.2.26.26 0 0 0-.05-.2v-.01h-.01a.27.27 0 0 0-.2-.1.43.43 0 0 0-.2.05l-.55.28c-.2-.16-.4-.28-.64-.36l-.04-.63a.45.45 0 0 0-.07-.2.26.26 0 0 0-.19-.12h-.03zm5.58.18h-.02l-1.27.37a.13.13 0 0 0-.09.17l.11.38c-.2.13-.39.27-.55.44l-.35-.19a.13.13 0 0 0-.18.05l-.5.9c.2-.06.39-.09.6-.06.09.07.17.1.24.1.09-.16.19-.32.31-.46l.14.14-.15.2c.13-.07.27-.16.43-.17a.84.84 0 0 1 .24-.03l-.11-.11a2.2 2.2 0 0 1 1.25-.52v.21a2 2 0 0 0-1.06.42c.1.02.17.04.25.08a1.8 1.8 0 0 1 2.8 1.5c0 1-.81 1.8-1.8 1.8h-.07v.1c.25-.02.48-.03.54.05a2 2 0 0 0 .8-.4l.16.15c-.3.24-.65.4-1.03.48l-.17.16c-.16.29-.56.36-.77.55.19.04.37.06.56.05l.11.38c.02.07.1.11.17.1l1.26-.37c.07-.02.11-.1.1-.17l-.12-.38c.2-.12.39-.27.55-.44l.35.2c.07.03.15 0 .18-.06l.64-1.15a.13.13 0 0 0-.05-.19l-.35-.19c.05-.22.08-.46.08-.7l.37-.11c.07-.02.12-.1.1-.16l-.37-1.27a.13.13 0 0 0-.17-.09l-.38.11c-.12-.2-.27-.39-.44-.55l.2-.35a.13.13 0 0 0-.06-.18l-1.15-.63a.13.13 0 0 0-.18.05l-.2.35a2.93 2.93 0 0 0-.7-.08l-.1-.38a.13.13 0 0 0-.15-.1zm.1.8v.2c-.53.04-1.02.26-1.4.58l-.14-.14c.42-.36.95-.6 1.54-.64zm.37 0c.58.04 1.12.28 1.53.64l-.14.14a2.42 2.42 0 0 0-1.4-.58v-.2zm0 .41c.47.04.9.23 1.25.52l-.15.15a2 2 0 0 0-1.1-.46v-.21zm1.8.49a2.61 2.61 0 0 1 0 3.44l-.15-.14a2.41 2.41 0 0 0 0-3.16l.14-.14zm-.3.29a2.21 2.21 0 0 1 0 2.86l-.14-.15a2 2 0 0 0 0-2.56l.15-.15zm-17.14.4h.66c.03 1.09.91 1.97 2 2v.67A2.75 2.75 0 0 1 4.7 27.5a2.6 2.6 0 0 1-.17-.9zm-1.73.63-.11.36a1.17 1.17 0 0 0-.43.02l-.14-.35-.02.01a1.54 1.54 0 0 0-.33.14h-.01l.15.35c-.12.08-.23.18-.31.29l-.34-.17v.02a1.56 1.56 0 0 0-.17.31v.02l.33.17c-.05.15-.06.28-.05.42L1 28.9v.02a1.55 1.55 0 0 0 .09.35v.01l.37-.08c.05.13.13.25.23.35l-.23.3.01.01a1.58 1.58 0 0 0 .29.22h.01l.23-.29a1.17 1.17 0 0 0 .4.12l.02.37h.02a1.62 1.62 0 0 0 .35-.01h.02l-.02-.38c.14-.03.27-.09.4-.17l.25.28.01-.01a1.57 1.57 0 0 0 .26-.24l.01-.02-.25-.27c.08-.11.15-.23.19-.37v-.01l.37.04v-.01a1.56 1.56 0 0 0 .05-.35v-.02l-.37-.05c-.01-.14-.04-.28-.1-.4l.31-.21v-.02a1.56 1.56 0 0 0-.2-.3v-.01l-.32.2c-.1-.1-.21-.19-.34-.25l.1-.36a1.56 1.56 0 0 0-.35-.11h-.01zm11.33.18-.05.08.4.74.07-.03-.42-.79zm-.17.3a.96.96 0 0 0-.06.17l.08.57c-.12.02-.24.01-.36 0-.07.21.02.3.48.13a.42.42 0 0 1 .08-.16l-.12.02-.1-.73zm-11.43.26c.08 0 .15 0 .23.03l.07.03-.07.1a.66.66 0 0 0-.73.2l-.1-.05a.8.8 0 0 1 .6-.31zm.47.17c.25.2.38.52.28.84l-.01.05-.12-.07a.66.66 0 0 0-.2-.72l.05-.1zm7.1.04c0-.02-.04.04 0 .04v-.04zm-8.28.27.1.07c-.1.26-.01.56.2.74l-.05.1a.78.78 0 0 1-.28-.84l.03-.07zm6.76.47c-.1.06-.22.1-.33.15.27.23.3.21.31.07v-.06c0-.06 0-.1.02-.16zm-5.53.23.1.05c-.2.26-.52.4-.84.3l-.06-.03.06-.1c.27.09.57 0 .74-.22zm18.51.32.14.14c-.41.37-.95.6-1.53.64v-.2a2.41 2.41 0 0 0 1.39-.58zm-17.1.32c-.17 0-.34.02-.5.04h-.01L3.83 31c-.2.06-.4.13-.59.22l-.83-.8h-.02a4.2 4.2 0 0 0-.4.3l-.18.14c-.13.11-.24.23-.35.35l-.01.01.64.97c-.12.17-.23.35-.31.54l-1.16-.08v.02c-.05.15-.1.31-.13.48l-.04.23c-.03.16-.04.33-.04.5l1.1.33c.02.21.06.42.12.62l-.94.68v.02l.22.44.12.2c.08.15.18.28.28.41v.02l1.07-.47.11.1c.1-.19.21-.37.35-.54a2.46 2.46 0 0 1 1.74-4.21c1.07 0 1.97.67 2.32 1.61.16-.03.33-.05.5-.06-.84-.5-.66-1.56-.15-2.25l-.07-.07a4.2 4.2 0 0 0-.4-.28l-.02-.01-.83.8c-.2-.1-.39-.17-.6-.22l-.12-1.14h-.02a4.21 4.21 0 0 0-.49-.05h-.24zm11 .39c-.07 0 .26.08 0 0zm.1.01c-.03 0 .09.1.07.04a.28.28 0 0 0-.08-.04zm7.85.18c-.25.01-.5.06-.75.15l-.4.18-4.18 2.16h.34l3.92-2.01c.1-.06.37-.17.37-.17a2.33 2.33 0 0 1 3.03 1.4 2.36 2.36 0 0 1-1.71 3.07l-.11.2h.01l.41-.12a2.52 2.52 0 0 0 1.56-3.22 2.5 2.5 0 0 0-2.5-1.64zm-.67.35-.04.01a.22.22 0 0 0-.13.14.35.35 0 0 0-.02.16l.08.5c-.17.1-.32.24-.44.4l-.49-.13a.37.37 0 0 0-.17 0 .21.21 0 0 0-.14.12.22.22 0 0 0 0 .18c.03.06.07.1.11.13l.4.3a1.6 1.6 0 0 0-.03.59l-.43.26a.38.38 0 0 0-.1.1c.04.1.05.2.04.3a.3.3 0 0 0 .22.05l.5-.07.05.07.4-.68a.97.97 0 1 1 1.9-.27c.2.2.36.46.4.77l-.2.36.12-.12.48.12h.17a.21.21 0 0 0 .14-.12.22.22 0 0 0 0-.18.35.35 0 0 0-.1-.13l-.4-.3c.04-.19.05-.39.02-.6l.43-.25a.36.36 0 0 0 .12-.12.21.21 0 0 0 .02-.18.22.22 0 0 0-.14-.13.34.34 0 0 0-.16-.02l-.5.08a1.6 1.6 0 0 0-.4-.44l.13-.49a.37.37 0 0 0 0-.17.21.21 0 0 0-.12-.14c-.06-.03-.13-.02-.18 0a.35.35 0 0 0-.13.1l-.3.41a1.6 1.6 0 0 0-.59-.03l-.26-.43a.37.37 0 0 0-.12-.12.23.23 0 0 0-.14-.03zm-5.17.13c-.3.06-.56.14-.75.23a1.03 1.03 0 0 1 .06.26h-.16a.86.86 0 0 0-.04-.18.36.36 0 0 0-.1.1c-.42-.27-.7.06-1.11.16-.37-.18-1.1.26-1-.02-.2.1-.4.19-.61.23l.01.12v.01l.49-.02v.02c.04.19.12.35.22.5l-.36.33v.02l.15.18.12.11.34-.2.08-.07.03.02c.2-.1.4-.18.6-.24a1.03 1.03 0 0 1-.7-.9H15c.04.41.37.75.79.79v.05l.16-.04v-.01a.87.87 0 0 0 .79-.8h.16c-.02.31-.19.59-.43.77.2 0 .4.05.54.17.09-.1.16-.2.22-.32l.47.15v-.02a2.05 2.05 0 0 0 .14-.44v-.02l-.46-.14c.03-.18.03-.37-.01-.55l-.01-.02.34-.14a.48.48 0 0 1-.12-.1zm-5.11.6c-.06 0-.1.02-.15.06.04.1.15.17.26.15a.23.23 0 0 0 .17-.14.73.73 0 0 0-.28-.07zm-1.95.06-.2.22.02.1.02.08c0-.12.04-.26.16-.4zm2.51.12c.02.54-.22 1.05-.6 1.4a.65.65 0 0 0 .2-.13.7.7 0 0 1 .37.04l.18-.3.66.2.01-.03a2.9 2.9 0 0 0 .19-.62v-.02l-.67-.2c.02-.1.02-.19.02-.28-.09 0-.17-.01-.26-.03l-.1-.03zM10.1 32zm.4.2c.19.27.52.42.87.35h.04c-.1-.01-.21-.03-.34-.07a1.11 1.11 0 0 1-.58-.28zm1.81.02a.23.23 0 1 0 .02.46.23.23 0 0 0-.02-.46zm-2.74.3-.26.2.07.14.44.01a1.8 1.8 0 0 1-.25-.36zm.87.05a.24.24 0 0 0-.2.1.23.23 0 0 0-.02.2l.43.03a.23.23 0 0 0-.2-.33zm-5.86.17a1.2 1.2 0 0 0-.75 2.12c.6-.35 1.29-.58 1.93-.72l.02-.2c0-.66-.54-1.2-1.2-1.2zm6.87.04h-.04a.23.23 0 0 0-.17.16l.28.05.16.03v-.05a.23.23 0 0 0-.23-.19zm6.63 1.29-.72.01-.08.09-.3-.07h-.18a.14.14 0 0 0-.07.07.15.15 0 0 0 .01.13c.02.04.04.07.07.09l.27.2c-.03.12-.04.25-.02.37l-.29.18a.25.25 0 0 0-.08.08.15.15 0 0 0-.01.13c.01.04.05.07.1.08.03.02.07.02.1.02l.33-.05c.06.1.14.18.23.26.1-.07.18-.16.22-.31l.09-.16a.53.53 0 0 1 .2-.86.52.52 0 0 1 .61.2c.3-.12.64-.2.96-.3h-.03a.24.24 0 0 0-.12-.02l-.32.04a1.04 1.04 0 0 0-.13-.16l-.84-.02zm-1.42.05-.2.02c-.1.24-.16.5-.15.76l.04-.05.13-.16c.02-.2.08-.4.18-.57zm7.71.43-.28.52a.2.2 0 0 0 .17.02c.07-.02.1-.08.13-.14a.35.35 0 0 0 .02-.16l-.04-.24zm-12.51.12c-.06 0-.13 0-.2.02l.07.74c-.23.03-.46.1-.68.16.16.39.15.8.04 1.2a3.4 3.4 0 0 1 2.08-.21l-.75 2.75.03.07.35-.54.61-2.22a3.4 3.4 0 0 1 2.23 2.06c.18-.36.37-.7.57-1.05-.43-.05-.86-.32-1-.74-.26-.63.16-1.07.6-1.49l-.4-.28-.62.87a4.54 4.54 0 0 0-.8-.37l.2-.67c-.14.02-.27.03-.41 0l-.32-.07-.15.55c-.3-.06-.58-.08-.87-.08l-.05-.67h-.33a.84.84 0 0 0-.2-.03zm-1.42 0-.11.06.22.18-.11-.23zm6.12.72-.04.3.08.13.2-.02c-.1-.12-.18-.26-.24-.4zm-8.64.65-.32.44.25.1.3-.41.05-.1a1.1 1.1 0 0 0-.28-.03zm.42.06-.08.08.44.44c.09-.23-.1-.42-.36-.52zm11.97 1.1c-.1 0-.27.05-.45.08v.02c-.25.1-.48.26-.67.45l-.35-.25c-.17.13-.3.32-.41.55l.35.26a2.2 2.2 0 0 0-.19.5h.14l.17.08c.14-.68.67-1.24 1.39-1.4.15-.23.14-.3.02-.3zm-12.77 0-.23.5c.2-.09.42-.2.61-.32l-.38-.18zm-3.41.12a1.5 1.5 0 0 0-.44.74l.05.01h.02l.37-.75zm19.03.53-.63.27-.07-.1-.19.34a1.82 1.82 0 0 1-1.49 2.74l-.34.64c-.12 0-.24 0-.36-.02l-.04.36h.02a2.91 2.91 0 0 0 .65.08h.02l.07-.69a2.17 2.17 0 0 0 .8-.2l.38.58H22a2.89 2.89 0 0 0 .54-.37h.02l-.38-.59c.2-.18.36-.4.48-.65l.67.2v-.03a2.9 2.9 0 0 0 .19-.62v-.02l-.66-.2c.03-.25.02-.52-.04-.78l-.01-.04.63-.27v-.02a2.88 2.88 0 0 0-.27-.6v-.01zm-19.35.35c-.03 0-.05.02-.06.06l-.04.14.1-.2zm15.75.08a.23.23 0 0 0-.12.42c.07.05.15.05.23.02l.13-.26a.23.23 0 0 0-.24-.18zm-5.4.3c.02-.02.04.05 0 0zm7.88.22-.2.37c.04.07.13.1.22.09a.23.23 0 0 0-.03-.46zm-19.31.02.03.38c-.09.04-.17.1-.25.15l-.6-.4a.08.08 0 0 0-.12.1l.3.65-.18.23-.7-.17c-.03-.01-.07 0-.09.04a.08.08 0 0 0 .02.1l.5.5-.1.28-.7.08a.08.08 0 0 0-.08.07c0 .03.01.07.05.09l.65.3V41.51l-.64.32a.08.08 0 0 0-.05.09c.01.03.04.06.08.07l.71.06.1.27-.49.52a.08.08 0 0 0-.01.1c.02.03.05.05.09.04l.6-.16.13-.35a2.18 2.18 0 0 1 .86-3.07l-.06-.46-.05-.12zm.74.15c-.07 0-.13.02-.2.03v-.02l-.11.28.18-.05.13-.24zm14.45.15h-.07v.08l.07-.08zm-9.49.1c-.5.23-1.04.4-1.58.5v.03l1.06.1v.34c.13-.28.27-.56.43-.82l.04-.06.05-.08zm10.92.07h-.04a.23.23 0 0 0-.12.08l-.03.27c0 .02.02.04.04.05l.19-.4h-.04zm-12.78.48-.28.05.1.19.16-.17a.08.08 0 0 0 .02-.07zm15.24.04a.24.24 0 1 0 0 .47.24.24 0 0 0 0-.47zm-18.74 0a1.71 1.71 0 0 0-.84 2.04l.14-.36-.02-.13c0-.4.15-.79.43-1.08l.13-.1c.05-.13.1-.25.16-.36zm15.94.2a1.7 1.7 0 0 1-.22.31l.07.12.17-.39-.02-.04zm2.11.46-.2.37h.06a.23.23 0 0 0 .19-.28.23.23 0 0 0-.05-.09zm-2.35.18-.36.35v.02a2.89 2.89 0 0 0 .46.47l.01.01.1-.08a1.97 1.97 0 0 1-.4-.28l.2-.49zm-12 .03.11.18.03-.01a.08.08 0 0 0-.03-.16h-.1zm.94.1-.74.2c.14.22.3.42.45.62l.17-.04c.01-.26.05-.52.12-.77zm9.52 1a1.9 1.9 0 0 1-1.63.27c-.11-.03-.22-.13-.3-.24a3.42 3.42 0 0 1-3.63 1.43l.3-1.12c-.1.1-.2.17-.32.25l-.22.8a3.4 3.4 0 0 1-.81-.38c-.15.02-.3.03-.47 0-.72-.65-.05 1.46-.63.5-.06-.25-.2-.28-.34-.22.11.12.23.23.36.34l-.62.87.59.41.61-.87c.25.15.51.28.8.38l-.3 1.02.7.2.28-1.04c.29.06.58.09.87.09l.08 1.06.72-.06-.09-1.06c.29-.05.57-.12.84-.22l.45.96.65-.3-.45-.96c.25-.14.5-.3.72-.5l.75.76.5-.5-.74-.76c.19-.22.35-.46.5-.71l.96.45.3-.64-.43-.2zm1.45.08a.26.26 0 0 0-.19.12.42.42 0 0 0-.07.2l-.06.62a2 2 0 0 0-.64.34l-.56-.3a.46.46 0 0 0-.2-.04.26.26 0 0 0-.2.1c-.06.06-.07.14-.05.21.01.08.05.15.08.2l.4.47a2 2 0 0 0-.21.7l-.6.19a.46.46 0 0 0-.18.11.26.26 0 0 0-.08.2c.01.09.07.15.13.2.06.04.13.06.19.07l.61.06a2 2 0 0 0 .35.65l-.29.55a.45.45 0 0 0-.04.2c0 .08.02.15.09.2.06.06.14.07.22.05a.43.43 0 0 0 .19-.08l.47-.4a2 2 0 0 0 .71.22l.19.6.1.17c.06.05.13.09.21.08.09-.01.15-.07.2-.13a.43.43 0 0 0 .06-.19l.06-.61a2 2 0 0 0 .66-.35l.55.28c.05.03.13.05.2.05s.15-.03.2-.09a.26.26 0 0 0 .05-.22.42.42 0 0 0-.09-.19l-.4-.48a2 2 0 0 0 .22-.7l.6-.19a.45.45 0 0 0 .17-.1.26.26 0 0 0 .08-.22.27.27 0 0 0-.12-.18.43.43 0 0 0-.2-.08l-.62-.05a1.98 1.98 0 0 0-.34-.65l.29-.56a.46.46 0 0 0 .05-.2.26.26 0 0 0-.1-.2.27.27 0 0 0-.22-.05.42.42 0 0 0-.18.09l-.49.4a1.99 1.99 0 0 0-.7-.21l-.18-.6a.45.45 0 0 0-.11-.18.26.26 0 0 0-.21-.08zm-13.54.29a1.5 1.5 0 0 1-1.13.69l-.1.22c.44-.01.87-.2 1.19-.52.05-.05.1-.11.14-.18a9.56 9.56 0 0 1-.1-.21zm.35.66c-.4.44-.97.72-1.6.72h-.2l-.1.2h.03l.2.7c0 .03.04.05.08.05.03 0 .07-.02.08-.06l.18-.7c.1 0 .2-.02.29-.05l.42.58c.03.03.07.04.1.03a.08.08 0 0 0 .05-.08l-.06-.72.25-.15.6.4c.03.02.07.01.1 0a.08.08 0 0 0 .02-.1l-.2-.43a6.95 6.95 0 0 1-.24-.39zm3 .17c-.21 0-.5.22-.44.41l.55-.37a.2.2 0 0 0-.11-.04zM19 43.1c.14 0 .28.03.42.07l-.4 1.17L19 43.1zm-.13 0 .02 1.23-.44-1.15c.14-.04.28-.07.42-.08zm.67.1c.13.06.26.13.37.22l-.78.96.4-1.17zm-1.2.03.43 1.15-.8-.93c.1-.1.23-.17.36-.22zm1.67.27c.11.1.2.2.28.32l-1.06.64.78-.96zm-2.14.03.8.93-1.07-.6a1.6 1.6 0 0 1 .27-.33zm-9.6.28h-.11l-.32.1c-.22.09-.44.16-.66.2a.53.53 0 0 1 .09.96.53.53 0 1 1-.5-.93c-.08 0-.17 0-.26-.02l-.26-.27c-.07.07-.13.15-.17.23l-.34-.03c-.03 0-.07 0-.11.02a.15.15 0 0 0-.09.09c-.01.04 0 .09.03.13.02.03.05.06.08.07l.3.16c-.02.13 0 .25.03.38l-.26.21a.25.25 0 0 0-.07.1.15.15 0 0 0 0 .12c.03.04.07.07.11.08h.12l.31-.1c.09.1.19.18.3.24l-.04.33.03.12c.01.03.04.07.09.08.04.02.09 0 .12-.02a.24.24 0 0 0 .08-.08l.16-.3c.12.02.26 0 .38-.03l.2.25h.01c.02.03.06.06.1.07.04.02.08.02.12 0h.01v-.02a.16.16 0 0 0 .06-.09v-.11l-.1-.31c.11-.09.2-.2.25-.3l.33.03c.04 0 .08 0 .12-.02a.15.15 0 0 0 .08-.1c.02-.04 0-.08-.02-.12a.24.24 0 0 0-.08-.08l-.3-.15c.02-.13 0-.26-.03-.39l.25-.2a.26.26 0 0 0 .07-.1.15.15 0 0 0 0-.13.15.15 0 0 0-.1-.07zm12.09.12c.07.13.12.26.15.4l-1.22.23 1.07-.63zm-2.82.04 1.08.6-1.22-.2c.02-.13.07-.27.14-.4zm3 .48c.01.15.02.3 0 .43l-1.22-.2 1.21-.23zm-1.71.02zm-1.46.03 1.23.2-1.22.23a1.6 1.6 0 0 1 0-.43zm1.56.07H19l.04.01.03.03.03.04v.08l-.02.04-.04.03-.04.02h-.04l-.05-.02-.03-.02-.02-.04-.01-.05v-.04l.03-.04.03-.03.04-.01zm.37.24 1.22.2c-.03.14-.08.27-.14.4l-1.08-.6zm-.68.01-1.06.63a1.6 1.6 0 0 1-.15-.4l1.2-.23zm.62.1 1.08.6a1.63 1.63 0 0 1-.27.33l-.81-.93zm-.55 0-.79.97c-.1-.1-.2-.21-.28-.33l1.07-.63zm.45.08.81.94c-.11.09-.24.16-.37.22L19.15 45zm-.36 0-.4 1.17a1.59 1.59 0 0 1-.38-.2l.78-.96zm.25.04.43 1.16c-.13.05-.27.08-.42.08l-.01-1.24zm-.13 0 .02 1.24a1.6 1.6 0 0 1-.43-.06l.41-1.17z" color="#000" opacity=".12" style="-inkscape-stroke:none" transform="translate(0 -21.83)"/><path fill="#fab71c" d="M13.36 26.3c-.11.15-.24.36-.4.65a17.59 17.59 0 0 0-1 2.18l-.51 1.34a19 19 0 0 1-.86-.13 8.62 8.62 0 0 0 .44-.98c.22-.56.34-1.03.34-1.41.01-.39-.05-.68-.19-.88a.72.72 0 0 0-.55-.36c-.23-.03-.48.03-.74.17a2.6 2.6 0 0 0-.78.67c-.25.3-.46.7-.62 1.17a2 2 0 0 0-.13.76c.01.2.07.35.16.46.1.1.22.16.37.17.15 0 .3-.03.45-.12.15-.1.3-.24.43-.43.14-.2.25-.44.32-.74a.26.26 0 0 0-.16-.09.56.56 0 0 0-.17 0 .24.24 0 0 0-.1.02c-.01.01 0 .02.05.01-.1.32-.21.57-.33.75-.1.2-.2.3-.26.33-.06.02-.09-.05-.08-.2a5.6 5.6 0 0 1 .65-1.79c.15-.26.3-.44.43-.55.14-.12.26-.16.36-.12.1.03.16.14.2.32.03.18.02.43-.04.75a6.3 6.3 0 0 1-.52 1.62l-.18.4a4.8 4.8 0 0 0-.72 0 2.3 2.3 0 0 0-.68.16 1.93 1.93 0 0 0-1.05.98 1.2 1.2 0 0 0-.15.63c.02.18.09.33.2.43.11.1.27.17.46.18.2 0 .42-.05.66-.16.24-.12.5-.3.77-.55.27-.25.54-.59.81-1a27.87 27.87 0 0 0 1 .12l-.15.42-.14.4c.03.03.1.06.2.08.1.02.22.03.36.02a116.4 116.4 0 0 0 .42-.96h.22c.09-.01.16-.06.22-.15a.5.5 0 0 1-.15.04.79.79 0 0 0 .2-.13.5.5 0 0 0 .15-.24 5.39 5.39 0 0 1-.25.12.4.4 0 0 0 .18-.2c-.09.03-.2.05-.36.06.43-1.01.8-1.84 1.1-2.48.3-.64.55-1.09.73-1.35 0-.05-.03-.1-.08-.14a.6.6 0 0 0-.18-.12 1.14 1.14 0 0 0-.35-.12zm.04.13a8.32 8.32 0 0 0-.54 1.04 51.32 51.32 0 0 0-1.29 2.98 18.9 18.9 0 0 1 .7-1.8 31.37 31.37 0 0 1 1-2.04c.06-.12.1-.18.13-.18zm5.24.17a.75.75 0 0 0-.3.07c-.15.07-.3.2-.47.38a7.25 7.25 0 0 0-.82 1.23 9.47 9.47 0 0 1-.65.19c.29-.14.53-.3.72-.47.2-.2.35-.4.42-.62.06-.16.07-.3.03-.4a.28.28 0 0 0-.22-.18c-.1-.03-.23 0-.38.06-.15.07-.3.2-.47.38a7.25 7.25 0 0 0-.82 1.23 9.44 9.44 0 0 1-1.05.3c0 .04 0 .06.03.09l.05.07h.05a5.2 5.2 0 0 0 .74-.14 16.65 16.65 0 0 0-.27.56 5.8 5.8 0 0 0-.19.55 2.75 2.75 0 0 1-1.22.94.65.65 0 0 1-.35.03c-.09-.03-.14-.08-.17-.16.04.02.08.03.14.03.06-.01.14-.04.22-.1a.45.45 0 0 1-.17.1c-.06.02-.11.02-.15.01.01.02.05.04.1.06a.3.3 0 0 0 .2-.03 2.1 2.1 0 0 0 .87-.75.9.9 0 0 0 .15-.46.41.41 0 0 0-.2-.37.54.54 0 0 0-.34-.08c-.14 0-.28.04-.43.1a1.7 1.7 0 0 0-.82.75c-.13.24-.2.44-.18.61.02.18.08.31.2.41.11.1.26.16.45.18.2.01.4-.02.63-.1a2.66 2.66 0 0 0 .97-.69v.09c-.01.15.02.26.08.35.06.09.18.12.34.1a.92.92 0 0 0 .4-.2c.15-.1.29-.22.42-.36l.13-.13v.05c-.01.15.02.26.08.35.06.09.18.12.34.1a.92.92 0 0 0 .4-.2 3.33 3.33 0 0 0 .56-.5c0 .1.03.17.07.24.05.1.14.19.25.24.11.04.23.06.36.04a.96.96 0 0 0 .4-.14c.14-.1.27-.22.37-.37.1-.02.21-.05.32-.1a1.94 1.94 0 0 0 .67-.7c.03-.05.04-.1.04-.13s-.02-.05-.05-.05c-.03-.01-.06 0-.1.02a.36.36 0 0 0-.12.12 1.04 1.04 0 0 1-.4.42.79.79 0 0 1-.17.08c.1-.24.15-.44.14-.61a.7.7 0 0 0-.12-.41.47.47 0 0 0-.3-.19.75.75 0 0 0-.4.04c-.15.05-.29.14-.43.26a1.9 1.9 0 0 0-.5.85l-.08.1a4.75 4.75 0 0 1-.57.55.56.56 0 0 1-.23.12c-.05 0-.07-.02-.07-.1a3.54 3.54 0 0 1 .32-.92 18.96 18.96 0 0 1 .57-1.06c.34-.15.62-.33.83-.52.2-.2.35-.4.42-.62.06-.16.07-.3.03-.4a.28.28 0 0 0-.22-.19h-.08zm-4.96.15a12.1 12.1 0 0 0-.51 1.04 80.5 80.5 0 0 0-.56 1.2 24.95 24.95 0 0 1 .93-2.08c.07-.1.11-.16.14-.16zm-.36.03a4.15 4.15 0 0 1-.26.55c.01.02 0 .05-.01.1a.43.43 0 0 0-.05.09l.05.04-.03.02a.15.15 0 0 0-.04.03l.03.08-.01.02-.03.03a.1.1 0 0 1-.05 0l-.06.01-.01.01v.05l.07.07a.23.23 0 0 0-.03.03l-.02.03v.03c-.01.02-.03.02-.06.02h-.08l.01.03-.01.08c0 .02 0 .04-.03.06a.48.48 0 0 1-.06.04l.02.04.01.03v.02l-.02.05s-.02 0-.03.02l-.03.01-.04.02-.4.89c-.13.29-.24.55-.32.77A17.63 17.63 0 0 1 13 27.31a5.35 5.35 0 0 1 .32-.53zm5.27.1h.04c-.03 0-.07.04-.14.12a4.98 4.98 0 0 0-.32.41l.14-.23v-.04h.02v-.02h.03v-.03h-.02v-.02l.01-.01v-.04h.02v.02h.03V27h.02l.01-.02c.01-.01.02-.02.04-.01.04-.06.09-.09.12-.1zm-8.38.03a1.23 1.23 0 0 0-.4.27 1.1 1.1 0 0 0-.2.25 1.66 1.66 0 0 1 .33-.33 2.41 2.41 0 0 0-.34.42 4.38 4.38 0 0 0-.41.8 3.29 3.29 0 0 1 .14-.47 34.35 34.35 0 0 0-.24.54l-.11.32a2.92 2.92 0 0 1 .58-1.34c.13-.15.25-.26.36-.33a.93.93 0 0 1 .29-.13zm8.39.01-.05.2-.1.22a1.79 1.79 0 0 1-.49.5 13.31 13.31 0 0 1 .64-.92zm-8.26.13c.07 0 .12.02.17.05a.43.43 0 0 0-.34.07c-.1.06-.21.16-.31.3a5.45 5.45 0 0 0-.73 1.48l-.13.39a7.2 7.2 0 0 1 .52-1.52h.04l.02-.01.03-.02-.01-.04v-.05l.02-.05c0-.02.01-.03.02-.03l.03-.04h.04l.07-.05v-.04l.03-.02.01-.05v-.02l.07-.01c-.01-.03 0-.07.04-.11.13-.13.24-.2.34-.22h.07zm6.88.01h.04a4.97 4.97 0 0 0-.46.54l.14-.23v-.04h.02v-.02H17v-.03h-.02v-.02l.01-.01v-.04l.02.01.02.01h.01v-.03l.02-.02.01-.01c.01-.01.02-.02.04-.01.04-.06.09-.09.12-.1zm0 .05c0 .06-.02.12-.04.2l-.1.22a1.79 1.79 0 0 1-.49.5 13.32 13.32 0 0 1 .64-.92zm1.62.11c-.07.14-.16.26-.27.36a2.82 2.82 0 0 1-.6.5 38.3 38.3 0 0 0 0-.02l.22-.16v-.02h.03v-.02h.02l.02-.02c0-.01.01-.03.03-.03l.01-.02.03-.01.02-.01a.07.07 0 0 1 .04-.03l.02-.02c0-.02.02-.02.03-.03l.01-.02.03-.01c.14-.13.26-.28.36-.44zm-1.37.2a2.82 2.82 0 0 1-.87.86l-.22.12a11.93 11.93 0 0 1 .44-.3v-.02l.02-.02v.01h.01v-.02h.02l.01-.02c.01-.01.02-.03.04-.03l.01-.02.03-.01.02-.01a.06.06 0 0 1 .04-.03l.02-.02c0-.02.02-.02.03-.03l.01-.02h.03c.14-.14.26-.29.36-.45zm1.29 0c-.07.12-.16.23-.26.33a2.94 2.94 0 0 1-.81.53c.27-.15.5-.3.66-.44.17-.14.3-.28.41-.41zm-1.37.2c-.07.11-.16.22-.26.32a2.95 2.95 0 0 1-.81.53c.27-.15.49-.3.66-.44.17-.14.3-.28.41-.41zm-.52.98a16.6 16.6 0 0 0-.27.56c-.08.2-.14.4-.2.6v.02a4 4 0 0 1-.93.82c-.05 0-.07-.02-.07-.1a3.53 3.53 0 0 1 .32-.92l.3-.57.15-.28a5.18 5.18 0 0 0 .7-.13zm2.16.37a.74.74 0 0 0-.15.18.47.47 0 0 0-.06.17h.02l.01-.01v-.02h.02a.3.3 0 0 1 .09-.17.27.27 0 0 0-.06.09l-.05.15a.88.88 0 0 0-.02.17c0 .06 0 .11.03.16a.3.3 0 0 1-.04-.09l-.01-.13-.01-.03v-.05l-.02.1v.08-.04l-.01-.04v-.06a.3.3 0 0 0-.02.1l.01.1a.5.5 0 0 1-.01-.22.78.78 0 0 1 .06-.2.93.93 0 0 1 .1-.15.34.34 0 0 1 .12-.09zm.06.14a.57.57 0 0 0-.08.13.68.68 0 0 0-.06.18v.19c.03.06.07.1.14.12a.21.21 0 0 1-.14-.1.34.34 0 0 1-.04-.15v-.05l.03-.03v-.02l.01-.03v-.02c0-.01 0-.02.02-.02v-.04c0-.01 0-.02.02-.02v-.02l.02-.01-.01-.01a.37.37 0 0 1 .1-.1zm.01.02c0 .05 0 .11-.03.2l-.1.27c-.02-.05-.02-.12 0-.22.03-.1.08-.18.13-.25zm-.5.05a.88.88 0 0 0-.06.5c.03.15.1.25.22.31a.5.5 0 0 1-.08.1l-.08.06.07-.04a.41.41 0 0 0 .08-.07.28.28 0 0 1-.05.08l-.09.07a.35.35 0 0 0 .16-.15s0 .03-.03.07a.96.96 0 0 1-.22.16.42.42 0 0 1-.15.03l.12-.03a.3.3 0 0 0 .11-.07.5.5 0 0 1-.16.08c-.06.02-.1.02-.13 0l.11-.01c.05-.02.09-.04.1-.06a.32.32 0 0 1-.19.05.15.15 0 0 1-.12-.08.37.37 0 0 1-.02-.22c.02-.1.06-.22.14-.36a2.7 2.7 0 0 1 .26-.42zm-4.32.29c.05.03.07.08.04.15a.9.9 0 0 1-.13.24.89.89 0 0 0 .13-.3c0-.03 0-.05-.02-.06a.27.27 0 0 0-.02-.03zm-.05 0c.02 0 .04 0 .05.02.02.02.02.07 0 .14a.76.76 0 0 1-.13.25c-.06.1-.15.19-.27.29-.12.1-.26.19-.42.27.02.02.06.01.13-.02l.2-.13a.7.7 0 0 1-.12.1 4.8 4.8 0 0 0-.26.11c-.03.01-.06.01-.07 0 0 .03.02.04.06.05.04.01.1 0 .2-.06a.5.5 0 0 1-.12.08.56.56 0 0 1-.19.07c-.01-.11.03-.24.12-.4a2.58 2.58 0 0 1 .54-.65c.08-.06.14-.1.2-.11a.2.2 0 0 1 .08-.01zm.4.13c0 .1-.03.22-.12.38-.1.16-.24.33-.45.51l.12-.13a2.08 2.08 0 0 0 .36-.5.6.6 0 0 0 .08-.26zm-.11.13c0 .05-.03.1-.07.17a2.37 2.37 0 0 1-.22.28l.08-.1.01-.02v-.02h.02V30h.02V30l.03-.02v-.03l.01-.01h.02v-.02l.01-.02v-.02l.02-.01.02-.02a1.52 1.52 0 0 1 .05-.11zm.02.08-.05.13a2.27 2.27 0 0 1-.25.31.8.8 0 0 0 .1-.13v-.02l.02-.01.01-.01v-.01l.02-.01v-.01l.02-.01V30l.01.01c.01-.02.02-.02.03-.02v-.03h.01v-.01l.01-.02.07-.12zm2.17.06c-.07.15-.12.28-.13.4l.02-.01v-.01a.8.8 0 0 1 .1-.28.99.99 0 0 0-.07.3v.17c.01.05.04.1.08.12a.16.16 0 0 1-.06-.03l-.03-.03h-.01l-.01-.01c0 .04.03.07.07.1.04.02.1.03.16.02-.11.03-.19.02-.23-.03a.3.3 0 0 1-.07-.2.86.86 0 0 1 .18-.51zm.06.1a1.68 1.68 0 0 0-.07.32c0 .06 0 .1.02.14.02.04.05.05.1.04-.03.02-.06.02-.08 0l-.02.01h-.01v-.02h-.02l.01-.02h-.01l-.01-.03.01-.01v-.02l-.01-.02V30.27h-.01l.02-.01v-.04a1.9 1.9 0 0 1 .08-.25zm.02.06a1.2 1.2 0 0 0-.04.26v.12c.02.03.05.04.09.04a.07.07 0 0 1-.06 0c-.02 0-.04-.02-.05-.05a.4.4 0 0 1 0-.14c0-.06.02-.14.06-.23zm2.14 0c-.01.09-.07.17-.18.27-.1.1-.25.14-.45.14l.11-.01c.04 0 .07-.02.1-.03v-.01l.01-.01h.02l.01-.01h.04v-.02h.01l.02-.01h.03l.02-.02h.02l.03-.01.02-.01v-.05l.03.02v-.02l.01-.02h.03c.06-.06.1-.12.12-.2zm-3.6.03c-.06.15-.1.28-.12.4l.02-.01a.79.79 0 0 1 .1-.3.98.98 0 0 0-.08.3v.18c.02.05.05.1.09.12a.16.16 0 0 1-.06-.02l-.03-.04h-.01l-.01-.01c0 .04.03.07.07.1.04.02.1.03.16.02-.11.03-.19.02-.23-.03a.3.3 0 0 1-.07-.2.86.86 0 0 1 .18-.51zm.07.1a1.68 1.68 0 0 0-.07.32c0 .06 0 .1.02.15.02.03.05.04.1.04h-.11v-.02h-.01v-.02h-.01l-.01-.03.01-.01v-.02l-.01-.02V30.46h-.01l.02-.01v-.04a1.9 1.9 0 0 1 .08-.25zm3.5.03a.48.48 0 0 1-.18.18.51.51 0 0 1-.23.08.97.97 0 0 0 .22-.08c.07-.05.14-.1.19-.18zm-3.48.03a1.15 1.15 0 0 0-.04.26v.12c.02.03.05.04.09.04a.07.07 0 0 1-.06 0c-.02 0-.04-.02-.05-.05a.4.4 0 0 1 0-.14c0-.06.02-.14.06-.23zm-2.1.33v.01l.01.02c.02 0 .02-.01.03-.02l-.02-.01h-.02zm1.1.02a1.44 1.44 0 0 1-.64.36c-.11.03-.2.03-.3.02a.23.23 0 0 1-.18-.14c.02.03.06.06.11.08a.5.5 0 0 0 .22.04 1.94 1.94 0 0 0 .78-.36zm-5.57.05.13.01c-.07 0-.16.02-.28.05a1.62 1.62 0 0 0-1.13.98 1.5 1.5 0 0 1 .92-.98c.12-.04.23-.06.36-.06zm.11.16a1.55 1.55 0 0 0-.95.44 1.4 1.4 0 0 0-.31.48 1.24 1.24 0 0 1 .3-.51v-.04l.02-.02.02-.01h.02v-.07l.01-.01c0-.02.01-.02.02-.01h.02l.02.02.04-.02h.05l.01-.03a.07.07 0 0 1 .04-.02l.02-.03v-.02l.03.02v-.02h.03l.02-.02.03-.02a1.56 1.56 0 0 1 .56-.11zm.16.06a4 4 0 0 1 .51.02c-.2.36-.4.64-.6.86-.2.21-.39.37-.56.47a.92.92 0 0 1-.44.16c-.12 0-.21-.03-.28-.1-.06-.08-.08-.18-.06-.32.02-.14.09-.3.2-.48.1-.15.21-.26.34-.34.13-.1.27-.15.42-.2.15-.04.3-.06.47-.07zm7.38 1.97h-.11l-.16.01-.18.03a2.3 2.3 0 0 0-.4.1l-.21.07-.21.09-.2.1-.17.1a3.02 3.02 0 0 0-.43.3l-.02.01v.03c0 .02.01.02.03.01l.08-.05.1-.05.14-.07.16-.08.18-.08.19-.09.2-.08.2-.08a2.72 2.72 0 0 1 .39-.11l.17-.04.15-.03.11-.01.1-.02c.02 0 .03-.01.03-.03a.03.03 0 0 0-.03-.03h-.1zm6.84.08-.5.83a77.56 77.56 0 0 0-3.12 6.13 3.66 3.66 0 0 0 .59-.02 38.66 38.66 0 0 1 .57-.03l.67-1.22.73-1.34a136.34 136.34 0 0 1 1.33-2.4 35.5 35.5 0 0 0 .68-1.25c0-.07-.04-.15-.12-.23a1.75 1.75 0 0 0-.83-.47zm-13.66.5H9.4l-.28.01-.28.02c-.18 0-.36.02-.53.03l-.47.05-.4.04-.3.05-.26.04a.03.03 0 0 0-.03.03c0 .02.02.03.03.03l.27-.03.3-.03.4-.03.47-.02.53-.03h.27l.29-.01h.58l.57.02c.2 0 .38.02.56.03l.52.06.47.08.38.08c.12.02.22.06.3.08l.25.08.03-.01-.01-.03-.25-.1-.3-.1-.38-.1-.47-.1-.52-.06-.57-.05-.58-.02h-.3zm8.3 0h-.29c-.2 0-.39.02-.58.03l-.56.05-.53.07-.46.09-.4.1-.28.1-.26.1a.02.02 0 0 0-.01.03s.02.02.03.01l.26-.08c.08-.02.17-.06.29-.08l.39-.08.46-.08.52-.06.56-.03.58-.02h.86l.28.01c.18 0 .35.02.52.03l.47.02.4.03.3.03.27.03a.03.03 0 0 0 0-.06l-.26-.04-.3-.05-.4-.04-.47-.05c-.17-.01-.34-.03-.53-.03l-.28-.02H17.98zm-5.03.1-.02.01c-.02 0-.03.03-.03.05.02.04.04.06.08.08.06.03.1.09.12.15.02.03.06 0 .05-.02-.02-.09-.09-.28-.2-.26zm.51.26c-.02 0-.04 0-.07.02-.16.12.08.68.3.68.23 0 .62-.45.4-.64-.1-.1-.26.03-.35.3l.01-.05s-.13-.32-.29-.31zm9.73.16a31.3 31.3 0 0 1-.8 1.7 46.03 46.03 0 0 1-1.22 2.32 159.36 159.36 0 0 1-.73 1.33c.03-.11.12-.32.25-.63a82.28 82.28 0 0 1 1.73-3.48l.5-.9c.14-.22.23-.34.27-.34zm-11.21.1h-.11l-.2.02c-.08 0-.14 0-.2.02a1.93 1.93 0 0 0-.32.06l-.1.03-.1.03a.05.05 0 0 0-.04.05c0 .03.03.04.06.04l.1-.02.1-.02.15-.02a1.9 1.9 0 0 1 .35-.03h.2l.1-.01h.11l.2.01.21.02.19.02a8.11 8.11 0 0 1 .42.06c.06 0 .1.02.1.02s.02 0 .02-.02l-.01-.03-.1-.04-.24-.07a2.9 2.9 0 0 0-.17-.04l-.2-.03-.2-.03-.21-.01zm2.46.1-.03.01a.27.27 0 0 0-.06.05l-.05.07c-.01.03.01.05.04.04l.06-.02.06-.02c.08-.02.05-.13-.02-.13zm-.28.22c-.07 0-.07.1 0 .1s.07-.1 0-.1zm-6.75.17a7.14 7.14 0 0 0-2.64.49c-.4.16-.77.37-1.1.62-.32.25-.57.54-.75.88a2.7 2.7 0 0 0-.13.7c0 .2.02.35.07.45 0-.03.03-.09.07-.17a5.08 5.08 0 0 1 .38-.52.51.51 0 0 1 .18-.16 2.8 2.8 0 0 0-.38.88c0 .1 0 .18.02.24.1-.26.23-.5.42-.73a4.04 4.04 0 0 1 1.39-1.12c.28-.14.55-.25.83-.33a16.32 16.32 0 0 0-1.41 2.55 46.37 46.37 0 0 0-2.2 5.22c.05.08.14.15.28.23.13.09.31.1.54.07l.88-1.91c.31-.68.65-1.33 1-1.96a10.3 10.3 0 0 0 1.31 2.98c.2.29.4.52.59.7.11.02.23.01.37-.02a2.92 2.92 0 0 0 1.16-.53 2.36 2.36 0 0 1-.63-.43 6.17 6.17 0 0 1-.74-.8 10.82 10.82 0 0 1-1.44-2.5c.38 0 .77-.03 1.16-.1a7.5 7.5 0 0 0 2.22-.81c.33-.2.63-.4.88-.61.26-.22.47-.46.63-.7.16-.25.25-.5.28-.74.02-.3-.05-.57-.21-.8-.17-.23-.4-.43-.7-.59-.3-.16-.65-.28-1.06-.36-.4-.08-.83-.12-1.27-.12Zm-.01.1c.36.01.7.06 1.05.14a8.17 8.17 0 0 0-3.13.24 5.26 5.26 0 0 0-1.57.76c.18-.19.43-.37.77-.54a6.36 6.36 0 0 1 2.88-.6zm15.92.02a30.34 30.34 0 0 1-.74 1.56 37.8 37.8 0 0 1-1.1 2.1 47.4 47.4 0 0 1-.68 1.22c.04-.1.11-.29.24-.55a42.77 42.77 0 0 1 1-1.98l.56-1.06a101.7 101.7 0 0 1 .72-1.3zm-.28.2a7.18 7.18 0 0 1-.52 1.1l-.41.77a138.5 138.5 0 0 0-.71 1.34l-.17.28.17-.39a123 123 0 0 1 .72-1.42 68.63 68.63 0 0 0 .72-1.36l.2-.33zm-3.57.1c-.08 0-.17 0-.27.02a.33.33 0 0 0-.18.12l-.17.23.07-.16.09-.17h-.07a5.23 5.23 0 0 1-.5.75c.03-.02.05-.07.1-.14l.1-.21a13.97 13.97 0 0 0 .22-.36c-.1.03-.2.06-.3.11-.1.05-.17.11-.22.18l-.11.16a9.2 9.2 0 0 1-.28.43l-.22.34-.78.1-.55.05c-.17.02-.3 0-.39-.04-.09-.04-.11-.13-.07-.27a.22.22 0 0 0-.07.17c0 .07.04.12.09.15a.14.14 0 0 1-.12-.09.21.21 0 0 1-.01-.13.4.4 0 0 0-.16.26.57.57 0 0 0 .04.35c.06.11.16.2.3.28a1 1 0 0 0 .59.07l.6-.06-.7 1.14a10.77 10.77 0 0 0-.86 1.88 5.78 5.78 0 0 1-.74.75c.01-.23-.04-.52-.16-.85-.1-.34-.33-.72-.67-1.12.16-.07.3-.15.4-.24a.7.7 0 0 0 .2-.25c.06-.09.04-.18-.06-.28-.1-.1-.2-.14-.31-.11a.8.8 0 0 0-.34.2c-.11.11-.22.25-.34.42a28.86 28.86 0 0 0-1.1 1.64l-.03.04a5.06 5.06 0 0 1-.78.83c-.17.16-.34.3-.5.42-.17.12-.3.19-.4.2-.06.01-.09-.03-.07-.13.02-.1.06-.23.13-.4a8.85 8.85 0 0 1 .56-1.05 22.63 22.63 0 0 1 .44-.67c.03-.03 0-.07-.1-.1a2.2 2.2 0 0 0-.92-.17c-.04 0-.08.05-.12.13l-.16.29-.15.36a3.1 3.1 0 0 1-1 1.84c-.1.12-.2.17-.27.15-.06-.01-.1-.07-.1-.16 0-.1.01-.22.05-.37a4.71 4.71 0 0 1 .46-1.07 8.78 8.78 0 0 1 .68-1.1c0-.02-.03-.04-.08-.07a.66.66 0 0 0-.21-.08c-.02 0-.05.02-.07.06a.87.87 0 0 0-.16.19l-.04.05v-.02a1.2 1.2 0 0 1 .1-.2.52.52 0 0 0 .03-.07 1.8 1.8 0 0 0-.47-.03c-.15 0-.26.07-.32.19-.33.49-.57.93-.7 1.3a3 3 0 0 0-.2.97 1 1 0 0 0 .14.6c.1.15.22.24.36.27.18.05.38.03.6-.06.23-.09.46-.3.69-.65l.03.19a.7.7 0 0 0 .08.2c.05.05.1.1.17.14.07.03.15.04.26.03l-.14-.02a.4.4 0 0 1-.14-.09c.12.07.27.1.46.08.2-.03.43-.12.67-.29a5.95 5.95 0 0 0 1.3-1.23c.16-.2.27-.35.32-.44l.02-.03c.05-.07.1-.12.16-.22.15-.19.27-.36.37-.52.3.54.45.96.43 1.25-.03.3-.15.46-.37.48a.3.3 0 0 1-.22-.05.44.44 0 0 1-.13-.2.57.57 0 0 1-.02-.25.43.43 0 0 1 .14-.22.34.34 0 0 0-.09.06.42.42 0 0 0-.08.12.76.76 0 0 0-.03.18c0 .06.02.13.06.21a.6.6 0 0 1-.1-.31.4.4 0 0 1 .18-.34c-.1 0-.24.05-.4.19a.87.87 0 0 0-.28.54c0 .18.06.33.17.47.1.12.25.21.44.26.19.05.41.05.67 0 .26-.06.53-.19.82-.4a4.2 4.2 0 0 0 .82-.69l.01.2c.01.2.09.35.21.46.13.1.33.14.6.1.21-.02.44-.11.68-.28a6.27 6.27 0 0 0 1.63-1.67c.05-.08.07-.15.06-.2 0-.05-.03-.09-.08-.1-.04 0-.1 0-.17.05a.6.6 0 0 0-.2.2l-.34.4a6.12 6.12 0 0 1-.98.9.94.94 0 0 1-.4.19c-.08 0-.12-.04-.13-.14a6.12 6.12 0 0 1 .85-1.99 33.34 33.34 0 0 1 .93-1.44l.43-.62 1.48-.17c.06 0 .13-.06.22-.14.1-.1.19-.2.26-.3.07-.1.12-.2.14-.28.03-.08 0-.12-.07-.11l-.52.05-.9.11a5.87 5.87 0 0 0 .36-.5 37.17 37.17 0 0 0 .32-.47c.02-.05-.03-.1-.18-.13a.91.91 0 0 0-.22-.03zm-11.84.57c.25 0 .48.04.69.08.21.05.4.1.54.18.15.08.26.17.33.28.08.1.12.2.1.33-.02.26-.14.52-.33.79-.2.26-.46.5-.8.7a4.67 4.67 0 0 1-2.55.7 43.82 43.82 0 0 1 1.18-1.8 24.61 24.61 0 0 1 .84-1.26zm-1.58.15-.6 1.2-.73 1.48a.18.18 0 0 0-.06.06l-.02.03v.1l-.08.05-.06.11c0 .04-.02.09-.04.13a.87.87 0 0 0-.04.16.33.33 0 0 0-.08.18l.01.13-.03.06a.38.38 0 0 0-.03.06.4.4 0 0 1-.08.1.1.1 0 0 1 .01.08c0 .03-.02.06-.06.07a.76.76 0 0 1-.08.17.7.7 0 0 1-.16.18l-.03.1-.04.1-.05.1-.13.05v.1c0 .06-.02.12-.04.19a1.03 1.03 0 0 1-.14.31.9.9 0 0 0-.06.2c-.01.05-.04.1-.09.13l-.46 1.03-.44 1.03c.59-1.58 1.17-3.01 1.75-4.3.57-1.3 1.19-2.42 1.86-3.39zm4.02.56c.02.15-.01.33-.09.54-.07.2-.19.41-.35.63a4.11 4.11 0 0 1-1.42 1.18 4.47 4.47 0 0 1-2.3.4 6.72 6.72 0 0 0 1.8-.3c.2-.07.33-.15.4-.23a4.6 4.6 0 0 1-.41.17.74.74 0 0 1-.37.04 5.3 5.3 0 0 0 .74-.28 4.53 4.53 0 0 0 .9-.67.73.73 0 0 1-.25.35c-.14.12-.27.21-.4.29a3.64 3.64 0 0 0 1.5-1.36c.13-.24.22-.5.25-.76zm5.75.3.06.1c.03.04.1.08.2.1.1.03.23.04.42.04a6.16 6.16 0 0 0-.34.01c-.23-.03-.34-.12-.34-.26zm-6.42.21c-.01.07-.04.17-.1.3-.05.13-.14.26-.25.4a3.1 3.1 0 0 1-1.11.87c-.26.12-.57.23-.93.3a6.06 6.06 0 0 1-.8.1c.2-.02.4-.06.65-.12l.02-.03.02-.01.03.03.03.03h.05l.06-.03.01-.04.04.02.06-.01v-.04l.03.03.04-.01.03-.03.04-.04.06.02h.05c0-.01.04-.03.12-.05l.06-.05a.08.08 0 0 1 .06-.03c0-.04.02-.06.05-.05.33-.14.65-.34.95-.58.3-.25.55-.58.73-.98zm8.76.34a8.41 8.41 0 0 0-.64.88 29.7 29.7 0 0 0-.44.74h.02l.04.02c.1-.2.2-.35.3-.48.08-.13.16-.2.2-.23a7.37 7.37 0 0 0-.61.98c-.14.26-.29.55-.44.87-.15.31-.27.64-.36.97.02-.19.09-.41.19-.69.1-.27.23-.55.37-.82a.24.24 0 0 1-.05-.05l-.12.21-.25.48a5.97 5.97 0 0 1 .67-1.4.14.14 0 0 1-.01-.09c0-.04.02-.06.04-.07.02-.02.05-.03.06-.02h.06l-.03-.1.02-.01h.03l.02-.02h.06l-.01-.03v-.1l.09-.01-.01-.01v-.04c-.02 0-.02-.01-.02-.03l.03.02c.03.02.04.02.04 0v-.04l.05-.03v-.07l-.02-.05.04-.03.02-.01.03-.03a5.78 5.78 0 0 1 .63-.71zm.2.02a29.2 29.2 0 0 0-1.37 2.17 9.86 9.86 0 0 0-.22.37c.08-.18.19-.38.31-.6a25.87 25.87 0 0 1 1.09-1.76c.1-.12.15-.18.19-.18zm-12.74.2c-.07.1-.18.28-.3.53a128.56 128.56 0 0 0-2.1 4.49 75.84 75.84 0 0 1 1.4-3.16c.23-.45.42-.85.6-1.18.17-.33.3-.55.4-.68Zm-2.68.48-.02.01c-.04.04-.05.07-.03.1.01.03.03.05.04.05.03-.02.04-.05.04-.1s-.01-.07-.03-.06zm.17.33-.02.06-.01.1v.08c.02.03.04.03.06.02.03-.01.05-.03.05-.05l-.01-.1a.25.25 0 0 0-.05-.07.2.2 0 0 1-.02-.04zm11.4 0c.08.05.12.14.12.25 0 .11-.11.23-.34.35.2-.11.31-.22.32-.32 0-.11-.04-.2-.1-.28zm0 .1.02.01c.03.03.04.07.04.13 0 .04-.02.1-.07.15a.63.63 0 0 1-.22.18c.1-.06.17-.12.22-.19v-.05h.02v-.05l.04-.03a.22.22 0 0 0-.05-.15zm-.44.91.24.32c.1.14.18.3.26.47a2.38 2.38 0 0 0-.23-.47c.09.09.18.24.26.46.1.2.16.42.2.64l-.15-.4c.1.24.13.5.12.78a3.53 3.53 0 0 0-.7-1.8zm-4 .24a3.77 3.77 0 0 0-.27.41 5.07 5.07 0 0 0-.25.38l.17-.32a2.2 2.2 0 0 1 .36-.47zM5 39.87l.19.56.2.5.01.02h.04c-.01.02-.02.02-.03.02l-.02.03.03.02.03.02.04.06a.1.1 0 0 0 0 .05c-.02.01-.02.04-.01.07l.04.03.02.02v.03h.03c.04.03.05.1.04.18l.03.04.02.04c0 .02.03.04.06.07.04.03.05.1.02.2l.07.06v.04h.04l.04.05a.1.1 0 0 0 0 .05v.03l.01.05c.01 0 .03 0 .06.03a7.43 7.43 0 0 0 .97 1.39c-.32-.3-.59-.62-.82-1A9.58 9.58 0 0 1 5 39.88Zm.34.1c.03.13.09.3.18.54a16 16 0 0 0 1.38 2.52 4.87 4.87 0 0 1-.62-.8 9.94 9.94 0 0 1-.83-1.76 1.65 1.65 0 0 1-.11-.5Zm15.28.31a5.14 5.14 0 0 0-.59.03 31.27 31.27 0 0 1-.54.02 5.8 5.8 0 0 0-.25.61.8.8 0 0 0 .31.16c.17.05.36.08.6.09a23.56 23.56 0 0 0 .47-.9zm-15.35.06.2.44.3.65.37.72c.13.24.26.46.4.65a5.8 5.8 0 0 1-.87-1.43l-.28-.64c-.07-.2-.11-.32-.12-.4Zm.6.03a6.82 6.82 0 0 0 .84 1.32c.2.25.4.5.63.74.23.25.47.46.71.64-.3-.17-.58-.4-.84-.67a8.1 8.1 0 0 1-1.34-2.03Zm7.43.05-.01.03v.03l.03-.01v-.04h-.02zm-2.15.2-.12.2a3.63 3.63 0 0 0-.2.4l.01.04c-.03 0-.04.02-.02.05h-.02l-.01.01h-.02c-.02.02-.02.03-.01.04v.02l.01.01.02.01-.04.03v.05l-.02.01c.01.05 0 .07-.02.07v.01l.02.01v.01l-.01.02-.02.01c-.02.11.01.17.08.17-.04.02-.08.02-.11 0-.03-.03-.04-.09-.02-.17.01-.1.05-.22.13-.38.07-.16.2-.37.37-.62zm-1.12.28a4.53 4.53 0 0 1-.33.71c-.07.2-.2.34-.37.43-.18.1-.33.1-.47 0 .08.03.14.05.2.05a.8.8 0 0 0 .2-.05.14.14 0 0 1-.16-.03l.09.03c.04 0 .1-.03.16-.1.08-.05.17-.16.28-.31.11-.16.25-.4.4-.73zm-.77 1.14c.04 0 .08-.03.13-.07a.35.35 0 0 1-.13.07zm3.77-1.1c.02.12.07.22.14.29.07.06.16.1.24.13.1.01.19 0 .28-.04.1-.04.17-.12.24-.22-.03.12-.1.2-.2.25a.5.5 0 0 1-.3.05.5.5 0 0 1-.28-.13c-.08-.07-.12-.18-.12-.33zm-.18.02.04.22c.04.08.09.15.16.22.07.06.16.1.28.13a.8.8 0 0 0 .44-.1c-.21.12-.4.15-.58.1 0 .03-.02.03-.03.01l-.02-.06-.02.03c-.02.02-.03.03-.04 0-.01 0-.02 0-.02-.02a.1.1 0 0 0 0-.04.16.16 0 0 1-.06.01h-.04l.01-.01v-.04l-.05.02V41.32c-.07-.09-.1-.21-.07-.36zm-2.91.54a.78.78 0 0 1-.15.33 1.55 1.55 0 0 1-.56.47c-.1.03-.17.03-.22 0 .05 0 .13-.01.23-.05v-.03l.03-.02v-.02l.03-.02.02.01.02.04v-.05l.04.04v-.03l.02-.02h.02a.08.08 0 0 1 .06-.03v-.03c.02-.02.03-.03.04-.02.09-.07.17-.15.24-.24.07-.08.13-.2.18-.33zm-.07.38-.04.03c-.01 0-.01 0 0 0h.03v-.03zm-.01.1-.01.03c0 .02 0 .04.03.05.01 0 .02 0 .03-.02 0-.03 0-.05-.02-.06h-.03z" font-family="Shania&amp;Heinz_PersonalUseOnly" font-size="6.08" letter-spacing="0" style="line-height:1.25;-inkscape-font-specification:&quot;Shania&amp;Heinz_PersonalUseOnly, Normal&quot;" transform="translate(0 -21.83)" word-spacing="0"/></svg>