<?xml version="1.0" encoding="UTF-8" standalone="no"?>
<!-- Created with Inkscape (http://www.inkscape.org/) -->

<svg
   width="100"
   height="100"
   viewBox="0 0 26.458333 26.458333"
   version="1.1"
   id="svg1"
   xml:space="preserve"
   inkscape:version="1.3 (0e150ed, 2023-07-21)"
   sodipodi:docname="oss.svg"
   xmlns:inkscape="http://www.inkscape.org/namespaces/inkscape"
   xmlns:sodipodi="http://sodipodi.sourceforge.net/DTD/sodipodi-0.dtd"
   xmlns="http://www.w3.org/2000/svg"
   xmlns:svg="http://www.w3.org/2000/svg"><sodipodi:namedview
     id="namedview1"
     pagecolor="#484848"
     bordercolor="#666666"
     borderopacity="1.0"
     inkscape:showpageshadow="2"
     inkscape:pageopacity="0.0"
     inkscape:pagecheckerboard="0"
     inkscape:deskcolor="#d1d1d1"
     inkscape:document-units="mm"
     inkscape:zoom="3.8036007"
     inkscape:cx="66.121556"
     inkscape:cy="69.145007"
     inkscape:window-width="1920"
     inkscape:window-height="1027"
     inkscape:window-x="0"
     inkscape:window-y="25"
     inkscape:window-maximized="0"
     inkscape:current-layer="layer1" /><defs
     id="defs1" /><g
     inkscape:label="Layer 1"
     inkscape:groupmode="layer"
     id="layer1"><path
       d="m 6.2255439,8.3768138 c 0,0.392728 -0.20482,1.035374 -0.68962,1.035374 -0.48481,0 -0.68963,-0.642646 -0.68963,-1.035374 0,-0.392729 0.20482,-1.035375 0.68963,-1.035375 0.4848,0 0.68962,0.642646 0.68962,1.035375 z m 5.5226301,-0.948938 c 0,0.599428 -0.0601,1.234558 -0.32884,1.78513 -0.71217,1.4393772 -2.6701801,1.4055542 -4.0719801,1.4055542 -1.42434,0 -3.49885,0.05073 -4.23921,-1.4055542 -0.27434,-0.544935 -0.37957,-1.185702 -0.37957,-1.78513 0,-0.787335 0.26119,-1.531452 0.77982,-2.134638 -0.0977,-0.296895 -0.14469,-0.608823 -0.14469,-0.916993 0,-0.404003 0.0921,-0.606944 0.27434,-0.973365 0.85123,0 1.39616,0.169117 2.04445,0.67647 0.54493,-0.129657 1.1049,-0.187908 1.66674,-0.187908 0.50736,0 1.01847,0.05449 1.51079,0.172875 0.63888,-0.501715 1.1838201,-0.661437 2.0256501,-0.661437 0.18415,0.366421 0.27435,0.569362 0.27435,0.973365 0,0.30817 -0.0489,0.61446 -0.14469,0.905718 0.51674,0.608823 0.73284,1.358578 0.73284,2.145913 z m -1.20825,0.948938 c 0,-0.824918 -0.50172,-1.552123 -1.3811301,-1.552123 -0.35515,0 -0.69526,0.06389 -1.05229,0.112745 -0.27998,0.04322 -0.55996,0.06013 -0.84746,0.06013 -0.28562,0 -0.56561,-0.01691 -0.84747,-0.06013 -0.35139,-0.04886 -0.69526,-0.112745 -1.05229,-0.112745 -0.87941,0 -1.38112,0.727205 -1.38112,1.552123 0,1.6498352 1.51078,1.9035112 2.82614,1.9035112 h 0.90572 c 1.32099,0 2.8299001,-0.251797 2.8299001,-1.9035112 z M 8.9877939,7.3414388 c -0.4848,0 -0.68962,0.642646 -0.68962,1.035375 0,0.392728 0.20482,1.035374 0.68962,1.035374 0.48481,0 0.68963,-0.642646 0.68963,-1.035374 0,-0.392729 -0.20482,-1.035375 -0.68963,-1.035375 z"
       id="path1"
       style="stroke-width:0.0187908;fill:#ffffff;fill-opacity:1;stroke:none;stroke-opacity:1" /><path
       d="m 17.052195,11.207558 a 0.34432159,0.34432159 0 0 0 -0.326532,0.236613 l -0.865084,2.661226 c 0,0.0025 -0.0013,0.0041 -0.0026,0.0069 l -0.438357,1.345829 a 0.49135066,0.49135066 0 0 0 0.178496,0.549479 l 3.785819,2.750813 a 0.1935313,0.1935313 0 0 0 0.229091,-0.0014 l 3.786517,-2.749102 a 0.49100873,0.49100873 0 0 0 0.178483,-0.550501 l -0.430823,-1.322236 a 0.18703466,0.18703466 0 0 0 -0.01034,-0.03557 l -0.863649,-2.658448 a 0.3432958,0.3432958 0 0 0 -0.32723,-0.233879 0.33748302,0.33748302 0 0 0 -0.32449,0.235931 l -0.822682,2.533003 h -2.597947 l -0.824052,-2.53307 a 0.33748302,0.33748302 0 0 0 -0.322436,-0.235931 h -0.0026 z m -0.0026,0.485537 0.74336,2.283397 h -1.483281 z m 4.899146,0 0.741304,2.283397 h -1.48465 z m -3.622379,2.670459 h 2.34631 l -0.735153,2.262879 -0.439029,1.347539 -1.172128,-3.610077 z m -1.885737,0.0017 h 1.477814 l 1.055185,3.248317 z m 4.639285,0 h 1.479184 l -2.291954,2.936481 -0.242428,0.312524 1.011776,-3.114281 z m -4.966515,0.213024 2.385984,3.059231 -2.673203,-1.942835 a 0.10428807,0.10428807 0 0 1 -0.03825,-0.116594 z m 6.770176,0 0.325524,0.999115 a 0.10428807,0.10428807 0 0 1 -0.03761,0.116594 v 6.83e-4 l -2.673876,1.942151 0.009,-0.01202 z"
       id="path1-3"
       style="stroke-width:0.341928;fill:#ffffff;fill-opacity:1" /><g
       style="fill:#ffffff"
       id="g1"
       transform="matrix(0.01245703,0,0,0.01245703,3.9499013,16.755022)"><g
         id="g4">&#10;	<g
   id="g3">&#10;		<path
   d="m 445.157,385.361 c -50.306,33.237 -107.283,49.854 -170.943,49.854 -63.661,0 -120.534,-16.616 -170.607,-49.854 l -6.065,3.023 -2.02,5.397 c 7.185,44.015 13.586,76.8 19.198,98.354 4.492,7.858 10.331,14.762 17.516,20.71 7.185,5.949 15.379,10.845 24.59,14.657 9.204,3.813 17.797,6.843 25.765,9.095 7.968,2.252 17.124,4.266 27.454,6.064 23.127,3.813 45.753,5.894 67.871,6.236 22.118,0.331 44.799,-2.142 68.042,-7.423 23.244,-5.276 44.518,-13.306 63.832,-24.076 8.085,-4.499 14.597,-10.845 19.535,-19.027 4.938,-8.213 8.134,-16.053 9.596,-23.58 1.457,-7.528 3.036,-16.946 4.719,-28.306 1.684,-11.328 3.421,-19.92 5.221,-25.765 0,-2.026 0.894,-6.169 2.692,-12.461 1.793,-6.291 2.356,-11.34 1.684,-15.159 -0.669,-3.81 -3.367,-6.399 -8.08,-7.739 z"
   id="path1-7" />&#10;		<path
   d="m 52.571,181.057 c 2.356,13.813 5.502,31.946 9.431,54.407 3.923,22.46 6.904,39.303 8.923,50.526 0.447,2.014 1.065,5.961 1.854,11.787 0.784,5.845 1.457,10.275 2.02,13.306 0.557,3.029 1.566,6.854 3.035,11.444 1.457,4.62 3.366,8.537 5.722,11.787 2.356,3.262 5.221,6.236 8.593,8.935 32.785,25.159 77.02,40.747 132.712,46.812 80.386,8.537 148.881,-1.341 205.467,-29.646 7.411,-3.801 13.524,-7.289 18.359,-10.435 4.829,-3.146 9.713,-7.632 14.651,-13.471 4.939,-5.826 7.969,-12.13 9.095,-18.867 19.082,-109.579 31.548,-183.117 37.387,-220.626 1.347,-5.159 1.965,-11.224 1.854,-18.183 -0.116,-6.958 -1.971,-12.681 -5.557,-17.185 C 492.64,44.579 468.503,30.901 433.699,20.558 367.01,1.019 291.104,-4.587 206,3.718 163.778,7.757 128.637,14.954 100.571,25.273 c -6.738,2.473 -12.124,4.553 -16.169,6.236 -4.039,1.683 -9.21,4.21 -15.496,7.577 -6.292,3.366 -11.341,6.738 -15.16,10.104 -3.819,3.366 -7.356,7.577 -10.612,12.632 -3.256,5.055 -5.22,10.502 -5.894,16.34 2.02,16.157 4.492,33.905 7.411,53.207 2.92,19.32 5.564,35.887 7.92,49.688 z m 279.746,130.197 c -13.697,17.068 -30.766,26.5 -51.2,28.287 -20.667,1.799 -39.242,-4.486 -55.747,-18.856 -16.506,-14.369 -25.208,-31.774 -26.108,-52.209 -0.673,-15.502 3.201,-30.037 11.622,-43.629 8.421,-13.581 19.707,-23.513 33.85,-29.805 22.008,-9.884 44.125,-8.421 66.359,4.382 22.234,12.791 34.915,31.212 38.061,55.233 2.471,20.666 -3.141,39.534 -16.837,56.597 z M 135.938,57.617 c 7.185,-3.819 13.354,-6.292 18.525,-7.405 5.165,-1.12 12.57,-2.46 22.228,-4.039 61.751,-10.998 125.307,-11.224 190.65,-0.686 10.997,1.805 18.972,3.213 23.917,4.21 4.938,1.016 11.45,3.488 19.535,7.424 8.084,3.935 14.369,8.923 18.861,14.988 -6.512,6.512 -14.933,11.738 -25.263,15.655 -10.331,3.935 -18.471,6.353 -24.419,7.252 -5.955,0.894 -15.998,2.252 -30.147,4.039 -49.406,6.292 -99.707,6.169 -150.907,-0.343 -13.477,-1.567 -23.299,-2.858 -29.474,-3.868 -6.181,-1.016 -14.431,-3.477 -24.755,-7.405 -10.331,-3.935 -18.862,-9.039 -25.594,-15.331 4.046,-5.837 9.652,-10.678 16.843,-14.491 z"
   id="path2" />&#10;		<path
   d="m 302.506,239.007 c -6.176,-6.634 -13.36,-10.618 -21.555,-11.958 -8.201,-1.353 -16.334,0 -24.419,4.039 -8.538,3.813 -14.376,10.343 -17.516,19.542 -3.146,9.21 -3.091,18.421 0.171,27.62 3.25,9.21 9.266,15.722 18.023,19.541 11.897,7.185 24.418,6.512 37.558,-2.025 13.134,-8.525 18.807,-19.866 17.008,-34.016 -0.011,-8.532 -3.095,-16.115 -9.27,-22.743 z"
   id="path3" />&#10;	</g>&#10;</g></g><path
       style="fill:#fab71c;stroke:#fab71c;stroke-width:0.289528;stroke-linecap:round;stroke-linejoin:round;stroke-dasharray:0.289528, 0.868583;stroke-dashoffset:0;stroke-opacity:1;fill-opacity:1"
       d="m 7.3676533,11.164163 v 4.84743"
       id="path4" /><path
       style="fill:#fab71c;stroke:#fab71c;stroke-width:0.289528;stroke-linecap:round;stroke-linejoin:round;stroke-dasharray:0.289528, 0.868583;stroke-dashoffset:0;stroke-opacity:1;fill-opacity:1"
       d="m 11.396503,20.37207 4.125036,-2.54591"
       id="path5" /><path
       style="fill:#fab71c;stroke:#fab71c;stroke-width:0.289528;stroke-linecap:round;stroke-linejoin:round;stroke-dasharray:0.289528, 0.868583;stroke-dashoffset:0;stroke-opacity:1;fill-opacity:1"
       d="m 10.990412,10.458507 4.125036,2.54591"
       id="path6" /></g></svg>
