<?xml version="1.0" encoding="UTF-8"?>
<svg width="100" height="100" version="1.1" viewBox="0 0 26.5 26.5" xmlns="http://www.w3.org/2000/svg"><g transform="translate(-1.99e-8 -8.36)"><rect x="1.46" y="12.9" width="23.5" height="7.3" rx=".419" ry=".507" fill="#fab71c" style="paint-order:stroke fill markers"/><path transform="scale(.984 1.02)" d="m7.25 18.8q-0.554 0-0.845-0.312-0.291-0.318-0.291-0.907v-2.55q0-0.588 0.291-0.9 0.291-0.318 0.845-0.318t0.845 0.318q0.291 0.312 0.291 0.9v0.415h-0.72v-0.464q0-0.478-0.395-0.478t-0.395 0.478v2.65q0 0.471 0.395 0.471t0.395-0.471v-0.948h-0.381v-0.692h1.1v1.59q0 0.588-0.291 0.907-0.291 0.312-0.845 0.312zm1.63-4.92h0.762v4.85h-0.762zm1.92 0.692h-0.796v-0.692h2.35v0.692h-0.796v4.15h-0.762zm1.92-0.692h0.762v1.97h0.817v-1.97h0.762v4.85h-0.762v-2.18h-0.817v2.18h-0.762zm4.02 4.92q-0.554 0-0.845-0.312-0.291-0.318-0.291-0.907v-3.7h0.762v3.75q0 0.249 0.0969 0.36 0.104 0.111 0.291 0.111 0.187 0 0.284-0.111 0.104-0.111 0.104-0.36v-3.75h0.734v3.7q0 0.588-0.291 0.907-0.291 0.312-0.845 0.312zm1.68-4.92h1.15q0.588 0 0.858 0.277 0.27 0.27 0.27 0.838v0.194q0 0.374-0.125 0.609-0.118 0.235-0.367 0.339v0.0138q0.568 0.194 0.568 1.01v0.415q0 0.561-0.298 0.858-0.291 0.291-0.858 0.291h-1.2zm1.06 1.97q0.228 0 0.339-0.118 0.118-0.118 0.118-0.395v-0.27q0-0.263-0.0969-0.381-0.09-0.118-0.291-0.118h-0.367v1.28zm0.138 2.18q0.201 0 0.298-0.104 0.0969-0.111 0.0969-0.374v-0.422q0-0.332-0.118-0.457-0.111-0.132-0.374-0.132h-0.339v1.49z" stroke-width=".173" aria-label="GITHUB"/><path transform="matrix(1.28 0 0 1.29 24.3 22.1)" d="m-12.1 2.13-1.54 1.42 0.376 2.08-1.82-1.03-1.86 1 0.417-2.05-1.53-1.46 2.08-0.238 0.919-1.9 0.87 1.91z" fill="#fab71c" style="paint-order:stroke fill markers"/><path d="m9.84 28.4q0-0.738 0.236-1.26 0.236-0.531 0.846-1.17 0.6-0.64 0.827-1.09 0.236-0.453 0.236-0.945 0-0.443-0.148-0.61-0.138-0.177-0.413-0.177-0.561 0-0.561 0.679v0.738h-1.02v-0.669q0-0.836 0.413-1.28 0.413-0.453 1.2-0.453 0.787 0 1.2 0.453 0.413 0.443 0.413 1.28 0 0.63-0.305 1.23-0.295 0.6-1.03 1.38-0.482 0.512-0.649 0.836-0.167 0.315-0.167 0.679v0.148h2.06v0.984h-3.13zm6.07-5.16h-2.18v-0.984h3.25v0.945l-1.69 5.94h-1.1zm1.82-0.984h1.08v2.9l1.38-2.9h1.08l-1.29 2.53 1.31 4.36h-1.13l-0.915-3.07-0.433 0.876v2.19h-1.08zm5.25 3.83h-1.32v-0.768h1.32v-1.33h0.768v1.33h1.32v0.768h-1.32v1.35h-0.768z" fill="#fff" stroke-width=".246" aria-label="27K+ "/></g></svg>
