<?xml version="1.0" encoding="UTF-8" standalone="no"?>
<svg
   width="55.058151"
   height="55.058151"
   viewBox="0 0 55.058008 55.376839"
   version="1.1"
   id="svg5"
   inkscape:version="1.3 (0e150ed, 2023-07-21)"
   sodipodi:docname="favicon.svg"
   xmlns:inkscape="http://www.inkscape.org/namespaces/inkscape"
   xmlns:sodipodi="http://sodipodi.sourceforge.net/DTD/sodipodi-0.dtd"
   xmlns="http://www.w3.org/2000/svg"
   xmlns:svg="http://www.w3.org/2000/svg">
  <sodipodi:namedview
     id="namedview7"
     pagecolor="#ffffff"
     bordercolor="#666666"
     borderopacity="1.0"
     objecttolerance="10.0"
     gridtolerance="10.0"
     guidetolerance="10.0"
     inkscape:pageshadow="2"
     inkscape:pageopacity="0.0"
     inkscape:pagecheckerboard="0"
     inkscape:document-units="mm"
     showgrid="false"
     inkscape:snap-global="false"
     inkscape:zoom="2.215839"
     inkscape:cx="-6.5437968"
     inkscape:cy="96.126119"
     inkscape:window-width="1920"
     inkscape:window-height="1027"
     inkscape:window-x="0"
     inkscape:window-y="25"
     inkscape:window-maximized="0"
     inkscape:current-layer="layer1"
     showguides="true"
     inkscape:guide-bbox="true"
     fit-margin-top="0"
     fit-margin-left="0"
     fit-margin-right="0"
     fit-margin-bottom="0"
     inkscape:showpageshadow="2"
     inkscape:deskcolor="#d1d1d1" />
  <defs
     id="defs2" />
  <g
     inkscape:label="Layer 1"
     inkscape:groupmode="layer"
     id="layer1"
     transform="translate(-64.532094,-83.684967)">
    <rect
       class="logo-text"
       style="fill-opacity:1;stroke:none;stroke-width:5.29167;stroke-linecap:square"
       id="rect3191"
       width="135.00865"
       height="51.484032"
       x="284.80527"
       y="514.84033"
       inkscape:export-filename="/Users/mendler/Code/corrode/assets/logo/rect3191.png"
       inkscape:export-xdpi="96"
       inkscape:export-ydpi="96" />
    <rect
       style="fill:#f8aa18;fill-opacity:0.983988;stroke:none;stroke-width:4.02189;stroke-linecap:square;stroke-miterlimit:1000;stroke-dasharray:none;paint-order:fill markers stroke"
       id="rect1"
       width="55.376839"
       height="55.376839"
       x="63.953014"
       y="83.684967"
       ry="19.007021"
       rx="19.007021" />
    <path
       id="path3480"
       style="font-size:37.1164px;-inkscape-font-specification:'Futura PT, Normal';fill:#ffffff;fill-opacity:0.983988;stroke-width:2.40232"
       class="logo-text"
       d="m 93.860113,89.992841 c -6.854573,0 -12.26729,1.985725 -16.239099,5.95755 -4.099931,4.099919 -6.150198,9.321739 -6.150198,15.663819 0,6.1499 1.921201,11.2104 5.76489,15.18218 3.77963,3.97183 8.904629,5.95755 15.374833,5.95755 4.616879,0 8.576791,-0.98595 11.892341,-2.93797 -1.43136,-1.90664 -3.28083,-4.85868 -4.18695,-7.02794 l 0.0168,-0.0922 c -2.102996,1.06641 -4.452499,1.60144 -7.049231,1.60144 -3.39526,0 -6.245473,-1.08899 -8.551687,-3.26709 -2.434334,-2.43434 -3.652391,-5.66905 -3.652391,-9.70493 0,-3.90775 1.153525,-7.01474 3.459738,-9.32096 2.370273,-2.370261 5.349553,-3.554733 8.936995,-3.554733 2.361717,0 4.59283,0.51924 6.694696,1.558613 l -0.009,0.0465 c 0.90559,-2.072825 3.04394,-5.533631 4.44296,-7.336611 -3.37078,-1.810969 -6.951112,-2.725245 -10.744452,-2.725245 z"
       sodipodi:nodetypes="ssscscccscssscccss" />
  </g>
</svg>
