<?xml version="1.0" encoding="UTF-8" standalone="no"?>
<svg
   version="1.1"
   viewBox="0 0 292.43518 262.60453"
   xml:space="preserve"
   id="svg549"
   sodipodi:docname="hero-font.svg"
   inkscape:version="1.3 (0e150ed, 2023-07-21)"
   width="292.43518"
   height="262.60452"
   xmlns:inkscape="http://www.inkscape.org/namespaces/inkscape"
   xmlns:sodipodi="http://sodipodi.sourceforge.net/DTD/sodipodi-0.dtd"
   xmlns="http://www.w3.org/2000/svg"
   xmlns:svg="http://www.w3.org/2000/svg">&#10;  <sodipodi:namedview
   id="namedview549"
   pagecolor="#fab71c"
   bordercolor="#666666"
   borderopacity="1.0"
   inkscape:showpageshadow="2"
   inkscape:pageopacity="0.0"
   inkscape:pagecheckerboard="0"
   inkscape:deskcolor="#d1d1d1"
   inkscape:zoom="1.0055063"
   inkscape:cx="223.27061"
   inkscape:cy="187.96501"
   inkscape:window-width="1728"
   inkscape:window-height="1051"
   inkscape:window-x="0"
   inkscape:window-y="38"
   inkscape:window-maximized="0"
   inkscape:current-layer="g5" />&#10;  <defs
   id="defs1">&#10;    <path
   id="h"
   d="m 590,272 a 56.1,56.1 0 0 0 -50.8,0 c -6,3.4 -9.3,7.7 -10.2,12.2 0.9,4.5 4.3,8.9 10.2,12.3 14,8.1 36.8,8.1 50.8,0 6,-3.4 9.4,-7.8 10.3,-12.2 -1,-4.5 -4.3,-8.9 -10.3,-12.3"
   fill="#fbebc4" />&#10;  &#10;      &#10;      &#10;      &#10;      &#10;      &#10;      &#10;    </defs>&#10;  <defs
   id="defs2">&#10;    <path
   id="a"
   d="M 601,310.7 V 299 l -5,0.4 a 27.8,27.8 0 0 0 -5.5,-4 56,56 0 0 0 -50.8,0 26,26 0 0 0 -6.6,5.3 l -3.9,-1.2 v 10 c -0.1,5.5 3.3,11 10.5,15.1 14,8.1 36.8,8.1 50.8,0 6.6,-3.8 10,-8.7 10.5,-13.7"
   fill="#fab71c" />&#10;    <path
   id="b"
   d="m 529.6,309.3 v 0.2 c -0.2,5.5 3.5,10.8 10.3,14.7 14,8 36.5,8 50.4,0 6.3,-3.6 10,-8.4 10.3,-13.4 v -11.5 l -4.8,0.4 -0.1,-0.2 a 27.6,27.6 0 0 0 -5.4,-4 56,56 0 0 0 -50.4,0 25.8,25.8 0 0 0 -6.6,5.3 l -0.1,0.2 -3.6,-1 z m 35.5,21.7 c -9.2,0 -18.5,-2 -25.5,-6.1 -7,-4.1 -10.9,-9.6 -10.7,-15.4 v -10.6 l 4,1.2 c 1.8,-1.9 4,-3.6 6.7,-5.2 14,-8.1 37,-8.1 51,0 a 27,27 0 0 1 5.5,4 l 5.2,-0.4 v 12.4 c -0.4,5.3 -4.2,10.2 -10.6,14 -7,4 -16.3,6 -25.6,6"
   fill="#1a1613" />&#10;    <path
   id="c"
   d="m 590,285 c 14,8.1 14,21.2 0,29.3 a 56,56 0 0 1 -50.8,0 c -14,-8 -14,-21.2 0,-29.3 14,-8 36.8,-8 50.8,0"
   fill="#fab71c" />&#10;    <path
   id="d"
   d="m 565,279 c -9.1,0 -18.2,2 -25.2,6 -6.6,3.9 -10.3,9 -10.3,14.4 0,5.4 3.7,10.5 10.3,14.3 14,8 36.5,8 50.4,0 6.7,-3.8 10.3,-9 10.3,-14.3 0,-5.4 -3.6,-10.5 -10.3,-14.4 -7,-4 -16,-6 -25.2,-6 z m 0,41.4 c -9.2,0 -18.5,-2 -25.5,-6 -7,-4 -10.7,-9.4 -10.7,-15 0,-5.7 3.8,-11 10.7,-15 14,-8.1 37,-8.1 51,0 7,4 10.8,9.3 10.8,15 0,5.6 -3.8,11 -10.7,15 -7,4 -16.3,6 -25.6,6"
   fill="#1a1613" />&#10;    <path
   id="e"
   d="m 565,261 c -9.1,0 -18.2,2 -25.2,6 -6.6,3.9 -10.3,9 -10.3,14.4 0,5.4 3.7,10.5 10.3,14.3 14,8 36.5,8 50.4,0 6.7,-3.8 10.3,-9 10.3,-14.3 0,-5.4 -3.6,-10.5 -10.3,-14.4 -7,-4 -16,-6 -25.2,-6 z m 0,41.4 c -9.2,0 -18.5,-2 -25.5,-6 -7,-4 -10.7,-9.4 -10.7,-15 0,-5.7 3.8,-11 10.7,-15 14,-8.1 37,-8.1 51,0 7,4 10.8,9.3 10.8,15 0,5.6 -3.8,11 -10.7,15 -7,4 -16.3,6 -25.6,6"
   fill="#1a1613" />&#10;    <path
   id="f"
   d="m 601,292 v -11.8 l -5,0.4 a 27.8,27.8 0 0 0 -5.5,-4 56,56 0 0 0 -50.8,0 c -2.7,1.5 -5,3.3 -6.6,5.3 l -3.9,-1.2 v 10 c -0.1,5.5 3.3,11 10.5,15.1 14,8.1 36.8,8.1 50.8,0 6.6,-3.8 10,-8.7 10.5,-13.7"
   fill="#fab71c" />&#10;    <path
   id="g"
   d="m 590,267 c 14,8 14,21.1 0,29.2 a 56,56 0 0 1 -50.8,0 c -14,-8 -14,-21.2 0,-29.3 14,-8 36.8,-8 50.8,0"
   fill="#fab71c" />&#10;  </defs>&#10;  <g
   id="g5"
   transform="translate(5.7096249)">&#10;    &#10;  <path
   d="M 3.9780954,140.82378 135.30041,142.50383 123.62363,194.3736 1.2520422,194.97689 Z"
   fill="#ffd885"
   stroke-linecap="round"
   stroke-linejoin="round"
   stroke-width="1.44535"
   style="paint-order:stroke fill markers"
   id="path6"
   sodipodi:nodetypes="ccccc" /><path
   d="M 4.1286962,0 133.6189,4.1833431 131.11603,61.134358 3.1530399,60.775592 Z"
   fill="#ffd885"
   id="path3"
   sodipodi:nodetypes="ccccc"
   style="stroke-width:0.814774" /><path
   d="M 0.41308284,72.226775 256.78148,71.545058 255.61965,132.26754 0.2114448,131.58583 Z"
   fill="#ffd885"
   stroke-linecap="round"
   stroke-linejoin="round"
   stroke-width="1.20759"
   style="paint-order:stroke fill markers"
   id="path4" /><path
   d="m -0.99452387,201.48975 287.46256387,-1.30354 0.25751,57.83692 -287.46255551,4.58139 z"
   fill="#ffd885"
   stroke-linecap="round"
   stroke-linejoin="round"
   stroke-width="1.44535"
   style="paint-order:stroke fill markers"
   id="path5" /><text
   xml:space="preserve"
   style="font-size:50.6231px;line-height:1.25;font-family:Arcon;-inkscape-font-specification:'Arcon, Normal';stroke-width:1.26558"
   x="11.785977"
   y="117.64436"
   id="text2"><tspan
     sodipodi:role="line"
     id="tspan2"
     x="11.785977"
     y="117.64436"
     style="font-style:normal;font-variant:normal;font-weight:bold;font-stretch:normal;font-size:50.6231px;font-family:'Josefin Sans';-inkscape-font-specification:'Josefin Sans, Bold';font-variant-ligatures:normal;font-variant-caps:normal;font-variant-numeric:normal;font-variant-east-asian:normal;stroke-width:1.26558">real-world</tspan></text><text
   xml:space="preserve"
   style="font-size:50.6231px;line-height:1.25;font-family:Arcon;-inkscape-font-specification:'Arcon, Normal';stroke-width:1.26558"
   x="11.785977"
   y="190.21924"
   id="text3"><tspan
     sodipodi:role="line"
     id="tspan3"
     x="11.785977"
     y="190.21924"
     style="font-style:normal;font-variant:normal;font-weight:bold;font-stretch:normal;font-size:50.6231px;font-family:'Josefin Sans';-inkscape-font-specification:'Josefin Sans, Bold';font-variant-ligatures:normal;font-variant-caps:normal;font-variant-numeric:normal;font-variant-east-asian:normal;stroke-width:1.26558"
     dx="0 0 0">Rust</tspan></text><text
   xml:space="preserve"
   style="font-size:50.6231px;line-height:1.25;font-family:Arcon;-inkscape-font-specification:'Arcon, Normal';stroke-width:1.26558"
   x="16.422543"
   y="49.548603"
   id="text5"><tspan
   sodipodi:role="line"
   id="tspan1"
   x="16.422543"
   y="49.548603"
   style="font-style:normal;font-variant:normal;font-weight:bold;font-stretch:normal;font-size:50.6231px;font-family:'Josefin Sans';-inkscape-font-specification:'Josefin Sans, Bold';font-variant-ligatures:normal;font-variant-caps:normal;font-variant-numeric:normal;font-variant-east-asian:normal;stroke-width:1.26558">Fun,</tspan> </text><text
   xml:space="preserve"
   style="font-size:50.6231px;line-height:1.25;font-family:Arcon;-inkscape-font-specification:'Arcon, Normal';stroke-width:1.26558"
   x="9.7969294"
   y="249.89067"
   id="text4"><tspan
     sodipodi:role="line"
     id="tspan4"
     x="9.7969294"
     y="249.89067"
     style="font-style:normal;font-variant:normal;font-weight:bold;font-stretch:normal;font-size:50.6231px;font-family:'Josefin Sans';-inkscape-font-specification:'Josefin Sans, Bold';font-variant-ligatures:normal;font-variant-caps:normal;font-variant-numeric:normal;font-variant-east-asian:normal;stroke-width:1.26558">Workshops</tspan></text></g>&#10;</svg>
