<svg xmlns="http://www.w3.org/2000/svg" xmlns:xlink="http://www.w3.org/1999/xlink" viewBox="0 0 1080 576"><path d="M137.004 50.053q-.576 0-1.152-.144t-1.056-.48q-.456-.336-.792-.816-.312-.504-.504-1.032-.192-.552-.264-1.128t-.072-1.152v-6.48h-2.64v-1.68h2.64v-4.92h1.872v4.92h3.888v1.68h-3.888v6.48q0 .336.024.696.024.336.096.672.096.312.24.648.144.312.36.552.24.24.576.384.336.12.672.12.456 0 .864-.216.432-.216.672-.6.24-.408.336-.864t.096-.912q0-.024-.024-.072v-.072h1.872v.24q0 .528-.096 1.056t-.312 1.032q-.216.48-.576.912-.336.408-.792.696-.456.264-.984.36-.528.12-1.056.12m10.296 0q-.648 0-1.296-.144-.648-.12-1.2-.432t-1.008-.792q-.432-.504-.696-1.08-.264-.6-.36-1.248t-.096-1.296v-3.12q0-.648.096-1.296t.36-1.224q.264-.6.696-1.08.456-.504 1.008-.816t1.2-.432q.648-.144 1.296-.144t1.296.144q.648.12 1.2.432t.984.816q.456.48.72 1.08.264.576.36 1.224t.096 1.296v3.12q0 .648-.096 1.296t-.36 1.248q-.264.576-.72 1.08-.432.48-.984.792t-1.2.432q-.648.144-1.296.144m0-1.68q.408 0 .816-.096t.744-.312q.336-.24.576-.576.264-.336.408-.72t.192-.792.048-.816v-3.12q0-.408-.048-.816t-.192-.792-.408-.72q-.24-.336-.576-.552-.336-.24-.744-.336t-.816-.096-.816.096-.744.336q-.336.216-.6.552-.24.336-.384.72t-.192.792-.048.816v3.12q0 .408.048.816t.192.792.384.72q.264.336.6.576.336.216.744.312t.816.096m7.92 1.488V32.22h1.848v10.824l4.584-5.904h2.28l-4.512 5.784 4.512 6.936h-2.16l-3.528-5.424-1.176 1.512v3.912zm11.88 0v-1.68h3.432v-9.36h-3.096v-1.68h4.968v11.04h3.096v1.68zm4.2-14.952q-.312 0-.6-.072-.288-.096-.504-.312t-.312-.504q-.072-.288-.072-.6t.072-.6q.096-.288.312-.504t.504-.312.6-.096.6.096.504.312.312.504.096.6-.096.6-.312.504-.504.312q-.288.072-.6.072m12 15.144q-.648 0-1.296-.144-.648-.12-1.2-.432t-1.008-.792q-.432-.504-.696-1.08-.264-.6-.36-1.248t-.096-1.296v-3.12q0-.648.096-1.296t.36-1.224q.264-.6.696-1.08.456-.504 1.008-.816t1.2-.432q.648-.144 1.296-.144t1.296.144q.648.12 1.2.432t.984.816q.456.48.72 1.08.264.576.36 1.224t.096 1.296v3.12q0 .648-.096 1.296t-.36 1.248q-.264.576-.72 1.08-.432.48-.984.792t-1.2.432q-.648.144-1.296.144m0-1.68q.408 0 .816-.096t.744-.312q.336-.24.576-.576.264-.336.408-.72t.192-.792.048-.816v-3.12q0-.408-.048-.816t-.192-.792-.408-.72q-.24-.336-.576-.552-.336-.24-.744-.336t-.816-.096-.816.096-.744.336q-.336.216-.6.552-.24.336-.384.72t-.192.792-.048.816v3.12q0 .408.048.816t.192.792.384.72q.264.336.6.576.336.216.744.312t.816.096" aria-label="tokio" font-family="Iosevka" font-size="24" style="line-height:1.25;-inkscape-font-specification:&quot;Iosevka, Normal&quot;"/><path fill="none" d="M60.825 524.32H1069.2V3.54H60.825Z"/><path d="M106.66 549.82h9.805v-.056h-9.805zm12.256 0h9.804v-.056h-9.804zm12.255 0h9.804v-.056h-9.804zm12.255 0h9.805v-.056h-9.805zm12.256 0h9.804v-.056h-9.804zm12.255 0h9.805v-.056h-9.805zm12.256 0h9.804v-.112h-9.804zm12.255 0h9.804v-.504h-9.804zm12.255 0h9.805v-1.289h-9.805zm12.256 0h9.804v-1.961h-9.804zm12.255 0h9.805v-2.97h-9.805zm12.256 0h9.804v-5.099h-9.804zm12.255 0h9.804v-6.163h-9.804zm12.255 0h9.805v-8.46h-9.804zm12.256 0h9.804v-10.646h-9.804zm12.255 0h9.805v-12.775h-9.805zm12.256 0h9.804v-14.4h-9.804zm12.255 0h9.804v-15.745h-9.804zm12.256 0h9.804v-18.938h-9.804zm12.255 0h9.804V529.2h-9.804zm12.255 0h9.805v-23.365h-9.805zm12.256 0h9.804v-26.222h-9.804zm12.256 0h9.804V521.3h-9.805zm12.255 0h9.804v-30.48h-9.804zm12.255 0h9.804v-31.825h-9.804zm12.255 0h9.805v-33.618h-9.805zm12.255 0h9.805v-34.963h-9.804zm12.256 0h9.805v-36.924h-9.805zm12.256 0h9.804v-38.83h-9.804zm12.255 0h9.804v-44.544h-9.804zm12.255 0h9.805v-52.556h-9.805zm12.256 0h9.804v-70.822h-9.804zm12.255 0h9.805v-78.33h-9.805zm12.256 0h9.804v-85.95h-9.804zm12.255 0h9.804v-94.019h-9.804zm12.256 0h9.804V449.75H535.6zm12.255 0h9.804V444.539h-9.804zm12.255 0h9.805V438.095h-9.805zm12.256 0h9.804V431.148h-9.804zm12.255 0h9.804V424.648h-9.804zm12.256 0h9.804V420.278h-9.804zm12.255 0h9.804V402.852h-9.804zm12.255 0h9.805V395.456h-9.805zm12.256 0h9.804V386.155h-9.804zm12.255 0h9.805V376.798h-9.805zm12.256 0h9.804V353.938h-9.804zm12.255 0h9.804V346.766h-9.804zm12.255 0h9.805V341.33h-9.805zm12.256 0h9.804V338.698h-9.804zm12.255 0h9.805V338.417h-9.805zm12.255 0h9.805V331.302h-9.804zm12.256 0h9.804V323.29h-9.804zm12.255 0h9.805V316.341h-9.805zm12.256 0H766V308.161h-9.804zm12.255 0h9.805V287.542h-9.805zm12.256 0h9.804V278.97h-9.804zm12.255 0h9.804v-280.6h-9.804zm12.255 0h9.805V260.871h-9.805zm12.256 0h9.804V251.458h-9.804zm12.256 0h9.804V240.308h-9.805zm12.255 0h9.804V230.839h-9.804zm12.255 0h9.804V221.762h-9.804zm12.256 0h9.804V195.876h-9.804zm12.254 0h9.805V184.614h-9.804zm12.256 0h9.805V174.192h-9.805zm12.256 0h9.804V162.37h-9.804zm12.255 0h9.805V148.362h-9.805zm12.256 0h9.804V133.178h-9.804zm12.255 0h9.804V96.87h-9.804Zm12.255 0h9.805V86h-9.805zm12.256 0h9.804V78.212h-9.804zm12.255 0h9.805V67.623h-9.805zm12.256 0h9.804V59.106h-9.804zm12.255 0h9.804V54.007h-9.804zm12.255 0h9.805V53.839h-9.805z" clip-path="url(#a)" transform="translate(0 -25.5)"/><path fill="gray" d="M413.045 549.82h9.805v-.168h-9.805zm12.255 0h9.805v-.896h-9.804zm12.256 0h9.805v-1.233h-9.805zm12.256 0h9.804v-2.97h-9.804zm12.255 0h9.804v-4.93h-9.804zm12.255 0h9.805v-7.9h-9.805zm12.256 0h9.804v-10.31h-9.804zm12.255 0h9.805v-12.495h-9.805zm12.256 0h9.804v-13.896h-9.804zm12.255 0h9.804v-16.529h-9.804zm12.256 0h9.804v-18.49H535.6zm12.255 0h9.804v-19.779h-9.804zm12.255 0h9.805V527.8h-9.805zm12.256 0h9.804v-23.645h-9.804zm12.255 0h9.804v-25.718h-9.804zm12.256 0h9.804v-27.399h-9.804zm12.255 0h9.804V519.9h-9.804zm12.255 0h9.805v-30.424h-9.805zm12.256 0h9.804v-31.825h-9.804zm12.255 0h9.805v-34.29h-9.805zm12.256 0h9.804v-35.467h-9.804zm12.255 0h9.804v-35.58h-9.804zm12.255 0h9.805v-36.644h-9.805zm12.256 0h9.804v-36.7h-9.804zm12.255 0h9.805v-37.316h-9.805zm12.255 0h9.805v-36.476h-9.804zm12.256 0h9.804v-35.86h-9.804zm12.255 0h9.805v-35.915h-9.805zm12.256 0H766v-36.364h-9.804zm12.255 0h9.805v-36.644h-9.805zm12.256 0h9.804v-35.635h-9.804zm12.255 0h9.804v-35.075h-9.804zm12.255 0h9.805v-35.187h-9.805zm12.256 0h9.804v-34.179h-9.804zm12.256 0h9.804v-35.243h-9.805zm12.255 0h9.804v-35.467h-9.804zm12.255 0h9.804v-34.907h-9.804zm12.256 0h9.804v-35.187h-9.804zm12.254 0h9.805v-36.812h-9.804zm12.256 0h9.805v-37.036h-9.805zm12.256 0h9.804v-38.325h-9.804zm12.255 0h9.805v-38.549h-9.805zm12.256 0h9.804v-39.67h-9.804zm12.255 0h9.804v-40.678h-9.804Zm12.255 0h9.805v-41.014h-9.805zm12.256 0h9.804v-39.501h-9.804zm12.255 0h9.805v-39.838h-9.805zm12.256 0h9.804v-39.557h-9.804zm12.255 0h9.804v-39.39h-9.804zm12.255 0h9.805v-39.053h-9.805z" clip-path="url(#a)" opacity=".7" transform="translate(0 -25.5)"/><g transform="translate(0 -25.5)"><defs><path id="b" stroke="#1a1a1a" stroke-width=".8" d="M0 0v-3.5"/></defs><use xlink:href="#b" x="111.562" y="549.82" fill="#1a1a1a" stroke="#1a1a1a" stroke-width=".8"/></g><g fill="#1a1a1a" transform="matrix(.12 0 0 -.12 96.292 536.938)"><defs><path id="c" d="M1228 531h2203V0H469v531q359 372 979 998 621 627 780 809 303 340 423 576 121 236 121 464 0 372-261 606-261 235-680 235-297 0-627-103-329-103-704-313v638q381 153 712 231 332 78 607 78 725 0 1156-363 431-362 431-968 0-288-108-546-107-257-392-607-78-91-497-524-418-433-1181-1211" transform="scale(.01563)"/><path id="d" d="M2034 4250q-487 0-733-480-245-479-245-1442 0-959 245-1439 246-480 733-480 491 0 736 480 246 480 246 1439 0 963-246 1442-245 480-736 480m0 500q785 0 1199-621 414-620 414-1801 0-1178-414-1799Q2819-91 2034-91q-784 0-1198 620-414 621-414 1799 0 1181 414 1801 414 621 1198 621" transform="scale(.01563)"/><path id="e" d="M794 531h1031v3560L703 3866v575l1116 225h631V531h1031V0H794Z" transform="scale(.01563)"/><path id="f" d="M525 4666h3000v-269L1831 0h-659l1594 4134H525Z" transform="scale(.01563)"/></defs><use xlink:href="#c"/><use xlink:href="#d" x="63.623"/><use xlink:href="#e" x="127.246"/><use xlink:href="#f" x="190.869"/></g><use xlink:href="#b" x="258.627" y="549.82" fill="#1a1a1a" stroke="#1a1a1a" stroke-width=".8" transform="translate(0 -25.5)"/><g fill="#1a1a1a" transform="matrix(.12 0 0 -.12 243.357 536.938)"><defs><path id="g" d="M2034 2216q-450 0-708-241-257-241-257-662 0-422 257-663 258-241 708-241t709 242q260 243 260 662 0 421-258 662-257 241-711 241m-631 268q-406 100-633 378-226 279-226 679 0 559 398 884 399 325 1092 325 697 0 1094-325t397-884q0-400-227-679-226-278-629-378 456-106 710-416 255-309 255-755 0-679-414-1042Q2806-91 2034-91q-771 0-1186 362-414 363-414 1042 0 446 256 755 257 310 713 416m-231 997q0-362 226-565 227-203 636-203 407 0 636 203 230 203 230 565 0 363-230 566-229 203-636 203-409 0-636-203-226-203-226-566" transform="scale(.01563)"/></defs><use xlink:href="#c"/><use xlink:href="#d" x="63.623"/><use xlink:href="#e" x="127.246"/><use xlink:href="#g" x="190.869"/></g><use xlink:href="#b" x="405.692" y="549.82" fill="#1a1a1a" stroke="#1a1a1a" stroke-width=".8" transform="translate(0 -25.5)"/><g fill="#1a1a1a" transform="matrix(.12 0 0 -.12 390.422 536.938)"><defs><path id="h" d="M703 97v575q238-113 481-172 244-59 479-59 625 0 954 420 330 420 377 1277-181-269-460-413-278-144-615-144-700 0-1108 423-408 424-408 1159 0 718 425 1152 425 435 1131 435 810 0 1236-621 427-620 427-1801 0-1103-524-1761Q2575-91 1691-91q-238 0-482 47Q966 3 703 97m1256 1978q425 0 673 290 249 291 249 798 0 503-249 795-248 292-673 292t-673-292-248-795q0-507 248-798 248-290 673-290" transform="scale(.01563)"/></defs><use xlink:href="#c"/><use xlink:href="#d" x="63.623"/><use xlink:href="#e" x="127.246"/><use xlink:href="#h" x="190.869"/></g><use xlink:href="#b" x="552.757" y="549.82" fill="#1a1a1a" stroke="#1a1a1a" stroke-width=".8" transform="translate(0 -25.5)"/><g fill="#1a1a1a" transform="matrix(.12 0 0 -.12 537.487 536.938)"><use xlink:href="#c"/><use xlink:href="#d" x="63.623"/><use xlink:href="#c" x="127.246"/><use xlink:href="#d" x="190.869"/></g><use xlink:href="#b" x="699.822" y="549.82" fill="#1a1a1a" stroke="#1a1a1a" stroke-width=".8" transform="translate(0 -25.5)"/><g fill="#1a1a1a" transform="matrix(.12 0 0 -.12 684.552 536.938)"><use xlink:href="#c"/><use xlink:href="#d" x="63.623"/><use xlink:href="#c" x="127.246"/><use xlink:href="#e" x="190.869"/></g><use xlink:href="#b" x="846.887" y="549.82" fill="#1a1a1a" stroke="#1a1a1a" stroke-width=".8" transform="translate(0 -25.5)"/><g fill="#1a1a1a" transform="matrix(.12 0 0 -.12 831.617 536.938)"><use xlink:href="#c"/><use xlink:href="#d" x="63.623"/><use xlink:href="#c" x="127.246"/><use xlink:href="#c" x="190.869"/></g><use xlink:href="#b" x="993.952" y="549.82" fill="#1a1a1a" stroke="#1a1a1a" stroke-width=".8" transform="translate(0 -25.5)"/><g fill="#1a1a1a" transform="matrix(.12 0 0 -.12 978.682 536.938)"><defs><path id="i" d="M2597 2516q453-97 707-404 255-306 255-756 0-690-475-1069Q2609-91 1734-91q-293 0-604 58T488 141v609q262-153 574-231 313-78 654-78 593 0 904 234t311 681q0 413-289 645-289 233-804 233h-544v519h569q465 0 712 186t247 536q0 359-255 551-254 193-729 193-260 0-557-57-297-56-653-174v562q360 100 674 150t592 50q719 0 1137-327 419-326 419-882 0-388-222-655t-631-370" transform="scale(.01563)"/></defs><use xlink:href="#c"/><use xlink:href="#d" x="63.623"/><use xlink:href="#c" x="127.246"/><use xlink:href="#i" x="190.869"/></g><g transform="translate(0 -25.5)"><defs><path id="j" stroke="#1a1a1a" stroke-width=".8" d="M0 0h3.5"/></defs><use xlink:href="#j" x="60.825" y="549.82" fill="#1a1a1a" stroke="#1a1a1a" stroke-width=".8"/></g><use xlink:href="#d" fill="#1a1a1a" transform="matrix(.12 0 0 -.12 49.69 528.88)"/><use xlink:href="#j" x="60.825" y="437.759" fill="#1a1a1a" stroke="#1a1a1a" stroke-width=".8" transform="translate(0 -25.5)"/><g fill="#1a1a1a" transform="matrix(.12 0 0 -.12 26.785 416.818)"><use xlink:href="#c"/><use xlink:href="#d" x="63.623"/><use xlink:href="#d" x="127.246"/><use xlink:href="#d" x="190.869"/></g><use xlink:href="#j" x="60.825" y="325.698" fill="#1a1a1a" stroke="#1a1a1a" stroke-width=".8" transform="translate(0 -25.5)"/><g fill="#1a1a1a" transform="matrix(.12 0 0 -.12 26.785 304.758)"><defs><path id="k" d="M2419 4116 825 1625h1594zm-166 550h794V1625h666v-525h-666V0h-628v1100H313v609z" transform="scale(.01563)"/></defs><use xlink:href="#k"/><use xlink:href="#d" x="63.623"/><use xlink:href="#d" x="127.246"/><use xlink:href="#d" x="190.869"/></g><use xlink:href="#j" x="60.825" y="213.638" fill="#1a1a1a" stroke="#1a1a1a" stroke-width=".8" transform="translate(0 -25.5)"/><g fill="#1a1a1a" transform="matrix(.12 0 0 -.12 26.785 192.697)"><defs><path id="l" d="M2113 2584q-425 0-674-291-248-290-248-796 0-503 248-796 249-292 674-292t673 292q248 293 248 796 0 506-248 796-248 291-673 291m1253 1979v-575q-238 112-480 171-242 60-480 60-625 0-955-422-329-422-376-1275 184 272 462 417 279 145 613 145 703 0 1111-427 408-426 408-1160 0-719-425-1154Q2819-91 2113-91q-810 0-1238 620-428 621-428 1799 0 1106 525 1764t1409 658q238 0 480-47t505-140" transform="scale(.01563)"/></defs><use xlink:href="#l"/><use xlink:href="#d" x="63.623"/><use xlink:href="#d" x="127.246"/><use xlink:href="#d" x="190.869"/></g><use xlink:href="#j" x="60.825" y="101.577" fill="#1a1a1a" stroke="#1a1a1a" stroke-width=".8" transform="translate(0 -25.5)"/><g fill="#1a1a1a" transform="matrix(.12 0 0 -.12 26.785 80.636)"><use xlink:href="#g"/><use xlink:href="#d" x="63.623"/><use xlink:href="#d" x="127.246"/><use xlink:href="#d" x="190.869"/></g><g transform="matrix(0 -.12 -.12 0 20.29 339.522)"><defs><path id="m" d="M628 4666h850L3547 763v3903h612V0h-850L1241 3903V0H628Z" transform="scale(.01563)"/><path id="n" d="M544 1381v2119h575V1403q0-497 193-746 194-248 582-248 465 0 735 297 271 297 271 810v1984h575V0h-575v538q-209-319-486-474-276-155-642-155-603 0-916 375-312 375-312 1097m1447 2203" transform="scale(.01563)"/><path id="o" d="M3328 2828q216 388 516 572t706 184q547 0 844-383 297-382 297-1088V0h-578v2094q0 503-179 746-178 244-543 244-447 0-707-297-259-296-259-809V0h-578v2094q0 506-178 748t-550 242q-441 0-701-298-259-298-259-808V0H581v3500h578v-544q197 322 472 475t653 153q382 0 649-194 267-193 395-562" transform="scale(.01563)"/><path id="p" d="M3116 1747q0 634-261 995t-717 361q-457 0-718-361t-261-995 261-995 718-361q456 0 717 361t261 995M1159 2969q182 312 458 463 277 152 661 152 638 0 1036-506 399-506 399-1331T3314 415Q2916-91 2278-91q-384 0-661 152-276 152-458 464V0H581v4863h578z" transform="scale(.01563)"/><path id="q" d="M3597 1894v-281H953q38-594 358-905t892-311q331 0 642 81t618 244V178Q3153 47 2828-22t-659-69q-838 0-1327 487-489 488-489 1320 0 859 464 1363 464 505 1252 505 706 0 1117-455 411-454 411-1235m-575 169q-6 471-264 752-258 282-683 282-481 0-770-272t-333-766z" transform="scale(.01563)"/><path id="r" d="M2631 2963q-97 56-211 82-114 27-251 27-488 0-749-317t-261-911V0H581v3500h578v-544q182 319 472 473 291 155 707 155 59 0 131-8 72-7 159-23z" transform="scale(.01563)"/><path id="s" d="M1959 3097q-462 0-731-361t-269-989 267-989q268-361 733-361 460 0 728 362 269 363 269 988 0 622-269 986-268 364-728 364m0 487q750 0 1178-488 429-487 429-1349 0-859-429-1349Q2709-91 1959-91q-753 0-1180 489-426 490-426 1349 0 862 426 1349 427 488 1180 488" transform="scale(.01563)"/><path id="t" d="M2375 4863v-479h-550q-309 0-430-125-120-125-120-450v-309h947v-447h-947V0H697v3053H147v447h550v244q0 584 272 851 272 268 862 268z" transform="scale(.01563)"/><path id="u" d="M2906 2969v1894h575V0h-575v525q-181-312-458-464-276-152-664-152-634 0-1033 506-398 507-398 1332t398 1331q399 506 1033 506 388 0 664-152 277-151 458-463M947 1747q0-634 261-995t717-361 718 361q263 361 263 995t-263 995q-262 361-718 361t-717-361-261-995" transform="scale(.01563)"/><path id="v" d="M1159 525v-1856H581v4831h578v-531q182 312 458 463 277 152 661 152 638 0 1036-506 399-506 399-1331T3314 415Q2916-91 2278-91q-384 0-661 152-276 152-458 464m1957 1222q0 634-261 995t-717 361q-457 0-718-361t-261-995 261-995 718-361q456 0 717 361t261 995" transform="scale(.01563)"/><path id="w" d="M3513 2113V0h-575v2094q0 497-194 743-194 247-581 247-466 0-735-297-269-296-269-809V0H581v3500h578v-544q207 316 486 472 280 156 646 156 603 0 912-373 310-373 310-1098" transform="scale(.01563)"/><path id="x" d="M3122 3366v-538q-244 135-489 202t-495 67q-560 0-870-355-309-354-309-995t309-996q310-354 870-354 250 0 495 67t489 202V134Q2881 22 2623-34q-257-57-548-57-791 0-1257 497-465 497-465 1341 0 856 470 1346 471 491 1290 491 265 0 518-55 253-54 491-163" transform="scale(.01563)"/><path id="y" d="M603 3500h575V0H603Zm0 1363h575v-729H603Z" transform="scale(.01563)"/><path id="z" d="M2834 3397v-544q-243 125-506 187-262 63-544 63-428 0-642-131t-214-394q0-200 153-314t616-217l197-44q612-131 870-370t258-667q0-488-386-773Q2250-91 1575-91q-281 0-586 55T347 128v594q319-166 628-249 309-82 613-82 406 0 624 139 219 139 219 392 0 234-158 359-157 125-692 241l-200 47q-534 112-772 345-237 233-237 639 0 494 350 762 350 269 994 269 318 0 599-47 282-46 519-140" transform="scale(.01563)"/></defs><use xlink:href="#m"/><use xlink:href="#n" x="74.805"/><use xlink:href="#o" x="138.184"/><use xlink:href="#p" x="235.596"/><use xlink:href="#q" x="299.072"/><use xlink:href="#r" x="360.596"/><use xlink:href="#DejaVuSans-20" x="401.709"/><use xlink:href="#s" x="433.496"/><use xlink:href="#t" x="494.678"/><use xlink:href="#DejaVuSans-20" x="529.883"/><use xlink:href="#u" x="561.67"/><use xlink:href="#q" x="625.146"/><use xlink:href="#v" x="686.67"/><use xlink:href="#q" x="750.146"/><use xlink:href="#w" x="811.67"/><use xlink:href="#u" x="875.049"/><use xlink:href="#q" x="938.525"/><use xlink:href="#w" x="1000.049"/><use xlink:href="#x" x="1063.428"/><use xlink:href="#y" x="1118.408"/><use xlink:href="#q" x="1146.191"/><use xlink:href="#z" x="1207.715"/></g><path fill="none" stroke="#1a1a1a" stroke-linecap="square" d="M60.825 524.32V3.54m0 520.78H1069.2"/><g transform="matrix(.16 0 0 -.16 311.24 568.267)"><defs><path id="A" d="M2841 2188q203-69 395-294t386-619L4263 0h-679l-596 1197q-232 469-449 622t-592 153h-688V0H628v4666h1425q800 0 1194-335 394-334 394-1009 0-441-205-732-205-290-595-402M1259 4147V2491h794q456 0 689 211t233 620-233 617-689 208z" transform="scale(.01563)"/><path id="B" d="M1172 4494v-994h1184v-447H1172V1153q0-428 117-550t477-122h590V0h-590q-666 0-919 248-253 249-253 905v1900H172v447h422v994z" transform="scale(.01563)"/><path id="C" d="M1147 4666V2931H616v1735z" transform="scale(.01563)"/><path id="D" d="M-19 4666h3947v-532H2272V0h-634v4134H-19Z" transform="scale(.01563)"/><path id="E" d="M581 4863h578V1991l1716 1509h734L1753 1863 3688 0h-750L1159 1709V0H581Z" transform="scale(.01563)"/><path id="F" d="M2194 1759q-697 0-966-159t-269-544q0-306 202-486 202-179 548-179 479 0 768 339t289 901v128zm1147 238V0h-575v531q-197-318-491-470T1556-91q-537 0-855 302-317 302-317 808 0 590 395 890 396 300 1180 300h807v57q0 397-261 614t-733 217q-300 0-585-72-284-72-546-216v532q315 122 612 182 297 61 578 61 760 0 1135-394 375-393 375-1193" transform="scale(.01563)"/><path id="G" d="M2059-325q-243-625-475-815-231-191-618-191H506v481h338q237 0 368 113 132 112 291 531l103 262L191 3500h609L1894 763l1094 2737h609z" transform="scale(.01563)"/><path id="H" d="M313 2009h1684v-512H313Z" transform="scale(.01563)"/><path id="I" d="M191 3500h609L1894 563l1094 2937h609L2284 0h-781z" transform="scale(.01563)"/></defs><use xlink:href="#m"/><use xlink:href="#n" x="74.805"/><use xlink:href="#o" x="138.184"/><use xlink:href="#p" x="235.596"/><use xlink:href="#q" x="299.072"/><use xlink:href="#r" x="360.596"/><use xlink:href="#DejaVuSans-20" x="401.709"/><use xlink:href="#s" x="433.496"/><use xlink:href="#t" x="494.678"/><use xlink:href="#DejaVuSans-20" x="529.883"/><use xlink:href="#u" x="561.67"/><use xlink:href="#q" x="625.146"/><use xlink:href="#v" x="686.67"/><use xlink:href="#q" x="750.146"/><use xlink:href="#w" x="811.67"/><use xlink:href="#u" x="875.049"/><use xlink:href="#q" x="938.525"/><use xlink:href="#w" x="1000.049"/><use xlink:href="#x" x="1063.428"/><use xlink:href="#y" x="1118.408"/><use xlink:href="#q" x="1146.191"/><use xlink:href="#z" x="1207.715"/><use xlink:href="#DejaVuSans-20" x="1259.814"/><use xlink:href="#s" x="1291.602"/><use xlink:href="#t" x="1352.783"/><use xlink:href="#DejaVuSans-20" x="1387.988"/><use xlink:href="#A" x="1419.775"/><use xlink:href="#n" x="1484.758"/><use xlink:href="#z" x="1548.137"/><use xlink:href="#B" x="1600.236"/><use xlink:href="#C" x="1639.445"/><use xlink:href="#z" x="1666.936"/><use xlink:href="#DejaVuSans-20" x="1719.035"/><use xlink:href="#D" x="1750.822"/><use xlink:href="#s" x="1794.906"/><use xlink:href="#E" x="1856.088"/><use xlink:href="#y" x="1913.998"/><use xlink:href="#s" x="1941.781"/><use xlink:href="#DejaVuSans-20" x="2002.963"/><use xlink:href="#F" x="2034.75"/><use xlink:href="#w" x="2096.029"/><use xlink:href="#u" x="2159.408"/><use xlink:href="#DejaVuSans-20" x="2222.885"/><use xlink:href="#F" x="2254.672"/><use xlink:href="#z" x="2315.951"/><use xlink:href="#G" x="2368.051"/><use xlink:href="#w" x="2427.231"/><use xlink:href="#x" x="2490.609"/><use xlink:href="#H" x="2545.59"/><use xlink:href="#z" x="2581.674"/><use xlink:href="#B" x="2633.773"/><use xlink:href="#u" x="2672.982"/><use xlink:href="#DejaVuSans-20" x="2736.459"/><use xlink:href="#s" x="2768.246"/><use xlink:href="#I" x="2829.428"/><use xlink:href="#q" x="2888.607"/><use xlink:href="#r" x="2950.131"/><use xlink:href="#DejaVuSans-20" x="2991.244"/><use xlink:href="#B" x="3023.031"/><use xlink:href="#y" x="3062.24"/><use xlink:href="#o" x="3090.023"/><use xlink:href="#q" x="3187.436"/></g><defs><clipPath id="a"><path d="M60.825 29.04H1069.2v520.78H60.825z"/></clipPath></defs><path d="M92.578 29.219h25.9v25.9h-25.9z" paint-order="fill markers stroke"/><path fill="#5a5a5a" d="M92.578 68.345h25.9v25.9h-25.9z" paint-order="fill markers stroke"/><path d="M133.998 89.52q-.48 0-.96-.096-.48-.072-.912-.288-.408-.24-.744-.6-.312-.36-.528-.792-.192-.432-.288-.912-.072-.48-.072-.96 0-.624.144-1.224.168-.6.528-1.08.384-.504.888-.84.528-.336 1.104-.528.6-.192 1.2-.264.624-.072 1.248-.072h2.136v-1.296q0-.504-.168-1.008t-.552-.84-.888-.48-1.008-.144q-.48 0-.96.096-.456.096-.84.36t-.6.696-.216.888h-1.872q0-.552.144-1.08.168-.528.48-.984t.744-.768q.456-.336.96-.528.504-.216 1.056-.288t1.104-.072q.576 0 1.152.096.576.072 1.104.312t.96.624q.456.384.744.888t.408 1.08.12 1.152v8.76h-1.872v-2.064q-.216.528-.624.984-.384.432-.888.744-.504.288-1.08.408t-1.152.12m.72-1.68q.576 0 1.152-.168.6-.168 1.032-.552t.624-.936q.216-.576.216-1.176v-1.464h-2.136q-.384 0-.744.048-.36.024-.72.12-.336.072-.672.24-.336.144-.6.408t-.384.624q-.12.336-.12.696 0 .456.144.888.168.432.504.744t.792.432q.456.096.912.096m12.408 1.68q-.552 0-1.08-.072-.528-.048-1.032-.216-.504-.192-.96-.504-.432-.312-.768-.72-.312-.432-.48-.96t-.168-1.056v-.024h1.872q0 .456.24.864.24.384.624.624.408.216.84.312.456.072.912.072t.888-.072q.456-.096.84-.312.408-.24.648-.648.264-.408.264-.864 0-.408-.24-.768-.216-.36-.576-.576-.336-.24-.744-.336-.384-.12-.792-.24-.384-.12-.792-.24-.384-.12-.768-.264t-.768-.312q-.36-.192-.696-.432t-.624-.528q-.288-.312-.504-.672-.192-.36-.288-.768t-.096-.816q0-.528.144-1.032.168-.504.456-.936.288-.456.72-.768t.912-.504q.504-.192 1.008-.264.528-.072 1.056-.072t1.032.072q.528.072 1.008.264.504.168.912.48.432.288.72.72.312.432.456.936.168.504.168 1.008v.024h-1.872q0-.432-.216-.816t-.576-.6q-.36-.24-.792-.312-.408-.096-.84-.096t-.864.096q-.432.072-.792.312t-.576.648q-.216.384-.216.816t.216.792q.24.36.576.6.36.216.744.336.408.096.792.216.408.12.792.24.408.12.792.264t.744.336q.384.168.72.408t.6.552q.288.288.48.648.216.36.312.768.12.384.12.816 0 .528-.168 1.056t-.48.96-.768.744-.96.504q-.504.168-1.056.24-.528.072-1.056.072m9.648 4.728q.216-.72.432-1.464l.432-1.44.552-1.896-3.816-12.84h1.944l2.856 9.96 2.808-9.96h1.944l-5.208 17.64zm9.912-4.92v-12.72h1.872v2.184q.192-.504.504-.96t.744-.792q.456-.336.984-.48.552-.144 1.08-.144.6 0 1.176.168t1.008.552q.456.36.768.888.312.504.48 1.08.192.552.24 1.152.072.576.072 1.152v7.92h-1.872v-7.92q0-.408-.048-.792-.048-.408-.168-.768-.12-.384-.36-.72-.216-.336-.528-.576t-.696-.336q-.384-.12-.792-.12t-.792.12q-.384.096-.696.336t-.552.576q-.216.336-.336.72-.12.36-.168.768-.048.384-.048.792v7.92zm16.392.192q-.624 0-1.272-.144-.648-.12-1.2-.432-.552-.336-.984-.816-.408-.504-.672-1.08-.264-.6-.36-1.224-.096-.648-.096-1.296v-3.12q0-.648.096-1.272.096-.648.36-1.224.264-.6.672-1.08.432-.504.984-.816.552-.336 1.2-.456.648-.144 1.272-.144.6 0 1.2.12.6.096 1.128.36.552.264.984.696.432.408.72.936t.408 1.128q.144.576.144 1.176v.048h-1.872v-.024q0-.552-.168-1.08t-.552-.912q-.384-.408-.912-.576-.528-.192-1.08-.192-.408 0-.816.096-.384.096-.72.336t-.576.576q-.216.336-.36.72-.144.36-.192.768t-.048.816v3.12q0 .408.048.816t.192.792q.144.36.36.696.24.336.576.576t.72.336q.408.096.816.096.552 0 1.08-.168.528-.192.912-.576.384-.408.552-.936t.168-1.08v-.024h1.872v.048q0 .6-.144 1.2-.12.576-.408 1.104t-.72.96q-.432.408-.984.672-.528.264-1.128.36-.6.12-1.2.12m7.608-7.512v-1.68h8.928v1.68zm16.44 7.512q-.552 0-1.08-.072-.528-.048-1.032-.216-.504-.192-.96-.504-.432-.312-.768-.72-.312-.432-.48-.96t-.168-1.056v-.024h1.872q0 .456.24.864.24.384.624.624.408.216.84.312.456.072.912.072t.888-.072q.456-.096.84-.312.408-.24.648-.648.264-.408.264-.864 0-.408-.24-.768-.216-.36-.576-.576-.336-.24-.744-.336-.384-.12-.792-.24-.384-.12-.792-.24-.384-.12-.768-.264t-.768-.312q-.36-.192-.696-.432t-.624-.528q-.288-.312-.504-.672-.192-.36-.288-.768t-.096-.816q0-.528.144-1.032.168-.504.456-.936.288-.456.72-.768t.912-.504q.504-.192 1.008-.264.528-.072 1.056-.072t1.032.072q.528.072 1.008.264.504.168.912.48.432.288.72.72.312.432.456.936.168.504.168 1.008v.024h-1.872q0-.432-.216-.816t-.576-.6q-.36-.24-.792-.312-.408-.096-.84-.096t-.864.096q-.432.072-.792.312t-.576.648q-.216.384-.216.816t.216.792q.24.36.576.6.36.216.744.336.408.096.792.216.408.12.792.24.408.12.792.264t.744.336q.384.168.72.408t.6.552q.288.288.48.648.216.36.312.768.12.384.12.816 0 .528-.168 1.056t-.48.96-.768.744-.96.504q-.504.168-1.056.24-.528.072-1.056.072m13.728 0q-.576 0-1.152-.144t-1.056-.48q-.456-.336-.792-.816-.312-.504-.504-1.032-.192-.552-.264-1.128t-.072-1.152v-6.48h-2.64v-1.68h2.64v-4.92h1.872v4.92h3.888v1.68h-3.888v6.48q0 .336.024.696.024.336.096.672.096.312.24.648.144.312.36.552.24.24.576.384.336.12.672.12.456 0 .864-.216.432-.216.672-.6.24-.408.336-.864t.096-.912q0-.024-.024-.072v-.072h1.872v.24q0 .528-.096 1.056t-.312 1.032q-.216.48-.576.912-.336.408-.792.696-.456.264-.984.36-.528.12-1.056.12m9.552 0q-.6 0-1.2-.168-.576-.168-1.056-.528t-.816-.864q-.312-.504-.504-1.056-.192-.576-.264-1.176t-.072-1.2v-3.12q0-.6.072-1.2t.264-1.152q.192-.576.504-1.08.336-.504.816-.864t1.056-.528q.6-.168 1.2-.168.552 0 1.08.144.552.144.984.48.456.312.768.792.312.456.504.96v-7.104h1.872v17.64h-1.872v-2.184q-.192.504-.504.984-.312.456-.768.792-.432.312-.984.456-.528.144-1.08.144m.72-1.68q.408 0 .792-.096.408-.12.72-.36t.528-.576q.24-.336.36-.696.12-.384.168-.768.048-.408.048-.816v-3.12q0-.408-.048-.792-.048-.408-.168-.768-.12-.384-.36-.72-.216-.36-.528-.6t-.72-.336q-.384-.096-.792-.096t-.816.096q-.384.096-.72.336-.336.216-.6.552-.24.336-.384.72t-.192.792-.048.816v3.12q0 .408.048.816t.192.792.384.72q.264.336.6.576.336.216.72.312.408.096.816.096" aria-label="async-std" font-family="Iosevka" font-size="24" style="line-height:1.25;-inkscape-font-specification:&quot;Iosevka, Normal&quot;"/></svg>