<?xml version="1.0" encoding="UTF-8" standalone="no"?>
<svg
   height="276.9454"
   width="331.4541"
   viewBox="-51.45885 -25.7315 123.18401 53.446655"
   version="1.1"
   id="svg9"
   sodipodi:docname="CURL-Logo.wine.svg"
   inkscape:version="1.3 (0e150ed, 2023-07-21)"
   xmlns:inkscape="http://www.inkscape.org/namespaces/inkscape"
   xmlns:sodipodi="http://sodipodi.sourceforge.net/DTD/sodipodi-0.dtd"
   xmlns="http://www.w3.org/2000/svg"
   xmlns:svg="http://www.w3.org/2000/svg">
  <sodipodi:namedview
     id="namedview9"
     pagecolor="#ffffff"
     bordercolor="#666666"
     borderopacity="1.0"
     inkscape:showpageshadow="2"
     inkscape:pageopacity="0.0"
     inkscape:pagecheckerboard="0"
     inkscape:deskcolor="#d1d1d1"
     inkscape:zoom="0.98410156"
     inkscape:cx="55.88854"
     inkscape:cy="140.22943"
     inkscape:window-width="1920"
     inkscape:window-height="1027"
     inkscape:window-x="0"
     inkscape:window-y="25"
     inkscape:window-maximized="0"
     inkscape:current-layer="svg9" />
  <defs
     id="defs4">
    <symbol
       overflow="visible"
       id="a">
      <path
         d="m 15.031,-26.813 c 0,7.094 1.328,10.579 6.86,15.141 l 8.53,7.11 C 35.829,-0.125 38.595,0 45.329,0 H 63.61 c 3.844,0 7.938,-0.844 7.938,-5.766 0,-5.062 -4.563,-5.78 -7.938,-5.78 H 43.297 c -2.297,0 -4.578,-1.204 -6.625,-2.892 l -6.969,-5.89 c -1.812,-1.438 -3.125,-2.64 -3.125,-4.922 v -14.313 c 0,-2.28 1.313,-3.484 3.125,-4.937 l 6.969,-5.89 c 2.047,-1.672 4.328,-2.876 6.625,-2.876 h 20.312 c 3.375,0 7.938,-0.734 7.938,-5.78 0,-4.923 -4.094,-5.767 -7.938,-5.767 H 45.33 c -6.735,0 -9.5,0.126 -14.907,4.563 l -8.531,7.094 c -5.532,4.578 -6.86,8.062 -6.86,15.156 z m 0,0"
         id="path1" />
    </symbol>
    <symbol
       overflow="visible"
       id="b">
      <path
         d="m 71.547,-56.875 c 0,-3.969 -0.844,-7.938 -5.766,-7.938 -4.937,0 -5.781,3.97 -5.781,7.938 v 33.547 l -16.953,10.703 c -1.078,0.719 -2.281,1.078 -3.61,1.078 h -3.843 c -2.766,0 -5.766,-0.719 -6.735,-2.406 -0.968,-1.672 -1.078,-4.813 -1.203,-7.453 l -1.203,-35.469 c -0.125,-3.734 -0.719,-7.938 -5.656,-7.938 -5.281,0 -5.89,4.454 -5.766,8.657 l 1.203,36.312 c 0.235,6.25 0.125,11.188 5.297,15.64 C 25.375,-0.968 28.984,0 32.234,0 h 8.532 c 3.125,0 6.25,-1.438 9.984,-3.844 l 9.375,-6.14 v 1.921 c 0,3.97 0.844,8.063 5.766,8.063 6.14,0 5.656,-5.89 5.656,-8.531 z m 0,0"
         id="path2" />
    </symbol>
    <symbol
       overflow="visible"
       id="c">
      <path
         d="m 15.031,-7.938 c 0,3.97 0.844,7.938 5.766,7.938 4.937,0 5.781,-3.969 5.781,-7.938 V -37.156 L 42.688,-50.5 c 2.046,-1.688 3.609,-2.766 5.765,-2.766 h 3.375 c 2.766,0 5.531,0 6.969,2.047 1.203,1.672 1.203,3.125 1.203,5.047 0,3.719 1.688,7.094 5.89,7.094 4.938,0 5.657,-4.094 5.657,-8.063 0,-5.28 -1.328,-9.25 -5.172,-13.109 -3.125,-3.125 -6.844,-4.563 -11.297,-4.563 h -9.266 c -3.609,0 -6.968,2.282 -10.218,4.922 l -9.016,7.47 v -4.704 c 0,-3.844 -1.203,-7.688 -5.781,-7.688 -5.281,0 -5.766,4.329 -5.766,8.532 z m 0,0"
         id="path3" />
    </symbol>
    <symbol
       overflow="visible"
       id="d">
      <path
         d="m 49.297,-80.563 c 0,-6.859 -1.922,-8.062 -8.531,-8.062 H 28.625 c -3.86,0 -7.938,0.844 -7.938,5.766 0,5.062 4.563,5.78 7.938,5.78 h 9.14 v 65.532 h -9.14 c -3.86,0 -7.938,0.844 -7.938,5.781 C 20.688,-0.719 25.25,0 28.625,0 h 29.328 c 3.375,0 7.938,-0.719 7.938,-5.766 0,-4.937 -4.079,-5.78 -7.938,-5.78 h -8.656 z m 0,0"
         id="path4" />
    </symbol>
  </defs>
  <g
     id="g9"
     transform="matrix(0.86057215,0,0,0.86057215,-232.08951,-43.295797)">
    <path
       d="m 333.977,14.043 a 4.96,4.96 0 0 1 -4.961,-4.961 4.958,4.958 0 0 1 4.96,-4.96 4.9605,4.9605 0 1 1 0,9.921 m -49.269,84.762 a 4.96,4.96 0 0 1 -4.96,-4.961 4.958,4.958 0 0 1 4.96,-4.961 4.957,4.957 0 0 1 4.957,4.96 4.96,4.96 0 0 1 -4.957,4.962 M 333.977,0 a 9.082,9.082 0 0 0 -9.082,9.082 c 0,1.07 0.27,2.066 0.609,3.02 l -42.606,73.023 c -4.117,0.863 -7.273,4.344 -7.273,8.719 a 9.082,9.082 0 0 0 9.082,9.082 c 5.012,0 9.078,-4.067 9.078,-9.082 0,-1.008 -0.27,-1.93 -0.57,-2.836 l 42.82,-73.262 c 3.992,-0.957 7.024,-4.379 7.024,-8.664 A 9.082,9.082 0 0 0 333.977,0"
       fill="#0c544c"
       id="path5" />
    <path
       d="m 296.816,14.043 a 4.96,4.96 0 0 1 -4.96,-4.961 4.958,4.958 0 0 1 4.96,-4.96 4.957,4.957 0 0 1 4.957,4.96 4.96,4.96 0 0 1 -4.957,4.961 m -49.273,84.762 a 4.961,4.961 0 1 1 0,-9.922 4.958,4.958 0 0 1 4.96,4.96 4.96,4.96 0 0 1 -4.96,4.962 M 296.816,0 a 9.08,9.08 0 0 0 -9.082,9.082 c 0,1.07 0.27,2.066 0.61,3.02 l -42.606,73.023 c -4.12,0.863 -7.277,4.344 -7.277,8.719 a 9.082,9.082 0 0 0 18.164,0 c 0,-1.008 -0.27,-1.93 -0.57,-2.836 l 42.82,-73.262 c 3.992,-0.957 7.023,-4.379 7.023,-8.664 0,-5.016 -4.07,-9.082 -9.082,-9.082 m -67.859,29.227 a 4.963,4.963 0 0 1 4.961,4.96 4.96,4.96 0 1 1 -4.96,-4.96 m -0.001,14.043 a 9.082,9.082 0 0 0 9.082,-9.082 c 0,-1.004 -0.273,-1.93 -0.574,-2.836 -1.203,-3.606 -4.5,-6.247 -8.508,-6.247 -0.64,0 -1.203,0.239 -1.809,0.368 -4.117,0.859 -7.273,4.34 -7.273,8.715 a 9.082,9.082 0 0 0 9.082,9.082 m -4.961,22.652 a 4.961,4.961 0 1 1 9.922,0 4.96,4.96 0 0 1 -4.961,4.957 4.96,4.96 0 0 1 -4.96,-4.957 m 14.042,0 c 0,-1.008 -0.273,-1.93 -0.574,-2.836 -1.203,-3.606 -4.496,-6.246 -8.508,-6.246 -0.64,0 -1.203,0.238 -1.809,0.363 -4.117,0.863 -7.273,4.344 -7.273,8.719 0,5.012 4.066,9.082 9.082,9.082 5.016,0 9.082,-4.07 9.082,-9.082"
       fill="#073551"
       id="path6" />
  </g>
</svg>
