<svg xmlns="http://www.w3.org/2000/svg" width="55.058" height="55.058" viewBox="0 0 55.058 55.377"><g transform="translate(-77.009 -98.17)scale(1.13006)"><rect width="44.133" height="44.133" x="70.44" y="89.307" rx="7.603" ry="7.603" style="fill:#f8aa18;fill-opacity:.983988;stroke:none;stroke-width:3.2053;stroke-linecap:square;stroke-miterlimit:1000;stroke-dasharray:none;paint-order:fill markers stroke"/><path d="M96.642 96.186q-7.303 0-11.535 4.232-4.37 4.368-4.369 11.126 0 6.554 4.095 10.785 4.027 4.232 10.921 4.232c3.28 0 6.093-.7 8.448-2.087-1.017-1.354-2.33-3.451-2.974-4.992l.012-.066q-2.24 1.138-5.008 1.138-3.617 0-6.074-2.321-2.595-2.594-2.595-6.894 0-4.164 2.458-6.62 2.526-2.527 6.348-2.526 2.517 0 4.756 1.107l-.006.033c.643-1.472 2.162-3.93 3.156-5.211-2.395-1.287-4.938-1.936-7.632-1.936z" class="logo-text" style="font-size:37.1164px;-inkscape-font-specification:&quot;Futura PT, Normal&quot;;fill:#1c1c1c;fill-opacity:.984314;stroke-width:1.70648"/></g></svg>