<svg xmlns="http://www.w3.org/2000/svg" xml:space="preserve" width="560.658" height="861.883" viewBox="0 0 148.341 228.04"><path d="M160.767 260.998h-74.01l-.16-5.138-.16-5.137.25-1.323c.138-.727.486-2.17.775-3.204s1.094-3.406 1.79-5.269c.695-1.863 1.421-3.629 1.614-3.925l.35-.538.615-2.969c.339-1.632.616-3.094.616-3.247v-.28l-1.38-.33c-.759-.183-1.38-.41-1.38-.504s-.456-.352-1.012-.57l-1.013-.399.16-.706a508 508 0 0 1 1.123-4.599c.53-2.14 1.028-4.06 1.107-4.266l.144-.375-.548-.25c-.3-.136-.66-.433-.798-.658l-.252-.41.329-.793c.18-.436.64-1.127 1.021-1.535l.693-.741h1.266l.745-.628c.41-.344.878-.627 1.041-.627h.296l-.52-.66-.52-.662v-1.032l-.001-1.033-1.495-.728c-.822-.401-1.894-1.059-2.383-1.461l-.888-.732v-.427c0-.235.505-1.314 1.123-2.398s1.767-2.831 2.554-3.883c.787-1.051 2.229-2.714 3.204-3.695l1.774-1.784 1.521-.768c.837-.422 1.937-.845 2.446-.94l.926-.174-.002-.411-.002-.412-.893-.607-.892-.608-.4-.772-.398-.772.016-1.056c.008-.581.146-1.45.305-1.932l.289-.876.86-.755.859-.754 1.063-.286 1.063-.287 1.237.164c.68.09 1.558.33 1.95.533l.712.368 1.018 1.288 1.018 1.289-.327.207a1.7 1.7 0 0 1-.766.211l-.439.004v.51c0 .28.18.93.4 1.443l.398.932.061 1.432.062 1.432-.356.136a2.7 2.7 0 0 1-.796.137h-.441l-.291.639c-.16.351-.291.686-.291.744s1.41 1.16 3.132 2.45c1.724 1.288 3.573 2.59 4.11 2.892l.977.548 1.633-1.692a81 81 0 0 0 2.645-2.878c.557-.651 1.094-1.442 1.194-1.756s.453-1.003.786-1.531l.606-.96.835-.349.835-.349 1.179-1.79c.649-.984 1.914-3.153 2.813-4.818a143 143 0 0 0 2.885-5.682c.688-1.46 2.21-4.8 3.384-7.42 1.173-2.623 3.413-7.985 4.977-11.918a794 794 0 0 0 4.768-12.293c1.059-2.83 2.802-7.57 3.876-10.538a533 533 0 0 0 4.1-11.917 753 753 0 0 0 3.312-10.286c.64-2.07 1.934-6.53 2.875-9.91s2.018-7.275 2.391-8.655l.679-2.51-.943-.752a138 138 0 0 1-2.34-1.932l-1.396-1.18-.183.296c-.1.163-.321 1.07-.49 2.016l-.307 1.72-1.148-.118c-.631-.066-1.571-.272-2.089-.46l-.94-.34v-.528l-.855-.31-.854-.308-.133-.347-.133-.346.467-1.544c.258-.85.654-1.829.882-2.176l.414-.631.858-.36c.472-.196.859-.446.859-.555v-.196l-1.677.106-1.677.107-.833-.448-.833-.449-.665-1.36-.665-1.358-.119-1.844-.118-1.844.164-.653.164-.654 1.31-.617c.721-.339 1.029-.538.684-.443s-.966.18-1.38.186l-.753.012-.452-.878-.453-.878.139-1.1.138-1.098.485-.783.485-.783.833-.502.832-.501 1.82.01c1 .006 1.817-.05 1.816-.125s-.331-.324-.734-.553l-.734-.418-.422-.816-.422-.816.12-1.064.12-1.065.573-.805.573-.804 1.029-.467 1.028-.467.824-.006.823-.005.886.37.886.37-.237.423-.236.422.466 1.026c.256.565.468 1.288.471 1.607.003.32.125.804.27 1.076l.265.494.927-.16c.51-.088 1.774-.324 2.809-.525 1.035-.2 2.785-.645 3.889-.988s2.616-.929 3.361-1.303l1.354-.68.627-1.505c.345-.828 1.393-3.577 2.329-6.108.936-2.532 1.738-4.631 1.782-4.665s1.49-1.18 3.212-2.548l3.131-2.485 2.388-1.449 2.388-1.448 1.159-2.19 1.159-2.189 4.036-3.066 4.036-3.066 3.837 1.873c2.11 1.03 5.305 2.468 7.098 3.194l3.262 1.32.254 1.598.254 1.599 3.51 1.233 3.508 1.234.879.701c.482.386 1.78 1.377 2.885 2.203 1.104.827 3.057 2.207 4.341 3.067l2.335 1.564.148.424c.082.232.508 1.215.947 2.184l.798 1.761.783.892.783.891.266 9.766c.147 5.372.375 13.944.508 19.05.132 5.105.3 10.637.371 12.293s.188 4.59.257 6.523c.07 1.931.238 7.746.374 12.92.136 5.175.365 14.376.51 20.447.145 6.072.37 15.104.5 20.071l.238 9.032.171 46.1.171 46.1zm29.406-3.561c.044-.043.314-1.659.6-3.59.287-1.931.967-7.971 1.51-13.421.544-5.45 1.11-11.378 1.258-13.172s.385-5.068.528-7.276c.143-2.207.375-7.344.516-11.415.14-4.07.344-11.352.452-16.182l.195-8.781-.124-5.085-.124-5.084-.15.15c-.084.083-.335 1.75-.56 3.705a430 430 0 0 1-.938 7.443c-.292 2.139-.752 6.09-1.022 8.781-.27 2.69-.608 6.53-.752 8.53-.143 2-.375 6.065-.516 9.032-.14 2.967-.312 5.958-.38 6.648-.07.69-.305 5.32-.524 10.287l-.398 9.032-.015 8.404-.016 8.405.191 1.834c.105 1.008.226 1.798.27 1.755m-93.385-3.058c1.683-.093 3.831-.24 4.773-.325l1.714-.156-.174-3.789-.175-3.788 1.259-5.268c.692-2.898 1.392-5.855 1.556-6.571l.297-1.303-.16-.5c-.087-.276-1.129-1.61-2.315-2.963-1.186-1.354-2.224-2.44-2.308-2.414-.084.027-.337.855-.561 1.842-.225.986-.599 3.053-.83 4.593l-.54 3.601-.12.801-1.606 3.254-1.604 3.254-.5 1.715c-.276.944-.74 2.957-1.03 4.475s-.575 2.974-.631 3.236l-.104.476zm58.664-5.549a411 411 0 0 0 1.991-10.537c.552-3.174 1.275-7.69 1.607-10.035.331-2.346.886-6.693 1.232-9.66.346-2.966.687-6.184.759-7.15l.13-1.756-.359 1.38c-.197.759-.751 3.302-1.233 5.65-.481 2.35-1.439 7.656-2.128 11.792s-1.535 9.835-1.88 12.664a546 546 0 0 0-.89 7.724c-.146 1.42-.254 3.056-.24 3.638l.024 1.057zm-38.42 4.278 2.887-.173.276-.296c.152-.163.467-1.2.7-2.304.234-1.103 1.11-4.942 1.95-8.53.838-3.587 3.09-12.788 5.004-20.447 1.915-7.658 3.608-14.4 3.763-14.983l.281-1.06 1.954-1.24 1.954-1.24.144-.711c.079-.391.322-1.784.54-3.095.218-1.31.952-5.375 1.63-9.031s1.967-10.262 2.865-14.677c.899-4.416 1.797-8.628 1.997-9.361s.54-1.58.759-1.882 1.005-1.322 1.748-2.267l1.351-1.72.93-3.173c.513-1.745 1.082-3.536 1.265-3.979.184-.443 1.343-2.096 2.575-3.673l2.241-2.867.546-2.975c.3-1.637 1.056-5.742 1.68-9.123.625-3.38 1.35-7.276 1.614-8.655l1.867-9.785c.764-4.002 1.733-8.913 2.155-10.913s1.114-5.044 1.538-6.763l.771-3.125-.84-.701c-.462-.386-.903-.701-.98-.701s-.58 1.609-1.117 3.575-1.64 5.946-2.452 8.844a376 376 0 0 1-2.737 9.282 963 963 0 0 1-2.907 9.032 538 538 0 0 1-3.47 10.161 701 701 0 0 1-3.71 10.16c-1.038 2.76-2.67 7.05-3.629 9.534-.958 2.484-2.76 7-4.004 10.036-1.245 3.036-3.088 7.326-4.097 9.534a261 261 0 0 1-4.067 8.386c-1.228 2.404-2.912 5.451-3.743 6.77l-1.51 2.398.393 1.231.393 1.232-.328.78c-.18.428-.738 1.267-1.238 1.863l-.91 1.084-.255.948c-.14.522-.364 2.289-.498 3.927l-.243 2.98.247 2.514c.136 1.384.464 3.983.73 5.777s.55 3.996.632 4.893l.15 1.63-.39 1.299-.39 1.298-.768.646-.768.646h-1.264l-.71-.506-.711-.506-.27-.82-.272-.821-.528-.04c-.29-.022-.756-.243-1.036-.492-.28-.25-.679-.848-.887-1.331l-.379-.878-.121-3.196-.122-3.195-.314-.26-.314-.261-.16.854-.16.854-.61.657-.61.658h-2.158l-1.745-.499-1.746-.5-.18.186-.182.186.583 1.254.583 1.255.678.627c.373.345.837.932 1.031 1.305l.353.677v1.966l1.129 1.13 1.129 1.128v1.46l-.401.572-.4.572.283.686c.156.377.731 1.358 1.278 2.18l.994 1.496v.841c.001.463-.165 1.485-.368 2.27-.204.785-.83 3.793-1.392 6.685l-1.021 5.257-.15 2.163-.148 2.164.164.656.165.656 1.311 1.037 1.312 1.036zm22.556-.39c.145 0 .422-.253.615-.564.192-.31.657-1.806 1.033-3.324s1.183-4.848 1.794-7.4a818 818 0 0 0 2.099-9.033c.543-2.415 1.663-7.495 2.489-11.29s2.575-12.205 3.887-18.69 3.19-15.913 4.174-20.95 2.678-14.011 3.764-19.945a1340 1340 0 0 1 3.987-20.698c1.106-5.45 2.127-10.249 2.267-10.662l.256-.753-.124 1.505c-.068.828-.24 3.143-.38 5.143-.142 2.001-.366 5.219-.499 7.15-.132 1.932-.234 4.077-.226 4.767l.016 1.255 1.196-6.147c.658-3.38 1.402-7.36 1.652-8.845.251-1.484.496-2.658.545-2.61.048.049-.082 1.94-.29 4.204s-.497 5.3-.643 6.75c-.146 1.448-.485 4.44-.752 6.648-.268 2.208-.769 6.893-1.114 10.412-.345 3.518-.85 8.824-1.121 11.791a871 871 0 0 0-1.004 12.293c-.281 3.795-.563 8.82-.627 11.165l-.117 4.265.36-2.007c.199-1.104.643-3.927.988-6.272s1.028-7.257 1.518-10.914 1.177-8.624 1.526-11.039 1.03-6.93 1.514-10.035c.483-3.105.999-6.412 1.146-7.349.146-.936.312-1.657.368-1.601s-.123 3.588-.398 7.85-.564 9.837-.643 12.39c-.08 2.552-.193 5.206-.253 5.895l-.11 1.255.218-.502c.12-.276.794-5.3 1.497-11.164.703-5.865 1.452-12.582 1.664-14.928s.782-8.33 1.268-13.297.991-10.274 1.123-11.791.351-3.89.488-5.269.36-3.864.495-5.52.583-7.018.995-11.917c.411-4.898.818-9.716.902-10.705l.154-1.8-.49-.49c-.27-.27-.589-.532-.71-.584-.12-.051-.388-.394-.595-.76-.207-.367-1.75-2.077-3.43-3.8l-3.053-3.132-1.591 1.067c-.876.588-1.713 1.225-1.86 1.416-.147.192-.474 1.278-.727 2.414l-.458 2.065 1.754 1.949c.965 1.072 1.95 2.252 2.19 2.623l.437.673-.918 3.968a330 330 0 0 1-1.273 5.337l-.354 1.37v2.794l.406.58c.223.318 1.014.968 1.756 1.443l1.35.864v.97l-.485.26-.485.26h-2.316l-.764-.395c-.42-.218-.8-.358-.845-.313s-.543 2.734-1.106 5.977a2239 2239 0 0 1-1.654 9.407 1803 1803 0 0 0-1.393 7.903 764 764 0 0 1-1.619 8.93c-.47 2.497-.976 4.855-1.122 5.24s-.756 1.243-1.355 1.91l-1.09 1.212-.43 1.703c-.236.937-.706 2.945-1.044 4.463-.337 1.518-1.005 4.576-1.484 6.797s-1.032 4.478-1.23 5.018l-.359.98-.017-.544c-.01-.3.377-3.686.86-7.527.482-3.84.868-7.151.858-7.358s-.563 1.225-1.23 3.183c-.666 1.958-1.565 4.257-1.999 5.11a40 40 0 0 1-1.622 2.854l-.834 1.304-.638 3.496c-.351 1.923-1.103 5.98-1.67 9.016s-1.304 6.93-1.637 8.655a309 309 0 0 0-1.273 7.23c-.367 2.252-.607 4.154-.533 4.228s.58-.752 1.123-1.835c.544-1.084 1.192-2.619 1.44-3.41.25-.792.495-1.398.546-1.347.051.052-.302 2.167-.784 4.701-.483 2.535-1.333 7.148-1.888 10.253a857 857 0 0 0-1.868 10.914c-.471 2.897-.92 5.946-.998 6.774l-.142 1.505.639-2.634c.35-1.45 1.256-5.231 2.012-8.405s2.374-10.132 3.596-15.462 2.91-12.273 3.751-15.43a382 382 0 0 1 3.06-10.755c.842-2.76 1.584-5.074 1.649-5.143.065-.07.05.27-.032.752a1754 1754 0 0 0-1.412 9.158 1178 1178 0 0 0-2.004 13.673c-.408 2.967-1.016 6.918-1.352 8.781s-1.362 7.282-2.28 12.042a4172 4172 0 0 0-3.012 15.806c-.739 3.933-1.745 9.408-2.235 12.168-.491 2.76-1.01 5.921-1.154 7.025s-.323 2.317-.398 2.697l-.138.69zm31.234-133.993c-.055.058-.099-.055-.098-.25 0-.196.12-1.654.265-3.241s.648-5.99 1.119-9.785c.47-3.794 1.095-8.536 1.388-10.537.294-2 .586-3.69.65-3.755.063-.065.048.951-.035 2.258a952 952 0 0 1-.523 7.393c-.204 2.76-.546 6.26-.76 7.777-.212 1.518-.729 4.397-1.147 6.398s-.805 3.685-.86 3.742m32.293 130.105c.093-1.242.169-7.96.167-14.928s-.077-14.193-.168-16.056l-.164-3.387-.242 2.007-.242 2.007-.003 11.666c-.002 6.417.044 13.134.103 14.928s.167 3.882.242 4.641l.136 1.38zm-76.404-.25c.21-.553 1.22-4.391 2.243-8.53 1.023-4.14 2.196-9.39 2.607-11.667s.81-4.704.885-5.394l.136-1.254-.38 1.254c-.21.69-1.047 3.908-1.863 7.15s-1.987 8.493-2.604 11.666c-.616 3.174-1.185 6.222-1.263 6.774l-.144 1.004zm42.383-9.534c.193-1.242.863-5.984 1.49-10.538a826 826 0 0 0 1.888-14.802c.413-3.587 1.149-10.418 1.635-15.178s.948-9.39 1.026-10.287c.077-.897.41-4.17.74-7.275s.77-7.508.98-9.785.444-5.664.521-7.526.2-3.952.272-4.642l.133-1.254-.232.25c-.127.139-.414 1.211-.637 2.384s-.911 5.35-1.528 9.283c-.616 3.933-1.358 9.182-1.648 11.666l-1.024 8.781a527 527 0 0 0-.851 7.903c-.196 2-.59 6.178-.875 9.283s-.574 6.21-.64 6.899-.23 2.553-.362 4.14c-.133 1.586-.41 5.82-.616 9.408s-.43 8.103-.498 10.035l-.123 3.513zm-14.854-3.638c.069-.07.865-4.529 1.77-9.91.904-5.382 1.929-11.873 2.276-14.426.348-2.553.748-5.883.89-7.401.141-1.518.257-3.09.257-3.492s-.06-.672-.132-.599-.529 2.152-1.013 4.62-1.108 5.9-1.385 7.625a217 217 0 0 0-.856 5.895c-.193 1.518-.575 4.51-.85 6.649s-.56 4.622-.632 5.52c-.073.896-.205 2.533-.292 3.637s-.102 1.95-.033 1.882m-61.59-6.774c.13-.207.31-.94.399-1.63l.163-1.255-.26.42c-.142.232-.322.966-.398 1.631l-.14 1.21zm116.51-5.018.224-5.143-.129-14.551-.128-14.552-.379-8.404c-.208-4.623-.4-8.8-.425-9.283-.026-.483-.131.477-.234 2.133a671 671 0 0 1-.459 6.648l-.27 3.638-.007 6.523c-.004 3.587.11 9.797.253 13.799s.44 10.6.66 14.665.434 7.565.476 7.778.103.726.135 1.14c.031.414.158-1.562.282-4.39zm-118.24 4.767c.12 0 .279-.254.353-.564s.196-1.13.272-1.82l.138-1.254-.332 1.004a18 18 0 0 0-.49 1.819l-.158.815zm-1.547-.753c.104 0 .462-1.27.795-2.822s.66-3.048.727-3.324l.12-.502-.159.143c-.088.08-.499 1.434-.914 3.011-.414 1.577-.754 3.008-.755 3.18 0 .173.083.314.186.314m21.904-3.01c.13 0 .237-.15.237-.333s-.282-.598-.627-.922l-.627-.589v.364c0 .2.175.615.39.922s.497.558.627.558m9.6-2.055.547-.078.439-.878.438-.878-.012-1.129c-.007-.62-.212-2.597-.456-4.39l-.443-3.262-.188 1.435c-.104.789-.463 2.65-.798 4.135-.336 1.485-.61 3.02-.61 3.411s.12.936.267 1.212l.268.5zm-2.902-2.76.407-.078.447-1.756c.246-.966.688-3.11.982-4.766l.534-3.011.186-4.641c.102-2.553.144-4.692.093-4.753-.05-.062-.456.322-.9.853-.445.53-2.019 2.613-3.498 4.627-1.479 2.015-2.693 3.732-2.697 3.816-.004.085.262.102.591.04l.6-.115.527.282.527.282.423.808.424.808.16 3.261.16 3.262.314.58.314.58zm-25.292-.58c.112-.275.443-1.124.736-1.886s.533-1.467.533-1.568-.092-.183-.204-.183c-.113 0-.453.706-.756 1.568-.302.862-.541 1.794-.53 2.07l.019.501zm-.745-2.122c.406-1.167.687-2.173.624-2.237-.064-.063-.151-.067-.196-.01-.044.058-.326.764-.627 1.57-.3.805-.545 1.765-.543 2.132l.003.668zm-1.921-.01h.33l.423-.886c.232-.488.422-.94.422-1.004s-.114-.117-.254-.117-.478.367-.752.816c-.273.448-.497.9-.498 1.003 0 .104.148.188.329.188m18.11-7.06.753.024 2.006-.822 2.006-.822.928-1.328.928-1.328-3.43-1.718c-1.886-.945-3.465-1.683-3.507-1.64-.043.042-.356 1.39-.696 2.996s-.619 3.25-.619 3.652v.734l.44.114c.24.064.777.126 1.191.139m118.74-2.222c.066 0 .044-3.133-.048-6.963a1966 1966 0 0 0-.412-14.363c-.134-4.07-.416-10.9-.625-15.178s-.548-10.544-.752-13.924a837 837 0 0 0-.633-9.66c-.145-1.931-.547-6.275-.892-9.653-.346-3.378-.694-6.2-.773-6.272s-.069 4.441.023 10.03.222 11.177.29 12.419c.068 1.241.236 4.628.375 7.526.138 2.898.362 7.414.497 10.035.136 2.622.297 5.275.36 5.896.062.621.181 2.315.265 3.764.083 1.448.373 5.4.644 8.78.271 3.381.538 6.599.592 7.15.055.553.295 3.121.535 5.708.239 2.588.489 4.705.554 4.705m-14.058-13.047c.066-.344.047-6.554-.04-13.798l-.16-13.172-.322-4.014-.322-4.014-.145 2.007c-.08 1.104-.096 6.297-.036 11.54l.107 9.534.364 5.77c.2 3.174.38 5.997.399 6.273l.035.502zm-28.209-6.779c.078-.072.264-1.54.414-3.262s.492-5.5.761-8.399c.27-2.897.667-7.413.884-10.035s.555-7.194.753-10.16c.198-2.968.42-5.903.492-6.524.073-.62.358-5.137.634-10.035.275-4.899.552-9.64.615-10.537s.18-2.76.262-4.14c.081-1.38.313-4.767.514-7.527.202-2.76.482-6.203.622-7.652l.363-3.763c.058-.62.184-2.12.279-3.33.095-1.212.22-2.156.277-2.098.058.057-.015 2.855-.161 6.216s-.43 9.273-.632 13.136c-.2 3.864-.546 10.864-.767 15.555a941 941 0 0 0-.595 15.806c-.107 4.002-.16 10.21-.12 13.799.04 3.587.158 8.103.262 10.035l.19 3.512.174-2.258c.096-1.241.41-5.927.697-10.411.287-4.485.63-9.841.764-11.903.133-2.063.495-6.6.803-10.084l.562-6.333.202.125.203.125.009 4.564c.005 2.51.113 7.33.24 10.71.128 3.381.31 8.322.407 10.98.096 2.657.202 4.802.234 4.766.033-.036.13-1.307.215-2.825.086-1.518.27-5.3.411-8.405s.363-8.128.494-11.164c.132-3.036.35-10.713.487-17.06s.361-14.025.499-17.06c.137-3.036.313-7.439.39-9.785.076-2.346.308-6.58.515-9.408.208-2.829.56-7.062.782-9.408.223-2.346.408-4.406.412-4.579.004-.172.072-.313.152-.313s.172 1.214.203 2.697.187 5.914.346 9.847.322 7.32.363 7.526c.041.207.083 1.101.094 1.987.01.885.063 1.562.118 1.505s.343-4.169.642-9.137l.543-9.031.219-.502.219-.502.017 2.133c.01 1.172.18 5.632.378 9.91.199 4.277.44 9.978.536 12.668l.175 4.891.187-.505.187-.505.318-8.651.317-8.651-.03-21.827c-.017-12.005-.105-23.895-.197-26.422l-.166-4.595-.183.205c-.1.112-.32 1.107-.488 2.211s-.977 5.338-1.8 9.408a927 927 0 0 0-2.098 10.663 378 378 0 0 0-1.12 6.42 596 596 0 0 0-1.142 7.402c-.345 2.333-.639 4.637-.654 5.12l-.028.878-.24-1.13-.24-1.128.145-16.81c.08-9.245.201-19.067.27-21.827l.123-5.017-.245.502c-.135.275-.639 2.533-1.12 5.017-.48 2.484-1.494 7.508-2.253 11.165l-1.38 6.648-.01-.878c-.005-.483.1-1.838.233-3.01.133-1.174.41-4.052.613-6.398s.44-5.62.525-7.276l.154-3.01-1.15 1.254c-.632.69-1.299 1.537-1.482 1.882l-.332.627-.29 2.76c-.16 1.517-.401 4.124-.538 5.792s-.42 6.455-.631 10.638c-.211 4.184-.325 7.664-.255 7.735.071.07.13-.156.13-.503s.101-.959.226-1.359.42-1.574.655-2.609.535-2.051.666-2.258l.239-.376-.146 5.52c-.08 3.035-.21 6.873-.288 8.53l-.14 3.01.807-1.2c.445-.659.858-1.15.918-1.09s-.07 2.632-.29 5.716-.45 6.227-.512 6.986-.18 2.508-.263 3.888c-.082 1.38-.255 3.638-.384 5.018-.13 1.38-.518 6.517-.864 11.415-.346 4.899-.847 12.294-1.113 16.433-.267 4.14-.552 8.882-.634 10.537-.083 1.656-.198 3.801-.258 4.767s-.177 3.337-.26 5.269a698 698 0 0 1-.525 9.533l-.371 6.022-.144 11.666c-.078 6.416-.079 11.607-.002 11.535zm7.183-109.506-.216 1.004.132-2.258c.073-1.242.231-2.88.352-3.638l.22-1.38-.136 2.634c-.075 1.45-.233 3.086-.352 3.638m10.597 103.74c.097-1.449.292-5.061.433-8.028l.256-5.394-.022-9.157c-.012-5.037-.095-10.343-.184-11.792l-.163-2.634-.19 2.258c-.104 1.241-.299 4.46-.432 7.15l-.241 4.892-.002 10.16c-.001 5.59.081 11.29.183 12.67l.184 2.51zm26.002-14.802c.066 0 .041-2.738-.056-6.084s-.396-9.45-.665-13.564-.54-7.784-.601-8.154c-.062-.37-.292-2.819-.511-5.44s-.502-5.557-.629-6.523l-.23-1.756.118 6.522c.064 3.588.232 8.725.373 11.416.14 2.69.42 6.755.62 9.032.199 2.276.61 6.482.912 9.345s.603 5.206.67 5.206m-21.06-17.06h.223l.182-6.586.182-6.586-.13-17.813-.13-17.812-.284-3.513c-.155-1.932-.371-3.907-.479-4.39l-.196-.878-.298 2.76a300 300 0 0 0-.578 6.146l-.28 3.387.03 7.15c.017 3.933.144 10.142.282 13.799s.313 7.834.39 9.283.304 4.892.503 7.652c.198 2.76.36 5.554.36 6.21l.001 1.19zm-32.182-1.38c.043-.138.529-3.694 1.08-7.903s1.232-9.485 1.513-11.726.965-8.62 1.52-14.175 1.227-12.246 1.493-14.868c.267-2.622.56-5.643.654-6.715l.17-1.948.2-.123.2-.124.784.66c.431.364.823.618.87.567s.27-2.522.493-5.488c.224-2.967.532-6.656.683-8.2.152-1.542.233-2.934.18-3.093l-.097-.29-.97 1.408c-.532.775-1.055 1.461-1.16 1.526l-.192.119.1-1.443c.055-.793.278-4.209.496-7.59.218-3.38.67-9.4 1.005-13.379s.61-7.342.61-7.476v-.242l-.611.45-.61.452-.393 1.63c-.216.897-.727 3.494-1.137 5.77-.409 2.277-.86 5.1-1.002 6.273s-.482 4.39-.755 7.15c-.274 2.76-.676 7.317-.893 10.128s-.356 5.148-.309 5.195.646-.188 1.33-.523 1.441-.613 1.683-.617l.439-.008v1.184l-.651.976c-.358.537-1.127 1.484-1.708 2.105s-1.187 1.305-1.347 1.52l-.29.39-1.008 12.28c-.555 6.753-1.067 12.956-1.138 13.784s-.236 3.199-.368 5.268-.357 6.643-.5 10.161a610 610 0 0 0-.351 11.792c-.05 2.967-.056 5.28-.013 5.143m46.196-32.364c.07-.276.07-4.51-.002-9.408l-.13-8.907-.414-4.14c-.228-2.276-.508-4.816-.623-5.644l-.208-1.506-.03 5.269-.029 5.268.372 5.896c.205 3.243.483 7.307.62 9.032.135 1.725.262 3.475.28 3.889l.036.752zm6.548-4.39c.063 0 .038-2.739-.055-6.085s-.221-6.93-.285-7.965-.237-3.745-.386-6.022c-.149-2.276-.489-6.962-.756-10.411-.268-3.45-.715-8.417-.994-11.04-.279-2.621-.612-5.556-.74-6.522l-.233-1.756.13 5.895c.07 3.243.228 7.872.35 10.287a502 502 0 0 0 1.365 18.816c.188 2 .6 6.15.916 9.22s.626 5.582.688 5.582m-73.46-20.448c.1-.414.187-1.035.194-1.38l.012-.627-.364.996-.365.995.17.384.171.385zm-2.05-.23c.119-.074.353-.825.519-1.67s.252-1.585.192-1.646-.294.623-.52 1.519c-.224.896-.409 1.697-.409 1.78s.098.09.218.017m-1.296-.74c.097-.097.374-.817.616-1.6.243-.783.4-1.464.35-1.514-.049-.05-.326.543-.616 1.316-.29.774-.526 1.535-.526 1.69v.284zm-.914-.41c.1 0 .254-.185.34-.412l.159-.412-.166-.152-.165-.153-.113.315-.112.316-.23-.142-.23-.142v.224c0 .123.076.299.168.391s.25.167.35.167m64.667-8.028.088-6.9-.296-5.143c-.162-2.828-.383-5.82-.491-6.648l-.196-1.505-.024 7.275-.024 7.276.364 5.52c.2 3.035.393 5.858.428 6.272s.103-2.352.151-6.147m-64.224 6.272h.24l.415-1.035c.227-.569.362-1.087.298-1.15-.064-.064-.283.147-.486.47a5.7 5.7 0 0 0-.539 1.15l-.169.565zm12.336-1.88c.106-.066.247-.404.313-.75l.12-.631h-.167c-.093 0-.383.157-.646.349l-.478.349.333.4c.183.221.42.348.525.282m14.616-1.637c.103.002.189-.136.19-.309.002-.172.28-2.967.617-6.21.338-3.242.907-8.548 1.265-11.791l.65-5.896.153-4.627.153-4.626-1.546 1.214c-.85.668-1.659 1.35-1.797 1.518-.139.167-.647 1.45-1.13 2.852-.481 1.402-.876 2.647-.876 2.768 0 .12.286.291.636.38l.636.159.241.634.241.635-.34.675-.34.676-.725 4.767-.725 4.767-.083-.874c-.046-.481.039-2.124.188-3.651.149-1.528.27-3.26.27-3.85V63.26l-.689.535c-.38.294-1.234.935-1.9 1.424l-1.209.89-1.152 1.793c-.634.987-1.478 2.447-1.875 3.244l-.722 1.45-.584 2.648-.583 2.647.406-.13a46 46 0 0 0 1.552-.566l1.146-.437.39.15c.214.081 1.73 1.694 3.37 3.583a815 815 0 0 1 3.482 4.03c.276.327.586.597.69.6m-15.932-5.28c.242-.009 1.06-.321 1.82-.694l1.38-.679.216-.999c.12-.55.427-1.902.683-3.006l.465-2.007 1.23-2.446c.675-1.346 1.158-2.445 1.073-2.443-.086.002-2.014.764-4.286 1.694l-4.13 1.69-.227.957-.226.957.181 2.655.181 2.654.6.557c.331.306.601.685.601.841v.285z" style="fill:#000;stroke-width:.711167" transform="translate(-86.437 -32.958)"/></svg>