<?xml version="1.0" encoding="UTF-8" standalone="no"?>
<svg
   version="1.1"
   viewBox="0 0 294.70999 222.62601"
   xml:space="preserve"
   id="svg549"
   sodipodi:docname="hero-font.svg"
   inkscape:version="1.3 (0e150ed, 2023-07-21)"
   width="294.70999"
   height="222.62601"
   xmlns:inkscape="http://www.inkscape.org/namespaces/inkscape"
   xmlns:sodipodi="http://sodipodi.sourceforge.net/DTD/sodipodi-0.dtd"
   xmlns="http://www.w3.org/2000/svg"
   xmlns:svg="http://www.w3.org/2000/svg"><sodipodi:namedview
     id="namedview549"
     pagecolor="#fab71c"
     bordercolor="#666666"
     borderopacity="1.0"
     inkscape:showpageshadow="2"
     inkscape:pageopacity="0.0"
     inkscape:pagecheckerboard="0"
     inkscape:deskcolor="#d1d1d1"
     inkscape:zoom="0.73786075"
     inkscape:cx="485.1864"
     inkscape:cy="124.68477"
     inkscape:window-width="1920"
     inkscape:window-height="1027"
     inkscape:window-x="0"
     inkscape:window-y="25"
     inkscape:window-maximized="1"
     inkscape:current-layer="svg549" /><defs
     id="defs1"><path
       id="h"
       d="m 590,272 a 56.1,56.1 0 0 0 -50.8,0 c -6,3.4 -9.3,7.7 -10.2,12.2 0.9,4.5 4.3,8.9 10.2,12.3 14,8.1 36.8,8.1 50.8,0 6,-3.4 9.4,-7.8 10.3,-12.2 -1,-4.5 -4.3,-8.9 -10.3,-12.3"
       fill="#fbebc4" /></defs><defs
     id="defs2"><path
       id="a"
       d="M 601,310.7 V 299 l -5,0.4 a 27.8,27.8 0 0 0 -5.5,-4 56,56 0 0 0 -50.8,0 26,26 0 0 0 -6.6,5.3 l -3.9,-1.2 v 10 c -0.1,5.5 3.3,11 10.5,15.1 14,8.1 36.8,8.1 50.8,0 6.6,-3.8 10,-8.7 10.5,-13.7"
       fill="#fab71c" /><path
       id="b"
       d="m 529.6,309.3 v 0.2 c -0.2,5.5 3.5,10.8 10.3,14.7 14,8 36.5,8 50.4,0 6.3,-3.6 10,-8.4 10.3,-13.4 v -11.5 l -4.8,0.4 -0.1,-0.2 a 27.6,27.6 0 0 0 -5.4,-4 56,56 0 0 0 -50.4,0 25.8,25.8 0 0 0 -6.6,5.3 l -0.1,0.2 -3.6,-1 z m 35.5,21.7 c -9.2,0 -18.5,-2 -25.5,-6.1 -7,-4.1 -10.9,-9.6 -10.7,-15.4 v -10.6 l 4,1.2 c 1.8,-1.9 4,-3.6 6.7,-5.2 14,-8.1 37,-8.1 51,0 a 27,27 0 0 1 5.5,4 l 5.2,-0.4 v 12.4 c -0.4,5.3 -4.2,10.2 -10.6,14 -7,4 -16.3,6 -25.6,6"
       fill="#1a1613" /><path
       id="c"
       d="m 590,285 c 14,8.1 14,21.2 0,29.3 a 56,56 0 0 1 -50.8,0 c -14,-8 -14,-21.2 0,-29.3 14,-8 36.8,-8 50.8,0"
       fill="#fab71c" /><path
       id="d"
       d="m 565,279 c -9.1,0 -18.2,2 -25.2,6 -6.6,3.9 -10.3,9 -10.3,14.4 0,5.4 3.7,10.5 10.3,14.3 14,8 36.5,8 50.4,0 6.7,-3.8 10.3,-9 10.3,-14.3 0,-5.4 -3.6,-10.5 -10.3,-14.4 -7,-4 -16,-6 -25.2,-6 z m 0,41.4 c -9.2,0 -18.5,-2 -25.5,-6 -7,-4 -10.7,-9.4 -10.7,-15 0,-5.7 3.8,-11 10.7,-15 14,-8.1 37,-8.1 51,0 7,4 10.8,9.3 10.8,15 0,5.6 -3.8,11 -10.7,15 -7,4 -16.3,6 -25.6,6"
       fill="#1a1613" /><path
       id="e"
       d="m 565,261 c -9.1,0 -18.2,2 -25.2,6 -6.6,3.9 -10.3,9 -10.3,14.4 0,5.4 3.7,10.5 10.3,14.3 14,8 36.5,8 50.4,0 6.7,-3.8 10.3,-9 10.3,-14.3 0,-5.4 -3.6,-10.5 -10.3,-14.4 -7,-4 -16,-6 -25.2,-6 z m 0,41.4 c -9.2,0 -18.5,-2 -25.5,-6 -7,-4 -10.7,-9.4 -10.7,-15 0,-5.7 3.8,-11 10.7,-15 14,-8.1 37,-8.1 51,0 7,4 10.8,9.3 10.8,15 0,5.6 -3.8,11 -10.7,15 -7,4 -16.3,6 -25.6,6"
       fill="#1a1613" /><path
       id="f"
       d="m 601,292 v -11.8 l -5,0.4 a 27.8,27.8 0 0 0 -5.5,-4 56,56 0 0 0 -50.8,0 c -2.7,1.5 -5,3.3 -6.6,5.3 l -3.9,-1.2 v 10 c -0.1,5.5 3.3,11 10.5,15.1 14,8.1 36.8,8.1 50.8,0 6.6,-3.8 10,-8.7 10.5,-13.7"
       fill="#fab71c" /><path
       id="g"
       d="m 590,267 c 14,8 14,21.1 0,29.2 a 56,56 0 0 1 -50.8,0 c -14,-8 -14,-21.2 0,-29.3 14,-8 36.8,-8 50.8,0"
       fill="#fab71c" /></defs><g
     id="g1"
     transform="translate(-23.99,-117.396)"><g
       fill="#ffffff"
       id="g5"><path
         d="m 35.7,235 283,3.02 -3.02,42.3 -288,4.83 z"
         fill-opacity="0.447"
         id="path2" /><path
         d="m 31.5,292 194,0.302 5.14,45 -201,2.72 z"
         opacity="0.448"
         id="path3" /><path
         d="m 24.2,118 267,-0.604 -1.21,53.8 -266,-0.604 z"
         opacity="0.448"
         stroke-linecap="round"
         stroke-linejoin="round"
         stroke-width="1.16"
         style="paint-order:stroke fill markers"
         id="path4" /><path
         d="m 33.8,178 192,-1.03 0.172,45.7 -192,3.62 z"
         opacity="0.448"
         stroke-linecap="round"
         stroke-linejoin="round"
         stroke-width="1.05"
         style="paint-order:stroke fill markers"
         id="path5" /></g><g
       stroke-width="1.16"
       id="g9"><path
         d="m 47.6,124 q 5.06,0 7.94,2.09 2.93,2.04 2.93,6.41 0,2.65 -1.21,4.6 -1.21,1.95 -3.39,3.06 -2.14,1.11 -5.06,1.25 l -0.65,-2.32 q 3.39,0.0929 6.08,1.21 2.69,1.11 4.27,3.11 1.58,2 1.58,4.74 0,2.51 -0.929,4.32 -0.929,1.76 -2.51,2.93 -1.58,1.11 -3.58,1.67 -2,0.511 -4.13,0.511 h -9.98 v -33.6 z m 0.929,14.7 q 2.79,0 4.04,-1.53 1.25,-1.58 1.25,-3.81 0,-2.65 -1.63,-3.85 -1.63,-1.2 -4.36,-1.21 h -4.36 v 10.4 z m 0.186,14.7 q 1.86,0 3.39,-0.557 1.58,-0.557 2.46,-1.72 0.929,-1.16 0.929,-2.93 0,-1.95 -1.07,-3.06 -1.02,-1.11 -2.65,-1.58 -1.63,-0.511 -3.34,-0.511 h -4.97 v 10.4 z m 24,4.92 q -2.6,0 -4.32,-1.58 -1.67,-1.63 -1.76,-4.18 v -14.2 h 4.32 v 12.7 q 0.0929,1.58 0.882,2.55 0.836,0.975 2.6,1.02 1.63,0 2.88,-0.929 1.3,-0.975 2.09,-2.6 0.789,-1.67 0.789,-3.76 v -8.96 h 4.32 v 19.2 h -3.95 l -0.371,-4.74 0.232,0.836 q -0.557,1.35 -1.72,2.41 -1.11,1.02 -2.65,1.63 -1.54,0.61 -3.34,0.604 z m 19.3,-20 h 4.32 v 19.2 h -4.32 z m -0.325,-6.96 q 0,-1.02 0.789,-1.72 0.836,-0.696 1.81,-0.696 0.974,0 1.72,0.696 0.789,0.696 0.789,1.72 0,1.07 -0.789,1.76 -0.743,0.65 -1.72,0.65 -0.977,0 -1.81,-0.696 -0.789,-0.696 -0.789,-1.72 z m 12.1,-9.75 h 4.32 v 35.9 h -4.32 z m 19.6,36.4 q -2.65,0 -4.83,-1.25 -2.14,-1.3 -3.39,-3.62 -1.25,-2.37 -1.25,-5.43 0,-3.2 1.3,-5.48 1.35,-2.28 3.62,-3.48 2.27,-1.2 5.11,-1.21 2.28,0 4.32,0.975 2.09,0.975 3.25,2.69 l -0.186,1.53 v -21.1 h 4.27 v 35.9 h -4.32 v -4.78 l 0.464,1.21 q -1.35,1.76 -3.48,2.93 -2.14,1.11 -4.88,1.11 z m 1.35,-3.67 q 1.72,0 3.06,-0.604 1.35,-0.65 2.23,-1.76 0.88,-1.11 1.25,-2.65 v -3.62 q -0.371,-1.39 -1.35,-2.41 -0.929,-1.07 -2.28,-1.67 -1.3,-0.65 -2.93,-0.65 -1.76,0 -3.25,0.882 -1.44,0.836 -2.32,2.32 -0.88,1.484 -0.882,3.44 0,1.9 0.882,3.44 0.882,1.49 2.37,2.41 1.49,0.882 3.2,0.882 z m 18.4,-16 h 4.32 v 19.2 h -4.32 z m -0.325,-6.96 q 0,-1.02 0.789,-1.72 0.836,-0.696 1.81,-0.696 0.974,0 1.72,0.696 0.789,0.696 0.789,1.72 0,1.07 -0.789,1.76 -0.743,0.65 -1.72,0.65 -0.977,0 -1.81,-0.696 -0.789,-0.696 -0.789,-1.72 z m 16,6.96 0.371,4.69 -0.186,-0.743 q 0.929,-2.14 3.02,-3.39 2.09,-1.3 4.83,-1.3 2.74,0 4.46,1.63 1.76,1.58 1.81,4.13 v 14.2 h -4.36 v -12.7 q -0.0464,-1.58 -0.929,-2.55 -0.836,-1.02 -2.65,-1.02 -1.67,0 -3.02,0.929 -1.35,0.929 -2.14,2.55 -0.743,1.63 -0.743,3.76 v 9.01 h -4.32 v -19.2 z m 31.1,28.7 q -2.14,0 -3.76,-0.511 -1.63,-0.464 -2.97,-1.35 -1.3,-0.882 -2.51,-2 l 2.51,-2.93 q 1.53,1.44 3.11,2.23 1.58,0.79 3.53,0.789 2.18,0 3.67,-0.743 1.53,-0.696 2.32,-2 0.789,-1.25 0.789,-2.93 l 0.0464,-5.2 0.371,0.836 q -0.836,2 -3.02,3.39 -2.18,1.35 -5.29,1.35 -2.65,0 -4.88,-1.35 -2.18,-1.35 -3.53,-3.62 -1.3,-2.32 -1.3,-5.2 0,-3.02 1.39,-5.29 1.39,-2.32 3.67,-3.67 2.28,-1.35 4.97,-1.35 2.55,0 4.64,1.07 2.14,1.02 3.11,2.65 l -0.232,0.789 0.464,-3.71 h 3.95 v 19.4 q 0,2.6 -1.35,4.74 -1.35,2.14 -3.81,3.39 -2.46,1.25 -5.9,1.25 z m -6.59,-19.3 q 0,1.86 0.882,3.39 0.882,1.53 2.37,2.41 1.53,0.882 3.39,0.882 1.72,0 3.06,-0.604 1.39,-0.65 2.32,-1.72 0.929,-1.11 1.3,-2.55 v -3.81 q -0.418,-1.39 -1.39,-2.41 -0.975,-1.07 -2.32,-1.63 -1.35,-0.604 -2.97,-0.604 -1.86,0 -3.39,0.836 -1.49,0.836 -2.37,2.37 -0.882,1.49 -0.882,3.44 z m 41.6,-17.9 h 4.32 v 8.54 h 5.29 v 3.39 h -5.29 v 15.7 h -4.32 v -15.7 h -3.53 v -3.39 h 3.53 z m 14.8,27.7 v -35.9 h 4.23 v 21.2 l -0.0929,-0.789 q 0.975,-1.9 2.97,-3.16 2.04,-1.25 4.78,-1.25 2.74,0 4.46,1.63 1.76,1.58 1.81,4.13 v 14.2 h -4.36 v -12.7 q -0.0464,-1.58 -0.929,-2.55 -0.836,-1.02 -2.65,-1.02 -1.67,0 -3.02,0.975 -1.35,0.929 -2.14,2.55 -0.743,1.63 -0.743,3.71 v 9.01 z m 34.6,0.464 q -3.3,0 -5.66,-1.3 -2.37,-1.35 -3.67,-3.62 -1.25,-2.32 -1.25,-5.29 0,-2.83 1.44,-5.15 1.44,-2.32 3.85,-3.71 2.41,-1.39 5.39,-1.39 3.81,0 6.31,2.23 2.5,2.23 3.39,6.13 l -15.8,5.57 -1.02,-2.55 13,-4.74 -0.929,0.604 q -0.557,-1.53 -1.86,-2.65 -1.3,-1.16 -3.39,-1.16 -1.76,0 -3.16,0.882 -1.39,0.836 -2.18,2.32 -0.79,1.484 -0.789,3.39 0,2 0.836,3.53 0.836,1.49 2.28,2.37 1.49,0.836 3.34,0.836 1.25,0 2.41,-0.464 1.21,-0.464 2.23,-1.21 l 2,3.2 q -1.44,0.975 -3.25,1.58 -1.76,0.604 -3.48,0.604 z"
         id="path6" /><path
         d="m 39.5,216 v -15.4 h -3.3 v -3.85 h 3.3 v -8.13 q 0,-4.18 1.86,-6.41 1.9,-2.23 5.57,-2.23 0.975,0 2.14,0.279 1.21,0.279 2.09,0.929 l -1.81,3.11 q -0.418,-0.418 -0.929,-0.557 -0.511,-0.186 -1.02,-0.186 -1.72,0 -2.65,1.16 -0.93,1.16 -0.929,3.95 v 8.08 h 6.08 v 3.85 h -6.08 v 15.4 z m 22.1,0.743 q -2.6,0 -4.32,-1.58 -1.67,-1.63 -1.76,-4.18 v -14.2 h 4.32 v 12.7 q 0.0929,1.58 0.882,2.55 0.836,0.975 2.6,1.02 1.63,0 2.88,-0.929 1.3,-0.975 2.09,-2.6 0.789,-1.67 0.789,-3.76 v -8.96 h 4.32 v 19.2 h -3.95 l -0.371,-4.74 0.232,0.836 q -0.557,1.35 -1.72,2.41 -1.11,1.02 -2.65,1.63 -1.54,0.61 -3.34,0.604 z m 21.1,-28.4 h 4.32 v 8.54 h 5.29 v 3.39 h -5.29 v 15.7 H 82.7 v -15.7 h -3.53 v -3.39 h 3.53 z m 20.9,28.4 q -2.6,0 -4.32,-1.58 -1.67,-1.63 -1.76,-4.18 v -14.2 h 4.32 v 12.7 q 0.0929,1.58 0.882,2.55 0.836,0.975 2.6,1.02 1.63,0 2.88,-0.929 1.3,-0.975 2.09,-2.6 0.789,-1.67 0.789,-3.76 v -8.96 h 4.32 v 19.2 h -3.95 l -0.371,-4.74 0.232,0.836 q -0.557,1.35 -1.72,2.41 -1.11,1.02 -2.65,1.63 -1.54,0.61 -3.34,0.604 z m 23.1,-20 0.418,5.57 -0.232,-0.743 q 0.743,-1.76 2.14,-2.97 1.44,-1.25 2.97,-1.9 1.58,-0.696 2.74,-0.696 l -0.232,4.27 q -2.18,-0.139 -3.85,0.836 -1.63,0.975 -2.6,2.6 -0.929,1.63 -0.929,3.48 v 8.78 h -4.27 v -19.2 z m 21.7,19.7 q -3.3,0 -5.66,-1.3 -2.37,-1.35 -3.67,-3.62 -1.25,-2.32 -1.25,-5.29 0,-2.83 1.44,-5.15 1.44,-2.32 3.85,-3.71 2.41,-1.39 5.39,-1.39 3.81,0 6.31,2.23 2.5,2.23 3.39,6.13 l -15.8,5.57 -1.02,-2.55 13,-4.74 -0.929,0.604 q -0.557,-1.53 -1.86,-2.65 -1.3,-1.16 -3.39,-1.16 -1.76,0 -3.16,0.882 -1.39,0.836 -2.18,2.32 -0.79,1.484 -0.789,3.39 0,2 0.836,3.53 0.836,1.49 2.28,2.37 1.49,0.836 3.34,0.836 1.25,0 2.41,-0.464 1.21,-0.464 2.23,-1.21 l 2,3.2 q -1.44,0.975 -3.25,1.58 -1.76,0.604 -3.48,0.604 z m 28.2,-10.3 q 0,-2.88 1.35,-5.2 1.39,-2.32 3.81,-3.67 2.42,-1.35 5.48,-1.35 3.16,0 5.53,1.35 2.37,1.35 3.67,3.67 1.3,2.32 1.3,5.2 0,2.88 -1.3,5.25 -1.3,2.32 -3.71,3.67 -2.37,1.35 -5.53,1.35 -3.06,0 -5.48,-1.25 -2.37,-1.3 -3.76,-3.58 -1.35,-2.32 -1.35,-5.43 z m 4.32,0.0464 q 0,1.86 0.836,3.39 0.836,1.49 2.23,2.37 1.44,0.882 3.16,0.882 1.81,0 3.2,-0.882 1.44,-0.882 2.23,-2.37 0.789,-1.53 0.789,-3.39 0,-1.86 -0.789,-3.34 -0.789,-1.53 -2.23,-2.41 -1.39,-0.929 -3.2,-0.929 -1.76,0 -3.2,0.929 -1.39,0.929 -2.23,2.46 -0.789,1.49 -0.789,3.3 z m 24.2,9.75 v -15.4 h -3.3 v -3.85 h 3.3 v -8.13 q 0,-4.18 1.86,-6.41 1.9,-2.23 5.57,-2.23 0.975,0 2.14,0.279 1.21,0.279 2.09,0.929 l -1.81,3.11 q -0.418,-0.418 -0.929,-0.557 -0.511,-0.186 -1.02,-0.186 -1.72,0 -2.65,1.16 -0.93,1.16 -0.929,3.95 v 8.08 h 6.08 v 3.85 h -6.08 v 15.4 z"
         id="path7" /><path
         d="m 37.9,255 h 4.32 v 19.2 H 37.9 Z m -0.325,-6.96 q 0,-1.02 0.789,-1.72 0.836,-0.696 1.81,-0.696 0.974,0 1.72,0.696 0.789,0.696 0.789,1.72 0,1.07 -0.789,1.76 -0.743,0.65 -1.72,0.65 -0.977,0 -1.81,-0.696 -0.789,-0.696 -0.789,-1.72 z m 16,6.96 0.371,4.69 -0.186,-0.743 q 0.929,-2.14 3.02,-3.39 2.09,-1.3 4.83,-1.3 2.74,0 4.46,1.63 1.76,1.58 1.81,4.13 v 14.2 h -4.36 v -12.7 q -0.0464,-1.58 -0.929,-2.55 -0.836,-1.02 -2.65,-1.02 -1.67,0 -3.02,0.929 -1.35,0.929 -2.14,2.55 -0.743,1.63 -0.743,3.76 v 9.01 h -4.32 v -19.2 z m 23.4,19.2 v -15.4 h -3.3 v -3.85 h 3.3 v -8.13 q 0,-4.18 1.86,-6.41 1.9,-2.23 5.57,-2.23 0.975,0 2.14,0.279 1.21,0.279 2.09,0.929 l -1.81,3.11 q -0.418,-0.418 -0.929,-0.557 -0.511,-0.186 -1.02,-0.186 -1.72,0 -2.65,1.16 -0.93,1.16 -0.929,3.95 v 8.08 h 6.08 v 3.85 h -6.08 v 15.4 z m 19.9,-19.2 0.418,5.57 -0.232,-0.743 q 0.743,-1.76 2.14,-2.97 1.44,-1.25 2.97,-1.9 1.58,-0.696 2.74,-0.696 l -0.232,4.27 q -2.18,-0.139 -3.85,0.836 -1.63,0.975 -2.6,2.6 -0.929,1.63 -0.929,3.48 v 8.78 h -4.27 v -19.2 z m 21.1,19.7 q -2.69,0 -4.92,-1.16 -2.18,-1.16 -3.48,-3.39 -1.25,-2.28 -1.25,-5.53 0,-3.2 1.35,-5.53 1.35,-2.37 3.58,-3.62 2.28,-1.25 4.97,-1.25 2.69,0 4.55,1.25 1.86,1.21 2.83,2.88 l -0.279,0.743 0.418,-4.09 h 3.99 v 19.2 h -4.32 v -5.01 l 0.464,1.11 q -0.186,0.464 -0.836,1.21 -0.604,0.696 -1.67,1.44 -1.02,0.743 -2.37,1.25 -1.35,0.464 -3.02,0.464 z m 1.16,-3.58 q 1.63,0 2.93,-0.604 1.3,-0.604 2.14,-1.67 0.882,-1.11 1.21,-2.65 v -3.76 q -0.371,-1.39 -1.3,-2.41 -0.929,-1.07 -2.23,-1.63 -1.3,-0.604 -2.88,-0.604 -1.72,0 -3.16,0.836 -1.44,0.836 -2.32,2.32 -0.836,1.49 -0.836,3.48 0,1.86 0.882,3.39 0.882,1.53 2.37,2.41 1.488,0.88 3.2,0.882 z m 23.4,3.48 q -2.04,0 -3.99,-0.696 -1.9,-0.743 -3.16,-2.18 l 1.81,-2.51 q 1.21,1.16 2.46,1.76 1.3,0.557 2.55,0.557 0.929,0 1.72,-0.232 0.791,-0.232 1.25,-0.743 0.511,-0.557 0.511,-1.49 0,-1.02 -0.696,-1.63 -0.65,-0.604 -1.72,-0.975 -1.02,-0.371 -2.18,-0.696 -2.37,-0.789 -3.62,-2.18 -1.25,-1.391 -1.25,-3.39 0,-1.53 0.743,-2.83 0.789,-1.35 2.28,-2.18 1.53,-0.836 3.76,-0.836 2,0 3.58,0.511 1.58,0.464 2.97,1.58 l -1.72,2.69 q -0.836,-0.882 -2,-1.3 -1.164,-0.418 -2.09,-0.464 -0.789,-0.0464 -1.53,0.232 -0.696,0.279 -1.16,0.789 -0.464,0.51 -0.464,1.21 0,0.975 0.65,1.58 0.65,0.605 1.67,0.975 1.07,0.325 2.09,0.696 1.44,0.418 2.55,1.11 1.11,0.692 1.76,1.72 0.696,1.02 0.696,2.55 0,1.72 -0.836,3.2 -0.789,1.44 -2.46,2.32 -1.63,0.836 -4.18,0.836 z m 15.4,-28 h 4.32 v 8.54 h 5.29 v 3.39 h -5.29 v 15.7 h -4.32 v -15.7 h -3.53 v -3.39 h 3.53 z m 18.7,8.45 0.418,5.57 -0.232,-0.743 q 0.743,-1.76 2.14,-2.97 1.44,-1.25 2.97,-1.9 1.58,-0.696 2.74,-0.696 l -0.232,4.27 q -2.18,-0.139 -3.85,0.836 -1.63,0.975 -2.6,2.6 -0.929,1.63 -0.929,3.48 v 8.78 h -4.27 v -19.2 z m 19.7,20 q -2.6,0 -4.32,-1.58 -1.67,-1.63 -1.76,-4.18 v -14.2 h 4.32 v 12.7 q 0.0929,1.58 0.882,2.55 0.836,0.975 2.6,1.02 1.63,0 2.88,-0.929 1.3,-0.975 2.09,-2.6 0.789,-1.67 0.789,-3.76 v -8.96 h 4.32 v 19.2 h -3.95 l -0.371,-4.74 0.232,0.836 q -0.557,1.35 -1.72,2.41 -1.11,1.02 -2.65,1.63 -1.54,0.61 -3.34,0.604 z m 34.9,-2.51 q -1.3,1.02 -3.11,1.63 -1.81,0.61 -3.62,0.604 -3.16,0 -5.53,-1.25 -2.37,-1.25 -3.71,-3.48 -1.3,-2.28 -1.3,-5.34 0,-3.06 1.39,-5.34 1.44,-2.28 3.71,-3.48 2.32,-1.25 4.97,-1.25 2.32,0 4.13,0.65 1.86,0.65 3.16,1.76 l -2.14,2.79 q -0.836,-0.65 -2.04,-1.16 -1.204,-0.51 -2.74,-0.511 -1.67,0 -3.11,0.882 -1.39,0.836 -2.23,2.32 -0.789,1.49 -0.789,3.34 0,1.76 0.836,3.3 0.836,1.49 2.32,2.37 1.49,0.836 3.39,0.836 1.25,0 2.28,-0.371 1.07,-0.371 1.9,-1.02 z m 7.43,-25.9 h 4.32 v 8.54 h 5.29 v 3.39 h -5.29 v 15.7 h -4.32 v -15.7 h -3.53 v -3.39 h 3.53 z m 20.9,28.4 q -2.6,0 -4.32,-1.58 -1.67,-1.63 -1.76,-4.18 v -14.2 h 4.32 v 12.7 q 0.0929,1.58 0.882,2.55 0.836,0.975 2.6,1.02 1.63,0 2.88,-0.929 1.3,-0.975 2.09,-2.6 0.789,-1.67 0.789,-3.76 v -8.96 h 4.32 v 19.2 h -3.95 l -0.371,-4.74 0.232,0.836 q -0.557,1.35 -1.72,2.41 -1.11,1.02 -2.65,1.63 -1.54,0.61 -3.34,0.604 z m 23.1,-20 0.418,5.57 -0.232,-0.743 q 0.743,-1.76 2.14,-2.97 1.44,-1.25 2.97,-1.9 1.58,-0.696 2.74,-0.696 l -0.232,4.27 q -2.18,-0.139 -3.85,0.836 -1.63,0.975 -2.6,2.6 -0.929,1.63 -0.929,3.48 v 8.78 h -4.27 v -19.2 z m 21.7,19.7 q -3.3,0 -5.66,-1.3 -2.37,-1.35 -3.67,-3.62 -1.25,-2.32 -1.25,-5.29 0,-2.83 1.44,-5.15 1.44,-2.32 3.85,-3.71 2.41,-1.39 5.39,-1.39 3.81,0 6.31,2.23 2.5,2.23 3.39,6.13 l -15.8,5.57 -1.02,-2.55 13,-4.74 -0.929,0.604 q -0.557,-1.53 -1.86,-2.65 -1.3,-1.16 -3.39,-1.16 -1.76,0 -3.16,0.882 -1.39,0.836 -2.18,2.32 -0.79,1.484 -0.789,3.39 0,2 0.836,3.53 0.836,1.49 2.28,2.37 1.49,0.836 3.34,0.836 1.25,0 2.41,-0.464 1.21,-0.464 2.23,-1.21 l 2,3.2 q -1.44,0.975 -3.25,1.58 -1.76,0.604 -3.48,0.604 z"
         id="path8" /><path
         d="m 50.2,313 5.66,13 -0.836,0.0929 5.29,-13 h 4.23 l -8.82,20.4 -6.18,-13.2 -5.62,13.2 -8.91,-20.4 h 4.23 l 5.99,13.6 -1.49,-0.279 4.27,-9.94 -1.53,-3.34 z m 19,0 h 4.32 v 19.2 H 69.2 Z m -0.325,-6.96 q 0,-1.02 0.789,-1.72 0.836,-0.696 1.81,-0.696 0.974,0 1.72,0.696 0.789,0.696 0.789,1.72 0,1.07 -0.789,1.76 -0.743,0.65 -1.72,0.65 -0.977,0 -1.81,-0.696 -0.789,-0.696 -0.789,-1.72 z m 14,-1.49 h 4.32 v 8.54 h 5.29 v 3.39 h -5.29 v 15.7 h -4.32 v -15.7 h -3.53 v -3.39 h 3.53 z m 14.8,27.7 v -35.9 h 4.23 v 21.2 l -0.0929,-0.789 q 0.975,-1.9 2.97,-3.16 2.04,-1.25 4.78,-1.25 2.74,0 4.46,1.63 1.76,1.58 1.81,4.13 v 14.2 h -4.36 v -12.7 q -0.0464,-1.58 -0.929,-2.55 -0.836,-1.02 -2.65,-1.02 -1.67,0 -3.02,0.975 -1.35,0.929 -2.14,2.55 -0.743,1.63 -0.743,3.71 v 9.01 z m 50.3,-33.6 q 2.55,0 4.69,0.696 2.18,0.65 3.76,2 1.63,1.3 2.51,3.25 0.929,1.9 0.929,4.46 0,2 -0.604,3.9 -0.557,1.9 -1.9,3.48 -1.35,1.53 -3.53,2.51 -2.14,0.929 -5.29,0.929 h -4.97 v 12.4 h -4.5 v -33.6 z m 0.464,16.9 q 2,0 3.3,-0.604 1.35,-0.604 2.09,-1.53 0.743,-0.975 1.07,-2.09 0.327,-1.115 0.325,-2.09 0,-1.02 -0.371,-2.09 -0.325,-1.11 -1.11,-2.04 -0.743,-0.929 -2,-1.53 -1.21,-0.604 -2.97,-0.604 h -5.2 v 12.6 z m 5.53,2.55 8.78,14.1 h -5.2 l -8.91,-14 z m 20.7,14.9 q -2.6,0 -4.32,-1.58 -1.67,-1.63 -1.76,-4.18 v -14.2 h 4.32 v 12.7 q 0.0929,1.58 0.882,2.55 0.836,0.975 2.6,1.02 1.63,0 2.88,-0.929 1.3,-0.975 2.09,-2.6 0.789,-1.67 0.789,-3.76 v -8.96 h 4.32 v 19.2 h -3.95 l -0.371,-4.74 0.232,0.836 q -0.557,1.35 -1.72,2.41 -1.11,1.02 -2.65,1.63 -1.54,0.61 -3.34,0.604 z m 24.7,-0.371 q -2.04,0 -3.99,-0.696 -1.9,-0.743 -3.16,-2.18 l 1.81,-2.51 q 1.21,1.16 2.46,1.76 1.3,0.557 2.55,0.557 0.929,0 1.72,-0.232 0.791,-0.232 1.25,-0.743 0.511,-0.557 0.511,-1.49 0,-1.02 -0.696,-1.63 -0.65,-0.604 -1.72,-0.975 -1.02,-0.371 -2.18,-0.696 -2.37,-0.789 -3.62,-2.18 -1.25,-1.391 -1.25,-3.39 0,-1.53 0.743,-2.83 0.789,-1.35 2.28,-2.18 1.53,-0.836 3.76,-0.836 2,0 3.58,0.511 1.58,0.464 2.97,1.58 l -1.72,2.69 q -0.836,-0.882 -2,-1.3 -1.164,-0.418 -2.09,-0.464 -0.789,-0.0464 -1.53,0.232 -0.696,0.279 -1.16,0.789 -0.464,0.51 -0.464,1.21 0,0.975 0.65,1.58 0.65,0.605 1.67,0.975 1.07,0.325 2.09,0.696 1.44,0.418 2.55,1.11 1.11,0.692 1.76,1.72 0.696,1.02 0.696,2.55 0,1.72 -0.836,3.2 -0.789,1.44 -2.46,2.32 -1.63,0.836 -4.18,0.836 z m 15.4,-28 h 4.32 v 8.54 h 5.29 v 3.39 h -5.29 v 15.7 h -4.32 v -15.7 h -3.53 v -3.39 h 3.53 z"
         id="path9" /></g></g></svg>
