<?xml version="1.0" encoding="UTF-8" standalone="no"?>
<!-- Created with Inkscape (http://www.inkscape.org/) -->

<svg
   width="100"
   height="100"
   viewBox="0 0 26.458333 26.458333"
   version="1.1"
   id="svg1"
   inkscape:version="1.3 (0e150ed, 2023-07-21)"
   sodipodi:docname="stars.svg"
   xmlns:inkscape="http://www.inkscape.org/namespaces/inkscape"
   xmlns:sodipodi="http://sodipodi.sourceforge.net/DTD/sodipodi-0.dtd"
   xmlns="http://www.w3.org/2000/svg"
   xmlns:svg="http://www.w3.org/2000/svg">
  <sodipodi:namedview
     id="namedview1"
     pagecolor="#2c2c2c"
     bordercolor="#666666"
     borderopacity="1.0"
     inkscape:showpageshadow="2"
     inkscape:pageopacity="0.0"
     inkscape:pagecheckerboard="0"
     inkscape:deskcolor="#d1d1d1"
     inkscape:document-units="mm"
     inkscape:zoom="5.6149786"
     inkscape:cx="46.749955"
     inkscape:cy="72.662788"
     inkscape:window-width="1728"
     inkscape:window-height="1051"
     inkscape:window-x="0"
     inkscape:window-y="38"
     inkscape:window-maximized="0"
     inkscape:current-layer="g20"
     showgrid="false" />
  <defs
     id="defs1" />
  <g
     inkscape:label="Layer 1"
     inkscape:groupmode="layer"
     id="layer1">
    <g
       id="g20"
       transform="translate(-1.9868217e-8,-8.3622478)">
      <text
         xml:space="preserve"
         style="font-size:9.66706px;line-height:1.25;font-family:Iosevka;-inkscape-font-specification:'Iosevka, Normal';fill:#ffffff;fill-opacity:1;stroke-width:0.241677"
         x="9.6607332"
         y="29.030655"
         id="text1-7"><tspan
           sodipodi:role="line"
           id="tspan1-3"
           style="font-style:normal;font-variant:normal;font-weight:normal;font-stretch:normal;font-size:9.66706px;font-family:'Bebas Neue';-inkscape-font-specification:'Bebas Neue, Normal';font-variant-ligatures:normal;font-variant-caps:normal;font-variant-numeric:normal;font-variant-east-asian:normal;fill:#ffffff;fill-opacity:1;stroke-width:0.241677"
           x="9.6607332"
           y="29.030655">30K+</tspan></text>
      <rect
         style="fill:#fab71c;fill-opacity:1;stroke:none;stroke-width:0.305369;stroke-linecap:round;stroke-linejoin:round;stroke-dasharray:none;paint-order:stroke fill markers"
         id="rect11"
         width="23.546358"
         height="7.3041573"
         x="1.4559877"
         y="12.913889"
         rx="0.41942689"
         ry="0.50655222" />
      <path
         style="font-size:6.92302px;line-height:1.25;font-family:'Bebas Neue';-inkscape-font-specification:'Bebas Neue, Normal';stroke-width:0.173075"
         d="m 7.2492204,18.796157 q -0.5538416,0 -0.8446084,-0.311536 -0.2907668,-0.318459 -0.2907668,-0.906915 v -2.547672 q 0,-0.588457 0.2907668,-0.899992 0.2907668,-0.318459 0.8446084,-0.318459 0.5538416,0 0.8446085,0.318459 0.2907668,0.311535 0.2907668,0.899992 v 0.415381 H 7.6646016 v -0.463842 q 0,-0.477688 -0.3946121,-0.477688 -0.3946121,0 -0.3946121,0.477688 v 2.651517 q 0,0.470765 0.3946121,0.470765 0.3946121,0 0.3946121,-0.470765 V 16.684636 H 7.2838355 v -0.692302 h 1.1007602 v 1.585372 q 0,0.588456 -0.2907668,0.906915 -0.2907669,0.311536 -0.8446085,0.311536 z m 1.6269017,-4.915344 h 0.7615321 v 4.846114 H 8.8761221 Z m 1.9245959,0.692302 H 10.00457 v -0.692302 h 2.353827 v 0.692302 H 11.56225 v 4.153812 h -0.761532 z m 1.924588,-0.692302 h 0.761533 v 1.973061 h 0.816916 v -1.973061 h 0.761532 v 4.846114 h -0.761532 v -2.180751 h -0.816916 v 2.180751 h -0.761533 z m 4.015339,4.915344 q -0.553841,0 -0.844608,-0.311536 -0.290767,-0.318459 -0.290767,-0.906915 v -3.696893 h 0.761532 v 3.752277 q 0,0.249228 0.09692,0.359997 0.103846,0.110768 0.290767,0.110768 0.186922,0 0.283844,-0.110768 0.103845,-0.110769 0.103845,-0.359997 v -3.752277 h 0.73384 v 3.696893 q 0,0.588456 -0.290766,0.906915 -0.290767,0.311536 -0.844609,0.311536 z m 1.675361,-4.915344 h 1.149221 q 0.588457,0 0.858455,0.276921 0.269997,0.269997 0.269997,0.837685 v 0.193845 q 0,0.373843 -0.124614,0.609225 -0.117691,0.235383 -0.36692,0.339228 v 0.01385 q 0.567688,0.193845 0.567688,1.010761 v 0.415382 q 0,0.560764 -0.29769,0.858454 -0.290767,0.290767 -0.858455,0.290767 h -1.197682 z m 1.059222,1.973061 q 0.22846,0 0.339228,-0.117692 0.117691,-0.117691 0.117691,-0.394612 v -0.269998 q 0,-0.263074 -0.09692,-0.380766 -0.09,-0.117691 -0.290767,-0.117691 h -0.36692 v 1.280759 z m 0.13846,2.180751 q 0.200768,0 0.29769,-0.103845 0.09692,-0.110769 0.09692,-0.373844 v -0.422304 q 0,-0.332305 -0.117691,-0.456919 -0.110768,-0.131537 -0.373843,-0.131537 h -0.339228 v 1.488449 z"
         id="text11"
         transform="scale(0.98417835,1.016076)"
         aria-label="GITHUB" />
      <path
         sodipodi:type="star"
         style="fill:#fab71c;fill-opacity:1;stroke:none;stroke-width:0.264999;stroke-linecap:round;stroke-linejoin:round;stroke-dasharray:none;paint-order:stroke fill markers"
         id="path3"
         inkscape:flatsided="false"
         sodipodi:sides="5"
         sodipodi:cx="-15.111618"
         sodipodi:cy="3.0695474"
         sodipodi:r1="3.1364255"
         sodipodi:r2="1.5217319"
         sodipodi:arg1="-0.30587887"
         sodipodi:arg2="0.31499662"
         inkscape:rounded="0"
         inkscape:randomized="0"
         d="m -12.120777,2.1250713 -1.543982,1.4159288 0.375612,2.081147 -1.823745,-1.0308684 -1.863218,1.0003381 0.416846,-2.0530404 -1.527144,-1.462904 2.08137,-0.2379805 0.919391,-1.90446246 0.869511,1.90596046 z"
         inkscape:transform-center-x="-0.017720475"
         inkscape:transform-center-y="-0.62683143"
         transform="matrix(1.2823011,0,0,1.2881049,24.648209,22.06923)" />
    </g>
  </g>
</svg>
