<svg xmlns="http://www.w3.org/2000/svg" width="100" height="100" viewBox="0 0 26.458 26.458"><g transform="translate(0 -8.362)"><text xml:space="preserve" x="9.661" y="29.031" style="font-size:9.66706px;line-height:1.25;font-family:Iosevka;-inkscape-font-specification:&quot;Iosevka, Normal&quot;;fill:#fff;fill-opacity:1;stroke-width:.241677"><tspan x="9.661" y="29.031" style="font-style:normal;font-variant:normal;font-weight:400;font-stretch:normal;font-size:9.66706px;font-family:&quot;Bebas Neue&quot;;-inkscape-font-specification:&quot;Bebas Neue, Normal&quot;;font-variant-ligatures:normal;font-variant-caps:normal;font-variant-numeric:normal;font-variant-east-asian:normal;fill:#fff;fill-opacity:1;stroke-width:.241677">30K+</tspan></text><rect width="23.546" height="7.304" x="1.456" y="12.914" rx=".419" ry=".507" style="fill:#fab71c;fill-opacity:1;stroke:none;stroke-width:.305369;stroke-linecap:round;stroke-linejoin:round;stroke-dasharray:none;paint-order:stroke fill markers"/><path d="M7.25 18.796q-.555 0-.845-.311-.291-.319-.291-.907V15.03q0-.588.29-.9.291-.318.845-.318t.845.318q.29.312.29.9v.415h-.72v-.463q0-.478-.394-.478-.395 0-.395.478v2.651q0 .47.395.47t.395-.47v-.948h-.381v-.693h1.1v1.586q0 .588-.29.907-.29.311-.845.311m1.626-4.915h.762v4.846h-.762Zm1.925.692h-.796v-.692h2.353v.692h-.796v4.154H10.8zm1.924-.692h.762v1.973h.817V13.88h.761v4.846h-.761v-2.18h-.817v2.18h-.762zm4.016 4.915q-.554 0-.845-.311-.29-.319-.29-.907V13.88h.76v3.752q0 .25.098.36.104.11.29.11.187 0 .284-.11.104-.11.104-.36V13.88h.734v3.697q0 .588-.29.907-.292.311-.845.311m1.675-4.915h1.15q.588 0 .858.277.27.27.27.837v.194q0 .374-.125.61-.118.235-.367.339v.014q.568.193.568 1.01v.416q0 .56-.298.858-.29.29-.858.29h-1.198zm1.06 1.973q.228 0 .338-.118.118-.118.118-.394v-.27q0-.264-.097-.381-.09-.118-.29-.118h-.367v1.28zm.138 2.18q.2 0 .297-.103.097-.111.097-.374v-.422q0-.333-.117-.457-.111-.132-.374-.132h-.34v1.489z" aria-label="GITHUB" style="font-size:6.92302px;line-height:1.25;font-family:&quot;Bebas Neue&quot;;-inkscape-font-specification:&quot;Bebas Neue, Normal&quot;;stroke-width:.173075" transform="scale(.98418 1.01608)"/><path d="m-12.12 2.125-1.545 1.416.376 2.081-1.824-1.03-1.863 1 .417-2.053-1.527-1.463 2.081-.238.92-1.905.869 1.906z" style="fill:#fab71c;fill-opacity:1;stroke:none;stroke-width:.264999;stroke-linecap:round;stroke-linejoin:round;stroke-dasharray:none;paint-order:stroke fill markers" transform="matrix(1.2823 0 0 1.2881 24.648 22.07)"/></g></svg>