<?xml version="1.0" encoding="UTF-8" standalone="no"?>
<!-- Created with Inkscape (http://www.inkscape.org/) -->

<svg
   width="100"
   height="100"
   viewBox="0 0 26.458333 26.458333"
   version="1.1"
   id="svg1"
   inkscape:version="1.3 (0e150ed, 2023-07-21)"
   sodipodi:docname="stars.svg"
   xmlns:inkscape="http://www.inkscape.org/namespaces/inkscape"
   xmlns:sodipodi="http://sodipodi.sourceforge.net/DTD/sodipodi-0.dtd"
   xmlns="http://www.w3.org/2000/svg"
   xmlns:svg="http://www.w3.org/2000/svg">
  <sodipodi:namedview
     id="namedview1"
     pagecolor="#2c2c2c"
     bordercolor="#666666"
     borderopacity="1.0"
     inkscape:showpageshadow="2"
     inkscape:pageopacity="0.0"
     inkscape:pagecheckerboard="0"
     inkscape:deskcolor="#d1d1d1"
     inkscape:document-units="mm"
     inkscape:zoom="4.7775309"
     inkscape:cx="55.467982"
     inkscape:cy="75.143417"
     inkscape:window-width="1920"
     inkscape:window-height="1027"
     inkscape:window-x="0"
     inkscape:window-y="25"
     inkscape:window-maximized="1"
     inkscape:current-layer="g20"
     showgrid="false" />
  <defs
     id="defs1" />
  <g
     inkscape:label="Layer 1"
     inkscape:groupmode="layer"
     id="layer1">
    <g
       id="g20"
       transform="translate(-1.9868217e-8,-8.3622478)">
      <rect
         style="fill:#fab71c;fill-opacity:1;stroke:none;stroke-width:0.305369;stroke-linecap:round;stroke-linejoin:round;stroke-dasharray:none;paint-order:stroke fill markers"
         id="rect11"
         width="23.546358"
         height="7.3041573"
         x="1.4559878"
         y="12.913889"
         rx="0.41942689"
         ry="0.50655222" />
      <path
         style="font-size:6.92302px;line-height:1.25;font-family:'Bebas Neue';-inkscape-font-specification:'Bebas Neue, Normal';stroke-width:0.173075"
         d="m 7.2492204,18.796157 q -0.5538416,0 -0.8446084,-0.311536 -0.2907668,-0.318459 -0.2907668,-0.906915 v -2.547672 q 0,-0.588457 0.2907668,-0.899992 0.2907668,-0.318459 0.8446084,-0.318459 0.5538416,0 0.8446085,0.318459 0.2907668,0.311535 0.2907668,0.899992 v 0.415381 H 7.6646016 v -0.463842 q 0,-0.477688 -0.3946121,-0.477688 -0.3946121,0 -0.3946121,0.477688 v 2.651517 q 0,0.470765 0.3946121,0.470765 0.3946121,0 0.3946121,-0.470765 V 16.684636 H 7.2838355 v -0.692302 h 1.1007602 v 1.585372 q 0,0.588456 -0.2907668,0.906915 -0.2907669,0.311536 -0.8446085,0.311536 z m 1.6269017,-4.915344 h 0.7615321 v 4.846114 H 8.8761221 Z m 1.9245959,0.692302 H 10.00457 v -0.692302 h 2.353827 v 0.692302 H 11.56225 v 4.153812 h -0.761532 z m 1.924588,-0.692302 h 0.761533 v 1.973061 h 0.816916 v -1.973061 h 0.761532 v 4.846114 h -0.761532 v -2.180751 h -0.816916 v 2.180751 h -0.761533 z m 4.015339,4.915344 q -0.553841,0 -0.844608,-0.311536 -0.290767,-0.318459 -0.290767,-0.906915 v -3.696893 h 0.761532 v 3.752277 q 0,0.249228 0.09692,0.359997 0.103846,0.110768 0.290767,0.110768 0.186922,0 0.283844,-0.110768 0.103845,-0.110769 0.103845,-0.359997 v -3.752277 h 0.73384 v 3.696893 q 0,0.588456 -0.290766,0.906915 -0.290767,0.311536 -0.844609,0.311536 z m 1.675361,-4.915344 h 1.149221 q 0.588457,0 0.858455,0.276921 0.269997,0.269997 0.269997,0.837685 v 0.193845 q 0,0.373843 -0.124614,0.609225 -0.117691,0.235383 -0.36692,0.339228 v 0.01385 q 0.567688,0.193845 0.567688,1.010761 v 0.415382 q 0,0.560764 -0.29769,0.858454 -0.290767,0.290767 -0.858455,0.290767 h -1.197682 z m 1.059222,1.973061 q 0.22846,0 0.339228,-0.117692 0.117691,-0.117691 0.117691,-0.394612 v -0.269998 q 0,-0.263074 -0.09692,-0.380766 -0.09,-0.117691 -0.290767,-0.117691 h -0.36692 v 1.280759 z m 0.13846,2.180751 q 0.200768,0 0.29769,-0.103845 0.09692,-0.110769 0.09692,-0.373844 v -0.422304 q 0,-0.332305 -0.117691,-0.456919 -0.110768,-0.131537 -0.373843,-0.131537 h -0.339228 v 1.488449 z"
         id="text11"
         transform="scale(0.98417835,1.016076)"
         aria-label="GITHUB" />
      <path
         sodipodi:type="star"
         style="fill:#fab71c;fill-opacity:1;stroke:none;stroke-width:0.264999;stroke-linecap:round;stroke-linejoin:round;stroke-dasharray:none;paint-order:stroke fill markers"
         id="path3"
         inkscape:flatsided="false"
         sodipodi:sides="5"
         sodipodi:cx="-15.111618"
         sodipodi:cy="3.0695474"
         sodipodi:r1="3.1364255"
         sodipodi:r2="1.5217319"
         sodipodi:arg1="-0.30587887"
         sodipodi:arg2="0.31499662"
         inkscape:rounded="0"
         inkscape:randomized="0"
         d="m -12.120777,2.1250713 -1.543982,1.4159288 0.375612,2.081147 -1.823745,-1.0308684 -1.863218,1.0003381 0.416846,-2.0530404 -1.527144,-1.462904 2.08137,-0.2379805 0.919391,-1.90446246 0.869511,1.90596046 z"
         inkscape:transform-center-x="-0.017720475"
         inkscape:transform-center-y="-0.62683143"
         transform="matrix(1.2823011,0,0,1.2881049,24.315833,22.06923)" />
      <path
         style="font-size:9.84063px;line-height:1.25;font-family:'Bebas Neue';-inkscape-font-specification:'Bebas Neue, Normal';fill:#ffffff;stroke-width:0.246016"
         d="m 9.8357461,28.39272 q 0,-0.738047 0.2361749,-1.259601 0.236175,-0.531394 0.846294,-1.171035 0.600279,-0.63964 0.826613,-1.092309 0.236175,-0.452669 0.236175,-0.944701 0,-0.442828 -0.147609,-0.610119 -0.137769,-0.177131 -0.413307,-0.177131 -0.560915,0 -0.560915,0.679003 v 0.738047 H 9.8357461 v -0.669162 q 0,-0.836454 0.4133069,-1.279282 0.413306,-0.452669 1.200556,-0.452669 0.787251,0 1.200557,0.452669 0.413307,0.442828 0.413307,1.279282 0,0.6298 -0.30506,1.230078 -0.295219,0.600279 -1.033266,1.377688 -0.482191,0.511713 -0.649482,0.836454 -0.16729,0.3149 -0.16729,0.679003 v 0.14761 h 2.056691 v 0.984063 H 9.8357461 Z m 6.0716649,-5.15649 h -2.18462 v -0.984063 h 3.247408 v 0.944701 l -1.692589,5.94374 h -1.10215 z m 1.820512,-0.984063 h 1.08247 v 2.902986 l 1.377688,-2.902986 h 1.082469 l -1.289122,2.529042 1.308803,4.359399 h -1.131672 l -0.915179,-3.070277 -0.432987,0.875816 v 2.194461 h -1.08247 z m 5.254892,3.828005 h -1.318644 v -0.767569 h 1.318644 v -1.328485 h 0.767569 v 1.328485 h 1.318645 v 0.767569 h -1.318645 v 1.348166 h -0.767569 z"
         id="text12"
         aria-label="27K+ " />
    </g>
  </g>
</svg>
