<?xml version="1.0" encoding="UTF-8" standalone="no"?>
<!DOCTYPE svg PUBLIC "-//W3C//DTD SVG 20010904//EN" "http://www.w3.org/TR/2001/REC-SVG-20010904/DTD/svg10.dtd">
<svg version="1.0" xmlns="http://www.w3.org/2000/svg" width="512.000000pt" height="512.000000pt" viewBox="0 0 512.000000 512.000000" preserveAspectRatio="xMidYMid meet">

<g transform="translate(0.000000,512.000000) scale(0.100000,-0.100000)" fill="#000000" stroke="none">
<path d="M2430 4895 c-25 -8 -450 -242 -945 -520 -943 -530 -962 -542 -1020 -642 -56 -95 -55 -71 -55 -1173 0 -647 4 -1031 11 -1059 5 -24 21 -67 35 -96 55 -112 60 -115 1004 -646 481 -271 898 -503 926 -515 99 -46 243 -47 342 -3 26 11 441 241 922 512 945 531 958 539 1013 651 14 29 31 73 36 97 14 60 14 2058 0 2118 -5 24 -22 68 -36 97 -55 112 -68 120 -1013 651 -481 271 -898 502 -925 514 -64 29 -225 37 -295 14z m370 -1130 c245 -49 478 -179 654 -366 42 -45 75 -86 73 -92 -7 -21 -430 -260 -443 -251 -6 5 -38 30 -70 57 -134 108 -283 161 -454 160 -166 0 -304 -47 -438 -148 -118 -89 -220 -245 -259 -395 -22 -86 -22 -254 0 -340 39 -150 141 -306 259 -395 134 -101 272 -148 438 -148 171 -1 320 52 454 160 32 27 64 52 70 57 13 9 436 -230 443 -251 6 -18 -143 -169 -236 -238 -146 -110 -339 -194 -521 -226 -97 -17 -324 -17 -420 0 -507 91 -903 487 -1001 1001 -16 84 -16 336 0 420 101 536 520 936 1056 1009 90 13 299 5 395 -14z m782 -997 l3 -103 103 -3 102 -3 0 -99 0 -99 -102 -3 -103 -3 -3 -102 -3 -103 -99 0 -100 0 0 105 0 105 -105 0 -105 0 0 100 0 100 105 0 105 0 0 105 0 105 100 0 99 0 3 -102z m718 -3 l0 -105 105 0 105 0 0 -100 0 -100 -105 0 -105 0 0 -105 0 -105 -100 0 -99 0 -3 103 -3 102 -102 3 -103 3 0 99 0 99 103 3 102 3 3 103 3 102 99 0 100 0 0 -105z"/>
</g>
</svg>