<svg xmlns="http://www.w3.org/2000/svg" xmlns:xlink="http://www.w3.org/1999/xlink" xml:space="preserve" viewBox="0 0 210.127 128.264"><defs><linearGradient id="a"><stop offset="0" stop-color="#fde1ae" stop-opacity="0"/><stop offset="1" stop-color="#fde1ae"/></linearGradient><linearGradient xlink:href="#a" id="b" x1="17.642" x2="66.432" y1="93.705" y2="93.174" gradientUnits="userSpaceOnUse"/></defs><g transform="translate(1.132 1.132)"><path fill="url(#b)" d="m17.167 96.963-.322 26.139H195.98V26.548c-22.4 21.842-63.726 61.368-178.813 70.414" opacity=".469"/><path fill="none" d="M16.902 96.166H195.98V26.548c-70.397 59.6-125.127 65.934-179.078 69.618"/><path d="m125.192 37.522-1.837-1.137a22 22 0 0 0-.047-.496l1.576-1.473a.62.62 0 0 0-.205-1.031l-2.02-.758q-.068-.239-.141-.474l1.263-1.754a.62.62 0 0 0-.404-.971l-2.14-.35q-.111-.218-.23-.433l.9-1.972a.62.62 0 0 0-.585-.875l-2.174.077q-.15-.187-.304-.37l.495-2.118a.62.62 0 0 0-.744-.745l-2.118.5q-.183-.154-.37-.304l.076-2.174a.62.62 0 0 0-.875-.589l-1.971.903a18 18 0 0 0-.434-.23l-.349-2.14a.62.62 0 0 0-.971-.403l-1.756 1.26a18 18 0 0 0-.475-.14l-.758-2.02a.62.62 0 0 0-1.031-.206l-1.473 1.576q-.247-.026-.495-.046l-1.135-1.839a.62.62 0 0 0-1.052 0l-1.138 1.837a22 22 0 0 0-.495.046l-1.473-1.576a.62.62 0 0 0-1.031.206l-.758 2.02q-.24.067-.476.142l-1.753-1.263a.62.62 0 0 0-.971.403l-.35 2.14q-.218.111-.434.229l-1.97-.895a.62.62 0 0 0-.874.59l.077 2.172c-.126.1-.253.201-.372.304l-2.117-.503a.62.62 0 0 0-.745.745l.5 2.118a18 18 0 0 0-.305.371l-2.173-.077a.63.63 0 0 0-.536.275.62.62 0 0 0-.048.6l.897 1.97q-.117.217-.23.435l-2.139.349a.62.62 0 0 0-.403.971l1.263 1.753q-.073.236-.141.476l-2.02.758a.62.62 0 0 0-.206 1.031l1.576 1.473q-.026.247-.047.495l-1.84 1.137a.62.62 0 0 0 0 1.052l1.837 1.137c.014.169.029.33.046.494l-1.576 1.474a.62.62 0 0 0 .206 1.03l2.02.759q.067.239.142.475l-1.263 1.754a.62.62 0 0 0 .403.971l2.14.35q.112.218.23.432l-.895 1.973a.62.62 0 0 0 .048.6.6.6 0 0 0 .536.274l2.175-.076q.149.187.303.37l-.5 2.118a.62.62 0 0 0 .745.744l2.118-.499q.183.154.37.304l-.077 2.174a.62.62 0 0 0 .875.585l1.973-.9q.214.119.432.23l.35 2.14a.618.618 0 0 0 .971.403l1.754-1.263q.235.073.475.141l.758 2.02a.62.62 0 0 0 1.031.206l1.473-1.576q.247.026.495.047l1.138 1.836a.62.62 0 0 0 1.052 0l1.137-1.836q.25-.021.495-.048l1.473 1.577a.62.62 0 0 0 1.032-.205l.757-2.02q.24-.069.476-.142l1.752 1.263a.618.618 0 0 0 .972-.403l.35-2.14q.217-.111.433-.23l1.971.9a.62.62 0 0 0 .875-.585l-.076-2.174q.186-.15.37-.304l2.117.5a.62.62 0 0 0 .744-.745l-.499-2.118q.154-.183.304-.37l2.174.076a.61.61 0 0 0 .536-.274.62.62 0 0 0 .049-.6l-.9-1.972q.119-.215.23-.434l2.14-.349a.62.62 0 0 0 .403-.971l-1.262-1.754q.074-.236.14-.476l2.02-.757a.62.62 0 0 0 .206-1.031l-1.576-1.474q.026-.246.046-.494l1.837-1.137a.62.62 0 0 0 0-1.052zM112.48 48.388a1.17 1.17 0 0 0-1.39.9l-.644 3.002a15.79 15.79 0 0 1-13.162-.062l-.644-3.002a1.17 1.17 0 0 0-1.385-.9l-2.653.57a16 16 0 0 1-1.369-1.617h12.895c.144 0 .243-.025.243-.161v-4.562c0-.132-.099-.16-.243-.16h-3.774l.004-2.893h4.08c.372 0 1.993.108 2.509 2.178.16.636.519 2.706.762 3.368.244.742 1.23 2.227 2.282 2.227h6.654a16 16 0 0 1-1.46 1.691zm2.17 2.904a1.283 1.283 0 1 1-1.288-1.284h.037a1.28 1.28 0 0 1 1.246 1.283zm-18.994-.058a1.283 1.283 0 1 1-1.284-1.284h.038a1.284 1.284 0 0 1 1.242 1.284zM88.24 36.208l2.764-1.229a1.17 1.17 0 0 0 .594-1.543l-.57-1.28h2.236v10.078h-4.512a15.8 15.8 0 0 1-.512-6.026m-.948-3.035a1.283 1.283 0 0 1 1.282-1.284h.039a1.283 1.283 0 1 1-1.32 1.283zm13.062 2.062.004-2.974h5.325c.276 0 1.942.317 1.942 1.568 0 1.034-1.279 1.406-2.33 1.406zm15.618 7.082c-.825.095-1.737-.347-1.852-.85-.487-2.735-1.296-3.316-2.573-4.327 1.587-1.006 3.237-2.495 3.237-4.483 0-2.148-1.472-3.501-2.475-4.165-1.41-.926-2.97-1.114-3.39-1.114H92.175a15.8 15.8 0 0 1 8.83-4.983l1.976 2.07a1.163 1.163 0 0 0 1.65.038l2.21-2.105a15.79 15.79 0 0 1 10.807 7.697l-1.515 3.415a1.18 1.18 0 0 0 .597 1.543l2.911 1.291a16 16 0 0 1 .034 2.74h-1.623c-.16 0-.226.106-.226.263v.742c-.001 1.747-.986 2.133-1.854 2.228m-13.385-20.751a1.283 1.283 0 0 1 1.28-1.28h.038a1.283 1.283 0 1 1-1.318 1.28m16.57 12.946a1.283 1.283 0 1 1 0-2.566h.037a1.283 1.283 0 0 1-.037 2.566"/><path d="M12.282 110.17v-.006q0-.16.006-.319.006-.165.024-.318.025-.16.067-.313.043-.159.11-.3.068-.147.154-.282.092-.135.196-.25.104-.123.22-.228.123-.11.252-.208.128-.098.25-.202.123-.104.215-.233.098-.128.141-.282.05-.159.05-.318 0-.086-.013-.166-.006-.08-.03-.159-.025-.08-.068-.147-.037-.073-.098-.129-.061-.055-.141-.08-.08-.024-.16-.024-.11 0-.214.043t-.171.129q-.061.086-.092.196-.03.104-.03.214v.006h-.68v-.012q0-.153.03-.306.037-.16.11-.294.074-.141.184-.251.116-.117.251-.184.141-.074.294-.098.16-.03.319-.03.165 0 .33.036.166.03.307.117.147.08.257.208t.178.282q.067.147.092.318.024.166.024.331 0 .202-.055.398-.049.196-.153.374-.104.171-.251.319-.147.14-.3.27-.153.128-.3.269-.147.14-.27.306-.116.16-.202.35-.08.183-.11.385h1.617v.588zm4.233.049q-.166 0-.337-.03-.166-.031-.313-.111t-.263-.202q-.11-.129-.184-.276-.067-.153-.098-.318-.024-.172-.024-.337v-2.053q0-.165.024-.33.03-.172.098-.32.074-.152.184-.275.116-.128.263-.208t.313-.11q.171-.031.337-.031.165 0 .33.03.172.031.32.11.146.08.257.21.116.122.183.275.074.147.098.318.031.166.031.331v2.053q0 .165-.03.337-.025.165-.099.318-.067.147-.183.276-.11.122-.258.202-.147.08-.318.11-.166.03-.331.03m-.54-2.169 1.079-.851v-.307q0-.122-.024-.245t-.099-.226q-.067-.105-.183-.16-.11-.055-.233-.055t-.24.055q-.11.055-.183.16-.067.104-.092.226t-.024.245zm.54 1.58q.122 0 .233-.054.116-.055.183-.16.074-.104.098-.226t.025-.245v-1.158l-1.078.851v.307q0 .122.024.245.025.122.092.226.074.104.184.16.116.055.239.055zm3.063.589q-.165 0-.337-.03-.165-.031-.312-.111t-.264-.202q-.11-.129-.184-.276-.067-.153-.098-.318-.024-.172-.024-.337v-2.053q0-.165.024-.33.031-.172.098-.32.074-.152.184-.275.117-.129.264-.208.147-.08.312-.11.172-.031.337-.031t.331.03q.172.031.319.11.146.08.257.21.116.122.184.275.073.147.098.318.03.166.03.331v2.053q0 .165-.03.337-.025.165-.098.318-.068.147-.184.276-.11.122-.257.202t-.319.11q-.165.03-.33.03m-.539-2.169 1.078-.851v-.307q0-.122-.024-.245-.025-.122-.098-.227-.068-.104-.184-.159-.11-.055-.233-.055-.122 0-.239.055-.11.055-.184.16-.067.104-.092.226t-.024.245zm.54 1.58q.122 0 .232-.054.116-.055.184-.16.073-.104.098-.226.024-.123.024-.245v-1.158l-1.078.851v.307q0 .122.025.245.024.122.092.226.073.104.183.16.117.055.24.055zm3.062.589q-.19 0-.38-.055-.183-.055-.33-.172-.147-.122-.252-.282-.098-.165-.159-.349-.055-.184-.08-.374-.018-.19-.018-.38 0-.238.043-.477.05-.24.129-.466.085-.227.19-.44.104-.221.208-.436l.54-1.121h.74l-.667 1.378q-.037.08-.08.166l-.086.16q.055-.013.11-.013.056-.006.11-.006.178 0 .35.043.178.043.318.147.147.098.252.245.11.14.171.306t.086.343q.025.172.025.35 0 .177-.025.355t-.092.343q-.061.165-.171.312-.105.141-.252.245-.147.098-.324.135-.178.043-.356.043m0-.588q.092 0 .178-.037.092-.037.153-.104.068-.068.104-.153.043-.092.062-.178.024-.092.03-.184.012-.098.012-.19t-.012-.184q-.006-.098-.03-.19-.019-.091-.062-.177-.036-.086-.098-.153-.06-.068-.153-.104-.086-.037-.177-.037-.098 0-.19.037-.086.036-.147.104-.062.067-.105.153t-.067.178q-.018.091-.024.19-.007.091-.007.183t.006.19q.007.092.025.184.025.086.061.178.043.085.104.153.068.067.154.104.092.037.183.037" aria-label="2006" font-family="Iosevka" font-size="6.127" font-weight="700" style="line-height:1.25;-inkscape-font-specification:&quot;Iosevka, Bold&quot;"/><path d="M11.844 117.558q-.16 0-.32-.03-.158-.025-.305-.092-.141-.068-.258-.178-.116-.116-.196-.251-.073-.141-.11-.294-.037-.16-.037-.319v-.012h.68v.006q0 .11.03.22.038.111.111.197t.178.128q.11.037.226.037.117 0 .227-.043.11-.049.178-.14.073-.099.104-.215.037-.117.037-.233 0-.147-.062-.282t-.171-.233q-.104-.104-.239-.171l-.263-.135q-.13-.067-.252-.147t-.232-.171q-.11-.098-.209-.209-.092-.116-.159-.245-.061-.135-.092-.275-.03-.147-.03-.295 0-.159.03-.318.037-.16.104-.3.074-.147.178-.264.11-.122.251-.196.141-.08.294-.11.16-.03.319-.03t.312.03q.16.024.294.098.141.073.251.19.11.11.178.251.074.135.104.294.037.153.037.306v.006h-.68q0-.11-.03-.214-.025-.11-.093-.196-.06-.086-.165-.129-.098-.049-.208-.049t-.215.055q-.104.05-.165.141-.061.092-.092.209-.024.11-.024.22 0 .147.06.288.062.135.166.24.11.097.24.164l.256.135q.135.068.258.147.128.074.239.172t.202.214q.092.11.153.245.067.129.098.276.037.141.037.288 0 .165-.037.325-.037.159-.11.306-.074.14-.19.263-.117.117-.264.19-.14.074-.306.104-.16.031-.319.031zm3.449 0q-.153 0-.307-.037-.153-.036-.281-.128-.123-.092-.215-.22-.086-.13-.14-.277-.05-.147-.068-.3-.018-.159-.018-.312v-1.434h-.595v-.588h.594v-1.256h.687v1.256h.863v.588h-.863v1.58q.006.068.018.142.012.067.03.135.025.067.062.128.043.055.104.098.061.037.129.037.092 0 .165-.055.08-.062.116-.147.037-.086.05-.178.012-.092.012-.184v-.03h.686v.061q0 .147-.03.288-.025.14-.08.276-.055.128-.153.239-.092.11-.215.183-.122.074-.263.104-.141.031-.288.031m2.31 0q-.123 0-.246-.024-.116-.025-.22-.086-.098-.061-.178-.153-.073-.098-.122-.209-.043-.116-.062-.232-.018-.117-.018-.24 0-.165.037-.324.036-.16.134-.288.098-.135.233-.227t.288-.147q.16-.055.319-.073.165-.019.324-.019h.374v-.239q0-.104-.03-.196-.031-.098-.105-.165-.067-.073-.165-.104-.098-.03-.202-.03-.086 0-.178.024-.086.018-.16.073-.073.055-.116.141-.036.086-.036.172h-.68q0-.141.036-.282.043-.141.123-.264.08-.122.196-.214t.251-.14q.135-.056.276-.074.147-.025.288-.025.153 0 .306.025.153.018.288.08.141.06.257.165.117.098.19.233.08.128.11.281.031.147.031.3v2.212h-.68v-.478q-.03.062-.043.08l-.024.043-.043.055q-.019.024-.043.049-.018.024-.043.049l-.049.049q-.024.018-.055.037-.024.018-.055.037-.025.018-.055.036l-.061.025q-.031.012-.068.018-.03.013-.061.019l-.068.012q-.03.006-.067.006-.03.006-.067.006-.031.006-.062.006zm.275-.588q.116 0 .227-.03.116-.037.196-.117.086-.08.122-.19.043-.11.043-.226v-.282h-.374q-.073 0-.146.006-.074.006-.148.024-.067.019-.134.05-.068.03-.123.079-.049.049-.08.122-.024.068-.024.141 0 .086.03.172.031.086.093.147.06.055.147.08.085.024.171.024m2.334.54v-3.248h.686v.705q.037-.141.092-.27.055-.135.147-.245t.22-.171q.136-.068.277-.068.116 0 .226.037.117.037.196.116.086.08.135.184.055.104.086.22.03.111.037.227.012.117.012.233h-.686q0-.073-.013-.147-.006-.073-.036-.135-.031-.067-.098-.104-.062-.043-.135-.043-.098 0-.184.062-.08.06-.129.147-.049.085-.08.183-.024.098-.042.196t-.025.203v1.917zm4.27.048q-.153 0-.306-.037-.153-.036-.282-.128-.122-.092-.214-.22-.086-.13-.141-.276-.05-.147-.068-.3-.018-.16-.018-.313v-1.434h-.594v-.588h.594v-1.256h.686v1.256h.864v.588h-.864v1.58q.006.068.019.142.012.067.03.135.025.067.061.128.043.055.105.098.061.037.128.037.092 0 .166-.055.08-.061.116-.147t.05-.178q.011-.092.011-.184v-.03h.687v.061q0 .147-.031.288-.025.14-.08.276-.055.128-.153.239-.092.11-.214.183t-.264.104-.288.031" aria-label="Start" font-family="Iosevka" font-size="6.127" font-weight="700" style="line-height:1.25;-inkscape-font-specification:&quot;Iosevka, Bold&quot;"/><path d="M196.409 15.37h-1.5q0-.308.014-.603.027-.308.094-.589.08-.294.2-.562.12-.281.295-.522.174-.254.375-.469.214-.227.401-.455.188-.227.308-.508.134-.282.134-.576 0-.228-.067-.442-.067-.227-.214-.388-.147-.174-.362-.254-.214-.08-.441-.08-.228 0-.442.08-.2.067-.348.24-.147.161-.228.375-.067.215-.067.429v.04h-1.485v-.067q0-.335.08-.656t.24-.602q.161-.295.402-.509.255-.227.55-.361.307-.148.628-.201.335-.054.67-.054.334 0 .669.054.335.053.63.2.307.148.548.389.254.24.415.535t.228.63q.08.32.08.655 0 .308-.054.603-.053.294-.16.575-.094.268-.241.536-.148.254-.335.495-.174.241-.388.455-.2.214-.362.469-.16.24-.214.535t-.053.603m-.75 3.32q-.24 0-.468-.081-.228-.067-.402-.228-.16-.174-.241-.401-.067-.228-.067-.469t.067-.468q.08-.241.241-.402.174-.174.402-.24.227-.068.468-.068t.469.067q.227.067.388.241.174.16.24.402.081.227.081.468t-.08.469q-.067.227-.241.401-.16.161-.388.228-.228.08-.469.08" aria-label="?" font-family="Iosevka" font-size="13.386" font-weight="700" style="line-height:1.25;-inkscape-font-specification:&quot;Iosevka, Bold&quot;"/><path fill="none" stroke="#0b1b31" stroke-width="2" d="M17.615 96.005C88.09 94.9 157.23 65.834 196.693 26.387"/><path d="M60.353 103.82v-.006q0-.16.006-.319.006-.165.025-.318.024-.16.067-.313.043-.159.11-.3.068-.147.154-.282.092-.135.196-.25.104-.123.22-.228.123-.11.251-.208.13-.098.252-.202t.214-.233q.098-.129.141-.282.049-.159.049-.318 0-.086-.012-.166-.006-.08-.03-.159-.026-.08-.068-.147-.037-.074-.098-.129t-.141-.08-.16-.024q-.11 0-.214.043t-.172.129q-.06.086-.092.196-.03.104-.03.214v.006h-.68v-.012q0-.153.03-.306.037-.16.11-.294.074-.141.185-.251.116-.117.25-.184.142-.074.295-.098.16-.03.318-.03.166 0 .331.036.166.03.307.116.147.08.257.209.11.128.178.281.067.147.091.32.025.164.025.33 0 .202-.055.398-.05.196-.153.374-.105.171-.252.318-.147.141-.3.27t-.3.27-.27.306q-.116.16-.202.35-.08.183-.11.385h1.617v.588zm4.234.049q-.166 0-.337-.03-.166-.031-.313-.111t-.263-.202q-.11-.129-.184-.276-.067-.153-.098-.318-.025-.172-.025-.337v-2.053q0-.165.025-.33.03-.172.098-.32.073-.152.184-.275.116-.129.263-.208.147-.08.313-.11.171-.031.337-.031.165 0 .33.03.172.031.319.11.147.08.257.21.117.122.184.275.074.147.098.318.03.166.03.331v2.053q0 .165-.03.337-.024.165-.098.318-.067.147-.184.276-.11.122-.257.202t-.319.11q-.165.03-.33.03m-.54-2.169 1.079-.851v-.307q0-.122-.025-.245-.024-.122-.098-.226-.067-.105-.184-.16-.11-.055-.232-.055t-.24.055q-.11.055-.183.16-.068.104-.092.226-.025.123-.025.245zm.54 1.58q.122 0 .232-.054.117-.055.184-.16.074-.104.098-.226t.025-.245v-1.158l-1.079.851v.307q0 .122.025.245.024.122.092.226.073.104.184.16.116.055.239.055zm2.904.54v-3.872l-.705.564-.337-.362 1.041-.833h.687v4.503zm3.234.049q-.153 0-.306-.03-.147-.025-.282-.099-.135-.073-.245-.183-.104-.11-.178-.24-.073-.134-.116-.281t-.061-.3h.686v.012q.018.098.049.196.037.092.098.171t.153.123q.098.043.202.043.092 0 .184-.043t.153-.117q.062-.08.092-.171.037-.092.055-.184.025-.098.03-.19.013-.098.013-.196t-.012-.196q-.006-.098-.025-.19-.018-.092-.055-.184-.03-.092-.092-.165-.055-.08-.147-.122-.086-.044-.184-.044t-.196.043q-.092.043-.153.123-.055.08-.086.178-.024.098-.03.202h-.68v-2.708h2.175v.588h-1.495v1.06q.11-.043.227-.055.122-.018.239-.018.183 0 .361.049.178.043.319.147.147.104.25.257.105.153.16.325.061.171.08.349.024.177.024.361 0 .178-.024.362-.019.184-.08.355-.061.166-.165.319t-.258.257q-.147.104-.324.147-.178.049-.356.049" aria-label="2015" font-family="Iosevka" font-size="6.127" font-weight="700" style="line-height:1.25;-inkscape-font-specification:&quot;Iosevka, Bold&quot;"/><path d="M54.22 111.72v-4.503h1.201q.172 0 .337.043.172.037.319.128.147.092.251.233.11.135.172.294.06.16.085.331t.025.343q0 .202-.037.405-.03.202-.122.386-.092.177-.252.318-.153.135-.343.202l.87 1.82h-.717l-.839-1.758h-.27v1.758zm.68-2.347h.521q.086 0 .166-.03.086-.037.147-.098t.098-.141q.037-.086.055-.166.024-.085.03-.171.013-.092.013-.178t-.012-.171q-.006-.092-.031-.178-.018-.086-.055-.165t-.098-.141-.147-.092q-.08-.037-.166-.037h-.52zm3.272 2.396q-.147 0-.288-.05-.14-.048-.251-.146-.104-.098-.171-.227-.068-.135-.11-.276-.037-.14-.056-.282-.012-.146-.012-.293v-2.022h.68v2.022q0 .08.006.159.012.08.03.159.025.074.062.141.043.067.098.123.061.055.135.08.08.024.159.024.08 0 .153-.025.08-.024.135-.08.061-.055.098-.122.043-.067.061-.141.025-.08.03-.16.013-.079.013-.159v-2.021h.68v3.247h-.68v-.503q-.049.123-.123.227-.073.104-.177.184-.098.073-.22.104-.123.037-.252.037m3.333 0q-.141 0-.282-.019t-.276-.067q-.134-.055-.25-.141-.117-.086-.197-.202t-.122-.257-.043-.282h.68q.006.086.043.165.043.08.116.129t.16.067.17.019q.093 0 .179-.019.085-.018.159-.061.073-.05.116-.129.05-.08.05-.165 0-.098-.068-.178-.061-.08-.153-.116-.086-.037-.184-.062l-.19-.049-.184-.06q-.092-.031-.183-.068-.086-.037-.172-.086-.08-.055-.16-.116-.073-.062-.134-.135-.055-.08-.098-.166-.043-.092-.068-.183-.018-.098-.018-.196 0-.141.037-.276.043-.135.116-.251.08-.117.19-.203.11-.091.24-.147.128-.055.269-.073.14-.018.282-.018.134 0 .269.018.141.018.27.073.128.05.239.135t.183.202q.08.117.117.252.043.134.043.275h-.68q-.006-.08-.043-.153-.031-.08-.098-.129-.062-.049-.141-.067-.08-.018-.16-.018-.085 0-.165.018t-.147.067-.104.13q-.037.073-.037.158 0 .098.061.178.068.08.153.116.093.037.184.062.098.024.19.055.092.024.184.055.092.024.184.067.092.037.171.086.086.05.16.117.073.06.134.14.062.074.105.16t.06.184q.025.098.025.19 0 .147-.043.287-.043.135-.128.258-.08.116-.196.202-.117.086-.251.14-.135.05-.276.068t-.288.019m3.455 0q-.153 0-.306-.037t-.282-.129q-.122-.092-.214-.22-.086-.129-.141-.276-.05-.147-.068-.3-.018-.16-.018-.313v-1.433h-.594v-.588h.594v-1.256h.686v1.256h.864v.588h-.864v1.58q.006.068.019.141.012.068.03.135.025.068.061.129.043.055.105.098.06.037.128.037.092 0 .166-.055.08-.062.116-.147.037-.086.05-.178.011-.092.011-.184v-.03h.686v.06q0 .148-.03.289-.025.14-.08.275-.055.129-.153.24-.092.11-.214.183-.123.074-.264.104-.14.03-.288.03m5.588-.05v-3.871l-.705.563-.337-.361 1.042-.833h.686v4.503zm3.222.05q-.122 0-.239-.037t-.202-.116q-.086-.086-.123-.203-.03-.122-.03-.239 0-.122.03-.239.037-.116.123-.202.086-.085.202-.122t.24-.037.238.037q.116.037.202.122.086.086.117.202.036.117.036.24 0 .116-.036.238-.031.117-.117.203-.086.08-.202.116t-.239.037m3.063 0q-.165 0-.337-.03-.165-.031-.312-.111t-.264-.202q-.11-.129-.183-.276-.068-.153-.098-.319-.025-.171-.025-.337v-2.052q0-.165.025-.33.03-.172.098-.32.073-.152.183-.275.117-.129.264-.208.147-.08.312-.11.172-.031.337-.031t.331.03q.172.031.319.11t.257.209q.116.123.184.276.073.147.098.318.03.166.03.331v2.052q0 .166-.03.337-.025.166-.098.319-.068.147-.184.276-.11.122-.257.202t-.319.11q-.165.03-.33.03m-.539-2.169 1.078-.852v-.306q0-.122-.024-.245-.025-.123-.098-.227-.068-.104-.184-.159-.11-.055-.233-.055-.122 0-.239.055-.11.055-.183.16-.068.104-.092.226-.025.123-.025.245zm.54 1.58q.122 0 .232-.054.116-.056.184-.16.073-.104.098-.226.024-.123.024-.245v-1.158l-1.078.851v.306q0 .123.025.245.024.123.092.227.073.104.183.16.117.055.24.055z" aria-label="Rust 1.0" font-family="Iosevka" font-size="6.127" font-weight="700" style="line-height:1.25;-inkscape-font-specification:&quot;Iosevka, Bold&quot;"/><path d="M107.662 90.013v-3.915h-.9v-.588h2.487v.588h-.9v3.915zm3.406.048q-.165 0-.337-.03-.165-.03-.312-.11t-.263-.203q-.11-.128-.184-.275-.068-.153-.098-.319-.025-.171-.025-.337v-.796q0-.166.025-.331.03-.172.098-.319.073-.153.184-.275.116-.129.263-.209t.312-.11q.172-.03.337-.03t.331.03q.172.03.319.11t.257.209q.117.122.184.275.073.147.098.319.03.165.03.33v.797q0 .166-.03.337-.025.166-.098.319-.067.147-.184.275-.11.123-.257.203t-.319.11q-.165.03-.33.03m0-.588q.123 0 .233-.055.117-.055.184-.16.074-.103.098-.226.025-.122.025-.245v-.796q0-.123-.025-.245t-.098-.227q-.067-.104-.184-.16-.11-.054-.233-.054-.122 0-.239.055-.11.055-.183.159-.068.104-.092.227-.025.122-.025.245v.796q0 .123.025.245.024.123.092.227.073.104.184.16.116.054.238.054m2.776.588q-.147 0-.294-.049-.141-.042-.258-.134-.11-.098-.19-.227-.073-.135-.116-.276-.043-.14-.061-.288-.013-.153-.013-.3v-.796q0-.147.013-.294.018-.153.06-.294.044-.141.117-.27.08-.135.19-.227.117-.098.258-.14.147-.05.294-.05.128 0 .25.037.123.03.228.11.104.074.177.178.074.104.123.227v-1.759h.68v4.503h-.68v-.502q-.05.123-.123.227t-.177.184q-.105.073-.227.104-.123.036-.251.036m.282-.588q.08 0 .153-.024.08-.025.14-.074.062-.055.099-.122.042-.074.06-.147.025-.08.031-.16.013-.08.013-.159v-.796q0-.08-.013-.16-.006-.08-.03-.153-.019-.08-.061-.147-.037-.073-.098-.122-.062-.055-.141-.08-.074-.024-.153-.024-.123 0-.24.06-.11.056-.177.16-.067.098-.092.22-.024.123-.024.246v.796q0 .123.024.245.025.123.092.227.067.098.178.16.116.054.239.054m2.695.588q-.122 0-.245-.024-.116-.024-.22-.086-.098-.061-.178-.153-.074-.098-.123-.208-.043-.117-.061-.233t-.018-.239q0-.165.036-.325t.135-.288q.098-.134.233-.226t.288-.147q.16-.055.318-.074.166-.018.325-.018h.374v-.24q0-.103-.03-.195-.031-.098-.105-.166-.067-.073-.165-.104-.098-.03-.202-.03-.086 0-.178.024-.086.019-.16.074-.073.055-.116.14-.037.086-.037.172h-.68q0-.14.037-.282.043-.14.123-.263t.196-.215.251-.14q.135-.056.276-.074.147-.025.288-.025.153 0 .306.025.153.018.288.08.14.06.257.165.117.098.19.233.08.128.11.282.031.147.031.3v2.211h-.68v-.477q-.03.06-.043.08l-.025.042-.042.055q-.019.025-.043.05-.019.024-.043.048l-.05.05q-.024.018-.054.036-.025.019-.055.037l-.055.037-.062.024q-.03.012-.067.019-.03.012-.062.018l-.067.012q-.03.006-.067.006-.03.006-.068.006-.03.006-.061.006m.276-.588q.116 0 .227-.03.116-.037.196-.117.085-.08.122-.19.043-.11.043-.226v-.282h-.374q-.073 0-.147.006t-.147.025q-.067.018-.135.049-.067.03-.122.08-.05.048-.08.122-.024.067-.024.14 0 .086.03.172t.092.147q.061.055.147.08.086.024.172.024m2.457 1.795q.067-.22.128-.447l.123-.44.11-.411-.9-3.204h.704l.551 2.321.527-2.322h.705l-1.244 4.503z" aria-label="Today" font-family="Iosevka" font-size="6.127" font-weight="700" style="line-height:1.25;-inkscape-font-specification:&quot;Iosevka, Bold&quot;"/><path d="M150.223 71.011v-.006q0-.159.006-.318.006-.166.025-.319.024-.16.067-.312.043-.16.11-.3.068-.148.153-.282.092-.135.196-.252.104-.122.22-.226.123-.11.252-.209t.251-.202.215-.233q.098-.128.14-.281.05-.16.05-.319 0-.086-.013-.165-.006-.08-.03-.16-.025-.08-.068-.147-.036-.073-.098-.128-.06-.055-.14-.08t-.16-.024q-.11 0-.214.042t-.172.13q-.061.085-.092.195-.03.104-.03.215v.006h-.68v-.013q0-.153.03-.306.037-.16.11-.294.074-.14.184-.251.117-.117.252-.184.14-.073.294-.098.159-.03.318-.03.166 0 .331.036.166.03.306.117.147.08.258.208.11.129.177.282.068.147.092.318.025.166.025.331 0 .202-.055.398-.05.196-.154.374-.104.172-.25.319-.148.14-.3.27-.154.128-.301.269-.147.14-.27.306-.116.16-.202.35-.08.183-.11.385h1.617v.588zm4.233.05q-.165 0-.337-.031-.165-.03-.312-.11t-.263-.203q-.11-.128-.184-.275-.068-.154-.098-.319-.025-.172-.025-.337v-2.052q0-.166.025-.331.03-.172.098-.319.073-.153.184-.275.116-.129.263-.209t.312-.11q.172-.03.337-.03t.331.03q.172.03.319.11t.257.209q.117.122.184.275.073.147.098.319.03.165.03.33v2.053q0 .165-.03.337-.025.165-.098.319-.068.147-.184.275-.11.123-.257.202t-.319.11q-.165.031-.33.031m-.539-2.17 1.079-.851v-.306q0-.123-.025-.245-.024-.123-.098-.227-.067-.104-.184-.16-.11-.055-.233-.055-.122 0-.239.056-.11.055-.183.159-.068.104-.092.227-.025.122-.025.245zm.54 1.581q.122 0 .232-.055.117-.055.184-.16.074-.103.098-.226.025-.122.025-.245v-1.158l-1.079.852v.306q0 .123.025.245.024.123.092.227.073.104.183.16.117.054.24.054m3.075.588q-.16 0-.325-.03-.16-.025-.306-.092-.141-.074-.264-.184-.116-.116-.196-.257-.08-.147-.116-.307-.037-.159-.037-.318h.68q0 .116.037.233.037.11.11.202.08.086.19.129.11.036.227.036.128 0 .245-.049.116-.055.19-.153.073-.104.104-.227.037-.122.037-.245 0-.122-.037-.245-.037-.122-.11-.22-.068-.104-.172-.172-.104-.073-.22-.11t-.245-.043q-.123-.012-.246-.012v-.588q.11 0 .227-.006.116-.013.22-.05.111-.036.203-.104t.153-.159q.067-.092.098-.202.03-.117.03-.227t-.024-.214q-.024-.11-.086-.202-.055-.092-.159-.141-.098-.055-.202-.055t-.202.049q-.098.043-.16.128-.055.086-.085.19-.025.104-.025.208v.006h-.68v-.012q0-.153.03-.306.037-.153.105-.288.067-.14.177-.251t.245-.184.288-.098q.154-.03.307-.03t.306.03q.16.03.294.11.135.074.24.19.11.117.177.258.067.14.098.294.037.153.037.312t-.043.319q-.037.159-.123.294t-.208.245-.27.177q.166.068.307.184.14.11.239.258.098.147.147.324.049.172.049.35 0 .165-.037.33-.037.166-.117.319-.073.147-.19.27-.116.116-.263.195-.147.08-.312.11-.166.031-.337.031m3.05 0q-.165 0-.336-.03-.166-.03-.313-.11t-.263-.203q-.11-.128-.184-.275-.067-.154-.098-.319-.024-.172-.024-.337v-2.052q0-.166.024-.331.03-.172.098-.319.074-.153.184-.275.116-.129.263-.209t.313-.11q.171-.03.337-.03.165 0 .33.03.172.03.32.11.146.08.257.209.116.122.183.275.074.147.098.319.03.165.03.33v2.053q0 .165-.03.337-.024.165-.098.319-.067.147-.184.275-.11.123-.257.202t-.318.11q-.166.031-.331.031m-.538-2.168 1.078-.852v-.306q0-.123-.025-.245-.024-.123-.098-.227-.067-.104-.183-.16-.11-.055-.233-.055t-.24.056q-.11.055-.183.159-.067.104-.092.227-.024.122-.024.245zm.539 1.58q.122 0 .233-.055.116-.055.183-.16.074-.103.098-.226.025-.122.025-.245v-1.158l-1.078.852v.306q0 .123.024.245.025.123.092.227.073.104.184.16.116.054.239.054" aria-label="2030" font-family="Iosevka" font-size="6.127" font-weight="700" style="line-height:1.25;-inkscape-font-specification:&quot;Iosevka, Bold&quot;"/><circle cx="66.136" cy="90.398" r="4.385" fill="#f8aa18" stroke="#0b1b31" stroke-linecap="round" stroke-miterlimit="1000" stroke-width="1.5" paint-order="fill markers stroke"/><circle cx="114.132" cy="76.64" r="4.385" fill="#f8aa18" stroke="#0b1b31" stroke-linecap="round" stroke-miterlimit="1000" stroke-width="1.5" paint-order="fill markers stroke"/><circle cx="156.006" cy="56.96" r="4.385" fill="#f8aa18" stroke="#0b1b31" stroke-linecap="round" stroke-miterlimit="1000" stroke-width="1.5" paint-order="fill markers stroke"/><circle cx="195.646" cy="27.856" r="4.385" fill="#f8aa18" stroke="#0b1b31" stroke-linecap="round" stroke-miterlimit="1000" stroke-width="1.5" paint-order="fill markers stroke"/><circle cx="18.065" cy="96.748" r="4.385" fill="#f8aa18" stroke="#0b1b31" stroke-linecap="round" stroke-miterlimit="1000" stroke-width="1.5" paint-order="fill markers stroke"/></g></svg>