<svg xmlns="http://www.w3.org/2000/svg" xmlns:xlink="http://www.w3.org/1999/xlink" xml:space="preserve" width="1000" height="500" viewBox="0 0 264.583 132.292"><g transform="translate(4.463 -105.843)"><path d="M114.991 152.34c-18.06.157-27.713 20.716-47.306 37.427v21.121l149.443-.014c-59.648 0-71.68-58.8-102.137-58.535zM54.62 199.097c-11.83 6.922-26.864 11.797-47.266 11.797l47.266-.005z" style="fill:#ffd885;fill-opacity:.670588;stroke:#000;stroke-width:1.62813;stroke-linecap:butt;stroke-linejoin:miter;stroke-dasharray:none;stroke-opacity:1"/><path id="a" d="M45.623 121.11v92.713" style="opacity:.75;fill:none;stroke:#000;stroke-width:.690273;stroke-linecap:butt;stroke-linejoin:miter;stroke-dasharray:5.52218,2.76109;stroke-dashoffset:0;stroke-opacity:1"/><use xlink:href="#a" style="opacity:.75;stroke-width:1.02427;stroke-dasharray:none" transform="translate(37.24)"/><use xlink:href="#a" style="opacity:.75;stroke-width:1.02427;stroke-dasharray:none" transform="translate(92.782)"/><use xlink:href="#a" style="opacity:.75;stroke-width:1.02427;stroke-dasharray:none" transform="translate(133.809)"/><path d="M9.688 136.728v-.566h.7v-3.199h-.7v-.565h2.062v.565h-.701v3.2h.7v.565zm2.851 0v-3.122h.654v.483q.047-.118.118-.218t.165-.171q.1-.077.218-.106.118-.036.241-.036.142 0 .277.048.136.047.236.14.106.095.17.225.065.123.1.259.042.135.054.277.017.135.017.277v1.944h-.653v-1.944q0-.077-.012-.153-.006-.077-.03-.148-.017-.076-.059-.141-.035-.065-.094-.118-.053-.053-.13-.077-.07-.023-.147-.023t-.153.023q-.07.024-.13.077-.052.053-.094.118-.035.065-.059.141-.017.071-.03.148-.005.076-.005.153v1.944zm2.946 0v-3.122h.653v.483q.048-.118.118-.218.071-.1.165-.171.1-.077.218-.106.118-.036.242-.036.141 0 .277.048.135.047.235.14.106.095.171.225.065.123.1.259.041.135.053.277.018.135.018.277v1.944h-.654v-1.944q0-.077-.012-.153-.006-.077-.03-.148-.017-.076-.058-.141-.035-.065-.094-.118-.053-.053-.13-.077-.07-.023-.147-.023t-.153.023q-.071.024-.13.077-.053.053-.094.118-.036.065-.06.141-.017.071-.029.148-.005.076-.005.153v1.944zm4.07.047q-.159 0-.324-.03-.159-.03-.3-.106-.142-.076-.254-.194-.106-.124-.176-.265-.065-.147-.095-.307-.023-.164-.023-.324v-.765q0-.16.024-.318.029-.165.094-.307.07-.147.176-.265.112-.124.254-.2.141-.077.3-.106.165-.03.324-.03.16 0 .318.03.165.03.307.106.141.076.247.2.112.118.177.265.07.142.094.307.03.159.03.318v.765q0 .16-.03.324-.024.16-.094.307-.065.141-.177.265-.106.118-.247.194t-.307.106q-.159.03-.318.03m0-.566q.118 0 .224-.053.112-.053.177-.153.07-.1.094-.218t.024-.236v-.765q0-.118-.024-.236t-.094-.218q-.065-.1-.177-.153-.106-.053-.224-.053t-.23.053q-.106.053-.176.153-.065.1-.089.218t-.023.236v.765q0 .118.023.236.024.118.089.218.07.1.176.153.112.053.23.053m2.569.519-.878-3.122h.683l.525 2.079q.011.053.023.1l.024.1.023-.1.024-.1.524-2.08h.683l-.877 3.123zm2.963.047q-.118 0-.236-.024-.112-.023-.212-.082-.094-.06-.17-.147-.071-.095-.119-.2-.04-.113-.058-.225t-.018-.23q0-.158.035-.312.036-.153.13-.276.094-.13.224-.218.13-.089.277-.142.153-.053.306-.07.159-.018.312-.018h.36v-.23q0-.1-.03-.188-.03-.095-.1-.16-.065-.07-.16-.1-.093-.03-.194-.03-.082 0-.17.024-.083.018-.154.071t-.112.136q-.035.082-.035.165h-.654q0-.136.036-.271.04-.136.117-.254t.189-.206.241-.135q.13-.054.265-.071.142-.024.277-.024.148 0 .295.024.147.018.277.076.135.06.247.16.112.094.183.223.076.124.106.271.03.142.03.289v2.127h-.655v-.46q-.029.06-.04.077l-.024.041-.042.053q-.017.024-.04.047-.019.024-.042.047l-.047.047q-.024.018-.053.036l-.053.035q-.024.018-.053.035l-.06.024q-.029.012-.064.018-.03.011-.059.017l-.065.012q-.03.006-.064.006-.03.006-.065.006-.03.006-.06.006zm.265-.566q.112 0 .218-.03.112-.035.188-.111.083-.077.118-.183.041-.106.041-.218v-.27h-.359q-.07 0-.141.005-.071.006-.142.024-.064.018-.13.047-.064.03-.117.077-.047.047-.077.117-.023.065-.023.136 0 .082.03.165.029.082.088.141.058.053.14.077t.166.024zm3.405.566q-.147 0-.295-.035-.147-.036-.27-.124-.118-.089-.207-.212-.082-.124-.135-.265-.047-.142-.065-.289-.018-.153-.018-.3v-1.379h-.571v-.565h.571v-1.208h.66v1.208h.83v.565h-.83v1.519q.006.066.018.136.011.065.03.13.023.065.058.124.041.053.1.094.06.035.124.035.088 0 .159-.053.077-.059.112-.141.035-.083.047-.171t.012-.177v-.029h.66v.058q0 .142-.03.277-.023.136-.076.265-.053.124-.148.23-.088.106-.206.177t-.253.1-.277.03m2.58 0q-.159 0-.324-.03-.159-.03-.3-.106-.142-.076-.254-.194-.106-.124-.176-.265-.065-.148-.095-.307-.023-.165-.023-.324v-.765q0-.16.023-.318.03-.165.095-.307.07-.147.176-.265.112-.124.254-.2.141-.077.3-.106.165-.03.324-.03.16 0 .318.03.165.03.307.106.14.076.247.2.112.118.177.265.07.142.094.307.03.159.03.318v.765q0 .16-.03.324-.024.16-.094.307-.065.141-.177.265-.106.118-.247.194t-.307.106q-.159.03-.318.03m0-.566q.118 0 .224-.053.112-.053.177-.153.07-.1.094-.218t.023-.236v-.765q0-.118-.023-.236-.024-.118-.094-.218-.065-.1-.177-.153-.106-.053-.224-.053t-.23.053q-.106.053-.176.153-.065.1-.089.218t-.023.236v.765q0 .118.023.236.024.118.089.218.07.1.176.153.112.053.23.053m2.15.519v-3.123h.66v.678q.035-.136.088-.26.053-.129.142-.235.088-.106.212-.165.13-.065.265-.065.112 0 .218.036.112.035.188.112.083.076.13.176.053.1.083.212.029.106.035.218.012.112.012.224h-.66q0-.07-.012-.141-.006-.07-.035-.13-.03-.065-.095-.1-.058-.041-.13-.041-.093 0-.176.059-.076.058-.124.141-.047.082-.076.177-.024.094-.041.188t-.024.195v1.843zm3.73.047q-.136 0-.272-.018-.135-.018-.265-.065-.13-.053-.241-.135-.112-.083-.189-.195-.076-.111-.118-.247-.04-.136-.04-.271h.653q.006.082.041.159.041.077.112.124.07.047.153.065.083.017.165.017.089 0 .171-.017t.153-.06q.07-.046.112-.123.047-.077.047-.16 0-.093-.065-.17-.058-.077-.147-.112-.082-.035-.177-.059l-.182-.047-.177-.059q-.088-.03-.177-.065-.082-.035-.165-.082-.076-.053-.153-.112-.07-.059-.13-.13-.052-.076-.094-.158-.04-.089-.064-.177-.018-.094-.018-.189 0-.135.035-.265.042-.13.112-.241.077-.112.183-.195.106-.088.23-.141.123-.053.259-.07.135-.019.27-.019.13 0 .26.018.135.018.26.07.123.048.229.13.106.083.177.195.076.112.112.241.04.13.04.266h-.653q-.006-.077-.041-.148-.03-.076-.095-.123-.058-.048-.135-.065t-.153-.018q-.083 0-.16.018-.076.017-.14.065-.065.047-.1.123-.036.07-.036.153 0 .095.059.171.065.077.147.112.088.035.177.059.094.024.182.053.089.024.177.053.088.024.177.065.088.035.165.082.082.047.153.112.07.06.13.136.058.07.1.153.04.082.059.177.023.094.023.182 0 .142-.041.277-.041.13-.124.247-.076.112-.188.195-.112.082-.242.135-.13.047-.265.065t-.277.018z" aria-label="Innovators" style="font-weight:700;font-size:4.93889px;line-height:1.25;font-family:Iosevka;-inkscape-font-specification:&quot;Iosevka, Bold&quot;;stroke-width:.315586"/><g aria-label="Early Adopters" style="font-weight:700;font-size:4.93889px;line-height:1.25;font-family:Iosevka;-inkscape-font-specification:&quot;Iosevka, Bold&quot;;stroke-width:.264583"><path d="M68.595 138.853v-3.63h1.847v.474h-1.299v.993h1.017v.474h-1.017v1.215h1.299v.474zm3.072.04q-.099 0-.198-.02-.094-.02-.178-.07-.079-.049-.143-.123-.059-.079-.099-.168-.034-.093-.049-.187t-.015-.193q0-.133.03-.262.03-.128.109-.232.079-.109.187-.183.109-.074.232-.118.129-.045.257-.06.134-.014.262-.014h.301v-.193q0-.084-.025-.158-.024-.079-.083-.133-.055-.06-.134-.084t-.163-.025q-.069 0-.143.02-.07.015-.128.06-.06.044-.094.113-.03.069-.03.138h-.548q0-.114.03-.227.034-.114.098-.213t.158-.172.203-.114q.108-.044.222-.06.119-.02.232-.02.124 0 .247.02.124.016.232.065.114.05.208.133.094.08.153.188.064.104.089.227.024.119.024.242v1.783h-.548v-.385q-.025.05-.034.064l-.02.035-.035.044q-.015.02-.034.04-.015.02-.035.04l-.04.039-.044.03-.044.029q-.02.015-.045.03l-.05.02q-.024.01-.053.014-.025.01-.05.015l-.054.01q-.025.005-.054.005-.025.005-.055.005-.024.005-.05.005zm.222-.475q.094 0 .183-.024.094-.03.158-.094.069-.064.099-.153.034-.089.034-.183v-.227h-.301q-.06 0-.119.005t-.118.02q-.054.015-.109.04-.054.024-.099.063-.04.04-.064.1-.02.054-.02.113 0 .069.025.138.025.07.074.119.05.044.119.064t.138.02m1.882.435v-2.618h.553v.568q.03-.113.074-.217.044-.108.119-.197.074-.09.177-.139.109-.054.223-.054.093 0 .182.03.094.03.158.093.07.065.109.149.044.084.07.177.024.09.029.183.01.094.01.188h-.553q0-.06-.01-.119-.005-.059-.03-.108-.025-.055-.079-.084-.05-.035-.109-.035-.079 0-.148.05-.064.049-.104.118-.04.07-.064.148-.02.08-.034.158-.015.08-.02.163v1.546zm2.272 0v-.474h.622v-2.682h-.553v-.474h1.106v3.156h.553v.474zm2.765 1.013q.055-.178.104-.361l.099-.356.089-.33-.726-2.583h.568l.444 1.871.425-1.872h.568l-1.003 3.63zm-14.065 5.16.735-3.63h.633l.735 3.63h-.563l-.153-.835h-.671l-.153.835zm1.303-1.31-.202-1.11q-.01-.07-.025-.139-.01-.074-.025-.143l-.03.143-.019.139-.202 1.11zm1.986 1.35q-.119 0-.237-.04-.114-.035-.208-.109-.089-.079-.153-.183-.06-.108-.094-.222-.034-.113-.049-.232-.01-.123-.01-.242v-.642q0-.119.01-.237.015-.124.05-.237.034-.114.093-.218.064-.108.153-.182.094-.08.208-.114.118-.04.237-.04.104 0 .202.03.1.025.183.09.084.058.143.142.06.084.099.183v-1.417h.548v3.63h-.548v-.405q-.04.099-.099.182-.059.084-.143.149-.084.059-.183.084-.098.03-.202.03m.227-.475q.064 0 .123-.02.065-.02.114-.059.05-.044.08-.099.034-.059.048-.118.02-.064.025-.129.01-.064.01-.128v-.642q0-.064-.01-.129-.005-.064-.025-.123-.014-.064-.049-.119-.03-.059-.079-.098-.05-.045-.114-.065-.059-.02-.123-.02-.099 0-.193.05-.089.045-.143.129-.054.079-.074.177-.02.1-.02.198v.642q0 .099.02.198.02.098.074.182.054.08.143.129.094.044.193.044m2.474.474q-.133 0-.271-.024-.134-.025-.252-.09-.119-.064-.213-.162-.088-.104-.148-.223-.054-.123-.079-.256-.02-.139-.02-.272v-.642q0-.133.02-.267.025-.138.08-.257.059-.123.147-.222.094-.104.213-.168.118-.064.252-.089.138-.024.271-.024.134 0 .267.024.138.025.257.09.118.063.207.167.094.099.148.222.06.119.08.257.024.134.024.267v.642q0 .133-.024.272-.02.133-.08.256-.054.119-.148.223-.089.098-.207.163-.119.064-.257.089-.133.024-.267.024m0-.474q.1 0 .188-.044.094-.045.148-.129.06-.084.08-.182.019-.1.019-.198v-.642q0-.099-.02-.198-.02-.098-.079-.182-.054-.084-.148-.129-.089-.044-.188-.044-.098 0-.192.044-.09.045-.148.129-.055.084-.074.182-.02.1-.02.198v.642q0 .099.02.198.02.098.074.182.059.084.148.129.094.044.192.044m1.526 1.447v-3.63h.549v.405q.04-.099.098-.183.06-.084.144-.143.084-.064.182-.089.1-.03.203-.03.118 0 .232.04.119.035.207.114.094.074.154.183.064.103.098.217.035.113.045.237.015.118.015.237v.642q0 .119-.015.242-.01.119-.045.232t-.098.222q-.06.104-.154.183-.088.074-.207.109-.114.04-.232.04-.104 0-.203-.03-.098-.025-.182-.084-.084-.065-.144-.148-.059-.084-.098-.183v1.417zm.949-1.447q.099 0 .187-.044.094-.05.149-.129.054-.084.074-.182.02-.1.02-.198v-.642q0-.099-.02-.198-.02-.098-.074-.177-.055-.084-.149-.129-.088-.05-.187-.05-.064 0-.129.02-.059.02-.108.065-.05.04-.084.099-.03.054-.05.118-.014.06-.024.124-.005.064-.005.128v.642q0 .064.005.128.01.065.024.129.02.06.05.118.034.055.084.1.05.039.108.058.065.02.129.02m2.77.474q-.123 0-.246-.03-.124-.029-.228-.103-.098-.074-.173-.178-.069-.104-.113-.222-.04-.119-.054-.242-.015-.129-.015-.252v-1.156h-.48v-.474h.48v-1.012h.553v1.012h.696v.474h-.696v1.275q.005.054.015.113.01.054.024.109.02.054.05.104.034.044.084.079.05.03.103.03.075 0 .134-.045.064-.05.094-.119t.04-.143.01-.148v-.025h.552v.05q0 .118-.024.232-.02.113-.065.222-.044.103-.123.192-.074.09-.173.149t-.212.084q-.114.024-.233.024m2.174 0q-.134 0-.272-.024-.133-.025-.252-.09-.119-.064-.212-.162-.094-.104-.153-.223-.06-.123-.084-.256-.02-.139-.02-.272v-.642q0-.133.02-.267.024-.138.079-.257.059-.123.148-.222.094-.104.212-.168.119-.064.252-.089.138-.024.272-.024.133 0 .266.024.139.025.257.09.119.063.208.167.093.099.148.222.06.119.079.257.025.134.025.267v.558h-1.418v.084q0 .099.02.203.024.098.079.182.06.08.153.124.094.044.193.044.074 0 .143-.015.074-.014.133-.054.06-.044.094-.109.04-.069.044-.138h.549q-.005.114-.045.227-.034.114-.104.208-.064.093-.158.168-.093.069-.202.113-.109.04-.222.055-.114.02-.232.02m-.445-1.585h.87v-.084q0-.099-.02-.198-.02-.098-.08-.182-.054-.084-.148-.129-.089-.044-.187-.044-.1 0-.193.044-.089.045-.148.129-.054.084-.074.182-.02.1-.02.198zm2.237 1.546v-2.618h.554v.568q.03-.113.074-.217.044-.109.118-.198t.178-.138q.109-.054.222-.054.094 0 .183.03.094.029.158.093.07.064.109.148.044.084.069.178.024.089.03.183.01.094.01.187h-.554q0-.059-.01-.118-.005-.06-.03-.109-.024-.054-.078-.084-.05-.034-.11-.034-.078 0-.147.049-.064.05-.104.119t-.064.148q-.02.079-.035.158t-.02.163v1.546zm3.127.04q-.114 0-.228-.016-.113-.014-.222-.054-.108-.044-.202-.113-.094-.07-.158-.163-.065-.094-.1-.208-.034-.113-.034-.227h.549q.004.07.034.133.035.065.094.104.06.04.128.054.07.015.139.015.074 0 .143-.015t.128-.05q.06-.039.094-.103.04-.064.04-.133 0-.08-.055-.143-.05-.065-.123-.094-.07-.03-.148-.05l-.153-.04-.149-.048q-.074-.025-.148-.055-.069-.03-.138-.069-.064-.044-.128-.094-.06-.05-.11-.108-.044-.065-.078-.134-.035-.074-.054-.148-.015-.079-.015-.158 0-.113.03-.222.034-.109.093-.203.064-.093.153-.163.09-.074.193-.118.104-.045.217-.06.114-.014.227-.014.11 0 .218.015.113.014.217.059.104.04.193.108.089.07.148.163.064.094.094.203.034.109.034.222h-.548q-.005-.064-.035-.123-.024-.064-.079-.104-.049-.04-.113-.054-.064-.015-.129-.015-.069 0-.133.015t-.118.054-.084.104q-.03.06-.03.128 0 .08.05.143.054.065.123.094.074.03.148.05.079.02.153.044.074.02.148.044.074.02.148.055.074.03.139.069.069.04.128.094.06.05.109.113.05.06.084.129t.05.148q.019.079.019.153 0 .119-.035.232-.034.109-.103.208-.065.093-.158.163-.094.069-.203.113-.109.04-.222.054-.114.015-.232.015" style="text-align:center;text-anchor:middle" transform="translate(-24.641 -33.154)scale(1.19277)"/></g><g aria-label="Early Majority" style="font-weight:700;font-size:4.93889px;line-height:1.25;font-family:Iosevka;-inkscape-font-specification:&quot;Iosevka, Bold&quot;;stroke-width:.264583"><path d="M108.937 138.833v-3.63h1.847v.474h-1.299v.993h1.018v.474h-1.018v1.215h1.3v.474zm3.072.04q-.099 0-.198-.02-.093-.02-.177-.069-.08-.05-.144-.124-.059-.079-.098-.167-.035-.094-.05-.188t-.015-.193q0-.133.03-.261.03-.129.109-.233.079-.108.187-.182.109-.074.232-.119.129-.044.257-.06.134-.014.262-.014h.301v-.193q0-.084-.024-.158-.025-.079-.084-.133-.055-.06-.134-.084t-.163-.025q-.069 0-.143.02-.07.015-.128.06-.06.044-.094.113-.03.07-.03.138h-.548q0-.113.03-.227.034-.114.098-.212.065-.1.158-.173.094-.074.203-.114.109-.044.222-.059.119-.02.232-.02.124 0 .247.02.124.015.232.064.114.05.208.134.094.079.153.187.064.104.089.227.024.119.024.242v1.783h-.548v-.385q-.024.05-.034.064l-.02.035-.035.044q-.015.02-.034.04-.015.02-.035.04l-.04.039q-.02.015-.044.03l-.044.03-.045.029-.049.02q-.025.01-.054.014-.025.01-.05.015l-.054.01q-.025.005-.054.005-.025.005-.055.005-.024.005-.049.005m.222-.474q.094 0 .183-.025.094-.03.158-.094.069-.064.099-.153.034-.089.034-.183v-.227h-.3q-.06 0-.12.005-.059.005-.118.02-.054.015-.109.04-.054.024-.098.064-.04.04-.065.098-.02.055-.02.114 0 .07.025.138.025.07.074.119.05.044.119.064t.138.02m1.882.434v-2.617h.553v.568q.03-.114.074-.218.045-.108.119-.197t.177-.138q.11-.055.223-.055.094 0 .182.03.094.03.159.094.069.064.108.148.045.084.07.178.024.089.029.182.01.094.01.188h-.553q0-.06-.01-.118-.005-.06-.03-.11-.025-.053-.079-.083-.05-.035-.108-.035-.08 0-.149.05-.064.05-.103.118-.04.07-.065.148-.02.08-.034.158-.015.08-.02.163v1.546zm2.272 0v-.474h.622v-2.682h-.553v-.474h1.106v3.156h.553v.474zm2.766 1.013q.054-.178.103-.36l.099-.356.089-.331-.726-2.583h.568l.444 1.872.425-1.872h.568l-1.002 3.63zm-14.057 5.161v-3.63h.529l.514 1.906.513-1.906h.529v3.63h-.553v-.726q0-.262.01-.524.014-.261.034-.518l.05-.524q.03-.261.049-.523l-.464 1.723h-.336l-.464-1.723q.02.262.044.523.03.262.05.524.024.257.034.518.015.262.015.524v.726zm3.21.04q-.098 0-.197-.02-.094-.02-.178-.07-.079-.049-.143-.123-.06-.079-.099-.168-.034-.094-.049-.187-.015-.094-.015-.193 0-.133.03-.262.03-.128.108-.232.08-.109.188-.183.109-.074.232-.118.129-.045.257-.06.133-.014.262-.014h.3v-.193q0-.084-.025-.158-.024-.079-.084-.133-.054-.06-.133-.084t-.163-.025q-.069 0-.143.02-.07.014-.129.059-.059.044-.093.114-.03.069-.03.138h-.548q0-.114.03-.227.034-.114.098-.213t.158-.173.203-.113q.108-.045.222-.06.119-.02.232-.02.124 0 .247.02.124.015.232.065.114.05.208.133.093.079.153.188.064.103.089.227.024.118.024.242v1.783H109v-.385l-.034.064-.02.034-.035.045q-.015.02-.034.04-.015.02-.035.039l-.04.04-.044.029q-.02.015-.044.03l-.045.03-.05.019q-.024.01-.053.015-.025.01-.05.015l-.054.01q-.025.005-.054.005-.025.005-.055.005-.024.005-.05.005zm.223-.475q.094 0 .183-.024.094-.03.158-.094.069-.064.099-.153.034-.09.034-.183v-.227h-.301q-.06 0-.119.005t-.118.02q-.054.014-.109.04-.054.024-.099.063-.04.04-.064.1-.02.053-.02.113 0 .069.025.138.025.07.074.119.05.044.119.064t.138.02zm2.222 1.487q-.118 0-.237-.025-.113-.02-.217-.074t-.188-.143q-.084-.084-.138-.193-.054-.103-.084-.222-.025-.114-.03-.227h.554q0 .074.02.148t.064.133q.044.065.113.094.07.035.144.035.064 0 .123-.025.064-.025.104-.074.044-.05.069-.109.025-.054.04-.118.014-.06.019-.124t.005-.128v-2.144h-.588v-.474h1.141v2.618q0 .133-.02.262-.014.133-.064.252-.05.123-.133.227-.08.108-.193.178-.108.074-.242.103-.128.03-.262.03m.544-4.04q-.08 0-.158-.025-.08-.024-.134-.079-.054-.054-.079-.133-.024-.08-.024-.158 0-.08.024-.158.025-.08.08-.134.054-.054.133-.079.079-.024.158-.024t.158.024.133.08.08.133.024.158-.025.158-.079.133q-.054.055-.133.08-.08.024-.158.024m2.252 3.027q-.133 0-.272-.024-.133-.025-.252-.09-.118-.063-.212-.162-.089-.104-.148-.222-.054-.124-.08-.257-.019-.138-.019-.272v-.642q0-.133.02-.267.025-.138.079-.256.06-.124.148-.223.094-.103.212-.168.119-.064.252-.088.139-.025.272-.025t.267.025q.138.024.256.088.119.065.208.168.094.1.148.223.06.118.079.256.025.134.025.267v.642q0 .134-.025.272-.02.133-.079.257-.054.118-.148.222-.089.099-.208.163-.118.064-.256.089-.134.024-.267.024m0-.474q.099 0 .188-.044.093-.045.148-.129.059-.084.079-.182.02-.1.02-.198v-.642q0-.099-.02-.197-.02-.1-.08-.183-.054-.084-.147-.129-.09-.044-.188-.044-.099 0-.193.044-.089.045-.148.129-.054.084-.074.183t-.02.197v.642q0 .099.02.198.02.098.074.182.06.084.148.129.094.044.193.044m1.803.435v-2.618h.553v.568q.03-.113.074-.217.044-.109.118-.198.074-.088.178-.138.109-.054.222-.054.094 0 .183.03.094.03.158.093.07.064.109.148.044.084.069.178.025.09.03.183.01.094.01.188h-.554q0-.06-.01-.119-.005-.06-.03-.109-.024-.054-.078-.084-.05-.034-.109-.034-.079 0-.148.05-.064.049-.104.118t-.064.148q-.02.079-.035.158-.014.079-.02.163v1.546zm2.271 0v-.474h.623v-1.67h-.553v-.474h1.106v2.144h.553v.474zm.865-2.988q-.08 0-.158-.025-.08-.024-.134-.079-.054-.054-.079-.133-.024-.08-.024-.158 0-.08.024-.158.025-.08.08-.134.054-.054.133-.079.079-.024.158-.024t.158.024.133.08.08.133.024.158-.025.158-.079.133q-.054.055-.133.08-.08.024-.158.024m2.775 3.027q-.123 0-.247-.03-.123-.029-.227-.103-.099-.074-.173-.178-.069-.103-.113-.222-.04-.118-.054-.242-.015-.128-.015-.252v-1.155h-.48v-.475h.48v-1.012h.553v1.012h.696v.475h-.696v1.274q.005.054.015.113.01.055.024.109.02.054.05.104.034.044.084.079.05.03.103.03.075 0 .134-.045.064-.05.094-.119t.04-.143.01-.148v-.025h.552v.05q0 .118-.024.232-.02.113-.065.222-.044.104-.123.193-.074.088-.173.148-.099.059-.212.084-.114.024-.232.024zm1.596.973q.054-.177.103-.36l.1-.356.088-.33-.726-2.584h.568l.445 1.872.424-1.872h.568l-1.002 3.63z" style="text-align:center;text-anchor:middle" transform="translate(-24.641 -33.154)scale(1.19277)"/></g><g aria-label="Late Majority" style="font-weight:700;font-size:4.93889px;line-height:1.25;font-family:Iosevka;-inkscape-font-specification:&quot;Iosevka, Bold&quot;;stroke-width:.264583"><path d="M150.385 138.833v-3.63h.553v3.156h1.23v.474zm2.968.04q-.099 0-.198-.02-.093-.02-.177-.069-.08-.05-.144-.124-.059-.079-.098-.167-.035-.094-.05-.188t-.015-.193q0-.133.03-.261.03-.129.109-.233.079-.108.187-.182.11-.074.233-.119.128-.044.256-.06.134-.014.262-.014h.301v-.193q0-.084-.024-.158-.025-.079-.084-.133-.055-.06-.134-.084t-.163-.025q-.069 0-.143.02-.069.015-.128.06-.06.044-.094.113-.03.07-.03.138h-.548q0-.113.03-.227.034-.114.099-.212.064-.1.158-.173.093-.074.202-.114.109-.044.222-.059.119-.02.232-.02.124 0 .247.02.124.015.232.064.114.05.208.134.094.079.153.187.064.104.089.227.025.119.025.242v1.783h-.549v-.385q-.024.05-.034.064l-.02.035-.034.044q-.015.02-.035.04-.015.02-.035.04l-.04.039q-.019.015-.044.03l-.044.03-.045.029-.049.02q-.025.01-.054.014-.025.01-.05.015l-.054.01q-.025.005-.054.005-.025.005-.055.005-.024.005-.049.005m.222-.474q.094 0 .183-.025.094-.03.158-.094.07-.064.099-.153.034-.089.034-.183v-.227h-.3q-.06 0-.12.005-.059.005-.118.02-.054.015-.109.04-.054.024-.098.064-.04.04-.065.098-.02.055-.02.114 0 .07.025.138.025.07.074.119.05.044.119.064.07.02.138.02m2.855.474q-.124 0-.247-.03t-.227-.103q-.099-.075-.173-.178-.07-.104-.114-.222-.04-.119-.054-.242-.015-.129-.015-.252v-1.156h-.479v-.474h.48v-1.013h.552v1.013h.697v.474h-.697v1.274q.005.054.015.114.01.054.025.108.02.055.05.104.034.045.083.08.05.029.104.029.074 0 .133-.045.065-.05.094-.118.03-.07.04-.144t.01-.148v-.025h.553v.05q0 .118-.025.232-.02.114-.064.222-.044.104-.124.193-.074.089-.172.148-.1.06-.213.084t-.232.025m2.173 0q-.133 0-.272-.025-.133-.025-.251-.089-.119-.064-.213-.163-.094-.103-.153-.222-.06-.123-.084-.257-.02-.138-.02-.271v-.642q0-.134.02-.267.025-.138.08-.257.058-.123.147-.222.094-.104.213-.168.118-.064.252-.09.138-.024.271-.024t.267.025q.138.025.257.089.118.064.207.168.094.099.148.222.06.119.08.257.024.133.024.267v.558h-1.418v.084q0 .098.02.202.025.099.08.183.059.079.152.123.094.045.193.045.074 0 .143-.015.074-.015.134-.054.059-.045.093-.109.04-.069.045-.138h.548q-.005.113-.044.227-.035.114-.104.207-.064.094-.158.168-.094.07-.203.114-.108.04-.222.054-.113.02-.232.02m-.444-1.586h.869v-.084q0-.098-.02-.197t-.079-.183q-.054-.084-.148-.128-.09-.045-.188-.045-.099 0-.192.045-.09.044-.149.128-.054.084-.074.183t-.02.197zm-12.955 7.72v-3.63h.528l.514 1.906.514-1.906h.528v3.63h-.553v-.726q0-.262.01-.524.015-.261.035-.518l.049-.524q.03-.261.05-.523l-.465 1.723h-.336l-.464-1.723q.02.262.044.523.03.262.05.524.025.257.034.518.015.262.015.524v.726zm3.21.04q-.099 0-.197-.02-.094-.02-.178-.07-.08-.049-.143-.123-.06-.079-.1-.168-.034-.094-.049-.187-.014-.094-.014-.193 0-.133.03-.262.029-.128.108-.232.079-.109.188-.183.108-.074.232-.118.128-.045.256-.06.134-.014.262-.014h.302v-.193q0-.084-.025-.158-.025-.079-.084-.133-.054-.06-.134-.084-.079-.025-.163-.025-.069 0-.143.02-.069.014-.128.059-.06.044-.094.114-.03.069-.03.138h-.548q0-.114.03-.227.034-.114.099-.213.064-.099.158-.173.093-.074.202-.113.109-.045.222-.06.119-.02.233-.02.123 0 .246.02.124.015.233.065.113.05.207.133.094.079.153.188.064.103.09.227.024.118.024.242v1.783h-.548v-.385q-.025.049-.035.064l-.02.034-.034.045q-.015.02-.035.04-.015.02-.035.039l-.04.04q-.019.014-.044.029-.02.015-.044.03l-.044.03-.05.019q-.025.01-.054.015-.025.01-.05.015l-.054.01q-.025.005-.054.005-.025.005-.054.005-.025.005-.05.005m.222-.475q.094 0 .183-.024.094-.03.158-.094.07-.064.099-.153.035-.09.035-.183v-.227h-.302q-.059 0-.118.005-.06.005-.119.02-.054.014-.108.04-.055.024-.1.063-.039.04-.063.1-.02.053-.02.113 0 .069.025.138.024.07.074.119.049.044.118.064.07.02.138.02zm2.223 1.487q-.119 0-.237-.025-.114-.02-.217-.074-.104-.054-.188-.143-.084-.084-.138-.193-.055-.103-.084-.222-.025-.114-.03-.227h.553q0 .074.02.148t.064.133q.045.065.114.094.069.035.143.035.064 0 .123-.025.065-.025.104-.074.045-.05.07-.109.024-.054.039-.118.015-.06.02-.124t.005-.128v-2.144h-.588v-.474h1.14v2.618q0 .133-.02.262-.014.133-.063.252-.05.123-.134.227-.079.108-.192.178-.109.074-.242.103-.129.03-.262.03m.543-4.04q-.079 0-.158-.025-.079-.024-.133-.079-.054-.054-.08-.133-.024-.08-.024-.158 0-.08.025-.158.025-.08.079-.134t.133-.079q.08-.024.158-.024.08 0 .158.024.08.025.134.08.054.054.079.133.024.079.024.158t-.024.158-.08.133-.133.08-.158.024m2.252 3.027q-.133 0-.271-.024-.134-.025-.252-.09-.119-.063-.213-.162-.088-.104-.148-.222-.054-.124-.079-.257-.02-.138-.02-.272v-.642q0-.133.02-.267.025-.138.08-.256.059-.124.147-.223.094-.103.213-.168.118-.064.252-.088.138-.025.271-.025.134 0 .267.025.138.024.257.088.118.065.207.168.094.1.148.223.06.118.08.256.024.134.024.267v.642q0 .134-.025.272-.02.133-.079.257-.054.118-.148.222-.089.099-.207.163-.119.064-.257.089-.133.024-.267.024m0-.474q.1 0 .188-.044.094-.045.148-.129.06-.084.08-.182.019-.1.019-.198v-.642q0-.099-.02-.197-.02-.1-.079-.183-.054-.084-.148-.129-.089-.044-.188-.044-.098 0-.192.044-.09.045-.148.129-.055.084-.075.183t-.02.197v.642q0 .099.02.198.02.098.075.182.059.084.148.129.094.044.192.044m1.803.435v-2.618h.553v.568q.03-.113.074-.217.045-.109.119-.198.074-.088.178-.138.108-.054.222-.054.094 0 .183.03.093.03.158.093.069.064.108.148.045.084.07.178.024.09.03.183.01.094.01.188h-.554q0-.06-.01-.119-.005-.06-.03-.109-.024-.054-.079-.084-.05-.034-.108-.034-.08 0-.148.05-.065.049-.104.118-.04.069-.064.148-.02.079-.035.158t-.02.163v1.546zm2.272 0v-.474h.622v-1.67h-.553v-.474h1.106v2.144h.554v.474zm.864-2.988q-.079 0-.158-.025-.079-.024-.133-.079-.054-.054-.08-.133-.024-.08-.024-.158 0-.08.025-.158.024-.08.079-.134.054-.054.133-.079.08-.024.158-.024.08 0 .158.024.08.025.134.08.054.054.079.133.024.079.024.158t-.024.158-.08.133-.133.08-.158.024m2.776 3.027q-.124 0-.247-.03-.124-.029-.227-.103-.1-.074-.173-.178-.07-.103-.114-.222-.04-.118-.054-.242-.015-.128-.015-.252v-1.155h-.479v-.475h.48v-1.012h.552v1.012h.697v.475h-.697v1.274q.005.054.015.113.01.055.025.109.02.054.05.104.034.044.083.079.05.03.104.03.074 0 .133-.045.064-.05.094-.119t.04-.143.01-.148v-.025h.553v.05q0 .118-.025.232-.02.113-.064.222-.045.104-.124.193-.074.088-.173.148-.098.059-.212.084-.113.024-.232.024m1.595.973q.054-.177.104-.36l.099-.356.089-.33-.727-2.584h.568l.445 1.872.425-1.872h.568l-1.003 3.63z" style="text-align:center;text-anchor:middle" transform="translate(-24.641 -33.154)scale(1.19277)"/></g><path d="M186.47 136.124v-4.33h.66v3.764h1.467v.566zm3.54.047q-.117 0-.235-.024-.112-.023-.212-.082-.095-.059-.171-.147-.07-.094-.118-.2-.041-.112-.059-.224t-.018-.23q0-.16.036-.312.035-.154.13-.277.094-.13.223-.218.13-.089.277-.142.153-.053.306-.07.16-.018.313-.018h.359v-.23q0-.1-.03-.188-.029-.094-.1-.16-.064-.07-.159-.1-.094-.029-.194-.029-.083 0-.171.024-.082.017-.153.07t-.112.136q-.035.082-.035.165h-.654q0-.136.035-.271.041-.136.118-.254t.188-.206.242-.135q.13-.053.265-.071.141-.024.277-.024.147 0 .294.024.148.018.277.077.136.059.248.159.112.094.182.224.077.123.106.27.03.142.03.29v2.126h-.654v-.46q-.03.06-.041.077l-.024.041-.041.053q-.018.024-.041.047-.018.024-.042.047l-.047.048q-.023.017-.053.035-.024.018-.053.035-.024.018-.053.035l-.059.024q-.03.012-.065.018-.03.012-.059.017l-.064.012q-.03.006-.065.006-.03.006-.065.006-.03.006-.059.006m.265-.566q.112 0 .218-.029.112-.035.189-.112.082-.077.118-.183.041-.106.041-.218v-.27h-.36q-.07 0-.14.005-.071.006-.142.024-.065.018-.13.047-.064.03-.117.077-.048.047-.077.118-.024.064-.024.135 0 .083.03.165.03.083.088.141.06.054.142.077.082.024.165.024zm3.022 1.774q-.14 0-.282-.024-.136-.018-.265-.077-.124-.058-.236-.153-.106-.088-.183-.206-.07-.118-.112-.253-.035-.136-.04-.277h.653q.006.088.041.17.036.09.1.148.065.059.148.083.088.023.177.023.111 0 .218-.059.106-.053.164-.153.065-.1.083-.218.023-.112.023-.23v-.512q-.047.118-.117.218t-.171.176q-.1.071-.218.1-.118.036-.242.036-.141 0-.282-.047-.136-.041-.248-.13-.106-.094-.182-.218-.071-.13-.112-.265t-.06-.277q-.011-.147-.011-.288v-.766q0-.142.012-.283.017-.147.059-.283.04-.135.112-.259.076-.13.182-.218.112-.094.248-.135.14-.047.282-.047.124 0 .242.035.118.03.218.106.1.07.17.17t.118.219v-.483h.654v3.151q0 .16-.023.318-.024.16-.089.3-.064.148-.176.266-.106.124-.248.2-.135.077-.294.106-.153.036-.313.036m.012-1.774q.077 0 .148-.023.076-.024.135-.07.06-.054.094-.119.042-.07.06-.141.023-.077.029-.153.012-.077.012-.153v-.766q0-.077-.012-.153-.006-.077-.03-.148-.017-.076-.059-.141-.035-.07-.094-.118-.059-.053-.135-.076-.071-.024-.148-.024-.117 0-.23.059-.105.053-.17.153-.065.094-.089.212t-.023.236v.766q0 .117.023.235.024.118.089.218.065.094.17.153.113.053.23.053m2.934 1.774q-.141 0-.283-.024-.135-.018-.265-.077-.123-.058-.235-.153-.106-.088-.183-.206-.07-.118-.112-.253-.035-.136-.041-.277h.654q.006.088.041.17.035.09.1.148.065.059.147.083.089.023.177.023.112 0 .218-.059.106-.053.165-.153.065-.1.083-.218.023-.112.023-.23v-.512q-.047.118-.118.218t-.17.176q-.1.071-.219.1-.117.036-.241.036-.142 0-.283-.047-.135-.041-.247-.13-.106-.094-.183-.218-.07-.13-.112-.265t-.059-.277q-.012-.147-.012-.288v-.766q0-.142.012-.283.018-.147.06-.283.04-.135.111-.259.077-.13.183-.218.112-.094.247-.135.141-.047.283-.047.124 0 .241.035.118.03.218.106.1.07.171.17.07.1.118.219v-.483h.654v3.151q0 .16-.024.318-.023.16-.088.3-.065.148-.177.266-.106.124-.247.2-.136.077-.295.106-.153.036-.312.036m.012-1.774q.077 0 .147-.023.077-.024.136-.07.059-.054.094-.119.041-.07.059-.141.023-.077.03-.153.011-.077.011-.153v-.766q0-.077-.012-.153-.006-.077-.03-.148-.017-.076-.058-.141-.035-.07-.094-.118-.06-.053-.136-.076-.07-.024-.147-.024-.118 0-.23.059-.106.053-.17.153-.065.094-.089.212t-.024.236v.766q0 .117.024.235.023.118.088.218.065.094.171.153.112.053.23.053m2.592.566q-.118 0-.236-.024-.112-.023-.212-.082-.094-.059-.17-.147-.071-.094-.118-.2-.042-.112-.06-.224t-.017-.23q0-.16.035-.312.036-.154.13-.277.094-.13.224-.218.13-.089.277-.142.153-.053.306-.07.16-.018.312-.018h.36v-.23q0-.1-.03-.188-.03-.094-.1-.16-.065-.07-.16-.1-.093-.029-.194-.029-.082 0-.17.024-.083.017-.154.07t-.111.136q-.036.082-.036.165h-.654q0-.136.036-.271.041-.136.118-.254t.188-.206.242-.135q.13-.053.265-.071.141-.024.277-.024.147 0 .294.024.147.018.277.077.135.059.247.159.112.094.183.224.077.123.106.27.03.142.03.29v2.126h-.654v-.46q-.03.06-.042.077l-.023.041-.042.053q-.017.024-.04.047-.019.024-.042.047l-.047.048-.053.035q-.024.018-.053.035-.024.018-.053.035l-.06.024q-.029.012-.064.018-.03.012-.06.017l-.064.012q-.03.006-.065.006-.03.006-.064.006-.03.006-.06.006zm.265-.566q.112 0 .218-.029.112-.035.189-.112.082-.077.117-.183.042-.106.042-.218v-.27h-.36q-.07 0-.141.005-.07.006-.141.024-.065.018-.13.047t-.118.077q-.047.047-.076.118-.024.064-.024.135 0 .083.03.165.029.083.088.141.059.054.141.077.083.024.165.024zm2.245.519v-3.122h.66v.677q.035-.135.088-.26.053-.129.141-.235t.212-.165q.13-.064.265-.064.112 0 .218.035.112.035.189.112.082.076.13.176.052.1.082.213.03.106.035.217.012.112.012.224h-.66q0-.07-.012-.141-.006-.07-.035-.13-.03-.064-.094-.1-.06-.041-.13-.041-.094 0-.177.059-.076.059-.123.141-.047.083-.077.177-.023.094-.041.188-.018.095-.024.195v1.844zm3.463.047q-.141 0-.282-.047-.136-.041-.248-.13-.106-.094-.182-.218-.071-.13-.112-.265t-.06-.277q-.011-.147-.011-.288v-.766q0-.142.012-.283.017-.147.059-.283t.112-.259q.076-.13.182-.218.112-.094.248-.135.141-.047.282-.047.124 0 .242.035.118.03.218.106.1.07.17.17t.119.219v-1.691h.653v4.33h-.653v-.483q-.048.118-.118.218-.071.1-.171.176-.1.071-.218.1-.118.036-.242.036m.271-.566q.077 0 .148-.023.076-.024.135-.07.059-.054.094-.119.042-.07.06-.141.023-.077.029-.153.012-.077.012-.153v-.766q0-.077-.012-.153-.006-.077-.03-.148-.017-.076-.059-.141-.035-.07-.094-.118-.059-.053-.135-.077-.071-.023-.148-.023-.117 0-.23.059-.105.053-.17.153-.065.094-.089.212t-.023.236v.765q0 .118.023.236.024.118.089.218.065.094.17.153.112.053.23.053m2.94.566q-.136 0-.271-.018-.136-.017-.265-.065-.13-.053-.242-.135t-.188-.194-.118-.248-.041-.27h.654q.006.082.04.158.042.077.113.124.07.047.153.065.082.017.165.017.088 0 .17-.017t.154-.06q.07-.046.112-.123.047-.076.047-.159 0-.094-.065-.17-.059-.077-.147-.113-.083-.035-.177-.059l-.183-.047-.176-.059q-.089-.03-.177-.064-.082-.036-.165-.083-.077-.053-.153-.112-.07-.059-.13-.13-.053-.076-.094-.158-.041-.089-.065-.177-.017-.094-.017-.189 0-.135.035-.265.041-.13.112-.241.076-.112.182-.195.106-.088.23-.14.124-.054.26-.072.135-.017.27-.017.13 0 .26.017.135.018.259.071.123.047.23.13.105.082.176.194.077.112.112.242.041.13.041.265h-.654q-.006-.077-.04-.148-.03-.076-.095-.123-.059-.047-.136-.065-.076-.018-.153-.018-.082 0-.159.018-.076.018-.141.065t-.1.123q-.036.071-.036.154 0 .094.06.17.064.077.147.112.088.036.176.06.094.023.183.052.088.024.177.053.088.024.176.065.089.035.165.082.083.048.153.112.071.06.13.136.059.07.1.153t.06.177q.023.094.023.182 0 .142-.042.277-.04.13-.123.248-.077.112-.189.194-.112.083-.241.136-.13.047-.265.064-.136.018-.277.018" aria-label="Laggards" style="font-weight:700;font-size:4.93889px;line-height:1.25;font-family:Iosevka;-inkscape-font-specification:&quot;Iosevka, Bold&quot;;text-align:center;text-anchor:middle;stroke-width:.315586"/><g aria-label="Area under the curve represents the number of customers" style="font-weight:700;font-size:4.93889px;line-height:1.25;font-family:Iosevka;-inkscape-font-specification:&quot;Iosevka, Bold&quot;;stroke-width:.264583"><path d="m187.049 173.788.735-3.63h.633l.735 3.63h-.563l-.153-.835h-.671l-.153.835zm1.303-1.309-.202-1.111q-.01-.07-.025-.138-.01-.075-.025-.144l-.03.144-.019.138-.202 1.111zm1.551 1.309v-2.618h.553v.568q.03-.113.074-.217.045-.109.119-.198t.178-.138q.108-.054.222-.054.094 0 .183.03.094.029.158.093.069.064.108.148.045.084.07.178.024.09.03.183.01.094.01.188h-.554q0-.06-.01-.119-.005-.06-.03-.109-.024-.054-.079-.084-.049-.034-.108-.034-.08 0-.148.05-.065.049-.104.118-.04.069-.064.148-.02.079-.035.158t-.02.163v1.546zm3.146.04q-.133 0-.271-.025-.134-.025-.252-.09-.119-.063-.213-.162-.093-.104-.153-.222-.059-.124-.084-.257-.02-.139-.02-.272v-.642q0-.133.02-.267.025-.138.08-.256.059-.124.147-.223.094-.103.213-.168.118-.064.252-.089.138-.024.271-.024.134 0 .267.024.138.025.257.09.118.064.207.167.094.1.148.223.06.118.08.256.024.134.024.267v.558h-1.417v.084q0 .099.02.203.024.098.078.182.06.08.154.124.093.044.192.044.074 0 .143-.014.075-.015.134-.055.06-.044.094-.108.04-.07.044-.139h.548q-.005.114-.044.227-.035.114-.104.208-.064.094-.158.168-.094.069-.202.113-.109.04-.223.055-.113.02-.232.02m-.444-1.586h.869v-.084q0-.099-.02-.198-.02-.098-.079-.182-.054-.084-.148-.129-.089-.044-.188-.044-.098 0-.192.044-.09.045-.148.129-.055.084-.074.182-.02.1-.02.198zm2.603 1.585q-.1 0-.198-.02-.094-.02-.178-.068-.079-.05-.143-.124-.06-.079-.099-.168-.034-.094-.05-.188-.014-.093-.014-.192 0-.134.03-.262t.108-.232q.08-.109.188-.183.109-.074.232-.118.128-.045.257-.06.133-.014.262-.014h.3v-.193q0-.084-.024-.158-.025-.08-.084-.133-.054-.06-.133-.084t-.163-.025q-.07 0-.143.02-.07.014-.129.059-.06.044-.094.114-.03.069-.03.138h-.547q0-.114.03-.227.034-.114.098-.213t.158-.173.203-.113q.108-.045.222-.06.118-.02.232-.02.123 0 .247.02.123.015.232.065.114.05.207.133.094.079.154.188.064.103.088.227.025.118.025.242v1.783h-.548v-.385q-.025.049-.035.064l-.02.034-.034.045q-.015.02-.035.04-.015.02-.034.039l-.04.04-.044.029q-.02.015-.045.03l-.044.03-.05.019q-.024.01-.054.015-.025.01-.05.015l-.054.01q-.024.005-.054.005-.025.005-.054.005-.025.005-.05.005zm.222-.474q.094 0 .183-.024.093-.03.158-.094.069-.064.098-.153.035-.09.035-.183v-.227h-.301q-.06 0-.119.005-.06.005-.118.02-.055.014-.109.039t-.099.064q-.04.04-.064.099-.02.054-.02.114 0 .069.025.138t.074.118q.05.045.119.065t.138.02zm4.79.474q-.118 0-.232-.04-.113-.039-.202-.118-.084-.079-.138-.182-.055-.109-.09-.223-.029-.113-.044-.227-.01-.118-.01-.237v-1.63h.548v1.63q0 .064.005.129.01.064.025.128.02.06.05.114.034.054.078.098.05.045.11.065.063.02.128.02.064 0 .123-.02.064-.02.109-.065.05-.044.079-.098.034-.055.05-.114.019-.064.024-.128.01-.065.01-.129v-1.63h.548v2.618h-.548v-.405q-.04.099-.099.183t-.143.148q-.08.06-.178.084-.099.03-.203.03m1.754-.04v-2.617h.548v.405q.04-.099.099-.182.06-.084.138-.144.084-.064.183-.089.099-.03.202-.03.119 0 .232.04t.198.119q.089.079.143.188.055.103.084.217.035.113.045.232.015.114.015.232v1.63h-.549v-1.63q0-.064-.01-.128-.005-.065-.024-.124-.015-.064-.05-.118-.03-.055-.079-.1-.044-.044-.108-.063-.06-.02-.124-.02t-.128.02q-.06.02-.109.064-.044.044-.079.099-.03.054-.05.118-.014.06-.024.124-.005.064-.005.128v1.63zm3.18.04q-.118 0-.237-.04-.113-.034-.207-.108-.089-.079-.153-.182-.06-.11-.094-.223-.035-.113-.05-.232-.01-.123-.01-.242v-.642q0-.118.01-.237.015-.123.05-.237t.094-.217q.064-.109.153-.183.094-.08.207-.114.119-.04.237-.04.104 0 .203.03.099.025.183.09.084.059.143.143.06.084.099.182v-1.417h.548v3.63h-.548v-.405q-.04.099-.1.183-.058.084-.142.148-.084.06-.183.084-.099.03-.203.03m.228-.474q.064 0 .123-.02.064-.02.114-.059.05-.044.079-.099.034-.059.05-.118.019-.064.024-.129.01-.064.01-.128v-.642q0-.064-.01-.128-.005-.065-.025-.124-.015-.064-.05-.118-.029-.06-.078-.1-.05-.044-.114-.063-.06-.02-.123-.02-.1 0-.193.05-.089.044-.143.128-.055.079-.074.177-.02.1-.02.198v.642q0 .099.02.198.02.098.074.182.054.08.143.129.094.044.193.044m2.484.474q-.133 0-.272-.024-.133-.025-.252-.09-.118-.063-.212-.162-.094-.104-.153-.222-.06-.124-.084-.257-.02-.139-.02-.272v-.642q0-.133.02-.267.025-.138.079-.256.06-.124.148-.223.094-.103.212-.168.119-.064.252-.089.139-.024.272-.024t.267.024q.138.025.256.09.119.064.208.167.094.1.148.223.06.118.079.256.025.134.025.267v.558h-1.418v.084q0 .099.02.203.025.098.08.182.058.08.152.124t.193.044q.074 0 .143-.014.074-.015.133-.055.06-.044.094-.108.04-.07.045-.139h.548q-.005.114-.044.227-.035.114-.104.208-.064.094-.158.168-.094.069-.203.113-.108.04-.222.055-.114.02-.232.02m-.445-1.585h.87v-.084q0-.099-.02-.198-.02-.098-.08-.182-.053-.084-.147-.129-.09-.044-.188-.044-.099 0-.193.044-.089.045-.148.129-.054.084-.074.182-.02.1-.02.198zm2.238 1.546v-2.618h.553v.568q.03-.113.074-.217.044-.109.118-.198.075-.089.178-.138.109-.054.223-.054.093 0 .182.03.094.029.158.093.07.064.109.148.044.084.07.178.024.09.029.183.01.094.01.188h-.553q0-.06-.01-.119-.005-.06-.03-.109-.025-.054-.079-.084-.05-.034-.109-.034-.079 0-.148.05-.064.049-.104.118t-.064.148q-.02.079-.034.158t-.02.163v1.546zm5.912.04q-.124 0-.247-.03-.124-.03-.228-.104-.098-.074-.172-.178-.07-.103-.114-.222-.04-.119-.054-.242-.015-.128-.015-.252v-1.156h-.48v-.474h.48v-1.012h.553v1.012h.696v.474h-.696v1.275q.005.054.015.113.01.055.024.109.02.054.05.104.034.044.084.079.05.03.104.03.074 0 .133-.045.064-.05.094-.119t.04-.143.01-.148v-.025h.552v.05q0 .118-.024.232-.02.113-.065.222-.044.103-.123.192-.074.09-.173.149t-.212.084q-.114.024-.232.024zm1.22-.04v-3.63h.548v1.417q.04-.099.098-.182.06-.084.139-.144.084-.064.182-.089.1-.03.203-.03.118 0 .232.04t.198.119q.089.079.143.188.054.103.084.217.034.113.044.232.015.114.015.232v1.63h-.548v-1.63q0-.064-.01-.128-.005-.065-.025-.124-.015-.064-.05-.118-.029-.055-.078-.1-.045-.044-.109-.063-.06-.02-.123-.02-.065 0-.129.02-.06.02-.108.064-.045.044-.08.099-.029.054-.049.118-.015.06-.025.124-.005.064-.005.128v1.63zm3.422.04q-.133 0-.272-.025-.133-.025-.251-.09-.119-.063-.213-.162-.094-.104-.153-.222-.06-.124-.084-.257-.02-.139-.02-.272v-.642q0-.133.02-.267.025-.138.079-.256.06-.124.148-.223.094-.103.213-.168.118-.064.251-.089.139-.024.272-.024t.267.024q.138.025.257.09.118.064.207.167.094.1.148.223.06.118.08.256.024.134.024.267v.558h-1.418v.084q0 .099.02.203.025.098.08.182.059.08.152.124.094.044.193.044.074 0 .143-.014.074-.015.134-.055.059-.044.093-.108.04-.07.045-.139h.548q-.005.114-.044.227-.035.114-.104.208-.064.094-.158.168-.094.069-.203.113-.108.04-.222.055-.113.02-.232.02m-.444-1.586h.869v-.084q0-.099-.02-.198-.02-.098-.079-.182-.054-.084-.148-.129-.09-.044-.188-.044-.099 0-.192.044-.09.045-.149.129-.054.084-.074.182-.02.1-.02.198zm5.358 1.585q-.133 0-.266-.024-.134-.025-.252-.09-.114-.068-.208-.167-.089-.104-.148-.222-.054-.124-.074-.257-.02-.134-.02-.267v-.642q0-.133.02-.267.02-.133.074-.252.06-.123.148-.222.094-.104.208-.168.118-.069.252-.094.133-.024.266-.024.129 0 .252.024.129.02.242.075.114.054.203.143.093.089.153.202.059.109.089.237.03.124.03.247v.01h-.549v-.005q0-.089-.03-.173-.024-.084-.079-.153-.054-.069-.138-.098-.084-.035-.173-.035-.099 0-.187.05-.09.044-.144.128-.05.079-.069.178t-.02.197v.642q0 .099.02.198t.07.182q.054.08.143.129.088.044.187.044.09 0 .173-.03.084-.034.138-.103t.08-.153q.029-.084.029-.173v-.005h.548v.01q0 .124-.03.252-.029.123-.088.237-.06.109-.153.198-.09.088-.203.143t-.242.074q-.123.025-.252.025zm2.257 0q-.118 0-.232-.04-.113-.039-.202-.118-.084-.079-.139-.182-.054-.109-.089-.223-.03-.113-.044-.227-.01-.118-.01-.237v-1.63h.548v1.63q0 .064.005.129.01.064.025.128.02.06.05.114.034.054.078.098.05.045.109.065.064.02.128.02.065 0 .124-.02.064-.02.109-.065.049-.044.079-.098.034-.055.049-.114.02-.064.025-.128.01-.065.01-.129v-1.63h.548v2.618h-.548v-.405q-.04.099-.1.183-.058.084-.142.148-.08.06-.178.084-.099.03-.203.03m2.03-.04v-2.617h.553v.568q.03-.113.074-.217.045-.109.119-.198t.178-.138q.108-.054.222-.054.094 0 .183.03.094.029.158.093.069.064.108.148.045.084.07.178.024.09.03.183.01.094.01.188h-.554q0-.06-.01-.119-.005-.06-.03-.109-.024-.054-.079-.084-.049-.034-.108-.034-.08 0-.148.05-.065.049-.104.118-.04.069-.064.148-.02.079-.035.158t-.02.163v1.546zm2.82 0-.736-2.617h.573l.44 1.744.02.084.02.084.019-.084.02-.084.44-1.744h.572l-.736 2.618zm2.796.04q-.134 0-.272-.024-.133-.025-.252-.09-.118-.063-.212-.162-.094-.104-.153-.222-.06-.124-.084-.257-.02-.139-.02-.272v-.642q0-.133.02-.267.024-.138.079-.256.059-.124.148-.223.094-.103.212-.168.119-.064.252-.089.138-.024.272-.024.133 0 .266.024.139.025.257.09.119.064.208.167.093.1.148.223.06.118.079.256.025.134.025.267v.558h-1.418v.084q0 .099.02.203.025.098.079.182.06.08.153.124.094.044.193.044.074 0 .143-.014.074-.015.133-.055.06-.044.094-.108.04-.07.044-.139h.549q-.005.114-.045.227-.034.114-.104.208-.064.094-.158.168-.093.069-.202.113-.109.04-.222.055-.114.02-.232.02m-.445-1.585h.87v-.084q0-.099-.02-.198-.02-.098-.08-.182-.054-.084-.148-.129-.088-.044-.187-.044t-.193.044q-.089.045-.148.129-.054.084-.074.182-.02.1-.02.198zm-48.386 7.715v-2.618h.553v.568q.03-.114.074-.217.045-.11.119-.198t.178-.138q.108-.055.222-.055.094 0 .183.03.093.03.158.094.069.064.108.148.045.084.07.178.024.089.029.183.01.093.01.187h-.553q0-.06-.01-.118-.005-.06-.03-.109-.024-.054-.079-.084-.05-.035-.108-.035-.08 0-.149.05-.064.05-.103.118-.04.07-.064.149-.02.079-.035.158t-.02.163v1.545zm3.146.039q-.133 0-.272-.025-.133-.024-.251-.089-.119-.064-.213-.163-.094-.103-.153-.222-.06-.123-.084-.257-.02-.138-.02-.271v-.642q0-.134.02-.267.025-.138.08-.257.058-.123.147-.222.094-.104.213-.168.118-.064.252-.089.138-.025.271-.025.134 0 .267.025.138.025.257.089.118.064.207.168.094.099.148.222.06.119.08.257.024.133.024.267v.558h-1.417v.084q0 .099.02.202.024.1.078.183.06.079.153.123.094.045.193.045.074 0 .143-.015.074-.015.134-.054.059-.045.093-.109.04-.069.045-.138h.548q-.005.114-.044.227-.035.114-.104.208-.064.093-.158.167-.094.07-.203.114-.108.04-.222.054-.113.02-.232.02m-.444-1.585h.869v-.084q0-.1-.02-.198-.02-.099-.079-.183-.054-.084-.148-.128-.089-.045-.188-.045t-.192.045q-.09.044-.148.128-.055.084-.075.183t-.02.198zm1.96 2.558v-3.63h.549v.405q.039-.099.098-.183t.144-.143q.084-.064.182-.089.1-.03.203-.03.118 0 .232.04.118.035.207.114.094.074.153.182.065.104.1.218.034.113.044.237.015.118.015.237v.642q0 .118-.015.242-.01.118-.045.232-.034.113-.099.222-.059.104-.153.183-.089.074-.207.109-.114.039-.232.039-.104 0-.203-.03-.098-.024-.182-.084-.084-.064-.144-.148t-.098-.182v1.417zm.949-1.447q.098 0 .187-.045.094-.049.148-.128.055-.084.075-.183t.02-.197v-.642q0-.1-.02-.198-.02-.099-.075-.178-.054-.084-.148-.128-.089-.05-.187-.05-.065 0-.129.02-.06.02-.108.064-.05.04-.084.1-.03.054-.05.118-.015.06-.025.123-.005.064-.005.129v.642q0 .064.005.128.01.064.025.129.02.059.05.118.034.054.084.099.049.04.108.06.064.019.129.019m1.797.435v-2.618h.554v.568q.03-.114.074-.217.044-.11.118-.198t.178-.138q.109-.055.222-.055.094 0 .183.03.094.03.158.094.07.064.109.148.044.084.069.178.025.089.03.183.01.093.01.187h-.554q0-.06-.01-.118-.005-.06-.03-.109-.024-.054-.078-.084-.05-.035-.109-.035-.079 0-.148.05-.064.05-.104.118-.04.07-.064.149-.02.079-.035.158-.014.079-.02.163v1.545zm3.146.039q-.133 0-.271-.025-.134-.024-.252-.089-.119-.064-.212-.163-.094-.103-.154-.222-.059-.123-.084-.257-.02-.138-.02-.271v-.642q0-.134.02-.267.025-.138.08-.257.059-.123.148-.222.093-.104.212-.168.118-.064.252-.089.138-.025.271-.025.134 0 .267.025.138.025.257.089t.207.168q.094.099.149.222.059.119.079.257.024.133.024.267v.558h-1.417v.084q0 .099.02.202.024.1.079.183.059.079.153.123.094.045.192.045.074 0 .144-.015.074-.015.133-.054.06-.045.094-.109.04-.069.044-.138h.548q-.005.114-.044.227-.035.114-.104.208-.064.093-.158.167-.094.07-.202.114-.109.04-.222.054-.114.02-.233.02m-.444-1.585h.87v-.084q0-.1-.02-.198-.02-.099-.08-.183-.054-.084-.148-.128-.089-.045-.187-.045-.1 0-.193.045-.089.044-.148.128-.055.084-.074.183-.02.099-.02.198zm2.894 1.585q-.114 0-.227-.015-.114-.015-.222-.054-.109-.045-.203-.114t-.158-.163q-.064-.093-.099-.207-.034-.114-.034-.227h.548q.005.069.035.133.034.064.093.104.06.04.129.054.069.015.138.015.074 0 .143-.015.07-.015.129-.05.059-.039.093-.103.04-.064.04-.133 0-.08-.054-.144-.05-.064-.124-.093-.069-.03-.148-.05l-.153-.04-.148-.049q-.074-.024-.148-.054-.07-.03-.139-.07-.064-.044-.128-.093-.06-.05-.109-.109-.044-.064-.079-.133-.034-.074-.054-.148-.015-.08-.015-.158 0-.114.03-.222.034-.11.094-.203.064-.094.153-.163.089-.074.192-.118.104-.045.218-.06.113-.015.227-.015.108 0 .217.015.114.015.217.06.104.039.193.108.089.07.148.163.064.094.094.203.035.108.035.222h-.549q-.005-.064-.034-.124-.025-.064-.08-.103-.049-.04-.113-.055t-.128-.014q-.07 0-.134.014t-.118.055q-.054.04-.084.103-.03.06-.03.129 0 .079.05.143.054.064.123.094.074.03.148.05.08.02.153.044.074.02.149.044.074.02.148.054.074.03.138.07.07.04.128.093.06.05.11.114.048.06.083.128.035.07.05.149.02.079.02.153 0 .118-.035.232-.035.109-.104.207-.064.094-.158.163-.094.07-.203.114-.108.04-.222.054-.113.015-.232.015m2.49 0q-.134 0-.272-.025-.134-.024-.252-.089-.119-.064-.213-.163-.093-.103-.153-.222-.059-.123-.084-.257-.02-.138-.02-.271v-.642q0-.134.02-.267.025-.138.08-.257.059-.123.147-.222.094-.104.213-.168.118-.064.252-.089.138-.025.271-.025.134 0 .267.025.138.025.257.089.118.064.207.168.094.099.148.222.06.119.08.257.024.133.024.267v.558h-1.417v.084q0 .099.02.202.024.1.078.183.06.079.154.123.093.045.192.045.074 0 .143-.015.075-.015.134-.054.06-.045.094-.109.04-.069.044-.138h.548q-.005.114-.044.227-.035.114-.104.208-.064.093-.158.167-.094.07-.203.114-.108.04-.222.054-.113.02-.232.02zm-.445-1.585h.869v-.084q0-.1-.02-.198-.02-.099-.079-.183-.054-.084-.148-.128-.089-.045-.188-.045-.098 0-.192.045-.09.044-.148.128-.055.084-.075.183t-.02.198zm1.96 1.546v-2.618h.549v.405q.04-.099.099-.183t.138-.143q.084-.064.183-.089.098-.03.202-.03.119 0 .232.04t.198.118q.089.08.143.188.054.104.084.217.035.114.044.233.015.113.015.232v1.63h-.548v-1.63q0-.065-.01-.129-.005-.064-.025-.123-.014-.064-.05-.119-.029-.054-.078-.099-.045-.044-.109-.064-.059-.02-.123-.02t-.129.02q-.059.02-.108.064-.045.045-.08.1-.029.054-.049.118-.014.06-.024.123-.005.064-.005.129v1.63zm3.72.039q-.124 0-.247-.03-.124-.03-.228-.103-.098-.074-.173-.178-.069-.104-.113-.222-.04-.119-.054-.242-.015-.129-.015-.252v-1.156h-.48v-.474h.48v-1.013h.553v1.013h.696v.474h-.696v1.274q.005.055.015.114.01.054.024.109.02.054.05.103.034.045.084.08.05.029.104.029.074 0 .133-.045.064-.049.094-.118.03-.07.04-.143.01-.075.01-.149v-.024h.552v.049q0 .119-.024.232-.02.114-.065.222-.044.104-.123.193-.074.089-.173.148-.099.06-.212.084-.114.025-.232.025m2.153 0q-.114 0-.227-.015-.114-.015-.223-.054-.108-.045-.202-.114t-.158-.163q-.064-.093-.099-.207t-.035-.227h.549q.005.069.034.133.035.064.094.104.06.04.128.054.07.015.139.015.074 0 .143-.015.07-.015.128-.05.06-.039.094-.103.04-.064.04-.133 0-.08-.055-.144-.049-.064-.123-.093-.07-.03-.148-.05l-.153-.04-.149-.049q-.074-.024-.148-.054-.069-.03-.138-.07-.064-.044-.128-.093-.06-.05-.109-.109-.044-.064-.079-.133-.035-.074-.054-.148-.015-.08-.015-.158 0-.114.03-.222.034-.11.093-.203.064-.094.153-.163.09-.074.193-.118.104-.045.217-.06.114-.015.227-.015.11 0 .218.015.113.015.217.06.104.039.193.108.089.07.148.163.064.094.094.203.034.108.034.222h-.548q-.005-.064-.035-.124-.024-.064-.079-.103-.049-.04-.113-.055t-.129-.014q-.069 0-.133.014t-.118.055-.084.103q-.03.06-.03.129 0 .079.05.143.054.064.123.094.074.03.148.05.079.02.153.044.074.02.148.044.074.02.148.054.075.03.139.07.069.04.128.093.06.05.109.114.05.06.084.128.034.07.05.149.019.079.019.153 0 .118-.035.232-.034.109-.103.207-.065.094-.158.163-.094.07-.203.114-.109.04-.222.054-.114.015-.232.015m5.255 0q-.124 0-.247-.03-.124-.03-.227-.103-.1-.074-.173-.178-.07-.104-.114-.222-.04-.119-.054-.242-.015-.129-.015-.252v-1.156h-.479v-.474h.48v-1.013h.552v1.013h.697v.474h-.697v1.274q.005.055.015.114.01.054.025.109.02.054.05.103.034.045.083.08.05.029.104.029.074 0 .133-.045.064-.049.094-.118.03-.07.04-.143.01-.075.01-.149v-.024h.553v.049q0 .119-.025.232-.02.114-.064.222-.045.104-.124.193-.074.089-.173.148-.098.06-.212.084t-.232.025m1.22-.04v-3.63h.548v1.418q.04-.099.099-.183t.138-.143q.084-.064.183-.089.099-.03.202-.03.119 0 .232.04t.198.118q.089.08.143.188.054.104.084.217.035.114.045.233.014.113.014.232v1.63h-.548v-1.63q0-.065-.01-.129-.005-.064-.025-.123-.014-.064-.049-.119-.03-.054-.079-.099-.044-.044-.109-.064-.059-.02-.123-.02t-.129.02q-.059.02-.108.064-.045.045-.08.1-.029.054-.049.118-.014.06-.024.123-.005.064-.005.129v1.63zm3.422.04q-.133 0-.271-.025-.134-.024-.252-.089-.119-.064-.213-.163-.093-.103-.153-.222-.059-.123-.084-.257-.02-.138-.02-.271v-.642q0-.134.02-.267.025-.138.08-.257.059-.123.147-.222.094-.104.213-.168.118-.064.252-.089.138-.025.271-.025.134 0 .267.025.138.025.257.089.118.064.207.168.094.099.149.222.059.119.079.257.024.133.024.267v.558h-1.417v.084q0 .099.02.202.024.099.079.183.059.079.153.123.093.045.192.045.074 0 .144-.015.074-.015.133-.054.06-.045.094-.109.04-.069.044-.138h.548q-.005.114-.044.227-.035.114-.104.208-.064.093-.158.167-.094.07-.202.114-.109.04-.223.054-.113.02-.232.02m-.444-1.585h.87v-.084q0-.1-.02-.198-.02-.099-.08-.183-.054-.084-.148-.128-.089-.045-.188-.045-.098 0-.192.045-.09.044-.148.128-.055.084-.074.183-.02.099-.02.198zm4.43 1.545v-2.617h.548v.405q.04-.099.099-.183t.138-.143q.084-.064.183-.089.099-.03.203-.03.118 0 .232.04.113.04.197.118.09.08.143.188.055.104.084.217.035.114.045.233.015.113.015.232v1.63h-.549v-1.63q0-.065-.01-.129-.005-.064-.024-.123-.015-.064-.05-.119-.03-.054-.079-.099-.044-.044-.108-.064-.06-.02-.124-.02t-.128.02q-.06.02-.109.064-.044.045-.079.1-.03.054-.05.118-.014.06-.024.123-.005.064-.005.129v1.63zm3.186.04q-.119 0-.233-.04-.113-.039-.202-.118-.084-.079-.138-.183-.055-.108-.09-.222-.029-.114-.044-.227-.01-.119-.01-.237v-1.63h.548v1.63q0 .064.005.128.01.064.025.129.02.059.05.113.034.054.079.099.049.044.108.064.064.02.129.02.064 0 .123-.02.064-.02.109-.064.05-.044.079-.099.034-.054.05-.113.019-.065.024-.129.01-.064.01-.128v-1.63h.548v2.617h-.548v-.404q-.04.098-.099.182t-.143.148q-.08.06-.178.084-.099.03-.202.03m1.654-.04v-2.617h.46v.237q.02-.054.054-.104.034-.054.079-.094.05-.04.108-.059.065-.02.124-.02.079 0 .148.03.074.03.123.089.055.054.09.123.034.07.049.144.02-.075.05-.144.034-.069.083-.123.05-.06.119-.09.074-.029.153-.029t.153.035q.074.03.123.089.055.054.084.128.035.074.05.148.02.075.024.154.01.079.01.158v1.945h-.459v-1.945q0-.05-.005-.1-.005-.054-.025-.098-.02-.05-.059-.084-.034-.035-.089-.035-.05 0-.089.035-.04.035-.059.084-.015.044-.025.099-.005.05-.005.099v1.945h-.454v-1.945q0-.05-.01-.1-.005-.054-.025-.098-.014-.05-.054-.084-.04-.035-.089-.035-.054 0-.094.035-.034.035-.054.084-.02.044-.025.099-.005.05-.005.099v1.945zm3.744.04q-.104 0-.203-.03-.099-.024-.182-.084-.084-.064-.144-.148t-.099-.183v.405h-.548v-3.63h.548v1.418q.04-.099.1-.183.059-.084.143-.143.084-.064.182-.089.1-.03.203-.03.118 0 .232.04.118.034.207.113.094.075.153.183.065.104.1.218.034.113.044.237.014.118.014.237v.642q0 .118-.014.242-.01.118-.045.232-.034.113-.099.222-.059.104-.153.183-.089.074-.207.109-.114.039-.232.039m-.227-.474q.098 0 .187-.045.094-.049.148-.128.055-.084.075-.183t.02-.197v-.642q0-.1-.02-.198-.02-.099-.075-.178-.054-.084-.148-.128-.089-.05-.187-.05-.065 0-.129.02-.06.02-.109.064-.049.04-.084.1-.03.054-.049.118-.015.06-.025.123-.005.064-.005.129v.642q0 .064.005.128.01.064.025.129.02.059.05.118.034.054.083.099.05.04.11.06.063.019.128.019m2.474.474q-.133 0-.272-.025-.133-.024-.252-.089-.118-.064-.212-.163-.094-.103-.153-.222-.06-.123-.084-.257-.02-.138-.02-.271v-.642q0-.134.02-.267.025-.138.079-.257.06-.123.148-.222.094-.104.212-.168.119-.064.252-.089.139-.025.272-.025t.267.025q.138.025.257.089.118.064.207.168.094.099.148.222.06.119.08.257.024.133.024.267v.558h-1.418v.084q0 .099.02.202.025.099.08.183.058.079.152.123.094.045.193.045.074 0 .143-.015.074-.015.133-.054.06-.045.094-.109.04-.069.045-.138h.548q-.005.113-.044.227-.035.114-.104.208-.064.093-.158.167-.094.07-.203.114-.108.04-.222.054-.114.02-.232.02m-.445-1.585h.87v-.084q0-.1-.02-.198-.02-.099-.08-.183-.053-.084-.147-.128-.09-.045-.188-.045-.099 0-.193.045-.088.044-.148.128-.054.084-.074.183t-.02.198zm2.238 1.545v-2.617h.553v.568q.03-.114.074-.217.045-.11.119-.198t.177-.138q.109-.055.223-.055.093 0 .182.03.094.03.158.094.07.064.109.148.045.084.07.178.024.089.029.182.01.094.01.188h-.553q0-.06-.01-.118-.005-.06-.03-.109-.025-.054-.079-.084-.05-.035-.109-.035-.079 0-.148.05-.064.05-.104.118-.04.07-.064.148-.02.08-.034.159t-.02.163v1.545zm-37.61 6.214q-.133 0-.271-.025-.134-.025-.252-.089-.119-.064-.213-.163-.089-.104-.148-.222-.054-.124-.079-.257-.02-.138-.02-.272v-.642q0-.133.02-.266.025-.139.08-.257.058-.124.147-.222.094-.104.213-.168.118-.065.252-.09.138-.024.271-.024.134 0 .267.025.138.024.257.089.118.064.207.168.094.098.148.222.06.118.08.257.024.133.024.266v.642q0 .134-.025.272-.02.133-.079.257-.054.118-.148.222-.089.099-.207.163-.119.064-.257.089-.133.025-.267.025m0-.474q.099 0 .188-.045.094-.044.148-.128.06-.084.08-.183.019-.099.019-.198v-.642q0-.099-.02-.197-.02-.1-.079-.183-.054-.084-.148-.128-.089-.045-.188-.045t-.192.045q-.09.044-.149.128-.054.084-.074.183t-.02.197v.642q0 .1.02.198.02.099.074.183.06.084.149.128.093.045.192.045m2.05.434v-2.025h-.524v-.474h.524v-.321q0-.109.01-.212.015-.109.054-.208.04-.099.104-.183.069-.088.158-.143.094-.059.197-.079.104-.024.213-.024.148 0 .291.049.143.044.242.148.104.104.148.247.05.143.05.291v.045h-.553v-.02q0-.045-.01-.089-.005-.05-.025-.094t-.06-.074q-.034-.03-.083-.03-.06 0-.1.05-.039.044-.058.099-.015.054-.025.113-.005.055-.005.114v.321h.721v.474h-.721v2.025zm5.344.04q-.134 0-.267-.025t-.252-.089q-.113-.07-.207-.168-.09-.104-.148-.222-.055-.124-.075-.257t-.02-.267v-.642q0-.133.02-.266.02-.134.075-.252.059-.124.148-.223.094-.103.207-.167.119-.07.252-.094.133-.025.267-.025.128 0 .252.025.128.02.242.074t.202.143q.094.089.153.203.06.108.09.237.029.123.029.247v.01h-.549v-.005q0-.09-.03-.173-.024-.084-.078-.153-.054-.07-.138-.1-.084-.034-.173-.034-.1 0-.188.05-.089.044-.143.128-.05.079-.07.178t-.02.197v.642q0 .1.02.198.02.099.07.183.054.079.143.128.089.045.188.045.089 0 .173-.03.084-.035.138-.104t.079-.153q.03-.084.03-.173v-.005h.548v.01q0 .124-.03.252-.03.124-.089.237-.06.109-.153.198-.089.089-.202.143t-.242.074q-.124.025-.252.025m2.257 0q-.119 0-.232-.04t-.203-.118q-.084-.08-.138-.183-.054-.109-.089-.222-.03-.114-.045-.228-.01-.118-.01-.237v-1.63h.549v1.63q0 .065.005.129.01.064.024.128.02.06.05.114.034.054.079.099.05.044.108.064.065.02.129.02t.123-.02q.065-.02.109-.064.05-.045.079-.1.035-.054.05-.113.02-.064.024-.128.01-.064.01-.129v-1.63h.548v2.618h-.548v-.405q-.04.099-.099.183t-.143.148q-.079.06-.178.084-.099.03-.202.03m2.687 0q-.114 0-.228-.015-.113-.015-.222-.054-.109-.045-.202-.114-.094-.07-.158-.163-.065-.094-.1-.207-.034-.114-.034-.228h.548q.005.07.035.134.035.064.094.103.06.04.128.055.07.015.138.015.075 0 .144-.015t.128-.05q.06-.04.094-.103.04-.065.04-.134 0-.079-.055-.143-.05-.064-.123-.094-.07-.03-.149-.05l-.153-.039-.148-.05q-.074-.024-.148-.053-.07-.03-.138-.07-.064-.044-.129-.093-.059-.05-.108-.109-.045-.064-.08-.133-.034-.074-.054-.148-.014-.08-.014-.159 0-.113.03-.222.034-.108.093-.202.064-.094.153-.163.089-.074.193-.119.103-.044.217-.06.114-.014.227-.014.109 0 .218.015.113.015.217.06.104.039.192.108.09.07.149.163.064.094.093.202.035.109.035.223h-.548q-.005-.065-.035-.124-.025-.064-.079-.104-.05-.04-.113-.054-.065-.015-.129-.015-.069 0-.133.015t-.119.054-.084.104q-.03.06-.03.129 0 .079.05.143.054.064.124.094.074.03.148.049.079.02.153.044.074.02.148.045.074.02.148.054.074.03.138.07.07.039.129.093.06.05.109.114.049.06.084.128.034.07.049.148.02.08.02.153 0 .119-.035.233-.034.108-.104.207-.064.094-.158.163-.093.07-.202.114-.109.04-.222.054-.114.015-.233.015m2.785 0q-.123 0-.247-.03-.123-.03-.227-.104-.099-.074-.173-.177-.069-.104-.114-.223-.039-.118-.054-.242-.015-.128-.015-.252v-1.155h-.479v-.474h.48v-1.013h.553v1.013h.696v.474h-.696v1.274q.005.054.014.114.01.054.025.108.02.054.05.104.034.044.083.079.05.03.104.03.074 0 .134-.045.064-.05.093-.119.03-.069.04-.143t.01-.148v-.025h.553v.05q0 .118-.025.232-.02.113-.064.222-.044.104-.123.193-.075.088-.173.148-.1.059-.213.084-.113.024-.232.024zm2.163 0q-.133 0-.271-.025-.134-.025-.252-.089-.119-.064-.213-.163-.088-.104-.148-.222-.054-.124-.079-.257-.02-.138-.02-.272v-.642q0-.133.02-.266.025-.139.08-.257.059-.124.147-.222.094-.104.213-.168.118-.065.252-.09.138-.024.271-.024.134 0 .267.025.138.024.257.089.118.064.207.168.094.098.148.222.06.118.08.257.024.133.024.266v.642q0 .134-.025.272-.02.133-.079.257-.054.118-.148.222-.089.099-.207.163-.119.064-.257.089-.133.025-.267.025m0-.475q.1 0 .188-.044.094-.044.148-.128.06-.084.08-.183.019-.099.019-.198v-.642q0-.099-.02-.197-.02-.1-.079-.183-.054-.084-.148-.128-.089-.045-.188-.045t-.192.045q-.09.044-.148.128-.055.084-.075.183t-.02.197v.642q0 .1.02.198.02.099.075.183.059.084.148.128.093.045.192.045m1.428.435v-2.617h.459v.237q.02-.055.054-.104.035-.054.08-.094.049-.04.108-.06.064-.019.123-.019.08 0 .149.03.074.03.123.088.054.055.089.124.035.07.05.143.02-.074.049-.143.034-.07.084-.124.05-.059.118-.088.074-.03.153-.03.08 0 .153.035.075.03.124.088.054.055.084.129.035.074.05.148.02.074.024.153.01.08.01.158v1.946h-.46v-1.946q0-.05-.004-.099-.005-.054-.025-.098-.02-.05-.06-.084-.034-.035-.088-.035-.05 0-.09.035-.039.034-.058.084-.015.044-.025.098-.005.05-.005.1v1.945h-.454v-1.946q0-.05-.01-.099-.005-.054-.025-.098-.015-.05-.054-.084-.04-.035-.09-.035-.054 0-.093.035-.035.034-.054.084-.02.044-.025.098-.005.05-.005.1v1.945zm3.521.04q-.133 0-.272-.025-.133-.025-.251-.089-.119-.064-.213-.163-.094-.104-.153-.222-.06-.124-.084-.257-.02-.138-.02-.272v-.642q0-.133.02-.266.025-.139.079-.257.06-.124.148-.222.094-.104.213-.168.118-.065.251-.09.139-.024.272-.024t.267.025q.138.024.257.089.118.064.207.168.094.098.148.222.06.118.08.257.024.133.024.266v.558h-1.418v.084q0 .1.02.203.025.099.08.183.059.079.152.123.094.045.193.045.074 0 .143-.015.074-.015.134-.055.059-.044.093-.108.04-.07.045-.138h.548q-.005.113-.044.227-.035.113-.104.207-.064.094-.158.168-.094.07-.203.114-.108.04-.222.054-.113.02-.232.02m-.444-1.586h.869v-.084q0-.099-.02-.197-.02-.1-.079-.183-.054-.084-.148-.128-.089-.045-.188-.045t-.192.045q-.09.044-.149.128-.054.084-.074.183t-.02.197zm2.237 1.546v-2.617h.553v.567q.03-.113.074-.217.044-.108.119-.197.074-.09.177-.139.11-.054.223-.054.093 0 .182.03.094.03.158.093.07.065.11.149.044.084.068.177.025.09.03.183.01.094.01.188h-.553q0-.06-.01-.119-.005-.059-.03-.108-.025-.055-.079-.084-.05-.035-.109-.035-.079 0-.148.05-.064.049-.103.118-.04.07-.065.148-.02.08-.034.158-.015.08-.02.163v1.546zm3.126.04q-.113 0-.227-.015t-.222-.054q-.109-.045-.203-.114-.094-.07-.158-.163-.064-.094-.099-.207-.034-.114-.034-.228h.548q.005.07.035.134.034.064.093.103.06.04.129.055t.138.014q.074 0 .143-.014.07-.015.129-.05.059-.04.094-.103.039-.065.039-.134 0-.079-.054-.143-.05-.064-.124-.094-.069-.03-.148-.05l-.153-.039-.148-.05q-.074-.024-.148-.053-.07-.03-.139-.07-.064-.044-.128-.093-.06-.05-.109-.109-.044-.064-.079-.133-.034-.074-.054-.148-.015-.08-.015-.159 0-.113.03-.222.034-.108.094-.202.064-.094.153-.163.089-.074.192-.119.104-.044.218-.06.113-.014.227-.014.108 0 .217.015.114.015.217.06.104.039.193.108.089.07.148.163.064.094.094.202.035.109.035.223h-.549q-.005-.065-.034-.124-.025-.064-.08-.104-.049-.04-.113-.054-.064-.015-.128-.015-.07 0-.134.015t-.118.054-.084.104q-.03.06-.03.129 0 .079.05.143.054.064.123.094.074.03.148.049.08.02.153.044.075.02.149.045.074.02.148.054.074.03.138.07.07.039.128.093.06.05.11.114.049.06.083.128.035.07.05.148.02.08.02.153 0 .119-.035.233-.035.108-.104.207-.064.094-.158.163-.094.07-.203.114-.108.04-.222.054-.113.015-.232.015" style="text-align:center;text-anchor:middle" transform="translate(-24.641 -33.154)scale(1.19277)"/></g><path d="M68.14 221.48v-4.17h-.96v-.626h2.65v.627h-.96v4.168zm3.64.051q-.176 0-.359-.032-.176-.033-.333-.118-.156-.084-.28-.215-.124-.137-.202-.294-.079-.163-.111-.339-.026-.182-.026-.359v-.848q0-.176.026-.352.032-.182.104-.339.078-.163.196-.294.124-.137.28-.221.157-.085.333-.118.183-.032.359-.032t.352.032q.183.033.34.118.156.084.273.221.124.13.196.294.078.157.104.34.033.175.033.351v.738h-1.872v.11q0 .131.026.268.032.13.104.241.079.105.202.163.124.06.255.06.098 0 .19-.02.097-.02.175-.072.078-.059.124-.144.052-.091.059-.182h.724q-.007.15-.059.3-.045.15-.137.274-.085.124-.209.221-.123.092-.267.15-.143.053-.294.072-.15.026-.306.026m-.587-2.094h1.148v-.11q0-.131-.026-.261t-.105-.242q-.071-.11-.195-.17-.118-.058-.248-.058t-.255.059q-.117.058-.195.17-.072.11-.098.24-.026.131-.026.261zm3.816 2.094q-.176 0-.352-.032-.176-.033-.333-.118-.15-.091-.274-.221-.117-.137-.196-.294-.071-.163-.098-.34-.026-.175-.026-.352v-.848q0-.176.026-.352.027-.176.098-.333.079-.163.196-.293.124-.137.274-.222.157-.091.333-.124.176-.032.352-.032.17 0 .333.032.17.026.32.098t.267.19q.124.117.202.267.078.143.117.313.04.163.04.326v.013h-.725v-.006q0-.117-.039-.228-.032-.111-.104-.203-.072-.091-.183-.13-.11-.046-.228-.046-.13 0-.248.065-.117.06-.19.17-.064.104-.09.235-.027.13-.027.26v.849q0 .13.027.26.026.131.09.242.073.105.19.17.117.058.248.058.117 0 .228-.039.111-.045.183-.137.072-.091.104-.202.04-.11.04-.228v-.006h.723v.012q0 .163-.039.333-.039.163-.117.313-.078.143-.202.26-.118.118-.268.19t-.32.098q-.162.032-.332.032m2.035-.052v-4.795h.724v1.873q.052-.13.13-.242.08-.11.183-.189.111-.085.242-.117.13-.04.267-.04.157 0 .307.053.15.052.26.156.118.105.19.248.072.137.11.287.047.15.06.307.02.15.02.307v2.152h-.725v-2.152q0-.085-.013-.17-.007-.085-.033-.163-.02-.085-.065-.157-.039-.071-.104-.13-.059-.059-.144-.085-.078-.026-.163-.026t-.17.026q-.078.026-.143.085-.059.059-.104.13-.04.072-.066.157-.02.078-.032.163-.007.085-.007.17v2.152zm3.262 0v-3.457h.724v.535q.052-.13.13-.242.079-.11.183-.189.111-.085.242-.117.13-.04.267-.04.157 0 .307.053.15.052.26.156.118.105.19.248.071.137.11.287.046.15.06.307.019.15.019.307v2.152h-.724v-2.152q0-.085-.013-.17-.007-.085-.033-.163-.02-.085-.065-.157-.04-.071-.105-.13-.058-.059-.143-.085-.078-.026-.163-.026t-.17.026q-.078.026-.143.085-.059.059-.105.13-.039.072-.065.157-.02.078-.032.163-.007.085-.007.17v2.152zm4.508.052q-.177 0-.36-.032-.175-.033-.332-.118-.156-.084-.28-.215-.118-.137-.196-.294-.072-.163-.104-.339-.027-.182-.027-.359v-.848q0-.176.027-.352.032-.182.104-.339.078-.163.196-.294.124-.137.28-.221.157-.085.333-.118.182-.032.359-.032.176 0 .352.032.182.033.34.118.156.084.273.221.124.13.196.294.078.157.104.34.033.175.033.351v.848q0 .177-.033.36-.026.175-.104.338-.072.157-.196.294-.117.13-.274.215t-.34.118q-.175.032-.351.032m0-.626q.13 0 .247-.059.124-.058.196-.17.078-.11.105-.24t.026-.261v-.848q0-.13-.026-.261-.027-.13-.105-.242-.072-.11-.196-.17-.117-.058-.247-.058t-.255.059q-.117.058-.196.17-.071.11-.097.24-.026.131-.026.262v.848q0 .13.026.26.026.131.097.242.079.11.196.17.124.058.255.058m2.12.574v-.626h.822v-3.542h-.731v-.626h1.461v4.168h.73v.626zm4.403.052q-.176 0-.359-.032-.176-.033-.333-.118-.156-.084-.28-.215-.117-.137-.196-.293-.071-.164-.104-.34-.026-.182-.026-.358v-.849q0-.176.026-.352.033-.182.104-.339.079-.163.196-.294.124-.137.28-.221.157-.085.333-.118.183-.032.359-.032t.352.032q.183.033.34.118.156.084.273.221.124.13.196.294.078.157.105.34.032.175.032.351v.849q0 .176-.032.358-.027.176-.105.34-.072.156-.196.293-.117.13-.274.215-.156.085-.339.118-.176.032-.352.032m0-.626q.13 0 .248-.058.124-.06.196-.17.078-.111.104-.241t.026-.261v-.848q0-.13-.026-.261-.026-.13-.104-.242-.072-.11-.196-.17-.118-.058-.248-.058t-.254.059q-.118.058-.196.17-.072.11-.098.24-.026.131-.026.262v.848q0 .13.026.26.026.131.098.242.078.11.196.17.123.058.254.058m3.242 1.964q-.156 0-.313-.026-.15-.02-.294-.085-.137-.065-.26-.17-.118-.098-.203-.228-.078-.13-.124-.28-.039-.15-.045-.307h.724q.006.098.045.189.04.098.111.163t.163.091q.098.027.196.027.124 0 .241-.066.118-.058.183-.17.072-.11.091-.24.027-.125.027-.255v-.568q-.053.13-.13.242-.08.11-.19.196-.111.078-.241.11-.13.04-.268.04-.156 0-.313-.053-.15-.045-.274-.143-.117-.105-.202-.242-.078-.143-.124-.293t-.065-.307q-.013-.163-.013-.32v-.847q0-.157.013-.314.02-.163.065-.313.046-.15.124-.287.085-.143.202-.241.124-.104.274-.15.157-.052.313-.052.137 0 .268.039.13.032.241.117.11.078.19.19.077.11.13.24v-.534h.724v3.49q0 .176-.026.352-.027.176-.098.333-.072.163-.196.293-.117.137-.274.222-.15.085-.326.118-.17.039-.346.039m.013-1.964q.085 0 .163-.026.085-.026.15-.078.066-.059.105-.13.045-.079.065-.157.026-.085.032-.17.013-.085.013-.17v-.847q0-.085-.013-.17-.006-.085-.032-.163-.02-.085-.065-.157-.04-.078-.105-.13-.065-.059-.15-.085-.078-.026-.163-.026-.13 0-.254.065-.118.059-.19.17-.071.104-.097.235-.026.13-.026.26v.849q0 .13.026.26.026.131.098.242.071.104.189.17.124.058.254.058m2.518 1.912q.072-.235.137-.477l.13-.47.118-.436-.959-3.412h.75l.587 2.472.561-2.472h.75l-1.324 4.795zm5.884-1.338.972-4.794h.835l.972 4.794h-.743l-.203-1.102h-.887l-.202 1.102zm1.722-1.728-.267-1.468q-.013-.092-.033-.183-.013-.098-.032-.19l-.04.19-.025.183-.268 1.468zm2.623 1.78q-.157 0-.313-.052-.15-.045-.274-.143-.118-.105-.202-.242-.079-.143-.124-.293-.046-.15-.066-.307-.013-.163-.013-.32v-.847q0-.157.013-.314.02-.163.066-.313.045-.15.124-.287.084-.143.202-.241.124-.104.274-.15.156-.052.313-.052.137 0 .267.039.13.032.242.117.11.078.189.19.078.11.13.24v-1.872h.724v4.795h-.724v-.535q-.052.13-.13.241t-.19.196q-.11.078-.24.111-.131.04-.268.04zm.3-.626q.085 0 .163-.026.085-.026.15-.078.065-.059.104-.13.046-.079.066-.157.026-.085.032-.17.013-.085.013-.17v-.847q0-.085-.013-.17-.006-.085-.032-.163-.02-.085-.066-.157-.039-.078-.104-.13-.065-.059-.15-.085-.078-.026-.163-.026-.13 0-.254.065-.118.059-.19.17-.071.104-.097.235-.027.13-.027.26v.849q0 .13.027.26.026.131.097.242.072.104.19.17.123.058.254.058m3.268.626q-.176 0-.359-.032-.176-.033-.332-.118t-.28-.215q-.118-.137-.197-.293-.071-.164-.104-.34-.026-.182-.026-.358v-.849q0-.176.026-.352.033-.182.104-.339.079-.163.196-.294.124-.137.28-.221.157-.085.333-.118.183-.032.36-.032.175 0 .351.032.183.033.34.118.156.084.274.221.124.13.195.294.078.157.105.34.032.175.032.351v.849q0 .176-.032.358-.026.176-.105.34-.072.156-.195.293-.118.13-.274.215t-.34.118q-.176.032-.352.032m0-.626q.13 0 .248-.058.124-.06.196-.17.078-.111.104-.241t.026-.261v-.848q0-.13-.026-.261-.026-.13-.104-.242-.072-.11-.196-.17-.117-.058-.248-.058-.13 0-.254.059-.118.058-.196.17-.072.11-.098.24-.026.131-.026.262v.848q0 .13.026.26.026.131.098.242.078.11.196.17.124.058.254.058m2.016 1.912v-4.795h.724v.535q.052-.13.13-.242.079-.11.19-.189.11-.085.241-.117.13-.04.267-.04.157 0 .307.053.157.046.274.15.124.098.202.241.085.137.13.287.046.15.06.314.019.156.019.313v.848q0 .156-.02.32-.013.156-.058.306t-.13.294q-.079.137-.203.24-.117.099-.274.144-.15.053-.307.053-.137 0-.267-.04-.13-.032-.241-.11-.111-.085-.19-.196-.078-.111-.13-.241v1.872zm1.252-1.912q.13 0 .248-.058.124-.066.196-.17.072-.111.098-.241t.026-.261v-.848q0-.13-.026-.261-.026-.13-.098-.235-.072-.111-.196-.17-.117-.065-.248-.065-.084 0-.17.026-.077.026-.143.085-.065.052-.11.13-.04.072-.066.157-.02.078-.033.163-.006.085-.006.17v.848q0 .084.006.17.013.084.033.169.026.078.065.156.046.072.111.13.065.053.144.08.085.025.17.025m3.66.626q-.163 0-.326-.039t-.3-.137q-.13-.097-.229-.234-.091-.137-.15-.294-.052-.157-.071-.32-.02-.17-.02-.332v-1.527h-.633v-.626h.633v-1.337h.73v1.337h.92v.626h-.92v1.683q.007.072.02.15.013.072.033.144.026.072.065.137.046.058.111.104.065.04.137.04.098 0 .176-.06.085-.065.124-.156.04-.091.052-.19.013-.097.013-.195v-.033h.73v.066q0 .156-.032.306-.026.15-.085.294-.058.137-.163.254-.097.118-.228.196-.13.078-.28.11-.15.033-.307.033m1.716-.052v-.626h.822v-2.205h-.731v-.626h1.461v2.831h.73v.626zm1.141-3.946q-.104 0-.209-.033-.104-.033-.176-.104-.071-.072-.104-.177-.033-.104-.033-.208 0-.105.033-.209t.104-.176.176-.105.21-.032.208.032.176.105.104.176q.033.104.033.209 0 .104-.033.208-.032.105-.104.177-.072.071-.176.104t-.209.033m3.262 3.998q-.176 0-.359-.032-.176-.033-.333-.118-.156-.084-.28-.215-.117-.137-.196-.294-.072-.163-.104-.339-.026-.182-.026-.359v-.848q0-.176.026-.352.032-.182.104-.339.078-.163.196-.294.124-.137.28-.221.157-.085.333-.118.183-.032.359-.032t.352.032q.183.033.34.118.156.084.273.221.124.13.196.294.078.157.104.34.033.175.033.351v.848q0 .177-.033.36-.026.175-.104.338-.072.157-.196.294-.117.13-.274.215-.156.085-.339.118-.176.032-.352.032m0-.626q.13 0 .248-.059.124-.058.196-.17.078-.11.104-.24t.026-.261v-.848q0-.13-.026-.261-.026-.13-.104-.242-.072-.11-.196-.17-.118-.058-.248-.058t-.255.059q-.117.058-.195.17-.072.11-.098.24-.026.131-.026.262v.848q0 .13.026.26.026.131.098.242.078.11.195.17.124.058.255.058m2.016.574v-3.457h.724v.535q.052-.13.13-.242.078-.11.183-.189.11-.085.241-.117.13-.04.268-.04.156 0 .306.053.15.052.261.156.118.105.19.248.071.137.11.287.046.15.059.307.02.15.02.307v2.152h-.724v-2.152q0-.085-.013-.17-.006-.085-.033-.163-.02-.085-.065-.157-.04-.071-.105-.13-.058-.059-.143-.085-.078-.026-.163-.026t-.17.026q-.078.026-.143.085-.06.059-.105.13-.039.072-.065.157-.02.078-.033.163-.006.085-.006.17v2.152zm6.712 0v-4.794h.73v4.168h1.625v.626zm3.177 0v-.626h.822v-2.205h-.73v-.626h1.46v2.831h.731v.626zm1.142-3.946q-.105 0-.21-.033-.103-.033-.175-.104-.072-.072-.105-.177-.032-.104-.032-.208 0-.105.032-.209.033-.104.105-.176t.176-.105.209-.032.208.032.177.105.104.176.033.209-.033.208-.104.177-.177.104-.208.033m2.707 3.946v-2.674h-.692v-.627h.692v-.424q0-.143.013-.28.02-.144.072-.274t.137-.241q.091-.118.208-.19.124-.078.261-.104.137-.033.28-.033.197 0 .386.065.189.06.32.196.136.137.195.326.065.19.065.385v.059h-.73v-.026q0-.059-.013-.117-.006-.066-.033-.124-.026-.06-.078-.098-.046-.04-.111-.04-.078 0-.13.066-.053.059-.079.13-.02.072-.032.15-.006.072-.006.15v.424h.952v.627h-.952v2.674zm3.83.052q-.177 0-.36-.032-.176-.033-.332-.118t-.28-.215q-.125-.137-.203-.293-.078-.164-.111-.34-.026-.182-.026-.358v-.849q0-.176.026-.352.033-.182.104-.339.079-.163.196-.294.124-.137.28-.221.157-.085.333-.118.183-.032.359-.032t.352.032q.183.033.34.118.156.084.274.221.123.13.195.294.078.157.105.34.032.175.032.351v.738h-1.872v.11q0 .131.026.268.033.13.104.241.079.105.203.163.124.06.254.06.098 0 .19-.02.097-.02.175-.072.079-.059.124-.144.053-.091.059-.182h.724q-.006.15-.059.3-.045.15-.137.274-.084.124-.208.221-.124.092-.268.15-.143.053-.293.072-.15.026-.307.026m-.588-2.094h1.148v-.11q0-.131-.026-.261t-.104-.242q-.072-.11-.196-.17-.117-.058-.248-.058-.13 0-.254.059-.118.058-.196.17-.072.11-.098.24-.026.131-.026.262zm3.816 2.094q-.176 0-.352-.032-.176-.033-.333-.118-.15-.091-.274-.221-.117-.137-.195-.294-.072-.163-.098-.34-.026-.175-.026-.351v-.849q0-.176.026-.352t.098-.332q.078-.164.195-.294.124-.137.274-.222.157-.091.333-.124.176-.032.352-.032.17 0 .333.032.17.026.32.098t.267.19q.124.117.202.267.079.143.118.313.039.163.039.326v.013h-.724v-.006q0-.117-.04-.228-.032-.111-.104-.203-.072-.091-.183-.13-.11-.046-.228-.046-.13 0-.248.065-.117.06-.189.17-.065.104-.091.235-.026.13-.026.26v.849q0 .13.026.26.026.131.091.242.072.105.19.17.117.058.247.058.118 0 .228-.039.111-.045.183-.137.072-.091.104-.202.04-.11.04-.228v-.006h.724v.012q0 .163-.04.333-.039.163-.117.313-.078.143-.202.26-.117.118-.267.19t-.32.098q-.163.032-.333.032m2.531 1.286q.072-.235.137-.477l.13-.47.118-.436-.959-3.412h.75l.587 2.472.561-2.472h.75l-1.324 4.795zm3.993-1.286q-.177 0-.353-.032-.176-.033-.332-.118-.15-.091-.274-.221-.118-.137-.196-.294-.072-.163-.098-.34-.026-.175-.026-.351v-.849q0-.176.026-.352t.098-.332q.078-.164.196-.294.124-.137.274-.222.156-.091.332-.124.176-.032.353-.032.17 0 .332.032.17.026.32.098t.267.19q.124.117.203.267.078.143.117.313.04.163.04.326v.013h-.725v-.006q0-.117-.04-.228-.032-.111-.103-.203-.072-.091-.183-.13-.111-.046-.228-.046-.13 0-.248.065-.118.06-.19.17-.065.104-.09.235-.027.13-.027.26v.849q0 .13.026.26.026.131.091.242.072.105.19.17.117.058.248.058.117 0 .228-.039.11-.045.183-.137.071-.091.104-.202.039-.11.039-.228v-.006h.724v.012q0 .163-.039.333-.04.163-.117.313-.079.143-.203.26-.117.118-.267.19t-.32.098q-.163.032-.332.032m2.14-.052v-.626h.821v-3.542h-.73v-.626h1.46v4.168h.731v.626zm4.416.052q-.177 0-.36-.032-.175-.033-.332-.118-.156-.084-.28-.215-.124-.137-.203-.293-.078-.164-.11-.34-.027-.182-.027-.358v-.849q0-.176.026-.352.033-.182.105-.339.078-.163.196-.294.123-.137.28-.221.157-.085.333-.118.182-.032.358-.032.177 0 .353.032.182.033.339.118t.274.221q.124.13.196.294.078.157.104.34.033.175.033.351v.738h-1.872v.11q0 .131.026.268.032.13.104.241.078.105.202.163.124.06.255.06.097 0 .189-.02.098-.02.176-.072.078-.059.124-.144.052-.091.059-.182h.724q-.006.15-.059.3-.046.15-.137.274-.085.124-.209.221-.124.092-.267.15-.144.053-.294.072-.15.026-.306.026m-.588-2.094h1.149v-.11q0-.131-.027-.261-.026-.13-.104-.242-.072-.11-.196-.17-.117-.058-.247-.058t-.255.059q-.117.058-.196.17-.071.11-.097.24-.026.131-.026.262z" aria-label="Technology Adoption Lifecycle" style="font-weight:700;font-size:5.46914px;line-height:1.25;font-family:Iosevka;-inkscape-font-specification:&quot;Iosevka, Bold&quot;;text-align:center;text-anchor:middle;stroke-width:.349468"/><path d="M-2.683 173.319q-.026-.522-.039-1.044t-.013-1.05h.796q0 .528-.013 1.05t-.04 1.044zm1.305 0q-.026-.522-.04-1.044-.012-.522-.012-1.05h.796q0 .528-.013 1.05t-.04 1.044zm2.59 2.942v-4.168h-.96v-.627h2.65v.627h-.96v4.168zm2.38 0v-4.795h.725v1.873q.052-.13.13-.242.079-.11.183-.189.111-.085.241-.117.13-.04.268-.04.156 0 .307.053.15.052.26.156.118.105.19.248.071.137.11.287.046.15.06.307.019.15.019.306v2.153H5.36v-2.153q0-.084-.013-.17-.007-.084-.033-.162-.02-.085-.065-.157-.04-.072-.105-.13-.058-.06-.143-.085-.078-.026-.163-.026t-.17.026q-.078.026-.143.085-.059.058-.105.13-.039.072-.065.157-.02.078-.033.163-.006.085-.006.17v2.152zm4.522.052q-.177 0-.36-.032-.175-.033-.332-.118-.156-.084-.28-.215-.124-.137-.203-.293-.078-.164-.11-.34-.027-.182-.027-.358v-.848q0-.177.026-.353.033-.182.105-.339.078-.163.196-.293.123-.137.28-.222t.333-.118q.182-.032.359-.032.176 0 .352.032.182.033.339.118t.274.222q.124.13.196.293.078.157.104.34.033.175.033.352v.737H7.526v.11q0 .131.027.268.032.13.104.241.078.105.202.164.124.058.255.058.097 0 .189-.02.098-.019.176-.071.078-.059.124-.144.052-.091.059-.182h.724q-.007.15-.06.3-.045.15-.136.274-.085.124-.209.222-.124.09-.267.15-.144.052-.294.071-.15.026-.306.026m-.588-2.094h1.149v-.11q0-.131-.027-.262-.026-.13-.104-.24-.072-.112-.196-.17-.117-.06-.247-.06-.131 0-.255.06-.117.058-.196.17-.071.11-.097.24-.027.131-.027.261zm7.078 2.094q-.176 0-.352-.039-.176-.032-.333-.117-.156-.091-.28-.228-.118-.144-.19-.307-.071-.163-.097-.34-.026-.182-.026-.358v-2.12q0-.176.026-.352.026-.183.098-.346.071-.163.189-.3.124-.144.28-.229.157-.09.333-.123.176-.04.352-.04.17 0 .333.033.17.026.32.104.15.072.274.196.124.117.195.268.079.15.118.32.039.162.039.332v.006h-.724v-.006q0-.118-.033-.228-.032-.118-.104-.21-.072-.097-.19-.143-.11-.045-.228-.045-.084 0-.176.026-.085.026-.15.085-.065.058-.11.137-.046.078-.073.163-.026.084-.039.176-.006.085-.006.176v2.12q0 .091.006.183.013.084.04.17.026.084.071.162.046.079.111.137t.15.085q.092.026.176.026.118 0 .229-.045.117-.046.189-.137.072-.098.104-.21.033-.117.033-.234v-.006h.724v.006q0 .17-.04.34-.038.162-.117.312-.071.15-.195.274-.124.118-.274.196-.15.072-.32.098-.163.032-.333.032m2.036-.052v-4.795h.724v1.873q.052-.13.13-.242.078-.11.183-.189.11-.085.241-.117.13-.04.268-.04.156 0 .306.053.15.052.261.156.118.105.19.248.071.137.11.287.046.15.059.307.02.15.02.306v2.153h-.725v-2.153q0-.084-.013-.17-.006-.084-.032-.162-.02-.085-.065-.157-.04-.072-.105-.13-.059-.06-.143-.085-.079-.026-.163-.026-.085 0-.17.026-.078.026-.144.085-.058.058-.104.13-.04.072-.065.157-.02.078-.033.163-.006.085-.006.17v2.152zm4.11.052q-.131 0-.262-.026-.124-.026-.234-.091-.105-.065-.19-.163-.078-.105-.13-.222-.046-.124-.065-.248t-.02-.254q0-.176.04-.346.038-.17.143-.307.104-.143.248-.241.143-.098.306-.157.17-.058.34-.078.176-.02.345-.02h.398v-.254q0-.11-.032-.209-.033-.104-.111-.176-.072-.078-.176-.11-.105-.033-.216-.033-.091 0-.189.026-.091.02-.17.078-.078.059-.123.15-.04.091-.04.183h-.724q0-.15.04-.3.045-.15.13-.28t.209-.23.267-.15q.144-.058.294-.077.156-.027.306-.027.163 0 .326.027.163.02.307.084.15.066.274.176.124.105.202.248.085.137.118.3.032.157.032.32v2.355h-.724v-.509q-.032.065-.046.085-.006.013-.026.046l-.045.058q-.02.027-.046.053-.02.026-.046.052l-.052.052q-.026.02-.058.039-.027.02-.06.039-.025.02-.058.04l-.065.025q-.033.013-.072.02-.033.013-.065.02l-.072.012q-.032.006-.072.006-.032.006-.071.006-.033.006-.066.006zm.293-.626q.124 0 .241-.033.124-.039.209-.124.091-.084.13-.202.046-.117.046-.241v-.3h-.398q-.078 0-.156.006-.079.006-.157.026-.072.02-.143.052-.072.033-.13.085-.053.052-.086.13-.026.072-.026.15 0 .092.033.183.032.091.098.157.065.058.156.084.092.027.183.027m3.353.626q-.15 0-.3-.02-.15-.019-.294-.071-.143-.059-.267-.15t-.209-.215-.13-.274-.046-.3h.724q.007.091.046.176.045.085.124.137.078.052.17.072.09.02.182.02.098 0 .19-.02.09-.02.169-.066.078-.052.124-.137.052-.084.052-.176 0-.104-.072-.189-.065-.085-.163-.124-.091-.039-.196-.065l-.202-.052-.196-.065q-.097-.033-.195-.072-.092-.04-.183-.092-.085-.058-.17-.124-.078-.065-.143-.143-.059-.085-.104-.176-.046-.098-.072-.196-.02-.104-.02-.209 0-.15.04-.293.045-.144.123-.268.085-.124.202-.215.118-.098.255-.157t.287-.078.3-.02q.144 0 .287.02.15.02.287.078.137.053.254.144.118.091.196.215.085.124.124.268.046.143.046.293h-.724q-.007-.085-.046-.163-.033-.085-.104-.137-.066-.052-.15-.072-.085-.02-.17-.02-.091 0-.176.02t-.157.072-.11.137q-.04.078-.04.17 0 .104.066.189.071.085.163.124.097.039.195.065.105.026.203.059.097.026.195.059.098.026.196.071.098.04.183.092.09.052.17.124.077.065.143.15.065.078.11.17.046.09.066.195.026.104.026.202 0 .157-.046.307-.045.143-.137.274-.085.124-.208.215-.124.092-.268.15-.143.052-.293.072t-.307.02zm1.898-.052v-3.457h.607v.313q.026-.072.072-.137.045-.072.104-.124.065-.052.144-.078.084-.026.163-.026.104 0 .195.039.098.039.163.117.072.072.118.163t.065.19q.026-.098.065-.19.046-.091.111-.163.065-.078.157-.117.098-.04.202-.04t.202.046q.098.04.163.118.072.071.111.17.046.097.065.195.027.098.033.202.013.105.013.209v2.57h-.607v-2.57q0-.065-.006-.13-.007-.072-.033-.131-.026-.065-.078-.11-.046-.047-.117-.047-.066 0-.118.046t-.078.111q-.02.059-.033.13-.006.066-.006.13v2.571h-.6v-2.57q0-.065-.014-.13-.006-.072-.032-.131-.02-.065-.072-.11-.052-.047-.117-.047-.072 0-.124.046-.046.046-.072.111-.026.059-.033.13-.006.066-.006.13v2.571zm3.64-2.942q-.026-.522-.039-1.044t-.013-1.05h.796q0 .528-.013 1.05t-.04 1.044zm1.305 0q-.026-.522-.04-1.044-.012-.522-.012-1.05h.796q0 .528-.013 1.05t-.04 1.044z" aria-label="&quot;The Chasm&quot;" style="font-weight:700;font-size:5.46914px;line-height:1.25;font-family:Iosevka;-inkscape-font-specification:&quot;Iosevka, Bold&quot;;text-align:center;text-anchor:middle;stroke-width:.349468"/><path d="m29.799 178.689 29.151 14.135" style="fill:none;stroke:#000;stroke-width:1.03174;stroke-linecap:butt;stroke-linejoin:miter;stroke-dasharray:none;stroke-opacity:1"/></g></svg>