<svg xmlns="http://www.w3.org/2000/svg" width="400" height="400" viewBox="0 0 400 400"><path d="M31.984 35.735c0-2.283 1.63-3.914 3.915-3.914H65.26c2.283 0 3.915 1.63 3.915 3.914v328.53c0 2.283-1.632 3.914-3.915 3.914H35.899c-2.284 0-3.915-1.63-3.915-3.914zm74.71 0c0-2.283 1.631-3.914 3.915-3.914h29.362c2.284 0 3.915 1.63 3.915 3.914v328.53c0 2.283-1.631 3.914-3.915 3.914h-29.362c-2.284 0-3.915-1.63-3.915-3.914zm74.71 0c0-2.283 1.631-3.914 3.915-3.914h29.362c2.284 0 3.915 1.63 3.915 3.914v328.53c0 2.283-1.631 3.914-3.915 3.914h-29.362c-2.284 0-3.915-1.63-3.915-3.914zm74.71 0c0-2.283 1.631-3.914 3.915-3.914h29.362c2.284 0 3.915 1.63 3.915 3.914v328.53c0 2.283-1.631 3.914-3.915 3.914H260.03c-2.284 0-3.915-1.63-3.915-3.914zm74.71 130.825c0-2.284 1.632-3.915 3.915-3.915h29.362c2.284 0 3.915 1.631 3.915 3.915v66.88c0 2.284-1.63 3.915-3.915 3.915H334.74c-2.283 0-3.915-1.631-3.915-3.915z" style="fill:currentColor;stroke-width:3.26245"/></svg>