<?xml version="1.0" encoding="UTF-8" standalone="no"?>
<!-- Created with Inkscape (http://www.inkscape.org/) -->

<svg
   width="782.66498mm"
   height="394.50635mm"
   viewBox="0 0 782.66499 394.50634"
   version="1.1"
   id="svg1"
   xml:space="preserve"
   inkscape:version="1.3 (0e150ed, 2023-07-21)"
   sodipodi:docname="ferris.svg"
   xmlns:inkscape="http://www.inkscape.org/namespaces/inkscape"
   xmlns:sodipodi="http://sodipodi.sourceforge.net/DTD/sodipodi-0.dtd"
   xmlns="http://www.w3.org/2000/svg"
   xmlns:svg="http://www.w3.org/2000/svg"><sodipodi:namedview
     id="namedview1"
     pagecolor="#ffffff"
     bordercolor="#666666"
     borderopacity="1.0"
     inkscape:showpageshadow="2"
     inkscape:pageopacity="0.0"
     inkscape:pagecheckerboard="0"
     inkscape:deskcolor="#d1d1d1"
     inkscape:document-units="mm"
     inkscape:zoom="0.072474318"
     inkscape:cx="489.82869"
     inkscape:cy="206.96987"
     inkscape:window-width="1920"
     inkscape:window-height="1027"
     inkscape:window-x="0"
     inkscape:window-y="25"
     inkscape:window-maximized="0"
     inkscape:current-layer="layer1" /><defs
     id="defs1" /><g
     inkscape:label="Layer 1"
     inkscape:groupmode="layer"
     id="layer1"
     transform="translate(259.29509,-134.75158)"><g
       id="g26"
       transform="matrix(2.39566,0,0,2.39566,615.60748,-131.02232)"><path
         style="fill:#e13924"
         d="m -152.39634,251.64132 c -0.31477,-0.31477 -0.18668,-4.74447 0.22977,-7.946 0.22339,-1.71732 0.71043,-4.90834 1.08231,-7.09115 0.37189,-2.18281 0.7209,-4.39815 0.7756,-4.92298 0.0547,-0.52482 0.57969,-3.18711 1.16665,-5.91619 0.58696,-2.72908 1.0672,-5.04776 1.0672,-5.15263 0,-0.10486 -0.28254,-0.34187 -0.62787,-0.52669 -0.56549,-0.30264 -1.07724,-0.13618 -5.15062,1.67535 -11.8262,5.25938 -24.74454,8.4912 -38.8038,9.70764 -5.3417,0.46218 -17.25967,0.39465 -23.15104,-0.13118 -14.22689,-1.2698 -28.48595,-4.41909 -41.53959,-9.17451 -1.96453,-0.71568 -3.73458,-1.3013 -3.93345,-1.30138 -0.46115,-1.8e-4 -0.36058,0.43454 0.94872,4.1009 5.03194,14.09063 7.95332,25.67688 6.67363,26.46777 -0.70033,0.43283 -4.15627,-2.60376 -8.41602,-7.39479 -6.68278,-7.51625 -11.68321,-13.94605 -12.97953,-16.68972 -1.62935,-3.44851 -1.98222,-7.25285 -0.94534,-10.19169 0.22077,-0.62571 0.37036,-1.15622 0.33242,-1.17891 -1.19175,-0.71285 -3.2171,-2.44602 -4.58542,-3.92393 -1.34714,-1.45505 -2.10397,-2.60835 -3.2101,-4.89178 -1.19431,-2.46546 -1.53121,-2.96126 -1.92691,-2.83567 -0.92996,0.29516 -4.10287,-0.40501 -5.95696,-1.31452 -5.66337,-2.77815 -9.3927,-9.28893 -9.3927,-16.39808 0,-4.31692 1.19412,-7.76379 3.62718,-10.46993 1.1008,-1.22436 3.17697,-2.81801 3.37831,-2.59316 0.47502,0.53048 4.74398,7.70033 6.48826,10.89722 1.23692,2.26703 2.32231,4.12527 2.41197,4.12943 0.48944,0.0227 3.70031,-8.86368 4.09538,-11.33434 0.0972,-0.60789 0.26842,-1.16192 0.38048,-1.23117 0.31284,-0.19335 2.76684,2.6135 3.64819,4.17274 3.57809,6.33023 3.4511,14.25773 -0.31232,19.49614 -0.88275,1.22872 -0.88414,1.2355 -0.5337,2.60483 0.77928,3.04505 3.10305,6.21088 5.4873,7.47572 l 1.1399,0.60472 1.16796,-0.80013 c 0.64238,-0.44007 1.44446,-0.88673 1.78241,-0.99257 0.78529,-0.24595 0.74907,-0.32907 -1.66421,-3.81938 -1.53977,-2.22695 -1.99295,-3.09015 -1.99295,-3.79614 0,-1.44869 0.58139,-1.75085 4.84439,-2.51774 3.77577,-0.67924 3.8402,-0.70239 4.23001,-1.51983 0.38398,-0.8052 0.34907,-0.93935 -1.16428,-4.47453 -0.85806,-2.00445 -1.56012,-3.85566 -1.56012,-4.1138 0,-0.25815 0.2607,-0.80078 0.57933,-1.20585 l 0.57932,-0.73649 4.00583,0.16529 4.00582,0.16529 0.60123,-0.8132 0.60123,-0.81321 -0.83736,-3.68845 c -0.46054,-2.02865 -0.80011,-3.99956 -0.7546,-4.3798 0.0455,-0.38024 0.41124,-0.93553 0.81274,-1.23397 l 0.73,-0.54264 3.63563,0.84782 c 1.99959,0.4663 3.82323,0.84753 4.05252,0.84719 0.2293,-3.4e-4 0.6852,-0.2862 1.01312,-0.63525 0.5821,-0.61962 0.59187,-0.72763 0.41294,-4.56407 -0.17649,-3.78396 -0.16186,-3.95636 0.39515,-4.65703 0.36829,-0.46326 0.83167,-0.7276 1.2755,-0.7276 0.38339,0 2.21605,0.71959 4.07258,1.59908 3.30662,1.56645 3.39181,1.59065 4.17468,1.18582 0.89965,-0.46523 0.86232,-0.34622 1.57879,-5.03386 0.46423,-3.03733 0.60626,-3.5092 1.21455,-4.03489 0.37886,-0.32743 0.91311,-0.59532 1.18721,-0.59532 0.2741,0 1.94917,1.08208 3.72237,2.40461 l 3.22401,2.40461 0.92516,-0.35409 c 0.88157,-0.33741 0.98444,-0.51968 2.18393,-3.86969 0.69232,-1.93359 1.47025,-3.74929 1.72872,-4.0349 0.2842,-0.31403 0.81145,-0.51929 1.33393,-0.51929 0.7515,0 1.15629,0.31863 3.1092,2.4474 1.23487,1.34607 2.46474,2.70242 2.73303,3.01413 0.38094,0.44255 0.69504,0.53885 1.43358,0.43949 0.89539,-0.12046 1.05074,-0.30563 2.91649,-3.47649 3.08153,-5.2371 3.71254,-5.25261 6.77601,-0.16661 1.04886,1.74132 1.94183,3.2438 1.98438,3.33884 0.0426,0.095 0.51212,0.2141 1.04349,0.26458 0.93156,0.0885 1.06207,-0.0147 3.64808,-2.88477 2.43798,-2.70578 2.76553,-2.97657 3.60053,-2.97657 0.58855,0 1.07998,0.18852 1.36784,0.52472 0.2471,0.28859 1.00464,2.1043 1.68342,4.03489 1.19127,3.38824 1.26738,3.52288 2.19084,3.87563 l 0.9567,0.36544 3.05724,-2.29635 c 1.68148,-1.26299 3.23284,-2.36374 3.44746,-2.4461 0.64473,-0.2474 1.90467,0.4372 2.19004,1.18999 0.14696,0.3877 0.46425,2.07413 0.70509,3.74762 0.58838,4.08844 0.58368,4.0738 1.47749,4.60179 l 0.78316,0.46263 3.45099,-1.60617 c 1.89804,-0.88339 3.74068,-1.60617 4.09476,-1.60617 0.35407,0 0.88917,0.2454 1.1891,0.54533 0.5106,0.5106 0.54194,0.81759 0.49221,4.82188 l -0.0531,4.27656 0.70081,0.52323 0.70081,0.52323 3.63563,-0.84782 c 1.99959,-0.4663 3.82323,-0.84754 4.05252,-0.8472 0.63055,9.4e-4 1.56748,1.13766 1.56748,1.90173 0,0.37201 -0.36523,2.29305 -0.81161,4.26898 l -0.81162,3.59261 0.59209,0.80084 0.59209,0.80084 3.98984,-0.15641 c 3.83363,-0.15029 4.01314,-0.1341 4.58515,0.41353 0.34395,0.3293 0.59531,0.88737 0.59531,1.32172 0,0.41348 -0.70332,2.33299 -1.56293,4.26558 -1.52583,3.43038 -1.55341,3.53377 -1.16164,4.35532 0.39469,0.82768 0.45823,0.85134 3.86196,1.43825 1.90337,0.3282 3.72957,0.69896 4.05822,0.82391 0.82371,0.31317 1.51108,1.43719 1.32527,2.16711 -0.0836,0.32848 -1.06355,1.90371 -2.17761,3.5005 -1.54899,2.22018 -1.94028,2.9532 -1.66307,3.1155 0.19938,0.11672 1.03847,0.61207 1.86464,1.10075 1.47908,0.87489 1.51359,0.88147 2.24896,0.42856 2.16956,-1.33623 4.36652,-4.51554 5.14278,-7.44233 0.31306,-1.18037 0.29798,-1.24838 -0.49871,-2.24896 -2.09415,-2.63008 -3.08807,-5.85502 -3.04971,-9.89532 0.0296,-3.11394 0.64712,-5.9223 1.8126,-8.24286 0.84774,-1.68792 2.70294,-4.3402 3.65431,-5.22438 0.78482,-0.72938 0.69949,-0.85826 1.47144,2.22245 0.92839,3.70498 3.2942,9.92187 3.77573,9.92187 0.11313,0 0.63468,-0.8632 1.159,-1.91823 1.18769,-2.38981 7.59034,-13.16046 7.82417,-13.16193 0.48185,-0.003 3.05408,2.24064 3.9888,3.47932 2.04906,2.71538 2.92975,5.66656 2.90921,9.74876 -0.025,4.976 -1.73416,9.43102 -4.94804,12.89761 -2.70097,2.91334 -5.90298,4.50271 -9.41711,4.67432 l -1.63395,0.0798 -0.75293,1.76496 c -1.3922,3.26346 -3.52613,6.09832 -6.39768,8.49912 l -1.26317,1.05608 0.4542,2.07076 c 0.79718,3.63452 -0.0622,7.34679 -2.88825,12.47592 -4.74628,8.61435 -10.26379,17.01674 -13.25131,20.17989 -1.25478,1.32854 -1.7294,1.6004 -2.11713,1.21267 z"
         id="path3"
         sodipodi:nodetypes="ssssssssssssssssssssssssssssssssscssssssssscccccssscsssssssssssscsssssssssssssssscssssscsssscccsssscccssssssssssssssssssssssssscsscsssss" /><ellipse
         style="fill:#ffffff;fill-opacity:1;stroke:none;stroke-width:7.28483;stroke-linecap:square;stroke-miterlimit:1000;paint-order:fill markers stroke"
         id="path17"
         cx="-220.85916"
         cy="208.77124"
         rx="4.7654629"
         ry="5.8799663" /><ellipse
         style="fill:#ffffff;fill-opacity:1;stroke:none;stroke-width:7.28483;stroke-linecap:square;stroke-miterlimit:1000;paint-order:fill markers stroke"
         id="ellipse17"
         cx="-190.46011"
         cy="208.73282"
         rx="4.7654629"
         ry="5.8799663" /><path
         style="fill:#020100"
         d="m -210.41398,228.40826 c 0.37421,-3.65256 1.98571,-6.07432 4.91751,-7.39004 2.18234,-0.97937 3.06374,-1.07893 5.05414,-0.5709 3.47557,0.8871 6.17375,3.25063 7.01519,6.14509 0.23217,0.79862 0.38134,1.49029 0.3315,1.53704 -0.0498,0.0468 -3.72203,0.45556 -8.16042,0.90847 -4.43838,0.4529 -8.35273,0.86843 -8.69854,0.92341 -0.62002,0.0986 -0.62639,0.077 -0.45938,-1.55307 z m -10.44979,-7.37597 c -2.11129,-0.86851 -3.16647,-1.57428 -4.52494,-3.02659 -2.0649,-2.20755 -2.75352,-5.10912 -2.03495,-8.57445 2.36517,-11.40605 11.04996,-8.68432 12.52395,-8.13282 3.79141,1.41854 5.94144,5.6619 5.63838,11.12802 -0.25976,4.68516 -2.63412,7.71791 -6.94369,8.8691 -1.8676,0.49888 -2.95547,0.4374 -4.65875,-0.26326 z m 1.81202,-8.164 c 1.12741,-1.05191 1.72291,-2.5439 1.7155,-4.2981 -0.008,-1.93753 -0.35771,-2.91387 -1.44777,-4.044 -2.17282,-2.25268 -5.02796,-0.8317 -5.80483,2.88903 -0.67429,3.22938 1.47551,6.56573 3.99,6.19223 0.49381,-0.0734 1.19001,-0.40597 1.5471,-0.73916 z m 28.26374,7.97038 c -3.03254,-0.73953 -5.93082,-4.74093 -6.17356,-8.52329 -0.21211,-3.30512 1.24981,-7.39272 3.2822,-9.17718 2.59456,-2.27805 6.29664,-2.91042 8.97039,-1.53228 2.19821,1.13303 3.31984,2.58943 4.32219,5.61226 1.1898,3.58812 1.25498,6.54456 0.19219,8.71683 -0.82013,1.67627 -1.73776,2.53326 -3.83682,3.58327 -2.663,1.33209 -4.90884,1.77098 -6.75659,1.32039 z m 2.77037,-8.42168 c 2.00841,-2.11127 2.01301,-5.6012 0.0102,-7.70663 -0.83771,-0.88062 -1.16467,-1.04682 -2.05943,-1.04682 -2.06594,0 -3.60617,2.09062 -3.60617,4.89479 0,2.80418 1.54023,4.8948 3.60617,4.8948 0.89291,0 1.22182,-0.1663 2.04927,-1.03614 z"
         id="path1"
         sodipodi:nodetypes="ssssssssssssssssssssssssssssssssssss" /><path
         style="fill:#8f1e1c"
         d="m -247.84575,240.25853 c -1.06816,-0.71042 -3.07385,-2.71764 -5.63442,-5.63874 -5.17914,-5.90835 -5.69191,-6.63723 -6.83347,-9.71343 -1.31797,-3.5516 -1.43598,-4.04494 -0.96754,-4.04476 0.19887,8e-5 1.96892,0.5857 3.93345,1.30138 13.05364,4.75542 27.3127,7.90471 41.53959,9.17451 5.89137,0.52583 17.80934,0.59336 23.15104,0.13118 14.03228,-1.21411 26.9802,-4.44941 38.74368,-9.68091 2.45445,-1.09155 4.56387,-1.98085 4.6876,-1.97622 0.12373,0.005 0.44388,0.1743 0.71143,0.37704 0.46785,0.35452 0.44398,0.56934 -0.62389,5.61398 -0.61069,2.88495 -1.25957,5.48348 -1.44196,5.77452 -0.55989,0.89346 -6.54476,7.0378 -7.90322,8.11383 -1.68909,1.33792 -2.02676,1.31605 -2.02676,-0.13122 0,-1.17454 1.29408,-6.19471 2.49167,-9.66602 l 0.67205,-1.94799 -0.58967,0.1348 c -0.32433,0.0741 -2.67327,0.67366 -5.21989,1.33227 -20.9672,5.42254 -50.29938,6.37899 -73.95104,2.41136 -3.8136,-0.63974 -10.86253,-2.10132 -11.71857,-2.42981 -0.3206,-0.12303 -0.36629,-0.0453 -0.20623,0.35091 0.4556,1.12778 1.97679,7.52168 2.14661,9.0227 0.20363,1.79984 -0.006,2.12535 -0.96046,1.49062 z"
         id="path2"
         sodipodi:nodetypes="sssssssscsssssscsssssss" /><path
         style="fill:#709fef;fill-opacity:1;stroke:none;stroke-width:0.184952px;stroke-linecap:butt;stroke-linejoin:miter;stroke-opacity:1"
         d="m -167.51134,181.25096 c 0,0 -13.6086,19.5087 -0.31764,19.43908 14.82641,-0.0777 0.31764,-19.43908 0.31764,-19.43908 z"
         id="path19"
         sodipodi:nodetypes="csc" /><g
         id="g23"
         transform="rotate(-13.391123,-16.899037,468.52202)"><rect
           style="fill:#ffffff;fill-opacity:1;stroke:#000000;stroke-width:4;stroke-linecap:square;stroke-miterlimit:1000;stroke-dasharray:none;stroke-opacity:1;paint-order:fill markers stroke"
           id="rect22"
           width="41.994946"
           height="41.994946"
           x="-232.94397"
           y="86.463417" /><path
           d="m -214.80809,107.10869 -5.32698,-15.056411 h 5.10686 l 3.25782,9.949561 h 0.088 l 3.34587,-9.949561 h 4.57856 l -5.32698,15.056411 5.59112,15.76081 h -5.10685 l -3.52197,-10.742 h -0.0881 l -3.61001,10.742 h -4.57856 z"
           id="text21"
           style="font-size:44.0246px;line-height:1.25;font-family:'Bebas Neue';-inkscape-font-specification:'Bebas Neue, Normal';stroke-width:1.10062"
           aria-label="x" /></g><path
         style="fill:#e13924"
         d="m -291.34669,203.00926 c -5.66337,-2.77815 -9.3927,-9.28893 -9.3927,-16.39808 0,-4.31692 1.19412,-7.76379 3.62718,-10.46993 1.1008,-1.22436 3.17697,-2.81801 3.37831,-2.59316 0.47502,0.53048 4.74398,7.70033 6.48826,10.89722 1.23692,2.26703 2.35928,4.05676 2.41197,4.12943 3.91078,5.39349 5.0164,6.197 7.27803,13.7082 z"
         id="path25"
         sodipodi:nodetypes="cssssscc" /><g
         id="g24"
         transform="rotate(13.990348,-372.65004,257.84594)"><rect
           style="fill:#ffffff;fill-opacity:1;stroke:#000000;stroke-width:4;stroke-linecap:square;stroke-miterlimit:1000;stroke-dasharray:none;stroke-opacity:1;paint-order:fill markers stroke"
           id="rect21"
           width="41.994946"
           height="41.994946"
           x="-163.77596"
           y="88.023605" /><path
           d="m -145.19983,111.31036 -5.85527,-17.697893 h 5.15088 l 3.30184,11.314323 h 0.0881 l 3.30184,-11.314323 h 4.71064 l -5.85528,17.697893 v 13.11933 h -4.8427 z"
           id="text20"
           style="font-size:44.0246px;line-height:1.25;font-family:'Bebas Neue';-inkscape-font-specification:'Bebas Neue, Normal';stroke-width:1.10062"
           aria-label="y" /></g><path
         style="fill:#e13924"
         d="m -133.22779,202.04949 c 4.20811,-4.61019 5.78008,-9.985 8.32466,-15.38543 1.18769,-2.38981 7.59034,-13.16046 7.82417,-13.16193 0.48185,-0.003 3.05408,2.24064 3.9888,3.47932 2.04906,2.71538 2.92975,5.66656 2.90921,9.74876 -0.025,4.976 -1.73416,9.43102 -4.94804,12.89761 -2.70097,2.91334 -5.90298,4.50271 -9.41711,4.67432 l -1.63395,0.0798 z"
         id="path26"
         sodipodi:nodetypes="csssssscc" /></g></g></svg>
