<svg xmlns="http://www.w3.org/2000/svg" width="245" height="245" fill="none" class="undefined text-inherit w-fit max-sm:pl-4" viewBox="0 0 245 245"><g fill="currentcolor"><path d="M49.19 96.046V83.599H.008v17.553h44.474L.016 149.377H.008v.008l-.008.008.008.008v11.793h11.394l11.474-12.447v12.447h49.181V143.64H27.591l44.466-48.232v-11.81l-11.401.017Z"/><path fill-rule="evenodd" d="M116.723 99.397c-12.742 0-23.107 10.365-23.107 23.107 0 5.09 1.66 9.806 4.469 13.628l-12.064 12.99c-6.208-7.142-9.958-16.453-9.958-26.618 0-22.42 18.24-40.66 40.66-40.66 9.096 0 17.498 3 24.28 8.066l-12.064 12.99a22.95 22.95 0 0 0-12.216-3.503m23.107 23.107c0-5.09-1.659-9.806-4.46-13.636l12.056-12.99c6.208 7.142 9.958 16.453 9.958 26.626 0 22.413-18.24 40.652-40.661 40.652-9.096 0-17.497-3-24.28-8.058l12.073-12.998a22.9 22.9 0 0 0 12.207 3.503c12.743 0 23.107-10.365 23.107-23.099M204.34 99.397c-12.743 0-23.107 10.365-23.107 23.107 0 5.09 1.659 9.806 4.468 13.628l-12.064 12.99c-6.208-7.142-9.958-16.453-9.958-26.618 0-22.42 18.24-40.66 40.661-40.66 9.095 0 17.497 3 24.279 8.066l-12.064 12.99a22.95 22.95 0 0 0-12.215-3.503m18.646 9.471 12.056-12.99c6.208 7.142 9.958 16.453 9.958 26.626 0 22.413-18.24 40.652-40.66 40.652-9.096 0-17.498-3-24.28-8.058l12.072-12.998a22.9 22.9 0 0 0 12.208 3.503c12.742 0 23.106-10.365 23.106-23.099 0-5.09-1.659-9.806-4.46-13.636" clip-rule="evenodd"/></g></svg>