<svg xmlns="http://www.w3.org/2000/svg" xmlns:xlink="http://www.w3.org/1999/xlink" xml:space="preserve" width="100" height="100"><defs><mask id="b"><path fill="#fff" d="M-60-60H60V60H-60z"/><circle id="a" cx="0" cy="-40" r="3"/><use xlink:href="#a" transform="rotate(72)"/><use xlink:href="#a" transform="rotate(144)"/><use xlink:href="#a" transform="rotate(-144)"/><use xlink:href="#a" transform="rotate(-72)"/></mask><mask id="M" maskUnits="userSpaceOnUse"><g transform="rotate(11.244 809.43 -806.352)scale(.10742)"><path fill="#fff" d="M1050.826 767.069h1117.086v1117.086H1050.826z" style="stroke-width:9.30905"/><circle cx="1609.369" cy="953.25" r="27.927" style="stroke-width:9.30905"/><use xlink:href="#a" transform="rotate(72 -107.59 1770.36)scale(9.30905)"/><use xlink:href="#a" transform="rotate(144 589.326 924.264)scale(9.30905)"/><use xlink:href="#a" transform="rotate(216 1020.044 401.348)scale(9.30905)"/><use xlink:href="#a" transform="rotate(-72 1716.96 -444.747)scale(9.30905)"/></g></mask><mask id="L" maskUnits="userSpaceOnUse"><g transform="rotate(22.497 444.404 -363.34)scale(.10742)"><path fill="#fff" d="M1050.826 767.069h1117.086v1117.086H1050.826z" style="stroke-width:9.30905"/><circle cx="1609.369" cy="953.25" r="27.927" style="stroke-width:9.30905"/><use xlink:href="#a" transform="rotate(72 -107.59 1770.36)scale(9.30905)"/><use xlink:href="#a" transform="rotate(144 589.326 924.264)scale(9.30905)"/><use xlink:href="#a" transform="rotate(216 1020.044 401.348)scale(9.30905)"/><use xlink:href="#a" transform="rotate(-72 1716.96 -444.747)scale(9.30905)"/></g></mask><mask id="K" maskUnits="userSpaceOnUse"><g transform="rotate(33.748 321.161 -213.744)scale(.10742)"><path fill="#fff" d="M1050.826 767.069h1117.086v1117.086H1050.826z" style="stroke-width:9.30905"/><circle cx="1609.369" cy="953.25" r="27.927" style="stroke-width:9.30905"/><use xlink:href="#a" transform="rotate(72 -107.59 1770.36)scale(9.30905)"/><use xlink:href="#a" transform="rotate(144 589.326 924.264)scale(9.30905)"/><use xlink:href="#a" transform="rotate(216 1020.044 401.348)scale(9.30905)"/><use xlink:href="#a" transform="rotate(-72 1716.96 -444.747)scale(9.30905)"/></g></mask><mask id="J" maskUnits="userSpaceOnUse"><g transform="rotate(44.999 258.334 -137.479)scale(.10742)"><path fill="#fff" d="M1050.826 767.069h1117.086v1117.086H1050.826z" style="stroke-width:9.30905"/><circle cx="1609.369" cy="953.25" r="27.927" style="stroke-width:9.30905"/><use xlink:href="#a" transform="rotate(72 -107.59 1770.36)scale(9.30905)"/><use xlink:href="#a" transform="rotate(144 589.326 924.264)scale(9.30905)"/><use xlink:href="#a" transform="rotate(216 1020.044 401.348)scale(9.30905)"/><use xlink:href="#a" transform="rotate(-72 1716.96 -444.747)scale(9.30905)"/></g></mask><mask id="I" maskUnits="userSpaceOnUse"><g transform="rotate(56.249 219.647 -90.514)scale(.10742)"><path fill="#fff" d="M1050.826 767.069h1117.086v1117.086H1050.826z" style="stroke-width:9.30905"/><circle cx="1609.369" cy="953.25" r="27.927" style="stroke-width:9.30905"/><use xlink:href="#a" transform="rotate(72 -107.59 1770.36)scale(9.30905)"/><use xlink:href="#a" transform="rotate(144 589.326 924.264)scale(9.30905)"/><use xlink:href="#a" transform="rotate(216 1020.044 401.348)scale(9.30905)"/><use xlink:href="#a" transform="rotate(-72 1716.96 -444.747)scale(9.30905)"/></g></mask><mask id="H" maskUnits="userSpaceOnUse"><g transform="rotate(67.499 192.999 -58.164)scale(.10742)"><path fill="#fff" d="M1050.826 767.069h1117.086v1117.086H1050.826z" style="stroke-width:9.30905"/><circle cx="1609.369" cy="953.25" r="27.927" style="stroke-width:9.30905"/><use xlink:href="#a" transform="rotate(72 -107.59 1770.36)scale(9.30905)"/><use xlink:href="#a" transform="rotate(144 589.326 924.264)scale(9.30905)"/><use xlink:href="#a" transform="rotate(216 1020.044 401.348)scale(9.30905)"/><use xlink:href="#a" transform="rotate(-72 1716.96 -444.747)scale(9.30905)"/></g></mask><mask id="G" maskUnits="userSpaceOnUse"><g transform="rotate(78.75 173.197 -34.126)scale(.10742)"><path fill="#fff" d="M1050.826 767.069h1117.086v1117.086H1050.826z" style="stroke-width:9.30905"/><circle cx="1609.369" cy="953.25" r="27.927" style="stroke-width:9.30905"/><use xlink:href="#a" transform="rotate(72 -107.59 1770.36)scale(9.30905)"/><use xlink:href="#a" transform="rotate(144 589.326 924.264)scale(9.30905)"/><use xlink:href="#a" transform="rotate(216 1020.044 401.348)scale(9.30905)"/><use xlink:href="#a" transform="rotate(-72 1716.96 -444.747)scale(9.30905)"/></g></mask><mask id="F" maskUnits="userSpaceOnUse"><g transform="rotate(90 157.64 -15.239)scale(.10742)"><path fill="#fff" d="M1050.826 767.069h1117.086v1117.086H1050.826z" style="stroke-width:9.30905"/><circle cx="1609.369" cy="953.25" r="27.927" style="stroke-width:9.30905"/><use xlink:href="#a" transform="rotate(72 -107.59 1770.36)scale(9.30905)"/><use xlink:href="#a" transform="rotate(144 589.326 924.264)scale(9.30905)"/><use xlink:href="#a" transform="rotate(216 1020.044 401.348)scale(9.30905)"/><use xlink:href="#a" transform="rotate(-72 1716.96 -444.747)scale(9.30905)"/></g></mask><mask id="E" maskUnits="userSpaceOnUse"><g transform="rotate(101.25 144.872 .261)scale(.10742)"><path fill="#fff" d="M1050.826 767.069h1117.086v1117.086H1050.826z" style="stroke-width:9.30905"/><circle cx="1609.369" cy="953.25" r="27.927" style="stroke-width:9.30905"/><use xlink:href="#a" transform="rotate(72 -107.59 1770.36)scale(9.30905)"/><use xlink:href="#a" transform="rotate(144 589.326 924.264)scale(9.30905)"/><use xlink:href="#a" transform="rotate(216 1020.044 401.348)scale(9.30905)"/><use xlink:href="#a" transform="rotate(-72 1716.96 -444.747)scale(9.30905)"/></g></mask><mask id="D" maskUnits="userSpaceOnUse"><g transform="rotate(112.501 134.014 13.443)scale(.10742)"><path fill="#fff" d="M1050.826 767.069h1117.086v1117.086H1050.826z" style="stroke-width:9.30905"/><circle cx="1609.369" cy="953.25" r="27.927" style="stroke-width:9.30905"/><use xlink:href="#a" transform="rotate(72 -107.59 1770.36)scale(9.30905)"/><use xlink:href="#a" transform="rotate(144 589.326 924.264)scale(9.30905)"/><use xlink:href="#a" transform="rotate(216 1020.044 401.348)scale(9.30905)"/><use xlink:href="#a" transform="rotate(-72 1716.96 -444.747)scale(9.30905)"/></g></mask><mask id="C" maskUnits="userSpaceOnUse"><g transform="rotate(123.751 124.497 24.997)scale(.10742)"><path fill="#fff" d="M1050.826 767.069h1117.086v1117.086H1050.826z" style="stroke-width:9.30905"/><circle cx="1609.369" cy="953.25" r="27.927" style="stroke-width:9.30905"/><use xlink:href="#a" transform="rotate(72 -107.59 1770.36)scale(9.30905)"/><use xlink:href="#a" transform="rotate(144 589.326 924.264)scale(9.30905)"/><use xlink:href="#a" transform="rotate(216 1020.044 401.348)scale(9.30905)"/><use xlink:href="#a" transform="rotate(-72 1716.96 -444.747)scale(9.30905)"/></g></mask><mask id="B" maskUnits="userSpaceOnUse"><g transform="rotate(135.001 115.932 35.395)scale(.10742)"><path fill="#fff" d="M1050.826 767.069h1117.086v1117.086H1050.826z" style="stroke-width:9.30905"/><circle cx="1609.369" cy="953.25" r="27.927" style="stroke-width:9.30905"/><use xlink:href="#a" transform="rotate(72 -107.59 1770.36)scale(9.30905)"/><use xlink:href="#a" transform="rotate(144 589.326 924.264)scale(9.30905)"/><use xlink:href="#a" transform="rotate(216 1020.044 401.348)scale(9.30905)"/><use xlink:href="#a" transform="rotate(-72 1716.96 -444.747)scale(9.30905)"/></g></mask><mask id="A" maskUnits="userSpaceOnUse"><g transform="rotate(146.252 108.038 44.978)scale(.10742)"><path fill="#fff" d="M1050.826 767.069h1117.086v1117.086H1050.826z" style="stroke-width:9.30905"/><circle cx="1609.369" cy="953.25" r="27.927" style="stroke-width:9.30905"/><use xlink:href="#a" transform="rotate(72 -107.59 1770.36)scale(9.30905)"/><use xlink:href="#a" transform="rotate(144 589.326 924.264)scale(9.30905)"/><use xlink:href="#a" transform="rotate(216 1020.044 401.348)scale(9.30905)"/><use xlink:href="#a" transform="rotate(-72 1716.96 -444.747)scale(9.30905)"/></g></mask><mask id="z" maskUnits="userSpaceOnUse"><g transform="rotate(157.503 100.603 54.006)scale(.10742)"><path fill="#fff" d="M1050.826 767.069h1117.086v1117.086H1050.826z" style="stroke-width:9.30905"/><circle cx="1609.369" cy="953.25" r="27.927" style="stroke-width:9.30905"/><use xlink:href="#a" transform="rotate(72 -107.59 1770.36)scale(9.30905)"/><use xlink:href="#a" transform="rotate(144 589.326 924.264)scale(9.30905)"/><use xlink:href="#a" transform="rotate(216 1020.044 401.348)scale(9.30905)"/><use xlink:href="#a" transform="rotate(-72 1716.96 -444.747)scale(9.30905)"/></g></mask><mask id="y" maskUnits="userSpaceOnUse"><g transform="rotate(168.756 93.453 62.686)scale(.10742)"><path fill="#fff" d="M1050.826 767.069h1117.086v1117.086H1050.826z" style="stroke-width:9.30905"/><circle cx="1609.369" cy="953.25" r="27.927" style="stroke-width:9.30905"/><use xlink:href="#a" transform="rotate(72 -107.59 1770.36)scale(9.30905)"/><use xlink:href="#a" transform="rotate(144 589.326 924.264)scale(9.30905)"/><use xlink:href="#a" transform="rotate(216 1020.044 401.348)scale(9.30905)"/><use xlink:href="#a" transform="rotate(-72 1716.96 -444.747)scale(9.30905)"/></g></mask><mask id="x" maskUnits="userSpaceOnUse"><g transform="translate(172.88 142.4)scale(-.10742)"><path fill="#fff" d="M1050.826 767.069h1117.086v1117.086H1050.826z" style="stroke-width:9.30905"/><circle cx="1609.369" cy="953.25" r="27.927" style="stroke-width:9.30905"/><use xlink:href="#a" transform="rotate(72 -107.59 1770.36)scale(9.30905)"/><use xlink:href="#a" transform="rotate(144 589.326 924.264)scale(9.30905)"/><use xlink:href="#a" transform="rotate(216 1020.044 401.348)scale(9.30905)"/><use xlink:href="#a" transform="rotate(-72 1716.96 -444.747)scale(9.30905)"/></g></mask><mask id="w" maskUnits="userSpaceOnUse"><g transform="rotate(191.244 79.428 79.713)scale(.10742)"><path fill="#fff" d="M1050.826 767.069h1117.086v1117.086H1050.826z" style="stroke-width:9.30905"/><circle cx="1609.369" cy="953.25" r="27.927" style="stroke-width:9.30905"/><use xlink:href="#a" transform="rotate(72 -107.59 1770.36)scale(9.30905)"/><use xlink:href="#a" transform="rotate(144 589.326 924.264)scale(9.30905)"/><use xlink:href="#a" transform="rotate(216 1020.044 401.348)scale(9.30905)"/><use xlink:href="#a" transform="rotate(-72 1716.96 -444.747)scale(9.30905)"/></g></mask><mask id="v" maskUnits="userSpaceOnUse"><g transform="rotate(202.497 72.278 88.393)scale(.10742)"><path fill="#fff" d="M1050.826 767.069h1117.086v1117.086H1050.826z" style="stroke-width:9.30905"/><circle cx="1609.369" cy="953.25" r="27.927" style="stroke-width:9.30905"/><use xlink:href="#a" transform="rotate(72 -107.59 1770.36)scale(9.30905)"/><use xlink:href="#a" transform="rotate(144 589.326 924.264)scale(9.30905)"/><use xlink:href="#a" transform="rotate(216 1020.044 401.348)scale(9.30905)"/><use xlink:href="#a" transform="rotate(-72 1716.96 -444.747)scale(9.30905)"/></g></mask><mask id="u" maskUnits="userSpaceOnUse"><g transform="rotate(213.748 64.842 97.42)scale(.10742)"><path fill="#fff" d="M1050.826 767.069h1117.086v1117.086H1050.826z" style="stroke-width:9.30905"/><circle cx="1609.369" cy="953.25" r="27.927" style="stroke-width:9.30905"/><use xlink:href="#a" transform="rotate(72 -107.59 1770.36)scale(9.30905)"/><use xlink:href="#a" transform="rotate(144 589.326 924.264)scale(9.30905)"/><use xlink:href="#a" transform="rotate(216 1020.044 401.348)scale(9.30905)"/><use xlink:href="#a" transform="rotate(-72 1716.96 -444.747)scale(9.30905)"/></g></mask><mask id="t" maskUnits="userSpaceOnUse"><g transform="rotate(224.999 56.949 107.004)scale(.10742)"><path fill="#fff" d="M1050.826 767.069h1117.086v1117.086H1050.826z" style="stroke-width:9.30905"/><circle cx="1609.369" cy="953.25" r="27.927" style="stroke-width:9.30905"/><use xlink:href="#a" transform="rotate(72 -107.59 1770.36)scale(9.30905)"/><use xlink:href="#a" transform="rotate(144 589.326 924.264)scale(9.30905)"/><use xlink:href="#a" transform="rotate(216 1020.044 401.348)scale(9.30905)"/><use xlink:href="#a" transform="rotate(-72 1716.96 -444.747)scale(9.30905)"/></g></mask><mask id="s" maskUnits="userSpaceOnUse"><g transform="rotate(236.249 48.384 117.402)scale(.10742)"><path fill="#fff" d="M1050.826 767.069h1117.086v1117.086H1050.826z" style="stroke-width:9.30905"/><circle cx="1609.369" cy="953.25" r="27.927" style="stroke-width:9.30905"/><use xlink:href="#a" transform="rotate(72 -107.59 1770.36)scale(9.30905)"/><use xlink:href="#a" transform="rotate(144 589.326 924.264)scale(9.30905)"/><use xlink:href="#a" transform="rotate(216 1020.044 401.348)scale(9.30905)"/><use xlink:href="#a" transform="rotate(-72 1716.96 -444.747)scale(9.30905)"/></g></mask><mask id="r" maskUnits="userSpaceOnUse"><g transform="rotate(247.499 38.867 128.957)scale(.10742)"><path fill="#fff" d="M1050.826 767.069h1117.086v1117.086H1050.826z" style="stroke-width:9.30905"/><circle cx="1609.369" cy="953.25" r="27.927" style="stroke-width:9.30905"/><use xlink:href="#a" transform="rotate(72 -107.59 1770.36)scale(9.30905)"/><use xlink:href="#a" transform="rotate(144 589.326 924.264)scale(9.30905)"/><use xlink:href="#a" transform="rotate(216 1020.044 401.348)scale(9.30905)"/><use xlink:href="#a" transform="rotate(-72 1716.96 -444.747)scale(9.30905)"/></g></mask><mask id="q" maskUnits="userSpaceOnUse"><g transform="rotate(258.75 28.01 142.139)scale(.10742)"><path fill="#fff" d="M1050.826 767.069h1117.086v1117.086H1050.826z" style="stroke-width:9.30905"/><circle cx="1609.369" cy="953.25" r="27.927" style="stroke-width:9.30905"/><use xlink:href="#a" transform="rotate(72 -107.59 1770.36)scale(9.30905)"/><use xlink:href="#a" transform="rotate(144 589.326 924.264)scale(9.30905)"/><use xlink:href="#a" transform="rotate(216 1020.044 401.348)scale(9.30905)"/><use xlink:href="#a" transform="rotate(-72 1716.96 -444.747)scale(9.30905)"/></g></mask><mask id="m" maskUnits="userSpaceOnUse"><g transform="rotate(-90 15.243 157.64)scale(.10742)"><path fill="#fff" d="M1050.826 767.069h1117.086v1117.086H1050.826z" style="stroke-width:9.30905"/><circle cx="1609.369" cy="953.25" r="27.927" style="stroke-width:9.30905"/><use xlink:href="#a" transform="rotate(72 -107.59 1770.36)scale(9.30905)"/><use xlink:href="#a" transform="rotate(144 589.326 924.264)scale(9.30905)"/><use xlink:href="#a" transform="rotate(216 1020.044 401.348)scale(9.30905)"/><use xlink:href="#a" transform="rotate(-72 1716.96 -444.747)scale(9.30905)"/></g></mask><mask id="l" maskUnits="userSpaceOnUse"><g transform="rotate(-78.75 -.314 176.527)scale(.10742)"><path fill="#fff" d="M1050.826 767.069h1117.086v1117.086H1050.826z" style="stroke-width:9.30905"/><circle cx="1609.369" cy="953.25" r="27.927" style="stroke-width:9.30905"/><use xlink:href="#a" transform="rotate(72 -107.59 1770.36)scale(9.30905)"/><use xlink:href="#a" transform="rotate(144 589.326 924.264)scale(9.30905)"/><use xlink:href="#a" transform="rotate(216 1020.044 401.348)scale(9.30905)"/><use xlink:href="#a" transform="rotate(-72 1716.96 -444.747)scale(9.30905)"/></g></mask><mask id="k" maskUnits="userSpaceOnUse"><g transform="rotate(-67.499 -20.114 200.567)scale(.10742)"><path fill="#fff" d="M1050.826 767.069h1117.086v1117.086H1050.826z" style="stroke-width:9.30905"/><circle cx="1609.369" cy="953.25" r="27.927" style="stroke-width:9.30905"/><use xlink:href="#a" transform="rotate(72 -107.59 1770.36)scale(9.30905)"/><use xlink:href="#a" transform="rotate(144 589.326 924.264)scale(9.30905)"/><use xlink:href="#a" transform="rotate(216 1020.044 401.348)scale(9.30905)"/><use xlink:href="#a" transform="rotate(-72 1716.96 -444.747)scale(9.30905)"/></g></mask><mask id="j" maskUnits="userSpaceOnUse"><g transform="rotate(-56.249 -46.76 232.919)scale(.10742)"><path fill="#fff" d="M1050.826 767.069h1117.086v1117.086H1050.826z" style="stroke-width:9.30905"/><circle cx="1609.369" cy="953.25" r="27.927" style="stroke-width:9.30905"/><use xlink:href="#a" transform="rotate(72 -107.59 1770.36)scale(9.30905)"/><use xlink:href="#a" transform="rotate(144 589.326 924.264)scale(9.30905)"/><use xlink:href="#a" transform="rotate(216 1020.044 401.348)scale(9.30905)"/><use xlink:href="#a" transform="rotate(-72 1716.96 -444.747)scale(9.30905)"/></g></mask><mask id="i" maskUnits="userSpaceOnUse"><g transform="rotate(-44.999 -85.443 279.887)scale(.10742)"><path fill="#fff" d="M1050.826 767.069h1117.086v1117.086H1050.826z" style="stroke-width:9.30905"/><circle cx="1609.369" cy="953.25" r="27.927" style="stroke-width:9.30905"/><use xlink:href="#a" transform="rotate(72 -107.59 1770.36)scale(9.30905)"/><use xlink:href="#a" transform="rotate(144 589.326 924.264)scale(9.30905)"/><use xlink:href="#a" transform="rotate(216 1020.044 401.348)scale(9.30905)"/><use xlink:href="#a" transform="rotate(-72 1716.96 -444.747)scale(9.30905)"/></g></mask><mask id="h" maskUnits="userSpaceOnUse"><g transform="rotate(-33.748 -148.26 356.16)scale(.10742)"><path fill="#fff" d="M1050.826 767.069h1117.086v1117.086H1050.826z" style="stroke-width:9.30905"/><circle cx="1609.369" cy="953.25" r="27.927" style="stroke-width:9.30905"/><use xlink:href="#a" transform="rotate(72 -107.59 1770.36)scale(9.30905)"/><use xlink:href="#a" transform="rotate(144 589.326 924.264)scale(9.30905)"/><use xlink:href="#a" transform="rotate(216 1020.044 401.348)scale(9.30905)"/><use xlink:href="#a" transform="rotate(-72 1716.96 -444.747)scale(9.30905)"/></g></mask><mask id="g" maskUnits="userSpaceOnUse"><g transform="rotate(-22.497 -271.475 505.779)scale(.10742)"><path fill="#fff" d="M1050.826 767.069h1117.086v1117.086H1050.826z" style="stroke-width:9.30905"/><circle cx="1609.369" cy="953.25" r="27.927" style="stroke-width:9.30905"/><use xlink:href="#a" transform="rotate(72 -107.59 1770.36)scale(9.30905)"/><use xlink:href="#a" transform="rotate(144 589.326 924.264)scale(9.30905)"/><use xlink:href="#a" transform="rotate(216 1020.044 401.348)scale(9.30905)"/><use xlink:href="#a" transform="rotate(-72 1716.96 -444.747)scale(9.30905)"/></g></mask><mask id="f" maskUnits="userSpaceOnUse"><g transform="rotate(-11.244 -636.353 948.913)scale(.10742)"><path fill="#fff" d="M1050.826 767.069h1117.086v1117.086H1050.826z" style="stroke-width:9.30905"/><circle cx="1609.369" cy="953.25" r="27.927" style="stroke-width:9.30905"/><use xlink:href="#a" transform="rotate(72 -107.59 1770.36)scale(9.30905)"/><use xlink:href="#a" transform="rotate(144 589.326 924.264)scale(9.30905)"/><use xlink:href="#a" transform="rotate(216 1020.044 401.348)scale(9.30905)"/><use xlink:href="#a" transform="rotate(-72 1716.96 -444.747)scale(9.30905)"/></g></mask><mask id="e" maskUnits="userSpaceOnUse"><g transform="translate(-172.882 -142.4)scale(.10742)"><path fill="#fff" d="M1050.826 767.069h1117.086v1117.086H1050.826z" style="stroke-width:9.30905"/><circle cx="1609.369" cy="953.25" r="27.927" style="stroke-width:9.30905"/><use xlink:href="#a" transform="rotate(72 -107.59 1770.36)scale(9.30905)"/><use xlink:href="#a" transform="rotate(144 589.326 924.264)scale(9.30905)"/><use xlink:href="#a" transform="rotate(216 1020.044 401.348)scale(9.30905)"/><use xlink:href="#a" transform="rotate(-72 1716.96 -444.747)scale(9.30905)"/></g></mask></defs><path d="M32.8 62.74h6.511c4.007 0 4.007 4.007 0 4.007h-6.51ZM17.273 81.272h20.035v-5.51H32.8v-4.006h5.009c5.51 0 2.504 9.516 7.012 9.516h12.521v-9.516h-3.005v1.001c0 4.007-4.508 3.506-5.009 1.002-.5-2.504-2.504-4.508-3.005-4.508 7.513-4.007 3.005-12.02-3.005-12.02h-23.54v5.51h5.008v13.021h-7.513z" style="fill:#fab71c;fill-opacity:1;stroke:none"/><g mask="url(#b)" transform="translate(37.057 70.003)scale(.50086)"><circle r="43" fill="none" stroke="#fff" stroke-width="9"/><path id="c" stroke="#fff" stroke-linejoin="round" stroke-width="3" d="M46-3v6l5-3z" style="fill:#fff"/><use xlink:href="#c" style="fill:#f9f9f9;stroke:none" transform="rotate(11.25)"/><use xlink:href="#c" style="fill:#f9f9f9;stroke:none" transform="rotate(22.5)"/><use xlink:href="#c" style="fill:#f9f9f9;stroke:none" transform="rotate(33.75)"/><use xlink:href="#c" style="fill:#f9f9f9;stroke:none" transform="rotate(45)"/><use xlink:href="#c" style="fill:#f9f9f9;stroke:none" transform="rotate(56.25)"/><use xlink:href="#c" style="fill:#f9f9f9;stroke:none" transform="rotate(67.5)"/><use xlink:href="#c" style="fill:#f9f9f9;stroke:none" transform="rotate(78.75)"/><use xlink:href="#c" style="fill:#f9f9f9;stroke:none" transform="rotate(90)"/><use xlink:href="#c" style="fill:#f9f9f9;stroke:none" transform="rotate(101.25)"/><use xlink:href="#c" style="fill:#f9f9f9;stroke:none" transform="rotate(112.5)"/><use xlink:href="#c" style="fill:#f9f9f9;stroke:none" transform="rotate(123.75)"/><use xlink:href="#c" style="fill:#f9f9f9;stroke:none" transform="rotate(135)"/><use xlink:href="#c" style="fill:#f9f9f9;stroke:none" transform="rotate(146.25)"/><use xlink:href="#c" style="fill:#f9f9f9;stroke:none" transform="rotate(157.5)"/><use xlink:href="#c" style="fill:#f9f9f9;stroke:none" transform="rotate(168.75)"/><use xlink:href="#c" style="fill:#f9f9f9;stroke:none" transform="scale(-1)"/><use xlink:href="#c" style="fill:#f9f9f9;stroke:none" transform="rotate(-168.75)"/><use xlink:href="#c" style="fill:#f9f9f9;stroke:none" transform="rotate(-157.5)"/><use xlink:href="#c" style="fill:#f9f9f9;stroke:none" transform="rotate(-146.25)"/><use xlink:href="#c" style="fill:#f9f9f9;stroke:none" transform="rotate(-135)"/><use xlink:href="#c" style="fill:#f9f9f9;stroke:none" transform="rotate(-123.75)"/><use xlink:href="#c" style="fill:#f9f9f9;stroke:none" transform="rotate(-112.5)"/><use xlink:href="#c" style="fill:#f9f9f9;stroke:none" transform="rotate(-101.25)"/><use xlink:href="#c" style="fill:#f9f9f9;stroke:none" transform="rotate(-90)"/><use xlink:href="#c" style="fill:#f9f9f9;stroke:none" transform="rotate(-78.75)"/><use xlink:href="#c" style="fill:#f9f9f9;stroke:none" transform="rotate(-67.5)"/><use xlink:href="#c" style="fill:#f9f9f9;stroke:none" transform="rotate(-56.25)"/><use xlink:href="#c" style="fill:#f9f9f9;stroke:none" transform="rotate(-45)"/><use xlink:href="#c" style="fill:#f9f9f9;stroke:none" transform="rotate(-33.75)"/><use xlink:href="#c" style="fill:#f9f9f9;stroke:none" transform="rotate(-22.5)"/><use xlink:href="#c" style="fill:#f9f9f9;stroke:none" transform="rotate(-11.25)"/><path id="d" stroke="#fff" stroke-linejoin="round" stroke-width="6" d="M7-42H-7l7 7z" style="fill:#fff"/><use xlink:href="#d" style="fill:#f9f9f9;stroke:none" transform="rotate(72)"/><use xlink:href="#d" style="fill:#f9f9f9;stroke:none" transform="rotate(144)"/><use xlink:href="#d" style="fill:#f9f9f9;stroke:none" transform="rotate(-144)"/><use xlink:href="#d" style="fill:#f9f9f9;stroke:none" transform="rotate(-72)"/></g><g transform="translate(43.565 17.405)scale(.03303)"><circle cx="893.902" cy="919.31" r="400.289" fill="none" stroke="#fff" stroke-width="83.781"/><g transform="translate(-715.468 -406.302)"><path stroke="#fff" stroke-linejoin="round" stroke-width="3" d="m46 3 5-3-5-3z" mask="url(#e)" style="fill:#fff" transform="translate(1609.37 1325.612)scale(9.30905)"/><use xlink:href="#c" mask="url(#f)" style="fill:#f9f9f9;stroke:none" transform="rotate(11.25 -5924.889 8832.915)scale(9.30905)"/><use xlink:href="#c" mask="url(#g)" style="fill:#f9f9f9;stroke:none" transform="rotate(22.5 -2527.464 4708.231)scale(9.30905)"/><use xlink:href="#c" mask="url(#h)" style="fill:#f9f9f9;stroke:none" transform="rotate(33.75 -1380.293 3315.497)scale(9.30905)"/><use xlink:href="#c" mask="url(#i)" style="fill:#f9f9f9;stroke:none" transform="rotate(45 -795.47 2605.487)scale(9.30905)"/><use xlink:href="#c" mask="url(#j)" style="fill:#f9f9f9;stroke:none" transform="rotate(56.25 -435.338 2168.266)scale(9.30905)"/><use xlink:href="#c" mask="url(#k)" style="fill:#f9f9f9;stroke:none" transform="rotate(67.5 -187.274 1867.102)scale(9.30905)"/><use xlink:href="#c" mask="url(#l)" style="fill:#f9f9f9;stroke:none" transform="rotate(78.75 -2.947 1643.317)scale(9.30905)"/><use xlink:href="#c" mask="url(#m)" style="fill:#f9f9f9;stroke:none" transform="rotate(90 141.879 1467.491)scale(9.30905)"/><use xlink:href="#c" mask="url(#q)" style="fill:#f9f9f9;stroke:none" transform="rotate(101.25 260.734 1323.194)scale(9.30905)"/><use xlink:href="#c" mask="url(#r)" style="fill:#f9f9f9;stroke:none" transform="rotate(112.5 361.812 1200.48)scale(9.30905)"/><use xlink:href="#c" mask="url(#s)" style="fill:#f9f9f9;stroke:none" transform="rotate(123.75 450.408 1092.92)scale(9.30905)"/><use xlink:href="#c" mask="url(#t)" style="fill:#f9f9f9;stroke:none" transform="rotate(135 530.142 996.118)scale(9.30905)"/><use xlink:href="#c" mask="url(#u)" style="fill:#f9f9f9;stroke:none" transform="rotate(146.25 603.625 906.905)scale(9.30905)"/><use xlink:href="#c" mask="url(#v)" style="fill:#f9f9f9;stroke:none" transform="rotate(157.5 672.844 822.868)scale(9.30905)"/><use xlink:href="#c" mask="url(#w)" style="fill:#f9f9f9;stroke:none" transform="rotate(168.75 739.404 742.06)scale(9.30905)"/><use xlink:href="#c" mask="url(#x)" style="fill:#f9f9f9;stroke:none" transform="rotate(179.961 804.685 662.806)scale(9.30905)"/><use xlink:href="#c" mask="url(#y)" style="fill:#f9f9f9;stroke:none" transform="rotate(191.25 869.965 583.552)scale(9.30905)"/><use xlink:href="#c" mask="url(#z)" style="fill:#f9f9f9;stroke:none" transform="rotate(202.5 936.525 502.744)scale(9.30905)"/><use xlink:href="#c" mask="url(#A)" style="fill:#f9f9f9;stroke:none" transform="rotate(213.75 1005.745 418.708)scale(9.30905)"/><use xlink:href="#c" mask="url(#B)" style="fill:#f9f9f9;stroke:none" transform="rotate(225 1079.228 329.495)scale(9.30905)"/><use xlink:href="#c" mask="url(#C)" style="fill:#f9f9f9;stroke:none" transform="rotate(236.25 1158.962 232.693)scale(9.30905)"/><use xlink:href="#c" mask="url(#D)" style="fill:#f9f9f9;stroke:none" transform="rotate(247.5 1247.558 125.133)scale(9.30905)"/><use xlink:href="#c" mask="url(#E)" style="fill:#f9f9f9;stroke:none" transform="rotate(258.75 1348.636 2.419)scale(9.30905)"/><use xlink:href="#c" mask="url(#F)" style="fill:#f9f9f9;stroke:none" transform="rotate(-90 1467.491 -141.878)scale(9.30905)"/><use xlink:href="#c" mask="url(#G)" style="fill:#f9f9f9;stroke:none" transform="rotate(-78.75 1612.316 -317.705)scale(9.30905)"/><use xlink:href="#c" mask="url(#H)" style="fill:#f9f9f9;stroke:none" transform="rotate(-67.5 1796.644 -541.49)scale(9.30905)"/><use xlink:href="#c" mask="url(#I)" style="fill:#f9f9f9;stroke:none" transform="rotate(-56.25 2044.708 -842.653)scale(9.30905)"/><use xlink:href="#c" mask="url(#J)" style="fill:#f9f9f9;stroke:none" transform="rotate(-45 2404.84 -1279.874)scale(9.30905)"/><use xlink:href="#c" mask="url(#K)" style="fill:#f9f9f9;stroke:none" transform="rotate(-33.75 2989.665 -1989.883)scale(9.30905)"/><use xlink:href="#c" mask="url(#L)" style="fill:#f9f9f9;stroke:none" transform="rotate(-22.5 4136.838 -3382.615)scale(9.30905)"/><use xlink:href="#c" mask="url(#M)" style="fill:#f9f9f9;stroke:none" transform="rotate(-11.25 7534.278 -7507.287)scale(9.30905)"/></g></g><circle cx="46.85" cy="23.821" r="16.478" fill="none" stroke="#fff" stroke-width="3.449"/><g mask="url(#e)" transform="translate(46.85 23.821)scale(.38322)"><path d="m46 3 5-3-5-3Z" style="color:#fff;fill:#f9f9f9;stroke-linejoin:round;-inkscape-stroke:none;stroke:none"/><path d="M45.262-4.305A1.5 1.5 0 0 0 44.5-3v6a1.5 1.5 0 0 0 2.271 1.287l5-3a1.5 1.5 0 0 0 0-2.574l-5-3a1.5 1.5 0 0 0-1.51-.018M47.5-.35l.584.35-.584.35Z" style="color:#fff;fill:#f9f9f9;stroke-linejoin:round;-inkscape-stroke:none;stroke:none"/></g><use xlink:href="#c" mask="url(#f)" style="fill:#f9f9f9;stroke:none" transform="rotate(11.25 -97.506 249.75)scale(.38322)"/><use xlink:href="#c" mask="url(#g)" style="fill:#f9f9f9;stroke:none" transform="rotate(22.5 -36.454 129.677)scale(.38322)"/><use xlink:href="#c" mask="url(#h)" style="fill:#f9f9f9;stroke:none" transform="rotate(33.75 -15.839 89.133)scale(.38321)"/><use xlink:href="#c" mask="url(#i)" style="fill:#f9f9f9;stroke:none" transform="rotate(45 -5.33 68.464)scale(.38322)"/><use xlink:href="#c" mask="url(#j)" style="fill:#f9f9f9;stroke:none" transform="rotate(56.25 1.142 55.736)scale(.38322)"/><use xlink:href="#c" mask="url(#k)" style="fill:#f9f9f9;stroke:none" transform="rotate(67.5 5.6 46.969)scale(.38322)"/><use xlink:href="#c" mask="url(#l)" style="fill:#f9f9f9;stroke:none" transform="rotate(78.75 8.912 40.454)scale(.38322)"/><use xlink:href="#c" mask="url(#m)" style="fill:#f9f9f9;stroke:none" transform="rotate(90 11.514 35.336)scale(.38322)"/><use xlink:href="#c" mask="url(#q)" style="fill:#f9f9f9;stroke:none" transform="rotate(101.25 13.65 31.135)scale(.38322)"/><use xlink:href="#c" mask="url(#r)" style="fill:#f9f9f9;stroke:none" transform="rotate(112.5 15.467 27.563)scale(.38322)"/><use xlink:href="#c" mask="url(#s)" style="fill:#f9f9f9;stroke:none" transform="rotate(123.75 17.059 24.431)scale(.38321)"/><use xlink:href="#c" mask="url(#t)" style="fill:#f9f9f9;stroke:none" transform="rotate(135 18.492 21.614)scale(.38322)"/><use xlink:href="#c" mask="url(#u)" style="fill:#f9f9f9;stroke:none" transform="rotate(146.25 19.812 19.016)scale(.38321)"/><use xlink:href="#c" mask="url(#v)" style="fill:#f9f9f9;stroke:none" transform="rotate(157.5 21.056 16.57)scale(.38322)"/><use xlink:href="#c" mask="url(#w)" style="fill:#f9f9f9;stroke:none" transform="rotate(168.75 22.252 14.218)scale(.38321)"/><use xlink:href="#c" mask="url(#x)" style="fill:#f9f9f9;stroke:none" transform="translate(46.85 23.821)scale(-.38322)"/><use xlink:href="#c" mask="url(#y)" style="fill:#f9f9f9;stroke:none" transform="rotate(191.25 24.598 9.604)scale(.38322)"/><use xlink:href="#c" mask="url(#z)" style="fill:#f9f9f9;stroke:none" transform="rotate(202.5 25.794 7.251)scale(.38322)"/><use xlink:href="#c" mask="url(#A)" style="fill:#f9f9f9;stroke:none" transform="rotate(213.75 27.038 4.805)scale(.38321)"/><use xlink:href="#c" mask="url(#B)" style="fill:#f9f9f9;stroke:none" transform="rotate(225 28.359 2.208)scale(.38322)"/><use xlink:href="#c" mask="url(#C)" style="fill:#f9f9f9;stroke:none" transform="rotate(236.25 29.791 -.61)scale(.38321)"/><use xlink:href="#c" mask="url(#D)" style="fill:#f9f9f9;stroke:none" transform="rotate(247.5 31.384 -3.742)scale(.38322)"/><use xlink:href="#c" mask="url(#E)" style="fill:#f9f9f9;stroke:none" transform="rotate(258.75 33.2 -7.314)scale(.38321)"/><use xlink:href="#c" mask="url(#F)" style="fill:#f9f9f9;stroke:none" transform="rotate(-90 35.336 -11.515)scale(.38322)"/><use xlink:href="#c" mask="url(#G)" style="fill:#f9f9f9;stroke:#f9f9f9;stroke-opacity:1" transform="rotate(-78.75 37.938 -16.633)scale(.38322)"/><use xlink:href="#c" mask="url(#H)" style="fill:#f9f9f9;stroke:none" transform="rotate(-67.5 41.25 -23.147)scale(.38322)"/><use xlink:href="#c" mask="url(#I)" style="fill:#f9f9f9;stroke:none" transform="rotate(-56.25 45.708 -31.914)scale(.38321)"/><use xlink:href="#c" mask="url(#J)" style="fill:#f9f9f9;stroke:none" transform="rotate(-45 52.18 -44.642)scale(.38322)"/><use xlink:href="#c" mask="url(#K)" style="fill:#f9f9f9;stroke:none" transform="rotate(-33.75 62.689 -65.312)scale(.38321)"/><use xlink:href="#c" mask="url(#L)" style="fill:#f9f9f9;stroke:none" transform="rotate(-22.5 83.304 -105.855)scale(.38322)"/><use xlink:href="#c" mask="url(#M)" style="fill:#f9f9f9;stroke:none" transform="rotate(-11.25 144.356 -225.931)scale(.38321)"/><path d="M72.805 39.241c-.652.003-1.275.059-1.823.156-1.616.285-1.909.882-1.909 1.984v1.454h3.817v.485h-5.25c-1.11 0-2.08.667-2.384 1.935-.35 1.454-.366 2.361 0 3.88.27 1.129.919 1.934 2.028 1.934h1.312v-1.744c0-1.26 1.09-2.37 2.385-2.37h3.812c1.06 0 1.908-.874 1.908-1.94v-3.634c0-1.035-.873-1.812-1.908-1.984a12 12 0 0 0-1.989-.156m-2.064 1.17c.395 0 .716.327.716.73 0 .4-.321.725-.716.725a.72.72 0 0 1-.716-.725c0-.403.32-.73.716-.73" style="fill:#fab71c;fill-opacity:1;stroke-width:.142345;stroke:none"/><path d="M77.178 43.32v1.695c0 1.314-1.114 2.42-2.384 2.42h-3.812c-1.045 0-1.909.894-1.909 1.94v3.634c0 1.034.9 1.642 1.909 1.939 1.208.355 2.366.42 3.812 0 .96-.278 1.908-.838 1.908-1.94v-1.454H72.89v-.485h5.72c1.11 0 1.523-.774 1.909-1.935.398-1.195.381-2.345 0-3.879-.274-1.104-.798-1.935-1.909-1.935zm-2.144 9.204a.72.72 0 0 1 .716.725c0 .402-.32.73-.716.73a.724.724 0 0 1-.716-.73c0-.401.322-.725.716-.725" style="fill:#fff;fill-opacity:1;stroke-width:.142345;stroke:none"/><g style="fill:none"><path fill="#fff" fill-rule="evenodd" d="M316.939 407.424v50.061q12.207 6.258 28.875 9.386Q362.482 470 380.949 470q17.998 0 34.196-3.442 16.199-3.441 28.406-11.342 12.207-7.9 19.328-20.65T470 403.044q0-13.61-4.069-23.857t-11.738-18.225-18.389-14.315-24.18-11.967q-9.86-4.068-17.685-7.9-7.825-3.834-13.303-7.822-5.478-3.99-8.451-8.448t-2.974-10.091q0-5.162 2.661-9.308t7.512-7.118 11.894-4.615q7.043-1.642 15.651-1.642 6.26 0 13.224.938 6.964.94 14.008 2.894a97.5 97.5 0 0 1 13.694 4.928q6.651 2.973 12.285 6.884v-46.776q-11.424-4.38-24.962-6.492T404.112 238q-17.842 0-33.805 3.833T342.214 253.8q-12.129 8.136-19.171 20.729Q316 287.122 316 304.643q0 22.371 12.912 38.172 12.91 15.8 39.204 26.751 10.33 4.224 19.25 8.291t15.415 8.448 10.252 9.543q3.756 5.161 3.756 11.733 0 4.85-2.348 8.995t-7.121 7.196q-4.773 3.05-11.894 4.771t-16.668 1.721q-16.276 0-32.24-5.71-15.963-5.709-29.579-17.13M232.78 284.082H297V243H118v41.082h63.906V467h50.874z" clip-rule="evenodd" style="fill:#fab71c;fill-opacity:1" transform="translate(29.156 2.516)scale(.06018)"/></g></svg>