<?xml version="1.0" encoding="UTF-8" standalone="no"?>
<svg
   version="1.1"
   x="0px"
   y="0px"
   viewBox="0 0 100 100"
   enable-background="new 0 0 100 100"
   xml:space="preserve"
   id="svg8"
   sodipodi:docname="human.svg"
   width="100"
   height="100"
   inkscape:version="1.3 (0e150ed, 2023-07-21)"
   xmlns:inkscape="http://www.inkscape.org/namespaces/inkscape"
   xmlns:sodipodi="http://sodipodi.sourceforge.net/DTD/sodipodi-0.dtd"
   xmlns="http://www.w3.org/2000/svg"
   xmlns:svg="http://www.w3.org/2000/svg"><defs
     id="defs8" /><sodipodi:namedview
     id="namedview8"
     pagecolor="#333333"
     bordercolor="#666666"
     borderopacity="1.0"
     inkscape:showpageshadow="2"
     inkscape:pageopacity="0.0"
     inkscape:pagecheckerboard="0"
     inkscape:deskcolor="#d1d1d1"
     inkscape:zoom="6.29825"
     inkscape:cx="49.855118"
     inkscape:cy="62.239511"
     inkscape:window-width="1920"
     inkscape:window-height="1027"
     inkscape:window-x="0"
     inkscape:window-y="25"
     inkscape:window-maximized="1"
     inkscape:current-layer="svg8" /><path
     fill="#000000"
     d="m 92.1,52.4 c -1.7,-2.2 -4.7,-2.7 -7.9,-1.4 -0.8,0.3 -2,0.8 -3.4,1.4 L 86.6,36.5 C 87.1,35.1 87,33.6 86.4,32.3 85.8,31 84.7,30 83.3,29.5 c -1,-0.4 -2.1,-0.4 -3.1,-0.1 l 0.7,-2 c 0.5,-1.4 0.4,-2.9 -0.2,-4.2 -0.6,-1.3 -1.7,-2.3 -3.1,-2.8 -2.8,-1 -5.9,0.5 -6.9,3.2 -0.6,-0.8 -1.5,-1.5 -2.5,-1.9 -2.8,-1 -5.9,0.5 -7,3.3 l -1,2.8 C 59.6,27 58.7,26.3 57.7,26 c -2.8,-1 -5.9,0.5 -7,3.4 l -3.2,9 -1.5,-3.8 c -0.5,-1.4 -1.6,-2.5 -2.9,-3.1 -1.3,-0.6 -2.7,-0.6 -4,-0.1 -1,0.4 -1.8,1.1 -2.4,1.9 l -1.1,-2.7 c -0.5,-1.4 -1.6,-2.5 -2.9,-3.1 -1.3,-0.6 -2.7,-0.6 -4,-0.1 -1,0.4 -1.8,1.1 -2.4,1.9 -0.6,-1.3 -1.6,-2.3 -2.9,-2.9 -1.3,-0.6 -2.7,-0.6 -4,-0.1 -2.7,1.1 -4.1,4.3 -3,7.1 l 0.8,2 c -1,-0.2 -2,-0.2 -3,0.2 -2.7,1.1 -4.1,4.3 -3,7.1 l 7.1,18 -4.3,-2.6 c -1.2,-0.8 -2.6,-1.2 -3.9,-1 -1.4,0.2 -2.7,1 -3.5,2.2 -1.7,2.4 -1.1,5.8 1.2,7.6 0.9,0.9 12.5,10.1 16.7,13.1 3.1,2.2 6.9,3.4 10.7,3.4 2.5,0 5.1,-0.5 7.6,-1.5 3.9,-1.6 7.2,-4.3 9.4,-7.9 1.2,0.8 2.5,1.4 3.9,1.9 2.3,0.8 4.7,1.2 7.1,1.2 4.2,0 8.2,-1.3 11.6,-3.8 C 79,70.2 90.5,60.6 91.2,60 c 2.3,-1.8 2.7,-5.3 0.9,-7.6 z M 41.8,79.6 C 36.3,81.8 30.4,81.2 25.8,78 21.7,75 9.7,65.4 9.6,65.3 c 0,0 0,0 0,0 C 8.3,64.3 8,62.4 8.9,61 c 0.4,-0.6 1.1,-1.1 1.9,-1.2 0.8,-0.1 1.5,0.1 2.1,0.5 0,0 0.1,0 0.1,0.1 l 7.5,4.5 c 0.4,0.3 1,0.2 1.4,-0.1 0.4,-0.3 0.5,-0.9 0.3,-1.4 L 13.7,42 c -0.6,-1.6 0.1,-3.3 1.6,-3.9 0.6,-0.2 1.3,-0.2 2,0.1 0.7,0.3 1.3,0.9 1.7,1.6 l 4.5,11.6 c 0.2,0.5 0.7,0.8 1.1,0.8 0.1,0 0.3,0 0.4,-0.1 0.6,-0.2 0.9,-1 0.7,-1.6 L 21.3,39.3 c 0,0 0,-0.1 0,-0.1 0,-0.1 -0.1,-0.2 -0.1,-0.3 l -2.4,-6.2 c -0.6,-1.6 0.1,-3.3 1.6,-3.9 0.7,-0.3 1.5,-0.3 2.2,0 0.7,0.3 1.3,0.9 1.6,1.7 l 1.6,4.2 c 0,0 0,0 0,0 L 31,48.2 c 0.2,0.5 0.7,0.8 1.1,0.8 0.1,0 0.3,0 0.4,-0.1 0.6,-0.2 0.9,-1 0.7,-1.6 l -5,-13.1 c 0,0 0,0 0,0 l -0.1,-0.3 c -0.6,-1.6 0.1,-3.3 1.6,-3.9 0.7,-0.3 1.5,-0.3 2.2,0 0.7,0.3 1.3,0.9 1.6,1.7 l 2.7,6.8 c 0,0 0,0 0,0 0,0.1 0,0.1 0.1,0.2 l 3.6,9.5 c 0.2,0.6 1,0.9 1.6,0.7 0.6,-0.2 0.9,-1 0.7,-1.6 l -3.7,-9.5 c -0.6,-1.6 0.1,-3.3 1.6,-3.9 0.7,-0.3 1.5,-0.3 2.2,0 0.7,0.3 1.3,0.9 1.6,1.7 l 8,20.8 C 55.2,65.8 50.8,76 41.8,79.6 Z M 89.6,58.1 c 0,0 0,0 0,0 -0.1,0.1 -12.2,10.1 -16.3,13.2 -4.5,3.4 -10.7,4.2 -16.3,2.2 -1.2,-0.4 -2.4,-1 -3.5,-1.7 0.1,-0.2 0.2,-0.4 0.3,-0.7 2.1,-4.9 2.3,-10.4 0.5,-15.5 0,0 0,0 0,0 L 49,42 53.1,30.3 c 0.6,-1.6 2.3,-2.4 3.8,-1.9 0.7,0.3 1.3,0.8 1.7,1.5 0.3,0.7 0.4,1.6 0.1,2.3 l -3.6,10.2 c -0.2,0.6 0.1,1.3 0.7,1.6 0.1,0 0.3,0.1 0.4,0.1 0.5,0 1,-0.3 1.2,-0.8 L 61,33.1 c 0,-0.1 0,-0.1 0.1,-0.2 0,0 0,0 0,0 L 63.6,26 c 0.6,-1.6 2.3,-2.4 3.8,-1.9 0.7,0.3 1.3,0.8 1.7,1.5 0.3,0.7 0.4,1.6 0.1,2.4 v 0 l -0.1,0.3 c 0,0 0,0 0,0 l -5,14.5 c -0.2,0.6 0.1,1.3 0.8,1.6 0.1,0 0.3,0.1 0.4,0.1 0.5,0 1,-0.3 1.2,-0.8 l 5.2,-14.8 1.5,-4.2 c 0.6,-1.6 2.3,-2.4 3.8,-1.9 0.7,0.3 1.3,0.8 1.7,1.5 0.3,0.7 0.4,1.6 0.1,2.3 l -2.2,6 c -0.1,0.2 -0.1,0.3 -0.2,0.5 0,0.1 0,0.2 -0.1,0.2 l -4.5,12.4 c -0.2,0.6 0.1,1.3 0.7,1.6 0.1,0 0.3,0.1 0.4,0.1 0.5,0 1,-0.3 1.2,-0.8 l 4.7,-13 c 0.7,-1.4 2.4,-2.2 3.7,-1.7 0.7,0.3 1.3,0.8 1.7,1.5 0.3,0.7 0.4,1.6 0.1,2.3 l -6.6,17.9 c -1.1,0.4 -2.1,0.8 -2.6,1 -6.3,-2.4 -9.7,0.4 -12.5,2.6 -0.5,0.4 -0.6,1.2 -0.2,1.7 0.4,0.5 1.2,0.6 1.7,0.2 2.7,-2.2 5.2,-4.3 10.5,-2.1 0.3,0.1 0.6,0.1 0.9,0 0.3,-0.1 7.2,-2.8 9.6,-3.8 1.3,-0.5 3.7,-1.2 5,0.6 1.1,1.4 0.8,3.3 -0.5,4.3 z"
     id="path1"
     style="fill:#ffffff;fill-opacity:1" /><path
     fill="#000000"
     d="m 21.4,17.9 6.2,4 c 0.2,0.1 0.4,0.2 0.7,0.2 0.4,0 0.8,-0.2 1,-0.6 0.4,-0.6 0.2,-1.3 -0.4,-1.7 l -6.2,-4 c -0.6,-0.4 -1.3,-0.2 -1.7,0.4 -0.4,0.6 -0.2,1.3 0.4,1.7 z"
     id="path2"
     style="fill:#fab71c;fill-opacity:1" /><path
     fill="#000000"
     d="m 36,16.9 c 0.2,0.5 0.6,0.8 1.2,0.8 0.1,0 0.3,0 0.4,-0.1 0.6,-0.2 1,-0.9 0.8,-1.6 L 35,6.1 c -0.2,-0.6 -0.9,-1 -1.6,-0.8 -0.6,0.2 -1,0.9 -0.8,1.6 z"
     id="path3"
     style="fill:#fab71c;fill-opacity:1" /><path
     fill="#000000"
     d="m 46.8,16 c 0.1,0.1 0.3,0.1 0.4,0.1 0.5,0 1,-0.3 1.1,-0.8 L 50.8,8.4 C 51,7.8 50.7,7.1 50.1,6.8 49.5,6.6 48.8,6.9 48.5,7.5 L 46,14.4 c -0.2,0.7 0.2,1.4 0.8,1.6 z"
     id="path4"
     style="fill:#fab71c;fill-opacity:1" /><path
     fill="#000000"
     d="m 55.6,85 c -0.6,-0.2 -1.3,0.2 -1.5,0.8 l -2.1,7 c -0.2,0.6 0.2,1.3 0.8,1.5 0.1,0 0.2,0.1 0.4,0.1 0.5,0 1,-0.3 1.2,-0.9 l 2.1,-7 C 56.6,85.9 56.3,85.2 55.6,85 Z"
     id="path5"
     style="fill:#fab71c;fill-opacity:1" /><path
     fill="#000000"
     d="m 66,83.2 c -0.3,-0.6 -1,-0.9 -1.6,-0.7 -0.6,0.3 -0.9,1 -0.7,1.6 l 4,9.7 c 0.2,0.5 0.7,0.8 1.1,0.8 0.2,0 0.3,0 0.5,-0.1 0.6,-0.3 0.9,-1 0.7,-1.6 z"
     id="path6"
     style="fill:#fab71c;fill-opacity:1" /><path
     fill="#000000"
     d="m 80.6,80.8 -6.4,-3.6 c -0.6,-0.3 -1.3,-0.1 -1.7,0.5 -0.3,0.6 -0.1,1.3 0.5,1.7 l 6.4,3.6 c 0.2,0.1 0.4,0.2 0.6,0.2 0.4,0 0.8,-0.2 1.1,-0.6 0.3,-0.7 0.1,-1.4 -0.5,-1.8 z"
     id="path7"
     style="fill:#fab71c;fill-opacity:1" /></svg>
