<svg xmlns="http://www.w3.org/2000/svg" xml:space="preserve" width="100" height="100"><path d="M92.1 52.4c-1.7-2.2-4.7-2.7-7.9-1.4-.8.3-2 .8-3.4 1.4l5.8-15.9c.5-1.4.4-2.9-.2-4.2s-1.7-2.3-3.1-2.8c-1-.4-2.1-.4-3.1-.1l.7-2c.5-1.4.4-2.9-.2-4.2s-1.7-2.3-3.1-2.8c-2.8-1-5.9.5-6.9 3.2-.6-.8-1.5-1.5-2.5-1.9-2.8-1-5.9.5-7 3.3l-1 2.8c-.6-.8-1.5-1.5-2.5-1.8-2.8-1-5.9.5-7 3.4l-3.2 9-1.5-3.8c-.5-1.4-1.6-2.5-2.9-3.1s-2.7-.6-4-.1c-1 .4-1.8 1.1-2.4 1.9l-1.1-2.7c-.5-1.4-1.6-2.5-2.9-3.1s-2.7-.6-4-.1c-1 .4-1.8 1.1-2.4 1.9-.6-1.3-1.6-2.3-2.9-2.9s-2.7-.6-4-.1c-2.7 1.1-4.1 4.3-3 7.1l.8 2c-1-.2-2-.2-3 .2-2.7 1.1-4.1 4.3-3 7.1l7.1 18-4.3-2.6c-1.2-.8-2.6-1.2-3.9-1-1.4.2-2.7 1-3.5 2.2-1.7 2.4-1.1 5.8 1.2 7.6.9.9 12.5 10.1 16.7 13.1 3.1 2.2 6.9 3.4 10.7 3.4 2.5 0 5.1-.5 7.6-1.5 3.9-1.6 7.2-4.3 9.4-7.9 1.2.8 2.5 1.4 3.9 1.9 2.3.8 4.7 1.2 7.1 1.2 4.2 0 8.2-1.3 11.6-3.8C79 70.2 90.5 60.6 91.2 60c2.3-1.8 2.7-5.3.9-7.6M41.8 79.6c-5.5 2.2-11.4 1.6-16-1.6-4.1-3-16.1-12.6-16.2-12.7-1.3-1-1.6-2.9-.7-4.3.4-.6 1.1-1.1 1.9-1.2s1.5.1 2.1.5c0 0 .1 0 .1.1l7.5 4.5c.4.3 1 .2 1.4-.1s.5-.9.3-1.4L13.7 42c-.6-1.6.1-3.3 1.6-3.9.6-.2 1.3-.2 2 .1s1.3.9 1.7 1.6l4.5 11.6c.2.5.7.8 1.1.8.1 0 .3 0 .4-.1.6-.2.9-1 .7-1.6l-4.4-11.2v-.1c0-.1-.1-.2-.1-.3l-2.4-6.2c-.6-1.6.1-3.3 1.6-3.9.7-.3 1.5-.3 2.2 0s1.3.9 1.6 1.7l1.6 4.2L31 48.2c.2.5.7.8 1.1.8.1 0 .3 0 .4-.1.6-.2.9-1 .7-1.6l-5-13.1-.1-.3c-.6-1.6.1-3.3 1.6-3.9.7-.3 1.5-.3 2.2 0s1.3.9 1.6 1.7l2.7 6.8c0 .1 0 .1.1.2l3.6 9.5c.2.6 1 .9 1.6.7s.9-1 .7-1.6l-3.7-9.5c-.6-1.6.1-3.3 1.6-3.9.7-.3 1.5-.3 2.2 0s1.3.9 1.6 1.7l8 20.8c3.3 9.4-1.1 19.6-10.1 23.2m47.8-21.5c-.1.1-12.2 10.1-16.3 13.2-4.5 3.4-10.7 4.2-16.3 2.2-1.2-.4-2.4-1-3.5-1.7.1-.2.2-.4.3-.7 2.1-4.9 2.3-10.4.5-15.5L49 42l4.1-11.7c.6-1.6 2.3-2.4 3.8-1.9.7.3 1.3.8 1.7 1.5.3.7.4 1.6.1 2.3l-3.6 10.2c-.2.6.1 1.3.7 1.6.1 0 .3.1.4.1.5 0 1-.3 1.2-.8L61 33.1c0-.1 0-.1.1-.2l2.5-6.9c.6-1.6 2.3-2.4 3.8-1.9.7.3 1.3.8 1.7 1.5.3.7.4 1.6.1 2.4l-.1.3-5 14.5c-.2.6.1 1.3.8 1.6.1 0 .3.1.4.1.5 0 1-.3 1.2-.8l5.2-14.8 1.5-4.2c.6-1.6 2.3-2.4 3.8-1.9.7.3 1.3.8 1.7 1.5.3.7.4 1.6.1 2.3l-2.2 6c-.1.2-.1.3-.2.5 0 .1 0 .2-.1.2l-4.5 12.4c-.2.6.1 1.3.7 1.6.1 0 .3.1.4.1.5 0 1-.3 1.2-.8l4.7-13c.7-1.4 2.4-2.2 3.7-1.7.7.3 1.3.8 1.7 1.5.3.7.4 1.6.1 2.3l-6.6 17.9c-1.1.4-2.1.8-2.6 1-6.3-2.4-9.7.4-12.5 2.6-.5.4-.6 1.2-.2 1.7s1.2.6 1.7.2c2.7-2.2 5.2-4.3 10.5-2.1q.45.15.9 0c.3-.1 7.2-2.8 9.6-3.8 1.3-.5 3.7-1.2 5 .6 1.1 1.4.8 3.3-.5 4.3" style="fill:#fff;fill-opacity:1"/><path d="m21.4 17.9 6.2 4c.2.1.4.2.7.2.4 0 .8-.2 1-.6.4-.6.2-1.3-.4-1.7l-6.2-4c-.6-.4-1.3-.2-1.7.4s-.2 1.3.4 1.7m14.6-1c.2.5.6.8 1.2.8.1 0 .3 0 .4-.1.6-.2 1-.9.8-1.6L35 6.1c-.2-.6-.9-1-1.6-.8-.6.2-1 .9-.8 1.6zm10.8-.9c.1.1.3.1.4.1.5 0 1-.3 1.1-.8l2.5-6.9c.2-.6-.1-1.3-.7-1.6-.6-.2-1.3.1-1.6.7L46 14.4c-.2.7.2 1.4.8 1.6m8.8 69c-.6-.2-1.3.2-1.5.8l-2.1 7c-.2.6.2 1.3.8 1.5.1 0 .2.1.4.1.5 0 1-.3 1.2-.9l2.1-7c.1-.6-.2-1.3-.9-1.5M66 83.2c-.3-.6-1-.9-1.6-.7-.6.3-.9 1-.7 1.6l4 9.7c.2.5.7.8 1.1.8.2 0 .3 0 .5-.1.6-.3.9-1 .7-1.6zm14.6-2.4-6.4-3.6c-.6-.3-1.3-.1-1.7.5-.3.6-.1 1.3.5 1.7l6.4 3.6c.2.1.4.2.6.2.4 0 .8-.2 1.1-.6.3-.7.1-1.4-.5-1.8" style="fill:#fab71c;fill-opacity:1"/></svg>