<svg xmlns="http://www.w3.org/2000/svg" xml:space="preserve" width="100" height="100" viewBox="0 0 26.458 26.458"><path d="M6.226 8.377c0 .393-.205 1.035-.69 1.035s-.69-.642-.69-1.035.205-1.036.69-1.036.69.643.69 1.036m5.522-.95c0 .6-.06 1.235-.329 1.786-.712 1.44-2.67 1.406-4.072 1.406-1.424 0-3.498.05-4.239-1.406-.274-.545-.38-1.186-.38-1.785 0-.787.262-1.532.78-2.135a3 3 0 0 1-.144-.917c0-.404.092-.607.274-.973.851 0 1.396.169 2.044.676a7.2 7.2 0 0 1 1.667-.188c.508 0 1.019.055 1.511.173.639-.501 1.184-.661 2.026-.661.184.366.274.57.274.973 0 .308-.049.615-.145.906.517.609.733 1.359.733 2.146m-1.208.95c0-.825-.502-1.552-1.381-1.552-.355 0-.695.064-1.052.112-.28.044-.56.06-.848.06a5.4 5.4 0 0 1-.847-.06c-.352-.048-.696-.112-1.053-.112-.88 0-1.38.727-1.38 1.552 0 1.65 1.51 1.903 2.825 1.903h.906c1.321 0 2.83-.251 2.83-1.903M8.988 7.34c-.485 0-.69.643-.69 1.036s.205 1.035.69 1.035.69-.642.69-1.035-.205-1.036-.69-1.036" style="stroke-width:.0187908;fill:#fff;fill-opacity:1;stroke:none;stroke-opacity:1"/><path d="M17.052 11.208a.34.34 0 0 0-.326.236l-.865 2.661q0 .003-.003.007l-.438 1.346a.49.49 0 0 0 .178.55l3.786 2.75a.19.19 0 0 0 .229-.001l3.787-2.75a.49.49 0 0 0 .178-.55l-.43-1.322-.011-.035-.864-2.659a.34.34 0 0 0-.327-.234.34.34 0 0 0-.325.236l-.822 2.533H18.2l-.824-2.533a.34.34 0 0 0-.323-.236zm-.002.485.743 2.283H16.31zm4.899 0 .741 2.283h-1.485zm-3.623 2.67h2.347l-.735 2.263-.44 1.348zm-1.885.002h1.477l1.056 3.249zm4.639 0h1.48l-2.293 2.937-.242.312 1.011-3.114zm-4.967.213 2.386 3.06-2.673-1.943a.104.104 0 0 1-.038-.117zm6.77 0 .326 1a.1.1 0 0 1-.038.116l-2.673 1.943.009-.012z" style="stroke-width:.341928;fill:#fff;fill-opacity:1"/><g style="fill:#fff"><path d="M9.495 21.555q-.939.622-2.13.622-1.188 0-2.124-.622l-.076.038-.025.067q.135.823.239 1.226a1 1 0 0 0 .218.258q.135.111.306.182a3 3 0 0 0 .663.189q.433.07.846.078.413.006.848-.093.434-.099.795-.3a.65.65 0 0 0 .243-.237.9.9 0 0 0 .12-.293q.027-.141.058-.353.032-.211.065-.321 0-.038.034-.155a.44.44 0 0 0 .02-.19q-.011-.07-.1-.096"/><path d="M4.605 19.01a171 171 0 0 0 .228 1.308q.009.038.024.146.015.11.025.166t.037.143a.5.5 0 0 0 .179.258q.613.47 1.653.583 1.502.16 2.56-.37.138-.07.228-.13a1 1 0 0 0 .183-.167.5.5 0 0 0 .113-.235q.357-2.047.466-2.748a1 1 0 0 0 .023-.227.34.34 0 0 0-.07-.214q-.251-.319-.901-.512-1.247-.364-2.837-.21-.79.075-1.313.269-.126.046-.202.078-.075.03-.193.094a.75.75 0 0 0-.321.283.5.5 0 0 0-.073.204q.038.302.092.662.055.362.099.62m3.485 1.622a.9.9 0 0 1-1.332.117.9.9 0 0 1-.326-.65.93.93 0 0 1 .145-.543.93.93 0 0 1 .422-.371q.412-.185.826.054.415.24.474.688a.92.92 0 0 1-.21.705m-2.447-3.16a1 1 0 0 1 .231-.091q.096-.021.277-.05a7 7 0 0 1 2.375-.01q.205.034.298.053.091.02.243.093.151.073.235.186a.9.9 0 0 1-.315.195q-.193.075-.304.09-.112.018-.375.051a7.4 7.4 0 0 1-1.88-.004 9 9 0 0 1-.367-.049 1.7 1.7 0 0 1-.309-.092 1 1 0 0 1-.319-.19.6.6 0 0 1 .21-.181"/><path d="M7.718 19.732a.46.46 0 0 0-.572-.098.4.4 0 0 0-.219.243.5.5 0 0 0 .002.344q.06.172.225.244.222.134.468-.026.245-.159.212-.423 0-.16-.116-.284"/></g><path d="M7.368 11.164v4.848m4.029 4.36 4.125-2.546m-4.532-7.367 4.125 2.545" style="fill:#fab71c;stroke:#fab71c;stroke-width:.289528;stroke-linecap:round;stroke-linejoin:round;stroke-dasharray:.289528,.868583;stroke-dashoffset:0;stroke-opacity:1;fill-opacity:1"/></svg>