<?xml version="1.0" encoding="UTF-8" standalone="no"?><svg xmlns="http://www.w3.org/2000/svg" viewBox="0 0 26.458 26.458"><g transform="translate(0 -8.362)"><path fill="#fff" d="M11.565 29.127q-.783 0-1.189-.435-.396-.435-.396-1.247v-.55h1.005v.599q0 .667.551.667.27 0 .406-.165.145-.174.145-.6v-.55q0-.464-.164-.657-.165-.203-.532-.203h-.358v-.967h.387q.32 0 .474-.165.164-.164.164-.55v-.494q0-.348-.145-.512-.145-.164-.387-.164-.512 0-.512.628v.445H10.01v-.358q0-.812.396-1.247.406-.435 1.16-.435.764 0 1.16.435.397.425.397 1.237v.242q0 .551-.184.89-.184.328-.57.473v.02q.415.154.599.502t.184.89v.599q0 .812-.406 1.247-.397.425-1.18.425zm3.896 0q-.783 0-1.199-.444-.415-.445-.415-1.257v-3.558q0-.812.415-1.256.416-.445 1.199-.445.783 0 1.199.445.415.444.415 1.256v3.558q0 .812-.415 1.257-.416.444-1.199.444zm0-.966q.551 0 .551-.667V23.8q0-.667-.551-.667t-.551.667v3.693q0 .667.551.667zm2.33-5.897h1.063v2.851l1.353-2.851h1.064l-1.267 2.484 1.286 4.283h-1.112l-.899-3.016-.425.86v2.156h-1.063zm5.162 3.76h-1.295v-.754h1.295v-1.305h.754v1.305h1.295v.754h-1.295v1.325h-.754z" aria-label="30K+" font-family="Bebas Neue" font-size="9.667" style="line-height:1.25;-inkscape-font-specification:&quot;Bebas Neue, Normal&quot;"/><rect width="23.546" height="7.304" x="1.456" y="12.914" fill="#fab71c" paint-order="stroke fill markers" rx=".419" ry=".507"/><path d="M7.25 18.796q-.555 0-.845-.311-.291-.319-.291-.907V15.03q0-.588.29-.9.291-.318.845-.318t.845.318q.29.312.29.9v.415h-.72v-.463q0-.478-.394-.478-.395 0-.395.478v2.651q0 .47.395.47t.395-.47v-.948h-.381v-.693h1.1v1.586q0 .588-.29.907-.29.311-.845.311zm1.626-4.915h.762v4.846h-.762Zm1.925.692h-.796v-.692h2.353v.692h-.796v4.154h-.761zm1.924-.692h.762v1.973h.817V13.88h.761v4.846h-.761v-2.18h-.817v2.18h-.762zm4.016 4.915q-.554 0-.845-.311-.29-.319-.29-.907V13.88h.76v3.752q0 .25.098.36.104.11.29.11.187 0 .284-.11.104-.11.104-.36v-3.752h.734v3.697q0 .588-.29.907-.292.311-.845.311zm1.675-4.915h1.15q.588 0 .858.277.27.27.27.837v.194q0 .374-.125.61-.118.235-.367.339v.014q.568.193.568 1.01v.416q0 .56-.298.858-.29.29-.858.29h-1.198zm1.06 1.973q.228 0 .338-.118.118-.118.118-.394v-.27q0-.264-.097-.381-.09-.118-.29-.118h-.367v1.28zm.138 2.18q.2 0 .297-.103.097-.111.097-.374v-.422q0-.333-.117-.457-.111-.132-.374-.132h-.34v1.489z" aria-label="GITHUB" font-family="Bebas Neue" font-size="6.923" style="line-height:1.25;-inkscape-font-specification:&quot;Bebas Neue, Normal&quot;" transform="scale(.98418 1.01608)"/><path fill="#fab71c" d="m9.106 24.807-1.98 1.823.482 2.681-2.34-1.328-2.388 1.289.534-2.645-1.958-1.884 2.669-.307 1.179-2.453 1.115 2.455z" paint-order="stroke fill markers"/></g></svg>