<svg xmlns="http://www.w3.org/2000/svg" xml:space="preserve" fill-rule="evenodd" stroke-linejoin="round" stroke-miterlimit="1.414" clip-rule="evenodd" viewBox="0 0 100 100"><defs><mask id="a" maskUnits="userSpaceOnUse"><path fill="#fff" d="M31.52 18.742h68.27v44.785H31.52Z"/><path stroke-linecap="square" stroke-linejoin="miter" stroke-miterlimit="1000" stroke-width=".209" d="M4.685 57.781C3.018 59.03 1.34 60.586.967 62.737c-.486 2.4 1.025 4.703 2.929 6.03.653.56 1.513.881 2.148 1.416.521.824 1.232 1.512 1.994 2.114-1.232 1.07-1.041 3.029-.033 4.187 2.216 2.56 4.793 4.783 7.105 7.25.657.73 1.339 1.604 2.401 1.656.532-.005 1.45.692 1.51-.168.216-.765.715-1.5.522-2.32.592.183 1.41.668 1.106-.336-.056-1.377.054-2.811-.606-4.074.166-.169 1.032.239 1.467.277 5.791 1.288 11.797 1.555 17.697 1.004 2.791-.288 5.562-.836 8.22-1.74-.525 1.16-.785 2.415-.699 3.688.061.503-.158 1.398.065 1.674.593-.188 1.31-.533 1.828-.626-.267 1.2.617 2.15 1.096 3.164.92-.484 2.127-.596 2.695-1.559 1.902-3.034 4.172-5.826 6.03-8.89.782-1.278.7-3.202-.654-4.058-.764-.253.107-.695.285-1.078.532-.806 1.53-1.117 2.208-1.794 2.143-1.7 3.832-4.29 3.662-7.116l8.566-12.233q-3.193-2.23-6.384-4.463c-2.561 3.646-5.105 7.29-7.664 10.938-2.527 1.114-5.262 2.515-6.437 5.175-.395-.193-1.194.142-.86-.534.329-1.735-1.401-3.425-3.13-3.027-.427.066-.071-.876-.386-1.205-.484-1.439-2.33-2.166-3.665-1.436-.108-1.685-2.003-2.897-3.575-2.267-.443.221-.789.612-.912-.08-.768-1.593-3.18-1.876-4.302-.507-.256-.244-.601-.774-1.028-.99-1.24-.726-2.98-.251-3.649 1.03-1.042-1.308-3.25-1.191-4.179.189-.262.349-.28 1.043-.765.511-1.521-.9-3.664.218-3.859 1.962-.199.25-.928-.295-1.377-.135-1.48.07-2.667 1.514-2.484 2.98-1.697-.545-3.575 1.02-3.36 2.783.236.639-.057.695-.656.675-.498-.057-1.066.776-1.346.463-1.285-2.426-3.867-3.657-6.234-4.783L4.36 55.54z" paint-order="fill markers stroke"/></mask></defs><g mask="url(#a)"><path fill="#606060" d="m81.55 40.74-1.352-.839a19 19 0 0 0-.038-.393l1.162-1.085a.463.463 0 0 0-.154-.777l-1.487-.556a17 17 0 0 0-.115-.384l.926-1.288a.465.465 0 0 0-.302-.732l-1.568-.255a12 12 0 0 0-.189-.353l.66-1.445a.463.463 0 0 0-.441-.659l-1.59.056a13 13 0 0 0-.252-.305l.365-1.55a.464.464 0 0 0-.56-.56l-1.549.365q-.15-.127-.305-.252l.055-1.59a.463.463 0 0 0-.658-.44l-1.446.66a17 17 0 0 0-.352-.19l-.255-1.568a.465.465 0 0 0-.732-.303l-1.289.927a14 14 0 0 0-.383-.116l-.556-1.487a.464.464 0 0 0-.776-.155l-1.085 1.165q-.196-.022-.394-.039l-.838-1.353a.465.465 0 0 0-.792 0l-.838 1.353q-.196.017-.394.039l-1.084-1.164a.467.467 0 0 0-.777.154l-.556 1.487q-.194.056-.383.117l-1.29-.928a.463.463 0 0 0-.731.302l-.256 1.569a15 15 0 0 0-.353.19l-1.444-.66a.463.463 0 0 0-.659.44l.055 1.591a18 18 0 0 0-.305.252l-1.549-.366a.467.467 0 0 0-.561.56l.366 1.55q-.129.151-.252.305l-1.59-.056a.465.465 0 0 0-.44.659l.658 1.446q-.096.174-.188.353l-1.568.254a.465.465 0 0 0-.303.732l.927 1.288q-.06.19-.116.383l-1.487.557a.465.465 0 0 0-.154.777l1.164 1.085q-.024.195-.04.393l-1.353.838a.465.465 0 0 0 0 .792l1.353.837q.016.198.04.395l-1.164 1.085a.465.465 0 0 0 .154.776l1.487.557q.056.192.117.382l-.928 1.29a.465.465 0 0 0 .303.73l1.568.256q.09.178.189.352l-.66 1.446a.465.465 0 0 0 .44.658l1.59-.055q.124.155.253.305l-.366 1.55a.463.463 0 0 0 .561.56l1.55-.365q.15.127.304.25l-.055 1.592a.464.464 0 0 0 .659.44l1.445-.66q.174.097.353.19l.255 1.566a.464.464 0 0 0 .732.304l1.288-.928q.19.06.383.117l.556 1.486a.463.463 0 0 0 .777.154l1.085-1.163q.196.022.394.04l.838 1.353a.466.466 0 0 0 .792 0l.837-1.354q.198-.016.395-.039l1.085 1.163a.463.463 0 0 0 .775-.154l.557-1.486q.192-.056.383-.117l1.29.928a.466.466 0 0 0 .73-.304l.257-1.567q.175-.092.351-.188l1.446.658a.464.464 0 0 0 .658-.44l-.055-1.591q.154-.122.305-.25l1.55.364a.463.463 0 0 0 .56-.559l-.365-1.55q.126-.15.25-.305l1.592.055a.463.463 0 0 0 .44-.658l-.66-1.446q.097-.174.189-.352l1.567-.255a.463.463 0 0 0 .303-.731l-.926-1.29a18 18 0 0 0 .115-.383l1.487-.556a.463.463 0 0 0 .154-.776l-1.163-1.085.04-.395 1.352-.837a.465.465 0 0 0 0-.792zm-9.055 11.224a.959.959 0 0 1 .401-1.874.959.959 0 0 1-.402 1.874zm-.46-3.109a.87.87 0 0 0-1.036.67l-.48 2.243a11.7 11.7 0 0 1-4.864 1.048c-1.773 0-3.455-.393-4.965-1.095l-.48-2.241a.87.87 0 0 0-1.036-.672l-1.979.425a12 12 0 0 1-1.023-1.206h9.63c.109 0 .182-.02.182-.119v-3.406c0-.1-.073-.12-.182-.12h-2.816v-2.16h3.046c.278 0 1.487.08 1.873 1.625.121.474.387 2.02.569 2.515.18.555.918 1.664 1.704 1.664h4.798a1 1 0 0 0 .175-.017q-.5.679-1.091 1.28zm-13.32 3.062a.959.959 0 0 1-.402-1.874.959.959 0 0 1 .401 1.875zm-3.653-14.814a.957.957 0 1 1-1.75.777.957.957 0 1 1 1.75-.777m-1.123 2.662L56 38.85a.874.874 0 0 0 .443-1.153l-.424-.96h1.67v7.528h-3.37a11.8 11.8 0 0 1-.382-4.499zm9.048-.73v-2.22h3.977c.205 0 1.45.238 1.45 1.169 0 .772-.955 1.05-1.74 1.05zm14.453 1.997q0 .44-.033.874h-1.209c-.12 0-.169.08-.169.198v.555c0 1.308-.737 1.592-1.383 1.664-.614.069-1.297-.258-1.38-.634-.363-2.04-.968-2.476-1.923-3.23 1.185-.751 2.418-1.861 2.418-3.347 0-1.604-1.1-2.615-1.85-3.11-1.051-.693-2.216-.832-2.53-.832H56.877a11.77 11.77 0 0 1 6.592-3.721l1.474 1.546a.87.87 0 0 0 1.234.028l1.65-1.577a11.8 11.8 0 0 1 8.067 5.745l-1.129 2.55a.875.875 0 0 0 .443 1.154l2.175.965q.056.579.056 1.172zM64.944 28.134a.957.957 0 0 1 1.354.03.96.96 0 0 1-.032 1.356.956.956 0 0 1-1.353-.032.96.96 0 0 1 .031-1.354m11.204 9.016a.957.957 0 1 1 1.75.777.957.957 0 1 1-1.75-.777"/><path fill="none" stroke="#606060" stroke-linecap="square" stroke-width="1.558" d="M35.396 20.52h60.518c1.162 0 2.097.936 2.097 2.098V59.65a2.09 2.09 0 0 1-2.097 2.097H35.396A2.09 2.09 0 0 1 33.3 59.65V22.618c0-1.162.936-2.097 2.097-2.097z" paint-order="markers stroke fill"/></g><path fill="#fff" d="m56.306 62.685 9.077-12.963 3.106 2.175-9.077 12.963zm9.454-13.501 1.246-1.78 3.106 2.175-1.246 1.78z" paint-order="fill markers stroke"/><path fill="#a52b00" fill-rule="nonzero" d="m53.537 72.985-.609-1.262a2 2 0 0 0 .006-.144c0-1.43-1.487-2.748-3.99-3.803v.877a18 18 0 0 0-.762-.282v-.41c-3.576-1.289-8.9-2.107-14.845-2.107-5.196 0-9.916.625-13.41 1.643v1.425-1.725c-3.58 1.137-5.8 2.718-5.8 4.466q0 .413.162.813l-.365.649s-.292.379.223 1.178c.453.706 2.726 3.466 3.926 4.911.516.741.865 1.198.896 1.154.048-.07-.32-1.462-1.344-3.049-.478-.852-1.048-1.982-1.39-2.816.955.605 6.57 3.432 18.023 3.42 11.705-.011 16.908-3.675 17.479-4.174-.2.802-.882 2.424-1.425 3.564-.894 1.631-1.217 3.051-1.176 3.122.027.044.331-.426.781-1.188 1.046-1.49 3.028-4.336 3.424-5.06.449-.822.196-1.202.196-1.202" paint-order="markers stroke fill"/><path fill="#f74c00" fill-rule="nonzero" d="m57.074 72.978-4.004-2.949-.114-.393 1.315-1.904a.71.71 0 0 0 .074-.667.67.67 0 0 0-.504-.416l-2.223-.377a20 20 0 0 0-.267-.52l.934-2.14a.71.71 0 0 0-.051-.668.65.65 0 0 0-.572-.306l-2.257.082a19 19 0 0 0-.356-.45l.518-2.293a.71.71 0 0 0-.176-.645.64.64 0 0 0-.618-.184l-2.198.54q-.214-.19-.433-.371l.079-2.354a.7.7 0 0 0-.293-.596.64.64 0 0 0-.641-.055l-2.05.975a23 23 0 0 0-.5-.28l-.362-2.318a.69.69 0 0 0-.4-.526.64.64 0 0 0-.637.078l-1.828 1.371q-.27-.09-.544-.171l-.788-2.2a.67.67 0 0 0-.49-.435.65.65 0 0 0-.612.206l-1.538 1.722a17 17 0 0 0-.56-.057l-1.187-2.002a.66.66 0 0 0-.562-.326.65.65 0 0 0-.561.326l-1.189 2.002a20 20 0 0 0-.56.057l-1.538-1.722a.647.647 0 0 0-1.101.23l-.789 2.199a22 22 0 0 0-.544.171l-1.827-1.371a.64.64 0 0 0-.64-.078.69.69 0 0 0-.398.526l-.363 2.319q-.251.136-.5.28l-2.05-.976a.64.64 0 0 0-.64.055.7.7 0 0 0-.293.596l.078 2.354q-.219.182-.433.371l-2.197-.54a.65.65 0 0 0-.62.184.71.71 0 0 0-.175.645l.517 2.292q-.18.223-.355.451l-2.257-.082a.66.66 0 0 0-.572.306.71.71 0 0 0-.052.668l.935 2.14q-.136.255-.268.52l-2.223.377a.67.67 0 0 0-.504.416.72.72 0 0 0 .074.667l1.315 1.904-.03.102-3.718 3.95s-.57.446.26 1.496c.732.925 4.488 4.596 6.472 6.518.838.977 1.412 1.581 1.472 1.529.094-.083-.403-1.86-2.053-3.943-1.272-1.87-2.923-4.745-2.536-5.077 0 0 .44-.559 1.324-.961.032.026-.033-.026 0 0 0 0 18.647 8.602 35.944.145 1.976-.354 3.172.705 3.172.705.413.239-.655 3.195-1.534 5.153-1.195 2.222-1.37 3.956-1.268 4.016.064.039.498-.623 1.118-1.675 1.53-2.132 4.422-6.196 4.952-7.183.6-1.12 0-1.433 0-1.433" paint-order="markers stroke fill"/><path fill="#f74c00" fill-rule="nonzero" d="M48.92 71.874s2.684-.124 6.208-3.706l.5-1.11s-5.47-5.44 3.033-9.196c0 0-.745 1.216-.527 5.916 0 0 2.564-.89 3.316-5.042 0 0 3.74 4.93-4.062 9.555 0 0-3.66 5.867-8.819 5.305z" paint-order="markers stroke fill"/><path fill-rule="nonzero" d="M36.767 68.495s1.863-2.04 3.727 0c0 0 1.464 2.72 0 4.081 0 0-2.396 1.905-3.727 0 0 0-1.598-1.496 0-4.081" paint-order="markers stroke fill"/><path fill="#fff" fill-rule="nonzero" d="M38.924 69.252c0 .794-.468 1.439-1.046 1.439-.577 0-1.046-.645-1.046-1.439 0-.795.469-1.439 1.046-1.439s1.046.644 1.046 1.439" paint-order="markers stroke fill"/><path fill-rule="nonzero" d="M28.45 67.938s3.196-1.415 4.068 1.744c0 0 .914 3.682-2.625 3.89 0 0-4.512-.87-1.444-5.634" paint-order="markers stroke fill"/><path fill="#fff" fill-rule="nonzero" d="M30.055 69.304c0 .82-.483 1.484-1.079 1.484-.595 0-1.079-.665-1.079-1.484 0-.82.484-1.484 1.08-1.484.595 0 1.078.665 1.078 1.484" paint-order="markers stroke fill"/><path fill-rule="nonzero" d="m32.545 74.859 4.076-.327s-.138.656-.67 1.148c0 0-1.402 1.538-3.01-.127 0 0-.264-.284-.396-.694" paint-order="markers stroke fill"/><path fill="#f74c00" fill-rule="nonzero" d="M16.222 71.086q-.05 0-.1.005c-1.323-.301-5.043-1.27-6.027-2.844 0 0 5.006-5.695-2.818-9.335l.91 6.3s-2.41-1.61-2.931-5.112c0 0-5.874 4.263 2.593 8.348 0 0 .768 2.886 8.14 5.188l.006-.022q.111.02.228.022c.697 0 1.262-.571 1.262-1.275s-.565-1.275-1.262-1.275" paint-order="markers stroke fill"/></svg>