<svg xmlns="http://www.w3.org/2000/svg" width="120" height="108"><g fill="#fff" fill-rule="evenodd"><path d="m29.893 68.794-1.687.974 2 3.464 1.687-.974 12.214-7.052 1.687-.974-2-3.464-1.687.974zm58.214 3.464 1.687.974 2-3.464-1.687-.974-12.214-7.052-1.687-.974-2 3.464 1.687.974z"/><path d="M80 54c0-11.046-8.954-20-20-20s-20 8.954-20 20 8.954 20 20 20 20-8.954 20-20m-35.767 0c0-8.708 7.059-15.767 15.767-15.767S75.767 45.292 75.767 54 68.708 69.767 60 69.767 44.233 62.708 44.233 54"/><circle cx="24" cy="75" r="3"/><circle cx="60" cy="96" r="3"/><circle cx="60" cy="12" r="3"/><circle cx="96" cy="33" r="3"/><circle cx="24" cy="33" r="3"/><circle cx="96" cy="75" r="3"/><circle cx="60" cy="54" r="3"/><path d="M2 52H0v4h42v-4h-2zm78 0h-2v4h42v-4h-2zm-7.17 18.389-1.007-1.729-3.456 2.014 1.007 1.728 19.128 32.835 1.007 1.728 3.456-2.014-1.007-1.728zM32.581 2.14 31.575.412l-3.457 2.013 1.007 1.729 19.128 32.834 1.007 1.728 3.456-2.013-1.006-1.728zM90.71 4.154l1.006-1.729L88.26.412 87.253 2.14 68.125 34.975l-1.007 1.728 3.457 2.013 1.006-1.728zM50.827 72.597l1.006-1.728-3.456-2.014-1.007 1.728-19.128 32.835-1.007 1.728 3.457 2.014 1.006-1.728zM58 87.017V89h4V71h-4v1.983zm0-51.965V37h4V19h-4v1.948zM42.107 46.258l1.687.974 2-3.464-1.687-.974-12.214-7.052-1.687-.974-2 3.464 1.687.974zm33.786-3.464-1.687.974 2 3.464 1.687-.974 12.214-7.052 1.687-.974-2-3.464-1.687.974z"/></g></svg>