<?xml version="1.0" encoding="UTF-8" standalone="no"?>
<svg
   version="1.1"
   viewBox="0 0 274.32849 221.4337"
   xml:space="preserve"
   id="svg549"
   sodipodi:docname="hero-font.svg"
   inkscape:version="1.3 (0e150ed, 2023-07-21)"
   width="274.32849"
   height="221.4337"
   xmlns:inkscape="http://www.inkscape.org/namespaces/inkscape"
   xmlns:sodipodi="http://sodipodi.sourceforge.net/DTD/sodipodi-0.dtd"
   xmlns="http://www.w3.org/2000/svg"
   xmlns:svg="http://www.w3.org/2000/svg"><sodipodi:namedview
     id="namedview549"
     pagecolor="#fab71c"
     bordercolor="#666666"
     borderopacity="1.0"
     inkscape:showpageshadow="2"
     inkscape:pageopacity="0.0"
     inkscape:pagecheckerboard="0"
     inkscape:deskcolor="#d1d1d1"
     inkscape:zoom="1.2027576"
     inkscape:cx="260.23532"
     inkscape:cy="157.97032"
     inkscape:window-width="1920"
     inkscape:window-height="1027"
     inkscape:window-x="1728"
     inkscape:window-y="25"
     inkscape:window-maximized="1"
     inkscape:current-layer="svg549" /><defs
     id="defs1"><path
       id="h"
       d="m 590,272 a 56.1,56.1 0 0 0 -50.8,0 c -6,3.4 -9.3,7.7 -10.2,12.2 0.9,4.5 4.3,8.9 10.2,12.3 14,8.1 36.8,8.1 50.8,0 6,-3.4 9.4,-7.8 10.3,-12.2 -1,-4.5 -4.3,-8.9 -10.3,-12.3"
       fill="#fbebc4" /></defs><defs
     id="defs2"><path
       id="a"
       d="M 601,310.7 V 299 l -5,0.4 a 27.8,27.8 0 0 0 -5.5,-4 56,56 0 0 0 -50.8,0 26,26 0 0 0 -6.6,5.3 l -3.9,-1.2 v 10 c -0.1,5.5 3.3,11 10.5,15.1 14,8.1 36.8,8.1 50.8,0 6.6,-3.8 10,-8.7 10.5,-13.7"
       fill="#fab71c" /><path
       id="b"
       d="m 529.6,309.3 v 0.2 c -0.2,5.5 3.5,10.8 10.3,14.7 14,8 36.5,8 50.4,0 6.3,-3.6 10,-8.4 10.3,-13.4 v -11.5 l -4.8,0.4 -0.1,-0.2 a 27.6,27.6 0 0 0 -5.4,-4 56,56 0 0 0 -50.4,0 25.8,25.8 0 0 0 -6.6,5.3 l -0.1,0.2 -3.6,-1 z m 35.5,21.7 c -9.2,0 -18.5,-2 -25.5,-6.1 -7,-4.1 -10.9,-9.6 -10.7,-15.4 v -10.6 l 4,1.2 c 1.8,-1.9 4,-3.6 6.7,-5.2 14,-8.1 37,-8.1 51,0 a 27,27 0 0 1 5.5,4 l 5.2,-0.4 v 12.4 c -0.4,5.3 -4.2,10.2 -10.6,14 -7,4 -16.3,6 -25.6,6"
       fill="#1a1613" /><path
       id="c"
       d="m 590,285 c 14,8.1 14,21.2 0,29.3 a 56,56 0 0 1 -50.8,0 c -14,-8 -14,-21.2 0,-29.3 14,-8 36.8,-8 50.8,0"
       fill="#fab71c" /><path
       id="d"
       d="m 565,279 c -9.1,0 -18.2,2 -25.2,6 -6.6,3.9 -10.3,9 -10.3,14.4 0,5.4 3.7,10.5 10.3,14.3 14,8 36.5,8 50.4,0 6.7,-3.8 10.3,-9 10.3,-14.3 0,-5.4 -3.6,-10.5 -10.3,-14.4 -7,-4 -16,-6 -25.2,-6 z m 0,41.4 c -9.2,0 -18.5,-2 -25.5,-6 -7,-4 -10.7,-9.4 -10.7,-15 0,-5.7 3.8,-11 10.7,-15 14,-8.1 37,-8.1 51,0 7,4 10.8,9.3 10.8,15 0,5.6 -3.8,11 -10.7,15 -7,4 -16.3,6 -25.6,6"
       fill="#1a1613" /><path
       id="e"
       d="m 565,261 c -9.1,0 -18.2,2 -25.2,6 -6.6,3.9 -10.3,9 -10.3,14.4 0,5.4 3.7,10.5 10.3,14.3 14,8 36.5,8 50.4,0 6.7,-3.8 10.3,-9 10.3,-14.3 0,-5.4 -3.6,-10.5 -10.3,-14.4 -7,-4 -16,-6 -25.2,-6 z m 0,41.4 c -9.2,0 -18.5,-2 -25.5,-6 -7,-4 -10.7,-9.4 -10.7,-15 0,-5.7 3.8,-11 10.7,-15 14,-8.1 37,-8.1 51,0 7,4 10.8,9.3 10.8,15 0,5.6 -3.8,11 -10.7,15 -7,4 -16.3,6 -25.6,6"
       fill="#1a1613" /><path
       id="f"
       d="m 601,292 v -11.8 l -5,0.4 a 27.8,27.8 0 0 0 -5.5,-4 56,56 0 0 0 -50.8,0 c -2.7,1.5 -5,3.3 -6.6,5.3 l -3.9,-1.2 v 10 c -0.1,5.5 3.3,11 10.5,15.1 14,8.1 36.8,8.1 50.8,0 6.6,-3.8 10,-8.7 10.5,-13.7"
       fill="#fab71c" /><path
       id="g"
       d="m 590,267 c 14,8 14,21.1 0,29.2 a 56,56 0 0 1 -50.8,0 c -14,-8 -14,-21.2 0,-29.3 14,-8 36.8,-8 50.8,0"
       fill="#fab71c" /></defs><path
     d="m 10.481585,173.12217 219.013145,-4.90426 -2.38153,47.7621 -217.136127,2.128 z"
     fill="#ffd885"
     id="path2"
     style="stroke-width:0.943615"
     sodipodi:nodetypes="ccccc" /><path
     d="m 11.302806,0 194.000004,0.302 5.14,45 -201.0000042,2.72 z"
     fill="#ffd885"
     id="path3"
      /><path
     d="M 7.3147751,57.070184 256.86863,56.531523 255.73768,104.51156 7.1184968,103.9729 Z"
     fill="#ffd885"
     stroke-linecap="round"
     stroke-linejoin="round"
     stroke-width="1.05907"
     style="paint-order:stroke fill markers"
     id="path4" /><path
     d="m 6.9514231,113.62979 105.6094369,-1.03 0.0946,45.7 -105.6094285,3.62 z"
     fill="#ffd885"
     stroke-linecap="round"
     stroke-linejoin="round"
     stroke-width="0.778736"
     style="paint-order:stroke fill markers"
     id="path5" /><text
     xml:space="preserve"
     style="font-size:40px;line-height:1.25;font-family:Arcon;-inkscape-font-specification:'Arcon, Normal'"
     x="17.095568"
     y="37.408802"
     id="text1"><tspan
       sodipodi:role="line"
       id="tspan1"
       x="17.095568"
       y="37.408802"
       style="font-style:normal;font-variant:normal;font-weight:bold;font-stretch:normal;font-size:40px;font-family:'Josefin Sans';-inkscape-font-specification:'Josefin Sans, Bold';font-variant-ligatures:normal;font-variant-caps:normal;font-variant-numeric:normal;font-variant-east-asian:normal">Friendly,</tspan></text><text
     xml:space="preserve"
     style="font-size:40px;line-height:1.25;font-family:Arcon;-inkscape-font-specification:'Arcon, Normal'"
     x="16.264145"
     y="92.957016"
     id="text2"><tspan
       sodipodi:role="line"
       id="tspan2"
       x="16.264145"
       y="92.957016"
       style="font-style:normal;font-variant:normal;font-weight:bold;font-stretch:normal;font-size:40px;font-family:'Josefin Sans';-inkscape-font-specification:'Josefin Sans, Bold';font-variant-ligatures:normal;font-variant-caps:normal;font-variant-numeric:normal;font-variant-east-asian:normal">professional</tspan></text><text
     xml:space="preserve"
     style="font-size:40px;line-height:1.25;font-family:Arcon;-inkscape-font-specification:'Arcon, Normal'"
     x="16.264145"
     y="150.30225"
     id="text3"><tspan
       sodipodi:role="line"
       id="tspan3"
       x="16.264145"
       y="150.30225"
       style="font-style:normal;font-variant:normal;font-weight:bold;font-stretch:normal;font-size:40px;font-family:'Josefin Sans';-inkscape-font-specification:'Josefin Sans, Bold';font-variant-ligatures:normal;font-variant-caps:normal;font-variant-numeric:normal;font-variant-east-asian:normal">Rust</tspan></text><text
     xml:space="preserve"
     style="font-size:40px;line-height:1.25;font-family:Arcon;-inkscape-font-specification:'Arcon, Normal'"
     x="16.264145"
     y="206.83899"
     id="text4"><tspan
       sodipodi:role="line"
       id="tspan4"
       x="16.264145"
       y="206.83899"
       style="font-style:normal;font-variant:normal;font-weight:bold;font-stretch:normal;font-size:40px;font-family:'Josefin Sans';-inkscape-font-specification:'Josefin Sans, Bold';font-variant-ligatures:normal;font-variant-caps:normal;font-variant-numeric:normal;font-variant-east-asian:normal">Consulting</tspan></text></svg>
