<?xml version="1.0" encoding="UTF-8" standalone="no"?>
<svg
   width="100"
   height="100"
   viewBox="0 0 100 100"
   version="1.1"
   xml:space="preserve"
   style="clip-rule:evenodd;fill-rule:evenodd;stroke-linejoin:round;stroke-miterlimit:1.41421"
   id="svg9"
   sodipodi:docname="teaching.svg"
   inkscape:version="1.3 (0e150ed, 2023-07-21)"
   xmlns:inkscape="http://www.inkscape.org/namespaces/inkscape"
   xmlns:sodipodi="http://sodipodi.sourceforge.net/DTD/sodipodi-0.dtd"
   xmlns="http://www.w3.org/2000/svg"
   xmlns:svg="http://www.w3.org/2000/svg"><defs
   id="defs9"><inkscape:path-effect
   effect="powermask"
   id="path-effect355"
   is_visible="true"
   lpeversion="1"
   uri="#mask-powermask-path-effect355"
   invert="false"
   hide_mask="false"
   background="true"
   background_color="#ffffffff" />&#10;        &#10;        &#10;        &#10;        &#10;        &#10;        &#10;        &#10;        &#10;        &#10;    &#10;            &#10;        &#10;            &#10;        &#10;            &#10;        &#10;            &#10;        &#10;            &#10;        &#10;            &#10;        &#10;            &#10;        &#10;            &#10;        &#10;            &#10;        <filter
   id="mask-powermask-path-effect351_inverse"
   inkscape:label="filtermask-powermask-path-effect351"
   style="color-interpolation-filters:sRGB"
   height="100"
   width="100"
   x="-50"
   y="-50"><feColorMatrix
     id="mask-powermask-path-effect351_primitive1"
     values="1"
     type="saturate"
     result="fbSourceGraphic" /><feColorMatrix
     id="mask-powermask-path-effect351_primitive2"
     values="-1 0 0 0 1 0 -1 0 0 1 0 0 -1 0 1 0 0 0 1 0 "
     in="fbSourceGraphic" /></filter><filter
   id="mask-powermask-path-effect355_inverse"
   inkscape:label="filtermask-powermask-path-effect355"
   style="color-interpolation-filters:sRGB"
   height="100"
   width="100"
   x="-50"
   y="-50"><feColorMatrix
     id="mask-powermask-path-effect355_primitive1"
     values="1"
     type="saturate"
     result="fbSourceGraphic" /><feColorMatrix
     id="mask-powermask-path-effect355_primitive2"
     values="-1 0 0 0 1 0 -1 0 0 1 0 0 -1 0 1 0 0 0 1 0 "
     in="fbSourceGraphic" /></filter><mask
   maskUnits="userSpaceOnUse"
   id="mask-powermask-path-effect355"><path
     id="mask-powermask-path-effect355_box"
     style="fill:#ffffff;fill-opacity:1"
     d="M 31.520413,18.741837 H 99.789905 V 63.526878 H 31.520413 Z" /><path
     id="path355"
     style="fill:#000000;fill-opacity:1;stroke:none;stroke-width:0.209162;stroke-linecap:square;stroke-linejoin:miter;stroke-miterlimit:1000;stroke-dasharray:none;stroke-dashoffset:0;stroke-opacity:1;paint-order:fill markers stroke"
     d="m 4.6846264,57.781443 c -1.6667,1.248091 -3.34384,2.804469 -3.71765999,4.955175 -0.48639,2.400069 1.02462999,4.703414 2.92876999,6.030623 0.65295,0.559093 1.5128701,0.880973 2.1481001,1.415526 0.52124,0.8243 1.2319699,1.51235 1.9938499,2.11381 -1.2316499,1.07095 -1.04095,3.0291 -0.0329,4.18768 2.2166696,2.55978 4.7927996,4.78274 7.1048996,7.24982 0.65769,0.73069 1.338991,1.60417 2.401631,1.65608 0.53168,-0.005 1.45015,0.69135 1.51045,-0.16804 0.21483,-0.76513 0.71459,-1.5005 0.52158,-2.32025 0.59121,0.1833 1.40961,0.66781 1.10524,-0.33624 -0.0557,-1.37684 0.054,-2.81098 -0.60568,-4.07398 0.16593,-0.16819 1.03178,0.23893 1.46679,0.27774 5.79154,1.28712 11.79735,1.55489 17.6976,1.00408 2.79113,-0.28804 5.56148,-0.83618 8.22056,-1.74053 -0.52542,1.15993 -0.7854,2.41459 -0.69946,3.68814 0.0607,0.503 -0.15817,1.39806 0.0648,1.67343 0.59231,-0.18754 1.31018,-0.53226 1.82733,-0.62569 -0.26645,1.1999 0.61736,2.15078 1.09638,3.16396 0.91984,-0.4839 2.12733,-0.59542 2.69494,-1.5588 1.90192,-3.03381 4.17251,-5.82601 6.03092,-8.89042 0.78173,-1.27791 0.69932,-3.20151 -0.65496,-4.0572 -0.764,-0.25317 0.10718,-0.69533 0.28536,-1.07865 0.5318,-0.80599 1.52985,-1.116952 2.20748,-1.793579 2.14382,-1.700472 3.83208,-4.289299 3.6623,-7.116079 2.85521,-4.07761 5.71042,-8.15522 8.56563,-12.23283 -2.12862,-1.486608 -4.25513,-2.976255 -6.38376,-4.462862 -2.56131,3.645582 -5.10507,7.289548 -7.66365,10.937869 -2.52674,1.113839 -5.26237,2.514847 -6.43732,5.175269 -0.39522,-0.193337 -1.19431,0.141778 -0.85953,-0.534896 0.32835,-1.73462 -1.40128,-3.424332 -3.12987,-3.026306 -0.42739,0.06609 -0.0719,-0.876169 -0.3864,-1.205221 -0.48378,-1.438749 -2.3292,-2.1656 -3.66521,-1.436268 -0.10779,-1.685164 -2.00269,-2.896738 -3.57526,-2.266614 -0.4429,0.220915 -0.78835,0.612202 -0.91113,-0.08085 -0.76808,-1.592402 -3.1803,-1.875338 -4.30202,-0.506404 -0.25683,-0.244161 -0.60146,-0.773954 -1.02854,-0.98963 -1.24044,-0.726103 -2.97996,-0.251779 -3.64845,1.028947 -1.04249,-1.307362 -3.24989,-1.190687 -4.17909,0.189291 -0.26283,0.349348 -0.27948,1.043859 -0.76552,0.511461 -1.52083,-0.899759 -3.66414,0.218149 -3.85836,1.962073 -0.19942,0.250646 -0.92849,-0.294901 -1.37757,-0.135399 -1.48081,0.06981 -2.66642,1.514595 -2.48363,2.980068 -1.69707,-0.544675 -3.575191,1.02 -3.360221,2.78298 0.23584,0.638927 -0.0572,0.694847 -0.65565,0.674841 -0.49802,-0.05624 -1.0661,0.776921 -1.34656,0.462979 -1.2847,-2.425957 -3.8669596,-3.656048 -6.2341495,-4.782677 -0.6319,-0.314612 -1.26379,-0.629225 -1.8956801,-0.943837 0.10789,0.74714 0.21578,1.494274 0.32368,2.241414 z" /></mask></defs><sodipodi:namedview
   id="namedview9"
   pagecolor="#151515"
   bordercolor="#666666"
   borderopacity="1.0"
   inkscape:showpageshadow="2"
   inkscape:pageopacity="0.0"
   inkscape:pagecheckerboard="0"
   inkscape:deskcolor="#d1d1d1"
   showgrid="false"
   inkscape:zoom="4.7883493"
   inkscape:cx="67.350976"
   inkscape:cy="50.748177"
   inkscape:window-width="1920"
   inkscape:window-height="1027"
   inkscape:window-x="0"
   inkscape:window-y="25"
   inkscape:window-maximized="1"
   inkscape:current-layer="svg9" />&#10;    <g
   id="g355"
   mask="url(#mask-powermask-path-effect355)"
   inkscape:path-effect="#path-effect355"><path
     d="m 81.550875,40.739464 -1.35276,-0.83805 a 18.704963,18.704963 0 0 0 -0.0383,-0.39384 l 1.16239,-1.08483 a 0.46334319,0.46334319 0 0 0 -0.15411,-0.7766 l -1.48673,-0.55601 a 16.920085,16.920085 0 0 0 -0.11583,-0.38377 l 0.926681,-1.2883 a 0.46535773,0.46535773 0 0 0 -0.302181,-0.73228 l -1.56831,-0.25484 c -0.0604,-0.11886 -0.1239,-0.2357 -0.18836,-0.35254 l 0.65875,-1.44543 a 0.46334319,0.46334319 0 0 0 -0.44018,-0.65876 l -1.59047,0.0554 a 12.572717,12.572717 0 0 0 -0.251819,-0.30419 l 0.36564,-1.55019 a 0.46435046,0.46435046 0 0 0 -0.56004,-0.56004 l -1.549181,0.36463 c -0.10073,-0.0846 -0.201449,-0.16821 -0.3052,-0.25181 l 0.0554,-1.58947 a 0.46334319,0.46334319 0 0 0 -0.65875,-0.44018 l -1.44543,0.65876 a 16.83346,16.83346 0 0 0 -0.35255,-0.18937 l -0.25484,-1.56731 a 0.46535773,0.46535773 0 0 0 -0.73127,-0.30319 l -1.28931,0.92669 a 14.414002,14.414002 0 0 0 -0.38276,-0.11584 l -0.55601,-1.48672 a 0.46435046,0.46435046 0 0 0 -0.7766,-0.15512 l -1.08483,1.1644 c -0.13095,-0.0141 -0.261891,-0.0282 -0.39384,-0.0383 l -0.83805,-1.35377 a 0.46535773,0.46535773 0 0 0 -0.79171,0 l -0.838051,1.35377 c -0.130939,0.0101 -0.26289,0.0242 -0.39384,0.0383 l -1.084829,-1.1634 a 0.46737226,0.46737226 0 0 0 -0.7766,0.15412 l -0.55601,1.48672 c -0.12893,0.0373 -0.25686,0.0766 -0.38276,0.11685 l -1.28931,-0.9277 a 0.46334319,0.46334319 0 0 0 -0.73228,0.30218 l -0.25585,1.56832 c -0.11785,0.0614 -0.23469,0.1249 -0.35254,0.18937 l -1.44442,-0.65876 a 0.46334319,0.46334319 0 0 0 -0.65876,0.43917 l 0.0554,1.59148 c -0.10274,0.0826 -0.20447,0.1662 -0.3052,0.25182 l -1.54918,-0.36564 a 0.46737226,0.46737226 0 0 0 -0.56104,0.56004 l 0.36563,1.55019 c -0.0856,0.10073 -0.16922,0.20145 -0.25181,0.30419 l -1.59048,-0.0554 a 0.46535773,0.46535773 0 0 0 -0.44017,0.65876 l 0.65875,1.44643 c -0.0635,0.11584 -0.12692,0.23268 -0.18836,0.35255 l -1.56731,0.25383 a 0.46535773,0.46535773 0 0 0 -0.30319,0.73228 l 0.92669,1.2883 c -0.0403,0.12691 -0.0786,0.25484 -0.11584,0.38276 l -1.48672,0.55702 a 0.46535773,0.46535773 0 0 0 -0.15412,0.7766 l 1.1634,1.08483 c -0.0151,0.13094 -0.0282,0.26189 -0.0393,0.39384 l -1.35277,0.83805 a 0.46535773,0.46535773 0 0 0 0,0.79171 l 1.35277,0.83704 c 0.0111,0.13195 0.0242,0.2639 0.0393,0.39485 l -1.1634,1.08483 a 0.46535773,0.46535773 0 0 0 0.15412,0.7766 l 1.48672,0.55601 c 0.0373,0.12893 0.0766,0.25686 0.11685,0.38276 l -0.9277,1.28931 a 0.46535773,0.46535773 0 0 0 0.30319,0.73127 l 1.56731,0.25484 c 0.0614,0.11886 0.12389,0.23671 0.189369,0.35255 l -0.659759,1.44543 a 0.46535773,0.46535773 0 0 0 0.44017,0.65875 l 1.59048,-0.0554 c 0.0826,0.10375 0.1662,0.20447 0.25181,0.3052 l -0.365631,1.55019 a 0.46334319,0.46334319 0 0 0 0.56104,0.55903 l 1.54918,-0.36463 c 0.10073,0.0856 0.20246,0.16821 0.3052,0.25081 l -0.0554,1.59148 a 0.46435046,0.46435046 0 0 0 0.65876,0.43917 l 1.44543,-0.65875 c 0.115831,0.0645 0.23368,0.12792 0.35254,0.18936 l 0.25484,1.5663 a 0.46435046,0.46435046 0 0 0 0.732281,0.3042 l 1.2883,-0.9287 c 0.12691,0.0403 0.25484,0.0806 0.382759,0.11684 l 0.55601,1.48673 a 0.46334319,0.46334319 0 0 0 0.77661,0.15411 l 1.08583,-1.16339 c 0.13095,0.0151 0.26189,0.0282 0.39384,0.0403 l 0.83805,1.35276 a 0.46636499,0.46636499 0 0 0 0.791711,0 l 0.83704,-1.35377 c 0.13195,-0.0111 0.2639,-0.0242 0.39485,-0.0393 l 1.08483,1.16339 a 0.46334319,0.46334319 0 0 0 0.775589,-0.15411 l 0.55702,-1.48673 c 0.12793,-0.0363 0.25585,-0.0765 0.38276,-0.11684 l 1.28931,0.9287 a 0.46636499,0.46636499 0 0 0 0.73127,-0.3042 l 0.25585,-1.5673 c 0.11785,-0.0604 0.23469,-0.12491 0.35154,-0.18836 l 1.44543,0.65875 a 0.46435046,0.46435046 0 0 0 0.65875,-0.44018 l -0.0554,-1.59148 c 0.10274,-0.0806 0.20447,-0.16418 0.3052,-0.2498 l 1.54918,0.36463 a 0.46334319,0.46334319 0 0 0 0.56004,-0.55903 l -0.36463,-1.55019 c 0.0846,-0.10073 0.16821,-0.20145 0.25081,-0.3052 l 1.59148,0.0554 a 0.46334319,0.46334319 0 0 0 0.43917,-0.65875 l -0.65875,-1.44543 c 0.0645,-0.11584 0.12691,-0.23369 0.18836,-0.35255 l 1.567301,-0.25484 a 0.46334319,0.46334319 0 0 0 0.30319,-0.73127 l -0.926681,-1.28931 a 17.627187,17.627187 0 0 0 0.11583,-0.38276 l 1.48673,-0.55601 a 0.46334319,0.46334319 0 0 0 0.15411,-0.7766 l -1.16339,-1.08483 c 0.0141,-0.13095 0.0272,-0.2629 0.0393,-0.39485 l 1.35276,-0.83704 a 0.46535773,0.46535773 0 0 0 0,-0.79171 z m -9.056341,11.22499 a 0.95891895,0.95891895 0 0 1 0.4019,-1.87452 0.95891895,0.95891895 0 0 1 -0.40291,1.87452 z m -0.460329,-3.10943 a 0.87229392,0.87229392 0 0 0 -1.035471,0.67084 l -0.480459,2.24217 a 11.733663,11.733663 0 0 1 -4.86309,1.04756 c -1.77279,0 -3.45493,-0.39283 -4.96483,-1.0949 l -0.48046,-2.24117 a 0.87229392,0.87229392 0 0 0 -1.03547,-0.67185 l -1.97928,0.42507 a 11.764888,11.764888 0 0 1 -1.02339,-1.2057 h 9.630489 c 0.108781,0 0.181311,-0.0201 0.181311,-0.11886 v -3.40658 c 0,-0.0997 -0.0725,-0.11885 -0.181311,-0.11885 h -2.816319 v -2.16059 h 3.04598 c 0.278,0 1.48672,0.0796 1.87351,1.62472 0.12088,0.47442 0.38679,2.02058 0.5681,2.51515 0.18131,0.555 0.918629,1.664 1.7043,1.664 h 4.79862 a 0.98410065,0.98410065 0 0 0 0.17426,-0.0171 c -0.3324,0.45226 -0.69804,0.88035 -1.09087,1.27923 l -2.02461,-0.43413 z m -13.3191,3.06209 a 0.95891895,0.95891895 0 0 1 -0.4019,-1.87453 0.958954,0.958954 0 0 1 0.4009,1.87554 z m -3.65336,-14.81389 a 0.95711779,0.95711779 0 1 1 -1.74962,0.77661 0.95711779,0.95711779 0 1 1 1.74962,-0.77661 z m -1.1231,2.66221 2.06188,-0.91661 a 0.87430845,0.87430845 0 0 0 0.44319,-1.15332 l -0.42406,-0.95993 h 1.67005 v 7.52832 h -3.36931 a 11.799135,11.799135 0 0 1 -0.38276,-4.49846 z m 9.04829,-0.73128 v -2.21901 h 3.976689 c 0.205481,0 1.450461,0.23772 1.450461,1.16843 0,0.77258 -0.954891,1.05058 -1.74055,1.05058 z m 14.45328,1.99742 c 0,0.29412 -0.0111,0.58522 -0.0332,0.8743 h -1.20872 c -0.12087,0 -0.16922,0.0806 -0.16922,0.19844 v 0.555 c 0,1.30743 -0.73732,1.59148 -1.38298,1.66401 -0.61443,0.0685 -1.29736,-0.25786 -1.38096,-0.63458 -0.36262,-2.03972 -0.96698,-2.47587 -1.92187,-3.2293 1.18455,-0.75142 2.41744,-1.86143 2.41744,-3.34715 0,-1.60458 -1.09993,-2.61487 -1.84934,-3.11045 -1.05159,-0.693 -2.21599,-0.832 -2.53026,-0.832 h -12.50422 a 11.768917,11.768917 0 0 1 6.59257,-3.72085 l 1.47363,1.54616 c 0.33341,0.34851 0.8864,0.36262 1.2339,0.0282 l 1.64991,-1.57738 a 11.795106,11.795106 0 0 1 8.0672,5.74546 l -1.12914,2.5504 a 0.87531572,0.87531572 0 0 0 0.4432,1.15332 l 2.17469,0.96496 c 0.0373,0.38579 0.0564,0.7756 0.0564,1.17146 z M 64.944054,28.133504 a 0.95690441,0.95690441 0 0 1 1.35376,0.0312 0.95891895,0.95891895 0 0 1 -0.0322,1.35578 0.95589715,0.95589715 0 0 1 -1.35276,-0.0322 0.95992622,0.95992622 0 0 1 0.0312,-1.35478 z m 11.20384,9.01606 a 0.95732223,0.95732223 0 1 1 1.74962,0.77761 0.95732223,0.95732223 0 1 1 -1.74962,-0.77761 z"
     fill="#000000"
     id="path1-4"
     style="fill:#606060;fill-opacity:1;stroke-width:1.00727;stroke:none"
     inkscape:original-d="m 81.550875,40.739464 -1.35276,-0.83805 a 18.704963,18.704963 0 0 0 -0.0383,-0.39384 l 1.16239,-1.08483 a 0.46334319,0.46334319 0 0 0 -0.15411,-0.7766 l -1.48673,-0.55601 a 16.920085,16.920085 0 0 0 -0.11583,-0.38377 l 0.926681,-1.2883 a 0.46535773,0.46535773 0 0 0 -0.302181,-0.73228 l -1.56831,-0.25484 c -0.0604,-0.11886 -0.1239,-0.2357 -0.18836,-0.35254 l 0.65875,-1.44543 a 0.46334319,0.46334319 0 0 0 -0.44018,-0.65876 l -1.59047,0.0554 a 12.572717,12.572717 0 0 0 -0.251819,-0.30419 l 0.36564,-1.55019 a 0.46435046,0.46435046 0 0 0 -0.56004,-0.56004 l -1.549181,0.36463 c -0.10073,-0.0846 -0.201449,-0.16821 -0.3052,-0.25181 l 0.0554,-1.58947 a 0.46334319,0.46334319 0 0 0 -0.65875,-0.44018 l -1.44543,0.65876 a 16.83346,16.83346 0 0 0 -0.35255,-0.18937 l -0.25484,-1.56731 a 0.46535773,0.46535773 0 0 0 -0.73127,-0.30319 l -1.28931,0.92669 a 14.414002,14.414002 0 0 0 -0.38276,-0.11584 l -0.55601,-1.48672 a 0.46435046,0.46435046 0 0 0 -0.7766,-0.15512 l -1.08483,1.1644 c -0.13095,-0.0141 -0.261891,-0.0282 -0.39384,-0.0383 l -0.83805,-1.35377 a 0.46535773,0.46535773 0 0 0 -0.79171,0 l -0.838051,1.35377 c -0.130939,0.0101 -0.26289,0.0242 -0.39384,0.0383 l -1.084829,-1.1634 a 0.46737226,0.46737226 0 0 0 -0.7766,0.15412 l -0.55601,1.48672 c -0.12893,0.0373 -0.25686,0.0766 -0.38276,0.11685 l -1.28931,-0.9277 a 0.46334319,0.46334319 0 0 0 -0.73228,0.30218 l -0.25585,1.56832 c -0.11785,0.0614 -0.23469,0.1249 -0.35254,0.18937 l -1.44442,-0.65876 a 0.46334319,0.46334319 0 0 0 -0.65876,0.43917 l 0.0554,1.59148 c -0.10274,0.0826 -0.20447,0.1662 -0.3052,0.25182 l -1.54918,-0.36564 a 0.46737226,0.46737226 0 0 0 -0.56104,0.56004 l 0.36563,1.55019 c -0.0856,0.10073 -0.16922,0.20145 -0.25181,0.30419 l -1.59048,-0.0554 a 0.46535773,0.46535773 0 0 0 -0.44017,0.65876 l 0.65875,1.44643 c -0.0635,0.11584 -0.12692,0.23268 -0.18836,0.35255 l -1.56731,0.25383 a 0.46535773,0.46535773 0 0 0 -0.30319,0.73228 l 0.92669,1.2883 c -0.0403,0.12691 -0.0786,0.25484 -0.11584,0.38276 l -1.48672,0.55702 a 0.46535773,0.46535773 0 0 0 -0.15412,0.7766 l 1.1634,1.08483 c -0.0151,0.13094 -0.0282,0.26189 -0.0393,0.39384 l -1.35277,0.83805 a 0.46535773,0.46535773 0 0 0 0,0.79171 l 1.35277,0.83704 c 0.0111,0.13195 0.0242,0.2639 0.0393,0.39485 l -1.1634,1.08483 a 0.46535773,0.46535773 0 0 0 0.15412,0.7766 l 1.48672,0.55601 c 0.0373,0.12893 0.0766,0.25686 0.11685,0.38276 l -0.9277,1.28931 a 0.46535773,0.46535773 0 0 0 0.30319,0.73127 l 1.56731,0.25484 c 0.0614,0.11886 0.12389,0.23671 0.189369,0.35255 l -0.659759,1.44543 a 0.46535773,0.46535773 0 0 0 0.44017,0.65875 l 1.59048,-0.0554 c 0.0826,0.10375 0.1662,0.20447 0.25181,0.3052 l -0.365631,1.55019 a 0.46334319,0.46334319 0 0 0 0.56104,0.55903 l 1.54918,-0.36463 c 0.10073,0.0856 0.20246,0.16821 0.3052,0.25081 l -0.0554,1.59148 a 0.46435046,0.46435046 0 0 0 0.65876,0.43917 l 1.44543,-0.65875 c 0.115831,0.0645 0.23368,0.12792 0.35254,0.18936 l 0.25484,1.5663 a 0.46435046,0.46435046 0 0 0 0.732281,0.3042 l 1.2883,-0.9287 c 0.12691,0.0403 0.25484,0.0806 0.382759,0.11684 l 0.55601,1.48673 a 0.46334319,0.46334319 0 0 0 0.77661,0.15411 l 1.08583,-1.16339 c 0.13095,0.0151 0.26189,0.0282 0.39384,0.0403 l 0.83805,1.35276 a 0.46636499,0.46636499 0 0 0 0.791711,0 l 0.83704,-1.35377 c 0.13195,-0.0111 0.2639,-0.0242 0.39485,-0.0393 l 1.08483,1.16339 a 0.46334319,0.46334319 0 0 0 0.775589,-0.15411 l 0.55702,-1.48673 c 0.12793,-0.0363 0.25585,-0.0765 0.38276,-0.11684 l 1.28931,0.9287 a 0.46636499,0.46636499 0 0 0 0.73127,-0.3042 l 0.25585,-1.5673 c 0.11785,-0.0604 0.23469,-0.12491 0.35154,-0.18836 l 1.44543,0.65875 a 0.46435046,0.46435046 0 0 0 0.65875,-0.44018 l -0.0554,-1.59148 c 0.10274,-0.0806 0.20447,-0.16418 0.3052,-0.2498 l 1.54918,0.36463 a 0.46334319,0.46334319 0 0 0 0.56004,-0.55903 l -0.36463,-1.55019 c 0.0846,-0.10073 0.16821,-0.20145 0.25081,-0.3052 l 1.59148,0.0554 a 0.46334319,0.46334319 0 0 0 0.43917,-0.65875 l -0.65875,-1.44543 c 0.0645,-0.11584 0.12691,-0.23369 0.18836,-0.35255 l 1.567301,-0.25484 a 0.46334319,0.46334319 0 0 0 0.30319,-0.73127 l -0.926681,-1.28931 a 17.627187,17.627187 0 0 0 0.11583,-0.38276 l 1.48673,-0.55601 a 0.46334319,0.46334319 0 0 0 0.15411,-0.7766 l -1.16339,-1.08483 c 0.0141,-0.13095 0.0272,-0.2629 0.0393,-0.39485 l 1.35276,-0.83704 a 0.46535773,0.46535773 0 0 0 0,-0.79171 z m -9.056341,11.22499 a 0.95891895,0.95891895 0 0 1 0.4019,-1.87452 0.95891895,0.95891895 0 0 1 -0.40291,1.87452 z m -0.460329,-3.10943 a 0.87229392,0.87229392 0 0 0 -1.035471,0.67084 l -0.480459,2.24217 a 11.733663,11.733663 0 0 1 -4.86309,1.04756 c -1.77279,0 -3.45493,-0.39283 -4.96483,-1.0949 l -0.48046,-2.24117 a 0.87229392,0.87229392 0 0 0 -1.03547,-0.67185 l -1.97928,0.42507 a 11.764888,11.764888 0 0 1 -1.02339,-1.2057 h 9.630489 c 0.108781,0 0.181311,-0.0201 0.181311,-0.11886 v -3.40658 c 0,-0.0997 -0.0725,-0.11885 -0.181311,-0.11885 h -2.816319 v -2.16059 h 3.04598 c 0.278,0 1.48672,0.0796 1.87351,1.62472 0.12088,0.47442 0.38679,2.02058 0.5681,2.51515 0.18131,0.555 0.918629,1.664 1.7043,1.664 h 4.79862 a 0.98410065,0.98410065 0 0 0 0.17426,-0.0171 c -0.3324,0.45226 -0.69804,0.88035 -1.09087,1.27923 l -2.02461,-0.43413 z m -13.3191,3.06209 a 0.95891895,0.95891895 0 0 1 -0.4019,-1.87453 0.958954,0.958954 0 0 1 0.4009,1.87554 z m -3.65336,-14.81389 a 0.95711779,0.95711779 0 1 1 -1.74962,0.77661 0.95711779,0.95711779 0 1 1 1.74962,-0.77661 z m -1.1231,2.66221 2.06188,-0.91661 a 0.87430845,0.87430845 0 0 0 0.44319,-1.15332 l -0.42406,-0.95993 h 1.67005 v 7.52832 h -3.36931 a 11.799135,11.799135 0 0 1 -0.38276,-4.49846 z m 9.04829,-0.73128 v -2.21901 h 3.976689 c 0.205481,0 1.450461,0.23772 1.450461,1.16843 0,0.77258 -0.954891,1.05058 -1.74055,1.05058 z m 14.45328,1.99742 c 0,0.29412 -0.0111,0.58522 -0.0332,0.8743 h -1.20872 c -0.12087,0 -0.16922,0.0806 -0.16922,0.19844 v 0.555 c 0,1.30743 -0.73732,1.59148 -1.38298,1.66401 -0.61443,0.0685 -1.29736,-0.25786 -1.38096,-0.63458 -0.36262,-2.03972 -0.96698,-2.47587 -1.92187,-3.2293 1.18455,-0.75142 2.41744,-1.86143 2.41744,-3.34715 0,-1.60458 -1.09993,-2.61487 -1.84934,-3.11045 -1.05159,-0.693 -2.21599,-0.832 -2.53026,-0.832 h -12.50422 a 11.768917,11.768917 0 0 1 6.59257,-3.72085 l 1.47363,1.54616 c 0.33341,0.34851 0.8864,0.36262 1.2339,0.0282 l 1.64991,-1.57738 a 11.795106,11.795106 0 0 1 8.0672,5.74546 l -1.12914,2.5504 a 0.87531572,0.87531572 0 0 0 0.4432,1.15332 l 2.17469,0.96496 c 0.0373,0.38579 0.0564,0.7756 0.0564,1.17146 z M 64.944054,28.133504 a 0.95690441,0.95690441 0 0 1 1.35376,0.0312 0.95891895,0.95891895 0 0 1 -0.0322,1.35578 0.95589715,0.95589715 0 0 1 -1.35276,-0.0322 0.95992622,0.95992622 0 0 1 0.0312,-1.35478 z m 11.20384,9.01606 a 0.95732223,0.95732223 0 1 1 1.74962,0.77761 0.95732223,0.95732223 0 1 1 -1.74962,-0.77761 z" /><path
     style="fill:none;fill-opacity:0.447059;stroke:#606060;stroke-width:1.55815;stroke-linecap:square;stroke-linejoin:round;stroke-dasharray:none;stroke-opacity:1;paint-order:markers stroke fill"
     id="rect1"
     width="64.711342"
     height="41.226891"
     x="33.299488"
     y="20.520912"
     ry="2.0967155"
     sodipodi:type="rect"
     d="m 35.396204,20.520912 h 60.51791 c 1.161581,0 2.096716,0.935135 2.096716,2.096716 v 37.033459 c 0,1.161581 -0.935135,2.096716 -2.096716,2.096716 h -60.51791 c -1.161581,0 -2.096716,-0.935135 -2.096716,-2.096716 V 22.617628 c 0,-1.161581 0.935135,-2.096716 2.096716,-2.096716 z" /></g><g
   id="g329"
   transform="translate(0.18165513,4.8924049)"><g
     id="g14"
     transform="matrix(0.08201344,-0.11712577,0.11712577,0.08201344,11.015794,113.33707)"><rect
       style="opacity:1;fill:#ffffff;fill-opacity:1;stroke:none;stroke-width:1.46283;stroke-linecap:square;stroke-linejoin:miter;stroke-miterlimit:1000;stroke-dasharray:none;stroke-dashoffset:0;stroke-opacity:1;paint-order:fill markers stroke"
       id="rect13"
       width="110.67861"
       height="26.520321"
       x="499.16101"
       y="35.608116" /><rect
       style="opacity:1;fill:#ffffff;fill-opacity:1;stroke:none;stroke-width:0.542087;stroke-linecap:square;stroke-linejoin:miter;stroke-miterlimit:1000;stroke-dasharray:none;stroke-dashoffset:0;stroke-opacity:1;paint-order:fill markers stroke"
       id="rect14"
       width="15.198976"
       height="26.520321"
       x="614.4292"
       y="35.608116" /></g><path
     d="m 53.35566,68.092425 -0.60907,-1.261629 c 0.0032,-0.04778 0.0056,-0.09576 0.0056,-0.143943 0,-1.430142 -1.487256,-2.748229 -3.989274,-3.803605 v 0.877529 C 48.518931,63.663958 48.2649,63.569712 48.000223,63.478593 V 63.06952 c -3.575811,-1.28958 -8.899063,-2.107828 -14.84536,-2.107828 -5.195302,0 -9.915489,0.624609 -13.40997,1.642449 v 1.425097 h -10e-5 v -1.72489 c -3.58015,1.137717 -5.799782,2.71826 -5.799782,4.465854 0,0.275473 0.05555,0.54681 0.162308,0.81295 l -0.364674,0.64918 c 0,0 -0.292225,0.379002 0.222295,1.178683 0.453775,0.705183 2.726888,3.46537 3.926611,4.91085 0.515328,0.741003 0.864815,1.197452 0.89534,1.153305 0.04818,-0.06993 -0.320428,-1.46117 -1.343817,-3.048524 -0.477589,-0.852405 -1.04781,-1.981948 -1.390184,-2.81624 0.955682,0.604933 6.570501,3.432271 18.023449,3.420768 11.704807,-0.01171 16.907578,-3.675555 17.478605,-4.174335 -0.199541,0.801649 -0.881314,2.423412 -1.425047,3.563903 -0.893321,1.631199 -1.216927,3.051301 -1.175355,3.121531 0.02644,0.0443 0.331225,-0.425874 0.780812,-1.187816 1.045942,-1.490535 3.028041,-4.335885 3.424098,-5.060695 0.448831,-0.821628 0.196212,-1.201337 0.196212,-1.201337"
     style="fill:#a52b00;fill-rule:nonzero;stroke-width:0.050453;stroke-linecap:square;paint-order:markers stroke fill"
     id="path1" /><path
     d="m 56.891915,68.085412 -4.003098,-2.94878 c -0.03759,-0.131178 -0.07517,-0.262407 -0.114023,-0.392575 l 1.314908,-1.904806 c 0.134204,-0.193738 0.161247,-0.4456 0.07411,-0.666535 -0.08733,-0.219873 -0.278248,-0.37749 -0.504026,-0.416086 l -2.223264,-0.377338 c -0.08622,-0.17583 -0.176485,-0.348934 -0.267099,-0.520626 l 0.934138,-2.138604 c 0.09601,-0.217805 0.07593,-0.470979 -0.05156,-0.668705 -0.12699,-0.198633 -0.342374,-0.314675 -0.572036,-0.305644 l -2.256463,0.08199 C 49.106705,57.675533 48.988039,57.52483 48.866953,57.3768 l 0.518556,-2.292184 c 0.05257,-0.23269 -0.01383,-0.476429 -0.17593,-0.645497 -0.161197,-0.168461 -0.395451,-0.238238 -0.618201,-0.183598 l -2.197836,0.540302 c -0.142279,-0.125779 -0.286978,-0.249894 -0.433291,-0.371587 l 0.07906,-2.353181 c 0.0085,-0.238189 -0.10257,-0.464572 -0.293233,-0.59681 -0.190561,-0.132994 -0.432382,-0.152973 -0.640804,-0.05419 l -2.050312,0.974805 c -0.165133,-0.09475 -0.331224,-0.188544 -0.499081,-0.279359 l -0.362303,-2.318873 c -0.03678,-0.23491 -0.187888,-0.434503 -0.399539,-0.52562 -0.211145,-0.09167 -0.452867,-0.06196 -0.638131,0.07749 l -1.828014,1.371568 c -0.180067,-0.05979 -0.360891,-0.117052 -0.543834,-0.171894 l -0.787925,-2.198997 c -0.08012,-0.224163 -0.26488,-0.388792 -0.490202,-0.435107 -0.224516,-0.04586 -0.455491,0.03189 -0.611189,0.205848 l -1.538768,1.721408 c -0.18592,-0.02134 -0.372192,-0.04087 -0.558819,-0.05706 L 33.60904,47.782488 c -0.120281,-0.20272 -0.33284,-0.326128 -0.561998,-0.326128 -0.228501,0 -0.441464,0.123408 -0.560936,0.326128 l -1.188423,2.001776 c -0.186726,0.0162 -0.373756,0.03572 -0.559423,0.05706 l -1.538768,-1.721408 c -0.1559,-0.173961 -0.387682,-0.251711 -0.611592,-0.205848 -0.225021,0.04692 -0.410083,0.210944 -0.489749,0.435107 l -0.788529,2.198997 c -0.182692,0.05484 -0.363515,0.11251 -0.543884,0.171894 l -1.82741,-1.371568 c -0.185819,-0.139956 -0.427742,-0.169573 -0.639141,-0.07749 -0.210944,0.09112 -0.362657,0.29071 -0.399235,0.52562 l -0.362555,2.318873 c -0.167605,0.09081 -0.333697,0.184104 -0.499233,0.279359 l -2.05011,-0.974805 c -0.20822,-0.09919 -0.451303,-0.07881 -0.640955,0.05419 -0.19036,0.132238 -0.30171,0.358621 -0.293133,0.59681 l 0.07881,2.353181 c -0.14601,0.121693 -0.290408,0.245808 -0.433441,0.371587 l -2.197433,-0.540302 c -0.223154,-0.05419 -0.457205,0.01514 -0.618807,0.183598 -0.162509,0.169068 -0.228351,0.412807 -0.176131,0.645497 L 17.22446,57.3768 c -0.119977,0.148585 -0.238793,0.298733 -0.35529,0.450899 l -2.256463,-0.08199 c -0.227695,-0.0068 -0.445046,0.107011 -0.57229,0.305644 -0.127493,0.197726 -0.146818,0.4509 -0.05191,0.668705 l 0.934794,2.138604 c -0.09076,0.171692 -0.180925,0.344796 -0.267855,0.520626 l -2.223114,0.377338 c -0.225978,0.03804 -0.416338,0.195556 -0.504227,0.416086 -0.08718,0.220935 -0.05888,0.472797 0.07437,0.666535 l 1.315108,1.904806 c -0.01014,0.03365 -0.01952,0.06756 -0.02961,0.101309 L 9.569784,68.79508 c 0,0 -0.5699174,0.44656 0.2596818,1.496136 0.7315702,0.925863 4.4878512,4.596071 6.4716642,6.518788 0.837824,0.976165 1.411879,1.580644 1.471817,1.528374 0.09465,-0.08299 -0.402212,-1.859044 -2.052531,-3.942856 -1.272224,-1.869589 -2.923301,-4.74506 -2.536124,-5.076486 0,0 0.440405,-0.55907 1.323989,-0.961484 0.03234,0.02583 -0.0334,-0.02558 0,0 0,0 18.6472,8.601792 35.944225,0.145506 1.975944,-0.354432 3.172136,0.704073 3.172136,0.704073 0.412504,0.239147 -0.655688,3.195898 -1.534127,5.153124 -1.194678,2.222457 -1.369851,3.95663 -1.268591,4.01677 0.06397,0.03819 0.498627,-0.623246 1.118644,-1.675899 1.529939,-2.131793 4.422009,-6.195736 4.951363,-7.182902 0.600139,-1.119149 0,-1.432816 0,-1.432816"
     style="fill:#f74c00;fill-rule:nonzero;stroke-width:0.050453;stroke-linecap:square;paint-order:markers stroke fill"
     id="path2" /><path
     d="m 48.739003,66.981751 c 0,0 2.683044,-0.124418 6.207341,-3.706383 l 0.499385,-1.108909 c 0,0 -5.469971,-5.441262 3.033136,-9.197139 0,0 -0.744435,1.216525 -0.526022,5.916732 0,0 2.563771,-0.890446 3.315471,-5.042278 0,0 3.739581,4.930474 -4.061572,9.554649 0,0 -3.659866,5.867135 -8.819447,5.305139 z"
     style="fill:#f74c00;fill-rule:nonzero;stroke-width:0.050453;stroke-linecap:square;paint-order:markers stroke fill"
     id="path3" /><path
     d="m 36.58491,63.602606 c 0,0 1.863483,-2.040473 3.727018,0 0,0 1.464249,2.720783 0,4.080997 0,0 -2.395864,1.904502 -3.727018,0 0,0 -1.597243,-1.496387 0,-4.080997"
     style="fill-rule:nonzero;stroke-width:0.050453;stroke-linecap:square;paint-order:markers stroke fill"
     id="path4" /><path
     d="m 38.742486,64.359604 c 0,0.794434 -0.468306,1.438619 -1.045993,1.438619 -0.577587,0 -1.045892,-0.644185 -1.045892,-1.438619 0,-0.794635 0.468305,-1.43882 1.045892,-1.43882 0.577687,0 1.045993,0.644185 1.045993,1.43882"
     style="fill:#ffffff;fill-rule:nonzero;stroke-width:0.050453;stroke-linecap:square;paint-order:markers stroke fill"
     id="path5" /><path
     d="m 28.267773,63.045504 c 0,0 3.196454,-1.415309 4.068938,1.743758 0,0 0.913908,3.682066 -2.625072,3.889881 0,0 -4.512724,-0.869206 -1.443866,-5.633639"
     style="fill-rule:nonzero;stroke-width:0.050453;stroke-linecap:square;paint-order:markers stroke fill"
     id="path6" /><path
     d="m 29.873189,64.411722 c 0,0.819307 -0.482937,1.483773 -1.078737,1.483773 -0.595547,0 -1.078636,-0.664466 -1.078636,-1.483773 0,-0.81956 0.483089,-1.483876 1.078636,-1.483876 0.5958,0 1.078737,0.664316 1.078737,1.483876"
     style="fill:#ffffff;fill-rule:nonzero;stroke-width:0.050453;stroke-linecap:square;paint-order:markers stroke fill"
     id="path7" /><path
     d="m 32.362998,69.966453 4.076406,-0.327138 c 0,0 -0.138141,0.656193 -0.669967,1.148765 0,0 -1.40209,1.537306 -3.010686,-0.127797 0,0 -0.263214,-0.284 -0.395753,-0.69383"
     style="fill-rule:nonzero;stroke-width:0.050453;stroke-linecap:square;paint-order:markers stroke fill"
     id="path8" /><path
     d="m 16.040373,66.19337 c -0.03365,0 -0.06665,0.0025 -0.09954,0.0051 -1.323585,-0.301255 -5.043943,-1.27066 -6.0273241,-2.843686 0,0 5.0063051,-5.694738 -2.8183089,-9.334775 l 0.9110319,6.300478 c 0,0 -2.4121105,-1.611925 -2.9326352,-5.113216 0,0 -5.87389684,4.262981 2.5924801,8.34867 0,0 0.7678955,2.885259 8.1405512,5.187331 l 0.0054,-0.02195 c 0.07422,0.01373 0.1502,0.02195 0.228351,0.02195 0.696656,0 1.261478,-0.570724 1.261478,-1.274998 0,-0.704123 -0.564822,-1.2749 -1.261478,-1.2749"
     style="fill:#f74c00;fill-rule:nonzero;stroke-width:0.050453;stroke-linecap:square;paint-order:markers stroke fill"
     id="path9" /></g>&#10;</svg>
