<svg xmlns="http://www.w3.org/2000/svg" xml:space="preserve" width="100" height="100" style="clip-rule:evenodd;fill-rule:evenodd;stroke-linejoin:round;stroke-miterlimit:1.41421"><defs><mask id="a" maskUnits="userSpaceOnUse"><path d="M31.52 18.742h68.27v44.785H31.52Z" style="fill:#fff;fill-opacity:1"/><path d="M4.685 57.781C3.018 59.03 1.34 60.586.967 62.737c-.486 2.4 1.025 4.703 2.929 6.03.653.56 1.513.881 2.148 1.416.521.824 1.232 1.512 1.994 2.114-1.232 1.07-1.041 3.029-.033 4.187 2.216 2.56 4.793 4.783 7.105 7.25.657.73 1.339 1.604 2.401 1.656.532-.005 1.45.692 1.51-.168.216-.765.715-1.5.522-2.32.592.183 1.41.668 1.106-.336-.056-1.377.054-2.811-.606-4.074.166-.169 1.032.239 1.467.277 5.791 1.288 11.797 1.555 17.697 1.004 2.791-.288 5.562-.836 8.22-1.74-.525 1.16-.785 2.415-.699 3.688.061.503-.158 1.398.065 1.674.593-.188 1.31-.533 1.828-.626-.267 1.2.617 2.15 1.096 3.164.92-.484 2.127-.596 2.695-1.559 1.902-3.034 4.172-5.826 6.03-8.89.782-1.278.7-3.202-.654-4.058-.764-.253.107-.695.285-1.078.532-.806 1.53-1.117 2.208-1.794 2.143-1.7 3.832-4.29 3.662-7.116l8.566-12.233q-3.193-2.23-6.384-4.463c-2.561 3.646-5.105 7.29-7.664 10.938-2.527 1.114-5.262 2.515-6.437 5.175-.395-.193-1.194.142-.86-.534.329-1.735-1.401-3.425-3.13-3.027-.427.066-.071-.876-.386-1.205-.484-1.439-2.33-2.166-3.665-1.436-.108-1.685-2.003-2.897-3.575-2.267-.443.221-.789.612-.912-.08-.768-1.593-3.18-1.876-4.302-.507-.256-.244-.601-.774-1.028-.99-1.24-.726-2.98-.251-3.649 1.03-1.042-1.308-3.25-1.191-4.179.189-.262.349-.28 1.043-.765.511-1.521-.9-3.664.218-3.859 1.962-.199.25-.928-.295-1.377-.135-1.48.07-2.667 1.514-2.484 2.98-1.697-.545-3.575 1.02-3.36 2.783.236.639-.057.695-.656.675-.498-.057-1.066.776-1.346.463-1.285-2.426-3.867-3.657-6.234-4.783L4.36 55.54z" style="fill:#000;fill-opacity:1;stroke:none;stroke-width:.209162;stroke-linecap:square;stroke-linejoin:miter;stroke-miterlimit:1000;stroke-dasharray:none;stroke-dashoffset:0;stroke-opacity:1;paint-order:fill markers stroke"/></mask></defs><g mask="url(#a)"><path d="m81.55 40.74-1.352-.839a19 19 0 0 0-.038-.393l1.162-1.085a.463.463 0 0 0-.154-.777l-1.487-.556a17 17 0 0 0-.115-.384l.926-1.288a.465.465 0 0 0-.302-.732l-1.568-.255a12 12 0 0 0-.189-.353l.66-1.445a.463.463 0 0 0-.441-.659l-1.59.056a13 13 0 0 0-.252-.305l.365-1.55a.464.464 0 0 0-.56-.56l-1.549.365q-.15-.127-.305-.252l.055-1.59a.463.463 0 0 0-.658-.44l-1.446.66a17 17 0 0 0-.352-.19l-.255-1.568a.465.465 0 0 0-.732-.303l-1.289.927a14 14 0 0 0-.383-.116l-.556-1.487a.464.464 0 0 0-.776-.155l-1.085 1.165q-.196-.022-.394-.039l-.838-1.353a.465.465 0 0 0-.792 0l-.838 1.353q-.196.017-.394.039l-1.084-1.164a.467.467 0 0 0-.777.154l-.556 1.487q-.194.056-.383.117l-1.29-.928a.463.463 0 0 0-.731.302l-.256 1.569q-.177.092-.353.19l-1.444-.66a.463.463 0 0 0-.659.44l.055 1.591q-.153.124-.305.252l-1.549-.366a.467.467 0 0 0-.561.56l.366 1.55q-.129.151-.252.305l-1.59-.056a.465.465 0 0 0-.44.659l.658 1.446q-.096.174-.188.353l-1.568.254a.465.465 0 0 0-.303.732l.927 1.288q-.06.19-.116.383l-1.487.557a.465.465 0 0 0-.154.777l1.164 1.085q-.024.195-.04.393l-1.353.838a.465.465 0 0 0 0 .792l1.353.837q.016.198.04.395l-1.164 1.085a.465.465 0 0 0 .154.776l1.487.557q.056.192.117.382l-.928 1.29a.465.465 0 0 0 .303.73l1.568.256q.09.178.189.352l-.66 1.446a.465.465 0 0 0 .44.658l1.59-.055q.124.155.253.305l-.366 1.55a.463.463 0 0 0 .561.56l1.55-.365q.15.127.304.25l-.055 1.592a.464.464 0 0 0 .659.44l1.445-.66q.174.097.353.19l.255 1.566a.464.464 0 0 0 .732.304l1.288-.928q.19.06.383.117l.556 1.486a.463.463 0 0 0 .777.154l1.085-1.163q.196.022.394.04l.838 1.353a.466.466 0 0 0 .792 0l.837-1.354q.198-.016.395-.039l1.085 1.163a.463.463 0 0 0 .775-.154l.557-1.486q.192-.056.383-.117l1.29.928a.466.466 0 0 0 .73-.304l.257-1.567q.175-.092.351-.188l1.446.658a.464.464 0 0 0 .658-.44l-.055-1.591q.154-.122.305-.25l1.55.364a.463.463 0 0 0 .56-.559l-.365-1.55q.127-.15.25-.305l1.592.055a.463.463 0 0 0 .44-.658l-.66-1.446q.097-.174.189-.352l1.567-.255a.463.463 0 0 0 .303-.731l-.926-1.29a18 18 0 0 0 .115-.383l1.487-.556a.463.463 0 0 0 .154-.776l-1.163-1.085.04-.395 1.352-.837a.465.465 0 0 0 0-.792m-9.055 11.224a.959.959 0 0 1 .401-1.874.959.959 0 0 1-.402 1.874zm-.46-3.109a.87.87 0 0 0-1.036.67l-.48 2.243a11.7 11.7 0 0 1-4.864 1.048c-1.773 0-3.455-.393-4.965-1.095l-.48-2.241a.87.87 0 0 0-1.036-.672l-1.979.425a12 12 0 0 1-1.023-1.206h9.63c.109 0 .182-.02.182-.119v-3.406c0-.1-.073-.12-.182-.12h-2.816v-2.16h3.046c.278 0 1.487.08 1.873 1.625.121.474.387 2.02.569 2.515.18.555.918 1.664 1.704 1.664h4.798a1 1 0 0 0 .175-.017q-.5.679-1.091 1.28zm-13.32 3.062a.959.959 0 0 1-.402-1.874.959.959 0 0 1 .401 1.875zm-3.653-14.814a.957.957 0 1 1-1.75.777.957.957 0 1 1 1.75-.777m-1.123 2.662L56 38.85a.874.874 0 0 0 .443-1.153l-.424-.96h1.67v7.528h-3.37a11.8 11.8 0 0 1-.382-4.499zm9.048-.73v-2.22h3.977c.205 0 1.45.238 1.45 1.169 0 .772-.955 1.05-1.74 1.05zm14.453 1.997q0 .44-.033.874h-1.209c-.12 0-.169.08-.169.198v.555c0 1.308-.737 1.592-1.383 1.664-.614.069-1.297-.258-1.38-.634-.363-2.04-.968-2.476-1.923-3.23 1.185-.751 2.418-1.861 2.418-3.347 0-1.604-1.1-2.615-1.85-3.11-1.051-.693-2.216-.832-2.53-.832H56.877a11.77 11.77 0 0 1 6.592-3.721l1.474 1.546a.87.87 0 0 0 1.234.028l1.65-1.577a11.8 11.8 0 0 1 8.067 5.745l-1.129 2.55a.875.875 0 0 0 .443 1.154l2.175.965q.056.579.056 1.172zM64.944 28.134a.957.957 0 0 1 1.354.03.96.96 0 0 1-.032 1.356.956.956 0 0 1-1.353-.032.96.96 0 0 1 .031-1.354m11.204 9.016a.957.957 0 1 1 1.75.777.957.957 0 1 1-1.75-.777" style="fill:#606060;fill-opacity:1;stroke-width:1.00727;stroke:none"/><path d="M35.396 20.52h60.518c1.162 0 2.097.936 2.097 2.098V59.65a2.09 2.09 0 0 1-2.097 2.097H35.396A2.09 2.09 0 0 1 33.3 59.65V22.618c0-1.162.936-2.097 2.097-2.097z" style="fill:none;fill-opacity:.447059;stroke:#606060;stroke-width:1.55815;stroke-linecap:square;stroke-linejoin:round;stroke-dasharray:none;stroke-opacity:1;paint-order:markers stroke fill"/></g><path d="M499.161 35.608H609.84v26.52H499.161z" style="opacity:1;fill:#fff;fill-opacity:1;stroke:none;stroke-width:1.46283;stroke-linecap:square;stroke-linejoin:miter;stroke-miterlimit:1000;stroke-dasharray:none;stroke-dashoffset:0;stroke-opacity:1;paint-order:fill markers stroke" transform="rotate(-55 119.154 48.358)scale(.14298)"/><path d="M614.429 35.608h15.199v26.52h-15.199z" style="opacity:1;fill:#fff;fill-opacity:1;stroke:none;stroke-width:.542087;stroke-linecap:square;stroke-linejoin:miter;stroke-miterlimit:1000;stroke-dasharray:none;stroke-dashoffset:0;stroke-opacity:1;paint-order:fill markers stroke" transform="rotate(-55 119.154 48.358)scale(.14298)"/><path d="m53.356 68.092-.61-1.261q.006-.072.006-.144c0-1.43-1.487-2.748-3.99-3.804v.878a18 18 0 0 0-.762-.282v-.41c-3.576-1.29-8.899-2.107-14.845-2.107-5.195 0-9.916.624-13.41 1.642v1.425-1.725c-3.58 1.138-5.8 2.719-5.8 4.466q.002.414.162.813l-.364.65s-.293.378.222 1.178c.454.705 2.727 3.465 3.927 4.91.515.742.864 1.198.895 1.154.048-.07-.32-1.461-1.344-3.048-.478-.853-1.048-1.982-1.39-2.817.956.605 6.57 3.433 18.023 3.421 11.705-.012 16.908-3.675 17.479-4.174-.2.801-.881 2.423-1.425 3.564-.893 1.63-1.217 3.051-1.175 3.121.026.045.33-.426.78-1.188 1.046-1.49 3.028-4.335 3.424-5.06.45-.822.197-1.202.197-1.202" style="fill:#a52b00;fill-rule:nonzero;stroke-width:.050453;stroke-linecap:square;paint-order:markers stroke fill" transform="translate(.182 4.892)"/><path d="m56.892 68.085-4.003-2.948q-.056-.198-.114-.393l1.315-1.905a.71.71 0 0 0 .074-.666.67.67 0 0 0-.504-.416l-2.223-.378a20 20 0 0 0-.268-.52l.935-2.139a.71.71 0 0 0-.052-.669.65.65 0 0 0-.572-.305l-2.256.082a19 19 0 0 0-.357-.451l.519-2.292a.71.71 0 0 0-.176-.646.64.64 0 0 0-.619-.183l-2.197.54q-.214-.189-.434-.372l.08-2.353a.7.7 0 0 0-.294-.597.64.64 0 0 0-.64-.054l-2.051.975a23 23 0 0 0-.5-.28l-.361-2.318a.69.69 0 0 0-.4-.526.64.64 0 0 0-.638.077l-1.828 1.372q-.27-.09-.544-.172l-.788-2.199a.67.67 0 0 0-.49-.435.65.65 0 0 0-.611.206l-1.539 1.721q-.279-.031-.559-.057l-1.188-2.002a.66.66 0 0 0-.562-.326.65.65 0 0 0-.56.326l-1.19 2.002a20 20 0 0 0-.559.057L29.2 48.12a.647.647 0 0 0-1.1.23l-.79 2.198a22 22 0 0 0-.543.172l-1.828-1.372a.64.64 0 0 0-.639-.077.69.69 0 0 0-.399.526l-.363 2.319q-.25.136-.499.279l-2.05-.975a.64.64 0 0 0-.64.054.7.7 0 0 0-.294.597l.079 2.353q-.218.183-.434.372l-2.197-.54a.65.65 0 0 0-.619.183.71.71 0 0 0-.176.646l.517 2.292q-.18.223-.355.45l-2.256-.081a.66.66 0 0 0-.573.305.71.71 0 0 0-.051.67l.934 2.138q-.136.256-.268.52l-2.223.378a.67.67 0 0 0-.504.416.72.72 0 0 0 .074.666l1.316 1.905-.03.101-3.718 3.95s-.57.447.26 1.496c.731.926 4.487 4.596 6.471 6.519.838.976 1.412 1.58 1.472 1.528.095-.083-.402-1.859-2.053-3.942-1.272-1.87-2.923-4.746-2.536-5.077 0 0 .44-.559 1.324-.961.033.025-.033-.026 0 0 0 0 18.647 8.601 35.945.145 1.975-.354 3.172.704 3.172.704.412.24-.656 3.196-1.534 5.153-1.195 2.223-1.37 3.957-1.27 4.017.065.038.5-.623 1.12-1.676 1.53-2.132 4.422-6.196 4.95-7.183.601-1.119 0-1.433 0-1.433" style="fill:#f74c00;fill-rule:nonzero;stroke-width:.050453;stroke-linecap:square;paint-order:markers stroke fill" transform="translate(.182 4.892)"/><path d="M48.739 66.982s2.683-.125 6.207-3.707l.5-1.109s-5.47-5.44 3.033-9.197c0 0-.745 1.217-.526 5.917 0 0 2.564-.89 3.315-5.042 0 0 3.74 4.93-4.061 9.554 0 0-3.66 5.868-8.82 5.306z" style="fill:#f74c00;fill-rule:nonzero;stroke-width:.050453;stroke-linecap:square;paint-order:markers stroke fill" transform="translate(.182 4.892)"/><path d="M36.585 63.603s1.863-2.04 3.727 0c0 0 1.464 2.72 0 4.08 0 0-2.396 1.905-3.727 0 0 0-1.597-1.496 0-4.08" style="fill-rule:nonzero;stroke-width:.050453;stroke-linecap:square;paint-order:markers stroke fill" transform="translate(.182 4.892)"/><path d="M38.742 64.36c0 .794-.468 1.438-1.046 1.438-.577 0-1.045-.644-1.045-1.438 0-.795.468-1.44 1.045-1.44.578 0 1.046.645 1.046 1.44" style="fill:#fff;fill-rule:nonzero;stroke-width:.050453;stroke-linecap:square;paint-order:markers stroke fill" transform="translate(.182 4.892)"/><path d="M28.268 63.046s3.196-1.416 4.069 1.743c0 0 .914 3.682-2.625 3.89 0 0-4.513-.87-1.444-5.633" style="fill-rule:nonzero;stroke-width:.050453;stroke-linecap:square;paint-order:markers stroke fill" transform="translate(.182 4.892)"/><path d="M29.873 64.412c0 .819-.483 1.483-1.079 1.483-.595 0-1.078-.664-1.078-1.483s.483-1.484 1.078-1.484 1.08.664 1.08 1.484" style="fill:#fff;fill-rule:nonzero;stroke-width:.050453;stroke-linecap:square;paint-order:markers stroke fill" transform="translate(.182 4.892)"/><path d="m32.363 69.966 4.076-.327s-.138.657-.67 1.15c0 0-1.402 1.536-3.01-.129 0 0-.263-.284-.396-.694" style="fill-rule:nonzero;stroke-width:.050453;stroke-linecap:square;paint-order:markers stroke fill" transform="translate(.182 4.892)"/><path d="M16.04 66.193q-.05.001-.1.005c-1.323-.3-5.043-1.27-6.026-2.843 0 0 5.006-5.695-2.819-9.335l.911 6.3s-2.412-1.611-2.932-5.113c0 0-5.874 4.263 2.592 8.349 0 0 .768 2.885 8.14 5.187l.006-.022q.111.022.228.022c.697 0 1.262-.57 1.262-1.275 0-.704-.565-1.275-1.262-1.275" style="fill:#f74c00;fill-rule:nonzero;stroke-width:.050453;stroke-linecap:square;paint-order:markers stroke fill" transform="translate(.182 4.892)"/></svg>