<svg xmlns="http://www.w3.org/2000/svg" viewBox="0 0 400 400"><path d="M0 200V0h400v400H0zm106 79.4c0-24.9.1-26.6 1.8-25.9a115 115 0 0 0 46.2 4.7c26.6-5 39.4-24.5 39.4-60.2 0-37.2-13.6-57.6-41.6-62-21-3.3-66.8 2.7-71 9.3-.5.7-.8 37.1-.8 81v79.8h26zm14.5-39.8c-3.3-.8-7.8-2-10-2.8l-4-1.5-.5-77 3.8-1.6c18.3-7.3 42.8-4.4 50.7 6 12 15.7 11.5 57.6-.8 71-5.4 5.9-26 9-39.2 5.8zm116-34.1.5-50 8.5-1.8c12-2.5 29.9-2 35.5 1 12.1 6.4 12.9 9.7 13.3 59.6l.4 40.8h24.8v-40.8c-.1-43.9-.6-51.7-4-58.8-10.3-21.1-45.2-26.8-94.8-15.4l-9.2 2.1v114l24.5-.5z"/></svg>