<svg xmlns="http://www.w3.org/2000/svg" xmlns:xlink="http://www.w3.org/1999/xlink" xml:space="preserve" width="1400mm" height="1393.543" viewBox="0 0 1400 368.708"><path fill="#d91404" d="M55.568 166.945c-26.88 17.323-53.516 34.49-80.855 52.103l122.16 16.678zm52.865-76.654c-3.61 5.418-7.226 10.833-10.83 16.255a96165 96165 0 0 0-37.119 55.874c-.689 1.04-1.58 1.864-.611 3.462 11.95 19.73 23.803 39.522 35.685 59.292 1.875 3.122 3.772 6.233 6.198 9.229l7.205-143.956ZM-54.68 151.809c.56.53 1.956.836 2.603.518 11.462-5.634 22.996-11.141 34.209-17.24 3.653-1.984 6.462-5.548 9.614-8.436 10.43-9.564 20.84-19.15 31.252-28.737.638-.589 1.39-1.157 1.773-1.9 3.738-7.308 7.41-14.65 11.216-22.21-4.538-1.7-8.838-3.37-13.19-4.889-.591-.206-1.52.204-2.165.562-10.076 5.63-20.341 10.958-30.1 17.098-4.882 3.07-8.86 7.596-13.184 11.54-6.963 6.359-13.923 12.732-20.789 19.202a35.7 35.7 0 0 0-4.9 5.743c-4.697 6.836-9.25 13.77-14.016 20.905 2.667 2.759 5.087 5.393 7.677 7.844m41.888-9.348c-5.699 24.087-11.37 48.036-17.225 72.774l80.936-52.15zm45.433-40.448 23.344 56.782c15.238-22.888 30.172-45.325 45.446-68.273zm-44.476 35.521c20.893 6.785 41.372 13.432 62.442 20.271-7.825-19.064-15.382-37.46-23.096-56.248zm-41.981 28.32-21.855 52.241 41.622-1.23c-6.591-17.01-13.053-33.688-19.767-51.01m20.262 38.897.516-.113c4.996-20.78 10.066-41.417 15.17-63.007l-33.393 17.354c5.69 14.797 11.761 30.4 17.707 45.766M93.033 87.153c-6.648-1.76-13.289-3.528-19.943-5.276-9.556-2.511-19.12-4.995-28.672-7.532-1.192-.316-2.057-.522-2.759.916-3.374 6.916-6.857 13.782-10.286 20.67-.106.214-.085.493-.167 1.024l61.814-9.367zM54.476 71.42c17.849 4.94 35.698 9.877 54.171 14.986l-8.95-25.503-45.14 10.01zm16.399 165.11-44.443-6.068c-18.461-2.52-36.889-5.293-55.39-7.425-6.71-.772-13.6-.063-20.403.055-5.59.096-11.18.308-16.77.484-.576.016-1.15.133-1.722.751 46.21 4.274 92.423 8.545 138.63 12.82zm-145.633-34.38c5.958-13.817 11.884-27.644 17.863-41.449.6-1.388.556-2.326-.615-3.439-2.503-2.382-4.825-4.948-7.561-7.79l-10.904 53.826.401.192c.277-.445.612-.862.816-1.34M42.61 67.773c10.043-2.592 20.232-4.615 30.36-6.876.653-.148 1.294-.364 1.939-.55l-.098-.495-43.517 5.853c4.089 1.787 7.237 3.12 11.317 2.068z" style="fill:#000;fill-opacity:1;stroke-width:2.08056" transform="translate(455.195 35.854)"/><g transform="translate(914.014 184.354)scale(2.03364)"><path stroke="#000" stroke-linejoin="round" d="M-8.5-14.5h13c8 0 8 8 0 8h-13Zm-31 37h40v-11h-9v-8h10c11 0 5 19 14 19h25v-19h-6v2c0 8-9 7-10 2s-5-9-6-9c15-8 6-24-6-24h-47v11h10v26h-15z"/><g mask="url(#a)"><circle r="43" fill="none" stroke="#000" stroke-width="9"/><path id="b" stroke="#000" stroke-linejoin="round" stroke-width="3" d="m51 0-5-3v6z"/><use xlink:href="#b" transform="rotate(11.25)"/><use xlink:href="#b" transform="rotate(22.5)"/><use xlink:href="#b" transform="rotate(33.75)"/><use xlink:href="#b" transform="rotate(45)"/><use xlink:href="#b" transform="rotate(56.25)"/><use xlink:href="#b" transform="rotate(67.5)"/><use xlink:href="#b" transform="rotate(78.75)"/><use xlink:href="#b" transform="rotate(90)"/><use xlink:href="#b" transform="rotate(101.25)"/><use xlink:href="#b" transform="rotate(112.5)"/><use xlink:href="#b" transform="rotate(123.75)"/><use xlink:href="#b" transform="rotate(135)"/><use xlink:href="#b" transform="rotate(146.25)"/><use xlink:href="#b" transform="rotate(157.5)"/><use xlink:href="#b" transform="rotate(168.75)"/><use xlink:href="#b" transform="scale(-1)"/><use xlink:href="#b" transform="rotate(-168.75)"/><use xlink:href="#b" transform="rotate(-157.5)"/><use xlink:href="#b" transform="rotate(-146.25)"/><use xlink:href="#b" transform="rotate(-135)"/><use xlink:href="#b" transform="rotate(-123.75)"/><use xlink:href="#b" transform="rotate(-112.5)"/><use xlink:href="#b" transform="rotate(-101.25)"/><use xlink:href="#b" transform="rotate(-90)"/><use xlink:href="#b" transform="rotate(-78.75)"/><use xlink:href="#b" transform="rotate(-67.5)"/><use xlink:href="#b" transform="rotate(-56.25)"/><use xlink:href="#b" transform="rotate(-45)"/><use xlink:href="#b" transform="rotate(-33.75)"/><use xlink:href="#b" transform="rotate(-22.5)"/><use xlink:href="#b" transform="rotate(-11.25)"/><path id="c" stroke="#000" stroke-linejoin="round" stroke-width="6" d="m0-35 7-7H-7z"/><use xlink:href="#c" transform="rotate(72)"/><use xlink:href="#c" transform="rotate(144)"/><use xlink:href="#c" transform="rotate(-144)"/><use xlink:href="#c" transform="rotate(-72)"/></g><mask id="a"><path fill="#fff" d="M-60-60H60V60H-60z"/><circle id="d" cx="0" cy="-40" r="3"/><use xlink:href="#d" transform="rotate(72)"/><use xlink:href="#d" transform="rotate(144)"/><use xlink:href="#d" transform="rotate(-144)"/><use xlink:href="#d" transform="rotate(-72)"/></mask></g><path d="M403.624-481.835v143.852m71.926-71.926H331.698" style="fill:none;stroke:#000;stroke-width:25;stroke-linecap:butt;stroke-linejoin:miter;stroke-dasharray:none;stroke-opacity:1" transform="translate(282.079 594.263)"/></svg>