<svg xmlns="http://www.w3.org/2000/svg" width="654.249" height="767.753" viewBox="0 0 112.4 131.858"><title>logotype-full-color</title><path d="m36-.021-11.6 13.1s-10.1-2.8-14.9 2-8.7 9-8.7 9l3.1 7.6-3.9 11.2s11.6 43.8 12.9 49.2c2.7 10.5 4.5 14.6 12.1 20s21.3 14.6 23.6 16c2.2 1.4 5.1 3.8 7.6 3.8s5.3-2.4 7.6-3.8c2.2-1.4 16-10.7 23.6-16s9.4-9.4 12.1-20c1.4-5.4 12.9-49.2 12.9-49.2l-4-11.3 3.1-7.6s-3.9-4.2-8.7-9-14.9-2-14.9-2l-11.5-13zm19.9 20.2s2.2 0 5.6 1.1 7 2.5 8.7 2.5 14.5-2.4 14.5-2.4 14.8 17.9 14.8 21.8-1.9 4.8-3.8 6.8-10.1 10.7-11.1 11.8c-1.1 1.1-3.2 2.8-2 5.9 1.3 3 3.2 6.9 1.1 10.9-2.1 3.9-5.7 6.6-8 6.1-2.3-.4-7.8-3.3-9.8-4.6s-8.3-6.5-8.3-8.5 6.6-5.6 7.8-6.4 6.7-4 6.8-5.2.1-1.6-1.6-4.7c-1.6-3.1-4.6-7.2-4.1-9.9s5.2-4.1 8.6-5.4 9.9-3.7 10.7-4.1.6-.7-1.9-1c-2.5-.2-9.4-1.2-12.6-.3s-8.5 2.2-9 2.9c-.4.7-.8.7-.4 3.2.4 2.4 2.8 14.2 3 16.3s.7 3.5-1.6 4c-2.2.5-6 1.4-7.3 1.4s-5.1-.9-7.3-1.4-1.8-1.9-1.6-4 2.5-13.8 3-16.3c.4-2.4.1-2.5-.4-3.2-.4-.7-5.8-2-9-2.9s-10.1 0-12.6.3c-2.5.2-2.7.6-1.9 1s7.3 2.8 10.7 4.1 8.1 2.7 8.6 5.4-2.4 6.8-4.1 9.9c-1.6 3.1-1.7 3.4-1.6 4.7.1 1.2 5.6 4.4 6.8 5.2s7.8 4.4 7.8 6.4-6.3 7.2-8.3 8.5-7.4 4.1-9.8 4.6c-2.3.4-5.9-2.2-8-6.1s-.2-7.8 1.1-10.9c1.3-3-.9-4.7-2-5.9-1.1-1.1-9.2-9.8-11.1-11.8s-3.7-3-3.7-6.8 14.8-21.8 14.8-21.8 12.5 2.4 14.2 2.4 5.3-1.4 8.7-2.5 5.6-1.1 5.6-1.1m.3 61.8c.8 0 5.7 1.7 9.7 3.8 3.9 2.1 6.8 3.6 7.7 4.1.9.6.4 1.7-.5 2.2-.8.6-12.1 9.3-13.1 10.3-1.1 1-2.7 2.5-3.8 2.5s-2.7-1.6-3.8-2.5c-1.1-1-12.3-9.7-13.1-10.3s-1.4-1.7-.5-2.2c.9-.6 3.8-2 7.7-4.1 4-2.1 8.9-3.8 9.7-3.8"/><path d="M87.9 13.079 76.4-.021H36l-11.6 13.1s-10.1-2.8-14.9 2c0 0 13.5-1.2 18.1 6.3 0 0 12.5 2.4 14.2 2.4s5.3-1.4 8.7-2.5 5.6-1.1 5.6-1.1 2.2 0 5.6 1.1 7 2.5 8.7 2.5 14.2-2.4 14.2-2.4c4.6-7.5 18.1-6.3 18.1-6.3-4.7-4.8-14.8-2-14.8-2"/></svg>