<svg xmlns="http://www.w3.org/2000/svg" xml:space="preserve" width="500" height="500" viewBox="0 0 132.292 132.292"><path d="M91.28 9.21c3.349-.435 7.12-.006 10.155 1.511 9.333 4.666 12.05 16.694 6.154 25.076-1.313 1.866-3.04 3.443-4.988 4.627-2.092 1.27-4.4 2.019-6.826 2.317-12.517 1.537-21.903-11.378-17.696-22.926 1.185-3.254 3.591-5.966 6.376-7.964 1.963-1.408 4.433-2.33 6.826-2.642m-16.647 1.783c-1.523 2.467-3.173 4.823-3.97 7.658a41 41 0 0 0-.922 3.995c-.086.49.045 1.33-.274 1.731-.424.536-2.331.34-2.991.405-2.728.273-5.348.827-7.991 1.552-5.663 1.552-11.359 4.819-15.648 8.813-1.612 1.5-3.144 3.099-4.528 4.812-.443.55-1.125 1.885-1.829 2.09-.893.26-3.067-1.347-3.964-1.686-2.866-1.082-6.75-2.3-9.822-1.569l-.167-.166c1.459-3.485 4.161-6.68 6.633-9.49 7.934-9.012 19.097-15.1 30.823-17.445 3.429-.686 6.835-.866 10.321-.866 1.384 0 2.997-.227 4.329.166m41.95 24.638c2.072 4.381 4.695 8.29 6.155 12.985 4.063 13.06 3.536 27.227-2.016 39.786-1.74 3.937-4.032 8.61-7.135 11.653-1.294-2.922-2.168-5.737-4.164-8.324-.774-1.002-1.567-1.948-2.495-2.815-.397-.37-1.082-.772-1.186-1.349-.211-1.175 1.716-3.554 2.208-4.658 1.564-3.513 2.7-7.18 3.26-10.987.861-5.841.449-11.982-1.24-17.646-.8-2.687-2.279-5.155-3.042-7.824 4.14-2.794 7.143-6.341 9.322-10.82zM22.528 45.998c11.836-1.397 20.52 11.108 17.307 21.926C37.8 74.78 31.685 78.89 24.86 79.697 12.115 81.206 3.36 66.875 8.285 55.773c2.578-5.81 8.174-9.058 14.243-9.774m11.32 38.906c5.163 11.98 19.129 20.961 31.963 21.974.133 3.101.752 6.321 2.049 9.156.786 1.719 2.118 3.253 2.778 4.994-21.439 0-44.128-13.303-51.272-34.293l6.325.305zm53.77 4.709c2.594-.319 5.513-.156 7.99.677a16.3 16.3 0 0 1 5.66 3.299c10.726 9.652 5.087 27.833-9.321 29.556-1.99.238-4.052.016-5.993-.418-1.98-.442-3.837-1.324-5.494-2.485-9.828-6.883-9.328-21.346.333-28.081 1.987-1.386 4.425-2.253 6.825-2.548" style="fill:#000;fill-opacity:1;stroke:none;stroke-width:.629178"/></svg>