<?xml version="1.0" encoding="UTF-8" standalone="no"?>
<svg xmlns="http://www.w3.org/2000/svg" viewBox="0 0 900 473.684">
   <path fill="#fff" fill-opacity=".501" stroke="#000" stroke-linecap="square" stroke-miterlimit="1000" stroke-width="6" d="M77.86 61.79h243.68v65.541H77.86z" paint-order="fill markers stroke"/>
   <path d="M548.764 216.678q-.848 0-1.744-.283-.849-.235-1.462-.848t-.895-1.462q-.236-.849-.236-1.744 0-.849.236-1.698.282-.895.895-1.508t1.462-.849q.896-.283 1.744-.283.849 0 1.698.283.895.236 1.508.849t.849 1.508q.283.85.283 1.698 0 .895-.283 1.744-.236.849-.849 1.462t-1.508.848q-.85.283-1.698.283zm15.323-.377v-4.149h6.223v-16.69h-5.563v-4.148h10.277v20.838h5.564v4.149zm8.25-28.759q-.707 0-1.414-.189-.707-.235-1.226-.707-.472-.518-.707-1.226-.189-.707-.189-1.414t.189-1.414q.236-.708.707-1.179.519-.519 1.226-.707.707-.236 1.414-.236t1.414.236q.708.188 1.18.707.518.471.706 1.179.236.707.236 1.414t-.236 1.414q-.188.708-.707 1.226-.471.472-1.179.707-.707.189-1.414.189zm26.637 29.136q-1.178 0-2.357-.283-1.131-.283-2.074-.943-.943-.707-1.65-1.697-.66-.99-1.038-2.074-.377-1.132-.518-2.31-.142-1.18-.142-2.358v-11.55h-4.761v-4.15h4.761v-9.664h4.715v9.665h7.025v4.148h-7.025v11.551q0 .566.047 1.179.047.566.142 1.179.14.565.33 1.131.188.519.518.99.377.472.896.754.566.283 1.131.283.519 0 .99-.188.52-.189.85-.519.376-.377.612-.849.236-.471.33-.942.141-.519.189-1.038.094-.518.094-1.037v-.236h4.714v.472q0 1.084-.188 2.169-.189 1.084-.66 2.074-.424.99-1.132 1.839-.707.848-1.65 1.414-.896.566-1.98.754-1.084.236-2.169.236zm20.603 0q-1.273 0-2.593-.236-1.273-.235-2.404-.848-1.132-.613-2.028-1.556-.895-.99-1.461-2.122-.519-1.178-.754-2.451-.19-1.32-.19-2.593v-6.13q0-1.272.19-2.545.235-1.273.754-2.452.566-1.178 1.414-2.121.896-.99 2.027-1.603 1.132-.613 2.405-.849t2.546-.236q1.273 0 2.546.236t2.404.849q1.132.613 1.98 1.603.896.943 1.415 2.121.565 1.179.754 2.452.236 1.273.236 2.546v5.139H614.91v.99q0 1.037.188 2.074.236 1.037.849 1.886t1.603 1.273q.99.424 2.027.424.754 0 1.509-.141.754-.189 1.367-.613.66-.424 1.037-1.084.425-.708.472-1.462h4.761q-.094 1.084-.471 2.169-.33 1.037-.943 1.933-.613.896-1.509 1.556-.895.66-1.933 1.084-.99.424-2.121.566-1.085.141-2.169.141zm-4.667-14.945h9.146v-.99q0-1.037-.236-2.027-.188-1.038-.801-1.886-.566-.849-1.556-1.273-.943-.472-1.98-.472t-2.027.472q-.943.424-1.556 1.273-.566.848-.802 1.886-.188.99-.188 2.027zm21.97 14.568v-24.987h4.761v5.563q.283-1.084.707-2.122.425-1.037 1.132-1.886.707-.895 1.744-1.414 1.038-.519 2.17-.519.848 0 1.696.283.896.236 1.556.849.66.566 1.084 1.367.425.802.613 1.65.236.849.33 1.745.095.848.095 1.744h-4.762q0-.613-.094-1.179-.047-.612-.33-1.131-.283-.566-.849-.849-.519-.33-1.084-.33-.849 0-1.556.472-.707.424-1.179 1.131-.424.707-.66 1.509-.235.801-.377 1.603-.142.801-.189 1.65-.047.802-.047 1.603v13.248zm36.915 7.59q-2.075-1.084-3.913-2.64-1.792-1.508-3.253-3.347-1.415-1.839-2.5-3.96-1.036-2.122-1.696-4.385-.613-2.263-.896-4.573-.283-2.357-.283-4.715 0-2.357.283-4.667.283-2.357.896-4.62.66-2.263 1.697-4.385 1.084-2.121 2.499-3.96 1.461-1.839 3.253-3.348 1.838-1.555 3.913-2.64l2.263 3.63q-2.546 1.462-4.573 3.678-1.98 2.216-3.254 4.903-1.225 2.64-1.744 5.563-.471 2.923-.471 5.846t.471 5.846q.519 2.923 1.744 5.61 1.273 2.641 3.254 4.857 2.027 2.216 4.573 3.677zm9.24 0-2.263-3.63q2.546-1.461 4.526-3.677 2.027-2.216 3.253-4.856 1.273-2.688 1.745-5.61.518-2.924.518-5.847 0-2.923-.518-5.846-.472-2.923-1.745-5.563-1.226-2.687-3.253-4.903-1.98-2.216-4.526-3.677l2.263-3.63q2.075 1.084 3.866 2.64 1.839 1.508 3.253 3.347 1.462 1.839 2.499 3.96 1.084 2.122 1.697 4.385.66 2.263.943 4.62.283 2.31.283 4.667 0 2.358-.283 4.715-.283 2.31-.943 4.573-.613 2.263-1.697 4.385-1.037 2.121-2.499 3.96-1.414 1.839-3.253 3.347-1.791 1.556-3.866 2.64z" aria-label=".iter()" font-family="Iosevka" font-size="10.583" font-weight="600" style="line-height:1.25;-inkscape-font-specification:&quot;Iosevka, Semi-Bold&quot;" transform="translate(-205.355 -104.095)"/>
   <path d="M553.806 309.108q-.849 0-1.745-.283-.848-.236-1.461-.848-.613-.613-.896-1.462-.236-.849-.236-1.744 0-.849.236-1.698.283-.895.896-1.508t1.461-.849q.896-.283 1.745-.283.849 0 1.697.283.896.236 1.509.849.613.613.848 1.508.283.849.283 1.698 0 .895-.283 1.744-.235.849-.848 1.462-.613.612-1.509.848-.848.283-1.697.283zm19.707-.377v-19.613h-5.092v-4.149h5.092v-3.347q0-.99.094-1.98.142-.99.519-1.886.377-.943.99-1.745.613-.801 1.461-1.32.849-.565 1.792-.754.99-.236 1.98-.236 1.367 0 2.687.424 1.367.425 2.31 1.415.943.99 1.368 2.31.471 1.32.471 2.687v.424h-4.762v-.188q0-.472-.094-.99-.094-.52-.33-.943-.236-.472-.707-.708-.424-.282-.943-.282-.566 0-1.037.424-.472.424-.707.99-.236.565-.33 1.178-.048.566-.048 1.179v3.347h7.214v4.15h-7.214v19.612zm19.188 0v-4.15h6.223v-16.689h-5.563v-4.149h10.278v20.839h5.563v4.149zm8.25-28.76q-.707 0-1.414-.188-.707-.235-1.226-.707-.471-.519-.707-1.226-.188-.707-.188-1.414t.188-1.414q.236-.708.707-1.18.519-.518 1.226-.706.707-.236 1.415-.236.707 0 1.414.236.707.188 1.179.707.518.471.707 1.179.236.707.236 1.414t-.236 1.414q-.189.707-.707 1.226-.472.471-1.179.707-.707.189-1.414.189zm15.323 28.76v-4.15h6.223v-26.354h-5.563v-4.149h10.278v30.504h5.563v4.149zm34.888.377q-1.179 0-2.358-.283-1.131-.283-2.074-.943-.943-.707-1.65-1.697-.66-.99-1.037-2.074-.378-1.132-.519-2.31-.142-1.18-.142-2.358v-11.55h-4.761v-4.15h4.761v-9.664h4.715v9.665h7.025v4.148h-7.025v11.551q0 .566.047 1.179.047.566.141 1.178.142.566.33 1.132.189.519.52.99.376.471.895.754.566.283 1.131.283.52 0 .99-.188.52-.189.85-.519.376-.377.612-.849.236-.471.33-.942.141-.519.189-1.038.094-.518.094-1.037v-.235h4.715v.471q0 1.084-.189 2.169-.188 1.084-.66 2.074-.424.99-1.131 1.839-.708.848-1.65 1.414-.896.566-1.98.754-1.085.236-2.17.236zm20.602 0q-1.272 0-2.593-.236-1.273-.235-2.404-.848-1.132-.613-2.027-1.556-.896-.99-1.462-2.122-.518-1.178-.754-2.451-.189-1.32-.189-2.593v-6.13q0-1.272.189-2.545.235-1.273.754-2.452.566-1.178 1.415-2.121.895-.99 2.027-1.603 1.131-.613 2.404-.849 1.273-.235 2.546-.235t2.546.235q1.273.236 2.404.849 1.132.613 1.98 1.603.896.943 1.415 2.121.566 1.179.754 2.452.236 1.273.236 2.546v5.139h-13.908v.99q0 1.037.188 2.074.236 1.037.849 1.886t1.603 1.273q.99.424 2.027.424.755 0 1.509-.142.754-.188 1.367-.613.66-.424 1.037-1.084.424-.707.472-1.461h4.762q-.095 1.084-.472 2.168-.33 1.038-.943 1.933-.613.896-1.508 1.556-.896.66-1.933 1.084-.99.425-2.122.566-1.084.142-2.169.142zm-4.667-14.945h9.146v-.99q0-1.038-.235-2.028-.189-1.037-.802-1.885-.566-.849-1.556-1.273-.943-.472-1.98-.472t-2.027.472q-.943.424-1.556 1.273-.566.848-.801 1.885-.189.99-.189 2.028zm21.97 14.568v-24.987h4.762v5.563q.282-1.085.707-2.122.424-1.037 1.131-1.886.707-.895 1.745-1.414 1.037-.519 2.168-.519.849 0 1.698.283.895.236 1.555.849.66.566 1.085 1.367.424.802.613 1.65.235.849.33 1.745.094.848.094 1.744h-4.761q0-.613-.095-1.179-.047-.613-.33-1.131-.283-.566-.849-.849-.518-.33-1.084-.33-.849 0-1.556.472-.707.424-1.178 1.131-.425.707-.66 1.509-.236.801-.378 1.603-.141.801-.188 1.65-.047.801-.047 1.603v13.248zm36.915 7.59q-2.074-1.084-3.913-2.64-1.792-1.508-3.253-3.347-1.415-1.839-2.499-3.96-1.037-2.122-1.697-4.385-.613-2.263-.896-4.573-.283-2.357-.283-4.715 0-2.357.283-4.667.283-2.358.896-4.62.66-2.263 1.697-4.385 1.084-2.122 2.499-3.96 1.461-1.839 3.253-3.348 1.839-1.555 3.913-2.64l2.263 3.63q-2.546 1.462-4.573 3.678-1.98 2.216-3.253 4.903-1.226 2.64-1.745 5.563-.471 2.923-.471 5.846t.471 5.846q.519 2.923 1.745 5.61 1.273 2.64 3.253 4.857 2.027 2.216 4.573 3.677zm174.25 0-2.263-3.63q2.546-1.461 4.527-3.677 2.027-2.216 3.253-4.856 1.273-2.688 1.744-5.61.519-2.924.519-5.847 0-2.923-.519-5.846-.471-2.923-1.744-5.563-1.226-2.687-3.253-4.903-1.98-2.216-4.527-3.678l2.264-3.63q2.074 1.085 3.865 2.64 1.84 1.509 3.254 3.348 1.461 1.838 2.498 3.96 1.085 2.122 1.697 4.384.66 2.263.943 4.62.283 2.311.283 4.668 0 2.358-.283 4.715-.282 2.31-.942 4.573-.613 2.263-1.698 4.385-1.037 2.121-2.498 3.96-1.415 1.839-3.254 3.347-1.791 1.556-3.865 2.64z" aria-label=".filter( )" font-family="Iosevka" font-size="10.583" font-weight="600" style="line-height:1.25;-inkscape-font-specification:&quot;Iosevka, Semi-Bold&quot;" transform="translate(-210.397 -104.095)"/>
   <path fill="#fff" fill-opacity=".498" stroke="#000" stroke-linecap="square" stroke-miterlimit="1000" stroke-width="6" d="M532.736 155.284h140.588v66.645H532.736z" paint-order="fill markers stroke"/>
   <path d="M552.125 398.177q-.848 0-1.744-.283-.849-.236-1.461-.849-.613-.613-.896-1.461-.236-.849-.236-1.745 0-.848.236-1.697.283-.896.896-1.509.612-.613 1.461-.848.896-.283 1.744-.283.85 0 1.698.283.895.235 1.508.848t.849 1.509q.283.849.283 1.697 0 .896-.283 1.745-.236.848-.849 1.461-.613.613-1.508.849-.849.283-1.698.283zm13.673-.378v-24.987h4.196v2.169q.235-.519.565-.99.33-.519.755-.849.471-.377 1.037-.519.566-.188 1.179-.188.707 0 1.367.283.707.236 1.226.754.518.519.801 1.179.33.66.519 1.367.188-.707.471-1.367.33-.66.802-1.179.518-.518 1.178-.754.707-.283 1.415-.283.754 0 1.461.283.707.283 1.179.849.518.518.801 1.225.33.66.519 1.368.188.707.236 1.461.094.707.094 1.462v18.716h-4.196v-18.716q0-.472-.094-.943-.047-.519-.236-.943-.189-.472-.613-.755-.377-.33-.849-.33-.518 0-.943.33-.377.283-.565.755-.189.424-.283.943-.047.471-.047.943v18.716h-4.15v-18.716q0-.472-.093-.943-.047-.519-.236-.943-.189-.472-.613-.755-.377-.33-.896-.33-.471 0-.896.33-.377.283-.565.755-.189.424-.283.943-.047.471-.047.943v18.716zm30.786.378q-.943 0-1.886-.189-.896-.141-1.697-.613-.802-.518-1.415-1.225-.565-.708-.943-1.556-.377-.896-.565-1.792-.142-.943-.142-1.838 0-1.273.283-2.5.33-1.225 1.037-2.215.755-.99 1.792-1.65 1.084-.707 2.216-1.085 1.178-.424 2.404-.565 1.273-.142 2.499-.142h3.3v-2.169q0-.848-.283-1.65-.235-.801-.896-1.367-.612-.566-1.461-.801-.802-.236-1.603-.236-.801 0-1.556.188-.754.142-1.367.613-.613.424-.99 1.132-.33.707-.33 1.461h-4.762q0-1.084.33-2.168.33-1.085.943-1.98.613-.944 1.462-1.604.895-.66 1.933-1.084 1.037-.424 2.121-.566 1.085-.141 2.216-.141 1.132 0 2.263.188 1.179.142 2.216.613 1.084.471 1.98 1.226.896.754 1.462 1.744.612.99.848 2.169.236 1.131.236 2.263v17.161h-4.762v-3.819q-.424.99-1.131 1.839-.708.801-1.65 1.367-.896.519-1.98.754-1.038.236-2.122.236zm1.886-4.15q.99 0 1.933-.282.99-.283 1.697-.896.707-.66 1.037-1.603.33-.943.33-1.933v-2.404h-3.3q-.613 0-1.226.094-.613.047-1.226.189-.565.141-1.131.424-.566.236-1.037.66-.425.424-.66 1.037-.189.566-.189 1.18 0 .706.236 1.46.283.708.801 1.226.566.472 1.273.66.754.189 1.462.189zm15.416 13.437v-34.652h4.762v4.008q.377-.943.943-1.792.613-.849 1.414-1.461.802-.613 1.792-.85.99-.282 2.027-.282 1.132 0 2.263.33 1.132.33 2.027 1.085.896.754 1.462 1.744.613.99.943 2.121.377 1.085.518 2.263.142 1.132.142 2.263v6.13q0 1.13-.142 2.31-.141 1.131-.518 2.263-.33 1.084-.943 2.074-.566.99-1.462 1.744-.895.755-2.027 1.085-1.131.33-2.263.33-1.037 0-2.027-.283-.99-.236-1.792-.849-.801-.613-1.414-1.461-.566-.849-.943-1.792v13.673zm9.005-13.436q1.037 0 1.98-.424.943-.472 1.509-1.32.613-.849.801-1.839.236-1.037.236-2.074v-6.13q0-1.037-.236-2.027-.188-1.037-.801-1.886-.566-.848-1.509-1.272-.943-.472-1.98-.472-.66 0-1.32.189-.66.188-1.179.612-.518.425-.895 1.038-.33.565-.519 1.225-.188.613-.283 1.273-.047.66-.047 1.32v6.13q0 .66.047 1.32.095.66.283 1.32.188.612.519 1.225.377.566.895.99.519.425 1.179.613.66.189 1.32.189zm30.692 11.362q-2.074-1.084-3.913-2.64-1.792-1.509-3.253-3.348-1.415-1.838-2.499-3.96-1.037-2.121-1.697-4.384-.613-2.263-.896-4.574-.283-2.357-.283-4.714t.283-4.668q.283-2.357.896-4.62.66-2.263 1.697-4.384 1.084-2.122 2.499-3.96 1.461-1.84 3.253-3.348 1.839-1.556 3.913-2.64l2.263 3.63q-2.546 1.462-4.573 3.677-1.98 2.216-3.253 4.904-1.226 2.64-1.745 5.563-.471 2.923-.471 5.846t.471 5.846q.519 2.923 1.745 5.61 1.273 2.64 3.253 4.856 2.027 2.216 4.573 3.678zm174.25 0-2.263-3.63q2.546-1.462 4.526-3.678 2.028-2.215 3.254-4.856 1.272-2.687 1.744-5.61.519-2.923.519-5.846t-.52-5.846q-.47-2.923-1.743-5.563-1.226-2.688-3.254-4.904-1.98-2.215-4.526-3.677l2.263-3.63q2.075 1.084 3.866 2.64 1.84 1.509 3.254 3.347 1.461 1.84 2.498 3.96 1.085 2.122 1.697 4.385.66 2.263.943 4.62.283 2.31.283 4.668 0 2.357-.283 4.714-.282 2.31-.943 4.574-.612 2.263-1.697 4.384-1.037 2.122-2.498 3.96-1.415 1.84-3.254 3.348-1.791 1.556-3.866 2.64z" aria-label=".map( )" font-family="Iosevka" font-size="10.583" font-weight="600" style="line-height:1.25;-inkscape-font-specification:&quot;Iosevka, Semi-Bold&quot;" transform="translate(-208.717 -104.095)"/>
   <path fill="#fff" fill-opacity=".498" stroke="#000" stroke-linecap="square" stroke-miterlimit="1000" stroke-width="6" d="M462.152 245.39H602.74v66.645H462.152z" paint-order="fill markers stroke"/>
   <path d="M553.806 499.01q-.849 0-1.745-.284-.848-.235-1.461-.848-.613-.613-.896-1.462-.236-.849-.236-1.744 0-.849.236-1.698.283-.895.896-1.508t1.461-.849q.896-.283 1.745-.283.849 0 1.697.283.896.236 1.509.849.613.613.848 1.508.283.849.283 1.698 0 .895-.283 1.744-.235.849-.848 1.462-.613.612-1.509.848-.848.283-1.697.283zm23.431 0q-1.273 0-2.546-.237-1.225-.235-2.357-.848-1.084-.66-1.98-1.603-.849-.99-1.367-2.122-.519-1.178-.755-2.451-.188-1.273-.188-2.546v-6.13q0-1.272.188-2.545.236-1.273.755-2.404.518-1.18 1.367-2.122.896-.99 1.98-1.603 1.132-.66 2.357-.896 1.273-.235 2.546-.235 1.226 0 2.405.235 1.178.189 2.263.707 1.084.519 1.933 1.368.896.848 1.461 1.933.566 1.037.849 2.215.283 1.18.283 2.358v.094h-4.762v-.047q0-.943-.283-1.792-.236-.895-.848-1.603-.613-.707-1.51-.99-.848-.33-1.79-.33-.99 0-1.934.472-.943.424-1.555 1.273-.566.848-.755 1.886-.188.99-.188 2.027v6.129q0 1.037.188 2.074.189.99.755 1.839.612.849 1.555 1.32.943.424 1.933.424.943 0 1.792-.283.896-.33 1.509-1.037.612-.707.848-1.556.283-.896.283-1.839v-.047h4.762v.095q0 1.178-.283 2.357-.283 1.179-.849 2.263-.565 1.037-1.461 1.886-.849.848-1.933 1.367-1.085.519-2.263.707-1.179.236-2.405.236zm23.715 0q-1.273 0-2.546-.237-1.273-.235-2.405-.848-1.131-.613-2.027-1.556-.849-.99-1.414-2.169-.519-1.178-.755-2.451-.188-1.273-.188-2.546v-6.13q0-1.272.188-2.545.236-1.273.755-2.452.565-1.178 1.414-2.121.896-.99 2.027-1.603 1.132-.613 2.405-.849 1.273-.235 2.546-.235t2.545.235q1.273.236 2.405.849 1.131.613 1.98 1.603.896.943 1.414 2.121.566 1.179.755 2.452.236 1.273.236 2.546v6.129q0 1.273-.236 2.546-.189 1.273-.755 2.451-.518 1.179-1.414 2.169-.849.943-1.98 1.556-1.132.613-2.405.848-1.272.236-2.545.236zm0-4.15q1.037 0 1.98-.424.99-.471 1.556-1.32.612-.849.801-1.839.236-1.037.236-2.074v-6.129q0-1.037-.236-2.027-.189-1.037-.801-1.886-.566-.849-1.556-1.273-.943-.472-1.98-.472-1.038 0-2.028.472-.943.424-1.555 1.273-.566.849-.802 1.886-.189.99-.189 2.027v6.129q0 1.037.189 2.074.236.99.802 1.84.612.848 1.555 1.32.99.423 2.028.423zm15.322 3.772v-4.149h6.223V468.13h-5.563v-4.15h10.278v30.504h5.563v4.149zm23.573 0v-4.149h6.223V468.13h-5.563v-4.15h10.278v30.504h5.563v4.149zm31.917.377q-1.272 0-2.593-.235-1.273-.236-2.404-.849-1.132-.613-2.027-1.556-.896-.99-1.462-2.121-.518-1.18-.754-2.452-.189-1.32-.189-2.593v-6.129q0-1.273.189-2.546.235-1.273.754-2.451.566-1.18 1.415-2.122.895-.99 2.027-1.603 1.131-.613 2.404-.849 1.273-.235 2.546-.235t2.546.235q1.273.236 2.404.849 1.132.613 1.98 1.603.896.943 1.415 2.122.566 1.178.754 2.451.236 1.273.236 2.546v5.139h-13.908v.99q0 1.037.188 2.074.236 1.038.849 1.886.613.849 1.603 1.273.99.424 2.027.424.755 0 1.509-.141.754-.188 1.367-.613.66-.424 1.037-1.084.424-.707.472-1.462h4.762q-.095 1.085-.472 2.169-.33 1.037-.943 1.933-.613.896-1.508 1.556-.896.66-1.933 1.084-.99.424-2.122.566-1.084.141-2.169.141zm-4.667-14.945h9.146v-.99q0-1.037-.235-2.027-.189-1.038-.802-1.886-.566-.849-1.556-1.273-.943-.472-1.98-.472t-2.027.472q-.943.424-1.556 1.273-.566.848-.801 1.886-.189.99-.189 2.027zm28.005 14.945q-1.273 0-2.546-.235-1.226-.236-2.358-.849-1.084-.66-1.98-1.603-.848-.99-1.367-2.122-.519-1.178-.754-2.451-.189-1.273-.189-2.546v-6.129q0-1.273.189-2.546.235-1.273.754-2.404.519-1.179 1.367-2.122.896-.99 1.98-1.603 1.132-.66 2.358-.896 1.273-.235 2.546-.235 1.225 0 2.404.235 1.179.189 2.263.708 1.084.518 1.933 1.367.896.848 1.461 1.933.566 1.037.85 2.216.282 1.178.282 2.357v.094h-4.762v-.047q0-.943-.283-1.791-.235-.896-.848-1.603-.613-.708-1.509-.99-.849-.33-1.791-.33-.99 0-1.933.47-.943.425-1.556 1.274-.566.848-.755 1.886-.188.99-.188 2.027v6.129q0 1.037.188 2.074.189.99.755 1.84.613.848 1.556 1.32.942.423 1.933.423.942 0 1.791-.283.896-.33 1.509-1.037.613-.707.848-1.556.283-.895.283-1.838v-.048h4.762v.095q0 1.178-.283 2.357-.283 1.179-.849 2.263-.565 1.037-1.461 1.886-.849.849-1.933 1.367-1.084.519-2.263.707-1.179.236-2.404.236zm26.778 0q-1.178 0-2.357-.283-1.131-.283-2.074-.943-.943-.707-1.65-1.697-.66-.99-1.038-2.074-.377-1.132-.518-2.31-.142-1.179-.142-2.358v-11.55h-4.762v-4.15h4.762v-9.664h4.715v9.665h7.024v4.149h-7.024v11.55q0 .566.047 1.179.047.566.141 1.179.142.565.33 1.131.189.519.52.99.376.472.895.755.566.282 1.131.282.519 0 .99-.188.52-.188.85-.519.376-.377.612-.848.236-.472.33-.943.142-.519.189-1.037.094-.519.094-1.038v-.235h4.715v.471q0 1.084-.189 2.169-.188 1.084-.66 2.074-.424.99-1.131 1.839-.708.849-1.65 1.414-.896.566-1.98.755-1.085.235-2.17.235zm22.112-20.603q-.849 0-1.745-.235-.848-.283-1.461-.896-.613-.613-.896-1.461-.236-.896-.236-1.745 0-.896.236-1.744.283-.849.896-1.462t1.461-.848q.896-.283 1.745-.283.848 0 1.697.283.896.235 1.509.848.612.613.848 1.462.283.848.283 1.744 0 .849-.283 1.745-.235.848-.848 1.461-.613.613-1.51.896-.848.235-1.696.235zm0 17.067q-.849 0-1.745-.235-.848-.283-1.461-.896-.613-.613-.896-1.462-.236-.848-.236-1.744 0-.849.236-1.697.283-.896.896-1.509.613-.613 1.461-.849.896-.282 1.745-.282.848 0 1.697.282.896.236 1.509.849.612.613.848 1.509.283.848.283 1.697 0 .896-.283 1.744-.235.849-.848 1.462t-1.51.896q-.848.235-1.696.235zm21.97-17.066q-.85 0-1.745-.236-.848-.283-1.461-.896-.613-.613-.896-1.461-.236-.896-.236-1.745 0-.896.236-1.744.283-.849.896-1.462t1.461-.848q.896-.283 1.745-.283.848 0 1.697.283.896.235 1.508.848.613.613.85 1.462.282.848.282 1.744 0 .849-.283 1.745-.236.848-.849 1.461-.612.613-1.508.896-.849.235-1.697.235zm0 17.066q-.85 0-1.745-.235-.848-.283-1.461-.896-.613-.613-.896-1.462-.236-.848-.236-1.744 0-.849.236-1.697.283-.896.896-1.509.613-.613 1.461-.849.896-.282 1.745-.282.848 0 1.697.282.896.236 1.508.849.613.613.85 1.509.282.848.282 1.697 0 .896-.283 1.744-.236.849-.849 1.462-.612.613-1.508.896-.849.235-1.697.235zm31.446-2.216-16.831-8.344v-4.62l16.83-8.345 2.122 3.724-14.19 6.93 14.19 6.93zm172.836 0-2.122-3.724 14.191-6.93-14.19-6.93 2.12-3.725 16.832 8.344v4.62zm38.612 12.966q-2.074-1.085-3.913-2.64-1.791-1.51-3.253-3.348-1.414-1.839-2.499-3.96-1.037-2.122-1.697-4.385-.613-2.263-.896-4.573-.283-2.357-.283-4.715 0-2.357.283-4.667.283-2.357.896-4.62.66-2.263 1.697-4.385 1.085-2.121 2.5-3.96 1.46-1.839 3.252-3.347 1.839-1.556 3.913-2.64l2.263 3.63q-2.546 1.461-4.573 3.677-1.98 2.216-3.253 4.903-1.226 2.64-1.744 5.563-.472 2.923-.472 5.846 0 2.924.472 5.847.518 2.923 1.744 5.61 1.273 2.64 3.253 4.856 2.027 2.216 4.573 3.677zm9.24 0-2.262-3.63q2.546-1.462 4.526-3.678 2.027-2.216 3.253-4.856 1.273-2.687 1.744-5.61.519-2.923.519-5.847 0-2.923-.519-5.846-.471-2.923-1.744-5.563-1.226-2.687-3.253-4.903-1.98-2.216-4.526-3.677l2.263-3.63q2.074 1.084 3.866 2.64 1.838 1.508 3.253 3.347 1.461 1.839 2.499 3.96 1.084 2.122 1.697 4.385.66 2.263.943 4.62.283 2.31.283 4.667 0 2.358-.283 4.715-.283 2.31-.943 4.573-.613 2.263-1.697 4.385-1.038 2.121-2.5 3.96-1.414 1.839-3.252 3.347-1.792 1.556-3.866 2.64z" aria-label=".collect::&lt; &gt;()" font-family="Iosevka" font-size="10.583" font-weight="600" style="line-height:1.25;-inkscape-font-specification:&quot;Iosevka, Semi-Bold&quot;" transform="translate(-210.397 -104.095)"/>
   <path fill="#fff" fill-opacity=".498" stroke="#000" stroke-linecap="square" stroke-miterlimit="1000" stroke-width="6" d="M603.318 345.185h140.588v66.645H603.318z" paint-order="fill markers stroke"/>
</svg>