<svg xmlns="http://www.w3.org/2000/svg" xml:space="preserve" width="500" height="500" viewBox="0 0 132.292 132.292"><path d="M19.488 121.29c-2.442-.268-4.589-1.357-6.405-3.25-2.04-2.126-2.97-4.47-2.951-7.443.008-1.362.417-3.68 8.15-46.181 4.48-24.612 8.251-45.145 8.383-45.631.49-1.805 1.29-3.213 2.613-4.597 1.45-1.515 3.31-2.591 5.295-3.063 1.01-.24 1.246-.241 40.013-.21l38.997.03.822.266c3.115 1.003 5.373 2.921 6.721 5.709.788 1.628 1.028 2.684 1.034 4.54.005 1.544-.034 1.765-6.407 36.742-3.527 19.354-6.44 35.31-6.474 35.458l-.062.268H95.569l.081-.507c.045-.28 2.767-15.28 6.05-33.336s5.967-33.003 5.965-33.217c-.006-.906-.868-1.987-1.79-2.243-.578-.161-64.666-.159-65.246.002-.615.17-1.375.869-1.594 1.465-.224.609-14.412 78.588-14.407 79.187.006.85.805 1.964 1.632 2.279.179.068 15.815.111 40.253.111 21.978 0 39.96.03 39.96.065 0 .086-11 13.473-11.163 13.585-.165.113-74.791.085-75.822-.028M40.395 93.84c-.001-.05.546-3.114 1.216-6.81l1.22-6.722h13.125c11.577 0 13.178-.022 13.568-.185.526-.22.942-.587 1.178-1.04.212-.407.76-3.302.76-4.022.002-.712-.43-1.425-1.092-1.804l-.52-.297-7.407-.066c-7.262-.065-7.426-.071-8.304-.337-3.727-1.129-6.537-4.04-7.476-7.742-.227-.892-.291-1.457-.291-2.546 0-1.268.125-2.086 1.317-8.605.725-3.963 1.454-7.614 1.62-8.113.715-2.142 2.203-4.117 4.065-5.399.796-.547 2.387-1.272 3.453-1.572l.956-.27 17.096-.033 17.096-.033-.646 3.497c-.355 1.924-.923 5.004-1.264 6.844l-.619 3.345-13.391.06-13.392.06-.439.334c-.62.473-.745.784-1.102 2.726-.374 2.03-.35 2.66.124 3.28.69.906.473.883 8.187.888 7.54.004 8.02.042 9.796.766 2.364.965 4.464 2.898 5.59 5.15.73 1.46 1.009 2.6 1.069 4.36l.054 1.613-1.328 7.289c-.73 4.009-1.441 7.638-1.58 8.065-.523 1.61-1.259 2.827-2.482 4.106-1.62 1.695-3.625 2.771-5.914 3.177-.825.146-34.239.181-34.243.036" style="fill:#000;stroke-width:.451599"/></svg>