<?xml version="1.0" encoding="UTF-8" standalone="no"?>
<!-- Created with Inkscape (http://www.inkscape.org/) -->

<svg
   width="500"
   height="500"
   viewBox="0 0 132.29166 132.29167"
   version="1.1"
   id="svg1"
   xml:space="preserve"
   xmlns="http://www.w3.org/2000/svg"
   xmlns:svg="http://www.w3.org/2000/svg"><defs
     id="defs1" /><g
     id="layer1"><path
       style="fill:#000000;stroke-width:0.451599"
       d="m 19.487672,121.29076 c -2.442103,-0.2688 -4.588188,-1.35821 -6.404592,-3.25116 -2.040063,-2.12604 -2.969341,-4.46959 -2.951286,-7.44288 0.0082,-1.36189 0.417228,-3.67889 8.151152,-46.181185 4.478345,-24.611044 8.25026,-45.144976 8.382032,-45.630955 0.489167,-1.804112 1.289757,-3.21222 2.613182,-4.596189 1.449047,-1.515332 3.309472,-2.591599 5.294924,-3.063142 1.010474,-0.239988 1.245898,-0.241226 40.012976,-0.210463 l 38.99653,0.03094 0.82206,0.264854 c 3.11561,1.003782 5.37342,2.921543 6.72181,5.709425 0.78716,1.627504 1.02772,2.684391 1.03347,4.540455 0.005,1.544003 -0.0336,1.76423 -6.40738,36.741819 -3.5267,19.353682 -6.43998,35.30949 -6.47397,35.457354 l -0.0618,0.26884 h -6.82367 -6.82368 l 0.0807,-0.507814 c 0.0444,-0.279296 2.76658,-15.280221 6.04929,-33.335385 3.28271,-18.055167 5.96739,-33.002813 5.96595,-33.216997 -0.006,-0.906029 -0.86843,-1.986909 -1.78966,-2.243242 -0.57867,-0.161013 -64.66721,-0.159066 -65.246946,0.0018 -0.614546,0.170718 -1.374339,0.86898 -1.593852,1.464775 -0.224372,0.608972 -14.411968,78.588836 -14.407371,79.187806 0.0066,0.84896 0.80521,1.96386 1.63207,2.27823 0.179321,0.0682 15.815119,0.11148 40.253373,0.11148 21.978076,0 39.960156,0.029 39.960156,0.0644 0,0.0863 -11.00069,13.47319 -11.16357,13.58506 -0.16458,0.11302 -74.791052,0.0855 -75.82195,-0.0279 z M 40.394914,93.838862 c -0.0014,-0.04929 0.54587,-3.114093 1.216396,-6.810679 l 1.219132,-6.721065 h 13.125714 c 11.576893,0 13.177942,-0.02181 13.568318,-0.184929 0.525517,-0.219576 0.94195,-0.587603 1.177739,-1.040841 0.211529,-0.406602 0.759008,-3.30114 0.760561,-4.021098 0.0014,-0.712298 -0.429887,-1.424786 -1.092391,-1.804065 l -0.519528,-0.297428 -7.40811,-0.0659 c -7.262138,-0.06459 -7.425747,-0.07124 -8.303327,-0.337024 -3.726961,-1.128758 -6.537452,-4.038913 -7.476801,-7.741944 -0.22621,-0.891746 -0.290685,-1.456534 -0.290685,-2.546382 0,-1.26725 0.125301,-2.085811 1.317147,-8.604806 0.724433,-3.962385 1.453666,-7.613315 1.620524,-8.113181 0.714858,-2.141592 2.201938,-4.116521 4.064657,-5.398105 0.796193,-0.547794 2.386765,-1.272357 3.452661,-1.572815 l 0.955886,-0.269447 17.095903,-0.03324 17.0959,-0.03324 -0.64528,3.497694 c -0.3549,1.923731 -0.92373,5.003207 -1.26406,6.843289 l -0.61878,3.345595 -13.391721,0.05974 -13.39172,0.05974 -0.438864,0.334762 c -0.619305,0.472403 -0.745089,0.783348 -1.102521,2.725472 -0.373499,2.029432 -0.349654,2.659215 0.124204,3.28047 0.691019,0.905976 0.473565,0.882412 8.186787,0.887122 7.540319,0.0046 8.020658,0.04218 9.79589,0.766355 2.364907,0.964723 4.464129,2.898552 5.589622,5.149236 0.730293,1.46039 1.009813,2.600137 1.069583,4.361224 l 0.0547,1.613058 -1.328129,7.288619 c -0.730471,4.008742 -1.441667,7.638118 -1.580439,8.065276 -0.522889,1.609558 -1.258435,2.826401 -2.481777,4.105705 -1.620518,1.694652 -3.62499,2.771405 -5.913943,3.176828 -0.824864,0.146101 -34.238849,0.181195 -34.243288,0.03594 z"
       id="path1" /></g></svg>
