<?xml version="1.0" encoding="UTF-8" standalone="no"?>
<svg
   xml:space="preserve"
   width="400"
   height="200"
   style="clip-rule:evenodd;fill-rule:evenodd;stroke-linejoin:round;stroke-miterlimit:1.41421"
   version="1.1"
   id="svg15"
   sodipodi:docname="teaching.svg"
   inkscape:version="1.3 (0e150ed, 2023-07-21)"
   xmlns:inkscape="http://www.inkscape.org/namespaces/inkscape"
   xmlns:sodipodi="http://sodipodi.sourceforge.net/DTD/sodipodi-0.dtd"
   xmlns="http://www.w3.org/2000/svg"
   xmlns:svg="http://www.w3.org/2000/svg"><sodipodi:namedview
   id="namedview15"
   pagecolor="#ffffff"
   bordercolor="#666666"
   borderopacity="1.0"
   inkscape:showpageshadow="2"
   inkscape:pageopacity="0.0"
   inkscape:pagecheckerboard="0"
   inkscape:deskcolor="#d1d1d1"
   inkscape:zoom="0.43240043"
   inkscape:cx="529.60169"
   inkscape:cy="191.9517"
   inkscape:window-width="1728"
   inkscape:window-height="1051"
   inkscape:window-x="0"
   inkscape:window-y="38"
   inkscape:window-maximized="0"
   inkscape:current-layer="svg15" />&#10;    <defs
   id="defs2">&#10;        &#10;    &#10;        &#10;        &#10;    <mask
   maskUnits="userSpaceOnUse"
   id="mask15"><g
     id="g17"><path
       d="M 31.52,18.742 H 99.79 V 63.527 H 31.52 Z"
       style="fill:#ffffff;fill-opacity:1"
       id="path16" /><path
       d="m 4.685,57.781 c -1.667,1.249 -3.345,2.805 -3.718,4.956 -0.486,2.4 1.025,4.703 2.929,6.03 0.653,0.56 1.513,0.881 2.148,1.416 0.521,0.824 1.232,1.512 1.994,2.114 -1.232,1.07 -1.041,3.029 -0.033,4.187 2.216,2.56 4.793,4.783 7.105,7.25 0.657,0.73 1.339,1.604 2.401,1.656 0.532,-0.005 1.45,0.692 1.51,-0.168 0.216,-0.765 0.715,-1.5 0.522,-2.32 0.592,0.183 1.41,0.668 1.106,-0.336 -0.056,-1.377 0.054,-2.811 -0.606,-4.074 0.166,-0.169 1.032,0.239 1.467,0.277 5.791,1.288 11.797,1.555 17.697,1.004 2.791,-0.288 5.562,-0.836 8.22,-1.74 -0.525,1.16 -0.785,2.415 -0.699,3.688 0.061,0.503 -0.158,1.398 0.065,1.674 0.593,-0.188 1.31,-0.533 1.828,-0.626 -0.267,1.2 0.617,2.15 1.096,3.164 0.92,-0.484 2.127,-0.596 2.695,-1.559 1.902,-3.034 4.172,-5.826 6.03,-8.89 0.782,-1.278 0.7,-3.202 -0.654,-4.058 -0.764,-0.253 0.107,-0.695 0.285,-1.078 0.532,-0.806 1.53,-1.117 2.208,-1.794 2.143,-1.7 3.832,-4.29 3.662,-7.116 l 8.566,-12.233 q -3.193,-2.23 -6.384,-4.463 c -2.561,3.646 -5.105,7.29 -7.664,10.938 -2.527,1.114 -5.262,2.515 -6.437,5.175 -0.395,-0.193 -1.194,0.142 -0.86,-0.534 0.329,-1.735 -1.401,-3.425 -3.13,-3.027 -0.427,0.066 -0.071,-0.876 -0.386,-1.205 -0.484,-1.439 -2.33,-2.166 -3.665,-1.436 -0.108,-1.685 -2.003,-2.897 -3.575,-2.267 -0.443,0.221 -0.789,0.612 -0.912,-0.08 -0.768,-1.593 -3.18,-1.876 -4.302,-0.507 -0.256,-0.244 -0.601,-0.774 -1.028,-0.99 -1.24,-0.726 -2.98,-0.251 -3.649,1.03 -1.042,-1.308 -3.25,-1.191 -4.179,0.189 -0.262,0.349 -0.28,1.043 -0.765,0.511 -1.521,-0.9 -3.664,0.218 -3.859,1.962 -0.199,0.25 -0.928,-0.295 -1.377,-0.135 -1.48,0.07 -2.667,1.514 -2.484,2.98 -1.697,-0.545 -3.575,1.02 -3.36,2.783 0.236,0.639 -0.057,0.695 -0.656,0.675 -0.498,-0.057 -1.066,0.776 -1.346,0.463 C 11.206,58.841 8.624,57.61 6.257,56.484 L 4.36,55.54 Z"
       style="fill:#000000;fill-opacity:1;stroke:none;stroke-width:0.209162;stroke-linecap:square;stroke-linejoin:miter;stroke-miterlimit:1000;stroke-dasharray:none;stroke-dashoffset:0;stroke-opacity:1;paint-order:fill markers stroke"
       id="path17" /></g></mask><mask
   maskUnits="userSpaceOnUse"
   id="mask17"><g
     id="g19"><path
       d="M 31.52,18.742 H 99.79 V 63.527 H 31.52 Z"
       style="fill:#ffffff;fill-opacity:1"
       id="path18" /><path
       d="m 4.685,57.781 c -1.667,1.249 -3.345,2.805 -3.718,4.956 -0.486,2.4 1.025,4.703 2.929,6.03 0.653,0.56 1.513,0.881 2.148,1.416 0.521,0.824 1.232,1.512 1.994,2.114 -1.232,1.07 -1.041,3.029 -0.033,4.187 2.216,2.56 4.793,4.783 7.105,7.25 0.657,0.73 1.339,1.604 2.401,1.656 0.532,-0.005 1.45,0.692 1.51,-0.168 0.216,-0.765 0.715,-1.5 0.522,-2.32 0.592,0.183 1.41,0.668 1.106,-0.336 -0.056,-1.377 0.054,-2.811 -0.606,-4.074 0.166,-0.169 1.032,0.239 1.467,0.277 5.791,1.288 11.797,1.555 17.697,1.004 2.791,-0.288 5.562,-0.836 8.22,-1.74 -0.525,1.16 -0.785,2.415 -0.699,3.688 0.061,0.503 -0.158,1.398 0.065,1.674 0.593,-0.188 1.31,-0.533 1.828,-0.626 -0.267,1.2 0.617,2.15 1.096,3.164 0.92,-0.484 2.127,-0.596 2.695,-1.559 1.902,-3.034 4.172,-5.826 6.03,-8.89 0.782,-1.278 0.7,-3.202 -0.654,-4.058 -0.764,-0.253 0.107,-0.695 0.285,-1.078 0.532,-0.806 1.53,-1.117 2.208,-1.794 2.143,-1.7 3.832,-4.29 3.662,-7.116 l 8.566,-12.233 q -3.193,-2.23 -6.384,-4.463 c -2.561,3.646 -5.105,7.29 -7.664,10.938 -2.527,1.114 -5.262,2.515 -6.437,5.175 -0.395,-0.193 -1.194,0.142 -0.86,-0.534 0.329,-1.735 -1.401,-3.425 -3.13,-3.027 -0.427,0.066 -0.071,-0.876 -0.386,-1.205 -0.484,-1.439 -2.33,-2.166 -3.665,-1.436 -0.108,-1.685 -2.003,-2.897 -3.575,-2.267 -0.443,0.221 -0.789,0.612 -0.912,-0.08 -0.768,-1.593 -3.18,-1.876 -4.302,-0.507 -0.256,-0.244 -0.601,-0.774 -1.028,-0.99 -1.24,-0.726 -2.98,-0.251 -3.649,1.03 -1.042,-1.308 -3.25,-1.191 -4.179,0.189 -0.262,0.349 -0.28,1.043 -0.765,0.511 -1.521,-0.9 -3.664,0.218 -3.859,1.962 -0.199,0.25 -0.928,-0.295 -1.377,-0.135 -1.48,0.07 -2.667,1.514 -2.484,2.98 -1.697,-0.545 -3.575,1.02 -3.36,2.783 0.236,0.639 -0.057,0.695 -0.656,0.675 -0.498,-0.057 -1.066,0.776 -1.346,0.463 C 11.206,58.841 8.624,57.61 6.257,56.484 L 4.36,55.54 Z"
       style="fill:#000000;fill-opacity:1;stroke:none;stroke-width:0.209162;stroke-linecap:square;stroke-linejoin:miter;stroke-miterlimit:1000;stroke-dasharray:none;stroke-dashoffset:0;stroke-opacity:1;paint-order:fill markers stroke"
       id="path19" /></g></mask></defs>&#10;    &#10;            &#10;            &#10;        &#10;    &#10;    &#10;    &#10;    &#10;    &#10;    &#10;    &#10;    &#10;    &#10;    &#10;    <g
   id="g20"
   transform="matrix(0.45182145,0,0,0.45182145,21.211637,6.3093649)"><path
     d="M 81.55,40.74 80.198,39.901 A 19,19 0 0 0 80.16,39.508 l 1.162,-1.085 A 0.463,0.463 0 0 0 81.168,37.646 L 79.681,37.09 a 17,17 0 0 0 -0.115,-0.384 l 0.926,-1.288 A 0.465,0.465 0 0 0 80.19,34.686 l -1.568,-0.255 a 12,12 0 0 0 -0.189,-0.353 l 0.66,-1.445 a 0.463,0.463 0 0 0 -0.441,-0.659 l -1.59,0.056 A 13,13 0 0 0 76.81,31.725 l 0.365,-1.55 a 0.464,0.464 0 0 0 -0.56,-0.56 l -1.549,0.365 q -0.15,-0.127 -0.305,-0.252 l 0.055,-1.59 a 0.463,0.463 0 0 0 -0.658,-0.44 l -1.446,0.66 A 17,17 0 0 0 72.36,28.168 L 72.105,26.6 a 0.465,0.465 0 0 0 -0.732,-0.303 l -1.289,0.927 a 14,14 0 0 0 -0.383,-0.116 l -0.556,-1.487 a 0.464,0.464 0 0 0 -0.776,-0.155 l -1.085,1.165 Q 67.088,26.609 66.89,26.592 l -0.838,-1.353 a 0.465,0.465 0 0 0 -0.792,0 l -0.838,1.353 q -0.196,0.017 -0.394,0.039 l -1.084,-1.164 a 0.467,0.467 0 0 0 -0.777,0.154 l -0.556,1.487 q -0.194,0.056 -0.383,0.117 l -1.29,-0.928 a 0.463,0.463 0 0 0 -0.731,0.302 l -0.256,1.569 q -0.177,0.092 -0.353,0.19 l -1.444,-0.66 a 0.463,0.463 0 0 0 -0.659,0.44 l 0.055,1.591 q -0.153,0.124 -0.305,0.252 l -1.549,-0.366 a 0.467,0.467 0 0 0 -0.561,0.56 l 0.366,1.55 q -0.129,0.151 -0.252,0.305 l -1.59,-0.056 a 0.465,0.465 0 0 0 -0.44,0.659 l 0.658,1.446 q -0.096,0.174 -0.188,0.353 l -1.568,0.254 a 0.465,0.465 0 0 0 -0.303,0.732 l 0.927,1.288 q -0.06,0.19 -0.116,0.383 l -1.487,0.557 a 0.465,0.465 0 0 0 -0.154,0.777 l 1.164,1.085 q -0.024,0.195 -0.04,0.393 l -1.353,0.838 a 0.465,0.465 0 0 0 0,0.792 l 1.353,0.837 q 0.016,0.198 0.04,0.395 l -1.164,1.085 a 0.465,0.465 0 0 0 0.154,0.776 l 1.487,0.557 q 0.056,0.192 0.117,0.382 l -0.928,1.29 a 0.465,0.465 0 0 0 0.303,0.73 l 1.568,0.256 q 0.09,0.178 0.189,0.352 l -0.66,1.446 a 0.465,0.465 0 0 0 0.44,0.658 l 1.59,-0.055 q 0.124,0.155 0.253,0.305 l -0.366,1.55 a 0.463,0.463 0 0 0 0.561,0.56 l 1.55,-0.365 q 0.15,0.127 0.304,0.25 l -0.055,1.592 a 0.464,0.464 0 0 0 0.659,0.44 l 1.445,-0.66 q 0.174,0.097 0.353,0.19 l 0.255,1.566 a 0.464,0.464 0 0 0 0.732,0.304 l 1.288,-0.928 q 0.19,0.06 0.383,0.117 l 0.556,1.486 a 0.463,0.463 0 0 0 0.777,0.154 l 1.085,-1.163 q 0.196,0.022 0.394,0.04 l 0.838,1.353 a 0.466,0.466 0 0 0 0.792,0 l 0.837,-1.354 q 0.198,-0.016 0.395,-0.039 l 1.085,1.163 a 0.463,0.463 0 0 0 0.775,-0.154 l 0.557,-1.486 q 0.192,-0.056 0.383,-0.117 l 1.29,0.928 a 0.466,0.466 0 0 0 0.73,-0.304 l 0.257,-1.567 q 0.175,-0.092 0.351,-0.188 l 1.446,0.658 a 0.464,0.464 0 0 0 0.658,-0.44 L 74.761,52.54 q 0.154,-0.122 0.305,-0.25 l 1.55,0.364 a 0.463,0.463 0 0 0 0.56,-0.559 l -0.365,-1.55 q 0.127,-0.15 0.25,-0.305 l 1.592,0.055 a 0.463,0.463 0 0 0 0.44,-0.658 l -0.66,-1.446 q 0.097,-0.174 0.189,-0.352 l 1.567,-0.255 a 0.463,0.463 0 0 0 0.303,-0.731 l -0.926,-1.29 a 18,18 0 0 0 0.115,-0.383 l 1.487,-0.556 a 0.463,0.463 0 0 0 0.154,-0.776 l -1.163,-1.085 0.04,-0.395 1.352,-0.837 a 0.465,0.465 0 0 0 0,-0.792 m -9.055,11.224 a 0.959,0.959 0 0 1 0.401,-1.874 0.959,0.959 0 0 1 -0.402,1.874 z m -0.46,-3.109 A 0.87,0.87 0 0 0 71,49.524 l -0.48,2.243 a 11.7,11.7 0 0 1 -4.864,1.048 c -1.773,0 -3.455,-0.393 -4.965,-1.095 l -0.48,-2.241 a 0.87,0.87 0 0 0 -1.036,-0.672 l -1.979,0.425 a 12,12 0 0 1 -1.023,-1.206 h 9.63 c 0.109,0 0.182,-0.02 0.182,-0.119 v -3.406 c 0,-0.1 -0.073,-0.12 -0.182,-0.12 h -2.816 v -2.16 h 3.046 c 0.278,0 1.487,0.08 1.873,1.625 0.121,0.474 0.387,2.02 0.569,2.515 0.18,0.555 0.918,1.664 1.704,1.664 h 4.798 a 1,1 0 0 0 0.175,-0.017 q -0.5,0.679 -1.091,1.28 z m -13.32,3.062 a 0.959,0.959 0 0 1 -0.402,-1.874 0.959,0.959 0 0 1 0.401,1.875 z M 55.063,37.102 a 0.95736997,0.95736997 0 1 1 -1.75,0.777 0.95736997,0.95736997 0 1 1 1.75,-0.777 M 53.94,39.764 56,38.85 a 0.874,0.874 0 0 0 0.443,-1.153 l -0.424,-0.96 h 1.67 v 7.528 h -3.37 a 11.8,11.8 0 0 1 -0.382,-4.499 z m 9.048,-0.73 v -2.22 h 3.977 c 0.205,0 1.45,0.238 1.45,1.169 0,0.772 -0.955,1.05 -1.74,1.05 z m 14.453,1.997 q 0,0.44 -0.033,0.874 h -1.209 c -0.12,0 -0.169,0.08 -0.169,0.198 v 0.555 c 0,1.308 -0.737,1.592 -1.383,1.664 -0.614,0.069 -1.297,-0.258 -1.38,-0.634 -0.363,-2.04 -0.968,-2.476 -1.923,-3.23 1.185,-0.751 2.418,-1.861 2.418,-3.347 0,-1.604 -1.1,-2.615 -1.85,-3.11 -1.051,-0.693 -2.216,-0.832 -2.53,-0.832 H 56.877 a 11.77,11.77 0 0 1 6.592,-3.721 l 1.474,1.546 a 0.87,0.87 0 0 0 1.234,0.028 l 1.65,-1.577 a 11.8,11.8 0 0 1 8.067,5.745 l -1.129,2.55 a 0.875,0.875 0 0 0 0.443,1.154 l 2.175,0.965 q 0.056,0.579 0.056,1.172 z M 64.944,28.134 a 0.957,0.957 0 0 1 1.354,0.03 0.96,0.96 0 0 1 -0.032,1.356 0.956,0.956 0 0 1 -1.353,-0.032 0.96,0.96 0 0 1 0.031,-1.354 m 11.204,9.016 a 0.95736997,0.95736997 0 1 1 1.75,0.777 0.95736997,0.95736997 0 1 1 -1.75,-0.777"
     style="fill:#000000;fill-opacity:1;stroke:none;stroke-width:1.00727"
     id="path3"
     mask="url(#mask17)"
     transform="matrix(6.1409045,0,0,6.1409045,78.038101,-101.57408)" /><path
     d="m 35.396,20.52 h 60.518 c 1.162,0 2.097,0.936 2.097,2.098 V 59.65 a 2.09,2.09 0 0 1 -2.097,2.097 H 35.396 A 2.09,2.09 0 0 1 33.3,59.65 V 22.618 c 0,-1.162 0.936,-2.097 2.097,-2.097 z"
     style="fill:none;fill-opacity:0.447059;stroke:#000000;stroke-width:1.55815;stroke-linecap:square;stroke-linejoin:round;stroke-dasharray:none;stroke-opacity:1;paint-order:markers stroke fill"
     id="path4"
     mask="url(#mask15)"
     transform="matrix(6.1409045,0,0,6.1409045,78.035031,-101.56768)" /><path
     d="m 432.38208,268.64172 55.73964,-79.60446 19.07417,13.35588 -55.73963,79.60445 z"
     style="fill:#000000;fill-opacity:1;stroke:none;stroke-width:1.2844;stroke-linecap:square;stroke-linejoin:miter;stroke-miterlimit:1000;stroke-dasharray:none;stroke-dashoffset:0;stroke-opacity:1;paint-order:fill markers stroke"
     id="path5" /><path
     d="m 415.3952,331.89594 -3.74595,-7.74368 q 0.0368,-0.44214 0.0368,-0.88429 c 0,-8.78149 -9.13152,-16.8752 -24.50221,-23.36 v 5.39172 a 110.53628,110.53628 0 0 0 -4.67936,-1.73174 v -2.51777 c -21.95988,-7.92177 -54.64791,-12.93889 -91.16173,-12.93889 -31.902,0 -60.89321,3.83193 -82.34953,10.08337 v 8.75079 -10.59306 c -21.98444,6.98835 -35.61725,16.69712 -35.61725,27.42528 q 0.0123,2.54233 0.99483,4.99255 l -2.23529,3.99159 c 0,0 -1.79928,2.32126 1.36328,7.23399 2.78797,4.32933 16.74625,21.27823 24.11533,30.15184 3.16257,4.55655 5.30574,7.3568 5.49611,7.0866 0.29477,-0.42986 -1.96509,-8.97186 -8.25337,-18.71747 -2.93536,-5.2382 -6.43567,-12.17128 -8.53586,-17.29893 5.8707,3.71524 40.34574,21.08172 110.67752,21.00803 71.87929,-0.0737 103.83041,-22.56782 107.33687,-25.63213 -1.22818,4.91886 -5.41014,14.87941 -8.75079,21.88618 -5.48383,10.00967 -7.47348,18.7359 -7.21556,19.16576 0.15966,0.27634 2.0265,-2.61602 4.7899,-7.29539 6.42339,-9.14995 18.59466,-26.62082 21.02646,-31.07298 2.76341,-5.04782 1.20976,-7.38137 1.20976,-7.38137"
     style="fill:#a52b00;fill-rule:nonzero;stroke-width:0.309827;stroke-linecap:square;paint-order:markers stroke fill"
     id="path7" /><path
     d="M 437.10944,331.85296 412.5274,313.74957 q -0.34389,-1.2159 -0.70007,-2.41337 l 8.07529,-11.69843 a 4.3600422,4.3600422 0 0 0 0.45443,-4.08984 4.114406,4.114406 0 0 0 -3.09501,-2.55462 l -13.65124,-2.32126 a 122.81809,122.81809 0 0 0 -1.64576,-3.19327 l 5.74175,-13.13539 a 4.3600422,4.3600422 0 0 0 -0.31933,-4.10827 3.9915879,3.9915879 0 0 0 -3.5126,-1.87297 l -13.85388,0.50355 a 116.67719,116.67719 0 0 0 -2.1923,-2.76955 l 3.18713,-14.07495 a 4.3600422,4.3600422 0 0 0 -1.0808,-3.96703 3.9301789,3.9301789 0 0 0 -3.80122,-1.12378 l -13.49157,3.31609 q -1.31415,-1.16063 -2.66515,-2.28442 l 0.49127,-14.44955 a 4.2986331,4.2986331 0 0 0 -1.80542,-3.66612 3.9301789,3.9301789 0 0 0 -3.93018,-0.33161 l -12.595,5.98739 a 141.2408,141.2408 0 0 0 -3.07045,-1.71946 l -2.21687,-14.23461 a 4.2372241,4.2372241 0 0 0 -2.45636,-3.23012 3.9301789,3.9301789 0 0 0 -3.91789,0.47285 l -11.22558,8.42532 q -1.65804,-0.55268 -3.34065,-1.05623 l -4.83903,-13.50385 a 4.114406,4.114406 0 0 0 -3.00905,-2.6713 3.9915879,3.9915879 0 0 0 -3.75209,1.26503 l -9.45085,10.5685 q -1.71331,-0.19037 -3.43277,-0.35004 l -7.29539,-12.29409 a 4.052997,4.052997 0 0 0 -3.45119,-2.00193 3.9915879,3.9915879 0 0 0 -3.43891,2.00193 l -7.30767,12.29409 a 122.81809,122.81809 0 0 0 -3.43277,0.35004 l -9.44471,-10.5685 a 3.9731652,3.9731652 0 0 0 -6.75499,1.41241 l -4.85132,13.49771 a 135.0999,135.0999 0 0 0 -3.33451,1.05623 l -11.22557,-8.42532 a 3.9301789,3.9301789 0 0 0 -3.92404,-0.47285 4.2372241,4.2372241 0 0 0 -2.45022,3.23012 l -2.22915,14.24075 q -1.53523,0.83517 -3.06431,1.71332 l -12.58886,-5.98739 a 3.9301789,3.9301789 0 0 0 -3.93017,0.33161 4.2986331,4.2986331 0 0 0 -1.80543,3.66612 l 0.48513,14.44955 q -1.33872,1.12379 -2.66515,2.28442 l -13.49157,-3.31609 a 3.9915879,3.9915879 0 0 0 -3.80122,1.12378 4.3600422,4.3600422 0 0 0 -1.0808,3.96703 l 3.17485,14.07495 q -1.10536,1.36942 -2.18002,2.76341 l -13.85388,-0.49741 a 4.052997,4.052997 0 0 0 -3.51874,1.87297 4.3600422,4.3600422 0 0 0 -0.31319,4.11441 l 5.73561,13.12925 q -0.83516,1.57207 -1.64576,3.19327 l -13.65123,2.32126 a 4.114406,4.114406 0 0 0 -3.09502,2.55462 4.4214512,4.4214512 0 0 0 0.45443,4.08984 l 8.08143,11.69843 -0.18423,0.62023 -22.83188,24.25657 c 0,0 -3.50032,2.74498 1.59663,9.18679 4.489,5.68648 27.55424,28.2236 39.73779,40.03256 5.14608,5.99352 8.67096,9.70263 9.03942,9.3833 0.58338,-0.50969 -2.46865,-11.41594 -12.60728,-24.20744 -7.81123,-11.4835 -17.94986,-29.14474 -15.57333,-31.17738 0,0 2.70199,-3.43276 8.13055,-5.90141 0.20265,0.15353 -0.20265,-0.15966 0,0 0,0 114.50945,52.81792 220.73482,0.89044 12.12828,-2.17388 19.47894,4.32319 19.47894,4.32319 2.53006,1.47382 -4.02843,19.62633 -9.42014,31.64408 -7.33838,13.65123 -8.41304,24.29956 -7.79895,24.66802 0.39916,0.23335 3.07045,-3.82579 6.87781,-10.29216 9.39559,-13.09241 27.15508,-38.04904 30.39748,-44.11012 3.69068,-6.87167 0,-8.79991 0,-8.79991"
     style="fill:#f74c00;fill-rule:nonzero;stroke-width:0.309827;stroke-linecap:square;paint-order:markers stroke fill"
     id="path8" /><path
     d="m 387.04264,325.07954 c 0,0 16.47605,-0.76761 38.1166,-22.76433 l 3.07045,-6.81027 c 0,0 -33.59075,-33.40652 18.62536,-56.47789 0,0 -4.57497,7.47348 -3.23011,36.33573 0,0 15.74528,-5.46541 20.3571,-30.96244 0,0 22.96698,30.27466 -24.93822,58.6702 0,0 -22.47571,36.03483 -54.16277,32.58364 z"
     style="fill:#f74c00;fill-rule:nonzero;stroke-width:0.309827;stroke-linecap:square;paint-order:markers stroke fill"
     id="path9" /><path
     d="m 312.40609,304.32942 c 0,0 11.44051,-12.52744 22.88715,0 0,0 8.99029,16.70326 0,25.05489 0,0 -14.71361,11.69843 -22.88715,0 0,0 -9.80702,-9.18679 0,-25.05489"
     style="fill-rule:nonzero;stroke-width:0.309827;stroke-linecap:square;paint-order:markers stroke fill"
     id="path10" /><path
     d="m 325.65202,308.97809 c 0,4.87588 -2.87394,8.83062 -6.42338,8.83062 -3.54331,0 -6.41725,-3.95474 -6.41725,-8.83062 0,-4.88202 2.87394,-8.8429 6.41725,-8.8429 3.54944,0 6.42338,3.96088 6.42338,8.8429"
     style="fill:#ffffff;fill-rule:nonzero;stroke-width:0.309827;stroke-linecap:square;paint-order:markers stroke fill"
     id="path11" /><path
     d="m 261.33219,300.90894 c 0,0 19.62633,-8.69552 24.98734,10.7036 0,0 5.61279,22.61081 -16.11988,23.88811 0,0 -27.7139,-5.34258 -8.86746,-34.59171"
     style="fill-rule:nonzero;stroke-width:0.309827;stroke-linecap:square;paint-order:markers stroke fill"
     id="path12" /><path
     d="m 271.18834,309.29742 c 0,5.0294 -2.96606,9.10696 -6.62604,9.10696 -3.65383,0 -6.61989,-4.07756 -6.61989,-9.10696 0,-5.02941 2.96606,-9.11311 6.61989,-9.11311 3.65384,0 6.63218,4.07756 6.63218,9.11311"
     style="fill:#ffffff;fill-rule:nonzero;stroke-width:0.309827;stroke-linecap:square;paint-order:markers stroke fill"
     id="path13" /><path
     d="m 286.47919,343.404 25.03033,-2.00808 c 0,0 -0.84745,4.03458 -4.11441,7.06204 0,0 -8.60955,9.43243 -18.48412,-0.79217 0,0 -1.61506,-1.74402 -2.4318,-4.26179"
     style="fill-rule:nonzero;stroke-width:0.309827;stroke-linecap:square;paint-order:markers stroke fill"
     id="path14" /><path
     d="m 186.24121,320.23437 q -0.30705,0.006 -0.61409,0.0307 c -8.12442,-1.84227 -30.96858,-7.79895 -37.00509,-17.45859 0,0 30.74136,-34.97245 -17.31121,-57.32534 l 5.59436,38.68769 c 0,0 -14.81186,-9.89299 -18.00513,-31.39844 0,0 -36.071674,26.17868 15.91722,51.27041 0,0 4.71622,17.71651 49.98697,31.85287 l 0.0368,-0.1351 q 0.68164,0.1351 1.40013,0.1351 c 4.28021,0 7.74982,-3.50031 7.74982,-7.82965 0,-4.3232 -3.46961,-7.82965 -7.74982,-7.82965"
     style="fill:#f74c00;fill-rule:nonzero;stroke-width:0.309827;stroke-linecap:square;paint-order:markers stroke fill"
     id="path15" /></g>&#10;</svg>
