<?xml version="1.0" encoding="UTF-8" standalone="no"?>
<svg
   width="999.99896"
   height="241.323"
   version="1.1"
   id="svg7"
   sodipodi:docname="door.svg"
   inkscape:version="1.3 (0e150ed, 2023-07-21)"
   xmlns:inkscape="http://www.inkscape.org/namespaces/inkscape"
   xmlns:sodipodi="http://sodipodi.sourceforge.net/DTD/sodipodi-0.dtd"
   xmlns="http://www.w3.org/2000/svg"
   xmlns:svg="http://www.w3.org/2000/svg">
  <sodipodi:namedview
     id="namedview7"
     pagecolor="#ffffff"
     bordercolor="#666666"
     borderopacity="1.0"
     inkscape:showpageshadow="2"
     inkscape:pageopacity="0.0"
     inkscape:pagecheckerboard="0"
     inkscape:deskcolor="#d1d1d1"
     inkscape:zoom="0.47485572"
     inkscape:cx="289.56164"
     inkscape:cy="107.40104"
     inkscape:window-width="1728"
     inkscape:window-height="1051"
     inkscape:window-x="0"
     inkscape:window-y="38"
     inkscape:window-maximized="0"
     inkscape:current-layer="svg7" />
  <!-- Define the circles for each state -->
  <!-- Define the labels for each state -->
  <!-- Define the arrows for the transitions -->
  <!-- Define the arrowheads -->
  <defs
     id="defs5">
    <marker
       style="overflow:visible"
       id="marker11"
       refX="0"
       refY="0"
       orient="auto-start-reverse"
       inkscape:stockid="Wide, heavy arrow"
       markerWidth="1"
       markerHeight="1"
       viewBox="0 0 1 1"
       inkscape:isstock="true"
       inkscape:collect="always"
       preserveAspectRatio="xMidYMid">
      <path
         style="fill:context-stroke;fill-rule:evenodd;stroke:none"
         d="m 1,0 -3,3 h -2 l 3,-3 -3,-3 h 2 z"
         id="path11" />
    </marker>
    <marker
       style="overflow:visible"
       id="ArrowWideHeavy"
       refX="0"
       refY="0"
       orient="auto-start-reverse"
       inkscape:stockid="Wide, heavy arrow"
       markerWidth="1"
       markerHeight="1"
       viewBox="0 0 1 1"
       inkscape:isstock="true"
       inkscape:collect="always"
       preserveAspectRatio="xMidYMid">
      <path
         style="fill:context-stroke;fill-rule:evenodd;stroke:none"
         d="m 1,0 -3,3 h -2 l 3,-3 -3,-3 h 2 z"
         id="path3" />
    </marker>
    <inkscape:path-effect
       effect="fillet_chamfer"
       id="path-effect8"
       is_visible="true"
       lpeversion="1"
       nodesatellites_param="F,0,0,1,0,0,0,1 @ F,0,0,1,0,0,0,1"
       radius="0"
       unit="px"
       method="auto"
       mode="F"
       chamfer_steps="1"
       flexible="false"
       use_knot_distance="true"
       apply_no_radius="true"
       apply_with_radius="true"
       only_selected="false"
       hide_knots="false" />
    <marker
       id="arrowhead"
       markerWidth="10"
       markerHeight="7"
       refX="0"
       refY="3.5"
       orient="auto">
      <polygon
         points="0,0 10,3.5 0,7 "
         fill="#333333"
         id="polygon5" />
    </marker>
  </defs>
  <!-- Define the labels for the transitions -->
  <g
     id="g13"
     transform="matrix(1.9008333,0,0,1.9008333,-58.872099,-69.421817)">
    <path
       style="fill:none;stroke:#888888;stroke-width:2.5;stroke-linecap:butt;stroke-linejoin:miter;stroke-dasharray:none;stroke-opacity:1;marker-start:url(#ArrowWideHeavy)"
       d="m 389.3072,102.88909 c 0,0 61.66062,35.67466 60.79855,-4.67079 -0.86206,-40.34545 -61.64779,-2.12311 -61.64779,-2.12311"
       id="path8"
       sodipodi:nodetypes="czc" />
    <path
       d="m 332.96309,61.326275 q -0.378,0 -0.756,-0.084 -0.364,-0.07 -0.686,-0.252 -0.322,-0.196 -0.574,-0.476 -0.238,-0.294 -0.392,-0.63 -0.14,-0.35 -0.196,-0.714 -0.056,-0.378 -0.056,-0.756 v -7.49 h 1.414 v 7.49 q 0,0.196 0.014,0.392 0.028,0.196 0.084,0.392 0.056,0.182 0.154,0.364 0.112,0.168 0.252,0.294 0.154,0.126 0.35,0.182 0.196,0.056 0.392,0.056 0.196,0 0.392,-0.056 0.196,-0.056 0.336,-0.182 0.154,-0.126 0.252,-0.294 0.112,-0.182 0.168,-0.364 0.056,-0.196 0.07,-0.392 0.028,-0.196 0.028,-0.392 v -7.49 h 1.414 v 7.49 q 0,0.378 -0.056,0.756 -0.056,0.364 -0.21,0.714 -0.14,0.336 -0.392,0.63 -0.238,0.28 -0.56,0.476 -0.322,0.182 -0.7,0.252 -0.364,0.084 -0.742,0.084 z m 4.33997,-0.112 v -7.42 h 1.414 v 1.19 q 0.112,-0.28 0.28,-0.532 0.168,-0.252 0.406,-0.42 0.252,-0.182 0.546,-0.266 0.294,-0.084 0.588,-0.084 0.336,0 0.658,0.112 0.336,0.098 0.574,0.322 0.252,0.224 0.42,0.532 0.168,0.294 0.266,0.616 0.098,0.322 0.126,0.658 0.042,0.336 0.042,0.672 v 4.62 h -1.414 v -4.62 q 0,-0.196 -0.028,-0.392 -0.014,-0.196 -0.07,-0.378 -0.056,-0.196 -0.168,-0.364 -0.098,-0.182 -0.252,-0.308 -0.14,-0.126 -0.336,-0.182 -0.196,-0.056 -0.392,-0.056 -0.196,0 -0.392,0.056 -0.196,0.056 -0.35,0.182 -0.14,0.126 -0.252,0.308 -0.098,0.168 -0.154,0.364 -0.056,0.182 -0.084,0.378 -0.014,0.196 -0.014,0.392 v 4.62 z m 7.20998,0 v -1.232 h 1.848 v -7.826 h -1.652 v -1.232 h 3.052 v 9.058 h 1.652 v 1.232 z m 9.44997,0.112 q -0.378,0 -0.756,-0.07 -0.378,-0.07 -0.714,-0.252 -0.336,-0.182 -0.602,-0.462 -0.252,-0.294 -0.42,-0.644 -0.154,-0.35 -0.224,-0.728 -0.056,-0.378 -0.056,-0.756 v -1.82 q 0,-0.378 0.056,-0.756 0.07,-0.378 0.224,-0.728 0.168,-0.35 0.42,-0.63 0.266,-0.294 0.602,-0.476 0.336,-0.182 0.714,-0.252 0.378,-0.07 0.756,-0.07 0.378,0 0.756,0.07 0.378,0.07 0.714,0.252 0.336,0.182 0.588,0.476 0.266,0.28 0.42,0.63 0.168,0.35 0.224,0.728 0.07,0.378 0.07,0.756 v 1.82 q 0,0.378 -0.07,0.756 -0.056,0.378 -0.224,0.728 -0.154,0.35 -0.42,0.644 -0.252,0.28 -0.588,0.462 -0.336,0.182 -0.714,0.252 -0.378,0.07 -0.756,0.07 z m 0,-1.232 q 0.308,0 0.588,-0.126 0.294,-0.14 0.462,-0.392 0.182,-0.252 0.238,-0.546 0.07,-0.308 0.07,-0.616 v -1.82 q 0,-0.308 -0.07,-0.602 -0.056,-0.308 -0.238,-0.56 -0.168,-0.252 -0.462,-0.378 -0.28,-0.14 -0.588,-0.14 -0.308,0 -0.602,0.14 -0.28,0.126 -0.462,0.378 -0.168,0.252 -0.238,0.56 -0.056,0.294 -0.056,0.602 v 1.82 q 0,0.308 0.056,0.616 0.07,0.294 0.238,0.546 0.182,0.252 0.462,0.392 0.294,0.126 0.602,0.126 z m 6.95797,1.232 q -0.378,0 -0.756,-0.07 -0.364,-0.07 -0.7,-0.252 -0.322,-0.196 -0.588,-0.476 -0.252,-0.294 -0.406,-0.63 -0.154,-0.35 -0.224,-0.728 -0.056,-0.378 -0.056,-0.756 v -1.82 q 0,-0.378 0.056,-0.756 0.07,-0.378 0.224,-0.714 0.154,-0.35 0.406,-0.63 0.266,-0.294 0.588,-0.476 0.336,-0.196 0.7,-0.266 0.378,-0.07 0.756,-0.07 0.364,0 0.714,0.07 0.35,0.056 0.672,0.21 0.322,0.154 0.574,0.406 0.266,0.252 0.434,0.574 0.168,0.308 0.252,0.658 0.084,0.35 0.084,0.7 0,0 0,0.014 0,0 0,0.014 h -1.414 q 0,0 0,0 0,-0.014 0,-0.014 0,-0.28 -0.084,-0.532 -0.07,-0.266 -0.252,-0.476 -0.182,-0.21 -0.448,-0.294 -0.252,-0.098 -0.532,-0.098 -0.294,0 -0.574,0.14 -0.28,0.126 -0.462,0.378 -0.168,0.252 -0.224,0.56 -0.056,0.294 -0.056,0.602 v 1.82 q 0,0.308 0.056,0.616 0.056,0.294 0.224,0.546 0.182,0.252 0.462,0.392 0.28,0.126 0.574,0.126 0.28,0 0.532,-0.084 0.266,-0.098 0.448,-0.308 0.182,-0.21 0.252,-0.462 0.084,-0.266 0.084,-0.546 0,0 0,0 0,-0.014 0,-0.014 h 1.414 q 0,0.014 0,0.028 0,0 0,0 0,0.35 -0.084,0.7 -0.084,0.35 -0.252,0.672 -0.168,0.308 -0.434,0.56 -0.252,0.252 -0.574,0.406 -0.322,0.154 -0.672,0.21 -0.35,0.07 -0.714,0.07 z m 4.60598,-0.112 v -10.29 h 1.4 v 6.132 l 2.24,-3.262 h 1.624 l -2.464,3.388 2.464,4.032 h -1.582 l -1.288,-2.086 -0.462,-0.756 -0.532,0.714 v 2.128 z m 9.46397,0.112 q -0.378,0 -0.77,-0.07 -0.378,-0.07 -0.714,-0.252 -0.336,-0.182 -0.602,-0.462 -0.266,-0.294 -0.434,-0.63 -0.154,-0.35 -0.224,-0.728 -0.056,-0.392 -0.056,-0.77 v -1.82 q 0,-0.378 0.056,-0.756 0.07,-0.378 0.224,-0.728 0.168,-0.35 0.42,-0.63 0.266,-0.294 0.602,-0.476 0.336,-0.182 0.714,-0.252 0.378,-0.07 0.756,-0.07 0.378,0 0.756,0.07 0.378,0.07 0.714,0.252 0.336,0.182 0.588,0.476 0.266,0.28 0.42,0.63 0.168,0.35 0.224,0.728 0.07,0.378 0.07,0.756 v 1.526 h -4.13 v 0.294 q 0,0.308 0.056,0.616 0.07,0.308 0.252,0.56 0.182,0.252 0.476,0.378 0.294,0.126 0.602,0.126 0.224,0 0.448,-0.042 0.224,-0.056 0.406,-0.182 0.196,-0.126 0.308,-0.322 0.126,-0.21 0.14,-0.434 h 1.414 q -0.028,0.322 -0.14,0.644 -0.098,0.308 -0.28,0.574 -0.182,0.266 -0.448,0.462 -0.266,0.196 -0.574,0.322 -0.294,0.126 -0.63,0.168 -0.322,0.042 -0.644,0.042 z m -1.386,-4.438 h 2.716 v -0.294 q 0,-0.308 -0.07,-0.602 -0.056,-0.308 -0.238,-0.56 -0.168,-0.252 -0.462,-0.378 -0.28,-0.14 -0.588,-0.14 -0.308,0 -0.602,0.14 -0.28,0.126 -0.462,0.378 -0.168,0.252 -0.238,0.56 -0.056,0.294 -0.056,0.602 z m 7.76997,4.438 q -0.336,0 -0.672,-0.098 -0.336,-0.098 -0.602,-0.322 -0.266,-0.224 -0.448,-0.518 -0.168,-0.294 -0.28,-0.616 -0.098,-0.336 -0.14,-0.672 -0.042,-0.35 -0.042,-0.686 v -1.82 q 0,-0.336 0.042,-0.672 0.042,-0.35 0.14,-0.672 0.112,-0.336 0.28,-0.63 0.182,-0.294 0.448,-0.518 0.266,-0.224 0.602,-0.322 0.336,-0.098 0.672,-0.098 0.308,0 0.602,0.084 0.294,0.07 0.532,0.252 0.238,0.182 0.406,0.434 0.182,0.252 0.294,0.532 v -4.06 h 1.414 v 10.29 h -1.414 v -1.19 q -0.112,0.28 -0.294,0.532 -0.168,0.252 -0.406,0.434 -0.238,0.182 -0.532,0.252 -0.294,0.084 -0.602,0.084 z m 0.574,-1.232 q 0.196,0 0.392,-0.056 0.196,-0.056 0.35,-0.182 0.154,-0.126 0.252,-0.294 0.112,-0.182 0.168,-0.364 0.056,-0.196 0.07,-0.392 0.028,-0.196 0.028,-0.392 v -1.82 q 0,-0.196 -0.028,-0.392 -0.014,-0.196 -0.07,-0.378 -0.056,-0.196 -0.168,-0.364 -0.098,-0.182 -0.252,-0.308 -0.154,-0.126 -0.35,-0.182 -0.196,-0.056 -0.392,-0.056 -0.308,0 -0.588,0.14 -0.28,0.126 -0.462,0.378 -0.168,0.252 -0.238,0.56 -0.056,0.294 -0.056,0.602 v 1.82 q 0,0.308 0.056,0.616 0.07,0.294 0.238,0.546 0.182,0.252 0.462,0.392 0.28,0.126 0.588,0.126 z"
       id="text2"
       style="font-weight:600;font-size:14px;font-family:Iosevka;-inkscape-font-specification:'Iosevka, Semi-Bold';text-anchor:middle"
       aria-label="Unlocked" />
    <path
       d="m 102.70313,61.214275 v -10.29 h 1.4 v 9.058 h 3.598 v 1.232 z m 9.22597,0.112 q -0.378,0 -0.756,-0.07 -0.378,-0.07 -0.714,-0.252 -0.336,-0.182 -0.602,-0.462 -0.252,-0.294 -0.42,-0.644 -0.154,-0.35 -0.224,-0.728 -0.056,-0.378 -0.056,-0.756 v -1.82 q 0,-0.378 0.056,-0.756 0.07,-0.378 0.224,-0.728 0.168,-0.35 0.42,-0.63 0.266,-0.294 0.602,-0.476 0.336,-0.182 0.714,-0.252 0.378,-0.07 0.756,-0.07 0.378,0 0.756,0.07 0.378,0.07 0.714,0.252 0.336,0.182 0.588,0.476 0.266,0.28 0.42,0.63 0.168,0.35 0.224,0.728 0.07,0.378 0.07,0.756 v 1.82 q 0,0.378 -0.07,0.756 -0.056,0.378 -0.224,0.728 -0.154,0.35 -0.42,0.644 -0.252,0.28 -0.588,0.462 -0.336,0.182 -0.714,0.252 -0.378,0.07 -0.756,0.07 z m 0,-1.232 q 0.308,0 0.588,-0.126 0.294,-0.14 0.462,-0.392 0.182,-0.252 0.238,-0.546 0.07,-0.308 0.07,-0.616 v -1.82 q 0,-0.308 -0.07,-0.602 -0.056,-0.308 -0.238,-0.56 -0.168,-0.252 -0.462,-0.378 -0.28,-0.14 -0.588,-0.14 -0.308,0 -0.602,0.14 -0.28,0.126 -0.462,0.378 -0.168,0.252 -0.238,0.56 -0.056,0.294 -0.056,0.602 v 1.82 q 0,0.308 0.056,0.616 0.07,0.294 0.238,0.546 0.182,0.252 0.462,0.392 0.294,0.126 0.602,0.126 z m 6.95797,1.232 q -0.378,0 -0.756,-0.07 -0.364,-0.07 -0.7,-0.252 -0.322,-0.196 -0.588,-0.476 -0.252,-0.294 -0.406,-0.63 -0.154,-0.35 -0.224,-0.728 -0.056,-0.378 -0.056,-0.756 v -1.82 q 0,-0.378 0.056,-0.756 0.07,-0.378 0.224,-0.714 0.154,-0.35 0.406,-0.63 0.266,-0.294 0.588,-0.476 0.336,-0.196 0.7,-0.266 0.378,-0.07 0.756,-0.07 0.364,0 0.714,0.07 0.35,0.056 0.672,0.21 0.322,0.154 0.574,0.406 0.266,0.252 0.434,0.574 0.168,0.308 0.252,0.658 0.084,0.35 0.084,0.7 0,0 0,0.014 0,0 0,0.014 h -1.414 q 0,0 0,0 0,-0.014 0,-0.014 0,-0.28 -0.084,-0.532 -0.07,-0.266 -0.252,-0.476 -0.182,-0.21 -0.448,-0.294 -0.252,-0.098 -0.532,-0.098 -0.294,0 -0.574,0.14 -0.28,0.126 -0.462,0.378 -0.168,0.252 -0.224,0.56 -0.056,0.294 -0.056,0.602 v 1.82 q 0,0.308 0.056,0.616 0.056,0.294 0.224,0.546 0.182,0.252 0.462,0.392 0.28,0.126 0.574,0.126 0.28,0 0.532,-0.084 0.266,-0.098 0.448,-0.308 0.182,-0.21 0.252,-0.462 0.084,-0.266 0.084,-0.546 0,0 0,0 0,-0.014 0,-0.014 h 1.414 q 0,0.014 0,0.028 0,0 0,0 0,0.35 -0.084,0.7 -0.084,0.35 -0.252,0.672 -0.168,0.308 -0.434,0.56 -0.252,0.252 -0.574,0.406 -0.322,0.154 -0.672,0.21 -0.35,0.07 -0.714,0.07 z m 4.60598,-0.112 v -10.29 h 1.4 v 6.132 l 2.24,-3.262 h 1.624 l -2.464,3.388 2.464,4.032 h -1.582 l -1.288,-2.086 -0.462,-0.756 -0.532,0.714 v 2.128 z m 9.46397,0.112 q -0.378,0 -0.77,-0.07 -0.378,-0.07 -0.714,-0.252 -0.336,-0.182 -0.602,-0.462 -0.266,-0.294 -0.434,-0.63 -0.154,-0.35 -0.224,-0.728 -0.056,-0.392 -0.056,-0.77 v -1.82 q 0,-0.378 0.056,-0.756 0.07,-0.378 0.224,-0.728 0.168,-0.35 0.42,-0.63 0.266,-0.294 0.602,-0.476 0.336,-0.182 0.714,-0.252 0.378,-0.07 0.756,-0.07 0.378,0 0.756,0.07 0.378,0.07 0.714,0.252 0.336,0.182 0.588,0.476 0.266,0.28 0.42,0.63 0.168,0.35 0.224,0.728 0.07,0.378 0.07,0.756 v 1.526 h -4.13 v 0.294 q 0,0.308 0.056,0.616 0.07,0.308 0.252,0.56 0.182,0.252 0.476,0.378 0.294,0.126 0.602,0.126 0.224,0 0.448,-0.042 0.224,-0.056 0.406,-0.182 0.196,-0.126 0.308,-0.322 0.126,-0.21 0.14,-0.434 h 1.414 q -0.028,0.322 -0.14,0.644 -0.098,0.308 -0.28,0.574 -0.182,0.266 -0.448,0.462 -0.266,0.196 -0.574,0.322 -0.294,0.126 -0.63,0.168 -0.322,0.042 -0.644,0.042 z m -1.386,-4.438 h 2.716 v -0.294 q 0,-0.308 -0.07,-0.602 -0.056,-0.308 -0.238,-0.56 -0.168,-0.252 -0.462,-0.378 -0.28,-0.14 -0.588,-0.14 -0.308,0 -0.602,0.14 -0.28,0.126 -0.462,0.378 -0.168,0.252 -0.238,0.56 -0.056,0.294 -0.056,0.602 z m 7.76997,4.438 q -0.336,0 -0.672,-0.098 -0.336,-0.098 -0.602,-0.322 -0.266,-0.224 -0.448,-0.518 -0.168,-0.294 -0.28,-0.616 -0.098,-0.336 -0.14,-0.672 -0.042,-0.35 -0.042,-0.686 v -1.82 q 0,-0.336 0.042,-0.672 0.042,-0.35 0.14,-0.672 0.112,-0.336 0.28,-0.63 0.182,-0.294 0.448,-0.518 0.266,-0.224 0.602,-0.322 0.336,-0.098 0.672,-0.098 0.308,0 0.602,0.084 0.294,0.07 0.532,0.252 0.238,0.182 0.406,0.434 0.182,0.252 0.294,0.532 v -4.06 h 1.414 v 10.29 h -1.414 v -1.19 q -0.112,0.28 -0.294,0.532 -0.168,0.252 -0.406,0.434 -0.238,0.182 -0.532,0.252 -0.294,0.084 -0.602,0.084 z m 0.574,-1.232 q 0.196,0 0.392,-0.056 0.196,-0.056 0.35,-0.182 0.154,-0.126 0.252,-0.294 0.112,-0.182 0.168,-0.364 0.056,-0.196 0.07,-0.392 0.028,-0.196 0.028,-0.392 v -1.82 q 0,-0.196 -0.028,-0.392 -0.014,-0.196 -0.07,-0.378 -0.056,-0.196 -0.168,-0.364 -0.098,-0.182 -0.252,-0.308 -0.154,-0.126 -0.35,-0.182 -0.196,-0.056 -0.392,-0.056 -0.308,0 -0.588,0.14 -0.28,0.126 -0.462,0.378 -0.168,0.252 -0.238,0.56 -0.056,0.294 -0.056,0.602 v 1.82 q 0,0.308 0.056,0.616 0.07,0.294 0.238,0.546 0.182,0.252 0.462,0.392 0.28,0.126 0.588,0.126 z"
       id="text3"
       style="font-weight:600;font-size:14px;font-family:Iosevka;-inkscape-font-specification:'Iosevka, Semi-Bold';text-anchor:middle"
       aria-label="Locked" />
    <path
       d="m 219.88261,146.82172 v -1.232 h 1.848 v -7.826 h -1.652 v -1.232 h 3.052 v 9.058 h 1.652 v 1.232 z m 9.44998,0.112 q -0.378,0 -0.756,-0.07 -0.378,-0.07 -0.714,-0.252 -0.336,-0.182 -0.602,-0.462 -0.252,-0.294 -0.42,-0.644 -0.154,-0.35 -0.224,-0.728 -0.056,-0.378 -0.056,-0.756 v -1.82 q 0,-0.378 0.056,-0.756 0.07,-0.378 0.224,-0.728 0.168,-0.35 0.42,-0.63 0.266,-0.294 0.602,-0.476 0.336,-0.182 0.714,-0.252 0.378,-0.07 0.756,-0.07 0.378,0 0.756,0.07 0.378,0.07 0.714,0.252 0.336,0.182 0.588,0.476 0.266,0.28 0.42,0.63 0.168,0.35 0.224,0.728 0.07,0.378 0.07,0.756 v 1.82 q 0,0.378 -0.07,0.756 -0.056,0.378 -0.224,0.728 -0.154,0.35 -0.42,0.644 -0.252,0.28 -0.588,0.462 -0.336,0.182 -0.714,0.252 -0.378,0.07 -0.756,0.07 z m 0,-1.232 q 0.308,0 0.588,-0.126 0.294,-0.14 0.462,-0.392 0.182,-0.252 0.238,-0.546 0.07,-0.308 0.07,-0.616 v -1.82 q 0,-0.308 -0.07,-0.602 -0.056,-0.308 -0.238,-0.56 -0.168,-0.252 -0.462,-0.378 -0.28,-0.14 -0.588,-0.14 -0.308,0 -0.602,0.14 -0.28,0.126 -0.462,0.378 -0.168,0.252 -0.238,0.56 -0.056,0.294 -0.056,0.602 v 1.82 q 0,0.308 0.056,0.616 0.07,0.294 0.238,0.546 0.182,0.252 0.462,0.392 0.294,0.126 0.602,0.126 z m 6.95797,1.232 q -0.378,0 -0.756,-0.07 -0.364,-0.07 -0.7,-0.252 -0.322,-0.196 -0.588,-0.476 -0.252,-0.294 -0.406,-0.63 -0.154,-0.35 -0.224,-0.728 -0.056,-0.378 -0.056,-0.756 v -1.82 q 0,-0.378 0.056,-0.756 0.07,-0.378 0.224,-0.714 0.154,-0.35 0.406,-0.63 0.266,-0.294 0.588,-0.476 0.336,-0.196 0.7,-0.266 0.378,-0.07 0.756,-0.07 0.364,0 0.714,0.07 0.35,0.056 0.672,0.21 0.322,0.154 0.574,0.406 0.266,0.252 0.434,0.574 0.168,0.308 0.252,0.658 0.084,0.35 0.084,0.7 0,0 0,0.014 0,0 0,0.014 h -1.414 q 0,0 0,0 0,-0.014 0,-0.014 0,-0.28 -0.084,-0.532 -0.07,-0.266 -0.252,-0.476 -0.182,-0.21 -0.448,-0.294 -0.252,-0.098 -0.532,-0.098 -0.294,0 -0.574,0.14 -0.28,0.126 -0.462,0.378 -0.168,0.252 -0.224,0.56 -0.056,0.294 -0.056,0.602 v 1.82 q 0,0.308 0.056,0.616 0.056,0.294 0.224,0.546 0.182,0.252 0.462,0.392 0.28,0.126 0.574,0.126 0.28,0 0.532,-0.084 0.266,-0.098 0.448,-0.308 0.182,-0.21 0.252,-0.462 0.084,-0.266 0.084,-0.546 0,0 0,0 0,-0.014 0,-0.014 h 1.414 q 0,0.014 0,0.028 0,0 0,0 0,0.35 -0.084,0.7 -0.084,0.35 -0.252,0.672 -0.168,0.308 -0.434,0.56 -0.252,0.252 -0.574,0.406 -0.322,0.154 -0.672,0.21 -0.35,0.07 -0.714,0.07 z m 4.60597,-0.112 v -10.29 h 1.4 v 6.132 l 2.24,-3.262 h 1.624 l -2.464,3.388 2.464,4.032 h -1.582 l -1.288,-2.086 -0.462,-0.756 -0.532,0.714 v 2.128 z m 11.56398,2.254 q -0.616,-0.322 -1.162,-0.784 -0.532,-0.448 -0.966,-0.994 -0.42,-0.546 -0.742,-1.176 -0.308,-0.63 -0.504,-1.302 -0.182,-0.672 -0.266,-1.358 -0.084,-0.7 -0.084,-1.4 0,-0.7 0.084,-1.386 0.084,-0.7 0.266,-1.372 0.196,-0.672 0.504,-1.302 0.322,-0.63 0.742,-1.176 0.434,-0.546 0.966,-0.994 0.546,-0.462 1.162,-0.784 l 0.672,1.078 q -0.756,0.434 -1.358,1.092 -0.588,0.658 -0.966,1.456 -0.364,0.784 -0.518,1.652 -0.14,0.868 -0.14,1.736 0,0.868 0.14,1.736 0.154,0.868 0.518,1.666 0.378,0.784 0.966,1.442 0.602,0.658 1.358,1.092 z m 2.74397,0 -0.672,-1.078 q 0.756,-0.434 1.344,-1.092 0.602,-0.658 0.966,-1.442 0.378,-0.798 0.518,-1.666 0.154,-0.868 0.154,-1.736 0,-0.868 -0.154,-1.736 -0.14,-0.868 -0.518,-1.652 -0.364,-0.798 -0.966,-1.456 -0.588,-0.658 -1.344,-1.092 l 0.672,-1.078 q 0.616,0.322 1.148,0.784 0.546,0.448 0.966,0.994 0.434,0.546 0.742,1.176 0.322,0.63 0.504,1.302 0.196,0.672 0.28,1.372 0.084,0.686 0.084,1.386 0,0.7 -0.084,1.4 -0.084,0.686 -0.28,1.358 -0.182,0.672 -0.504,1.302 -0.308,0.63 -0.742,1.176 -0.42,0.546 -0.966,0.994 -0.532,0.462 -1.148,0.784 z"
       id="text5"
       style="font-weight:600;font-size:14px;font-family:Iosevka;-inkscape-font-specification:'Iosevka, Semi-Bold';text-anchor:middle"
       aria-label="lock()" />
    <path
       d="m 214.83564,74.218789 q -0.336,0 -0.672,-0.112 -0.322,-0.098 -0.574,-0.322 -0.238,-0.224 -0.406,-0.518 -0.168,-0.308 -0.266,-0.63 -0.098,-0.322 -0.14,-0.658 -0.028,-0.336 -0.028,-0.672 v -4.62 h 1.414 v 4.62 q 0,0.196 0.014,0.392 0.028,0.196 0.084,0.392 0.056,0.182 0.154,0.364 0.112,0.168 0.252,0.294 0.154,0.126 0.35,0.182 0.196,0.056 0.392,0.056 0.196,0 0.392,-0.056 0.196,-0.056 0.336,-0.182 0.154,-0.126 0.252,-0.294 0.112,-0.182 0.168,-0.364 0.056,-0.196 0.07,-0.392 0.028,-0.196 0.028,-0.392 v -4.62 h 1.414 v 7.42 h -1.414 v -1.19 q -0.112,0.28 -0.28,0.532 -0.168,0.252 -0.42,0.434 -0.238,0.168 -0.532,0.252 -0.294,0.084 -0.588,0.084 z m 4.91397,-0.112 v -7.42 h 1.414 v 1.19 q 0.112,-0.28 0.28,-0.532 0.168,-0.252 0.406,-0.42 0.252,-0.182 0.546,-0.266 0.294,-0.084 0.588,-0.084 0.336,0 0.658,0.112 0.336,0.098 0.574,0.322 0.252,0.224 0.42,0.532 0.168,0.294 0.266,0.616 0.098,0.322 0.126,0.658 0.042,0.336 0.042,0.672 v 4.62 h -1.414 v -4.62 q 0,-0.196 -0.028,-0.392 -0.014,-0.196 -0.07,-0.378 -0.056,-0.196 -0.168,-0.364 -0.098,-0.182 -0.252,-0.308 -0.14,-0.126 -0.336,-0.182 -0.196,-0.056 -0.392,-0.056 -0.196,0 -0.392,0.056 -0.196,0.056 -0.35,0.182 -0.14,0.126 -0.252,0.308 -0.098,0.168 -0.154,0.364 -0.056,0.182 -0.084,0.378 -0.014,0.196 -0.014,0.392 v 4.62 z m 7.20997,0 v -1.232 h 1.848 v -7.826 h -1.652 v -1.232 h 3.052 v 9.058 h 1.652 v 1.232 z m 9.44998,0.112 q -0.378,0 -0.756,-0.07 -0.378,-0.07 -0.714,-0.252 -0.336,-0.182 -0.602,-0.462 -0.252,-0.294 -0.42,-0.644 -0.154,-0.35 -0.224,-0.728 -0.056,-0.378 -0.056,-0.756 v -1.82 q 0,-0.378 0.056,-0.756 0.07,-0.378 0.224,-0.728 0.168,-0.35 0.42,-0.63 0.266,-0.294 0.602,-0.476 0.336,-0.182 0.714,-0.252 0.378,-0.07 0.756,-0.07 0.378,0 0.756,0.07 0.378,0.07 0.714,0.252 0.336,0.182 0.588,0.476 0.266,0.28 0.42,0.63 0.168,0.35 0.224,0.728 0.07,0.378 0.07,0.756 v 1.82 q 0,0.378 -0.07,0.756 -0.056,0.378 -0.224,0.728 -0.154,0.35 -0.42,0.644 -0.252,0.28 -0.588,0.462 -0.336,0.182 -0.714,0.252 -0.378,0.07 -0.756,0.07 z m 0,-1.232 q 0.308,0 0.588,-0.126 0.294,-0.14 0.462,-0.392 0.182,-0.252 0.238,-0.546 0.07,-0.308 0.07,-0.616 v -1.82 q 0,-0.308 -0.07,-0.602 -0.056,-0.308 -0.238,-0.56 -0.168,-0.252 -0.462,-0.378 -0.28,-0.14 -0.588,-0.14 -0.308,0 -0.602,0.14 -0.28,0.126 -0.462,0.378 -0.168,0.252 -0.238,0.56 -0.056,0.294 -0.056,0.602 v 1.82 q 0,0.308 0.056,0.616 0.07,0.294 0.238,0.546 0.182,0.252 0.462,0.392 0.294,0.126 0.602,0.126 z m 6.95797,1.232 q -0.378,0 -0.756,-0.07 -0.364,-0.07 -0.7,-0.252 -0.322,-0.196 -0.588,-0.476 -0.252,-0.294 -0.406,-0.63 -0.154,-0.35 -0.224,-0.728 -0.056,-0.378 -0.056,-0.756 v -1.82 q 0,-0.378 0.056,-0.756 0.07,-0.378 0.224,-0.714 0.154,-0.35 0.406,-0.63 0.266,-0.294 0.588,-0.476 0.336,-0.196 0.7,-0.266 0.378,-0.07 0.756,-0.07 0.364,0 0.714,0.07 0.35,0.056 0.672,0.21 0.322,0.154 0.574,0.406 0.266,0.252 0.434,0.574 0.168,0.308 0.252,0.658 0.084,0.35 0.084,0.7 0,0 0,0.014 0,0 0,0.014 h -1.414 q 0,0 0,0 0,-0.014 0,-0.014 0,-0.28 -0.084,-0.532 -0.07,-0.266 -0.252,-0.476 -0.182,-0.21 -0.448,-0.294 -0.252,-0.098 -0.532,-0.098 -0.294,0 -0.574,0.14 -0.28,0.126 -0.462,0.378 -0.168,0.252 -0.224,0.56 -0.056,0.294 -0.056,0.602 v 1.82 q 0,0.308 0.056,0.616 0.056,0.294 0.224,0.546 0.182,0.252 0.462,0.392 0.28,0.126 0.574,0.126 0.28,0 0.532,-0.084 0.266,-0.098 0.448,-0.308 0.182,-0.21 0.252,-0.462 0.084,-0.266 0.084,-0.546 0,0 0,0 0,-0.014 0,-0.014 h 1.414 q 0,0.014 0,0.028 0,0 0,0 0,0.35 -0.084,0.7 -0.084,0.35 -0.252,0.672 -0.168,0.308 -0.434,0.56 -0.252,0.252 -0.574,0.406 -0.322,0.154 -0.672,0.21 -0.35,0.07 -0.714,0.07 z m 4.60597,-0.112 v -10.29 h 1.4 v 6.132 l 2.24,-3.262 h 1.624 l -2.464,3.388 2.464,4.032 h -1.582 l -1.288,-2.086 -0.462,-0.756 -0.532,0.714 v 2.128 z m 11.56398,2.254 q -0.616,-0.322 -1.162,-0.784 -0.532,-0.448 -0.966,-0.994 -0.42,-0.546 -0.742,-1.176 -0.308,-0.63 -0.504,-1.302 -0.182,-0.672 -0.266,-1.358 -0.084,-0.7 -0.084,-1.4 0,-0.7 0.084,-1.386 0.084,-0.7 0.266,-1.372 0.196,-0.672 0.504,-1.302 0.322,-0.63 0.742,-1.176 0.434,-0.546 0.966,-0.994 0.546,-0.462 1.162,-0.784 l 0.672,1.078 q -0.756,0.434 -1.358,1.092 -0.588,0.658 -0.966,1.456 -0.364,0.784 -0.518,1.652 -0.14,0.868 -0.14,1.736 0,0.868 0.14,1.736 0.154,0.868 0.518,1.666 0.378,0.784 0.966,1.442 0.602,0.658 1.358,1.092 z m 2.74397,0 -0.672,-1.078 q 0.756,-0.434 1.344,-1.092 0.602,-0.658 0.966,-1.442 0.378,-0.798 0.518,-1.666 0.154,-0.868 0.154,-1.736 0,-0.868 -0.154,-1.736 -0.14,-0.868 -0.518,-1.652 -0.364,-0.798 -0.966,-1.456 -0.588,-0.658 -1.344,-1.092 l 0.672,-1.078 q 0.616,0.322 1.148,0.784 0.546,0.448 0.966,0.994 0.434,0.546 0.742,1.176 0.322,0.63 0.504,1.302 0.196,0.672 0.28,1.372 0.084,0.686 0.084,1.386 0,0.7 -0.084,1.4 -0.084,0.686 -0.28,1.358 -0.182,0.672 -0.504,1.302 -0.308,0.63 -0.742,1.176 -0.42,0.546 -0.966,0.994 -0.532,0.462 -1.148,0.784 z"
       id="text7"
       style="font-weight:600;font-size:14px;font-family:Iosevka;-inkscape-font-specification:'Iosevka, Semi-Bold';text-anchor:middle"
       aria-label="unlock()" />
    <path
       style="fill:none;stroke:#888888;stroke-width:2.5;stroke-linecap:butt;stroke-linejoin:miter;stroke-dasharray:none;stroke-opacity:1;marker-end:url(#marker11)"
       d="m 325.94861,109.16779 c -74.3382,26.18974 -123.75888,19.90313 -171.16959,3.32569"
       id="path12"
       sodipodi:nodetypes="cc" />
    <path
       d="m 460.77907,103.14728 q -0.378,0 -0.756,-0.07 -0.378,-0.07 -0.714,-0.252 -0.336,-0.182 -0.602,-0.462 -0.252,-0.294 -0.42,-0.644 -0.154,-0.35 -0.224,-0.728 -0.056,-0.378 -0.056,-0.756 v -1.820002 q 0,-0.378 0.056,-0.756 0.07,-0.378 0.224,-0.728 0.168,-0.35 0.42,-0.63 0.266,-0.294 0.602,-0.476 0.336,-0.182 0.714,-0.252 0.378,-0.07 0.756,-0.07 0.378,0 0.756,0.07 0.378,0.07 0.714,0.252 0.336,0.182 0.588,0.476 0.266,0.28 0.42,0.63 0.168,0.35 0.224,0.728 0.07,0.378 0.07,0.756 v 1.820002 q 0,0.378 -0.07,0.756 -0.056,0.378 -0.224,0.728 -0.154,0.35 -0.42,0.644 -0.252,0.28 -0.588,0.462 -0.336,0.182 -0.714,0.252 -0.378,0.07 -0.756,0.07 z m 0,-1.232 q 0.308,0 0.588,-0.126 0.294,-0.14 0.462,-0.392 0.182,-0.252 0.238,-0.546 0.07,-0.308 0.07,-0.616 v -1.820002 q 0,-0.308 -0.07,-0.602 -0.056,-0.308 -0.238,-0.56 -0.168,-0.252 -0.462,-0.378 -0.28,-0.14 -0.588,-0.14 -0.308,0 -0.602,0.14 -0.28,0.126 -0.462,0.378 -0.168,0.252 -0.238,0.56 -0.056,0.294 -0.056,0.602 v 1.820002 q 0,0.308 0.056,0.616 0.07,0.294 0.238,0.546 0.182,0.252 0.462,0.392 0.294,0.126 0.602,0.126 z m 4.33998,3.99 V 95.615278 h 1.414 v 1.19 q 0.112,-0.28 0.28,-0.532 0.182,-0.252 0.42,-0.434 0.238,-0.182 0.532,-0.252 0.294,-0.084 0.602,-0.084 0.336,0 0.672,0.098 0.336,0.098 0.602,0.322 0.266,0.224 0.434,0.518 0.182,0.294 0.28,0.63 0.112,0.322 0.154,0.672 0.042,0.336 0.042,0.672 v 1.820002 q 0,0.336 -0.042,0.686 -0.042,0.336 -0.154,0.672 -0.098,0.322 -0.28,0.616 -0.168,0.294 -0.434,0.518 -0.266,0.224 -0.602,0.322 -0.336,0.098 -0.672,0.098 -0.308,0 -0.602,-0.084 -0.294,-0.07 -0.532,-0.252 -0.238,-0.182 -0.42,-0.434 -0.168,-0.252 -0.28,-0.532 v 4.06 z m 2.674,-3.99 q 0.308,0 0.588,-0.126 0.28,-0.14 0.448,-0.392 0.182,-0.252 0.238,-0.546 0.07,-0.308 0.07,-0.616 v -1.820002 q 0,-0.308 -0.07,-0.602 -0.056,-0.308 -0.238,-0.56 -0.168,-0.252 -0.448,-0.378 -0.28,-0.14 -0.588,-0.14 -0.196,0 -0.392,0.056 -0.196,0.056 -0.35,0.182 -0.154,0.126 -0.266,0.308 -0.098,0.168 -0.154,0.364 -0.056,0.182 -0.084,0.378 -0.014,0.196 -0.014,0.392 v 1.820002 q 0,0.196 0.014,0.392 0.028,0.196 0.084,0.392 0.056,0.182 0.154,0.364 0.112,0.168 0.266,0.294 0.154,0.126 0.35,0.182 0.196,0.056 0.392,0.056 z m 7.01397,1.232 q -0.378,0 -0.77,-0.07 -0.378,-0.07 -0.714,-0.252 -0.336,-0.182 -0.602,-0.462 -0.266,-0.294 -0.434,-0.63 -0.154,-0.35 -0.224,-0.728 -0.056,-0.392 -0.056,-0.77 v -1.820002 q 0,-0.378 0.056,-0.756 0.07,-0.378 0.224,-0.728 0.168,-0.35 0.42,-0.63 0.266,-0.294 0.602,-0.476 0.336,-0.182 0.714,-0.252 0.378,-0.07 0.756,-0.07 0.378,0 0.756,0.07 0.378,0.07 0.714,0.252 0.336,0.182 0.588,0.476 0.266,0.28 0.42,0.63 0.168,0.35 0.224,0.728 0.07,0.378 0.07,0.756 v 1.526 h -4.13 v 0.294002 q 0,0.308 0.056,0.616 0.07,0.308 0.252,0.56 0.182,0.252 0.476,0.378 0.294,0.126 0.602,0.126 0.224,0 0.448,-0.042 0.224,-0.056 0.406,-0.182 0.196,-0.126 0.308,-0.322 0.126,-0.21 0.14,-0.434 h 1.414 q -0.028,0.322 -0.14,0.644 -0.098,0.308 -0.28,0.574 -0.182,0.266 -0.448,0.462 -0.266,0.196 -0.574,0.322 -0.294,0.126 -0.63,0.168 -0.322,0.042 -0.644,0.042 z m -1.386,-4.438002 h 2.716 v -0.294 q 0,-0.308 -0.07,-0.602 -0.056,-0.308 -0.238,-0.56 -0.168,-0.252 -0.462,-0.378 -0.28,-0.14 -0.588,-0.14 -0.308,0 -0.602,0.14 -0.28,0.126 -0.462,0.378 -0.168,0.252 -0.238,0.56 -0.056,0.294 -0.056,0.602 z m 5.69797,4.326002 v -7.420002 h 1.414 v 1.19 q 0.112,-0.28 0.28,-0.532 0.168,-0.252 0.406,-0.42 0.252,-0.182 0.546,-0.266 0.294,-0.084 0.588,-0.084 0.336,0 0.658,0.112 0.336,0.098 0.574,0.322 0.252,0.224 0.42,0.532 0.168,0.294 0.266,0.616 0.098,0.322 0.126,0.658 0.042,0.336 0.042,0.672 v 4.620002 h -1.414 v -4.620002 q 0,-0.196 -0.028,-0.392 -0.014,-0.196 -0.07,-0.378 -0.056,-0.196 -0.168,-0.364 -0.098,-0.182 -0.252,-0.308 -0.14,-0.126 -0.336,-0.182 -0.196,-0.056 -0.392,-0.056 -0.196,0 -0.392,0.056 -0.196,0.056 -0.35,0.182 -0.14,0.126 -0.252,0.308 -0.098,0.168 -0.154,0.364 -0.056,0.182 -0.084,0.378 -0.014,0.196 -0.014,0.392 v 4.620002 z m 11.78797,2.254 q -0.616,-0.322 -1.162,-0.784 -0.532,-0.448 -0.966,-0.994 -0.42,-0.546 -0.742,-1.176 -0.308,-0.63 -0.504,-1.302 -0.182,-0.672 -0.266,-1.358002 -0.084,-0.7 -0.084,-1.4 0,-0.7 0.084,-1.386 0.084,-0.7 0.266,-1.372 0.196,-0.672 0.504,-1.302 0.322,-0.63 0.742,-1.176 0.434,-0.546 0.966,-0.994 0.546,-0.462 1.162,-0.784 l 0.672,1.078 q -0.756,0.434 -1.358,1.092 -0.588,0.658 -0.966,1.456 -0.364,0.784 -0.518,1.652 -0.14,0.868 -0.14,1.736 0,0.868 0.14,1.736002 0.154,0.868 0.518,1.666 0.378,0.784 0.966,1.442 0.602,0.658 1.358,1.092 z m 2.74398,0 -0.672,-1.078 q 0.756,-0.434 1.344,-1.092 0.602,-0.658 0.966,-1.442 0.378,-0.798 0.518,-1.666 0.154,-0.868002 0.154,-1.736002 0,-0.868 -0.154,-1.736 -0.14,-0.868 -0.518,-1.652 -0.364,-0.798 -0.966,-1.456 -0.588,-0.658 -1.344,-1.092 l 0.672,-1.078 q 0.616,0.322 1.148,0.784 0.546,0.448 0.966,0.994 0.434,0.546 0.742,1.176 0.322,0.63 0.504,1.302 0.196,0.672 0.28,1.372 0.084,0.686 0.084,1.386 0,0.7 -0.084,1.4 -0.084,0.686002 -0.28,1.358002 -0.182,0.672 -0.504,1.302 -0.308,0.63 -0.742,1.176 -0.42,0.546 -0.966,0.994 -0.532,0.462 -1.148,0.784 z"
       id="text12"
       style="font-weight:600;font-size:14px;font-family:Iosevka;-inkscape-font-specification:'Iosevka, Semi-Bold';text-anchor:middle"
       aria-label="open()" />
    <circle
       cx="122.65306"
       cy="100"
       r="30"
       fill="#ff99ff"
       stroke="#333333"
       stroke-width="4"
       id="circle2"
       style="fill:#ffffff;fill-opacity:1" />
    <circle
       cx="357.46298"
       cy="100"
       r="30"
       fill="#ff99ff"
       stroke="#333333"
       stroke-width="4"
       id="circle1"
       style="fill:#ffffff;fill-opacity:1" />
    <path
       style="fill:none;stroke:#888888;stroke-width:2.5;stroke-linecap:butt;stroke-linejoin:miter;stroke-dasharray:none;stroke-opacity:1;marker-end:url(#marker11)"
       d="M 152.83448,98.01413 C 227.17268,71.82439 276.59336,78.111 324.00407,94.68844"
       id="path13"
       sodipodi:nodetypes="cc" />
  </g>
</svg>
