<?xml version="1.0" encoding="UTF-8"?>
<svg width="249px" height="174px" viewBox="0 0 249 174" version="1.1" xmlns="http://www.w3.org/2000/svg" xmlns:xlink="http://www.w3.org/1999/xlink">
    <title>RustConf 2023 Color</title>
    <defs>
        <path d="M50.0781862,0.00160046225 C50.2964792,0.0148302466 50.4902699,0.140513198 50.5905064,0.332345071 L50.5905064,0.332345071 L51.5861896,2.21317941 C51.764388,2.23963898 51.9425863,2.26830351 52.1207846,2.30137797 L52.1207846,2.30137797 L53.6889299,0.852716588 C53.847081,0.70718896 54.0720564,0.652064859 54.2814394,0.70718896 C54.4908224,0.764518025 54.6556559,0.923275437 54.7180253,1.13054206 L54.7180253,1.13054206 L55.3283546,3.16792885 L55.8339924,3.35976072 L57.6605253,2.24404891 C57.845406,2.12939078 58.0770639,2.11836596 58.273082,2.21538437 C58.4668727,2.31019783 58.598294,2.49982474 58.6183413,2.71591121 L58.6183413,2.71591121 L58.812132,4.83267671 L58.812132,4.83267671 L59.2620828,5.11491211 L61.2779514,4.36963426 C61.4828795,4.29466548 61.7100824,4.3299449 61.8838257,4.46003778 C62.0553416,4.59233563 62.1466683,4.80401217 62.1243935,5.01789369 L62.1243935,5.01789369 L61.8971906,7.13465918 C62.0286119,7.25372724 62.1578057,7.37500026 62.284772,7.49847825 L62.284772,7.49847825 L64.4075596,7.15450386 C64.6236251,7.11922443 64.841918,7.19639817 64.9844767,7.36177048 C65.1292629,7.52273285 65.1760399,7.74763919 65.111443,7.95490581 L65.111443,7.95490581 L64.474384,9.98347274 C64.581303,10.1267954 64.6859945,10.272323 64.7862311,10.4200556 L64.7862311,10.4200556 L66.9312935,10.4950244 C67.1495864,10.5016393 67.3478321,10.6207074 67.4547511,10.8081293 C67.5638976,10.9955512 67.566125,11.2248675 67.4614335,11.4144944 L67.4614335,11.4144944 L66.4367931,13.279894 C66.5125274,13.4386514 66.5838067,13.6040237 66.6573136,13.769396 L66.6573136,13.769396 L68.742234,14.2566931 C68.956072,14.3074073 69.1275879,14.4617547 69.1966398,14.6690214 C69.2679191,14.8718781 69.225597,15.0989893 69.0852658,15.2643617 L69.0852658,15.2643617 L67.7086837,16.8960351 C67.7510058,17.0680222 67.7911004,17.2400094 67.8267401,17.4142016 L67.8267401,17.4142016 L69.7846943,18.2983922 C69.9829399,18.3887957 70.1188162,18.5740127 70.1455459,18.7856892 C70.1745031,18.9995708 70.0876314,19.2134523 69.9205705,19.35016 L69.9205705,19.35016 L68.2499611,20.6863683 L68.263326,21.2155596 L70.0096697,22.4613643 C70.1856405,22.5870473 70.2836496,22.7965189 70.2680573,23.0126053 C70.2524649,23.2308968 70.1254986,23.4227287 69.9317079,23.524157 L69.9317079,23.524157 L68.0316682,24.5097759 C68.0093934,24.6861731 67.9759812,24.8647751 67.942569,25.0389673 L67.942569,25.0389673 L69.4060228,26.591262 C69.5552639,26.7478145 69.6109509,26.9705158 69.5530365,27.1777824 C69.495122,27.387254 69.3347435,27.5504214 69.1253605,27.6121604 L69.1253605,27.6121604 L67.0671697,28.2141155 C67.0025728,28.3838978 66.9402034,28.5492701 66.873379,28.7146424 L66.873379,28.7146424 L68.0004835,30.5227129 C68.1163124,30.7057249 68.1274498,30.9350412 68.0294407,31.129078 C67.9336591,31.3209099 67.7420959,31.4510028 67.5238029,31.4708475 L67.5238029,31.4708475 L65.385423,31.6626793 C65.2918688,31.8126169 65.1983147,31.9625544 65.1003056,32.110287 L65.1003056,32.110287 L65.8531936,34.1035745 C65.9289279,34.3042263 65.8932882,34.5313376 65.7618669,34.7011198 C65.6282182,34.873107 65.4143802,34.9635105 65.1983147,34.9414609 L65.1983147,34.9414609 L63.0599347,34.7165545 C62.9396509,34.8466474 62.8171395,34.9745353 62.6924007,35.1024233 L62.6924007,35.1024233 L63.0354325,37.203754 C63.0710721,37.4154306 62.9931104,37.631517 62.8282769,37.7726347 C62.6634434,37.9159574 62.4362406,37.9644666 62.2268575,37.8983177 L62.2268575,37.8983177 L60.1775767,37.267698 C60.0327906,37.3735362 59.8857769,37.4771695 59.7387633,37.5763929 L59.7387633,37.5763929 L59.663029,39.6997733 C59.6563466,39.9158598 59.5360627,40.1121016 59.346727,40.2201448 C59.1551638,40.3259831 58.9235059,40.3281881 58.7319427,40.2245548 L58.7319427,40.2245548 L56.8474954,39.2102713 C56.6871169,39.2852401 56.5200559,39.3580039 56.3552225,39.4285627 L56.3552225,39.4285627 L55.8607221,41.4946141 C55.8072626,41.7018807 55.6513391,41.8716629 55.446411,41.9400168 C55.2392554,42.0105756 55.0120526,41.9686813 54.8449916,41.8297686 L54.8449916,41.8297686 L53.1944296,40.4671008 C53.0206862,40.5089951 52.8469428,40.5486845 52.6731995,40.5839639 L52.6731995,40.5839639 L51.7777528,42.5199223 C51.6864262,42.7139592 51.4993179,42.8506669 51.2832525,42.8771265 C51.067187,42.905791 50.853349,42.8197974 50.7152453,42.6544251 L50.7152453,42.6544251 L49.3653929,41.0007021 C49.1871946,41.009522 49.0089963,41.0117269 48.8307979,41.0161369 L48.8307979,41.0161369 L47.5744997,42.7426237 C47.4453059,42.9168159 47.2359228,43.0138343 47.0198574,42.9983995 C46.8015644,42.9829648 46.6077737,42.8594868 46.5075372,42.6676549 L46.5075372,42.6676549 L45.5096265,40.7868206 C45.3314282,40.762566 45.1532298,40.7294915 44.9750315,40.698622 L44.9750315,40.698622 L43.4091137,42.1428735 C43.2509627,42.2906061 43.0259873,42.3457302 42.8143767,42.2884011 C42.6049937,42.231072 42.4401602,42.0723146 42.3777908,41.865048 L42.3777908,41.865048 L41.769689,39.8276612 L41.2640512,39.6358294 L39.4375183,40.7515412 C39.2526376,40.8661993 39.0209797,40.8772241 38.8249616,40.7802057 C38.6311709,40.6831873 38.4997496,40.4935604 38.4797023,40.2796789 L38.4797023,40.2796789 L38.2836841,38.1629134 C38.1322156,38.0703049 37.980747,37.9776964 37.8337334,37.880678 L37.8337334,37.880678 L35.8200922,38.6259558 C35.6151641,38.7009246 35.3879613,38.6656452 35.2142179,38.5333473 C35.042702,38.4032544 34.9513753,38.1915779 34.9736501,37.9776964 L34.9736501,37.9776964 L35.200853,35.8609309 C35.0672043,35.7396579 34.9380105,35.6227948 34.8110442,35.4971118 L34.8110442,35.4971118 L32.690484,35.8410862 C32.4744185,35.8763656 32.2538981,35.7991919 32.1113394,35.6338196 C31.9687808,35.4706523 31.9197762,35.2457459 31.9866006,35.0406843 L31.9866006,35.0406843 L32.6236596,33.0121173 C32.5167406,32.8687947 32.4120491,32.723267 32.3095851,32.5755344 L32.3095851,32.5755344 L30.1667501,32.5005657 C29.9484572,32.4939508 29.7502115,32.3748827 29.6432925,32.1874608 C29.534146,32.0000388 29.5319186,31.7707226 29.6366101,31.5810957 L29.6366101,31.5810957 L30.659023,29.7156961 C30.5832887,29.5569387 30.5120094,29.3915664 30.4407301,29.226194 L30.4407301,29.226194 L28.3535821,28.738897 C28.1441991,28.6881828 27.9704557,28.5316304 27.9036313,28.3265687 C27.832352,28.1215071 27.8746741,27.8966007 28.0150053,27.7312284 L28.0150053,27.7312284 L29.3915874,26.099555 C29.3492653,25.9275678 29.3091707,25.7577856 29.273531,25.5813885 L29.273531,25.5813885 L27.3155768,24.6971979 C27.1173312,24.6067944 26.9814549,24.4215774 26.9547252,24.2076959 C26.925768,23.9938143 27.0126396,23.7821378 27.1797006,23.64543 L27.1797006,23.64543 L28.8503099,22.3092218 L28.8369451,21.7800304 L27.0928289,20.5364307 C26.916858,20.4085428 26.818849,20.2012762 26.8344413,19.9851897 C26.8478062,19.7691032 26.9747725,19.5772713 27.1685632,19.478048 L27.1685632,19.478048 L29.0686029,18.492429 C29.0908777,18.3160319 29.1242899,18.1396348 29.1577021,17.9632377 L29.1577021,17.9632377 L27.6942483,16.410943 C27.5472346,16.2521855 27.4915477,16.0316891 27.5494621,15.8244225 C27.6051491,15.6171559 27.7677551,15.4539886 27.9749106,15.3922496 L27.9749106,15.3922496 L30.0331014,14.7880894 L30.2268921,14.2875626 L29.0997876,12.4794921 C28.9839587,12.29648 28.9728213,12.0671638 29.0708304,11.8731269 C29.166612,11.6790901 29.3581752,11.5512022 29.5764682,11.5313575 L29.5764682,11.5313575 L31.7148481,11.3395256 L31.9999655,10.8941229 L31.2470775,8.89863042 C31.1713432,8.69577373 31.2069829,8.46866243 31.3384042,8.2988802 C31.4720529,8.12909797 31.6858909,8.03869444 31.9019564,8.06074408 L31.9019564,8.06074408 L34.0403364,8.28565042 C34.1628477,8.15335257 34.2853591,8.02546466 34.4078704,7.90198667 L34.4078704,7.90198667 L34.0603837,5.80065593 C34.024744,5.58677441 34.1027058,5.37068794 34.2697667,5.22957024 C34.4346002,5.08624757 34.661803,5.03773836 34.8689586,5.10388729 L34.8689586,5.10388729 L36.9182394,5.73450701 C37.0630256,5.62866873 37.2100392,5.52503542 37.3592803,5.42581204 L37.3592803,5.42581204 L37.4350146,3.30243165 C37.441697,3.08634518 37.5619809,2.89010337 37.7513166,2.78206014 C37.9406524,2.67622186 38.1723102,2.6740169 38.3638734,2.77765021 L38.3638734,2.77765021 L40.2483208,3.79193367 C40.4086993,3.7169649 40.5757602,3.64640605 40.7428211,3.57364223 L40.7428211,3.57364223 L41.235094,1.50979588 C41.286326,1.29811933 41.4444771,1.12833709 41.6516326,1.05998321 C41.8587882,0.989424359 42.0859911,1.03131868 42.253052,1.17023141 L42.253052,1.17023141 L43.9013866,2.5328992 C44.0751299,2.48879992 44.2488733,2.45131553 44.4248442,2.4160361 L44.4248442,2.4160361 L45.3180633,0.477872698 C45.4093899,0.281630897 45.5964982,0.14712809 45.8125637,0.120668521 C46.0286292,0.0920039885 46.2424671,0.175792623 46.3805709,0.343369891 L46.3805709,0.343369891 L47.7304232,1.99709293 L48.2650182,1.98386315 L49.5213165,0.257376293 C49.6505102,0.0831841323 49.8598933,-0.0138342861 50.0781862,0.00160046225 Z M49.4834493,5.62205384 L47.5410875,7.99018523 C47.1290039,8.48850711 46.3894808,8.56347589 45.883843,8.1577625 L45.883843,8.1577625 L43.6452265,6.35189694 C40.2438658,7.43673926 35.8891441,10.214994 33.862138,15.2092376 L33.862138,15.2092376 L35.6307565,18.4703794 C35.7933625,18.7349751 35.842367,19.0546949 35.7666327,19.35457 C35.6908984,19.65665 35.4971077,19.9146308 35.2298102,20.0755932 L35.2298102,20.0755932 L32.6192047,21.6367078 C32.6192047,29.1798898 38.031979,33.2083591 38.5866213,33.6493519 L38.5866213,33.6493519 L41.1660422,32.7541365 C41.4622969,32.6505032 41.7852814,32.6681429 42.0681712,32.8026457 C42.3510611,32.9371486 42.5671266,33.1774896 42.6695906,33.4707499 L42.6695906,33.4707499 L43.694231,36.3658677 C45.9016628,37.0626363 48.2338335,37.2721079 50.532592,36.9832576 C52.7801185,36.7032272 54.9407732,35.9513344 56.8697702,34.7782935 L56.8697702,34.7782935 L57.1326127,31.7200084 C57.1882997,31.0783639 57.7607618,30.6020916 58.4089583,30.6572157 L58.4089583,30.6572157 L61.1977622,30.8975568 C65.6259907,26.5184982 64.1669919,18.3380815 64.051163,17.8309398 L64.051163,17.8309398 L60.9750142,16.9158797 C60.3513201,16.7306627 59.9971509,16.0779934 60.1842591,15.4606035 L60.1842591,15.4606035 L61.266814,11.8885617 C58.4579628,8.188632 54.1500181,5.89767435 49.4834493,5.62205384 L49.4834493,5.62205384 Z M41.4979366,34.7782935 C41.1482223,34.4806234 40.6626319,34.3880149 40.226046,34.5401574 C39.5533473,34.7760886 39.1991781,35.5037267 39.4330634,36.1718308 C39.5466648,36.4915506 39.7827776,36.7539413 40.0923972,36.9016739 C40.4020168,37.0494065 40.7584135,37.0670462 41.081398,36.9545931 L41.081398,36.9545931 C41.5157564,36.8068605 41.8387409,36.4386315 41.9233851,35.9888188 C42.0102568,35.5390061 41.8476508,35.0781687 41.4979366,34.7782935 Z M59.774403,32.1521814 C59.0861119,32.1323367 58.5025124,32.6460933 58.4445979,33.3252222 C58.384456,34.0043512 58.8722739,34.6107163 59.5538825,34.7055297 C60.2421736,34.7253744 60.8257731,34.2094128 60.8836876,33.5324888 C60.9438295,32.8533599 60.4560116,32.2469948 59.774403,32.1521814 Z M20.459396,4.88780081 L25.3821249,4.96276959 L25.3821249,14.4000157 L20.0384024,14.4000157 L20.0384024,14.2456683 C19.4592579,11.4674135 17.8064683,9.83133022 13.8460104,9.83133022 C9.8499128,9.83133022 7.69594046,13.1806706 7.69594046,19.3479551 C7.69594046,25.5152395 10.3889628,28.862375 15.3851985,28.862375 C19.1139986,28.862375 21.3860273,26.2384678 22.5309516,24.26282 L22.5309516,24.26282 L26.5292767,26.5449578 C24.3396647,30.3110364 20.301245,33.4332655 14.6122632,33.4332655 C5.11206465,33.4332655 0,28.4853261 0,19.35016 C0,10.214994 4.84476715,5.26925959 13.8437829,5.26925959 C16.1804085,5.26705463 18.4658022,5.94177363 20.4193014,7.20962796 L20.4193014,7.20962796 L20.4193014,5.80065593 L20.459396,4.88780081 Z M70.4752128,5.56692974 L75.8590299,5.72127722 L79.3984943,5.60661909 L92.781189,21.9762722 L92.781189,10.214994 C92.088443,10.214994 91.5516205,10.2899627 90.5492549,10.4046209 L90.5492549,10.4046209 L89.6270785,10.519279 L89.7028128,5.60661909 L95.0844025,5.72127722 L95.0866299,5.72127722 L100.472675,5.60661909 L100.548409,10.519279 L99.6262325,10.4046209 C98.6238668,10.2899627 98.0870444,10.214994 97.3965258,10.214994 L97.3965258,10.214994 L97.3965258,33.1686698 C97.3965258,33.1686698 92.9371126,33.0540116 92.781189,33.0540116 L92.781189,33.0540116 L91.7431837,33.0540116 L78.1711533,16.4572472 L78.1711533,28.4853261 C78.8616718,28.4853261 79.4007218,28.4059474 80.3986324,28.2934943 L80.3986324,28.2934943 L81.3185813,28.1744262 L81.242847,33.0870861 L75.8590299,33.0121173 L70.4752128,33.0870861 L70.3994785,28.1744262 L71.3238824,28.2890843 C72.326248,28.4059474 72.860843,28.4809162 73.5513615,28.4809162 L73.5513615,28.4809162 L73.5513615,12.8785905 C73.5513615,10.9712966 72.7828812,9.94598835 71.3238824,9.52704518 L71.3238824,9.52704518 L70.3994785,9.26024453 L70.4752128,5.56692974 Z M128.158013,5.26484966 L129,15.7296091 L124.464852,16.3006948 C123.542676,10.5148691 119.69582,10.212789 112.775042,10.212789 L112.775042,10.212789 L112.775042,18.7746644 C115.967019,18.7746644 117.662131,16.6049798 119.005301,14.320637 L119.005301,14.320637 L120.849654,15.4628084 L120.849654,25.8922884 L119.005301,26.655206 C117.657676,24.3730682 115.889058,21.8219248 112.775042,21.8219248 L112.775042,21.8219248 L112.775042,28.4809162 C113.467788,28.4809162 114.006838,28.4081524 115.004749,28.2538049 L115.004749,28.2538049 L115.926925,28.0994574 L115.737589,33.0870861 C115.737589,33.0870861 110.467373,32.972428 108.930413,32.972428 C108.395043,32.972428 107.408552,32.9862997 106.349534,33.0043932 L105.547587,33.0186041 C103.806204,33.0504562 102.123237,33.0870861 102.123237,33.0870861 L102.123237,33.0870861 L101.931673,28.0994574 L102.856077,28.2538049 C103.856215,28.4059474 104.395265,28.4809162 105.085784,28.4809162 L105.085784,28.4809162 L105.085784,10.212789 C104.397493,10.212789 103.820576,10.2877578 102.81821,10.4795897 L102.81821,10.4795897 L101.896034,10.6339371 L102.087597,5.64630844 L111.526553,5.64560513 C115.035882,5.62747392 128.158013,5.26484966 128.158013,5.26484966 L128.158013,5.26484966 Z M32.5434704,17.2929286 C32.0779272,17.2995435 31.6502512,17.5531143 31.4275033,17.9588277 C31.2025279,18.3623361 31.2181203,18.8562481 31.463143,19.2487317 C31.8373595,19.844072 32.6236596,20.0314939 33.2317614,19.6698798 C33.8376358,19.3082657 34.0381089,18.5299134 33.6794847,17.9257533 C33.443372,17.5266548 33.0090135,17.2841087 32.5434704,17.2929286 Z M63.5477527,13.586384 C62.8639166,13.3835273 62.1422133,13.7671911 61.9372852,14.44632 C61.805864,14.8851078 61.9194654,15.3591751 62.2357674,15.6921247 C62.5520695,16.0250743 63.0265225,16.163987 63.4764733,16.0603537 C63.9241966,15.9545154 64.2850483,15.6193609 64.4164695,15.180573 C64.6213976,14.5014441 64.2315888,13.7892407 63.5477527,13.586384 Z M47.2158755,4.17780238 C46.6612332,3.73239964 45.8459759,3.81618828 45.3960251,4.36522433 L45.3960251,4.36522433 C44.9483018,4.91426038 45.0307185,5.71907226 45.5853608,6.16667996 C46.1400031,6.6120827 46.9552605,6.53049903 47.4052113,5.98146298 C47.8551621,5.43242693 47.7727453,4.62541009 47.2158755,4.17780238 Z" id="path-1"/>
        <path d="M20.6772829,0 C28.4139995,0 33.5242869,3.98557034 33.5242869,10.3199403 C33.5242869,15.984824 29.0800745,19.5852718 22.5864007,20.4473193 C28.5075619,21.4056475 30.3698985,26.1569847 33.5688404,26.1569847 C34.3819419,26.1569847 35.2418246,25.7763403 36.2442785,25.4382386 L36.3890774,35.0394328 C34.8141109,35.6148775 33.0453367,36 31.3723525,36 C26.7410153,36 24.9254599,32.1599701 22.6331819,28.4610026 C20.7240641,25.344197 18.2892149,22.3662147 14.9922553,21.7885309 L14.4219704,21.6922503 L14.4219704,29.2760294 C15.2818531,29.2760294 15.9501558,29.1797487 17.1931986,29.0386864 L18.3382238,28.8931459 L18.2402061,35.0864535 L9.64583442,34.940913 L0.0935623662,35.0864535 L0,28.7991044 L1.14502515,28.9916656 C2.38584034,29.2290086 4.00981569,29.2805075 4.87192607,29.2805075 L4.87192607,6.14180868 C4.00981569,6.14180868 2.48163038,6.23808931 1.24304287,6.47767135 L0.00222767539,6.76651325 L0.098017717,0.476924991 L14.3239527,0.14554049 C14.5155328,0.14554049 20.4857028,0 20.6772829,0 Z M104.495797,5.66488369 L104.495797,15.8437617 L98.862006,15.8437617 C98.862006,13.3001617 95.5160375,11.0431646 92.3170957,11.0431646 C89.2139439,11.0431646 87.5409596,11.7641498 87.5409596,13.1546212 C87.5409596,18.1970394 106.881637,15.8907824 106.881637,27.1265083 C106.881637,32.5988307 101.86714,35.523075 92.5554569,35.523075 C89.7374476,35.523075 86.2511356,34.3721856 83.9098488,32.4062694 L83.7650499,35.5253141 L78.2270489,35.6238338 L78.2270489,24.4843886 L84.388799,24.4843886 C84.7697315,28.3244185 88.5901947,30.2433138 92.5554569,30.2433138 C95.9927601,30.2433138 97.8083155,29.4753079 97.8083155,28.0848364 C97.8083155,23.2864784 79.1804939,25.4427168 79.1804939,14.1129494 C79.1804939,8.6898868 83.8630676,5.76116432 92.5554569,5.76116432 C94.9903061,5.76116432 97.2825841,6.48438861 99.2897196,7.92188083 L99.3877373,5.76340341 L104.495797,5.66488369 Z M122.032058,0.474685906 L122.121165,6.28734917 L127.901982,6.19106854 L128,12.2858564 L126.852747,12.1873367 C125.295602,12.0820998 123.734002,12.0194054 122.172401,11.9970146 L122.172401,25.4382386 C122.172401,28.4162209 125.324562,28.8931459 127.32947,28.8931459 L127.474269,34.6520712 C126.182217,35.1312352 124.226318,35.5141187 122.074383,35.5141187 C117.634626,35.5141187 112.620129,33.7855455 112.620129,27.5452171 L112.620129,11.9925364 C111.758019,11.9925364 109.657321,12.0865779 108.416506,12.1850976 L107.271481,12.2813783 L107.369498,6.18659037 L113.148088,6.28511009 L114.533702,0.474685906 L122.032058,0.474685906 Z M52.1476531,6.1530041 C52.1476531,8.17041921 51.6709306,10.0915537 51.6709306,11.9589501 L51.6709306,19.457644 C51.6709306,26.0830949 53.1055535,28.5304142 56.9260168,28.5304142 L62.1788754,26.5644981 L62.1788754,11.9656674 C61.3189927,11.9656674 60.6506901,12.061948 59.4076472,12.2030103 L58.262622,12.3485508 L58.3606398,6.15748227 L66.9594668,6.30302276 L72.2123253,6.15748227 C72.20787,8.16146287 71.7289198,10.0803583 71.7289198,11.9522329 L71.7289198,29.2334868 C72.5910301,29.2334868 74.2127778,29.186466 75.4558207,28.9468839 L76.6008458,28.7543227 L76.5072835,34.9968902 L65.9993387,35.4782933 L63.3706817,30.1559896 L52.6266033,34.4326409 C44.9366679,34.4326409 42.1186585,31.2620973 42.1186585,22.6707302 L42.1186585,11.9589501 C41.2565481,11.9589501 39.6348005,12.0059709 38.3917576,12.2500311 L37.2467325,12.4425924 L37.3402948,6.1530041 L46.8925669,6.2985446 L52.1476531,6.1530041 Z M17.1419621,5.90446573 C16.2330705,5.90446573 15.3264067,5.94924742 14.4219704,5.94924742 L14.4219704,16.6095285 L14.4175151,16.6095285 L14.4175151,16.6117676 L17.1887433,16.6565493 L17.1887433,16.6565493 C21.5817191,16.6565493 23.9697872,14.9302152 23.9697872,11.1372061 C23.9697872,7.82783928 21.6797369,5.90446573 17.1419621,5.90446573 Z" id="path-3"/>
        <path d="M84.2970489,0.00706579182 C85.4098089,0.0805177629 86.4026306,0.730456417 86.9156996,1.72094512 L90.7026372,8.94149646 L92.1241269,9.18411055 L98.0655099,3.62624473 C98.8762033,2.85388613 100.033385,2.56452988 101.110608,2.86501521 C102.181167,3.16104892 103.025177,3.99127877 103.336127,5.05744526 L105.65049,12.8923222 L106.987579,13.406486 L113.926226,9.11511021 C114.872405,8.52749444 116.054019,8.47184901 117.049062,8.96820627 C118.046325,9.46456353 118.71487,10.4416973 118.817039,11.5523802 L119.556658,19.6988715 L120.747156,20.4489719 L128.394327,17.5843451 C129.438233,17.1970529 130.604299,17.3773441 131.483846,18.06067 C132.363393,18.7439959 132.827598,19.8324205 132.714323,20.9408776 L131.852545,29.0673365 L132.880904,30.0422445 L140.936753,28.7290123 C142.038407,28.5442695 143.144504,28.9471424 143.875239,29.7907272 C144.614858,30.620957 144.856955,31.7850595 144.526015,32.8579034 L142.10504,40.6527156 C142.378232,41.0244271 142.655867,41.4139452 142.940165,41.8279472 L151.075973,42.1173034 C152.186512,42.1529165 153.197102,42.7650163 153.747929,43.7399242 C154.298757,44.717058 154.314304,45.898967 153.783467,46.8716492 L149.898802,54.0387809 L150.480724,55.3564648 L158.401087,57.2350546 C159.484973,57.4932494 160.366741,58.2989952 160.713229,59.3429036 C161.079707,60.4001668 160.864263,61.5731725 160.144633,62.432338 L154.920658,68.7091428 C155.036154,69.1765644 155.140545,69.6395344 155.238273,70.0980528 L162.661114,73.4968758 C163.669484,73.95762 164.371344,74.9124956 164.517935,76.0187268 C164.664527,77.1271838 164.226974,78.2311892 163.358533,78.9345475 L157.008472,84.0784113 L157.04623,85.4895795 L163.665042,90.2750867 C164.571241,90.9205737 165.064321,91.9911918 164.993246,93.1397135 C164.917729,94.2526222 164.269175,95.2475625 163.283016,95.7617263 L156.07784,99.554519 L155.884606,100.700815 L155.835742,100.979042 L161.381774,106.935329 C162.152488,107.745527 162.436786,108.907403 162.139161,109.984699 C161.843758,111.057543 161.017517,111.901128 159.9514,112.217194 L152.137648,114.534269 L151.624579,115.880889 L155.904596,122.827665 C156.493181,123.775863 156.548708,124.959998 156.051187,125.95939 C155.555887,126.958782 154.578612,127.628753 153.470295,127.73114 L145.343371,128.470112 L144.594868,129.665376 L147.453395,137.326639 C147.839863,138.370547 147.659955,139.541327 146.978084,140.422751 C146.296213,141.301948 145.210106,141.76937 144.10401,141.655853 L135.992634,140.792236 C135.670577,141.139464 135.3463,141.484465 135.019802,141.825015 L136.319132,149.895829 C136.503482,150.999834 136.099245,152.110517 135.259678,152.842811 C134.422332,153.581783 133.260708,153.828848 132.196812,153.49275 L124.418598,151.066609 C124.047678,151.34261 123.658989,151.620837 123.245868,151.905742 L122.959349,160.058911 C122.914928,161.17182 122.30191,162.182341 121.337963,162.736569 C120.371794,163.288572 119.190181,163.301927 118.212906,162.769956 L111.061036,158.879228 L109.746158,159.462392 L107.871568,167.401882 C107.613923,168.474726 106.805451,169.35615 105.768208,169.701151 C104.713196,170.070637 103.540467,169.852507 102.685352,169.131342 L96.4219124,163.898446 C95.9554861,164.009737 95.4935019,164.116576 95.0359599,164.214512 L91.6443741,171.653193 C91.1868321,172.66594 90.2339897,173.367073 89.127893,173.516202 C88.0217963,173.663106 86.9201417,173.220169 86.2182812,172.3521 L81.0875915,165.990714 L79.6816493,166.028553 L74.9063321,172.661488 C74.2555563,173.56517 73.1849969,174.068205 72.074458,173.992527 C70.9639191,173.919075 69.9710973,173.269137 69.4580284,172.278648 L65.677754,165.053645 L64.5316779,164.859999 C64.4383926,164.844418 64.3473285,164.826612 64.2540432,164.811031 L58.3126602,170.353316 C57.5019668,171.123449 56.3470064,171.412805 55.2697837,171.114545 C54.1992242,170.818512 53.3574357,169.990508 53.0420427,168.922115 L50.7299007,161.09169 L49.3905908,160.5753 L42.454165,164.866676 C41.5079859,165.454292 40.3263725,165.512163 39.3291086,165.01358 C38.3318447,164.517223 37.6633003,163.540089 37.5611307,162.429406 L36.8237329,154.285141 L35.6332352,153.53504 L27.9860645,156.399667 C26.9421579,156.784734 25.7760921,156.604442 24.8965453,155.923342 C24.0169985,155.240016 23.5527932,154.151592 23.6660682,153.043135 L24.4967513,145.179322 L25.9426729,145.179322 L25.0964423,153.190039 C25.032031,153.802138 25.2896761,154.405335 25.7760921,154.783724 C26.2625081,155.162113 26.9088417,155.262275 27.486322,155.048596 L35.8109214,151.930226 L36.8459436,152.602423 L38.1896957,153.43933 L38.9937258,162.304761 C39.0536949,162.91686 39.426836,163.453282 39.9776633,163.724832 C40.5262695,163.996382 41.1770453,163.962994 41.6989985,163.640251 L49.2462208,158.972712 L51.9070719,160.00104 L54.4213319,168.517017 C54.594576,169.106858 55.0610023,169.563151 55.651809,169.727861 C56.2448368,169.892572 56.880065,169.732313 57.3265017,169.309408 L63.8031644,163.266314 L65.3357081,163.540089 L65.9531677,163.640251 L66.6083856,163.735961 L70.7373692,171.608677 C71.019446,172.154002 71.5636101,172.510133 72.1744065,172.552423 C72.789645,172.594714 73.3826728,172.316487 73.7447085,171.817904 L78.9375883,164.599578 L81.3963213,164.537255 L81.758357,164.521675 L87.3399254,171.443966 C87.726393,171.922517 88.3349683,172.165131 88.9435436,172.085002 C89.556561,172.004872 90.0851775,171.615354 90.3428226,171.054448 L94.0364749,162.948022 L94.3918473,162.876796 C95.0648339,162.738795 95.7400415,162.585214 96.4352389,162.409374 L96.7883902,162.320341 L103.613762,168.027337 C104.077967,168.421306 104.724301,168.541501 105.308445,168.338951 C105.890367,168.140854 106.33014,167.662303 106.478952,167.065784 L108.517902,158.427387 L110.199258,157.688415 L111.114342,157.26551 L118.905883,161.503466 C119.445604,161.795048 120.09638,161.788371 120.629439,161.483434 C121.162498,161.176271 121.500101,160.619817 121.526754,160.005491 L121.839926,151.12448 L122.139772,150.919705 C122.761674,150.4968 123.328048,150.091701 123.856665,149.695505 L124.149847,149.472924 L132.627701,152.114969 C133.214065,152.301938 133.853736,152.166163 134.31572,151.758838 C134.784367,151.355965 135.006475,150.737188 134.904306,150.127314 L133.4917,141.339787 L134.464532,140.324815 L135.430701,139.280906 L144.255043,140.222427 C144.86806,140.28475 145.469973,140.028781 145.845335,139.541327 C146.222918,139.053873 146.322866,138.40616 146.109643,137.827448 L142.997913,129.480633 L143.801943,128.234175 L144.503804,127.099008 L153.339251,126.295488 C153.952269,126.237617 154.49199,125.868131 154.767404,125.313903 C155.040597,124.7619 155.009502,124.105284 154.685224,123.582217 L150.020961,116.012212 L150.338575,115.233176 L151.053762,113.354586 L159.549384,110.832735 C160.13797,110.659122 160.595512,110.193926 160.759872,109.601858 C160.924232,109.005339 160.766535,108.368756 160.340088,107.921366 L154.294314,101.430883 L154.569728,99.8950691 L154.669677,99.2785177 L154.765183,98.6196758 L162.621135,94.4818814 C163.163078,94.1992026 163.520672,93.6538773 163.562872,93.0440034 C163.605072,92.5098072 163.411839,91.9845144 163.032034,91.6083512 L162.832137,91.4391891 L155.626961,86.2352283 L155.56255,83.7712485 L155.549223,83.4106661 L162.456775,77.8149614 C162.934307,77.4276692 163.176404,76.8177952 163.096446,76.2079213 C163.016487,75.5935957 162.630019,75.0638512 162.068087,74.8056564 L153.978921,71.106348 L153.905626,70.7457656 C153.765698,70.0602139 153.610223,69.3791138 153.441421,68.7024653 L153.352578,68.3463346 L159.042979,61.5130754 C159.440552,61.0412022 159.56049,60.3934893 159.356151,59.8103252 C159.158475,59.2249352 158.672059,58.7819976 158.072368,58.6373195 L149.454586,56.5917934 L148.626124,54.7065261 L148.292962,53.9898129 L152.521894,46.1816458 C152.815077,45.6385464 152.803971,44.9841561 152.497463,44.44996 C152.197617,43.913538 151.640127,43.5752138 151.027109,43.5551814 L142.165009,43.2413412 L141.96067,42.9408558 C141.676372,42.524628 141.4054,42.13511 141.134429,41.7633985 L140.514748,40.9264912 L143.153388,32.4305465 C143.339959,31.8429307 143.204473,31.1996695 142.798016,30.7389253 C142.396001,30.2692779 141.778541,30.0466962 141.169966,30.1490838 L132.401151,31.5802843 L131.38834,30.6053763 L130.344433,29.6371458 L131.283949,20.7917478 C131.34836,20.1774222 131.090715,19.5742257 130.604299,19.1958368 C130.117883,18.8174479 129.471549,18.7195119 128.894069,18.9331904 L120.567249,22.0537862 L119.534448,21.3815894 L118.190696,20.5424563 L117.386665,11.6903808 C117.331138,11.0760553 116.960218,10.5329558 116.409391,10.2591803 C115.856343,9.98317896 115.203346,10.0143404 114.679172,10.3415355 L107.13417,15.0113003 L104.473319,13.9807468 L101.959059,5.46476983 C101.785815,4.87492824 101.319389,4.41640988 100.728582,4.25392521 C100.135554,4.08921473 99.5003262,4.24724776 99.0538895,4.67237887 L92.5750057,10.7310536 L90.727069,10.4038584 L89.7720056,10.2614061 L85.6408009,2.38869031 C85.3587241,1.84336507 84.81456,1.48500848 84.2037636,1.44494377 C83.5907462,1.40265324 82.9977184,1.67865459 82.6356827,2.17723767 L77.4383608,9.39556319 L74.9818488,9.46233771 L74.6220342,9.47569262 L69.0382447,2.55340079 C68.6517772,2.07485007 68.0432019,1.83223598 67.4346265,1.91236541 C66.8238302,1.99249483 66.2952137,2.38201286 66.0375686,2.94291882 L62.3439163,11.0471196 L60.9735113,11.3409275 L59.592001,11.6748001 L52.7644079,5.97003036 C52.2957605,5.57383488 51.651648,5.45364074 51.0719467,5.65841593 C50.4878032,5.85651367 50.0458088,6.34174185 49.9014387,6.94493834 L47.8602682,15.5833353 L45.9790154,16.4135652 L45.2638283,16.7474378 L37.4700665,12.5072558 C36.9281235,12.2134479 36.2751267,12.2223512 35.742068,12.529514 C35.2067883,12.8299993 34.8691844,13.3909053 34.8491947,14.0052308 L34.5382438,22.8862419 L34.2361773,23.0910171 C33.8230568,23.3736959 33.4321471,23.6474714 33.0612271,23.9167953 L32.2261019,24.5400241 L23.7482481,21.8957532 C23.1618836,21.7087845 22.5222132,21.8445594 22.0624501,22.251884 C21.5938027,22.6547569 21.3694738,23.2735341 21.4716434,23.883408 L22.9020175,32.6709348 L21.9269643,33.6859075 L20.9607955,34.7298158 L12.1364536,33.7905209 C11.5234361,33.7259722 10.921524,33.984167 10.5461619,34.471621 C10.1685787,34.959075 10.0686302,35.6067878 10.2818536,36.1855003 L13.3935836,44.5278636 L12.5895534,45.7787729 L11.8854718,46.9139397 L3.05224552,47.7152339 C2.43922806,47.7708794 1.89950617,48.1425909 1.62409252,48.6945936 C1.35089996,49.2488221 1.38199505,49.9032124 1.7062724,50.4285052 L6.35943031,57.9829292 L4.67141121,57.9829292 L0.482458555,51.1852831 C-0.103905974,50.237085 -0.159432918,49.0529501 0.335867422,48.055784 C0.831167763,47.056392 1.8062209,46.386421 2.9145387,46.2840334 L11.0436833,45.5428363 L11.7921865,44.3497982 L8.93365943,36.6863092 C8.5471919,35.6401751 8.7270992,34.4693952 9.40897007,33.5901973 C10.0908409,32.7087737 11.176948,32.2435778 12.2830447,32.3570945 L20.3944207,33.2207116 C20.718698,32.8712583 21.0429754,32.5262566 21.3672527,32.1879324 L20.0545958,24.1171189 C19.8702463,23.0175651 20.2722614,21.9002048 21.1140499,21.1701367 C21.9491751,20.4311654 23.1107988,20.1840997 24.174695,20.5201981 L31.9529093,22.946339 C32.3260504,22.6703376 32.714739,22.3943363 33.1256384,22.1072058 L33.4143785,13.9562629 C33.4499157,12.8433542 34.0629332,11.8283815 35.0357653,11.2786046 C35.999713,10.7221503 37.1813264,10.7087954 38.1586006,11.2429916 L45.310471,15.135946 L46.625349,14.5505561 L48.4999386,6.61329156 C48.7575837,5.52931853 49.5638349,4.64566906 50.6032993,4.29844156 C51.6605323,3.92895589 52.8332614,4.14486017 53.6883763,4.86825079 L59.9495945,10.1011473 C60.4160208,9.98985641 60.878005,9.88301718 61.3377681,9.78508122 L64.7271328,2.34639978 C65.1868959,1.33365291 66.1397382,0.632520455 67.2436139,0.483390695 C68.3474895,0.336486753 69.4535862,0.779424397 70.1532257,1.64749315 L75.2839153,8.00887901 L76.6920786,7.97104012 L81.4651748,1.33810454 C82.1092873,0.436648532 83.1887311,-0.0663861793 84.2970489,0.00706579182 Z" id="path-5"/>
        <path d="M56.4643711,76.3087295 C58.4350717,76.0567878 65.1135571,75.894029 68.3377306,84.1612844 C68.6885242,85.0508838 69.2225349,86.6383396 69.8414511,88.4710483 C70.0412862,89.0625818 70.2503118,89.6813143 70.4633877,90.3065968 L70.8934169,91.5597766 C71.6861202,93.8508503 72.487206,96.0449066 73.043281,97.1240198 C74.3838937,99.9511179 78.8235559,104.909687 82.5459904,104.463773 L82.5459904,104.463773 L108.196379,101.221974 C108.442158,101.195219 108.705812,101.132791 108.987341,101.043608 L108.987341,101.043608 L110.725669,100.488445 L109.836396,102.07813 C108.346081,104.744699 106.668081,107.302019 104.813567,109.732253 L104.813567,109.732253 L104.570022,110.048852 L93.0563937,109.056693 C92.0040128,108.963051 90.9583349,109.295257 90.1539673,109.977506 C89.3406623,110.661985 88.8401669,111.622931 88.7507927,112.681978 L88.7507927,112.681978 L87.6715995,125.328114 L87.3587899,125.517628 C79.5810021,130.300061 70.8625511,133.356805 61.7955408,134.48051 C59.0830345,134.826093 56.3526533,135 53.6178035,135 C47.0376297,135 40.5378926,133.987774 34.2124352,131.967781 L34.2124352,131.967781 L33.870579,131.858532 L30.7424827,122.951389 L32.2685468,122.951389 L34.9899905,130.705843 C43.5877864,133.403626 52.6704372,134.204043 61.6100893,133.055813 C70.3531183,131.97224 78.7632284,129.049271 86.2907685,124.483106 L86.2907685,124.483106 L87.3096341,112.56381 C87.4280549,111.130195 88.1140017,109.803599 89.2177728,108.880556 C90.3148408,107.950825 91.740359,107.500451 93.1725802,107.629766 L93.1725802,107.629766 L103.897481,108.54835 C105.300656,106.679968 106.60105,104.73801 107.791961,102.729165 L107.791961,102.729165 L82.7225044,105.895159 C78.2493269,106.468159 73.2711852,100.98564 71.7473554,97.7661367 C70.8960664,96.1207121 69.6113126,92.2992245 68.4717918,88.9325698 C67.8618131,87.1154681 67.3300367,85.5503081 66.9904148,84.6874635 C64.1460816,77.3833835 58.3479319,77.5238466 56.6408851,77.7378855 L56.6408851,77.7378855 L41.0786064,79.702139 L42.3566571,89.7909553 L56.6967439,87.9805423 C58.1758866,87.7977174 58.4886962,88.6115114 58.5557268,89.1131652 L58.5557268,89.1131652 L60.8571119,107.284182 C60.9219082,107.788066 60.8101904,108.657599 59.3422196,108.844883 L59.3422196,108.844883 L32.3422805,112.25167 L32.3422805,110.802448 L59.1612369,107.417957 C59.2461423,107.409038 59.3310478,107.393431 59.4137189,107.373365 L59.4137189,107.373365 L57.132443,89.3829435 C57.0788185,89.3874027 56.9961474,89.3896322 56.8777266,89.4052392 L56.8777266,89.4052392 L41.1098873,91.3962476 L39.4698712,78.4558079 L56.4643711,76.3087295 Z M22.7233847,122.94693 C23.4607216,122.99821 24.1801838,123.187724 24.843787,123.504323 C26.9842986,124.536616 28.2936303,126.752811 28.1618034,129.120617 C28.0322108,131.490653 26.4860375,133.548548 24.24498,134.340046 C22.7770092,134.855078 21.1615709,134.765895 19.7583963,134.092564 C18.3418156,133.412544 17.2760285,132.224182 16.7554239,130.741516 C15.6874025,127.682543 17.2961377,124.338184 20.354969,123.25907 C20.9805882,123.036113 21.628551,122.951389 22.2765138,122.94693 L22.2765138,122.94693 L22.7233847,122.94693 Z M22.303326,124.360479 C20.2298451,124.362709 18.4311898,125.796324 17.9731471,127.814087 C17.5128701,129.83408 18.5138609,131.900894 20.3840156,132.797182 C21.4498026,133.309984 22.649651,133.376871 23.7668282,132.984466 C26.079385,132.166213 27.2948738,129.640107 26.4882719,127.32804 C25.8671214,125.551071 24.1891212,124.360479 22.303326,124.360479 Z M98.1584885,113.598517 L98.624405,113.620628 C100.992821,113.830208 103.001505,115.439959 103.720967,117.700746 C104.438195,119.961532 103.723202,122.434129 101.908906,123.965845 C100.836416,124.868822 99.5136781,125.34818 98.132847,125.34818 C95.6638854,125.343721 93.4585775,123.803086 92.6117572,121.48879 C91.7627025,119.176723 92.4508837,116.579271 94.3344445,114.987356 C95.523121,113.97513 97.0692943,113.484624 98.624405,113.620628 L98.1584885,113.598517 Z M98.4992811,115.060932 C97.3262451,114.956142 96.1621464,115.326251 95.2639359,116.086535 C93.896511,117.243683 93.3580316,119.107606 93.9009797,120.815459 C94.4416935,122.521082 95.9565858,123.736199 97.7440693,123.896728 C98.9148711,123.999289 100.081204,123.629179 100.97718,122.871125 C101.879859,122.1153 102.442917,121.031727 102.538994,119.858972 C102.749023,117.422049 100.941431,115.274971 98.4992811,115.060932 Z M57.1748958,6.94226507 L57.5435643,6.9645608 C76.3724691,8.06151054 93.6954191,17.3499102 105.079455,32.4463467 L105.079455,32.4463467 L105.300656,32.7339615 L100.887806,47.4424523 C100.259952,49.5449393 101.453098,51.7611346 103.55786,52.3987923 L103.55786,52.3987923 L116.231118,56.2002137 L116.322727,56.6059959 C117.149438,60.2245923 117.663339,63.9078464 117.859962,67.6133961 L117.859962,67.6133961 L117.897946,68.2822679 L110.765887,69.1830153 C110.665341,69.1986223 110.631826,69.220918 110.631826,69.220918 C110.620654,69.2387546 110.591607,69.3390854 110.61842,69.5508948 L110.61842,69.5508948 L110.993791,72.5095377 C111.735597,78.351018 109.503477,81.8180035 104.183479,83.1044669 C103.457314,83.2828327 102.702102,83.3653269 101.958062,83.3653269 C99.0221201,83.3653269 96.2068335,82.0877818 95.523121,80.2060225 C92.3548064,70.034712 89.1149925,68.0949838 83.7480731,64.8777105 L83.7480731,64.8777105 L82.5057721,64.1308036 L83.2900305,63.4842276 C90.9695067,57.1299455 94.4729744,50.7935 93.6909504,44.6421091 C92.622929,36.2187836 85.9712558,31.7640974 82.0991196,29.8600424 C76.2920324,27.0106485 70.1207454,26.9861232 68.422636,27.1979326 L68.422636,27.1979326 L0,35.8375267 L0.916085321,34.5131605 C8.92401163,22.9528263 20.676716,14.2285085 34.0068746,9.94772901 L34.0068746,9.94772901 L34.3755431,9.83179123 L43.5989582,17.3320736 C44.4167319,17.9987159 45.4668785,18.310856 46.5170251,18.201607 C47.5716404,18.0901283 48.5234754,17.5795562 49.1937817,16.7523847 L49.1937817,16.7523847 L57.1748958,6.94226507 Z M57.8340303,8.41824217 L50.3198963,17.6553617 C49.4172172,18.7746071 48.1011824,19.4836112 46.6711955,19.6285335 C45.2389744,19.7756853 43.8067532,19.3453777 42.6940446,18.4334825 L42.6940446,18.4334825 L34.0783739,11.4303948 C21.7134565,15.4882171 10.7651197,23.4611689 3.04765946,33.9981292 L3.04765946,33.9981292 L68.2416533,25.766547 C70.187776,25.521294 76.5780297,25.5435897 82.7359106,28.5646607 C86.8672319,30.5958014 93.965776,35.3648573 95.1187029,44.4570545 C95.9364766,50.9094378 92.5268517,57.4576927 84.9814368,63.9323717 C90.1740765,67.0537734 93.6663725,69.403743 96.8905459,79.7400418 C97.4223223,81.1981823 100.811838,82.4378247 103.843857,81.7020657 C106.942907,80.9529293 110.39275,79.2495358 109.56157,72.6856739 L109.56157,72.6856739 L109.186198,69.7292606 C109.125871,69.2342954 109.195136,68.8106766 109.396228,68.4762407 C109.653179,68.0593106 110.095581,67.7917619 110.58267,67.7560888 L110.58267,67.7560888 L116.378585,67.0225594 C116.175259,63.7629241 115.717216,60.5233551 115.008926,57.3350662 L115.008926,57.3350662 L103.14227,53.7766682 C100.277827,52.9093645 98.6534516,49.8949822 99.5114437,47.032211 L99.5114437,47.032211 L103.714264,33.0193468 C92.6542099,18.524895 75.9702853,9.57984952 57.8340303,8.41824217 L57.8340303,8.41824217 Z M57.7893432,46.8426973 C58.9020518,46.7022342 66.4206544,47.0701137 67.1356479,52.7176212 C67.4082391,54.8646997 66.4251232,56.7375407 64.2913147,58.1421715 C62.0837725,59.5958529 59.351157,60.1153433 57.9189358,60.2959387 L57.9189358,60.2959387 L37.5014049,62.8733247 L35.8211704,49.6162857 L57.7893432,46.8426973 Z M65.705661,52.9026758 C65.1448381,48.4792036 58.852896,48.1626043 57.9658572,48.2718533 L57.9658572,48.2718533 L37.4299056,50.8648463 L38.7481747,61.2702619 L57.7357187,58.8712417 C59.9656045,58.5903156 62.0658976,57.8902298 63.4958845,56.944891 C65.1627129,55.8479412 65.9067529,54.4856723 65.705661,52.9026758 Z M109.342603,39.4494344 C110.712263,38.7114458 112.323232,38.548687 113.813546,39.0012903 C116.919299,39.9421699 118.67997,43.2107234 117.752713,46.3142886 C117.308077,47.8081022 116.282508,49.0611221 114.906146,49.796881 C114.041451,50.2628617 113.094084,50.501426 112.135546,50.501426 C110.274329,50.4969669 108.52483,49.6185152 107.414355,48.1291607 C106.303881,46.6375766 105.962025,44.7134554 106.493801,42.9342564 C106.938438,41.4382132 107.964007,40.1829638 109.342603,39.4494344 Z M113.402425,40.3769366 C112.278545,40.0335824 111.060822,40.1562089 110.02855,40.7180612 C108.985107,41.2799135 108.218723,42.2118749 107.879101,43.3489569 C107.175279,45.6944674 108.506955,48.1648339 110.855261,48.8716084 C111.979141,49.2149626 113.19463,49.0923361 114.229136,48.5327134 C115.808825,47.678787 116.718207,45.9620161 116.539459,44.1805875 C116.358476,42.3969294 115.120644,40.896427 113.402425,40.3769366 Z M44.6155895,0.0328194176 C46.1662314,-0.132168959 47.7168734,0.32935258 48.9234248,1.31705327 C51.4393079,3.36603053 51.8213825,7.05820285 49.7791826,9.57761995 C48.6642397,10.9532663 46.9840052,11.7514533 45.2099277,11.7448063 L45.2099277,11.7448063 C43.862612,11.742535 42.5689208,11.2854726 41.5143055,10.4270871 C39.0006568,8.37810986 38.6163478,4.68593755 40.6585478,2.16875002 C41.6394293,0.958092069 43.0649475,0.188889503 44.6155895,0.0328194176 Z M45.2233339,1.43967976 C43.8849556,1.43076147 42.6158422,2.03274609 41.7734906,3.07395652 C40.2340204,4.97801156 40.5244865,7.76720695 42.4214534,9.31675995 C43.33307,10.0592076 44.5038717,10.4092505 45.6746735,10.2888536 C46.8454752,10.1684567 47.9201997,9.58653824 48.659771,8.67464302 C49.7322611,7.34581772 49.9489935,5.52202729 49.2161253,3.98139259 C48.483257,2.43852831 46.932615,1.45082763 45.2233339,1.43967976 Z" id="path-7"/>
        <polygon id="path-9" points="0 0 6.88437765 0 6.88437765 7 0 7"/>
    </defs>
    <g id="RustConf-2023-Color" stroke="none" stroke-width="1" fill="none" fill-rule="evenodd">
        <g id="RustConf-2022-Logo-on-Dark">
            <g id="Conf-Word" transform="translate(0.000000, 103.000000)">
                <mask id="mask-2" fill="white">
                    <use xlink:href="#path-1"/>
                </mask>
                <g id="Clip-5"/>
                <polygon id="Fill-4" fill="#36235B" mask="url(#mask-2)" points="-0.133648749 43.1902314 129.23834 43.1902314 129.23834 -0.203461195 -0.133648749 -0.203461195"/>
            </g>
            <g id="Rust-Word" transform="translate(1.000000, 67.000000)">
                <mask id="mask-4" fill="white">
                    <use xlink:href="#path-3"/>
                </mask>
                <g id="Clip-8"/>
                <polygon id="Fill-7" fill="#D13B62" mask="url(#mask-4)" points="-0.258410345 36.2507775 128.055692 36.2507775 128.055692 -0.0223908446 -0.258410345 -0.0223908446"/>
            </g>
            <g id="Gear-Line-Image" transform="translate(72.000000, 0.000000)">
                <g id="Group-3">
                    <mask id="mask-6" fill="white">
                        <use xlink:href="#path-5"/>
                    </mask>
                    <g id="Clip-2"/>
                    <polygon id="Fill-1" fill="#D13B62" mask="url(#mask-6)" points="-0.110569207 174.166141 165.137616 174.166141 165.137616 -0.248903198 -0.110569207 -0.248903198"/>
                </g>
                <g id="Group-15" transform="translate(24.000000, 16.000000)">
                    <mask id="mask-8" fill="white">
                        <use xlink:href="#path-7"/>
                    </mask>
                    <g id="Clip-14"/>
                    <polygon id="Fill-13" fill="#D13B62" mask="url(#mask-8)" points="-0.259185115 135.249712 117.982852 135.249712 117.982852 -0.129939386 -0.259185115 -0.129939386"/>
                </g>
            </g>
        </g>
        <g id="Group-10" transform="translate(38.000000, 61.000000)">
            <path d="M0.0346010601,5.72000059 C0.0346010601,4.10539865 1.38369982,3.34417533 2.975006,2.90600943 C3.35561766,2.80220625 4.19734839,2.54869353 4.19734839,1.96047551 C4.19734839,1.46475537 3.62077825,1.30305537 3.10210494,1.30305537 C2.15622844,1.30305537 1.52210406,1.75286915 0.864683917,2.30648611 L0,1.26879689 C0.841730738,0.61137675 1.6605083,0.000205550852 3.055856,0.000205550852 C4.39364946,0.000205550852 5.76570139,0.565127809 5.76570139,1.94882763 C5.76570139,3.43667321 4.2668931,3.8861444 3.15965918,4.232155 C2.1908295,4.54356455 1.62590724,4.86662197 1.62590724,5.45483999 L1.62590724,5.52404211 L5.63894503,5.52404211 L5.63894503,6.76933769 L0.0346010601,6.76933769 L0.0346010601,5.72000059 Z" id="Fill-1" fill="#36235B"/>
            <path d="M24.9402385,5.63901355 C26.0587778,5.63901355 27.0043117,4.64723069 27.0043117,3.49409041 C27.0043117,2.31799696 26.0587778,1.36081516 24.9402385,1.36081516 C23.7984036,1.36081516 22.8874707,2.31799696 22.8874707,3.49409041 C22.8874707,4.64723069 23.7984036,5.63901355 24.9402385,5.63901355 M24.9402385,6.85169506e-05 C26.9121564,6.85169506e-05 28.5726647,1.54546834 28.5726647,3.49409041 C28.5726647,5.43174978 26.9121564,6.98811231 24.9402385,6.98811231 C22.9566728,6.98811231 21.3191177,5.43174978 21.3191177,3.49409041 C21.3191177,1.54546834 22.9566728,6.85169506e-05 24.9402385,6.85169506e-05" id="Fill-3" fill="#36235B"/>
            <path d="M44.1490684,5.72000059 C44.1490684,4.10539865 45.4981672,3.34417533 47.0894733,2.90600943 C47.470085,2.80220625 48.3118157,2.54869353 48.3118157,1.96047551 C48.3118157,1.46475537 47.7355882,1.30305537 47.2162297,1.30305537 C46.2706958,1.30305537 45.6365714,1.75286915 44.9794939,2.30648611 L44.1141248,1.26879689 C44.9561981,0.61137675 45.7749757,0.000205550852 47.1703234,0.000205550852 C48.5081168,0.000205550852 49.8801687,0.565127809 49.8801687,1.94882763 C49.8801687,3.43667321 48.3813605,3.8861444 47.2741265,4.232155 C46.3052968,4.54356455 45.7403746,4.86662197 45.7403746,5.45483999 L45.7403746,5.52404211 L49.7534124,5.52404211 L49.7534124,6.76933769 L44.1490684,6.76933769 L44.1490684,5.72000059 Z" id="Fill-5" fill="#36235B"/>
            <g id="Group-9" transform="translate(65.179661, 0.000000)">
                <mask id="mask-10" fill="white">
                    <use xlink:href="#path-9"/>
                </mask>
                <g id="Clip-8"/>
                <path d="M2.92909964,2.74478904 L3.97843674,2.74478904 C4.47449946,2.74478904 4.82051006,2.47962844 4.82051006,2.0873689 C4.82051006,1.51079876 4.1747378,1.3031924 3.6670272,1.3031924 C2.8715454,1.3031924 2.04111996,1.78760724 1.42994876,2.32957632 L0.541969079,1.36074664 C1.31484028,0.692021201 2.39877844,0 3.69032296,0 C4.83215794,0 6.40016836,0.507710604 6.40016836,1.89141042 C6.40016836,2.4446848 6.00790881,2.89449858 5.65059292,3.10210494 C6.20420988,3.29806342 6.8845832,3.7478772 6.8845832,4.68176323 C6.8845832,6.15796094 5.36247914,7.00003426 3.45976342,7.00003426 C2.11032208,7.00003426 0.992125445,6.56186836 0,5.61599186 L0.876674383,4.57830264 C1.5570477,5.22373231 2.36417738,5.69684186 3.45976342,5.69684186 C4.48614734,5.69684186 5.3049249,5.29293443 5.3049249,4.60125582 C5.3049249,4.04798144 4.64750476,3.94383568 4.24393992,3.94383568 L2.92909964,3.94383568 L2.92909964,2.74478904 Z" id="Fill-7" fill="#36235B" mask="url(#mask-10)"/>
            </g>
        </g>
    </g>
</svg>