<svg xmlns="http://www.w3.org/2000/svg" width="324" height="60" viewBox="0 0 324 60"><g fill="#fff"><path d="M27.129 4.634c-12.236 0-22.195 9.963-22.195 22.195 0 12.23 9.963 22.194 22.195 22.194 12.23 0 22.194-9.963 22.194-22.194S39.36 4.634 27.13 4.634m-.033 1.972a1.46 1.46 0 1 1-.085 2.92 1.46 1.46 0 0 1 .085-2.92m3.343 2.404a17.97 17.97 0 0 1 12.301 8.761l-1.723 3.888c-.296.671.01 1.46.676 1.76l3.315 1.47c.103 1.037.116 2.08.038 3.118H43.2c-.183 0-.258.122-.258.3v.846c0 1.99-1.122 2.427-2.108 2.535-.939.108-1.977-.394-2.108-.967-.554-3.113-1.474-3.775-2.93-4.925 1.808-1.146 3.686-2.841 3.686-5.104 0-2.446-1.676-3.986-2.817-4.742-1.606-1.057-3.38-1.268-3.86-1.268H13.742A17.97 17.97 0 0 1 23.795 9.01l2.249 2.357c.507.53 1.347.554 1.878.042ZM9.686 19.818a1.46 1.46 0 1 1-.085 2.92 1.46 1.46 0 0 1 .085-2.92m34.815.066a1.46 1.46 0 1 1-.084 2.92 1.46 1.46 0 0 1 .084-2.92m-32.064.235h2.545v11.475H9.845a18 18 0 0 1-.582-6.86l3.146-1.399a1.33 1.33 0 0 0 .676-1.756Zm10.62.122h6.062c.315 0 2.212.362 2.212 1.784 0 1.179-1.456 1.601-2.653 1.601h-5.625Zm0 8.245h4.644c.423 0 2.268.122 2.855 2.48.183.722.592 3.08.869 3.835.277.845 1.399 2.536 2.596 2.536H41.6a18 18 0 0 1-1.662 1.925l-3.085-.662a1.334 1.334 0 0 0-1.582 1.023l-.732 3.418a17.97 17.97 0 0 1-14.983-.07l-.732-3.418a1.33 1.33 0 0 0-1.578-1.024l-3.02.648a18 18 0 0 1-1.558-1.84H27.35c.165 0 .277-.029.277-.184V31.96c0-.15-.112-.183-.277-.183h-4.296Zm-6.775 11.893a1.46 1.46 0 1 1-.084 2.92 1.46 1.46 0 0 1 .084-2.92m21.622.066a1.46 1.46 0 1 1-.084 2.92 1.46 1.46 0 0 1 .084-2.92"/><path fill-rule="evenodd" stroke="#fff" stroke-linecap="round" stroke-linejoin="round" stroke-width="1.409" d="M48.084 26.829c0 11.573-9.382 20.955-20.955 20.955-11.574 0-20.955-9.382-20.955-20.955 0-11.574 9.381-20.955 20.955-20.955s20.955 9.381 20.955 20.955m-.395-2.024 3.268 2.024-3.268 2.023 2.808 2.625-3.597 1.347 2.245 3.123-3.799.62 1.597 3.502-3.846-.136.883 3.747-3.747-.883.136 3.846-3.502-1.597-.62 3.799-3.123-2.245-1.347 3.597-2.625-2.808-2.023 3.268-2.024-3.268-2.625 2.808-1.347-3.597-3.123 2.245-.62-3.799-3.502 1.597.136-3.846-3.747.883.883-3.747-3.846.136 1.597-3.502-3.799-.62 2.245-3.123-3.597-1.347 2.808-2.625L3.3 26.83l3.268-2.024L3.76 22.18l3.597-1.347-2.245-3.123 3.799-.62-1.597-3.502 3.846.136-.883-3.747 3.747.883-.136-3.846 3.503 1.597.62-3.799 3.122 2.245L22.48 3.46l2.625 2.808L27.129 3l2.023 3.268 2.625-2.808 1.347 3.597 3.123-2.245.62 3.799 3.502-1.597-.136 3.846 3.747-.883-.883 3.747 3.846-.136-1.597 3.503 3.799.62-2.245 3.122 3.597 1.347Z"/><g fill-rule="evenodd"><path stroke="#fff" stroke-linecap="round" stroke-linejoin="round" stroke-width="1.203" d="M88.037 37.346c0 9.886-8.014 17.9-17.9 17.9s-17.9-8.014-17.9-17.9 8.015-17.9 17.9-17.9c9.886 0 17.9 8.014 17.9 17.9m-.337-1.729 2.791 1.729-2.791 1.729 2.398 2.242-3.072 1.15 1.917 2.668-3.244.529 1.363 2.992-3.285-.116.755 3.2-3.201-.754.116 3.285-2.992-1.364-.529 3.245-2.667-1.917-1.151 3.072-2.242-2.398-1.729 2.791-1.728-2.791-2.242 2.398-1.151-3.072-2.667 1.917-.53-3.245-2.992 1.364.117-3.285-3.2.754.753-3.2-3.285.116 1.364-2.992-3.245-.53 1.917-2.666-3.072-1.151 2.399-2.242-2.792-1.729 2.792-1.729-2.399-2.242 3.072-1.15-1.917-2.668 3.245-.53-1.364-2.991 3.285.116-.754-3.2 3.2.754-.116-3.285 2.992 1.364.53-3.245 2.667 1.917 1.15-3.072 2.243 2.398 1.728-2.791 1.729 2.791 2.242-2.398 1.15 3.072 2.668-1.917.53 3.245 2.991-1.364-.116 3.285 3.2-.754-.754 3.2 3.285-.116-1.363 2.992 3.244.53-1.917 2.666 3.072 1.151Z"/><path d="M70.054 55.656c-10.067 0-18.227-8.16-18.227-18.226 0-10.067 8.16-18.229 18.227-18.229s18.228 8.162 18.228 18.229-8.162 18.226-18.228 18.226m0-2.761c8.541 0 15.466-6.924 15.466-15.465q0-.528-.035-1.045c-.422.522-1.041 1.062-1.941 1.596 0 0-.54.862-1.453 1.656l1.279.943s.333.175 0 .795c-.294.547-1.898 2.8-2.746 3.982-.344.584-.584.951-.62.93-.055-.033.042-.996.704-2.228.487-1.085 1.078-2.723.85-2.856 0 0-.067-.055-.178-.123q-.031.078-.08.17c-.22.402-1.317 1.978-1.897 2.805-.25.422-.419.684-.433.66-.024-.039.157-.826.652-1.73.301-.633.678-1.533.789-1.977-.317.276-3.2 2.308-9.69 2.314-6.349.007-9.462-1.56-9.992-1.896.19.462.507 1.088.772 1.56.567.88.77 1.651.744 1.69-.017.024-.21-.228-.496-.639-.665-.801-1.924-2.332-2.176-2.722a1.1 1.1 0 0 1-.144-.317c-.193.146-.29.268-.29.268-.214.183.701 1.776 1.407 2.812.915 1.155 1.19 2.142 1.138 2.188-.033.029-.352-.307-.816-.848-1.1-1.066-3.182-3.1-3.588-3.613-.46-.582-.144-.83-.144-.83l.982-1.043c-1.8-.978-2.037-1.864-2.037-1.864-.632-.305-1.117-.611-1.488-.914q-.004.138-.004.276c0 8.541 6.923 15.465 15.465 15.465m.753-10.46a1 1 0 0 0 .409-.066 1.3 1.3 0 0 0 .39-.238c.036-.032.055-.053.055-.053.11-.102.19-.216.246-.32v-.002a1.5 1.5 0 0 0 .125-.315l-2.26.182a1 1 0 0 0 .137.277c.045.068.082.108.082.108a1.8 1.8 0 0 0 .367.29c.158.09.31.13.45.138m-2.505-1.525q.274-.016.488-.08.215-.063.375-.162a1.3 1.3 0 0 0 .344-.309c.178-.233.257-.508.289-.765v-.002q.022-.194.017-.361v-.002a3 3 0 0 0-.01-.155v-.002a3 3 0 0 0-.03-.23v-.002c-.01-.054-.018-.086-.018-.086v-.002a2 2 0 0 0-.237-.543v-.002a1 1 0 0 0-.072-.101v-.002q-.04-.048-.08-.09a1.2 1.2 0 0 0-.168-.15c-.702-.519-1.7-.077-1.7-.077l-.052.086a.6.6 0 0 1 .16-.111.45.45 0 0 1 .307-.024.5.5 0 0 1 .213.123q.046.045.088.1v.002a.9.9 0 0 1 .129.26v.002q.022.073.035.152v.002a1.1 1.1 0 0 1 0 .33.9.9 0 0 1-.252.518.55.55 0 0 1-.213.123.45.45 0 0 1-.242 0 .5.5 0 0 1-.213-.123c-.16-.148-.264-.398-.264-.682q0-.08.01-.156v-.002q.011-.075.031-.145a4 4 0 0 0-.176.399 3 3 0 0 0-.107.36 2 2 0 0 0-.043.32 1.6 1.6 0 0 0 .033.411v.002a1.3 1.3 0 0 0 .186.434 1.4 1.4 0 0 0 .21.248c.41.387.962.494.962.494m4.703-.084q.056 0 .113-.008.168-.02.324-.072a2.4 2.4 0 0 0 .375-.16c.218-.115.362-.229.362-.229q.038-.035.072-.072a1.1 1.1 0 0 0 .228-.416 1.5 1.5 0 0 0 .059-.37 2 2 0 0 0-.022-.374 3 3 0 0 0-.123-.512v-.002c-.033-.1-.07-.191-.101-.267v-.002a4 4 0 0 0-.08-.18l-.033-.066a2 2 0 0 0-.11-.112 1.45 1.45 0 0 0-.539-.336 1.1 1.1 0 0 0-.588-.03 1.4 1.4 0 0 0-.32.113.4.4 0 0 1 .223.001.5.5 0 0 1 .207.122q.046.042.085.095v.002a.919.919 0 0 1 .158.402v.003q.012.077.012.16c0 .33-.145.613-.353.734a.442.442 0 0 1-.451 0 .6.6 0 0 1-.184-.17.8.8 0 0 1-.125-.254q-.045-.144-.045-.31c0-.172.039-.331.106-.461v-.002q.021-.039.045-.072v-.002a.7.7 0 0 1 .097-.12c-.177.12-.285.237-.285.237q-.084.134-.146.261a3 3 0 0 0-.108.247c-.09.24-.132.458-.138.652q-.003.096.003.184v.001q.007.09.022.168v.002q.014.08.035.153c.11.386.332.593.332.593a1.3 1.3 0 0 0 .203.227q.107.092.22.147.116.053.233.076.118.022.237.02m-14.034-1.8.227-.24.016-.057-.729-1.057a.4.4 0 0 1-.04-.37.37.37 0 0 1 .278-.23l1.233-.209q.072-.146.148-.289l-.52-1.185a.4.4 0 0 1 .03-.371.37.37 0 0 1 .318-.168l1.25.045q.098-.127.198-.25l-.287-1.272a.39.39 0 0 1 .097-.357.36.36 0 0 1 .344-.102l1.217.299q.12-.105.24-.205l-.043-1.305a.38.38 0 0 1 .162-.33.35.35 0 0 1 .356-.031l1.136.54q.138-.078.278-.153l.2-1.288c.021-.13.105-.24.222-.29a.35.35 0 0 1 .353.042l1.014.762.3-.096.438-1.218a.37.37 0 0 1 .272-.243.36.36 0 0 1 .34.116l.853.953q.154-.018.308-.031l.66-1.11a.36.36 0 0 1 .311-.181c.127 0 .244.069.31.181l.66 1.11q.155.014.31.03l.853-.952a.36.36 0 0 1 .338-.116.37.37 0 0 1 .273.243l.436 1.218q.152.046.303.096l1.011-.762a.36.36 0 0 1 .356-.043c.117.051.2.161.22.291l.202 1.288q.138.075.275.154l1.137-.541a.35.35 0 0 1 .355.031.39.39 0 0 1 .164.33l-.045 1.305q.122.1.24.205l1.22-.299a.35.35 0 0 1 .341.102c.09.093.127.228.098.357l-.287 1.272q.1.123.197.25l1.252-.045a.36.36 0 0 1 .316.168c.071.11.083.25.03.37l-.518 1.186q.075.143.147.29l1.232.208a.37.37 0 0 1 .281.23.4.4 0 0 1-.043.37l-.728 1.057.056.187c.357-.264.742-.59 1.149-1.004l.275-.613s-3.032-3.018 1.682-5.1c0 0-.412.674-.291 3.28 0 0 .689-.242 1.248-1.164v-.002c-1.442-7.048-7.679-12.35-15.152-12.35-7.502 0-13.755 5.341-15.167 12.428.484 1.283 1.381 1.884 1.381 1.884l-.504-3.494c4.338 2.018 1.563 5.176 1.563 5.176.279.446.953.802 1.644 1.068"/></g><path fill-rule="evenodd" d="M309.171 30.824h3.24v6.48c0 5.4 3.312 7.056 7.236 7.056.828 0 1.908-.072 2.88-.252v-4.824c-.648.108-1.44.18-2.052.18-1.764 0-2.808-.576-2.808-2.988v-5.652h4.86V26h-4.86v-5.04h-4.356l-.72 5.04h-3.42ZM300.808 44h5.256V26h-5.256Zm-.144-23.508c0 1.728 1.044 2.772 2.772 2.772s2.772-1.044 2.772-2.772-1.044-2.772-2.772-2.772-2.772 1.044-2.772 2.772M269.189 26v18h5.256V33.812c0-2.412 1.188-3.744 2.952-3.744 1.692 0 2.664 1.332 2.664 3.744V44h5.256V33.812c0-2.412 1.188-3.744 2.952-3.744 1.692 0 2.664 1.332 2.664 3.744V44h5.256V33.488c0-3.708-1.836-7.848-6.12-7.848-2.304 0-4.464 1.188-5.832 3.132-.936-1.8-2.592-3.132-4.968-3.132-1.944 0-3.78.9-5.004 2.628l-.36-2.268Zm-31.62 0v18h5.256V33.812c0-2.412 1.188-3.744 2.952-3.744 1.692 0 2.664 1.332 2.664 3.744V44h5.256V33.812c0-2.412 1.188-3.744 2.952-3.744 1.692 0 2.664 1.332 2.664 3.744V44h5.256V33.488c0-3.708-1.836-7.848-6.12-7.848-2.304 0-4.464 1.188-5.832 3.132-.936-1.8-2.592-3.132-4.968-3.132-1.944 0-3.78.9-5.004 2.628l-.36-2.268Zm-22.295 0v10.872c0 4.176 2.16 7.488 6.66 7.488 2.376 0 4.428-.936 5.76-2.628l.36 2.268h4.716V26h-5.256v10.188c0 2.412-1.908 3.744-3.924 3.744-1.692 0-3.06-.972-3.06-3.384V26Zm-22.692 9.648c.216 5.364 3.996 8.712 9.828 8.712 5.544 0 9.396-2.952 9.396-7.992 0-5.544-4.68-6.804-8.208-7.668-2.88-.684-5.076-1.224-5.076-3.096 0-1.476 1.368-2.484 3.492-2.484 2.412 0 3.852 1.26 4.032 3.24h5.22c-.144-4.788-3.816-7.92-9.144-7.92-5.22 0-8.82 3.06-8.82 7.344 0 5.904 4.716 7.056 8.532 7.956 2.592.612 4.752 1.188 4.752 3.132 0 1.8-1.872 2.808-4.14 2.808-2.808 0-4.428-1.476-4.644-4.032Zm-25.187-4.824h3.24v6.48c0 5.4 3.312 7.056 7.236 7.056.828 0 1.908-.072 2.88-.252v-4.824c-.648.108-1.44.18-2.052.18-1.764 0-2.808-.576-2.808-2.988v-5.652h4.86V26h-4.86v-5.04h-4.356l-.72 5.04h-3.42Zm-17.759 7.128c.18 3.924 3.096 6.408 7.848 6.408 4.608 0 8.136-2.34 8.136-6.156 0-4.86-4.032-5.4-6.732-5.724-2.268-.288-3.78-.504-3.78-1.62 0-.9 1.08-1.26 2.304-1.26 1.62 0 2.772.612 2.952 1.944h4.896c-.216-3.564-2.988-5.904-7.416-5.904-4.284 0-7.668 2.196-7.668 5.76 0 4.788 3.996 5.436 6.984 5.94 1.764.288 3.168.54 3.168 1.548 0 .972-1.188 1.512-2.628 1.512-1.62 0-2.952-.72-3.168-2.448ZM128.673 26v10.872c0 4.176 2.16 7.488 6.66 7.488 2.376 0 4.428-.936 5.76-2.628l.36 2.268h4.716V26h-5.256v10.188c0 2.412-1.908 3.744-3.924 3.744-1.692 0-3.06-.972-3.06-3.384V26Zm-23.304 18h5.4v-9.072h2.268l1.584 2.52c2.16 3.456 4.392 6.912 8.532 6.912.612 0 1.332-.072 2.052-.252V38.96a6 6 0 0 1-.828.072c-2.124 0-3.42-1.872-4.536-3.528l-.864-1.26c3.204-1.188 5.292-3.816 5.292-7.488 0-4.68-3.384-7.956-8.496-7.956H105.37Zm5.4-20.448h4.356c2.232 0 3.564 1.332 3.564 3.312s-1.332 3.312-3.564 3.312h-4.356Z"/></g></svg>