<svg xmlns="http://www.w3.org/2000/svg" width="300" height="300" viewBox="0 0 300 300"><path d="M179.035 38.637c-3.15.747-5.6 3.305-6.997 6.137-1.054 2.1-1.395 4.514-1.097 6.835-2.407-1.198-5.512-.302-7.122 1.802-.496.57-.829 1.26-1.118 1.952-1.345-2.1-2.79-4.154-4.36-6.084-.852-.866-2.392-.91-3.288-.164.854-1.12.658-2.857-.526-3.667-2.046-1.33-3.992-2.833-6.047-4.136-.925-.363-2.026-.187-2.77.476-1.854 1.282-3.748 2.518-5.542 3.878-.997.865-1.036 2.433-.268 3.459-1.197-1.032-3.112-.448-3.854.86-1.284 1.781-2.643 3.515-3.79 5.388-.939-2.645-3.701-4.66-6.56-4.252a4.4 4.4 0 0 0-1.69.488c.547-3.72-.88-7.56-3.491-10.22-1.32-1.312-2.956-2.535-4.853-2.744-1.665-.064-2.724 1.46-3.596 2.664-2.36 3.699-2.647 8.727-.388 12.545.362.476-.65.137-.963.296-2.956.337-5.18 3.201-5.127 6.116.236.952-.38.458-.89.162-1.812-.956-3.56-2.039-5.4-2.938-1.122-.452-2.521-.084-3.185.951-.034-1.572-1.307-3.068-2.941-3.033-2.761-.069-5.524-.303-8.285-.257-1.797.056-3.15 2.097-2.479 3.77.698 1.541 1.69 2.944 2.499 4.432q8.014 13.754 16.032 27.506c9.08-3.108 18.443-5.41 27.962-6.66a142 142 0 0 1 16.955-1.263c2.479-.043 5.16.032 7.505.12 1.193.07 2.442.117 3.523.197 1.707.108 3.622.29 5.194.436a142 142 0 0 1 19.701 3.471c.507.13 1.355.356 1.992.522 3.487.918 6.916 2.036 10.333 3.183l18.503-31.752c.18-.905.268-1.887-.278-2.694-.585-1.218-2.06-1.383-3.26-1.286-2.523.101-5.056.146-7.571.33-1.435.185-2.588 1.483-2.562 2.935-.826-1.283-2.647-1.361-3.856-.595a377 377 0 0 1-5.73 3.166c.182-2.671-1.25-5.562-3.862-6.503a5.9 5.9 0 0 0-2.322-.359c2.419-3.924 2.12-9.232-.437-13.013-.888-1.168-2.016-2.753-3.694-2.457m-17.039 20.638c.028 2.39 1.345 4.854 3.655 5.73 1.04.424 2.2.52 3.306.37-1.645 2.019-4.188 3.366-6.828 3.235-3.973.1-7.95-2.471-9.27-6.253.938.652 1.822 1.465 2.792 2.018.705-.053 1.511.106 2.154-.078a114 114 0 0 0 4.185-5.385zm-28.55.297c1.173 1.531 2.307 3.15 3.615 4.542 1.027.45 2.367.46 3.19-.38l1.9-1.425c-1.438 3.95-5.654 6.613-9.837 6.285-2.42-.045-4.758-1.43-6.24-3.203 2.446.373 5.12-.846 6.17-3.143.52-1.008.766-2.145.758-3.277zm55.238 6.053c.359 1.67.579 3.382 1.049 5.02.507 1.331 2.104 1.764 3.388 1.425.304-.006 1.454-.418 1.188-.155-3.004 2.58-7.711 2.991-11.012.733-1.82-1.157-3.116-3.027-3.65-5.109 1.698 1.063 4.01 1.328 5.812.389 1.354-.704 2.428-1.896 3.047-3.285zm-82.16-.766c1.017 2.206 3.348 3.886 5.84 3.638 1.072-.051 2.143-.372 3.027-.99-.661 2.9-2.964 5.262-5.768 6.175-3.071 1.032-6.622.23-9.043-1.895 1.324.309 2.936.752 4.062-.279 1.147-1.212 1.091-3.015 1.48-4.545.134-.676.256-1.55.401-2.104" style="baseline-shift:baseline;display:inline;overflow:visible;vector-effect:none;stop-color:#000;stop-opacity:1"/><path d="M147.543 23.123c-4.2.124-8.08 3.226-9.123 7.296-1.13 3.95.498 8.498 3.919 10.79 3.56 2.553 8.801 2.299 12.094-.593 3.236-2.662 4.39-7.464 2.77-11.319-1.512-3.843-5.537-6.412-9.66-6.174m-61.83 12.992c-3.872.106-7.371 3.233-7.92 7.065-.65 3.656 1.473 7.552 4.886 9.005 3.302 1.534 7.52.564 9.827-2.253 2.502-2.857 2.65-7.44.315-10.438-1.62-2.216-4.366-3.52-7.108-3.379m7.642-16.146c-4.016.122-7.589 3.506-7.972 7.498-.483 3.76 2.027 7.569 5.606 8.743 3.542 1.277 7.832-.165 9.832-3.367 2.102-3.153 1.611-7.697-1.085-10.353a8.4 8.4 0 0 0-6.38-2.521m18.064-5.349c-4.142.137-7.737 3.794-7.922 7.913-.282 3.78 2.372 7.514 6.04 8.477 3.644 1.075 7.876-.668 9.651-4.04 1.855-3.293 1.056-7.781-1.823-10.231-1.602-1.453-3.787-2.22-5.946-2.12" style="baseline-shift:baseline;display:inline;overflow:visible;vector-effect:none;stop-color:#000;stop-opacity:1"/><path d="M129.184 22.549c-3.865.105-7.36 3.22-7.917 7.043-.653 3.63 1.424 7.498 4.791 8.986 3.316 1.589 7.596.632 9.92-2.219 2.526-2.879 2.646-7.514.256-10.51-1.625-2.17-4.342-3.44-7.05-3.3m81.496 13.566c-3.872.106-7.371 3.232-7.918 7.065-.642 3.622 1.43 7.482 4.792 8.964 3.268 1.566 7.507.67 9.806-2.15 2.567-2.919 2.674-7.64.22-10.66-1.611-2.104-4.247-3.356-6.9-3.219m-7.643-16.146c-3.872.106-7.37 3.232-7.92 7.064-.634 3.553 1.366 7.36 4.67 8.823 3.33 1.644 7.67.721 10.037-2.145 2.339-2.635 2.645-6.794.717-9.742-1.554-2.55-4.51-4.16-7.504-4m-18.058-5.349c-3.83.104-7.305 3.16-7.897 6.944-.66 3.419 1.118 7.11 4.203 8.725 3.144 1.763 7.378 1.21 9.934-1.346 2.57-2.395 3.3-6.497 1.661-9.614-1.422-2.94-4.625-4.89-7.901-4.71m-17.77 7.93c-3.865.105-7.36 3.22-7.916 7.043-.654 3.63 1.423 7.498 4.79 8.986 3.27 1.566 7.512.668 9.81-2.155 2.559-2.92 2.667-7.63.22-10.651-1.613-2.105-4.248-3.36-6.904-3.223M141.768 2.316l1.107 4.168c-1.817-.566-3.65-1.076-5.475-1.615v14.217c1.822-.539 3.653-1.047 5.467-1.613l-2.293 8.547c1.78-.742 3.469-1.732 5.318-2.289 2.284-.578 4.687-.094 6.783.9l2.88 1.158-2.205-8.223c1.801.577 3.626 1.08 5.44 1.618V4.964c-1.825.54-3.658 1.049-5.474 1.616.362-1.23.603-2.531 1.04-3.72q1.53-1.528 3.058-3.057H141.1zm-36.622 96.18c-9.514.348-19.033 2.922-27.154 7.955-7.634 4.801-13.94 12.119-16.48 20.872-1.308 4.516-1.608 9.378-.584 13.982 1.784 7.625 7.916 14.223 15.62 16.003 6.778 1.635 14.443.142 19.663-4.617 4.223-4.01 6.534-10.195 5.338-15.972-.678-3.538-2.806-6.683-5.643-8.862-3.559-2.825-8.274-4.309-12.799-3.511a21 21 0 0 0-3.322.816c-1.016-1.701-.86-4.032.555-5.467 1.777-2.027 4.457-3.17 7.149-3.094 3.463.044 6.88 1.487 9.428 3.809 3.54 3.334 5.455 8.038 6.164 12.78.459 2.83.497 5.7.657 8.556 16.001-8.38 31.978-16.808 47.992-25.163.442-.302 1.294-.49 1.493-.858q-3.314-5.144-6.623-10.29c-3.225 1.595-6.338 3.4-9.536 5.045-4.026-3.773-8.678-6.923-13.829-8.944-5.668-2.459-11.954-3.221-18.089-3.04m.993 11.813c4.903-.004 9.844 1.017 14.232 3.238a26 26 0 0 1 3.199 1.914q.876.606 1.694 1.289l-11.56 6.02c-1.975-4.926-5.375-9.273-9.665-12.395q1.05-.06 2.1-.066m-21.713 25.63c2.086.045 4.056 1.597 4.388 3.69.505 2.371-1.275 4.542-3.271 5.572-2.75 1.335-6.21.757-8.612-1.058-2.403-1.747-3.693-4.663-3.976-7.561 1.426 1.647 3.354 2.702 5.25 3.709 1.08-1.426 1.9-3.272 3.607-4.05.84-.28 1.735-.365 2.614-.302" style="baseline-shift:baseline;display:inline;overflow:visible;vector-effect:none;stop-color:#000;stop-opacity:1"/><path d="M198.418 98.637c-5.599.103-11.085 1.84-15.933 4.596-21.587 11.326-43.164 22.67-64.765 33.966l-14.618 7.453v26.38c-3.448.343-6.883 1.126-10.063 2.515-5.475 2.498-9.835 7.184-12.118 12.733-1.93 4.493-2.563 9.43-2.487 14.288-.273.871.796.417 1.294.526h23.278v27.965c-9.11 1.314-18.1 4.128-25.985 8.94-6.993 4.341-13.045 10.645-15.896 18.474-1.875 5.192-2.241 10.956-.883 16.316 1.904 6.956 6.845 12.711 12.621 16.846 3.925 2.85 8.412 4.798 13.008 6.281 13.595 4.434 28.224 5.237 42.34 3.266 7.967-1.16 15.862-3.13 23.268-6.324 7.04-3.068 13.739-7.557 18.032-14.05 2.227-3.343 3.857-7.207 3.919-11.274.179-4.954-1.654-10.04-5.328-13.437-4.458-4.453-11.057-6.428-17.257-5.607-6.308.653-12.253 4.537-15.2 10.178-2.622 5.216-1.998 11.984 1.822 16.461.534.644 1.124 1.24 1.754 1.79-1.471 2.432-3.62 4.406-5.921 6.045-6.131 4.212-13.768 5.604-21.094 5.432a55 55 0 0 1-3.075-.169c-3.208-.293-6.5-.705-9.374-2.269-2.926-1.532-5.774-3.88-6.67-7.19-.786-2.941.236-6.142 2.316-8.308 3.229-3.49 8.103-4.947 12.75-4.976a26.7 26.7 0 0 1 12.23 2.748c.597.363.774-.77 1.179-1.09 3.937-5.81 8.584-11.343 14.645-15.026 3.92-2.431 8.248-4.155 12.703-5.321.361-.081 1.106-.283 1.623-.393 5.615-1.307 11.392-1.715 17.143-1.795v-32.25c1.975-.494 4.215-.015 5.632 1.502 2.31 2.204 2.654 5.572 2.874 8.582.215 3.272.014 6.556.042 9.833-.019 6.144-.154 12.29-.095 18.434.123 3.702.014 7.417.33 11.11.771 8.04 4.35 15.538 8.968 22.065 2.402 3.44 5.113 6.65 7.852 9.824 16.047-8.405 32.087-16.824 48.127-25.242q-3.251-5.238-6.51-10.473l-9.273 4.838c-3.272-4.287-5.418-9.47-5.806-14.87a52 52 0 0 1-.181-2.753c-.303-7.87.73-15.87-1.068-23.623-.974-4.456-3.289-8.556-6.46-11.818-5.093-5.286-11.881-8.494-18.676-11.002q13.149-6.919 26.299-13.836c.053-6.363.194-12.727.194-19.09-.106-5.104-1.792-10.405-5.618-13.945-3.57-3.287-8.386-5.117-13.224-5.223-5.744-.191-11.42 1.54-16.407 4.316l-16.906 8.713v-34.705c2.065-.797 4.472-1.427 6.61-.553 1.622.721 2.264 2.537 2.396 4.186.186 2.364.034 4.745.083 7.116v14.876c13.37-7.03 26.768-14.006 40.118-21.072l1.548-.828c-.26-5.47.645-11.039-.675-16.422-.749-2.89-2.123-5.654-4.3-7.742-2.206-2.217-4.983-3.822-7.913-4.877-2.317-.785-4.78-1.069-7.219-1.041m.424 12.347c2.61.025 5.456 1.457 6.246 4.093.663 2.125.416 4.382.426 6.571l-15.557 8.198c-.072-4.228-.805-8.774-3.71-12.042a12.2 12.2 0 0 0-1.786-1.644c4.31-2.33 8.781-4.839 13.77-5.18.204-.007.408.004.61.004m-44.34 55.184-8.516 4.484v-34.547l8.516-4.42zm-21.592 50.195-16.637 8.588v-35.883H94.525c1.563-3.06 4.714-5.13 8.09-5.609 4.22-.71 8.516-.298 12.772-.43.846.212 1.023-.24.886-1.006v-29.962l16.637-8.868zm67.74-57.412c2.482.192 5.167 1.663 5.796 4.228.761 2.865.353 5.862.5 8.789l-.153 5.93-17.145 8.963c-.028-4.154.056-8.31-.04-12.463-.3-3.72-2.3-7.24-5.278-9.476 4.389-2.39 8.79-5.084 13.795-5.93.828-.002 1.686-.124 2.525-.04M172.2 172.497c1.569-.046 3.215.751 3.78 2.29.955 2.492.4 5.209.496 7.806v11.1l-8.707 4.648c.01-8.288-.021-16.602.015-24.873 1.393-.596 2.894-.983 4.416-.97m-17.603 62.217c-6.83-2.048-13.769-3.79-20.828-4.838l12.216-6.35V184.73l8.612-4.538zm32.636-25.317c5.657 1.857 11.413 4.327 15.44 8.877 1.46 1.608 2.695 3.476 3.159 5.627 1.102 4.667.783 9.503.835 14.258.052 3.371-.114 6.75.104 10.115.537 7.393 3.308 14.514 7.458 20.618-5.64 2.954-11.29 5.958-16.923 8.88-1.88-2.33-3.506-4.87-4.772-7.585-.19-.42-.517-1.154-.733-1.71a32 32 0 0 1-1.575-5.212c-.068-.361-.223-1.126-.298-1.65-.48-2.948-.376-5.804-.472-8.781-.184-7.526-.056-15.056-.094-22.583-.037-3.249.076-6.502-.06-9.747-.312-4.063-1.342-8.17-3.62-11.597zm-70.779 30.938c4.844.023 9.683.43 14.469 1.168-5.781 3.1-10.944 7.376-15.006 12.531-8.231-1.45-17.118-.46-24.355 3.915-2.86 1.742-5.492 3.943-7.5 6.634-2.408 3.414-3.962 7.535-3.79 11.756a21 21 0 0 0 .381 3.72c-3.626-2.756-6.843-6.572-7.538-11.205-.458-3.484.08-7.098 1.675-10.242 2.88-5.75 8.16-9.938 13.875-12.668 8.588-4.208 18.308-5.605 27.79-5.609m38.043 20.129c2.165.091 4.185 1.417 5.352 3.201 1.523 2.784.635 6.179-.853 8.777-1.483 2.612-3.673 4.896-6.114 6.55 1.304-2.156 2.007-4.59 2.522-7.036.469-.822-.682-.522-1.164-.685-2.188-.202-4.72-.657-6.007-2.647-.852-1.172-1.061-2.704-.636-4.082.758-2.683 3.681-4.176 6.335-4.094.188-.002.377.012.565.016" style="baseline-shift:baseline;display:inline;overflow:visible;vector-effect:none;stop-color:#000;stop-opacity:1"/></svg>