<?xml version="1.0" encoding="UTF-8" standalone="no"?>
<svg
   version="1.1"
   viewBox="0 0 317.92923 276.03272"
   xml:space="preserve"
   id="svg549"
   sodipodi:docname="hero-font.svg"
   inkscape:version="1.3 (0e150ed, 2023-07-21)"
   width="317.92923"
   height="276.03271"
   xmlns:inkscape="http://www.inkscape.org/namespaces/inkscape"
   xmlns:sodipodi="http://sodipodi.sourceforge.net/DTD/sodipodi-0.dtd"
   xmlns="http://www.w3.org/2000/svg"
   xmlns:svg="http://www.w3.org/2000/svg"><sodipodi:namedview
     id="namedview549"
     pagecolor="#fab71c"
     bordercolor="#666666"
     borderopacity="1.0"
     inkscape:showpageshadow="2"
     inkscape:pageopacity="0.0"
     inkscape:pagecheckerboard="0"
     inkscape:deskcolor="#d1d1d1"
     inkscape:zoom="1.2099159"
     inkscape:cx="185.55008"
     inkscape:cy="188.44284"
     inkscape:window-width="1920"
     inkscape:window-height="1027"
     inkscape:window-x="0"
     inkscape:window-y="25"
     inkscape:window-maximized="1"
     inkscape:current-layer="svg549" /><defs
     id="defs1"><path
       id="h"
       d="m 590,272 a 56.1,56.1 0 0 0 -50.8,0 c -6,3.4 -9.3,7.7 -10.2,12.2 0.9,4.5 4.3,8.9 10.2,12.3 14,8.1 36.8,8.1 50.8,0 6,-3.4 9.4,-7.8 10.3,-12.2 -1,-4.5 -4.3,-8.9 -10.3,-12.3"
       fill="#fbebc4" /></defs><defs
     id="defs2"><path
       id="a"
       d="M 601,310.7 V 299 l -5,0.4 a 27.8,27.8 0 0 0 -5.5,-4 56,56 0 0 0 -50.8,0 26,26 0 0 0 -6.6,5.3 l -3.9,-1.2 v 10 c -0.1,5.5 3.3,11 10.5,15.1 14,8.1 36.8,8.1 50.8,0 6.6,-3.8 10,-8.7 10.5,-13.7"
       fill="#fab71c" /><path
       id="b"
       d="m 529.6,309.3 v 0.2 c -0.2,5.5 3.5,10.8 10.3,14.7 14,8 36.5,8 50.4,0 6.3,-3.6 10,-8.4 10.3,-13.4 v -11.5 l -4.8,0.4 -0.1,-0.2 a 27.6,27.6 0 0 0 -5.4,-4 56,56 0 0 0 -50.4,0 25.8,25.8 0 0 0 -6.6,5.3 l -0.1,0.2 -3.6,-1 z m 35.5,21.7 c -9.2,0 -18.5,-2 -25.5,-6.1 -7,-4.1 -10.9,-9.6 -10.7,-15.4 v -10.6 l 4,1.2 c 1.8,-1.9 4,-3.6 6.7,-5.2 14,-8.1 37,-8.1 51,0 a 27,27 0 0 1 5.5,4 l 5.2,-0.4 v 12.4 c -0.4,5.3 -4.2,10.2 -10.6,14 -7,4 -16.3,6 -25.6,6"
       fill="#1a1613" /><path
       id="c"
       d="m 590,285 c 14,8.1 14,21.2 0,29.3 a 56,56 0 0 1 -50.8,0 c -14,-8 -14,-21.2 0,-29.3 14,-8 36.8,-8 50.8,0"
       fill="#fab71c" /><path
       id="d"
       d="m 565,279 c -9.1,0 -18.2,2 -25.2,6 -6.6,3.9 -10.3,9 -10.3,14.4 0,5.4 3.7,10.5 10.3,14.3 14,8 36.5,8 50.4,0 6.7,-3.8 10.3,-9 10.3,-14.3 0,-5.4 -3.6,-10.5 -10.3,-14.4 -7,-4 -16,-6 -25.2,-6 z m 0,41.4 c -9.2,0 -18.5,-2 -25.5,-6 -7,-4 -10.7,-9.4 -10.7,-15 0,-5.7 3.8,-11 10.7,-15 14,-8.1 37,-8.1 51,0 7,4 10.8,9.3 10.8,15 0,5.6 -3.8,11 -10.7,15 -7,4 -16.3,6 -25.6,6"
       fill="#1a1613" /><path
       id="e"
       d="m 565,261 c -9.1,0 -18.2,2 -25.2,6 -6.6,3.9 -10.3,9 -10.3,14.4 0,5.4 3.7,10.5 10.3,14.3 14,8 36.5,8 50.4,0 6.7,-3.8 10.3,-9 10.3,-14.3 0,-5.4 -3.6,-10.5 -10.3,-14.4 -7,-4 -16,-6 -25.2,-6 z m 0,41.4 c -9.2,0 -18.5,-2 -25.5,-6 -7,-4 -10.7,-9.4 -10.7,-15 0,-5.7 3.8,-11 10.7,-15 14,-8.1 37,-8.1 51,0 7,4 10.8,9.3 10.8,15 0,5.6 -3.8,11 -10.7,15 -7,4 -16.3,6 -25.6,6"
       fill="#1a1613" /><path
       id="f"
       d="m 601,292 v -11.8 l -5,0.4 a 27.8,27.8 0 0 0 -5.5,-4 56,56 0 0 0 -50.8,0 c -2.7,1.5 -5,3.3 -6.6,5.3 l -3.9,-1.2 v 10 c -0.1,5.5 3.3,11 10.5,15.1 14,8.1 36.8,8.1 50.8,0 6.6,-3.8 10,-8.7 10.5,-13.7"
       fill="#fab71c" /><path
       id="g"
       d="m 590,267 c 14,8 14,21.1 0,29.2 a 56,56 0 0 1 -50.8,0 c -14,-8 -14,-21.2 0,-29.3 14,-8 36.8,-8 50.8,0"
       fill="#fab71c" /></defs><path
     d="M 4.2929387,219.09963 205.6076,212.8929 203.41852,273.33957 3.8291959,276.03272 Z"
     fill="#ffd885"
     id="path2"
     style="stroke-width:1.01775"
     sodipodi:nodetypes="ccccc" /><path
     d="M 5.5070149,0 317.92922,4.1833431 311.89052,61.134358 3.1530399,60.775592 Z"
     fill="#ffd885"
     id="path3"
     sodipodi:nodetypes="ccccc"
     style="stroke-width:1.26558" /><path
     d="M 0.4598503,72.226775 316.28975,71.545058 314.85844,132.26754 0.2114448,131.58583 Z"
     fill="#ffd885"
     stroke-linecap="round"
     stroke-linejoin="round"
     stroke-width="1.34034"
     style="paint-order:stroke fill markers"
     id="path4" /><path
     d="m 0,143.80737 133.65699,-1.30354 0.11973,57.83692 -133.6569857,4.58139 z"
     fill="#ffd885"
     stroke-linecap="round"
     stroke-linejoin="round"
     stroke-width="0.985551"
     style="paint-order:stroke fill markers"
     id="path5" /><path
     style="font-weight:bold;font-size:40px;line-height:1.25;font-family:'Josefin Sans';-inkscape-font-specification:'Josefin Sans, Bold';stroke-width:1.26558"
     d="m 45.591369,44.25575 c -0.404985,0.337488 -1.164332,0.793096 -2.27804,1.366825 -1.07996,0.573728 -2.413036,1.079959 -3.999227,1.518693 -1.586191,0.438735 -3.341126,0.641227 -5.264805,0.607478 -2.936141,-0.06749 -5.568544,-0.590604 -7.897207,-1.569317 -2.294915,-1.012462 -4.252343,-2.379287 -5.872283,-4.100473 -1.586191,-1.721186 -2.801146,-3.695488 -3.644865,-5.922906 -0.843719,-2.227417 -1.265578,-4.606704 -1.265578,-7.13786 0,-2.834895 0.421859,-5.433548 1.265578,-7.795961 0.877467,-2.362413 2.109297,-4.404212 3.695488,-6.125398 1.61994,-1.721187 3.543619,-3.054262 5.771036,-3.999227 2.227418,-0.944965 4.691077,-1.4174476 7.390977,-1.4174476 2.497407,0 4.70795,0.3374876 6.631629,1.0124626 1.923679,0.674975 3.492995,1.400573 4.70795,2.176794 l -2.885518,6.935368 c -0.843719,-0.641226 -1.974302,-1.299327 -3.391749,-1.974302 -1.383698,-0.708723 -2.986764,-1.063085 -4.809197,-1.063085 -1.417447,0 -2.784272,0.303739 -4.100473,0.911216 -1.282452,0.573728 -2.42991,1.400574 -3.442372,2.480533 -0.978714,1.07996 -1.754936,2.345538 -2.328664,3.796734 -0.573728,1.417448 -0.860593,2.969891 -0.860593,4.657328 0,1.788683 0.253115,3.425498 0.759347,4.910443 0.53998,1.484944 1.299327,2.767398 2.27804,3.847357 0.978714,1.046212 2.143045,1.856182 3.492996,2.42991 1.383698,0.573729 2.936141,0.860593 4.657327,0.860593 1.991176,0 3.695488,-0.320612 5.112936,-0.961839 1.417447,-0.641227 2.497407,-1.316201 3.23988,-2.024925 z m 6.175951,3.088011 V 7.4021158 h 6.935368 V 29.67629 l -0.05062,-0.860593 c 0.776221,-1.383698 1.873056,-2.497407 3.290504,-3.341126 1.417447,-0.877467 3.155507,-1.316201 5.214181,-1.316201 2.092422,0 3.830484,0.624351 5.214182,1.873056 1.417448,1.214955 2.143045,2.801145 2.176794,4.758573 V 47.343761 H 67.460488 V 33.422402 c -0.03375,-0.978714 -0.303739,-1.754936 -0.80997,-2.328664 -0.472482,-0.607478 -1.282452,-0.911216 -2.42991,-0.911216 -1.079959,0 -2.024925,0.354362 -2.834895,1.063085 -0.80997,0.708724 -1.434321,1.670563 -1.873055,2.885518 -0.438735,1.214955 -0.658101,2.615529 -0.658101,4.20172 v 9.010916 z m 37.207988,1.063085 c -1.991175,0 -3.661739,-0.607477 -5.011689,-1.822432 -1.34995,-1.248704 -2.058674,-2.851769 -2.126171,-4.809197 V 25.221456 h 7.087237 v 13.921359 c 0.06749,0.978713 0.320613,1.771809 0.759347,2.379287 0.438734,0.573728 1.181206,0.860593 2.227418,0.860593 1.046211,0 1.940557,-0.354362 2.683027,-1.063086 0.77622,-0.708724 1.36682,-1.670563 1.77181,-2.885518 0.43873,-1.248704 0.6581,-2.649276 0.6581,-4.201719 v -9.010916 h 7.087243 v 22.122305 h -6.429143 l -0.55686,-4.04985 0.10125,0.455608 c -0.50623,0.911216 -1.14746,1.721186 -1.92368,2.42991 -0.77622,0.708724 -1.70431,1.248704 -2.78427,1.61994 -1.046212,0.404985 -2.227417,0.607477 -3.543619,0.607477 z m 28.855162,-23.18539 0.55686,3.948603 -0.10125,-0.354362 c 0.77622,-1.383698 1.87306,-2.497407 3.2905,-3.341126 1.41745,-0.877467 3.15551,-1.316201 5.21418,-1.316201 2.09242,0 3.83049,0.624351 5.21419,1.873056 1.41744,1.214955 2.14304,2.801145 2.17679,4.758573 V 47.343761 H 127.0945 V 33.422402 c -0.0338,-0.978714 -0.30374,-1.754936 -0.80997,-2.328664 -0.47247,-0.607478 -1.28244,-0.911216 -2.42991,-0.911216 -1.07995,0 -2.02492,0.354362 -2.83489,1.063085 -0.80997,0.708724 -1.43432,1.670563 -1.87306,2.885518 -0.43873,1.214955 -0.6581,2.615529 -0.6581,4.20172 v 9.010916 h -7.08723 V 25.221456 Z m 23.641,22.122305 V 7.4021158 h 7.08724 V 47.343761 Z m 12.70641,-15.035068 10.02337,15.035068 h -8.25157 l -6.42913,-10.985218 z m -7.74534,8.90967 -0.70873,-6.732876 13.36451,-9.820886 4.30296,3.796734 z m 21.76792,-8.555308 h 9.51714 v 6.176021 h -9.51714 z m 23.59036,15.136314 c -1.82243,0 -3.52675,-0.320613 -5.11294,-0.961839 -1.55244,-0.641227 -2.86864,-1.535568 -3.9486,-2.683026 l 2.93614,-3.897981 c 1.07996,0.978714 2.07555,1.687438 2.98676,2.126172 0.94497,0.404985 1.78868,0.607477 2.53116,0.607477 0.57373,0 1.07996,-0.05062 1.51869,-0.151869 0.47248,-0.134996 0.84373,-0.320613 1.11371,-0.556855 0.26999,-0.269989 0.40499,-0.607477 0.40499,-1.012462 0,-0.573728 -0.23625,-1.029336 -0.70873,-1.366824 -0.43873,-0.337488 -1.01246,-0.607478 -1.72118,-0.80997 -0.70873,-0.236242 -1.46807,-0.472482 -2.27804,-0.708724 -2.02493,-0.641227 -3.493,-1.569317 -4.40421,-2.784272 -0.87747,-1.248704 -1.31621,-2.598653 -1.31621,-4.04985 0,-1.113709 0.28687,-2.227417 0.8606,-3.341126 0.60748,-1.147458 1.55244,-2.092422 2.83489,-2.834895 1.3162,-0.776221 3.00364,-1.164332 5.06232,-1.164332 1.85618,0 3.4255,0.185619 4.70795,0.556854 1.28244,0.371236 2.4974,0.978714 3.64486,1.822433 l -2.68302,4.151096 c -0.64124,-0.506231 -1.36683,-0.92809 -2.1768,-1.265578 -0.77622,-0.371236 -1.50182,-0.573728 -2.17679,-0.607478 -0.60748,-0.03375 -1.13058,0.03375 -1.56932,0.202493 -0.40499,0.168743 -0.72559,0.388111 -0.96184,0.658101 -0.23624,0.269989 -0.35436,0.556854 -0.35436,0.860593 -0.0338,0.641226 0.20249,1.147458 0.70872,1.518693 0.53999,0.371236 1.21496,0.658101 2.02493,0.860594 0.80997,0.202492 1.60307,0.438734 2.37928,0.708723 1.07996,0.337488 2.00806,0.793096 2.78428,1.366825 0.77621,0.573728 1.36682,1.265578 1.77181,2.075548 0.43873,0.776221 0.6581,1.721186 0.6581,2.834895 0,1.34995 -0.35437,2.632402 -1.06309,3.847357 -0.67497,1.181206 -1.72119,2.143045 -3.13863,2.885518 -1.3837,0.742473 -3.15551,1.113709 -5.31543,1.113709 z M 207.2308,25.221456 h 7.08723 v 22.122305 h -7.08723 z m -0.15187,-7.846585 c 0,-1.046211 0.40498,-1.906805 1.21495,-2.581779 0.84372,-0.674975 1.73806,-1.012463 2.68303,-1.012463 0.94497,0 1.80556,0.337488 2.58178,1.012463 0.80997,0.674974 1.21495,1.535568 1.21495,2.581779 0,1.046212 -0.40498,1.906805 -1.21495,2.58178 -0.77622,0.641226 -1.63681,0.961839 -2.58178,0.961839 -0.94497,0 -1.83931,-0.320613 -2.68303,-0.961839 -0.80997,-0.674975 -1.21495,-1.535568 -1.21495,-2.58178 z m 17.97113,13.617621 c -1.21496,0 -2.27804,-0.438734 -3.18926,-1.316202 -0.91121,-0.877467 -1.36682,-2.058674 -1.36682,-3.543618 v -0.885654 l 7.03661,-0.02557 h 14.02261 l -12.2508,17.81934 -1.3162,-1.468071 h 13.41513 v 5.771036 h -22.42605 l 12.60516,-18.376194 1.06309,2.024925 z m 33.86684,16.958746 c -2.69989,0 -4.99481,-0.506231 -6.88474,-1.518693 -1.85619,-1.012463 -3.27363,-2.413036 -4.25234,-4.20172 -0.97871,-1.788683 -1.46807,-3.847357 -1.46807,-6.176021 0,-2.227417 0.57372,-4.235468 1.72118,-6.024152 1.14746,-1.788683 2.68303,-3.20613 4.60671,-4.252342 1.92368,-1.07996 4.06672,-1.61994 6.42913,-1.61994 3.17239,0 5.77104,0.92809 7.79596,2.784272 2.05868,1.822432 3.39175,4.471709 3.99923,7.94783 l -17.21186,5.467298 -1.56932,-3.847358 12.45329,-4.201719 -1.46807,0.658101 c -0.26999,-0.877468 -0.75935,-1.636814 -1.46807,-2.278041 -0.67497,-0.674975 -1.70432,-1.012463 -3.08801,-1.012463 -1.04622,0 -1.9743,0.253116 -2.78427,0.759347 -0.77622,0.472482 -1.3837,1.164332 -1.82244,2.075548 -0.40498,0.877467 -0.60747,1.923679 -0.60747,3.138634 0,1.383698 0.25311,2.54803 0.75934,3.492996 0.50624,0.911216 1.19809,1.603066 2.07555,2.075548 0.87747,0.472482 1.85619,0.708724 2.93614,0.708724 0.77622,0 1.5187,-0.134996 2.22742,-0.404985 0.74248,-0.26999 1.46807,-0.624352 2.1768,-1.063086 l 3.13863,5.264805 c -1.1812,0.674974 -2.46366,1.214955 -3.84736,1.61994 -1.34995,0.404985 -2.6324,0.607477 -3.84736,0.607477 z m 26.1215,0 c -2.05868,0 -3.89798,-0.472482 -5.51792,-1.417447 -1.61994,-0.978713 -2.90239,-2.379287 -3.84736,-4.201719 -0.91122,-1.822433 -1.36682,-3.982353 -1.36682,-6.47976 0,-2.497407 0.50623,-4.623579 1.51869,-6.378514 1.01246,-1.754935 2.39616,-3.088011 4.1511,-3.999227 1.75494,-0.911216 3.74611,-1.366824 5.97352,-1.366824 1.41745,0 2.76741,0.219366 4.04985,0.6581 1.31621,0.438735 2.41304,1.113709 3.29051,2.024925 V 29.01819 7.4021158 h 7.03661 V 47.343761 h -7.08724 v -4.302966 l 0.55686,1.518694 c -1.14746,0.944965 -2.42991,1.754935 -3.84736,2.42991 -1.41745,0.641227 -3.05426,0.961839 -4.91044,0.961839 z m 2.32866,-5.973528 c 0.94497,0 1.77181,-0.118117 2.48054,-0.354362 0.74247,-0.26999 1.38369,-0.641227 1.92367,-1.113709 0.57373,-0.506231 1.06309,-1.130583 1.46807,-1.873056 v -5.416674 c -0.26998,-0.742473 -0.69185,-1.366824 -1.26557,-1.873055 -0.53999,-0.539981 -1.21496,-0.944966 -2.02493,-1.214955 -0.77622,-0.303739 -1.63681,-0.455609 -2.58178,-0.455609 -1.04621,0 -2.02492,0.26999 -2.93614,0.80997 -0.87746,0.506232 -1.58619,1.214955 -2.12617,2.126172 -0.53998,0.911216 -0.80997,1.957428 -0.80997,3.138633 0,1.181206 0.26999,2.244292 0.80997,3.189257 0.53998,0.944966 1.24871,1.687437 2.12617,2.227418 0.91122,0.53998 1.88993,0.80997 2.93614,0.80997 z"
     id="text1"
     aria-label="Chunk-sized"
     sodipodi:nodetypes="ccscccssccssscccscccscccssccccccccsccccccssssccsccccccsccsccccccscsccccsccccccssssccccccccccccccccccccccccsccccsccsccccsccsscccccsccscscsccscccccscscscscssssccccccccccsscssscscccccccsccscssccccssccssssccccccccccssccccccscssscs" /><text
     xml:space="preserve"
     style="font-size:50.6231px;line-height:1.25;font-family:Arcon;-inkscape-font-specification:'Arcon, Normal';stroke-width:1.26558"
     x="11.785977"
     y="117.64436"
     id="text2"><tspan
       sodipodi:role="line"
       id="tspan2"
       x="11.785977"
       y="117.64436"
       style="font-style:normal;font-variant:normal;font-weight:bold;font-stretch:normal;font-size:50.6231px;font-family:'Josefin Sans';-inkscape-font-specification:'Josefin Sans, Bold';font-variant-ligatures:normal;font-variant-caps:normal;font-variant-numeric:normal;font-variant-east-asian:normal;stroke-width:1.26558">real-world</tspan></text><text
     xml:space="preserve"
     style="font-size:50.6231px;line-height:1.25;font-family:Arcon;-inkscape-font-specification:'Arcon, Normal';stroke-width:1.26558"
     x="11.785977"
     y="190.21924"
     id="text3"><tspan
       sodipodi:role="line"
       id="tspan3"
       x="11.785977"
       y="190.21924"
       style="font-style:normal;font-variant:normal;font-weight:bold;font-stretch:normal;font-size:50.6231px;font-family:'Josefin Sans';-inkscape-font-specification:'Josefin Sans, Bold';font-variant-ligatures:normal;font-variant-caps:normal;font-variant-numeric:normal;font-variant-east-asian:normal;stroke-width:1.26558">Rust</tspan></text><text
     xml:space="preserve"
     style="font-size:50.6231px;line-height:1.25;font-family:Arcon;-inkscape-font-specification:'Arcon, Normal';stroke-width:1.26558"
     x="11.785977"
     y="261.7709"
     id="text4"><tspan
       sodipodi:role="line"
       id="tspan4"
       x="11.785977"
       y="261.7709"
       style="font-style:normal;font-variant:normal;font-weight:bold;font-stretch:normal;font-size:50.6231px;font-family:'Josefin Sans';-inkscape-font-specification:'Josefin Sans, Bold';font-variant-ligatures:normal;font-variant-caps:normal;font-variant-numeric:normal;font-variant-east-asian:normal;stroke-width:1.26558">Courses</tspan></text></svg>
