<svg xmlns="http://www.w3.org/2000/svg" xml:space="preserve" width="400" height="200" style="clip-rule:evenodd;fill-rule:evenodd;stroke-linejoin:round;stroke-miterlimit:1.41421"><defs><mask id="b" maskUnits="userSpaceOnUse"><path d="M31.52 18.742h68.27v44.785H31.52Z" style="fill:#fff;fill-opacity:1"/><path d="M4.685 57.781C3.018 59.03 1.34 60.586.967 62.737c-.486 2.4 1.025 4.703 2.929 6.03.653.56 1.513.881 2.148 1.416.521.824 1.232 1.512 1.994 2.114-1.232 1.07-1.041 3.029-.033 4.187 2.216 2.56 4.793 4.783 7.105 7.25.657.73 1.339 1.604 2.401 1.656.532-.005 1.45.692 1.51-.168.216-.765.715-1.5.522-2.32.592.183 1.41.668 1.106-.336-.056-1.377.054-2.811-.606-4.074.166-.169 1.032.239 1.467.277 5.791 1.288 11.797 1.555 17.697 1.004 2.791-.288 5.562-.836 8.22-1.74-.525 1.16-.785 2.415-.699 3.688.061.503-.158 1.398.065 1.674.593-.188 1.31-.533 1.828-.626-.267 1.2.617 2.15 1.096 3.164.92-.484 2.127-.596 2.695-1.559 1.902-3.034 4.172-5.826 6.03-8.89.782-1.278.7-3.202-.654-4.058-.764-.253.107-.695.285-1.078.532-.806 1.53-1.117 2.208-1.794 2.143-1.7 3.832-4.29 3.662-7.116l8.566-12.233q-3.193-2.23-6.384-4.463c-2.561 3.646-5.105 7.29-7.664 10.938-2.527 1.114-5.262 2.515-6.437 5.175-.395-.193-1.194.142-.86-.534.329-1.735-1.401-3.425-3.13-3.027-.427.066-.071-.876-.386-1.205-.484-1.439-2.33-2.166-3.665-1.436-.108-1.685-2.003-2.897-3.575-2.267-.443.221-.789.612-.912-.08-.768-1.593-3.18-1.876-4.302-.507-.256-.244-.601-.774-1.028-.99-1.24-.726-2.98-.251-3.649 1.03-1.042-1.308-3.25-1.191-4.179.189-.262.349-.28 1.043-.765.511-1.521-.9-3.664.218-3.859 1.962-.199.25-.928-.295-1.377-.135-1.48.07-2.667 1.514-2.484 2.98-1.697-.545-3.575 1.02-3.36 2.783.236.639-.057.695-.656.675-.498-.057-1.066.776-1.346.463-1.285-2.426-3.867-3.657-6.234-4.783L4.36 55.54Z" style="fill:#000;fill-opacity:1;stroke:none;stroke-width:.209162;stroke-linecap:square;stroke-linejoin:miter;stroke-miterlimit:1000;stroke-dasharray:none;stroke-dashoffset:0;stroke-opacity:1;paint-order:fill markers stroke"/></mask><mask id="a" maskUnits="userSpaceOnUse"><path d="M31.52 18.742h68.27v44.785H31.52Z" style="fill:#fff;fill-opacity:1"/><path d="M4.685 57.781C3.018 59.03 1.34 60.586.967 62.737c-.486 2.4 1.025 4.703 2.929 6.03.653.56 1.513.881 2.148 1.416.521.824 1.232 1.512 1.994 2.114-1.232 1.07-1.041 3.029-.033 4.187 2.216 2.56 4.793 4.783 7.105 7.25.657.73 1.339 1.604 2.401 1.656.532-.005 1.45.692 1.51-.168.216-.765.715-1.5.522-2.32.592.183 1.41.668 1.106-.336-.056-1.377.054-2.811-.606-4.074.166-.169 1.032.239 1.467.277 5.791 1.288 11.797 1.555 17.697 1.004 2.791-.288 5.562-.836 8.22-1.74-.525 1.16-.785 2.415-.699 3.688.061.503-.158 1.398.065 1.674.593-.188 1.31-.533 1.828-.626-.267 1.2.617 2.15 1.096 3.164.92-.484 2.127-.596 2.695-1.559 1.902-3.034 4.172-5.826 6.03-8.89.782-1.278.7-3.202-.654-4.058-.764-.253.107-.695.285-1.078.532-.806 1.53-1.117 2.208-1.794 2.143-1.7 3.832-4.29 3.662-7.116l8.566-12.233q-3.193-2.23-6.384-4.463c-2.561 3.646-5.105 7.29-7.664 10.938-2.527 1.114-5.262 2.515-6.437 5.175-.395-.193-1.194.142-.86-.534.329-1.735-1.401-3.425-3.13-3.027-.427.066-.071-.876-.386-1.205-.484-1.439-2.33-2.166-3.665-1.436-.108-1.685-2.003-2.897-3.575-2.267-.443.221-.789.612-.912-.08-.768-1.593-3.18-1.876-4.302-.507-.256-.244-.601-.774-1.028-.99-1.24-.726-2.98-.251-3.649 1.03-1.042-1.308-3.25-1.191-4.179.189-.262.349-.28 1.043-.765.511-1.521-.9-3.664.218-3.859 1.962-.199.25-.928-.295-1.377-.135-1.48.07-2.667 1.514-2.484 2.98-1.697-.545-3.575 1.02-3.36 2.783.236.639-.057.695-.656.675-.498-.057-1.066.776-1.346.463-1.285-2.426-3.867-3.657-6.234-4.783L4.36 55.54Z" style="fill:#000;fill-opacity:1;stroke:none;stroke-width:.209162;stroke-linecap:square;stroke-linejoin:miter;stroke-miterlimit:1000;stroke-dasharray:none;stroke-dashoffset:0;stroke-opacity:1;paint-order:fill markers stroke"/></mask></defs><path d="m81.55 40.74-1.352-.839a19 19 0 0 0-.038-.393l1.162-1.085a.463.463 0 0 0-.154-.777l-1.487-.556a17 17 0 0 0-.115-.384l.926-1.288a.465.465 0 0 0-.302-.732l-1.568-.255a12 12 0 0 0-.189-.353l.66-1.445a.463.463 0 0 0-.441-.659l-1.59.056a13 13 0 0 0-.252-.305l.365-1.55a.464.464 0 0 0-.56-.56l-1.549.365q-.15-.127-.305-.252l.055-1.59a.463.463 0 0 0-.658-.44l-1.446.66a17 17 0 0 0-.352-.19l-.255-1.568a.465.465 0 0 0-.732-.303l-1.289.927a14 14 0 0 0-.383-.116l-.556-1.487a.464.464 0 0 0-.776-.155l-1.085 1.165q-.196-.022-.394-.039l-.838-1.353a.465.465 0 0 0-.792 0l-.838 1.353q-.196.017-.394.039l-1.084-1.164a.467.467 0 0 0-.777.154l-.556 1.487q-.194.056-.383.117l-1.29-.928a.463.463 0 0 0-.731.302l-.256 1.569q-.177.092-.353.19l-1.444-.66a.463.463 0 0 0-.659.44l.055 1.591q-.153.124-.305.252l-1.549-.366a.467.467 0 0 0-.561.56l.366 1.55q-.129.151-.252.305l-1.59-.056a.465.465 0 0 0-.44.659l.658 1.446q-.096.174-.188.353l-1.568.254a.465.465 0 0 0-.303.732l.927 1.288q-.06.19-.116.383l-1.487.557a.465.465 0 0 0-.154.777l1.164 1.085q-.024.195-.04.393l-1.353.838a.465.465 0 0 0 0 .792l1.353.837q.016.198.04.395l-1.164 1.085a.465.465 0 0 0 .154.776l1.487.557q.056.192.117.382l-.928 1.29a.465.465 0 0 0 .303.73l1.568.256q.09.178.189.352l-.66 1.446a.465.465 0 0 0 .44.658l1.59-.055q.124.155.253.305l-.366 1.55a.463.463 0 0 0 .561.56l1.55-.365q.15.127.304.25l-.055 1.592a.464.464 0 0 0 .659.44l1.445-.66q.174.097.353.19l.255 1.566a.464.464 0 0 0 .732.304l1.288-.928q.19.06.383.117l.556 1.486a.463.463 0 0 0 .777.154l1.085-1.163q.196.022.394.04l.838 1.353a.466.466 0 0 0 .792 0l.837-1.354q.198-.016.395-.039l1.085 1.163a.463.463 0 0 0 .775-.154l.557-1.486q.192-.056.383-.117l1.29.928a.466.466 0 0 0 .73-.304l.257-1.567q.175-.092.351-.188l1.446.658a.464.464 0 0 0 .658-.44l-.055-1.591q.154-.122.305-.25l1.55.364a.463.463 0 0 0 .56-.559l-.365-1.55q.127-.15.25-.305l1.592.055a.463.463 0 0 0 .44-.658l-.66-1.446q.097-.174.189-.352l1.567-.255a.463.463 0 0 0 .303-.731l-.926-1.29a18 18 0 0 0 .115-.383l1.487-.556a.463.463 0 0 0 .154-.776l-1.163-1.085.04-.395 1.352-.837a.465.465 0 0 0 0-.792m-9.055 11.224a.959.959 0 0 1 .401-1.874.959.959 0 0 1-.402 1.874zm-.46-3.109a.87.87 0 0 0-1.036.67l-.48 2.243a11.7 11.7 0 0 1-4.864 1.048c-1.773 0-3.455-.393-4.965-1.095l-.48-2.241a.87.87 0 0 0-1.036-.672l-1.979.425a12 12 0 0 1-1.023-1.206h9.63c.109 0 .182-.02.182-.119v-3.406c0-.1-.073-.12-.182-.12h-2.816v-2.16h3.046c.278 0 1.487.08 1.873 1.625.121.474.387 2.02.569 2.515.18.555.918 1.664 1.704 1.664h4.798a1 1 0 0 0 .175-.017q-.5.679-1.091 1.28zm-13.32 3.062a.959.959 0 0 1-.402-1.874.959.959 0 0 1 .401 1.875zm-3.653-14.814a.957.957 0 1 1-1.75.777.957.957 0 1 1 1.75-.777m-1.123 2.662L56 38.85a.874.874 0 0 0 .443-1.153l-.424-.96h1.67v7.528h-3.37a11.8 11.8 0 0 1-.382-4.499zm9.048-.73v-2.22h3.977c.205 0 1.45.238 1.45 1.169 0 .772-.955 1.05-1.74 1.05zm14.453 1.997q0 .44-.033.874h-1.209c-.12 0-.169.08-.169.198v.555c0 1.308-.737 1.592-1.383 1.664-.614.069-1.297-.258-1.38-.634-.363-2.04-.968-2.476-1.923-3.23 1.185-.751 2.418-1.861 2.418-3.347 0-1.604-1.1-2.615-1.85-3.11-1.051-.693-2.216-.832-2.53-.832H56.877a11.77 11.77 0 0 1 6.592-3.721l1.474 1.546a.87.87 0 0 0 1.234.028l1.65-1.577a11.8 11.8 0 0 1 8.067 5.745l-1.129 2.55a.875.875 0 0 0 .443 1.154l2.175.965q.056.579.056 1.172zM64.944 28.134a.957.957 0 0 1 1.354.03.96.96 0 0 1-.032 1.356.956.956 0 0 1-1.353-.032.96.96 0 0 1 .031-1.354m11.204 9.016a.957.957 0 1 1 1.75.777.957.957 0 1 1-1.75-.777" mask="url(#a)" style="fill:#000;fill-opacity:1;stroke:none;stroke-width:1.00727" transform="translate(56.47 -39.584)scale(2.7746)"/><path d="M35.396 20.52h60.518c1.162 0 2.097.936 2.097 2.098V59.65a2.09 2.09 0 0 1-2.097 2.097H35.396A2.09 2.09 0 0 1 33.3 59.65V22.618c0-1.162.936-2.097 2.097-2.097z" mask="url(#b)" style="fill:none;fill-opacity:.447059;stroke:#000;stroke-width:1.55815;stroke-linecap:square;stroke-linejoin:round;stroke-dasharray:none;stroke-opacity:1;paint-order:markers stroke fill" transform="translate(56.47 -39.581)scale(2.7746)"/><path d="m432.382 268.642 55.74-79.605 19.074 13.356-55.74 79.605z" style="fill:#000;fill-opacity:1;stroke:none;stroke-width:1.2844;stroke-linecap:square;stroke-linejoin:miter;stroke-miterlimit:1000;stroke-dasharray:none;stroke-dashoffset:0;stroke-opacity:1;paint-order:fill markers stroke" transform="translate(21.212 6.31)scale(.45182)"/><path d="m415.395 331.896-3.746-7.744q.037-.442.037-.884c0-8.782-9.131-16.875-24.502-23.36v5.392a111 111 0 0 0-4.68-1.732v-2.518c-21.96-7.922-54.647-12.939-91.161-12.939-31.902 0-60.893 3.832-82.35 10.084v8.75-10.593c-21.984 6.989-35.617 16.698-35.617 27.426q.012 2.542.995 4.992l-2.235 3.992s-1.8 2.321 1.363 7.234c2.788 4.33 16.746 21.278 24.115 30.152 3.163 4.556 5.306 7.356 5.496 7.086.295-.43-1.965-8.972-8.253-18.717-2.935-5.238-6.436-12.172-8.536-17.3 5.87 3.716 40.346 21.083 110.678 21.009 71.879-.074 103.83-22.568 107.336-25.632-1.228 4.919-5.41 14.88-8.75 21.886-5.484 10.01-7.474 18.736-7.216 19.166.16.276 2.027-2.616 4.79-7.296 6.423-9.15 18.595-26.62 21.026-31.073 2.764-5.048 1.21-7.381 1.21-7.381" style="fill:#a52b00;fill-rule:nonzero;stroke-width:.309827;stroke-linecap:square;paint-order:markers stroke fill" transform="translate(21.212 6.31)scale(.45182)"/><path d="m437.11 331.853-24.583-18.103q-.343-1.216-.7-2.414l8.076-11.698a4.36 4.36 0 0 0 .454-4.09 4.11 4.11 0 0 0-3.095-2.555l-13.651-2.32a123 123 0 0 0-1.646-3.194l5.742-13.136a4.36 4.36 0 0 0-.32-4.108 3.99 3.99 0 0 0-3.512-1.873l-13.854.504a117 117 0 0 0-2.192-2.77l3.187-14.075a4.36 4.36 0 0 0-1.081-3.967 3.93 3.93 0 0 0-3.801-1.124l-13.492 3.316q-1.314-1.16-2.665-2.284l.491-14.45a4.3 4.3 0 0 0-1.805-3.666 3.93 3.93 0 0 0-3.93-.331l-12.595 5.987a141 141 0 0 0-3.07-1.72l-2.218-14.234a4.24 4.24 0 0 0-2.456-3.23 3.93 3.93 0 0 0-3.918.473l-11.225 8.425q-1.658-.553-3.341-1.056l-4.84-13.504a4.11 4.11 0 0 0-3.008-2.671 3.99 3.99 0 0 0-3.752 1.265l-9.451 10.568q-1.713-.19-3.433-.35l-7.295-12.294a4.05 4.05 0 0 0-3.451-2.002 3.99 3.99 0 0 0-3.44 2.002l-7.307 12.294a123 123 0 0 0-3.433.35l-9.444-10.568a3.973 3.973 0 0 0-6.755 1.412l-4.852 13.498a135 135 0 0 0-3.334 1.056l-11.226-8.425a3.93 3.93 0 0 0-3.924-.473 4.24 4.24 0 0 0-2.45 3.23l-2.23 14.24q-1.535.836-3.064 1.714l-12.588-5.987a3.93 3.93 0 0 0-3.93.331 4.3 4.3 0 0 0-1.806 3.667l.485 14.45q-1.339 1.123-2.665 2.283l-13.492-3.316a3.99 3.99 0 0 0-3.8 1.124 4.36 4.36 0 0 0-1.082 3.967l3.175 14.075q-1.105 1.37-2.18 2.764l-13.854-.498a4.05 4.05 0 0 0-3.518 1.873 4.36 4.36 0 0 0-.314 4.115l5.736 13.129q-.835 1.572-1.646 3.193l-13.651 2.321a4.11 4.11 0 0 0-3.095 2.555 4.42 4.42 0 0 0 .454 4.09l8.082 11.698-.184.62-22.832 24.257s-3.5 2.745 1.596 9.187c4.49 5.686 27.555 28.223 39.738 40.032 5.146 5.994 8.671 9.703 9.04 9.384.583-.51-2.47-11.416-12.608-24.208-7.811-11.483-17.95-29.145-15.573-31.177 0 0 2.702-3.433 8.13-5.902.203.154-.202-.16 0 0 0 0 114.51 52.818 220.735.89 12.129-2.173 19.48 4.324 19.48 4.324 2.53 1.474-4.03 19.626-9.42 31.644-7.34 13.651-8.414 24.3-7.8 24.668.4.234 3.07-3.826 6.878-10.292 9.396-13.092 27.155-38.049 30.397-44.11 3.691-6.872 0-8.8 0-8.8" style="fill:#f74c00;fill-rule:nonzero;stroke-width:.309827;stroke-linecap:square;paint-order:markers stroke fill" transform="translate(21.212 6.31)scale(.45182)"/><path d="M387.043 325.08s16.476-.768 38.116-22.765l3.07-6.81s-33.59-33.407 18.626-56.478c0 0-4.575 7.474-3.23 36.336 0 0 15.745-5.466 20.357-30.963 0 0 22.967 30.275-24.938 58.67 0 0-22.476 36.035-54.163 32.584z" style="fill:#f74c00;fill-rule:nonzero;stroke-width:.309827;stroke-linecap:square;paint-order:markers stroke fill" transform="translate(21.212 6.31)scale(.45182)"/><path d="M312.406 304.33s11.44-12.528 22.887 0c0 0 8.99 16.703 0 25.054 0 0-14.713 11.699-22.887 0 0 0-9.807-9.186 0-25.055" style="fill-rule:nonzero;stroke-width:.309827;stroke-linecap:square;paint-order:markers stroke fill" transform="translate(21.212 6.31)scale(.45182)"/><path d="M325.652 308.978c0 4.876-2.874 8.83-6.423 8.83-3.544 0-6.418-3.954-6.418-8.83 0-4.882 2.874-8.843 6.418-8.843 3.55 0 6.423 3.961 6.423 8.843" style="fill:#fff;fill-rule:nonzero;stroke-width:.309827;stroke-linecap:square;paint-order:markers stroke fill" transform="translate(21.212 6.31)scale(.45182)"/><path d="M261.332 300.909s19.627-8.696 24.988 10.704c0 0 5.612 22.61-16.12 23.888 0 0-27.714-5.343-8.868-34.592" style="fill-rule:nonzero;stroke-width:.309827;stroke-linecap:square;paint-order:markers stroke fill" transform="translate(21.212 6.31)scale(.45182)"/><path d="M271.188 309.297c0 5.03-2.966 9.107-6.626 9.107-3.654 0-6.62-4.077-6.62-9.107s2.966-9.113 6.62-9.113 6.632 4.078 6.632 9.113" style="fill:#fff;fill-rule:nonzero;stroke-width:.309827;stroke-linecap:square;paint-order:markers stroke fill" transform="translate(21.212 6.31)scale(.45182)"/><path d="m286.48 343.404 25.03-2.008s-.848 4.034-4.115 7.062c0 0-8.61 9.432-18.484-.792 0 0-1.615-1.744-2.432-4.262" style="fill-rule:nonzero;stroke-width:.309827;stroke-linecap:square;paint-order:markers stroke fill" transform="translate(21.212 6.31)scale(.45182)"/><path d="M186.241 320.234q-.307.006-.614.031c-8.124-1.842-30.968-7.799-37.005-17.459 0 0 30.741-34.972-17.311-57.325l5.594 38.688s-14.812-9.893-18.005-31.399c0 0-36.072 26.18 15.917 51.27 0 0 4.716 17.717 49.987 31.854l.037-.135q.682.135 1.4.135c4.28 0 7.75-3.5 7.75-7.83 0-4.323-3.47-7.83-7.75-7.83" style="fill:#f74c00;fill-rule:nonzero;stroke-width:.309827;stroke-linecap:square;paint-order:markers stroke fill" transform="translate(21.212 6.31)scale(.45182)"/></svg>