<svg xmlns="http://www.w3.org/2000/svg" width="200" height="85" viewBox="0 0 200 85.5"><path d="m165.1918 18.5342-6.5992.0294v20.601c-8.6344-5.4859-23.2806-1.167-23.2806 12.4792 0 20.1822 30.3349 18.8653 29.8798-.0098zM43.093 36.699c-8.1485 0-14.9605 5.7155-14.9605 14.7896 0 8.599 6.3678 14.8014 14.9605 14.8014 8.4638 0 14.9193-6.2002 14.9193-14.7896 0-8.7914-6.5908-14.8014-14.9193-14.8014zm72.5001 0c-6.784 0-14.6137 4.16-14.9703 14.7896 0 8.7484 6.5562 14.8014 14.9703 14.8014 8.4743 0 14.9291-6.212 14.9291-14.7896 0-8.8704-6.6977-14.8014-14.929-14.8014zm-41.0545.002c-6.0188.032-11.8766 4.5632-11.7071 11.7386V66.29l6.6836-.0216-.2495-15.9271c0-7.2767 5.4142-7.8404 8.3103-7.3909l2.8998-4.6561c-1.847-1.093-3.8996-1.6042-5.9371-1.5933Zm17.9173 0c-6.0188.032-11.8766 4.5632-11.7072 11.7386V66.29l6.6837-.0216-.2495-15.9271c0-7.2767 5.4141-7.8404 8.3103-7.3909l2.8997-4.6561c-1.847-1.093-3.8996-1.6042-5.937-1.5933Zm-74.9363.002c-7.3615.0534-14.377 5.5206-14.377 14.9448 0 14.4174 15.027 17.2213 22.821 12.5893-1.161-1.5186-2.0785-3.197-2.892-4.9194-5.2607 2.6485-13.32.7176-13.32-7.8703 0-8.5275 8.0484-10.3982 13.21-7.8388.5206-1.3975 2.1365-4.1657 3.0707-5.0412-2.2793-1.2422-4.8349-1.8911-8.5127-1.8644zm166.727.1257c-6.922.1552-14.1138 5.1811-14.1138 14.7995 0 14.1985 14.8138 17.3539 22.8308 12.5892l-2.8802-4.9292c-5.1357 2.544-11.713.6992-13.041-5.2102l19.701-2.829c1.0779-9.8602-5.5749-14.5755-12.4968-14.4203zm.998 5.7367c2.7973-.0861 5.255 1.4646 6.5688 4.7996l-14.4901 1.994c.6784-4.1075 4.3248-6.6829 7.9213-6.7936zM43.592 42.589c2.7161 0 8.3103 1.4109 8.3103 8.9802 0 5.313-3.079 8.9194-8.3103 8.9194-5.172 0-8.3201-3.5255-8.3201-8.9194 0-8.535 6.8847-8.9802 8.3201-8.9802zm72.5002 0c2.716 0 8.3103 1.4109 8.3103 8.9802 0 5.2947-3.0569 8.9194-8.3103 8.9194-5.2418 0-8.3202-3.6285-8.3202-8.9194 0-8.535 6.8848-8.9802 8.3202-8.9802zm34.5045.0294c4.1575.0342 8.3162 3.1106 8.3162 9.1257 0 12.024-16.6305 12.0503-16.6305 0 0-6.1517 4.1568-9.1598 8.3143-9.1257zM2377.2894-712.8672h6.52c0-12.1052-1.2263-24.512 8.22-21.981l3.6-5.43c-20.7761-6.381-18.34 15.4926-18.34 27.411z"/></svg>