<?xml version="1.0" encoding="UTF-8" standalone="no"?>
<svg
   width="199.99948mm"
   height="85.491997mm"
   viewBox="0 0 199.99948 85.491997"
   version="1.1"
   id="svg5"
   inkscape:version="1.3 (0e150ed, 2023-07-21)"
   sodipodi:docname="corrode.svg"
   xmlns:inkscape="http://www.inkscape.org/namespaces/inkscape"
   xmlns:sodipodi="http://sodipodi.sourceforge.net/DTD/sodipodi-0.dtd"
   xmlns="http://www.w3.org/2000/svg"
   xmlns:svg="http://www.w3.org/2000/svg">
  <sodipodi:namedview
     id="namedview7"
     pagecolor="#ffffff"
     bordercolor="#666666"
     borderopacity="1.0"
     objecttolerance="10.0"
     gridtolerance="10.0"
     guidetolerance="10.0"
     inkscape:pageshadow="2"
     inkscape:pageopacity="0.0"
     inkscape:pagecheckerboard="0"
     inkscape:document-units="mm"
     showgrid="false"
     inkscape:snap-global="false"
     inkscape:zoom="0.66423276"
     inkscape:cx="264.96736"
     inkscape:cy="186.68155"
     inkscape:window-width="1728"
     inkscape:window-height="1051"
     inkscape:window-x="0"
     inkscape:window-y="38"
     inkscape:window-maximized="1"
     inkscape:current-layer="layer1"
     showguides="true"
     inkscape:guide-bbox="true"
     fit-margin-top="0"
     fit-margin-left="0"
     fit-margin-right="0"
     fit-margin-bottom="0"
     inkscape:showpageshadow="2"
     inkscape:deskcolor="#d1d1d1" />
  <defs
     id="defs2" />
  <g
     inkscape:label="Layer 1"
     inkscape:groupmode="layer"
     id="layer1"
     transform="translate(-6.4318037,-65.074715)">
    <rect
       style="fill:#ffffff;fill-opacity:1;stroke:none;stroke-width:5.29167;stroke-linecap:square;stop-color:#000000"
       id="rect3191"
       width="135.00865"
       height="51.484032"
       x="284.80527"
       y="514.84033"
       inkscape:export-filename="/Users/mendler/Code/corrode/assets/logo/rect3191.png"
       inkscape:export-xdpi="96"
       inkscape:export-ydpi="96" />
    <path
       id="path3480"
       style="color:#000000;font-size:37.1164px;-inkscape-font-specification:'Futura PT, Normal';fill:#000000;stroke-width:1.6628"
       d="m 24.69343,101.37049 c -4.744498,0 -8.490993,1.37445 -11.240142,4.12361 -2.83783,2.83782 -4.2569541,6.45218 -4.2569541,10.84195 0,4.25675 1.3297891,7.75945 3.9902571,10.50858 2.616129,2.74916 6.163476,4.12361 10.641927,4.12361 3.19564,0 5.936568,-0.68244 8.231475,-2.03356 -0.99074,-1.31971 -2.270883,-3.36301 -2.898058,-4.8645 l 0.01162,-0.0638 c -1.455632,0.73813 -3.081878,1.10846 -4.879246,1.10846 -2.350081,0 -4.3229,-0.75376 -5.919181,-2.26137 -1.684962,-1.68496 -2.528059,-3.92392 -2.528059,-6.71741 0,-2.70481 0.79843,-4.85536 2.394711,-6.45165 1.640621,-1.64061 3.702775,-2.46046 6.185878,-2.46046 1.634699,0 3.179002,0.3594 4.633846,1.07882 l -0.0064,0.0322 c 0.626819,-1.43474 2.106911,-3.83019 3.075258,-5.07815 -2.333145,-1.25349 -4.811326,-1.88632 -7.436942,-1.88632 z"
       sodipodi:nodetypes="ssscscccscssscccss" />
    <path
       style="color:#000000;font-size:37.1164px;-inkscape-font-specification:'Futura PT, Normal';fill:#000000;stroke-width:1.66279;-inkscape-stroke:none"
       d="m 38.537972,105.56083 q 4.323261,-4.19025 10.708385,-4.19025 6.385122,0 10.641872,4.19025 4.32326,4.12371 4.32326,10.57534 0,6.38514 -4.32326,10.64188 -4.25675,4.19024 -10.641872,4.19024 -6.385124,0 -10.708385,-4.19024 -4.256747,-4.25674 -4.256747,-10.64188 0,-6.45163 4.256747,-10.57534 z m 4.655819,17.16001 q 2.261399,2.39442 6.052566,2.39442 3.791167,0 6.052564,-2.39442 2.261398,-2.46094 2.261398,-6.51815 0,-4.45629 -2.460933,-6.71769 -2.39442,-2.26138 -5.853029,-2.26138 -3.458609,0 -5.919542,2.26138 -2.39442,2.2614 -2.39442,6.71769 0,4.05721 2.261396,6.51815 z"
       id="path3482" />
    <path
       id="path3484"
       style="color:#000000;font-size:37.1164px;-inkscape-font-specification:'Futura PT, Normal';fill:#000000;stroke-width:1.6628"
       d="m 83.236074,101.37049 c -13.647318,0.10196 -13.620991,8.04029 -13.235734,28.73283 h 6.518317 v -14.49884 c 0,-3.0152 0.598362,-5.16573 1.79557,-6.45164 0.975507,-1.01985 2.328557,-1.52981 4.057864,-1.52981 0.812127,0 1.601582,0.16809 2.369705,0.49821 l 3.594845,-5.43116 c -1.502498,-0.87871 -3.202648,-1.31959 -5.100567,-1.31959 z" />
    <path
       style="color:#000000;font-size:37.1164px;-inkscape-font-specification:'Futura PT, Normal';fill:#000000;stroke-width:1.66279;-inkscape-stroke:none"
       d="m 110.92172,105.56083 q 4.32327,-4.19025 10.70839,-4.19025 6.38513,0 10.64188,4.19025 4.32326,4.12371 4.32326,10.57534 0,6.38514 -4.32326,10.64188 -4.25675,4.19024 -10.64188,4.19024 -6.38512,0 -10.70839,-4.19024 -4.25674,-4.25674 -4.25674,-10.64188 0,-6.45163 4.25674,-10.57534 z m 4.65583,17.16001 q 2.2614,2.39442 6.05256,2.39442 3.79117,0 6.05256,-2.39442 2.2614,-2.46094 2.2614,-6.51815 0,-4.45629 -2.46094,-6.71769 -2.39442,-2.26138 -5.85302,-2.26138 -3.45861,0 -5.91954,2.26138 -2.39442,2.2614 -2.39442,6.71769 0,4.05721 2.2614,6.51815 z"
       id="path3486" />
    <path
       id="path3492"
       style="color:#000000;font-size:37.1164px;-inkscape-font-specification:'Futura PT, Normal';fill:#000000;stroke-width:1.6628"
       d="m 101.2529,101.37049 c -13.647318,0.10196 -13.620991,8.04029 -13.235734,28.73283 h 6.518316 v -14.49884 c 0,-3.0152 0.598363,-5.16575 1.795571,-6.45166 0.975507,-1.01985 2.328557,-1.52979 4.057867,-1.52979 0.81212,0 1.60158,0.16809 2.3697,0.49821 l 3.59484,-5.43118 c -1.50249,-0.87869 -3.20264,-1.31957 -5.10056,-1.31957 z" />
    <path
       style="color:#000000;font-size:37.1164px;-inkscape-font-specification:'Futura PT, Normal';fill:#000000;stroke-width:1.66279;-inkscape-stroke:none"
       d="m 38.537972,105.56083 q 4.323261,-4.19025 10.708385,-4.19025 6.385122,0 10.641872,4.19025 4.32326,4.12371 4.32326,10.57534 0,6.38514 -4.32326,10.64188 -4.25675,4.19024 -10.641872,4.19024 -6.385124,0 -10.708385,-4.19024 -4.256747,-4.25674 -4.256747,-10.64188 0,-6.45163 4.256747,-10.57534 z m 4.655819,17.16001 q 2.261399,2.39442 6.052566,2.39442 3.791167,0 6.052564,-2.39442 2.261398,-2.46094 2.261398,-6.51815 0,-4.45629 -2.460933,-6.71769 -2.39442,-2.26138 -5.853029,-2.26138 -3.458609,0 -5.919542,2.26138 -2.39442,2.2614 -2.39442,6.71769 0,4.05721 2.261396,6.51815 z"
       id="path3608" />
    <path
       id="path3651"
       style="color:#000000;font-size:37.1164px;-inkscape-font-specification:'Futura PT, Normal';fill:#000000;stroke-width:1.6628"
       d="m 191.58615,101.37049 c -4.74451,0 -8.49101,1.37444 -11.24015,4.1236 -2.83785,2.83783 -4.25697,6.45219 -4.25697,10.84196 0,4.25675 1.32979,7.75945 3.99027,10.50858 2.61612,2.74916 6.16348,4.1236 10.64194,4.1236 3.19563,0 5.93656,-0.68244 8.23147,-2.03355 -0.99075,-1.3197 -1.79717,-2.7314 -2.42434,-4.23288 l -0.4621,-0.69545 c -1.45562,0.73813 -3.08188,1.10845 -4.87925,1.10845 -2.35007,0 -4.32289,-0.75374 -5.91918,-2.26135 -1.68496,-1.68498 -2.52805,-3.92393 -2.52805,-6.71742 0,-2.70481 0.79842,-4.85536 2.39471,-6.45165 1.64062,-1.64061 3.70278,-2.46046 6.18588,-2.46046 1.6347,0 4.64772,0.66784 6.32496,4.33099 0.87597,2.57572 4.08074,5.45198 5.15028,4.06016 0.91902,-11.01003 -7.54318,-14.24458 -11.20947,-14.24458 z"
       sodipodi:nodetypes="ssscscccscsssccs" />
    <rect
       style="fill:#000000;fill-opacity:1;stroke:none;stroke-width:0.56041;stroke-linecap:square;stop-color:#000000"
       id="rect3709"
       width="23.563749"
       height="4.7542543"
       x="151.12032"
       y="139.22057"
       transform="matrix(0.98979579,-0.14249314,0.20698279,0.97834458,0,0)" />
    <path
       id="path1"
       style="color:#000000;font-size:37.1164px;-inkscape-font-specification:'Futura PT, Normal';fill:#000000;stroke-width:1.66279;-inkscape-stroke:none"
       d="m 164.65688,83.04409 v 20.64266 c -2.37995,-1.54311 -5.15098,-2.31613 -8.31474,-2.31613 -4.25674,0 -7.82621,1.39694 -10.70839,4.19044 -2.83782,2.74914 -4.25659,6.27398 -4.25659,10.57506 0,4.25676 1.41877,7.80442 4.25659,10.64225 2.88218,2.79349 6.45165,4.18992 10.70839,4.18992 4.25675,0 7.8039,-1.39643 10.64173,-4.18992 2.88217,-2.83783 4.32325,-6.38549 4.32325,-10.64225 0,-0.0209 -0.001,-0.0411 -0.002,-0.062 h 0.002 V 83.04409 Z m -8.31474,24.1794 c 2.30573,0 4.25659,0.75377 5.85287,2.26136 1.64063,1.5076 2.46083,3.74708 2.46083,6.71794 0,2.7048 -0.75376,4.87732 -2.26136,6.51794 -1.50759,1.59628 -3.5249,2.39469 -6.05234,2.39469 -2.52744,0 -4.54526,-0.79841 -6.05286,-2.39469 -1.5076,-1.64062 -2.26136,-3.81314 -2.26136,-6.51794 0,-2.97086 0.79841,-5.21034 2.39469,-6.71794 1.64061,-1.50759 3.61379,-2.26136 5.91953,-2.26136 z" />
  </g>
</svg>
