<svg xmlns="http://www.w3.org/2000/svg" width="200px" height="85px" viewBox="0 0 200 85.49">
   <path d="M24.7 101.37c-4.75 0-8.5 1.37-11.25 4.12-2.83 2.84-4.25 6.46-4.25 10.85 0 4.25 1.33 7.76 3.99 10.5 2.61 2.75 6.16 4.13 10.64 4.13 3.2 0 5.94-.68 8.23-2.04-1-1.32-2.27-3.36-2.9-4.86l.01-.06c-1.45.73-3.08 1.1-4.88 1.1a8.3 8.3 0 0 1-5.91-2.26c-1.69-1.68-2.53-3.92-2.53-6.71 0-2.7.8-4.86 2.4-6.46a8.39 8.39 0 0 1 6.18-2.46c1.63 0 3.18.36 4.63 1.08v.03c.62-1.43 2.1-3.83 3.07-5.07a15.49 15.49 0 0 0-7.44-1.89z" class="logo-text" font-size="37.12" style="-inkscape-font-specification:&quot;Futura PT, Normal&quot;" transform="translate(-6.43 -65.07)"/>
   <path d="M38.54 105.56q4.32-4.19 10.7-4.19 6.4 0 10.65 4.2 4.32 4.11 4.32 10.57 0 6.38-4.32 10.64-4.26 4.19-10.64 4.19-6.39 0-10.71-4.2-4.26-4.25-4.26-10.63 0-6.46 4.26-10.58zm4.65 17.16q2.27 2.4 6.06 2.4 3.79 0 6.05-2.4 2.26-2.46 2.26-6.52 0-4.45-2.46-6.72-2.4-2.26-5.85-2.26-3.46 0-5.92 2.26-2.4 2.27-2.4 6.72 0 4.06 2.26 6.52z" class="logo-text" font-size="37.12" style="-inkscape-font-specification:&quot;Futura PT, Normal&quot;;-inkscape-stroke:none" transform="translate(-6.43 -65.07)"/>
   <path d="M83.24 101.37c-13.65.1-13.62 8.04-13.24 28.73h6.52v-14.5c0-3.01.6-5.16 1.8-6.45a5.35 5.35 0 0 1 4.05-1.53c.81 0 1.6.17 2.37.5l3.6-5.43a9.92 9.92 0 0 0-5.1-1.32z" class="logo-text" font-size="37.12" style="-inkscape-font-specification:&quot;Futura PT, Normal&quot;" transform="translate(-6.43 -65.07)"/>
   <path d="M110.92 105.56q4.32-4.19 10.71-4.19 6.39 0 10.64 4.2 4.33 4.11 4.33 10.57 0 6.38-4.33 10.64-4.25 4.19-10.64 4.19-6.39 0-10.7-4.2-4.27-4.25-4.27-10.63 0-6.46 4.26-10.58zm4.66 17.16q2.26 2.4 6.05 2.4 3.8 0 6.05-2.4 2.26-2.46 2.26-6.52 0-4.45-2.46-6.72-2.4-2.26-5.85-2.26-3.46 0-5.92 2.26-2.4 2.27-2.4 6.72 0 4.06 2.27 6.52z" class="logo-text" font-size="37.12" style="-inkscape-font-specification:&quot;Futura PT, Normal&quot;;-inkscape-stroke:none" transform="translate(-6.43 -65.07)"/>
   <path d="M101.25 101.37c-13.64.1-13.62 8.04-13.23 28.73h6.52v-14.5c0-3.01.6-5.16 1.8-6.45a5.35 5.35 0 0 1 4.05-1.53c.81 0 1.6.17 2.37.5l3.6-5.43a9.92 9.92 0 0 0-5.1-1.32z" class="logo-text" font-size="37.12" style="-inkscape-font-specification:&quot;Futura PT, Normal&quot;" transform="translate(-6.43 -65.07)"/>
   <path d="M38.54 105.56q4.32-4.19 10.7-4.19 6.4 0 10.65 4.2 4.32 4.11 4.32 10.57 0 6.38-4.32 10.64-4.26 4.19-10.64 4.19-6.39 0-10.71-4.2-4.26-4.25-4.26-10.63 0-6.46 4.26-10.58zm4.65 17.16q2.27 2.4 6.06 2.4 3.79 0 6.05-2.4 2.26-2.46 2.26-6.52 0-4.45-2.46-6.72-2.4-2.26-5.85-2.26-3.46 0-5.92 2.26-2.4 2.27-2.4 6.72 0 4.06 2.26 6.52z" class="logo-text" font-size="37.12" style="-inkscape-font-specification:&quot;Futura PT, Normal&quot;;-inkscape-stroke:none" transform="translate(-6.43 -65.07)"/>
   <path d="M191.59 101.37c-4.75 0-8.5 1.37-11.24 4.12-2.84 2.84-4.26 6.46-4.26 10.85 0 4.25 1.33 7.76 3.99 10.5 2.62 2.75 6.16 4.13 10.64 4.13 3.2 0 5.94-.68 8.23-2.04a19.36 19.36 0 0 1-2.42-4.23l-.46-.7a10.65 10.65 0 0 1-4.88 1.11 8.3 8.3 0 0 1-5.92-2.26c-1.69-1.68-2.53-3.92-2.53-6.71 0-2.7.8-4.86 2.4-6.46a8.39 8.39 0 0 1 6.18-2.46c1.64 0 4.65.67 6.33 4.33.87 2.58 4.08 5.46 5.15 4.07.91-11.01-7.55-14.25-11.21-14.25z" class="logo-text" font-size="37.12" style="-inkscape-font-specification:&quot;Futura PT, Normal&quot;" transform="translate(-6.43 -65.07)"/>
   <path d="m171.96 49.6 23.32-3.36.99 4.65-23.32 3.35z" class="logo-text"/>
   <path d="M164.66 83.04v20.65a14.94 14.94 0 0 0-8.32-2.32c-4.25 0-7.82 1.4-10.7 4.2-2.84 2.74-4.26 6.27-4.26 10.57 0 4.25 1.42 7.8 4.25 10.64a14.79 14.79 0 0 0 10.71 4.19c4.26 0 7.8-1.4 10.64-4.2a14.32 14.32 0 0 0 4.33-10.63v-33.1Zm-8.32 24.18c2.3 0 4.26.76 5.86 2.26 1.64 1.51 2.46 3.75 2.46 6.72 0 2.7-.76 4.88-2.27 6.52-1.5 1.6-3.52 2.4-6.05 2.4s-4.54-.8-6.05-2.4c-1.5-1.64-2.26-3.81-2.26-6.52 0-2.97.8-5.2 2.4-6.72a8.44 8.44 0 0 1 5.91-2.26z" class="logo-text" font-size="37.12" style="-inkscape-font-specification:&quot;Futura PT, Normal&quot;;-inkscape-stroke:none" transform="translate(-6.43 -65.07)"/>
</svg>