<?xml version="1.0" standalone="no"?>
<!DOCTYPE svg PUBLIC "-//W3C//DTD SVG 20010904//EN"
 "http://www.w3.org/TR/2001/REC-SVG-20010904/DTD/svg10.dtd">
<svg version="1.0" xmlns="http://www.w3.org/2000/svg"
 width="700.000000pt" height="700.000000pt" viewBox="0 0 700.000000 700.000000"
 preserveAspectRatio="xMidYMid meet">
<metadata>
Created by potrace 1.14, written by Peter Selinger 2001-2017
</metadata>
<g transform="translate(0.000000,700.000000) scale(0.100000,-0.100000)"
fill="#000000" stroke="none">
<path d="M2169 6996 c-2 -2 -33 -7 -69 -11 -134 -13 -154 -16 -243 -36 -113
-25 -246 -62 -312 -87 -27 -11 -77 -30 -110 -43 -80 -30 -308 -147 -376 -192
-102 -69 -121 -82 -212 -155 -130 -104 -263 -235 -352 -347 -22 -27 -48 -59
-58 -70 -49 -54 -213 -324 -256 -420 -7 -16 -17 -38 -22 -48 -5 -9 -23 -52
-40 -95 -26 -65 -36 -92 -54 -152 -1 -3 -4 -12 -8 -20 -5 -14 -24 -80 -44
-155 -4 -16 -8 -768 -8 -1670 0 -1572 1 -1642 19 -1700 10 -33 19 -64 20 -70
8 -34 31 -101 38 -110 4 -5 8 -17 8 -27 0 -10 4 -26 9 -36 5 -9 26 -57 47
-107 21 -49 51 -112 66 -140 16 -27 36 -67 44 -88 9 -20 20 -37 25 -37 5 0 9
-5 9 -11 0 -6 23 -45 51 -87 280 -418 670 -734 1129 -915 105 -41 258 -90 320
-101 14 -2 58 -12 98 -20 79 -17 107 -21 222 -33 41 -5 658 -8 1370 -8 990 0
1313 3 1370 13 41 6 91 15 110 18 206 33 500 132 690 232 473 250 829 617
1060 1096 33 68 60 130 60 138 0 8 4 18 8 24 9 10 43 96 46 117 1 6 5 17 9 23
11 18 74 284 81 343 4 29 8 56 10 60 16 26 20 357 21 1431 0 1084 -3 1308 -19
1420 -14 94 -19 122 -32 180 -9 36 -17 72 -19 80 -10 49 -40 156 -55 195 -48
128 -93 231 -146 332 -66 128 -190 323 -205 323 -5 0 -8 3 -6 8 1 4 -16 30
-38 57 -155 193 -337 360 -541 498 -84 56 -254 155 -276 159 -7 2 -15 6 -18 9
-3 3 -48 24 -100 46 -81 34 -153 59 -325 112 -25 8 -97 24 -205 46 -8 1 -40 6
-70 10 -30 4 -64 10 -75 13 -22 7 -2639 14 -2646 8z"/>
</g>
</svg>
