<svg xmlns="http://www.w3.org/2000/svg" xml:space="preserve" width="400" height="400" viewBox="0 0 105.833 105.833"><path d="M56.624 92.577c5.826-.587 12.074-2.223 16.613-4.35 5.19-2.433 9.322-5.962 8.35-7.133-.465-.561-.988-.457-3.289.655-12.28 5.94-31.674 6.748-45.794 1.91-3.77-1.292-8.928-3.92-11.84-6.033-2.682-1.946-3.588-2.205-3.748-1.07-.286 2.015 6.16 7.956 11.744 10.824 5.878 3.02 10.7 4.381 18.772 5.301 1.777.203 6.706.147 9.192-.104m28.812-6.37c2.428-2.464 3.636-5.205 3.643-8.265.002-1.098-.118-1.487-.612-1.981-.895-.895-2.537-1.288-5.317-1.273-2.614.014-4.61.605-6.586 1.95-.916.624-1.203 1.593-.546 1.845.19.073 1.554-.048 3.03-.269 3.317-.495 5.484-.304 6.028.533.545.838.083 2.544-1.552 5.732-.762 1.487-1.32 2.875-1.239 3.085.333.87 1.415.403 3.15-1.358m-36.817-18.27c.762-.383 2.295-2.039 2.295-2.479 0-.644.402.164.645 1.297.26 1.205.26 1.205 2.13 1.28 1.872.077 1.872.077 1.805-11.991s-.067-12.068-2.13-12.068c-2.064 0-2.064 0-2.134 4.19-.04 2.306-.155 4.19-.258 4.188-.103-.001-.452-.412-.776-.911-.883-1.363-1.977-1.92-3.773-1.921-2.693-.002-4.567 1.62-5.56 4.813-1.317 4.23-.716 9.311 1.432 12.128 1.424 1.867 4.238 2.523 6.324 1.474m-1.445-3.435c-1.45-.621-2.165-2.405-2.18-5.44-.011-2.659.303-3.893 1.267-4.972.95-1.064 2.467-1.148 3.482-.194 1.865 1.751 1.908 8.283.067 10.013-.686.645-1.885.915-2.636.593m22.308 3.284c.638-.274 1.49-.811 1.894-1.194.702-.665 1.974-2.847 1.974-3.384 0-.274-1.248-.664-3.014-.942-1.041-.163-1.093-.138-1.447.7-.702 1.659-2.115 2.305-3.645 1.665-.974-.407-1.76-1.671-2.057-3.312-.176-.967-.176-.967 4.962-.967 4.27 0 5.193-.066 5.462-.39.433-.521-.048-4.342-.745-5.918-.663-1.497-2.388-3.338-3.744-3.995-1.57-.76-4.239-.724-5.958.078-1.574.735-3.056 2.33-3.963 4.263-.62 1.323-.68 1.729-.68 4.673 0 2.931.061 3.352.668 4.642.368.78.99 1.798 1.382 2.261 2.025 2.395 5.784 3.163 8.911 1.82m-6.19-11.182c0-.942.602-2.215 1.392-2.943.757-.699 2.199-.824 2.888-.252.568.471 1.194 1.758 1.403 2.881.18.967.18.967-2.751.967s-2.931 0-2.931-.653m22.795 11.412c1.504-.432 3.552-2.446 4.438-4.365.695-1.506.749-1.845.749-4.717 0-2.812-.063-3.229-.686-4.559-.924-1.97-2.514-3.638-4.133-4.335-1.079-.464-1.698-.553-3.316-.48-1.805.082-2.12.18-3.375 1.049-1.495 1.035-2.787 2.738-3.48 4.585-.66 1.763-.595 5.888.123 7.75 1.735 4.497 5.256 6.342 9.68 5.072m-4.222-4.01c-.961-.961-1.29-2.255-1.29-5.072s.329-4.111 1.29-5.073c1.009-1.009 2.582-1.027 3.495-.042 2.029 2.19 1.762 9.5-.388 10.65-.971.52-2.326.319-3.107-.462m-56.645 2.73c2.192-7.605 4.543-16.496 4.416-16.701-.087-.141-1.075-.256-2.197-.256-1.68 0-2.08.079-2.274.45-.13.25-.847 3.266-1.595 6.706-.747 3.44-1.436 6.254-1.53 6.254-.093 0-.794-2.872-1.556-6.383-.762-3.51-1.495-6.528-1.628-6.705-.288-.383-4.193-.454-4.424-.08-.168.271 4.46 17.244 4.838 17.746.167.22 1.077.322 2.902.322 2.658 0 2.658 0 3.048-1.354m11.896-7.802c0-9.026 0-9.026-2.127-9.101-2.128-.075-2.128-.075-2.128 9.1 0 9.177 0 9.177 2.128 9.102 2.127-.075 2.127-.075 2.127-9.101m-.464-11.09c.83-.582 1.217-1.986.851-3.094-.388-1.176-1.142-1.677-2.527-1.677-.897 0-1.274.152-1.877.754-1.683 1.683-.524 4.404 1.877 4.404.618 0 1.372-.174 1.676-.387m-19.316-4.306c.214-.214.31-1.535.31-4.276 0-3.966 0-3.966.838-2.876 1.208 1.572 2.306 2.099 4.127 1.98 3.603-.235 5.866-3.903 5.866-9.507 0-2.606-.388-4.391-1.35-6.218-.899-1.705-1.996-2.64-3.6-3.07-2.01-.537-4.138.289-5.237 2.032-.654 1.038-.821 1.039-1.03 0-.373-1.85-.263-1.769-2.279-1.687-1.849.076-1.849.076-1.916 11.793-.053 9.203.003 11.762.258 11.924.514.326 3.666.252 4.013-.095m1.783-9.494c-2.16-1.7-2.16-8.61 0-10.31 1.67-1.314 3.869-.058 4.424 2.529.932 4.345-.437 8.3-2.871 8.3-.505 0-1.18-.226-1.553-.519M87.95 38.05c1.598-.474 3.24-1.852 3.946-3.311.814-1.683.74-1.856-.944-2.217a48 48 0 0 1-1.94-.447c-.335-.095-.556.11-.831.769-.75 1.793-2.807 2.55-4.227 1.556-.75-.525-1.564-2.275-1.572-3.378-.005-.833-.005-.833 5.217-.902s5.222-.07 5.18-2.133c-.07-3.54-1.706-6.553-4.309-7.939-1.492-.794-4.722-.79-6.251.009-1.476.77-3.315 2.906-4.008 4.654-.822 2.072-.827 6.478-.01 8.562 1.609 4.11 5.53 6.03 9.75 4.777m-5.496-11.598c.496-3.056 2.904-4.498 4.558-2.728.61.653 1.296 2.423 1.296 3.345 0 .176-1.063.273-3 .273-2.999 0-2.999 0-2.854-.89M35.44 32.306c.002-5.946.165-7.133 1.095-7.984.906-.83 1.63-.931 3.176-.445.777.244 1.478.38 1.556.302s.362-.995.63-2.036c.58-2.252.456-2.482-1.445-2.691-1.543-.17-3.298.614-4.108 1.836-.77 1.162-.962 1.141-1.27-.136-.28-1.16-.28-1.16-2.15-1.236s-1.87-.076-1.87 8.962 0 9.037 2.193 9.037 2.192 0 2.193-5.609m12.894-3.427c0-9.036 0-9.036-2.257-8.962-2.256.075-2.256.075-2.324 8.712-.038 4.751-.013 8.784.056 8.962.086.226.796.324 2.324.324 2.2 0 2.2 0 2.2-9.036m7.737 2.503c.128-6.405.128-6.405.97-7.157.892-.795 1.429-.905 2.479-.506 1.212.46 1.313 1 1.45 7.75.13 6.317.13 6.317 2.37 6.392 2.24.074 2.24.074 2.32-6.236.077-5.934.114-6.353.622-7.037.744-1.001 2.162-1.347 3.074-.749 1.27.833 1.414 1.66 1.414 8.147 0 5.95 0 5.95 2.257 5.875 2.257-.074 2.257-.074 2.329-5.62.1-7.684-.313-9.89-2.176-11.652-2.025-1.915-4.986-1.581-7.136.804-.543.602-1.012 1.055-1.042 1.007-1.407-2.24-3.08-3.207-5.134-2.964-1.465.174-2.809 1.068-3.44 2.29-.473.913-.692.713-.98-.896-.175-.967-.175-.967-2.097-.967-1.923 0-1.923 0-1.923 9.036 0 9.037 0 9.037 2.257 8.962 2.257-.074 2.257-.074 2.386-6.479m-8.928-13.313c1.59-.605 2.058-3.13.81-4.378-.537-.537-.91-.662-1.969-.662-1.11 0-1.398.108-1.928.723-.672.782-.846 2.375-.358 3.286.558 1.042 2.157 1.52 3.445 1.031" style="fill:#000;stroke-width:.731037"/></svg>