<svg xmlns="http://www.w3.org/2000/svg" viewBox="0 0 40 40"><path d="M20 0c-5.54 0-10 2.23-10 5v4h10v1H5c-2.77 0-5 4.46-5 10s2.23 10 5 10h4c0-2.52.155-4.428.523-5.902.369-1.474.97-2.532 1.852-3.239C13.141 19.447 15.75 19.5 19.5 19.5c4.25 0 6.912-.057 8.39-1.152.74-.548 1.254-1.359 1.602-2.694S30 12.48 30 10V5c0-2.77-4.46-5-10-5m-5.5 3.15A1.85 1.85 0 0 1 16.35 5a1.85 1.85 0 0 1-1.85 1.85A1.85 1.85 0 0 1 12.65 5a1.85 1.85 0 0 1 1.85-1.85M31 10c0 2.52-.153 4.43-.54 5.908-.385 1.478-1.027 2.542-1.976 3.244C26.588 20.557 23.75 20.5 19.5 20.5c-3.75 0-6.14.053-7.5 1.14-.68.544-1.173 1.361-1.508 2.7C10.158 25.678 10 27.52 10 30v5c0 2.77 4.46 5 10 5s10-2.23 10-5v-4H20v-1h15c2.77 0 5-4.46 5-10s-2.23-10-5-10zm-5.5 23.15A1.85 1.85 0 0 1 27.35 35a1.85 1.85 0 0 1-1.85 1.85A1.85 1.85 0 0 1 23.65 35a1.85 1.85 0 0 1 1.85-1.85"/><path d="M10 9.5h10m0 21h10" style="color:#000;font-style:normal;font-variant:normal;font-weight:400;font-stretch:normal;font-size:medium;line-height:normal;font-family:sans-serif;font-variant-ligatures:normal;font-variant-position:normal;font-variant-caps:normal;font-variant-numeric:normal;font-variant-alternates:normal;font-variant-east-asian:normal;font-feature-settings:normal;font-variation-settings:normal;text-indent:0;text-align:start;text-decoration-line:none;text-decoration-style:solid;text-decoration-color:#000;letter-spacing:normal;word-spacing:normal;text-transform:none;writing-mode:lr-tb;direction:ltr;text-orientation:mixed;dominant-baseline:auto;baseline-shift:baseline;text-anchor:start;white-space:normal;shape-padding:0;shape-margin:0;inline-size:0;clip-rule:nonzero;display:inline;overflow:visible;visibility:visible;isolation:auto;mix-blend-mode:normal;color-interpolation:sRGB;color-interpolation-filters:linearRGB;solid-color:#000;solid-opacity:1;vector-effect:none;fill:#000;fill-opacity:1;fill-rule:nonzero;stroke:none;stroke-linecap:butt;stroke-linejoin:miter;stroke-miterlimit:4;stroke-dasharray:none;stroke-dashoffset:0;stroke-opacity:1;-inkscape-stroke:none;color-rendering:auto;image-rendering:auto;shape-rendering:auto;text-rendering:auto;stop-color:#000"/></svg>