<svg xmlns="http://www.w3.org/2000/svg" xml:space="preserve" width="205.547" height="178.239" viewBox="0 0 205.547 178.239"><path d="M232.858 390.477c-1.386-2.14-23.607-40.873-23.607-41.15 0-.18 11.5-20.245 25.557-44.589l25.556-44.26 24.284-.07 24.283-.07 18.549 32.183c10.202 17.7 18.698 32.387 18.88 32.636.256.349 1.901-2.267 7.144-11.358l6.812-11.812-18.619-32.275c-10.24-17.75-18.837-32.527-19.102-32.835-.455-.527-2.668-.56-38.03-.56H247.02l-.751 1.2c-.414.66-11.886 20.496-25.494 44.08s-24.902 43.117-25.099 43.407c-.296.435-1.52-1.49-7.15-11.244l-6.792-11.77 25.679-44.509 25.679-44.509 51.544-.007 51.544-.007 25.704 44.527c20.042 34.72 25.634 44.64 25.39 45.04-.173.282-9.285 16.065-20.25 35.073s-19.968 34.6-20.008 34.648-4.449-7.403-9.798-16.558l-9.726-16.645-29.2-.003c-16.06 0-29.2-.063-29.2-.136s3-5.366 6.668-11.76l6.668-11.626 15.55-.16 15.552-.16-9.183-15.68-9.182-15.68h-21.029l-18.85 32.64c-10.366 17.951-18.809 32.8-18.761 32.995s2.385 4.336 5.193 9.2l5.107 8.844h75.644l6.672 11.564c3.669 6.36 6.719 11.688 6.778 11.84.06.154-22.58.276-51.244.276h-51.35z" style="fill:#000" transform="translate(-181.733 -212.958)"/></svg>