<?xml version="1.0" encoding="UTF-8" standalone="no"?>
<!-- Created with Inkscape (http://www.inkscape.org/) -->

<svg
   version="1.1"
   id="svg1"
   width="205.54732"
   height="178.23932"
   viewBox="0 0 205.54732 178.23932"
   sodipodi:docname="logo.svg"
   xml:space="preserve"
   inkscape:version="1.3 (0e150ed, 2023-07-21)"
   xmlns:inkscape="http://www.inkscape.org/namespaces/inkscape"
   xmlns:sodipodi="http://sodipodi.sourceforge.net/DTD/sodipodi-0.dtd"
   xmlns="http://www.w3.org/2000/svg"
   xmlns:svg="http://www.w3.org/2000/svg"><defs
     id="defs1" /><sodipodi:namedview
     id="namedview1"
     pagecolor="#ffffff"
     bordercolor="#666666"
     borderopacity="1.0"
     inkscape:showpageshadow="2"
     inkscape:pageopacity="0.0"
     inkscape:pagecheckerboard="0"
     inkscape:deskcolor="#d1d1d1"
     inkscape:zoom="2.100637"
     inkscape:cx="112.5849"
     inkscape:cy="109.01455"
     inkscape:window-width="1920"
     inkscape:window-height="1027"
     inkscape:window-x="0"
     inkscape:window-y="25"
     inkscape:window-maximized="0"
     inkscape:current-layer="g1" /><g
     inkscape:groupmode="layer"
     inkscape:label="Image"
     id="g1"
     transform="translate(-181.73289,-212.95817)"><path
       style="fill:#000000"
       d="m 232.85821,390.47749 c -1.38642,-2.14026 -23.60721,-40.87342 -23.60721,-41.14984 0,-0.18054 11.5005,-20.24569 25.55668,-44.58921 l 25.55668,-44.26095 24.28333,-0.0697 24.28332,-0.0697 18.549,32.18289 c 10.20195,17.7006 18.69814,32.38687 18.88043,32.63615 0.25508,0.34885 1.90063,-2.26757 7.14371,-11.35849 l 6.81228,-11.81176 -18.61944,-32.2747 c -10.24069,-17.75108 -18.83673,-32.5267 -19.1023,-32.8347 -0.45477,-0.52741 -2.66808,-0.56 -38.02926,-0.56 h -37.5464 l -0.75151,1.2 c -0.41334,0.66 -11.88531,20.496 -25.49328,44.08 -13.60797,23.584 -24.90244,43.11671 -25.09883,43.40603 -0.29591,0.43592 -1.52065,-1.49011 -7.1498,-11.24381 l -6.79272,-11.76984 25.67905,-44.50885 25.67906,-44.50884 51.54404,-0.007 51.54402,-0.007 25.70352,44.52713 c 20.04196,34.71942 25.63446,44.6401 25.39003,45.04 -0.17241,0.28208 -9.28456,16.06487 -20.24922,35.07287 -10.96466,19.008 -19.96836,34.59937 -20.00823,34.64749 -0.0399,0.0481 -4.44911,-7.40269 -9.79832,-16.55737 l -9.72583,-16.64488 -29.2,-0.003 c -16.06,-0.001 -29.20001,-0.063 -29.20001,-0.13685 0,-0.0738 3.00051,-5.36583 6.6678,-11.76 l 6.66781,-11.62577 15.5511,-0.16 15.5511,-0.16 -9.1824,-15.68 -9.18239,-15.68 H 284.6494 274.13478 l -18.84895,32.6397 c -10.36692,17.952 -18.80977,32.80006 -18.76189,32.99569 0.0479,0.19564 2.38493,4.33564 5.19343,9.2 l 5.10636,8.84431 h 37.82233 37.82233 l 6.67131,11.56387 c 3.66922,6.36013 6.71931,11.68813 6.77798,11.84 0.0595,0.15413 -22.58047,0.27613 -51.2432,0.27613 h -51.34987 z"
       id="path1"
       sodipodi:nodetypes="ssscccssscssscsssscccccsssssccssccccccccsscccssscs" /></g></svg>
