<svg xmlns="http://www.w3.org/2000/svg" xml:space="preserve" viewBox="0 0 300 300"><path d="M114.342 279.812c-19.348-11.103-35.543-20.51-35.989-20.905-.76-.673-.81-3.277-.81-42.255 0-32.674.124-41.638.579-42.003.318-.256 42.496-24.657 93.73-54.224 51.233-29.567 93.29-53.758 93.462-53.758s3.254 1.695 6.85 3.767 6.901 4.083 7.347 4.47c.714.62.81 1.669.81 8.892 0 7.225-.096 8.272-.81 8.889-.446.384-21.436 12.592-46.644 27.129a225284 225284 0 0 0-85.417 49.285l-39.583 22.855-.287 3.444c-.157 1.895-.314 8.688-.347 15.097s.066 11.981.22 12.384c.155.403.471.732.703.732s38.865-22.194 85.852-49.32c46.986-27.125 85.629-49.196 85.871-49.046.267.164.44 6.556.435 16.102-.003 8.706-.12 16.256-.26 16.777-.174.646-3.604 2.884-10.758 7.019-5.777 3.338-35.295 20.38-65.596 37.87-30.3 17.49-60.88 35.145-67.954 39.234s-12.787 7.663-12.696 7.941c.09.279 2.024 1.599 4.297 2.934s8.331 4.843 13.464 7.794l9.334 5.366 64.62-37.307c35.54-20.52 64.726-37.308 64.856-37.308s.237 7.583.237 16.85v16.851l-23.495 13.562-64.641 37.315C169.092 289.31 150.339 300 150.048 300s-16.358-9.084-35.706-20.188m-79.855-45.87c-7.766-4.48-14.273-8.376-14.46-8.66-.187-.282-.343-34.075-.347-75.094-.007-70.459.037-74.62.803-75.285.445-.386 18.622-10.975 40.393-23.529s50.698-29.25 64.282-37.1C138.743 6.424 149.948 0 150.06 0s6.758 3.78 14.769 8.402c8.011 4.62 14.566 8.574 14.566 8.785s-.469.69-1.042 1.063-29.349 17.02-63.946 36.994C79.809 75.217 51.11 91.894 50.634 92.303c-.817.699-.869 1.649-.869 15.809 0 12.126.12 15.111.617 15.302.34.13 2.371-.788 4.514-2.04s36.918-21.334 77.277-44.626c40.358-23.291 73.844-42.593 74.413-42.893.865-.457 1.392-.358 3.24.608 1.215.634 7.728 4.348 14.475 8.254s12.318 7.402 12.38 7.77c.077.447-13.068 8.272-39.35 23.427a781305 781305 0 0 0-91.779 52.934c-28.773 16.598-53.096 30.683-54.05 31.301l-1.737 1.123v41.429c0 32.846-.12 41.424-.578 41.407-.319-.012-6.933-3.686-14.7-8.166"/></svg>