<?xml version="1.0" encoding="UTF-8"?>
<svg version="1.1" viewBox="0 0 400 400" xmlns="http://www.w3.org/2000/svg"><path d="m1.5e-6 200v-200h400v400h-400zm106 79.4c-2e-5 -24.9 0.11-26.6 1.75-25.9 11 4.3 35.3 6.78 46.2 4.72 26.6-4.99 39.4-24.5 39.4-60.2 0.0594-37.2-13.6-57.6-41.6-62-20.9-3.32-66.8 2.69-71 9.32-0.427 0.671-0.782 37.1-0.791 81l-0.0153 79.8h26zm14.5-39.8c-3.3-0.776-7.8-2.05-10-2.84l-4-1.43-0.523-77.1 3.8-1.52c18.3-7.3 42.8-4.4 50.7 6 12 15.7 11.5 57.6-0.778 71-5.38 5.87-26 8.93-39.2 5.82zm116-34.1 0.5-50 8.5-1.77c12-2.5 29.9-2.01 35.5 0.967 12.1 6.41 12.9 9.66 13.3 59.6l0.358 40.8h24.8l-0.0327-40.8c-0.0353-43.9-0.564-51.7-4-58.8-10.2-21.1-45.1-26.8-94.7-15.4l-9.23 2.12v114l24.5-0.562z"/></svg>
