<svg xmlns="http://www.w3.org/2000/svg" width="511.568" height="357.973" viewBox="0 0 511.568 357.973"><defs><linearGradient id="c" x1="0" x2="1" y1="0" y2="0" gradientTransform="matrix(151.514 -1.28402 -1.28402 -151.514 3791.58 829.66)" gradientUnits="userSpaceOnUse" spreadMethod="pad"><stop offset="0" style="stop-opacity:1;stop-color:#4560b6"/><stop offset="1" style="stop-opacity:1;stop-color:#27438f"/></linearGradient><linearGradient id="e" x1="0" x2="1" y1="0" y2="0" gradientTransform="matrix(1325.11 0 0 -1325.11 3802.93 856.29)" gradientUnits="userSpaceOnUse" spreadMethod="pad"><stop offset="0" style="stop-opacity:1;stop-color:#fff"/><stop offset="1" style="stop-opacity:1;stop-color:#211c1c"/></linearGradient><linearGradient id="g" x1="0" x2="1" y1="0" y2="0" gradientTransform="matrix(95.6578 .963 .963 -95.6578 3822.47 858.64)" gradientUnits="userSpaceOnUse" spreadMethod="pad"><stop offset="0" style="stop-opacity:1;stop-color:#4560b6"/><stop offset="1" style="stop-opacity:1;stop-color:#27438f"/></linearGradient><clipPath id="a" clipPathUnits="userSpaceOnUse"><path d="m3941.39 836.77-6.1 25.359h-14.59c-15.85 10.312-38.95 16.851-64.74 16.851-25.8 0-48.89-6.539-64.75-16.851h-14.02l-6.67-25.039h.09c-.73-2.602-1.21-5.258-1.21-7.981 0-27.539 38.76-49.867 86.56-49.867s86.56 22.328 86.56 49.867c0 2.61-.46 5.153-1.13 7.661"/></clipPath><clipPath id="d" clipPathUnits="userSpaceOnUse"><path d="M3935.93 856.289c0-25.359-35.68-45.91-79.7-45.91-44.01 0-79.69 20.551-79.69 45.91s35.68 45.922 79.69 45.922c44.02 0 79.7-20.563 79.7-45.922"/></clipPath><clipPath id="f" clipPathUnits="userSpaceOnUse"><path d="M3896.49 858.98c0-11.89-18.14-21.531-40.53-21.531s-40.54 9.641-40.54 21.531c0 11.891 18.15 21.52 40.54 21.52s40.53-9.629 40.53-21.52"/></clipPath></defs><path d="M407.613 120.262c-3.03 0-5.92.798-8.1 2.22l-8.476 5.118-.017-.01-33.159 19.931 2.875 1.446 31.963-19.213.037.021 8.235-4.974c1.778-1.162 4.138-1.8 6.642-1.8 2.127 0 4.134.456 5.83 1.327l8.815 4.328.105-.062 29.102 14.261.02-.011 7.337 3.658c2.239 1.152 3.522 2.834 3.522 4.617 0 1.643-1.123 3.239-3.069 4.371l-4.588 2.592-.006-.002-.14.084-1.43.806.047.024-31.633 19.016.082.04-23.449 14.096-.121-.06-33.156 19.931.086.041-18.606 11.186-132.736 78.873-.082-.041-33.156 19.93-56.07 32.017-.005-.004-6.726 3.998c-2.498 1.63-3.93 3.973-3.93 6.428 0 2.796 1.863 5.429 5.03 7.064l2.925 1.383-.014.008 16.645 8.276 8.603 4.254c2.064 1.066 4.513 1.63 7.082 1.63 2.778 0 5.486-.684 7.649-1.941l8.969-5.48.037.019 33.156-19.932-.092-.046 21.07-12.665.026.012 128.33-76.307-2.91-1.443-118.112 70.186-.027-.014-33.156 19.932.094.045-29.93 17.99-.057-.03-8.8 5.38c-1.726 1.002-3.945 1.556-6.247 1.556-2.133 0-4.147-.458-5.845-1.336l-4.803-2.375.014-.008-.912-.435-3.336-1.65-.051.032-12.104-6.109.077-.047-7.067-3.34c-2.229-1.151-3.506-2.83-3.506-4.61 0-1.534.955-3.002 2.639-4.1l8.121-4.833-.018-.01 56.123-32.049 22.743-13.67.082.042 22.472-13.508L371.71 211.18l-.086-.043 27.832-16.73.119.058 33.156-19.928-.08-.04 23.475-14.114.029.016 4.482-2.534c2.827-1.644 4.448-4.104 4.448-6.748 0-2.804-1.874-5.44-5.028-7.062l-6.804-3.379-.014.008-33.229-16.281-.087.054-5.249-2.578c-2.058-1.058-4.5-1.619-7.06-1.619zm195.33.418c-3.03 0-5.92.798-8.1 2.22l-9.323 5.631-195.825 117.162 2.98 1.387 195.376-116.898.015.01 8.235-4.975c1.78-1.161 4.138-1.799 6.642-1.799 2.127 0 4.136.455 5.832 1.328l8.813 4.326.014-.008 1.261.631c2.24 1.152 3.526 2.835 3.526 4.618 0 1.642-1.127 3.239-3.073 4.37l-3.84 2.17-.064-.03-1.887 1.134-.373.21.014.005-114.937 68.572-25.836 15.57-6.727 3.997c-2.497 1.63-3.93 3.973-3.93 6.428 0 2.797 1.866 5.428 5.032 7.064l4.214 1.994 33.338 16.334.098-.056 32.947 16.144.02-.012 7.338 3.659c2.238 1.15 3.523 2.834 3.523 4.617 0 1.642-1.125 3.239-3.07 4.37l-4.588 2.593-.006-.004-.143.088-1.427.806.048.022-31.632 19.015.084.043-27.832 16.73-.12-.06-31.906 19.149.084.043-29.289 17.605-12.058 7.248-.08-.039-31.594 18.99-.006-.004-6.725 3.998c-2.497 1.629-3.932 3.97-3.932 6.426 0 2.797 1.866 5.43 5.032 7.065l2.925 1.384-.013.006 14.533 6.942 8.611 4.256c2.064 1.066 4.513 1.629 7.082 1.629 2.779 0 5.486-.683 7.649-1.94l10.17-6.215 31.369-18.855-.094-.047 19.82-11.885.026.014 33.158-19.932h-.004l15.47-9.3-2.872-1.448-33.157 19.932h.004l-5.29 3.181-.028-.011-31.906 19.148.094.047-29.352 17.643-.008-.004-.979.595-.914.551.008.004-6.918 4.229c-1.725 1.002-3.943 1.554-6.246 1.554-2.133 0-4.148-.459-5.845-1.336l-4.803-2.375.014-.008-.913-.435-3.335-1.65-.051.033-10-4.774.076-.049-7.066-3.34c-2.228-1.151-3.506-2.831-3.506-4.609 0-1.536.954-3.001 2.638-4.101l8.121-4.832-.017-.008 21.232-12.764.082.04 22.473-13.507 33.156-19.932-.084-.04 26.582-15.952 33.274-19.867-.084-.043 27.859-16.746.027.014 4.483-2.533c2.826-1.643 4.447-4.103 4.447-6.747 0-2.802-1.872-5.44-5.025-7.062l-6.805-3.38-.018.01-33.226-16.282-.098.058-30.822-15.103.058-.035-7.068-3.34c-2.228-1.152-3.504-2.83-3.504-4.61 0-1.534.953-3.002 2.637-4.101l4.742-2.822.045.023 117.182-69.922-.084-.043 27.134-16.31.063.029 4.484-2.533c2.826-1.643 4.448-4.102 4.448-6.746 0-2.712-1.766-5.26-4.737-6.893l.022-.014-.258-.125c-.019-.009-.036-.022-.055-.03l-6.804-3.382-.04.026-3.25-1.598c-2.06-1.059-4.502-1.62-7.062-1.62z" style="fill:#feefc5;fill-opacity:1;fill-rule:nonzero;stroke:none;stroke-width:.133333" transform="translate(-113.559 -66.81)"/><path d="M407.518 118.531c-3.031 0-5.921.8-8.1 2.22l-8.477 5.12-.02-.01-33.155 19.932 2.875 1.445 31.96-19.213.04.02 8.232-4.973c1.78-1.161 4.14-1.8 6.645-1.8 2.125 0 4.134.455 5.83 1.327l8.814 4.328.106-.062 29.101 14.26.02-.01 7.336 3.656c2.238 1.152 3.523 2.835 3.523 4.62 0 1.64-1.125 3.238-3.07 4.368l-4.588 2.592h-.004l-.143.084-1.427.807.046.023-31.632 19.016.08.04-23.45 14.096-.119-.06-33.156 19.931.084.043-18.605 11.182-132.737 78.875-.08-.04-33.158 19.929-56.068 32.017-.006-.002-6.727 3.996c-2.497 1.628-3.93 3.972-3.93 6.428 0 2.796 1.866 5.429 5.032 7.065l2.925 1.382-.013.008 16.642 8.276 8.606 4.254c2.064 1.066 4.51 1.63 7.08 1.63 2.779 0 5.486-.684 7.648-1.94l8.971-5.481.037.02 33.156-19.932-.093-.045 21.07-12.666.027.013 126.559-75.255-2.912-1.444-116.34 69.131-.025-.014-33.157 19.932.094.047-29.93 17.988-.056-.027-8.803 5.379c-1.725 1.002-3.943 1.554-6.246 1.554-2.133 0-4.145-.456-5.844-1.334l-4.803-2.375.012-.01-.91-.435-3.336-1.649-.05.032-12.106-6.11.076-.047-7.065-3.337c-2.228-1.151-3.505-2.833-3.505-4.61 0-1.536.952-3.003 2.636-4.103l8.121-4.83-.015-.01 56.123-32.051 22.742-13.67.08.043 22.475-13.51 143.15-85.133-.084-.043 27.832-16.73.117.058 33.157-19.93-.08-.04 23.474-14.112.03.014 4.484-2.533c2.826-1.643 4.445-4.104 4.445-6.746 0-2.804-1.872-5.442-5.025-7.065l-6.805-3.379-.016.01-33.226-16.28-.09.052-5.246-2.576c-2.059-1.059-4.5-1.621-7.06-1.621m195.33.418c-3.031 0-5.921.798-8.1 2.219l-9.326 5.63-197.535 118.19 2.98 1.389 197.086-117.924.018.008 8.232-4.97c1.78-1.162 4.14-1.801 6.645-1.801 2.125 0 4.134.454 5.83 1.326l8.814 4.33.014-.008 1.262.629c2.238 1.152 3.523 2.836 3.523 4.619 0 1.643-1.125 3.239-3.07 4.371l-3.842 2.168-.065-.031-1.886 1.135-.371.209.011.008-114.935 68.572-25.838 15.57-6.727 3.996c-2.497 1.628-3.927 3.972-3.927 6.428 0 2.796 1.862 5.428 5.029 7.064l4.215 1.993 33.34 16.336.095-.06 32.95 16.147.017-.013 7.338 3.658c2.24 1.152 3.523 2.836 3.523 4.62 0 1.642-1.125 3.236-3.07 4.368l-4.588 2.594-.004-.004-.144.086-1.426.806.047.022-31.633 19.018.084.04-27.832 16.731-.12-.06-31.905 19.15.084.043-29.287 17.605-12.06 7.248-.081-.04-31.594 18.992-.004-.004-6.726 3.998c-2.498 1.627-3.93 3.97-3.93 6.425 0 2.797 1.864 5.429 5.031 7.065l2.924 1.383-.012.008 14.533 6.94 8.61 4.255c2.064 1.067 4.515 1.63 7.084 1.63 2.777 0 5.484-.683 7.646-1.94l10.17-6.215 31.37-18.856-.094-.047 19.82-11.885.027.014 33.157-19.93-.004-.002 15.472-9.298-2.875-1.448-33.156 19.932h.004l-5.291 3.182-.025-.014-31.907 19.15.092.047-29.351 17.643-.008-.004-.979.597-.912.55.008.003-6.92 4.227c-1.725 1.002-3.943 1.555-6.244 1.555-2.133 0-4.15-.457-5.848-1.334l-4.803-2.375.016-.008-.912-.436-3.338-1.65-.05.033-10-4.776.075-.047-7.066-3.337c-2.228-1.153-3.506-2.833-3.506-4.612 0-1.534.955-3.003 2.639-4.101l8.121-4.832-.018-.01 21.233-12.762.082.041 22.472-13.51 33.157-19.93-.084-.04 26.584-15.95 33.273-19.87v-.003l-.086-.04 27.86-16.749.029.016 4.482-2.533c2.826-1.644 4.448-4.105 4.448-6.749 0-2.802-1.873-5.44-5.028-7.062l-6.804-3.379-.016.008-33.227-16.281-.097.058-30.825-15.103.06-.035-7.067-3.34c-2.23-1.15-3.506-2.832-3.506-4.61 0-1.535.954-3.001 2.638-4.101l4.74-2.82.046.021 117.181-69.922-.084-.043 27.135-16.31.064.029 4.483-2.531c2.827-1.644 4.45-4.102 4.45-6.746 0-2.714-1.767-5.262-4.737-6.895l.02-.012-.259-.127-.052-.03-6.805-3.38-.04.024-3.251-1.598c-2.059-1.06-4.5-1.619-7.06-1.619" style="fill:#1a1613;fill-opacity:1;fill-rule:nonzero;stroke:none;stroke-width:.133333" transform="translate(-113.559 -66.81)"/><path d="m3941.39 836.77-6.1 25.359h-14.59c-15.85 10.312-38.95 16.851-64.74 16.851-25.8 0-48.89-6.539-64.75-16.851h-14.02l-6.67-25.039h.09c-.73-2.602-1.21-5.258-1.21-7.981 0-27.539 38.76-49.867 86.56-49.867s86.56 22.328 86.56 49.867c0 2.61-.46 5.153-1.13 7.661" clip-path="url(#a)" style="fill:url(#c);fill-opacity:1;fill-rule:nonzero;stroke:none" transform="matrix(.13333 0 0 -.13333 -113.559 399.856)"/><path d="M3935.93 856.289c0-25.359-35.68-45.91-79.7-45.91-44.01 0-79.69 20.551-79.69 45.91s35.68 45.922 79.69 45.922c44.02 0 79.7-20.563 79.7-45.922" clip-path="url(#d)" style="fill:url(#e);fill-opacity:1;fill-rule:nonzero;stroke:none" transform="matrix(.13333 0 0 -.13333 -113.559 399.856)"/><path d="M3896.49 858.98c0-11.89-18.14-21.531-40.53-21.531s-40.54 9.641-40.54 21.531c0 11.891 18.15 21.52 40.54 21.52s40.53-9.629 40.53-21.52" clip-path="url(#f)" style="fill:url(#g);fill-opacity:1;fill-rule:nonzero;stroke:none" transform="matrix(.13333 0 0 -.13333 -113.559 399.856)"/><path d="M538.885 307.253c0-13.653-11.068-24.721-24.721-24.721s-24.721 11.068-24.721 24.721c0 12.196 8.836 22.323 20.453 24.347l4.27 11.805 4.269-11.805c11.617-2.024 20.45-12.15 20.45-24.347" style="fill:#fab71c;fill-opacity:1;fill-rule:nonzero;stroke:none;stroke-width:.133333" transform="translate(-113.559 -66.81)"/><path d="M542.563 309.065c0-13.653-11.068-24.721-24.722-24.721-13.653 0-24.721 11.068-24.721 24.721 0 12.198 8.835 22.323 20.452 24.347l4.27 11.805 4.27-11.805c11.616-2.024 20.45-12.15 20.45-24.347" style="fill:#feefc5;fill-opacity:1;fill-rule:nonzero;stroke:none;stroke-width:.133333" transform="translate(-113.559 -66.81)"/><path d="M514.164 283.02c-13.27 0-24.067 10.796-24.067 24.065a24.004 24.004 0 0 0 19.912 23.702l.374.065 3.782 10.46 3.783-10.46.373-.065a24 24 0 0 0 19.91-23.702c0-13.269-10.796-24.065-24.067-24.065m.001 62.145-4.756-13.156a25.31 25.31 0 0 1-20.621-24.924c0-13.992 11.382-25.376 25.376-25.376 13.993 0 25.377 11.384 25.377 25.376a25.31 25.31 0 0 1-20.62 24.924z" style="fill:#1a1613;fill-opacity:1;fill-rule:nonzero;stroke:none;stroke-width:.133333" transform="translate(-113.559 -66.81)"/><path d="M523.223 314.613q0-3.442-4.938-3.442h-6.504v7.025h6.695q2.47 0 3.608-.896 1.139-.895 1.139-2.687m-1.426-10.258q0-1.653-1.052-2.347-1.051-.696-3.121-.696h-5.843v6.068h5.878q2.173 0 3.156-.756.981-.755.982-2.27m6.572 10.658q0 3.34-2.504 5.164-2.502 1.827-6.954 1.827h-12.259v-24.5h11.216q4.485.001 6.79 1.556 2.303 1.555 2.303 4.6 0 2.086-1.156 3.52-1.158 1.435-3.521 1.939 2.974.35 4.53 1.869 1.555 1.522 1.555 4.025" style="fill:#fab71c;fill-opacity:1;fill-rule:nonzero;stroke:none;stroke-width:.133333" transform="translate(-113.559 -66.81)"/><path d="M510.404 305.01h5.223c1.294 0 2.22-.207 2.753-.62.49-.377.728-.949.728-1.75 0-.875-.248-1.464-.757-1.801-.59-.39-1.519-.587-2.76-.587h-5.187zm5.223 1.311h-6.532v-7.38h6.496c1.522 0 2.662.264 3.481.806.893.589 1.347 1.562 1.347 2.893 0 1.219-.418 2.156-1.239 2.788-.776.6-1.94.893-3.553.893m-5.223 9.504h6.039c1.489 0 2.565-.253 3.204-.756.597-.469.888-1.18.888-2.17 0-1.196-.444-2.787-4.283-2.787h-5.848zm6.039 1.311h-7.348v-8.335h7.157c4.623 0 5.593 2.228 5.593 4.098 0 1.398-.468 2.476-1.388 3.201-.886.697-2.201 1.036-4.014 1.036m-11.168 2.497h11.602c2.812 0 5.023-.572 6.57-1.7 1.504-1.096 2.234-2.612 2.234-4.634 0-1.499-.444-2.662-1.358-3.558-.927-.905-2.322-1.473-4.148-1.685l-2.334-.273 2.272-1.019c1.419-.304 2.479-.879 3.148-1.71.68-.843 1.012-1.86 1.012-3.11 0-1.813-.66-3.14-2.016-4.056-1.418-.957-3.578-1.443-6.422-1.443h-10.56zm11.602 1.31h-12.913v-25.808h11.87c3.11 0 5.517.561 7.157 1.668 1.72 1.161 2.592 2.892 2.592 5.141 0 1.54-.438 2.863-1.303 3.933a5.5 5.5 0 0 1-1.67 1.374c1.058.36 1.938.878 2.629 1.554 1.162 1.139 1.752 2.651 1.752 4.494 0 2.436-.932 4.353-2.772 5.693-1.776 1.295-4.247 1.95-7.342 1.95" style="fill:#1a1613;fill-opacity:1;fill-rule:nonzero;stroke:none;stroke-width:.133333" transform="translate(-113.559 -66.81)"/><path d="M391.17 92.312c0-13.653-11.069-24.721-24.722-24.721s-24.721 11.068-24.721 24.721c0 12.196 8.834 22.323 20.453 24.345l4.27 11.807 4.269-11.807c11.616-2.024 20.45-12.149 20.45-24.345" style="fill:#fab71c;fill-opacity:1;fill-rule:nonzero;stroke:none;stroke-width:.133333" transform="translate(-113.559 -66.81)"/><path d="M394.847 94.167c0-13.652-11.07-24.722-24.722-24.722s-24.722 11.07-24.722 24.722c0 12.197 8.836 22.324 20.453 24.346l4.27 11.807 4.269-11.807c11.617-2.024 20.452-12.149 20.452-24.346" style="fill:#feefc5;fill-opacity:1;fill-rule:nonzero;stroke:none;stroke-width:.133333" transform="translate(-113.559 -66.81)"/><path d="M366.448 68.121c-13.27 0-24.067 10.796-24.067 24.067a24.004 24.004 0 0 0 19.911 23.701l.375.066 3.782 10.46 3.782-10.462.374-.065a24.004 24.004 0 0 0 19.91-23.7c0-13.27-10.796-24.067-24.067-24.067m.001 62.146-4.759-13.155a25.31 25.31 0 0 1-20.618-24.924c0-13.993 11.384-25.377 25.376-25.377s25.376 11.384 25.376 25.377a25.31 25.31 0 0 1-20.619 24.923z" style="fill:#1a1613;fill-opacity:1;fill-rule:nonzero;stroke:none;stroke-width:.133333" transform="translate(-113.559 -66.81)"/><path d="m368.881 85.081-.104.383a60 60 0 0 1-.417 1.425q-.243.799-2.992 8.798h7.043l-2.418-7.042-.746-2.364zm6.851 20.726-2.173-6.259h-9.338l-2.173 6.259h-5.13l8.938-24.499h6.05l8.903 24.499z" style="fill:#fab71c;fill-opacity:1;fill-rule:nonzero;stroke:none;stroke-width:.133333" transform="translate(-113.559 -66.81)"/><path d="M364.253 93.316h5.207l-2.595-7.677c-.296.908-1.172 3.482-2.612 7.677m7.042 1.31h-8.878l.299-.867c2.261-6.579 2.87-8.403 2.983-8.776q.243-.79.413-1.408l1.496.001.977 3.156zm2.869 8.81h3.676l-8.425-23.188h-5.135l-8.459 23.188h3.727l2.173-6.259h10.27zm5.547 1.31h-6.478l-2.173-6.26h-8.407l-2.173 6.26h-6.532l9.416-25.809h6.968z" style="fill:#1a1613;fill-opacity:1;fill-rule:nonzero;stroke:none;stroke-width:.133333" transform="translate(-113.559 -66.81)"/><path d="M184.801 370.884c0 1.152-.756 2.184-1.948 2.876-.965.561-2.217.9-3.585.9-1.253 0-2.41-.284-3.336-.763-1.335-.69-2.196-1.782-2.196-3.013 0-1.074.656-2.043 1.71-2.73.994-.649 2.34-1.046 3.822-1.046 1.25 0 2.401.283 3.328.759 1.339.689 2.205 1.784 2.205 3.017" style="fill:#fab71c;fill-opacity:1;fill-rule:nonzero;stroke:none;stroke-width:.133333" transform="translate(-113.559 -66.81)"/><path d="M186.739 372.93c0 1.153-.756 2.185-1.947 2.878-.967.561-2.219.9-3.585.9-1.254 0-2.41-.286-3.338-.764-1.334-.69-2.196-1.783-2.196-3.013 0-1.074.656-2.043 1.711-2.731.993-.648 2.34-1.045 3.823-1.045 1.248 0 2.4.282 3.326.759 1.34.689 2.206 1.783 2.206 3.017" style="fill:#feefc5;fill-opacity:1;fill-rule:nonzero;stroke:none;stroke-width:.133333" transform="translate(-113.559 -66.81)"/><path d="M179.268 367.763c-1.305 0-2.536.333-3.464.94-.91.593-1.413 1.369-1.413 2.18 0 .941.67 1.826 1.841 2.432 1.815.937 4.556.888 6.293-.12 1.031-.6 1.622-1.443 1.622-2.311 0-.943-.675-1.83-1.851-2.436-.873-.45-1.921-.685-3.028-.685m0 7.553c-1.321 0-2.579-.29-3.637-.837-1.62-.838-2.55-2.148-2.55-3.595 0-1.252.731-2.447 2.007-3.279 2.099-1.369 5.495-1.51 7.807-.321 1.604.825 2.561 2.17 2.561 3.6 0 1.347-.828 2.602-2.273 3.444-1.099.637-2.488.988-3.915.988" style="fill:#1a1613;fill-opacity:1;fill-rule:nonzero;stroke:none;stroke-width:.133333" transform="translate(-113.559 -66.81)"/><path d="M209.176 356.014c0 1.151-.756 2.183-1.948 2.877-.965.561-2.217.9-3.585.9-1.254 0-2.41-.286-3.338-.764-1.333-.69-2.194-1.783-2.194-3.013 0-1.074.656-2.043 1.709-2.73.993-.648 2.34-1.047 3.823-1.047 1.249 0 2.401.283 3.326.759 1.34.69 2.207 1.785 2.207 3.018" style="fill:#fab71c;fill-opacity:1;fill-rule:nonzero;stroke:none;stroke-width:.133333" transform="translate(-113.559 -66.81)"/><path d="M211.113 358.061c0 1.153-.756 2.183-1.948 2.876-.965.561-2.217.9-3.585.9-1.253 0-2.41-.284-3.336-.764-1.335-.69-2.196-1.782-2.196-3.012 0-1.075.656-2.044 1.71-2.73.994-.648 2.34-1.047 3.822-1.047 1.25 0 2.401.283 3.328.759 1.339.689 2.205 1.785 2.205 3.018" style="fill:#feefc5;fill-opacity:1;fill-rule:nonzero;stroke:none;stroke-width:.133333" transform="translate(-113.559 -66.81)"/><path d="M203.643 352.892c-1.306 0-2.536.335-3.464.94-.912.595-1.414 1.37-1.414 2.182 0 .94.671 1.825 1.842 2.43 1.814.937 4.556.888 6.292-.12 1.03-.599 1.622-1.441 1.622-2.31 0-.943-.676-1.831-1.852-2.437-.873-.448-1.92-.685-3.026-.685m0 7.553c-1.322 0-2.58-.29-3.638-.837-1.621-.837-2.55-2.148-2.55-3.594 0-1.253.732-2.447 2.008-3.28 2.098-1.369 5.494-1.509 7.806-.32 1.604.825 2.562 2.171 2.562 3.6 0 1.347-.828 2.602-2.274 3.443-1.098.638-2.489.988-3.914.988" style="fill:#1a1613;fill-opacity:1;fill-rule:nonzero;stroke:none;stroke-width:.133333" transform="translate(-113.559 -66.81)"/><path d="M372.033 211.017c0 1.152-.756 2.184-1.946 2.878-.967.561-2.219.9-3.586.9-1.253 0-2.409-.286-3.337-.764-1.335-.69-2.196-1.783-2.196-3.014 0-1.073.656-2.042 1.71-2.729.994-.648 2.34-1.047 3.823-1.047 1.248 0 2.4.283 3.327.759 1.34.69 2.205 1.784 2.205 3.017" style="fill:#fab71c;fill-opacity:1;fill-rule:nonzero;stroke:none;stroke-width:.133333" transform="translate(-113.559 -66.81)"/><path d="M373.97 213.065c0 1.152-.754 2.183-1.946 2.876-.965.562-2.217.9-3.585.9-1.254 0-2.41-.284-3.338-.764-1.333-.689-2.196-1.782-2.196-3.012 0-1.074.658-2.044 1.711-2.73.993-.648 2.34-1.047 3.823-1.047 1.248 0 2.401.283 3.326.759 1.34.689 2.206 1.785 2.206 3.018" style="fill:#feefc5;fill-opacity:1;fill-rule:nonzero;stroke:none;stroke-width:.133333" transform="translate(-113.559 -66.81)"/><path d="M366.501 207.896c-1.305 0-2.536.335-3.465.94-.91.593-1.413 1.37-1.413 2.181 0 .94.67 1.826 1.841 2.431 1.815.937 4.556.888 6.293-.12 1.031-.599 1.622-1.441 1.622-2.31 0-.943-.675-1.831-1.851-2.437-.873-.448-1.92-.685-3.027-.685m0 7.553c-1.321 0-2.58-.289-3.638-.837-1.62-.837-2.55-2.148-2.55-3.595 0-1.252.732-2.446 2.008-3.278 2.099-1.37 5.495-1.51 7.806-.322 1.604.826 2.562 2.171 2.562 3.6 0 1.347-.829 2.603-2.273 3.444-1.1.638-2.49.988-3.915.988" style="fill:#1a1613;fill-opacity:1;fill-rule:nonzero;stroke:none;stroke-width:.133333" transform="translate(-113.559 -66.81)"/><path d="M376.061 256.605c0 1.152-.756 2.184-1.948 2.876-.965.562-2.217.9-3.585.9-1.253 0-2.41-.284-3.336-.764-1.335-.689-2.196-1.781-2.196-3.012 0-1.073.656-2.042 1.71-2.73.994-.648 2.34-1.046 3.822-1.046 1.25 0 2.401.283 3.328.759 1.339.69 2.205 1.784 2.205 3.017" style="fill:#fa1c1c;fill-opacity:1;fill-rule:nonzero;stroke:none;stroke-width:.133333" transform="translate(-572.533 -385.459)scale(2.2442)"/><path d="M377.999 258.652c0 1.152-.756 2.184-1.947 2.876-.967.561-2.219.9-3.585.9-1.254 0-2.41-.284-3.338-.763-1.334-.69-2.196-1.782-2.196-3.013 0-1.073.656-2.043 1.711-2.73.993-.649 2.34-1.046 3.823-1.046 1.248 0 2.4.283 3.326.759 1.34.689 2.206 1.784 2.206 3.017" style="fill:#fecac5;fill-opacity:1;fill-rule:nonzero;stroke:none;stroke-width:.133333" transform="translate(-572.533 -385.459)scale(2.2442)"/><path d="M370.528 253.484c-1.305 0-2.536.333-3.464.94-.91.593-1.413 1.37-1.413 2.181 0 .94.67 1.826 1.841 2.431 1.815.937 4.556.888 6.293-.12 1.031-.599 1.622-1.443 1.622-2.31 0-.943-.675-1.831-1.851-2.437-.873-.449-1.921-.685-3.028-.685m0 7.552c-1.321 0-2.579-.288-3.637-.836-1.62-.839-2.55-2.148-2.55-3.595 0-1.252.731-2.448 2.007-3.278 2.099-1.37 5.495-1.51 7.807-.322 1.604.826 2.561 2.171 2.561 3.6 0 1.347-.828 2.602-2.273 3.444-1.099.638-2.488.987-3.915.987" style="fill:#1a1613;fill-opacity:1;fill-rule:nonzero;stroke:none;stroke-width:.133333" transform="translate(-572.533 -385.459)scale(2.2442)"/><path d="M494.424 215.91c0 1.153-.756 2.183-1.947 2.877-.966.561-2.218.9-3.586.9-1.252 0-2.408-.286-3.336-.764-1.335-.69-2.196-1.783-2.196-3.014 0-1.073.656-2.042 1.71-2.729.994-.648 2.34-1.047 3.822-1.047 1.249 0 2.401.283 3.328.759 1.34.69 2.205 1.785 2.205 3.017" style="fill:#fab71c;fill-opacity:1;fill-rule:nonzero;stroke:none;stroke-width:.133333" transform="translate(-113.559 -66.81)"/><path d="M496.361 217.957c0 1.152-.754 2.183-1.946 2.876-.966.562-2.218.9-3.586.9-1.253 0-2.409-.284-3.337-.764-1.333-.689-2.196-1.782-2.196-3.012 0-1.074.657-2.042 1.71-2.73.994-.648 2.34-1.047 3.823-1.047 1.248 0 2.402.283 3.327.759 1.34.689 2.205 1.785 2.205 3.018" style="fill:#feefc5;fill-opacity:1;fill-rule:nonzero;stroke:none;stroke-width:.133333" transform="translate(-113.559 -66.81)"/><path d="M488.892 212.788c-1.305 0-2.536.335-3.465.94-.911.595-1.414 1.37-1.414 2.181 0 .942.671 1.826 1.842 2.431 1.814.939 4.556.888 6.293-.12 1.03-.599 1.621-1.441 1.621-2.31 0-.943-.674-1.831-1.85-2.437-.874-.448-1.92-.685-3.027-.685m0 7.553c-1.321 0-2.58-.289-3.639-.837-1.62-.837-2.549-2.148-2.549-3.595 0-1.252.732-2.446 2.008-3.278 2.099-1.368 5.495-1.51 7.805-.322 1.604.826 2.563 2.172 2.563 3.6 0 1.348-.83 2.603-2.273 3.444-1.1.638-2.49.988-3.915.988" style="fill:#1a1613;fill-opacity:1;fill-rule:nonzero;stroke:none;stroke-width:.133333" transform="translate(-113.559 -66.81)"/><path d="M477.841 334.54c0 1.152-.756 2.183-1.948 2.876-.965.561-2.217.9-3.585.9-1.253 0-2.41-.284-3.337-.764-1.334-.69-2.196-1.783-2.196-3.012 0-1.075.657-2.044 1.71-2.73.994-.649 2.34-1.047 3.823-1.047 1.25 0 2.401.282 3.327.758 1.34.69 2.206 1.786 2.206 3.02" style="fill:#fab71c;fill-opacity:1;fill-rule:nonzero;stroke:none;stroke-width:.133333" transform="translate(-113.559 -66.81)"/><path d="M479.779 336.586c0 1.153-.756 2.183-1.948 2.877-.966.561-2.218.9-3.586.9-1.253 0-2.409-.284-3.336-.765-1.334-.689-2.196-1.782-2.196-3.012 0-1.074.656-2.042 1.711-2.73.993-.648 2.339-1.047 3.821-1.047 1.25 0 2.402.283 3.328.76 1.339.688 2.206 1.784 2.206 3.017" style="fill:#feefc5;fill-opacity:1;fill-rule:nonzero;stroke:none;stroke-width:.133333" transform="translate(-113.559 -66.81)"/><path d="M472.308 331.417c-1.305 0-2.536.335-3.464.94-.912.595-1.413 1.37-1.413 2.182 0 .941.67 1.825 1.841 2.43 1.815.939 4.555.888 6.292-.12 1.03-.598 1.623-1.441 1.623-2.31 0-.943-.676-1.831-1.852-2.435-.874-.45-1.92-.687-3.027-.687m0 7.554c-1.321 0-2.58-.29-3.637-.838-1.622-.837-2.551-2.147-2.551-3.594 0-1.252.732-2.447 2.008-3.279 2.099-1.368 5.495-1.51 7.807-.321 1.604.825 2.561 2.172 2.561 3.6 0 1.347-.828 2.602-2.273 3.444-1.099.637-2.49.988-3.915.988" style="fill:#1a1613;fill-opacity:1;fill-rule:nonzero;stroke:none;stroke-width:.133333" transform="translate(-113.559 -66.81)"/><path d="M454.716 348.216c0 1.152-.756 2.184-1.947 2.877-.965.562-2.217.9-3.585.9-1.253 0-2.41-.285-3.337-.764-1.335-.689-2.196-1.782-2.196-3.013 0-1.073.656-2.043 1.71-2.73.994-.647 2.34-1.046 3.823-1.046 1.248 0 2.4.282 3.327.758 1.34.69 2.205 1.786 2.205 3.018" style="fill:#fab71c;fill-opacity:1;fill-rule:nonzero;stroke:none;stroke-width:.133333" transform="translate(-113.559 -66.81)"/><path d="M456.655 350.264c0 1.152-.756 2.183-1.948 2.876-.966.562-2.218.9-3.586.9-1.253 0-2.409-.284-3.337-.764-1.333-.69-2.196-1.783-2.196-3.012 0-1.075.657-2.044 1.71-2.73.994-.649 2.34-1.048 3.823-1.048 1.25 0 2.402.283 3.327.76 1.34.688 2.207 1.785 2.207 3.018" style="fill:#feefc5;fill-opacity:1;fill-rule:nonzero;stroke:none;stroke-width:.133333" transform="translate(-113.559 -66.81)"/><path d="M449.184 345.095c-1.305 0-2.536.334-3.464.94-.912.594-1.415 1.37-1.415 2.181 0 .94.672 1.825 1.843 2.43 1.813.94 4.555.889 6.292-.12 1.03-.598 1.621-1.44 1.621-2.31 0-.943-.674-1.83-1.85-2.436-.874-.448-1.92-.685-3.027-.685m0 7.553c-1.321 0-2.58-.29-3.637-.838-1.622-.837-2.551-2.147-2.551-3.594 0-1.252.732-2.447 2.008-3.279 2.099-1.368 5.495-1.509 7.805-.32 1.606.824 2.563 2.171 2.563 3.6 0 1.347-.83 2.602-2.273 3.443-1.099.637-2.49.988-3.915.988" style="fill:#1a1613;fill-opacity:1;fill-rule:nonzero;stroke:none;stroke-width:.133333" transform="translate(-113.559 -66.81)"/><path d="M396.221 383.04c0 1.152-.756 2.184-1.948 2.876-.965.561-2.217.9-3.585.9-1.253 0-2.41-.284-3.337-.764-1.334-.69-2.195-1.783-2.195-3.012 0-1.075.656-2.043 1.71-2.73.993-.649 2.34-1.046 3.822-1.046 1.25 0 2.401.281 3.327.758 1.34.688 2.206 1.785 2.206 3.018" style="fill:#fab71c;fill-opacity:1;fill-rule:nonzero;stroke:none;stroke-width:.133333" transform="translate(-113.559 -66.81)"/><path d="M398.159 385.086c0 1.153-.756 2.185-1.948 2.877-.966.561-2.218.9-3.586.9-1.253 0-2.409-.284-3.336-.765-1.334-.689-2.196-1.78-2.196-3.012 0-1.072.656-2.042 1.711-2.73.993-.648 2.339-1.046 3.821-1.046 1.25 0 2.402.283 3.328.76 1.339.689 2.206 1.783 2.206 3.016" style="fill:#feefc5;fill-opacity:1;fill-rule:nonzero;stroke:none;stroke-width:.133333" transform="translate(-113.559 -66.81)"/><path d="M390.688 379.919c-1.305 0-2.536.333-3.464.94-.912.593-1.413 1.368-1.413 2.181 0 .94.67 1.825 1.841 2.43 1.815.938 4.556.887 6.293-.12 1.03-.6 1.622-1.442 1.622-2.31 0-.944-.675-1.83-1.852-2.436-.874-.45-1.92-.685-3.027-.685m0 7.552c-1.321 0-2.58-.29-3.637-.836-1.622-.84-2.551-2.149-2.551-3.595 0-1.254.732-2.448 2.008-3.28 2.099-1.368 5.495-1.51 7.807-.32 1.604.825 2.561 2.17 2.561 3.6 0 1.346-.828 2.601-2.273 3.443-1.099.637-2.488.988-3.915.988" style="fill:#1a1613;fill-opacity:1;fill-rule:nonzero;stroke:none;stroke-width:.133333" transform="translate(-113.559 -66.81)"/><path d="M456.847 393.686c0 1.153-.756 2.185-1.948 2.878-.966.561-2.218.9-3.586.9-1.253 0-2.409-.285-3.336-.764-1.334-.69-2.196-1.783-2.196-3.014 0-1.072.656-2.042 1.711-2.729.993-.648 2.339-1.047 3.821-1.047 1.25 0 2.402.283 3.327.76 1.34.689 2.207 1.785 2.207 3.016" style="fill:#fab71c;fill-opacity:1;fill-rule:nonzero;stroke:none;stroke-width:.133333" transform="translate(-113.559 -66.81)"/><path d="M458.784 395.735c0 1.151-.756 2.182-1.948 2.875-.965.562-2.217.9-3.585.9-1.252 0-2.41-.283-3.336-.763-1.335-.69-2.196-1.783-2.196-3.012 0-1.075.656-2.043 1.71-2.73.994-.65 2.34-1.048 3.822-1.048 1.249 0 2.401.283 3.328.76 1.338.688 2.205 1.785 2.205 3.018" style="fill:#feefc5;fill-opacity:1;fill-rule:nonzero;stroke:none;stroke-width:.133333" transform="translate(-113.559 -66.81)"/><path d="M451.313 390.565c-1.305 0-2.536.335-3.464.94-.912.595-1.413 1.37-1.413 2.181 0 .94.67 1.826 1.841 2.431 1.815.939 4.556.888 6.294-.12 1.029-.599 1.621-1.441 1.621-2.31 0-.943-.675-1.831-1.852-2.436-.872-.448-1.92-.686-3.027-.686m0 7.554c-1.321 0-2.578-.29-3.637-.838-1.621-.837-2.55-2.148-2.55-3.595 0-1.252.731-2.446 2.007-3.278 2.099-1.368 5.495-1.51 7.807-.322 1.604.826 2.561 2.173 2.561 3.6 0 1.349-.828 2.604-2.273 3.445-1.099.637-2.488.988-3.915.988" style="fill:#1a1613;fill-opacity:1;fill-rule:nonzero;stroke:none;stroke-width:.133333" transform="translate(-113.559 -66.81)"/><path d="M479.97 379.973c0 1.152-.755 2.183-1.947 2.876-.966.561-2.218.9-3.586.9-1.252 0-2.409-.284-3.336-.764-1.334-.69-2.196-1.782-2.196-3.012 0-1.075.656-2.042 1.711-2.73.993-.648 2.34-1.047 3.821-1.047 1.25 0 2.402.283 3.328.759 1.339.689 2.206 1.785 2.206 3.018" style="fill:#fab71c;fill-opacity:1;fill-rule:nonzero;stroke:none;stroke-width:.133333" transform="translate(-113.559 -66.81)"/><path d="M481.908 382.02c0 1.152-.755 2.183-1.947 2.876-.965.561-2.217.9-3.585.9-1.253 0-2.41-.284-3.337-.764-1.334-.69-2.196-1.783-2.196-3.012 0-1.075.657-2.043 1.71-2.73.994-.649 2.34-1.046 3.823-1.046 1.248 0 2.401.281 3.327.758 1.34.689 2.205 1.784 2.205 3.018" style="fill:#feefc5;fill-opacity:1;fill-rule:nonzero;stroke:none;stroke-width:.133333" transform="translate(-113.559 -66.81)"/><path d="M474.439 376.85c-1.307 0-2.538.335-3.466.942-.91.593-1.413 1.368-1.413 2.18 0 .942.67 1.826 1.841 2.43 1.815.94 4.556.889 6.294-.12 1.03-.598 1.621-1.44 1.621-2.31 0-.943-.675-1.83-1.85-2.435-.874-.449-1.92-.686-3.027-.686m0 7.554c-1.323 0-2.58-.29-3.639-.836-1.62-.839-2.55-2.148-2.55-3.596 0-1.252.731-2.447 2.009-3.279 2.098-1.368 5.493-1.51 7.805-.321 1.604.825 2.563 2.172 2.563 3.6 0 1.348-.83 2.603-2.274 3.444-1.1.637-2.489.988-3.914.988" style="fill:#1a1613;fill-opacity:1;fill-rule:nonzero;stroke:none;stroke-width:.133333" transform="translate(-113.559 -66.81)"/><path d="M602.825 151.135c0 1.152-.756 2.184-1.948 2.876-.965.561-2.217.9-3.585.9-1.253 0-2.41-.284-3.337-.763-1.334-.69-2.196-1.783-2.196-3.013 0-1.074.657-2.043 1.71-2.731.994-.648 2.34-1.045 3.823-1.045 1.248 0 2.401.282 3.327.758 1.34.69 2.206 1.784 2.206 3.018" style="fill:#fab71c;fill-opacity:1;fill-rule:nonzero;stroke:none;stroke-width:.133333" transform="translate(-113.559 -66.81)"/><path d="M604.763 153.181c0 1.152-.756 2.184-1.948 2.876-.966.563-2.218.902-3.586.902-1.253 0-2.409-.286-3.337-.764-1.333-.691-2.195-1.783-2.195-3.014 0-1.073.656-2.042 1.711-2.73.993-.648 2.339-1.046 3.821-1.046 1.25 0 2.402.283 3.327.759 1.34.69 2.207 1.784 2.207 3.017" style="fill:#feefc5;fill-opacity:1;fill-rule:nonzero;stroke:none;stroke-width:.133333" transform="translate(-113.559 -66.81)"/><path d="M597.292 148.013c-1.305 0-2.536.334-3.464.94-.912.594-1.413 1.37-1.413 2.182 0 .94.67 1.825 1.841 2.43 1.815.938 4.555.888 6.292-.12 1.03-.598 1.621-1.442 1.621-2.31 0-.943-.674-1.831-1.85-2.436-.874-.45-1.92-.686-3.027-.686m0 7.552c-1.321 0-2.58-.288-3.637-.836-1.622-.837-2.551-2.148-2.551-3.594 0-1.252.732-2.448 2.008-3.279 2.099-1.37 5.495-1.51 7.807-.321 1.604.825 2.561 2.17 2.561 3.6 0 1.346-.828 2.601-2.273 3.444-1.099.637-2.49.986-3.915.986" style="fill:#1a1613;fill-opacity:1;fill-rule:nonzero;stroke:none;stroke-width:.133333" transform="translate(-113.559 -66.81)"/><path d="M396.319 196.547c0 1.152-.756 2.184-1.948 2.876-.966.561-2.218.9-3.586.9-1.253 0-2.409-.284-3.337-.764-1.333-.69-2.196-1.783-2.196-3.012 0-1.075.657-2.043 1.71-2.731.994-.648 2.34-1.045 3.823-1.045 1.25 0 2.402.281 3.327.758 1.34.688 2.207 1.784 2.207 3.018" style="fill:#fab71c;fill-opacity:1;fill-rule:nonzero;stroke:none;stroke-width:.133333" transform="translate(-113.559 -66.81)"/><path d="M398.256 198.593c0 1.152-.756 2.184-1.948 2.876-.965.562-2.217.9-3.585.9-1.254 0-2.41-.284-3.336-.764-1.335-.689-2.196-1.781-2.196-3.012 0-1.073.656-2.042 1.71-2.73.994-.648 2.339-1.046 3.822-1.046 1.249 0 2.401.283 3.328.759 1.338.69 2.205 1.784 2.205 3.017" style="fill:#feefc5;fill-opacity:1;fill-rule:nonzero;stroke:none;stroke-width:.133333" transform="translate(-113.559 -66.81)"/><path d="M390.785 193.425c-1.305 0-2.536.334-3.464.94-.912.594-1.413 1.368-1.413 2.182 0 .94.67 1.825 1.841 2.43 1.815.938 4.555.887 6.292-.121 1.031-.599 1.623-1.441 1.623-2.31 0-.943-.676-1.83-1.852-2.435-.873-.45-1.92-.686-3.027-.686m0 7.552c-1.321 0-2.58-.289-3.637-.836-1.621-.838-2.55-2.148-2.55-3.594 0-1.254.731-2.448 2.007-3.279 2.099-1.37 5.495-1.51 7.807-.321 1.604.825 2.561 2.17 2.561 3.6 0 1.346-.828 2.601-2.273 3.442-1.099.638-2.49.988-3.915.988" style="fill:#1a1613;fill-opacity:1;fill-rule:nonzero;stroke:none;stroke-width:.133333" transform="translate(-113.559 -66.81)"/><path d="M420.692 181.803c0 1.152-.756 2.184-1.947 2.876-.965.561-2.217.9-3.585.9-1.253 0-2.41-.284-3.337-.763-1.335-.69-2.196-1.783-2.196-3.013 0-1.074.656-2.043 1.71-2.731.994-.648 2.34-1.045 3.823-1.045 1.248 0 2.401.282 3.327.758 1.34.69 2.205 1.784 2.205 3.018" style="fill:#fab71c;fill-opacity:1;fill-rule:nonzero;stroke:none;stroke-width:.133333" transform="translate(-113.559 -66.81)"/><path d="M422.63 183.85c0 1.151-.755 2.183-1.947 2.877-.966.561-2.218.9-3.586.9-1.253 0-2.409-.286-3.337-.764-1.333-.69-2.196-1.783-2.196-3.014 0-1.073.657-2.042 1.71-2.73.994-.647 2.34-1.046 3.823-1.046 1.25 0 2.402.283 3.327.759 1.34.69 2.207 1.784 2.207 3.017" style="fill:#feefc5;fill-opacity:1;fill-rule:nonzero;stroke:none;stroke-width:.133333" transform="translate(-113.559 -66.81)"/><path d="M415.16 178.681c-1.305 0-2.536.334-3.464.94-.912.594-1.415 1.37-1.415 2.182 0 .94.672 1.825 1.843 2.43 1.815.938 4.555.888 6.292-.12 1.03-.598 1.621-1.442 1.621-2.31 0-.943-.674-1.831-1.85-2.436-.874-.45-1.92-.686-3.027-.686m0 7.554c-1.321 0-2.58-.29-3.637-.838-1.622-.837-2.551-2.148-2.551-3.594 0-1.252.732-2.447 2.008-3.279 2.099-1.37 5.495-1.51 7.805-.321 1.606.825 2.563 2.17 2.563 3.6 0 1.346-.83 2.602-2.273 3.444-1.099.637-2.49.988-3.915.988" style="fill:#1a1613;fill-opacity:1;fill-rule:nonzero;stroke:none;stroke-width:.133333" transform="translate(-113.559 -66.81)"/><path d="M445.067 166.796c0 1.152-.756 2.183-1.948 2.876-.966.561-2.218.9-3.586.9-1.252 0-2.409-.284-3.336-.764-1.334-.69-2.196-1.783-2.196-3.012 0-1.075.656-2.043 1.711-2.73.993-.649 2.34-1.046 3.821-1.046 1.25 0 2.402.281 3.328.757 1.339.69 2.206 1.786 2.206 3.019" style="fill:#fab71c;fill-opacity:1;fill-rule:nonzero;stroke:none;stroke-width:.133333" transform="translate(-113.559 -66.81)"/><path d="M447.004 168.843c0 1.152-.756 2.184-1.947 2.876-.965.561-2.217.9-3.585.9-1.253 0-2.41-.284-3.337-.764-1.335-.69-2.196-1.782-2.196-3.012 0-1.074.656-2.043 1.71-2.731.994-.648 2.34-1.045 3.823-1.045 1.248 0 2.4.281 3.327.758 1.34.688 2.205 1.784 2.205 3.018" style="fill:#feefc5;fill-opacity:1;fill-rule:nonzero;stroke:none;stroke-width:.133333" transform="translate(-113.559 -66.81)"/><path d="M439.535 163.673c-1.307 0-2.538.335-3.466.942-.91.593-1.413 1.368-1.413 2.181 0 .94.67 1.825 1.841 2.43 1.815.938 4.556.887 6.294-.12 1.03-.6 1.621-1.442 1.621-2.31 0-.944-.675-1.83-1.85-2.436-.874-.45-1.922-.687-3.027-.687m0 7.554c-1.323 0-2.58-.29-3.639-.836-1.62-.839-2.55-2.148-2.55-3.595 0-1.253.731-2.448 2.007-3.28 2.099-1.368 5.495-1.51 7.807-.32 1.604.824 2.561 2.17 2.561 3.6 0 1.347-.828 2.601-2.273 3.443-1.099.637-2.488.988-3.913.988" style="fill:#1a1613;fill-opacity:1;fill-rule:nonzero;stroke:none;stroke-width:.133333" transform="translate(-113.559 -66.81)"/><path d="M246.13 339.859c0 4.96-6.511 8.984-14.542 8.984-8.032 0-14.543-4.023-14.543-8.984 0-4.963 6.511-8.986 14.543-8.986 8.03 0 14.541 4.023 14.541 8.986" style="fill:#feefc5;fill-opacity:1;fill-rule:nonzero;stroke:none;stroke-width:.133333" transform="translate(-113.559 -66.81)"/><path d="m243.11 338.13-.817-3.397h-1.953c-2.124-1.38-5.216-2.256-8.67-2.256-3.455 0-6.547.875-8.671 2.256h-1.878l-.894 3.353h.013a4 4 0 0 0-.161 1.069c0 3.689 5.189 6.678 11.59 6.678 6.402 0 11.592-2.99 11.592-6.678 0-.35-.061-.69-.15-1.026" style="fill:#100f0d;fill-opacity:1;fill-rule:nonzero;stroke:none;stroke-width:.133333" transform="translate(-113.559 -66.81)"/><path d="m220.079 339.155.848 2.509 3.449 2.677 3.701 1.11.511-4.366-2.808-.638-3.805-2.408-.942-2.124.088-1.182z" style="fill:#fab71c;fill-opacity:1;fill-rule:nonzero;stroke:none;stroke-width:.133333" transform="translate(-113.559 -66.81)"/><path d="M220.725 337.704h.008l-.124.487c-.1.353-.148.669-.148.965 0 3.47 5.028 6.295 11.208 6.295s11.21-2.824 11.21-6.295c0-.281-.046-.575-.139-.928l-.003-.008-.745-3.103h-1.766l-.094-.062c-2.146-1.395-5.23-2.195-8.463-2.195s-6.317.8-8.461 2.195l-.095.062h-1.699zm10.944 8.513c-6.602 0-11.974-3.168-11.974-7.061q0-.33.064-.687h-.016l.114-.481.97-3.637h2.06c2.261-1.435 5.453-2.256 8.782-2.256 3.33 0 6.523.821 8.783 2.256h2.143l.888 3.69c.109.414.161.768.161 1.115 0 3.893-5.372 7.061-11.975 7.061" style="fill:#100f0d;fill-opacity:1;fill-rule:nonzero;stroke:none;stroke-width:.133333" transform="translate(-113.559 -66.81)"/><path d="M242.379 335.515c0 3.395-4.778 6.149-10.672 6.149s-10.674-2.754-10.674-6.15c0-3.395 4.779-6.149 10.674-6.149s10.672 2.754 10.672 6.15" style="fill:#fab71c;fill-opacity:1;fill-rule:nonzero;stroke:none;stroke-width:.133333" transform="translate(-113.559 -66.81)"/><path d="M242.26 337.26c0 3.396-4.779 6.15-10.672 6.15-5.895 0-10.673-2.754-10.673-6.15s4.778-6.15 10.673-6.15c5.893 0 10.672 2.754 10.672 6.15" style="fill:#feefc5;fill-opacity:1;fill-rule:nonzero;stroke:none;stroke-width:.133333" transform="translate(-113.559 -66.81)"/><path d="M231.707 341.281c-5.675 0-10.291-2.586-10.291-5.766s4.616-5.767 10.29-5.767 10.29 2.587 10.29 5.767-4.616 5.766-10.29 5.766m0-12.298c-6.098 0-11.056 2.93-11.056 6.532s4.958 6.532 11.056 6.532c6.096 0 11.056-2.93 11.056-6.532s-4.96-6.532-11.056-6.532" style="fill:#100f0d;fill-opacity:1;fill-rule:nonzero;stroke:none;stroke-width:.133333" transform="translate(-113.559 -66.81)"/><path d="M231.67 332.273c-2.998 0-5.429 1.291-5.429 2.883s2.431 2.883 5.428 2.883c2.999 0 5.428-1.291 5.428-2.883s-2.429-2.883-5.428-2.883" style="fill:#100f0d;fill-opacity:1;fill-rule:nonzero;stroke:none;stroke-width:.133333" transform="translate(-113.559 -66.81)"/><path d="M380.683 143.68c0 4.963-6.511 8.984-14.542 8.984-8.032 0-14.542-4.021-14.542-8.984 0-4.961 6.51-8.984 14.542-8.984s14.542 4.023 14.542 8.984" style="fill:#feefc5;fill-opacity:1;fill-rule:nonzero;stroke:none;stroke-width:.133333" transform="translate(-113.559 -66.81)"/><path d="m377.664 141.952-.817-3.396h-1.954c-2.124-1.381-5.216-2.257-8.67-2.257-3.455 0-6.547.876-8.671 2.257h-1.877l-.895 3.352h.013c-.097.35-.161.704-.161 1.07 0 3.687 5.19 6.678 11.59 6.678 6.402 0 11.593-2.99 11.593-6.679 0-.349-.062-.69-.151-1.025" style="fill:#100f0d;fill-opacity:1;fill-rule:nonzero;stroke:none;stroke-width:.133333" transform="translate(-113.559 -66.81)"/><path d="m354.632 142.977.848 2.51 3.45 2.676 3.7 1.11.511-4.365-2.808-.639-3.805-2.409-.941-2.123.088-1.181z" style="fill:#fab71c;fill-opacity:1;fill-rule:nonzero;stroke:none;stroke-width:.133333" transform="translate(-113.559 -66.81)"/><path d="M355.279 141.525h.008l-.124.487c-.1.355-.148.67-.148.965 0 3.472 5.028 6.296 11.208 6.296s11.209-2.824 11.209-6.296c0-.28-.045-.574-.139-.926l-.003-.01-.745-3.102h-1.765l-.095-.063c-2.145-1.394-5.23-2.193-8.463-2.193s-6.317.799-8.461 2.193l-.095.063h-1.698zm10.944 8.514c-6.603 0-11.975-3.168-11.975-7.062q0-.33.064-.685h-.016l.115-.483.969-3.637h2.06c2.261-1.435 5.453-2.256 8.783-2.256s6.522.821 8.782 2.256h2.143l.888 3.69c.11.414.161.769.161 1.115 0 3.894-5.372 7.062-11.974 7.062" style="fill:#100f0d;fill-opacity:1;fill-rule:nonzero;stroke:none;stroke-width:.133333" transform="translate(-113.559 -66.81)"/><path d="M376.932 139.337c0 3.396-4.777 6.15-10.672 6.15s-10.673-2.754-10.673-6.15 4.778-6.149 10.673-6.149 10.672 2.753 10.672 6.15" style="fill:#fab71c;fill-opacity:1;fill-rule:nonzero;stroke:none;stroke-width:.133333" transform="translate(-113.559 -66.81)"/><path d="M376.813 141.081c0 3.398-4.778 6.15-10.672 6.15s-10.673-2.752-10.673-6.15c0-3.396 4.779-6.149 10.673-6.149s10.672 2.753 10.672 6.15" style="fill:#feefc5;fill-opacity:1;fill-rule:nonzero;stroke:none;stroke-width:.133333" transform="translate(-113.559 -66.81)"/><path d="M366.26 145.104c-5.675 0-10.29-2.587-10.29-5.767s4.615-5.766 10.29-5.766c5.673 0 10.29 2.586 10.29 5.766s-4.617 5.767-10.29 5.767m0-12.3c-6.097 0-11.056 2.93-11.056 6.533 0 3.602 4.959 6.532 11.056 6.532s11.056-2.93 11.056-6.532-4.96-6.533-11.056-6.533" style="fill:#100f0d;fill-opacity:1;fill-rule:nonzero;stroke:none;stroke-width:.133333" transform="translate(-113.559 -66.81)"/><path d="M366.223 136.095c-2.998 0-5.428 1.29-5.428 2.882s2.43 2.883 5.428 2.883 5.428-1.29 5.428-2.883-2.43-2.882-5.428-2.882" style="fill:#100f0d;fill-opacity:1;fill-rule:nonzero;stroke:none;stroke-width:.133333" transform="translate(-113.559 -66.81)"/><path d="M435.207 365.34c0 4.963-6.511 8.985-14.543 8.985-8.03 0-14.541-4.022-14.541-8.985 0-4.961 6.51-8.984 14.541-8.984s14.543 4.023 14.543 8.984" style="fill:#feefc5;fill-opacity:1;fill-rule:nonzero;stroke:none;stroke-width:.133333" transform="translate(-113.559 -66.81)"/><path d="m432.187 363.612-.818-3.396h-1.952c-2.124-1.381-5.216-2.257-8.67-2.257-3.455 0-6.547.876-8.671 2.257h-1.879l-.893 3.353h.013a4 4 0 0 0-.163 1.068c0 3.69 5.19 6.68 11.592 6.68s11.591-2.99 11.591-6.68c0-.349-.06-.69-.15-1.025" style="fill:#100f0d;fill-opacity:1;fill-rule:nonzero;stroke:none;stroke-width:.133333" transform="translate(-113.559 -66.81)"/><path d="m409.155 364.637.849 2.51 3.448 2.677 3.703 1.11.51-4.366-2.809-.639-3.805-2.408-.94-2.124.086-1.18z" style="fill:#fab71c;fill-opacity:1;fill-rule:nonzero;stroke:none;stroke-width:.133333" transform="translate(-113.559 -66.81)"/><path d="M409.803 363.186h.007l-.123.487c-.1.354-.15.67-.15.966 0 3.47 5.03 6.294 11.21 6.294s11.208-2.824 11.208-6.294a3.5 3.5 0 0 0-.139-.929v-.008l-.747-3.104h-1.766l-.094-.062c-2.144-1.394-5.228-2.194-8.462-2.194s-6.317.8-8.461 2.194l-.096.062h-1.697zm10.944 8.514c-6.603 0-11.975-3.168-11.975-7.061q0-.332.064-.687h-.017l.114-.481.971-3.638h2.06c2.26-1.436 5.453-2.257 8.783-2.257s6.521.821 8.782 2.257h2.143l.888 3.69h-.001c.11.414.163.77.163 1.116 0 3.893-5.372 7.061-11.975 7.061" style="fill:#100f0d;fill-opacity:1;fill-rule:nonzero;stroke:none;stroke-width:.133333" transform="translate(-113.559 -66.81)"/><path d="M431.456 360.997c0 3.396-4.779 6.15-10.673 6.15s-10.672-2.754-10.672-6.15 4.778-6.15 10.672-6.15 10.673 2.754 10.673 6.15" style="fill:#fab71c;fill-opacity:1;fill-rule:nonzero;stroke:none;stroke-width:.133333" transform="translate(-113.559 -66.81)"/><path d="M431.337 362.743c0 3.396-4.778 6.15-10.673 6.15s-10.672-2.754-10.672-6.15 4.777-6.15 10.672-6.15 10.673 2.754 10.673 6.15" style="fill:#feefc5;fill-opacity:1;fill-rule:nonzero;stroke:none;stroke-width:.133333" transform="translate(-113.559 -66.81)"/><path d="M420.783 366.764c-5.674 0-10.29-2.587-10.29-5.767s4.616-5.766 10.29-5.766 10.29 2.586 10.29 5.766-4.616 5.767-10.29 5.767m0-12.299c-6.096 0-11.056 2.93-11.056 6.532s4.96 6.532 11.056 6.532c6.097 0 11.056-2.93 11.056-6.532s-4.959-6.532-11.056-6.532" style="fill:#100f0d;fill-opacity:1;fill-rule:nonzero;stroke:none;stroke-width:.133333" transform="translate(-113.559 -66.81)"/><path d="M420.747 357.756c-2.999 0-5.43 1.29-5.43 2.883s2.431 2.882 5.43 2.882c2.997 0 5.428-1.29 5.428-2.882s-2.431-2.883-5.428-2.883" style="fill:#100f0d;fill-opacity:1;fill-rule:nonzero;stroke:none;stroke-width:.133333" transform="translate(-113.559 -66.81)"/><path d="M529.575 200.593c0 4.963-6.511 8.984-14.542 8.984-8.032 0-14.542-4.021-14.542-8.984 0-4.961 6.51-8.984 14.542-8.984s14.542 4.023 14.542 8.984" style="fill:#feefc5;fill-opacity:1;fill-rule:nonzero;stroke:none;stroke-width:.133333" transform="translate(-113.559 -66.81)"/><path d="m526.555 198.865-.817-3.396h-1.953c-2.124-1.381-5.216-2.257-8.67-2.257-3.455 0-6.547.876-8.671 2.257h-1.879l-.893 3.352h.013a4 4 0 0 0-.163 1.07c0 3.688 5.191 6.678 11.592 6.678s11.591-2.99 11.591-6.678c0-.35-.06-.691-.15-1.026" style="fill:#100f0d;fill-opacity:1;fill-rule:nonzero;stroke:none;stroke-width:.133333" transform="translate(-113.559 -66.81)"/><path d="m503.523 199.89.849 2.51 3.448 2.676 3.703 1.11.51-4.365-2.808-.638-3.806-2.41-.94-2.122.086-1.182z" style="fill:#fab71c;fill-opacity:1;fill-rule:nonzero;stroke:none;stroke-width:.133333" transform="translate(-113.559 -66.81)"/><path d="M504.17 198.439h.008l-.123.486c-.1.355-.148.67-.148.966 0 3.472 5.028 6.296 11.208 6.296s11.208-2.824 11.208-6.296c0-.28-.044-.575-.137-.927l-.003-.009-.746-3.103h-1.765l-.096-.062c-2.144-1.395-5.228-2.194-8.461-2.194s-6.318.799-8.462 2.194l-.096.062h-1.697zm10.945 8.513c-6.603 0-11.975-3.168-11.975-7.061q0-.33.064-.686h-.016l.113-.482.971-3.638h2.06c2.26-1.434 5.453-2.256 8.783-2.256s6.522.822 8.782 2.256h2.143l.888 3.691c.11.413.161.768.161 1.115 0 3.893-5.372 7.061-11.974 7.061" style="fill:#100f0d;fill-opacity:1;fill-rule:nonzero;stroke:none;stroke-width:.133333" transform="translate(-113.559 -66.81)"/><path d="M525.824 196.25c0 3.397-4.779 6.15-10.672 6.15-5.895 0-10.673-2.753-10.673-6.15 0-3.395 4.778-6.149 10.673-6.149 5.893 0 10.672 2.754 10.672 6.15" style="fill:#fab71c;fill-opacity:1;fill-rule:nonzero;stroke:none;stroke-width:.133333" transform="translate(-113.559 -66.81)"/><path d="M525.705 197.995c0 3.396-4.778 6.149-10.672 6.149s-10.673-2.753-10.673-6.15c0-3.395 4.779-6.149 10.673-6.149s10.672 2.754 10.672 6.15" style="fill:#feefc5;fill-opacity:1;fill-rule:nonzero;stroke:none;stroke-width:.133333" transform="translate(-113.559 -66.81)"/><path d="M515.152 202.016c-5.675 0-10.29-2.587-10.29-5.765 0-3.18 4.615-5.767 10.29-5.767 5.673 0 10.29 2.587 10.29 5.767 0 3.178-4.617 5.765-10.29 5.765m0-12.299c-6.097 0-11.056 2.931-11.056 6.534 0 3.601 4.959 6.532 11.056 6.532s11.055-2.931 11.055-6.532c0-3.603-4.959-6.534-11.055-6.534" style="fill:#100f0d;fill-opacity:1;fill-rule:nonzero;stroke:none;stroke-width:.133333" transform="translate(-113.559 -66.81)"/><path d="M515.115 193.008c-2.999 0-5.428 1.29-5.428 2.883s2.429 2.882 5.428 2.882c2.997 0 5.428-1.29 5.428-2.882s-2.431-2.883-5.428-2.883" style="fill:#100f0d;fill-opacity:1;fill-rule:nonzero;stroke:none;stroke-width:.133333" transform="translate(-113.559 -66.81)"/><path d="M528.67 357.064c0 4.963-6.511 8.985-14.542 8.985-8.032 0-14.543-4.022-14.543-8.985 0-4.961 6.511-8.984 14.543-8.984 8.03 0 14.541 4.023 14.541 8.984" style="fill:#feefc5;fill-opacity:1;fill-rule:nonzero;stroke:none;stroke-width:.133333" transform="translate(-113.559 -66.81)"/><path d="m525.65 355.336-.817-3.396h-1.953c-2.124-1.381-5.216-2.257-8.67-2.257-3.455 0-6.547.876-8.671 2.257h-1.878l-.893 3.352h.012a4 4 0 0 0-.161 1.07c0 3.689 5.189 6.678 11.59 6.678 6.403 0 11.592-2.99 11.592-6.679 0-.349-.061-.69-.15-1.025" style="fill:#100f0d;fill-opacity:1;fill-rule:nonzero;stroke:none;stroke-width:.133333" transform="translate(-113.559 -66.81)"/><path d="m502.619 356.361.848 2.51 3.449 2.676 3.701 1.11.511-4.365-2.808-.639-3.805-2.41-.942-2.122.088-1.18z" style="fill:#fab71c;fill-opacity:1;fill-rule:nonzero;stroke:none;stroke-width:.133333" transform="translate(-113.559 -66.81)"/><path d="M503.265 354.91h.008l-.124.486c-.1.355-.148.67-.148.965 0 3.472 5.028 6.296 11.208 6.296 6.182 0 11.21-2.824 11.21-6.296 0-.28-.044-.575-.139-.927l-.003-.009-.745-3.103h-1.766l-.094-.062c-2.146-1.395-5.23-2.193-8.463-2.193s-6.316.798-8.461 2.193l-.095.062h-1.699zm10.944 8.512c-6.602 0-11.973-3.167-11.973-7.06q0-.33.063-.686h-.016l.114-.483.97-3.637h2.06c2.261-1.435 5.453-2.256 8.782-2.256 3.33 0 6.523.821 8.783 2.256h2.143l.889 3.69h-.001c.11.414.161.769.161 1.115 0 3.894-5.372 7.061-11.974 7.061" style="fill:#100f0d;fill-opacity:1;fill-rule:nonzero;stroke:none;stroke-width:.133333" transform="translate(-113.559 -66.81)"/><path d="M524.919 352.721c0 3.396-4.778 6.15-10.672 6.15s-10.674-2.754-10.674-6.15 4.779-6.15 10.674-6.15 10.672 2.754 10.672 6.15" style="fill:#fab71c;fill-opacity:1;fill-rule:nonzero;stroke:none;stroke-width:.133333" transform="translate(-113.559 -66.81)"/><path d="M524.8 354.465c0 3.398-4.777 6.151-10.672 6.151s-10.673-2.753-10.673-6.15 4.778-6.15 10.673-6.15 10.672 2.753 10.672 6.15" style="fill:#feefc5;fill-opacity:1;fill-rule:nonzero;stroke:none;stroke-width:.133333" transform="translate(-113.559 -66.81)"/><path d="M514.247 358.488c-5.674 0-10.291-2.586-10.291-5.767 0-3.18 4.617-5.766 10.29-5.766 5.674 0 10.29 2.586 10.29 5.766s-4.616 5.767-10.29 5.767m0-12.3c-6.098 0-11.056 2.93-11.056 6.533 0 3.601 4.958 6.532 11.056 6.532 6.096 0 11.056-2.93 11.056-6.532s-4.96-6.533-11.056-6.533" style="fill:#100f0d;fill-opacity:1;fill-rule:nonzero;stroke:none;stroke-width:.133333" transform="translate(-113.559 -66.81)"/><path d="M514.21 349.48c-2.998 0-5.429 1.29-5.429 2.881 0 1.592 2.431 2.883 5.428 2.883 2.999 0 5.43-1.29 5.43-2.883s-2.431-2.88-5.43-2.88" style="fill:#100f0d;fill-opacity:1;fill-rule:nonzero;stroke:none;stroke-width:.133333" transform="translate(-113.559 -66.81)"/><path d="m313.933 274.988 39.981-8.37-8.984 23.03zm113.129-36.004-39.982 8.37 8.985-23.03z" style="fill:#000;fill-opacity:1;stroke:#000;stroke-width:1px;stroke-linecap:butt;stroke-linejoin:miter;stroke-opacity:1" transform="translate(-113.559 -66.81)"/></svg>