<svg xmlns="http://www.w3.org/2000/svg" viewBox="0 0 1200 630"><defs><clipPath id="a"><path d="M0 0h11520v4608H0z" clip-rule="evenodd"/></clipPath><clipPath id="p"><path d="M249.992 0C111.907 0-.017 111.924-.017 250.008c0 138.085 111.924 250.009 250.009 250.009S500 388.093 500 250.008 388.076 0 249.992 0"/></clipPath><clipPath id="d"><path d="M250.003 0C112.138 0 .433 111.706.433 249.57c0 137.866 111.705 249.572 249.57 249.572S499.574 387.436 499.574 249.57 387.868 0 250.004 0"/></clipPath><clipPath id="e"><path d="M5.812 64.898h200.584v85.233H5.812z" clip-rule="evenodd"/></clipPath><clipPath id="g"><path d="M5.812 64.898h200.584v85.233H5.812z" clip-rule="evenodd"/></clipPath><clipPath id="h"><path d="M5.812 64.898h200.584v85.233H5.812z" clip-rule="evenodd"/></clipPath><clipPath id="i"><path d="M5.812 64.898h200.584v85.233H5.812z" clip-rule="evenodd"/></clipPath><clipPath id="j"><path d="M5.812 64.898h200.584v85.233H5.812z" clip-rule="evenodd"/></clipPath><clipPath id="k"><path d="M5.812 64.898h200.584v85.233H5.812z" clip-rule="evenodd"/></clipPath><clipPath id="l"><path d="M5.812 64.898h200.584v85.233H5.812z" clip-rule="evenodd"/></clipPath><clipPath id="m"><path d="m-7.655 65.294 197.874 28.733-17.738 84.657-197.874-28.733z" clip-rule="evenodd"/></clipPath><clipPath id="n"><path d="M5.812 64.898h200.584v85.233H5.812z" clip-rule="evenodd"/></clipPath><clipPath id="o"/><clipPath id="c"/><clipPath id="b" clipPathUnits="userSpaceOnUse"/></defs><path fill="#ffc61a" d="M0 0h11520v4608H0Z" clip-path="url(#a)" transform="matrix(.10463 0 0 .137 0 -.015)"/><path fill="#372a28" d="M258 158c-1.8 0-3.3 1.5-3.3 3.4 0 1.8 1.5 3.3 3.4 3.3s3.3-1.5 3.3-3.4c0-1.8-1.5-3.3-3.4-3.3m0 48.2c-1.8 0-3.3 1.5-3.3 3.4 0 1.8 1.5 3.3 3.4 3.3s3.3-1.5 3.3-3.4c0-1.8-1.5-3.3-3.4-3.3m0 48.1c-1.8 0-3.3 1.5-3.3 3.4 0 1.8 1.5 3.3 3.4 3.3s3.3-1.5 3.3-3.4c0-1.8-1.5-3.3-3.4-3.3m0 48.6c-1.6 0-2.8 1.3-2.8 2.9s1.3 2.8 2.9 2.8 2.8-1.3 2.8-2.9-1.3-2.8-2.9-2.8m0-193c-1.8 0-3.3 1.5-3.3 3.3s1.5 3.3 3.3 3.3 3.3-1.5 3.3-3.3c.1-1.8-1.5-3.3-3.3-3.3m0-95.7c-1.6 0-2.8 1.3-2.8 2.9s1.3 2.8 2.9 2.8 2.8-1.3 2.8-2.9-1.3-2.8-2.9-2.8m-95.8 142c-2.4 0-4.4 2-4.4 4.4s2 4.4 4.4 4.4 4.4-2 4.4-4.4-2-4.4-4.4-4.4m0 48.8c-2.1 0-3.9 1.8-3.9 3.8 0 2.1 1.8 3.7 3.9 3.7s3.9-1.8 3.9-3.7c0-2.2-1.8-3.8-3.9-3.8m0 48.4c-1.9 0-3.4 1.6-3.4 3.4 0 1.9 1.6 3.4 3.4 3.4s3.4-1.6 3.4-3.4c0-1.9-1.5-3.4-3.4-3.4m0 48.7c-1.6 0-2.9 1.3-2.9 2.9s1.3 2.9 2.9 2.9 2.9-1.3 2.9-2.9-1.3-2.9-2.9-2.9m0-193c-2.1 0-3.8 1.8-3.8 3.9s1.8 3.8 3.9 3.8 3.8-1.8 3.8-3.8c0-2.2-1.8-3.9-3.9-3.9m0-95.3c-1.6 0-2.9 1.3-2.9 2.9s1.3 2.9 2.9 2.9 2.9-1.3 2.9-2.9-1.3-2.9-2.9-2.9m-47.9 144c-2.1 0-3.9 1.7-3.9 3.8s1.7 3.9 3.8 3.9 3.9-1.7 3.9-3.8-1.7-3.9-3.8-3.9m0 48.1c-2.1 0-3.9 1.7-3.9 3.8s1.7 3.9 3.8 3.9 3.9-1.7 3.9-3.8-1.7-3.9-3.8-3.9m0 48.6c-1.8 0-3.4 1.5-3.4 3.3s1.5 3.4 3.3 3.4 3.4-1.5 3.4-3.3c0-1.9-1.5-3.4-3.3-3.4m0 48.6c-1.6 0-2.9 1.2-2.9 2.8s1.2 2.9 2.8 2.9 2.9-1.2 2.9-2.8-1.2-2.9-2.8-2.9m0-193c-2.1 0-3.8 1.7-3.8 3.8s1.7 3.8 3.8 3.8 3.8-1.7 3.8-3.8c0-2-1.7-3.8-3.8-3.8m-47.9 48.6c-1.8 0-3.4 1.5-3.4 3.3s1.5 3.4 3.3 3.4 3.4-1.5 3.4-3.3c.1-1.9-1.5-3.5-3.3-3.4m0 48.1c-1.8 0-3.4 1.5-3.4 3.3s1.5 3.4 3.3 3.4 3.4-1.5 3.4-3.3c.1-1.9-1.5-3.5-3.3-3.4m0 48.1c-1.8 0-3.4 1.5-3.4 3.3s1.5 3.4 3.3 3.4 3.4-1.5 3.4-3.3c.1-1.9-1.5-3.5-3.3-3.4m0 48.6c-1.6 0-2.9 1.2-2.9 2.8s1.2 2.9 2.8 2.9 2.9-1.2 2.9-2.8c.1-1.7-1.2-3-2.8-2.9m144-241c-1.8 0-3.4 1.5-3.4 3.3s1.5 3.4 3.3 3.4 3.4-1.5 3.4-3.3c.1-1.9-1.5-3.5-3.3-3.4m-95.9-47.6c-1.6 0-2.9 1.2-2.9 2.8s1.2 2.9 2.8 2.9 2.9-1.2 2.9-2.8c.1-1.7-1.2-3-2.8-2.9m-95.8 144c-1.6 0-2.9 1.2-2.9 2.8s1.2 2.9 2.8 2.9 2.9-1.2 2.9-2.8-1.2-2.9-2.8-2.9m0 48.1c-1.6 0-2.9 1.2-2.9 2.8s1.2 2.9 2.8 2.9 2.9-1.2 2.9-2.8-1.2-2.9-2.8-2.9m0 48.1c-1.6 0-2.9 1.2-2.9 2.8s1.2 2.9 2.8 2.9 2.9-1.2 2.9-2.8-1.2-2.9-2.8-2.9m0 48.1c-1.6 0-2.9 1.2-2.9 2.8s1.2 2.9 2.8 2.9 2.9-1.2 2.9-2.8-1.2-2.9-2.8-2.9m0-240c-1.6 0-2.9 1.3-2.9 2.8s1.3 2.8 2.9 2.8 2.9-1.3 2.9-2.8c-.2-1.6-1.3-2.8-2.9-2.8m0 48.1c-1.6 0-2.9 1.3-2.9 2.8s1.3 2.8 2.9 2.8 2.9-1.3 2.9-2.8c-.2-1.6-1.3-2.8-2.9-2.8m0-96.3c-1.6 0-2.9 1.2-2.9 2.8s1.2 2.9 2.8 2.9 2.9-1.2 2.9-2.8-1.2-2.9-2.8-2.9m192 143c-2.1 0-3.9 1.7-3.9 3.9s1.7 3.9 3.9 3.9 3.9-1.7 3.9-3.9-1.8-3.9-3.9-3.9m0 48.1c-2.1 0-3.9 1.8-3.9 3.9s1.8 3.9 3.9 3.9 3.9-1.8 3.9-3.9-1.8-3.9-3.9-3.9m0 48.6c-1.9 0-3.4 1.6-3.4 3.4 0 1.9 1.6 3.4 3.4 3.4s3.4-1.6 3.4-3.4-1.5-3.4-3.4-3.4m0 48.7c-1.6 0-2.9 1.3-2.9 2.9s1.3 2.9 2.9 2.9 2.9-1.3 2.9-2.9c0-1.7-1.3-2.9-2.9-2.9m47.9-241c-1.8 0-3.4 1.5-3.4 3.3s1.5 3.3 3.4 3.3 3.4-1.5 3.4-3.3c0-1.9-1.6-3.3-3.4-3.3m-47.9 47.5c-2.1 0-3.8 1.8-3.8 3.9s1.8 3.8 3.9 3.8 3.8-1.8 3.8-3.9-1.8-3.8-3.9-3.8m0-95.3c-1.6 0-2.9 1.3-2.9 2.8 0 1.6 1.3 2.9 2.9 2.9s2.9-1.3 2.9-2.9c0-1.5-1.3-2.8-2.9-2.8m95.8 144c-1.6 0-2.8 1.3-2.8 2.9s1.3 2.8 2.9 2.8 2.8-1.3 2.8-2.9-1.3-2.8-2.9-2.8m0 48.1c-1.6 0-2.8 1.3-2.8 2.9s1.3 2.8 2.9 2.8 2.8-1.3 2.8-2.9-1.3-2.8-2.9-2.8m0 48.1c-1.6 0-2.8 1.3-2.8 2.9s1.3 2.8 2.9 2.8 2.8-1.3 2.8-2.9-1.3-2.8-2.9-2.8m0 48.1c-1.6 0-2.8 1.3-2.8 2.9s1.3 2.8 2.9 2.8 2.8-1.3 2.8-2.9-1.3-2.8-2.9-2.8m0-241c-1.5 0-2.8 1.3-2.8 2.8s1.3 2.8 2.8 2.8 2.8-1.3 2.8-2.8c.1-1.6-1.3-2.8-2.8-2.8m0-48.2c-1.6 0-2.8 1.3-2.8 2.9s1.3 2.8 2.9 2.8 2.8-1.3 2.8-2.9-1.3-2.8-2.9-2.8m-239 96.2c-1.9 0-3.3 1.5-3.3 3.3s1.5 3.3 3.3 3.3 3.3-1.5 3.3-3.3c.1-1.9-1.5-3.3-3.3-3.3m0-95.7c-1.6 0-2.9 1.2-2.9 2.8s1.2 2.9 2.8 2.9 2.9-1.2 2.9-2.8c.1-1.7-1.2-3-2.8-2.9m95.9 47.6c-1.8 0-3.4 1.5-3.4 3.3s1.5 3.4 3.3 3.4 3.4-1.5 3.4-3.3c.1-1.9-1.5-3.5-3.3-3.4m-48 0c-1.8 0-3.3 1.4-3.3 3.3 0 1.8 1.4 3.3 3.3 3.3s3.3-1.4 3.3-3.3c.1-1.8-1.4-3.3-3.3-3.3m-47.9 0c-1.9 0-3.3 1.5-3.3 3.3s1.5 3.3 3.3 3.3 3.3-1.5 3.3-3.3c.1-1.9-1.4-3.3-3.3-3.3m239 48.2c-1.5 0-2.8 1.3-2.8 2.8s1.3 2.8 2.8 2.8 2.8-1.3 2.8-2.8c.1-1.6-1.3-2.8-2.8-2.8" clip-path="url(#b)" style="opacity:.609677" transform="rotate(-90 596.83 -188.233)scale(1.27399)"/><g clip-path="url(#c)" opacity=".149" transform="translate(-2.64 -1.36)scale(.127)"><path d="M0 0h500v500H0z" clip-path="url(#d)" transform="matrix(0 -3.16 3.16 0 3678 801)"/></g><g fill="#372a28"><path d="M24.7 101c-4.74 0-8.49 1.37-11.2 4.12-2.84 2.84-4.26 6.45-4.26 10.8q0 6.39 3.99 10.5c2.62 2.75 6.16 4.12 10.6 4.12 3.2 0 5.94-.682 8.23-2.03-.991-1.32-2.27-3.36-2.9-4.86l.012-.064c-1.46.738-3.08 1.11-4.88 1.11-2.35 0-4.32-.754-5.92-2.26-1.68-1.68-2.53-3.92-2.53-6.72 0-2.7.798-4.86 2.39-6.45 1.64-1.64 3.7-2.46 6.19-2.46 1.63 0 3.18.36 4.63 1.08l-.007.032c.627-1.43 2.11-3.83 3.08-5.08-2.33-1.25-4.81-1.89-7.44-1.89z" clip-path="url(#e)" transform="translate(855.813 390.435)scale(1.537)"/><path d="M38.5 106c2.88-2.79 6.45-4.19 10.7-4.19s7.8 1.4 10.6 4.19c2.88 2.75 4.32 6.27 4.32 10.6 0 4.26-1.44 7.8-4.32 10.6-2.84 2.79-6.39 4.19-10.6 4.19s-7.83-1.4-10.7-4.19c-2.84-2.84-4.26-6.39-4.26-10.6 0-4.3 1.42-7.83 4.26-10.6m4.66 17.2c1.51 1.6 3.53 2.39 6.05 2.39s4.54-.798 6.05-2.39c1.51-1.64 2.26-3.81 2.26-6.52q0-4.455-2.46-6.72c-1.6-1.51-3.55-2.26-5.85-2.26-2.31 0-4.28.754-5.92 2.26-1.6 1.51-2.39 3.75-2.39 6.72 0 2.7.754 4.88 2.26 6.52" clip-path="url(#g)" transform="translate(855.813 390.435)scale(1.537)"/><path d="M83.2 101c-13.6.102-13.6 8.04-13.2 28.7h6.52v-14.5q-.001-4.53 1.8-6.45 1.465-1.53 4.06-1.53 1.216.002 2.37.498l3.59-5.43q-2.25-1.32-5.1-1.32z" clip-path="url(#h)" transform="translate(855.813 390.435)scale(1.537)"/><path d="M111 106c2.88-2.79 6.45-4.19 10.7-4.19 4.26 0 7.8 1.4 10.6 4.19 2.88 2.75 4.32 6.27 4.32 10.6 0 4.26-1.44 7.8-4.32 10.6-2.84 2.79-6.39 4.19-10.6 4.19-4.26 0-7.83-1.4-10.7-4.19-2.84-2.84-4.26-6.39-4.26-10.6 0-4.3 1.42-7.83 4.26-10.6m4.66 17.2c1.51 1.6 3.53 2.39 6.05 2.39 2.53 0 4.54-.798 6.05-2.39 1.51-1.64 2.26-3.81 2.26-6.52q0-4.455-2.46-6.72c-1.6-1.51-3.55-2.26-5.85-2.26-2.31 0-4.28.754-5.92 2.26-1.6 1.51-2.39 3.75-2.39 6.72 0 2.7.754 4.88 2.26 6.52" clip-path="url(#i)" transform="translate(855.813 390.435)scale(1.537)"/><path d="M101 101c-13.6.102-13.6 8.04-13.2 28.7h6.52v-14.5q-.002-4.53 1.8-6.45 1.464-1.53 4.06-1.53 1.216.002 2.37.498l3.59-5.43q-2.25-1.32-5.1-1.32z" clip-path="url(#j)" transform="translate(855.813 390.435)scale(1.537)"/><path d="M38.5 106c2.88-2.79 6.45-4.19 10.7-4.19s7.8 1.4 10.6 4.19c2.88 2.75 4.32 6.27 4.32 10.6 0 4.26-1.44 7.8-4.32 10.6-2.84 2.79-6.39 4.19-10.6 4.19s-7.83-1.4-10.7-4.19c-2.84-2.84-4.26-6.39-4.26-10.6 0-4.3 1.42-7.83 4.26-10.6m4.66 17.2c1.51 1.6 3.53 2.39 6.05 2.39s4.54-.798 6.05-2.39c1.51-1.64 2.26-3.81 2.26-6.52q0-4.455-2.46-6.72c-1.6-1.51-3.55-2.26-5.85-2.26-2.31 0-4.28.754-5.92 2.26-1.6 1.51-2.39 3.75-2.39 6.72 0 2.7.754 4.88 2.26 6.52" clip-path="url(#k)" transform="translate(855.813 390.435)scale(1.537)"/><path d="M192 101c-4.74 0-8.49 1.37-11.2 4.12-2.84 2.84-4.26 6.45-4.26 10.8q0 6.39 3.99 10.5c2.62 2.75 6.16 4.12 10.6 4.12 3.2 0 5.94-.682 8.23-2.03q-1.488-1.98-2.42-4.23l-.462-.695c-1.46.738-3.08 1.11-4.88 1.11-2.35 0-4.32-.754-5.92-2.26-1.68-1.68-2.53-3.92-2.53-6.72 0-2.7.798-4.86 2.39-6.45 1.64-1.64 3.7-2.46 6.19-2.46 1.63 0 4.65.668 6.32 4.33.876 2.58 4.08 5.45 5.15 4.06.919-11-7.54-14.2-11.2-14.2z" clip-path="url(#l)" transform="translate(855.813 390.435)scale(1.537)"/><path d="M151 139h23.6v4.75H151z" clip-path="url(#m)" transform="matrix(1.52 -.219 .318 1.504 855.813 390.435)"/><path d="M165 83v20.6c-2.38-1.54-5.15-2.32-8.31-2.32-4.26 0-7.83 1.4-10.7 4.19-2.84 2.75-4.26 6.27-4.26 10.6 0 4.26 1.42 7.8 4.26 10.6 2.88 2.79 6.45 4.19 10.7 4.19 4.26 0 7.8-1.4 10.6-4.19 2.88-2.84 4.32-6.39 4.32-10.6l-.002-.062h.002v-33h-6.65zm-8.31 24.2q3.465 0 5.85 2.26 2.46 2.265 2.46 6.72c0 2.7-.754 4.88-2.26 6.52-1.51 1.6-3.52 2.39-6.05 2.39s-4.55-.798-6.05-2.39c-1.51-1.64-2.26-3.81-2.26-6.52q.001-4.455 2.39-6.72c1.64-1.51 3.61-2.26 5.92-2.26" clip-path="url(#n)" transform="translate(855.813 390.435)scale(1.537)"/></g><g clip-path="url(#o)" opacity=".149" transform="translate(-689 -315)scale(.205)"><path d="M0 0h500v500H0z" clip-path="url(#p)" transform="rotate(-90 6292 3)scale(5.19)"/></g><path fill="#ffd885" d="m85.49 440.026 673.405-10.187-7.318 99.376-667.256 4.429z"/><path fill="#ffd885" d="m325.255 672.848 90.16.302 2.388 45-93.412 2.72z" style="stroke-width:.681718" transform="translate(-591.505 -1302.504)scale(2.07901)"/><path fill="#ffd885" d="m322.268 726.1 265.075-.539-1.198 48-264.014-.539zM321.9 783l83.155-1.03.074 45.7-83.154 3.62z" style="paint-order:stroke fill markers" transform="translate(-591.505 -1302.504)scale(2.07901)"/><text xml:space="preserve" x="333.391" y="714.47" style="font-style:normal;font-variant:normal;font-weight:700;font-stretch:normal;font-size:42.9901px;line-height:1.25;font-family:&quot;Josefin Sans&quot;;-inkscape-font-specification:&quot;Josefin Sans, Bold&quot;;font-variant-ligatures:normal;font-variant-caps:normal;font-variant-numeric:normal;font-variant-east-asian:normal;stroke-width:1.07475" transform="translate(-591.505 -1302.504)scale(2.07901)"><tspan x="333.391" y="714.47" style="font-style:normal;font-variant:normal;font-weight:700;font-stretch:normal;font-size:42.9901px;font-family:&quot;Josefin Sans&quot;;-inkscape-font-specification:&quot;Josefin Sans, Bold&quot;;font-variant-ligatures:normal;font-variant-caps:normal;font-variant-numeric:normal;font-variant-east-asian:normal;stroke-width:1.07475"><tspan style="font-style:normal;font-variant:normal;font-weight:700;font-stretch:normal;font-size:42.9901px;font-family:&quot;Josefin Sans&quot;;-inkscape-font-specification:&quot;Josefin Sans, Bold&quot;;font-variant-ligatures:normal;font-variant-caps:normal;font-variant-numeric:normal;font-variant-east-asian:normal;stroke-width:1.07475">The </tspan></tspan><tspan x="333.391" y="768.208" style="font-style:normal;font-variant:normal;font-weight:700;font-stretch:normal;font-size:42.9901px;font-family:&quot;Josefin Sans&quot;;-inkscape-font-specification:&quot;Josefin Sans, Bold&quot;;font-variant-ligatures:normal;font-variant-caps:normal;font-variant-numeric:normal;font-variant-east-asian:normal;stroke-width:1.07475"><tspan dx="0 0 0 3.1355975" style="font-style:normal;font-variant:normal;font-weight:700;font-stretch:normal;font-size:42.9901px;font-family:&quot;Josefin Sans&quot;;-inkscape-font-specification:&quot;Josefin Sans, Bold&quot;;font-variant-ligatures:normal;font-variant-caps:normal;font-variant-numeric:normal;font-variant-east-asian:normal;stroke-width:1.07475">4 Horsemen</tspan></tspan><tspan x="333.391" y="821.945" style="font-style:normal;font-variant:normal;font-weight:700;font-stretch:normal;font-size:42.9901px;font-family:&quot;Josefin Sans&quot;;-inkscape-font-specification:&quot;Josefin Sans, Bold&quot;;font-variant-ligatures:normal;font-variant-caps:normal;font-variant-numeric:normal;font-variant-east-asian:normal;stroke-width:1.07475">Of </tspan><tspan x="333.391" y="875.683" style="font-style:normal;font-variant:normal;font-weight:700;font-stretch:normal;font-size:42.9901px;font-family:&quot;Josefin Sans&quot;;-inkscape-font-specification:&quot;Josefin Sans, Bold&quot;;font-variant-ligatures:normal;font-variant-caps:normal;font-variant-numeric:normal;font-variant-east-asian:normal;stroke-width:1.07475">Bad Rust Code</tspan></text></svg>