<?xml version="1.0" encoding="UTF-8" standalone="no"?>
<svg
   width="1200"
   height="630"
   viewBox="0 0 1200 630"
   version="1.1"
   id="svg30"
   sodipodi:docname="social-post-template.svg"
   inkscape:version="1.3 (0e150ed, 2023-07-21)"
   xmlns:inkscape="http://www.inkscape.org/namespaces/inkscape"
   xmlns:sodipodi="http://sodipodi.sourceforge.net/DTD/sodipodi-0.dtd"
   xmlns="http://www.w3.org/2000/svg"
   xmlns:svg="http://www.w3.org/2000/svg">
  <sodipodi:namedview
     id="namedview30"
     pagecolor="#ffffff"
     bordercolor="#666666"
     borderopacity="1.0"
     inkscape:showpageshadow="2"
     inkscape:pageopacity="0.0"
     inkscape:pagecheckerboard="0"
     inkscape:deskcolor="#d1d1d1"
     inkscape:zoom="0.37625815"
     inkscape:cx="842.50667"
     inkscape:cy="382.71596"
     inkscape:window-width="1920"
     inkscape:window-height="1027"
     inkscape:window-x="0"
     inkscape:window-y="25"
     inkscape:window-maximized="1"
     inkscape:current-layer="svg30" />
  <defs
     id="defs17">
    <clipPath
       id="a"
       clipPathUnits="userSpaceOnUse">
      <path
         d="M0 0h1280v640H0Z"
         clip-rule="evenodd"
         id="path1" />
    </clipPath>
    <clipPath
       id="d"
       clipPathUnits="userSpaceOnUse">
      <path
         d="M164 0C73.425 0 0 73.425 0 164s73.425 164 164 164 164-73.425 164-164S254.575 0 164 0"
         id="path2" />
    </clipPath>
    <clipPath
       id="c"
       clipPathUnits="userSpaceOnUse">
      <path
         d="M677.846 503.806h327.394V831.2H677.846Z"
         id="path3" />
    </clipPath>
    <clipPath
       id="b"
       clipPathUnits="userSpaceOnUse">
      <path
         d="M0 0h1280v640H0Z"
         clip-rule="evenodd"
         id="path4" />
    </clipPath>
    <clipPath
       id="e"
       clipPathUnits="userSpaceOnUse">
      <path
         d="M309.051 14.1v294.936H15.805V14.1z"
         clip-rule="evenodd"
         id="path5" />
    </clipPath>
    <clipPath
       id="h"
       clipPathUnits="userSpaceOnUse">
      <path
         d="M128 0C57.308 0 0 57.308 0 128s57.308 128 128 128 128-57.308 128-128S198.692 0 128 0"
         id="path6" />
    </clipPath>
    <clipPath
       id="g"
       clipPathUnits="userSpaceOnUse">
      <path
         d="M348.228-62.01h199.65v199.65h-199.65Z"
         id="path7" />
    </clipPath>
    <clipPath
       id="f"
       clipPathUnits="userSpaceOnUse">
      <path
         d="M0 0h1280v640H0Z"
         clip-rule="evenodd"
         id="path8" />
    </clipPath>
    <clipPath
       id="i"
       clipPathUnits="userSpaceOnUse">
      <path
         d="M5.844 65.075h201.3v85.694H5.845z"
         clip-rule="evenodd"
         id="path9" />
    </clipPath>
    <clipPath
       id="j"
       clipPathUnits="userSpaceOnUse">
      <path
         d="M5.844 65.075h201.3v85.694H5.845z"
         clip-rule="evenodd"
         id="path10" />
    </clipPath>
    <clipPath
       id="k"
       clipPathUnits="userSpaceOnUse">
      <path
         d="M5.844 65.075h201.3v85.694H5.845z"
         clip-rule="evenodd"
         id="path11" />
    </clipPath>
    <clipPath
       id="l"
       clipPathUnits="userSpaceOnUse">
      <path
         d="M5.844 65.075h201.3v85.694H5.845z"
         clip-rule="evenodd"
         id="path12" />
    </clipPath>
    <clipPath
       id="m"
       clipPathUnits="userSpaceOnUse">
      <path
         d="M5.844 65.075h201.3v85.694H5.845z"
         clip-rule="evenodd"
         id="path13" />
    </clipPath>
    <clipPath
       id="n"
       clipPathUnits="userSpaceOnUse">
      <path
         d="M5.844 65.075h201.3v85.694H5.845z"
         clip-rule="evenodd"
         id="path14" />
    </clipPath>
    <clipPath
       id="o"
       clipPathUnits="userSpaceOnUse">
      <path
         d="M5.844 65.075h201.3v85.694H5.845z"
         clip-rule="evenodd"
         id="path15" />
    </clipPath>
    <clipPath
       id="p"
       clipPathUnits="userSpaceOnUse">
      <path
         d="m-7.768 65.384 197.363 28.747-17.775 85.003-197.363-28.747z"
         clip-rule="evenodd"
         id="path16" />
    </clipPath>
    <clipPath
       id="q"
       clipPathUnits="userSpaceOnUse">
      <path
         d="M5.844 65.075h201.3v85.694H5.845z"
         clip-rule="evenodd"
         id="path17" />
    </clipPath>
  </defs>
  <path
     d="M0 0h1280v640H0Z"
     clip-path="url(#a)"
     style="fill:#ffc61a;fill-opacity:1;fill-rule:nonzero;stroke:none"
     transform="scale(.93903 .986)"
     id="path18" />
  <g
     clip-path="url(#b)"
     opacity=".15"
     transform="translate(0 -10)"
     id="g20">
    <g
       clip-path="url(#c)"
       id="g19">
      <path
         d="M0 0h328v328H0Z"
         clip-path="url(#d)"
         style="fill:#000;fill-opacity:1;fill-rule:nonzero;stroke:none"
         transform="rotate(-90 754.523 76.677)scale(.99815)"
         id="path19" />
    </g>
  </g>
  <path
     d="M258.4 158.3c-1.8 0-3.3 1.5-3.3 3.4 0 1.8 1.5 3.3 3.4 3.3s3.3-1.5 3.3-3.4c0-1.8-1.5-3.3-3.4-3.3m0 48.2c-1.8 0-3.3 1.5-3.3 3.4 0 1.8 1.5 3.3 3.4 3.3s3.3-1.5 3.3-3.4c0-1.8-1.5-3.3-3.4-3.3m0 48.1c-1.8 0-3.3 1.5-3.3 3.4 0 1.8 1.5 3.3 3.4 3.3s3.3-1.5 3.3-3.4c0-1.8-1.5-3.3-3.4-3.3m0 48.6c-1.6 0-2.8 1.3-2.8 2.9s1.3 2.8 2.9 2.8 2.8-1.3 2.8-2.9-1.3-2.8-2.9-2.8m0-193c-1.8 0-3.3 1.5-3.3 3.3s1.5 3.3 3.3 3.3 3.3-1.5 3.3-3.3c.1-1.8-1.5-3.3-3.3-3.3m0-95.7c-1.6 0-2.8 1.3-2.8 2.9s1.3 2.8 2.9 2.8 2.8-1.3 2.8-2.9-1.3-2.8-2.9-2.8m-95.8 142.4c-2.4 0-4.4 2-4.4 4.4s2 4.4 4.4 4.4 4.4-2 4.4-4.4-2-4.4-4.4-4.4m0 48.8c-2.1 0-3.9 1.8-3.9 3.8 0 2.1 1.8 3.7 3.9 3.7s3.9-1.8 3.9-3.7c0-2.2-1.8-3.8-3.9-3.8q0-.3 0 0m0 48.4c-1.9 0-3.4 1.6-3.4 3.4 0 1.9 1.6 3.4 3.4 3.4s3.4-1.6 3.4-3.4c0-1.9-1.5-3.4-3.4-3.4m0 48.7c-1.6 0-2.9 1.3-2.9 2.9s1.3 2.9 2.9 2.9 2.9-1.3 2.9-2.9-1.3-2.9-2.9-2.9m0-193.4c-2.1 0-3.8 1.8-3.8 3.9s1.8 3.8 3.9 3.8 3.8-1.8 3.8-3.8c0-2.2-1.8-3.9-3.9-3.9q0-.15 0 0m0-95.3c-1.6 0-2.9 1.3-2.9 2.9s1.3 2.9 2.9 2.9 2.9-1.3 2.9-2.9-1.3-2.9-2.9-2.9m-47.9 144.2c-2.1 0-3.9 1.7-3.9 3.8s1.7 3.9 3.8 3.9 3.9-1.7 3.9-3.8-1.7-3.9-3.8-3.9m0 48.1c-2.1 0-3.9 1.7-3.9 3.8s1.7 3.9 3.8 3.9 3.9-1.7 3.9-3.8-1.7-3.9-3.8-3.9m0 48.6c-1.8 0-3.4 1.5-3.4 3.3s1.5 3.4 3.3 3.4 3.4-1.5 3.4-3.3c0-1.9-1.5-3.4-3.3-3.4m0 48.6c-1.6 0-2.9 1.2-2.9 2.8s1.2 2.9 2.8 2.9 2.9-1.2 2.9-2.8-1.2-2.9-2.8-2.9m0-193.4c-2.1 0-3.8 1.7-3.8 3.8s1.7 3.8 3.8 3.8 3.8-1.7 3.8-3.8c0-2-1.7-3.8-3.8-3.8m-47.9 48.6c-1.8 0-3.4 1.5-3.4 3.3s1.5 3.4 3.3 3.4 3.4-1.5 3.4-3.3c.1-1.9-1.5-3.5-3.3-3.4q0-.15 0 0m0 48.1c-1.8 0-3.4 1.5-3.4 3.3s1.5 3.4 3.3 3.4 3.4-1.5 3.4-3.3c.1-1.9-1.5-3.5-3.3-3.4q0-.15 0 0m0 48.1c-1.8 0-3.4 1.5-3.4 3.3s1.5 3.4 3.3 3.4 3.4-1.5 3.4-3.3c.1-1.9-1.5-3.5-3.3-3.4q0-.15 0 0m0 48.6c-1.6 0-2.9 1.2-2.9 2.8s1.2 2.9 2.8 2.9 2.9-1.2 2.9-2.8c.1-1.7-1.2-3-2.8-2.9q0-.15 0 0m143.8-241c-1.8 0-3.4 1.5-3.4 3.3s1.5 3.4 3.3 3.4 3.4-1.5 3.4-3.3c.1-1.9-1.5-3.5-3.3-3.4q0-.15 0 0M114.7 15c-1.6 0-2.9 1.2-2.9 2.8s1.2 2.9 2.8 2.9 2.9-1.2 2.9-2.8c.1-1.7-1.2-3-2.8-2.9q0-.15 0 0M18.9 159.2c-1.6 0-2.9 1.2-2.9 2.8s1.2 2.9 2.8 2.9 2.9-1.2 2.9-2.8-1.2-2.9-2.8-2.9m0 48.1c-1.6 0-2.9 1.2-2.9 2.8s1.2 2.9 2.8 2.9 2.9-1.2 2.9-2.8-1.2-2.9-2.8-2.9m0 48.1c-1.6 0-2.9 1.2-2.9 2.8s1.2 2.9 2.8 2.9 2.9-1.2 2.9-2.8-1.2-2.9-2.8-2.9m0 48.1c-1.6 0-2.9 1.2-2.9 2.8s1.2 2.9 2.8 2.9 2.9-1.2 2.9-2.8-1.2-2.9-2.8-2.9m0-240.4c-1.6 0-2.9 1.3-2.9 2.8s1.3 2.8 2.9 2.8 2.9-1.3 2.9-2.8c-.2-1.6-1.3-2.8-2.9-2.8m0 48.1c-1.6 0-2.9 1.3-2.9 2.8s1.3 2.8 2.9 2.8 2.9-1.3 2.9-2.8c-.2-1.6-1.3-2.8-2.9-2.8m0-96.3c-1.6 0-2.9 1.2-2.9 2.8s1.2 2.9 2.8 2.9 2.9-1.2 2.9-2.8-1.2-2.9-2.8-2.9m191.6 142.9c-2.1 0-3.9 1.7-3.9 3.9s1.7 3.9 3.9 3.9 3.9-1.7 3.9-3.9-1.8-3.9-3.9-3.9m0 48.1c-2.1 0-3.9 1.8-3.9 3.9s1.8 3.9 3.9 3.9 3.9-1.8 3.9-3.9-1.8-3.9-3.9-3.9m0 48.6c-1.9 0-3.4 1.6-3.4 3.4 0 1.9 1.6 3.4 3.4 3.4s3.4-1.6 3.4-3.4-1.5-3.4-3.4-3.4m0 48.7c-1.6 0-2.9 1.3-2.9 2.9s1.3 2.9 2.9 2.9 2.9-1.3 2.9-2.9c0-1.7-1.3-2.9-2.9-2.9m47.9-241c-1.8 0-3.4 1.5-3.4 3.3s1.5 3.3 3.4 3.3 3.4-1.5 3.4-3.3c0-1.9-1.6-3.3-3.4-3.3m-47.9 47.5c-2.1 0-3.8 1.8-3.8 3.9s1.8 3.8 3.9 3.8 3.8-1.8 3.8-3.9-1.8-3.8-3.9-3.8m0-95.3c-1.6 0-2.9 1.3-2.9 2.8 0 1.6 1.3 2.9 2.9 2.9s2.9-1.3 2.9-2.9c0-1.5-1.3-2.8-2.9-2.8m95.8 144.5c-1.6 0-2.8 1.3-2.8 2.9s1.3 2.8 2.9 2.8 2.8-1.3 2.8-2.9-1.3-2.8-2.9-2.8m0 48.1c-1.6 0-2.8 1.3-2.8 2.9s1.3 2.8 2.9 2.8 2.8-1.3 2.8-2.9-1.3-2.8-2.9-2.8m0 48.1c-1.6 0-2.8 1.3-2.8 2.9s1.3 2.8 2.9 2.8 2.8-1.3 2.8-2.9-1.3-2.8-2.9-2.8m0 48.1c-1.6 0-2.8 1.3-2.8 2.9s1.3 2.8 2.9 2.8 2.8-1.3 2.8-2.9-1.3-2.8-2.9-2.8m0-240.5c-1.5 0-2.8 1.3-2.8 2.8s1.3 2.8 2.8 2.8 2.8-1.3 2.8-2.8c.1-1.6-1.3-2.8-2.8-2.8m0-48.2c-1.6 0-2.8 1.3-2.8 2.9s1.3 2.8 2.9 2.8 2.8-1.3 2.8-2.9-1.3-2.8-2.9-2.8M66.8 110.7c-1.9 0-3.3 1.5-3.3 3.3s1.5 3.3 3.3 3.3 3.3-1.5 3.3-3.3c.1-1.9-1.5-3.3-3.3-3.3m0-95.7c-1.6 0-2.9 1.2-2.9 2.8s1.2 2.9 2.8 2.9 2.9-1.2 2.9-2.8c.1-1.7-1.2-3-2.8-2.9q0-.15 0 0m95.9 47.6c-1.8 0-3.4 1.5-3.4 3.3s1.5 3.4 3.3 3.4 3.4-1.5 3.4-3.3c.1-1.9-1.5-3.5-3.3-3.4q0-.15 0 0m-48 0c-1.8 0-3.3 1.4-3.3 3.3 0 1.8 1.4 3.3 3.3 3.3s3.3-1.4 3.3-3.3c.1-1.8-1.4-3.3-3.3-3.3m-47.9 0c-1.9 0-3.3 1.5-3.3 3.3s1.5 3.3 3.3 3.3 3.3-1.5 3.3-3.3c.1-1.9-1.4-3.3-3.3-3.3m239.5 48.2c-1.5 0-2.8 1.3-2.8 2.8s1.3 2.8 2.8 2.8 2.8-1.3 2.8-2.8c.1-1.6-1.3-2.8-2.8-2.8"
     clip-path="url(#e)"
     style="fill:#372a28;fill-opacity:1;fill-rule:nonzero;stroke:none"
     transform="rotate(-90 618.483 -193.69)scale(1.1833)"
     id="path20" />
  <g
     clip-path="url(#f)"
     opacity=".15"
     id="g22">
    <g
       clip-path="url(#g)"
       id="g21">
      <path
         d="M0 0h256v256H0Z"
         clip-path="url(#h)"
         style="fill:#000;fill-opacity:1;fill-rule:nonzero;stroke:none"
         transform="rotate(-90 242.934 -105.294)scale(.77989)"
         id="path21" />
    </g>
  </g>
  <g
     id="g30"
     transform="translate(-54)"
     style="fill:#000000;fill-opacity:1">
    <path
       d="m 24.693,101.37 q -7.116,0 -11.24,4.124 -4.257,4.257 -4.257,10.842 0,6.386 3.99,10.509 3.925,4.123 10.643,4.123 c 3.195,0 5.936,-0.682 8.231,-2.033 -0.99,-1.32 -2.27,-3.363 -2.898,-4.865 l 0.012,-0.064 q -2.183,1.109 -4.88,1.109 -3.525,0 -5.919,-2.262 -2.528,-2.526 -2.528,-6.717 0,-4.057 2.395,-6.452 2.46,-2.46 6.186,-2.46 2.451,0 4.634,1.079 l -0.007,0.032 c 0.627,-1.435 2.107,-3.83 3.075,-5.078 -2.333,-1.254 -4.811,-1.886 -7.437,-1.886"
       clip-path="url(#i)"
       style="fill:#000000;fill-opacity:1;fill-rule:nonzero;stroke:none"
       transform="matrix(1.23696,0,0,1.23696,906.011,395.473)"
       id="path22" />
    <path
       d="m 38.538,105.56 q 4.323,-4.19 10.708,-4.19 6.385,0 10.642,4.19 4.323,4.125 4.323,10.576 0,6.385 -4.323,10.642 -4.257,4.19 -10.642,4.19 -6.385,0 -10.708,-4.19 -4.257,-4.257 -4.257,-10.642 0,-6.45 4.257,-10.575 m 4.656,17.16 q 2.261,2.395 6.052,2.395 3.791,0 6.053,-2.394 2.262,-2.461 2.261,-6.518 0,-4.456 -2.46,-6.718 -2.395,-2.261 -5.854,-2.261 -3.459,0 -5.92,2.261 -2.393,2.262 -2.394,6.718 0,4.056 2.262,6.518"
       clip-path="url(#j)"
       style="fill:#000000;fill-opacity:1;fill-rule:nonzero;stroke:none"
       transform="matrix(1.23696,0,0,1.23696,906.011,395.473)"
       id="path23" />
    <path
       d="M 83.236,101.37 C 69.589,101.472 69.616,109.41 70,130.103 h 6.519 v -14.499 q 0,-4.522 1.795,-6.451 1.464,-1.53 4.058,-1.53 1.218,0.002 2.37,0.498 l 3.595,-5.43 q -2.255,-1.32 -5.1,-1.32"
       clip-path="url(#k)"
       style="fill:#000000;fill-opacity:1;fill-rule:nonzero;stroke:none"
       transform="matrix(1.23696,0,0,1.23696,906.011,395.473)"
       id="path24" />
    <path
       d="m 110.922,105.56 q 4.323,-4.19 10.708,-4.19 6.385,0 10.642,4.19 4.323,4.125 4.323,10.576 0,6.385 -4.323,10.642 -4.257,4.19 -10.642,4.19 -6.385,0 -10.708,-4.19 -4.257,-4.257 -4.257,-10.642 0,-6.45 4.257,-10.575 m 4.656,17.16 q 2.261,2.395 6.052,2.395 3.791,0 6.053,-2.394 2.26,-2.461 2.261,-6.518 0,-4.456 -2.46,-6.718 -2.395,-2.261 -5.854,-2.261 -3.459,0 -5.92,2.261 -2.394,2.262 -2.394,6.718 0,4.056 2.262,6.518"
       clip-path="url(#l)"
       style="fill:#000000;fill-opacity:1;fill-rule:nonzero;stroke:none"
       transform="matrix(1.23696,0,0,1.23696,906.011,395.473)"
       id="path25" />
    <path
       d="m 101.253,101.37 c -13.647,0.102 -13.621,8.04 -13.236,28.733 h 6.518 v -14.499 q 0,-4.522 1.796,-6.451 1.464,-1.53 4.058,-1.53 1.217,0.002 2.37,0.498 l 3.594,-5.43 q -2.253,-1.32 -5.1,-1.32"
       clip-path="url(#m)"
       style="fill:#000000;fill-opacity:1;fill-rule:nonzero;stroke:none"
       transform="matrix(1.23696,0,0,1.23696,906.011,395.473)"
       id="path26" />
    <path
       d="m 38.538,105.56 q 4.323,-4.19 10.708,-4.19 6.385,0 10.642,4.19 4.323,4.125 4.323,10.576 0,6.385 -4.323,10.642 -4.257,4.19 -10.642,4.19 -6.385,0 -10.708,-4.19 -4.257,-4.257 -4.257,-10.642 0,-6.45 4.257,-10.575 m 4.656,17.16 q 2.261,2.395 6.052,2.395 3.791,0 6.053,-2.394 2.262,-2.461 2.261,-6.518 0,-4.456 -2.46,-6.718 -2.395,-2.261 -5.854,-2.261 -3.459,0 -5.92,2.261 -2.393,2.262 -2.394,6.718 0,4.056 2.262,6.518"
       clip-path="url(#n)"
       style="fill:#000000;fill-opacity:1;fill-rule:nonzero;stroke:none"
       transform="matrix(1.23696,0,0,1.23696,906.011,395.473)"
       id="path27" />
    <path
       d="m 191.586,101.37 q -7.115,0 -11.24,4.124 -4.257,4.257 -4.257,10.842 0,6.386 3.99,10.509 3.924,4.123 10.642,4.123 c 3.196,0 5.937,-0.682 8.232,-2.033 a 19.6,19.6 0 0 1 -2.425,-4.233 l -0.462,-0.696 q -2.183,1.108 -4.879,1.109 -3.525,0 -5.92,-2.262 -2.526,-2.527 -2.527,-6.717 0,-4.057 2.395,-6.452 2.46,-2.46 6.185,-2.46 c 1.635,0 4.648,0.668 6.325,4.33 0.876,2.577 4.081,5.453 5.15,4.061 0.92,-11.01 -7.543,-14.245 -11.209,-14.245"
       clip-path="url(#o)"
       style="fill:#000000;fill-opacity:1;fill-rule:nonzero;stroke:none"
       transform="matrix(1.23696,0,0,1.23696,906.011,395.473)"
       id="path28" />
    <path
       d="m 151.12,139.221 h 23.564 v 4.754 H 151.12 Z"
       clip-path="url(#p)"
       style="fill:#000000;fill-opacity:1;fill-rule:nonzero;stroke:none"
       transform="matrix(1.22434,-0.17627,0.25603,1.21017,906.011,395.473)"
       id="path29" />
    <path
       d="m 164.657,83.044 v 20.643 q -3.57,-2.315 -8.315,-2.316 -6.385,0 -10.708,4.19 -4.257,4.124 -4.257,10.575 0,6.386 4.257,10.642 4.323,4.19 10.708,4.19 6.385,0 10.642,-4.19 4.323,-4.256 4.323,-10.642 0,-0.03 -0.002,-0.062 h 0.002 v -33.03 z m -8.315,24.18 q 3.459,0 5.853,2.26 2.46,2.262 2.46,6.719 0,4.057 -2.26,6.518 -2.262,2.394 -6.053,2.394 -3.791,0 -6.053,-2.394 -2.26,-2.46 -2.261,-6.518 0,-4.456 2.395,-6.718 2.46,-2.262 5.92,-2.262"
       clip-path="url(#q)"
       style="fill:#000000;fill-opacity:1;fill-rule:nonzero;stroke:none"
       transform="matrix(1.23696,0,0,1.23696,906.011,395.473)"
       id="path30" />
  </g>
</svg>
