<?xml version="1.0" encoding="UTF-8"?>
<svg version="1.1" viewBox="0 0 1200 630" xmlns="http://www.w3.org/2000/svg"><defs><clipPath id="b"><path transform="scale(.32)" d="m0 0h36000v14400h-36000z" clip-rule="evenodd"/></clipPath><clipPath id="a"><path transform="matrix(0 .0617 -.0617 0 500 -.0573)" d="m0.93 4052c0 2238 1814 4052 4052 4052 2238 0 4052-1814 4052-4052 0-2238-1814-4052-4052-4052-2238 0-4052 1814-4052 4052"/></clipPath><clipPath id="r"><path transform="matrix(0 .0341 -.0341 0 359 -869)" d="m25866 1440h8647v8600h-8647z" clip-rule="evenodd"/></clipPath><clipPath id="q"><path transform="matrix(.32 0 0 .32 0 10.6)" d="m25866 1440h8647v8600h-8647z" clip-rule="evenodd"/></clipPath><clipPath id="p"><path transform="matrix(.32 0 0 .32 0 10.6)" d="m0 0h36000v14400h-36000z" clip-rule="evenodd"/></clipPath><clipPath id="o"><path transform="matrix(0 .101 -.101 0 250 -.0368)" d="m0.363-0.0322c0 1365 1106 2471 2471 2471 1365 0 2471-1106 2471-2471 0-1365-1106-2471-2471-2471-1365 0-2471 1106-2471 2471"/></clipPath><clipPath id="n"><path transform="matrix(.0148 0 0 .0148 -15.5 10.7)" d="m1440 3662h13553v5759h-13553z" clip-rule="evenodd"/></clipPath><clipPath id="m"><path transform="matrix(.0148 0 0 .0148 -15.5 10.7)" d="m1440 3662h13553v5759h-13553z" clip-rule="evenodd"/></clipPath><clipPath id="l"><path transform="matrix(.0148 0 0 .0148 -15.5 10.7)" d="m1440 3662h13553v5759h-13553z" clip-rule="evenodd"/></clipPath><clipPath id="k"><path transform="matrix(.0148 0 0 .0148 -15.5 10.7)" d="m1440 3662h13553v5759h-13553z" clip-rule="evenodd"/></clipPath><clipPath id="j"><path transform="matrix(.0148 0 0 .0148 -15.5 10.7)" d="m1440 3662h13553v5759h-13553z" clip-rule="evenodd"/></clipPath><clipPath id="i"><path transform="matrix(.0148 0 0 .0148 -15.5 10.7)" d="m1440 3662h13553v5759h-13553z" clip-rule="evenodd"/></clipPath><clipPath id="h"><path transform="matrix(.0148 0 0 .0148 -15.5 10.7)" d="m1440 3662h13553v5759h-13553z" clip-rule="evenodd"/></clipPath><clipPath id="g"><path transform="matrix(.0146 .00212 -.00308 .0147 -17.4 8.41)" d="m1440 3662h13553v5759h-13553z" clip-rule="evenodd"/></clipPath><clipPath id="f"><path transform="matrix(.0148 0 0 .0148 -15.5 10.7)" d="m1440 3662h13553v5759h-13553z" clip-rule="evenodd"/></clipPath><clipPath id="e"><g transform="matrix(7.85 0 0 7.85 0 -72.3)"><path d="m0 10.6h1468v587h-1468z" clip-rule="evenodd" stroke-width=".0408"/></g></clipPath><clipPath id="d"><g transform="matrix(7.85 0 0 7.85 0 -72.3)"><path d="m0 10.6h1468v587h-1468z" clip-rule="evenodd" stroke-width=".0408"/></g></clipPath><clipPath id="c"><g transform="matrix(7.85 0 0 7.85 0 -72.3)"><path d="m0 10.6h1468v589h-1468z" clip-rule="evenodd" stroke-width=".0408"/></g></clipPath></defs><path transform="matrix(.104 0 0 .137 0 -.0146)" d="m0 0h11520v4608h-11520z" clip-path="url(#b)" fill="#ffc61a"/><g transform="matrix(.148 0 0 .148 -461 -43.5)" clip-path="url(#c)"><g clip-path="url(#p)"><g clip-path="url(#q)"><path transform="matrix(0 -9.37 9.37 0 8145 3372)" d="m258 158c-1.8 0-3.3 1.5-3.3 3.4 0 1.8 1.5 3.3 3.4 3.3s3.3-1.5 3.3-3.4c0-1.8-1.5-3.3-3.4-3.3zm0 48.2c-1.8 0-3.3 1.5-3.3 3.4 0 1.8 1.5 3.3 3.4 3.3s3.3-1.5 3.3-3.4c0-1.8-1.5-3.3-3.4-3.3zm0 48.1c-1.8 0-3.3 1.5-3.3 3.4 0 1.8 1.5 3.3 3.4 3.3s3.3-1.5 3.3-3.4c0-1.8-1.5-3.3-3.4-3.3zm0 48.6c-1.6 0-2.8 1.3-2.8 2.9 0 1.6 1.3 2.8 2.9 2.8s2.8-1.3 2.8-2.9-1.3-2.8-2.9-2.8zm0-193c-1.8 0-3.3 1.5-3.3 3.3s1.5 3.3 3.3 3.3c1.8 0 3.3-1.5 3.3-3.3 0.1-1.8-1.5-3.3-3.3-3.3zm0-95.7c-1.6 0-2.8 1.3-2.8 2.9s1.3 2.8 2.9 2.8 2.8-1.3 2.8-2.9c0-1.6-1.3-2.8-2.9-2.8zm-95.8 142c-2.4 0-4.4 2-4.4 4.4 0 2.4 2 4.4 4.4 4.4 2.4 0 4.4-2 4.4-4.4 0-2.4-2-4.4-4.4-4.4zm0 48.8c-2.1 0-3.9 1.8-3.9 3.8 0 2.1 1.8 3.7 3.9 3.7 2.1 0 3.9-1.8 3.9-3.7 0-2.2-1.8-3.8-3.9-3.8v0zm0 48.4c-1.9 0-3.4 1.6-3.4 3.4 0 1.9 1.6 3.4 3.4 3.4 1.8 0 3.4-1.6 3.4-3.4 0-1.9-1.5-3.4-3.4-3.4zm0 48.7c-1.6 0-2.9 1.3-2.9 2.9 0 1.6 1.3 2.9 2.9 2.9 1.6 0 2.9-1.3 2.9-2.9 0-1.6-1.3-2.9-2.9-2.9zm0-193c-2.1 0-3.8 1.8-3.8 3.9 0 2.1 1.8 3.8 3.9 3.8 2.1 0 3.8-1.8 3.8-3.8 0-2.2-1.8-3.9-3.9-3.9v0zm0-95.3c-1.6 0-2.9 1.3-2.9 2.9 0 1.6 1.3 2.9 2.9 2.9 1.6 0 2.9-1.3 2.9-2.9s-1.3-2.9-2.9-2.9zm-47.9 144c-2.1 0-3.9 1.7-3.9 3.8 0 2.1 1.7 3.9 3.8 3.9s3.9-1.7 3.9-3.8c0-2.1-1.7-3.9-3.8-3.9zm0 48.1c-2.1 0-3.9 1.7-3.9 3.8 0 2.1 1.7 3.9 3.8 3.9s3.9-1.7 3.9-3.8c0-2.1-1.7-3.9-3.8-3.9zm0 48.6c-1.8 0-3.4 1.5-3.4 3.3s1.5 3.4 3.3 3.4 3.4-1.5 3.4-3.3c0-1.9-1.5-3.4-3.3-3.4zm0 48.6c-1.6 0-2.9 1.2-2.9 2.8 0 1.6 1.2 2.9 2.8 2.9 1.6 0 2.9-1.2 2.9-2.8 0-1.6-1.2-2.9-2.8-2.9zm0-193c-2.1 0-3.8 1.7-3.8 3.8 0 2.1 1.7 3.8 3.8 3.8 2.1 0 3.8-1.7 3.8-3.8 0-2-1.7-3.8-3.8-3.8zm-47.9 48.6c-1.8 0-3.4 1.5-3.4 3.3 0 1.8 1.5 3.4 3.3 3.4s3.4-1.5 3.4-3.3c0.1-1.9-1.5-3.5-3.3-3.4v0zm0 48.1c-1.8 0-3.4 1.5-3.4 3.3 0 1.8 1.5 3.4 3.3 3.4s3.4-1.5 3.4-3.3c0.1-1.9-1.5-3.5-3.3-3.4v0zm0 48.1c-1.8 0-3.4 1.5-3.4 3.3s1.5 3.4 3.3 3.4 3.4-1.5 3.4-3.3c0.1-1.9-1.5-3.5-3.3-3.4v0zm0 48.6c-1.6 0-2.9 1.2-2.9 2.8 0 1.6 1.2 2.9 2.8 2.9 1.6 0 2.9-1.2 2.9-2.8 0.1-1.7-1.2-3-2.8-2.9v0zm144-241c-1.8 0-3.4 1.5-3.4 3.3 0 1.8 1.5 3.4 3.3 3.4 1.8 0 3.4-1.5 3.4-3.3 0.1-1.9-1.5-3.5-3.3-3.4v0zm-95.9-47.6c-1.6 0-2.9 1.2-2.9 2.8 0 1.6 1.2 2.9 2.8 2.9s2.9-1.2 2.9-2.8c0.1-1.7-1.2-3-2.8-2.9v0zm-95.8 144c-1.6 0-2.9 1.2-2.9 2.8s1.2 2.9 2.8 2.9c1.6 0 2.9-1.2 2.9-2.8 2e-6 -1.6-1.2-2.9-2.8-2.9zm0 48.1c-1.6 0-2.9 1.2-2.9 2.8 0 1.6 1.2 2.9 2.8 2.9 1.6 0 2.9-1.2 2.9-2.8 2e-6 -1.6-1.2-2.9-2.8-2.9zm0 48.1c-1.6 0-2.9 1.2-2.9 2.8 0 1.6 1.2 2.9 2.8 2.9 1.6 0 2.9-1.2 2.9-2.8 2e-6 -1.6-1.2-2.9-2.8-2.9zm0 48.1c-1.6 0-2.9 1.2-2.9 2.8 0 1.6 1.2 2.9 2.8 2.9 1.6 0 2.9-1.2 2.9-2.8 2e-6 -1.6-1.2-2.9-2.8-2.9zm0-240c-1.6 0-2.9 1.3-2.9 2.8s1.3 2.8 2.9 2.8c1.6 0 2.9-1.3 2.9-2.8-0.2-1.6-1.3-2.8-2.9-2.8zm0 48.1c-1.6 0-2.9 1.3-2.9 2.8s1.3 2.8 2.9 2.8c1.6 0 2.9-1.3 2.9-2.8-0.2-1.6-1.3-2.8-2.9-2.8zm0-96.3c-1.6 0-2.9 1.2-2.9 2.8 0 1.6 1.2 2.9 2.8 2.9 1.6 0 2.9-1.2 2.9-2.8 2e-6 -1.6-1.2-2.9-2.8-2.9zm192 143c-2.1 0-3.9 1.7-3.9 3.9 0 2.2 1.7 3.9 3.9 3.9s3.9-1.7 3.9-3.9c0-2.2-1.8-3.9-3.9-3.9zm0 48.1c-2.1 0-3.9 1.8-3.9 3.9s1.8 3.9 3.9 3.9 3.9-1.8 3.9-3.9-1.8-3.9-3.9-3.9zm0 48.6c-1.9 0-3.4 1.6-3.4 3.4 0 1.9 1.6 3.4 3.4 3.4s3.4-1.6 3.4-3.4c0-1.8-1.5-3.4-3.4-3.4zm0 48.7c-1.6 0-2.9 1.3-2.9 2.9 0 1.6 1.3 2.9 2.9 2.9s2.9-1.3 2.9-2.9c0-1.7-1.3-2.9-2.9-2.9zm47.9-241c-1.8 0-3.4 1.5-3.4 3.3 0 1.8 1.5 3.3 3.4 3.3 1.9 0 3.4-1.5 3.4-3.3 0-1.9-1.6-3.3-3.4-3.3zm-47.9 47.5c-2.1 0-3.8 1.8-3.8 3.9s1.8 3.8 3.9 3.8c2.1 0 3.8-1.8 3.8-3.9s-1.8-3.8-3.9-3.8zm0-95.3c-1.6 0-2.9 1.3-2.9 2.8 0 1.6 1.3 2.9 2.9 2.9s2.9-1.3 2.9-2.9c0-1.5-1.3-2.8-2.9-2.8zm95.8 144c-1.6 0-2.8 1.3-2.8 2.9 0 1.6 1.3 2.8 2.9 2.8 1.6 0 2.8-1.3 2.8-2.9 3e-5 -1.6-1.3-2.8-2.9-2.8zm0 48.1c-1.6 0-2.8 1.3-2.8 2.9 0 1.6 1.3 2.8 2.9 2.8 1.6 0 2.8-1.3 2.8-2.9 3e-5 -1.6-1.3-2.8-2.9-2.8zm0 48.1c-1.6 0-2.8 1.3-2.8 2.9s1.3 2.8 2.9 2.8c1.6 0 2.8-1.3 2.8-2.9 3e-5 -1.6-1.3-2.8-2.9-2.8zm0 48.1c-1.6 0-2.8 1.3-2.8 2.9 0 1.6 1.3 2.8 2.9 2.8 1.6 0 2.8-1.3 2.8-2.9 3e-5 -1.6-1.3-2.8-2.9-2.8zm0-241c-1.5 0-2.8 1.3-2.8 2.8s1.3 2.8 2.8 2.8 2.8-1.3 2.8-2.8c0.1-1.6-1.3-2.8-2.8-2.8zm0-48.2c-1.6 0-2.8 1.3-2.8 2.9s1.3 2.8 2.9 2.8c1.6 0 2.8-1.3 2.8-2.9 3e-5 -1.6-1.3-2.8-2.9-2.8zm-239 96.2c-1.9 0-3.3 1.5-3.3 3.3s1.5 3.3 3.3 3.3 3.3-1.5 3.3-3.3c0.1-1.9-1.5-3.3-3.3-3.3zm0-95.7c-1.6 0-2.9 1.2-2.9 2.8 0 1.6 1.2 2.9 2.8 2.9 1.6 0 2.9-1.2 2.9-2.8 0.1-1.7-1.2-3-2.8-2.9v0zm95.9 47.6c-1.8 0-3.4 1.5-3.4 3.3 0 1.8 1.5 3.4 3.3 3.4 1.8 0 3.4-1.5 3.4-3.3 0.1-1.9-1.5-3.5-3.3-3.4v0zm-48 0c-1.8 0-3.3 1.4-3.3 3.3 0 1.8 1.4 3.3 3.3 3.3s3.3-1.4 3.3-3.3c0.1-1.8-1.4-3.3-3.3-3.3zm-47.9 0c-1.9 0-3.3 1.5-3.3 3.3 0 1.8 1.5 3.3 3.3 3.3s3.3-1.5 3.3-3.3c0.1-1.9-1.4-3.3-3.3-3.3zm239 48.2c-1.5 0-2.8 1.3-2.8 2.8s1.3 2.8 2.8 2.8 2.8-1.3 2.8-2.8c0.1-1.6-1.3-2.8-2.8-2.8z" clip-path="url(#r)" fill="#372a28"/></g></g></g><g transform="matrix(.127 0 0 .127 -2.64 -1.36)" clip-path="url(#d)" opacity=".149"><path transform="matrix(0 -3.16 3.16 0 3678 801)" d="m0 0h500v500h-500z" clip-path="url(#o)"/></g><g transform="matrix(.559 0 0 .559 832 401)" fill="#372a28"><path transform="matrix(2.75 0 0 2.75 42.6 -18.9)" d="m24.7 101c-4.74 0-8.49 1.37-11.2 4.12-2.84 2.84-4.26 6.45-4.26 10.8 0 4.26 1.33 7.76 3.99 10.5 2.62 2.75 6.16 4.12 10.6 4.12 3.2 0 5.94-0.682 8.23-2.03-0.991-1.32-2.27-3.36-2.9-4.86l0.0116-0.0638c-1.46 0.738-3.08 1.11-4.88 1.11-2.35 0-4.32-0.754-5.92-2.26-1.68-1.68-2.53-3.92-2.53-6.72 0-2.7 0.798-4.86 2.39-6.45 1.64-1.64 3.7-2.46 6.19-2.46 1.63 0 3.18 0.359 4.63 1.08l-0.0064 0.0322c0.627-1.43 2.11-3.83 3.08-5.08-2.33-1.25-4.81-1.89-7.44-1.89z" clip-path="url(#n)"/><path transform="matrix(2.75 0 0 2.75 42.6 -18.9)" d="m38.5 106c2.88-2.79 6.45-4.19 10.7-4.19s7.8 1.4 10.6 4.19c2.88 2.75 4.32 6.27 4.32 10.6 0 4.26-1.44 7.8-4.32 10.6-2.84 2.79-6.39 4.19-10.6 4.19s-7.83-1.4-10.7-4.19c-2.84-2.84-4.26-6.39-4.26-10.6 0-4.3 1.42-7.83 4.26-10.6zm4.66 17.2c1.51 1.6 3.53 2.39 6.05 2.39s4.54-0.798 6.05-2.39c1.51-1.64 2.26-3.81 2.26-6.52 0-2.97-0.82-5.21-2.46-6.72-1.6-1.51-3.55-2.26-5.85-2.26-2.31 0-4.28 0.754-5.92 2.26-1.6 1.51-2.39 3.75-2.39 6.72 0 2.7 0.754 4.88 2.26 6.52z" clip-path="url(#m)"/><path transform="matrix(2.75 0 0 2.75 42.6 -18.9)" d="m83.2 101c-13.6 0.102-13.6 8.04-13.2 28.7h6.52v-14.5c0-3.02 0.598-5.17 1.8-6.45 0.976-1.02 2.33-1.53 4.06-1.53 0.812 0 1.6 0.168 2.37 0.498l3.59-5.43c-1.5-0.879-3.2-1.32-5.1-1.32z" clip-path="url(#l)"/><path transform="matrix(2.75 0 0 2.75 42.6 -18.9)" d="m111 106c2.88-2.79 6.45-4.19 10.7-4.19 4.26 0 7.8 1.4 10.6 4.19 2.88 2.75 4.32 6.27 4.32 10.6 0 4.26-1.44 7.8-4.32 10.6-2.84 2.79-6.39 4.19-10.6 4.19-4.26 0-7.83-1.4-10.7-4.19-2.84-2.84-4.26-6.39-4.26-10.6 0-4.3 1.42-7.83 4.26-10.6zm4.66 17.2c1.51 1.6 3.53 2.39 6.05 2.39 2.53 0 4.54-0.798 6.05-2.39 1.51-1.64 2.26-3.81 2.26-6.52 0-2.97-0.82-5.21-2.46-6.72-1.6-1.51-3.55-2.26-5.85-2.26-2.31 0-4.28 0.754-5.92 2.26-1.6 1.51-2.39 3.75-2.39 6.72 0 2.7 0.754 4.88 2.26 6.52z" clip-path="url(#k)"/><path transform="matrix(2.75 0 0 2.75 42.6 -18.9)" d="m101 101c-13.6 0.102-13.6 8.04-13.2 28.7h6.52v-14.5c0-3.02 0.598-5.17 1.8-6.45 0.976-1.02 2.33-1.53 4.06-1.53 0.812 0 1.6 0.168 2.37 0.498l3.59-5.43c-1.5-0.879-3.2-1.32-5.1-1.32z" clip-path="url(#j)"/><path transform="matrix(2.75 0 0 2.75 42.6 -18.9)" d="m38.5 106c2.88-2.79 6.45-4.19 10.7-4.19s7.8 1.4 10.6 4.19c2.88 2.75 4.32 6.27 4.32 10.6 0 4.26-1.44 7.8-4.32 10.6-2.84 2.79-6.39 4.19-10.6 4.19s-7.83-1.4-10.7-4.19c-2.84-2.84-4.26-6.39-4.26-10.6 0-4.3 1.42-7.83 4.26-10.6zm4.66 17.2c1.51 1.6 3.53 2.39 6.05 2.39s4.54-0.798 6.05-2.39c1.51-1.64 2.26-3.81 2.26-6.52 0-2.97-0.82-5.21-2.46-6.72-1.6-1.51-3.55-2.26-5.85-2.26-2.31 0-4.28 0.754-5.92 2.26-1.6 1.51-2.39 3.75-2.39 6.72 0 2.7 0.754 4.88 2.26 6.52z" clip-path="url(#i)"/><path transform="matrix(2.75 0 0 2.75 42.6 -18.9)" d="m192 101c-4.74 0-8.49 1.37-11.2 4.12-2.84 2.84-4.26 6.45-4.26 10.8 0 4.26 1.33 7.76 3.99 10.5 2.62 2.75 6.16 4.12 10.6 4.12 3.2 0 5.94-0.682 8.23-2.03-0.991-1.32-1.8-2.73-2.42-4.23l-0.462-0.695c-1.46 0.738-3.08 1.11-4.88 1.11-2.35 0-4.32-0.754-5.92-2.26-1.68-1.68-2.53-3.92-2.53-6.72 0-2.7 0.798-4.86 2.39-6.45 1.64-1.64 3.7-2.46 6.19-2.46 1.63 0 4.65 0.668 6.32 4.33 0.876 2.58 4.08 5.45 5.15 4.06 0.919-11-7.54-14.2-11.2-14.2z" clip-path="url(#h)"/><path transform="matrix(2.72 -.391 .569 2.69 42.6 -18.9)" d="m151 139h23.6v4.75h-23.6z" clip-path="url(#g)"/><path transform="matrix(2.75 0 0 2.75 42.6 -18.9)" d="m165 83v20.6c-2.38-1.54-5.15-2.32-8.31-2.32-4.26 0-7.83 1.4-10.7 4.19-2.84 2.75-4.26 6.27-4.26 10.6 0 4.26 1.42 7.8 4.26 10.6 2.88 2.79 6.45 4.19 10.7 4.19 4.26 0 7.8-1.4 10.6-4.19 2.88-2.84 4.32-6.39 4.32-10.6 0-0.0209-1e-3 -0.0411-2e-3 -0.062h2e-3v-33h-6.65zm-8.31 24.2c2.31 0 4.26 0.754 5.85 2.26 1.64 1.51 2.46 3.75 2.46 6.72 0 2.7-0.754 4.88-2.26 6.52-1.51 1.6-3.52 2.39-6.05 2.39-2.53 0-4.55-0.798-6.05-2.39-1.51-1.64-2.26-3.81-2.26-6.52 0-2.97 0.798-5.21 2.39-6.72 1.64-1.51 3.61-2.26 5.92-2.26z" clip-path="url(#f)"/></g><g transform="matrix(.205 0 0 .205 -689 -315)" clip-path="url(#e)" opacity=".149"><path transform="matrix(0 -5.19 5.19 0 6289 6295)" d="m0 0h500v500h-500z" clip-path="url(#a)"/></g><text transform="translate(10.8 55.9)" font-family="Arcon" font-size="192px" style="line-height:0.35;shape-inside:url(#rect1);white-space:pre" xml:space="preserve"><tspan x="45.691406" y="147.64141"><tspan font-family="'Josefin Sans'" font-size="74.7px" font-weight="bold" id="title">Extension Traits in Rust: The Booster Pack for Foreign Types</tspan></text></svg>
