<svg xmlns="http://www.w3.org/2000/svg" width="1200" height="630" viewBox="0 0 1200 630"><defs><clipPath id="a" clipPathUnits="userSpaceOnUse"><path d="M0 0h1280v640H0Z" clip-rule="evenodd"/></clipPath><clipPath id="d" clipPathUnits="userSpaceOnUse"><path d="M164 0C73.425 0 0 73.425 0 164s73.425 164 164 164 164-73.425 164-164S254.575 0 164 0"/></clipPath><clipPath id="c" clipPathUnits="userSpaceOnUse"><path d="M677.846 503.806h327.394V831.2H677.846Z"/></clipPath><clipPath id="b" clipPathUnits="userSpaceOnUse"><path d="M0 0h1280v640H0Z" clip-rule="evenodd"/></clipPath><clipPath id="e" clipPathUnits="userSpaceOnUse"><path d="M309.051 14.1v294.936H15.805V14.1z" clip-rule="evenodd"/></clipPath><clipPath id="h" clipPathUnits="userSpaceOnUse"><path d="M128 0C57.308 0 0 57.308 0 128s57.308 128 128 128 128-57.308 128-128S198.692 0 128 0"/></clipPath><clipPath id="g" clipPathUnits="userSpaceOnUse"><path d="M348.228-62.01h199.65v199.65h-199.65Z"/></clipPath><clipPath id="f" clipPathUnits="userSpaceOnUse"><path d="M0 0h1280v640H0Z" clip-rule="evenodd"/></clipPath><clipPath id="i" clipPathUnits="userSpaceOnUse"><path d="M5.844 65.075h201.3v85.694H5.845z" clip-rule="evenodd"/></clipPath><clipPath id="j" clipPathUnits="userSpaceOnUse"><path d="M5.844 65.075h201.3v85.694H5.845z" clip-rule="evenodd"/></clipPath><clipPath id="k" clipPathUnits="userSpaceOnUse"><path d="M5.844 65.075h201.3v85.694H5.845z" clip-rule="evenodd"/></clipPath><clipPath id="l" clipPathUnits="userSpaceOnUse"><path d="M5.844 65.075h201.3v85.694H5.845z" clip-rule="evenodd"/></clipPath><clipPath id="m" clipPathUnits="userSpaceOnUse"><path d="M5.844 65.075h201.3v85.694H5.845z" clip-rule="evenodd"/></clipPath><clipPath id="n" clipPathUnits="userSpaceOnUse"><path d="M5.844 65.075h201.3v85.694H5.845z" clip-rule="evenodd"/></clipPath><clipPath id="o" clipPathUnits="userSpaceOnUse"><path d="M5.844 65.075h201.3v85.694H5.845z" clip-rule="evenodd"/></clipPath><clipPath id="p" clipPathUnits="userSpaceOnUse"><path d="m-7.768 65.384 197.363 28.747-17.775 85.003-197.363-28.747z" clip-rule="evenodd"/></clipPath><clipPath id="q" clipPathUnits="userSpaceOnUse"><path d="M5.844 65.075h201.3v85.694H5.845z" clip-rule="evenodd"/></clipPath></defs><path d="M0 0h1280v640H0Z" clip-path="url(#a)" style="fill:#ffc61a;fill-opacity:1;fill-rule:nonzero;stroke:none" transform="scale(.93903 .986)"/><g clip-path="url(#b)" opacity=".15" transform="translate(0 -10)"><g clip-path="url(#c)"><path d="M0 0h328v328H0Z" clip-path="url(#d)" style="fill:#000;fill-opacity:1;fill-rule:nonzero;stroke:none" transform="rotate(-90 754.523 76.677)scale(.99815)"/></g></g><path d="M258.4 158.3c-1.8 0-3.3 1.5-3.3 3.4 0 1.8 1.5 3.3 3.4 3.3s3.3-1.5 3.3-3.4c0-1.8-1.5-3.3-3.4-3.3m0 48.2c-1.8 0-3.3 1.5-3.3 3.4 0 1.8 1.5 3.3 3.4 3.3s3.3-1.5 3.3-3.4c0-1.8-1.5-3.3-3.4-3.3m0 48.1c-1.8 0-3.3 1.5-3.3 3.4 0 1.8 1.5 3.3 3.4 3.3s3.3-1.5 3.3-3.4c0-1.8-1.5-3.3-3.4-3.3m0 48.6c-1.6 0-2.8 1.3-2.8 2.9s1.3 2.8 2.9 2.8 2.8-1.3 2.8-2.9-1.3-2.8-2.9-2.8m0-193c-1.8 0-3.3 1.5-3.3 3.3s1.5 3.3 3.3 3.3 3.3-1.5 3.3-3.3c.1-1.8-1.5-3.3-3.3-3.3m0-95.7c-1.6 0-2.8 1.3-2.8 2.9s1.3 2.8 2.9 2.8 2.8-1.3 2.8-2.9-1.3-2.8-2.9-2.8m-95.8 142.4c-2.4 0-4.4 2-4.4 4.4s2 4.4 4.4 4.4 4.4-2 4.4-4.4-2-4.4-4.4-4.4m0 48.8c-2.1 0-3.9 1.8-3.9 3.8 0 2.1 1.8 3.7 3.9 3.7s3.9-1.8 3.9-3.7c0-2.2-1.8-3.8-3.9-3.8q0-.3 0 0m0 48.4c-1.9 0-3.4 1.6-3.4 3.4 0 1.9 1.6 3.4 3.4 3.4s3.4-1.6 3.4-3.4c0-1.9-1.5-3.4-3.4-3.4m0 48.7c-1.6 0-2.9 1.3-2.9 2.9s1.3 2.9 2.9 2.9 2.9-1.3 2.9-2.9-1.3-2.9-2.9-2.9m0-193.4c-2.1 0-3.8 1.8-3.8 3.9s1.8 3.8 3.9 3.8 3.8-1.8 3.8-3.8c0-2.2-1.8-3.9-3.9-3.9q0-.15 0 0m0-95.3c-1.6 0-2.9 1.3-2.9 2.9s1.3 2.9 2.9 2.9 2.9-1.3 2.9-2.9-1.3-2.9-2.9-2.9m-47.9 144.2c-2.1 0-3.9 1.7-3.9 3.8s1.7 3.9 3.8 3.9 3.9-1.7 3.9-3.8-1.7-3.9-3.8-3.9m0 48.1c-2.1 0-3.9 1.7-3.9 3.8s1.7 3.9 3.8 3.9 3.9-1.7 3.9-3.8-1.7-3.9-3.8-3.9m0 48.6c-1.8 0-3.4 1.5-3.4 3.3s1.5 3.4 3.3 3.4 3.4-1.5 3.4-3.3c0-1.9-1.5-3.4-3.3-3.4m0 48.6c-1.6 0-2.9 1.2-2.9 2.8s1.2 2.9 2.8 2.9 2.9-1.2 2.9-2.8-1.2-2.9-2.8-2.9m0-193.4c-2.1 0-3.8 1.7-3.8 3.8s1.7 3.8 3.8 3.8 3.8-1.7 3.8-3.8c0-2-1.7-3.8-3.8-3.8m-47.9 48.6c-1.8 0-3.4 1.5-3.4 3.3s1.5 3.4 3.3 3.4 3.4-1.5 3.4-3.3c.1-1.9-1.5-3.5-3.3-3.4q0-.15 0 0m0 48.1c-1.8 0-3.4 1.5-3.4 3.3s1.5 3.4 3.3 3.4 3.4-1.5 3.4-3.3c.1-1.9-1.5-3.5-3.3-3.4q0-.15 0 0m0 48.1c-1.8 0-3.4 1.5-3.4 3.3s1.5 3.4 3.3 3.4 3.4-1.5 3.4-3.3c.1-1.9-1.5-3.5-3.3-3.4q0-.15 0 0m0 48.6c-1.6 0-2.9 1.2-2.9 2.8s1.2 2.9 2.8 2.9 2.9-1.2 2.9-2.8c.1-1.7-1.2-3-2.8-2.9q0-.15 0 0m143.8-241c-1.8 0-3.4 1.5-3.4 3.3s1.5 3.4 3.3 3.4 3.4-1.5 3.4-3.3c.1-1.9-1.5-3.5-3.3-3.4q0-.15 0 0M114.7 15c-1.6 0-2.9 1.2-2.9 2.8s1.2 2.9 2.8 2.9 2.9-1.2 2.9-2.8c.1-1.7-1.2-3-2.8-2.9q0-.15 0 0M18.9 159.2c-1.6 0-2.9 1.2-2.9 2.8s1.2 2.9 2.8 2.9 2.9-1.2 2.9-2.8-1.2-2.9-2.8-2.9m0 48.1c-1.6 0-2.9 1.2-2.9 2.8s1.2 2.9 2.8 2.9 2.9-1.2 2.9-2.8-1.2-2.9-2.8-2.9m0 48.1c-1.6 0-2.9 1.2-2.9 2.8s1.2 2.9 2.8 2.9 2.9-1.2 2.9-2.8-1.2-2.9-2.8-2.9m0 48.1c-1.6 0-2.9 1.2-2.9 2.8s1.2 2.9 2.8 2.9 2.9-1.2 2.9-2.8-1.2-2.9-2.8-2.9m0-240.4c-1.6 0-2.9 1.3-2.9 2.8s1.3 2.8 2.9 2.8 2.9-1.3 2.9-2.8c-.2-1.6-1.3-2.8-2.9-2.8m0 48.1c-1.6 0-2.9 1.3-2.9 2.8s1.3 2.8 2.9 2.8 2.9-1.3 2.9-2.8c-.2-1.6-1.3-2.8-2.9-2.8m0-96.3c-1.6 0-2.9 1.2-2.9 2.8s1.2 2.9 2.8 2.9 2.9-1.2 2.9-2.8-1.2-2.9-2.8-2.9m191.6 142.9c-2.1 0-3.9 1.7-3.9 3.9s1.7 3.9 3.9 3.9 3.9-1.7 3.9-3.9-1.8-3.9-3.9-3.9m0 48.1c-2.1 0-3.9 1.8-3.9 3.9s1.8 3.9 3.9 3.9 3.9-1.8 3.9-3.9-1.8-3.9-3.9-3.9m0 48.6c-1.9 0-3.4 1.6-3.4 3.4 0 1.9 1.6 3.4 3.4 3.4s3.4-1.6 3.4-3.4-1.5-3.4-3.4-3.4m0 48.7c-1.6 0-2.9 1.3-2.9 2.9s1.3 2.9 2.9 2.9 2.9-1.3 2.9-2.9c0-1.7-1.3-2.9-2.9-2.9m47.9-241c-1.8 0-3.4 1.5-3.4 3.3s1.5 3.3 3.4 3.3 3.4-1.5 3.4-3.3c0-1.9-1.6-3.3-3.4-3.3m-47.9 47.5c-2.1 0-3.8 1.8-3.8 3.9s1.8 3.8 3.9 3.8 3.8-1.8 3.8-3.9-1.8-3.8-3.9-3.8m0-95.3c-1.6 0-2.9 1.3-2.9 2.8 0 1.6 1.3 2.9 2.9 2.9s2.9-1.3 2.9-2.9c0-1.5-1.3-2.8-2.9-2.8m95.8 144.5c-1.6 0-2.8 1.3-2.8 2.9s1.3 2.8 2.9 2.8 2.8-1.3 2.8-2.9-1.3-2.8-2.9-2.8m0 48.1c-1.6 0-2.8 1.3-2.8 2.9s1.3 2.8 2.9 2.8 2.8-1.3 2.8-2.9-1.3-2.8-2.9-2.8m0 48.1c-1.6 0-2.8 1.3-2.8 2.9s1.3 2.8 2.9 2.8 2.8-1.3 2.8-2.9-1.3-2.8-2.9-2.8m0 48.1c-1.6 0-2.8 1.3-2.8 2.9s1.3 2.8 2.9 2.8 2.8-1.3 2.8-2.9-1.3-2.8-2.9-2.8m0-240.5c-1.5 0-2.8 1.3-2.8 2.8s1.3 2.8 2.8 2.8 2.8-1.3 2.8-2.8c.1-1.6-1.3-2.8-2.8-2.8m0-48.2c-1.6 0-2.8 1.3-2.8 2.9s1.3 2.8 2.9 2.8 2.8-1.3 2.8-2.9-1.3-2.8-2.9-2.8M66.8 110.7c-1.9 0-3.3 1.5-3.3 3.3s1.5 3.3 3.3 3.3 3.3-1.5 3.3-3.3c.1-1.9-1.5-3.3-3.3-3.3m0-95.7c-1.6 0-2.9 1.2-2.9 2.8s1.2 2.9 2.8 2.9 2.9-1.2 2.9-2.8c.1-1.7-1.2-3-2.8-2.9q0-.15 0 0m95.9 47.6c-1.8 0-3.4 1.5-3.4 3.3s1.5 3.4 3.3 3.4 3.4-1.5 3.4-3.3c.1-1.9-1.5-3.5-3.3-3.4q0-.15 0 0m-48 0c-1.8 0-3.3 1.4-3.3 3.3 0 1.8 1.4 3.3 3.3 3.3s3.3-1.4 3.3-3.3c.1-1.8-1.4-3.3-3.3-3.3m-47.9 0c-1.9 0-3.3 1.5-3.3 3.3s1.5 3.3 3.3 3.3 3.3-1.5 3.3-3.3c.1-1.9-1.4-3.3-3.3-3.3m239.5 48.2c-1.5 0-2.8 1.3-2.8 2.8s1.3 2.8 2.8 2.8 2.8-1.3 2.8-2.8c.1-1.6-1.3-2.8-2.8-2.8" clip-path="url(#e)" style="fill:#372a28;fill-opacity:1;fill-rule:nonzero;stroke:none" transform="rotate(-90 618.483 -193.69)scale(1.1833)"/><g clip-path="url(#f)" opacity=".15"><g clip-path="url(#g)"><path d="M0 0h256v256H0Z" clip-path="url(#h)" style="fill:#000;fill-opacity:1;fill-rule:nonzero;stroke:none" transform="rotate(-90 242.934 -105.294)scale(.77989)"/></g></g><path d="M24.693 101.37q-7.116 0-11.24 4.124-4.257 4.257-4.257 10.842 0 6.386 3.99 10.509 3.925 4.123 10.643 4.123c3.195 0 5.936-.682 8.231-2.033-.99-1.32-2.27-3.363-2.898-4.865l.012-.064q-2.183 1.109-4.88 1.109-3.525 0-5.919-2.262-2.528-2.526-2.528-6.717 0-4.057 2.395-6.452 2.46-2.46 6.186-2.46 2.451 0 4.634 1.079l-.007.032c.627-1.435 2.107-3.83 3.075-5.078-2.333-1.254-4.811-1.886-7.437-1.886" clip-path="url(#i)" style="fill:#372a28;fill-opacity:1;fill-rule:nonzero;stroke:none" transform="translate(906.011 395.473)scale(1.23696)"/><path d="M38.538 105.56q4.323-4.19 10.708-4.19t10.642 4.19q4.323 4.125 4.323 10.576 0 6.385-4.323 10.642-4.257 4.19-10.642 4.19t-10.708-4.19q-4.257-4.257-4.257-10.642 0-6.45 4.257-10.575m4.656 17.16q2.261 2.395 6.052 2.395t6.053-2.394q2.262-2.461 2.261-6.518 0-4.456-2.46-6.718-2.395-2.261-5.854-2.261t-5.92 2.261q-2.393 2.262-2.394 6.718 0 4.056 2.262 6.518" clip-path="url(#j)" style="fill:#372a28;fill-opacity:1;fill-rule:nonzero;stroke:none" transform="translate(906.011 395.473)scale(1.23696)"/><path d="M83.236 101.37c-13.647.102-13.62 8.04-13.236 28.733h6.519v-14.499q0-4.522 1.795-6.451 1.464-1.53 4.058-1.53 1.218.002 2.37.498l3.595-5.43q-2.255-1.32-5.1-1.32" clip-path="url(#k)" style="fill:#372a28;fill-opacity:1;fill-rule:nonzero;stroke:none" transform="translate(906.011 395.473)scale(1.23696)"/><path d="M110.922 105.56q4.323-4.19 10.708-4.19t10.642 4.19q4.323 4.125 4.323 10.576 0 6.385-4.323 10.642-4.257 4.19-10.642 4.19t-10.708-4.19q-4.257-4.257-4.257-10.642 0-6.45 4.257-10.575m4.656 17.16q2.261 2.395 6.052 2.395t6.053-2.394q2.26-2.461 2.261-6.518 0-4.456-2.46-6.718-2.395-2.261-5.854-2.261t-5.92 2.261q-2.394 2.262-2.394 6.718 0 4.056 2.262 6.518" clip-path="url(#l)" style="fill:#372a28;fill-opacity:1;fill-rule:nonzero;stroke:none" transform="translate(906.011 395.473)scale(1.23696)"/><path d="M101.253 101.37c-13.647.102-13.621 8.04-13.236 28.733h6.518v-14.499q0-4.522 1.796-6.451 1.464-1.53 4.058-1.53 1.217.002 2.37.498l3.594-5.43q-2.253-1.32-5.1-1.32" clip-path="url(#m)" style="fill:#372a28;fill-opacity:1;fill-rule:nonzero;stroke:none" transform="translate(906.011 395.473)scale(1.23696)"/><path d="M38.538 105.56q4.323-4.19 10.708-4.19t10.642 4.19q4.323 4.125 4.323 10.576 0 6.385-4.323 10.642-4.257 4.19-10.642 4.19t-10.708-4.19q-4.257-4.257-4.257-10.642 0-6.45 4.257-10.575m4.656 17.16q2.261 2.395 6.052 2.395t6.053-2.394q2.262-2.461 2.261-6.518 0-4.456-2.46-6.718-2.395-2.261-5.854-2.261t-5.92 2.261q-2.393 2.262-2.394 6.718 0 4.056 2.262 6.518" clip-path="url(#n)" style="fill:#372a28;fill-opacity:1;fill-rule:nonzero;stroke:none" transform="translate(906.011 395.473)scale(1.23696)"/><path d="M191.586 101.37q-7.115 0-11.24 4.124-4.257 4.257-4.257 10.842 0 6.386 3.99 10.509 3.924 4.123 10.642 4.123c3.196 0 5.937-.682 8.232-2.033a19.6 19.6 0 0 1-2.425-4.233l-.462-.696q-2.183 1.108-4.879 1.109-3.525 0-5.92-2.262-2.526-2.527-2.527-6.717 0-4.057 2.395-6.452 2.46-2.46 6.185-2.46c1.635 0 4.648.668 6.325 4.33.876 2.577 4.081 5.453 5.15 4.061.92-11.01-7.543-14.245-11.209-14.245" clip-path="url(#o)" style="fill:#372a28;fill-opacity:1;fill-rule:nonzero;stroke:none" transform="translate(906.011 395.473)scale(1.23696)"/><path d="M151.12 139.221h23.564v4.754H151.12z" clip-path="url(#p)" style="fill:#372a28;fill-opacity:1;fill-rule:nonzero;stroke:none" transform="matrix(1.22434 -.17627 .25603 1.21017 906.011 395.473)"/><path d="M164.657 83.044v20.643q-3.57-2.315-8.315-2.316-6.385 0-10.708 4.19-4.257 4.124-4.257 10.575 0 6.386 4.257 10.642 4.323 4.19 10.708 4.19t10.642-4.19q4.323-4.256 4.323-10.642 0-.03-.002-.062h.002v-33.03zm-8.315 24.18q3.459 0 5.853 2.26 2.46 2.262 2.46 6.719 0 4.057-2.26 6.518-2.262 2.394-6.053 2.394t-6.053-2.394q-2.26-2.46-2.261-6.518 0-4.456 2.395-6.718 2.46-2.262 5.92-2.262" clip-path="url(#q)" style="fill:#372a28;fill-opacity:1;fill-rule:nonzero;stroke:none" transform="translate(906.011 395.473)scale(1.23696)"/></svg>