<?xml version="1.0" encoding="UTF-8" standalone="no"?>
<!-- Created with Inkscape (http://www.inkscape.org/) -->

<svg
   version="1.1"
   id="svg1"
   width="1200"
   height="630"
   viewBox="0 0 1200 630"
   sodipodi:docname="social-post.svg"
   inkscape:export-filename="corrode.png"
   inkscape:export-xdpi="95.669998"
   inkscape:export-ydpi="95.669998"
   inkscape:version="1.3 (0e150ed, 2023-07-21)"
   xmlns:inkscape="http://www.inkscape.org/namespaces/inkscape"
   xmlns:sodipodi="http://sodipodi.sourceforge.net/DTD/sodipodi-0.dtd"
   xmlns="http://www.w3.org/2000/svg"
   xmlns:svg="http://www.w3.org/2000/svg">
  <defs
     id="defs1">
    <rect
       x="45.690864"
       y="56.441655"
       width="677.29987"
       height="529.47648"
       id="rect1" />
    <clipPath
       clipPathUnits="userSpaceOnUse"
       id="clipPath2">
      <path
         d="M 0,0 H 36000 V 14431.25 H 0 Z"
         transform="scale(0.31999999)"
         clip-rule="evenodd"
         id="path2" />
    </clipPath>
    <clipPath
       clipPathUnits="userSpaceOnUse"
       id="clipPath4">
      <path
         d="M 0,0 H 36000 V 14400 H 0 Z"
         transform="scale(0.31999999)"
         clip-rule="evenodd"
         id="path4" />
    </clipPath>
    <clipPath
       clipPathUnits="userSpaceOnUse"
       id="clipPath6">
      <path
         d="M 0,0 H 36000 V 14400 H 0 Z"
         transform="scale(0.31999999)"
         clip-rule="evenodd"
         id="path6" />
    </clipPath>
    <clipPath
       clipPathUnits="userSpaceOnUse"
       id="clipPath7">
      <path
         d="m 0.9296875,4052.4807 c 0,2237.9988 1814.2566125,4052.2556 4052.2556125,4052.2556 2237.9993,0 4052.2556,-1814.2568 4052.2556,-4052.2556 C 8105.4409,1814.4814 6291.1846,0.22509766 4053.1853,0.22509766 1815.1863,0.22509766 0.9296875,1814.4814 0.9296875,4052.4807"
         transform="matrix(0,0.06169403,-0.06169403,0,500.01388,-0.05734886)"
         id="path7" />
    </clipPath>
    <clipPath
       clipPathUnits="userSpaceOnUse"
       id="clipPath8">
      <path
         d="M 0.9296875,0.22509766 H 8105.4409 V 8104.7363 H 0.9296875 Z"
         transform="matrix(0.31999999,0,0,0.31999999,6288.9597,3701.76)"
         id="path8" />
    </clipPath>
    <clipPath
       clipPathUnits="userSpaceOnUse"
       id="clipPath11">
      <path
         d="m 25865.566,1440.0986 h 8646.875 v 8600.0004 h -8646.875 z"
         transform="matrix(0,0.03413951,-0.03413835,0,358.55749,-868.93765)"
         clip-rule="evenodd"
         id="path11" />
    </clipPath>
    <clipPath
       clipPathUnits="userSpaceOnUse"
       id="clipPath12">
      <path
         d="m 25865.566,1440.0986 h 8646.875 v 8600.0004 h -8646.875 z"
         transform="matrix(0.31999999,0,0,0.31999999,0,10.560167)"
         clip-rule="evenodd"
         id="path12" />
    </clipPath>
    <clipPath
       clipPathUnits="userSpaceOnUse"
       id="clipPath13">
      <path
         d="M 0,0 H 36000 V 14400 H 0 Z"
         transform="matrix(0.31999999,0,0,0.31999999,0,10.560167)"
         clip-rule="evenodd"
         id="path13" />
    </clipPath>
    <clipPath
       clipPathUnits="userSpaceOnUse"
       id="clipPath14">
      <path
         d="M 0,0 H 36000 V 14400 H 0 Z"
         transform="matrix(0.31999999,0,0,0.31999999,0,10.560167)"
         clip-rule="evenodd"
         id="path14" />
    </clipPath>
    <clipPath
       clipPathUnits="userSpaceOnUse"
       id="clipPath19">
      <path
         d="M 0.36328125,-0.03222656 C 0.36328125,1364.7377 1106.7277,2471.1021 2471.4976,2471.1021 3836.2673,2471.1021 4942.6318,1364.7377 4942.6318,-0.03222656 4942.6318,-1364.802 3836.2673,-2471.1665 2471.4976,-2471.1665 1106.7277,-2471.1665 0.36328125,-1364.802 0.36328125,-0.03222656"
         transform="matrix(0,0.10116812,-0.10116812,0,249.99676,-0.03675351)"
         id="path19" />
    </clipPath>
    <clipPath
       clipPathUnits="userSpaceOnUse"
       id="clipPath20">
      <path
         d="M 0.36328125,-2471.1665 H 4942.6319 V 2471.1021 H 0.36328125 Z"
         transform="matrix(0.31999999,0,0,0.31999999,3678.0798,10.560167)"
         id="path20" />
    </clipPath>
    <clipPath
       clipPathUnits="userSpaceOnUse"
       id="clipPath24">
      <path
         d="M 1440,3662.5 H 14993.125 V 9421.875 H 1440 Z"
         transform="matrix(0.01484225,0,0,0.01484397,-15.520756,10.708954)"
         clip-rule="evenodd"
         id="path24" />
    </clipPath>
    <clipPath
       clipPathUnits="userSpaceOnUse"
       id="clipPath26">
      <path
         d="M 1440,3662.5 H 14993.125 V 9421.875 H 1440 Z"
         transform="matrix(0.01484225,0,0,0.01484397,-15.520756,10.708954)"
         clip-rule="evenodd"
         id="path26" />
    </clipPath>
    <clipPath
       clipPathUnits="userSpaceOnUse"
       id="clipPath28">
      <path
         d="M 1440,3662.5 H 14993.125 V 9421.875 H 1440 Z"
         transform="matrix(0.01484225,0,0,0.01484397,-15.520756,10.708954)"
         clip-rule="evenodd"
         id="path28" />
    </clipPath>
    <clipPath
       clipPathUnits="userSpaceOnUse"
       id="clipPath30">
      <path
         d="M 1440,3662.5 H 14993.125 V 9421.875 H 1440 Z"
         transform="matrix(0.01484225,0,0,0.01484397,-15.520756,10.708954)"
         clip-rule="evenodd"
         id="path30" />
    </clipPath>
    <clipPath
       clipPathUnits="userSpaceOnUse"
       id="clipPath32">
      <path
         d="M 1440,3662.5 H 14993.125 V 9421.875 H 1440 Z"
         transform="matrix(0.01484225,0,0,0.01484397,-15.520756,10.708954)"
         clip-rule="evenodd"
         id="path32" />
    </clipPath>
    <clipPath
       clipPathUnits="userSpaceOnUse"
       id="clipPath34">
      <path
         d="M 1440,3662.5 H 14993.125 V 9421.875 H 1440 Z"
         transform="matrix(0.01484225,0,0,0.01484397,-15.520756,10.708954)"
         clip-rule="evenodd"
         id="path34" />
    </clipPath>
    <clipPath
       clipPathUnits="userSpaceOnUse"
       id="clipPath36">
      <path
         d="M 1440,3662.5 H 14993.125 V 9421.875 H 1440 Z"
         transform="matrix(0.01484225,0,0,0.01484397,-15.520756,10.708954)"
         clip-rule="evenodd"
         id="path36" />
    </clipPath>
    <clipPath
       clipPathUnits="userSpaceOnUse"
       id="clipPath38">
      <path
         d="M 1440,3662.5 H 14993.125 V 9421.875 H 1440 Z"
         transform="matrix(0.01455197,0.00211957,-0.00307901,0.01472414,-17.438511,8.4060412)"
         clip-rule="evenodd"
         id="path38" />
    </clipPath>
    <clipPath
       clipPathUnits="userSpaceOnUse"
       id="clipPath40">
      <path
         d="M 1440,3662.5 H 14993.125 V 9421.875 H 1440 Z"
         transform="matrix(0.01484225,0,0,0.01484397,-15.520756,10.708954)"
         clip-rule="evenodd"
         id="path40" />
    </clipPath>
    <clipPath
       clipPathUnits="userSpaceOnUse"
       id="clipPath42">
      <path
         d="M 0,0 H 36000 V 14400 H 0 Z"
         transform="matrix(0.147637,0,0,0.147637,-250.38076,-1484.9142)"
         clip-rule="evenodd"
         id="path42" />
    </clipPath>
    <clipPath
       clipPathUnits="userSpaceOnUse"
       id="clipPath43">
      <g
         id="g43"
         transform="matrix(7.8468847,0,0,7.8468847,0,-72.304246)">
        <path
           d="M 0,10.560167 H 1468.0985 V 597.79957 H 0 Z"
           clip-rule="evenodd"
           id="path43"
           style="stroke-width:0.0407805" />
      </g>
    </clipPath>
    <clipPath
       clipPathUnits="userSpaceOnUse"
       id="clipPath44">
      <g
         id="g45"
         transform="matrix(7.8468847,0,0,7.8468847,0,-72.304246)">
        <path
           d="M 0,10.560167 H 1468.0985 V 597.79957 H 0 Z"
           clip-rule="evenodd"
           id="path44"
           style="stroke-width:0.0407805" />
      </g>
    </clipPath>
    <clipPath
       clipPathUnits="userSpaceOnUse"
       id="clipPath46">
      <g
         id="g47"
         transform="matrix(7.8468847,0,0,7.8468847,0,-72.304246)">
        <path
           d="M 0,10.560167 H 1468.0985 V 599.07396 H 0 Z"
           clip-rule="evenodd"
           id="path46"
           style="stroke-width:0.0407805" />
      </g>
    </clipPath>
  </defs>
  <sodipodi:namedview
     id="namedview1"
     pagecolor="#ffffff"
     bordercolor="#666666"
     borderopacity="1.0"
     inkscape:showpageshadow="2"
     inkscape:pageopacity="0.0"
     inkscape:pagecheckerboard="0"
     inkscape:deskcolor="#d1d1d1"
     inkscape:zoom="0.37206563"
     inkscape:cx="575.16735"
     inkscape:cy="330.58684"
     inkscape:window-width="1920"
     inkscape:window-height="1027"
     inkscape:window-x="1728"
     inkscape:window-y="25"
     inkscape:window-maximized="1"
     inkscape:current-layer="g1">
    <inkscape:page
       x="0"
       y="0"
       inkscape:label="1"
       id="page1"
       width="1200"
       height="630"
       margin="0"
       bleed="0"
       inkscape:export-filename="social.png"
       inkscape:export-xdpi="95.669998"
       inkscape:export-ydpi="95.669998" />
  </sodipodi:namedview>
  <g
     id="g1"
     inkscape:groupmode="layer"
     inkscape:label="1">
    <g
       id="g40" />
    <path
       id="path5"
       d="M 0,0 H 11520 V 4608 H 0 Z"
       style="fill:#ffc61a;fill-opacity:1;fill-rule:nonzero;stroke:none"
       transform="matrix(0.10416667,0,0,0.13671875,0,-0.01461112)"
       clip-path="url(#clipPath6)" />
    <g
       clip-path="url(#clipPath46)"
       id="g17"
       transform="matrix(0.14773025,0,0,0.14773025,-460.61061,-43.471798)">
      <g
         clip-path="url(#clipPath13)"
         id="g16">
        <g
           clip-path="url(#clipPath12)"
           id="g15">
          <path
             d="m 258.39999,158.3 c -1.79998,0 -3.3,1.5 -3.3,3.4 0,1.8 1.49999,3.3 3.40001,3.3 1.90002,0 3.29999,-1.5 3.29999,-3.39999 0,-1.80001 -1.5,-3.30001 -3.4,-3.30001 z m 0,48.2 c -1.79998,0 -3.3,1.5 -3.3,3.39999 0,1.80001 1.49999,3.30001 3.40001,3.30001 1.90002,0 3.29999,-1.5 3.29999,-3.4 0,-1.8 -1.5,-3.3 -3.4,-3.3 z m 0,48.10001 c -1.79998,0 -3.3,1.5 -3.3,3.39999 0,1.79999 1.49999,3.29999 3.40001,3.29999 1.90002,0 3.29999,-1.5 3.29999,-3.4 0,-1.79998 -1.5,-3.29998 -3.4,-3.29998 z m 0,48.6 c -1.6,0 -2.8,1.29999 -2.8,2.9 0,1.6 1.3,2.79998 2.90001,2.79998 1.60001,0 2.79999,-1.29998 2.79999,-2.89999 0,-1.60001 -1.29999,-2.79999 -2.9,-2.79999 z m 0,-193.00001 c -1.79998,0 -3.3,1.5 -3.3,3.3 0,1.8 1.49999,3.3 3.3,3.3 1.80002,0 3.29999,-1.5 3.29999,-3.3 0.10001,-1.8 -1.49997,-3.3 -3.29999,-3.3 z m 0,-95.7 c -1.6,0 -2.8,1.3 -2.8,2.9 0,1.6 1.3,2.799999 2.90001,2.799999 1.60001,0 2.79999,-1.299999 2.79999,-2.9 C 261.29999,15.7 260,14.5 258.39999,14.5 Z m -95.79998,142.39999 c -2.4,0 -4.4,2 -4.4,4.4 0,2.39999 2,4.39999 4.4,4.39999 2.39999,0 4.39999,-2 4.39999,-4.39999 0,-2.4 -2,-4.4 -4.39999,-4.4 z m 0,48.80001 c -2.10001,0 -3.9,1.8 -3.9,3.8 0,2.10001 1.8,3.7 3.9,3.7 2.09999,0 3.89999,-1.80001 3.89999,-3.7 0,-2.2 -1.8,-3.8 -3.89999,-3.8 0,-0.2 0,-0.2 0,0 z m 0,48.40001 c -1.9,0 -3.4,1.6 -3.4,3.39999 0,1.89999 1.60001,3.39999 3.4,3.39999 1.79998,0 3.39999,-1.6 3.39999,-3.39999 0,-1.89999 -1.5,-3.39999 -3.39999,-3.39999 z m 0,48.69998 c -1.60001,0 -2.9,1.29999 -2.9,2.89999 0,1.60001 1.3,2.9 2.9,2.9 1.59999,0 2.89999,-1.29999 2.89999,-2.9 0,-1.6 -1.3,-2.89999 -2.89999,-2.89999 z m 0,-193.39999 c -2.10001,0 -3.80001,1.80001 -3.80001,3.9 0,2.1 1.80001,3.80001 3.9,3.80001 2.1,0 3.8,-1.80001 3.8,-3.80001 0,-2.2 -1.8,-3.9 -3.89999,-3.9 0,-0.1 0,-0.1 0,0 z m 0,-95.3 c -1.60001,0 -2.9,1.300001 -2.9,2.9 0,1.599998 1.3,2.9 2.9,2.9 C 164.2,19.9 165.5,18.6 165.5,17 c 0,-1.6 -1.3,-2.9 -2.89999,-2.9 z M 114.7,158.3 c -2.1,0 -3.9,1.7 -3.9,3.80001 0,2.1 1.69999,3.89999 3.8,3.89999 2.10001,0 3.9,-1.7 3.9,-3.8 0,-2.09999 -1.7,-3.9 -3.8,-3.9 z m 0,48.09999 c -2.1,0 -3.9,1.7 -3.9,3.80001 0,2.1 1.69999,3.89999 3.8,3.89999 2.10001,0 3.9,-1.7 3.9,-3.8 0,-2.09999 -1.7,-3.9 -3.8,-3.9 z M 114.7,255 c -1.80001,0 -3.4,1.5 -3.4,3.29999 0,1.79999 1.5,3.39999 3.3,3.39999 1.8,0 3.4,-1.5 3.4,-3.29999 C 118,256.5 116.5,255 114.7,255 Z m 0,48.60001 c -1.6,0 -2.9,1.20001 -2.9,2.79998 0,1.59998 1.19999,2.9 2.8,2.9 1.6,0 2.9,-1.20001 2.9,-2.79999 0,-1.60001 -1.2,-2.89999 -2.8,-2.89999 z M 114.7,110.2 c -2.1,0 -3.80001,1.69999 -3.80001,3.8 0,2.1 1.7,3.8 3.80001,3.8 2.1,0 3.8,-1.69999 3.8,-3.8 0,-2 -1.7,-3.8 -3.8,-3.8 z m -47.899997,48.6 c -1.800003,0 -3.400001,1.5 -3.400001,3.30001 0,1.8 1.5,3.39999 3.300003,3.39999 1.800003,0 3.400001,-1.5 3.400001,-3.3 0.09999,-1.9 -1.500008,-3.5 -3.300003,-3.4 0,-0.1 0,-0.1 0,0 z m 0,48.09999 c -1.800003,0 -3.400001,1.5 -3.400001,3.30001 0,1.8 1.5,3.39999 3.300003,3.39999 1.800003,0 3.400001,-1.5 3.400001,-3.3 0.09999,-1.9 -1.500008,-3.49999 -3.300003,-3.4 0,-0.1 0,-0.1 0,0 z m 0,48.10001 c -1.800003,0 -3.400001,1.5 -3.400001,3.29999 0,1.79999 1.5,3.39999 3.300003,3.39999 1.800003,0 3.400001,-1.5 3.400001,-3.29999 0.09999,-1.89999 -1.500008,-3.5 -3.300003,-3.39999 0,-0.10001 0,-0.10001 0,0 z m 0,48.60001 c -1.599998,0 -2.900001,1.20001 -2.900001,2.79998 0,1.60001 1.199996,2.9 2.800003,2.9 1.600006,0 2.900001,-1.20001 2.900001,-2.79999 0.09999,-1.70001 -1.200004,-3 -2.800003,-2.89999 0,-0.10001 0,-0.10001 0,0 z M 210.60001,62.599998 c -1.80001,0 -3.4,1.5 -3.4,3.300004 0,1.800003 1.5,3.400001 3.30001,3.400001 1.8,0 3.39999,-1.5 3.39999,-3.300003 0.1,-1.900002 -1.50002,-3.5 -3.3,-3.400002 0,-0.1 0,-0.1 0,0 z M 114.7,15 c -1.6,0 -2.9,1.200001 -2.9,2.799999 0,1.600001 1.19999,2.9 2.8,2.9 1.60001,0 2.9,-1.200001 2.9,-2.799999 0.1,-1.699999 -1.2,-3 -2.8,-2.9 0,-0.1 0,-0.1 0,0 z M 18.9,159.2 c -1.600001,0 -2.9,1.19999 -2.9,2.8 0,1.60001 1.200001,2.89999 2.799999,2.89999 1.600001,0 2.9,-1.19999 2.9,-2.8 C 21.700001,160.5 20.5,159.2 18.9,159.2 Z m 0,48.1 c -1.600001,0 -2.9,1.2 -2.9,2.80001 0,1.6 1.200001,2.89999 2.799999,2.89999 1.600001,0 2.9,-1.2 2.9,-2.8 2e-6,-1.59999 -1.199999,-2.9 -2.799999,-2.9 z m 0,48.09999 c -1.600001,0 -2.9,1.20002 -2.9,2.79999 0,1.59998 1.200001,2.9 2.799999,2.9 1.600001,0 2.9,-1.20002 2.9,-2.79999 2e-6,-1.59998 -1.199999,-2.9 -2.799999,-2.9 z m 0,48.10001 c -1.600001,0 -2.9,1.20001 -2.9,2.79999 0,1.59997 1.200001,2.89999 2.799999,2.89999 1.600001,0 2.9,-1.20001 2.9,-2.79999 C 21.700001,304.79999 20.5,303.5 18.9,303.5 Z m 0,-240.400002 c -1.600001,0 -2.9,1.300004 -2.9,2.800004 0,1.5 1.299999,2.800003 2.9,2.800003 1.6,0 2.899999,-1.300003 2.899999,-2.800003 C 21.6,64.300003 20.5,63.099998 18.9,63.099998 Z M 18.9,111.2 c -1.600001,0 -2.9,1.3 -2.9,2.8 0,1.5 1.299999,2.8 2.9,2.8 1.6,0 2.899999,-1.3 2.899999,-2.8 C 21.6,112.4 20.5,111.2 18.9,111.2 Z m 0,-96.3 c -1.600001,0 -2.9,1.2 -2.9,2.799999 0,1.6 1.200001,2.899999 2.799999,2.899999 1.600001,0 2.9,-1.2 2.9,-2.799999 C 21.700001,16.200001 20.5,14.9 18.9,14.9 Z m 191.6,142.9 c -2.10001,0 -3.89999,1.7 -3.89999,3.9 0,2.19999 1.69999,3.89999 3.89999,3.89999 2.2,0 3.89999,-1.7 3.89999,-3.89999 0,-2.2 -1.79998,-3.9 -3.89999,-3.9 z m 0,48.09999 c -2.10001,0 -3.89999,1.80001 -3.89999,3.9 0,2.09999 1.8,3.89999 3.89999,3.89999 2.09999,0 3.89999,-1.8 3.89999,-3.89999 0,-2.09999 -1.79998,-3.9 -3.89999,-3.9 z m 0,48.60001 c -1.89999,0 -3.39999,1.60001 -3.39999,3.39999 0,1.9 1.6,3.4 3.39999,3.4 1.79999,0 3.39999,-1.60001 3.39999,-3.4 0,-1.79998 -1.5,-3.39999 -3.39999,-3.39999 z m 0,48.70001 c -1.60001,0 -2.89999,1.29999 -2.89999,2.9 0,1.6 1.3,2.89999 2.89999,2.89999 1.59999,0 2.89999,-1.29999 2.89999,-2.89999 0,-1.70002 -1.29998,-2.9 -2.89999,-2.9 z M 258.39999,62.200001 c -1.79998,0 -3.39999,1.5 -3.39999,3.299999 0,1.800003 1.5,3.300003 3.39999,3.300003 1.9,0 3.4,-1.5 3.4,-3.300003 0,-1.900002 -1.59998,-3.299999 -3.4,-3.299999 z M 210.5,109.7 c -2.10001,0 -3.8,1.8 -3.8,3.9 0,2.1 1.8,3.8 3.89999,3.8 2.10001,0 3.8,-1.8 3.8,-3.9 0,-2.1 -1.79998,-3.8 -3.89999,-3.8 z m 0,-95.3 c -1.60001,0 -2.89999,1.3 -2.89999,2.799999 0,1.6 1.3,2.899999 2.89999,2.899999 1.59999,0 2.89999,-1.299999 2.89999,-2.899999 C 213.39999,15.7 212.10001,14.4 210.5,14.4 Z m 95.79999,144.49999 c -1.60001,0 -2.79999,1.30001 -2.79999,2.9 0,1.6 1.29999,2.8 2.89999,2.8 1.60001,0 2.79999,-1.3 2.79999,-2.89999 3e-5,-1.59999 -1.29999,-2.80001 -2.89999,-2.80001 z m 0,48.10001 c -1.60001,0 -2.79999,1.3 -2.79999,2.89999 0,1.60001 1.29999,2.80001 2.89999,2.80001 1.60001,0 2.79999,-1.30001 2.79999,-2.9 3e-5,-1.6 -1.29999,-2.8 -2.89999,-2.8 z m 0,48.10001 c -1.60001,0 -2.79999,1.29998 -2.79999,2.89999 0,1.60001 1.29999,2.79999 2.89999,2.79999 1.60001,0 2.79999,-1.29999 2.79999,-2.9 3e-5,-1.6 -1.29999,-2.79998 -2.89999,-2.79998 z m 0,48.1 c -1.60001,0 -2.79999,1.29999 -2.79999,2.9 0,1.6 1.29999,2.79998 2.89999,2.79998 1.60001,0 2.79999,-1.29998 2.79999,-2.89999 3e-5,-1.60001 -1.29999,-2.79999 -2.89999,-2.79999 z m 0,-240.500009 C 304.79999,62.700001 303.5,64 303.5,65.5 c 0,1.5 1.29999,2.800003 2.79999,2.800003 1.5,0 2.79999,-1.300003 2.79999,-2.800003 0.10003,-1.599998 -1.29999,-2.799999 -2.79999,-2.799999 z m 0,-48.200001 c -1.60001,0 -2.79999,1.3 -2.79999,2.9 0,1.6 1.29999,2.799999 2.89999,2.799999 1.60001,0 2.79999,-1.299999 2.79999,-2.9 C 309.20001,15.7 307.89999,14.5 306.29999,14.5 Z M 66.800003,110.7 c -1.900001,0 -3.299999,1.5 -3.299999,3.3 0,1.8 1.499996,3.3 3.299999,3.3 1.800003,0 3.300003,-1.5 3.300003,-3.3 0.09999,-1.9 -1.500008,-3.3 -3.300003,-3.3 z m 0,-95.7 c -1.599998,0 -2.900001,1.200001 -2.900001,2.799999 0,1.600001 1.199996,2.9 2.800003,2.9 1.600006,0 2.900001,-1.200001 2.900001,-2.799999 0.09999,-1.699999 -1.200004,-3 -2.800003,-2.9 0,-0.1 0,-0.1 0,0 z M 162.7,62.599998 c -1.80001,0 -3.4,1.5 -3.4,3.300004 0,1.800003 1.5,3.400001 3.30001,3.400001 1.8,0 3.39999,-1.5 3.39999,-3.300003 0.10001,-1.900002 -1.5,-3.5 -3.3,-3.400002 0,-0.1 0,-0.1 0,0 z m -48,0 c -1.80001,0 -3.30001,1.400002 -3.30001,3.300004 0,1.800003 1.40001,3.300003 3.30001,3.300003 1.9,0 3.3,-1.400002 3.3,-3.300003 0.1,-1.800004 -1.4,-3.300004 -3.3,-3.300004 z m -47.899997,0 c -1.900001,0 -3.299999,1.5 -3.299999,3.300004 0,1.800003 1.499996,3.300003 3.299999,3.300003 1.800003,0 3.300003,-1.5 3.300003,-3.300003 C 70.199997,64 68.699997,62.599998 66.800003,62.599998 Z M 306.29999,110.8 c -1.5,0 -2.79999,1.30001 -2.79999,2.80001 0,1.5 1.29999,2.8 2.79999,2.8 1.5,0 2.79999,-1.3 2.79999,-2.8 C 309.20001,112 307.79999,110.8 306.29999,110.8 Z"
             style="fill:#372a28;fill-opacity:1;fill-rule:nonzero;stroke:none"
             transform="matrix(0,-9.3736226,9.3733046,0,8144.8173,3371.5428)"
             clip-path="url(#clipPath11)"
             id="path15" />
        </g>
      </g>
    </g>
    <g
       clip-path="url(#clipPath44)"
       id="g21"
       transform="matrix(0.12743911,0,0,0.12743911,-2.6436945,-1.3603894)"
       style="opacity:0.149">
      <path
         d="M 0,0 H 500 V 500 H 0 Z"
         style="fill:#000000;fill-opacity:1;fill-rule:nonzero;stroke:none"
         transform="matrix(0,-3.1630516,3.1630516,0,3678.1961,801.31281)"
         clip-path="url(#clipPath19)"
         id="path21" />
    </g>
    <g
       id="g2"
       transform="matrix(0.5585076,0,0,0.5585076,831.97645,400.75705)">
      <path
         id="path23"
         d="m 24.69343,101.37049 c -4.744497,0 -8.490994,1.37445 -11.240142,4.12361 -2.83783,2.83782 -4.2569541,6.45218 -4.2569541,10.84195 0,4.25675 1.3297891,7.75946 3.9902571,10.50859 2.616129,2.74916 6.163476,4.12361 10.641927,4.12361 3.19564,0 5.936569,-0.68244 8.231476,-2.03356 -0.99074,-1.31971 -2.270884,-3.363 -2.898058,-4.8645 l 0.01162,-0.0638 c -1.455631,0.73813 -3.081878,1.10846 -4.879245,1.10846 -2.350081,0 -4.322901,-0.75376 -5.91918,-2.26137 -1.684962,-1.68495 -2.528059,-3.92391 -2.528059,-6.7174 0,-2.70481 0.798429,-4.85536 2.39471,-6.45165 1.640621,-1.64061 3.702776,-2.46046 6.185877,-2.46046 1.634699,0 3.179003,0.3594 4.633846,1.07882 l -0.0064,0.0322 c 0.62682,-1.43474 2.106911,-3.83019 3.075258,-5.07815 -2.333145,-1.25348 -4.811325,-1.88632 -7.436943,-1.88632 z"
         style="fill:#372a28;fill-opacity:1;fill-rule:nonzero;stroke:none"
         transform="matrix(2.747597,0,0,2.7472778,42.644784,-18.860306)"
         clip-path="url(#clipPath24)" />
      <path
         id="path25"
         d="m 38.537971,105.56083 c 2.882176,-2.7935 6.451638,-4.19025 10.708386,-4.19025 4.256748,0 7.804039,1.39675 10.641872,4.19025 2.882172,2.74914 4.323258,6.27425 4.323258,10.57534 0,4.25676 -1.441086,7.80405 -4.323261,10.64188 -2.837834,2.7935 -6.385125,4.19024 -10.641873,4.19024 -4.256748,0 -7.82621,-1.39674 -10.708385,-4.19024 -2.837834,-2.83782 -4.256749,-6.38511 -4.256749,-10.64188 0,-4.30109 1.418915,-7.8262 4.256749,-10.57534 z m 4.655819,17.16001 c 1.507599,1.59628 3.52512,2.39442 6.052567,2.39442 2.527447,0 4.544968,-0.79814 6.052563,-2.39442 1.507599,-1.64062 2.261398,-3.81334 2.261398,-6.51815 0,-2.97086 -0.820313,-5.21009 -2.460934,-6.71769 -1.596279,-1.50759 -3.54729,-2.26138 -5.853031,-2.26138 -2.30574,0 -4.278919,0.75379 -5.91954,2.26138 -1.596279,1.5076 -2.394421,3.74683 -2.394421,6.71769 0,2.70481 0.7538,4.87753 2.261395,6.51815 z"
         style="fill:#372a28;fill-opacity:1;fill-rule:nonzero;stroke:none"
         transform="matrix(2.747597,0,0,2.7472778,42.644784,-18.860306)"
         clip-path="url(#clipPath26)" />
      <path
         id="path27"
         d="m 83.236076,101.37049 c -13.647316,0.10196 -13.620994,8.04029 -13.235733,28.73283 h 6.518318 v -14.49884 c 0,-3.0152 0.598366,-5.16574 1.795571,-6.45164 0.97551,-1.01985 2.32856,-1.52981 4.057861,-1.52981 0.812126,0 1.601586,0.16809 2.369705,0.49821 l 3.594849,-5.43116 c -1.502495,-0.87871 -3.202644,-1.31959 -5.100563,-1.31959 z"
         style="fill:#372a28;fill-opacity:1;fill-rule:nonzero;stroke:none"
         transform="matrix(2.747597,0,0,2.7472778,42.644784,-18.860306)"
         clip-path="url(#clipPath28)" />
      <path
         id="path29"
         d="m 110.92172,105.56083 c 2.88218,-2.7935 6.45165,-4.19025 10.70839,-4.19025 4.25675,0 7.80405,1.39675 10.64188,4.19025 2.88217,2.74914 4.32325,6.27425 4.32325,10.57534 0,4.25676 -1.44108,7.80405 -4.32325,10.64188 -2.83783,2.7935 -6.38513,4.19024 -10.64188,4.19024 -4.25674,0 -7.82621,-1.39674 -10.70839,-4.19024 -2.83782,-2.83782 -4.25673,-6.38511 -4.25673,-10.64188 0,-4.30109 1.41891,-7.8262 4.25673,-10.57534 z m 4.65583,17.16001 c 1.5076,1.59628 3.52512,2.39442 6.05256,2.39442 2.52745,0 4.54497,-0.79814 6.05256,-2.39442 1.50761,-1.64062 2.26141,-3.81334 2.26141,-6.51815 0,-2.97086 -0.82032,-5.21009 -2.46094,-6.71769 -1.59628,-1.50759 -3.54729,-2.26138 -5.85302,-2.26138 -2.30574,0 -4.27892,0.75379 -5.91954,2.26138 -1.59628,1.5076 -2.39442,3.74683 -2.39442,6.71769 0,2.70481 0.7538,4.87753 2.2614,6.51815 z"
         style="fill:#372a28;fill-opacity:1;fill-rule:nonzero;stroke:none"
         transform="matrix(2.747597,0,0,2.7472778,42.644784,-18.860306)"
         clip-path="url(#clipPath30)" />
      <path
         id="path31"
         d="m 101.2529,101.37049 c -13.647317,0.10196 -13.620988,8.04029 -13.235734,28.73283 h 6.518318 v -14.49884 c 0,-3.0152 0.598366,-5.16575 1.795571,-6.45166 0.975509,-1.01985 2.32856,-1.5298 4.057865,-1.5298 0.81212,0 1.60158,0.1681 2.3697,0.49821 l 3.59484,-5.43118 c -1.50249,-0.87869 -3.20263,-1.31957 -5.10056,-1.31957 z"
         style="fill:#372a28;fill-opacity:1;fill-rule:nonzero;stroke:none"
         transform="matrix(2.747597,0,0,2.7472778,42.644784,-18.860306)"
         clip-path="url(#clipPath32)" />
      <path
         id="path33"
         d="m 38.537971,105.56083 c 2.882176,-2.7935 6.451638,-4.19025 10.708386,-4.19025 4.256748,0 7.804039,1.39675 10.641872,4.19025 2.882172,2.74914 4.323258,6.27425 4.323258,10.57534 0,4.25676 -1.441086,7.80405 -4.323261,10.64188 -2.837834,2.7935 -6.385125,4.19024 -10.641873,4.19024 -4.256748,0 -7.82621,-1.39674 -10.708385,-4.19024 -2.837834,-2.83782 -4.256749,-6.38511 -4.256749,-10.64188 0,-4.30109 1.418915,-7.8262 4.256749,-10.57534 z m 4.655819,17.16001 c 1.507599,1.59628 3.52512,2.39442 6.052567,2.39442 2.527447,0 4.544968,-0.79814 6.052563,-2.39442 1.507599,-1.64062 2.261398,-3.81334 2.261398,-6.51815 0,-2.97086 -0.820313,-5.21009 -2.460934,-6.71769 -1.596279,-1.50759 -3.54729,-2.26138 -5.853031,-2.26138 -2.30574,0 -4.278919,0.75379 -5.91954,2.26138 -1.596279,1.5076 -2.394421,3.74683 -2.394421,6.71769 0,2.70481 0.7538,4.87753 2.261395,6.51815 z"
         style="fill:#372a28;fill-opacity:1;fill-rule:nonzero;stroke:none"
         transform="matrix(2.747597,0,0,2.7472778,42.644784,-18.860306)"
         clip-path="url(#clipPath34)" />
      <path
         id="path35"
         d="m 191.58615,101.37049 c -4.74451,0 -8.49101,1.37444 -11.24014,4.12361 -2.83785,2.83782 -4.25697,6.45218 -4.25697,10.84195 0,4.25675 1.32978,7.75946 3.99026,10.50859 2.61612,2.74916 6.16348,4.12359 10.64194,4.12359 3.19563,0 5.93655,-0.68243 8.23147,-2.03355 -0.99075,-1.3197 -1.79716,-2.7314 -2.42434,-4.23288 l -0.4621,-0.69545 c -1.45563,0.73813 -3.08188,1.10845 -4.87926,1.10845 -2.35007,0 -4.32289,-0.75374 -5.91917,-2.26135 -1.68497,-1.68499 -2.52805,-3.92393 -2.52805,-6.71743 0,-2.70481 0.79842,-4.85536 2.39472,-6.45165 1.64062,-1.64061 3.70277,-2.46045 6.18588,-2.46045 1.6347,0 4.64772,0.66783 6.32497,4.33098 0.87597,2.57572 4.08073,5.45198 5.15028,4.06016 0.91902,-11.01003 -7.54318,-14.24458 -11.20947,-14.24458 z"
         style="fill:#372a28;fill-opacity:1;fill-rule:nonzero;stroke:none"
         transform="matrix(2.747597,0,0,2.7472778,42.644784,-18.860306)"
         clip-path="url(#clipPath36)" />
      <path
         id="path37"
         d="m 151.11999,139.22099 h 23.56402 v 4.75402 h -23.56402 z"
         style="fill:#372a28;fill-opacity:1;fill-rule:nonzero;stroke:none"
         transform="matrix(2.7195716,-0.39148707,0.56869763,2.6877719,42.644784,-18.860306)"
         clip-path="url(#clipPath38)" />
      <path
         id="path39"
         d="m 164.65688,83.04409 v 20.64266 c -2.37995,-1.54311 -5.15099,-2.31613 -8.31475,-2.31613 -4.25674,0 -7.8262,1.39694 -10.70839,4.19044 -2.83781,2.74914 -4.25659,6.27398 -4.25659,10.57506 0,4.25676 1.41878,7.80442 4.25659,10.64225 2.88219,2.79348 6.45165,4.18992 10.70839,4.18992 4.25675,0 7.8039,-1.39642 10.64173,-4.18992 2.88217,-2.83783 4.32324,-6.38549 4.32324,-10.64225 0,-0.0209 -0.001,-0.0411 -0.002,-0.062 h 0.002 V 83.04408 h -6.65022 z m -8.31475,24.1794 c 2.30573,0 4.25659,0.75377 5.85288,2.26136 1.64062,1.5076 2.46083,3.74708 2.46083,6.71794 0,2.7048 -0.75376,4.87732 -2.26136,6.51794 -1.50758,1.59628 -3.5249,2.39469 -6.05233,2.39469 -2.52744,0 -4.54526,-0.79841 -6.05286,-2.39469 -1.5076,-1.64062 -2.26135,-3.81314 -2.26135,-6.51794 0,-2.97086 0.79841,-5.21034 2.39468,-6.71794 1.64061,-1.50759 3.61379,-2.26136 5.91953,-2.26136 z"
         style="fill:#372a28;fill-opacity:1;fill-rule:nonzero;stroke:none"
         transform="matrix(2.747597,0,0,2.7472778,42.644784,-18.860306)"
         clip-path="url(#clipPath40)" />
    </g>
    <g
       clip-path="url(#clipPath43)"
       id="g9"
       transform="matrix(0.20466861,0,0,0.20466861,-688.96545,-315.27427)"
       style="opacity:0.149">
      <path
         d="M 0,0 H 500 V 500 H 0 Z"
         style="fill:#000000;fill-opacity:1;fill-rule:nonzero;stroke:none"
         transform="matrix(0,-5.186887,5.186887,0,6289.2572,6295.2755)"
         clip-path="url(#clipPath7)"
         id="path9" />
    </g>
    <text
       xml:space="preserve"
       id="text1"
       style="font-size:192px;line-height:0.35;font-family:Arcon;-inkscape-font-specification:'Arcon, Normal';white-space:pre;shape-inside:url(#rect1)"
       transform="translate(10.750792,55.872923)"><tspan
         x="45.691406"
         y="147.64141"
         id="tspan3"><tspan
           style="font-weight:bold;font-size:74.6667px;font-family:'Josefin Sans';-inkscape-font-specification:'Josefin Sans, Bold'"
           id="tspan2">Extension Traits in </tspan></tspan><tspan
         x="45.691406"
         y="233.24141"
         id="tspan5"><tspan
           style="font-weight:bold;font-size:74.6667px;font-family:'Josefin Sans';-inkscape-font-specification:'Josefin Sans, Bold'"
           id="tspan4">Rust: The Booster </tspan></tspan><tspan
         x="45.691406"
         y="318.84142"
         id="tspan7"><tspan
           style="font-weight:bold;font-size:74.6667px;font-family:'Josefin Sans';-inkscape-font-specification:'Josefin Sans, Bold'"
           id="tspan6">Pack for Foreign </tspan></tspan><tspan
         x="45.691406"
         y="404.44142"
         id="tspan9"><tspan
           style="font-weight:bold;font-size:74.6667px;font-family:'Josefin Sans';-inkscape-font-specification:'Josefin Sans, Bold'"
           id="tspan8">Types</tspan></tspan></text>
  </g>
</svg>
