<svg xmlns="http://www.w3.org/2000/svg" data-name="Layer 1" viewBox="0 0 1000 1000"><path d="m421.14 346-97.7-61.83c-124.51-78.8-186.77-118.2-234.36-92.24-47.59 25.95-47.59 99.3-47.59 245.99v123.65c0 146.69 0 220.04 47.59 245.99s109.85-13.45 234.36-92.25l97.7-61.83c109.28-69.16 163.92-103.74 163.92-153.75s-54.64-84.59-163.92-153.74Z"/><path d="M531.15 636.48c10.09 6.11 20.72 12.5 31.89 19.21l117.58 70.69c123.35 74.16 185.03 111.24 231.71 85.09C959 785.33 959 713.69 959 570.43V429.04c0-143.27 0-214.9-46.67-241.05-46.68-26.15-108.36 10.93-231.71 85.09l-117.58 70.69c-11.17 6.71-21.8 13.1-31.89 19.22 16.35 11.32 30.78 22.11 42.97 32.62 31.09 26.79 56.8 59.43 56.8 104.12s-25.71 77.34-56.8 104.12c-12.19 10.51-26.63 21.3-42.97 32.62Z"/></svg>