<svg xmlns="http://www.w3.org/2000/svg" width="400" height="400" viewBox="0 0 105.833 105.833"><path d="M302.434-181.995c-8.403 0-15.228 6.377-15.228 14.231V131.33c0 7.854 6.825 14.232 15.228 14.232h31.38c8.403 0 15.228-6.378 15.228-14.232v-253.848h-3.758V131.33c0 5.97-5.084 10.72-11.47 10.72h-31.38c-6.387 0-11.471-4.75-11.471-10.72v-299.094c0-5.969 5.084-10.719 11.47-10.719h31.38c6.387 0 11.471 4.75 11.471 10.72v10.936h3.758v-10.937c0-7.854-6.825-14.23-15.228-14.23z" style="stroke-width:1.14381;stroke-linecap:round;stroke-miterlimit:1000;paint-order:fill markers stroke" transform="translate(-49.25 62.663)scale(.2408)"/><path d="M333.662-140.762h206.367c5.54 0 10 4.46 10 10v27.937c0 5.54-4.46 10-10 10H333.662c-5.54 0-10-4.46-10-10v-27.937c0-5.54 4.46-10 10-10" style="stroke-width:4.26501;stroke-linecap:round;stroke-miterlimit:1000;paint-order:fill markers stroke" transform="translate(-65.645 68.822)scale(.2849)"/><path d="M387.782-112.496q-.383 0-.767-.128-.368-.112-.671-.351-.288-.256-.496-.592-.192-.352-.304-.72-.112-.367-.16-.75-.032-.4-.032-.784v-2.078q0-.384.032-.767.048-.4.16-.768.112-.367.304-.703.208-.352.496-.592.303-.255.671-.367.384-.128.767-.128.336 0 .656.096.32.08.591.288.272.191.464.463t.32.592v-4.588h1.774v11.75h-1.774v-1.312q-.128.32-.32.592t-.464.48q-.271.191-.591.271-.32.096-.656.096m.736-1.534q.208 0 .4-.064.207-.064.367-.192.16-.144.256-.32.112-.192.16-.384.064-.207.08-.415.032-.208.032-.416v-2.078q0-.208-.032-.416-.016-.207-.08-.4-.048-.207-.16-.383-.096-.192-.256-.32-.16-.144-.368-.208-.191-.063-.4-.063-.319 0-.623.16-.287.143-.463.415-.176.256-.24.576t-.064.639v2.078q0 .32.064.64t.24.591q.176.256.463.416.304.144.624.144m8.04 1.534q-.43 0-.879-.08-.431-.08-.815-.287-.383-.208-.687-.528-.304-.336-.496-.72-.192-.399-.272-.83-.063-.448-.063-.88v-2.078q0-.432.063-.863.08-.448.256-.832.192-.4.48-.719.304-.336.687-.543t.816-.288q.447-.08.879-.08.431 0 .863.08.448.08.831.288.384.207.672.543.303.32.48.72.191.383.255.83.08.432.08.864v1.806h-4.588v.272q0 .32.064.656.08.32.256.591.192.256.495.4.304.144.624.144.24 0 .463-.048.24-.048.432-.176.192-.144.304-.352.128-.224.144-.448h1.774q-.016.368-.144.736-.112.367-.336.671-.207.304-.511.544-.304.224-.656.367-.351.128-.719.176-.368.064-.751.064m-1.438-5.131h2.814v-.272q0-.32-.064-.64t-.256-.591q-.176-.272-.48-.416-.288-.143-.607-.143-.32 0-.624.143-.287.144-.48.416-.175.272-.239.591-.064.32-.064.64zm8.04 5.003v-6.554h-1.694v-1.535h1.695v-1.039q0-.351.032-.687.048-.352.176-.672t.335-.591q.224-.288.512-.464.304-.191.64-.255.335-.08.687-.08.48 0 .943.16.464.143.783.48.336.335.48.798.16.464.16.944v.143h-1.79v-.064q0-.143-.033-.287-.016-.16-.08-.304-.063-.144-.191-.24-.112-.096-.272-.096-.192 0-.32.16-.128.144-.192.32-.048.176-.08.368-.016.175-.016.367v1.04h2.334v1.534h-2.334v6.554zm6.555 0v-1.534h2.014v-5.404h-1.79v-1.534h3.58v6.938h1.791v1.534zm2.798-9.671q-.256 0-.512-.08t-.431-.256-.256-.432-.08-.511.08-.512.256-.431.431-.256.512-.08.511.08.432.256.256.431.08.512-.08.511-.256.432-.432.256-.511.08m4.94 9.671v-8.472h1.774v1.31q.128-.32.32-.59.191-.273.447-.464.272-.208.592-.288.32-.096.655-.096.384 0 .751.128.368.128.64.383.288.256.463.608.176.336.272.703.112.368.144.752.048.367.048.751v5.275h-1.774v-5.275q0-.208-.032-.416-.016-.207-.08-.4-.048-.207-.16-.383-.096-.176-.256-.32-.144-.144-.352-.208-.191-.063-.4-.063-.207 0-.415.063-.192.064-.352.208-.143.144-.255.32-.096.176-.16.384-.048.192-.08.4-.016.207-.016.415v5.275zm11.078.128q-.432 0-.88-.08-.431-.08-.815-.287-.383-.208-.687-.528-.304-.336-.496-.72-.192-.399-.272-.83-.063-.448-.063-.88v-2.078q0-.432.063-.863.08-.448.256-.832.192-.4.48-.719.304-.336.687-.543t.816-.288q.447-.08.879-.08.431 0 .863.08.448.08.831.288.384.207.672.543.303.32.48.72.191.383.255.83.08.432.08.864v1.806h-4.588v.272q0 .32.064.656.08.32.256.591.192.256.495.4.304.144.624.144.24 0 .463-.048.24-.048.432-.176.192-.144.304-.352.128-.224.144-.448h1.774q-.016.368-.144.736-.112.367-.336.671-.207.304-.511.544-.304.224-.656.367-.351.128-.719.176-.368.064-.751.064m-1.439-5.131h2.814v-.272q0-.32-.064-.64t-.256-.591q-.176-.272-.48-.416-.288-.143-.607-.143-.32 0-.624.143-.287.144-.48.416-.175.272-.239.591-.064.32-.064.64zm15.235 5.003v-8.472h1.79v1.838q.096-.368.24-.703.144-.352.384-.64.24-.287.575-.447.352-.176.72-.176.303 0 .59.096.305.096.512.303.224.208.352.48.144.272.224.576.08.287.096.591.032.304.032.608h-1.79q0-.192-.033-.384-.016-.192-.096-.352-.08-.176-.255-.272-.16-.112-.352-.112-.256 0-.48.16-.207.16-.335.384t-.208.48q-.064.255-.112.511t-.064.528v5.003zm10.183.128q-.432 0-.88-.08-.431-.08-.815-.287-.383-.208-.687-.528-.304-.336-.496-.72-.192-.399-.272-.83-.063-.448-.063-.88v-2.078q0-.432.063-.863.08-.448.256-.832.192-.4.48-.719.304-.336.687-.543t.816-.288q.447-.08.879-.08.431 0 .863.08.448.08.831.288.384.207.672.543.303.32.48.72.191.383.255.83.08.432.08.864v1.806h-4.588v.272q0 .32.064.656.08.32.256.591.191.256.495.4t.624.144q.24 0 .463-.048.24-.048.432-.176.192-.144.304-.352.127-.224.143-.448h1.775q-.016.368-.144.736-.112.367-.336.671-.207.304-.511.544-.304.224-.656.367-.351.128-.719.176-.368.064-.751.064m-1.439-5.131h2.814v-.272q0-.32-.064-.64t-.256-.591q-.176-.272-.48-.416-.288-.143-.607-.143-.32 0-.624.143-.287.144-.48.416-.175.272-.239.591-.064.32-.064.64zm10.679 8.28v-4.588q-.128.32-.32.592t-.464.48q-.271.191-.591.271-.32.096-.656.096-.383 0-.767-.128-.368-.112-.671-.351-.288-.256-.496-.592-.192-.352-.304-.72-.112-.367-.16-.75-.032-.4-.032-.784v-2.078q0-.384.032-.767.048-.4.16-.768.112-.367.304-.703.208-.352.496-.592.303-.255.671-.367.384-.128.767-.128.336 0 .656.096.32.08.591.287.272.192.464.464t.32.592v-1.311h1.774v11.75zm-1.295-4.683q.208 0 .4-.064.207-.064.367-.192.16-.144.256-.32.112-.192.16-.384.064-.207.08-.415.032-.208.032-.416v-2.078q0-.208-.032-.416-.016-.207-.08-.4-.048-.207-.16-.383-.096-.192-.256-.32-.16-.144-.368-.208-.191-.063-.4-.063-.319 0-.623.16-.287.143-.463.415-.176.256-.24.576t-.064.639v2.078q0 .32.064.64t.24.591q.176.256.463.416.304.144.624.144m7.273 1.534q-.383 0-.751-.128t-.655-.383q-.272-.256-.448-.592-.176-.352-.288-.72-.096-.367-.144-.735-.032-.383-.032-.767v-5.275h1.775v5.275q0 .208.016.416.032.208.08.415.064.192.16.368.111.176.255.32.16.144.352.208.208.064.416.064t.4-.064q.207-.064.351-.208.16-.144.256-.32.112-.176.16-.368.064-.207.08-.415.032-.208.032-.416v-5.275h1.774v8.472h-1.774v-1.31q-.128.32-.32.59-.192.273-.464.48-.256.192-.575.272-.32.096-.656.096m5.931-.128v-1.534h2.014v-5.404h-1.79v-1.534h3.58v6.938h1.791v1.534zm2.798-9.671q-.256 0-.512-.08t-.431-.256-.256-.432-.08-.511.08-.512.256-.431.431-.256.512-.08.511.08.432.256.256.431.08.512-.08.511-.256.432-.432.256-.511.08m5.835 9.671v-8.472h1.79v1.838q.096-.368.24-.703.144-.352.384-.64.24-.287.575-.447.352-.176.72-.176.303 0 .59.096.305.096.512.303.224.208.352.48.144.272.224.576.08.287.096.591.032.304.032.608h-1.79q0-.192-.033-.384-.016-.192-.096-.352-.08-.176-.255-.272-.16-.112-.352-.112-.256 0-.48.16-.207.16-.335.384t-.208.48q-.064.255-.112.511t-.064.528v5.003zm10.183.128q-.432 0-.88-.08-.431-.08-.815-.287-.383-.208-.687-.528-.304-.336-.496-.72-.192-.399-.272-.83-.064-.448-.064-.88v-2.078q0-.432.064-.863.08-.448.256-.832.192-.4.48-.719.304-.336.687-.543t.816-.288q.447-.08.879-.08.431 0 .863.08.448.08.831.288.384.207.672.543.303.32.48.72.191.383.255.83.08.432.08.864v1.806h-4.588v.272q0 .32.064.656.08.32.256.591.191.256.495.4t.624.144q.24 0 .463-.048.24-.048.432-.176.192-.144.304-.352.127-.224.143-.448h1.775q-.016.368-.144.736-.112.367-.336.671-.207.304-.511.544-.304.224-.656.367-.351.128-.719.176-.368.064-.751.064m-1.439-5.131h2.814v-.272q0-.32-.064-.64t-.256-.591q-.176-.272-.48-.416-.287-.143-.607-.143t-.624.143q-.287.144-.48.416-.175.272-.239.591-.064.32-.064.64zm6.027 5.003v-8.472h1.486v.767q.064-.176.176-.336.112-.175.256-.303.16-.128.352-.192.208-.064.4-.064.255 0 .479.096.24.096.4.288.175.175.287.4.112.223.16.463.064-.24.16-.464.112-.224.272-.4.16-.191.383-.287.24-.096.496-.096t.496.112q.24.096.4.288.175.175.271.415.112.24.16.48.064.24.08.495.032.256.032.512v6.298h-1.487v-6.298q0-.16-.016-.32-.016-.176-.08-.32-.064-.16-.192-.271-.112-.112-.287-.112-.16 0-.288.112t-.192.271q-.048.144-.08.32-.016.16-.016.32v6.298h-1.47v-6.298q0-.16-.033-.32-.016-.176-.08-.32-.047-.16-.175-.271t-.288-.112q-.176 0-.304.112-.112.112-.176.271-.064.144-.08.32-.016.16-.016.32v6.298zm11.398.128q-.432 0-.88-.08-.431-.08-.815-.287-.383-.208-.687-.528-.304-.336-.496-.72-.192-.399-.272-.83-.063-.448-.063-.88v-2.078q0-.432.063-.863.08-.448.256-.832.192-.4.48-.719.304-.336.687-.543t.816-.288q.447-.08.879-.08.431 0 .863.08.448.08.831.288.384.207.672.543.303.32.48.72.191.383.255.83.08.432.08.864v1.806h-4.588v.272q0 .32.064.656.08.32.256.591.191.256.495.4t.624.144q.24 0 .463-.048.24-.048.432-.176.192-.144.304-.352.127-.224.143-.448h1.775q-.016.368-.144.736-.112.367-.336.671-.207.304-.511.544-.304.224-.656.367-.351.128-.719.176-.368.064-.751.064m-1.439-5.131h2.814v-.272q0-.32-.064-.64t-.256-.591q-.176-.272-.48-.416-.287-.143-.607-.143t-.624.143q-.287.144-.48.416-.175.272-.239.591-.064.32-.064.64zm6.346 5.003v-8.472h1.775v1.31q.128-.32.32-.59.191-.273.447-.464.272-.208.592-.288.32-.096.655-.096.384 0 .751.128.368.128.64.383.288.256.463.608.176.336.272.703.112.368.144.752.048.367.048.751v5.275h-1.774v-5.275q0-.208-.032-.416-.016-.207-.08-.4-.048-.207-.16-.383-.096-.176-.256-.32-.144-.144-.352-.208-.191-.063-.4-.063-.207 0-.415.063-.192.064-.352.208-.143.144-.255.32-.096.176-.16.384-.048.192-.08.4-.016.207-.016.415v5.275zm12.038.128q-.4 0-.8-.096t-.735-.335q-.32-.24-.56-.576-.223-.336-.367-.72-.128-.383-.176-.783-.048-.415-.048-.815v-3.74h-1.55v-1.535h1.55v-3.277h1.79v3.277h2.255v1.534h-2.254v4.125q.016.176.048.367.032.176.08.352.064.176.16.336.111.144.271.256.16.096.336.096.24 0 .431-.144.208-.16.304-.384t.128-.464.032-.48v-.079h1.79v.16q0 .383-.08.751-.063.368-.207.72-.144.335-.4.623-.24.288-.56.48-.32.191-.687.271t-.751.08m6.97 0q-.368 0-.736-.048-.367-.048-.719-.176-.352-.144-.655-.367-.304-.224-.512-.528t-.32-.671-.112-.736h1.775q.016.224.112.432.112.208.304.336.191.128.415.176t.448.048q.24 0 .463-.048t.416-.16q.192-.128.304-.336.128-.208.128-.432 0-.255-.176-.463-.16-.208-.4-.304-.224-.096-.48-.16-.24-.064-.495-.128l-.48-.16q-.24-.08-.48-.175-.223-.096-.447-.224-.208-.144-.415-.304-.192-.16-.352-.352-.144-.207-.256-.431-.112-.24-.176-.48-.048-.256-.048-.511 0-.368.096-.72.112-.351.304-.655.208-.304.495-.528.288-.24.624-.383t.703-.192.736-.048q.351 0 .703.048.368.048.703.192.336.127.624.351t.48.528q.207.304.303.655.112.352.112.72h-1.774q-.016-.208-.112-.4-.08-.208-.256-.336-.16-.128-.368-.176t-.415-.048q-.224 0-.432.048t-.384.176q-.175.128-.271.336-.096.192-.096.416 0 .255.16.463.175.208.4.304.239.096.479.16.256.064.495.144.24.064.48.144.24.063.48.175.24.096.447.224.224.128.416.304.192.16.351.368.16.191.272.415t.16.48q.064.256.064.495 0 .384-.112.752-.112.351-.336.671-.207.304-.511.528-.304.223-.656.367-.351.128-.719.176t-.751.048" aria-label="define requirements" style="font-weight:700;font-size:15.986px;line-height:1.25;font-family:Iosevka;-inkscape-font-specification:&quot;Iosevka, Bold&quot;;fill:#fff;stroke-width:.399651" transform="translate(-65.645 68.822)scale(.2849)"/><path d="M333.456-140.762c-5.426 0-9.794 4.793-9.794 10.747v26.443c0 5.954 4.368 10.746 9.794 10.746h40.531v-47.936h-29.934z" style="fill:#e71f45;stroke-width:7.53942;stroke-linecap:round;stroke-miterlimit:1000;paint-order:fill markers stroke" transform="translate(-65.645 68.822)scale(.2849)"/><path d="M349.845-103.854v-22.253l-4.049 3.24-1.936-2.078 5.985-4.789h3.944v25.88z" aria-label="1" style="font-weight:700;font-size:35.2108px;line-height:1.25;font-family:Iosevka;-inkscape-font-specification:&quot;Iosevka, Bold&quot;;fill:#fff;stroke-width:.880276" transform="translate(-65.645 68.822)scale(.2849)"/><path d="M326.806-71.146h244.155a11.805 11.805 0 0 1 11.831 11.831v33.052a11.805 11.805 0 0 1-11.831 11.831H326.806a11.805 11.805 0 0 1-11.83-11.831v-33.052a11.805 11.805 0 0 1 11.83-11.83" style="stroke-width:5.04597;stroke-linecap:round;stroke-miterlimit:1000;paint-order:fill markers stroke" transform="translate(-49.25 62.663)scale(.2408)"/><path d="M390.572-37.704q-.378 0-.756-.076-.36-.075-.681-.265-.303-.189-.549-.472-.227-.303-.378-.643-.132-.36-.189-.72-.057-.358-.057-.737 0-.51.114-1.002.113-.492.416-.89.302-.415.718-.699t.89-.454q.491-.17.983-.227.51-.056 1.002-.056h1.154v-.738q0-.322-.095-.605-.094-.303-.321-.511-.208-.227-.51-.321-.303-.095-.625-.095-.265 0-.548.076-.265.056-.492.227-.227.17-.36.435-.113.264-.113.53h-2.1q0-.436.114-.87.133-.436.378-.814.246-.378.606-.662.359-.284.775-.435.416-.17.851-.227.454-.076.89-.076.472 0 .945.076.473.057.889.246.435.189.794.51.36.303.586.72.246.396.34.87.095.453.095.926v6.828h-2.1v-1.476q-.094.19-.131.246-.02.038-.076.133l-.132.17q-.057.075-.133.151-.057.076-.132.151l-.152.152q-.075.056-.17.113-.075.057-.17.114-.076.056-.17.113l-.19.076q-.094.038-.207.057-.095.037-.19.056-.094.02-.208.038-.094.02-.208.02-.094.018-.208.018-.094.019-.189.019m.851-1.816q.36 0 .7-.094.36-.114.605-.36.265-.246.379-.586.132-.34.132-.7v-.87h-1.154q-.227 0-.454.02-.227.018-.454.075-.208.056-.416.151t-.378.246q-.151.151-.246.378-.075.208-.075.435 0 .265.094.53.095.265.284.454.189.17.454.246.264.075.53.075zm8.87 1.816q-.453 0-.907-.151-.435-.133-.795-.417-.34-.302-.586-.7-.227-.415-.36-.85t-.188-.89q-.038-.472-.038-.926v-2.459q0-.454.038-.908.056-.472.189-.907.132-.435.36-.833.245-.416.585-.7.36-.302.795-.434.454-.152.908-.152.397 0 .775.114.378.094.7.34.321.227.548.549.227.321.379.7v-5.429h2.099v13.902h-2.1v-1.551q-.15.378-.378.7-.227.321-.548.567-.322.227-.7.321-.378.114-.775.114m.87-1.816q.246 0 .473-.075.246-.076.435-.227.19-.17.303-.379.132-.227.19-.454.075-.245.094-.491.038-.246.038-.492v-2.459q0-.246-.038-.492-.02-.245-.095-.472-.057-.246-.189-.454-.113-.227-.303-.379-.189-.17-.435-.245-.227-.076-.472-.076-.379 0-.738.19-.34.17-.548.49-.209.303-.284.682-.076.378-.076.756v2.459q0 .378.076.756.075.379.284.7.208.303.548.492.36.17.738.17m8.587 1.816q-.454 0-.908-.151-.435-.133-.794-.417-.34-.302-.586-.7-.227-.415-.36-.85t-.189-.89q-.038-.472-.038-.926v-2.459q0-.454.038-.908.057-.472.19-.907.132-.435.359-.833.246-.416.586-.7.36-.302.794-.434.454-.152.908-.152.397 0 .776.114.378.094.7.34.32.227.548.549.227.321.378.7v-5.429h2.1v13.902h-2.1v-1.551q-.151.378-.378.7t-.549.567q-.321.227-.7.321-.378.114-.775.114m.87-1.816q.246 0 .473-.075.246-.076.435-.227.19-.17.303-.379.132-.227.189-.454.075-.245.094-.491.038-.246.038-.492v-2.459q0-.246-.038-.492-.019-.245-.094-.472-.057-.246-.19-.454-.113-.227-.302-.379-.19-.17-.435-.245-.227-.076-.473-.076-.378 0-.737.19-.34.17-.549.49-.208.303-.284.682-.075.378-.075.756v2.459q0 .378.075.756.076.379.284.7.208.303.549.492.359.17.737.17m20.105 1.816q-.473 0-.946-.114-.473-.113-.87-.397-.378-.283-.662-.68-.265-.398-.435-.852-.151-.454-.208-.926-.057-.492-.057-.965v-4.426h-1.834v-1.815h1.834v-3.878h2.119v3.878h2.666v1.815h-2.666v4.88q.019.208.057.435.037.208.094.416.076.208.19.397.132.17.32.303.19.113.398.113.284 0 .51-.17.246-.19.36-.454.113-.265.151-.548t.038-.568v-.094h2.118v.189q0 .454-.094.889-.076.435-.246.85-.17.398-.473.738-.284.34-.662.568t-.813.321-.889.095m6.109 3.726q.208-.681.397-1.38l.378-1.363.34-1.267-2.78-9.891h2.175l1.703 7.168 1.626-7.168h2.175l-3.84 13.9zm8.019 0V-47.88h2.1v1.55q.15-.378.378-.7.227-.32.548-.548.322-.246.7-.34.378-.114.775-.114.454 0 .89.152.453.132.794.435.359.283.586.7.246.397.378.832.133.435.17.907.057.454.057.908v2.459q0 .454-.057.927-.037.454-.17.889-.132.435-.378.85-.227.398-.586.7-.34.284-.795.417-.435.15-.889.15-.397 0-.775-.113-.378-.094-.7-.321-.321-.246-.548-.568t-.379-.7v5.429zm3.631-5.542q.379 0 .72-.17.358-.19.566-.492.208-.321.284-.7t.076-.756v-2.459q0-.378-.076-.756-.075-.379-.284-.681-.208-.322-.567-.492-.34-.19-.719-.19-.246 0-.491.077-.227.075-.416.245-.19.152-.322.379-.113.208-.19.454-.056.227-.094.472-.019.246-.019.492v2.459q0 .246.02.492.037.246.094.491.075.227.189.454.132.208.322.379.189.15.416.227.245.075.491.075m9.476 1.816q-.51 0-1.04-.095-.511-.094-.965-.34t-.813-.624q-.36-.397-.587-.851-.226-.473-.321-.984-.076-.53-.076-1.04v-2.459q0-.51.076-1.021.094-.53.303-.984.227-.472.567-.85.36-.398.813-.644.454-.246.965-.34.53-.095 1.04-.095t1.021.095q.53.094.984.34t.794.643q.36.379.568.851.227.454.302.984.095.51.095 1.021v2.137h-5.428v.322q0 .378.075.775.095.379.303.7.227.303.586.473.36.17.738.17.283 0 .548-.057.284-.056.51-.208.228-.17.36-.416.152-.264.17-.53h2.1q-.02.436-.17.87-.133.436-.398.795-.245.36-.605.643-.36.265-.775.435-.416.151-.851.208-.435.076-.89.076zm-1.702-6.071h3.328v-.322q0-.378-.075-.756-.076-.379-.303-.7-.208-.322-.567-.492-.34-.17-.719-.17t-.738.17q-.34.17-.567.492-.208.321-.284.7t-.075.756zm11.083 6.07q-.435 0-.87-.056-.435-.057-.851-.208-.416-.17-.776-.435t-.605-.624-.378-.794-.133-.87h2.1q.019.264.132.51.133.246.36.397t.491.208.53.057q.283 0 .548-.057.265-.056.492-.189.227-.151.36-.397.15-.246.15-.51 0-.303-.207-.549-.19-.246-.473-.36-.265-.113-.568-.188-.283-.076-.586-.152l-.567-.189q-.284-.094-.568-.208-.264-.113-.53-.265-.245-.17-.491-.36-.227-.188-.416-.415-.17-.246-.303-.51-.132-.285-.208-.568-.057-.303-.057-.605 0-.435.114-.852.132-.416.36-.775.245-.36.586-.624.34-.284.737-.454t.832-.227.87-.057q.416 0 .833.057.435.057.832.227.397.151.737.416t.568.624q.246.36.36.776.131.416.131.85h-2.099q-.019-.245-.132-.472-.095-.246-.303-.397-.189-.152-.435-.208-.246-.057-.492-.057-.264 0-.51.057-.246.056-.454.208-.208.151-.322.397-.113.227-.113.492 0 .302.189.548.208.246.473.36.283.113.567.189.303.075.586.17.284.075.568.17.284.076.567.208.284.114.53.265.265.151.492.36.227.188.416.434.189.227.321.492.133.265.19.567.075.303.075.587 0 .454-.133.889-.132.416-.397.794-.246.36-.605.624-.36.265-.775.435-.416.151-.851.208t-.89.057z" aria-label="add types" style="font-weight:700;font-size:15.986px;line-height:1.25;font-family:Iosevka;-inkscape-font-specification:&quot;Iosevka, Bold&quot;;fill:#fff;stroke-width:.47283" transform="translate(-49.25 62.663)scale(.2408)"/><path d="M326.563-71.146c-6.42 0-11.588 5.67-11.588 12.714v31.286c0 7.043 5.168 12.714 11.588 12.714h47.953v-56.714H339.1Z" style="fill:#e71f45;stroke-width:8.91995;stroke-linecap:round;stroke-miterlimit:1000;paint-order:fill markers stroke" transform="translate(-49.25 62.663)scale(.2408)"/><path d="M339.08-27.48v-.041q0-1.083.042-2.166.041-1.125.166-2.167.167-1.083.458-2.124.292-1.083.75-2.041.459-1 1.042-1.917.625-.916 1.333-1.708.708-.833 1.5-1.541.833-.75 1.708-1.416.874-.667 1.708-1.375.833-.708 1.458-1.583.666-.875.958-1.916.333-1.084.333-2.167 0-.583-.083-1.124-.042-.542-.209-1.084-.166-.541-.458-1-.25-.5-.666-.874-.417-.375-.959-.542-.541-.166-1.083-.166-.75 0-1.458.291-.708.292-1.166.875-.417.583-.625 1.333-.208.708-.208 1.458v.042h-4.624v-.084q0-1.041.208-2.082.25-1.084.75-2 .5-.958 1.25-1.708.791-.792 1.708-1.25.958-.5 2-.666 1.082-.209 2.165-.209 1.125 0 2.25.25 1.125.209 2.083.792 1 .541 1.75 1.416t1.208 1.917q.458 1 .624 2.166.167 1.125.167 2.25 0 1.374-.375 2.707-.333 1.333-1.041 2.541-.709 1.167-1.708 2.166-1 .959-2.042 1.833-1.041.875-2.04 1.833-1 .959-1.834 2.083-.791 1.083-1.375 2.375-.541 1.25-.75 2.624h10.998v4z" aria-label="2" style="font-weight:700;font-size:35.2108px;line-height:1.25;font-family:Iosevka;-inkscape-font-specification:&quot;Iosevka, Bold&quot;;fill:#fff;stroke-width:1.04146" transform="translate(-49.25 62.663)scale(.2408)"/><path d="M326.774-61.99h244.155a11.805 11.805 0 0 1 11.83 11.832v33.051a11.805 11.805 0 0 1-11.83 11.831H326.774a11.805 11.805 0 0 1-11.831-11.83v-33.052a11.805 11.805 0 0 1 11.83-11.831" style="stroke-width:5.04597;stroke-linecap:round;stroke-miterlimit:1000;paint-order:fill markers stroke" transform="translate(-49.294 77.27)scale(.2408)"/><path d="M392.582-28.548q-.397 0-.775-.113-.378-.095-.7-.322-.321-.246-.548-.567-.227-.322-.379-.7v1.551h-2.099V-42.6h2.1v5.428q.15-.378.378-.7.227-.321.548-.548.322-.246.7-.34.378-.114.775-.114.454 0 .89.151.453.132.794.435.359.284.586.7.246.397.378.832.133.435.17.908.057.454.057.908v2.458q0 .454-.057.927-.037.454-.17.89-.132.434-.378.85-.227.397-.586.7-.34.284-.795.416-.435.151-.889.151m-.87-1.815q.379 0 .72-.17.358-.19.566-.492.209-.322.284-.7.076-.378.076-.757v-2.458q0-.379-.076-.757-.075-.378-.284-.68-.208-.322-.567-.492-.34-.19-.719-.19-.246 0-.491.076-.227.076-.416.246-.19.151-.322.378-.113.208-.19.454-.056.227-.094.473-.019.246-.019.492v2.458q0 .246.02.492.037.246.094.492.075.227.189.454.132.208.322.378.189.151.416.227.245.076.491.076m9.438 1.815q-.51 0-1.04-.094-.51-.095-.965-.34-.454-.247-.813-.625-.34-.397-.567-.85-.208-.474-.303-.984-.076-.53-.076-1.04v-2.46q0-.51.076-1.02.094-.53.303-.984.227-.473.567-.851.36-.397.813-.643.454-.246.965-.34.53-.095 1.04-.095t1.021.094q.53.095.984.34.454.247.794.644.36.378.568.85.227.455.302.984.095.511.095 1.022v2.458q0 .511-.095 1.04-.075.511-.302.984-.208.454-.568.851-.34.378-.794.624t-.984.34q-.51.095-1.021.095m0-1.815q.378 0 .719-.17.36-.17.567-.492.227-.322.303-.7t.075-.757v-2.458q0-.379-.075-.757-.076-.378-.303-.7-.208-.321-.567-.491-.34-.17-.719-.17t-.738.17q-.34.17-.567.491-.208.322-.284.7t-.075.757v2.458q0 .379.075.757.076.378.284.7.227.321.567.491.36.17.738.17m6.903 1.664v-10.024h2.119v2.175q.113-.435.283-.832.17-.416.454-.757.284-.34.681-.53.416-.207.851-.207.36 0 .7.113.36.114.605.36.265.245.416.567.17.322.265.68.095.341.114.7.037.36.037.72h-2.118q0-.228-.038-.455-.019-.227-.113-.416-.095-.208-.303-.321-.189-.133-.416-.133-.303 0-.567.19-.246.189-.397.453-.152.265-.246.568-.076.302-.133.605t-.075.624v5.92zm9.457 0v-10.024h2.118v2.175q.114-.435.284-.832.17-.416.454-.757.284-.34.68-.53.417-.207.852-.207.36 0 .7.113.359.114.605.36.265.245.416.567.17.322.265.68.094.341.113.7.038.36.038.72h-2.118q0-.228-.038-.455-.02-.227-.114-.416-.094-.208-.302-.321-.19-.133-.416-.133-.303 0-.568.19-.246.189-.397.453-.151.265-.246.568-.075.302-.132.605t-.076.624v5.92zm12.01.151q-.51 0-1.04-.094-.511-.095-.965-.34-.454-.247-.813-.625-.34-.397-.568-.85-.208-.474-.302-.984-.076-.53-.076-1.04v-2.46q0-.51.076-1.02.094-.53.302-.984.227-.473.568-.851.36-.397.813-.643.454-.246.965-.34.53-.095 1.04-.095t1.021.094q.53.095.984.34.453.247.794.644.36.378.567.85.227.455.303.984.094.511.094 1.022v2.458q0 .511-.094 1.04-.076.511-.303.984-.208.454-.567.851-.34.378-.794.624t-.984.34q-.51.095-1.021.095m0-1.815q.378 0 .718-.17.36-.17.568-.492.227-.322.302-.7.076-.378.076-.757v-2.458q0-.379-.076-.757-.075-.378-.302-.7-.208-.321-.568-.491-.34-.17-.718-.17t-.738.17q-.34.17-.567.491-.208.322-.284.7t-.076.757v2.458q0 .379.076.757t.284.7q.227.321.567.491.36.17.738.17m6.79 1.664-1.627-10.024h2.118l.473 7.944.87-5.145h1.665l.87 5.145.472-7.944h2.119l-1.627 10.024h-1.683l-.984-5.069-.983 5.069zm21.523.151q-.51 0-1.022-.094-.51-.095-.964-.34-.435-.265-.794-.644-.34-.397-.568-.85-.208-.474-.284-.984t-.075-1.022v-2.458q0-.511.075-1.022.076-.51.284-.964.227-.473.568-.851.359-.397.794-.643.454-.265.964-.36.511-.094 1.022-.094.492 0 .964.094.492.076.927.284t.776.549q.359.34.586.775.227.416.34.908.114.473.114.945v.038h-2.1v-.019q0-.34-.113-.662-.095-.321-.303-.586t-.53-.378q-.32-.133-.661-.133-.378 0-.719.19-.34.17-.548.491-.19.303-.265.681t-.076.757v2.458q0 .379.076.757.075.378.265.7.208.302.548.491.34.17.719.17.34 0 .662-.113.321-.132.53-.397.207-.265.302-.586.113-.322.113-.662v-.02h2.1v.039q0 .472-.114.964-.113.473-.34.908-.227.416-.586.757-.34.34-.776.548-.435.208-.927.284-.472.094-.964.094m5.9-.151V-42.6h2.1v5.428q.151-.378.378-.7t.53-.548q.321-.246.7-.34.378-.114.775-.114.454 0 .889.151t.757.454q.34.303.548.719.208.397.322.832.132.435.17.889.057.435.057.889v6.241h-2.1v-6.241q0-.246-.038-.492-.019-.246-.094-.473-.057-.246-.19-.454-.113-.208-.302-.378-.17-.17-.416-.246-.227-.076-.473-.076t-.492.076q-.227.076-.416.246-.17.17-.302.378-.114.208-.19.454-.056.227-.094.473-.019.246-.019.492v6.241zm13.108.151q-.511 0-1.04-.094-.511-.095-.965-.34-.454-.247-.814-.625-.359-.397-.586-.85-.227-.474-.321-.984-.076-.53-.076-1.04v-2.46q0-.51.076-1.02.094-.53.302-.984.227-.473.568-.851.359-.397.813-.643t.964-.34q.53-.095 1.04-.095.511 0 1.022.094.53.095.983.34.454.247.795.644.36.378.567.85.227.455.303.984.094.511.094 1.022v2.137h-5.428v.321q0 .379.076.776.094.378.302.7.227.302.587.472t.737.17q.284 0 .549-.056.284-.057.51-.208.228-.17.36-.416.151-.265.17-.53h2.1q-.02.435-.17.87-.133.435-.398.795-.246.359-.605.643-.36.264-.776.435-.416.151-.85.208-.436.075-.89.075zm-1.703-6.07h3.329v-.322q0-.379-.076-.757-.075-.378-.302-.7-.208-.321-.568-.491-.34-.17-.718-.17-.379 0-.738.17-.34.17-.567.491-.208.322-.284.7t-.076.757zm11.065 6.07q-.511 0-1.022-.094-.51-.095-.964-.34-.435-.265-.795-.644-.34-.397-.567-.85-.208-.474-.284-.984t-.075-1.022v-2.458q0-.511.075-1.022.076-.51.284-.964.227-.473.567-.851.36-.397.795-.643.454-.265.964-.36t1.022-.094q.491 0 .964.094.492.076.927.284t.775.549q.36.34.587.775.227.416.34.908.113.473.113.945v.038h-2.099v-.019q0-.34-.113-.662-.095-.321-.303-.586t-.53-.378q-.321-.133-.661-.133-.379 0-.72.19-.34.17-.548.491-.189.303-.264.681t-.076.757v2.458q0 .379.076.757.075.378.264.7.208.302.549.491.34.17.719.17.34 0 .661-.113.322-.132.53-.397t.303-.586q.113-.322.113-.662v-.02h2.1v.039q0 .472-.114.964-.113.473-.34.908-.227.416-.587.757-.34.34-.775.548t-.927.284q-.473.094-.964.094m6.203-.151V-42.6h2.1v8.095l2.723-4.218h2.402l-3.253 4.596 3.253 5.428h-2.383l-2.156-3.631-.587.832v2.799z" aria-label="borrow check" style="font-weight:700;font-size:15.986px;line-height:1.25;font-family:Iosevka;-inkscape-font-specification:&quot;Iosevka, Bold&quot;;fill:#fff;stroke-width:.47283" transform="translate(-49.294 77.27)scale(.2408)"/><path d="M326.53-61.99c-6.42 0-11.587 5.671-11.587 12.715v31.285c0 7.044 5.168 12.714 11.588 12.714h47.952v-56.713h-35.416Z" style="fill:#e71f45;stroke-width:8.91995;stroke-linecap:round;stroke-miterlimit:1000;paint-order:fill markers stroke" transform="translate(-49.294 77.27)scale(.2408)"/><path d="M347.087-17.99q-1.083 0-2.207-.208-1.084-.167-2.083-.625-.958-.5-1.792-1.25-.791-.791-1.333-1.75-.541-1-.791-2.082-.25-1.083-.25-2.167h4.624q0 .792.25 1.584.25.75.75 1.374.541.583 1.291.875.75.25 1.541.25.875 0 1.667-.333.791-.375 1.291-1.042.5-.708.708-1.541.25-.833.25-1.666 0-.834-.25-1.667t-.75-1.5q-.458-.708-1.166-1.166-.708-.5-1.5-.75-.791-.25-1.666-.291-.833-.084-1.666-.084v-3.999q.75 0 1.541-.041.792-.084 1.5-.334.75-.25 1.375-.708.624-.458 1.041-1.083.458-.625.666-1.375.209-.791.209-1.541t-.167-1.458q-.166-.75-.583-1.375-.375-.625-1.083-.958-.667-.375-1.375-.375t-1.375.333q-.666.292-1.083.875-.375.583-.583 1.292-.167.708-.167 1.416v.042h-4.624v-.084q0-1.041.209-2.083.25-1.041.708-1.958.458-.958 1.208-1.708t1.666-1.25 1.958-.666q1.042-.208 2.083-.208t2.083.208q1.083.208 2 .75.916.5 1.624 1.291.75.792 1.208 1.75.459.958.667 2 .25 1.041.25 2.124t-.292 2.166q-.25 1.084-.833 2-.583.917-1.416 1.666-.833.75-1.833 1.208 1.125.459 2.083 1.25.958.75 1.624 1.75t1 2.208q.333 1.166.333 2.374 0 1.125-.25 2.25t-.791 2.166q-.5 1-1.291 1.833-.792.791-1.792 1.333t-2.124.75-2.292.208" aria-label="3" style="font-weight:700;font-size:35.2108px;line-height:1.25;font-family:Iosevka;-inkscape-font-specification:&quot;Iosevka, Bold&quot;;fill:#fff;stroke-width:1.04146" transform="translate(-49.294 77.27)scale(.2408)"/><path d="M246.478-264.961v-21.06h5.673q.83 0 1.633.2.802.172 1.49.63.716.43 1.204 1.09.515.659.802 1.432.315.774.43 1.605.114.802.114 1.633 0 .917-.143 1.834t-.544 1.748q-.373.83-1.032 1.518-.659.66-1.519 1.032l3.754 8.338h-4.04l-3.553-7.88h-.344v7.88zm5.673-11.146q.344 0 .659-.172.315-.2.487-.487.2-.287.315-.602.115-.344.172-.688.086-.343.086-.687.029-.344.029-.688t-.029-.688q0-.344-.086-.687-.057-.344-.172-.66-.114-.343-.315-.63-.172-.315-.487-.487t-.66-.172h-1.747v6.648zm12.55 11.375q-.659 0-1.318-.23-.63-.257-1.089-.744t-.745-1.089-.458-1.232q-.172-.659-.23-1.318-.057-.688-.057-1.347v-9.455h3.926v9.455q0 .43.057.889.057.43.23.83.171.402.544.688.372.287.802.287t.802-.287.545-.688q.172-.4.229-.83.057-.459.057-.889v-9.455h3.926v15.186h-3.926v-2.12q-.2.487-.516.945-.315.43-.744.774-.43.315-.975.458-.515.172-1.06.172m15.931 0q-.687 0-1.375-.114-.659-.086-1.318-.344-.63-.258-1.175-.66-.544-.43-.917-1.002-.372-.573-.573-1.232-.2-.688-.2-1.376h3.782q0 .344.143.66.143.315.401.544.258.2.573.286.344.086.66.086.343 0 .658-.057.344-.086.602-.287.287-.2.43-.487.143-.315.143-.659 0-.43-.315-.745-.315-.343-.716-.487-.401-.172-.831-.258-.401-.114-.831-.229-.401-.114-.831-.23-.401-.142-.802-.314-.402-.2-.774-.43-.344-.258-.66-.544-.314-.287-.572-.63-.258-.373-.43-.774-.172-.402-.258-.831-.086-.43-.086-.86 0-.66.172-1.318.2-.66.544-1.204.373-.573.889-1.002.544-.43 1.146-.688.63-.258 1.29-.344.658-.115 1.346-.115.659 0 1.318.115.66.086 1.26.344.631.258 1.147.716.544.43.888 1.003.344.545.516 1.204.2.63.2 1.318h-3.782q0-.316-.114-.602-.086-.315-.316-.516-.2-.23-.515-.315-.287-.115-.602-.115t-.63.086q-.287.086-.516.287t-.373.516q-.114.286-.114.573 0 .458.315.802.315.315.716.458t.831.258.831.23q.43.114.831.257.43.115.802.316.402.172.774.43.373.229.688.515t.573.66q.258.343.43.744.172.373.257.802t.086.86q0 .688-.2 1.375-.2.66-.602 1.233-.372.573-.917 1.002-.544.402-1.203.66-.63.229-1.318.315-.688.114-1.376.114m15.96 0q-.745 0-1.49-.2-.716-.172-1.346-.602-.602-.43-1.032-1.06t-.688-1.318q-.229-.717-.315-1.462-.086-.773-.086-1.518v-5.989h-2.521v-3.266h2.521v-5.874h3.897v5.874h3.61v3.266h-3.61v6.562q.029.258.057.544.03.287.086.573.058.258.144.516.114.258.315.487.2.2.458.2.373 0 .573-.315.23-.315.316-.63.086-.344.114-.688.029-.372.029-.716v-.115h3.925v.287q0 .716-.143 1.404-.114.688-.401 1.318-.258.63-.716 1.175-.43.544-1.032.917-.573.344-1.26.487t-1.405.143m21.92-.23v-21.06h5.272q.831 0 1.662.173.831.172 1.548.601.716.43 1.26 1.09.545.658.86 1.432.344.773.458 1.633.115.831.115 1.662 0 .83-.115 1.69-.114.831-.458 1.605-.315.774-.86 1.433-.544.63-1.26 1.06-.717.43-1.548.63-.83.172-1.662.172h-1.346v7.88zm5.272-11.145q.373 0 .688-.143.344-.172.573-.43.23-.287.373-.63.143-.345.2-.688.086-.344.115-.688.028-.373.028-.745 0-.373-.028-.716-.029-.373-.115-.717-.057-.344-.2-.687t-.373-.602q-.23-.287-.573-.43-.315-.172-.688-.172h-1.346v6.648zm10.086 11.146v-15.186h3.926v3.123q.172-.63.43-1.204.258-.601.659-1.088.4-.488 1.003-.774.601-.287 1.232-.287.544 0 1.06.201.544.2.917.63.401.402.63.917.23.516.344 1.06.115.545.143 1.118.058.544.058 1.089h-3.926q0-.287-.029-.573-.028-.287-.143-.545t-.344-.43q-.229-.2-.515-.2-.373 0-.66.315-.286.315-.43.688-.143.344-.229.745-.086.372-.143.773l-.057.803v8.825zm18.453.23q-.773 0-1.576-.144-.773-.143-1.49-.516-.687-.372-1.232-.945t-.888-1.29-.487-1.49q-.115-.802-.115-1.576v-3.725q0-.773.115-1.547.143-.802.487-1.519t.888-1.289 1.232-.946q.717-.372 1.49-.515.803-.144 1.576-.144.774 0 1.548.144.802.143 1.49.515.716.373 1.26.946.545.573.888 1.29.344.716.459 1.518.143.774.143 1.547v3.725q0 .774-.143 1.576-.115.774-.459 1.49-.343.717-.888 1.29t-1.26.945q-.688.373-1.49.516-.774.143-1.548.143m0-3.267q.459 0 .86-.23.43-.257.63-.659.23-.43.287-.888.086-.458.086-.917v-3.725q0-.458-.086-.917-.058-.458-.287-.86-.2-.429-.63-.658-.401-.258-.86-.258t-.888.258q-.401.229-.63.659-.201.401-.287.86-.057.458-.057.916v3.725q0 .459.057.917.086.459.287.888.229.402.63.66.43.229.888.229m15.903 3.266q-.745 0-1.49-.2-.716-.172-1.347-.602-.602-.43-1.031-1.06-.43-.63-.688-1.318-.23-.717-.315-1.462-.086-.773-.086-1.518v-5.989h-2.522v-3.266h2.522v-5.874h3.897v5.874h3.61v3.266h-3.61v6.562l.057.544q.029.287.086.573.057.258.143.516.115.258.315.487.201.2.459.2.372 0 .573-.315.23-.315.315-.63.086-.344.115-.688.028-.372.028-.716v-.115h3.926v.287q0 .716-.143 1.404-.115.688-.402 1.318-.257.63-.716 1.175-.43.544-1.031.917-.574.344-1.261.487-.688.143-1.404.143m12.75 0q-.773 0-1.575-.143-.774-.143-1.49-.516-.688-.372-1.232-.945-.545-.573-.889-1.29-.343-.716-.487-1.49-.114-.802-.114-1.576v-3.725q0-.773.114-1.547.144-.802.487-1.519.344-.716.889-1.289.544-.573 1.232-.946.716-.372 1.49-.515.802-.144 1.576-.144.773 0 1.547.144.802.143 1.49.515.716.373 1.26.946.545.573.889 1.29.344.716.458 1.518.144.774.144 1.547v3.725q0 .774-.144 1.576-.114.774-.458 1.49-.344.717-.888 1.29-.545.573-1.261.945-.688.373-1.49.516-.774.143-1.547.143m0-3.266q.46 0 .86-.23.43-.257.63-.659.23-.43.287-.888.086-.458.086-.917v-3.725q0-.458-.086-.917-.057-.458-.286-.86-.201-.429-.63-.658-.402-.258-.86-.258-.459 0-.889.258-.4.229-.63.659-.2.401-.287.86-.057.458-.057.916v3.725q0 .459.057.917.086.459.287.888.23.402.63.66.43.229.889.229m15.903 3.266q-.745 0-1.49-.2-.716-.172-1.346-.602-.602-.43-1.032-1.06t-.688-1.318q-.229-.717-.315-1.462-.086-.773-.086-1.518v-5.989h-2.521v-3.266h2.521v-5.874h3.897v5.874h3.61v3.266h-3.61v6.562q.029.258.057.544.029.287.086.573.058.258.144.516.114.258.315.487.2.2.458.2.373 0 .573-.315.23-.315.315-.63.086-.344.115-.688.029-.372.029-.716v-.115h3.925v.287q0 .716-.143 1.404-.115.688-.401 1.318-.258.63-.716 1.175-.43.544-1.032.917-.573.344-1.26.487t-1.405.143m9.17 5.645q.315-1.146.601-2.292.315-1.147.602-2.321l.43-1.662-3.926-14.785h4.012l2.005 10.057 1.72-10.057h4.011l-5.444 21.06zm12.349 0v-21.06h3.925v2.12q.201-.487.516-.946t.745-.773q.459-.344.974-.487.545-.144 1.09-.144.687 0 1.317.23.66.229 1.146.716.488.458.803 1.06.344.602.516 1.26.2.66.257 1.348.058.659.058 1.346v3.725q0 .688-.058 1.376-.057.659-.257 1.318-.172.659-.516 1.26-.315.602-.803 1.09-.487.458-1.146.687-.63.23-1.318.23-.544 0-1.089-.144-.515-.143-.974-.459-.43-.343-.745-.802-.315-.458-.516-.945v7.994zm5.587-8.911q.459 0 .86-.258t.602-.66q.229-.4.286-.859.086-.458.086-.917v-3.725q0-.458-.086-.917-.057-.458-.286-.86-.2-.4-.602-.658t-.86-.258q-.286 0-.573.115-.286.114-.487.343-.2.23-.315.516-.115.258-.2.545-.058.286-.087.601v4.9q.029.287.086.573.086.287.201.573.115.258.315.487.2.23.487.344.287.115.573.115m9.284 3.037v-3.267h3.267v-8.653h-2.866v-3.266h6.762v11.92h2.866v3.266zm5.014-17.049q-.515 0-1.031-.143-.516-.172-.888-.516-.344-.372-.516-.888-.143-.516-.143-1.032 0-.515.143-1.031.172-.516.516-.86.372-.372.888-.516.516-.171 1.031-.171.516 0 1.032.171.516.144.86.516.372.344.515.86.172.516.172 1.031 0 .516-.172 1.032-.143.516-.515.888-.344.344-.86.516-.516.143-1.032.143m8.768 17.049v-15.186h3.926v2.12q.2-.487.516-.917.315-.458.745-.774.43-.343.945-.487.545-.172 1.089-.172.659 0 1.29.258.658.23 1.117.717t.745 1.088.458 1.261q.172.63.23 1.318.057.66.057 1.318v9.456h-3.926v-9.456q0-.43-.057-.86-.057-.458-.23-.859-.171-.401-.544-.688-.372-.286-.802-.286t-.802.286-.545.688-.229.86q-.057.43-.057.86v9.455zm19.8 6.103q-.716 0-1.404-.114-.688-.115-1.318-.402-.63-.286-1.175-.773-.516-.459-.888-1.06-.344-.602-.545-1.29-.172-.659-.2-1.347h3.925q0 .316.086.63.115.345.315.574.23.258.545.372.315.144.659.144.43 0 .802-.287.401-.258.602-.659t.258-.86q.057-.43.057-.888v-2.263q-.2.487-.516.945-.315.459-.773.802-.43.316-.975.459-.515.143-1.06.143-.687 0-1.346-.23-.63-.228-1.118-.687-.487-.487-.83-1.089-.316-.601-.517-1.26-.172-.66-.229-1.318-.057-.688-.057-1.376v-3.725q0-.687.057-1.346.057-.688.23-1.347.2-.66.515-1.26.344-.603.831-1.061.487-.487 1.118-.716.659-.23 1.346-.23.545 0 1.06.144.545.143.975.487.458.315.773.773.316.459.516.946v-2.12h3.926v15.33q0 .773-.144 1.546-.114.774-.43 1.49-.315.717-.86 1.29-.515.573-1.203.945-.687.402-1.46.545-.774.143-1.548.143m.057-9.14q.287 0 .573-.115.287-.115.487-.344t.316-.487q.114-.286.171-.573.086-.286.086-.573.029-.315.029-.602v-3.725q0-.286-.029-.573 0-.315-.086-.601-.057-.287-.171-.545-.115-.286-.316-.516-.2-.229-.487-.343-.286-.115-.573-.115-.458 0-.86.258-.4.258-.63.659-.2.401-.286.86-.058.458-.058.916v3.725q0 .459.058.917.086.459.286.86.23.4.63.659.402.258.86.258m24.556 3.037-2.435-21.06h3.84l.257 15.243 1.089-9.34h2.75l1.09 9.34.257-15.243h3.84l-2.436 21.06h-2.78l-1.346-10.057-1.347 10.057zm18.453.23q-.774 0-1.576-.144-.774-.143-1.49-.516-.688-.372-1.232-.945-.545-.573-.888-1.29-.344-.716-.487-1.49-.115-.802-.115-1.576v-3.725q0-.773.115-1.547.143-.802.487-1.519t.888-1.289 1.232-.946q.716-.372 1.49-.515.802-.144 1.576-.144t1.547.144q.803.143 1.49.515.717.373 1.26.946.545.573.89 1.29.343.716.458 1.518.143.774.143 1.547v3.725q0 .774-.143 1.576-.115.774-.459 1.49-.344.717-.888 1.29t-1.26.945q-.689.373-1.49.516-.774.143-1.548.143m0-3.267q.458 0 .86-.23.43-.257.63-.659.23-.43.286-.888.086-.458.086-.917v-3.725q0-.458-.086-.917-.057-.458-.286-.86-.2-.429-.63-.658-.402-.258-.86-.258-.459 0-.888.258-.401.229-.63.659-.201.401-.287.86-.058.458-.058.916v3.725q0 .459.058.917.086.459.286.888.23.402.63.66.43.229.889.229m10.2 3.037v-15.186h3.926v3.123q.172-.63.43-1.204.258-.601.659-1.088t1.003-.774q.601-.287 1.232-.287.544 0 1.06.201.544.2.917.63.401.402.63.917.23.516.344 1.06.115.545.143 1.118.058.544.058 1.089h-3.926q0-.287-.029-.573-.028-.287-.143-.545t-.344-.43q-.229-.2-.515-.2-.373 0-.66.315-.286.315-.43.688-.142.344-.228.745-.086.372-.144.773l-.057.803v8.825zm13.353 0v-21.06h3.897v11.375l3.094-5.501h4.298l-4.641 6.991 4.641 8.195h-4.326l-2.665-4.7-.401.603v4.097zm16.79 0v-11.375h-2.922v-3.267h2.923v-1.49q0-.659.086-1.29.086-.658.315-1.26.23-.602.63-1.118.43-.515.975-.86.573-.343 1.203-.486.63-.144 1.29-.144.601 0 1.203.115t1.117.401q.545.287.946.745.43.459.688 1.003.286.545.4 1.146.115.573.115 1.204v.258h-3.925v-.373q0-.143-.029-.287l-.057-.286q0-.143-.057-.287-.058-.143-.172-.257-.086-.115-.23-.115-.171 0-.286.172-.086.143-.143.315-.058.172-.086.344l-.058.344q0 .172-.028.372v1.834h3.753v3.267h-3.753v11.375zm11.95 0v-3.267h3.266v-14.527h-2.865v-3.266h6.762v17.793h2.865v3.267zm19.34.23q-.773 0-1.576-.144-.773-.143-1.49-.516-.687-.372-1.232-.945t-.888-1.29-.487-1.49q-.115-.802-.115-1.576v-3.725q0-.773.115-1.547.143-.802.487-1.519t.888-1.289 1.232-.946q.717-.372 1.49-.515.803-.144 1.576-.144.774 0 1.548.144.802.143 1.49.515.716.373 1.26.946.545.573.889 1.29.344.716.458 1.518.143.774.143 1.547v3.725q0 .774-.143 1.576-.114.774-.458 1.49-.344.717-.889 1.29-.544.573-1.26.945-.688.373-1.49.516-.774.143-1.548.143m0-3.267q.459 0 .86-.23.43-.257.63-.659.23-.43.287-.888.086-.458.086-.917v-3.725q0-.458-.086-.917-.057-.458-.287-.86-.2-.429-.63-.658-.401-.258-.86-.258t-.888.258q-.401.229-.63.659-.2.401-.287.86-.057.458-.057.916v3.725q0 .459.057.917.086.459.287.888.229.402.63.66.43.229.888.229m10.201 3.037-2.436-15.186h3.84l.287 10.945 1.06-6.705h2.75l1.06 6.705.287-10.945h3.84l-2.436 15.186h-2.78l-1.346-7.25-1.347 7.25z" aria-label="Rust Prototyping Workflow" style="-inkscape-font-specification:&quot;Iosevka, Heavy&quot;;stroke-width:.716337" transform="translate(-49.294 77.27)scale(.2408)"/><path d="M333.772-83.403H540.14c5.54 0 10 4.46 10 10v27.937c0 5.54-4.46 10-10 10H333.772c-5.54 0-10-4.46-10-10v-27.937c0-5.54 4.46-10 10-10" style="stroke-width:4.26501;stroke-linecap:round;stroke-miterlimit:1000;paint-order:fill markers stroke" transform="translate(-65.513 102.914)scale(.2849)"/><path d="M387.286-55.264v-6.555h-1.695v-1.534h1.695v-1.04q0-.351.032-.687.048-.352.176-.671.127-.32.335-.592.224-.287.512-.463.304-.192.64-.256.335-.08.687-.08.48 0 .943.16.463.144.783.48.336.335.48.799.16.463.16.943v.144h-1.79v-.064q0-.144-.033-.288-.016-.16-.08-.304t-.192-.24q-.112-.095-.271-.095-.192 0-.32.16-.128.143-.192.32-.048.175-.08.367-.016.176-.016.368v1.039h2.334v1.534h-2.334v6.555zm6.554 0V-56.8h2.014v-5.403h-1.79v-1.535h3.58v6.938h1.791v1.535zm2.798-9.672q-.256 0-.512-.08t-.432-.256-.255-.431-.08-.512.08-.511.255-.432.432-.256.512-.08.511.08.432.256.255.432.08.511-.08.512-.255.431-.432.256-.511.08m4.556 9.672 2.51-4.237-2.51-4.236h2.046l1.39 2.558 1.391-2.558h2.047l-2.51 4.236 2.51 4.237h-2.047l-1.39-2.558-1.391 2.558zm19.375.127q-.432 0-.864-.08-.431-.08-.815-.287-.368-.224-.671-.544-.288-.335-.48-.72-.176-.399-.24-.83-.064-.432-.064-.864v-2.078q0-.431.064-.863t.24-.815q.192-.4.48-.72.303-.335.671-.543.384-.224.815-.304.432-.08.864-.08.415 0 .815.08.415.064.783.24t.656.463q.303.288.495.656.192.352.288.767.096.4.096.8v.031h-1.775v-.016q0-.287-.096-.56-.08-.27-.255-.495-.176-.223-.448-.32-.272-.111-.56-.111-.32 0-.607.16-.288.143-.464.415-.16.256-.223.576-.064.32-.064.64v2.077q0 .32.064.64t.223.591q.176.256.464.416.288.144.608.144.287 0 .56-.096.27-.112.447-.336.176-.224.255-.495.096-.272.096-.56v-.016h1.775v.032q0 .4-.096.815-.096.4-.288.768-.192.351-.495.64-.288.287-.656.463t-.783.24q-.4.08-.815.08m5.243-.127V-56.8h2.014v-8.68h-1.79v-1.535h3.58V-56.8h1.791v1.535zm7.993 0V-56.8h2.014v-5.403h-1.79v-1.535h3.58v6.938h1.791v1.535zm2.798-9.672q-.256 0-.512-.08t-.432-.256-.255-.431-.08-.512.08-.511.255-.432.432-.256.512-.08.511.08.432.256.255.432.08.511-.08.512-.255.431-.432.256-.511.08m4.94 12.949v-11.75h1.774v1.31q.128-.319.32-.59.191-.272.463-.464.272-.208.591-.288.32-.096.656-.096.384 0 .751.128.384.112.672.368.303.24.495.591.208.336.32.704t.144.767q.048.384.048.767v2.078q0 .384-.048.784-.032.383-.144.751t-.32.72q-.192.335-.495.59-.288.24-.672.353-.367.127-.751.127-.336 0-.656-.095-.32-.08-.591-.272-.272-.208-.464-.48-.191-.272-.32-.591v4.588zm3.068-4.684q.32 0 .608-.144.304-.16.48-.416.175-.271.24-.591.063-.32.063-.64v-2.078q0-.32-.064-.64-.064-.319-.24-.575-.175-.272-.479-.415-.288-.16-.608-.16-.207 0-.415.064-.192.064-.352.208-.16.127-.272.32-.095.175-.16.383-.047.192-.08.4-.015.207-.015.415v2.078q0 .208.016.416.032.208.08.416.063.191.16.383.111.176.271.32.16.128.352.192.208.064.415.064m4.924 4.684v-11.75h1.775v1.31q.128-.319.32-.59.191-.272.463-.464.272-.208.591-.288.32-.096.656-.096.384 0 .751.128.384.112.672.368.303.24.495.591.208.336.32.704t.144.767q.048.384.048.767v2.078q0 .384-.048.784-.032.383-.144.751t-.32.72q-.192.335-.495.59-.288.24-.672.353-.367.127-.751.127-.336 0-.656-.095-.32-.08-.591-.272-.272-.208-.464-.48-.191-.272-.32-.591v4.588zm3.07-4.684q.32 0 .607-.144.304-.16.48-.416.175-.271.24-.591.063-.32.063-.64v-2.078q0-.32-.064-.64-.064-.319-.24-.575-.175-.272-.479-.415-.288-.16-.608-.16-.207 0-.415.064-.192.064-.352.208-.16.127-.272.32-.095.175-.16.383-.047.192-.08.4-.015.207-.015.415v2.078q0 .208.016.416.032.208.08.416.063.191.16.383.111.176.271.32.16.128.352.192.208.064.415.064m6.138 4.684q.176-.576.336-1.167l.32-1.151.287-1.071-2.35-8.361h1.839l1.438 6.059 1.375-6.059h1.839l-3.245 11.75zm15.027-3.277V-56.8h2.014v-8.68h-1.79v-1.535h3.58V-56.8h1.791v1.535zm7.993 0V-56.8h2.014v-5.403h-1.79v-1.535h3.58v6.938h1.791v1.535zm2.798-9.672q-.256 0-.512-.08t-.432-.256-.255-.431-.08-.512.08-.511.255-.432.432-.256.512-.08.511.08.432.256.255.432.08.511-.08.512-.255.431-.432.256-.511.08m4.94 9.672v-8.473h1.774v1.31q.128-.319.32-.59.191-.272.447-.464.272-.208.591-.288.32-.096.656-.096.384 0 .751.128.368.128.64.384.287.255.463.607.176.336.272.704.112.367.144.75.048.369.048.752v5.276h-1.775v-5.276q0-.208-.032-.415-.016-.208-.08-.4-.047-.208-.16-.384-.095-.176-.255-.32-.144-.143-.352-.207-.192-.064-.4-.064-.207 0-.415.064-.192.064-.352.208-.144.143-.256.32-.095.175-.16.383-.047.192-.08.4-.015.207-.015.415v5.276zm12.037.127q-.4 0-.8-.095-.4-.096-.735-.336-.32-.24-.56-.576-.223-.335-.367-.719-.128-.384-.176-.783-.048-.416-.048-.816v-3.74h-1.55v-1.535h1.55v-3.277h1.79v3.277h2.254v1.535h-2.254v4.124q.016.176.048.368.032.176.08.351.064.176.16.336.112.144.272.256.16.096.336.096.24 0 .431-.144.208-.16.304-.384t.128-.463.032-.48v-.08h1.79v.16q0 .384-.08.751-.064.368-.207.72-.144.335-.4.623-.24.288-.56.48t-.687.272-.751.08m6.97 0q-.368 0-.736-.048-.367-.047-.72-.175-.35-.144-.655-.368-.303-.224-.511-.528-.208-.303-.32-.671t-.112-.735h1.775q.016.223.112.431.111.208.303.336t.416.176.448.048q.24 0 .463-.048t.416-.16q.192-.128.304-.336.127-.208.127-.431 0-.256-.175-.464-.16-.208-.4-.304-.224-.096-.48-.16-.24-.063-.495-.127l-.48-.16q-.24-.08-.48-.176-.223-.096-.447-.224-.208-.144-.416-.304-.191-.16-.351-.351-.144-.208-.256-.432-.112-.24-.176-.48-.048-.255-.048-.511 0-.368.096-.72.112-.351.304-.655.207-.304.495-.527.288-.24.624-.384.335-.144.703-.192t.735-.048q.352 0 .704.048.367.048.703.192.336.128.624.352.287.223.48.527.207.304.303.656.112.351.112.719h-1.775q-.016-.208-.111-.4-.08-.208-.256-.335-.16-.128-.368-.176t-.416-.048q-.223 0-.431.048t-.384.176-.272.335q-.096.192-.096.416 0 .256.16.463.176.208.4.304.24.096.48.16.255.064.495.144.24.064.48.144.24.064.48.176.24.096.447.223.224.128.416.304.191.16.351.368.16.192.272.416t.16.48q.064.255.064.495 0 .383-.112.751-.112.352-.336.671-.208.304-.511.528t-.656.368q-.352.128-.72.175-.367.048-.75.048" aria-label="fix clippy lints" style="font-weight:700;font-size:15.986px;line-height:1.25;font-family:Iosevka;-inkscape-font-specification:&quot;Iosevka, Bold&quot;;fill:#fff;stroke-width:.399651" transform="translate(-65.513 102.914)scale(.2849)"/><path d="M333.567-83.402c-5.426 0-9.795 4.792-9.795 10.746v26.443c0 5.954 4.369 10.747 9.795 10.747h40.531v-47.936h-29.935z" style="fill:#e71f45;stroke-width:7.53942;stroke-linecap:round;stroke-miterlimit:1000;paint-order:fill markers stroke" transform="translate(-65.513 102.914)scale(.2849)"/><path d="M351.787-46.494v-6.514h-7.922v-3.38l7.676-15.986h4.225L348.09-56.39h3.697v-5.281h3.909v5.281h1.901v3.38h-1.901v6.515z" aria-label="4" style="font-weight:700;font-size:35.2108px;line-height:1.25;font-family:Iosevka;-inkscape-font-specification:&quot;Iosevka, Bold&quot;;fill:#fff;stroke-width:.880276" transform="translate(-65.513 102.914)scale(.2849)"/><path d="M332.819-157.584h28.72l-14.36 16.722z" style="stroke-width:.755866;stroke-linecap:round;stroke-miterlimit:1000;paint-order:fill markers stroke" transform="translate(-49.25 62.663)scale(.2408)"/></svg>