<svg xmlns="http://www.w3.org/2000/svg" xml:space="preserve" width="800" height="800" viewBox="0 0 495 495"><path d="M89.667 462.161c25.373 3.03 53.88 19.467 77.738 22.369 23.986 3.028 31.408-16.335 31.408-16.335s26.992-6.034 55.368-6.729c28.404-.795 55.292 5.908 55.292 5.908s5.214 11.941 14.947 17.156c9.733 5.314 30.689 6.034 44.12-8.116 13.456-14.253 49.36-32.206 69.519-43.428 20.288-11.248 16.565-28.403 3.827-33.617-12.737-5.212-23.164-13.43-22.368-29.2.693-15.639-11.248-26.065-11.248-26.065s10.452-34.412.719-62.919c-9.733-28.376-41.835-74.012-66.514-108.322-24.679-34.413-3.725-74.141-26.194-124.914C293.81-2.899 235.54.106 204.131 21.78c-31.408 21.676-21.779 75.426-20.264 100.928 1.516 25.373.694 43.529-2.208 50.053-36.79 36.286-55.168 80.763-69.622 130.204-9.63 17.156-2.902 32.795-2.902 32.795s-6.727 2.31-12.044 13.56c-5.214 11.12-15.64 16.435-34.413 20.058-18.645 3.826-18.645 15.845-14.15 29.302 4.519 13.43 0 20.956-5.215 38.111-5.212 17.153 20.88 22.366 46.354 25.371m263.746-78.252c13.329 5.83 32.487-2.286 38.316-8.116 5.806-5.804 9.914-14.433 9.914-14.433s5.83 2.902 5.238 12.12c-.617 9.35 4.006 22.678 12.738 27.3 8.731 4.598 22.06 11.017 15.152 17.437-7.038 6.42-45.97 22.086-57.602 34.31-11.531 12.147-26.683 22.086-35.903 19.158-9.321-2.902-17.463-15.639-13.456-34.284 4.135-18.567 7.628-38.933 7.037-50.566-.616-11.633-2.902-27.298 0-29.61 2.901-2.287 7.524-1.183 7.524-1.183s-2.313 22.065 11.042 27.867M266.92 69.624c12.84 0 23.19 12.738 23.19 28.403 0 11.12-5.214 20.75-12.841 25.374-1.926-.796-3.93-1.696-6.138-2.621 4.623-2.285 7.831-8.114 7.831-14.844 0-8.807-5.417-16.05-12.224-16.05-6.625 0-12.148 7.241-12.148 16.05 0 3.212.798 6.421 2.107 8.938a542 542 0 0 0-10.53-4.108 34.6 34.6 0 0 1-2.414-12.738c0-15.665 10.324-28.404 23.167-28.404m-31.795 48.949c6.319 1.104 23.678 8.629 30.1 10.94 6.42 2.208 13.533 6.316 12.84 10.426-.796 4.237-4.109 4.237-12.84 9.553-8.63 5.214-27.479 16.848-33.515 17.643-6.01.796-9.424-2.594-15.846-6.729-6.421-4.212-18.463-14.048-15.435-19.26 0 0 9.425-7.216 13.535-10.914 4.11-3.827 14.74-12.841 21.161-11.66m-27.684-44.428c10.118 0 18.362 12.044 18.362 26.887 0 2.697-.308 5.213-.796 7.73-2.517.796-5.032 2.106-7.448 4.212-1.18 1.002-2.286 1.9-3.287 2.902 1.592-3.004 2.209-7.319 1.49-11.84-1.387-8.012-6.806-13.943-12.123-13.148-5.342.9-8.526 8.244-7.242 16.36 1.413 8.218 6.728 14.149 12.146 13.25.309-.102.591-.204.9-.308-2.593 2.517-5.008 4.726-7.525 6.523-7.318-3.416-12.737-13.637-12.737-25.68 0-14.946 8.116-26.888 18.26-26.888m-56.37 194.303c10.427-16.435 17.154-52.364 27.58-64.306 10.531-11.915 18.646-37.314 14.948-48.536 0 0 22.47 26.887 38.111 22.47 15.666-4.52 50.875-30.688 56.088-26.193 5.214 4.519 50.053 103.134 54.572 134.542 4.52 31.382-3.004 55.37-3.004 55.37s-17.155-4.521-19.364 5.906c-2.209 10.528-2.209 48.666-2.209 48.666s-23.19 32.101-59.093 37.416c-35.903 5.214-53.88 1.413-53.88 1.413l-20.16-23.088s15.667-2.31 13.457-18.054c-2.209-15.639-47.87-37.315-56.089-56.782-8.215-19.466-1.512-52.363 9.043-68.824M62.291 386.22c1.798-7.703 25.064-7.703 34.002-13.122 8.937-5.419 10.733-20.982 17.951-25.09 7.113-4.212 20.262 10.735 25.681 19.156 5.316 8.219 25.683 44.148 34.003 53.084 8.423 9.013 16.154 20.955 13.74 31.69-2.285 10.734-14.946 18.567-14.946 18.567-11.325 3.493-42.914-10.144-57.268-16.154-14.355-6.034-50.875-7.833-55.574-13.148-4.828-5.419 2.31-17.36 4.21-28.686 1.694-11.453-3.62-18.567-1.799-26.297" style="fill:#1d1d1f;stroke-width:1.52726"/></svg>