<?xml version="1.0" encoding="UTF-8" standalone="no"?>
<!-- Created with Inkscape (http://www.inkscape.org/) -->

<svg
   version="1.1"
   id="svg1"
   width="900"
   height="400"
   viewBox="0 0 900.00002 400"
   sodipodi:docname="conclusion.svg"
   inkscape:version="1.3 (0e150ed, 2023-07-21)"
   xmlns:inkscape="http://www.inkscape.org/namespaces/inkscape"
   xmlns:sodipodi="http://sodipodi.sourceforge.net/DTD/sodipodi-0.dtd"
   xmlns="http://www.w3.org/2000/svg"
   xmlns:svg="http://www.w3.org/2000/svg">
  <defs
     id="defs1">
    <clipPath
       clipPathUnits="userSpaceOnUse"
       id="clipPath3">
      <path
         d="M 0,500 H 500 V 0 H 0 Z"
         transform="translate(-109.66521,-363.45231)"
         id="path3" />
    </clipPath>
    <clipPath
       clipPathUnits="userSpaceOnUse"
       id="clipPath5">
      <path
         d="M 0,500 H 500 V 0 H 0 Z"
         transform="translate(-87.6886,-370.86401)"
         id="path5" />
    </clipPath>
    <clipPath
       clipPathUnits="userSpaceOnUse"
       id="clipPath7">
      <path
         d="M 0,500 H 500 V 0 H 0 Z"
         transform="translate(-65.712502,-376.51531)"
         id="path7" />
    </clipPath>
    <clipPath
       clipPathUnits="userSpaceOnUse"
       id="clipPath9">
      <path
         d="M 0,500 H 500 V 0 H 0 Z"
         transform="translate(-202.7731,-363.45231)"
         id="path9" />
    </clipPath>
    <clipPath
       clipPathUnits="userSpaceOnUse"
       id="clipPath11">
      <path
         d="M 0,500 H 500 V 0 H 0 Z"
         transform="translate(-235.73791,-370.86401)"
         id="path11" />
    </clipPath>
    <clipPath
       clipPathUnits="userSpaceOnUse"
       id="clipPath13">
      <path
         d="M 0,500 H 500 V 0 H 0 Z"
         id="path13" />
    </clipPath>
    <clipPath
       clipPathUnits="userSpaceOnUse"
       id="clipPath15">
      <path
         d="M 0,500 H 500 V 0 H 0 Z"
         transform="translate(-107.6037,-426.29901)"
         id="path15" />
    </clipPath>
    <clipPath
       clipPathUnits="userSpaceOnUse"
       id="clipPath17">
      <path
         d="M 0,500 H 500 V 0 H 0 Z"
         transform="translate(-181.2789,-344.24871)"
         id="path17" />
    </clipPath>
    <clipPath
       clipPathUnits="userSpaceOnUse"
       id="clipPath26">
      <path
         d="M 0,500 H 500 V 0 H 0 Z"
         transform="translate(-130.81701,-445.50311)"
         id="path26" />
    </clipPath>
    <clipPath
       clipPathUnits="userSpaceOnUse"
       id="clipPath28">
      <path
         d="M 0,500 H 500 V 0 H 0 Z"
         transform="translate(-182.9977,-344.12571)"
         id="path28" />
    </clipPath>
    <clipPath
       clipPathUnits="userSpaceOnUse"
       id="clipPath44">
      <path
         d="M 0,500 H 500 V 0 H 0 Z"
         id="path44" />
    </clipPath>
    <clipPath
       clipPathUnits="userSpaceOnUse"
       id="clipPath46">
      <path
         d="M 0,500 H 500 V 0 H 0 Z"
         id="path46" />
    </clipPath>
    <clipPath
       clipPathUnits="userSpaceOnUse"
       id="clipPath48">
      <path
         d="M 0,500 H 500 V 0 H 0 Z"
         id="path48" />
    </clipPath>
    <clipPath
       clipPathUnits="userSpaceOnUse"
       id="clipPath50">
      <path
         d="M 0,500 H 500 V 0 H 0 Z"
         id="path50" />
    </clipPath>
    <clipPath
       clipPathUnits="userSpaceOnUse"
       id="clipPath52">
      <path
         d="M 0,500 H 500 V 0 H 0 Z"
         id="path52" />
    </clipPath>
    <clipPath
       clipPathUnits="userSpaceOnUse"
       id="clipPath54">
      <path
         d="M 0,500 H 500 V 0 H 0 Z"
         id="path54" />
    </clipPath>
    <clipPath
       clipPathUnits="userSpaceOnUse"
       id="clipPath56">
      <path
         d="M 0,500 H 500 V 0 H 0 Z"
         id="path56" />
    </clipPath>
    <clipPath
       clipPathUnits="userSpaceOnUse"
       id="clipPath58">
      <path
         d="M 0,500 H 500 V 0 H 0 Z"
         id="path58" />
    </clipPath>
    <clipPath
       clipPathUnits="userSpaceOnUse"
       id="clipPath60">
      <path
         d="M 0,500 H 500 V 0 H 0 Z"
         id="path60" />
    </clipPath>
    <clipPath
       clipPathUnits="userSpaceOnUse"
       id="clipPath62">
      <path
         d="M 0,500 H 500 V 0 H 0 Z"
         transform="translate(-169.87461,-251.1945)"
         id="path62" />
    </clipPath>
    <clipPath
       clipPathUnits="userSpaceOnUse"
       id="clipPath70">
      <path
         d="M 0,500 H 500 V 0 H 0 Z"
         transform="translate(-156.2194,-89.760405)"
         id="path70" />
    </clipPath>
    <clipPath
       clipPathUnits="userSpaceOnUse"
       id="clipPath72">
      <path
         d="M 0,500 H 500 V 0 H 0 Z"
         transform="translate(-156.2194,-89.760405)"
         id="path72" />
    </clipPath>
    <clipPath
       clipPathUnits="userSpaceOnUse"
       id="clipPath81">
      <path
         d="M 0,500 H 500 V 0 H 0 Z"
         transform="translate(-432.13831,-456.08321)"
         id="path81" />
    </clipPath>
    <clipPath
       clipPathUnits="userSpaceOnUse"
       id="clipPath83">
      <path
         d="M 0,500 H 500 V 0 H 0 Z"
         transform="translate(-325.97421,-349.06371)"
         id="path83" />
    </clipPath>
    <clipPath
       clipPathUnits="userSpaceOnUse"
       id="clipPath85">
      <path
         d="M 0,500 H 500 V 0 H 0 Z"
         transform="translate(-388.97031,-441.79221)"
         id="path85" />
    </clipPath>
    <clipPath
       clipPathUnits="userSpaceOnUse"
       id="clipPath87">
      <path
         d="M 0,500 H 500 V 0 H 0 Z"
         transform="translate(-352.29851,-376.57291)"
         id="path87" />
    </clipPath>
    <clipPath
       clipPathUnits="userSpaceOnUse"
       id="clipPath89">
      <path
         d="M 0,500 H 500 V 0 H 0 Z"
         transform="translate(-459.12171,-408.11541)"
         id="path89" />
    </clipPath>
    <clipPath
       clipPathUnits="userSpaceOnUse"
       id="clipPath91">
      <path
         d="M 0,500 H 500 V 0 H 0 Z"
         transform="translate(-408.63051,-394.96411)"
         id="path91" />
    </clipPath>
    <clipPath
       clipPathUnits="userSpaceOnUse"
       id="clipPath93">
      <path
         d="M 0,500 H 500 V 0 H 0 Z"
         transform="translate(-378.95281,-431.87571)"
         id="path93" />
    </clipPath>
    <clipPath
       clipPathUnits="userSpaceOnUse"
       id="clipPath95">
      <path
         d="M 0,500 H 500 V 0 H 0 Z"
         transform="translate(-378.95281,-431.87571)"
         id="path95" />
    </clipPath>
    <clipPath
       clipPathUnits="userSpaceOnUse"
       id="clipPath97">
      <path
         d="M 0,500 H 500 V 0 H 0 Z"
         transform="translate(-329.89511,-429.47721)"
         id="path97" />
    </clipPath>
    <clipPath
       clipPathUnits="userSpaceOnUse"
       id="clipPath99">
      <path
         d="M 0,500 H 500 V 0 H 0 Z"
         transform="translate(-436.71841,-454.30831)"
         id="path99" />
    </clipPath>
    <clipPath
       clipPathUnits="userSpaceOnUse"
       id="clipPath101">
      <path
         d="M 0,500 H 500 V 0 H 0 Z"
         transform="translate(-325.97421,-427.50121)"
         id="path101" />
    </clipPath>
    <clipPath
       clipPathUnits="userSpaceOnUse"
       id="clipPath103">
      <path
         d="M 0,500 H 500 V 0 H 0 Z"
         transform="translate(-432.79651,-455.39231)"
         id="path103" />
    </clipPath>
    <clipPath
       clipPathUnits="userSpaceOnUse"
       id="clipPath105">
      <path
         d="M 0,500 H 500 V 0 H 0 Z"
         transform="translate(-409.62071,-309.59201)"
         id="path105" />
    </clipPath>
    <clipPath
       clipPathUnits="userSpaceOnUse"
       id="clipPath107">
      <path
         d="m 297.859,87.766 c 0,-28.73 23.29,-52.019 52.02,-52.019 v 0 c 28.729,0 52.018,23.289 52.018,52.019 v 0 c 0,28.73 -23.289,52.02 -52.018,52.02 v 0 c -28.73,0 -52.02,-23.29 -52.02,-52.02"
         transform="translate(-349.87851,-139.7858)"
         id="path107" />
    </clipPath>
    <clipPath
       clipPathUnits="userSpaceOnUse"
       id="clipPath109">
      <path
         d="m 297.859,87.766 c 0,-28.73 23.29,-52.019 52.02,-52.019 v 0 c 28.729,0 52.018,23.289 52.018,52.019 v 0 c 0,28.73 -23.289,52.02 -52.018,52.02 v 0 c -28.73,0 -52.02,-23.29 -52.02,-52.02"
         transform="translate(-401.89711,-139.7858)"
         id="path109" />
    </clipPath>
    <clipPath
       clipPathUnits="userSpaceOnUse"
       id="clipPath111">
      <path
         d="m 349.879,87.766 c 0,-28.73 23.289,-52.019 52.018,-52.019 v 0 c 28.73,0 52.02,23.289 52.02,52.019 v 0 c 0,28.73 -23.29,52.02 -52.02,52.02 v 0 c -28.729,0 -52.018,-23.29 -52.018,-52.02"
         transform="translate(-401.89711,-139.7858)"
         id="path111" />
    </clipPath>
    <clipPath
       clipPathUnits="userSpaceOnUse"
       id="clipPath113">
      <path
         d="m 349.879,87.766 c 0,-28.73 23.289,-52.019 52.018,-52.019 v 0 c 28.73,0 52.02,23.289 52.02,52.019 v 0 c 0,28.73 -23.29,52.02 -52.02,52.02 v 0 c -28.729,0 -52.018,-23.29 -52.018,-52.02"
         transform="translate(-349.87851,-139.7858)"
         id="path113" />
    </clipPath>
    <clipPath
       clipPathUnits="userSpaceOnUse"
       id="clipPath124">
      <path
         d="M 0,500 H 500 V 0 H 0 Z"
         transform="translate(-260.23891,-92.015302)"
         id="path124" />
    </clipPath>
    <clipPath
       clipPathUnits="userSpaceOnUse"
       id="clipPath126">
      <path
         d="M 0,500 H 500 V 0 H 0 Z"
         id="path126" />
    </clipPath>
    <clipPath
       clipPathUnits="userSpaceOnUse"
       id="clipPath128">
      <path
         d="M 0,500 H 500 V 0 H 0 Z"
         transform="translate(-81.038702,-110.86691)"
         id="path128" />
    </clipPath>
    <clipPath
       clipPathUnits="userSpaceOnUse"
       id="clipPath130">
      <path
         d="M 0,500 H 500 V 0 H 0 Z"
         transform="translate(-64.124201,-129.4167)"
         id="path130" />
    </clipPath>
    <clipPath
       clipPathUnits="userSpaceOnUse"
       id="clipPath134">
      <path
         d="M 0,500 H 500 V 0 H 0 Z"
         transform="translate(-64.368802,-99.6393)"
         id="path134" />
    </clipPath>
    <clipPath
       clipPathUnits="userSpaceOnUse"
       id="clipPath136">
      <path
         d="M 0,500 H 500 V 0 H 0 Z"
         transform="translate(-66.765802,-99.6393)"
         id="path136" />
    </clipPath>
    <clipPath
       clipPathUnits="userSpaceOnUse"
       id="clipPath138">
      <path
         d="M 0,500 H 500 V 0 H 0 Z"
         transform="translate(-66.765802,-75.370799)"
         id="path138" />
    </clipPath>
    <clipPath
       clipPathUnits="userSpaceOnUse"
       id="clipPath140">
      <path
         d="M 0,500 H 500 V 0 H 0 Z"
         transform="translate(-247.06071,-110.86691)"
         id="path140" />
    </clipPath>
    <clipPath
       clipPathUnits="userSpaceOnUse"
       id="clipPath142">
      <path
         d="M 0,500 H 500 V 0 H 0 Z"
         transform="translate(-230.14611,-129.4167)"
         id="path142" />
    </clipPath>
    <clipPath
       clipPathUnits="userSpaceOnUse"
       id="clipPath146">
      <path
         d="M 0,500 H 500 V 0 H 0 Z"
         transform="translate(-230.3908,-99.6393)"
         id="path146" />
    </clipPath>
    <clipPath
       clipPathUnits="userSpaceOnUse"
       id="clipPath148">
      <path
         d="M 0,500 H 500 V 0 H 0 Z"
         transform="translate(-232.78771,-99.6393)"
         id="path148" />
    </clipPath>
    <clipPath
       clipPathUnits="userSpaceOnUse"
       id="clipPath150">
      <path
         d="M 0,500 H 500 V 0 H 0 Z"
         transform="translate(-232.78771,-75.370799)"
         id="path150" />
    </clipPath>
    <clipPath
       clipPathUnits="userSpaceOnUse"
       id="clipPath152">
      <path
         d="M 0,500 H 500 V 0 H 0 Z"
         transform="translate(-370.90691,-226.5993)"
         id="path152" />
    </clipPath>
    <clipPath
       clipPathUnits="userSpaceOnUse"
       id="clipPath154">
      <path
         d="M 0,500 H 500 V 0 H 0 Z"
         transform="translate(-399.31991,-276.89571)"
         id="path154" />
    </clipPath>
    <clipPath
       clipPathUnits="userSpaceOnUse"
       id="clipPath156">
      <path
         d="M 0,500 H 500 V 0 H 0 Z"
         transform="translate(-399.31991,-178.6091)"
         id="path156" />
    </clipPath>
    <clipPath
       clipPathUnits="userSpaceOnUse"
       id="clipPath158">
      <path
         d="M 0,500 H 500 V 0 H 0 Z"
         id="path158" />
    </clipPath>
    <clipPath
       clipPathUnits="userSpaceOnUse"
       id="clipPath160">
      <path
         d="m 343.78,272.284 v -20.863 c 0,-14.982 12.146,-27.127 27.127,-27.127 v 0 c 14.982,0 27.128,12.145 27.128,27.127 v 0 20.863 z"
         transform="translate(-370.90691,-224.29361)"
         id="path160" />
    </clipPath>
    <clipPath
       clipPathUnits="userSpaceOnUse"
       id="clipPath162">
      <path
         d="m 343.78,272.284 v -20.863 c 0,-14.982 12.146,-27.127 27.127,-27.127 v 0 c 14.982,0 27.128,12.145 27.128,27.127 v 0 20.863 z"
         id="path162" />
    </clipPath>
    <clipPath
       clipPathUnits="userSpaceOnUse"
       id="clipPath164">
      <path
         d="M 0,500 H 500 V 0 H 0 Z"
         transform="translate(-371.43231,-225.4518)"
         id="path164" />
    </clipPath>
    <clipPath
       clipPathUnits="userSpaceOnUse"
       id="clipPath180">
      <path
         d="M 0,500 H 500 V 0 H 0 Z"
         transform="translate(-352.57781,-227.57291)"
         id="path180" />
    </clipPath>
    <clipPath
       clipPathUnits="userSpaceOnUse"
       id="clipPath182">
      <path
         d="M 0,500 H 500 V 0 H 0 Z"
         transform="translate(-334.37561,-261.1428)"
         id="path182" />
    </clipPath>
    <clipPath
       clipPathUnits="userSpaceOnUse"
       id="clipPath184">
      <path
         d="M 0,500 H 500 V 0 H 0 Z"
         transform="translate(-350.44691,-229.29851)"
         id="path184" />
    </clipPath>
    <clipPath
       clipPathUnits="userSpaceOnUse"
       id="clipPath186">
      <path
         d="M 0,500 H 500 V 0 H 0 Z"
         transform="translate(-334.36581,-205.64321)"
         id="path186" />
    </clipPath>
    <clipPath
       clipPathUnits="userSpaceOnUse"
       id="clipPath188">
      <path
         d="M 0,500 H 500 V 0 H 0 Z"
         transform="translate(-339.83751,-192.2975)"
         id="path188" />
    </clipPath>
    <clipPath
       clipPathUnits="userSpaceOnUse"
       id="clipPath190">
      <path
         d="M 0,500 H 500 V 0 H 0 Z"
         transform="translate(-333.30631,-205.64321)"
         id="path190" />
    </clipPath>
    <clipPath
       clipPathUnits="userSpaceOnUse"
       id="clipPath192">
      <path
         d="M 0,500 H 500 V 0 H 0 Z"
         transform="translate(-390.09051,-227.57291)"
         id="path192" />
    </clipPath>
    <clipPath
       clipPathUnits="userSpaceOnUse"
       id="clipPath194">
      <path
         d="M 0,500 H 500 V 0 H 0 Z"
         transform="translate(-408.29161,-261.1428)"
         id="path194" />
    </clipPath>
    <clipPath
       clipPathUnits="userSpaceOnUse"
       id="clipPath196">
      <path
         d="M 0,500 H 500 V 0 H 0 Z"
         transform="translate(-392.22131,-229.29851)"
         id="path196" />
    </clipPath>
    <clipPath
       clipPathUnits="userSpaceOnUse"
       id="clipPath198">
      <path
         d="M 0,500 H 500 V 0 H 0 Z"
         transform="translate(-408.30241,-205.64321)"
         id="path198" />
    </clipPath>
    <clipPath
       clipPathUnits="userSpaceOnUse"
       id="clipPath200">
      <path
         d="M 0,500 H 500 V 0 H 0 Z"
         transform="translate(-402.83071,-192.2975)"
         id="path200" />
    </clipPath>
    <clipPath
       clipPathUnits="userSpaceOnUse"
       id="clipPath202">
      <path
         d="M 0,500 H 500 V 0 H 0 Z"
         transform="translate(-409.36101,-205.64321)"
         id="path202" />
    </clipPath>
  </defs>
  <sodipodi:namedview
     id="namedview1"
     pagecolor="#ffffff"
     bordercolor="#666666"
     borderopacity="1.0"
     inkscape:showpageshadow="2"
     inkscape:pageopacity="0.0"
     inkscape:pagecheckerboard="0"
     inkscape:deskcolor="#d1d1d1"
     inkscape:zoom="0.46152325"
     inkscape:cx="-3.2501071"
     inkscape:cy="177.67252"
     inkscape:window-width="1728"
     inkscape:window-height="1051"
     inkscape:window-x="0"
     inkscape:window-y="38"
     inkscape:window-maximized="0"
     inkscape:current-layer="layer-MC1">
    <inkscape:page
       x="0"
       y="0"
       inkscape:label="1"
       id="page1"
       width="900"
       height="400"
       margin="0"
       bleed="0" />
  </sodipodi:namedview>
  <g
     id="layer-MC0"
     inkscape:groupmode="layer"
     inkscape:label="BACKGROUND"
     transform="translate(-599.09346,-4.3683721)" />
  <g
     id="layer-MC1"
     inkscape:groupmode="layer"
     inkscape:label="OBJECTS"
     transform="translate(-599.09346,-4.3683721)">
    <g
       id="g222"
       transform="matrix(0.89463671,0,0,0.89463671,290.48423,35.80783)">
      <g
         id="g218"
         transform="translate(-94.788432)">
        <rect
           style="opacity:1;fill:none;fill-opacity:1;stroke:#000000;stroke-width:4;stroke-linecap:square;stroke-miterlimit:1000;stroke-dasharray:none;stroke-opacity:1;paint-order:fill markers stroke"
           id="rect210"
           width="493.71759"
           height="62.066425"
           x="695.8819"
           y="85.341736" />
        <path
           style="font-size:40px;line-height:1.25;font-family:'Bebas Neue';-inkscape-font-specification:'Bebas Neue, Normal'"
           d="m 794.00111,130.77495 q -3.2,0 -4.84,-1.8 -1.64,-1.84 -1.64,-5.24 v -1.6 h 4.16 v 1.92 q 0,2.72 2.28,2.72 1.12,0 1.68,-0.64 0.6,-0.68 0.6,-2.16 0,-1.76 -0.8,-3.08 -0.8,-1.36 -2.96,-3.24 -2.72,-2.4 -3.8,-4.32 -1.08,-1.96 -1.08,-4.4 0,-3.32 1.68,-5.12 1.68,-1.84 4.88,-1.84 3.16,0 4.76,1.84 1.64,1.8 1.64,5.2 v 1.16 h -4.16 v -1.44 q 0,-1.44 -0.56,-2.08 -0.56,-0.68 -1.64,-0.68 -2.2,0 -2.2,2.68 0,1.52 0.8,2.84 0.84,1.32 3,3.2 2.76,2.4 3.8,4.36 1.04,1.96 1.04,4.6 0,3.44 -1.72,5.28 -1.68,1.84 -4.92,1.84 z m 15.51999,0 q -3.24,0 -4.96,-1.84 -1.72,-1.84 -1.72,-5.2 v -14.72 q 0,-3.36 1.72,-5.2 1.72,-1.84 4.96,-1.84 3.24,0 4.96,1.84 1.72,1.84 1.72,5.2 v 14.72 q 0,3.36 -1.72,5.2 -1.72,1.84 -4.96,1.84 z m 0,-4 q 2.28,0 2.28,-2.76 v -15.28 q 0,-2.76 -2.28,-2.76 -2.28,0 -2.28,2.76 v 15.28 q 0,2.76 2.28,2.76 z m 9.63999,-24.4 h 11.64 v 4 h -7.24 v 7.8 h 5.68 v 4 h -5.68 v 12.2 h -4.4 z m 17.59993,4 h -4.6 v -4 h 13.6 v 4 h -4.6 v 24 h -4.4 z m 10.23992,-4 h 4.24 l 1.96,21.52 h 0.08 l 2.08,-21.52 h 4.8 l 2.08,21.52 h 0.08 l 1.96,-21.52 h 3.8 l -2.84,28 h -5.48 l -2,-18.88 h -0.08 l -2,18.88 h -5.84 z m 26.15989,0 h 5.96 l 4.56,28 h -4.4 l -0.8,-5.56 v 0.08 h -5 l -0.8,5.48 h -4.08 z m 4.8,18.72 -1.96,-13.84 h -0.08 l -1.92,13.84 z m 7.83997,-18.72 h 6.52 q 3.4,0 4.96,1.6 1.56,1.56 1.56,4.84 v 1.72 q 0,4.36 -2.88,5.52 v 0.08 q 1.6,0.48 2.24,1.96 0.68,1.48 0.68,3.96 v 4.92 q 0,1.2 0.08,1.96 0.08,0.72 0.4,1.44 h -4.48 q -0.24,-0.68 -0.32,-1.28 -0.08,-0.6 -0.08,-2.16 v -5.12 q 0,-1.92 -0.64,-2.68 -0.6,-0.76 -2.12,-0.76 h -1.52 v 12 h -4.4 z m 6,12 q 1.32,0 1.96,-0.68 0.68,-0.68 0.68,-2.28 v -2.16 q 0,-1.52 -0.56,-2.2 -0.52,-0.68 -1.68,-0.68 h -2 v 8 z m 10.11999,-12 h 12 v 4 h -7.6 v 7.4 h 6.04 v 4 h -6.04 v 8.6 h 7.6 v 4 h -12 z m 24.31995,0 h 5.96 l 4.56,28 h -4.4 l -0.8,-5.56 v 0.08 h -5 l -0.8,5.48 h -4.08 z m 4.8,18.72 -1.96,-13.84 h -0.08 l -1.92,13.84 z m 7.83997,-18.72 h 6.52 q 3.4,0 4.96,1.6 1.56,1.56 1.56,4.84 v 1.72 q 0,4.36 -2.88,5.52 v 0.08 q 1.6,0.48 2.24,1.96 0.68,1.48 0.68,3.96 v 4.92 q 0,1.2 0.08,1.96 0.08,0.72 0.4,1.44 h -4.48 q -0.24,-0.68 -0.32,-1.28 -0.08,-0.6 -0.08,-2.16 v -5.12 q 0,-1.92 -0.64,-2.68 -0.6,-0.76 -2.12,-0.76 h -1.52 v 12 h -4.4 z m 6,12 q 1.32,0 1.96,-0.68 0.68,-0.68 0.68,-2.28 v -2.16 q 0,-1.52 -0.56,-2.2 -0.52,-0.68 -1.68,-0.68 h -2 v 8 z m 16.31999,16.4 q -3.16,0 -4.84,-1.8 -1.64,-1.8 -1.64,-5.08 v -15.04 q 0,-3.28 1.64,-5.08 1.68,-1.8 4.84,-1.8 3.16,0 4.8,1.8 1.68,1.8 1.68,5.08 v 2.96 h -4.16 v -3.24 q 0,-2.6 -2.2,-2.6 -2.2,0 -2.2,2.6 v 15.64 q 0,2.56 2.2,2.56 2.2,0 2.2,-2.56 v -4.28 h 4.16 v 3.96 q 0,3.28 -1.68,5.08 -1.64,1.8 -4.8,1.8 z m 9.11998,-28.4 h 4.4 v 11.4 h 4.72 v -11.4 h 4.4 v 28 h -4.4 v -12.6 h -4.72 v 12.6 h -4.4 z m 16.79993,0 h 4.4 v 28 h -4.4 z m 11.11997,4 h -4.6 v -4 h 13.60002 v 4 h -4.6 v 24 h -4.40002 z m 11.11992,-4 h 12 v 4 h -7.6 v 7.4 h 6.04 v 4 h -6.04 v 8.6 h 7.6 v 4 h -12 z m 20.72,28.4 q -3.16,0 -4.84,-1.8 -1.64,-1.8 -1.64,-5.08 v -15.04 q 0,-3.28 1.64,-5.08 1.68,-1.8 4.84,-1.8 3.16,0 4.8,1.8 1.68,1.8 1.68,5.08 v 2.96 h -4.16 v -3.24 q 0,-2.6 -2.2,-2.6 -2.2,0 -2.2,2.6 v 15.64 q 0,2.56 2.2,2.56 2.2,0 2.2,-2.56 v -4.28 h 4.16 v 3.96 q 0,3.28 -1.68,5.08 -1.64,1.8 -4.8,1.8 z m 12.56,-24.4 h -4.6 v -4 h 13.6 v 4 h -4.6 v 24 h -4.4 z m 17.5199,24.4 q -3.2,0 -4.88,-1.8 -1.68,-1.84 -1.68,-5.24 v -21.36 h 4.4 v 21.68 q 0,1.44 0.56,2.08 0.6,0.64 1.68,0.64 1.08,0 1.64,-0.64 0.6,-0.64 0.6,-2.08 v -21.68 h 4.24 v 21.36 q 0,3.4 -1.68,5.24 -1.68,1.8 -4.88,1.8 z m 9.6799,-28.4 h 6.52 q 3.4,0 4.96,1.6 1.56,1.56 1.56,4.84 v 1.72 q 0,4.36 -2.88,5.52 v 0.08 q 1.6,0.48 2.24,1.96 0.68,1.48 0.68,3.96 v 4.92 q 0,1.2 0.08,1.96 0.08,0.72 0.4,1.44 h -4.48 q -0.24,-0.68 -0.32,-1.28 -0.08,-0.6 -0.08,-2.16 v -5.12 q 0,-1.92 -0.64,-2.68 -0.6,-0.76 -2.12,-0.76 h -1.52 v 12 h -4.4 z m 6,12 q 1.32,0 1.96,-0.68 0.68,-0.68 0.68,-2.28 v -2.16 q 0,-1.52 -0.56,-2.2 -0.52,-0.68 -1.68,-0.68 h -2 v 8 z m 10.12,-12 h 12 v 4 h -7.6 v 7.4 h 6.04 v 4 h -6.04 v 8.6 h 7.6 v 4 h -12 z"
           id="text210"
           aria-label="software architecture" />
      </g>
      <rect
         style="fill:none;fill-opacity:1;stroke:#000000;stroke-width:3.92473;stroke-linecap:square;stroke-miterlimit:1000;stroke-dasharray:none;stroke-opacity:1;paint-order:fill markers stroke"
         id="rect212"
         width="236.07527"
         height="63.930569"
         x="858.77344"
         y="6.3307371" />
      <path
         style="font-size:40px;line-height:1.25;font-family:'Bebas Neue';-inkscape-font-specification:'Bebas Neue, Normal'"
         d="m 878.95142,24.29602 h 6.72 q 3.28,0 4.92,1.76 1.64,1.76 1.64,5.16 v 14.16 q 0,3.4 -1.64,5.16 -1.64,1.76 -4.92,1.76 h -6.72 z m 6.64,24 q 1.08,0 1.64,-0.64 0.6,-0.64 0.6,-2.08 v -14.56 q 0,-1.44 -0.6,-2.08 -0.56,-0.64 -1.64,-0.64 h -2.24 v 20 z m 15.95989,4.4 q -3.24,0 -4.96,-1.84 -1.72,-1.84 -1.72,-5.2 v -14.72 q 0,-3.36 1.72,-5.2 1.72,-1.84 4.96,-1.84 3.24,0 4.96,1.84 1.72,1.84 1.72,5.2 v 14.72 q 0,3.36 -1.72,5.2 -1.72,1.84 -4.96,1.84 z m 0,-4 q 2.28,0 2.28,-2.76 v -15.28 q 0,-2.76 -2.28,-2.76 -2.28,0 -2.28,2.76 v 15.28 q 0,2.76 2.28,2.76 z m 15.84,4 q -3.16,0 -4.84,-1.8 -1.64,-1.8 -1.64,-5.08 v -15.04 q 0,-3.28 1.64,-5.08 1.68,-1.8 4.84,-1.8 3.16,0 4.8,1.8 1.68,1.8 1.68,5.08 v 2.96 h -4.16 v -3.24 q 0,-2.6 -2.2,-2.6 -2.2,0 -2.2,2.6 v 15.64 q 0,2.56 2.2,2.56 2.2,0 2.2,-2.56 v -4.28 h 4.16 v 3.96 q 0,3.28 -1.68,5.08 -1.64,1.8 -4.8,1.8 z m 15.52,0 q -3.2,0 -4.88,-1.8 -1.68,-1.84 -1.68,-5.24 v -21.36 h 4.4 v 21.68 q 0,1.44 0.56,2.08 0.6,0.64 1.68,0.64 1.08,0 1.64,-0.64 0.6,-0.64 0.6,-2.08 v -21.68 h 4.24 v 21.36 q 0,3.4 -1.68,5.24 -1.68,1.8 -4.88,1.8 z m 9.6799,-28.4 h 6.28 l 2.8,20.04 h 0.08 l 2.8,-20.04 h 6.28 v 28 h -4.16 v -21.2 h -0.08 l -3.2,21.2 h -3.68 l -3.2,-21.2 h -0.08 v 21.2 h -3.84 z m 21.52,0 h 12 v 4 h -7.6 v 7.4 h 6.04 v 4 h -6.04 v 8.6 h 7.6 v 4 h -12 z m 14.5199,0 h 5.52 l 4.28,16.76 h 0.08 v -16.76 h 3.92 v 28 h -4.52 l -5.28,-20.44 h -0.08 v 20.44 h -3.92 z m 20.5199,4 h -4.6 v -4 h 13.59999 v 4 h -4.6 v 24 h -4.39999 z m 12.67989,-4 h 5.96 l 4.56,28 h -4.4 l -0.8,-5.56 v 0.08 h -5 l -0.8,5.48 h -4.08 z m 4.8,18.72 -1.96,-13.84 h -0.08 l -1.92,13.84 z m 9.4399,-14.72 h -4.6 v -4 h 13.6 v 4 h -4.6 v 24 h -4.4 z m 11.12,-4 h 4.4 v 28 h -4.4 z m 14.0399,28.4 q -3.24,0 -4.96,-1.84 -1.72,-1.84 -1.72,-5.2 v -14.72 q 0,-3.36 1.72,-5.2 1.72,-1.84 4.96,-1.84 3.24,0 4.96,1.84 1.72,1.84 1.72,5.2 v 14.72 q 0,3.36 -1.72,5.2 -1.72,1.84 -4.96,1.84 z m 0,-4 q 2.28,0 2.28,-2.76 v -15.28 q 0,-2.76 -2.28,-2.76 -2.28,0 -2.28,2.76 v 15.28 q 0,2.76 2.28,2.76 z m 9.64,-24.4 h 5.52 l 4.28,16.76 h 0.08 v -16.76 h 3.92 v 28 h -4.52 l -5.28,-20.44 h -0.08 v 20.44 h -3.92 z"
         id="text212"
         aria-label="documentation" />
      <rect
         style="fill:none;fill-opacity:1;stroke:#000000;stroke-width:3.92473;stroke-linecap:square;stroke-miterlimit:1000;stroke-dasharray:none;stroke-opacity:1;paint-order:fill markers stroke"
         id="rect213"
         width="236.07527"
         height="63.930569"
         x="601.49084"
         y="6.3307395" />
      <path
         style="font-size:40px;line-height:1.25;font-family:'Bebas Neue';-inkscape-font-specification:'Bebas Neue, Normal'"
         d="m 680.22192,28.296024 h -4.6 v -4 h 13.6 v 4 h -4.6 v 24 h -4.4 z m 11.11993,-4 h 12 v 4 h -7.6 v 7.4 h 6.04 v 4 h -6.04 v 8.6 h 7.6 v 4 h -12 z m 20.31992,28.4 q -3.2,0 -4.84,-1.8 -1.64,-1.84 -1.64,-5.24 v -1.6 h 4.16 v 1.92 q 0,2.72 2.28,2.72 1.12,0 1.68,-0.64 0.6,-0.68 0.6,-2.16 0,-1.76 -0.8,-3.08 -0.8,-1.36 -2.96,-3.24 -2.72,-2.4 -3.8,-4.32 -1.08,-1.96 -1.08,-4.4 0,-3.32 1.68,-5.12 1.68,-1.84 4.88,-1.84 3.16,0 4.76,1.84 1.64,1.8 1.64,5.2 v 1.16 h -4.16 v -1.44 q 0,-1.44 -0.56,-2.08 -0.56,-0.68 -1.64,-0.68 -2.2,0 -2.2,2.68 0,1.52 0.8,2.84 0.84,1.32 3,3.2 2.76,2.4 3.8,4.36 1.04,1.96 1.04,4.6 0,3.44 -1.72,5.28 -1.68,1.84 -4.92,1.84 z m 12.59999,-24.4 h -4.6 v -4 h 13.6 v 4 h -4.6 v 24 h -4.4 z m 11.11993,-4 h 4.4 v 28 h -4.4 z m 7.67998,0 h 5.52 l 4.28,16.76 h 0.08 v -16.76 h 3.92 v 28 h -4.52 l -5.28,-20.44 h -0.08 v 20.44 h -3.92 z m 23.31993,28.4 q -3.2,0 -4.88,-1.8 -1.68,-1.84 -1.68,-5.24 v -14.72 q 0,-3.4 1.68,-5.2 1.68,-1.84 4.88,-1.84 3.2,0 4.88,1.84 1.68,1.8 1.68,5.2 v 2.4 h -4.16 v -2.68 q 0,-2.76 -2.28,-2.76 -2.28,0 -2.28,2.76 v 15.32 q 0,2.72 2.28,2.72 2.28,0 2.28,-2.72 v -5.48 h -2.2 v -4 h 6.36 v 9.16 q 0,3.4 -1.68,5.24 -1.68,1.8 -4.88,1.8 z"
         id="text213"
         aria-label="testing" />
      <g
         id="g219"
         transform="translate(-97.852641,-1.5321096)">
        <path
           style="font-size:40px;line-height:1.25;font-family:'Bebas Neue';-inkscape-font-specification:'Bebas Neue, Normal'"
           d="m 858.00517,179.74677 h 6.72 q 3.28,0 4.92,1.76 1.64,1.76 1.64,5.16 v 14.16 q 0,3.4 -1.64,5.16 -1.64,1.76 -4.92,1.76 h -6.72 z m 6.64,24 q 1.08,0 1.64,-0.64 0.6,-0.64 0.6,-2.08 v -14.56 q 0,-1.44 -0.6,-2.08 -0.56,-0.64 -1.64,-0.64 h -2.24 v 20 z m 9.59993,-24 h 12 v 4 h -7.6 v 7.4 h 6.04 v 4 h -6.04 v 8.6 h 7.6 v 4 h -12 z m 14.51996,0 h 6.48 q 3.28,0 4.92,1.76 1.64,1.76 1.64,5.16 v 2.76 q 0,3.4 -1.64,5.16 -1.64,1.76 -4.92,1.76 h -2.08 v 11.4 h -4.4 z m 6.48,12.6 q 1.08,0 1.6,-0.6 0.56,-0.6 0.56,-2.04 v -3.32 q 0,-1.44 -0.56,-2.04 -0.52,-0.6 -1.6,-0.6 h -2.08 v 8.6 z m 8.95999,-12.6 h 12 v 4 h -7.6 v 7.4 h 6.04 v 4 h -6.04 v 8.6 h 7.6 v 4 h -12 z m 14.51996,0 h 5.52 l 4.28,16.76 h 0.08 v -16.76 h 3.92 v 28 h -4.52 l -5.28,-20.44 h -0.08 v 20.44 h -3.92 z m 17.07992,0 h 6.72 q 3.28,0 4.92,1.76 1.64,1.76 1.64,5.16 v 14.16 q 0,3.4 -1.64,5.16 -1.64,1.76 -4.92,1.76 h -6.72 z m 6.64,24 q 1.08,0 1.64,-0.64 0.6,-0.64 0.6,-2.08 v -14.56 q 0,-1.44 -0.6,-2.08 -0.56,-0.64 -1.64,-0.64 h -2.24 v 20 z m 9.59993,-24 h 12 v 4 h -7.6 v 7.4 h 6.04 v 4 h -6.04 v 8.6 h 7.6 v 4 h -12 z m 14.51996,0 h 5.52 l 4.28,16.76 h 0.08 v -16.76 h 3.92 v 28 h -4.52 l -5.28,-20.44 h -0.08 v 20.44 h -3.92 z m 23.27993,28.4 q -3.16,0 -4.84,-1.8 -1.64,-1.8 -1.64,-5.08 v -15.04 q 0,-3.28 1.64,-5.08 1.68,-1.8 4.84,-1.8 3.16,0 4.8,1.8 1.68,1.8 1.68,5.08 v 2.96 h -4.16 v -3.24 q 0,-2.6 -2.2,-2.6 -2.2,0 -2.2,2.6 v 15.64 q 0,2.56 2.2,2.56 2.2,0 2.2,-2.56 v -4.28 h 4.16 v 3.96 q 0,3.28 -1.68,5.08 -1.64,1.8 -4.8,1.8 z m 9.11997,-28.4 h 4.39998 v 28 h -4.39998 z m 7.67998,0 h 12 v 4 h -7.6 v 7.4 h 6.04 v 4 h -6.04 v 8.6 h 7.6 v 4 h -12 z m 20.3199,28.4 q -3.2,0 -4.84,-1.8 -1.64,-1.84 -1.64,-5.24 v -1.6 h 4.16 v 1.92 q 0,2.72 2.28,2.72 1.12,0 1.68,-0.64 0.6,-0.68 0.6,-2.16 0,-1.76 -0.8,-3.08 -0.8,-1.36 -2.96,-3.24 -2.72,-2.4 -3.8,-4.32 -1.08,-1.96 -1.08,-4.4 0,-3.32 1.68,-5.12 1.68,-1.84 4.88,-1.84 3.16,0 4.76,1.84 1.64,1.8 1.64,5.2 v 1.16 h -4.16 v -1.44 q 0,-1.44 -0.56,-2.08 -0.56,-0.68 -1.64,-0.68 -2.2,0 -2.2,2.68 0,1.52 0.8,2.84 0.84,1.32 3,3.2 2.76,2.4 3.8,4.36 1.04,1.96 1.04,4.6 0,3.44 -1.72,5.28 -1.68,1.84 -4.92,1.84 z"
           id="text209"
           aria-label="Dependencies" />
        <rect
           style="opacity:1;fill:none;fill-opacity:1;stroke:#000000;stroke-width:4;stroke-linecap:square;stroke-miterlimit:1000;stroke-dasharray:none;stroke-opacity:1;paint-order:fill markers stroke"
           id="rect214"
           width="493.71759"
           height="62.066425"
           x="698.94611"
           y="162.71355" />
      </g>
      <g
         id="g220"
         transform="translate(-99.384746,-2.2981669)">
        <path
           style="font-size:40px;line-height:1.25;font-family:'Bebas Neue';-inkscape-font-specification:'Bebas Neue, Normal'"
           d="m 766.85747,260.35251 h -4.6 v -4 h 13.6 v 4 h -4.6 v 24 h -4.4 z m 17.31987,24.4 q -3.24,0 -4.96,-1.84 -1.72,-1.84 -1.72,-5.2 v -14.72 q 0,-3.36 1.72,-5.2 1.72,-1.84 4.96,-1.84 3.24,0 4.96,1.84 1.72,1.84 1.72,5.2 v 14.72 q 0,3.36 -1.72,5.2 -1.72,1.84 -4.96,1.84 z m 0,-4 q 2.28,0 2.28,-2.76 v -15.28 q 0,-2.76 -2.28,-2.76 -2.28,0 -2.28,2.76 v 15.28 q 0,2.76 2.28,2.76 z m 15.99998,4 q -3.24,0 -4.96,-1.84 -1.72,-1.84 -1.72,-5.2 v -14.72 q 0,-3.36 1.72,-5.2 1.72,-1.84 4.96,-1.84 3.24,0 4.96,1.84 1.72,1.84 1.72,5.2 v 14.72 q 0,3.36 -1.72,5.2 -1.72,1.84 -4.96,1.84 z m 0,-4 q 2.28,0 2.28,-2.76 v -15.28 q 0,-2.76 -2.28,-2.76 -2.28,0 -2.28,2.76 v 15.28 q 0,2.76 2.28,2.76 z m 9.63999,-24.4 h 4.4 v 24 h 7.24 v 4 h -11.64 z m 13.75999,0 h 4.4 v 28 h -4.4 z m 7.67998,0 h 5.52 l 4.28,16.76 h 0.08 v -16.76 h 3.92 v 28 h -4.52 l -5.28,-20.44 h -0.08 v 20.44 h -3.92 z m 23.31992,28.4 q -3.2,0 -4.88,-1.8 -1.68,-1.84 -1.68,-5.24 v -14.72 q 0,-3.4 1.68,-5.2 1.68,-1.84 4.88,-1.84 3.2,0 4.88,1.84 1.68,1.8 1.68,5.2 v 2.4 h -4.16 v -2.68 q 0,-2.76 -2.28,-2.76 -2.28,0 -2.28,2.76 v 15.32 q 0,2.72 2.28,2.72 2.28,0 2.28,-2.72 v -5.48 h -2.2 v -4 h 6.36 v 9.16 q 0,3.4 -1.68,5.24 -1.68,1.8 -4.88,1.8 z m 19.19995,-28.4 h 5.96 l 4.56,28 h -4.4 l -0.8,-5.56 v 0.08 h -5 l -0.8,5.48 h -4.08 z m 4.8,18.72 -1.96,-13.84 h -0.08 l -1.92,13.84 z m 7.83996,-18.72 h 5.52 l 4.28,16.76 h 0.08 v -16.76 h 3.92 v 28 h -4.52 l -5.28,-20.44 h -0.08 v 20.44 h -3.92 z m 17.07993,0 h 6.72 q 3.28,0 4.92,1.76 1.64,1.76 1.64,5.16 v 14.16 q 0,3.4 -1.64,5.16 -1.64,1.76 -4.92,1.76 h -6.72 z m 6.64,24 q 1.08,0 1.64,-0.64 0.6,-0.64 0.6,-2.08 v -14.56 q 0,-1.44 -0.6,-2.08 -0.56,-0.64 -1.64,-0.64 h -2.24 v 20 z m 15.99992,-24 h 4.4 v 28 h -4.4 z m 7.67998,0 h 5.52 l 4.28,16.76 h 0.08 v -16.76 h 3.92 v 28 h -4.52 l -5.28,-20.44 h -0.08 v 20.44 h -3.92 z m 17.07993,0 h 11.64 v 4 h -7.24 v 7.8 h 5.68 v 4 h -5.68 v 12.2 h -4.4 z m 13.75999,0 h 6.52 q 3.4,0 4.96,1.6 1.56,1.56 1.56,4.84 v 1.72 q 0,4.36 -2.88,5.52 v 0.08 q 1.6,0.48 2.24,1.96 0.68,1.48 0.68,3.96 v 4.92 q 0,1.2 0.08,1.96 0.08,0.72 0.4,1.44 h -4.48 q -0.24,-0.68 -0.32,-1.28 -0.08,-0.6 -0.08,-2.16 v -5.12 q 0,-1.92 -0.64,-2.68 -0.6,-0.76 -2.12,-0.76 h -1.52 v 12 h -4.4 z m 6,12 q 1.32,0 1.96,-0.68 0.68,-0.68 0.68,-2.28 v -2.16 q 0,-1.52 -0.56,-2.2 -0.52,-0.68 -1.68,-0.68 h -2 v 8 z m 13.52,-12 h 5.96 l 4.56,28 h -4.4 l -0.8,-5.56 v 0.08 h -5 l -0.8,5.48 h -4.08 z m 4.8,18.72 -1.96,-13.84 h -0.08 l -1.92,13.84 z m 13.43994,9.68 q -3.19999,0 -4.83999,-1.8 -1.64,-1.84 -1.64,-5.24 v -1.6 h 4.15999 v 1.92 q 0,2.72 2.28,2.72 1.12,0 1.68,-0.64 0.6,-0.68 0.6,-2.16 0,-1.76 -0.8,-3.08 -0.8,-1.36 -2.96,-3.24 -2.71999,-2.4 -3.79999,-4.32 -1.08,-1.96 -1.08,-4.4 0,-3.32 1.68,-5.12 1.68,-1.84 4.87999,-1.84 3.16,0 4.76,1.84 1.64,1.8 1.64,5.2 v 1.16 h -4.16 v -1.44 q 0,-1.44 -0.56,-2.08 -0.56,-0.68 -1.64,-0.68 -2.2,0 -2.2,2.68 0,1.52 0.8,2.84 0.84,1.32 3,3.2 2.76,2.4 3.8,4.36 1.04,1.96 1.04,4.6 0,3.44 -1.72,5.28 -1.68,1.84 -4.92,1.84 z m 12.6,-24.4 h -4.6 v -4 h 13.6 v 4 h -4.6 v 24 h -4.4 z m 11.1199,-4 h 6.52 q 3.4,0 4.96,1.6 1.56,1.56 1.56,4.84 v 1.72 q 0,4.36 -2.88,5.52 v 0.08 q 1.6,0.48 2.24,1.96 0.68,1.48 0.68,3.96 v 4.92 q 0,1.2 0.08,1.96 0.08,0.72 0.4,1.44 h -4.48 q -0.24,-0.68 -0.32,-1.28 -0.08,-0.6 -0.08,-2.16 v -5.12 q 0,-1.92 -0.64,-2.68 -0.6,-0.76 -2.12,-0.76 h -1.52 v 12 h -4.4 z m 6,12 q 1.32,0 1.96,-0.68 0.68,-0.68 0.68,-2.28 v -2.16 q 0,-1.52 -0.56,-2.2 -0.52,-0.68 -1.68,-0.68 h -2 v 8 z m 16.52,16.4 q -3.2,0 -4.88,-1.8 -1.68,-1.84 -1.68,-5.24 v -21.36 h 4.4 v 21.68 q 0,1.44 0.56,2.08 0.6,0.64 1.68,0.64 1.08,0 1.64,-0.64 0.6,-0.64 0.6,-2.08 v -21.68 h 4.24 v 21.36 q 0,3.4 -1.68,5.24 -1.68,1.8 -4.88,1.8 z m 15.88,0 q -3.16,0 -4.84,-1.8 -1.64,-1.8 -1.64,-5.08 v -15.04 q 0,-3.28 1.64,-5.08 1.68,-1.8 4.84,-1.8 3.16,0 4.8,1.8 1.68,1.8 1.68,5.08 v 2.96 h -4.16 v -3.24 q 0,-2.6 -2.2,-2.6 -2.2,0 -2.2,2.6 v 15.64 q 0,2.56 2.2,2.56 2.2,0 2.2,-2.56 v -4.28 h 4.16 v 3.96 q 0,3.28 -1.68,5.08 -1.64,1.8 -4.8,1.8 z m 12.56,-24.4 h -4.6 v -4 h 13.6 v 4 h -4.6 v 24 h -4.4 z m 17.5199,24.4 q -3.2,0 -4.88,-1.8 -1.68,-1.84 -1.68,-5.24 v -21.36 h 4.4 v 21.68 q 0,1.44 0.56,2.08 0.6,0.64 1.68,0.64 1.08,0 1.64,-0.64 0.6,-0.64 0.6,-2.08 v -21.68 h 4.24 v 21.36 q 0,3.4 -1.68,5.24 -1.68,1.8 -4.88,1.8 z m 9.6799,-28.4 h 6.52 q 3.4,0 4.96,1.6 1.56,1.56 1.56,4.84 v 1.72 q 0,4.36 -2.88,5.52 v 0.08 q 1.6,0.48 2.24,1.96 0.68,1.48 0.68,3.96 v 4.92 q 0,1.2 0.08,1.96 0.08,0.72 0.4,1.44 h -4.48 q -0.24,-0.68 -0.32,-1.28 -0.08,-0.6 -0.08,-2.16 v -5.12 q 0,-1.92 -0.64,-2.68 -0.6,-0.76 -2.12,-0.76 h -1.52 v 12 h -4.4 z m 6,12 q 1.32,0 1.96,-0.68 0.68,-0.68 0.68,-2.28 v -2.16 q 0,-1.52 -0.56,-2.2 -0.52,-0.68 -1.68,-0.68 h -2 v 8 z m 10.12,-12 h 12 v 4 h -7.6 v 7.4 h 6.04 v 4 h -6.04 v 8.6 h 7.6 v 4 h -12 z"
           id="text207"
           aria-label="tooling and infrastructure" />
        <rect
           style="opacity:1;fill:none;fill-opacity:1;stroke:#000000;stroke-width:4;stroke-linecap:square;stroke-miterlimit:1000;stroke-dasharray:none;stroke-opacity:1;paint-order:fill markers stroke"
           id="rect215"
           width="493.71759"
           height="62.066425"
           x="700.47821"
           y="239.31931" />
      </g>
      <g
         id="g221"
         transform="translate(-100.1508)">
        <path
           style="font-size:40px;line-height:1.25;font-family:'Bebas Neue';-inkscape-font-specification:'Bebas Neue, Normal'"
           d="m 876.4633,333.69406 h -4.6 v -4 h 13.6 v 4 h -4.6 v 24 h -4.4 z m 11.11994,-4 h 12 v 4 h -7.6 v 7.4 h 6.04 v 4 h -6.04 v 8.6 h 7.6 v 4 h -12 z m 17.91996,0 h 5.96 l 4.56,28 h -4.4 l -0.8,-5.56 v 0.08 h -5 l -0.8,5.48 h -4.08 z m 4.8,18.72 -1.96,-13.84 h -0.08 l -1.92,13.84 z m 7.83996,-18.72 h 6.28 l 2.8,20.04 h 0.08 l 2.8,-20.04 h 6.28 v 28 h -4.16 v -21.2 h -0.08 l -3.2,21.2 h -3.68 l -3.2,-21.2 h -0.08 v 21.2 h -3.84 z m 27.91992,0 h 6.64 q 3.4,0 4.96,1.6 1.56,1.56 1.56,4.84 v 1.12 q 0,2.16 -0.72,3.52 -0.68,1.36 -2.12,1.96 v 0.08 q 3.28,1.12 3.28,5.84 v 2.4 q 0,3.24 -1.72,4.96 -1.68,1.68 -4.96,1.68 h -6.92 z m 6.12,11.4 q 1.32,0 1.96,-0.68 0.68,-0.68 0.68,-2.28 v -1.56 q 0,-1.52 -0.56,-2.2 -0.52,-0.68 -1.68,-0.68 h -2.12 v 7.4 z m 0.8,12.6 q 1.16,0 1.72,-0.6 0.56,-0.64 0.56,-2.16 v -2.44 q 0,-1.92 -0.68,-2.64 -0.64,-0.76 -2.16,-0.76 h -1.96 v 8.6 z m 15.63997,4.4 q -3.2,0 -4.88,-1.8 -1.68,-1.84 -1.68,-5.24 v -21.36 h 4.4 v 21.68 q 0,1.44 0.56,2.08 0.6,0.64 1.68,0.64 1.08,0 1.64,-0.64 0.6,-0.64 0.6,-2.08 v -21.68 h 4.24 v 21.36 q 0,3.4 -1.68,5.24 -1.68,1.8 -4.88,1.8 z m 13.71994,-12.32 -5.32,-16.08 h 4.68 l 3,10.28 h 0.08 l 3,-10.28 h 4.28 l -5.32,16.08 v 11.92 h -4.4 z m 9.07992,-4.08 h 8.79999 v 4 h -8.79999 z m 11.43999,-12 h 4.4 v 28 h -4.4 z m 7.6799,0 h 5.52 l 4.28,16.76 h 0.08 v -16.76 h 3.92 v 28 h -4.52 l -5.28,-20.44 h -0.08 v 20.44 h -3.92 z"
           id="text206"
           aria-label="Team Buy-in" />
        <rect
           style="opacity:1;fill:none;fill-opacity:1;stroke:#000000;stroke-width:4;stroke-linecap:square;stroke-miterlimit:1000;stroke-dasharray:none;stroke-opacity:1;paint-order:fill markers stroke"
           id="rect216"
           width="493.71759"
           height="62.066425"
           x="701.24426"
           y="312.86084" />
      </g>
    </g>
  </g>
</svg>
