<svg xmlns="http://www.w3.org/2000/svg" width="389.301" height="337.017" stroke="#000" stroke-linecap="square" stroke-miterlimit="10" color-interpolation="auto" font-family="Dialog" font-size="12"><g transform="translate(-1.93 -2.177)scale(.6519)"><defs><clipPath id="a" clipPathUnits="userSpaceOnUse"><path d="M413 231h604v526H413Z"/></clipPath></defs><path fill="none" stroke="#999" stroke-dasharray="6, 2" stroke-linecap="butt" stroke-miterlimit="1.45" d="M520.46 237.84h175v175h-175z" clip-path="url(#a)" shape-rendering="geometricPrecision" text-rendering="geometricPrecision" transform="translate(-413 -231)"/><g fill="none" stroke="#fff" stroke-linecap="butt" stroke-miterlimit="1.45" shape-rendering="geometricPrecision" text-rendering="geometricPrecision" transform="translate(-413 -231)"><circle cx="692.62" cy="240.68" r="2.84" clip-path="url(#a)"/><circle cx="588.62" cy="277.84" r="2.84" clip-path="url(#a)"/><circle cx="523.3" cy="410.84" r="2.84" clip-path="url(#a)"/><circle cx="419.3" cy="448" r="2.84" clip-path="url(#a)"/></g><g shape-rendering="geometricPrecision" text-rendering="geometricPrecision" transform="translate(-413 -231)"><circle cx="556.124" cy="267" r="8" stroke="none" clip-path="url(#a)"/><circle cx="556.124" cy="267" r="8" fill="none" stroke-linecap="butt" stroke-miterlimit="1.45" clip-path="url(#a)"/><circle cx="642.789" cy="344.271" r="8" fill="green" stroke="none" clip-path="url(#a)"/><circle cx="642.789" cy="344.271" r="8" fill="none" stroke-linecap="butt" stroke-miterlimit="1.45" stroke-width="2" clip-path="url(#a)"/><circle cx="475.117" cy="347.271" r="8" stroke="none" clip-path="url(#a)"/><circle cx="475.117" cy="347.271" r="8" fill="none" stroke-linecap="butt" stroke-miterlimit="1.45" clip-path="url(#a)"/><circle cx="475.117" cy="400" r="8" stroke="none" clip-path="url(#a)"/><circle cx="475.117" cy="400" r="8" fill="none" stroke-linecap="butt" stroke-miterlimit="1.45" clip-path="url(#a)"/><circle cx="588.62" cy="333.558" r="8" stroke="none" clip-path="url(#a)"/><circle cx="588.62" cy="333.558" r="8" fill="none" stroke-linecap="butt" stroke-miterlimit="1.45" clip-path="url(#a)"/><circle cx="550.789" cy="430.702" r="8" stroke="none" clip-path="url(#a)"/><circle cx="550.789" cy="430.702" r="8" fill="none" stroke-linecap="butt" stroke-miterlimit="1.45" clip-path="url(#a)"/></g><g fill="none" stroke="#999" stroke-dasharray="6, 2" stroke-linecap="butt" stroke-miterlimit="1.45" shape-rendering="geometricPrecision" text-rendering="geometricPrecision" transform="translate(-413 -231)"><path d="M836.803 234.84h175v175h-175z" clip-path="url(#a)"/><path stroke="#000" d="M732.803 272.84h175v175h-175z" clip-path="url(#a)"/><circle cx="1008.963" cy="237.68" r="2.84" stroke="#fff" stroke-dasharray="none" clip-path="url(#a)"/><circle cx="904.963" cy="274.84" r="2.84" stroke="#fff" stroke-dasharray="none" clip-path="url(#a)"/><circle cx="839.643" cy="407.84" r="2.84" stroke="#fff" stroke-dasharray="none" clip-path="url(#a)"/><circle cx="735.643" cy="445" r="2.84" stroke="#fff" stroke-dasharray="none" clip-path="url(#a)"/></g><g shape-rendering="geometricPrecision" text-rendering="geometricPrecision" transform="translate(-413 -231)"><circle cx="929.467" cy="253" r="8" stroke="none" clip-path="url(#a)"/><circle cx="929.467" cy="253" r="8" fill="none" stroke-linecap="butt" stroke-miterlimit="1.45" clip-path="url(#a)"/><circle cx="971.131" cy="378.271" r="8" stroke="none" clip-path="url(#a)"/><circle cx="971.131" cy="378.271" r="8" fill="none" stroke-linecap="butt" stroke-miterlimit="1.45" clip-path="url(#a)"/><circle cx="791.46" cy="344.271" r="8" fill="green" stroke="none" clip-path="url(#a)"/><circle cx="791.46" cy="344.271" r="8" fill="none" stroke-linecap="butt" stroke-miterlimit="1.45" stroke-width="2" clip-path="url(#a)"/><circle cx="776.483" cy="419" r="8" stroke="none" clip-path="url(#a)"/><circle cx="776.483" cy="419" r="8" fill="none" stroke-linecap="butt" stroke-miterlimit="1.45" clip-path="url(#a)"/><circle cx="925.131" cy="407.84" r="8" stroke="none" clip-path="url(#a)"/><circle cx="925.131" cy="407.84" r="8" fill="none" stroke-linecap="butt" stroke-miterlimit="1.45" clip-path="url(#a)"/><circle cx="867.131" cy="427.702" r="8" stroke="none" clip-path="url(#a)"/><circle cx="867.131" cy="427.702" r="8" fill="none" stroke-linecap="butt" stroke-miterlimit="1.45" clip-path="url(#a)"/></g><g fill="none" stroke="#999" stroke-dasharray="6, 2" stroke-linecap="butt" stroke-miterlimit="1.45" shape-rendering="geometricPrecision" text-rendering="geometricPrecision" transform="translate(-413 -231)"><path d="M521.289 505.9h175v174.4h-175z" clip-path="url(#a)"/><circle cx="693.449" cy="508.24" r="2.84" stroke="#fff" stroke-dasharray="none" clip-path="url(#a)"/><circle cx="589.449" cy="545.4" r="2.84" stroke="#fff" stroke-dasharray="none" clip-path="url(#a)"/><circle cx="524.129" cy="678.4" r="2.84" stroke="#fff" stroke-dasharray="none" clip-path="url(#a)"/><circle cx="420.129" cy="715.56" r="2.84" stroke="#fff" stroke-dasharray="none" clip-path="url(#a)"/></g><g shape-rendering="geometricPrecision" text-rendering="geometricPrecision" transform="translate(-413 -231)"><circle cx="600.289" cy="522.259" r="8" stroke="none" clip-path="url(#a)"/><circle cx="600.289" cy="522.259" r="8" fill="none" stroke-linecap="butt" stroke-miterlimit="1.45" clip-path="url(#a)"/><circle cx="659.953" cy="602.118" r="8" stroke="none" clip-path="url(#a)"/><circle cx="659.953" cy="602.118" r="8" fill="none" stroke-linecap="butt" stroke-miterlimit="1.45" stroke-width="2" clip-path="url(#a)"/><circle cx="475.946" cy="564.831" r="8" stroke="none" clip-path="url(#a)"/><circle cx="475.946" cy="564.831" r="8" fill="none" stroke-linecap="butt" stroke-miterlimit="1.45" clip-path="url(#a)"/><circle cx="451.946" cy="645.831" r="8" stroke="none" clip-path="url(#a)"/><circle cx="451.946" cy="645.831" r="8" fill="none" stroke-linecap="butt" stroke-miterlimit="1.45" clip-path="url(#a)"/><circle cx="613.953" cy="659.118" r="8" stroke="none" clip-path="url(#a)"/><circle cx="613.953" cy="659.118" r="8" fill="none" stroke-linecap="butt" stroke-miterlimit="1.45" clip-path="url(#a)"/><circle cx="529.289" cy="698.262" r="8" stroke="none" clip-path="url(#a)"/><circle cx="529.289" cy="698.262" r="8" fill="none" stroke-linecap="butt" stroke-miterlimit="1.45" clip-path="url(#a)"/></g><g fill="none" stroke="#999" stroke-dasharray="6, 2" stroke-linecap="butt" stroke-miterlimit="1.45" shape-rendering="geometricPrecision" text-rendering="geometricPrecision" transform="translate(-413 -231)"><path d="M837.631 506h175v174.2h-175z" clip-path="url(#a)"/><circle cx="1009.791" cy="505.24" r="2.84" stroke="#fff" stroke-dasharray="none" clip-path="url(#a)"/><circle cx="905.791" cy="542.4" r="2.84" stroke="#fff" stroke-dasharray="none" clip-path="url(#a)"/><circle cx="840.471" cy="675.4" r="2.84" stroke="#fff" stroke-dasharray="none" clip-path="url(#a)"/><circle cx="736.471" cy="712.56" r="2.84" stroke="#fff" stroke-dasharray="none" clip-path="url(#a)"/></g><g shape-rendering="geometricPrecision" text-rendering="geometricPrecision" transform="translate(-413 -231)"><circle cx="864.951" cy="524.831" r="8" stroke="none" clip-path="url(#a)"/><circle cx="864.951" cy="524.831" r="8" fill="none" stroke-linecap="butt" stroke-miterlimit="1.45" clip-path="url(#a)"/><circle cx="971.96" cy="645.831" r="8" stroke="none" clip-path="url(#a)"/><circle cx="971.96" cy="645.831" r="8" fill="none" stroke-linecap="butt" stroke-miterlimit="1.45" clip-path="url(#a)"/><circle cx="777.311" cy="573.831" r="8" stroke="none" clip-path="url(#a)"/><circle cx="777.311" cy="573.831" r="8" fill="none" stroke-linecap="butt" stroke-miterlimit="1.45" stroke-width="2" clip-path="url(#a)"/><circle cx="777.311" cy="686.56" r="8" stroke="none" clip-path="url(#a)"/><circle cx="777.311" cy="686.56" r="8" fill="none" stroke-linecap="butt" stroke-miterlimit="1.45" clip-path="url(#a)"/><circle cx="936.296" cy="685.4" r="8" stroke="none" clip-path="url(#a)"/><circle cx="936.296" cy="685.4" r="8" fill="none" stroke-linecap="butt" stroke-miterlimit="1.45" clip-path="url(#a)"/><circle cx="867.96" cy="618.262" r="8" stroke="none" clip-path="url(#a)"/><circle cx="867.96" cy="618.262" r="8" fill="none" stroke-linecap="butt" stroke-miterlimit="1.45" clip-path="url(#a)"/><path fill="none" stroke-dasharray="6, 2" stroke-linecap="butt" stroke-miterlimit="1.45" d="M733.631 540.4h175v175h-175z" clip-path="url(#a)"/><path fill="none" stroke-dasharray="6, 2" stroke-linecap="butt" stroke-miterlimit="1.45" d="M417.289 543.4h175v175h-175z" clip-path="url(#a)"/><path fill="none" stroke-dasharray="6, 2" stroke-linecap="butt" stroke-miterlimit="1.45" d="M416.46 275.84h175v175h-175z" clip-path="url(#a)"/><path fill="none" stroke-dasharray="6, 2" stroke-linecap="butt" stroke-miterlimit="1.45" d="m689.946 241.636-98.652 35.248" clip-path="url(#a)"/></g><g stroke-linecap="butt" stroke-miterlimit="1.45" font-family="Tahoma" font-size="20" shape-rendering="geometricPrecision" text-rendering="geometricPrecision"><text xml:space="preserve" x="418.207" y="483.179" stroke="none" clip-path="url(#a)" transform="translate(-413 -231)">a) Good (loose coupling, high cohesion)</text><path fill="none" stroke-dasharray="6, 2" d="m520.626 411.796-98.652 35.248" clip-path="url(#a)" transform="translate(-413 -231)"/></g><g fill="none" stroke="navy" stroke-linecap="butt" stroke-miterlimit="1.45" stroke-width="3" shape-rendering="geometricPrecision" text-rendering="geometricPrecision"><path d="m562.096 272.324 74.721 66.623" clip-path="url(#a)" transform="translate(-413 -231)"/><path d="M550.442 272.631 480.8 341.64" clip-path="url(#a)" transform="translate(-413 -231)"/><path d="M475.117 392v-36.729" clip-path="url(#a)" transform="translate(-413 -231)"/><path d="m482.709 397.477 152.488-50.683" clip-path="url(#a)" transform="translate(-413 -231)"/><path d="m483.06 346.312 97.618-11.794" clip-path="url(#a)" transform="translate(-413 -231)"/><path d="m596.468 335.11 38.473 7.609" clip-path="url(#a)" transform="translate(-413 -231)"/><path d="m482.53 403.008 60.846 24.686" clip-path="url(#a)" transform="translate(-413 -231)"/><path d="m555.864 274.996-4.815 147.71" clip-path="url(#a)" transform="translate(-413 -231)"/><path d="m553.692 423.247 32.025-82.234" clip-path="url(#a)" transform="translate(-413 -231)"/></g><g fill="none" stroke-dasharray="6, 2" stroke-linecap="butt" stroke-miterlimit="1.45" shape-rendering="geometricPrecision" text-rendering="geometricPrecision"><path d="m836.801 236.382-102.887 36.453" clip-path="url(#a)" transform="translate(-413 -231)"/><path d="m1011.803 408.84-103 39" clip-path="url(#a)" transform="translate(-413 -231)"/><path d="m1006.288 238.636-98.65 35.248" clip-path="url(#a)" transform="translate(-413 -231)"/><path d="m836.968 408.796-98.65 35.248" clip-path="url(#a)" transform="translate(-413 -231)"/></g><g fill="none" stroke="navy" stroke-linecap="butt" stroke-miterlimit="1.45" stroke-width="3" shape-rendering="geometricPrecision" text-rendering="geometricPrecision"><path d="m931.992 260.591 36.615 110.089" clip-path="url(#a)" transform="translate(-413 -231)"/><path d="m922.794 257.413-124.661 82.445" clip-path="url(#a)" transform="translate(-413 -231)"/><path stroke="green" d="M650.789 344.271H783.46" clip-path="url(#a)" transform="translate(-413 -231)"/><path d="m799.32 345.759 163.95 31.025" clip-path="url(#a)" transform="translate(-413 -231)"/><path d="m778.055 411.156 11.833-59.04" clip-path="url(#a)" transform="translate(-413 -231)"/><path d="m784.313 417.362 178.988-37.453" clip-path="url(#a)" transform="translate(-413 -231)"/><path d="m798.685 347.707 119.222 56.697" clip-path="url(#a)" transform="translate(-413 -231)"/><path d="m931.861 403.514 32.54-20.917" clip-path="url(#a)" transform="translate(-413 -231)"/><path d="m784.446 419.765 74.722 7.173" clip-path="url(#a)" transform="translate(-413 -231)"/><path d="m926.779 260.535-56.96 159.632" clip-path="url(#a)" transform="translate(-413 -231)"/><path d="m796.835 350.197 64.922 71.58" clip-path="url(#a)" transform="translate(-413 -231)"/><path d="m874.7 425.11 42.863-14.678" clip-path="url(#a)" transform="translate(-413 -231)"/></g><g stroke-dasharray="6, 2" stroke-linecap="butt" stroke-miterlimit="1.45" shape-rendering="geometricPrecision" text-rendering="geometricPrecision"><path fill="none" d="m690.774 509.196-98.651 35.248" clip-path="url(#a)" transform="translate(-413 -231)"/><text xml:space="preserve" x="420.054" y="747.179" stroke="none" stroke-dasharray="none" clip-path="url(#a)" font-family="Tahoma" font-size="20" transform="translate(-413 -231)">b) Bad (high coupling, low cohesion)</text><path fill="none" d="m521.454 679.356-98.651 35.248" clip-path="url(#a)" transform="translate(-413 -231)"/></g><g fill="none" stroke="navy" stroke-linecap="butt" stroke-miterlimit="1.45" stroke-width="3" shape-rendering="geometricPrecision" text-rendering="geometricPrecision"><path d="m605.077 528.668 50.088 67.042" clip-path="url(#a)" transform="translate(-413 -231)"/><path d="m592.72 524.85-109.205 37.39" clip-path="url(#a)" transform="translate(-413 -231)"/><path d="m459.775 644.186 192.349-40.422" clip-path="url(#a)" transform="translate(-413 -231)"/><path d="m618.977 652.893 35.952-44.549" clip-path="url(#a)" transform="translate(-413 -231)"/><path d="m536.55 694.905 70.142-32.43" clip-path="url(#a)" transform="translate(-413 -231)"/></g><g fill="none" stroke-dasharray="6, 2" stroke-linecap="butt" stroke-miterlimit="1.45" shape-rendering="geometricPrecision" text-rendering="geometricPrecision"><path d="m1007.117 506.196-98.651 35.248" clip-path="url(#a)" transform="translate(-413 -231)"/><path d="m837.797 676.356-98.651 35.248" clip-path="url(#a)" transform="translate(-413 -231)"/></g><g fill="none" stroke="red" stroke-linecap="butt" stroke-miterlimit="1.45" stroke-width="3" shape-rendering="geometricPrecision" text-rendering="geometricPrecision"><path d="m483.904 564.013 373.09-38.364" clip-path="url(#a)" transform="translate(-413 -231)"/><path stroke="navy" d="m870.251 530.824 96.41 109.014" clip-path="url(#a)" transform="translate(-413 -231)"/><path d="m537.233 697.321 426.783-50.549" clip-path="url(#a)" transform="translate(-413 -231)"/><path d="M459.946 645.831H963.96" clip-path="url(#a)" transform="translate(-413 -231)"/><path stroke="navy" d="m857.969 528.735-73.675 41.192" clip-path="url(#a)" transform="translate(-413 -231)"/><path d="m667.73 600.244 101.804-24.538" clip-path="url(#a)" transform="translate(-413 -231)"/><path stroke="navy" d="M777.311 678.56v-96.729" clip-path="url(#a)" transform="translate(-413 -231)"/><path d="M607.485 525.753 929.1 681.906" clip-path="url(#a)" transform="translate(-413 -231)"/><path stroke="navy" d="m783.7 681.746 77.87-58.67" clip-path="url(#a)" transform="translate(-413 -231)"/><path stroke="navy" d="m873.667 623.869 56.922 55.924" clip-path="url(#a)" transform="translate(-413 -231)"/></g><g fill="none" stroke-dasharray="6, 2" stroke-linecap="butt" stroke-miterlimit="1.45" shape-rendering="geometricPrecision" text-rendering="geometricPrecision"><path d="m837.63 507.142-102.785 33.254" clip-path="url(#a)" transform="translate(-413 -231)"/><path d="m1012.631 679.6-103 35.8" clip-path="url(#a)" transform="translate(-413 -231)"/><path d="M521.287 507.142 418.4 543.397" clip-path="url(#a)" transform="translate(-413 -231)"/><path d="m696.289 679.6-103 38.8" clip-path="url(#a)" transform="translate(-413 -231)"/><path d="m520.458 239.382-102.886 36.453" clip-path="url(#a)" transform="translate(-413 -231)"/><path d="m695.46 411.84-103 39" clip-path="url(#a)" transform="translate(-413 -231)"/></g></g></svg>