<?xml version="1.0" encoding="UTF-8" standalone="no"?>
<!-- Created with Inkscape (http://www.inkscape.org/) -->

<svg
   version="1.1"
   id="svg1"
   width="900"
   height="400"
   viewBox="0 0 900.00002 400"
   sodipodi:docname="scale.svg"
   inkscape:version="1.3 (0e150ed, 2023-07-21)"
   xmlns:inkscape="http://www.inkscape.org/namespaces/inkscape"
   xmlns:sodipodi="http://sodipodi.sourceforge.net/DTD/sodipodi-0.dtd"
   xmlns="http://www.w3.org/2000/svg"
   xmlns:svg="http://www.w3.org/2000/svg">
  <defs
     id="defs1">
    <clipPath
       clipPathUnits="userSpaceOnUse"
       id="clipPath3">
      <path
         d="M 0,500 H 500 V 0 H 0 Z"
         transform="translate(-109.66521,-363.45231)"
         id="path3" />
    </clipPath>
    <clipPath
       clipPathUnits="userSpaceOnUse"
       id="clipPath5">
      <path
         d="M 0,500 H 500 V 0 H 0 Z"
         transform="translate(-87.6886,-370.86401)"
         id="path5" />
    </clipPath>
    <clipPath
       clipPathUnits="userSpaceOnUse"
       id="clipPath7">
      <path
         d="M 0,500 H 500 V 0 H 0 Z"
         transform="translate(-65.712502,-376.51531)"
         id="path7" />
    </clipPath>
    <clipPath
       clipPathUnits="userSpaceOnUse"
       id="clipPath9">
      <path
         d="M 0,500 H 500 V 0 H 0 Z"
         transform="translate(-202.7731,-363.45231)"
         id="path9" />
    </clipPath>
    <clipPath
       clipPathUnits="userSpaceOnUse"
       id="clipPath11">
      <path
         d="M 0,500 H 500 V 0 H 0 Z"
         transform="translate(-235.73791,-370.86401)"
         id="path11" />
    </clipPath>
    <clipPath
       clipPathUnits="userSpaceOnUse"
       id="clipPath13">
      <path
         d="M 0,500 H 500 V 0 H 0 Z"
         id="path13" />
    </clipPath>
    <clipPath
       clipPathUnits="userSpaceOnUse"
       id="clipPath15">
      <path
         d="M 0,500 H 500 V 0 H 0 Z"
         transform="translate(-107.6037,-426.29901)"
         id="path15" />
    </clipPath>
    <clipPath
       clipPathUnits="userSpaceOnUse"
       id="clipPath17">
      <path
         d="M 0,500 H 500 V 0 H 0 Z"
         transform="translate(-181.2789,-344.24871)"
         id="path17" />
    </clipPath>
    <clipPath
       clipPathUnits="userSpaceOnUse"
       id="clipPath26">
      <path
         d="M 0,500 H 500 V 0 H 0 Z"
         transform="translate(-130.81701,-445.50311)"
         id="path26" />
    </clipPath>
    <clipPath
       clipPathUnits="userSpaceOnUse"
       id="clipPath28">
      <path
         d="M 0,500 H 500 V 0 H 0 Z"
         transform="translate(-182.9977,-344.12571)"
         id="path28" />
    </clipPath>
    <clipPath
       clipPathUnits="userSpaceOnUse"
       id="clipPath44">
      <path
         d="M 0,500 H 500 V 0 H 0 Z"
         id="path44" />
    </clipPath>
    <clipPath
       clipPathUnits="userSpaceOnUse"
       id="clipPath46">
      <path
         d="M 0,500 H 500 V 0 H 0 Z"
         id="path46" />
    </clipPath>
    <clipPath
       clipPathUnits="userSpaceOnUse"
       id="clipPath48">
      <path
         d="M 0,500 H 500 V 0 H 0 Z"
         id="path48" />
    </clipPath>
    <clipPath
       clipPathUnits="userSpaceOnUse"
       id="clipPath50">
      <path
         d="M 0,500 H 500 V 0 H 0 Z"
         id="path50" />
    </clipPath>
    <clipPath
       clipPathUnits="userSpaceOnUse"
       id="clipPath52">
      <path
         d="M 0,500 H 500 V 0 H 0 Z"
         id="path52" />
    </clipPath>
    <clipPath
       clipPathUnits="userSpaceOnUse"
       id="clipPath54">
      <path
         d="M 0,500 H 500 V 0 H 0 Z"
         id="path54" />
    </clipPath>
    <clipPath
       clipPathUnits="userSpaceOnUse"
       id="clipPath56">
      <path
         d="M 0,500 H 500 V 0 H 0 Z"
         id="path56" />
    </clipPath>
    <clipPath
       clipPathUnits="userSpaceOnUse"
       id="clipPath58">
      <path
         d="M 0,500 H 500 V 0 H 0 Z"
         id="path58" />
    </clipPath>
    <clipPath
       clipPathUnits="userSpaceOnUse"
       id="clipPath60">
      <path
         d="M 0,500 H 500 V 0 H 0 Z"
         id="path60" />
    </clipPath>
    <clipPath
       clipPathUnits="userSpaceOnUse"
       id="clipPath62">
      <path
         d="M 0,500 H 500 V 0 H 0 Z"
         transform="translate(-169.87461,-251.1945)"
         id="path62" />
    </clipPath>
    <clipPath
       clipPathUnits="userSpaceOnUse"
       id="clipPath70">
      <path
         d="M 0,500 H 500 V 0 H 0 Z"
         transform="translate(-156.2194,-89.760405)"
         id="path70" />
    </clipPath>
    <clipPath
       clipPathUnits="userSpaceOnUse"
       id="clipPath72">
      <path
         d="M 0,500 H 500 V 0 H 0 Z"
         transform="translate(-156.2194,-89.760405)"
         id="path72" />
    </clipPath>
    <clipPath
       clipPathUnits="userSpaceOnUse"
       id="clipPath81">
      <path
         d="M 0,500 H 500 V 0 H 0 Z"
         transform="translate(-432.13831,-456.08321)"
         id="path81" />
    </clipPath>
    <clipPath
       clipPathUnits="userSpaceOnUse"
       id="clipPath83">
      <path
         d="M 0,500 H 500 V 0 H 0 Z"
         transform="translate(-325.97421,-349.06371)"
         id="path83" />
    </clipPath>
    <clipPath
       clipPathUnits="userSpaceOnUse"
       id="clipPath85">
      <path
         d="M 0,500 H 500 V 0 H 0 Z"
         transform="translate(-388.97031,-441.79221)"
         id="path85" />
    </clipPath>
    <clipPath
       clipPathUnits="userSpaceOnUse"
       id="clipPath87">
      <path
         d="M 0,500 H 500 V 0 H 0 Z"
         transform="translate(-352.29851,-376.57291)"
         id="path87" />
    </clipPath>
    <clipPath
       clipPathUnits="userSpaceOnUse"
       id="clipPath89">
      <path
         d="M 0,500 H 500 V 0 H 0 Z"
         transform="translate(-459.12171,-408.11541)"
         id="path89" />
    </clipPath>
    <clipPath
       clipPathUnits="userSpaceOnUse"
       id="clipPath91">
      <path
         d="M 0,500 H 500 V 0 H 0 Z"
         transform="translate(-408.63051,-394.96411)"
         id="path91" />
    </clipPath>
    <clipPath
       clipPathUnits="userSpaceOnUse"
       id="clipPath93">
      <path
         d="M 0,500 H 500 V 0 H 0 Z"
         transform="translate(-378.95281,-431.87571)"
         id="path93" />
    </clipPath>
    <clipPath
       clipPathUnits="userSpaceOnUse"
       id="clipPath95">
      <path
         d="M 0,500 H 500 V 0 H 0 Z"
         transform="translate(-378.95281,-431.87571)"
         id="path95" />
    </clipPath>
    <clipPath
       clipPathUnits="userSpaceOnUse"
       id="clipPath97">
      <path
         d="M 0,500 H 500 V 0 H 0 Z"
         transform="translate(-329.89511,-429.47721)"
         id="path97" />
    </clipPath>
    <clipPath
       clipPathUnits="userSpaceOnUse"
       id="clipPath99">
      <path
         d="M 0,500 H 500 V 0 H 0 Z"
         transform="translate(-436.71841,-454.30831)"
         id="path99" />
    </clipPath>
    <clipPath
       clipPathUnits="userSpaceOnUse"
       id="clipPath101">
      <path
         d="M 0,500 H 500 V 0 H 0 Z"
         transform="translate(-325.97421,-427.50121)"
         id="path101" />
    </clipPath>
    <clipPath
       clipPathUnits="userSpaceOnUse"
       id="clipPath103">
      <path
         d="M 0,500 H 500 V 0 H 0 Z"
         transform="translate(-432.79651,-455.39231)"
         id="path103" />
    </clipPath>
    <clipPath
       clipPathUnits="userSpaceOnUse"
       id="clipPath105">
      <path
         d="M 0,500 H 500 V 0 H 0 Z"
         transform="translate(-409.62071,-309.59201)"
         id="path105" />
    </clipPath>
    <clipPath
       clipPathUnits="userSpaceOnUse"
       id="clipPath107">
      <path
         d="m 297.859,87.766 c 0,-28.73 23.29,-52.019 52.02,-52.019 v 0 c 28.729,0 52.018,23.289 52.018,52.019 v 0 c 0,28.73 -23.289,52.02 -52.018,52.02 v 0 c -28.73,0 -52.02,-23.29 -52.02,-52.02"
         transform="translate(-349.87851,-139.7858)"
         id="path107" />
    </clipPath>
    <clipPath
       clipPathUnits="userSpaceOnUse"
       id="clipPath109">
      <path
         d="m 297.859,87.766 c 0,-28.73 23.29,-52.019 52.02,-52.019 v 0 c 28.729,0 52.018,23.289 52.018,52.019 v 0 c 0,28.73 -23.289,52.02 -52.018,52.02 v 0 c -28.73,0 -52.02,-23.29 -52.02,-52.02"
         transform="translate(-401.89711,-139.7858)"
         id="path109" />
    </clipPath>
    <clipPath
       clipPathUnits="userSpaceOnUse"
       id="clipPath111">
      <path
         d="m 349.879,87.766 c 0,-28.73 23.289,-52.019 52.018,-52.019 v 0 c 28.73,0 52.02,23.289 52.02,52.019 v 0 c 0,28.73 -23.29,52.02 -52.02,52.02 v 0 c -28.729,0 -52.018,-23.29 -52.018,-52.02"
         transform="translate(-401.89711,-139.7858)"
         id="path111" />
    </clipPath>
    <clipPath
       clipPathUnits="userSpaceOnUse"
       id="clipPath113">
      <path
         d="m 349.879,87.766 c 0,-28.73 23.289,-52.019 52.018,-52.019 v 0 c 28.73,0 52.02,23.289 52.02,52.019 v 0 c 0,28.73 -23.29,52.02 -52.02,52.02 v 0 c -28.729,0 -52.018,-23.29 -52.018,-52.02"
         transform="translate(-349.87851,-139.7858)"
         id="path113" />
    </clipPath>
    <clipPath
       clipPathUnits="userSpaceOnUse"
       id="clipPath124">
      <path
         d="M 0,500 H 500 V 0 H 0 Z"
         transform="translate(-260.23891,-92.015302)"
         id="path124" />
    </clipPath>
    <clipPath
       clipPathUnits="userSpaceOnUse"
       id="clipPath126">
      <path
         d="M 0,500 H 500 V 0 H 0 Z"
         id="path126" />
    </clipPath>
    <clipPath
       clipPathUnits="userSpaceOnUse"
       id="clipPath128">
      <path
         d="M 0,500 H 500 V 0 H 0 Z"
         transform="translate(-81.038702,-110.86691)"
         id="path128" />
    </clipPath>
    <clipPath
       clipPathUnits="userSpaceOnUse"
       id="clipPath130">
      <path
         d="M 0,500 H 500 V 0 H 0 Z"
         transform="translate(-64.124201,-129.4167)"
         id="path130" />
    </clipPath>
    <clipPath
       clipPathUnits="userSpaceOnUse"
       id="clipPath134">
      <path
         d="M 0,500 H 500 V 0 H 0 Z"
         transform="translate(-64.368802,-99.6393)"
         id="path134" />
    </clipPath>
    <clipPath
       clipPathUnits="userSpaceOnUse"
       id="clipPath136">
      <path
         d="M 0,500 H 500 V 0 H 0 Z"
         transform="translate(-66.765802,-99.6393)"
         id="path136" />
    </clipPath>
    <clipPath
       clipPathUnits="userSpaceOnUse"
       id="clipPath138">
      <path
         d="M 0,500 H 500 V 0 H 0 Z"
         transform="translate(-66.765802,-75.370799)"
         id="path138" />
    </clipPath>
    <clipPath
       clipPathUnits="userSpaceOnUse"
       id="clipPath140">
      <path
         d="M 0,500 H 500 V 0 H 0 Z"
         transform="translate(-247.06071,-110.86691)"
         id="path140" />
    </clipPath>
    <clipPath
       clipPathUnits="userSpaceOnUse"
       id="clipPath142">
      <path
         d="M 0,500 H 500 V 0 H 0 Z"
         transform="translate(-230.14611,-129.4167)"
         id="path142" />
    </clipPath>
    <clipPath
       clipPathUnits="userSpaceOnUse"
       id="clipPath146">
      <path
         d="M 0,500 H 500 V 0 H 0 Z"
         transform="translate(-230.3908,-99.6393)"
         id="path146" />
    </clipPath>
    <clipPath
       clipPathUnits="userSpaceOnUse"
       id="clipPath148">
      <path
         d="M 0,500 H 500 V 0 H 0 Z"
         transform="translate(-232.78771,-99.6393)"
         id="path148" />
    </clipPath>
    <clipPath
       clipPathUnits="userSpaceOnUse"
       id="clipPath150">
      <path
         d="M 0,500 H 500 V 0 H 0 Z"
         transform="translate(-232.78771,-75.370799)"
         id="path150" />
    </clipPath>
    <clipPath
       clipPathUnits="userSpaceOnUse"
       id="clipPath152">
      <path
         d="M 0,500 H 500 V 0 H 0 Z"
         transform="translate(-370.90691,-226.5993)"
         id="path152" />
    </clipPath>
    <clipPath
       clipPathUnits="userSpaceOnUse"
       id="clipPath154">
      <path
         d="M 0,500 H 500 V 0 H 0 Z"
         transform="translate(-399.31991,-276.89571)"
         id="path154" />
    </clipPath>
    <clipPath
       clipPathUnits="userSpaceOnUse"
       id="clipPath156">
      <path
         d="M 0,500 H 500 V 0 H 0 Z"
         transform="translate(-399.31991,-178.6091)"
         id="path156" />
    </clipPath>
    <clipPath
       clipPathUnits="userSpaceOnUse"
       id="clipPath158">
      <path
         d="M 0,500 H 500 V 0 H 0 Z"
         id="path158" />
    </clipPath>
    <clipPath
       clipPathUnits="userSpaceOnUse"
       id="clipPath160">
      <path
         d="m 343.78,272.284 v -20.863 c 0,-14.982 12.146,-27.127 27.127,-27.127 v 0 c 14.982,0 27.128,12.145 27.128,27.127 v 0 20.863 z"
         transform="translate(-370.90691,-224.29361)"
         id="path160" />
    </clipPath>
    <clipPath
       clipPathUnits="userSpaceOnUse"
       id="clipPath162">
      <path
         d="m 343.78,272.284 v -20.863 c 0,-14.982 12.146,-27.127 27.127,-27.127 v 0 c 14.982,0 27.128,12.145 27.128,27.127 v 0 20.863 z"
         id="path162" />
    </clipPath>
    <clipPath
       clipPathUnits="userSpaceOnUse"
       id="clipPath164">
      <path
         d="M 0,500 H 500 V 0 H 0 Z"
         transform="translate(-371.43231,-225.4518)"
         id="path164" />
    </clipPath>
    <clipPath
       clipPathUnits="userSpaceOnUse"
       id="clipPath180">
      <path
         d="M 0,500 H 500 V 0 H 0 Z"
         transform="translate(-352.57781,-227.57291)"
         id="path180" />
    </clipPath>
    <clipPath
       clipPathUnits="userSpaceOnUse"
       id="clipPath182">
      <path
         d="M 0,500 H 500 V 0 H 0 Z"
         transform="translate(-334.37561,-261.1428)"
         id="path182" />
    </clipPath>
    <clipPath
       clipPathUnits="userSpaceOnUse"
       id="clipPath184">
      <path
         d="M 0,500 H 500 V 0 H 0 Z"
         transform="translate(-350.44691,-229.29851)"
         id="path184" />
    </clipPath>
    <clipPath
       clipPathUnits="userSpaceOnUse"
       id="clipPath186">
      <path
         d="M 0,500 H 500 V 0 H 0 Z"
         transform="translate(-334.36581,-205.64321)"
         id="path186" />
    </clipPath>
    <clipPath
       clipPathUnits="userSpaceOnUse"
       id="clipPath188">
      <path
         d="M 0,500 H 500 V 0 H 0 Z"
         transform="translate(-339.83751,-192.2975)"
         id="path188" />
    </clipPath>
    <clipPath
       clipPathUnits="userSpaceOnUse"
       id="clipPath190">
      <path
         d="M 0,500 H 500 V 0 H 0 Z"
         transform="translate(-333.30631,-205.64321)"
         id="path190" />
    </clipPath>
    <clipPath
       clipPathUnits="userSpaceOnUse"
       id="clipPath192">
      <path
         d="M 0,500 H 500 V 0 H 0 Z"
         transform="translate(-390.09051,-227.57291)"
         id="path192" />
    </clipPath>
    <clipPath
       clipPathUnits="userSpaceOnUse"
       id="clipPath194">
      <path
         d="M 0,500 H 500 V 0 H 0 Z"
         transform="translate(-408.29161,-261.1428)"
         id="path194" />
    </clipPath>
    <clipPath
       clipPathUnits="userSpaceOnUse"
       id="clipPath196">
      <path
         d="M 0,500 H 500 V 0 H 0 Z"
         transform="translate(-392.22131,-229.29851)"
         id="path196" />
    </clipPath>
    <clipPath
       clipPathUnits="userSpaceOnUse"
       id="clipPath198">
      <path
         d="M 0,500 H 500 V 0 H 0 Z"
         transform="translate(-408.30241,-205.64321)"
         id="path198" />
    </clipPath>
    <clipPath
       clipPathUnits="userSpaceOnUse"
       id="clipPath200">
      <path
         d="M 0,500 H 500 V 0 H 0 Z"
         transform="translate(-402.83071,-192.2975)"
         id="path200" />
    </clipPath>
    <clipPath
       clipPathUnits="userSpaceOnUse"
       id="clipPath202">
      <path
         d="M 0,500 H 500 V 0 H 0 Z"
         transform="translate(-409.36101,-205.64321)"
         id="path202" />
    </clipPath>
  </defs>
  <sodipodi:namedview
     id="namedview1"
     pagecolor="#ffffff"
     bordercolor="#666666"
     borderopacity="1.0"
     inkscape:showpageshadow="2"
     inkscape:pageopacity="0.0"
     inkscape:pagecheckerboard="0"
     inkscape:deskcolor="#d1d1d1"
     inkscape:zoom="1.3053849"
     inkscape:cx="433.20557"
     inkscape:cy="139.42248"
     inkscape:window-width="1728"
     inkscape:window-height="1051"
     inkscape:window-x="0"
     inkscape:window-y="38"
     inkscape:window-maximized="0"
     inkscape:current-layer="layer-MC1">
    <inkscape:page
       x="0"
       y="0"
       inkscape:label="1"
       id="page1"
       width="900"
       height="400"
       margin="0"
       bleed="0" />
  </sodipodi:namedview>
  <g
     id="layer-MC0"
     inkscape:groupmode="layer"
     inkscape:label="BACKGROUND"
     transform="translate(-397.95227,-25.980137)" />
  <g
     id="layer-MC1"
     inkscape:groupmode="layer"
     inkscape:label="OBJECTS"
     transform="translate(-397.95227,-25.980137)">
    <path
       id="path80"
       d="m 0,0 0.851,-3.659 -107.222,-24.923 -0.851,3.659 z"
       style="fill:#000000;fill-opacity:1;fill-rule:nonzero;stroke:none"
       transform="matrix(2.0774127,0,0,-2.0774127,957.63414,99.488113)"
       clip-path="url(#clipPath81)" />
    <path
       id="path82"
       d="M 0,0 C 15.192,0 27.509,12.316 27.509,27.509 H -27.51 C -27.51,12.316 -15.193,0 0,0"
       style="fill:#000000;fill-opacity:1;fill-rule:nonzero;stroke:none"
       transform="matrix(2.0774127,0,0,-2.0774127,737.08749,321.81179)"
       clip-path="url(#clipPath83)" />
    <path
       id="path84"
       d="m 0,0 c 0,-5.532 -4.485,-10.017 -10.018,-10.017 -5.532,0 -10.017,4.485 -10.017,10.017 0,5.532 4.485,10.017 10.017,10.017 C -4.485,10.017 0,5.532 0,0"
       style="fill:#000000;fill-opacity:1;fill-rule:nonzero;stroke:none"
       transform="matrix(2.0774127,0,0,-2.0774127,867.95639,129.17642)"
       clip-path="url(#clipPath85)" />
    <path
       id="path86"
       d="m 0,0 c 0,-14.539 -11.786,-26.324 -26.324,-26.324 -14.539,0 -26.325,11.785 -26.325,26.324 0,14.539 11.786,26.325 26.325,26.325 C -11.786,26.325 0,14.539 0,0 Z"
       style="fill:none;stroke:#000000;stroke-width:2.192;stroke-linecap:butt;stroke-linejoin:miter;stroke-miterlimit:10;stroke-dasharray:none;stroke-opacity:1"
       transform="matrix(2.0774127,0,0,-2.0774127,791.77392,264.66383)"
       clip-path="url(#clipPath87)" />
    <path
       id="path88"
       d="m 0,0 c 0,-14.539 -11.786,-26.324 -26.325,-26.324 -14.538,0 -26.324,11.785 -26.324,26.324 0,14.539 11.786,26.325 26.324,26.325 C -11.786,26.325 0,14.539 0,0 Z"
       style="fill:none;stroke:#000000;stroke-width:2.192;stroke-linecap:butt;stroke-linejoin:miter;stroke-miterlimit:10;stroke-dasharray:none;stroke-opacity:1"
       transform="matrix(2.0774127,0,0,-2.0774127,1013.6898,199.13704)"
       clip-path="url(#clipPath89)" />
    <path
       id="path90"
       d="m 0,0 c 4.664,-8.554 13.737,-14.358 24.166,-14.358 10.43,0 19.502,5.804 24.167,14.358 z"
       style="fill:#000000;fill-opacity:1;fill-rule:nonzero;stroke:none"
       transform="matrix(2.0774127,0,0,-2.0774127,908.79875,226.45772)"
       clip-path="url(#clipPath91)" />
    <path
       id="path92"
       d="M 0,0 V -121.754 H -15.316 Z"
       style="fill:#000000;fill-opacity:1;fill-rule:nonzero;stroke:none"
       transform="matrix(2.0774127,0,0,-2.0774127,847.14591,149.77708)"
       clip-path="url(#clipPath93)" />
    <path
       id="path94"
       d="M 0,0 V -121.754 H 15.316 Z"
       style="fill:#3c3c3c;fill-opacity:1;fill-rule:nonzero;stroke:none"
       transform="matrix(2.0774127,0,0,-2.0774127,847.14591,149.77708)"
       clip-path="url(#clipPath95)" />
    <path
       id="path96"
       d="m 0,0 c 0,-2.166 -1.756,-3.921 -3.921,-3.921 -2.166,0 -3.922,1.755 -3.922,3.921 0,2.166 1.756,3.922 3.922,3.922 C -1.756,3.922 0,2.166 0,0"
       style="fill:#000000;fill-opacity:1;fill-rule:nonzero;stroke:none"
       transform="matrix(2.0774127,0,0,-2.0774127,745.23281,154.75976)"
       clip-path="url(#clipPath97)" />
    <path
       id="path98"
       d="m 0,0 c 0,-2.166 -1.756,-3.922 -3.922,-3.922 -2.165,0 -3.921,1.756 -3.921,3.922 0,2.166 1.756,3.921 3.921,3.921 C -1.756,3.921 0,2.166 0,0"
       style="fill:#000000;fill-opacity:1;fill-rule:nonzero;stroke:none"
       transform="matrix(2.0774127,0,0,-2.0774127,967.1489,103.17531)"
       clip-path="url(#clipPath99)" />
    <path
       id="path100"
       d="M 0,0 V -24.604"
       style="fill:none;stroke:#000000;stroke-width:2.174;stroke-linecap:butt;stroke-linejoin:miter;stroke-miterlimit:10;stroke-dasharray:none;stroke-opacity:1"
       transform="matrix(2.0774127,0,0,-2.0774127,737.08749,158.86473)"
       clip-path="url(#clipPath101)" />
    <path
       id="path102"
       d="M 0,0 V -21.08"
       style="fill:none;stroke:#000000;stroke-width:2.174;stroke-linecap:butt;stroke-linejoin:miter;stroke-miterlimit:10;stroke-dasharray:none;stroke-opacity:1"
       transform="matrix(2.0774127,0,0,-2.0774127,959.0015,100.9234)"
       clip-path="url(#clipPath103)" />
    <path
       d="m 721.01992,260.71752 q -2.59147,0 -3.952,-1.45771 -1.36051,-1.49009 -1.36051,-4.24354 v -0.42112 h 3.36891 v 0.64788 q 0,2.23514 1.84643,2.23514 1.0042,0 1.49009,-0.61548 0.48592,-0.61548 0.48592,-2.17036 v -4.34072 h -0.0648 q -0.9394,1.97601 -3.23935,1.97601 -1.9436,0 -2.9478,-1.32814 -1.0042,-1.32814 -1.0042,-3.85483 v -4.04918 q 0,-2.72105 1.39292,-4.21115 1.39292,-1.4901 4.01679,-1.4901 2.62388,0 4.0168,1.4901 1.39291,1.4901 1.39291,4.21115 v 11.72644 q 0,5.89561 -5.4421,5.89561 z m 0.0324,-11.62925 q 1.84644,0 1.84644,-2.23516 v -4.01679 q 0,-2.20275 -1.84644,-2.20275 -1.84643,0 -1.84643,2.20275 v 4.01679 q 0,2.23516 1.84643,2.23516 z m 13.05456,11.62925 q -2.62387,0 -4.01679,-1.4901 -1.39292,-1.4901 -1.39292,-4.21115 v -11.9208 q 0,-2.72105 1.39292,-4.21115 1.39292,-1.4901 4.01679,-1.4901 2.62387,0 4.01679,1.4901 1.39292,1.4901 1.39292,4.21115 v 11.9208 q 0,2.72105 -1.39292,4.21115 -1.39292,1.4901 -4.01679,1.4901 z m 0,-3.23935 q 1.84643,0 1.84643,-2.23514 v -12.37432 q 0,-2.23514 -1.84643,-2.23514 -1.84642,0 -1.84642,2.23514 v 12.37432 q 0,2.23514 1.84642,2.23514 z m 11.04616,-7.15895 q -1.68446,0 -2.55908,-0.93942 -0.87463,-0.9394 -0.87463,-2.68865 v -5.66886 q 0,-1.74925 0.87463,-2.68865 0.87462,-0.93942 2.55908,-0.93942 1.68445,0 2.55908,0.93942 0.87462,0.9394 0.87462,2.68865 v 5.66886 q 0,1.74925 -0.87462,2.68865 -0.87463,0.93942 -2.55908,0.93942 z m 8.22794,-12.60106 h 2.26754 l -8.77862,22.67542 h -2.26756 z m -8.22794,10.56026 q 1.16616,0 1.16616,-1.42531 v -5.99278 q 0,-1.42531 -1.16616,-1.42531 -1.16616,0 -1.16616,1.42531 v 5.99278 q 0,1.42531 1.16616,1.42531 z m 9.94478,12.4391 q -1.68445,0 -2.55908,-0.93942 -0.87462,-0.9394 -0.87462,-2.68865 v -5.66886 q 0,-1.74925 0.87462,-2.68865 0.87463,-0.93941 2.55908,-0.93941 1.68447,0 2.55908,0.93941 0.87464,0.9394 0.87464,2.68865 v 5.66886 q 0,1.74925 -0.87464,2.68865 -0.87461,0.93942 -2.55908,0.93942 z m 0,-2.0408 q 1.16618,0 1.16618,-1.42531 v -5.99278 q 0,-1.42531 -1.16618,-1.42531 -1.16616,0 -1.16616,1.42531 v 5.99278 q 0,1.42531 1.16616,1.42531 z"
       id="text202"
       style="font-weight:bold;font-size:20.7909px;line-height:1.25;font-family:'Bebas Neue';-inkscape-font-specification:'Bebas Neue, Bold';stroke-width:0.809837"
       aria-label="90%" />
    <path
       d="m 942.09358,204.30467 h -3.72525 v -2.52669 q 1.52249,0 2.4295,-0.25914 0.93942,-0.25915 1.49011,-0.84224 0.55068,-0.61546 0.9718,-1.74925 h 2.39712 v 22.67542 h -3.56328 z m 13.11934,17.62204 q -2.62388,0 -4.01679,-1.4901 -1.39292,-1.49009 -1.39292,-4.21115 v -11.92079 q 0,-2.72104 1.39292,-4.21114 1.39291,-1.4901 4.01679,-1.4901 2.62387,0 4.01679,1.4901 1.39292,1.4901 1.39292,4.21114 v 11.92079 q 0,2.72106 -1.39292,4.21115 -1.39292,1.4901 -4.01679,1.4901 z m 0,-3.23935 q 1.84643,0 1.84643,-2.23514 v -12.3743 q 0,-2.23514 -1.84643,-2.23514 -1.84643,0 -1.84643,2.23514 v 12.3743 q 0,2.23514 1.84643,2.23514 z m 11.04616,-7.15895 q -1.68447,0 -2.5591,-0.9394 -0.87461,-0.93942 -0.87461,-2.68867 v -5.66884 q 0,-1.74925 0.87461,-2.68867 0.87463,-0.9394 2.5591,-0.9394 1.68445,0 2.55908,0.9394 0.87462,0.93942 0.87462,2.68867 v 5.66884 q 0,1.74925 -0.87462,2.68867 -0.87463,0.9394 -2.55908,0.9394 z m 8.22793,-12.60106 h 2.26755 l -8.77864,22.67542 h -2.26754 z m -8.22793,10.56028 q 1.16616,0 1.16616,-1.42531 v -5.9928 q 0,-1.42531 -1.16616,-1.42531 -1.16618,0 -1.16618,1.42531 v 5.9928 q 0,1.42531 1.16618,1.42531 z m 9.94478,12.43908 q -1.68446,0 -2.55908,-0.9394 -0.87462,-0.93942 -0.87462,-2.68867 v -5.66884 q 0,-1.74925 0.87462,-2.68867 0.87462,-0.93941 2.55908,-0.93941 1.68447,0 2.55908,0.93941 0.87464,0.93942 0.87464,2.68867 v 5.66884 q 0,1.74925 -0.87464,2.68867 -0.87461,0.9394 -2.55908,0.9394 z m 0,-2.04078 q 1.16616,0 1.16616,-1.42531 v -5.9928 q 0,-1.42531 -1.16616,-1.42531 -1.16616,0 -1.16616,1.42531 v 5.9928 q 0,1.42531 1.16616,1.42531 z"
       id="text203"
       style="font-weight:bold;font-size:20.7909px;line-height:1.25;font-family:'Bebas Neue';-inkscape-font-specification:'Bebas Neue, Bold';stroke-width:0.809837"
       aria-label="10%" />
    <path
       d="m 689.63319,331.29427 h 3.52842 l 1.57319,11.25952 h 0.045 l 1.57317,-11.25952 h 3.52843 v 15.73185 h -2.33729 v -11.91126 h -0.0449 l -1.79793,11.91126 h -2.06762 l -1.79792,-11.91126 h -0.0449 v 11.91126 h -2.15751 z m 14.0013,0 h 3.34864 l 2.56204,15.73185 h -2.47214 l -0.44949,-3.12389 v 0.045 h -2.80925 l -0.44949,3.07895 h -2.29236 z m 2.69689,10.51787 -1.10122,-7.77603 h -0.045 l -1.07875,7.77603 z m 4.4049,-10.51787 h 2.47214 v 15.73185 h -2.47214 z m 4.31501,0 h 3.10141 l 2.40474,9.41665 h 0.0449 v -9.41665 h 2.20247 v 15.73185 h -2.53958 l -2.96657,-11.48424 h -0.045 v 11.48424 h -2.20246 z m 11.52916,2.24741 h -2.58452 v -2.24741 h 7.64119 v 2.24741 h -2.58453 v 13.48444 h -2.47214 z m 6.24776,-2.24741 h 6.74222 v 2.24741 h -4.27008 v 4.15771 h 3.39359 v 2.24741 h -3.39359 v 4.83191 h 4.27008 v 2.24741 h -6.74222 z m 8.15806,0 h 3.10143 l 2.40472,9.41665 h 0.0449 v -9.41665 h 2.20246 v 15.73185 h -2.53957 l -2.96658,-11.48424 h -0.045 v 11.48424 h -2.20246 z m 11.50669,0 h 3.34863 l 2.56204,15.73185 h -2.47214 l -0.44949,-3.12389 v 0.045 h -2.80926 l -0.44948,3.07895 h -2.29234 z m 2.69689,10.51787 -1.10123,-7.77603 h -0.0449 l -1.07875,7.77603 z m 4.4049,-10.51787 h 3.10141 l 2.40473,9.41665 h 0.0449 v -9.41665 h 2.20246 v 15.73185 h -2.53956 l -2.96658,-11.48424 h -0.045 v 11.48424 h -2.20245 z m 13.07986,15.9566 q -1.77545,0 -2.71935,-1.01134 -0.92144,-1.01133 -0.92144,-2.85421 v -8.45024 q 0,-1.84287 0.92144,-2.85421 0.9439,-1.01134 2.71935,-1.01134 1.77546,0 2.6969,1.01134 0.9439,1.01134 0.9439,2.85421 v 1.66307 h -2.33731 v -1.82039 q 0,-1.46082 -1.23607,-1.46082 -1.23607,0 -1.23607,1.46082 v 8.78736 q 0,1.43834 1.23607,1.43834 1.23607,0 1.23607,-1.43834 v -2.40472 h 2.33731 v 2.22492 q 0,1.84288 -0.9439,2.85421 -0.92144,1.01134 -2.6969,1.01134 z m 5.12407,-15.9566 h 6.74223 v 2.24741 h -4.27007 v 4.15771 h 3.39358 v 2.24741 h -3.39358 v 4.83191 h 4.27007 v 2.24741 h -6.74223 z"
       id="text204"
       style="font-weight:bold;font-size:14.4244px;line-height:1.25;font-family:'Bebas Neue';-inkscape-font-specification:'Bebas Neue, Bold';stroke-width:0.561853"
       aria-label="maintenance" />
    <path
       d="m 910.91978,265.07099 h 3.77564 q 1.84288,0 2.76431,0.98887 0.92144,0.98885 0.92144,2.89914 v 7.95583 q 0,1.91029 -0.92144,2.89915 -0.92143,0.98886 -2.76431,0.98886 h -3.77564 z m 3.73069,13.48444 q 0.60681,0 0.92144,-0.35958 0.3371,-0.35959 0.3371,-1.16866 v -8.18056 q 0,-0.80907 -0.3371,-1.16865 -0.31463,-0.35959 -0.92144,-0.35959 h -1.25855 v 11.23704 z m 5.39374,-13.48444 h 6.74222 v 2.2474 h -4.27008 v 4.15772 h 3.3936 v 2.2474 h -3.3936 v 4.83192 h 4.27008 v 2.24741 h -6.74222 z m 7.50631,0 h 2.49463 l 1.61814,12.20342 h 0.045 l 1.61813,-12.20342 h 2.26989 l -2.38226,15.73185 h -3.28129 z m 9.23685,0 h 6.74222 v 2.2474 h -4.27008 v 4.15772 h 3.3936 v 2.2474 h -3.3936 v 4.83192 h 4.27008 v 2.24741 h -6.74222 z m 8.15806,0 h 2.47216 v 13.48444 h 4.0678 v 2.24741 h -6.53996 z m 11.21453,15.9566 q -1.82039,0 -2.78678,-1.03382 -0.96639,-1.0338 -0.96639,-2.92163 v -8.27046 q 0,-1.88782 0.96639,-2.92162 0.96639,-1.03381 2.78678,-1.03381 1.8204,0 2.78679,1.03381 0.96638,1.0338 0.96638,2.92162 v 8.27046 q 0,1.88783 -0.96638,2.92163 -0.96639,1.03382 -2.78679,1.03382 z m 0,-2.24741 q 1.28102,0 1.28102,-1.55072 v -8.5851 q 0,-1.5507 -1.28102,-1.5507 -1.28103,0 -1.28103,1.5507 v 8.5851 q 0,1.55072 1.28103,1.55072 z m 5.41625,-13.70919 h 3.64079 q 1.84288,0 2.76431,0.98887 0.92144,0.98885 0.92144,2.89914 v 1.55072 q 0,1.91029 -0.92144,2.89914 -0.92143,0.98887 -2.76431,0.98887 h -1.16865 v 6.40511 h -2.47214 z m 3.64079,7.07934 q 0.6068,0 0.89897,-0.33712 0.31464,-0.3371 0.31464,-1.14617 v -1.86536 q 0,-0.80907 -0.31464,-1.14617 -0.29217,-0.33712 -0.89897,-0.33712 h -1.16865 v 4.83194 z m 5.03419,-7.07934 h 3.52843 l 1.57318,11.25952 h 0.045 l 1.57319,-11.25952 h 3.52843 v 15.73185 h -2.33731 v -11.91126 h -0.0449 l -1.79792,11.91126 h -2.06761 l -1.79794,-11.91126 h -0.045 v 11.91126 h -2.15751 z m 12.09101,0 h 6.74222 v 2.2474 h -4.27007 v 4.15772 h 3.39358 v 2.2474 h -3.39358 v 4.83192 h 4.27007 v 2.24741 h -6.74222 z m 8.15806,0 h 3.10143 l 2.40472,9.41664 h 0.045 v -9.41664 h 2.20246 v 15.73185 h -2.53958 l -2.96665,-11.48426 h -0.0449 v 11.48426 h -2.20247 z m 11.52914,2.2474 h -2.58449 v -2.2474 h 7.64119 v 2.2474 h -2.5845 v 13.48445 h -2.4722 z"
       id="text205"
       style="font-weight:bold;font-size:14.4244px;line-height:1.25;font-family:'Bebas Neue';-inkscape-font-specification:'Bebas Neue, Bold';stroke-width:0.561853"
       aria-label="development" />
    <path
       style="font-size:40px;line-height:1.25;font-family:'Bebas Neue';-inkscape-font-specification:'Bebas Neue, Normal'"
       d="m 756.87244,40.879364 h 6.48 q 3.28,0 4.92,1.76 1.64,1.76 1.64,5.16 v 2.76 q 0,3.4 -1.64,5.16 -1.64,1.76 -4.92,1.76 h -2.08 v 11.4 h -4.4 z m 6.48,12.6 q 1.08,0 1.6,-0.6 0.56,-0.6 0.56,-2.04 v -3.32 q 0,-1.44 -0.56,-2.04 -0.52,-0.6 -1.6,-0.6 h -2.08 v 8.6 z m 8.95999,-12.6 h 6.52 q 3.4,0 4.96,1.6 1.56,1.56 1.56,4.84 v 1.72 q 0,4.36 -2.88,5.52 v 0.08 q 1.6,0.48 2.24,1.96 0.68,1.48 0.68,3.96 v 4.92 q 0,1.2 0.08,1.96 0.08,0.72 0.4,1.44 h -4.48 q -0.24,-0.68 -0.32,-1.28 -0.08,-0.6 -0.08,-2.16 v -5.12 q 0,-1.92 -0.64,-2.68 -0.6,-0.76 -2.12,-0.76 h -1.52 v 12 h -4.4 z m 6,12 q 1.32,0 1.96,-0.68 0.68,-0.68 0.68,-2.28 v -2.16 q 0,-1.52 -0.56,-2.2 -0.52,-0.68 -1.68,-0.68 h -2 v 8 z m 16.47999,16.4 q -3.24,0 -4.96,-1.84 -1.72,-1.84 -1.72,-5.2 v -14.72 q 0,-3.36 1.72,-5.2 1.72,-1.84 4.96,-1.84 3.24,0 4.96,1.84 1.72,1.84 1.72,5.2 v 14.72 q 0,3.36 -1.72,5.2 -1.72,1.84 -4.96,1.84 z m 0,-4 q 2.28,0 2.28,-2.76 v -15.28 q 0,-2.76 -2.28,-2.76 -2.28,0 -2.28,2.76 v 15.28 q 0,2.76 2.28,2.76 z m 10.67999,3.76 q -1.2,0 -2.04,-0.16 v -4 q 0.64,0.16 1.44,0.16 1.32,0 1.96,-0.64 0.64,-0.68 0.64,-2.04 v -21.48 h 4.4 v 21.36 q 0,3.44 -1.6,5.12 -1.56,1.68 -4.8,1.68 z m 9.55997,-28.16 h 12 v 4 h -7.6 v 7.4 h 6.04 v 4 h -6.04 v 8.6 h 7.6 v 4 h -12 z m 20.71996,28.4 q -3.16,0 -4.84,-1.8 -1.64,-1.8 -1.64,-5.08 v -15.04 q 0,-3.28 1.64,-5.08 1.68,-1.8 4.84,-1.8 3.16,0 4.8,1.8 1.68,1.8 1.68,5.08 v 2.96 h -4.16 v -3.24 q 0,-2.6 -2.2,-2.6 -2.2,0 -2.2,2.6 v 15.64 q 0,2.56 2.2,2.56 2.2,0 2.2,-2.56 v -4.28 h 4.16 v 3.96 q 0,3.28 -1.68,5.08 -1.64,1.8 -4.8,1.8 z m 12.55998,-24.4 h -4.6 v -4 h 13.6 v 4 h -4.6 v 24 h -4.4 z m 23.71993,24.4 q -3.16,0 -4.84,-1.8 -1.64,-1.8 -1.64,-5.08 v -15.04 q 0,-3.28 1.64,-5.08 1.68,-1.8 4.84,-1.8 3.16,0 4.8,1.8 1.68,1.8 1.68,5.08 v 2.96 h -4.16 v -3.24 q 0,-2.6 -2.2,-2.6 -2.2,0 -2.2,2.6 v 15.64 q 0,2.56 2.2,2.56 2.2,0 2.2,-2.56 v -4.28 h 4.16 v 3.96 q 0,3.28 -1.68,5.08 -1.64,1.8 -4.8,1.8 z m 15.55993,0 q -3.24,0 -4.96,-1.84 -1.72,-1.84 -1.72,-5.2 v -14.72 q 0,-3.36 1.72,-5.2 1.72,-1.84 4.96,-1.84 3.24,0 4.96,1.84 1.72,1.84 1.72,5.2 v 14.72 q 0,3.36 -1.72,5.2 -1.72,1.84 -4.96,1.84 z m 0,-4 q 2.28,0 2.28,-2.76 v -15.28 q 0,-2.76 -2.28,-2.76 -2.28,0 -2.28,2.76 v 15.28 q 0,2.76 2.28,2.76 z m 15.35999,4 q -3.2,0 -4.84,-1.8 -1.64,-1.84 -1.64,-5.24 v -1.6 h 4.16 v 1.92 q 0,2.72 2.28,2.72 1.12,0 1.68,-0.64 0.6,-0.68 0.6,-2.16 0,-1.76 -0.8,-3.08 -0.8,-1.36 -2.96,-3.24 -2.72,-2.4 -3.8,-4.32 -1.08,-1.96 -1.08,-4.4 0,-3.32 1.68,-5.12 1.68,-1.84 4.88,-1.84 3.16,0 4.76,1.84 1.64,1.8 1.64,5.2 v 1.16 h -4.16 v -1.44 q 0,-1.44 -0.56,-2.08 -0.56,-0.68 -1.64,-0.68 -2.2,0 -2.2,2.68 0,1.52 0.8,2.84 0.84,1.32 3,3.2 2.76,2.4 3.8,4.36 1.04,1.96 1.04,4.6 0,3.44 -1.72,5.28 -1.68,1.84 -4.92,1.84 z m 12.59999,-24.4 h -4.6 v -4 h 13.6 v 4 h -4.6 v 24 h -4.4 z m 16.83993,24.4 q -3.2,0 -4.84,-1.8 -1.64,-1.84 -1.64,-5.24 v -1.6 h 4.16 v 1.92 q 0,2.72 2.28,2.72 1.12,0 1.68,-0.64 0.6,-0.68 0.6,-2.16 0,-1.76 -0.8,-3.08 -0.8,-1.36 -2.96,-3.24 -2.72,-2.4 -3.8,-4.32 -1.08,-1.96 -1.08,-4.4 0,-3.32 1.68,-5.12 1.68,-1.84 4.88,-1.84 3.16,0 4.76,1.84 1.64,1.8 1.64,5.2 v 1.16 h -4.16 v -1.44 q 0,-1.44 -0.56,-2.08 -0.56,-0.68 -1.64,-0.68 -2.2,0 -2.2,2.68 0,1.52 0.8,2.84 0.84,1.32 3,3.2 2.76,2.4 3.8,4.36 1.04,1.96 1.04,4.6 0,3.44 -1.72,5.28 -1.68,1.84 -4.92,1.84 z"
       id="text206"
       aria-label="Project Costs" />
  </g>
</svg>
