<svg xmlns="http://www.w3.org/2000/svg" width="400" height="400" viewBox="0 0 512 512"><path d="M203.248 421.51V246.768c0-2.637.989-4.945 2.802-6.759l16.815-16.814c3.792-3.792 3.792-9.727 0-13.518l-16.815-16.815a9.62 9.62 0 0 1-2.802-6.759V90.49c0-10.55 8.572-19.123 19.122-19.123h67.095c10.55 0 19.122 8.572 19.122 19.123v174.742c0 2.637-.989 4.945-2.802 6.759l-16.815 16.814c-3.791 3.792-3.791 9.891 0 13.518l16.815 16.815a9.62 9.62 0 0 1 2.802 6.759v95.613c0 10.55-8.572 19.123-19.122 19.123H222.37c-10.55 0-19.122-8.572-19.122-19.123M5.427 256C5.427 394.475 117.69 506.573 256 506.573S506.573 394.475 506.573 256C506.573 117.69 394.31 5.427 256 5.427S5.427 117.69 5.427 256" style="fill:#000;fill-opacity:1;stroke-width:1.64851"/></svg>