<svg xmlns="http://www.w3.org/2000/svg" class="viz" preserveAspectRatio="xMinYMin meet" viewBox="0 0 896 230"><path stroke="currentcolor" d="M50.5 186v-5.5h826v5.5" class="domain" style="font-size:10px;font-family:sans-serif;text-anchor:middle;fill:none"/><path stroke="currentcolor" d="M82.435 180v6" style="font-size:10px;font-family:sans-serif;text-anchor:middle;fill:none"/><text x="82.435" y="189" fill="#6a737d" dy="8.52" style="font-size:10px;font-family:sans-serif;text-anchor:middle;fill:#000;fill-opacity:1">October</text><path stroke="currentcolor" d="M133.187 180v6" style="font-size:10px;font-family:sans-serif;text-anchor:middle;fill:none"/><text x="133.187" y="189" fill="#6a737d" dy="8.52" style="font-size:10px;font-family:sans-serif;text-anchor:middle;fill:#000;fill-opacity:1">2020</text><path stroke="currentcolor" d="M183.34 180v6" style="font-size:10px;font-family:sans-serif;text-anchor:middle;fill:none"/><text x="183.34" y="189" fill="#6a737d" dy="8.52" style="font-size:10px;font-family:sans-serif;text-anchor:middle;fill:#000;fill-opacity:1">April</text><path stroke="currentcolor" d="M233.52 180v6" style="font-size:10px;font-family:sans-serif;text-anchor:middle;fill:none"/><text x="233.52" y="189" fill="#6a737d" dy="8.52" style="font-size:10px;font-family:sans-serif;text-anchor:middle;fill:#000;fill-opacity:1">July</text><path stroke="currentcolor" d="M284.25 180v6" style="font-size:10px;font-family:sans-serif;text-anchor:middle;fill:none"/><text x="284.25" y="189" fill="#6a737d" dy="8.52" style="font-size:10px;font-family:sans-serif;text-anchor:middle;fill:#000;fill-opacity:1">October</text><path stroke="currentcolor" d="M335 180v6" style="font-size:10px;font-family:sans-serif;text-anchor:middle;fill:none"/><text x="335" y="189" fill="#6a737d" dy="8.52" style="font-size:10px;font-family:sans-serif;text-anchor:middle;fill:#000;fill-opacity:1">2021</text><path stroke="currentcolor" d="M384.6 180v6" style="font-size:10px;font-family:sans-serif;text-anchor:middle;fill:none"/><text x="384.6" y="189" fill="#6a737d" dy="8.52" style="font-size:10px;font-family:sans-serif;text-anchor:middle;fill:#000;fill-opacity:1">April</text><path stroke="currentcolor" d="M434.78 180v6" style="font-size:10px;font-family:sans-serif;text-anchor:middle;fill:none"/><text x="434.78" y="189" fill="#6a737d" dy="8.52" style="font-size:10px;font-family:sans-serif;text-anchor:middle;fill:#000;fill-opacity:1">July</text><path stroke="currentcolor" d="M485.51 180v6" style="font-size:10px;font-family:sans-serif;text-anchor:middle;fill:none"/><text x="485.51" y="189" fill="#6a737d" dy="8.52" style="font-size:10px;font-family:sans-serif;text-anchor:middle;fill:#000;fill-opacity:1">October</text><path stroke="currentcolor" d="M536.26 180v6" style="font-size:10px;font-family:sans-serif;text-anchor:middle;fill:none"/><text x="536.26" y="189" fill="#6a737d" dy="8.52" style="font-size:10px;font-family:sans-serif;text-anchor:middle;fill:#000;fill-opacity:1">2022</text><path stroke="currentcolor" d="M585.87 180v6" style="font-size:10px;font-family:sans-serif;text-anchor:middle;fill:none"/><text x="585.87" y="189" fill="#6a737d" dy="8.52" style="font-size:10px;font-family:sans-serif;text-anchor:middle;fill:#000;fill-opacity:1">April</text><path stroke="currentcolor" d="M636.04 180v6" style="font-size:10px;font-family:sans-serif;text-anchor:middle;fill:none"/><text x="636.04" y="189" fill="#6a737d" dy="8.52" style="font-size:10px;font-family:sans-serif;text-anchor:middle;fill:#000;fill-opacity:1">July</text><path stroke="currentcolor" d="M686.77 180v6" style="font-size:10px;font-family:sans-serif;text-anchor:middle;fill:none"/><text x="686.77" y="189" fill="#6a737d" dy="8.52" style="font-size:10px;font-family:sans-serif;text-anchor:middle;fill:#000;fill-opacity:1">October</text><path stroke="currentcolor" d="M737.52 180v6" style="font-size:10px;font-family:sans-serif;text-anchor:middle;fill:none"/><text x="737.52" y="189" fill="#6a737d" dy="8.52" style="font-size:10px;font-family:sans-serif;text-anchor:middle;fill:#000;fill-opacity:1">2023</text><path stroke="currentcolor" d="M787.13 180v6" style="font-size:10px;font-family:sans-serif;text-anchor:middle;fill:none"/><text x="787.13" y="189" fill="#6a737d" dy="8.52" style="font-size:10px;font-family:sans-serif;text-anchor:middle;fill:#000;fill-opacity:1">April</text><path stroke="currentcolor" d="M837.3 180v6" style="font-size:10px;font-family:sans-serif;text-anchor:middle;fill:none"/><text x="837.3" y="189" fill="#6a737d" dy="8.52" style="font-size:10px;font-family:sans-serif;text-anchor:middle;fill:#000;fill-opacity:1">July</text><path stroke="currentcolor" d="M50 180.5h826" style="font-size:10px;font-family:sans-serif;text-anchor:end;fill:none"/><text x="40" y="180.5" fill="#6a737d" dy="3.84" style="font-size:10px;font-family:sans-serif;text-anchor:end;fill:#000;fill-opacity:1">0</text><text x="40" y="154.05" fill="#6a737d" dy="3.84" style="font-size:10px;font-family:sans-serif;text-anchor:end;fill:#000;fill-opacity:1">20</text><text x="40" y="127.61" fill="#6a737d" dy="3.84" style="font-size:10px;font-family:sans-serif;text-anchor:end;fill:#000;fill-opacity:1">40</text><text x="40" y="101.161" fill="#6a737d" dy="3.84" style="font-size:10px;font-family:sans-serif;text-anchor:end;fill:#000;fill-opacity:1">60</text><text x="40" y="74.715" fill="#6a737d" dy="3.84" style="font-size:10px;font-family:sans-serif;text-anchor:end;fill:#000;fill-opacity:1">80</text><text x="40" y="48.269" fill="#6a737d" dy="3.84" style="font-size:10px;font-family:sans-serif;text-anchor:end;fill:#000;fill-opacity:1">100</text><text x="40" y="21.822" fill="#6a737d" dy="3.84" style="font-size:10px;font-family:sans-serif;text-anchor:end;fill:#000;fill-opacity:1">120</text><path d="m50 172.07.643-11.901c.644-11.901 1.93-35.702 3.217-39.008 1.286-3.306 2.573 13.884 3.86 23.361s2.573 11.24 3.86 12.342 2.573 1.543 3.86-3.747c1.286-5.289 2.572-16.309 3.859-25.124s2.573-15.427 3.86-13.223 2.573 13.223 3.86 16.97 2.573.22 3.86 1.543 2.573 7.493 3.86-10.579 2.572-60.386 3.859-64.353 2.573 30.413 3.86 38.347 2.573-10.579 3.86-7.934 2.573 26.446 3.86 28.43 2.573-17.85 3.86-17.85 2.572 19.834 3.859 31.514 2.573 15.207 3.86 20.716 2.573 13.003 3.86 14.766 2.573-2.204 3.86-3.526 2.573 0 3.86 2.424 2.572 5.95 3.859 8.375 2.573 3.746 3.86 3.526 2.573-1.983 3.86-8.154 2.573-16.75 3.86-16.53c1.286.221 2.573 11.24 3.86 16.31s2.572 4.187 3.859 3.085 2.573-2.424 3.86-1.322 2.573 4.628 3.86 5.069 2.573-2.204 3.86-1.984 2.573 3.306 3.86 2.645 2.572-5.069 3.859-5.95 2.573 1.763 3.86.881 2.573-5.29 3.86-5.069c1.286.22 2.573 5.069 3.86 7.714 1.286 2.644 2.573 3.085 3.86 3.305s2.572.22 3.859.441c1.287.22 2.573.661 3.86-1.763s2.573-7.713 3.86-11.019 2.573-4.628 3.86-3.306 2.573 5.29 3.86 7.934 2.572 3.967 3.859 4.408c1.287.44 2.573 0 3.86.661s2.573 2.424 3.86 1.763 2.573-3.746 3.86-4.628c1.286-.881 2.573.44 3.86.661 1.286.22 2.572-.66 3.859-1.102 1.287-.44 2.573-.44 3.86 1.102s2.573 4.628 3.86 6.171 2.573 1.543 3.86 1.102 2.573-1.322 3.86-2.424 2.572-2.424 3.859-2.424 2.573 1.322 3.86 1.983 2.573.661 3.86.882 2.573.66 3.86 0c1.286-.662 2.573-2.425 3.86-2.425s2.572 1.763 3.859 2.645 2.573.882 3.86.882 2.573 0 3.86-1.323 2.573-3.967 3.86-3.967 2.573 2.645 3.86 3.967 2.572 1.323 3.859 1.543 2.573.661 3.86.44c1.286-.22 2.573-1.101 3.86-1.322 1.286-.22 2.573.22 3.86.441 1.286.22 2.573.22 3.86-.22 1.286-.441 2.572-1.323 3.859-1.323s2.573.882 3.86 1.543q1.93.992 3.86 1.322c1.286.22 2.573.22 3.86-1.101 1.286-1.323 2.573-3.967 3.86-4.629 1.286-.66 2.572.662 3.859 1.984s2.573 2.645 3.86 2.865 2.573-.661 3.86-1.102a5.8 5.8 0 0 1 3.86 0c1.286.44 2.573 1.322 3.86.22 1.286-1.101 2.572-4.187 3.859-4.187s2.573 3.086 3.86 4.628 2.573 1.543 3.86 1.543h3.86c1.286 0 2.573 0 3.86-.22s2.572-.662 3.859-.662 2.573.441 3.86.441 2.573-.44 3.86-.44 2.573.44 3.86.66 2.573.22 3.86.22h81.054c1.287 0 2.573 0 3.86-.44s2.573-1.322 3.86-1.322 2.573.881 3.86 1.322c1.286.44 2.573.44 3.86.44s2.572 0 3.859-.44 2.573-1.322 3.86-1.322 2.573.881 3.86 1.322c1.286.44 2.573.44 3.86.44h77.196c1.286 0 2.573 0 3.86-2.644s2.572-7.934 3.859-8.374 2.573 3.967 3.86 6.611 2.573 3.526 3.86 3.967c1.286.44 2.573.44 3.86.44h3.86c1.286 0 2.572 0 3.859-.22s2.573-.66 3.86-.881a11.4 11.4 0 0 1 3.86 0c1.286.22 2.573.661 3.86.882s2.573.22 3.86.22h3.859c1.287 0 2.573 0 3.86-2.204s2.573-6.612 3.86-6.612 2.573 4.408 3.86 5.73 2.573-.44 3.86-1.101c1.286-.662 2.572-.22 3.859.44s2.573 1.543 3.86 2.204q1.93.992 3.86 1.322c1.286.22 2.573.22 3.86.22h7.719c1.287 0 2.573 0 3.86-.22q1.93-.33 3.86-1.322c1.286-.661 2.573-1.543 3.86-1.322s2.573 1.543 3.86 2.204c1.286.66 2.572.66 3.859.66h38.598c1.287 0 2.573 0 3.86-.22s2.573-.66 3.86-.66 2.573.44 3.86.66 2.573.22 3.86.22h73.336c1.286 0 2.573 0 3.86-.66 1.286-.661 2.572-1.984 3.859-1.984s2.573 1.323 3.86 1.984c1.286.66 2.573.66 3.86.66h65.616H50z" class="area"/><g fill="none" class="selection"><path d="M50 20h826v160H50z" class="overlay"/></g></svg>