<?xml version="1.0" encoding="UTF-8"?>
<svg enable-background="new 0 0 100 100" version="1.1" viewBox="0 0 90 90" xml:space="preserve" xmlns="http://www.w3.org/2000/svg"><g transform="translate(-5,-5)"><path d="m95 23.3-1.03-0.341-49.4-18-21.2 7.7-18.3 50.2-0.093 0.253v13.6l50.5 18.3 39.5-14.4v-56.2zm-6.01 1.1-15.5 5.63-44.4-16.1 15.5-5.64zm-63.5-8.54 46 16.7-17 46.6-46-16.7zm-17.4 49.7 45.9 16.6v8.98l-45.9-16.6z"/><polygon points="44.6 10.5 82.6 24.4 79.1 25.7 41 11.8"/><path d="m14.6 72.4c0 1.15-0.748 1.81-1.67 1.48-0.922-0.335-1.67-1.54-1.67-2.69s0.747-1.81 1.67-1.48 1.67 1.54 1.67 2.69z"/><path d="m21.1 74.8c0 1.15-0.747 1.81-1.67 1.48s-1.67-1.54-1.67-2.69 0.747-1.81 1.67-1.48 1.67 1.54 1.67 2.69z"/><path d="m27.5 77.1c0 1.15-0.747 1.81-1.67 1.48-0.922-0.334-1.67-1.54-1.67-2.69 0-1.15 0.747-1.81 1.67-1.48 0.922 0.334 1.67 1.54 1.67 2.69z"/><path d="m33.9 79.4c0 1.15-0.748 1.81-1.67 1.48-0.922-0.335-1.67-1.54-1.67-2.69s0.748-1.81 1.67-1.48c0.921 0.336 1.67 1.54 1.67 2.69z"/><path d="m40.4 81.8c0 1.15-0.747 1.81-1.67 1.48s-1.67-1.54-1.67-2.69 0.747-1.81 1.67-1.48 1.67 1.54 1.67 2.69z"/><path d="m46.8 84.2c0 1.15-0.747 1.81-1.67 1.48-0.922-0.334-1.67-1.54-1.67-2.69s0.747-1.81 1.67-1.48c0.921 0.336 1.67 1.54 1.67 2.69z"/><path d="m59.2 47.7c0.599-2.63 1.59-6.98 0.479-7.63-0.257 0.124-1.14 0.752-2.88 3.86-1.39 2.48-2.9 5.8-4.37 9-3.85 8.4-6.72 14.7-10 14.7-0.316 0-0.637-0.058-0.962-0.176-3.73-1.36-1.78-8.4 0.916-18.2 0.935-3.38 1.9-6.88 2.44-9.66 0.577-3 0.454-4.2 0.335-4.64-0.374 0.255-1.24 1.08-2.74 3.77-1.39 2.48-2.91 5.79-4.37 8.99-3.84 8.38-6.71 14.6-10 14.6-0.317 0-0.638-0.058-0.965-0.177-3.73-1.35-1.78-8.4 0.916-18.2 0.936-3.38 1.9-6.88 2.44-9.66 0.666-3.46 0.399-4.52 0.283-4.79-1.2-0.174-3.12 3.26-4.4 5.56-2.12 3.8-4.52 8.11-8.08 6.93-6.95 19.1-6.23 19.4 14.1 26.8 20.3 7.38 21 7.63 28-11.5-3.02-1.17-2.08-5.31-1.08-9.69z"/><path d="m23.6 33.6c2.14-3.84 4.57-8.2 8.2-6.94 3.77 1.31 1.82 8.36-0.882 18.1-0.938 3.39-1.91 6.9-2.44 9.69-0.579 3.02-0.453 4.21-0.332 4.65 0.373-0.257 1.24-1.09 2.73-3.76 1.38-2.48 2.9-5.78 4.36-8.97 4.62-10.1 7.41-15.7 11-14.5 3.77 1.31 1.82 8.36-0.882 18.1-0.938 3.39-1.91 6.9-2.44 9.69-0.578 3.01-0.453 4.21-0.333 4.65 0.375-0.26 1.24-1.1 2.74-3.78 1.39-2.48 2.9-5.8 4.37-9 4.22-9.21 7.26-15.9 11-14.5 3.8 1.38 2.61 6.61 1.56 11.2-0.412 1.81-1.16 5.08-0.826 6.04 7.48-20.5 7.22-20.6-13.6-28.2-20.8-7.56-21.1-7.64-28.6 12.9 1.19 0.146 3.08-3.26 4.35-5.53z"/></g></svg>
