<?xml version="1.0" encoding="UTF-8" standalone="no"?>
<!-- Created with Inkscape (http://www.inkscape.org/) -->

<svg
   width="899.99957mm"
   height="473.68399mm"
   viewBox="0 0 899.99957 473.68399"
   version="1.1"
   id="svg1"
   inkscape:version="1.3 (0e150ed, 2023-07-21)"
   sodipodi:docname="hero.svg"
   xmlns:inkscape="http://www.inkscape.org/namespaces/inkscape"
   xmlns:sodipodi="http://sodipodi.sourceforge.net/DTD/sodipodi-0.dtd"
   xmlns="http://www.w3.org/2000/svg"
   xmlns:svg="http://www.w3.org/2000/svg">
  <sodipodi:namedview
     id="namedview1"
     pagecolor="#ffd346"
     bordercolor="#666666"
     borderopacity="1.0"
     inkscape:showpageshadow="2"
     inkscape:pageopacity="0.0"
     inkscape:pagecheckerboard="0"
     inkscape:deskcolor="#d1d1d1"
     inkscape:document-units="mm"
     inkscape:zoom="0.12398266"
     inkscape:cx="-697.6782"
     inkscape:cy="-32.262576"
     inkscape:window-width="1920"
     inkscape:window-height="1027"
     inkscape:window-x="0"
     inkscape:window-y="25"
     inkscape:window-maximized="0"
     inkscape:current-layer="layer1" />
  <defs
     id="defs1" />
  <g
     inkscape:label="Layer 1"
     inkscape:groupmode="layer"
     id="layer1"
     transform="translate(-205.35547,-104.09502)">
    <rect
       style="fill:#ffffff;fill-opacity:0.50081038;stroke:#000000;stroke-width:6;stroke-linecap:square;stroke-miterlimit:1000;paint-order:fill markers stroke;stroke-dasharray:none"
       id="rect6"
       width="243.6785"
       height="65.541115"
       x="283.21606"
       y="165.88481" />
    <path
       d="m 548.76426,216.67815 q -0.84863,0 -1.74439,-0.28287 -0.84863,-0.23575 -1.46153,-0.84863 -0.61289,-0.6129 -0.89577,-1.46152 -0.23574,-0.84863 -0.23574,-1.7444 0,-0.84862 0.23574,-1.69725 0.28288,-0.89577 0.89577,-1.50867 0.6129,-0.6129 1.46153,-0.84863 0.89576,-0.28287 1.74439,-0.28287 0.84863,0 1.69726,0.28287 0.89576,0.23575 1.50866,0.84863 0.6129,0.6129 0.84863,1.50867 0.28288,0.84863 0.28288,1.69725 0,0.89577 -0.28288,1.7444 -0.23575,0.84862 -0.84863,1.46152 -0.6129,0.61289 -1.50866,0.84863 -0.84863,0.28287 -1.69726,0.28287 z m 15.32232,-0.37718 v -4.14884 h 6.22326 v -16.68964 h -5.56322 v -4.14884 h 10.27781 v 20.83848 h 5.56321 v 4.14884 z m 8.25053,-28.75899 q -0.70719,0 -1.41437,-0.18857 -0.70719,-0.23574 -1.2258,-0.70718 -0.47145,-0.51861 -0.70719,-1.2258 -0.18857,-0.70719 -0.18857,-1.41437 0,-0.70719 0.18857,-1.41438 0.23575,-0.70719 0.70719,-1.17865 0.51861,-0.5186 1.2258,-0.70719 0.70718,-0.23574 1.41437,-0.23574 0.70719,0 1.41438,0.23574 0.70719,0.18857 1.17865,0.70719 0.5186,0.47146 0.70719,1.17865 0.23574,0.70719 0.23574,1.41438 0,0.70718 -0.23574,1.41437 -0.18857,0.70719 -0.70719,1.2258 -0.47146,0.47145 -1.17865,0.70718 -0.70719,0.18857 -1.41438,0.18857 z m 26.63734,29.13616 q -1.17865,0 -2.3573,-0.28288 -1.1315,-0.28287 -2.07442,-0.94292 -0.94291,-0.70719 -1.6501,-1.69725 -0.66005,-0.99006 -1.03721,-2.07442 -0.37718,-1.1315 -0.51861,-2.31015 -0.14144,-1.17864 -0.14144,-2.35729 v -11.55074 h -4.76173 v -4.14884 h 4.76173 v -9.6649 h 4.71459 v 9.6649 h 7.02474 v 4.14884 h -7.02474 v 11.55074 q 0,0.56575 0.0471,1.17865 0.0471,0.56575 0.14144,1.17864 0.14144,0.56576 0.33001,1.13151 0.18857,0.5186 0.5186,0.99006 0.37718,0.47146 0.89577,0.75433 0.56575,0.28288 1.13151,0.28288 0.5186,0 0.99006,-0.18857 0.5186,-0.18857 0.84863,-0.5186 0.37718,-0.37719 0.61289,-0.84863 0.23574,-0.47146 0.33001,-0.94292 0.14143,-0.5186 0.18856,-1.03721 0.0943,-0.5186 0.0943,-1.03721 0,-0.0471 0,-0.0943 0,-0.0943 0,-0.14143 h 4.71459 q 0,0.14143 0,0.28287 0,0.0943 0,0.18857 0,1.08436 -0.18857,2.16871 -0.18857,1.08435 -0.66004,2.07442 -0.42432,0.99006 -1.1315,1.83869 -0.70719,0.84863 -1.65011,1.41437 -0.89577,0.56576 -1.98012,0.75434 -1.08436,0.23574 -2.16871,0.23574 z m 20.60264,0 q -1.27294,0 -2.59301,-0.23575 -1.27294,-0.23574 -2.40444,-0.84862 -1.1315,-0.6129 -2.02727,-1.55581 -0.89577,-0.99007 -1.46152,-2.12157 -0.51861,-1.17865 -0.75434,-2.45158 -0.18857,-1.32009 -0.18857,-2.59303 v -6.12897 q 0,-1.27293 0.18857,-2.54587 0.23575,-1.27294 0.75434,-2.45159 0.56575,-1.17864 1.41437,-2.12156 0.89578,-0.99006 2.02728,-1.60296 1.1315,-0.6129 2.40444,-0.84863 1.27295,-0.23574 2.54589,-0.23574 1.27294,0 2.54584,0.23574 1.27295,0.23575 2.40445,0.84863 1.1315,0.6129 1.98013,1.60296 0.89576,0.94292 1.41438,2.12156 0.56576,1.17865 0.75433,2.45159 0.23565,1.27294 0.23565,2.54587 v 5.13891 h -13.90804 v 0.99006 q 0,1.03721 0.18857,2.07442 0.23575,1.03721 0.84863,1.88583 0.6129,0.84863 1.60296,1.27295 0.99008,0.42431 2.02727,0.42431 0.75437,0 1.50869,-0.14144 0.75432,-0.18857 1.36721,-0.6129 0.66006,-0.42431 1.03724,-1.08435 0.42454,-0.70719 0.47145,-1.46152 h 4.76171 q -0.0944,1.08435 -0.47144,2.16871 -0.3301,1.03721 -0.94294,1.93298 -0.61288,0.89577 -1.50864,1.55581 -0.89576,0.66005 -1.933,1.08436 -0.99007,0.42431 -2.12157,0.56575 -1.08433,0.14144 -2.16871,0.14144 z m -4.66743,-14.94525 h 9.14632 v -0.99006 q 0,-1.03721 -0.23565,-2.02728 -0.18844,-1.0372 -0.8015,-1.88583 -0.56575,-0.84862 -1.55582,-1.27294 -0.94289,-0.47146 -1.98009,-0.47146 -1.03724,0 -2.02729,0.47146 -0.94292,0.42432 -1.55582,1.27294 -0.56574,0.84863 -0.80147,1.88583 -0.18857,0.99007 -0.18857,2.02728 z m 21.96988,14.56808 v -24.98732 h 4.76176 v 5.56322 q 0.28288,-1.08436 0.70719,-2.12157 0.42454,-1.03721 1.13151,-1.88583 0.70719,-0.89577 1.74439,-1.41438 1.03719,-0.5186 2.1687,-0.5186 0.84863,0 1.69726,0.28287 0.89575,0.23575 1.55581,0.84863 0.66002,0.56575 1.08433,1.36723 0.42454,0.80148 0.61293,1.6501 0.23566,0.84863 0.3301,1.7444 0.0944,0.84863 0.0944,1.7444 h -4.76177 q 0,-0.6129 -0.0944,-1.17865 -0.0472,-0.6129 -0.33009,-1.1315 -0.28288,-0.56575 -0.84863,-0.84863 -0.51858,-0.33 -1.08433,-0.33 -0.84863,0 -1.55582,0.47145 -0.70719,0.42432 -1.17864,1.13151 -0.42453,0.70719 -0.66005,1.50866 -0.23566,0.80148 -0.37732,1.60296 -0.14166,0.80148 -0.18844,1.65011 -0.0472,0.80148 -0.0472,1.60296 v 13.24799 z m 36.91516,7.59048 q -2.07444,-1.08435 -3.91313,-2.64016 -1.79152,-1.50867 -3.25304,-3.34736 -1.41438,-1.83869 -2.49875,-3.96026 -1.0372,-2.12156 -1.69726,-4.38456 -0.61288,-2.263 -0.89576,-4.57315 -0.28287,-2.3573 -0.28287,-4.71459 0,-2.35729 0.28287,-4.66744 0.28288,-2.35729 0.89576,-4.6203 0.66006,-2.263 1.69726,-4.38457 1.08437,-2.12156 2.49875,-3.96025 1.46152,-1.83869 3.25304,-3.34736 1.83869,-1.55581 3.91313,-2.64017 l 2.26301,3.63024 q -2.54588,1.46152 -4.57315,3.67738 -1.98013,2.21585 -3.25308,4.90317 -1.22581,2.64017 -1.74438,5.56321 -0.47149,2.92305 -0.47149,5.84609 0,2.92305 0.47149,5.84609 0.51857,2.92304 1.74438,5.61036 1.27295,2.64017 3.25308,4.85603 2.02727,2.21585 4.57315,3.67737 z m 9.24047,0 -2.26296,-3.63023 q 2.54584,-1.46152 4.52597,-3.67737 2.02727,-2.21586 3.25308,-4.85603 1.27294,-2.68732 1.74439,-5.61036 0.51862,-2.92304 0.51862,-5.84609 0,-2.92304 -0.51862,-5.84609 -0.47145,-2.92304 -1.74439,-5.56321 -1.22581,-2.68732 -3.25308,-4.90317 -1.98013,-2.21586 -4.52597,-3.67738 l 2.26296,-3.63024 q 2.07445,1.08436 3.86596,2.64017 1.8387,1.50867 3.25308,3.34736 1.46151,1.83869 2.49876,3.96025 1.08432,2.12157 1.69725,4.38457 0.66002,2.26301 0.94289,4.6203 0.28288,2.31015 0.28288,4.66744 0,2.35729 -0.28288,4.71459 -0.28287,2.31015 -0.94289,4.57315 -0.61293,2.263 -1.69725,4.38456 -1.03725,2.12157 -2.49876,3.96026 -1.41438,1.83869 -3.25308,3.34736 -1.79151,1.55581 -3.86596,2.64016 z"
       id="text7"
       style="font-weight:600;font-size:10.5833px;line-height:1.25;font-family:Iosevka;-inkscape-font-specification:'Iosevka, Semi-Bold';stroke-width:1.17865"
       aria-label=".iter()" />
    <path
       style="font-weight:600;font-size:10.5833px;line-height:1.25;font-family:Iosevka;-inkscape-font-specification:'Iosevka, Semi-Bold';stroke-width:1.17865"
       d="m 553.80589,309.10801 q -0.84862,0 -1.7444,-0.28288 -0.84862,-0.23566 -1.46152,-0.84863 -0.61289,-0.61288 -0.89577,-1.46151 -0.23574,-0.84863 -0.23574,-1.74439 0,-0.84863 0.23574,-1.69726 0.28288,-0.89576 0.89577,-1.50868 0.6129,-0.61289 1.46152,-0.84859 0.89578,-0.28287 1.7444,-0.28287 0.84863,0 1.69725,0.28287 0.89578,0.23566 1.50867,0.84859 0.6129,0.61292 0.84863,1.50868 0.28287,0.84863 0.28287,1.69726 0,0.89576 -0.28287,1.74439 -0.23575,0.84863 -0.84863,1.46151 -0.61289,0.61293 -1.50867,0.84863 -0.84862,0.28288 -1.69725,0.28288 z m 19.70689,-0.37732 v -19.61272 h -5.09175 v -4.14883 h 5.09175 v -3.34734 q 0,-0.99007 0.0943,-1.98014 0.14143,-0.99006 0.5186,-1.88582 0.37718,-0.94294 0.99007,-1.74439 0.61289,-0.8015 1.46152,-1.32012 0.84862,-0.56575 1.79154,-0.75432 0.99007,-0.23566 1.98013,-0.23566 1.36723,0 2.68731,0.42409 1.36723,0.42454 2.31015,1.41439 0.94292,0.99006 1.36723,2.31014 0.47146,1.32011 0.47146,2.68732 0,0.14166 0,0.23566 0,0.0944 0,0.18843 h -4.76173 q 0,-0.0472 0,-0.0944 0,-0.0472 0,-0.0944 0,-0.47145 -0.0943,-0.99007 -0.0943,-0.51862 -0.33001,-0.94293 -0.23574,-0.47145 -0.70718,-0.70719 -0.42432,-0.28288 -0.94292,-0.28288 -0.56575,0 -1.03721,0.42409 -0.47146,0.42454 -0.70719,0.99007 -0.23574,0.56575 -0.33001,1.17868 -0.0471,0.56575 -0.0471,1.17864 v 3.34733 h 7.21332 v 4.14884 h -7.21336 v 19.61272 z m 19.18828,0 v -4.14884 h 6.22326 V 287.8922 h -5.56321 v -4.14883 h 10.2778 v 20.83848 h 5.56321 v 4.14884 z m 8.25053,-28.75902 q -0.70719,0 -1.41437,-0.18843 -0.70719,-0.23566 -1.2258,-0.7072 -0.47145,-0.51862 -0.70718,-1.22581 -0.18857,-0.70714 -0.18857,-1.41433 0,-0.70719 0.18857,-1.41438 0.23574,-0.70719 0.70718,-1.17868 0.51861,-0.51858 1.2258,-0.7072 0.70718,-0.23565 1.41437,-0.23565 0.70719,0 1.41438,0.23565 0.70719,0.18844 1.17865,0.7072 0.5186,0.47149 0.70719,1.17868 0.23574,0.70719 0.23574,1.41438 0,0.70719 -0.23574,1.41433 -0.18857,0.70719 -0.70719,1.22581 -0.47146,0.47145 -1.17865,0.7072 -0.70719,0.18843 -1.41438,0.18843 z m 15.32232,28.75902 v -4.14884 h 6.22327 v -26.35457 h -5.56322 v -4.14883 h 10.27781 v 30.5034 h 5.56321 v 4.14884 z m 34.88785,0.37732 q -1.17864,0 -2.35728,-0.28288 -1.1315,-0.28288 -2.07444,-0.94289 -0.94289,-0.70719 -1.65008,-1.69726 -0.66006,-0.99006 -1.0372,-2.07444 -0.37731,-1.1315 -0.51862,-2.31014 -0.14166,-1.17863 -0.14166,-2.35727 v -11.55075 h -4.76172 v -4.14883 h 4.76172 v -9.66493 h 4.71459 v 9.66493 h 7.02473 v 4.14883 h -7.02473 v 11.55075 q 0,0.56575 0.0472,1.17864 0.0472,0.56575 0.14122,1.17863 0.14166,0.56575 0.33009,1.13151 0.18844,0.51862 0.51858,0.99006 0.37732,0.47145 0.8958,0.75432 0.56576,0.28288 1.13146,0.28288 0.51863,0 0.99007,-0.18843 0.51862,-0.18844 0.84863,-0.51863 0.37732,-0.37731 0.61293,-0.84862 0.23565,-0.47145 0.33009,-0.9429 0.14122,-0.51862 0.18844,-1.03724 0.0944,-0.51857 0.0944,-1.0372 0,-0.0472 0,-0.0944 0,-0.0944 0,-0.14121 h 4.71459 q 0,0.14121 0,0.28287 0,0.0944 0,0.18844 0,1.08433 -0.18844,2.1687 -0.18843,1.08438 -0.66006,2.07444 -0.42409,0.99002 -1.1315,1.83865 -0.70719,0.84863 -1.65008,1.41438 -0.89581,0.56576 -1.98014,0.75437 -1.08437,0.23566 -2.16874,0.23566 z m 20.60269,0 q -1.27294,0 -2.59301,-0.23566 -1.27295,-0.23566 -2.40445,-0.84863 -1.13151,-0.61293 -2.02727,-1.55582 -0.8958,-0.99006 -1.46155,-2.12157 -0.51858,-1.17863 -0.75432,-2.45158 -0.18844,-1.32007 -0.18844,-2.59301 v -6.12897 q 0,-1.27295 0.18844,-2.54589 0.23565,-1.27294 0.75432,-2.45158 0.56575,-1.17863 1.41438,-2.12157 0.89576,-0.99007 2.02726,-1.60295 1.13151,-0.61293 2.40445,-0.84863 1.27294,-0.23565 2.54589,-0.23565 1.27294,0 2.54588,0.23565 1.27294,0.23566 2.40445,0.84863 1.1315,0.61288 1.98013,1.60295 0.89576,0.94294 1.41434,2.12157 0.56575,1.17864 0.75436,2.45158 0.23566,1.27294 0.23566,2.54589 v 5.1389 h -13.90802 v 0.99007 q 0,1.03719 0.18844,2.07439 0.23565,1.0372 0.84863,1.88583 0.61292,0.84863 1.60295,1.27294 0.99006,0.42409 2.0273,0.42409 0.75433,0 1.50865,-0.14166 0.75436,-0.18843 1.36725,-0.61288 0.66001,-0.42409 1.03719,-1.08438 0.4241,-0.70719 0.47145,-1.46151 h 4.76176 q -0.0944,1.08438 -0.47149,2.1687 -0.33009,1.03725 -0.94289,1.93301 -0.61288,0.89576 -1.50868,1.55582 -0.89576,0.66001 -1.93296,1.08433 -0.99007,0.42409 -2.12157,0.56575 -1.08438,0.14166 -2.16871,0.14166 z M 667.097,294.16279 h 9.1463 v -0.99007 q 0,-1.03724 -0.23566,-2.02726 -0.18844,-1.03724 -0.80145,-1.88587 -0.56576,-0.84863 -1.55582,-1.27295 -0.94294,-0.47144 -1.98014,-0.47144 -1.03719,0 -2.02726,0.47144 -0.94294,0.4241 -1.55582,1.27295 -0.56575,0.84863 -0.8015,1.88587 -0.18843,0.99002 -0.18843,2.02726 z m 21.9699,14.56808 v -24.98732 h 4.76172 v 5.56321 q 0.28287,-1.08437 0.70719,-2.12157 0.42453,-1.0372 1.1315,-1.88582 0.70719,-0.89581 1.74439,-1.41439 1.0372,-0.51862 2.1687,-0.51862 0.84863,0 1.69726,0.28288 0.8958,0.23566 1.55582,0.84863 0.66006,0.56575 1.08437,1.36725 0.42409,0.80145 0.61289,1.65008 0.23565,0.84863 0.33009,1.74439 0.0944,0.84863 0.0944,1.74443 h -4.76172 q 0,-0.61293 -0.0944,-1.17868 -0.0472,-0.61288 -0.33009,-1.13151 -0.28288,-0.56575 -0.84863,-0.84862 -0.51862,-0.3301 -1.08438,-0.3301 -0.84862,0 -1.55582,0.47145 -0.70719,0.42409 -1.17863,1.1315 -0.42409,0.70719 -0.66006,1.50869 -0.23566,0.8015 -0.37732,1.60295 -0.14166,0.8015 -0.18843,1.65012 -0.0472,0.80146 -0.0472,1.60295 v 13.24801 z m 36.91512,7.59048 q -2.0744,-1.08437 -3.9131,-2.64019 -1.79156,-1.50865 -3.25307,-3.34734 -1.41438,-1.8387 -2.49876,-3.96027 -1.03719,-2.12157 -1.69721,-4.38458 -0.61293,-2.26296 -0.8958,-4.57315 -0.28288,-2.35727 -0.28288,-4.71459 0,-2.35727 0.28288,-4.66741 0.28287,-2.35732 0.8958,-4.62033 0.66002,-2.26296 1.69721,-4.38453 1.08438,-2.12157 2.49876,-3.96027 1.46151,-1.83869 3.25307,-3.34734 1.8387,-1.55582 3.9131,-2.64019 l 2.26301,3.63026 q -2.54589,1.46151 -4.57315,3.67735 -1.98014,2.21587 -3.25308,4.9032 -1.22577,2.64015 -1.74439,5.56321 -0.47144,2.92303 -0.47144,5.84605 0,2.92307 0.47144,5.8461 0.51862,2.92306 1.74439,5.61039 1.27294,2.64015 3.25308,4.85602 2.02726,2.21584 4.57315,3.67735 z m 174.25048,0 -2.26301,-3.63026 q 2.54588,-1.46151 4.52602,-3.67735 2.02726,-2.21587 3.25307,-4.85602 1.27294,-2.68733 1.74439,-5.61039 0.51858,-2.92303 0.51858,-5.8461 0,-2.92302 -0.51858,-5.84605 -0.47145,-2.92306 -1.74439,-5.56321 -1.22581,-2.68733 -3.25307,-4.9032 -1.98014,-2.21584 -4.52602,-3.67735 l 2.26301,-3.63026 q 2.07444,1.08437 3.86596,2.64019 1.83869,1.50865 3.25307,3.34734 1.46151,1.8387 2.49871,3.96027 1.08437,2.12157 1.69726,4.38453 0.66006,2.26301 0.94293,4.62033 0.28288,2.31014 0.28288,4.66741 0,2.35732 -0.28288,4.71459 -0.28287,2.31019 -0.94293,4.57315 -0.61289,2.26301 -1.69726,4.38458 -1.0372,2.12157 -2.49871,3.96027 -1.41438,1.83869 -3.25307,3.34734 -1.79152,1.55582 -3.86596,2.64019 z"
       id="text8"
       aria-label=".filter(       )" />
    <path
       d="m 552.12544,398.17667 q -0.84863,0 -1.7444,-0.28287 -0.84862,-0.23566 -1.46152,-0.84863 -0.6129,-0.61289 -0.89577,-1.46151 -0.23575,-0.84863 -0.23575,-1.74439 0,-0.84863 0.23575,-1.69726 0.28287,-0.89576 0.89577,-1.50869 0.6129,-0.61288 1.46152,-0.84863 0.89577,-0.28287 1.7444,-0.28287 0.84863,0 1.69725,0.28287 0.89577,0.23566 1.50867,0.84863 0.6129,0.61293 0.84862,1.50869 0.28288,0.84863 0.28288,1.69726 0,0.89576 -0.28288,1.74439 -0.23574,0.84862 -0.84862,1.46151 -0.6129,0.61288 -1.50867,0.84863 -0.84862,0.28287 -1.69725,0.28287 z m 13.67221,-0.37731 v -24.98728 h 4.19599 v 2.1687 q 0.23574,-0.51862 0.56575,-0.99007 0.33001,-0.51862 0.75433,-0.84862 0.47146,-0.37732 1.03721,-0.51863 0.56576,-0.18843 1.17865,-0.18843 0,0 0,0 0,0 0,0 0.70719,0 1.36723,0.28288 0.70719,0.23565 1.22579,0.75432 0.51861,0.51862 0.80148,1.17863 0.33001,0.66006 0.51861,1.36725 0.18857,-0.70719 0.47146,-1.36725 0.33,-0.66001 0.80147,-1.17863 0.51861,-0.51858 1.17865,-0.75432 0.70719,-0.28288 1.41438,-0.28288 0,0 0,0 0,0 0,0 0.75434,0 1.46152,0.28288 0.70719,0.28287 1.17865,0.84862 0.5186,0.51858 0.80148,1.22577 0.33001,0.66006 0.5186,1.36725 0.18857,0.70719 0.23575,1.46151 0.0943,0.70719 0.0943,1.46151 v 18.71692 h -4.19599 v -18.71692 q 0,-0.47144 -0.0943,-0.94289 -0.0471,-0.51862 -0.23574,-0.94293 -0.18857,-0.47145 -0.6129,-0.75432 -0.37718,-0.3301 -0.84862,-0.3301 -0.51861,0 -0.94292,0.3301 -0.37718,0.28287 -0.56575,0.75432 -0.18857,0.42409 -0.28287,0.94293 -0.0471,0.47145 -0.0471,0.94289 v 18.71692 h -4.14884 v -18.71692 q 0,-0.47144 -0.0943,-0.94289 -0.0471,-0.51862 -0.23574,-0.94293 -0.18857,-0.47145 -0.6129,-0.75432 -0.37718,-0.3301 -0.89577,-0.3301 -0.47146,0 -0.89577,0.3301 -0.37718,0.28287 -0.56575,0.75432 -0.18857,0.42409 -0.28288,0.94293 -0.0471,0.47145 -0.0471,0.94289 v 18.71692 z m 30.78618,0.37731 q -0.94292,0 -1.88584,-0.18843 -0.89577,-0.14166 -1.69725,-0.61293 -0.80148,-0.51858 -1.41438,-1.22577 -0.56575,-0.70719 -0.94292,-1.55582 -0.37718,-0.89576 -0.56574,-1.79156 -0.14144,-0.94289 -0.14144,-1.83865 0,-1.27294 0.28287,-2.49876 0.33001,-1.22581 1.03722,-2.21583 0.75433,-0.99007 1.79154,-1.65013 1.08435,-0.70719 2.21586,-1.08437 1.17864,-0.42454 2.40444,-0.56575 1.27293,-0.14166 2.49873,-0.14166 h 3.30021 v -2.16871 q 0,-0.84862 -0.28288,-1.65008 -0.23574,-0.80149 -0.89577,-1.36725 -0.6129,-0.56575 -1.46152,-0.80145 -0.80148,-0.23565 -1.60296,-0.23565 -0.80148,0 -1.55581,0.18843 -0.75434,0.14166 -1.36724,0.61293 -0.61289,0.42409 -0.99006,1.13146 -0.33001,0.70719 -0.33001,1.46156 0,0 0,0 0,0 0,0 h -4.76173 q 0,0 0,0 0,0 0,0 0,-1.08438 0.33001,-2.16875 0.33,-1.08433 0.94291,-1.98009 0.6129,-0.94294 1.46152,-1.60299 0.89578,-0.66002 1.93298,-1.08433 1.03721,-0.4241 2.12157,-0.56576 1.08436,-0.14166 2.21586,-0.14166 1.1315,0 2.263,0.18844 1.17865,0.14166 2.21585,0.61288 1.08436,0.47149 1.98013,1.22581 0.89577,0.75433 1.46152,1.74439 0.6129,0.99007 0.84863,2.1687 0.23574,1.13151 0.23574,2.26301 v 17.1611 h -4.76173 v -3.81878 q -0.42432,0.99006 -1.1315,1.83869 -0.70719,0.80145 -1.65011,1.36721 -0.89577,0.51862 -1.98013,0.75432 -1.0372,0.23565 -2.12156,0.23565 z m 1.88583,-4.14883 q 0.99006,0 1.93298,-0.28288 0.99007,-0.28288 1.69725,-0.89576 0.70719,-0.66006 1.03722,-1.60295 0.33,-0.94293 0.33,-1.933 v -2.40445 h -3.30021 q -0.6129,0 -1.22579,0.0944 -0.6129,0.0472 -1.2258,0.18844 -0.56574,0.14166 -1.1315,0.42453 -0.56575,0.23566 -1.03721,0.66006 -0.42431,0.4241 -0.66004,1.0372 -0.18857,0.56575 -0.18857,1.17864 0,0.70719 0.23575,1.46151 0.28287,0.70719 0.80148,1.22581 0.56575,0.47145 1.27294,0.66006 0.75433,0.18844 1.46152,0.18844 z m 15.41662,13.43657 v -34.6522 h 4.76173 v 4.0074 q 0.37732,-0.94294 0.94294,-1.79156 0.61288,-0.84863 1.41433,-1.46152 0.8015,-0.61288 1.79157,-0.84862 0.99006,-0.28288 2.02726,-0.28288 1.13151,0 2.26301,0.3301 1.13151,0.33009 2.02727,1.08437 0.89576,0.75432 1.46151,1.74439 0.61293,0.99006 0.94293,2.12157 0.37732,1.08433 0.51863,2.26301 0.14121,1.1315 0.14121,2.26301 v 6.12892 q 0,1.13151 -0.14121,2.31019 -0.14167,1.13146 -0.51863,2.26296 -0.33009,1.08438 -0.94293,2.07444 -0.56575,0.99007 -1.46151,1.74439 -0.89576,0.75432 -2.02727,1.08437 -1.1315,0.3301 -2.26301,0.3301 -1.0372,0 -2.02726,-0.28288 -0.99007,-0.23565 -1.79157,-0.84862 -0.80145,-0.61289 -1.41433,-1.46152 -0.56575,-0.84862 -0.94294,-1.79156 v 13.67232 z m 9.00488,-13.43657 q 1.03719,0 1.98008,-0.42409 0.94294,-0.47145 1.50869,-1.32008 0.61289,-0.84863 0.8015,-1.83869 0.23565,-1.0372 0.23565,-2.07444 v -6.12893 q 0,-1.03724 -0.23565,-2.02731 -0.18844,-1.0372 -0.8015,-1.88582 -0.56575,-0.84863 -1.50869,-1.27295 -0.94289,-0.47144 -1.98008,-0.47144 -0.66006,0 -1.32012,0.18843 -0.66002,0.18844 -1.17864,0.61293 -0.51862,0.42409 -0.89576,1.0372 -0.3301,0.56575 -0.51862,1.22577 -0.18844,0.61292 -0.28288,1.27294 -0.0472,0.66006 -0.0472,1.32012 v 6.12892 q 0,0.66006 0.0472,1.32012 0.0944,0.66002 0.28288,1.32007 0.18844,0.61289 0.51862,1.22577 0.37732,0.56575 0.89576,0.99007 0.51862,0.42409 1.17864,0.61293 0.66006,0.18843 1.32012,0.18843 z m 30.69184,11.36218 q -2.0744,-1.08438 -3.91309,-2.6402 -1.79157,-1.50869 -3.25308,-3.34734 -1.41438,-1.83869 -2.49871,-3.96026 -1.0372,-2.12157 -1.69726,-4.38458 -0.61288,-2.26301 -0.89576,-4.57315 -0.28287,-2.35728 -0.28287,-4.71459 0,-2.35727 0.28287,-4.66741 0.28288,-2.35732 0.89576,-4.62033 0.66006,-2.26301 1.69726,-4.38454 1.08433,-2.12157 2.49871,-3.96026 1.46151,-1.8387 3.25308,-3.34739 1.83869,-1.55581 3.91309,-2.64014 l 2.26301,3.63021 q -2.54589,1.46156 -4.57315,3.67739 -1.98014,2.21588 -3.25308,4.90316 -1.22577,2.64019 -1.74439,5.56322 -0.47144,2.92306 -0.47144,5.84609 0,2.92307 0.47144,5.84609 0.51862,2.92307 1.74439,5.61035 1.27294,2.64019 3.25308,4.85603 2.02726,2.21587 4.57315,3.67739 z m 174.25048,0 -2.26301,-3.63026 q 2.54588,-1.46152 4.52602,-3.67739 2.02726,-2.21584 3.25307,-4.85603 1.2729,-2.68728 1.74439,-5.61035 0.51858,-2.92302 0.51858,-5.84609 0,-2.92303 -0.51858,-5.84609 -0.47149,-2.92303 -1.74439,-5.56322 -1.22581,-2.68728 -3.25307,-4.90316 -1.98014,-2.21583 -4.52602,-3.67739 l 2.26301,-3.63021 q 2.07439,1.08433 3.86596,2.64014 1.83869,1.50869 3.25307,3.34739 1.46152,1.83869 2.49871,3.96026 1.08438,2.12153 1.69726,4.38454 0.66006,2.26301 0.94294,4.62033 0.28287,2.31014 0.28287,4.66741 0,2.35731 -0.28287,4.71459 -0.28288,2.31014 -0.94294,4.57315 -0.61288,2.26301 -1.69726,4.38458 -1.03719,2.12157 -2.49871,3.96026 -1.41438,1.83865 -3.25307,3.34734 -1.79157,1.55582 -3.86596,2.6402 z"
       id="text9"
       style="font-weight:600;font-size:10.5833px;line-height:1.25;font-family:Iosevka;-inkscape-font-specification:'Iosevka, Semi-Bold';stroke-width:1.17865"
       aria-label=".map(       )" />
    <rect
       style="fill:#ffffff;fill-opacity:0.49756888;stroke:#000000;stroke-width:6;stroke-linecap:square;stroke-miterlimit:1000;stroke-dasharray:none;paint-order:fill markers stroke;opacity:1"
       id="rect12"
       width="140.58847"
       height="66.644623"
       x="743.13263"
       y="259.44345" />
    <path
       d="m 553.80589,499.00907 q -0.84862,0 -1.7444,-0.28288 -0.84862,-0.23565 -1.46152,-0.84863 -0.61289,-0.61288 -0.89577,-1.46151 -0.23574,-0.84863 -0.23574,-1.74439 0,-0.84863 0.23574,-1.69725 0.28288,-0.89576 0.89577,-1.50869 0.6129,-0.61289 1.46152,-0.84863 0.89578,-0.28288 1.7444,-0.28288 0.84863,0 1.69725,0.28288 0.89578,0.23565 1.50867,0.84863 0.6129,0.61293 0.84863,1.50869 0.28287,0.84862 0.28287,1.69725 0,0.89576 -0.28287,1.74439 -0.23575,0.84863 -0.84863,1.46151 -0.61289,0.61293 -1.50867,0.84863 -0.84862,0.28288 -1.69725,0.28288 z m 23.43142,0 q -1.27294,0 -2.54588,-0.23566 -1.2258,-0.23565 -2.3573,-0.84863 -1.08435,-0.66006 -1.98012,-1.60299 -0.84863,-0.99007 -1.36723,-2.12153 -0.51861,-1.17868 -0.75434,-2.45162 -0.18857,-1.2729 -0.18857,-2.54584 v -6.12897 q 0,-1.27294 0.18857,-2.54589 0.23575,-1.27294 0.75434,-2.40444 0.5186,-1.17864 1.36723,-2.12158 0.89577,-0.99006 1.98012,-1.60295 1.1315,-0.66006 2.3573,-0.89576 1.27294,-0.23565 2.54588,-0.23565 1.22579,0 2.40443,0.23565 1.17865,0.18844 2.26301,0.70719 1.08435,0.51858 1.93298,1.36721 0.89577,0.84863 1.46152,1.933 0.56575,1.0372 0.84863,2.21584 0.28287,1.17868 0.28287,2.35731 0,0 0,0.0472 0,0 0,0.0472 h -4.76173 q 0,0 0,0 0,-0.0472 0,-0.0472 0,-0.94293 -0.28288,-1.79152 -0.23574,-0.8958 -0.84862,-1.60299 -0.6129,-0.70719 -1.50867,-0.99007 -0.84863,-0.3301 -1.79154,-0.3301 -0.99007,0 -1.93298,0.47145 -0.94292,0.42454 -1.55582,1.27294 -0.56575,0.84863 -0.75433,1.88587 -0.18857,0.99003 -0.18857,2.02727 v 6.12897 q 0,1.0372 0.18857,2.07439 0.18856,0.99007 0.75433,1.8387 0.6129,0.84863 1.55582,1.32007 0.94291,0.42409 1.93298,0.42409 0.94291,0 1.79154,-0.28287 0.89577,-0.3301 1.50867,-1.0372 0.61289,-0.70719 0.84862,-1.55582 0.28288,-0.89576 0.28288,-1.83869 0,0 0,0 0,-0.0472 0,-0.0472 h 4.76173 q 0,0.0472 0,0.0944 0,0 0,0 0,1.17863 -0.28287,2.35727 -0.28288,1.17863 -0.84863,2.26301 -0.56575,1.03719 -1.46152,1.88582 -0.84863,0.84863 -1.93298,1.36725 -1.08436,0.51858 -2.26301,0.70719 -1.17864,0.23566 -2.40443,0.23566 z m 23.71428,0 q -1.27293,0 -2.54587,-0.23566 -1.27294,-0.23565 -2.40444,-0.84863 -1.13151,-0.61292 -2.02728,-1.55582 -0.84862,-0.99006 -1.41437,-2.1687 -0.51861,-1.17868 -0.75434,-2.45162 -0.18856,-1.2729 -0.18856,-2.54584 v -6.12897 q 0,-1.27294 0.18856,-2.54589 0.23575,-1.27294 0.75434,-2.45158 0.56575,-1.17868 1.41437,-2.12157 0.89577,-0.99006 2.02728,-1.60295 1.1315,-0.61293 2.40444,-0.84863 1.27294,-0.23565 2.54587,-0.23565 1.27294,0 2.54588,0.23565 1.27294,0.23566 2.40444,0.84863 1.1315,0.61289 1.98013,1.60295 0.89577,0.94289 1.41438,2.12157 0.56574,1.17864 0.75433,2.45158 0.23575,1.27295 0.23575,2.54589 v 6.12897 q 0,1.27294 -0.23575,2.54584 -0.18857,1.27294 -0.75433,2.45162 -0.51861,1.17864 -1.41438,2.1687 -0.84863,0.9429 -1.98013,1.55582 -1.1315,0.61289 -2.40444,0.84863 -1.27294,0.23566 -2.54588,0.23566 z m 0,-4.14884 q 1.03721,0 1.98013,-0.42409 0.99007,-0.47145 1.55581,-1.32007 0.6129,-0.84863 0.80148,-1.8387 0.23575,-1.0372 0.23575,-2.07439 v -6.12897 q 0,-1.03725 -0.23575,-2.02727 -0.18857,-1.03724 -0.80148,-1.88587 -0.56574,-0.84863 -1.55581,-1.27294 -0.94292,-0.47145 -1.98013,-0.47145 -1.03721,0 -2.02727,0.47145 -0.94292,0.42454 -1.55581,1.27294 -0.56576,0.84863 -0.80148,1.88587 -0.18857,0.99002 -0.18857,2.02727 v 6.12897 q 0,1.03719 0.18857,2.07439 0.23574,0.99007 0.80148,1.8387 0.61289,0.84862 1.55581,1.32007 0.99006,0.42409 2.02727,0.42409 z m 15.32232,3.7717 v -4.14884 h 6.22327 v -26.35457 h -5.56322 v -4.14883 h 10.27781 v 30.5034 h 5.56321 v 4.14884 z m 23.57284,0 v -4.14884 h 6.22328 v -26.35457 h -5.56322 v -4.14883 h 10.27781 v 30.5034 h 5.56321 v 4.14884 z m 31.9177,0.37732 q -1.27294,0 -2.59301,-0.23566 -1.27295,-0.23566 -2.40445,-0.84863 -1.13151,-0.61293 -2.02727,-1.55582 -0.8958,-0.99006 -1.46155,-2.12157 -0.51858,-1.17863 -0.75432,-2.45158 -0.18844,-1.32007 -0.18844,-2.59301 v -6.12897 q 0,-1.27295 0.18844,-2.54589 0.23565,-1.27294 0.75432,-2.45158 0.56575,-1.17868 1.41438,-2.12157 0.89576,-0.99007 2.02726,-1.60295 1.13151,-0.61293 2.40445,-0.84863 1.27294,-0.23565 2.54589,-0.23565 1.27294,0 2.54588,0.23565 1.27294,0.23566 2.40445,0.84863 1.1315,0.61288 1.98013,1.60295 0.89576,0.94289 1.41434,2.12157 0.56575,1.17864 0.75436,2.45158 0.23566,1.27294 0.23566,2.54589 v 5.1389 h -13.90802 v 0.99007 q 0,1.03719 0.18844,2.07439 0.23565,1.0372 0.84863,1.88583 0.61292,0.84863 1.60295,1.27294 0.99006,0.42409 2.0273,0.42409 0.75433,0 1.50865,-0.14121 0.75436,-0.18844 1.36725,-0.61289 0.66001,-0.42409 1.03719,-1.08437 0.4241,-0.70719 0.47145,-1.46151 h 4.76176 q -0.0944,1.08437 -0.47149,2.1687 -0.33009,1.03724 -0.94289,1.933 -0.61288,0.89576 -1.50868,1.55582 -0.89576,0.66002 -1.93296,1.08433 -0.99007,0.42409 -2.12157,0.56575 -1.08438,0.14122 -2.16871,0.14122 z M 667.097,484.06403 h 9.1463 v -0.99007 q 0,-1.03724 -0.23566,-2.02726 -0.18844,-1.03724 -0.80145,-1.88587 -0.56576,-0.84863 -1.55582,-1.27295 -0.94294,-0.47144 -1.98014,-0.47144 -1.03719,0 -2.02726,0.47144 -0.94294,0.42454 -1.55582,1.27295 -0.56575,0.84863 -0.8015,1.88587 -0.18843,0.99002 -0.18843,2.02726 z m 28.00456,14.94522 q -1.27294,0 -2.54589,-0.23566 -1.22576,-0.23566 -2.35727,-0.84863 -1.08437,-0.66006 -1.98013,-1.60299 -0.84863,-0.99007 -1.36725,-2.12153 -0.51858,-1.17868 -0.75432,-2.45162 -0.18844,-1.2729 -0.18844,-2.54584 v -6.12897 q 0,-1.27295 0.18844,-2.54589 0.23565,-1.27294 0.75432,-2.40445 0.51862,-1.17863 1.36725,-2.12157 0.89576,-0.99006 1.98013,-1.60295 1.13151,-0.66006 2.35727,-0.89576 1.27295,-0.23565 2.54589,-0.23565 1.22581,0 2.40445,0.23565 1.17863,0.18844 2.26301,0.70719 1.08433,0.51858 1.93295,1.36721 0.89576,0.84863 1.46152,1.933 0.56575,1.0372 0.84862,2.21583 0.28288,1.17868 0.28288,2.35732 0,0 0,0.0472 0,0 0,0.0472 h -4.76172 q 0,0 0,0 0,-0.0472 0,-0.0472 0,-0.94294 -0.28288,-1.79152 -0.23565,-0.8958 -0.84862,-1.60299 -0.61289,-0.70719 -1.50865,-0.99007 -0.84863,-0.3301 -1.79156,-0.3301 -0.99007,0 -1.933,0.47145 -0.94289,0.42454 -1.55578,1.27294 -0.56575,0.84863 -0.75436,1.88587 -0.18844,0.99002 -0.18844,2.02727 v 6.12897 q 0,1.03719 0.18844,2.07439 0.18843,0.99007 0.75436,1.8387 0.61289,0.84862 1.55578,1.32007 0.94293,0.42409 1.933,0.42409 0.94293,0 1.79156,-0.28287 0.89576,-0.3301 1.50865,-1.0372 0.61288,-0.70719 0.84862,-1.55582 0.28288,-0.89576 0.28288,-1.8387 0,0 0,0 0,-0.0472 0,-0.0472 h 4.76172 q 0,0.0472 0,0.0944 0,0 0,0 0,1.17864 -0.28288,2.35728 -0.28287,1.17863 -0.84862,2.26301 -0.56576,1.03719 -1.46152,1.88582 -0.84862,0.84863 -1.93295,1.36725 -1.08438,0.51858 -2.26301,0.70719 -1.17864,0.23566 -2.40445,0.23566 z m 26.77875,0 q -1.17863,0 -2.35727,-0.28288 -1.13151,-0.28288 -2.07444,-0.94289 -0.94289,-0.70719 -1.65008,-1.69726 -0.66006,-0.99007 -1.0372,-2.07444 -0.37732,-1.1315 -0.51862,-2.31014 -0.14166,-1.17864 -0.14166,-2.35727 v -11.55075 h -4.76172 v -4.14883 h 4.76172 v -9.66493 h 4.71459 v 9.66493 h 7.02472 v 4.14883 h -7.02472 v 11.55075 q 0,0.56575 0.0472,1.17863 0.0472,0.56576 0.14166,1.17864 0.14166,0.56575 0.33009,1.13151 0.18844,0.51862 0.51858,0.99006 0.37732,0.47145 0.8958,0.75432 0.56571,0.28288 1.13146,0.28288 0.51863,0 0.99007,-0.18844 0.51862,-0.18843 0.84863,-0.51862 0.37732,-0.37731 0.61293,-0.84863 0.23565,-0.47144 0.33009,-0.94289 0.14167,-0.51862 0.18844,-1.03724 0.0944,-0.51858 0.0944,-1.0372 0,-0.0472 0,-0.0944 0,-0.0944 0,-0.14121 h 4.71459 q 0,0.14121 0,0.28287 0,0.0944 0,0.18844 0,1.08433 -0.18844,2.1687 -0.18843,1.08438 -0.66006,2.07444 -0.42453,0.99002 -1.1315,1.83865 -0.70719,0.84863 -1.65013,1.41438 -0.89576,0.56576 -1.98009,0.75437 -1.08437,0.23566 -2.16874,0.23566 z m 22.11134,-20.60275 q -0.84863,0 -1.74439,-0.23565 -0.84863,-0.28288 -1.46151,-0.89576 -0.61293,-0.61288 -0.8958,-1.46151 -0.23566,-0.89576 -0.23566,-1.74439 0,-0.89581 0.23566,-1.74443 0.28287,-0.84859 0.8958,-1.46152 0.61288,-0.61288 1.46151,-0.84862 0.89576,-0.28288 1.74439,-0.28288 0.84863,0 1.69726,0.28288 0.89576,0.23565 1.50869,0.84862 0.61288,0.61293 0.84862,1.46152 0.28288,0.84862 0.28288,1.74443 0,0.84863 -0.28288,1.74439 -0.23565,0.84863 -0.84862,1.46151 -0.61293,0.61288 -1.50869,0.89576 -0.84863,0.23565 -1.69726,0.23565 z m 0,17.06679 q -0.84863,0 -1.74439,-0.23565 -0.84863,-0.28288 -1.46151,-0.89576 -0.61293,-0.61293 -0.8958,-1.46156 -0.23566,-0.84863 -0.23566,-1.74439 0,-0.84863 0.23566,-1.69725 0.28287,-0.89576 0.8958,-1.50865 0.61288,-0.61293 1.46151,-0.84863 0.89576,-0.28287 1.74439,-0.28287 0.84863,0 1.69726,0.28287 0.89576,0.23566 1.50869,0.84863 0.61288,0.61289 0.84862,1.50865 0.28288,0.84862 0.28288,1.69725 0,0.89576 -0.28288,1.74439 -0.23565,0.84863 -0.84862,1.46156 -0.61293,0.61288 -1.50869,0.89576 -0.84863,0.23565 -1.69726,0.23565 z m 21.9699,-17.06679 q -0.84863,0 -1.74439,-0.23565 -0.84862,-0.28288 -1.46155,-0.89576 -0.61289,-0.61288 -0.89576,-1.46151 -0.23566,-0.89576 -0.23566,-1.74439 0,-0.89581 0.23566,-1.74443 0.28287,-0.84859 0.89576,-1.46152 0.61293,-0.61288 1.46155,-0.84862 0.89576,-0.28288 1.74439,-0.28288 0.84863,0 1.69726,0.28288 0.89576,0.23565 1.50864,0.84862 0.61293,0.61293 0.84863,1.46152 0.28288,0.84862 0.28288,1.74443 0,0.84863 -0.28288,1.74439 -0.23565,0.84863 -0.84863,1.46151 -0.61288,0.61288 -1.50864,0.89576 -0.84863,0.23565 -1.69726,0.23565 z m 0,17.06679 q -0.84863,0 -1.74439,-0.23565 -0.84862,-0.28288 -1.46155,-0.89576 -0.61289,-0.61293 -0.89576,-1.46156 -0.23566,-0.84863 -0.23566,-1.74439 0,-0.84863 0.23566,-1.69725 0.28287,-0.89576 0.89576,-1.50865 0.61293,-0.61293 1.46155,-0.84863 0.89576,-0.28287 1.74439,-0.28287 0.84863,0 1.69726,0.28287 0.89576,0.23566 1.50864,0.84863 0.61293,0.61289 0.84863,1.50865 0.28288,0.84862 0.28288,1.69725 0,0.89576 -0.28288,1.74439 -0.23565,0.84863 -0.84863,1.46156 -0.61288,0.61288 -1.50864,0.89576 -0.84863,0.23565 -1.69726,0.23565 z m 31.44621,-2.21583 -16.83109,-8.3448 v -4.62033 l 16.83109,-8.3448 2.12157,3.72452 -14.19089,6.93042 14.19089,6.93047 z m 172.8361,0 -2.12157,-3.72452 14.19089,-6.93047 -14.19089,-6.93042 2.12157,-3.72452 16.83104,8.3448 v 4.62033 z m 38.61234,12.96513 q -2.0744,-1.08438 -3.9131,-2.64019 -1.7915,-1.50865 -3.253,-3.34734 -1.4144,-1.8387 -2.49874,-3.96027 -1.03724,-2.12157 -1.69726,-4.38458 -0.61293,-2.26296 -0.8958,-4.57315 -0.28288,-2.35727 -0.28288,-4.71459 0,-2.35727 0.28288,-4.66741 0.28287,-2.35732 0.8958,-4.62033 0.66002,-2.26296 1.69726,-4.38453 1.08434,-2.12157 2.49874,-3.96027 1.4615,-1.83869 3.253,-3.34734 1.8387,-1.55582 3.9131,-2.64019 l 2.263,3.63021 q -2.5458,1.46156 -4.5731,3.67739 -1.9801,2.21588 -3.2531,4.90321 -1.2257,2.64014 -1.7444,5.56317 -0.4714,2.92307 -0.4714,5.84609 0,2.92307 0.4714,5.84609 0.5187,2.92307 1.7444,5.6104 1.273,2.64015 3.2531,4.85602 2.0273,2.21584 4.5731,3.67735 z m 9.2406,0 -2.2631,-3.63026 q 2.5459,-1.46151 4.526,-3.67735 2.0273,-2.21587 3.2531,-4.85602 1.2729,-2.68733 1.7444,-5.6104 0.5186,-2.92302 0.5186,-5.84609 0,-2.92302 -0.5186,-5.84609 -0.4715,-2.92303 -1.7444,-5.56317 -1.2258,-2.68733 -3.2531,-4.90321 -1.9801,-2.21583 -4.526,-3.67739 l 2.2631,-3.63021 q 2.0743,1.08437 3.8659,2.64019 1.8387,1.50865 3.253,3.34734 1.4616,1.8387 2.4988,3.96027 1.0843,2.12157 1.6973,4.38453 0.66,2.26301 0.9428,4.62033 0.2829,2.31014 0.2829,4.66741 0,2.35732 -0.2829,4.71459 -0.2828,2.31019 -0.9428,4.57315 -0.613,2.26301 -1.6973,4.38458 -1.0372,2.12157 -2.4988,3.96027 -1.4143,1.83869 -3.253,3.34734 -1.7916,1.55581 -3.8659,2.64019 z"
       id="text12"
       style="font-weight:600;font-size:10.5833px;line-height:1.25;font-family:Iosevka;-inkscape-font-specification:'Iosevka, Semi-Bold';stroke-width:1.17865"
       aria-label=".collect::&lt;       &gt;()" />
    <rect
       style="fill:#ffffff;fill-opacity:0.49756888;stroke:#000000;stroke-width:6;stroke-linecap:square;stroke-miterlimit:1000;stroke-dasharray:none;paint-order:fill markers stroke;opacity:1"
       id="rect14"
       width="140.58847"
       height="66.644623"
       x="670.86938"
       y="348.51218" />
    <rect
       style="fill:#ffffff;fill-opacity:0.49756888;stroke:#000000;stroke-width:6;stroke-linecap:square;stroke-miterlimit:1000;stroke-dasharray:none;paint-order:fill markers stroke;opacity:1"
       id="rect15"
       width="140.58847"
       height="66.644623"
       x="813.71539"
       y="449.34457" />
  </g>
</svg>
