<svg xmlns="http://www.w3.org/2000/svg" width="971" height="168" fill="none" viewBox="0 0 971 168"><path d="M83.3 0 23.01 165.55h47.32L130.62 0Zm81.76 70.93h-47.33v47.3h23.64v47.32h47.32v-47.32h-23.63ZM306.19 27.8l-44.8 118.25h20.92l10.05-27.01h51.06l10.21 27.01h21.24L330.07 27.8Zm-6.92 72.79 18.45-49.41 18.77 49.41zm208.66-42.65c-24.37 0-41.67 18.12-41.67 44.96s17.29 44.96 41.67 44.96 41.67-18.12 41.67-44.96-17.29-44.96-41.67-44.96m0 73.29c-13.34 0-21.74-10.71-21.74-28.33s8.4-28.33 21.74-28.33 21.74 10.7 21.74 28.33-8.4 28.33-21.74 28.33m-84.65-73.29c-11.2 0-19.43 4.45-24.87 10.87V27.8h-19.76v118.25h19.76v-9.06c5.43 6.42 13.67 10.87 24.87 10.87 24.21 0 38.04-20.42 38.04-44.96s-13.83-44.96-38.04-44.96m-3.95 72.63c-12.19 0-21.41-9.06-21.41-25.03v-5.1c0-16.3 9.22-25.2 21.41-25.2 14.33 0 22.07 11.2 22.07 27.67s-7.74 27.67-22.07 27.67zM811.46 27.8h-20.42v20.26h20.42zm38.37 48.58h18.12v-16.8h-18.12V34.22H830.4v25.36h-12.02v16.8h12.02v47.93c0 17.62 8.89 22.73 25.36 22.73 5.11 0 10.05-.49 13.67-1.15v-16.63c-2.96.33-4.78.49-8.07.49-7.08 0-11.53-.82-11.53-8.56zm65.05 16.8c-10.87-2.3-17.13-3.46-17.13-9.72 0-5.76 5.27-9.39 13.34-9.39 9.55 0 17.79 4.45 22.73 12.19l13.34-12.02c-6.26-9.55-19.76-16.3-34.92-16.3-19.93 0-33.76 11.53-33.76 27.34 0 18.45 15.65 21.9 29.32 24.7s20.92 3.62 20.92 11.03-7.74 10.71-16.14 10.71c-10.05 0-19.93-5.6-25.03-14l-14.82 11.86c7.74 11.86 23.72 18.28 39.69 18.28 19.6 0 35.57-11.2 35.57-28.66 0-19.76-18.45-22.89-33.1-26.02zm-247.53-16.8h18.12v-16.8h-18.12V34.22h-19.43v25.36H635.9v16.8h12.02v47.93c0 17.62 8.89 22.73 25.36 22.73 5.1 0 10.05-.49 13.67-1.15v-16.63c-2.96.33-4.78.49-8.07.49-7.08 0-11.53-.82-11.53-8.56zm-57.64 34.59c0 12.35-8.89 18.94-17.79 18.94-10.7 0-15.32-6.75-15.32-17.29V59.59h-19.76v57.31c0 18.61 11.2 30.96 29.32 30.96 11.2 0 18.61-5.27 23.55-11.04v9.22h19.76V59.58h-19.76Zm153.66-26.51c8.23-3.29 16.8-10.87 16.8-25.53 0-20.09-13.51-31.13-38.87-31.13h-46.94v118.25h49.9c24.38 0 39.69-12.19 39.69-32.94 0-14.49-8.23-24.7-20.59-28.66zm-48.75-38.87h24.71c13.5 0 20.92 5.1 20.92 15.48s-7.41 15.65-20.92 15.65h-24.71zm28.49 82.68h-28.49V94.51h28.49c13.34 0 20.59 6.92 20.59 16.8s-7.25 16.96-20.59 16.96m68.02-68.68h-19.76v86.46h19.76z" style="fill:#191919"/></svg>