<svg xmlns="http://www.w3.org/2000/svg" xml:space="preserve" width="346.818" height="87.09" viewBox="0 0 91.762 23.043"><path d="M64.665 209.749c-.266-.425-9.636-17.788-9.61-17.812.013-.013.863-.254 1.888-.534l5.25-1.44 9.733-2.675c.93-.255 1.7-.454 1.712-.442.03.03-1.305 3.531-1.372 3.598-.074.074-1.423.436-1.466.394-.02-.02.123-.442.316-.94s.332-.924.31-.946c-.046-.046-14.198 3.787-14.281 3.868-.03.027.352.795.846 1.706.495.91 2.194 4.043 3.776 6.961 1.827 3.37 2.9 5.265 2.94 5.193a38 38 0 0 0 .574-1.452c.281-.737.525-1.353.542-1.37s.21.285.428.671l.397.702-.866 2.286c-.477 1.257-.895 2.319-.93 2.359-.034.04-.118-.018-.187-.127m47.565-2.902c-1.198-.233-2.172-.754-2.977-1.592a4.3 4.3 0 0 1-1.102-1.906c-.213-.742-.269-6.344-.074-7.473.187-1.083.52-1.75 1.23-2.46.682-.681 1.806-1.28 2.796-1.488.769-.162 2.175-.113 2.879.1 1.837.556 3.115 1.966 3.59 3.957l.056.236-.643-.024-.642-.025-.192-.57c-.435-1.295-1.42-2.228-2.72-2.575-.64-.17-1.786-.146-2.43.053-.992.306-1.871 1.002-2.28 1.803-.332.647-.42 1.165-.486 2.827-.094 2.368.01 4.832.233 5.535.325 1.026.99 1.75 2.055 2.237 1.725.79 4.025.261 5.04-1.16.333-.465.668-1.132.743-1.483l.06-.275h.628c.346 0 .629.017.629.038s-.096.34-.213.71c-.259.82-.867 1.775-1.48 2.326-.483.434-1.566.995-2.222 1.15-.66.158-1.83.185-2.478.06m13.791.04c-1.72-.273-3.317-1.364-3.959-2.704-.469-.978-.519-1.451-.516-4.878.002-2.566.026-3.149.148-3.683.226-.99.562-1.585 1.284-2.271 1.782-1.693 4.522-2.017 6.736-.798.72.396 1.668 1.354 1.975 1.994.457.952.514 1.488.514 4.842 0 3.393-.05 3.831-.555 4.869-.535 1.098-1.925 2.14-3.331 2.497-.633.16-1.724.224-2.296.133m2.289-1.27c1.392-.485 2.246-1.48 2.522-2.942.154-.81.151-5.768-.003-6.6-.285-1.542-1.252-2.575-2.845-3.038-.662-.192-1.926-.14-2.61.11-.926.335-1.85 1.157-2.19 1.947-.316.737-.37 1.39-.368 4.38.003 3.155.056 3.604.525 4.465.449.826 1.585 1.625 2.606 1.833.616.126 1.775.05 2.363-.155m-59.923.83c-1.016-1.745-6.83-11.966-6.83-12.01 0-.06 13.148-3.728 13.197-3.68.037.036-6 15.882-6.09 15.985-.034.04-.16-.093-.277-.296m7.733.31c0-.024.784-2.071 1.743-4.552s2.22-5.747 2.803-7.26c.583-1.514 1.096-2.82 1.14-2.905.067-.125.171-.147.605-.127l.523.026 1.929 4.995 3.75 9.715c.05.134-.012.149-.615.149h-.671l-.67-1.778-.67-1.778h-7.22l-.662 1.778-.66 1.778h-.663c-.364 0-.662-.019-.662-.042m8.58-6.966c-.484-1.292-1.193-3.197-1.576-4.232s-.716-1.884-.739-1.883c-.038 0-.367.868-2.543 6.708l-.655 1.757h6.394zm6.83-.444v-7.45h.581c.365 0 .614.039.666.105.046.058 1.255 2.582 2.686 5.61 1.432 3.026 2.63 5.531 2.662 5.566s1.216-2.442 2.63-5.503c1.415-3.062 2.609-5.615 2.653-5.673.05-.067.296-.106.662-.106h.582v14.902h-1.268l-.022-5.96-.022-5.96-2.292 4.922-2.292 4.923h-1.239l-2.338-4.933-2.337-4.933-.022 5.97-.022 5.97H91.53zm43.895 7.345c-.022-.058-.03-3.402-.018-7.43l.022-7.323.602-.025.603-.025 4.435 6.336 4.435 6.336.042-6.311.043-6.312.614-.024.613-.025v14.908h-1.229l-2.26-3.238-4.465-6.403-2.206-3.165v12.806h-.595q-.596 0-.636-.105" style="fill:#000" transform="translate(-55.054 -186.846)"/></svg>