<?xml version="1.0" encoding="UTF-8" standalone="no"?>
<svg
   id="Components"
   viewBox="0 0 28.35 3.4"
   version="1.1"
   sodipodi:docname="apsensing.svg"
   inkscape:version="1.4 (e7c3feb1, 2024-10-09)"
   xmlns:inkscape="http://www.inkscape.org/namespaces/inkscape"
   xmlns:sodipodi="http://sodipodi.sourceforge.net/DTD/sodipodi-0.dtd"
   xmlns="http://www.w3.org/2000/svg"
   xmlns:svg="http://www.w3.org/2000/svg">
  <sodipodi:namedview
     id="namedview2"
     pagecolor="#ffffff"
     bordercolor="#666666"
     borderopacity="1.0"
     inkscape:showpageshadow="2"
     inkscape:pageopacity="0.0"
     inkscape:pagecheckerboard="0"
     inkscape:deskcolor="#d1d1d1"
     inkscape:zoom="8.6988152"
     inkscape:cx="14.082378"
     inkscape:cy="1.7243728"
     inkscape:window-width="1920"
     inkscape:window-height="1027"
     inkscape:window-x="0"
     inkscape:window-y="25"
     inkscape:window-maximized="0"
     inkscape:current-layer="Components" />
  <defs
     id="defs1">
    <style
       id="style1">.cls-1,.cls-2{fill:#1a1a18;stroke-width:0}.cls-2{fill:#e40033}</style>
  </defs>
  <path
     d="M 4.59,0.06 H 3.52 v 3.2 H 4.18 V 2.34 h 0.41 c 0.88,0 1.3,-0.32 1.3,-1.14 0,-0.82 -0.42,-1.14 -1.3,-1.14 z M 4.63,1.7 H 4.18 v -1 h 0.45 c 0.39,0 0.6,0.11 0.6,0.5 0,0.39 -0.2,0.5 -0.6,0.5 z M 0.95,0.06 0,3.26 H 0.75 L 1.44,0.7 H 1.65 L 2.34,3.26 H 3.1 L 2.16,0.06 Z m 26.79,2.17 c -0.36,0 -0.59,0.26 -0.59,0.58 0,0.32 0.23,0.59 0.59,0.59 0.36,0 0.61,-0.27 0.61,-0.59 0,-0.32 -0.25,-0.58 -0.61,-0.58 z"
     class="cls-2"
     id="path1"
     style="fill:#727272;fill-opacity:1" />
  <path
     d="M 8.26,1.44 7.34,1.19 C 7.13,1.13 7.06,1.03 7.06,0.91 7.06,0.69 7.23,0.6 7.54,0.6 7.97,0.6 8.18,0.77 8.18,1.15 H 8.86 C 8.86,0.46 8.42,0 7.53,0 6.79,0 6.38,0.32 6.38,0.93 c 0,0.4 0.17,0.72 0.66,0.86 l 0.94,0.27 c 0.21,0.06 0.3,0.17 0.3,0.31 0,0.24 -0.17,0.34 -0.57,0.34 -0.57,0 -0.77,-0.2 -0.77,-0.69 H 6.26 c 0,0.82 0.44,1.29 1.43,1.29 0.9,0 1.27,-0.38 1.27,-0.98 0,-0.46 -0.23,-0.76 -0.7,-0.9 z m 1.22,1.82 h 2.24 V 2.63 H 10.14 V 1.96 h 1.38 V 1.35 H 10.14 V 0.7 h 1.58 V 0.06 H 9.48 Z M 17.71,1.44 16.79,1.19 C 16.58,1.13 16.51,1.03 16.51,0.91 c 0,-0.22 0.17,-0.31 0.48,-0.31 0.43,0 0.64,0.17 0.64,0.55 h 0.68 C 18.31,0.46 17.87,0 16.98,0 c -0.74,0 -1.15,0.32 -1.15,0.93 0,0.4 0.17,0.72 0.66,0.86 l 0.94,0.27 c 0.21,0.06 0.3,0.17 0.3,0.31 0,0.24 -0.17,0.34 -0.57,0.34 -0.57,0 -0.77,-0.2 -0.77,-0.69 h -0.68 c 0,0.82 0.44,1.29 1.43,1.29 0.9,0 1.27,-0.38 1.27,-0.98 0,-0.46 -0.23,-0.76 -0.7,-0.9 z M 14.53,2.63 H 14.4 L 13.55,0.06 H 12.3 v 3.2 h 0.67 V 0.7 h 0.13 l 0.84,2.56 h 1.25 v -3.2 h -0.66 z m 8,0 H 22.4 L 21.55,0.06 H 20.3 v 3.2 h 0.67 V 0.7 h 0.13 l 0.84,2.56 h 1.25 V 0.06 H 22.53 Z M 18.98,0.06 h 0.66 v 3.2 h -0.66 z m 6.24,1.41 v 0.56 h 0.8 c 0,0.4 -0.3,0.65 -0.78,0.65 -0.6,0 -0.86,-0.41 -0.86,-1.01 0,-0.65 0.31,-1.05 0.83,-1.05 0.36,0 0.62,0.2 0.7,0.52 h 0.68 c -0.12,-0.69 -0.68,-1.15 -1.41,-1.15 -0.9,0 -1.48,0.65 -1.48,1.69 0,0.97 0.51,1.63 1.37,1.63 0.59,0 0.85,-0.32 0.96,-0.57 v 0.52 h 0.6 V 1.47 h -1.42 z"
     class="cls-1"
     id="path2" />
</svg>
