<svg xmlns="http://www.w3.org/2000/svg" width="700" height="300"><path d="M421.702 90.985a4.227 4.227 0 0 1 4.244-4.238h126.466a4.23 4.23 0 0 1 4.244 4.238v16.87a4.223 4.223 0 0 1-4.244 4.212h-42.155a4.2 4.2 0 0 0-4.195 4.21v92.738a4.23 4.23 0 0 1-4.245 4.238h-25.273a4.23 4.23 0 0 1-4.245-4.238v-92.737a4.2 4.2 0 0 0-4.196-4.211h-42.157a4.22 4.22 0 0 1-4.245-4.212zm-143.37 46.379a25.28 25.28 0 0 0 25.298 25.272h67.475a8.44 8.44 0 0 1 8.44 8.448v8.424a8.427 8.427 0 0 1-8.44 8.449h-54.828a4.234 4.234 0 0 1-4.22-4.238 4.216 4.216 0 0 0-4.207-4.212h-25.317a4.215 4.215 0 0 0-4.2 4.212v4.238a25.287 25.287 0 0 0 25.297 25.296h84.355a25.294 25.294 0 0 0 25.273-25.296v-25.321a25.273 25.273 0 0 0-25.273-25.272h-67.488a8.444 8.444 0 0 1-8.44-8.448v-8.424a8.424 8.424 0 0 1 8.44-8.425H375.3a4.21 4.21 0 0 1 4.245 4.21 4.215 4.215 0 0 0 4.196 4.215h25.321a4.215 4.215 0 0 0 4.196-4.214v-4.211a25.314 25.314 0 0 0-25.273-25.32H303.63a25.307 25.307 0 0 0-25.297 25.32ZM134.949 90.985a4.226 4.226 0 0 1 4.22-4.238h126.507a4.24 4.24 0 0 1 4.22 4.238v16.87a4.23 4.23 0 0 1-4.22 4.212h-92.769a4.204 4.204 0 0 0-4.22 4.21v16.874a4.22 4.22 0 0 0 4.22 4.213h84.33a4.215 4.215 0 0 1 4.22 4.212v16.873a4.21 4.21 0 0 1-4.22 4.187h-84.33a4.224 4.224 0 0 0-4.22 4.238v16.846a4.225 4.225 0 0 0 4.22 4.238h92.77a4.215 4.215 0 0 1 4.22 4.212v16.845a4.24 4.24 0 0 1-4.22 4.238H139.17a4.226 4.226 0 0 1-4.22-4.238zM4.22 213.253A4.24 4.24 0 0 1 0 209.015V90.985a4.24 4.24 0 0 1 4.22-4.238h118.07a4.226 4.226 0 0 1 4.221 4.238v16.87a4.22 4.22 0 0 1-4.22 4.212H37.958a4.22 4.22 0 0 0-4.22 4.21v16.874a4.234 4.234 0 0 0 4.22 4.213h75.914a4.22 4.22 0 0 1 4.22 4.212l-.022 16.873a4.194 4.194 0 0 1-4.198 4.187H37.958a4.24 4.24 0 0 0-4.22 4.238v42.141a4.225 4.225 0 0 1-4.22 4.238zM674.727 86.747H590.37a25.314 25.314 0 0 0-25.273 25.32v75.89a25.294 25.294 0 0 0 25.273 25.296h84.357A25.263 25.263 0 0 0 700 187.957v-75.89a25.283 25.283 0 0 0-25.273-25.32m-8.44 92.761a8.43 8.43 0 0 1-8.441 8.449H607.25a8.43 8.43 0 0 1-8.44-8.449v-59.015a8.41 8.41 0 0 1 8.44-8.425h50.595a8.41 8.41 0 0 1 8.44 8.425z" class="a" style="fill:#000;fill-rule:evenodd;stroke-width:6.32531"/></svg>