<svg xmlns="http://www.w3.org/2000/svg" width="700" height="300"><path fill="#fff" d="M256.956 157.613v.602c-.035 23.214-8.635 45.899-24.359 63.015-.51.558-1 1.126-1.49 1.7a56 56 0 0 1-6.174 6.078c-.672.591-1.296 1.226-1.924 1.863a361 361 0 0 0 8.751 7.057 398 398 0 0 1 6.785 5.409c1.7 1.384 3.42 2.74 5.147 4.089q1.994 1.56 3.984 3.128l1.333 1.047.783.619.686.54.479.412v.283c-17.637.078-35.27-.119-52.906-.338q-4.704-.06-9.409-.111l-9.833-.117q-2.727-.035-5.453-.065c-19.3-.214-19.3-.214-26.357-1.398l-.551-.09c-18.24-2.979-34.82-11.447-48.421-23.839a80 80 0 0 0-1.824-1.584c-.948-.825-1.76-1.72-2.57-2.677a24 24 0 0 0-1.435-1.487c-1.154-1.141-2.166-2.384-3.173-3.654q-.42-.528-.841-1.052c-6.872-8.569-12.034-18.148-15.642-28.518l-.245-.7c-2.837-8.195-4.575-17.085-4.611-25.766l-.005-.94-.006-1.966a464 464 0 0 0-.02-2.926c-.086-17.96 5.526-36.532 15.897-51.263l.335-.48c1.509-2.16 3.064-4.266 4.746-6.295l.692-.84c4.114-4.96 8.603-9.606 13.706-13.557l.587-.46a98 98 0 0 1 10.987-7.445l.738-.433c65.269-37.94 141.553 14.817 141.613 82.16m-131.623-55.472-.507.341c-2.626 1.776-5.03 3.767-7.398 5.87l-.442.388c-1.677 1.474-3.212 2.98-4.64 4.693l-.69.788c-11.537 13.188-17.345 30.697-16.183 48.167 1.065 13.271 5.812 26.523 14.333 36.865l.37.457c3.537 4.35 7.493 8.405 12.051 11.682l.513.375c14.414 10.49 32.3 14.903 49.954 12.2 12.638-2.126 24.422-7.535 33.874-16.23a75 75 0 0 1 1.814-1.603c2.1-1.839 3.853-3.854 5.593-6.034l.734-.89c3.237-3.965 5.87-8.301 8.018-12.943l.254-.538c2.418-5.142 4.054-10.54 5.11-16.118l.14-.737c1.806-9.894.81-20.124-1.834-29.751l-.207-.756c-1.767-6.25-4.8-12.57-8.545-17.876l-.39-.553c-3.757-5.271-8.048-10.137-13.16-14.127l-.852-.685c-9.586-7.645-21.215-12.118-33.307-13.712l-.656-.089c-15.206-1.787-31.328 2.192-43.947 10.816m154.983 16.09h31.336l.012 6.608q.022 10.513.052 21.026l.01 3.276.001.658q.014 5.253.023 10.504.01 5.405.028 10.81.012 3.324.014 6.649.003 2.565.016 5.132.005 1.04.003 2.08c-.005 9.398.215 20.102 6.333 27.828l.774.763c.638.649.638.649.638 1.213l.484.215c.735.399 1.3.88 1.933 1.426 4.73 3.83 11.045 4.164 16.884 3.666 6.732-.818 13.072-4.354 17.326-9.63 5.108-6.668 7.448-15.231 7.456-23.547.003-.442.003-.442.004-.894l.01-2.949.007-2.12q.01-2.28.016-4.557.01-3.294.023-6.589l.037-10.69q.016-5.19.035-10.382c0-.323 0-.323.003-.653l.018-5.061q.045-12.39.085-24.782h31.335V243.01h-29.924l-.282-19.197-2.54 4.517c-.737.99-1.447 1.905-2.259 2.823l-.626.719q-.945 1.063-1.915 2.104l-.494.55c-6.852 7.296-17.381 11.836-27.325 12.189q-1.784.034-3.57.035h-.644c-12.482-.017-23.342-3.997-32.331-12.774-6.51-6.584-10.106-15.398-11.928-24.349l-.129-.635c-.134-.704-.25-1.41-.365-2.117l-.145-.843c-.561-3.757-.496-7.52-.485-11.31q.003-1.544.001-3.088 0-2.666.005-5.333.007-3.856.007-7.711.002-6.258.01-12.515a20497 20497 0 0 0 .013-12.906l.002-3.765q.01-15.585.028-31.172" style="fill:#000;fill-opacity:1;stroke-width:.282301"/><path fill="#f98200" d="M193.05 119.238q.869.762 1.729 1.535l.755.652c8.738 7.623 14.028 18.433 15.618 29.837l.08.57c1.567 12.285-1.705 25.587-9.281 35.439a61 61 0 0 1-3.234 3.766 36 36 0 0 0-1.415 1.635c-.933 1.09-1.979 2.003-3.088 2.91l-.782.644c-10.481 8.345-23.66 12.183-37.006 10.7-11.04-1.4-20.788-6.21-28.835-13.884l-.711-.656c-9.045-8.606-13.583-21.11-14.004-33.404-.198-12.376 3.966-25.011 12.58-34.066q.426-.44.855-.877.663-.681 1.313-1.376c16.263-17.045 45.36-18.804 65.426-3.425" style="stroke-width:.282301;fill:#000;fill-opacity:1"/><path fill="#fff" d="M570.24 82.098h31.053v36.134h31.053v25.125h-31.053c.034 10.741.034 10.741.073 21.483q.026 6.571.046 13.144.013 4.786.034 9.574.01 2.532.017 5.066.006 2.388.018 4.775.004.873.005 1.746c.007 5.837.227 12.953 4.36 17.558 3.822 3.493 9.517 3.382 14.357 3.205 3.27-.182 6.294-.915 9.364-2.027.803-.279.803-.279 1.368-.279.507 8.276.83 16.557 1.129 24.843-6.31 1.871-6.31 1.871-9.387 2.347l-.793.132c-2.56.421-5.066.671-7.662.684l-.82.005-1.714.006q-1.28.005-2.559.02c-4.716.026-9.438-.317-13.976-1.694l-.733-.217c-5.043-1.557-9.355-4.124-13.17-7.775l-.641-.577c-8.551-7.982-9.972-20.88-10.37-31.888-.099-3.747-.073-7.498-.065-11.246q.005-2.225 0-4.45.001-3.84.005-7.68.006-5.553.007-11.104.001-9.011.01-18.022a42484 42484 0 0 0 .012-18.582l.003-5.424q.01-22.44.029-44.882m-67.753-35.57h31.618V243.01h-31.618zm-69.446 71.704h31.336V243.01H433.04z" style="fill:#000;fill-opacity:1;stroke-width:.282301"/></svg>