<svg xmlns="http://www.w3.org/2000/svg" width="938.667" height="142.402" viewBox="0 0 938.667 142.402"><defs><clipPath id="a" clipPathUnits="userSpaceOnUse"><path d="M-287.112 237.478h800v-500h-800Z"/></clipPath><clipPath id="b" clipPathUnits="userSpaceOnUse"><path d="M0 500h800V0H0Z"/></clipPath><clipPath id="c" clipPathUnits="userSpaceOnUse"><path d="M-377.577 233.517h800v-500h-800Z"/></clipPath><clipPath id="d" clipPathUnits="userSpaceOnUse"><path d="M0 500h800V0H0Z"/></clipPath><clipPath id="e" clipPathUnits="userSpaceOnUse"><path d="M-522.069 197.288h800v-500h-800Z"/></clipPath><clipPath id="f" clipPathUnits="userSpaceOnUse"><path d="M-597.04 216.751h800v-500h-800Z"/></clipPath><clipPath id="g" clipPathUnits="userSpaceOnUse"><path d="M-276.746 262.521h800v-500h-800Z"/></clipPath><clipPath id="h" clipPathUnits="userSpaceOnUse"><path d="M-321.347 282.616h800v-500h-800Z"/></clipPath><clipPath id="i" clipPathUnits="userSpaceOnUse"><path d="M-394.138 262.521h800v-500h-800Z"/></clipPath><clipPath id="j" clipPathUnits="userSpaceOnUse"><path d="M-441.84 262.521h800v-500h-800Z"/></clipPath><clipPath id="k" clipPathUnits="userSpaceOnUse"><path d="M-505.616 262.521h800v-500h-800Z"/></clipPath><clipPath id="l" clipPathUnits="userSpaceOnUse"><path d="M-598.043 262.521h800v-500h-800Z"/></clipPath><clipPath id="m" clipPathUnits="userSpaceOnUse"><path d="M0 500h800V0H0Z"/></clipPath><clipPath id="n" clipPathUnits="userSpaceOnUse"><path d="M-666.865 262.521h800v-500h-800Z"/></clipPath><clipPath id="o" clipPathUnits="userSpaceOnUse"><path d="M-718.586 298.75h800v-500h-800Z"/></clipPath></defs><path d="m0 0 33.41-32.595L66.004 0Z" style="fill:#2e2f2e;fill-opacity:1;fill-rule:nonzero;stroke:none" transform="matrix(1.33333 0 0 -1.33333 0 98.94)"/><path d="m0 0-32.565-31.77L0-64.335Z" style="fill:#2e2f2e;fill-opacity:1;fill-rule:nonzero;stroke:none" transform="matrix(1.33333 0 0 -1.33333 92.668 0)"/><path d="M0 0v-64.335L32.563-31.77Z" style="fill:#2e2f2e;fill-opacity:1;fill-rule:nonzero;stroke:none" transform="matrix(1.33333 0 0 -1.33333 99.886 0)"/><path d="m0 0-33.41 32.595L-66.005 0Z" style="fill:#2e2f2e;fill-opacity:1;fill-rule:nonzero;stroke:none" transform="matrix(1.33333 0 0 -1.33333 192.553 91.72)"/><path d="M0 0h66.004L33.41 32.594Z" style="fill:#2e2f2e;fill-opacity:1;fill-rule:nonzero;stroke:none" transform="matrix(1.33333 0 0 -1.33333 0 91.72)"/><path d="m0 0 32.595-32.595L66.004 0Z" style="fill:#2e2f2e;fill-opacity:1;fill-rule:nonzero;stroke:none" transform="matrix(1.33333 0 0 -1.33333 104.547 98.94)"/><path d="m0 0-7.751 11.195h-8.555V0h-9.301v40.19H-8.21c10.736 0 17.454-5.569 17.454-14.583 0-6.029-3.044-10.451-8.268-12.69L9.988 0Zm-8.727 32.611h-7.579V18.602h7.579c5.683 0 8.553 2.641 8.553 7.005 0 4.421-2.87 7.004-8.553 7.004" clip-path="url(#a)" style="fill:#2e2f2e;fill-opacity:1;fill-rule:nonzero;stroke:none" transform="matrix(1.33333 0 0 -1.33333 318.816 54.504)"/><path d="M332.801 262.522h9.301v40.189h-9.301z" clip-path="url(#b)" style="fill:#2e2f2e;fill-opacity:1;fill-rule:nonzero;stroke:none" transform="matrix(1.33333 0 0 -1.33333 -64 404.534)"/><path d="m0 0 3.157 7.005c3.389-2.47 8.44-4.192 13.263-4.192 5.513 0 7.75 1.837 7.75 4.307C24.17 14.641.804 9.474.804 24.401c0 6.831 5.512 12.516 16.937 12.516 5.053 0 10.219-1.206 13.951-3.559l-2.871-7.062c-3.732 2.123-7.579 3.157-11.138 3.157-5.512 0-7.636-2.067-7.636-4.593 0-7.406 23.367-2.296 23.367-17.052 0-6.716-5.569-12.459-17.051-12.459C9.99-4.651 3.56-2.755 0 0" clip-path="url(#c)" style="fill:#2e2f2e;fill-opacity:1;fill-rule:nonzero;stroke:none" transform="matrix(1.33333 0 0 -1.33333 439.436 49.223)"/><path d="M446.461 262.522h9.301v40.189h-9.301z" clip-path="url(#d)" style="fill:#2e2f2e;fill-opacity:1;fill-rule:nonzero;stroke:none" transform="matrix(1.33333 0 0 -1.33333 -64 404.534)"/><path d="M0 0v-24.401L-19.978 0h-7.695v-40.189h9.186v24.401L1.55-40.189h7.635V0Z" clip-path="url(#e)" style="fill:#2e2f2e;fill-opacity:1;fill-rule:nonzero;stroke:none" transform="matrix(1.33333 0 0 -1.33333 632.091 .918)"/><path d="M0 0h8.497v-16.306c-4.421-3.331-10.506-5.11-16.248-5.11-12.63 0-21.933 8.671-21.933 20.785 0 12.113 9.303 20.781 22.104 20.781 7.063 0 12.92-2.409 16.824-6.946L3.272 7.692c-2.928 3.1-6.316 4.537-10.392 4.537-7.808 0-13.147-5.226-13.147-12.86 0-7.522 5.339-12.862 13.033-12.862 2.525 0 4.879.459 7.234 1.724z" clip-path="url(#f)" style="fill:#2e2f2e;fill-opacity:1;fill-rule:nonzero;stroke:none" transform="matrix(1.33333 0 0 -1.33333 732.052 26.869)"/><path d="m0 0-17.913-40.189h9.531l3.559 8.611h18.659l3.559-8.611h9.762L9.185 0Zm4.535-9.127 6.372-15.389H-1.837Z" clip-path="url(#g)" style="fill:#2e2f2e;fill-opacity:1;fill-rule:nonzero;stroke:none" transform="matrix(1.33333 0 0 -1.33333 304.995 87.896)"/><path d="M0 0c0 12.114 9.302 20.783 21.818 20.783 6.947 0 12.745-2.526 16.535-7.119l-5.971-5.511c-2.698 3.1-6.087 4.707-10.105 4.707-7.521 0-12.86-5.283-12.86-12.86 0-7.579 5.339-12.861 12.86-12.861 4.018 0 7.407 1.608 10.105 4.766l5.971-5.513c-3.79-4.649-9.588-7.177-16.593-7.177C9.302-20.785 0-12.114 0 0" clip-path="url(#h)" style="fill:#2e2f2e;fill-opacity:1;fill-rule:nonzero;stroke:none" transform="matrix(1.33333 0 0 -1.33333 364.462 114.688)"/><path d="m0 0-17.913-40.189h9.532l3.558 8.611h18.659l3.56-8.611h9.761L9.185 0Zm4.535-9.127 6.373-15.389H-1.837Z" clip-path="url(#i)" style="fill:#2e2f2e;fill-opacity:1;fill-rule:nonzero;stroke:none" transform="matrix(1.33333 0 0 -1.33333 461.517 87.896)"/><path d="M0 0h18.257c13.148 0 22.161-7.923 22.161-20.094S31.405-40.19 18.257-40.19H0Zm17.799-32.554c7.98 0 13.205 4.766 13.205 12.46 0 7.692-5.225 12.456-13.205 12.456H9.301v-24.916z" clip-path="url(#j)" style="fill:#2e2f2e;fill-opacity:1;fill-rule:nonzero;stroke:none" transform="matrix(1.33333 0 0 -1.33333 525.119 87.895)"/><path d="M0 0v-40.189h31.117v7.464H9.243v9.301h18.661v7.233H9.243v8.727h21.128V0Z" clip-path="url(#k)" style="fill:#2e2f2e;fill-opacity:1;fill-rule:nonzero;stroke:none" transform="matrix(1.33333 0 0 -1.33333 610.155 87.896)"/><path d="m0 0-14.812-24.974L-29.855 0h-7.693v-40.189h8.728v23.598l11.768-19.35h4.191l11.828 19.865.057-24.113H7.75L7.635 0Z" clip-path="url(#l)" style="fill:#2e2f2e;fill-opacity:1;fill-rule:nonzero;stroke:none" transform="matrix(1.33333 0 0 -1.33333 733.39 87.896)"/><path d="M631.677 197.29h9.301v40.189h-9.301z" clip-path="url(#m)" style="fill:#2e2f2e;fill-opacity:1;fill-rule:nonzero;stroke:none" transform="matrix(1.33333 0 0 -1.33333 -64 404.534)"/><path d="M0 0v-40.189h31.119v7.464H9.244v9.301h18.66v7.233H9.244v8.727h21.127V0Z" clip-path="url(#n)" style="fill:#2e2f2e;fill-opacity:1;fill-rule:nonzero;stroke:none" transform="matrix(1.33333 0 0 -1.33333 825.153 87.896)"/><path d="m0 0 3.157 7.005c3.388-2.469 8.44-4.192 13.263-4.192 5.511 0 7.75 1.837 7.75 4.307C24.17 14.641.804 9.474.804 24.401c0 6.833 5.512 12.516 16.937 12.516 5.051 0 10.219-1.206 13.95-3.559l-2.87-7.063c-3.732 2.124-7.579 3.158-11.138 3.158-5.512 0-7.636-2.067-7.636-4.593 0-7.406 23.367-2.296 23.367-17.052 0-6.716-5.569-12.458-17.051-12.458C9.99-4.65 3.56-2.755 0 0" clip-path="url(#o)" style="fill:#2e2f2e;fill-opacity:1;fill-rule:nonzero;stroke:none" transform="matrix(1.33333 0 0 -1.33333 894.115 136.2)"/></svg>