<?xml version="1.0" encoding="UTF-8" standalone="no"?>
<svg
   width="3033.692"
   height="1348.944"
   viewBox="0 0 802.664 356.908"
   version="1.1"
   id="svg10"
   sodipodi:docname="mentor.svg"
   inkscape:version="1.4 (e7c3feb1, 2024-10-09)"
   xmlns:inkscape="http://www.inkscape.org/namespaces/inkscape"
   xmlns:sodipodi="http://sodipodi.sourceforge.net/DTD/sodipodi-0.dtd"
   xmlns="http://www.w3.org/2000/svg"
   xmlns:svg="http://www.w3.org/2000/svg">
  <sodipodi:namedview
     id="namedview10"
     pagecolor="#ffffff"
     bordercolor="#666666"
     borderopacity="1.0"
     inkscape:showpageshadow="2"
     inkscape:pageopacity="0.0"
     inkscape:pagecheckerboard="0"
     inkscape:deskcolor="#d1d1d1"
     inkscape:zoom="0.34324944"
     inkscape:cx="1453.7533"
     inkscape:cy="868.1733"
     inkscape:window-width="1920"
     inkscape:window-height="1027"
     inkscape:window-x="0"
     inkscape:window-y="25"
     inkscape:window-maximized="0"
     inkscape:current-layer="g6" />
  <defs
     id="defs2">
    <marker
       id="b"
       markerHeight="1"
       markerWidth="1"
       orient="auto-start-reverse"
       preserveAspectRatio="xMidYMid"
       refX="0"
       refY="0"
       style="overflow:visible"
       viewBox="0 0 1 1">
      <path
         d="m1 0-3 3h-2l3-3-3-3h2z"
         style="fill:context-stroke;fill-rule:evenodd;stroke:none"
         id="path1" />
    </marker>
    <marker
       id="a"
       markerHeight="1"
       markerWidth="1"
       orient="auto-start-reverse"
       preserveAspectRatio="xMidYMid"
       refX="0"
       refY="0"
       style="overflow:visible"
       viewBox="0 0 1 1">
      <path
         d="m1 0-3 3h-2l3-3-3-3h2z"
         style="fill:context-stroke;fill-rule:evenodd;stroke:none"
         id="path2" />
    </marker>
  </defs>
  <path
     d="M30.361 345.98V43.793"
     style="fill:#f9f9f9;fill-opacity:1;stroke:#ffffff;stroke-width:2.50485;stroke-linecap:butt;stroke-linejoin:miter;stroke-dasharray:none;stroke-opacity:1;marker-end:url(#a)"
     id="path3" />
  <path
     d="M29.31 345.359h706.154"
     style="fill:none;stroke:#ffffff;stroke-width:2.50485;stroke-linecap:butt;stroke-linejoin:miter;stroke-dasharray:none;stroke-opacity:1;marker-end:url(#b)"
     id="path4" />
  <path
     d="m 33.570849,344.08029 c 0,0 25.972892,-55.87458 132.514241,-91.95676 71.87395,-24.34143 342.89173,-20.73099 510.17547,-21.68975"
     style="fill:none;stroke:#f0ba46;stroke-width:3.96874871;stroke-linecap:butt;stroke-linejoin:miter;stroke-dasharray:15.87499485,3.96874871;stroke-dashoffset:0;stroke-opacity:1"
     id="path5"
     sodipodi:nodetypes="csc" />
  <g
     style="fill:none;stroke:#f0ba46;stroke-width:2.64583;stroke-dasharray:none;stroke-opacity:1"
     id="g6">
    <path
       d="M 191.687,172.44 C 81.550145,183.13335 24.107,220.917 18.268,251.773"
       style="opacity:1;fill:none;fill-opacity:0.365854;stroke:#f0ba46;stroke-width:1.06523;stroke-linecap:butt;stroke-linejoin:miter;stroke-dasharray:none;stroke-opacity:1"
       transform="matrix(3.72572,0,0,3.72572,-35.265,-594.152)"
       id="path6"
       sodipodi:nodetypes="cc" />
  </g>
  <g
     aria-label="Self-directed learning"
     style="font-size:24.0757px;line-height:1.25;-inkscape-font-specification:'sans-serif, Normal';text-align:center;text-anchor:middle;fill:#f0ba46;stroke-width:0.605353"
     id="g7"
     transform="translate(30.832767,-47.790788)">
    <path
       d="m 504.225,203.165 q -0.626,0 -1.252,-0.096 -0.602,-0.096 -1.155,-0.361 -0.554,-0.289 -1.012,-0.698 -0.457,-0.434 -0.77,-0.963 -0.289,-0.554 -0.457,-1.156 -0.145,-0.602 -0.145,-1.228 v -0.048 h 2.432 v 0.024 q 0,0.482 0.144,0.94 0.169,0.457 0.482,0.818 0.337,0.337 0.794,0.505 0.458,0.145 0.94,0.145 0.48,0 0.962,-0.169 0.482,-0.192 0.795,-0.578 0.313,-0.386 0.457,-0.866 0.169,-0.482 0.169,-0.987 0,-0.578 -0.265,-1.132 -0.241,-0.554 -0.674,-0.963 -0.41,-0.41 -0.94,-0.674 -0.529,-0.289 -1.059,-0.554 -0.53,-0.265 -1.035,-0.554 -0.481,-0.313 -0.939,-0.674 -0.457,-0.385 -0.842,-0.842 -0.362,-0.458 -0.65,-0.987 -0.265,-0.53 -0.41,-1.108 -0.12,-0.578 -0.12,-1.156 0,-0.626 0.12,-1.227 0.145,-0.626 0.41,-1.18 0.288,-0.554 0.698,-1.011 0.433,-0.458 0.987,-0.747 0.554,-0.313 1.155,-0.433 0.626,-0.12 1.228,-0.12 0.626,0 1.228,0.12 0.602,0.096 1.132,0.385 0.53,0.265 0.963,0.698 0.433,0.434 0.698,0.987 0.289,0.53 0.433,1.132 0.144,0.602 0.145,1.204 v 0.024 h -2.432 v -0.024 q 0,-0.458 -0.12,-0.891 -0.12,-0.457 -0.41,-0.819 -0.288,-0.36 -0.746,-0.53 -0.433,-0.168 -0.89,-0.168 -0.458,0 -0.916,0.217 -0.457,0.193 -0.746,0.578 -0.265,0.385 -0.41,0.866 -0.12,0.458 -0.12,0.94 0,0.577 0.241,1.131 0.265,0.554 0.674,0.963 0.434,0.41 0.94,0.674 l 1.059,0.53 q 0.53,0.265 1.035,0.578 0.505,0.313 0.963,0.698 0.457,0.36 0.818,0.818 0.386,0.458 0.65,0.987 0.265,0.506 0.41,1.084 0.145,0.578 0.144,1.18 0,0.626 -0.144,1.252 -0.145,0.626 -0.434,1.203 -0.289,0.554 -0.746,1.012 -0.457,0.458 -1.035,0.746 -0.554,0.289 -1.18,0.385 -0.626,0.12 -1.252,0.12 m 12.11,0 q -0.65,0 -1.324,-0.12 -0.65,-0.12 -1.228,-0.433 -0.578,-0.313 -1.035,-0.795 -0.457,-0.505 -0.746,-1.083 -0.265,-0.602 -0.386,-1.252 -0.096,-0.674 -0.096,-1.324 v -3.13 q 0,-0.65 0.096,-1.3 0.12,-0.65 0.386,-1.252 0.289,-0.602 0.722,-1.084 0.457,-0.505 1.035,-0.818 0.578,-0.313 1.228,-0.434 0.65,-0.121 1.3,-0.12 0.65,10e-4 1.3,0.12 0.65,0.119 1.228,0.434 0.578,0.315 1.011,0.818 0.458,0.482 0.722,1.084 0.29,0.602 0.386,1.252 0.12,0.65 0.12,1.3 v 2.624 h -7.102 v 0.506 q 0,0.53 0.096,1.059 0.12,0.53 0.433,0.963 0.313,0.433 0.819,0.65 0.506,0.217 1.035,0.217 0.385,0 0.77,-0.072 0.386,-0.097 0.699,-0.313 0.337,-0.217 0.53,-0.554 0.216,-0.361 0.24,-0.747 h 2.432 q -0.048,0.554 -0.24,1.108 -0.17,0.53 -0.482,0.987 -0.313,0.457 -0.77,0.795 -0.458,0.337 -0.988,0.553 -0.505,0.217 -1.083,0.29 -0.554,0.071 -1.108,0.071 m -2.383,-7.632 h 4.67 v -0.505 q 0,-0.53 -0.12,-1.035 -0.096,-0.53 -0.41,-0.964 -0.288,-0.433 -0.794,-0.65 -0.481,-0.24 -1.01,-0.24 -0.53,0 -1.036,0.24 -0.482,0.217 -0.795,0.65 -0.289,0.434 -0.409,0.964 -0.096,0.505 -0.096,1.035 z m 10.16,7.44 v -2.119 h 3.178 v -13.458 h -2.841 v -2.119 h 5.248 v 15.577 h 2.841 v 2.119 z m 14.277,0 v -10.016 h -2.6 v -2.118 h 2.6 v -1.71 q 0,-0.505 0.048,-1.01 0.072,-0.507 0.264,-0.964 0.193,-0.481 0.506,-0.89 0.313,-0.409 0.746,-0.675 0.434,-0.289 0.915,-0.385 0.506,-0.12 1.011,-0.12 0.699,0 1.373,0.216 0.698,0.217 1.18,0.722 0.481,0.506 0.698,1.18 0.24,0.674 0.24,1.372 v 0.217 h -2.431 v -0.096 q 0,-0.24 -0.048,-0.506 -0.048,-0.265 -0.169,-0.481 -0.12,-0.241 -0.361,-0.361 -0.217,-0.145 -0.481,-0.145 -0.29,0 -0.53,0.217 -0.24,0.217 -0.361,0.505 -0.12,0.29 -0.169,0.602 -0.024,0.29 -0.024,0.602 v 1.71 h 3.684 v 2.118 h -3.684 v 10.016 z m 9.437,-7.127 v -2.118 h 9.149 v 2.118 z m 15.601,7.32 q -0.578,0 -1.155,-0.17 -0.578,-0.168 -1.036,-0.553 -0.457,-0.385 -0.77,-0.89 -0.289,-0.506 -0.482,-1.06 -0.168,-0.578 -0.24,-1.156 -0.072,-0.602 -0.072,-1.18 v -3.13 q 0,-0.577 0.072,-1.155 0.072,-0.602 0.24,-1.155 0.193,-0.578 0.482,-1.084 0.313,-0.505 0.77,-0.89 0.458,-0.386 1.036,-0.554 0.577,-0.169 1.155,-0.169 0.53,0 1.036,0.144 0.505,0.12 0.914,0.434 0.41,0.313 0.699,0.746 0.313,0.434 0.505,0.915 v -6.982 h 2.432 v 17.696 h -2.432 v -2.047 q -0.192,0.482 -0.505,0.915 -0.29,0.434 -0.699,0.747 -0.409,0.313 -0.914,0.433 -0.506,0.144 -1.036,0.144 m 0.987,-2.12 q 0.337,0 0.675,-0.096 0.337,-0.096 0.601,-0.313 0.265,-0.216 0.434,-0.505 0.192,-0.313 0.289,-0.626 0.096,-0.337 0.12,-0.674 0.048,-0.337 0.048,-0.674 v -3.13 q 0,-0.337 -0.048,-0.674 -0.024,-0.337 -0.12,-0.65 -0.097,-0.337 -0.29,-0.626 -0.168,-0.313 -0.433,-0.53 -0.264,-0.217 -0.601,-0.313 -0.338,-0.096 -0.675,-0.096 -0.53,0 -1.01,0.24 -0.482,0.217 -0.795,0.65 -0.29,0.434 -0.41,0.964 -0.096,0.505 -0.096,1.035 v 3.13 q 0,0.53 0.096,1.059 0.12,0.506 0.41,0.939 0.313,0.433 0.794,0.674 0.482,0.217 1.011,0.217 m 7.85,1.927 v -2.119 h 3.177 v -8.523 h -2.84 v -2.118 h 5.248 v 10.641 h 2.84 v 2.119 z m 4.212,-14.686 q -0.36,0 -0.722,-0.097 -0.361,-0.12 -0.626,-0.36 -0.24,-0.266 -0.361,-0.627 -0.096,-0.361 -0.096,-0.722 0,-0.361 0.096,-0.722 0.12,-0.361 0.361,-0.602 0.265,-0.265 0.626,-0.361 0.361,-0.12 0.722,-0.12 0.361,0 0.723,0.12 0.36,0.096 0.601,0.36 0.265,0.242 0.362,0.603 0.12,0.36 0.12,0.722 0,0.361 -0.12,0.722 -0.097,0.361 -0.362,0.626 -0.24,0.24 -0.601,0.361 -0.362,0.097 -0.723,0.097 m 8.884,14.686 v -12.76 h 2.432 v 2.84 q 0.144,-0.553 0.361,-1.083 0.217,-0.53 0.578,-0.963 0.361,-0.457 0.89,-0.722 0.53,-0.265 1.108,-0.265 0.433,0 0.867,0.144 0.457,0.12 0.794,0.434 0.337,0.289 0.554,0.698 0.217,0.41 0.313,0.843 0.12,0.433 0.169,0.89 0.048,0.434 0.048,0.891 h -2.432 q 0,-0.313 -0.048,-0.602 -0.024,-0.313 -0.169,-0.577 -0.144,-0.29 -0.433,-0.434 -0.265,-0.168 -0.554,-0.168 -0.433,0 -0.794,0.24 -0.361,0.217 -0.602,0.578 -0.217,0.361 -0.337,0.77 -0.12,0.409 -0.193,0.82 -0.073,0.411 -0.096,0.842 -0.024,0.41 -0.024,0.818 v 6.766 z m 15.24,0.192 q -0.65,0 -1.324,-0.12 -0.65,-0.12 -1.228,-0.433 -0.578,-0.313 -1.035,-0.795 -0.458,-0.505 -0.746,-1.083 -0.265,-0.602 -0.386,-1.252 -0.096,-0.674 -0.096,-1.324 v -3.13 q 0,-0.65 0.096,-1.3 0.12,-0.65 0.386,-1.252 0.288,-0.602 0.722,-1.084 0.457,-0.505 1.035,-0.818 0.578,-0.313 1.228,-0.434 0.65,-0.121 1.3,-0.12 0.65,10e-4 1.3,0.12 0.65,0.119 1.228,0.434 0.578,0.315 1.011,0.818 0.458,0.482 0.722,1.084 0.29,0.602 0.386,1.252 0.12,0.65 0.12,1.3 v 2.624 h -7.102 v 0.506 q 0,0.53 0.096,1.059 0.12,0.53 0.433,0.963 0.313,0.433 0.819,0.65 0.506,0.217 1.035,0.217 0.385,0 0.77,-0.072 0.386,-0.097 0.699,-0.313 0.337,-0.217 0.53,-0.554 0.216,-0.361 0.24,-0.747 h 2.432 q -0.048,0.554 -0.24,1.108 -0.17,0.53 -0.482,0.987 -0.313,0.457 -0.77,0.795 -0.458,0.337 -0.988,0.553 -0.506,0.217 -1.083,0.29 -0.554,0.071 -1.108,0.071 m -2.383,-7.632 h 4.67 v -0.505 q 0,-0.53 -0.12,-1.035 -0.096,-0.53 -0.41,-0.964 -0.288,-0.433 -0.794,-0.65 -0.481,-0.24 -1.011,-0.24 -0.53,0 -1.035,0.24 -0.482,0.217 -0.795,0.65 -0.289,0.434 -0.409,0.964 -0.096,0.505 -0.096,1.035 z m 14.3,7.632 q -0.65,0 -1.3,-0.12 -0.625,-0.12 -1.203,-0.433 -0.554,-0.337 -1.011,-0.819 -0.434,-0.506 -0.699,-1.083 -0.264,-0.602 -0.385,-1.252 -0.096,-0.65 -0.096,-1.3 v -3.13 q 0,-0.65 0.096,-1.3 0.12,-0.65 0.385,-1.228 0.265,-0.602 0.699,-1.084 0.457,-0.505 1.01,-0.818 0.579,-0.337 1.205,-0.458 0.65,-0.12 1.3,-0.12 0.626,0 1.227,0.12 0.602,0.097 1.156,0.362 0.554,0.264 0.987,0.698 0.458,0.433 0.747,0.987 0.288,0.53 0.433,1.131 0.144,0.602 0.144,1.204 v 0.048 h -2.431 v -0.024 q 0,-0.481 -0.145,-0.915 -0.12,-0.457 -0.433,-0.818 -0.313,-0.361 -0.77,-0.506 -0.434,-0.168 -0.915,-0.168 -0.506,0 -0.987,0.24 -0.482,0.217 -0.795,0.65 -0.289,0.434 -0.385,0.964 -0.096,0.505 -0.096,1.035 v 3.13 q 0,0.53 0.096,1.059 0.096,0.506 0.385,0.939 0.313,0.433 0.795,0.674 0.481,0.217 0.987,0.217 0.481,0 0.915,-0.145 0.457,-0.168 0.77,-0.53 0.313,-0.36 0.433,-0.794 0.145,-0.457 0.145,-0.939 v -0.024 h 2.431 v 0.048 q 0,0.602 -0.144,1.204 -0.145,0.602 -0.433,1.156 -0.29,0.53 -0.747,0.963 -0.433,0.433 -0.987,0.698 -0.554,0.265 -1.156,0.36 -0.601,0.121 -1.227,0.121 m 13.676,0 q -0.602,0 -1.204,-0.144 -0.578,-0.145 -1.06,-0.482 -0.481,-0.36 -0.842,-0.866 -0.337,-0.506 -0.53,-1.06 -0.192,-0.577 -0.265,-1.18 -0.072,-0.601 -0.072,-1.203 v -5.899 h -2.431 v -2.118 h 2.431 v -4.936 h 2.408 v 4.936 h 3.587 v 2.118 h -3.587 v 5.899 q 0,0.289 0.024,0.602 0.024,0.289 0.072,0.602 0.072,0.289 0.169,0.577 0.096,0.265 0.264,0.506 0.193,0.24 0.458,0.385 0.289,0.145 0.578,0.145 0.264,0 0.505,-0.097 0.265,-0.096 0.434,-0.264 0.192,-0.193 0.313,-0.434 0.12,-0.24 0.168,-0.481 0.072,-0.265 0.096,-0.53 0.049,-0.265 0.049,-0.53 v -0.12 h 2.407 v 0.241 q 0,0.553 -0.096,1.107 -0.097,0.554 -0.337,1.06 -0.217,0.505 -0.578,0.938 -0.361,0.434 -0.843,0.723 -0.457,0.289 -1.01,0.385 -0.555,0.12 -1.108,0.12 m 10.52,0 q -0.65,0 -1.323,-0.12 -0.65,-0.12 -1.228,-0.433 -0.578,-0.313 -1.036,-0.795 -0.457,-0.505 -0.746,-1.083 -0.265,-0.602 -0.385,-1.252 -0.096,-0.674 -0.096,-1.324 v -3.13 q 0,-0.65 0.096,-1.3 0.12,-0.65 0.385,-1.252 0.289,-0.602 0.722,-1.084 0.458,-0.505 1.036,-0.818 0.577,-0.313 1.227,-0.434 0.65,-0.12 1.3,-0.12 0.65,0 1.3,0.12 0.65,0.12 1.229,0.434 0.579,0.314 1.01,0.818 0.458,0.482 0.723,1.084 0.289,0.602 0.385,1.252 0.12,0.65 0.12,1.3 v 2.624 h -7.102 v 0.506 q 0,0.53 0.097,1.059 0.12,0.53 0.433,0.963 0.313,0.433 0.818,0.65 0.505,0.217 1.036,0.217 0.385,0 0.77,-0.072 0.385,-0.097 0.698,-0.313 0.337,-0.217 0.53,-0.554 0.217,-0.361 0.24,-0.747 h 2.432 q -0.048,0.554 -0.24,1.108 -0.169,0.53 -0.482,0.987 -0.313,0.457 -0.77,0.795 -0.457,0.338 -0.987,0.553 -0.506,0.217 -1.084,0.29 -0.554,0.071 -1.107,0.071 m -2.383,-7.632 H 639 v -0.505 q 0,-0.53 -0.12,-1.035 -0.096,-0.53 -0.409,-0.964 -0.289,-0.433 -0.794,-0.65 -0.482,-0.24 -1.011,-0.24 -0.53,0 -1.036,0.24 -0.481,0.217 -0.794,0.65 -0.29,0.434 -0.41,0.964 -0.096,0.505 -0.096,1.035 z m 13.362,7.632 q -0.578,0 -1.155,-0.168 -0.578,-0.169 -1.036,-0.554 -0.457,-0.385 -0.77,-0.89 -0.289,-0.506 -0.482,-1.06 -0.168,-0.578 -0.24,-1.156 -0.073,-0.602 -0.073,-1.18 v -3.13 q 0,-0.577 0.073,-1.155 0.072,-0.602 0.24,-1.155 0.193,-0.578 0.482,-1.084 0.313,-0.505 0.77,-0.89 0.458,-0.386 1.036,-0.554 0.577,-0.169 1.155,-0.169 0.53,0 1.035,0.144 0.506,0.12 0.915,0.434 0.41,0.313 0.699,0.746 0.313,0.434 0.505,0.915 v -6.982 h 2.432 v 17.696 h -2.432 v -2.047 q -0.192,0.482 -0.505,0.915 -0.29,0.434 -0.699,0.747 -0.409,0.313 -0.915,0.433 -0.505,0.144 -1.035,0.144 m 0.987,-2.118 q 0.337,0 0.674,-0.097 0.338,-0.096 0.602,-0.313 0.265,-0.216 0.434,-0.505 0.192,-0.313 0.289,-0.626 0.096,-0.337 0.12,-0.674 0.048,-0.337 0.048,-0.674 v -3.13 q 0,-0.337 -0.048,-0.674 -0.024,-0.337 -0.12,-0.65 -0.097,-0.337 -0.29,-0.626 -0.168,-0.313 -0.433,-0.53 -0.264,-0.217 -0.602,-0.313 -0.338,-0.096 -0.674,-0.096 -0.53,0 -1.01,0.24 -0.482,0.217 -0.795,0.65 -0.29,0.434 -0.41,0.964 -0.096,0.505 -0.096,1.035 v 3.13 q 0,0.53 0.096,1.059 0.12,0.506 0.41,0.939 0.313,0.433 0.794,0.674 0.482,0.217 1.011,0.217 M 530.13,233.205 v -2.118 h 3.179 v -13.459 h -2.841 v -2.118 h 5.248 v 15.577 h 2.841 v 2.118 z m 16.3,0.193 q -0.65,0 -1.324,-0.12 -0.65,-0.12 -1.228,-0.434 -0.578,-0.313 -1.035,-0.794 -0.458,-0.506 -0.747,-1.084 -0.265,-0.602 -0.385,-1.252 -0.096,-0.674 -0.096,-1.324 v -3.13 q 0,-0.65 0.096,-1.3 0.12,-0.65 0.385,-1.252 0.29,-0.602 0.722,-1.083 0.458,-0.506 1.036,-0.819 0.578,-0.313 1.228,-0.433 0.65,-0.12 1.3,-0.12 0.65,0 1.3,0.12 0.65,0.12 1.228,0.433 0.578,0.313 1.01,0.819 0.458,0.481 0.723,1.083 0.289,0.602 0.385,1.252 0.12,0.65 0.12,1.3 v 2.625 h -7.102 v 0.505 q 0,0.53 0.097,1.06 0.12,0.53 0.433,0.963 0.313,0.433 0.819,0.65 0.505,0.216 1.035,0.216 0.385,0 0.77,-0.072 0.385,-0.096 0.698,-0.313 0.338,-0.217 0.53,-0.554 0.217,-0.36 0.24,-0.746 h 2.433 q -0.049,0.554 -0.241,1.107 -0.169,0.53 -0.482,0.988 -0.313,0.458 -0.77,0.794 -0.457,0.336 -0.987,0.554 -0.506,0.217 -1.084,0.289 -0.553,0.072 -1.107,0.072 m -2.384,-7.632 h 4.671 v -0.506 q 0,-0.53 -0.12,-1.035 -0.097,-0.53 -0.41,-0.963 -0.289,-0.433 -0.794,-0.65 -0.482,-0.24 -1.011,-0.24 -0.53,0 -1.036,0.24 -0.481,0.217 -0.794,0.65 -0.289,0.433 -0.41,0.963 -0.096,0.506 -0.096,1.035 z m 13.001,7.632 q -0.481,0 -0.963,-0.096 -0.457,-0.073 -0.867,-0.313 -0.409,-0.265 -0.722,-0.626 -0.289,-0.361 -0.481,-0.795 -0.193,-0.457 -0.29,-0.915 -0.071,-0.481 -0.071,-0.939 0,-0.65 0.144,-1.276 0.169,-0.626 0.53,-1.131 0.385,-0.506 0.915,-0.843 0.553,-0.361 1.131,-0.554 0.602,-0.216 1.228,-0.288 0.65,-0.073 1.276,-0.073 h 1.685 v -1.107 q 0,-0.434 -0.144,-0.843 -0.12,-0.41 -0.458,-0.698 -0.313,-0.289 -0.746,-0.41 -0.41,-0.12 -0.818,-0.12 -0.41,0 -0.795,0.097 -0.385,0.072 -0.698,0.313 -0.313,0.216 -0.506,0.577 -0.168,0.362 -0.168,0.747 h -2.432 q 0,-0.554 0.169,-1.108 0.168,-0.553 0.481,-1.01 0.313,-0.482 0.746,-0.82 0.458,-0.337 0.988,-0.553 0.53,-0.216 1.083,-0.29 0.554,-0.071 1.132,-0.071 0.578,0 1.155,0.096 0.602,0.072 1.132,0.313 0.553,0.24 1.01,0.626 0.458,0.385 0.747,0.89 0.313,0.506 0.434,1.108 0.12,0.578 0.12,1.156 v 8.763 h -2.432 v -1.95 q -0.216,0.506 -0.578,0.94 -0.36,0.409 -0.842,0.697 -0.458,0.265 -1.011,0.386 -0.53,0.12 -1.084,0.12 m 0.963,-2.119 q 0.506,0 0.987,-0.144 0.506,-0.145 0.867,-0.458 0.361,-0.337 0.53,-0.818 0.168,-0.482 0.168,-0.987 v -1.228 h -1.685 q -0.313,0 -0.626,0.048 -0.313,0.024 -0.626,0.096 -0.289,0.073 -0.578,0.217 -0.289,0.12 -0.53,0.337 -0.216,0.217 -0.337,0.53 -0.096,0.289 -0.096,0.602 0,0.36 0.12,0.746 0.145,0.361 0.41,0.626 0.289,0.24 0.65,0.337 0.385,0.096 0.746,0.096 m 9.293,1.926 v -12.76 h 2.432 v 2.841 q 0.145,-0.554 0.361,-1.083 0.217,-0.53 0.578,-0.963 0.361,-0.458 0.89,-0.723 0.53,-0.264 1.108,-0.264 0.434,0 0.867,0.144 0.458,0.12 0.795,0.433 0.337,0.29 0.553,0.699 0.216,0.409 0.313,0.842 0.12,0.434 0.169,0.891 0.048,0.433 0.048,0.89 h -2.432 q 0,-0.312 -0.048,-0.601 -0.024,-0.313 -0.168,-0.578 -0.145,-0.289 -0.434,-0.433 -0.264,-0.169 -0.553,-0.169 -0.434,0 -0.795,0.241 -0.361,0.217 -0.602,0.578 -0.216,0.361 -0.337,0.77 -0.12,0.41 -0.192,0.819 -0.073,0.41 -0.097,0.843 -0.024,0.409 -0.024,0.818 v 6.765 z m 10.618,0 v -12.76 h 2.432 v 2.047 q 0.192,-0.482 0.481,-0.915 0.289,-0.433 0.698,-0.722 0.434,-0.313 0.94,-0.458 0.505,-0.144 1.01,-0.144 0.578,0 1.132,0.192 0.578,0.169 0.987,0.554 0.433,0.385 0.722,0.915 0.29,0.505 0.458,1.06 0.168,0.553 0.216,1.13 0.073,0.579 0.073,1.156 v 7.945 h -2.432 v -7.945 q 0,-0.337 -0.048,-0.674 -0.024,-0.337 -0.12,-0.65 -0.097,-0.337 -0.29,-0.626 -0.168,-0.313 -0.433,-0.53 -0.24,-0.216 -0.578,-0.312 -0.337,-0.097 -0.674,-0.097 -0.337,0 -0.674,0.097 -0.337,0.097 -0.602,0.313 -0.24,0.216 -0.433,0.53 -0.169,0.288 -0.265,0.625 -0.096,0.313 -0.144,0.65 -0.024,0.337 -0.024,0.674 v 7.945 z m 12.399,0 v -2.118 h 3.178 v -8.523 h -2.841 v -2.119 h 5.248 v 10.642 h 2.841 v 2.118 z m 4.213,-14.686 q -0.361,0 -0.722,-0.096 -0.361,-0.12 -0.626,-0.361 -0.24,-0.265 -0.361,-0.626 -0.097,-0.361 -0.097,-0.723 0,-0.36 0.097,-0.722 0.12,-0.36 0.36,-0.602 0.266,-0.265 0.627,-0.36 0.361,-0.121 0.722,-0.121 0.361,0 0.722,0.12 0.362,0.096 0.602,0.361 0.265,0.241 0.361,0.602 0.12,0.361 0.12,0.722 0,0.362 -0.12,0.723 -0.096,0.36 -0.36,0.626 -0.241,0.24 -0.603,0.36 -0.36,0.097 -0.722,0.097 m 7.464,14.686 v -12.76 h 2.431 v 2.047 q 0.193,-0.482 0.482,-0.915 0.289,-0.433 0.698,-0.722 0.433,-0.313 0.939,-0.458 0.505,-0.144 1.011,-0.144 0.578,0 1.132,0.192 0.577,0.169 0.987,0.554 0.433,0.385 0.722,0.915 0.289,0.505 0.457,1.06 0.169,0.553 0.217,1.13 0.072,0.579 0.072,1.156 v 7.945 h -2.431 v -7.945 q 0,-0.337 -0.048,-0.674 -0.025,-0.337 -0.12,-0.65 -0.097,-0.337 -0.29,-0.626 -0.168,-0.313 -0.433,-0.53 -0.24,-0.216 -0.578,-0.312 -0.337,-0.097 -0.674,-0.097 -0.337,0 -0.674,0.097 -0.337,0.097 -0.602,0.313 -0.24,0.216 -0.433,0.53 -0.169,0.288 -0.265,0.625 -0.097,0.313 -0.145,0.65 -0.024,0.337 -0.024,0.674 v 7.945 z m 16.54,5.128 q -0.578,0 -1.132,-0.096 -0.554,-0.072 -1.083,-0.313 -0.506,-0.216 -0.94,-0.578 -0.433,-0.36 -0.746,-0.842 -0.289,-0.482 -0.457,-1.036 -0.169,-0.53 -0.193,-1.083 h 2.432 q 0.024,0.385 0.168,0.746 0.169,0.386 0.458,0.626 0.313,0.265 0.698,0.362 0.385,0.097 0.795,0.096 0.505,0 0.987,-0.24 0.481,-0.242 0.746,-0.675 0.289,-0.433 0.385,-0.963 0.097,-0.506 0.097,-1.011 v -2.167 q -0.193,0.481 -0.506,0.915 -0.289,0.433 -0.698,0.746 -0.41,0.313 -0.915,0.434 -0.506,0.144 -1.035,0.144 -0.578,0 -1.156,-0.169 -0.578,-0.168 -1.035,-0.553 -0.458,-0.386 -0.77,-0.891 -0.29,-0.506 -0.482,-1.06 -0.169,-0.577 -0.241,-1.155 -0.072,-0.602 -0.072,-1.18 v -3.13 q 0,-0.577 0.072,-1.155 0.072,-0.602 0.24,-1.156 0.193,-0.578 0.482,-1.083 0.313,-0.506 0.77,-0.891 0.458,-0.385 1.036,-0.554 0.578,-0.168 1.156,-0.168 0.53,0 1.035,0.144 0.505,0.12 0.915,0.433 0.409,0.313 0.698,0.747 0.313,0.433 0.506,0.915 v -2.047 h 2.431 v 12.88 q 0,0.65 -0.12,1.277 -0.096,0.65 -0.361,1.252 -0.241,0.602 -0.674,1.083 -0.434,0.506 -1.012,0.819 -0.553,0.313 -1.203,0.433 -0.626,0.144 -1.276,0.144 m 0.048,-7.054 q 0.337,0 0.674,-0.096 0.337,-0.096 0.602,-0.313 0.265,-0.217 0.433,-0.506 0.193,-0.313 0.289,-0.626 0.096,-0.337 0.12,-0.674 0.048,-0.337 0.048,-0.674 v -3.13 q 0,-0.337 -0.048,-0.674 -0.024,-0.337 -0.12,-0.65 -0.096,-0.337 -0.289,-0.626 -0.168,-0.313 -0.433,-0.53 -0.265,-0.216 -0.602,-0.312 -0.337,-0.097 -0.674,-0.097 -0.53,0 -1.012,0.241 -0.481,0.217 -0.794,0.65 -0.289,0.433 -0.41,0.963 -0.096,0.506 -0.096,1.035 v 3.13 q 0,0.53 0.097,1.06 0.12,0.505 0.409,0.938 0.313,0.434 0.794,0.675 0.482,0.216 1.012,0.216"
       style="font-weight:600;font-family:Iosevka;-inkscape-font-specification:'Iosevka, Semi-Bold'"
       transform="translate(-8.936,28.513)"
       id="path7" />
  </g>
  <g
     aria-label="Rust Mentoring"
     style="font-size:26.9505px;line-height:1.25;-inkscape-font-specification:&quot;sans-serif, Normal&quot;;text-align:center;text-anchor:middle;fill:#f0ba46;stroke-width:.677639"
     id="g8">
    <path
       d="M282.093 33.301V13.493h5.255q.755 0 1.483.161.754.162 1.374.566.647.405 1.105 1.024.458.593.728 1.294.296.674.404 1.428.108.755.108 1.483 0 .916-.162 1.805-.161.89-.593 1.698-.43.782-1.132 1.375-.7.593-1.563.862l3.935 8.112h-2.83l-3.827-7.87h-1.563v7.87zm2.722-10.241h2.533q.405 0 .809-.135.404-.134.7-.404.297-.296.486-.674.188-.377.296-.754.108-.405.135-.809.054-.404.054-.835 0-.405-.054-.809-.027-.404-.135-.808-.108-.405-.296-.755-.189-.377-.485-.647-.297-.296-.701-.431t-.809-.135h-2.533zm14.769 10.457q-.647 0-1.294-.216-.62-.188-1.105-.62-.458-.43-.781-.997-.324-.593-.512-1.213-.189-.62-.27-1.266-.054-.647-.054-1.294v-8.894h2.722v8.894q0 .377.027.755.054.377.162.754.108.35.296.701.216.323.486.566.296.243.673.35.378.108.755.108t.755-.108.646-.35q.297-.243.485-.566.216-.35.324-.7.108-.378.135-.755.054-.378.054-.755v-8.894h2.722v14.284h-2.722v-2.29q-.216.538-.54 1.024-.323.485-.808.835-.458.323-1.024.485t-1.132.162m14.526 0q-.62 0-1.24-.081-.592-.08-1.185-.296-.566-.216-1.078-.593-.512-.378-.89-.863-.35-.512-.539-1.105-.188-.62-.188-1.24h2.722q0 .432.215.809.216.377.566.62.378.215.782.296.431.081.835.081.432 0 .863-.08.43-.082.781-.297.378-.243.593-.62.243-.377.243-.808t-.297-.782q-.27-.377-.673-.566-.378-.189-.809-.296l-.862-.216q-.405-.135-.836-.27-.404-.134-.808-.296-.405-.189-.809-.404-.377-.216-.728-.485-.323-.27-.62-.593-.296-.35-.485-.728-.188-.404-.296-.835-.108-.432-.108-.89 0-.593.162-1.186.189-.593.512-1.105.35-.512.835-.889.486-.377 1.052-.593.565-.242 1.158-.323.62-.081 1.24-.081.593 0 1.186.08.593.082 1.159.297.566.216 1.05.593.486.377.81.89.35.485.511 1.077.19.566.19 1.186H316.4q0-.404-.189-.754-.188-.378-.512-.593-.323-.243-.727-.324-.378-.08-.755-.08-.404 0-.808.08-.405.081-.728.324-.323.242-.54.62-.188.35-.188.754 0 .35.162.647t.404.512q.27.189.566.324.324.107.647.188h.027q.62.162 1.24.35.646.19 1.24.459.62.242 1.158.62.566.35.997.862.432.485.647 1.132.243.62.243 1.267 0 .62-.189 1.24-.189.592-.566 1.104-.35.512-.862.89-.512.377-1.105.593-.566.215-1.186.296t-1.267.08m15.281 0q-.674 0-1.347-.162-.647-.162-1.186-.539-.54-.404-.943-.97-.378-.566-.593-1.186-.216-.647-.297-1.32-.08-.674-.08-1.348v-6.603h-2.723v-2.372h2.722v-5.524h2.696v5.524h4.015v2.372h-4.015v6.603q0 .323.026.674.027.323.081.674.081.323.189.646.108.297.296.566.216.27.512.431.324.162.647.162.297 0 .566-.108.297-.107.485-.296.216-.216.35-.485.135-.27.19-.54.08-.296.107-.592.054-.297.054-.593v-.134h2.695v.269q0 .62-.108 1.24t-.377 1.185q-.243.566-.647 1.051t-.943.809q-.512.323-1.132.431-.62.135-1.24.135M247.866 67.144V47.335h2.776l2.884 10.592 2.883-10.592h2.776v19.809h-2.722v-3.962q0-1.482.054-2.964.054-1.483.162-2.938l.215-2.965q.135-1.482.19-2.937l-2.669 9.81h-1.779l-2.668-9.81q.054 1.455.162 2.937.135 1.483.242 2.965.108 1.455.162 2.938.054 1.482.054 2.964v3.962Zm19.189.215q-.728 0-1.483-.134-.727-.135-1.374-.485t-1.159-.89q-.512-.566-.835-1.213-.297-.673-.432-1.401-.107-.755-.107-1.482V58.25q0-.728.107-1.455.135-.728.432-1.402.323-.673.808-1.212.512-.566 1.16-.917.646-.35 1.374-.485.727-.135 1.455-.135t1.455.135 1.375.485q.646.35 1.132.917.512.539.808 1.212.323.674.431 1.402.135.727.135 1.455v2.938h-7.95v.566q0 .593.107 1.186.135.592.486 1.078.35.485.916.727.566.243 1.159.243.431 0 .862-.081.431-.108.782-.35.377-.243.593-.62.242-.405.27-.836h2.721q-.054.62-.27 1.24-.188.593-.538 1.105t-.863.89-1.105.62q-.566.242-1.213.323-.62.08-1.24.08m-2.668-8.543h5.228v-.566q0-.593-.135-1.159-.108-.593-.458-1.078-.323-.485-.89-.727-.538-.27-1.131-.27t-1.159.27q-.539.242-.89.727-.323.485-.458 1.078-.107.566-.107 1.16zm10.969 8.328V52.86h2.722v2.29q.215-.538.539-1.023.323-.485.781-.809.485-.35 1.051-.512t1.132-.162q.647 0 1.267.216.647.189 1.105.62.485.431.808 1.024.324.566.512 1.186.189.62.243 1.267.08.646.08 1.293v8.894h-2.721V58.25q0-.377-.054-.754-.027-.378-.135-.728-.108-.377-.323-.7-.19-.351-.486-.594-.269-.242-.646-.35-.378-.108-.755-.108t-.755.108-.673.35q-.27.243-.485.593-.19.324-.297.7-.108.351-.162.729-.026.377-.026.754v8.894Zm20.347.215q-.674 0-1.347-.161-.647-.162-1.186-.54-.54-.404-.943-.97-.378-.565-.593-1.185-.216-.647-.297-1.32-.08-.675-.08-1.348v-6.603h-2.723V52.86h2.722v-5.525h2.695v5.525h4.016v2.372h-4.016v6.603q0 .323.027.673.027.324.081.674.08.323.189.647.108.296.296.566.216.27.512.431.324.162.647.162.297 0 .566-.108.297-.108.485-.296.216-.216.35-.486.135-.27.19-.539.08-.296.107-.593.054-.296.054-.592v-.135h2.695v.269q0 .62-.108 1.24t-.377 1.186q-.243.566-.647 1.05-.404.486-.943.81-.512.323-1.132.43-.62.135-1.24.135m11.724 0q-.728 0-1.456-.134-.727-.135-1.374-.485t-1.16-.89q-.484-.566-.808-1.24-.296-.673-.43-1.401-.109-.728-.109-1.455V58.25q0-.728.108-1.455.135-.728.431-1.402.324-.673.809-1.212.512-.566 1.159-.917.647-.35 1.374-.485t1.456-.135 1.455.135 1.374.485 1.132.917q.512.539.809 1.212.323.674.431 1.402.135.727.135 1.455v3.504q0 .727-.135 1.455-.108.728-.431 1.401-.297.674-.809 1.24-.485.54-1.132.89t-1.374.485q-.728.134-1.455.134m0-2.371q.593 0 1.132-.243.565-.27.889-.754.35-.486.458-1.051.135-.593.135-1.186V58.25q0-.593-.135-1.159-.108-.593-.458-1.078-.324-.485-.89-.727-.538-.27-1.131-.27t-1.16.27q-.538.242-.889.727-.323.485-.458 1.078-.108.566-.108 1.16v3.503q0 .593.108 1.186.135.565.458 1.05.35.486.89.755.566.243 1.159.243m9.944 2.156V52.86h2.722v3.18q.162-.62.405-1.213.242-.592.646-1.078.405-.512.998-.808.592-.297 1.24-.297.484 0 .97.162.512.135.889.485.377.324.62.782.242.458.35.943.135.485.189.997.054.485.054.997h-2.722q0-.35-.054-.673-.027-.35-.189-.647-.162-.324-.485-.485-.296-.189-.62-.189-.485 0-.89.27-.403.242-.673.646-.243.405-.377.863-.135.458-.216.916t-.108.943q-.027.459-.027.917v7.573Zm12.29 0v-2.372h3.557v-9.54h-3.18V52.86h5.875v11.912h3.18v2.372Zm4.716-16.44q-.404 0-.808-.108-.405-.135-.701-.404-.27-.297-.404-.7-.108-.405-.108-.81 0-.404.108-.808.134-.404.404-.674.296-.296.7-.404.405-.135.81-.135.403 0 .808.135.404.108.673.404.297.27.405.674.134.404.134.809 0 .404-.134.808-.108.404-.405.7-.27.27-.673.405-.405.108-.809.108m8.355 16.44V52.86h2.722v2.29q.215-.538.539-1.023.323-.485.781-.809.485-.35 1.051-.512t1.132-.162q.647 0 1.267.216.647.189 1.105.62.485.431.808 1.024.324.566.513 1.186.188.62.242 1.267.08.646.08 1.293v8.894h-2.721V58.25q0-.377-.054-.754-.027-.378-.135-.728-.108-.377-.323-.7-.189-.351-.485-.594-.27-.242-.647-.35t-.755-.108-.754.108q-.378.108-.674.35-.27.243-.485.593-.189.324-.297.7-.107.351-.161.729-.027.377-.027.754v8.894Zm18.515 5.74q-.647 0-1.267-.108-.62-.08-1.213-.35-.566-.242-1.05-.647-.486-.404-.836-.943-.324-.539-.512-1.159-.189-.593-.216-1.213h2.722q.027.432.189.836.188.431.512.7.35.297.781.405t.89.108q.566 0 1.105-.27t.835-.755q.324-.485.431-1.078.108-.565.108-1.131v-2.426q-.215.539-.566 1.024-.323.485-.781.836-.458.35-1.024.485-.566.161-1.16.161-.646 0-1.293-.188-.647-.189-1.159-.62t-.862-.997q-.324-.566-.54-1.186-.188-.647-.269-1.294-.08-.673-.08-1.32V58.25q0-.647.08-1.293.081-.674.27-1.294.215-.647.539-1.213.35-.566.862-.997t1.16-.62 1.293-.189q.593 0 1.159.162.566.135 1.024.485t.781.836q.35.485.566 1.024V52.86h2.722v14.419q0 .727-.135 1.428-.107.728-.404 1.401-.27.674-.754 1.213-.486.566-1.132.916-.62.35-1.348.486-.7.161-1.428.161m.054-7.896q.377 0 .754-.108.378-.108.674-.35.296-.243.485-.566.216-.35.324-.701.107-.377.134-.755.054-.377.054-.754V58.25q0-.377-.054-.754-.027-.378-.134-.728-.108-.377-.324-.7-.189-.351-.485-.594-.296-.242-.674-.35-.377-.108-.754-.108-.593 0-1.132.27-.54.242-.89.727-.323.485-.458 1.078-.108.566-.108 1.16v3.503q0 .593.108 1.186.135.565.458 1.05.35.486.89.755.539.243 1.132.243"
       style="font-weight:600;font-family:Iosevka;-inkscape-font-specification:&quot;Iosevka, Semi-Bold&quot;"
       transform="translate(-8.936 28.513)"
       id="path8" />
  </g>
  <path
     d="M761.136 356.908q-.636 0-1.272-.153-.61-.152-1.119-.508-.509-.382-.89-.916-.356-.534-.56-1.119-.203-.61-.28-1.246-.075-.636-.075-1.271v-6.23h-2.569v-2.239h2.569v-5.213h2.543v5.213h3.789v2.238h-3.79v6.23q0 .306.026.636.025.306.076.636.077.305.178.61.102.28.28.534.203.255.483.407.305.153.61.153.28 0 .535-.102.28-.101.457-.28.204-.203.331-.457.127-.255.178-.509.076-.28.102-.56.05-.28.05-.559v-.127h2.544v.254q0 .585-.102 1.17t-.356 1.119q-.229.534-.61.992-.382.458-.89.763-.484.305-1.069.407-.584.127-1.17.127m6.612-.204v-2.237h3.356v-9.003h-3v-2.238h5.543v11.24h3.001v2.238zm4.45-15.512q-.382 0-.763-.102-.381-.127-.661-.381-.254-.28-.382-.662-.101-.381-.101-.763 0-.381.101-.763.128-.381.382-.635.28-.28.661-.382.381-.127.763-.127.381 0 .763.127.381.102.636.382.28.254.381.635.127.382.127.763 0 .382-.127.763-.102.382-.381.662-.255.254-.636.381-.382.102-.763.102m7.375 15.512v-13.478h2.263v1.17q.127-.28.305-.534.178-.28.407-.458.255-.203.56-.28.305-.101.635-.101.382 0 .738.152.381.127.661.407t.432.636q.179.356.28.737.102-.381.255-.737.178-.356.432-.636.28-.28.636-.407.381-.152.763-.152.406 0 .788.152.381.153.636.458.28.28.432.661.178.356.28.738.101.381.127.788.05.382.05.788v10.096h-2.263v-10.096q0-.254-.05-.508-.026-.28-.128-.509-.101-.254-.33-.407-.204-.178-.458-.178-.28 0-.509.178-.203.153-.305.407-.101.23-.152.509-.026.254-.026.508v10.096h-2.238v-10.096q0-.254-.05-.508-.026-.28-.128-.509-.101-.254-.33-.407-.204-.178-.483-.178-.255 0-.484.178-.203.153-.305.407-.102.23-.152.509-.026.254-.026.508v10.096zm18.107.204q-.687 0-1.4-.127-.686-.127-1.296-.458-.61-.33-1.094-.84-.483-.533-.788-1.144-.28-.635-.407-1.322-.102-.712-.102-1.399v-3.306q0-.686.102-1.373.127-.687.407-1.322.305-.636.763-1.145.483-.534 1.093-.864.61-.331 1.297-.458t1.374-.127 1.373.127 1.297.458 1.068.864q.483.509.763 1.145.305.635.407 1.322.127.687.127 1.373v2.772h-7.502v.534q0 .56.102 1.12.127.559.457 1.016.33.458.865.687t1.094.229q.406 0 .813-.076.407-.102.738-.33.356-.23.56-.586.228-.381.254-.788h2.568q-.05.585-.254 1.17-.178.56-.509 1.042-.33.483-.814.84-.483.356-1.042.584-.534.23-1.145.306-.585.076-1.17.076m-2.518-8.062h4.933v-.534q0-.56-.127-1.093-.101-.56-.432-1.017-.305-.458-.84-.687-.508-.254-1.067-.254-.56 0-1.094.254-.508.229-.84.687-.304.457-.431 1.017-.102.534-.102 1.093z"
     aria-label="time"
     style="font-weight:600;font-size:25.4307px;line-height:1.25;font-family:Iosevka;-inkscape-font-specification:'Iosevka, Semi-Bold';text-align:center;text-anchor:middle;fill:#ffffff;stroke-width:0.264583;fill-opacity:1"
     id="path9" />
  <path
     d="M4.832 19.53q-.585 0-1.17-.076-.56-.076-1.119-.28-.534-.203-1.017-.559t-.84-.814q-.33-.483-.508-1.042Q0 16.174 0 15.589h2.569q0 .407.203.763t.534.585q.356.203.737.28.407.076.789.076.407 0 .814-.076.407-.077.737-.28.356-.229.56-.585.228-.356.228-.763t-.28-.737q-.254-.357-.635-.535-.356-.178-.763-.28l-.814-.203q-.381-.127-.788-.254-.382-.127-.763-.28-.381-.178-.763-.381-.356-.204-.687-.458-.305-.254-.584-.56-.28-.33-.458-.686-.178-.382-.28-.788t-.102-.84q0-.56.153-1.119.178-.56.483-1.042.33-.483.788-.84.458-.355.992-.559.534-.229 1.094-.305.585-.076 1.17-.076.559 0 1.119.076t1.093.28.992.56q.458.355.763.838.33.458.483 1.018.178.534.178 1.119H6.993q0-.382-.178-.713-.178-.356-.483-.559-.305-.229-.686-.305-.356-.076-.712-.076-.382 0-.763.076-.382.076-.687.305t-.509.585q-.178.33-.178.712 0 .33.153.61t.381.483q.255.178.534.306.306.101.61.178h.026q.585.152 1.17.33.61.178 1.17.433.585.228 1.093.584.534.331.941.814.407.458.61 1.068.23.585.23 1.196 0 .584-.178 1.17-.179.559-.535 1.042-.33.483-.813.84-.483.355-1.043.559-.534.203-1.119.28-.585.076-1.195.076m8.341-.203V.636h2.543v11.138l4.07-5.925h2.949l-4.476 6.154 4.476 7.324h-2.874l-2.34-3.789-.838-1.373-.967 1.297v3.865zm12.69 0V17.09h3.357V8.087h-3V5.849h5.543v11.24h3v2.238zm4.45-15.512q-.381 0-.763-.102-.381-.127-.66-.382-.255-.28-.382-.66-.102-.382-.102-.764 0-.381.102-.763.127-.381.381-.635.28-.28.661-.382.382-.127.763-.127.382 0 .763.127.382.102.636.382.28.254.382.635.127.382.127.763 0 .382-.127.763-.102.382-.382.661-.254.255-.636.382-.381.102-.763.102m8.265 15.512V17.09h3.357V2.874h-3V.636h5.543v16.453h3.001v2.238zm12.716 0V17.09h3.357V2.874H51.65V.636h5.544v16.453h3v2.238z"
     aria-label="skill"
     style="font-weight:600;font-size:25.4307px;line-height:1.25;font-family:Iosevka;-inkscape-font-specification:'Iosevka, Semi-Bold';text-align:center;text-anchor:middle;fill:#ffffff;stroke-width:0.264583;fill-opacity:1"
     id="path10" />
</svg>
