<svg xmlns="http://www.w3.org/2000/svg" width="3033.692" height="1348.944" viewBox="0 0 802.664 356.908"><defs><marker id="b" markerHeight="1" markerWidth="1" orient="auto-start-reverse" preserveAspectRatio="xMidYMid" refX="0" refY="0" style="overflow:visible" viewBox="0 0 1 1"><path d="m1 0-3 3h-2l3-3-3-3h2z" style="fill:context-stroke;fill-rule:evenodd;stroke:none"/></marker><marker id="a" markerHeight="1" markerWidth="1" orient="auto-start-reverse" preserveAspectRatio="xMidYMid" refX="0" refY="0" style="overflow:visible" viewBox="0 0 1 1"><path d="m1 0-3 3h-2l3-3-3-3h2z" style="fill:context-stroke;fill-rule:evenodd;stroke:none"/></marker></defs><path d="M30.361 345.98V43.793" style="fill:#f9f9f9;fill-opacity:1;stroke:#fff;stroke-width:2.50485;stroke-linecap:butt;stroke-linejoin:miter;stroke-dasharray:none;stroke-opacity:1;marker-end:url(#a)"/><path d="M29.31 345.359h706.154" style="fill:none;stroke:#fff;stroke-width:2.50485;stroke-linecap:butt;stroke-linejoin:miter;stroke-dasharray:none;stroke-opacity:1;marker-end:url(#b)"/><path d="M33.57 344.08s25.974-55.874 132.515-91.956c71.874-24.342 342.892-20.731 510.176-21.69" style="fill:none;stroke:#f0ba46;stroke-width:3.96874871;stroke-linecap:butt;stroke-linejoin:miter;stroke-dasharray:15.87499485,3.96874871;stroke-dashoffset:0;stroke-opacity:1;opacity:.6"/><g style="fill:none;stroke:#f0ba46;stroke-width:2.64583;stroke-dasharray:none;stroke-opacity:1"><path d="M191.687 172.44C81.55 183.133 24.107 220.917 18.268 251.773" style="opacity:1;fill:none;fill-opacity:.365854;stroke:#f0ba46;stroke-width:1.06523;stroke-linecap:butt;stroke-linejoin:miter;stroke-dasharray:none;stroke-opacity:1" transform="translate(-35.265 -594.152)scale(3.72572)"/></g><g aria-label="Self-directed learning" style="font-size:24.0757px;line-height:1.25;-inkscape-font-specification:&quot;sans-serif, Normal&quot;;text-align:center;text-anchor:middle;fill:#f0ba46;stroke-width:.605353;opacity:.6"><path d="M504.225 203.165q-.626 0-1.252-.096-.602-.096-1.155-.361-.554-.289-1.012-.698-.457-.434-.77-.963-.289-.554-.457-1.156-.145-.602-.145-1.228v-.048h2.432v.024q0 .482.144.94.169.457.482.818.337.337.794.505.458.145.94.145.48 0 .962-.169.482-.192.795-.578t.457-.866q.169-.482.169-.987 0-.578-.265-1.132-.241-.554-.674-.963-.41-.41-.94-.674-.529-.289-1.059-.554t-1.035-.554q-.481-.313-.939-.674-.457-.385-.842-.842-.362-.458-.65-.987-.265-.53-.41-1.108-.12-.578-.12-1.156 0-.626.12-1.227.145-.626.41-1.18.288-.554.698-1.011.433-.458.987-.747.554-.313 1.155-.433.626-.12 1.228-.12.626 0 1.228.12.602.096 1.132.385.53.265.963.698.433.434.698.987.289.53.433 1.132t.145 1.204v.024h-2.432v-.024q0-.458-.12-.891-.12-.457-.41-.819-.288-.36-.746-.53-.433-.168-.89-.168-.458 0-.916.217-.457.193-.746.578-.265.385-.41.866-.12.458-.12.94 0 .577.241 1.131.265.554.674.963.434.41.94.674l1.059.53q.53.265 1.035.578t.963.698q.457.36.818.818.386.458.65.987.265.506.41 1.084t.144 1.18q0 .626-.144 1.252-.145.626-.434 1.203-.289.554-.746 1.012t-1.035.746q-.554.289-1.18.385-.626.12-1.252.12m12.11 0q-.65 0-1.324-.12-.65-.12-1.228-.433t-1.035-.795q-.457-.505-.746-1.083-.265-.602-.386-1.252-.096-.674-.096-1.324v-3.13q0-.65.096-1.3.12-.65.386-1.252.289-.602.722-1.084.457-.505 1.035-.818t1.228-.434 1.3-.12 1.3.12 1.228.434 1.011.818q.458.482.722 1.084.29.602.386 1.252.12.65.12 1.3v2.624h-7.102v.506q0 .53.096 1.059.12.53.433.963t.819.65 1.035.217q.385 0 .77-.072.386-.097.699-.313.337-.217.53-.554.216-.361.24-.747h2.432q-.048.554-.24 1.108-.17.53-.482.987-.313.457-.77.795-.458.337-.988.553-.505.217-1.083.29-.554.071-1.108.071m-2.383-7.632h4.67v-.505q0-.53-.12-1.035-.096-.53-.41-.964-.288-.433-.794-.65-.481-.24-1.01-.24-.53 0-1.036.24-.482.217-.795.65-.289.434-.409.964-.096.505-.096 1.035zm10.16 7.44v-2.119h3.178v-13.458h-2.841v-2.119h5.248v15.577h2.841v2.119zm14.277 0v-10.016h-2.6v-2.118h2.6v-1.71q0-.505.048-1.01.072-.507.264-.964.193-.481.506-.89t.746-.675q.434-.289.915-.385.506-.12 1.011-.12.699 0 1.373.216.698.217 1.18.722.481.506.698 1.18.24.674.24 1.372v.217h-2.431v-.096q0-.24-.048-.506-.048-.265-.169-.481-.12-.241-.361-.361-.217-.145-.481-.145-.29 0-.53.217t-.361.505q-.12.29-.169.602-.024.29-.024.602v1.71h3.684v2.118h-3.684v10.016zm9.437-7.127v-2.118h9.149v2.118zm15.601 7.32q-.578 0-1.155-.17-.578-.168-1.036-.553-.457-.385-.77-.89-.289-.506-.482-1.06-.168-.578-.24-1.156-.072-.602-.072-1.18v-3.13q0-.577.072-1.155.072-.602.24-1.155.193-.578.482-1.084.313-.505.77-.89.458-.386 1.036-.554.577-.169 1.155-.169.53 0 1.036.144.505.12.914.434.41.313.699.746.313.434.505.915v-6.982h2.432v17.696h-2.432v-2.047q-.192.482-.505.915-.29.434-.699.747t-.914.433q-.506.144-1.036.144m.987-2.12q.337 0 .675-.096.337-.096.601-.313.265-.216.434-.505.192-.313.289-.626.096-.337.12-.674.048-.337.048-.674v-3.13q0-.337-.048-.674-.024-.337-.12-.65-.097-.337-.29-.626-.168-.313-.433-.53-.264-.217-.601-.313-.338-.096-.675-.096-.53 0-1.01.24-.482.217-.795.65-.29.434-.41.964-.096.505-.096 1.035v3.13q0 .53.096 1.059.12.506.41.939.313.433.794.674.482.217 1.011.217m7.85 1.927v-2.119h3.177v-8.523h-2.84v-2.118h5.248v10.641h2.84v2.119zm4.212-14.686q-.36 0-.722-.097-.361-.12-.626-.36-.24-.266-.361-.627-.096-.361-.096-.722t.096-.722q.12-.361.361-.602.265-.265.626-.361.361-.12.722-.12t.723.12q.36.096.601.36.265.242.362.603.12.36.12.722 0 .361-.12.722-.097.361-.362.626-.24.24-.601.361-.362.097-.723.097m8.884 14.686v-12.76h2.432v2.84q.144-.553.361-1.083t.578-.963q.361-.457.89-.722.53-.265 1.108-.265.433 0 .867.144.457.12.794.434.337.289.554.698.217.41.313.843.12.433.169.89.048.434.048.891h-2.432q0-.313-.048-.602-.024-.313-.169-.577-.144-.29-.433-.434-.265-.168-.554-.168-.433 0-.794.24-.361.217-.602.578-.217.361-.337.77t-.193.82-.096.842q-.024.41-.024.818v6.766zm15.24.192q-.65 0-1.324-.12-.65-.12-1.228-.433t-1.035-.795q-.458-.505-.746-1.083-.265-.602-.386-1.252-.096-.674-.096-1.324v-3.13q0-.65.096-1.3.12-.65.386-1.252.288-.602.722-1.084.457-.505 1.035-.818t1.228-.434 1.3-.12 1.3.12 1.228.434 1.011.818q.458.482.722 1.084.29.602.386 1.252.12.65.12 1.3v2.624h-7.102v.506q0 .53.096 1.059.12.53.433.963t.819.65 1.035.217q.385 0 .77-.072.386-.097.699-.313.337-.217.53-.554.216-.361.24-.747h2.432q-.048.554-.24 1.108-.17.53-.482.987-.313.457-.77.795-.458.337-.988.553-.506.217-1.083.29-.554.071-1.108.071m-2.383-7.632h4.67v-.505q0-.53-.12-1.035-.096-.53-.41-.964-.288-.433-.794-.65-.481-.24-1.011-.24t-1.035.24q-.482.217-.795.65-.289.434-.409.964-.096.505-.096 1.035zm14.3 7.632q-.65 0-1.3-.12-.625-.12-1.203-.433-.554-.337-1.011-.819-.434-.506-.699-1.083-.264-.602-.385-1.252-.096-.65-.096-1.3v-3.13q0-.65.096-1.3.12-.65.385-1.228.265-.602.699-1.084.457-.505 1.01-.818.579-.337 1.205-.458.65-.12 1.3-.12.626 0 1.227.12.602.097 1.156.362.554.264.987.698.458.433.747.987.288.53.433 1.131.144.602.144 1.204v.048h-2.431v-.024q0-.481-.145-.915-.12-.457-.433-.818t-.77-.506q-.434-.168-.915-.168-.506 0-.987.24-.482.217-.795.65-.289.434-.385.964-.096.505-.096 1.035v3.13q0 .53.096 1.059.096.506.385.939.313.433.795.674.481.217.987.217.481 0 .915-.145.457-.168.77-.53.313-.36.433-.794.145-.457.145-.939v-.024h2.431v.048q0 .602-.144 1.204-.145.602-.433 1.156-.29.53-.747.963-.433.433-.987.698t-1.156.36q-.601.121-1.227.121m13.676 0q-.602 0-1.204-.144-.578-.145-1.06-.482-.481-.36-.842-.866-.337-.506-.53-1.06-.192-.577-.265-1.18-.072-.601-.072-1.203v-5.899h-2.431v-2.118h2.431v-4.936h2.408v4.936h3.587v2.118h-3.587v5.899q0 .289.024.602.024.289.072.602.072.289.169.577.096.265.264.506.193.24.458.385.289.145.578.145.264 0 .505-.097.265-.096.434-.264.192-.193.313-.434.12-.24.168-.481.072-.265.096-.53.049-.265.049-.53v-.12h2.407v.241q0 .553-.096 1.107-.097.554-.337 1.06-.217.505-.578.938-.361.434-.843.723-.457.289-1.01.385-.555.12-1.108.12m10.52 0q-.65 0-1.323-.12-.65-.12-1.228-.433t-1.036-.795q-.457-.505-.746-1.083-.265-.602-.385-1.252-.096-.674-.096-1.324v-3.13q0-.65.096-1.3.12-.65.385-1.252.289-.602.722-1.084.458-.505 1.036-.818.577-.313 1.227-.434.65-.12 1.3-.12t1.3.12 1.229.434 1.01.818q.458.482.723 1.084.289.602.385 1.252.12.65.12 1.3v2.624h-7.102v.506q0 .53.097 1.059.12.53.433.963t.818.65 1.036.217q.385 0 .77-.072.385-.097.698-.313.337-.217.53-.554.217-.361.24-.747h2.432q-.048.554-.24 1.108-.169.53-.482.987t-.77.795-.987.553q-.506.217-1.084.29-.554.071-1.107.071m-2.383-7.632H639v-.505q0-.53-.12-1.035-.096-.53-.409-.964-.289-.433-.794-.65-.482-.24-1.011-.24-.53 0-1.036.24-.481.217-.794.65-.29.434-.41.964-.096.505-.096 1.035zm13.362 7.632q-.578 0-1.155-.168-.578-.169-1.036-.554-.457-.385-.77-.89-.289-.506-.482-1.06-.168-.578-.24-1.156-.073-.602-.073-1.18v-3.13q0-.577.073-1.155.072-.602.24-1.155.193-.578.482-1.084.313-.505.77-.89.458-.386 1.036-.554.577-.169 1.155-.169.53 0 1.035.144.506.12.915.434.41.313.699.746.313.434.505.915v-6.982h2.432v17.696h-2.432v-2.047q-.192.482-.505.915-.29.434-.699.747t-.915.433q-.505.144-1.035.144m.987-2.118q.337 0 .674-.097.338-.096.602-.313.265-.216.434-.505.192-.313.289-.626.096-.337.12-.674.048-.337.048-.674v-3.13q0-.337-.048-.674-.024-.337-.12-.65-.097-.337-.29-.626-.168-.313-.433-.53-.264-.217-.602-.313t-.674-.096q-.53 0-1.01.24-.482.217-.795.65-.29.434-.41.964-.096.505-.096 1.035v3.13q0 .53.096 1.059.12.506.41.939.313.433.794.674.482.217 1.011.217M530.13 233.205v-2.118h3.179v-13.459h-2.841v-2.118h5.248v15.577h2.841v2.118zm16.3.193q-.65 0-1.324-.12-.65-.12-1.228-.434-.578-.313-1.035-.794-.458-.506-.747-1.084-.265-.602-.385-1.252-.096-.674-.096-1.324v-3.13q0-.65.096-1.3.12-.65.385-1.252.29-.602.722-1.083.458-.506 1.036-.819t1.228-.433 1.3-.12 1.3.12 1.228.433 1.01.819q.458.481.723 1.083.289.602.385 1.252.12.65.12 1.3v2.625h-7.102v.505q0 .53.097 1.06.12.53.433.963t.819.65q.505.216 1.035.216.385 0 .77-.072.385-.096.698-.313.338-.217.53-.554.217-.36.24-.746h2.433q-.049.554-.241 1.107-.169.53-.482.988t-.77.794-.987.554q-.506.217-1.084.289-.553.072-1.107.072m-2.384-7.632h4.671v-.506q0-.53-.12-1.035-.097-.53-.41-.963-.289-.433-.794-.65-.482-.24-1.011-.24-.53 0-1.036.24-.481.217-.794.65-.289.433-.41.963-.096.506-.096 1.035zm13.001 7.632q-.481 0-.963-.096-.457-.073-.867-.313-.409-.265-.722-.626-.289-.361-.481-.795-.193-.457-.29-.915-.071-.481-.071-.939 0-.65.144-1.276.169-.626.53-1.131.385-.506.915-.843.553-.361 1.131-.554.602-.216 1.228-.288.65-.073 1.276-.073h1.685v-1.107q0-.434-.144-.843-.12-.41-.458-.698-.313-.289-.746-.41-.41-.12-.818-.12-.41 0-.795.097-.385.072-.698.313-.313.216-.506.577-.168.362-.168.747h-2.432q0-.554.169-1.108.168-.553.481-1.01.313-.482.746-.82.458-.337.988-.553t1.083-.29q.554-.071 1.132-.071t1.155.096q.602.072 1.132.313.553.24 1.01.626.458.385.747.89.313.506.434 1.108.12.578.12 1.156v8.763h-2.432v-1.95q-.216.506-.578.94-.36.409-.842.697-.458.265-1.011.386-.53.12-1.084.12m.963-2.119q.506 0 .987-.144.506-.145.867-.458.361-.337.53-.818.168-.482.168-.987v-1.228h-1.685q-.313 0-.626.048-.313.024-.626.096-.289.073-.578.217-.289.12-.53.337-.216.217-.337.53-.096.289-.096.602 0 .36.12.746.145.361.41.626.289.24.65.337.385.096.746.096m9.293 1.926v-12.76h2.432v2.841q.145-.554.361-1.083.217-.53.578-.963.361-.458.89-.723.53-.264 1.108-.264.434 0 .867.144.458.12.795.433.337.29.553.699t.313.842q.12.434.169.891.048.433.048.89h-2.432q0-.312-.048-.601-.024-.313-.168-.578-.145-.289-.434-.433-.264-.169-.553-.169-.434 0-.795.241-.361.217-.602.578-.216.361-.337.77-.12.41-.192.819-.073.41-.097.843-.024.409-.024.818v6.765zm10.618 0v-12.76h2.432v2.047q.192-.482.481-.915t.698-.722q.434-.313.94-.458.505-.144 1.01-.144.578 0 1.132.192.578.169.987.554.433.385.722.915.29.505.458 1.06.168.553.216 1.13.073.579.073 1.156v7.945h-2.432v-7.945q0-.337-.048-.674-.024-.337-.12-.65-.097-.337-.29-.626-.168-.313-.433-.53-.24-.216-.578-.312-.337-.097-.674-.097t-.674.097-.602.313q-.24.216-.433.53-.169.288-.265.625-.096.313-.144.65-.024.337-.024.674v7.945zm12.399 0v-2.118h3.178v-8.523h-2.841v-2.119h5.248v10.642h2.841v2.118zm4.213-14.686q-.361 0-.722-.096-.361-.12-.626-.361-.24-.265-.361-.626-.097-.361-.097-.723 0-.36.097-.722.12-.36.36-.602.266-.265.627-.36.361-.121.722-.121t.722.12q.362.096.602.361.265.241.361.602.12.361.12.722 0 .362-.12.723-.096.36-.36.626-.241.24-.603.36-.36.097-.722.097m7.464 14.686v-12.76h2.431v2.047q.193-.482.482-.915t.698-.722q.433-.313.939-.458.505-.144 1.011-.144.578 0 1.132.192.577.169.987.554.433.385.722.915.289.505.457 1.06.169.553.217 1.13.072.579.072 1.156v7.945h-2.431v-7.945q0-.337-.048-.674-.025-.337-.12-.65-.097-.337-.29-.626-.168-.313-.433-.53-.24-.216-.578-.312-.337-.097-.674-.097t-.674.097-.602.313q-.24.216-.433.53-.169.288-.265.625-.097.313-.145.65-.024.337-.024.674v7.945zm16.54 5.128q-.578 0-1.132-.096-.554-.072-1.083-.313-.506-.216-.94-.578-.433-.36-.746-.842-.289-.482-.457-1.036-.169-.53-.193-1.083h2.432q.024.385.168.746.169.386.458.626.313.265.698.362t.795.096q.505 0 .987-.24.481-.242.746-.675.289-.433.385-.963.097-.506.097-1.011v-2.167q-.193.481-.506.915-.289.433-.698.746-.41.313-.915.434-.506.144-1.035.144-.578 0-1.156-.169-.578-.168-1.035-.553-.458-.386-.77-.891-.29-.506-.482-1.06-.169-.577-.241-1.155-.072-.602-.072-1.18v-3.13q0-.577.072-1.155.072-.602.24-1.156.193-.578.482-1.083.313-.506.77-.891.458-.385 1.036-.554.578-.168 1.156-.168.53 0 1.035.144.505.12.915.433.409.313.698.747.313.433.506.915v-2.047h2.431v12.88q0 .65-.12 1.277-.096.65-.361 1.252-.241.602-.674 1.083-.434.506-1.012.819-.553.313-1.203.433-.626.144-1.276.144m.048-7.054q.337 0 .674-.096t.602-.313.433-.506q.193-.313.289-.626.096-.337.12-.674.048-.337.048-.674v-3.13q0-.337-.048-.674-.024-.337-.12-.65-.096-.337-.289-.626-.168-.313-.433-.53-.265-.216-.602-.312-.337-.097-.674-.097-.53 0-1.012.241-.481.217-.794.65-.289.433-.41.963-.096.506-.096 1.035v3.13q0 .53.097 1.06.12.505.409.938.313.434.794.675.482.216 1.012.216" style="font-weight:600;font-family:Iosevka;-inkscape-font-specification:&quot;Iosevka, Semi-Bold&quot;" transform="translate(21.897 -19.278)"/></g><g aria-label="Rust Mentoring" style="font-size:26.9505px;line-height:1.25;-inkscape-font-specification:&quot;sans-serif, Normal&quot;;text-align:center;text-anchor:middle;fill:#f0ba46;stroke-width:.677639"><path d="M282.093 33.301V13.493h5.255q.755 0 1.483.161.754.162 1.374.566.647.405 1.105 1.024.458.593.728 1.294.296.674.404 1.428.108.755.108 1.483 0 .916-.162 1.805-.161.89-.593 1.698-.43.782-1.132 1.375-.7.593-1.563.862l3.935 8.112h-2.83l-3.827-7.87h-1.563v7.87zm2.722-10.241h2.533q.405 0 .809-.135.404-.134.7-.404.297-.296.486-.674.188-.377.296-.754.108-.405.135-.809.054-.404.054-.835 0-.405-.054-.809-.027-.404-.135-.808-.108-.405-.296-.755-.189-.377-.485-.647-.297-.296-.701-.431t-.809-.135h-2.533zm14.769 10.457q-.647 0-1.294-.216-.62-.188-1.105-.62-.458-.43-.781-.997-.324-.593-.512-1.213-.189-.62-.27-1.266-.054-.647-.054-1.294v-8.894h2.722v8.894q0 .377.027.755.054.377.162.754.108.35.296.701.216.323.486.566.296.243.673.35.378.108.755.108t.755-.108.646-.35q.297-.243.485-.566.216-.35.324-.7.108-.378.135-.755.054-.378.054-.755v-8.894h2.722v14.284h-2.722v-2.29q-.216.538-.54 1.024-.323.485-.808.835-.458.323-1.024.485t-1.132.162m14.526 0q-.62 0-1.24-.081-.592-.08-1.185-.296-.566-.216-1.078-.593-.512-.378-.89-.863-.35-.512-.539-1.105-.188-.62-.188-1.24h2.722q0 .432.215.809.216.377.566.62.378.215.782.296.431.081.835.081.432 0 .863-.08.43-.082.781-.297.378-.243.593-.62.243-.377.243-.808t-.297-.782q-.27-.377-.673-.566-.378-.189-.809-.296l-.862-.216q-.405-.135-.836-.27-.404-.134-.808-.296-.405-.189-.809-.404-.377-.216-.728-.485-.323-.27-.62-.593-.296-.35-.485-.728-.188-.404-.296-.835-.108-.432-.108-.89 0-.593.162-1.186.189-.593.512-1.105.35-.512.835-.889.486-.377 1.052-.593.565-.242 1.158-.323.62-.081 1.24-.081.593 0 1.186.08.593.082 1.159.297.566.216 1.05.593.486.377.81.89.35.485.511 1.077.19.566.19 1.186H316.4q0-.404-.189-.754-.188-.378-.512-.593-.323-.243-.727-.324-.378-.08-.755-.08-.404 0-.808.08-.405.081-.728.324-.323.242-.54.62-.188.35-.188.754 0 .35.162.647t.404.512q.27.189.566.324.324.107.647.188h.027q.62.162 1.24.35.646.19 1.24.459.62.242 1.158.62.566.35.997.862.432.485.647 1.132.243.62.243 1.267 0 .62-.189 1.24-.189.592-.566 1.104-.35.512-.862.89-.512.377-1.105.593-.566.215-1.186.296t-1.267.08m15.281 0q-.674 0-1.347-.162-.647-.162-1.186-.539-.54-.404-.943-.97-.378-.566-.593-1.186-.216-.647-.297-1.32-.08-.674-.08-1.348v-6.603h-2.723v-2.372h2.722v-5.524h2.696v5.524h4.015v2.372h-4.015v6.603q0 .323.026.674.027.323.081.674.081.323.189.646.108.297.296.566.216.27.512.431.324.162.647.162.297 0 .566-.108.297-.107.485-.296.216-.216.35-.485.135-.27.19-.54.08-.296.107-.592.054-.297.054-.593v-.134h2.695v.269q0 .62-.108 1.24t-.377 1.185q-.243.566-.647 1.051t-.943.809q-.512.323-1.132.431-.62.135-1.24.135m-81.524 33.628V47.335h2.776l2.884 10.592 2.883-10.592h2.776v19.809h-2.722v-3.962q0-1.482.054-2.964.054-1.483.162-2.938l.215-2.965q.135-1.482.19-2.937l-2.669 9.81h-1.779l-2.668-9.81q.054 1.455.162 2.937.135 1.483.242 2.965.108 1.455.162 2.938.054 1.482.054 2.964v3.962Zm19.189.215q-.728 0-1.483-.134-.727-.135-1.374-.485t-1.159-.89q-.512-.566-.835-1.213-.297-.673-.432-1.401-.107-.755-.107-1.482V58.25q0-.728.107-1.455.135-.728.432-1.402.323-.673.808-1.212.512-.566 1.16-.917.646-.35 1.374-.485.727-.135 1.455-.135t1.455.135 1.375.485q.646.35 1.132.917.512.539.808 1.212.323.674.431 1.402.135.727.135 1.455v2.938h-7.95v.566q0 .593.107 1.186.135.592.486 1.078.35.485.916.727.566.243 1.159.243.431 0 .862-.081.431-.108.782-.35.377-.243.593-.62.242-.405.27-.836h2.721q-.054.62-.27 1.24-.188.593-.538 1.105t-.863.89-1.105.62q-.566.242-1.213.323-.62.08-1.24.08m-2.668-8.543h5.228v-.566q0-.593-.135-1.159-.108-.593-.458-1.078-.323-.485-.89-.727-.538-.27-1.131-.27t-1.159.27q-.539.242-.89.727-.323.485-.458 1.078-.107.566-.107 1.16zm10.969 8.328V52.86h2.722v2.29q.215-.538.539-1.023.323-.485.781-.809.485-.35 1.051-.512t1.132-.162q.647 0 1.267.216.647.189 1.105.62.485.431.808 1.024.324.566.512 1.186.189.62.243 1.267.08.646.08 1.293v8.894h-2.721V58.25q0-.377-.054-.754-.027-.378-.135-.728-.108-.377-.323-.7-.19-.351-.486-.594-.269-.242-.646-.35-.378-.108-.755-.108t-.755.108-.673.35q-.27.243-.485.593-.19.324-.297.7-.108.351-.162.729-.026.377-.026.754v8.894Zm20.347.215q-.674 0-1.347-.161-.647-.162-1.186-.54-.54-.404-.943-.97-.378-.565-.593-1.185-.216-.647-.297-1.32-.08-.675-.08-1.348v-6.603h-2.723V52.86h2.722v-5.525h2.695v5.525h4.016v2.372h-4.016v6.603q0 .323.027.673.027.324.081.674.08.323.189.647.108.296.296.566.216.27.512.431.324.162.647.162.297 0 .566-.108.297-.108.485-.296.216-.216.35-.486.135-.27.19-.539.08-.296.107-.593.054-.296.054-.592v-.135h2.695v.269q0 .62-.108 1.24t-.377 1.186q-.243.566-.647 1.05-.404.486-.943.81-.512.323-1.132.43-.62.135-1.24.135m11.724 0q-.728 0-1.456-.134-.727-.135-1.374-.485t-1.16-.89q-.484-.566-.808-1.24-.296-.673-.43-1.401-.109-.728-.109-1.455V58.25q0-.728.108-1.455.135-.728.431-1.402.324-.673.809-1.212.512-.566 1.159-.917.647-.35 1.374-.485t1.456-.135 1.455.135 1.374.485 1.132.917q.512.539.809 1.212.323.674.431 1.402.135.727.135 1.455v3.504q0 .727-.135 1.455-.108.728-.431 1.401-.297.674-.809 1.24-.485.54-1.132.89t-1.374.485q-.728.134-1.455.134m0-2.371q.593 0 1.132-.243.565-.27.889-.754.35-.486.458-1.051.135-.593.135-1.186V58.25q0-.593-.135-1.159-.108-.593-.458-1.078-.324-.485-.89-.727-.538-.27-1.131-.27t-1.16.27q-.538.242-.889.727-.323.485-.458 1.078-.108.566-.108 1.16v3.503q0 .593.108 1.186.135.565.458 1.05.35.486.89.755.566.243 1.159.243m9.944 2.156V52.86h2.722v3.18q.162-.62.405-1.213.242-.592.646-1.078.405-.512.998-.808.592-.297 1.24-.297.484 0 .97.162.512.135.889.485.377.324.62.782.242.458.35.943.135.485.189.997.054.485.054.997h-2.722q0-.35-.054-.673-.027-.35-.189-.647-.162-.324-.485-.485-.296-.189-.62-.189-.485 0-.89.27-.403.242-.673.646-.243.405-.377.863-.135.458-.216.916t-.108.943q-.027.459-.027.917v7.573Zm12.29 0v-2.372h3.557v-9.54h-3.18V52.86h5.875v11.912h3.18v2.372Zm4.716-16.44q-.404 0-.808-.108-.405-.135-.701-.404-.27-.297-.404-.7-.108-.405-.108-.81 0-.404.108-.808.134-.404.404-.674.296-.296.7-.404.405-.135.81-.135.403 0 .808.135.404.108.673.404.297.27.405.674.134.404.134.809 0 .404-.134.808-.108.404-.405.7-.27.27-.673.405-.405.108-.809.108m8.355 16.44V52.86h2.722v2.29q.215-.538.539-1.023.323-.485.781-.809.485-.35 1.051-.512t1.132-.162q.647 0 1.267.216.647.189 1.105.62.485.431.808 1.024.324.566.513 1.186.188.62.242 1.267.08.646.08 1.293v8.894h-2.721V58.25q0-.377-.054-.754-.027-.378-.135-.728-.108-.377-.323-.7-.189-.351-.485-.594-.27-.242-.647-.35t-.755-.108-.754.108q-.378.108-.674.35-.27.243-.485.593-.189.324-.297.7-.107.351-.161.729-.027.377-.027.754v8.894Zm18.515 5.74q-.647 0-1.267-.108-.62-.08-1.213-.35-.566-.242-1.05-.647-.486-.404-.836-.943-.324-.539-.512-1.159-.189-.593-.216-1.213h2.722q.027.432.189.836.188.431.512.7.35.297.781.405t.89.108q.566 0 1.105-.27t.835-.755q.324-.485.431-1.078.108-.565.108-1.131v-2.426q-.215.539-.566 1.024-.323.485-.781.836-.458.35-1.024.485-.566.161-1.16.161-.646 0-1.293-.188-.647-.189-1.159-.62t-.862-.997q-.324-.566-.54-1.186-.188-.647-.269-1.294-.08-.673-.08-1.32V58.25q0-.647.08-1.293.081-.674.27-1.294.215-.647.539-1.213.35-.566.862-.997t1.16-.62 1.293-.189q.593 0 1.159.162.566.135 1.024.485t.781.836q.35.485.566 1.024V52.86h2.722v14.419q0 .727-.135 1.428-.107.728-.404 1.401-.27.674-.754 1.213-.486.566-1.132.916-.62.35-1.348.486-.7.161-1.428.161m.054-7.896q.377 0 .754-.108.378-.108.674-.35.296-.243.485-.566.216-.35.324-.701.107-.377.134-.755.054-.377.054-.754V58.25q0-.377-.054-.754-.027-.378-.134-.728-.108-.377-.324-.7-.189-.351-.485-.594-.296-.242-.674-.35-.377-.108-.754-.108-.593 0-1.132.27-.54.242-.89.727-.323.485-.458 1.078-.108.566-.108 1.16v3.503q0 .593.108 1.186.135.565.458 1.05.35.486.89.755.539.243 1.132.243" style="font-weight:600;font-family:Iosevka;-inkscape-font-specification:&quot;Iosevka, Semi-Bold&quot;" transform="translate(-8.936 28.513)"/></g><path d="M761.136 356.908q-.636 0-1.272-.153-.61-.152-1.119-.508-.509-.382-.89-.916-.356-.534-.56-1.119-.203-.61-.28-1.246-.075-.636-.075-1.271v-6.23h-2.569v-2.239h2.569v-5.213h2.543v5.213h3.789v2.238h-3.79v6.23q0 .306.026.636.025.306.076.636.077.305.178.61.102.28.28.534.203.255.483.407.305.153.61.153.28 0 .535-.102.28-.101.457-.28.204-.203.331-.457.127-.255.178-.509.076-.28.102-.56.05-.28.05-.559v-.127h2.544v.254q0 .585-.102 1.17t-.356 1.119q-.229.534-.61.992-.382.458-.89.763-.484.305-1.069.407-.584.127-1.17.127m6.612-.204v-2.237h3.356v-9.003h-3v-2.238h5.543v11.24h3.001v2.238zm4.45-15.512q-.382 0-.763-.102-.381-.127-.661-.381-.254-.28-.382-.662-.101-.381-.101-.763 0-.381.101-.763.128-.381.382-.635.28-.28.661-.382.381-.127.763-.127.381 0 .763.127.381.102.636.382.28.254.381.635.127.382.127.763 0 .382-.127.763-.102.382-.381.662-.255.254-.636.381-.382.102-.763.102m7.375 15.512v-13.478h2.263v1.17q.127-.28.305-.534.178-.28.407-.458.255-.203.56-.28.305-.101.635-.101.382 0 .738.152.381.127.661.407t.432.636q.179.356.28.737.102-.381.255-.737.178-.356.432-.636.28-.28.636-.407.381-.152.763-.152.406 0 .788.152.381.153.636.458.28.28.432.661.178.356.28.738.101.381.127.788.05.382.05.788v10.096h-2.263v-10.096q0-.254-.05-.508-.026-.28-.128-.509-.101-.254-.33-.407-.204-.178-.458-.178-.28 0-.509.178-.203.153-.305.407-.101.23-.152.509-.026.254-.026.508v10.096h-2.238v-10.096q0-.254-.05-.508-.026-.28-.128-.509-.101-.254-.33-.407-.204-.178-.483-.178-.255 0-.484.178-.203.153-.305.407-.102.23-.152.509-.026.254-.026.508v10.096zm18.107.204q-.687 0-1.4-.127-.686-.127-1.296-.458-.61-.33-1.094-.84-.483-.533-.788-1.144-.28-.635-.407-1.322-.102-.712-.102-1.399v-3.306q0-.686.102-1.373.127-.687.407-1.322.305-.636.763-1.145.483-.534 1.093-.864.61-.331 1.297-.458t1.374-.127 1.373.127 1.297.458 1.068.864q.483.509.763 1.145.305.635.407 1.322.127.687.127 1.373v2.772h-7.502v.534q0 .56.102 1.12.127.559.457 1.016.33.458.865.687t1.094.229q.406 0 .813-.076.407-.102.738-.33.356-.23.56-.586.228-.381.254-.788h2.568q-.05.585-.254 1.17-.178.56-.509 1.042-.33.483-.814.84-.483.356-1.042.584-.534.23-1.145.306-.585.076-1.17.076m-2.518-8.062h4.933v-.534q0-.56-.127-1.093-.101-.56-.432-1.017-.305-.458-.84-.687-.508-.254-1.067-.254-.56 0-1.094.254-.508.229-.84.687-.304.457-.431 1.017-.102.534-.102 1.093z" aria-label="time" style="font-weight:600;font-size:25.4307px;line-height:1.25;font-family:Iosevka;-inkscape-font-specification:&quot;Iosevka, Semi-Bold&quot;;text-align:center;text-anchor:middle;fill:#fff;stroke-width:.264583;fill-opacity:1"/><path d="M4.832 19.53q-.585 0-1.17-.076-.56-.076-1.119-.28-.534-.203-1.017-.559t-.84-.814q-.33-.483-.508-1.042Q0 16.174 0 15.589h2.569q0 .407.203.763t.534.585q.356.203.737.28.407.076.789.076.407 0 .814-.076.407-.077.737-.28.356-.229.56-.585.228-.356.228-.763t-.28-.737q-.254-.357-.635-.535-.356-.178-.763-.28l-.814-.203q-.381-.127-.788-.254-.382-.127-.763-.28-.381-.178-.763-.381-.356-.204-.687-.458-.305-.254-.584-.56-.28-.33-.458-.686-.178-.382-.28-.788t-.102-.84q0-.56.153-1.119.178-.56.483-1.042.33-.483.788-.84.458-.355.992-.559.534-.229 1.094-.305.585-.076 1.17-.076.559 0 1.119.076t1.093.28.992.56.763.838q.33.458.483 1.018.178.534.178 1.119H6.993q0-.382-.178-.713-.178-.356-.483-.559-.305-.229-.686-.305-.356-.076-.712-.076-.382 0-.763.076-.382.076-.687.305t-.509.585q-.178.33-.178.712 0 .33.153.61t.381.483q.255.178.534.306.306.101.61.178h.026q.585.152 1.17.33.61.178 1.17.433.585.228 1.093.584.534.331.941.814.407.458.61 1.068.23.585.23 1.196 0 .584-.178 1.17-.179.559-.535 1.042-.33.483-.813.84-.483.355-1.043.559-.534.203-1.119.28-.585.076-1.195.076m8.341-.203V.636h2.543v11.138l4.07-5.925h2.949l-4.476 6.154 4.476 7.324h-2.874l-2.34-3.789-.838-1.373-.967 1.297v3.865zm12.69 0V17.09h3.357V8.087h-3V5.849h5.543v11.24h3v2.238zm4.45-15.512q-.381 0-.763-.102-.381-.127-.66-.382-.255-.28-.382-.66-.102-.382-.102-.764 0-.381.102-.763.127-.381.381-.635.28-.28.661-.382.382-.127.763-.127.382 0 .763.127.382.102.636.382.28.254.382.635.127.382.127.763 0 .382-.127.763-.102.382-.382.661-.254.255-.636.382-.381.102-.763.102m8.265 15.512V17.09h3.357V2.874h-3V.636h5.543v16.453h3.001v2.238zm12.716 0V17.09h3.357V2.874H51.65V.636h5.544v16.453h3v2.238z" aria-label="skill" style="font-weight:600;font-size:25.4307px;line-height:1.25;font-family:Iosevka;-inkscape-font-specification:&quot;Iosevka, Semi-Bold&quot;;text-align:center;text-anchor:middle;fill:#fff;stroke-width:.264583;fill-opacity:1"/></svg>