<svg xmlns="http://www.w3.org/2000/svg" xml:space="preserve" viewBox="0 0 782.665 394.506"><g transform="translate(874.903 -265.774)scale(2.39566)"><path fill="#e13924" d="M-152.396 251.641c-.315-.314-.187-4.744.23-7.946.223-1.717.71-4.908 1.082-7.09.372-2.184.72-4.399.775-4.924s.58-3.187 1.167-5.916 1.067-5.048 1.067-5.153-.282-.341-.628-.526c-.565-.303-1.077-.136-5.15 1.675-11.826 5.26-24.745 8.491-38.804 9.708-5.342.462-17.26.394-23.151-.132-14.227-1.27-28.486-4.419-41.54-9.174-1.964-.716-3.734-1.301-3.933-1.301-.461 0-.36.434.949 4.1 5.031 14.091 7.953 25.677 6.673 26.468-.7.433-4.156-2.603-8.416-7.395-6.683-7.516-11.683-13.946-12.98-16.69-1.629-3.448-1.982-7.252-.945-10.19.221-.627.37-1.157.333-1.18-1.192-.713-3.217-2.446-4.586-3.924-1.347-1.455-2.104-2.608-3.21-4.892-1.194-2.465-1.531-2.96-1.927-2.835-.93.295-4.103-.405-5.957-1.315-5.663-2.778-9.392-9.289-9.392-16.398 0-4.317 1.194-7.764 3.627-10.47 1.1-1.224 3.177-2.818 3.378-2.593.475.53 4.744 7.7 6.488 10.897 1.237 2.267 2.323 4.126 2.412 4.13.49.022 3.7-8.864 4.096-11.335.097-.607.268-1.162.38-1.23.313-.194 2.767 2.613 3.648 4.172 3.578 6.33 3.451 14.258-.312 19.496-.883 1.229-.884 1.236-.534 2.605.78 3.045 3.103 6.21 5.488 7.476l1.14.604 1.168-.8c.642-.44 1.444-.886 1.782-.992.785-.246.749-.33-1.664-3.82-1.54-2.227-1.993-3.09-1.993-3.796 0-1.449.581-1.75 4.844-2.518 3.776-.679 3.84-.702 4.23-1.52.384-.805.35-.939-1.164-4.474-.858-2.004-1.56-3.856-1.56-4.114s.26-.8.58-1.206l.578-.736 4.006.165 4.006.166.601-.814.602-.813-.838-3.688c-.46-2.029-.8-4-.754-4.38.045-.38.41-.936.812-1.234l.73-.543 3.636.848c2 .466 3.823.848 4.052.847.23 0 .686-.286 1.014-.635.582-.62.591-.728.413-4.564-.177-3.784-.162-3.956.395-4.657.368-.463.831-.728 1.275-.728.384 0 2.216.72 4.073 1.6 3.306 1.566 3.392 1.59 4.174 1.185.9-.465.863-.346 1.58-5.034.463-3.037.605-3.509 1.214-4.035.379-.327.913-.595 1.187-.595s1.95 1.082 3.722 2.405l3.224 2.404.926-.354c.881-.337.984-.52 2.183-3.87.693-1.933 1.47-3.749 1.73-4.034.283-.314.81-.52 1.333-.52.752 0 1.156.319 3.11 2.448a242 242 0 0 1 2.732 3.014c.381.442.695.539 1.434.44.895-.121 1.05-.306 2.916-3.477 3.082-5.237 3.713-5.253 6.776-.167 1.05 1.742 1.942 3.244 1.985 3.34.042.094.512.213 1.043.264.932.088 1.062-.015 3.648-2.885 2.438-2.706 2.766-2.977 3.6-2.977.59 0 1.08.189 1.369.525.247.289 1.004 2.104 1.683 4.035 1.191 3.388 1.268 3.523 2.191 3.876l.957.365 3.057-2.296c1.681-1.263 3.233-2.364 3.447-2.446.645-.248 1.905.437 2.19 1.19.147.387.465 2.074.706 3.747.588 4.089.583 4.074 1.477 4.602l.783.463 3.451-1.607c1.898-.883 3.74-1.606 4.095-1.606s.89.246 1.189.546c.51.51.542.817.492 4.822l-.053 4.276.7.523.702.524 3.635-.848c2-.467 3.824-.848 4.053-.847.63 0 1.567 1.137 1.567 1.901 0 .372-.365 2.293-.811 4.27l-.812 3.592.592.8.592.802 3.99-.157c3.834-.15 4.013-.134 4.585.414.344.329.596.887.596 1.321 0 .414-.704 2.333-1.563 4.266-1.526 3.43-1.554 3.534-1.162 4.355.395.828.458.852 3.862 1.438 1.903.329 3.73.7 4.058.824.824.314 1.511 1.438 1.326 2.168-.084.328-1.064 1.903-2.178 3.5-1.55 2.22-1.94 2.953-1.663 3.116.2.116 1.038.612 1.864 1.1 1.48.875 1.514.882 2.25.429 2.169-1.336 4.366-4.516 5.142-7.443.313-1.18.298-1.248-.498-2.248-2.095-2.63-3.089-5.855-3.05-9.896.03-3.114.647-5.922 1.812-8.243.848-1.688 2.703-4.34 3.655-5.224.785-.73.7-.858 1.471 2.222.929 3.705 3.294 9.922 3.776 9.922.113 0 .635-.863 1.159-1.918 1.188-2.39 7.59-13.16 7.824-13.162.482-.003 3.054 2.24 3.989 3.48 2.049 2.715 2.93 5.666 2.91 9.748-.026 4.976-1.735 9.431-4.949 12.898-2.701 2.913-5.903 4.503-9.417 4.674l-1.634.08-.753 1.765q-2.089 4.896-6.398 8.499l-1.263 1.056.454 2.07c.798 3.635-.062 7.348-2.888 12.477-4.746 8.614-10.264 17.017-13.251 20.18-1.255 1.328-1.73 1.6-2.117 1.212"/><ellipse cx="-220.859" cy="208.771" fill="#fff" paint-order="fill markers stroke" rx="4.765" ry="5.88"/><ellipse cx="-190.46" cy="208.733" fill="#fff" paint-order="fill markers stroke" rx="4.765" ry="5.88"/><path fill="#020100" d="M-205.496 221.018c6.335-2.843 11.215 2.637 12.069 5.574.232.799.381 1.49.331 1.537s-3.722.456-8.16.909-8.353.868-8.699.923c-.995.159-.967-6.508 4.459-8.943m-15.368.014c-2.111-.868-3.166-1.574-4.525-3.026-2.065-2.208-2.753-5.11-2.035-8.575 2.366-11.406 11.05-8.684 12.524-8.133 3.792 1.419 5.942 5.662 5.639 11.128-.26 4.686-2.634 7.718-6.944 8.87-1.868.498-2.955.437-4.659-.264m1.812-8.164c1.128-1.052 1.723-2.544 1.716-4.298-.008-1.937-.358-2.914-1.448-4.044-2.173-2.252-5.028-.831-5.805 2.89-.674 3.229 1.476 6.565 3.99 6.191.494-.073 1.19-.405 1.547-.739m28.264 7.97c-3.104-.324-5.93-4.74-6.174-8.523-.53-8.254 6.733-13.554 12.253-10.709 9.433 4.862 6.29 20.528-6.079 19.233zm.721-17.174c-4.3-.066-5.183 10.257 0 9.79s3.823-9.732 0-9.79"/><path fill="#8f1e1c" d="M-247.846 240.259c-1.068-.71-3.074-2.718-5.634-5.64-5.18-5.908-5.692-6.636-6.834-9.713-1.318-3.551-1.436-4.045-.967-4.044.199 0 1.969.585 3.933 1.301 13.054 4.755 27.313 7.905 41.54 9.174 5.891.526 17.81.594 23.15.132 14.033-1.214 26.981-4.45 38.745-9.681 2.454-1.092 4.563-1.981 4.687-1.976s.444.174.712.377c.467.354.444.569-.624 5.614-.611 2.885-1.26 5.483-1.442 5.774-.56.894-6.545 7.038-7.903 8.114-1.69 1.338-2.027 1.316-2.027-.131 0-1.175 1.294-6.195 2.491-9.666l.673-1.948-.59.134c-.324.075-2.673.674-5.22 1.333-20.967 5.422-50.3 6.379-73.951 2.411-3.814-.64-10.863-2.101-11.719-2.43-.32-.123-.366-.045-.206.351.456 1.128 1.977 7.522 2.147 9.023.203 1.8-.006 2.125-.96 1.49z"/><path fill="#709fef" d="M-167.511 181.251s-13.609 19.509-.318 19.439c14.826-.078.318-19.439.318-19.439"/><path fill="#fff" stroke="#000" stroke-linecap="square" stroke-miterlimit="1000" stroke-width="4" d="m-315.554 146.886 40.853-9.726 9.726 40.853-40.853 9.726z" paint-order="fill markers stroke"/><path d="m-214.808 107.109-5.327-15.057h5.107l3.258 9.95h.088l3.345-9.95h4.579l-5.327 15.057 5.591 15.76h-5.107l-3.522-10.742h-.088l-3.61 10.742h-4.578z" aria-label="x" font-family="Bebas Neue" font-size="44.025" style="line-height:1.25;-inkscape-font-specification:&quot;Bebas Neue, Normal&quot;" transform="rotate(-13.391 -16.899 468.522)"/><path fill="#e13924" d="M-291.347 203.01c-5.663-2.779-9.392-9.29-9.392-16.399 0-4.317 1.194-7.764 3.627-10.47 1.1-1.224 3.177-2.818 3.378-2.593.475.53 4.744 7.7 6.488 10.897a77 77 0 0 0 2.412 4.13c3.911 5.393 5.017 6.197 7.278 13.708z"/><path fill="#fff" stroke="#000" stroke-linecap="square" stroke-miterlimit="1000" stroke-width="4" d="m-128.916 143.559 40.75 10.152-10.153 40.75-40.75-10.153z" paint-order="fill markers stroke"/><path d="m-145.2 111.31-5.855-17.698h5.15l3.303 11.315h.088l3.302-11.315h4.71l-5.855 17.698v13.12h-4.843z" aria-label="y" font-family="Bebas Neue" font-size="44.025" style="line-height:1.25;-inkscape-font-specification:&quot;Bebas Neue, Normal&quot;" transform="rotate(13.99 -372.65 257.846)"/><path fill="#e13924" d="M-133.228 202.05c4.208-4.61 5.78-9.986 8.325-15.386 1.188-2.39 7.59-13.16 7.824-13.162.482-.003 3.054 2.24 3.989 3.48 2.049 2.715 2.93 5.666 2.909 9.748-.025 4.976-1.734 9.431-4.948 12.898-2.701 2.913-5.903 4.503-9.417 4.674l-1.634.08z"/></g></svg>