<?xml version="1.0" encoding="UTF-8" standalone="no"?>
<!-- Uploaded to: SVG Repo, www.svgrepo.com, Generator: SVG Repo Mixer Tools -->

<svg
   height="800px"
   width="800px"
   version="1.1"
   id="Layer_1"
   viewBox="0 0 495 495"
   xml:space="preserve"
   sodipodi:docname="linux-svgrepo-com.svg"
   inkscape:version="1.4 (e7c3feb1, 2024-10-09)"
   xmlns:inkscape="http://www.inkscape.org/namespaces/inkscape"
   xmlns:sodipodi="http://sodipodi.sourceforge.net/DTD/sodipodi-0.dtd"
   xmlns="http://www.w3.org/2000/svg"
   xmlns:svg="http://www.w3.org/2000/svg"><defs
   id="defs2">
	
	
	
</defs><sodipodi:namedview
   id="namedview2"
   pagecolor="#ffffff"
   bordercolor="#666666"
   borderopacity="1.0"
   inkscape:showpageshadow="2"
   inkscape:pageopacity="0.0"
   inkscape:pagecheckerboard="0"
   inkscape:deskcolor="#d1d1d1"
   inkscape:zoom="0.54538044"
   inkscape:cx="280.53812"
   inkscape:cy="388.71948"
   inkscape:window-width="1920"
   inkscape:window-height="1027"
   inkscape:window-x="0"
   inkscape:window-y="25"
   inkscape:window-maximized="0"
   inkscape:current-layer="Layer_1" />
<path
   style="fill:#1d1d1f;stroke-width:1.52726"
   d="m 89.667411,462.16124 c 25.372419,3.0301 53.880319,19.46649 77.737669,22.3683 23.98568,3.02855 31.40816,-16.33409 31.40816,-16.33409 0,0 26.99133,-6.03421 55.36785,-6.72912 28.40405,-0.7957 55.2915,5.90745 55.2915,5.90745 0,0 5.21408,11.94167 14.94732,17.15576 9.73324,5.31487 30.68882,6.0342 44.11957,-8.11588 13.45672,-14.25242 49.3596,-32.20539 69.51947,-43.42772 20.28815,-11.24829 16.56469,-28.40251 3.82731,-33.61657 -12.73737,-5.21256 -23.16398,-13.43076 -22.36828,-29.19975 0.69337,-15.63917 -11.24829,-26.06579 -11.24829,-26.06579 0,0 10.45259,-34.41229 0.71934,-62.91863 C 399.25578,252.80865 367.15425,207.17251 342.47521,172.86257 317.79618,138.45028 338.75023,98.721595 316.28112,47.949271 293.80899,-2.8994142 235.53933,0.1062392 204.13117,21.779624 172.72302,43.454536 182.35241,97.205015 183.86745,122.70725 c 1.51505,25.37242 0.69338,43.52852 -2.20843,50.05298 -36.78994,36.28605 -55.16816,80.76251 -69.62179,130.20373 -9.63091,17.15574 -2.90179,32.79492 -2.90179,32.79492 0,0 -6.72759,2.31074 -12.043993,13.56054 -5.214069,11.12002 -15.640706,16.43489 -34.413817,20.05756 -18.644825,3.82579 -18.644825,15.84535 -14.15009,29.30207 4.51917,13.43073 0,20.95556 -5.214075,38.1113 -5.212549,17.1527 20.879208,22.36524 46.353946,25.37089 z M 353.41347,383.90887 c 13.32842,5.82957 32.48639,-2.2863 38.31595,-8.11587 5.80513,-5.80359 9.91347,-14.43263 9.91347,-14.43263 0,0 5.82957,2.9018 5.23851,12.12037 -0.61702,9.34836 4.00601,22.6768 12.73738,27.29982 8.73136,4.59705 22.05979,11.01614 15.15197,17.43675 -7.03762,6.42061 -45.96907,22.08576 -57.60225,34.30996 -11.53082,12.14632 -26.6828,22.08573 -35.90288,19.15798 -9.32088,-2.9018 -17.46271,-15.63918 -13.45518,-34.284 4.1343,-18.56692 7.62715,-38.93297 7.03609,-50.56614 -0.61548,-11.63315 -2.90179,-27.29829 0,-29.61057 2.9018,-2.2863 7.52484,-1.18209 7.52484,-1.18209 0,0 -2.31382,22.06436 11.0421,27.86642 z M 266.91999,69.624183 c 12.83971,0 23.18997,12.73737 23.18997,28.402502 0,11.120005 -5.21408,20.750915 -12.84124,25.373945 -1.92587,-0.79571 -3.92964,-1.69527 -6.13806,-2.62079 4.62303,-2.28478 7.83182,-8.11434 7.83182,-14.84346 0,-8.807725 -5.41722,-16.050003 -12.22422,-16.050003 -6.62527,0 -12.14785,7.240748 -12.14785,16.050003 0,3.21183 0.79723,6.4206 2.1061,8.93754 -4.00602,-1.6189 -7.62715,-3.00413 -10.52896,-4.10834 -1.51504,-3.82732 -2.4146,-8.14184 -2.4146,-12.737365 9.7e-4,-15.665135 10.32429,-28.404032 23.16704,-28.404032 z m -31.79455,48.948757 c 6.31829,1.10421 23.67716,8.62905 30.0993,10.93979 6.42061,2.20842 13.53307,6.31676 12.83969,10.42662 -0.79571,4.23664 -4.10833,4.23664 -12.83969,9.55303 -8.62904,5.21408 -27.47851,16.84724 -33.51426,17.64294 -6.00978,0.79571 -9.42474,-2.59482 -15.84687,-6.72912 -6.42061,-4.21218 -18.46307,-14.04776 -15.43452,-19.26032 0,0 9.42475,-7.2163 13.53459,-10.91381 4.10988,-3.82731 14.74116,-12.84122 21.16176,-11.65913 z M 207.44075,74.144879 c 10.11812,0 18.36229,12.043995 18.36229,26.887451 0,2.69715 -0.30851,5.21255 -0.79571,7.72948 -2.51693,0.79571 -5.03233,2.1061 -7.44846,4.21219 -1.18057,1.00189 -2.2863,1.89992 -3.28667,2.9018 1.59141,-3.00413 2.20842,-7.31864 1.48908,-11.83934 -1.38676,-8.012015 -6.80548,-13.943905 -12.12188,-13.1482 -5.34237,0.899558 -8.5267,8.244165 -7.24228,16.36003 1.41272,8.21821 6.72758,14.14857 12.14632,13.25054 0.30851,-0.10233 0.59104,-0.20466 0.89956,-0.30851 -2.5933,2.51693 -5.0079,4.72535 -7.52483,6.52294 -7.31864,-3.41648 -12.73737,-13.63693 -12.73737,-25.68093 9.7e-4,-14.945783 8.11588,-26.887451 18.25995,-26.887451 z M 151.07102,268.44783 c 10.42662,-16.43488 17.15422,-52.36374 27.58084,-64.3054 10.53046,-11.91572 18.64482,-37.31408 14.94731,-48.53642 0,0 22.47062,26.88748 38.11131,22.47063 15.66514,-4.5207 50.87466,-30.68882 56.0872,-26.19408 5.21407,4.51916 50.05297,103.1345 54.57215,134.54266 4.5207,31.3822 -3.00412,55.36939 -3.00412,55.36939 0,0 -17.15422,-4.5207 -19.36416,5.90593 -2.20844,10.52895 -2.20844,48.66622 -2.20844,48.66622 0,0 -23.18994,32.10154 -59.09285,37.41641 -35.90288,5.21408 -53.88029,1.41272 -53.88029,1.41272 L 184.6601,412.10827 c 0,0 15.66667,-2.31077 13.45671,-18.05378 -2.20841,-15.63917 -47.87051,-37.31561 -56.08871,-56.7821 -8.21514,-19.46649 -1.51199,-52.36374 9.04292,-68.82456 z M 62.291231,386.22115 c 1.797589,-7.70351 25.063907,-7.70351 34.001451,-13.12223 8.937558,-5.41873 10.733608,-20.98153 17.951448,-25.08987 7.11247,-4.2122 20.2622,10.73513 25.68094,19.15645 5.31639,8.2182 25.68244,44.14706 34.00296,53.08308 8.42285,9.0139 16.15386,20.95557 13.73926,31.6907 -2.28479,10.7336 -14.94579,18.56692 -14.94579,18.56692 -11.32466,3.49285 -42.91303,-10.14407 -57.26777,-16.15386 -14.35474,-6.03421 -50.874658,-7.83333 -55.574046,-13.14819 -4.827679,-5.41873 2.310748,-17.3604 4.210663,-28.68658 1.693735,-11.45295 -3.621139,-18.56693 -1.799116,-26.29642 z"
   id="path2"
   sodipodi:nodetypes="cccccccccccccccccccccccccccccccccccccssccssscccscccccccccssccccccccccsccccccccccccccccsccccccccc" />
</svg>
