<?xml version="1.0" encoding="UTF-8" standalone="no"?>
<svg
   viewBox="0 0 40.399923 40.4"
   version="1.1"
   id="svg11"
   sodipodi:docname="tweede-golf.svg"
   width="40.399921"
   height="40.400002"
   inkscape:version="1.3 (0e150ed, 2023-07-21)"
   xmlns:inkscape="http://www.inkscape.org/namespaces/inkscape"
   xmlns:sodipodi="http://sodipodi.sourceforge.net/DTD/sodipodi-0.dtd"
   xmlns="http://www.w3.org/2000/svg"
   xmlns:svg="http://www.w3.org/2000/svg">
  <sodipodi:namedview
     id="namedview11"
     pagecolor="#ffffff"
     bordercolor="#666666"
     borderopacity="1.0"
     inkscape:showpageshadow="2"
     inkscape:pageopacity="0.0"
     inkscape:pagecheckerboard="0"
     inkscape:deskcolor="#d1d1d1"
     inkscape:zoom="2.8527981"
     inkscape:cx="87.457994"
     inkscape:cy="19.980383"
     inkscape:window-width="1728"
     inkscape:window-height="1051"
     inkscape:window-x="0"
     inkscape:window-y="38"
     inkscape:window-maximized="0"
     inkscape:current-layer="svg11" />
  <defs
     id="defs1">
    <style
       id="style1">.logo-a{fill:#48e070;}</style>
  </defs>
  <path
     class="logo-a"
     d="M 20.259911,8.8843839e-5 A 20.2,20.2 0 1 0 40.399911,20.260089 v -0.06 0 A 20.18,20.18 0 0 0 20.259911,8.8843839e-5 Z M 10.259911,29.670089 H 7.4999106 c 1.69,-1.4 4.1600004,-4.38 5.1900004,-9.85 1.18,-6.27 5.82,-9.67 10.1,-9.1 v 0 c -3.62,1 -6.39,4.47 -7.25,9.07 -1.07,5.66 -3.65,8.49 -5.1,9.7 z m 0.73,0 c 1.5,-1.34 4,-4.28 5,-9.8 0.86,-4.52 3.62,-7.89 7.22,-8.77 a 7.09,7.09 0 0 1 7.44,2.74 6.18,6.18 0 0 1 1.4,5.28 5.71,5.71 0 0 1 -2.31,3.53 2.18,2.18 0 0 0 0.14,-0.84 2.5509606,2.5509606 0 1 0 -5.1,-0.14 v 0.14 c 0,0 -0.32,5.66 8.22,7.89 z m 14.91,-9.47 v 0 a 2.05,2.05 0 0 1 2.87,0.11 v 0 a 6.41,6.41 0 0 1 -2.76,3 2.42,2.42 0 0 0 -0.11,-3.11 z"
     id="path11"
     style="fill:#000000;fill-opacity:1" />
</svg>
