<svg xmlns="http://www.w3.org/2000/svg" id="svg200" width="999.74" height="529.9" viewBox="0 0 749.805 397.425"><defs id="defs1"><style id="style1" type="text/css">*{stroke-linecap:butt;stroke-linejoin:round}</style><defs id="defs132"><path id="DejaVuSans-7a" d="M353 3500h2731v-525L922 459h2162V0H275v525l2163 2516H353Z" transform="scale(.01563)"/><path id="DejaVuSans-67" d="M2906 1791q0 625-258 968-257 344-723 344-462 0-720-344-258-343-258-968 0-622 258-966t720-344q466 0 723 344 258 344 258 966m575-1357q0-893-397-1329-396-436-1215-436-303 0-572 45t-522 139v559q253-137 500-202 247-66 503-66 566 0 847 295t281 892v285q-178-310-456-463T1784 0Q1141 0 747 490 353 981 353 1791q0 812 394 1302 394 491 1037 491 388 0 666-153t456-462v531h575z" transform="scale(.01563)"/><path id="DejaVuSans-4c" d="M628 4666h631V531h2272V0H628Z" transform="scale(.01563)"/><path id="DejaVuSans-51" d="M2522 4238q-688 0-1093-513-404-512-404-1397 0-881 404-1394 405-512 1093-512 687 0 1089 512 402 513 402 1394 0 885-402 1397-402 513-1089 513M3406 84l832-909h-763L2784-78q-103-6-158-9-54-4-104-4-984 0-1574 658-589 658-589 1761 0 1106 589 1764 590 658 1574 658 981 0 1568-658 588-658 588-1764 0-812-327-1391-326-578-945-853" transform="scale(.01563)"/><path id="DejaVuSans-33" d="M2597 2516q453-97 707-404 255-306 255-756 0-690-475-1069Q2609-91 1734-91q-293 0-604 58T488 141v609q262-153 574-231 313-78 654-78 593 0 904 234t311 681q0 413-289 645-289 233-804 233h-544v519h569q465 0 712 186t247 536q0 359-255 551-254 193-729 193-260 0-557-57-297-56-653-174v562q360 100 674 150t592 50q719 0 1137-327 419-326 419-882 0-388-222-655t-631-370" transform="scale(.01563)"/><path id="DejaVuSans-28" d="M1984 4856q-418-718-622-1422-203-703-203-1425 0-721 205-1429t620-1424h-500Q1016-109 783 600T550 2009q0 697 231 1403 232 707 703 1444z" transform="scale(.01563)"/><path id="DejaVuSans-49" d="M628 4666h631V0H628Z" transform="scale(.01563)"/><path id="DejaVuSans-4f" d="M2522 4238q-688 0-1093-513-404-512-404-1397 0-881 404-1394 405-512 1093-512 687 0 1089 512 402 513 402 1394 0 885-402 1397-402 513-1089 513m0 512q981 0 1568-658 588-658 588-1764 0-1103-588-1761Q3503-91 2522-91q-984 0-1574 656-589 657-589 1763t589 1764q590 658 1574 658" transform="scale(.01563)"/><path id="DejaVuSans-29" d="M513 4856h500q468-737 701-1444 233-706 233-1403 0-700-233-1409T1013-844H513q415 716 620 1424t205 1429q0 722-205 1425-205 704-620 1422" transform="scale(.01563)"/></defs></defs><defs id="defs200"><clipPath id="pbb090a872a"><path id="rect200" d="M168.782 25.358h558v332.64h-558z"/></clipPath></defs><path id="path1" d="M26.36 383.453h697.085V13.972H26.36Z" style="fill:none;stroke-width:.929688"/><g id="patch_2" transform="translate(26.36 13.972)scale(.92969)"><path id="path2" d="M168.783 357.998h558V25.358h-558z" style="fill:none"/></g><g id="patch_3" transform="translate(26.36 13.972)scale(.92969)"><path id="path3" d="M168.783 342.878h98.314v-22.4h-98.314Z" clip-path="url(#pbb090a872a)"/></g><g id="patch_4" transform="translate(26.36 13.972)scale(.92969)"><path id="path4" d="M168.783 314.878h124.885v-22.4H168.782Z" clip-path="url(#pbb090a872a)"/></g><g id="patch_5" transform="translate(26.36 13.972)scale(.92969)"><path id="path5" d="M168.783 286.878h135.514v-22.4H168.782Z" clip-path="url(#pbb090a872a)"/></g><g id="patch_6" transform="translate(26.36 13.972)scale(.92969)"><path id="path6" d="M168.783 258.878H309.61v-22.4H168.783Z" clip-path="url(#pbb090a872a)"/></g><g id="patch_7" transform="translate(26.36 13.972)scale(.92969)"><path id="path7" d="M168.783 230.878h175.37v-22.4h-175.37Z" clip-path="url(#pbb090a872a)"/></g><g id="patch_8" transform="translate(26.36 13.972)scale(.92969)"><path id="path8" d="M168.783 202.878H402.61v-22.4H168.783Z" clip-path="url(#pbb090a872a)"/></g><g id="patch_9" transform="translate(26.36 13.972)scale(.92969)"><path id="path9" d="M168.783 174.878h297.6v-22.4h-297.6z" clip-path="url(#pbb090a872a)"/></g><g id="patch_10" transform="translate(26.36 13.972)scale(.92969)"><path id="path10" d="M168.783 146.878h353.4v-22.4h-353.4z" clip-path="url(#pbb090a872a)"/></g><g id="patch_11" transform="translate(26.36 13.972)scale(.92969)"><path id="path11" d="M168.783 118.878h454.37v-22.4h-454.37Z" clip-path="url(#pbb090a872a)"/></g><g id="patch_12" transform="translate(26.36 13.972)scale(.92969)"><path id="path12" d="M168.783 90.878h454.37v-22.4h-454.37Z" clip-path="url(#pbb090a872a)"/></g><g id="patch_13" transform="translate(26.36 13.972)scale(.92969)"><path id="path13" d="M168.783 62.878H700.21v-22.4H168.783Z" clip-path="url(#pbb090a872a)"/></g><path id="text200" d="M124.47 39.635q-.5 0-1.001-.08t-.962-.28q-.44-.22-.821-.561-.38-.34-.64-.761-.241-.44-.361-.921-.12-.501-.12-1.002v-.06h1.562v.04q0 .44.16.881t.48.761q.341.32.782.461.46.12.921.12.46 0 .921-.14.48-.16.801-.5.32-.361.481-.822t.16-.941q0-.5-.22-.981-.2-.481-.56-.842-.341-.38-.802-.62-.44-.26-.901-.481-.46-.22-.901-.46-.441-.261-.862-.582-.4-.32-.74-.7-.341-.381-.602-.822-.24-.44-.36-.941t-.12-1.002q0-.52.1-1.001.12-.5.34-.941.22-.461.561-.821.36-.381.801-.621.44-.24.942-.32.5-.1 1.001-.1t.981.08q.481.08.922.3.44.22.8.58.361.34.582.782.24.42.34.9.12.481.12.982v.06h-1.562v-.04q0-.44-.14-.861-.14-.44-.44-.761-.301-.32-.742-.46-.42-.161-.861-.161-.46 0-.901.18-.44.16-.741.521-.28.34-.42.801-.141.44-.141.881 0 .521.2 1.002.22.48.561.861.36.36.801.62.46.241.901.462.461.22.902.48.46.24.86.561.401.3.742.681.36.38.6.841.241.44.361.942.14.5.14 1 0 .522-.12 1.022-.12.501-.36.962t-.621.82q-.36.361-.821.602-.46.22-.982.3-.5.1-1.001.1m6.53-.16v-1.402h2.863v-7.81h-2.583V28.86h4.145v9.213h2.584v1.402zm3.504-12.478q-.26 0-.5-.06-.241-.08-.421-.26t-.26-.42q-.06-.24-.06-.501 0-.26.06-.501.08-.24.26-.42t.42-.261.501-.08.5.08.421.26.26.421.08.5-.08.501-.26.421-.42.26q-.24.06-.5.06m6.289 12.478v-1.402l5.588-7.81h-5.588V28.86h7.45v1.402l-5.587 7.811h5.587v1.402zm13.78.16q-.561 0-1.102-.1-.521-.1-1.002-.36-.48-.28-.84-.681-.361-.42-.602-.902-.22-.5-.3-1.041t-.08-1.082v-2.603q0-.541.08-1.082.08-.54.3-1.021.22-.5.581-.902.38-.42.841-.68t1.002-.361q.54-.12 1.081-.12t1.082.12q.54.1 1.001.36t.821.681q.38.401.601.902.22.48.3 1.021t.08 1.082v2.003h-6.208v.6q0 .34.04.681.04.34.16.661.14.32.34.601.221.28.502.48.28.181.62.261t.701.08q.38 0 .761-.08.401-.08.721-.28.34-.22.541-.561.2-.36.22-.741h1.563q-.02.44-.18.881-.14.44-.421.821-.26.36-.641.641-.36.26-.781.44-.42.161-.881.221t-.902.06m-2.364-6.168h4.647v-.601q0-.34-.04-.681-.04-.34-.16-.661-.12-.32-.341-.601-.2-.28-.48-.46-.281-.2-.622-.281-.34-.08-.68-.08-.341 0-.682.08-.34.08-.62.28-.281.18-.501.461-.2.28-.32.6-.12.321-.161.662-.04.34-.04.68zm22.351 6.168q-.54 0-1.081-.12-.54-.1-1.001-.36t-.842-.661q-.36-.42-.58-.902-.22-.5-.3-1.041-.081-.54-.081-1.082v-2.603q0-.541.08-1.082.08-.54.3-1.021.22-.5.581-.902.38-.42.842-.68.46-.26 1-.361.542-.12 1.082-.12.541 0 1.082.12.54.1 1.001.36t.822.681q.38.401.6.902.22.48.3 1.021t.08 1.082v2.603q0 .541-.08 1.082-.08.54-.3 1.041-.22.481-.6.902-.36.4-.822.66-.46.261-1.001.361-.54.12-1.082.12m0-1.402q.34 0 .681-.08.34-.08.621-.26.28-.2.481-.48.22-.281.34-.602t.16-.66.04-.682v-2.603q0-.34-.04-.681-.04-.34-.16-.661-.12-.32-.34-.601-.2-.28-.48-.46-.281-.2-.622-.281-.34-.08-.68-.08-.341 0-.681.08-.341.08-.621.28-.28.18-.501.461-.2.28-.32.6-.12.321-.16.662-.04.34-.04.68v2.604q0 .34.04.681.04.34.16.661.12.32.32.601.22.28.5.48.281.181.622.261t.68.08m8.512 1.242v-8.612h-2.223V29.46h2.223v-1.582q0-.4.04-.801.06-.421.2-.802.161-.38.401-.72.24-.341.581-.561.36-.22.761-.3.4-.1.801-.1.561 0 1.102.18.56.16.941.58.38.4.561.941.18.541.18 1.102v.16h-1.562v-.08q0-.28-.06-.54-.06-.281-.22-.501t-.42-.32q-.241-.121-.522-.121-.32 0-.6.18-.26.18-.401.46-.14.281-.2.602-.04.32-.04.64v1.583h3.304v1.402h-3.304v8.612zm17.806 4.106V28.86h1.562v1.822q.16-.42.42-.801.26-.401.621-.661.38-.28.821-.401.461-.12.922-.12.5 0 .981.14.5.14.901.44.4.301.661.722.28.42.44.901.161.46.221.961t.06 1.002v2.603q0 .501-.06 1.002-.06.5-.22.981-.16.46-.44.881-.261.421-.662.721-.4.3-.901.441-.48.14-.981.14-.461 0-.922-.12-.44-.12-.82-.38-.361-.28-.622-.661-.26-.4-.42-.822v5.929zm3.745-5.348q.34 0 .66-.08.341-.08.622-.26.28-.2.48-.48.22-.281.34-.602t.161-.66.04-.682v-2.603q0-.34-.04-.681-.04-.34-.16-.661-.12-.32-.34-.601-.201-.28-.481-.46-.28-.2-.621-.281-.32-.08-.661-.08-.34 0-.681.08-.32.08-.581.28t-.46.501q-.18.28-.281.6-.1.301-.14.642-.04.32-.04.66v2.604q0 .34.04.681.04.32.14.641.1.3.28.601.2.28.461.48.26.201.58.281.341.08.682.08m7.47 1.242V28.86h1.563v2.504q.12-.481.32-.942.2-.48.5-.881.321-.4.782-.62.48-.221.981-.221.38 0 .741.1.36.08.661.3.3.22.5.541.201.3.301.661.12.36.16.741.04.36.04.721h-1.562q0-.3-.06-.58-.04-.301-.2-.561-.14-.26-.42-.381-.261-.14-.561-.14-.401 0-.781.18-.381.18-.641.5-.24.321-.401.702-.14.36-.22.76-.08.401-.12.802-.02.4-.02.801v5.628zm12.538.16q-.54 0-1.082-.12-.54-.1-1.001-.36t-.841-.661q-.36-.42-.581-.902-.22-.5-.3-1.041t-.08-1.082v-2.603q0-.541.08-1.082.08-.54.3-1.021.22-.5.58-.902.381-.42.842-.68t1.001-.361q.541-.12 1.082-.12.54 0 1.081.12.541.1 1.002.36t.821.681q.38.401.6.902.221.48.301 1.021t.08 1.082v2.603q0 .541-.08 1.082-.08.54-.3 1.041-.22.481-.601.902-.36.4-.821.66-.46.261-1.002.361-.54.12-1.081.12m0-1.402q.34 0 .68-.08.341-.08.622-.26.28-.2.48-.48.22-.281.34-.602t.161-.66.04-.682v-2.603q0-.34-.04-.681-.04-.34-.16-.661-.12-.32-.34-.601-.2-.28-.481-.46-.28-.2-.621-.281-.34-.08-.681-.08-.34 0-.681.08-.34.08-.62.28-.281.18-.502.461-.2.28-.32.6-.12.321-.16.662-.04.34-.04.68v2.604q0 .34.04.681.04.34.16.661.12.32.32.601.22.28.501.48.28.181.621.261t.68.08m9.954 5.508q-.46 0-.921-.08-.441-.06-.862-.24-.42-.16-.78-.461-.361-.28-.622-.66-.24-.381-.38-.822-.12-.44-.14-.901h1.562q.02.4.18.74.18.361.48.602.321.24.702.32.38.1.781.1.34 0 .66-.08.341-.08.602-.28.28-.2.46-.481.2-.28.3-.6.121-.321.161-.662.04-.32.04-.66v-1.923q-.16.42-.42.82-.26.381-.641.662-.36.26-.822.38-.44.12-.9.12-.501 0-1.002-.14-.48-.14-.881-.44t-.681-.722q-.26-.42-.421-.88-.16-.481-.22-.982-.06-.5-.06-1.002v-2.603q0-.501.06-1.002.06-.5.22-.961.16-.48.42-.901.281-.42.682-.721.4-.3.88-.44.502-.141 1.002-.141.46 0 .901.12.461.12.822.4.38.261.64.662.26.38.421.8V28.86h1.562v10.715q0 .541-.08 1.062-.08.54-.3 1.021-.2.5-.561.901-.34.421-.801.681-.46.28-1.002.38-.52.121-1.041.121m.04-5.508q.34 0 .661-.08.34-.08.6-.28.261-.2.441-.48.2-.301.3-.602.101-.32.141-.64.04-.341.04-.682v-2.603q0-.34-.04-.661-.04-.34-.14-.641-.1-.32-.3-.6-.18-.301-.441-.502-.26-.2-.601-.28-.32-.08-.66-.08-.341 0-.682.08-.32.08-.6.28-.281.18-.501.461-.2.28-.32.6-.121.321-.161.662-.04.34-.04.68v2.604q0 .34.04.681.04.34.16.661.12.32.32.601.22.28.501.48.28.181.601.261.34.08.681.08m7.51 1.242V28.86h1.563v2.504q.12-.481.32-.942.2-.48.501-.881.32-.4.781-.62.48-.221.981-.221.381 0 .742.1.36.08.66.3t.501.541q.2.3.3.661.12.36.16.741.04.36.04.721h-1.561q0-.3-.06-.58-.04-.301-.2-.561-.14-.26-.421-.381-.26-.14-.561-.14-.4 0-.781.18-.38.18-.641.5-.24.321-.4.702-.14.36-.22.76-.081.401-.121.802-.02.4-.02.801v5.628zm11.577.16q-.4 0-.801-.08-.4-.06-.761-.24-.34-.2-.621-.5-.26-.301-.44-.662-.161-.36-.241-.76-.06-.401-.06-.802 0-.52.12-1.021.14-.501.44-.902.321-.42.742-.7.44-.281.921-.441.5-.16 1.001-.22.521-.06 1.042-.06h1.782v-1.082q0-.42-.14-.841t-.46-.701-.741-.401-.842-.12q-.4 0-.8.08-.381.08-.702.3t-.5.581-.18.741h-1.563q0-.46.12-.901.14-.44.4-.821.261-.38.622-.641.38-.28.8-.44.421-.181.882-.241.46-.06.921-.06.481 0 .962.08.48.06.921.26.44.2.801.521.38.32.621.741.24.42.34.901t.1.962v7.31h-1.562v-1.722q-.18.44-.52.82-.32.361-.741.622-.421.24-.902.34-.48.1-.961.1m.6-1.402q.481 0 .962-.14.5-.14.861-.46.36-.321.521-.782.18-.48.18-.981v-1.222h-1.782q-.32 0-.621.04-.3.02-.6.1-.281.06-.562.2-.28.12-.5.341-.22.22-.32.521-.101.28-.101.58 0 .381.12.742.14.36.42.62.281.261.662.361.38.08.76.08m6.33 1.242V28.86h1.562v.841q.1-.22.24-.4.14-.2.32-.34.2-.141.421-.201.24-.06.48-.06.301 0 .582.1t.48.3q.22.2.36.461.141.26.221.56.08-.28.22-.54.14-.28.341-.48.2-.2.48-.301.281-.1.582-.1t.58.12q.3.1.521.32.22.2.34.481.14.28.22.581.081.28.101.58.04.301.04.602v8.091h-1.562v-8.091q0-.22-.04-.421-.02-.22-.12-.42t-.3-.321q-.181-.12-.401-.12-.2 0-.4.12-.181.12-.281.32t-.14.421q-.02.2-.02.42v8.092h-1.563v-8.091q0-.22-.04-.421-.02-.22-.12-.42t-.3-.321q-.18-.12-.38-.12-.221 0-.422.12-.18.12-.28.32t-.14.421q-.02.2-.02.42v8.092zm10.014 0V28.86h1.562v.841q.1-.22.24-.4.14-.2.32-.34.201-.141.421-.201.24-.06.481-.06.3 0 .58.1.281.1.482.3.22.2.36.461.14.26.22.56.08-.28.22-.54.14-.28.341-.48.2-.2.48-.301.281-.1.582-.1t.58.12q.3.1.521.32.22.2.34.481.14.28.221.581.08.28.1.58.04.301.04.602v8.091h-1.562v-8.091q0-.22-.04-.421-.02-.22-.12-.42t-.3-.321q-.18-.12-.401-.12-.2 0-.4.12-.181.12-.281.32t-.14.421q-.02.2-.02.42v8.092h-1.563v-8.091q0-.22-.04-.421-.02-.22-.12-.42t-.3-.321q-.18-.12-.38-.12-.221 0-.421.12-.18.12-.28.32t-.141.421q-.02.2-.02.42v8.092zm10.555 0v-1.402h2.864v-7.81h-2.584V28.86h4.146v9.213h2.584v1.402zm3.505-12.478q-.26 0-.501-.06-.24-.08-.42-.26-.181-.18-.261-.42-.06-.24-.06-.501 0-.26.06-.501.08-.24.26-.42t.42-.261.502-.08.5.08.42.26.261.421.08.5-.08.501-.26.421-.42.26q-.241.06-.501.06m6.288 12.478V28.86h1.563v1.823q.16-.42.42-.801t.621-.661q.38-.28.821-.401.46-.12.902-.12.5 0 .98.14.482.14.842.46.38.301.641.742.26.42.4.901.16.46.2.961.061.481.061.962v6.61h-1.562v-6.61q0-.34-.04-.661-.04-.34-.14-.641-.1-.32-.301-.6-.18-.281-.44-.482-.261-.2-.581-.28-.32-.1-.661-.1-.34 0-.661.1-.32.08-.581.28t-.46.481q-.181.28-.281.6-.1.301-.14.642-.04.32-.04.66v6.61zm13.68 4.266q-.461 0-.922-.08-.44-.06-.86-.24-.421-.16-.782-.461-.36-.28-.62-.66-.241-.381-.381-.822-.12-.44-.14-.901h1.562q.02.4.18.74.18.361.48.602.321.24.702.32.38.1.78.1.341 0 .662-.08.34-.08.6-.28.28-.2.461-.481.2-.28.3-.6.12-.321.16-.662.04-.32.04-.66v-1.923q-.16.42-.42.82-.26.381-.64.662-.361.26-.822.38-.44.12-.901.12-.5 0-1.001-.14-.481-.14-.882-.44-.4-.3-.68-.722-.261-.42-.421-.88-.16-.481-.22-.982-.06-.5-.06-1.002v-2.603q0-.501.06-1.002.06-.5.22-.961.16-.48.42-.901.28-.42.681-.721.4-.3.882-.44.5-.141 1.001-.141.46 0 .901.12.46.12.821.4.38.261.641.662.26.38.42.8V28.86h1.563v10.715q0 .541-.08 1.062-.08.54-.3 1.021-.2.5-.561.901-.34.421-.801.681-.461.28-1.002.38-.52.121-1.041.121m.04-5.508q.34 0 .66-.08.341-.08.602-.28t.44-.48q.2-.301.3-.602.1-.32.14-.64.04-.341.04-.682v-2.603q0-.34-.04-.661-.04-.34-.14-.641-.1-.32-.3-.6-.18-.301-.44-.502-.26-.2-.601-.28-.32-.08-.661-.08-.34 0-.681.08-.32.08-.601.28-.28.18-.5.461-.201.28-.321.6-.12.321-.16.662-.04.34-.04.68v2.604q0 .34.04.681.04.34.16.661.12.32.32.601.22.28.501.48.28.181.6.261.341.08.682.08m16.543 1.242v-1.402h2.864V26.156h-2.584v-1.402h4.146v13.32h2.584v1.401zm12.558.16q-.4 0-.801-.08-.4-.06-.761-.24-.34-.2-.621-.5-.26-.301-.44-.662-.161-.36-.241-.76-.06-.401-.06-.802 0-.52.12-1.021.14-.501.44-.902.32-.42.741-.7.441-.281.922-.441.5-.16 1.001-.22.52-.06 1.042-.06h1.782v-1.082q0-.42-.14-.841t-.46-.701-.742-.401-.84-.12q-.402 0-.802.08-.38.08-.701.3t-.5.581q-.181.36-.181.741h-1.562q0-.46.12-.901.14-.44.4-.821t.621-.641q.38-.28.802-.44.42-.181.88-.241.461-.06.922-.06.48 0 .961.08.481.06.922.26.44.2.8.521.381.32.622.741.24.42.34.901t.1.962v7.31h-1.562v-1.722q-.18.44-.52.82-.321.361-.742.622-.42.24-.9.34-.482.1-.962.1m.6-1.402q.481 0 .962-.14.5-.14.861-.46.36-.321.52-.782.181-.48.181-.981v-1.222h-1.782q-.32 0-.621.04-.3.02-.601.1-.28.06-.56.2-.281.12-.502.341-.22.22-.32.521-.1.28-.1.58 0 .381.12.742.14.36.42.62.281.261.662.361.38.08.76.08m6.65 1.242V28.86h1.562v1.823q.16-.42.42-.801.261-.381.622-.661.38-.28.82-.401.461-.12.902-.12.5 0 .981.14t.842.46q.38.301.64.742.26.42.401.901.16.46.2.961.06.481.06.962v6.61h-1.562v-6.61q0-.34-.04-.661-.04-.34-.14-.641-.1-.32-.3-.6-.18-.281-.441-.482-.26-.2-.58-.28-.321-.1-.662-.1-.34 0-.66.1-.321.08-.582.28t-.46.481q-.18.28-.28.6-.1.301-.14.642-.04.32-.04.66v6.61zm13.68 4.266q-.461 0-.922-.08-.44-.06-.861-.24-.42-.16-.781-.461-.36-.28-.621-.66-.24-.381-.38-.822-.121-.44-.141-.901h1.562q.02.4.18.74.18.361.481.602.32.24.701.32.38.1.781.1.34 0 .661-.08.34-.08.601-.28.28-.2.46-.481.2-.28.301-.6.12-.321.16-.662.04-.32.04-.66v-1.923q-.16.42-.42.82-.26.381-.641.662-.36.26-.821.38-.44.12-.902.12-.5 0-1.001-.14-.48-.14-.881-.44-.4-.3-.681-.722-.26-.42-.42-.88-.161-.481-.221-.982-.06-.5-.06-1.002v-2.603q0-.501.06-1.002.06-.5.22-.961.16-.48.42-.901.281-.42.682-.721.4-.3.881-.44.5-.141 1.001-.141.461 0 .902.12.46.12.82.4.381.261.642.662.26.38.42.8V28.86h1.563v10.715q0 .541-.08 1.062-.08.54-.3 1.021-.201.5-.562.901-.34.421-.8.681-.462.28-1.002.38-.521.121-1.042.121m.04-5.508q.34 0 .66-.08.34-.08.601-.28t.44-.48q.201-.301.301-.602.1-.32.14-.64.04-.341.04-.682v-2.603q0-.34-.04-.661-.04-.34-.14-.641-.1-.32-.3-.6-.18-.301-.44-.502-.261-.2-.602-.28-.32-.08-.66-.08-.341 0-.682.08-.32.08-.6.28-.28.18-.501.461-.2.28-.32.6-.12.321-.16.662-.041.34-.041.68v2.604q0 .34.04.681.04.34.16.661.12.32.32.601.221.28.502.48.28.181.6.261.34.08.681.08m9.433 1.402q-.501 0-.982-.14-.48-.14-.861-.44-.36-.321-.62-.742-.261-.44-.421-.9-.14-.482-.2-.962-.04-.5-.04-.982V28.86h1.561v6.61q0 .34.04.68.04.32.14.641.1.3.281.581.2.28.46.48.261.201.582.301.32.08.66.08t.661-.08q.32-.1.581-.3t.44-.48q.201-.281.301-.582.1-.32.14-.64.04-.341.04-.682V28.86h1.563v10.615h-1.562v-1.823q-.16.421-.421.802-.26.38-.641.66-.36.281-.821.401-.44.12-.881.12m9.653 0q-.4 0-.8-.08-.402-.06-.762-.24-.34-.2-.62-.5-.261-.301-.442-.662-.16-.36-.24-.76-.06-.401-.06-.802 0-.52.12-1.021.14-.501.44-.902.321-.42.742-.7.44-.281.921-.441.5-.16 1.002-.22.52-.06 1.041-.06h1.783v-1.082q0-.42-.14-.841t-.461-.701-.741-.401-.842-.12q-.4 0-.8.08-.381.08-.702.3t-.5.581-.18.741h-1.563q0-.46.12-.901.14-.44.4-.821.261-.38.622-.641.38-.28.801-.44.42-.181.881-.241.46-.06.921-.06.481 0 .962.08.48.06.921.26.44.2.801.521.38.32.621.741.24.42.34.901t.1.962v7.31h-1.561v-1.722q-.18.44-.521.82-.32.361-.741.622-.42.24-.901.34t-.962.1m.601-1.402q.48 0 .961-.14.501-.14.862-.46.36-.321.52-.782.18-.48.18-.981v-1.222h-1.782q-.32 0-.62.04-.301.02-.602.1-.28.06-.56.2-.28.12-.501.341-.22.22-.32.521-.1.28-.1.58 0 .381.12.742.14.36.42.62.28.261.661.361.38.08.761.08m10.315 5.508q-.461 0-.922-.08-.44-.06-.861-.24-.42-.16-.781-.461-.36-.28-.62-.66-.241-.381-.381-.822-.12-.44-.14-.901h1.562q.02.4.18.74.18.361.48.602.32.24.701.32.381.1.782.1.34 0 .66-.08.341-.08.601-.28.28-.2.461-.481.2-.28.3-.6.12-.321.16-.662.04-.32.04-.66v-1.923q-.16.42-.42.82-.26.381-.64.662-.361.26-.822.38-.44.12-.901.12-.5 0-1.002-.14-.48-.14-.88-.44-.401-.3-.682-.722-.26-.42-.42-.88-.16-.481-.22-.982-.06-.5-.06-1.002v-2.603q0-.501.06-1.002.06-.5.22-.961.16-.48.42-.901.28-.42.681-.721.4-.3.881-.44.501-.141 1.002-.141.46 0 .901.12.46.12.821.4.38.261.641.662.26.38.42.8V28.86h1.563v10.715q0 .541-.08 1.062-.08.54-.3 1.021-.2.5-.561.901-.34.421-.802.681-.46.28-1 .38-.522.121-1.042.121m.04-5.508q.34 0 .66-.08.341-.08.601-.28t.441-.48q.2-.301.3-.602.1-.32.14-.64.04-.341.04-.682v-2.603q0-.34-.04-.661-.04-.34-.14-.641-.1-.32-.3-.6-.18-.301-.44-.502-.26-.2-.601-.28-.32-.08-.661-.08-.34 0-.681.08-.32.08-.601.28-.28.18-.5.461-.201.28-.321.6-.12.321-.16.662-.04.34-.04.68v2.604q0 .34.04.681.04.34.16.661.12.32.32.601.22.28.5.48.281.181.602.261.34.08.68.08m10.074 1.402q-.561 0-1.102-.1-.52-.1-1.001-.36-.48-.28-.841-.681-.36-.42-.601-.902-.22-.5-.3-1.041t-.08-1.082v-2.603q0-.541.08-1.082.08-.54.3-1.021.22-.5.58-.902.381-.42.842-.68t1.001-.361q.541-.12 1.082-.12.54 0 1.081.12.541.1 1.002.36t.82.681q.381.401.602.902.22.48.3 1.021t.08 1.082v2.003h-6.209v.6q0 .34.04.681.04.34.16.661.141.32.341.601.22.28.501.48.28.181.62.261.341.08.702.08.38 0 .76-.08.402-.08.722-.28.34-.22.54-.561.201-.36.221-.741h1.562q-.02.44-.18.881-.14.44-.42.821-.261.36-.642.641-.36.26-.78.44-.421.161-.882.221-.46.06-.901.06m-2.364-6.168h4.647v-.601q0-.34-.04-.681-.04-.34-.16-.661-.12-.32-.34-.601-.201-.28-.481-.46-.28-.2-.621-.281-.34-.08-.681-.08-.34 0-.681.08-.34.08-.621.28-.28.18-.5.461-.201.28-.321.6-.12.321-.16.662-.04.34-.04.68zm22.292 6.168q-.52 0-1.062-.12-.54-.1-1.001-.36-.46-.28-.821-.681-.34-.42-.561-.902-.22-.5-.3-1.021-.08-.54-.08-1.082v-2.603q0-.541.08-1.062.08-.54.3-1.021.22-.5.56-.901.361-.421.822-.681.46-.28 1.001-.381.541-.12 1.062-.12.5 0 1.001.1.501.08.942.3.46.22.82.581.361.34.602.781.24.441.34.942.12.48.12.981v.04h-1.562v-.02q0-.46-.14-.901-.14-.44-.46-.761-.321-.34-.762-.48-.44-.161-.901-.161-.34 0-.681.08-.32.08-.6.28-.281.2-.482.481-.18.28-.3.6-.12.301-.16.642-.04.34-.04.68v2.604q0 .34.04.681.04.34.16.661.12.3.3.581.2.28.481.48.28.201.6.281.341.08.682.08.46 0 .901-.14.44-.16.761-.48.32-.341.46-.782.141-.44.141-.9v-.021h1.562v.04q0 .5-.12 1.002-.1.48-.34.92t-.601.802q-.36.34-.821.56-.441.221-.942.301-.5.1-1.001.1m10.074 0q-.54 0-1.081-.12-.541-.1-1.002-.36t-.841-.661q-.36-.42-.58-.902-.221-.5-.301-1.041t-.08-1.082v-2.603q0-.541.08-1.082.08-.54.3-1.021.22-.5.581-.902.38-.42.841-.68t1.002-.361q.54-.12 1.081-.12t1.082.12q.54.1 1.001.36t.821.681q.38.401.601.902.22.48.3 1.021t.08 1.082v2.603q0 .541-.08 1.082-.08.54-.3 1.041-.22.481-.6.902-.361.4-.822.66-.46.261-1.001.361-.541.12-1.082.12m0-1.402q.34 0 .681-.08.34-.08.62-.26.281-.2.482-.48.22-.281.34-.602t.16-.66.04-.682v-2.603q0-.34-.04-.681-.04-.34-.16-.661-.12-.32-.34-.601-.2-.28-.481-.46-.28-.2-.621-.281-.34-.08-.68-.08-.341 0-.682.08-.34.08-.62.28-.281.18-.501.461-.2.28-.32.6-.121.321-.161.662-.04.34-.04.68v2.604q0 .34.04.681.04.34.16.661.12.32.32.601.22.28.501.48.28.181.621.261t.681.08m5.968 1.242V28.86h1.563v.841q.1-.22.24-.4.14-.2.32-.34.2-.141.421-.201.24-.06.48-.06.301 0 .582.1t.48.3q.22.2.36.461.14.26.221.56.08-.28.22-.54.14-.28.34-.48.201-.2.482-.301t.58-.1q.3 0 .581.12.3.1.52.32.221.2.341.481.14.28.22.581.08.28.1.58.04.301.04.602v8.091h-1.561v-8.091q0-.22-.04-.421-.02-.22-.12-.42t-.301-.321q-.18-.12-.4-.12-.2 0-.401.12-.18.12-.28.32t-.14.421q-.02.2-.02.42v8.092h-1.563v-8.091q0-.22-.04-.421-.02-.22-.12-.42t-.3-.321q-.18-.12-.381-.12-.22 0-.42.12-.181.12-.281.32t-.14.421q-.02.2-.02.42v8.092zm10.015 0V28.86h1.562v.841q.1-.22.24-.4.14-.2.32-.34.2-.141.421-.201.24-.06.48-.06.301 0 .582.1t.48.3q.22.2.36.461.141.26.221.56.08-.28.22-.54.14-.28.34-.48.201-.2.482-.301t.58-.1q.3 0 .581.12.3.1.521.32.22.2.34.481.14.28.22.581.08.28.1.58.041.301.041.602v8.091h-1.562v-8.091q0-.22-.04-.421-.02-.22-.12-.42t-.3-.321q-.181-.12-.401-.12-.2 0-.401.12-.18.12-.28.32t-.14.421q-.02.2-.02.42v8.092h-1.563v-8.091q0-.22-.04-.421-.02-.22-.12-.42t-.3-.321q-.18-.12-.381-.12-.22 0-.42.12-.18.12-.281.32-.1.2-.14.421-.02.2-.02.42v8.092zm13.459.16q-.501 0-.982-.14-.48-.14-.861-.44-.36-.321-.621-.742-.26-.44-.42-.9-.14-.482-.2-.962-.04-.5-.04-.982V28.86h1.561v6.61q0 .34.04.68.04.32.14.641.1.3.281.581.2.28.46.48.261.201.581.301.32.08.661.08.34 0 .661-.08.32-.1.581-.3t.44-.48q.201-.281.301-.582.1-.32.14-.64.04-.341.04-.682V28.86h1.563v10.615h-1.563v-1.823q-.16.421-.42.802-.26.38-.641.66-.36.281-.821.401-.44.12-.881.12m6.89-.16V28.86h1.561v1.823q.16-.42.421-.801.26-.381.62-.661.381-.28.822-.401.46-.12.901-.12.501 0 .982.14.48.14.84.46.381.301.642.742.26.42.4.901.16.46.2.961.06.481.06.962v6.61h-1.562v-6.61q0-.34-.04-.661-.04-.34-.14-.641-.1-.32-.3-.6-.18-.281-.44-.482-.261-.2-.582-.28-.32-.1-.66-.1-.341 0-.662.1-.32.08-.58.28t-.461.481q-.18.28-.28.6-.1.301-.14.642-.04.32-.04.66v6.61zm10.234 0v-1.402h2.864v-7.81h-2.584V28.86h4.146v9.213h2.583v1.402zm3.505-12.478q-.26 0-.501-.06-.24-.08-.42-.26-.181-.18-.261-.42-.06-.24-.06-.501 0-.26.06-.501.08-.24.26-.42t.42-.261.502-.08.5.08.42.26.261.421.08.5-.08.501-.26.421-.42.26q-.241.06-.501.06m11.436 12.638q-.481 0-.962-.12-.48-.12-.88-.4-.381-.28-.662-.681-.26-.421-.42-.862-.16-.46-.22-.94-.06-.482-.06-.962v-5.408h-2.204V28.86h2.203v-4.106h1.562v4.106h3.245v1.402h-3.245v5.408q0 .28.02.58.02.28.08.561.08.26.2.541.121.26.301.46.2.201.48.321.281.1.562.1.38 0 .72-.18.361-.18.562-.5.2-.341.28-.722t.08-.76q0-.02-.02-.06v-.06h1.562v.2q0 .44-.08.88-.08.441-.26.862-.18.4-.48.76-.281.341-.662.582-.38.22-.821.3-.44.1-.881.1m5.087-.16v-1.402h2.864v-7.81h-2.584V28.86h4.146v9.213h2.584v1.402zm3.505-12.478q-.26 0-.501-.06-.24-.08-.42-.26t-.26-.42q-.061-.24-.061-.501 0-.26.06-.501.08-.24.26-.42t.421-.261.5-.08.501.08.421.26.26.421.08.5-.08.501-.26.421-.42.26q-.24.06-.501.06m10.054 12.638q-.56 0-1.102-.1-.52-.1-1.001-.36-.48-.28-.841-.681-.36-.42-.601-.902-.22-.5-.3-1.041t-.08-1.082v-2.603q0-.541.08-1.082.08-.54.3-1.021.22-.5.58-.902.381-.42.842-.68t1.001-.361q.541-.12 1.082-.12.54 0 1.081.12.541.1 1.002.36t.821.681q.38.401.6.902.221.48.301 1.021t.08 1.082v2.003h-6.208v.6q0 .34.04.681.04.34.16.661.14.32.34.601.22.28.501.48.28.181.621.261t.7.08q.381 0 .762-.08.4-.08.721-.28.34-.22.54-.561.201-.36.221-.741h1.562q-.02.44-.18.881-.14.44-.42.821-.26.36-.641.641-.36.26-.782.44-.42.161-.88.221-.461.06-.902.06m-2.363-6.168h4.646v-.601q0-.34-.04-.681-.04-.34-.16-.661-.12-.32-.34-.601-.201-.28-.481-.46-.28-.2-.621-.281-.34-.08-.681-.08-.34 0-.681.08-.34.08-.621.28-.28.18-.5.461-.201.28-.321.6-.12.321-.16.662-.04.34-.04.68zm12.317 6.168q-.46 0-.901-.06-.441-.04-.862-.18-.42-.16-.8-.42-.361-.261-.642-.601-.26-.361-.4-.802-.14-.44-.14-.88v-.02h1.562q0 .38.2.72.2.32.52.52.341.181.702.261.38.06.76.06.381 0 .742-.06.38-.08.701-.26.34-.2.54-.54.221-.341.221-.722 0-.34-.2-.64-.18-.301-.48-.481-.281-.2-.622-.28-.32-.101-.66-.201-.321-.1-.662-.2-.32-.1-.64-.22-.321-.12-.641-.261-.3-.16-.581-.36t-.521-.441q-.24-.26-.42-.561-.16-.3-.241-.641-.08-.34-.08-.68 0-.442.12-.862.14-.42.38-.781.241-.38.601-.641.361-.26.762-.42.42-.161.84-.221.441-.06.882-.06.44 0 .861.06.44.06.841.22.421.14.761.4.361.241.601.602.26.36.38.78.141.421.141.842v.02h-1.562q0-.36-.18-.681-.18-.32-.481-.5-.3-.201-.661-.261-.34-.08-.701-.08t-.721.08q-.36.06-.661.26-.3.2-.48.541-.18.32-.18.681 0 .36.18.661.2.3.48.5.3.18.62.281.341.08.662.18.34.1.66.2.341.1.662.22.32.121.62.281.321.14.601.34.28.201.501.461.24.24.4.541.181.3.261.641.1.32.1.681 0 .44-.14.881t-.4.801-.641.621-.802.42q-.42.141-.88.201-.441.06-.882.06m16.543-.16v-1.402h2.864v-7.81h-2.583V28.86h4.145v9.213h2.584v1.402zm3.505-12.478q-.26 0-.5-.06-.241-.08-.421-.26t-.26-.42q-.06-.24-.06-.501 0-.26.06-.501.08-.24.26-.42t.42-.261.501-.08.5.08.421.26.26.421.08.5-.08.501-.26.421-.42.26q-.24.06-.501.06m6.289 12.478V28.86h1.562v1.823q.16-.42.42-.801.261-.381.622-.661.38-.28.82-.401.461-.12.902-.12.5 0 .981.14t.842.46q.38.301.64.742.26.42.401.901.16.46.2.961.06.481.06.962v6.61h-1.562v-6.61q0-.34-.04-.661-.04-.34-.14-.641-.1-.32-.3-.6-.18-.281-.441-.482-.26-.2-.581-.28-.32-.1-.66-.1-.341 0-.662.1-.32.08-.58.28-.261.2-.461.481-.18.28-.28.6-.1.301-.14.642-.041.32-.041.66v6.61zm26.377 3.305q-.44 0-.881-.08-.42-.06-.821-.26-.38-.181-.701-.501-.32-.3-.521-.681-.2-.381-.3-.802-.08-.42-.08-.86-.481-.06-.942-.221-.44-.16-.821-.44-.38-.281-.681-.662-.28-.4-.46-.84-.181-.441-.241-.902-.06-.48-.06-.961v-6.91q0-.541.08-1.062.1-.52.32-1.001.22-.5.581-.901.38-.4.841-.641.461-.26.982-.36.54-.1 1.081-.1t1.062.1q.54.1 1.001.36.46.24.821.64.38.401.601.902.22.48.3 1.001.1.521.1 1.062v6.91q0 .46-.06.92-.06.462-.22.902-.16.42-.44.801-.26.38-.621.681-.36.28-.801.46-.42.161-.882.241.02.36.12.701t.341.601.58.38q.361.12.722.12h.781v1.403zm-2.624-4.547q.34 0 .661-.06.34-.08.621-.26t.48-.44q.221-.281.341-.582.14-.32.18-.64.04-.341.04-.681v-6.91q0-.34-.04-.661-.04-.34-.18-.641-.12-.32-.34-.58-.2-.281-.48-.462-.281-.18-.622-.24-.32-.08-.66-.08-.341 0-.682.08-.32.06-.6.24t-.501.461q-.2.26-.34.581-.12.3-.16.64-.041.321-.041.662v6.91q0 .34.04.68.04.321.16.641.14.3.34.581.221.26.502.44.28.181.6.261.34.06.681.06m9.834 1.242V26.537l-2.764 2.003-.901-1.142 3.665-2.644h1.562v14.721zm16.483 0v-.02q0-.54.02-1.081t.1-1.082q.1-.54.26-1.062.181-.52.421-.98.26-.482.581-.922.34-.44.721-.821.4-.38.821-.701.421-.34.862-.661.44-.32.86-.661.421-.36.722-.801.3-.461.44-.982.16-.54.16-1.081 0-.48-.12-.962-.1-.5-.4-.88-.28-.401-.761-.582-.46-.2-.941-.2-.441 0-.882.14-.44.14-.76.46-.301.321-.441.762-.14.42-.14.881v.02h-1.563v-.06q0-.48.1-.961.12-.5.36-.922.241-.44.602-.78.36-.341.8-.561t.922-.3q.5-.08 1.002-.08.52 0 1.041.1t.981.36q.461.26.802.66.36.381.58.862.22.48.3 1.001t.08 1.042q0 .58-.14 1.161-.12.561-.4 1.082-.26.5-.66.941-.381.44-.822.821-.44.36-.901.721-.46.34-.901.741-.421.381-.802.822-.36.44-.64.961-.28.5-.441 1.061t-.22 1.142h5.848v1.402zm13.74.16q-.541 0-1.082-.12-.54-.1-1.001-.36t-.841-.661q-.36-.42-.581-.902-.22-.5-.3-1.041t-.08-1.082v-6.71q0-.54.08-1.08.08-.541.3-1.022.22-.5.58-.901.381-.42.842-.681.46-.26 1.001-.36.54-.12 1.082-.12.54 0 1.081.12.541.1 1.002.36t.82.68q.381.401.602.902.22.48.3 1.021t.08 1.082v6.71q0 .54-.08 1.08-.08.542-.3 1.042-.22.481-.601.902-.36.4-.821.66-.461.261-1.002.361-.54.12-1.081.12m-2.324-6.529 4.647-3.705v-.641q0-.34-.04-.681-.04-.34-.16-.66-.12-.321-.34-.602-.201-.28-.482-.46-.28-.2-.62-.28t-.681-.081-.681.08-.621.28q-.28.18-.5.461-.201.28-.321.601t-.16.661-.04.68zm2.324 5.127q.34 0 .68-.08.341-.08.622-.26.28-.2.48-.48.22-.281.34-.602t.16-.66q.041-.341.041-.682v-4.346l-4.647 3.706v.64q0 .34.04.681.04.34.16.661.121.32.321.601.22.28.5.48.281.181.622.261t.68.08m6.289 1.242v-.02q0-.54.02-1.081t.1-1.082q.1-.54.26-1.062.18-.52.42-.98.261-.482.581-.922.34-.44.721-.821.401-.38.822-.701.42-.34.86-.661.441-.32.862-.661.42-.36.721-.801.3-.461.44-.982.16-.54.16-1.081 0-.48-.12-.962-.1-.5-.4-.88-.28-.401-.76-.582-.462-.2-.942-.2-.44 0-.881.14t-.762.46q-.3.321-.44.762-.14.42-.14.881v.02h-1.563v-.06q0-.48.1-.961.12-.5.361-.922.24-.44.6-.78.361-.341.802-.561.44-.22.921-.3.501-.08 1.002-.08.52 0 1.041.1t.982.36.8.66q.361.381.582.862.22.48.3 1.001t.08 1.042q0 .58-.14 1.161-.12.561-.4 1.082-.261.5-.662.941-.38.44-.82.821-.441.36-.902.721-.46.34-.901.741-.42.381-.801.822-.36.44-.641.961-.28.5-.441 1.061t-.22 1.142h5.848v1.402zm13.799.16q-.52 0-1.041-.08-.501-.08-.962-.3t-.841-.561-.64-.781q-.261-.46-.381-.961t-.12-1.002v-.04h1.562v.02q0 .48.16.941.18.441.52.761.341.32.802.461.46.14.941.14.5 0 .981-.16.481-.18.801-.56.341-.381.501-.862.16-.5.16-1.001 0-.461-.16-.922-.14-.46-.42-.84-.28-.401-.681-.682-.38-.28-.842-.42-.44-.14-.92-.18-.482-.04-.942-.04v-1.403q.42 0 .861-.02.44-.04.861-.16.42-.14.781-.4.36-.26.621-.601.26-.36.38-.781.141-.441.141-.882 0-.44-.14-.86-.12-.442-.4-.782-.281-.36-.722-.52-.42-.161-.861-.161-.44 0-.861.14-.4.14-.701.46-.28.321-.42.742-.121.42-.121.861v.04h-1.562v-.08q0-.48.1-.941.12-.48.34-.902.22-.44.561-.78.36-.341.781-.561.44-.22.922-.3.48-.08.961-.08.48 0 .961.1.501.08.922.32.44.22.78.58.361.361.562.802.22.44.32.92.12.482.12.982 0 .581-.16 1.142-.16.54-.48 1.021-.321.481-.782.842-.46.34-1.001.54.6.22 1.121.601.521.36.882.881.38.501.56 1.122.18.6.18 1.242 0 .52-.12 1.041t-.36 1.002q-.24.46-.621.84-.38.381-.841.622-.46.24-1.002.34-.52.1-1.041.1" aria-label="Size of programming language communities in Q1 2023" style="font-size:21.543px;line-height:1.25;font-family:Iosevka;-inkscape-font-specification:&quot;Iosevka, Normal&quot;;fill:#000;stroke-width:.500706"/><path id="text201" d="M118.094 65.461q-.279 0-.558-.058-.28-.047-.535-.175-.245-.128-.442-.337-.198-.21-.326-.454-.128-.256-.198-.535-.058-.28-.058-.559v-.023h.907v.012q0 .256.07.512.082.244.244.43.163.186.408.28.244.093.488.093.198 0 .373-.047.186-.047.337-.163t.256-.268q.105-.162.163-.337.058-.174.082-.36.023-.187.023-.373V57.63h-1.583v-.814h2.49v6.283q0 .303-.046.605-.047.29-.163.57t-.314.524q-.198.233-.454.384t-.558.21q-.303.069-.606.069m5.516 0q-.233 0-.466-.047-.232-.034-.442-.14-.198-.115-.36-.29-.152-.175-.257-.384-.093-.21-.14-.442-.034-.233-.034-.466 0-.302.07-.593.081-.29.256-.524.186-.244.43-.407.256-.163.535-.256.291-.093.582-.128.303-.035.605-.035h1.036v-.628q0-.244-.082-.489-.081-.244-.267-.407-.187-.163-.43-.233-.245-.07-.49-.07-.232 0-.465.047-.221.047-.407.175t-.291.337-.105.43h-.907q0-.267.07-.523.08-.256.232-.477.151-.221.36-.372.222-.163.466-.256.245-.105.512-.14.268-.035.535-.035.28 0 .559.047.28.034.535.15.256.117.466.303.22.187.36.43.14.245.198.524.058.28.058.559v4.247h-.907v-1q-.105.255-.303.476-.186.21-.43.361-.245.14-.524.198-.28.058-.558.058m.349-.814q.279 0 .558-.082.291-.081.5-.268.21-.186.303-.453.105-.28.105-.57v-.71h-1.036q-.186 0-.36.023-.175.012-.35.058-.162.035-.325.117-.163.07-.291.197-.128.128-.186.303-.059.163-.059.337 0 .221.07.43.082.21.245.362.162.15.384.209.22.047.442.047m5.503.72-1.873-6.166h.954l1.164 4.107.14.512q.07.256.139.5.07-.244.14-.5l.14-.512 1.163-4.107h.954l-1.873 6.167zm5.783.094q-.233 0-.465-.047-.233-.034-.442-.14-.198-.116-.361-.29-.151-.175-.256-.384-.093-.21-.14-.442-.035-.233-.035-.466 0-.302.07-.593.082-.29.256-.524.186-.244.43-.407.257-.163.536-.256.29-.093.582-.128.302-.035.605-.035h1.035v-.628q0-.244-.081-.489-.082-.244-.268-.407t-.43-.233-.489-.07q-.233 0-.465.047-.221.047-.408.175t-.29.337-.105.43h-.908q0-.267.07-.523.081-.256.233-.477.151-.221.36-.372.221-.163.466-.256.244-.105.512-.14.267-.035.535-.035.28 0 .559.047.279.034.535.15.256.117.465.303.221.187.36.43.14.245.199.524.058.28.058.559v4.247h-.908v-1q-.104.255-.302.476-.186.21-.43.361-.245.14-.524.198-.28.058-.559.058m.35-.814q.278 0 .558-.082.29-.081.5-.268.21-.186.303-.453.104-.28.104-.57v-.71h-1.035q-.186 0-.361.023-.175.012-.349.058-.163.035-.326.117-.163.07-.29.197-.129.128-.187.303-.058.163-.058.337 0 .221.07.43.081.21.244.362.163.15.384.209.221.047.442.047m6.015.814q-.291 0-.582-.047-.29-.046-.559-.162-.256-.128-.477-.326t-.372-.442q-.14-.256-.21-.536-.07-.29-.07-.581v-.035h.908v.023q0 .256.094.512.093.256.279.442.198.186.454.268.267.07.535.07.267 0 .535-.082.28-.093.465-.29.187-.21.28-.478.093-.267.093-.547 0-.29-.128-.57-.117-.28-.326-.489-.198-.22-.465-.36-.256-.152-.524-.28-.268-.127-.524-.267-.256-.151-.5-.338-.233-.186-.43-.407-.198-.22-.35-.477-.14-.256-.209-.547-.07-.29-.07-.581 0-.303.058-.582.07-.291.198-.547.128-.268.326-.477.21-.221.465-.36.256-.14.547-.187.291-.058.582-.058t.57.046.535.175.466.337q.21.198.337.454.14.244.198.524.07.279.07.57v.035h-.908v-.024q0-.256-.081-.5-.081-.256-.256-.442t-.43-.268q-.245-.093-.5-.093-.268 0-.524.105-.256.093-.431.302-.163.198-.244.466-.082.256-.082.512 0 .302.117.582.128.279.325.5.21.21.466.36.267.14.523.268.268.128.524.28.268.14.5.325.233.175.43.396.21.221.35.489.14.256.21.546.08.291.08.582 0 .303-.069.594-.07.29-.21.558t-.36.477q-.21.21-.477.35-.268.127-.57.174-.291.058-.582.058m5.794 0q-.302 0-.616-.07-.315-.058-.582-.21-.268-.162-.477-.395-.198-.244-.326-.523-.128-.291-.175-.594-.046-.314-.046-.628v-1.513q0-.314.046-.616.047-.315.175-.594.128-.29.326-.523.21-.245.477-.396.267-.163.582-.221.314-.07.616-.07.291 0 .582.058.29.047.547.175.267.128.477.337.21.198.349.454.14.256.198.547.07.28.07.57v.023h-.908v-.011q0-.268-.081-.524-.082-.256-.268-.442-.186-.198-.442-.28-.256-.092-.524-.092-.198 0-.395.046-.187.047-.35.163t-.279.28q-.104.162-.174.348-.07.175-.093.373-.024.197-.024.395v1.513q0 .198.024.395.023.198.093.384.07.175.174.338.117.163.28.28.162.115.349.162.197.047.395.047.268 0 .524-.082.256-.093.442-.28.186-.197.268-.453.081-.256.081-.524v-.011h.908v.023q0 .291-.07.582-.058.28-.198.535-.14.256-.35.466-.209.197-.476.325-.256.128-.547.175-.29.058-.582.058m4.387-.093V59.2h.907v1.455q.07-.28.187-.547.116-.28.29-.512.187-.233.454-.361.28-.128.57-.128.221 0 .43.058.21.047.385.175.174.128.29.314.117.174.175.384.07.21.093.43.024.21.024.42h-.908q0-.175-.035-.338-.023-.175-.116-.326-.082-.151-.245-.221-.15-.081-.325-.081-.233 0-.454.104-.221.105-.373.291-.14.186-.232.407-.082.21-.128.443-.047.232-.07.465-.012.233-.012.465v3.27zm5.247 0v-.815h1.664v-4.537h-1.5V59.2h2.408v5.352h1.5v.815zm2.037-7.249q-.152 0-.291-.035-.14-.046-.245-.151t-.15-.245q-.036-.14-.036-.29 0-.152.035-.291.047-.14.151-.245.105-.104.245-.15.14-.047.29-.047.152 0 .291.046.14.047.245.151.105.105.151.245.047.14.047.29 0 .152-.047.291-.047.14-.151.245-.105.105-.245.151-.14.035-.29.035m3.653 9.634v-8.552h.908v1.059q.093-.244.244-.465.151-.233.36-.384.222-.163.478-.233.267-.07.535-.07.29 0 .57.081.291.082.524.256.232.175.384.42.163.244.256.523.093.268.128.558t.035.582v1.513q0 .29-.035.582-.035.29-.128.57-.093.267-.256.512-.152.244-.384.419-.233.174-.524.256-.28.081-.57.081-.268 0-.535-.07-.256-.07-.477-.22-.21-.164-.361-.385-.151-.233-.244-.477v3.444zm2.176-3.106q.198 0 .384-.047.198-.047.36-.151.164-.117.28-.28.128-.162.198-.349t.093-.384.023-.395v-1.513q0-.198-.023-.395-.023-.198-.093-.384-.07-.187-.198-.35-.116-.162-.28-.267-.162-.116-.36-.163-.186-.046-.384-.046t-.396.046q-.186.047-.337.163t-.268.29q-.104.164-.163.35-.058.174-.081.372-.023.186-.023.384v1.513q0 .198.023.395.023.187.081.373.059.174.163.349.117.163.268.28.151.115.337.162.198.047.396.047m6.632.814q-.28 0-.558-.07-.28-.07-.512-.232-.221-.163-.384-.396-.152-.244-.245-.5-.093-.268-.128-.547-.035-.28-.035-.559v-3.141h-1.28V59.2h1.28v-2.385h.908V59.2h1.885v.815h-1.885v3.141q0 .163.012.338.011.163.046.325.047.152.117.315.07.15.174.267.117.117.28.186.162.059.325.059.221 0 .42-.105.209-.105.325-.291.116-.198.163-.419.046-.221.046-.442 0-.012-.011-.035v-.035h.907v.116q0 .256-.046.512-.047.256-.152.5-.104.233-.279.443-.163.198-.384.337-.22.128-.477.175-.256.058-.512.058" aria-label="JavaScript" style="font-size:12.5155px;line-height:1.25;font-family:Iosevka;-inkscape-font-specification:&quot;Iosevka, Normal&quot;;fill:#000;stroke-width:.290888"/><path id="text202" d="M140.155 91.617v-8.552h2.048q.314 0 .629.07.325.058.605.22.279.163.488.42.21.244.338.546.128.291.174.617.047.314.047.628 0 .326-.047.652-.046.314-.174.617-.128.29-.338.546-.21.245-.488.408-.28.163-.605.232-.315.059-.629.059h-1.14v3.537zm.908-4.352h1.14q.21 0 .407-.047.198-.058.361-.174.175-.116.291-.29.128-.175.198-.362.07-.197.093-.407t.023-.419q0-.198-.023-.407-.023-.21-.093-.396-.07-.197-.198-.372-.116-.174-.29-.29-.164-.117-.362-.164-.197-.058-.407-.058h-1.14zm5.736 6.737q.105-.35.21-.71l.21-.698.267-.92-1.85-6.224h.942l1.385 4.829 1.361-4.83h.943l-2.525 8.553zm7.796-2.292q-.28 0-.558-.07-.28-.07-.512-.233-.222-.163-.384-.395-.152-.245-.245-.5-.093-.268-.128-.548-.035-.279-.035-.558v-3.142h-1.28v-.814h1.28v-2.385h.908v2.385h1.885v.814h-1.885v3.142q0 .163.011.337.012.163.047.326.047.151.116.314.07.152.175.268.116.116.28.186.162.058.325.058.221 0 .419-.104.21-.105.326-.291.116-.198.163-.42.046-.22.046-.441 0-.012-.011-.035v-.035h.907v.116q0 .256-.046.512-.047.256-.152.5-.104.233-.279.443-.163.197-.384.337-.221.128-.477.175-.256.058-.512.058m2.827-.093v-8.552h.908v3.444q.093-.245.244-.466.152-.22.361-.384.221-.163.477-.232.268-.07.524-.07.29 0 .57.081.28.082.489.268.22.174.372.43.151.245.233.524.093.268.116.558.035.28.035.559v3.84h-.908v-3.84q0-.198-.023-.384-.023-.198-.081-.372-.059-.186-.175-.35-.105-.162-.256-.279-.151-.116-.337-.163-.186-.058-.384-.058t-.384.058q-.186.047-.338.163-.15.117-.267.28-.105.163-.163.349-.058.174-.082.372-.023.186-.023.384v3.84zm7.982.093q-.314 0-.628-.07-.314-.058-.582-.21-.267-.15-.488-.383-.21-.245-.338-.524-.128-.29-.174-.605-.047-.314-.047-.628v-1.513q0-.314.047-.628.046-.314.174-.594.128-.29.338-.523.22-.245.488-.396t.582-.21q.314-.07.628-.07.315 0 .629.07.314.059.581.21.268.151.477.396.222.232.35.523.128.28.174.594.047.314.047.628v1.513q0 .314-.047.628-.046.314-.174.605-.128.28-.35.524-.209.232-.477.384-.267.15-.581.209-.314.07-.629.07m0-.815q.198 0 .396-.046.198-.047.36-.151.164-.117.28-.28.128-.163.198-.349t.093-.384.023-.395v-1.513q0-.198-.023-.396-.023-.197-.093-.384-.07-.186-.198-.349-.116-.163-.28-.267-.162-.117-.36-.163-.198-.047-.396-.047-.197 0-.395.047-.198.046-.361.163-.163.104-.29.267-.117.163-.187.35t-.093.383-.023.396v1.513q0 .197.023.395t.093.384.186.35q.128.162.291.279.163.104.36.15.199.047.396.047m3.654.722V85.45h.907v1.059q.094-.245.245-.466.151-.22.36-.384.222-.163.478-.232.267-.07.523-.07.291 0 .57.081.28.082.489.268.221.174.372.43.152.245.233.524.093.268.116.558.035.28.035.559v3.84h-.907v-3.84q0-.198-.023-.384-.024-.198-.082-.372-.058-.186-.174-.35-.105-.162-.256-.279-.152-.116-.338-.163-.186-.058-.384-.058t-.384.058q-.186.047-.337.163-.151.117-.268.28-.105.163-.163.349-.058.174-.081.372-.023.186-.023.384v3.84z" aria-label="Python" style="font-size:12.5155px;line-height:1.25;font-family:Iosevka;-inkscape-font-specification:&quot;Iosevka, Normal&quot;;fill:#000;stroke-width:.290888"/><path id="text203" d="M153.513 120.25q-.28 0-.559-.057-.279-.047-.535-.175-.244-.128-.442-.337t-.326-.454q-.128-.256-.198-.535-.058-.28-.058-.559v-.023h.908v.011q0 .256.07.512.081.245.244.431t.407.28q.245.092.489.092.198 0 .372-.046.186-.047.338-.163.15-.117.256-.268.104-.163.163-.337.058-.175.08-.36.024-.187.024-.373v-5.469h-1.582v-.814h2.49v6.283q0 .302-.047.605-.046.29-.163.57-.116.28-.314.524-.198.232-.454.383-.256.152-.558.21-.303.07-.605.07zm5.515 0q-.233 0-.465-.046-.233-.035-.442-.14-.198-.116-.361-.29-.151-.175-.256-.384-.093-.21-.14-.442-.035-.233-.035-.466 0-.302.07-.593.082-.291.256-.524.186-.244.43-.407.257-.163.536-.256.29-.093.582-.128.302-.035.605-.035h1.035v-.628q0-.245-.081-.489-.082-.244-.268-.407t-.43-.233-.489-.07q-.233 0-.465.047-.221.046-.408.174t-.29.338q-.105.21-.105.43h-.908q0-.267.07-.523.081-.256.233-.477.151-.221.36-.373.222-.163.466-.256.244-.104.512-.14.267-.034.535-.034.28 0 .559.046.279.035.535.152t.465.302q.221.186.36.43.14.245.199.524.058.28.058.559v4.247h-.908v-1.001q-.104.256-.302.477-.186.21-.43.36-.245.14-.524.199-.28.058-.559.058m.35-.814q.278 0 .558-.081.29-.082.5-.268t.303-.454q.104-.279.104-.57v-.71h-1.035q-.186 0-.361.024-.175.011-.349.058-.163.035-.326.116-.163.07-.29.198-.129.128-.187.303-.058.163-.058.337 0 .221.07.43.081.21.244.361.163.152.384.21.221.046.442.046m5.503.722-1.874-6.167h.955l1.163 4.107.14.512q.07.256.14.5.07-.244.139-.5l.14-.512 1.163-4.107h.954l-1.873 6.167zm5.783.093q-.233 0-.466-.047-.233-.035-.442-.14-.198-.116-.36-.29-.152-.175-.257-.384-.093-.21-.14-.442-.034-.233-.034-.466 0-.302.07-.593.08-.291.256-.524.186-.244.43-.407.256-.163.535-.256.291-.093.582-.128.303-.035.605-.035h1.036v-.628q0-.245-.082-.489-.081-.244-.267-.407-.187-.163-.43-.233-.245-.07-.49-.07-.232 0-.465.047-.221.046-.407.174t-.291.338-.105.43h-.907q0-.267.07-.523.08-.256.232-.477.151-.221.36-.373.222-.163.466-.256.245-.104.512-.14.268-.034.535-.034.28 0 .559.046.28.035.535.152.256.116.466.302.22.186.36.43.14.245.198.524.058.28.058.559v4.247h-.907v-1q-.105.255-.303.476-.186.21-.43.36-.245.14-.524.199-.28.058-.558.058m.349-.815q.279 0 .558-.081.291-.081.5-.268.21-.186.303-.453.105-.28.105-.57v-.71h-1.036q-.186 0-.36.023-.175.011-.35.058-.162.035-.325.116-.163.07-.291.198t-.186.303q-.059.163-.059.337 0 .221.07.43.082.21.245.361.162.152.383.21.222.046.443.046" aria-label="Java" style="font-size:12.5155px;line-height:1.25;font-family:Iosevka;-inkscape-font-specification:&quot;Iosevka, Normal&quot;;fill:#000;stroke-width:.290888"/><path id="text204" d="M147.916 144.929q-.302 0-.616-.058-.303-.059-.57-.21-.268-.151-.478-.384t-.337-.512q-.128-.28-.175-.582-.046-.314-.046-.616v-4.015q0-.302.046-.605.047-.314.175-.593.128-.28.337-.512.21-.233.477-.384.268-.151.57-.21.315-.058.617-.058.291 0 .57.047.291.047.547.175.268.128.477.325.221.198.35.454.139.256.209.535.07.28.07.57v.035h-.908v-.023q0-.256-.093-.512-.081-.256-.268-.442-.174-.186-.43-.268-.256-.081-.524-.081-.29 0-.57.116-.268.105-.442.338-.175.232-.244.523-.059.28-.059.57v4.015q0 .29.059.582.07.279.244.511.174.233.442.35.28.104.57.104.268 0 .524-.081.256-.082.43-.268.187-.186.268-.442.093-.256.093-.512v-.023h.908v.035q0 .29-.07.57t-.21.535q-.128.256-.349.454-.21.198-.477.326-.256.128-.547.174-.279.047-.57.047m3.63 1.57 3.514-11.24h.931l-3.514 11.24zm8.006-1.57q-.303 0-.617-.058-.302-.059-.57-.21t-.477-.384q-.21-.233-.338-.512-.128-.28-.174-.582-.047-.314-.047-.616v-4.015q0-.302.047-.605.046-.314.174-.593.128-.28.338-.512.21-.233.477-.384.268-.151.57-.21.314-.058.617-.058.29 0 .57.047.29.047.547.175.267.128.477.325.22.198.349.454.14.256.21.535.07.28.07.57v.035h-.908v-.023q0-.256-.094-.512-.081-.256-.267-.442-.175-.186-.43-.268-.257-.081-.524-.081-.291 0-.57.116-.268.105-.443.338-.174.232-.244.523-.058.28-.058.57v4.015q0 .29.058.582.07.279.244.511.175.233.443.35.279.104.57.104.267 0 .523-.081.256-.082.43-.268.187-.186.268-.442.094-.256.094-.512v-.023h.907v.035q0 .29-.07.57t-.21.535q-.127.256-.348.454-.21.198-.477.326-.256.128-.547.174-.28.047-.57.047m6.143-1.804v-1.838h-2.455v-.815h2.455v-1.838h.908v1.838h1.803v.815h-1.803v1.838zm4.329 0v-1.838h-1.804v-.815h1.804v-1.838h.907v1.838h2.455v.815h-2.455v1.838z" aria-label="C/C++" style="font-size:12.5155px;line-height:1.25;font-family:Iosevka;-inkscape-font-specification:&quot;Iosevka, Normal&quot;;fill:#000;stroke-width:.290888"/><path id="text205" d="M164.962 172.015q-.302 0-.616-.058-.303-.058-.57-.21-.268-.15-.478-.383t-.337-.512q-.128-.28-.175-.582-.046-.314-.046-.617v-4.014q0-.303.046-.605.047-.314.175-.593.128-.28.337-.512.21-.233.477-.384.268-.152.57-.21.315-.058.617-.058.291 0 .57.047.291.046.547.174.268.128.477.326.221.198.35.454.139.256.209.535.07.28.07.57v.035h-.908v-.023q0-.256-.093-.512-.081-.256-.268-.442-.174-.187-.43-.268t-.524-.081q-.29 0-.57.116-.268.105-.442.337-.175.233-.244.524-.059.28-.059.57v4.014q0 .291.059.582.07.28.244.512.174.233.442.35.28.104.57.104.268 0 .524-.082.256-.081.43-.267.187-.186.268-.442.093-.256.093-.512v-.023h.908v.034q0 .291-.07.57-.07.28-.21.536-.128.256-.349.453-.21.198-.477.326-.256.128-.547.175-.279.046-.57.046m4.282.733v-2.466h-1v-.815h1v-3.002h-1v-.814h1v-2.467h.908v2.467h1.326v-2.467h.908v2.467h1v.814h-1v3.002h1v.815h-1v2.466h-.908v-2.466h-1.326v2.466zm.908-3.28h1.326v-3.003h-1.326z" aria-label="C#" style="font-size:12.5155px;line-height:1.25;font-family:Iosevka;-inkscape-font-specification:&quot;Iosevka, Normal&quot;;fill:#000;stroke-width:.290888"/><path id="text206" d="M157.422 198.997v-8.552h2.048q.314 0 .629.07.325.058.605.22.279.164.488.42.21.244.338.547.128.29.174.616.047.314.047.629 0 .325-.047.651-.046.314-.174.617-.128.29-.338.547-.21.244-.488.407-.28.163-.605.233-.315.058-.629.058h-1.14v3.537zm.908-4.352h1.14q.21 0 .408-.046.197-.058.36-.175.175-.116.291-.29.128-.175.198-.361.07-.198.093-.408t.023-.418q0-.198-.023-.408t-.093-.395q-.07-.198-.198-.373-.116-.174-.29-.29-.164-.117-.361-.163-.198-.059-.408-.059h-1.14zm4.724 4.352v-8.552h.908v3.723h2.513v-3.723h.907v8.552h-.907v-4.014h-2.513v4.014zm6.004 0v-8.552h2.048q.314 0 .628.07.326.058.605.22.28.164.489.42.21.244.337.547.128.29.175.616.046.314.046.629 0 .325-.046.651-.047.314-.175.617-.128.29-.337.547-.21.244-.489.407-.28.163-.605.233-.314.058-.628.058h-1.14v3.537zm.907-4.352h1.14q.21 0 .408-.046.198-.058.36-.175.175-.116.292-.29.128-.175.197-.361.07-.198.094-.408t.023-.418q0-.198-.023-.408-.024-.21-.094-.395-.07-.198-.197-.373-.117-.174-.291-.29-.163-.117-.361-.163-.198-.059-.407-.059h-1.14z" aria-label="PHP" style="font-size:12.5155px;line-height:1.25;font-family:Iosevka;-inkscape-font-specification:&quot;Iosevka, Normal&quot;;fill:#000;stroke-width:.290888"/><path id="text207" d="m36.89 222.86-1.873-8.552h.93l1.164 5.702q.082.372.152.745.081.372.15.744l.14-.744.163-.745 1.164-5.702h.93l-1.873 8.553zm4.305 0v-.814h1.664v-4.538h-1.5v-.814h2.408v5.352h1.5v.815zm2.037-7.248q-.152 0-.291-.035-.14-.047-.245-.152-.104-.104-.15-.244-.036-.14-.036-.29 0-.152.035-.292.047-.14.151-.244.105-.105.245-.151.14-.047.29-.047.152 0 .292.047.14.046.244.151.105.105.151.244.047.14.047.291 0 .152-.047.291-.046.14-.151.244-.105.105-.244.152-.14.035-.291.035m5.806 7.342q-.268 0-.524-.035-.256-.023-.5-.105-.245-.093-.466-.244-.21-.152-.372-.35-.151-.209-.233-.465-.081-.256-.081-.512v-.011h.907q0 .22.117.419.116.186.302.302.198.105.408.151.22.035.442.035.22 0 .43-.035.221-.046.407-.15.198-.117.315-.315.128-.198.128-.419 0-.198-.117-.372-.104-.175-.279-.28-.163-.116-.36-.162-.187-.059-.385-.117-.186-.058-.384-.116-.186-.058-.372-.128t-.372-.151q-.175-.094-.338-.21t-.302-.256q-.14-.151-.245-.326-.093-.174-.14-.372-.046-.198-.046-.396 0-.256.07-.5.082-.244.221-.454.14-.22.35-.372.209-.151.441-.244.245-.093.489-.128.256-.035.512-.035t.5.035q.256.035.489.128.244.081.442.232.21.14.35.35.15.209.22.453.082.245.082.489v.011h-.908q0-.209-.105-.395-.104-.186-.279-.291-.174-.116-.384-.151-.198-.047-.407-.047-.21 0-.419.047-.21.035-.384.151t-.28.314q-.104.186-.104.396t.105.384q.116.174.28.29.174.105.36.163.198.047.384.105.198.058.384.117.198.058.384.128t.36.162q.187.082.35.198.162.117.29.268.14.14.233.314.105.175.151.372.059.187.059.396 0 .256-.082.512-.081.256-.233.465-.15.21-.372.361-.221.151-.465.244-.245.082-.512.117-.256.035-.512.035m5.48 0q-.29 0-.57-.082-.28-.081-.5-.256-.21-.186-.361-.43-.151-.256-.244-.524-.082-.28-.117-.558-.023-.291-.023-.57v-3.84h.907v3.84q0 .197.024.395.023.186.081.372.058.175.163.338.116.163.268.279.151.116.337.175.186.046.384.046t.384-.046q.186-.059.338-.175.15-.116.255-.28.117-.162.175-.337.058-.186.081-.372.024-.198.024-.396v-3.84h.907v6.168h-.907v-1.06q-.093.245-.245.466-.15.221-.372.384-.21.163-.477.233-.256.07-.512.07m5.608 0q-.232 0-.465-.047-.233-.035-.442-.14-.198-.116-.36-.29-.152-.175-.257-.384-.093-.21-.14-.443-.034-.232-.034-.465 0-.303.07-.593.08-.291.255-.524.187-.244.43-.407.257-.163.536-.256.291-.093.582-.128.302-.035.605-.035h1.035v-.629q0-.244-.081-.488-.081-.245-.268-.407-.186-.163-.43-.233t-.489-.07q-.233 0-.465.047-.221.046-.407.174-.187.128-.291.338-.105.209-.105.43h-.908q0-.268.07-.523.082-.256.233-.478.151-.22.36-.372.222-.163.466-.256.244-.105.512-.14.268-.034.535-.034.28 0 .559.046.279.035.535.151.256.117.465.303.221.186.361.43.14.245.198.524.058.28.058.559v4.247h-.908v-1.001q-.104.256-.302.477-.186.21-.43.36-.245.14-.524.198-.28.059-.559.059m.35-.815q.279 0 .558-.081.29-.082.5-.268t.303-.454q.104-.279.104-.57v-.71h-1.035q-.186 0-.36.024-.175.011-.35.058-.163.035-.326.116-.163.07-.29.198-.129.128-.187.303-.058.162-.058.337 0 .221.07.43.081.21.244.361t.384.21q.221.046.442.046m3.99.722v-.815h1.664v-6.923h-1.5v-.815h2.408v7.738h1.5v.815zm13.311.093q-.29 0-.581-.082-.28-.081-.512-.256-.233-.174-.396-.419-.151-.244-.244-.512-.093-.279-.128-.57t-.035-.582v-1.512q0-.291.035-.582.035-.29.128-.558.093-.28.244-.524.163-.244.396-.419.232-.174.512-.256.29-.081.581-.081.268 0 .524.07.268.07.477.232.221.151.372.384.152.221.245.466v-3.445h.907v8.553h-.907v-1.06q-.093.245-.245.478-.15.22-.372.384-.21.151-.477.22-.256.07-.524.07m.35-.815q.197 0 .383-.046.198-.059.35-.175.15-.116.255-.28.117-.162.175-.337.058-.186.081-.372.024-.198.024-.396v-1.512q0-.198-.024-.384-.023-.198-.081-.373-.058-.186-.175-.349-.104-.174-.256-.29-.15-.117-.349-.163-.186-.047-.384-.047-.197 0-.395.047-.186.046-.35.163-.162.104-.29.267-.117.163-.186.35-.07.185-.093.383-.024.198-.024.396v1.512q0 .198.024.396.023.198.093.384t.186.35q.128.162.29.278.164.105.35.152.198.046.395.046m5.852.815q-.326 0-.64-.059-.302-.058-.582-.209-.279-.163-.488-.396-.21-.244-.35-.523-.127-.291-.174-.605t-.047-.629v-1.512q0-.314.047-.628.047-.315.175-.594.128-.29.337-.523.221-.245.489-.396.267-.151.581-.21.315-.07.629-.07t.628.07q.314.059.582.21t.477.396q.221.232.349.523.128.28.175.594t.046.628v1.163h-3.607v.35q0 .197.023.395.024.198.093.384.082.186.198.35.128.162.291.278.163.105.36.152.199.046.408.046.221 0 .442-.046.233-.047.42-.163.197-.128.313-.326.117-.21.128-.43h.908q-.012.255-.105.511-.081.256-.244.477-.152.21-.373.373-.21.151-.453.256-.245.093-.512.128-.268.035-.524.035m-1.373-3.584h2.7v-.35q0-.197-.024-.395-.023-.198-.093-.384t-.198-.349q-.116-.163-.279-.267-.163-.117-.36-.163-.198-.047-.396-.047t-.396.047-.36.163q-.163.104-.291.267-.117.163-.187.35-.07.185-.093.383t-.023.396zm6.644 3.49-1.873-6.166h.954l1.163 4.107.14.512q.07.256.14.5.07-.244.14-.5l.139-.512 1.163-4.107h.954l-1.873 6.167zm6.365.094q-.326 0-.64-.059-.303-.058-.582-.209-.28-.163-.489-.396-.21-.244-.349-.523-.128-.291-.175-.605t-.046-.629v-1.512q0-.314.046-.628.047-.315.175-.594.128-.29.337-.523.222-.245.49-.396.267-.151.58-.21.315-.07.63-.07.313 0 .628.07.314.059.581.21.268.151.477.396.221.232.35.523.127.28.174.594t.047.628v1.163H94.24v.35q0 .197.023.395t.093.384q.081.186.198.35.128.162.29.278.163.105.361.152.198.046.407.046.222 0 .443-.046.232-.047.419-.163.197-.128.314-.326.116-.21.128-.43h.907q-.011.255-.104.511-.082.256-.245.477-.151.21-.372.373-.21.151-.454.256-.244.093-.512.128t-.524.035m-1.373-3.584h2.699v-.35q0-.197-.023-.395-.024-.198-.093-.384-.07-.186-.198-.349-.117-.163-.28-.267-.162-.117-.36-.163-.198-.047-.396-.047t-.395.047-.361.163q-.163.104-.291.267-.116.163-.186.35-.07.185-.093.383t-.023.396zm5.13 3.49v-.814h1.665v-6.923h-1.501v-.815h2.408v7.738h1.501v.815zm7.855.094q-.314 0-.629-.07-.314-.058-.581-.21-.268-.15-.49-.384-.209-.244-.337-.523-.128-.291-.174-.605-.047-.314-.047-.628v-1.513q0-.314.047-.628.046-.315.174-.594.128-.29.338-.523.221-.245.489-.396.267-.151.581-.21.315-.07.629-.07t.628.07q.314.059.582.21t.477.396q.22.232.349.523.128.28.174.594.047.314.047.628v1.513q0 .314-.047.628-.046.314-.174.605-.128.28-.35.523-.209.233-.476.384-.268.152-.582.21-.314.07-.628.07m0-.815q.197 0 .395-.046.198-.047.361-.152.163-.116.28-.279.127-.163.197-.349t.093-.384.023-.396v-1.512q0-.198-.023-.396t-.093-.384-.198-.349q-.116-.163-.279-.267-.163-.117-.36-.163-.199-.047-.396-.047-.198 0-.396.047-.198.046-.36.163-.164.104-.292.267-.116.163-.186.35-.07.185-.093.383t-.023.396v1.512q0 .198.023.396.024.198.093.384.07.186.186.35.128.162.291.278.163.105.361.152.198.046.396.046m3.653 3.107v-8.552h.908v1.059q.093-.245.244-.466.151-.233.36-.384.222-.163.478-.232.268-.07.535-.07.291 0 .57.081.291.082.524.256.233.175.384.419.163.244.256.524.093.267.128.558t.035.582v1.512q0 .291-.035.582t-.128.57q-.093.268-.256.512-.151.245-.384.42-.233.174-.524.255-.279.082-.57.082-.267 0-.535-.07-.256-.07-.477-.221-.21-.163-.36-.384-.152-.233-.245-.477v3.444zm2.176-3.107q.198 0 .384-.046.198-.047.36-.152.164-.116.28-.279.128-.163.198-.349t.093-.384.023-.396v-1.512q0-.198-.023-.396t-.093-.384-.198-.349q-.116-.163-.28-.267-.162-.117-.36-.163-.186-.047-.384-.047t-.396.047q-.186.046-.337.163-.151.116-.268.29-.104.163-.162.35-.059.174-.082.372-.023.186-.023.384v1.512q0 .198.023.396.023.186.082.372.058.175.162.35.117.162.268.279.151.116.337.163.198.046.396.046m3.456.722v-6.167h.907v.488q.059-.128.14-.232.081-.117.186-.198.117-.081.245-.116.14-.035.279-.035.174 0 .337.058t.28.174q.127.117.209.268t.128.326q.046-.163.128-.314.081-.163.198-.28.116-.116.279-.174t.337-.058.338.07q.174.058.302.186.128.116.198.279.082.163.128.337.047.163.058.338.024.174.024.349v4.7h-.908v-4.7q0-.128-.023-.244-.012-.128-.07-.245t-.175-.186q-.104-.07-.232-.07-.117 0-.233.07-.105.07-.163.186-.058.117-.081.245-.012.116-.012.244v4.7h-.907v-4.7q0-.128-.024-.244-.011-.128-.07-.245-.058-.116-.174-.186-.105-.07-.221-.07-.128 0-.244.07-.105.07-.163.186-.059.117-.082.245-.011.116-.011.244v4.7zm8.191.093q-.326 0-.64-.059-.302-.058-.582-.209-.279-.163-.488-.396-.21-.244-.35-.523-.127-.291-.174-.605t-.046-.629v-1.512q0-.314.046-.628.047-.315.175-.594.128-.29.337-.523.221-.245.489-.396.267-.151.582-.21.314-.07.628-.07t.628.07q.314.059.582.21t.477.396q.221.232.35.523.127.28.174.594t.046.628v1.163h-3.607v.35q0 .197.023.395.024.198.094.384.08.186.197.35.128.162.291.278.163.105.36.152.199.046.408.046.221 0 .442-.046.233-.047.42-.163.197-.128.313-.326.117-.21.128-.43h.908q-.012.255-.105.511-.081.256-.244.477-.151.21-.372.373-.21.151-.454.256-.245.093-.512.128-.268.035-.524.035m-1.373-3.584h2.7v-.35q0-.197-.024-.395-.023-.198-.093-.384t-.197-.349q-.117-.163-.28-.267-.163-.117-.36-.163-.198-.047-.396-.047t-.396.047-.36.163q-.163.104-.291.267-.117.163-.186.35-.07.185-.094.383t-.023.396zm5.003 3.49v-6.166h.908v1.059q.093-.245.244-.466.152-.22.361-.384.221-.163.477-.232.268-.07.524-.07.29 0 .57.081.28.082.489.268.22.174.372.43.151.245.233.524.093.267.116.558.035.28.035.559v3.84h-.908v-3.84q0-.198-.023-.384-.023-.198-.081-.372-.059-.187-.175-.35-.105-.162-.256-.279-.151-.116-.337-.163-.186-.058-.384-.058t-.384.058q-.186.047-.338.163-.15.117-.267.28-.105.162-.163.349-.058.174-.082.372-.023.186-.023.384v3.84zm8.808.094q-.279 0-.558-.07-.28-.07-.512-.233-.221-.163-.384-.395-.151-.245-.244-.5-.093-.268-.128-.548-.035-.279-.035-.558v-3.142H134v-.814h1.28v-2.385h.907v2.385h1.885v.814h-1.885v3.142q0 .163.012.337.012.163.047.326.046.151.116.314.07.152.174.268.117.116.28.186.163.058.326.058.22 0 .418-.104.21-.105.326-.291.117-.198.163-.42.047-.22.047-.441 0-.012-.012-.035v-.035h.908v.116q0 .256-.047.512t-.151.5q-.105.233-.28.443-.162.197-.383.337-.222.128-.477.175-.256.058-.512.058m11.636 0q-.28 0-.559-.07t-.512-.233q-.22-.163-.383-.395-.152-.245-.245-.5-.093-.268-.128-.548-.035-.279-.035-.558v-3.142h-1.28v-.814h1.28v-2.385h.908v2.385h1.885v.814h-1.885v3.142q0 .163.011.337.012.163.047.326.047.151.116.314.07.152.175.268.116.116.28.186.162.058.325.058.221 0 .419-.104.21-.105.326-.291.116-.198.163-.42.046-.22.046-.441 0-.012-.011-.035v-.035h.907v.116q0 .256-.047.512-.046.256-.15.5-.105.233-.28.443-.163.197-.384.337-.221.128-.477.175-.256.058-.512.058m4.992 0q-.315 0-.629-.07-.314-.058-.582-.21-.267-.15-.488-.384-.21-.244-.338-.523-.128-.291-.174-.605-.047-.314-.047-.628v-1.513q0-.314.047-.628.046-.315.174-.594.128-.29.338-.523.22-.245.488-.396t.582-.21q.314-.07.629-.07.314 0 .628.07.314.059.582.21t.477.396q.22.232.349.523.128.28.174.594.047.314.047.628v1.513q0 .314-.047.628-.046.314-.174.605-.128.28-.35.523-.209.233-.476.384-.268.152-.582.21-.314.07-.628.07m0-.815q.197 0 .395-.046.198-.047.36-.152.164-.116.28-.279.128-.163.198-.349t.093-.384.023-.396v-1.512q0-.198-.023-.396t-.093-.384-.198-.349q-.116-.163-.28-.267-.162-.117-.36-.163-.198-.047-.395-.047-.198 0-.396.047-.198.046-.36.163-.164.104-.292.267-.116.163-.186.35-.07.185-.093.383t-.023.396v1.512q0 .198.023.396t.093.384.186.35q.128.162.291.278.163.105.361.152.198.046.396.046m5.817.815q-.314 0-.628-.07-.314-.058-.582-.21-.267-.15-.488-.384-.21-.244-.338-.523-.128-.291-.174-.605-.047-.314-.047-.628v-1.513q0-.314.047-.628.046-.315.174-.594.128-.29.338-.523.22-.245.488-.396t.582-.21q.314-.07.628-.07t.629.07q.314.059.581.21.268.151.477.396.222.232.35.523.128.28.174.594.047.314.047.628v1.513q0 .314-.047.628t-.174.605q-.128.28-.35.523-.209.233-.477.384-.267.152-.581.21-.315.07-.629.07m0-.815q.198 0 .396-.046.198-.047.36-.152.164-.116.28-.279.128-.163.198-.349t.093-.384.023-.396v-1.512q0-.198-.023-.396t-.093-.384-.198-.349q-.116-.163-.28-.267-.162-.117-.36-.163-.198-.047-.396-.047t-.395.047-.361.163q-.163.104-.29.267-.117.163-.187.35-.07.185-.093.383t-.023.396v1.512q0 .198.023.396t.093.384.186.35q.128.162.291.278.163.105.36.152.198.046.396.046m3.782.722v-.815h1.664v-6.923h-1.501v-.814h2.408v7.737h1.501v.815zm7.842.093q-.267 0-.523-.035-.256-.023-.5-.105-.245-.093-.466-.244-.21-.152-.373-.35-.15-.209-.232-.465t-.082-.512v-.011h.908q0 .22.116.419.117.186.303.302.198.105.407.151.221.035.442.035t.43-.035q.222-.046.408-.15.198-.117.314-.315.128-.198.128-.419 0-.198-.116-.372-.105-.175-.28-.28-.162-.116-.36-.162-.186-.059-.384-.117-.186-.058-.384-.116-.186-.058-.372-.128-.187-.07-.373-.151-.174-.093-.337-.21t-.303-.256q-.14-.151-.244-.326-.093-.174-.14-.372-.046-.198-.046-.396 0-.256.07-.5.08-.244.22-.454.14-.22.35-.372.209-.151.442-.244.244-.093.488-.128.256-.035.512-.035t.5.035q.257.035.49.128.244.081.442.232.209.14.349.35.15.209.22.453.082.245.082.489v.012h-.907q0-.21-.105-.396t-.28-.291q-.174-.116-.383-.151-.198-.047-.408-.047t-.419.047q-.209.035-.384.151-.174.116-.279.314-.104.186-.104.396t.104.384q.117.174.28.29.174.105.36.164.198.046.384.104.198.058.384.117.198.058.384.128t.36.163q.187.08.35.197t.29.268q.14.14.233.314.105.175.152.372.058.187.058.396 0 .256-.081.512-.082.256-.233.465t-.373.361q-.22.151-.465.244-.244.082-.512.117-.256.035-.512.035" aria-label="Visual development tools" style="font-size:12.5155px;line-height:1.25;font-family:Iosevka;-inkscape-font-specification:&quot;Iosevka, Normal&quot;;fill:#000;stroke-width:.290888"/><path id="text208" d="M140.155 251.402v-8.553h.896v3.922l2.327-3.922h1.024l-2.303 3.875 2.303 4.678h-.989l-1.861-3.77-.5.837v2.933zm7.796.093q-.314 0-.628-.07-.314-.058-.582-.21-.268-.15-.489-.384-.21-.244-.337-.523-.128-.291-.175-.605t-.046-.629v-1.512q0-.314.046-.628.047-.315.175-.594.128-.29.337-.523.221-.245.49-.396.267-.151.58-.21.315-.07.63-.07.313 0 .627.07.315.059.582.21.268.151.477.396.221.232.35.523.127.28.174.594t.047.628v1.512q0 .315-.047.629t-.175.605q-.128.28-.349.523-.21.233-.477.384-.267.152-.582.21-.314.07-.628.07m0-.815q.198 0 .396-.046.198-.047.36-.152.163-.116.28-.279.128-.163.198-.349t.093-.384.023-.396v-1.512q0-.198-.023-.396-.024-.198-.093-.384-.07-.186-.198-.349-.117-.163-.28-.267-.162-.117-.36-.163-.198-.047-.396-.047t-.395.047-.361.163q-.163.104-.291.267-.116.163-.186.35-.07.185-.093.383-.024.198-.024.396v1.512q0 .198.024.396.023.198.093.384t.186.349q.128.163.29.28.164.104.362.15.197.047.395.047m6.644.815q-.28 0-.558-.07-.28-.07-.512-.233-.222-.163-.384-.395-.152-.245-.245-.5-.093-.268-.128-.548-.035-.279-.035-.558v-3.142h-1.28v-.814h1.28v-2.386h.908v2.386h1.885v.814h-1.885v3.142q0 .163.011.337.012.163.047.326.047.151.116.314.07.151.175.268.116.116.28.186.162.058.325.058.221 0 .419-.105.21-.104.326-.29.116-.198.163-.42.046-.22.046-.441 0-.012-.011-.035v-.035h.907v.116q0 .256-.046.512-.047.256-.152.5-.104.233-.279.443-.163.197-.384.337-.221.128-.477.174-.256.059-.512.059m2.955-.093v-.815h1.664v-6.923h-1.5v-.815h2.408v7.738h1.5v.815zm5.818 0v-.815h1.664v-4.538h-1.501v-.814h2.409v5.352h1.5v.815zm2.036-7.25q-.15 0-.29-.034-.14-.047-.245-.152-.105-.104-.151-.244-.035-.14-.035-.29 0-.152.035-.292.046-.14.151-.244.105-.105.244-.151.14-.047.291-.047.152 0 .291.047.14.046.245.151t.15.244.047.291-.046.291-.151.244-.245.152q-.14.035-.29.035m3.654 7.25v-6.167h.907v1.059q.094-.245.245-.466.151-.22.36-.384.222-.163.478-.233.267-.07.523-.07.291 0 .57.082.28.081.489.268.221.174.372.43.152.245.233.524.093.267.116.558.035.28.035.559v3.84h-.907v-3.84q0-.198-.023-.384-.024-.198-.082-.372-.058-.187-.174-.35-.105-.162-.256-.279-.152-.116-.338-.163-.186-.058-.384-.058t-.384.058q-.186.047-.337.163-.151.117-.268.28-.105.162-.163.348-.058.175-.081.373-.023.186-.023.384v3.84z" aria-label="Kotlin" style="font-size:12.5155px;line-height:1.25;font-family:Iosevka;-inkscape-font-specification:&quot;Iosevka, Normal&quot;;fill:#000;stroke-width:.290888"/><path id="text209" d="M164.95 303.992q-.29 0-.57-.081-.279-.07-.511-.233-.233-.174-.396-.407-.163-.245-.256-.512-.093-.268-.128-.547-.035-.29-.035-.582v-4.014q0-.303.047-.605.046-.314.174-.593.128-.28.338-.512.209-.233.477-.384.267-.152.57-.21.314-.058.616-.058.291 0 .57.047.291.046.547.174.268.128.477.326.222.198.35.454.14.256.209.535.07.28.07.57v.035h-.908v-.023q0-.256-.093-.512-.081-.256-.268-.442-.174-.187-.43-.268t-.524-.081q-.29 0-.57.116-.267.105-.442.337-.174.233-.244.524-.058.28-.058.57v4.014q0 .198.023.396.023.186.093.372.081.175.198.326.116.151.279.256.175.105.36.151.187.047.385.047.186 0 .372-.047.198-.046.35-.151.15-.116.255-.268.116-.163.175-.337.07-.175.093-.36.023-.199.023-.385v-1.57h-1.257v-.815h2.164v4.654h-.802v-1.338q-.082.291-.233.57-.14.268-.372.477-.222.198-.524.291-.291.093-.593.093zm6.18 0q-.315 0-.63-.07-.313-.058-.581-.209t-.489-.384q-.21-.244-.337-.524-.128-.29-.175-.605-.046-.314-.046-.628v-1.513q0-.314.046-.628.047-.314.175-.593.128-.291.337-.524.221-.244.489-.396.268-.15.582-.209.314-.07.628-.07t.628.07q.315.058.582.21.268.15.477.395.221.233.35.524.127.279.174.593t.046.628v1.513q0 .314-.046.628-.047.315-.175.605-.128.28-.349.524-.21.233-.477.384t-.582.21q-.314.07-.628.07m0-.814q.197 0 .395-.047.197-.046.36-.151.163-.116.28-.28.128-.162.197-.348.07-.187.094-.384.023-.198.023-.396v-1.513q0-.197-.023-.395-.024-.198-.094-.384t-.197-.35q-.117-.162-.28-.267-.163-.116-.36-.163-.198-.046-.396-.046t-.396.046q-.197.047-.36.163-.163.105-.291.268-.116.163-.186.349t-.093.384q-.024.198-.024.395v1.513q0 .198.024.396.023.197.093.384.07.186.186.349.128.162.29.279.164.105.361.151.198.047.396.047" aria-label="Go" style="font-size:12.5155px;line-height:1.25;font-family:Iosevka;-inkscape-font-specification:&quot;Iosevka, Normal&quot;;fill:#000;stroke-width:.290888"/><path id="text210" d="M147.428 277.743q-.291 0-.582-.046-.291-.047-.559-.163-.256-.128-.477-.326t-.372-.442q-.14-.256-.21-.535-.07-.291-.07-.582v-.035h.908v.023q0 .256.093.512t.28.442q.197.187.453.268.268.07.536.07.267 0 .535-.082.28-.093.465-.29.186-.21.28-.477.093-.268.093-.547 0-.291-.128-.57-.117-.28-.326-.49-.198-.22-.466-.36-.256-.151-.523-.28-.268-.127-.524-.267-.256-.151-.5-.337-.233-.186-.43-.407-.198-.221-.35-.477-.14-.256-.21-.547t-.069-.582q0-.303.058-.582.07-.29.198-.547.128-.267.326-.477.21-.22.465-.36.256-.14.547-.187.291-.058.582-.058.29 0 .57.047.28.046.535.174.256.128.466.338.21.197.337.453.14.245.198.524.07.28.07.57v.035h-.908v-.023q0-.256-.081-.5-.082-.256-.256-.443-.175-.186-.43-.267-.245-.093-.501-.093-.268 0-.524.104-.256.094-.43.303-.163.198-.244.465-.082.256-.082.512 0 .303.116.582.128.28.326.5.21.21.466.361.267.14.523.268.268.128.524.279.268.14.5.326.233.174.43.395.21.221.35.49.14.255.21.546.08.29.08.582 0 .302-.07.593-.069.291-.209.559-.14.267-.36.477-.21.21-.477.349-.268.128-.57.174-.291.059-.582.059zm4.281-.093-.989-6.167h.92l.546 5.271.617-3.548h.908l.616 3.548.547-5.27h.92l-.99 6.166h-.895l-.652-3.304-.652 3.304zm5.33 0v-.814h1.663v-4.538h-1.5v-.815h2.408v5.353h1.5v.814zm2.036-7.249q-.152 0-.291-.035-.14-.046-.245-.15-.104-.105-.15-.245-.036-.14-.036-.291t.035-.29q.047-.14.151-.245.105-.105.245-.152.14-.046.29-.046.152 0 .292.046.14.047.244.152.105.104.151.244.047.14.047.291t-.047.29-.151.245-.244.151q-.14.035-.291.035m4.945 7.25v-5.004h-1.292v-.814h1.292v-.92q0-.232.023-.465.035-.244.116-.465.093-.222.233-.42t.337-.325q.21-.128.443-.175.232-.058.465-.058.326 0 .64.105.326.093.547.337.22.233.326.547.104.314.104.64v.093h-.907v-.046q0-.163-.035-.314-.035-.163-.128-.291t-.244-.186q-.14-.07-.303-.07-.186 0-.349.105-.151.104-.233.267-.081.163-.116.35-.023.185-.023.372v.919h1.92v.814h-1.92v5.004zm7.516.092q-.279 0-.558-.07-.28-.07-.512-.232-.221-.163-.384-.396-.151-.244-.245-.5-.093-.268-.128-.547-.034-.28-.034-.558v-3.142h-1.28v-.814h1.28v-2.386h.907v2.386h1.885v.814h-1.885v3.142q0 .162.012.337.011.163.046.326.047.151.117.314.07.151.174.268.117.116.28.186.162.058.325.058.221 0 .42-.105.209-.104.325-.29.116-.198.163-.42.046-.22.046-.442 0-.011-.011-.035v-.035h.907v.117q0 .256-.046.512-.047.256-.151.5-.105.233-.28.442-.163.198-.384.338-.22.128-.477.174-.256.058-.512.058" aria-label="Swift" style="font-size:12.5155px;line-height:1.25;font-family:Iosevka;-inkscape-font-specification:&quot;Iosevka, Normal&quot;;fill:#000;stroke-width:.290888"/><path id="text211" d="M151.093 330.148v-8.552h2.234q.314 0 .616.07.315.07.582.244.268.163.466.419.197.244.314.535.128.29.163.605.046.314.046.628 0 .408-.081.803-.07.396-.268.745-.198.337-.535.582-.326.244-.71.325l1.815 3.596h-.965l-1.792-3.537H152v3.537zm.907-4.352h1.327q.198 0 .395-.058.198-.058.35-.175.162-.128.267-.302.105-.175.163-.36.058-.199.081-.396.024-.198.024-.408 0-.197-.024-.395-.023-.198-.081-.384-.058-.198-.163-.373-.105-.174-.268-.29-.15-.128-.349-.187-.197-.058-.395-.058H152zm6.726 4.445q-.291 0-.57-.081-.28-.082-.5-.256-.21-.187-.362-.43-.15-.257-.244-.525-.081-.279-.116-.558-.024-.29-.024-.57v-3.84h.908v3.84q0 .198.023.395.023.187.082.373.058.174.163.337.116.163.267.28.151.116.338.174.186.047.384.047.197 0 .384-.047.186-.058.337-.175t.256-.279q.116-.163.174-.337.059-.186.082-.373.023-.197.023-.395v-3.84h.908v6.167h-.908v-1.059q-.093.244-.244.466-.152.22-.373.383-.21.163-.477.233-.256.07-.512.07zm6.155 0q-.268 0-.524-.035-.256-.023-.5-.105-.244-.093-.466-.244-.209-.151-.372-.35-.151-.209-.233-.464-.081-.256-.081-.512v-.012h.908q0 .221.116.419.116.186.302.302.198.105.408.152.22.035.442.035.22 0 .43-.035.221-.047.408-.152.197-.116.314-.314.128-.198.128-.419 0-.197-.117-.372-.104-.175-.279-.28-.163-.116-.36-.162-.187-.058-.385-.117-.186-.058-.384-.116-.186-.058-.372-.128t-.372-.151q-.175-.093-.338-.21t-.302-.256q-.14-.15-.244-.325-.094-.175-.14-.373-.047-.197-.047-.395 0-.256.07-.5.082-.245.221-.454.14-.221.35-.373.209-.151.441-.244.245-.093.49-.128.255-.035.511-.035t.5.035q.256.035.49.128.243.081.441.233.21.14.35.349.15.21.22.453.082.245.082.49v.01h-.908q0-.209-.105-.395-.104-.186-.279-.29-.174-.117-.384-.152-.198-.047-.407-.047-.21 0-.419.047-.21.035-.384.151-.174.117-.28.314-.104.187-.104.396t.105.384q.116.175.28.29.174.106.36.164.198.046.384.105.198.058.384.116.198.058.384.128t.36.163q.187.081.35.198.162.116.29.267.14.14.233.314.105.175.151.373.059.186.059.395 0 .256-.082.512-.081.256-.233.466-.15.21-.372.36-.22.152-.465.245-.245.081-.512.116-.256.035-.512.035m6.655 0q-.279 0-.558-.07-.28-.07-.512-.233-.221-.162-.384-.395-.151-.244-.245-.5-.093-.268-.127-.547-.035-.28-.035-.559v-3.141h-1.28v-.815h1.28v-2.385h.907v2.385h1.885v.815h-1.885v3.141q0 .163.012.338.011.162.046.325.047.152.117.315.07.15.174.267.117.116.28.186.162.059.325.059.221 0 .42-.105.209-.105.325-.291.116-.198.163-.419.046-.221.046-.442 0-.012-.011-.035v-.035h.907v.116q0 .256-.046.512-.047.256-.151.5-.105.233-.28.443-.163.198-.384.337-.22.128-.477.175-.256.058-.512.058" aria-label="Rust" style="font-size:12.5155px;line-height:1.25;font-family:Iosevka;-inkscape-font-specification:&quot;Iosevka, Normal&quot;;fill:#000;stroke-width:.290888"/><path id="text212" d="M357.282 377.474v-10.57h1.352l1.553 5.796 1.553-5.796h1.352v10.57h-1.122v-2.114q0-1.653.043-3.293.058-1.654.087-3.293l-1.482 5.522h-.863l-1.48-5.522q.028 1.64.071 3.293.058 1.64.058 3.293v2.114zm7.579 0v-1.006h2.056v-5.609h-1.855v-1.006h2.977v6.615h1.855v1.006zm2.516-8.959q-.187 0-.36-.043-.172-.057-.301-.187-.13-.13-.187-.302-.043-.172-.043-.36 0-.186.043-.359.057-.173.187-.302.13-.13.302-.187t.36-.057q.186 0 .359.057.172.058.302.187.13.13.187.302.057.173.057.36t-.057.36-.187.301q-.13.13-.302.187-.173.043-.36.043m4.674 8.96v-1.007h2.056v-8.557h-1.855v-1.007h2.977v9.564h1.855v1.006zm7.19 0v-1.007h2.057v-8.557h-1.855v-1.007h2.977v9.564h1.855v1.006zm7.19 0v-1.007h2.057v-5.609h-1.855v-1.006h2.977v6.615h1.855v1.006zm2.517-8.96q-.187 0-.36-.043-.172-.057-.301-.187-.13-.13-.187-.302-.043-.172-.043-.36 0-.186.043-.359.057-.173.187-.302.13-.13.302-.187t.36-.057q.186 0 .359.057.172.058.302.187.13.13.187.302.057.173.057.36t-.057.36-.187.301q-.13.13-.302.187-.173.043-.36.043m7.19 9.074q-.388 0-.776-.086-.388-.072-.719-.259t-.604-.474q-.259-.302-.417-.647-.158-.36-.216-.748-.057-.389-.057-.777v-1.87q0-.388.057-.776.058-.388.216-.733.158-.36.417-.647.273-.302.604-.49.33-.186.72-.258.387-.087.776-.087.388 0 .776.087.389.072.72.259t.589.489q.273.287.431.647.159.345.216.733.058.388.058.777v1.87q0 .387-.058.776-.057.388-.216.748-.158.345-.431.647-.259.287-.59.474t-.719.26q-.388.085-.776.085m0-1.006q.245 0 .49-.058.244-.057.445-.187.202-.144.346-.345.158-.201.244-.431t.115-.475.029-.489v-1.87q0-.244-.029-.488-.029-.245-.115-.475t-.244-.431q-.144-.202-.346-.331-.2-.144-.445-.201t-.49-.058-.488.058-.446.201q-.201.13-.36.33-.143.202-.23.432-.086.23-.115.475-.028.244-.028.489v1.87q0 .244.028.488.029.245.115.475t.23.431q.159.201.36.345.201.13.446.187.244.058.489.058m4.516.891v-7.621h1.122v1.308q.115-.302.302-.575t.446-.475q.273-.2.59-.287.33-.087.647-.087.359 0 .704.101.345.1.604.33.273.217.46.533.187.302.288.647.115.33.144.69.043.346.043.69v4.746h-1.122v-4.745q0-.245-.029-.475-.028-.244-.1-.46-.072-.23-.216-.431-.13-.202-.316-.346-.187-.143-.417-.201-.23-.072-.475-.072t-.474.072q-.23.058-.417.201t-.331.346q-.13.2-.202.43-.071.217-.1.461-.029.23-.029.475v4.745zm9.851.115q-.33 0-.647-.043-.316-.028-.618-.13-.302-.114-.576-.301-.259-.187-.46-.432-.187-.258-.287-.575-.101-.316-.101-.633v-.014h1.122q0 .273.143.518.144.23.374.374.245.13.504.187.273.043.546.043t.532-.043q.273-.058.504-.187.244-.144.388-.389.158-.244.158-.517 0-.245-.144-.46-.13-.216-.345-.346-.201-.143-.446-.201-.23-.072-.474-.144-.23-.072-.475-.144-.23-.071-.46-.158-.23-.086-.46-.187-.216-.115-.417-.259-.202-.143-.374-.316-.173-.187-.302-.403-.115-.215-.173-.46-.057-.244-.057-.489 0-.316.086-.618.1-.302.273-.561.173-.273.432-.46t.546-.302q.302-.115.604-.158.317-.043.633-.043t.618.043q.317.043.604.158.302.1.547.287.259.173.431.432.187.259.273.56.101.303.101.605v.014h-1.122q0-.259-.13-.489-.129-.23-.344-.36-.216-.143-.475-.186-.244-.058-.503-.058t-.518.058q-.259.043-.474.187-.216.143-.346.388-.129.23-.129.489t.13.474q.143.216.345.36.215.13.445.201.245.058.475.13.244.072.475.144.244.071.474.158.23.086.446.201.23.1.431.245.202.143.36.33.172.173.287.389.13.215.187.46.072.23.072.489 0 .316-.1.632-.1.317-.288.576t-.46.446q-.273.186-.575.302-.302.1-.633.143-.316.043-.633.043m14.395 0q-.388 0-.776-.086-.389-.072-.72-.259t-.603-.474q-.26-.302-.417-.647-.159-.36-.216-.748-.058-.389-.058-.777v-1.87q0-.388.058-.776.057-.388.216-.733.158-.36.417-.647.273-.302.604-.49.33-.186.719-.258.388-.087.776-.087t.777.087q.388.072.719.259t.59.489q.273.287.43.647.159.345.217.733t.057.777v1.87q0 .387-.057.776-.058.388-.216.748-.158.345-.432.647-.258.287-.59.474-.33.187-.718.26-.389.085-.777.085m0-1.006q.245 0 .49-.058.244-.057.445-.187.201-.144.345-.345.158-.201.245-.431.086-.23.115-.475.028-.244.028-.489v-1.87q0-.244-.028-.488-.03-.245-.115-.475-.087-.23-.245-.431-.144-.202-.345-.331-.201-.144-.446-.201-.244-.058-.489-.058-.244 0-.489.058-.244.057-.446.201-.2.13-.36.33-.143.202-.23.432-.085.23-.114.475t-.029.489v1.87q0 .244.029.488.028.245.115.475.086.23.23.431.158.201.36.345.2.13.445.187.245.058.49.058m6.112.891v-6.183h-1.596v-1.007h1.596v-1.136q0-.288.029-.575.043-.302.144-.576.115-.273.287-.517.173-.245.417-.403.259-.158.547-.216.287-.072.575-.072.403 0 .79.13.403.115.677.417.273.288.402.676.13.388.13.79v.116h-1.122v-.058q0-.2-.043-.388-.043-.201-.158-.36t-.302-.23q-.173-.086-.374-.086-.23 0-.432.13-.186.13-.287.33-.1.202-.144.432-.029.23-.029.46v1.136h2.373v1.007h-2.373v6.184zm15.028.115q-.36 0-.705-.1t-.618-.317q-.259-.23-.446-.532-.187-.316-.302-.647-.1-.345-.144-.69-.028-.36-.028-.705v-4.745h1.121v4.745q0 .245.029.49.029.23.1.46.072.215.202.416.144.202.33.346.188.143.418.215.23.058.474.058.245 0 .475-.058.23-.072.417-.215t.316-.346q.144-.2.216-.417.072-.23.1-.46.03-.244.03-.489v-4.745h1.121v7.621h-1.122v-1.308q-.115.302-.302.575t-.46.475q-.259.2-.59.287-.316.086-.632.086m7.607 0q-.33 0-.647-.043-.316-.028-.618-.13-.302-.114-.575-.301-.26-.187-.46-.432-.188-.258-.288-.575t-.1-.633v-.014h1.12q0 .273.145.518.143.23.373.374.245.13.504.187.273.043.546.043.274 0 .532-.043.274-.058.504-.187.244-.144.388-.389.158-.244.158-.517 0-.245-.144-.46-.13-.216-.345-.346-.201-.143-.446-.201-.23-.072-.474-.144-.23-.072-.475-.144-.23-.071-.46-.158-.23-.086-.46-.187-.216-.115-.417-.259-.201-.143-.374-.316-.173-.187-.302-.403-.115-.215-.173-.46-.057-.244-.057-.489 0-.316.086-.618.1-.302.273-.561.173-.273.432-.46t.546-.302q.302-.115.604-.158.317-.043.633-.043t.618.043q.317.043.604.158.302.1.547.287.259.173.431.432.187.259.274.56.1.303.1.605v.014h-1.121q0-.259-.13-.489t-.345-.36q-.216-.143-.475-.186-.244-.058-.503-.058t-.518.058q-.258.043-.474.187-.216.143-.345.388-.13.23-.13.489t.13.474q.143.216.345.36.216.13.446.201.244.058.474.13.245.072.475.144.244.071.474.158.23.086.446.201.23.1.432.245.2.143.359.33.173.173.288.389.13.215.187.46.072.23.072.489 0 .316-.101.632-.1.317-.288.576t-.46.446q-.273.186-.575.302-.302.1-.633.143-.316.043-.633.043m7.234 0q-.403 0-.791-.071-.374-.072-.72-.26-.344-.2-.603-.488-.259-.302-.432-.647-.158-.36-.215-.748-.058-.389-.058-.777v-1.87q0-.388.058-.776.057-.388.215-.733.159-.36.417-.647.274-.302.604-.49.331-.186.72-.258.388-.087.776-.087t.777.087q.388.072.719.259t.59.489q.272.287.43.647.159.345.216.733.058.388.058.777v1.438h-4.458v.431q0 .245.029.49.028.244.115.474.1.23.244.431.158.201.36.345.2.13.445.187.245.058.504.058.273 0 .546-.058.288-.057.518-.201.244-.158.388-.403.144-.259.158-.532h1.122q-.014.317-.13.633-.1.316-.301.59-.187.258-.46.46-.26.187-.561.316-.302.115-.633.158-.33.043-.647.043m-1.697-4.429h3.336v-.431q0-.245-.028-.49-.03-.244-.116-.474t-.244-.431q-.144-.202-.345-.331-.201-.144-.446-.201-.244-.058-.489-.058-.244 0-.489.058-.244.057-.446.201-.201.13-.36.33-.143.202-.23.432-.086.23-.114.475t-.029.489zm7.046 4.314v-7.621h1.122v1.797q.086-.345.23-.676.144-.345.36-.633.23-.287.56-.445.346-.158.705-.158.273 0 .532.071.26.058.475.216.216.158.36.388.143.216.215.475.086.259.115.532.029.259.029.518h-1.122q0-.216-.043-.417-.029-.216-.144-.403-.1-.187-.302-.273-.187-.1-.402-.1-.288 0-.561.129t-.46.36q-.173.23-.288.502-.1.26-.158.547t-.087.575q-.014.288-.014.575v4.041zm8.988.115q-.33 0-.647-.043-.316-.028-.618-.13-.302-.114-.575-.301-.26-.187-.46-.432-.187-.258-.288-.575t-.1-.633v-.014h1.12q0 .273.145.518.143.23.374.374.244.13.503.187.273.043.546.043.274 0 .532-.043.274-.058.504-.187.244-.144.388-.389.158-.244.158-.517 0-.245-.144-.46-.129-.216-.345-.346-.201-.143-.445-.201-.23-.072-.475-.144-.23-.072-.475-.144-.23-.071-.46-.158-.23-.086-.46-.187-.216-.115-.417-.259-.201-.143-.374-.316-.172-.187-.302-.403-.115-.215-.172-.46-.058-.244-.058-.489 0-.316.086-.618.101-.302.274-.561.172-.273.431-.46t.546-.302q.302-.115.604-.158.317-.043.633-.043.317 0 .619.043.316.043.604.158.302.1.546.287.259.173.431.432.187.259.274.56.1.303.1.605v.014H476.7q0-.259-.13-.489t-.345-.36q-.216-.143-.474-.186-.245-.058-.504-.058t-.518.058q-.258.043-.474.187-.216.143-.345.388-.13.23-.13.489t.13.474q.144.216.345.36.216.13.446.201.244.058.474.13.245.072.475.144.244.071.474.158.23.086.446.201.23.1.432.245.201.143.36.33.172.173.287.389.13.215.187.46.072.23.072.489 0 .316-.101.632-.1.317-.288.576t-.46.446q-.273.186-.575.302-.302.1-.633.143-.316.043-.633.043" aria-label="Millions of users" style="font-size:15.4684px;line-height:1.25;font-family:Iosevka;-inkscape-font-specification:&quot;Iosevka, Normal&quot;;fill:#000;stroke-width:.35952"/><path id="text213" d="M175.983 358.907q-.35 0-.701-.078-.35-.065-.65-.234-.298-.168-.545-.428-.234-.273-.376-.585-.143-.324-.195-.675-.052-.35-.052-.701v-4.35q0-.351.052-.702.052-.35.195-.662.142-.325.376-.585.247-.273.546-.441.298-.17.649-.234.35-.078.701-.078.35 0 .702.078.35.065.649.234.299.168.532.441.247.26.39.585.143.311.195.662.052.35.052.701v4.35q0 .351-.052.702-.052.35-.195.675-.143.312-.39.585-.233.26-.532.428-.299.17-.65.234-.35.078-.7.078m-1.506-4.234 3.013-2.402v-.416q0-.22-.026-.441t-.104-.429-.22-.39q-.13-.181-.313-.298-.181-.13-.402-.182-.22-.052-.442-.052-.22 0-.441.052t-.403.182q-.182.117-.325.298-.13.182-.207.39-.078.208-.104.429-.026.22-.026.441zm1.506 3.325q.221 0 .442-.052.22-.052.402-.169.182-.13.312-.312.143-.181.22-.39.079-.207.105-.428.026-.22.026-.441v-2.818l-3.013 2.402v.416q0 .22.026.441t.103.429.208.39q.143.181.325.311.182.117.403.169.22.052.441.052m6.494.909q-.208 0-.403-.065-.195-.052-.35-.195-.143-.156-.208-.35-.052-.195-.052-.403t.052-.403q.064-.194.207-.337.156-.156.351-.208.195-.065.403-.065.207 0 .402.065.195.052.338.208.156.143.208.337.065.195.065.403t-.065.403q-.052.194-.208.35-.143.143-.338.195-.195.065-.402.065m6.493 0q-.35 0-.701-.078-.35-.065-.65-.234-.298-.168-.545-.428-.234-.273-.377-.585-.143-.324-.195-.675-.052-.35-.052-.701v-4.35q0-.351.052-.702.052-.35.195-.662.143-.325.377-.585.247-.273.545-.441.3-.17.65-.234.35-.078.701-.078.35 0 .701.078.35.065.65.234.298.168.532.441.247.26.39.585.143.311.194.662.052.35.052.701v4.35q0 .351-.052.702-.052.35-.194.675-.143.312-.39.585-.234.26-.532.428-.3.17-.65.234-.35.078-.701.078m-1.506-4.234 3.012-2.402v-.416q0-.22-.025-.441t-.104-.429-.221-.39q-.13-.181-.312-.298-.182-.13-.402-.182t-.442-.052-.441.052-.403.182q-.182.117-.325.298-.13.182-.208.39t-.103.429-.026.441zm1.506 3.325q.22 0 .442-.052.22-.052.402-.169.182-.13.312-.312.143-.181.22-.39.078-.207.104-.428.026-.22.026-.441v-2.818l-3.013 2.402v.416q0 .22.026.441t.104.429.208.39q.143.181.325.311.182.117.402.169t.442.052" aria-label="0" style="font-size:13.969px;line-height:1.25;font-family:Iosevka;-inkscape-font-specification:&quot;Iosevka, Normal&quot;;stroke-width:.324671;fill:#000"/><path id="text214" d="M231.544 358.803v-.013q0-.35.013-.701.013-.35.065-.701.065-.351.169-.689.117-.337.273-.636.168-.312.376-.598.22-.285.468-.532.26-.247.532-.454.273-.221.559-.43.285-.207.558-.428.273-.233.468-.52.194-.298.285-.635.104-.351.104-.702 0-.311-.078-.623-.065-.325-.26-.572-.181-.26-.493-.376-.299-.13-.61-.13-.286 0-.572.09-.286.092-.493.3-.195.207-.286.493-.09.273-.09.572v.013h-1.014v-.039q0-.312.065-.624.078-.324.234-.597.156-.286.39-.507.233-.22.519-.363t.597-.195q.325-.052.65-.052.337 0 .675.065t.636.234q.3.168.52.428.234.247.376.559.143.311.195.649t.052.675q0 .377-.09.753-.079.364-.26.702-.17.324-.429.61-.247.286-.532.533-.286.233-.585.467-.299.22-.584.48-.273.247-.52.533-.233.286-.415.623-.182.325-.286.689t-.143.74h3.792v.91zm8.909.104q-.208 0-.403-.065-.194-.052-.35-.195-.143-.156-.208-.35-.052-.195-.052-.403t.052-.403q.065-.194.208-.337.156-.156.35-.208.195-.065.403-.065t.403.065q.194.052.337.208.156.143.208.337.065.195.065.403t-.065.403q-.052.194-.208.35-.143.143-.337.195-.195.065-.403.065m6.52 0q-.312 0-.624-.065-.312-.052-.584-.195-.273-.143-.507-.363-.22-.221-.377-.494-.155-.273-.246-.571-.078-.299-.117-.61v-.066h1.013l.013.143q.052.26.156.507.104.246.285.441.195.182.455.273.26.09.532.09.247 0 .48-.09.248-.09.43-.273.181-.182.285-.402.117-.234.182-.48.065-.248.078-.494.026-.26.026-.507 0-.26-.026-.506-.013-.247-.078-.494t-.169-.467q-.104-.234-.286-.416-.168-.182-.402-.273-.234-.09-.494-.09t-.52.09q-.259.078-.454.273-.181.182-.285.442-.091.26-.104.532h-1.013v-5.584h4.493v.909h-3.48v2.779q.298-.195.65-.273.363-.078.713-.078.377 0 .74.104.377.091.676.325.312.234.52.558.207.312.324.676.117.35.156.74.052.377.052.753 0 .377-.052.766-.039.377-.169.74-.117.351-.338.676-.207.325-.52.558-.298.221-.674.312-.364.104-.74.104" aria-label="2.5" style="font-size:13.969px;line-height:1.25;font-family:Iosevka;-inkscape-font-specification:&quot;Iosevka, Normal&quot;;stroke-width:.324671;fill:#000"/><path id="text215" d="M291.949 358.907q-.312 0-.623-.065-.312-.052-.585-.195t-.506-.363q-.221-.221-.377-.494t-.247-.571q-.078-.299-.117-.61v-.066h1.013l.013.143q.052.26.156.507.104.246.286.441.195.182.455.273.26.09.532.09.247 0 .48-.09.247-.09.43-.273.18-.182.285-.402.117-.234.182-.48.065-.248.077-.494.026-.26.026-.507 0-.26-.026-.506-.013-.247-.077-.494-.065-.247-.17-.467-.103-.234-.285-.416-.169-.182-.403-.273-.233-.09-.493-.09t-.52.09q-.26.078-.454.273-.182.182-.286.442-.09.26-.104.532h-1.013v-5.584h4.494v.909h-3.48v2.779q.298-.195.649-.273.363-.078.714-.078.377 0 .74.104.377.091.676.325.311.234.519.558.208.312.325.676.117.35.156.74.052.377.052.753 0 .377-.052.766-.04.377-.17.74-.116.351-.337.676-.208.325-.52.558-.298.221-.675.312-.363.104-.74.104m6.467 0q-.207 0-.402-.065-.195-.052-.35-.195-.144-.156-.209-.35-.052-.195-.052-.403t.052-.403q.065-.194.208-.337.156-.156.35-.208.196-.065.403-.065t.403.065q.195.052.338.208.155.143.207.337.065.195.065.403t-.065.403q-.052.194-.207.35-.143.143-.338.195-.195.065-.403.065m6.494 0q-.35 0-.702-.078-.35-.065-.649-.234-.299-.168-.545-.428-.234-.273-.377-.585-.143-.324-.195-.675-.052-.35-.052-.701v-4.35q0-.351.052-.702.052-.35.195-.662.143-.325.377-.585.246-.273.545-.441.299-.17.65-.234.35-.078.7-.078.351 0 .702.078.35.065.65.234.298.168.532.441.247.26.39.585.142.311.194.662.052.35.052.701v4.35q0 .351-.052.702-.052.35-.195.675-.142.312-.39.585-.233.26-.532.428-.298.17-.649.234-.35.078-.701.078m-1.507-4.234 3.013-2.402v-.416q0-.22-.026-.441t-.104-.429-.22-.39q-.13-.181-.312-.298-.182-.13-.403-.182-.22-.052-.441-.052-.22 0-.442.052-.22.052-.402.182-.182.117-.325.298-.13.182-.208.39t-.104.429-.026.441zm1.507 3.325q.22 0 .441-.052t.403-.169q.182-.13.312-.312.142-.181.22-.39.078-.207.104-.428.026-.22.026-.441v-2.818l-3.013 2.402v.416q0 .22.026.441t.104.429.208.39q.143.181.324.311.182.117.403.169.22.052.442.052" aria-label="5" style="font-size:13.969px;line-height:1.25;font-family:Iosevka;-inkscape-font-specification:&quot;Iosevka, Normal&quot;;stroke-width:.324671;fill:#000"/><path id="text216" d="m348.523 358.751 2.714-8.636h-3.78v-.91h4.832v.91l-1.169 3.701-1.558 4.935zm7.844.104q-.208 0-.403-.065-.195-.052-.35-.195-.143-.155-.208-.35-.052-.195-.052-.403t.052-.402q.065-.195.208-.338.155-.156.35-.208.195-.065.403-.065t.402.065q.195.052.338.208.156.143.208.338.065.194.065.402t-.065.403q-.052.195-.208.35-.143.143-.338.195-.194.065-.402.065m6.52 0q-.313 0-.624-.065-.312-.052-.585-.195-.272-.142-.506-.363-.22-.221-.377-.494-.156-.272-.246-.571-.078-.299-.117-.61v-.066h1.013l.013.143q.052.26.155.507t.286.441q.195.182.455.273t.532.091q.247 0 .48-.09.247-.092.43-.274.181-.181.285-.402.117-.234.182-.48.065-.248.078-.494.026-.26.026-.507 0-.26-.026-.506-.013-.247-.078-.494-.065-.246-.169-.467-.104-.234-.286-.416-.169-.182-.402-.273-.234-.09-.494-.09t-.52.09q-.26.078-.454.273-.182.182-.286.442-.09.26-.103.532h-1.013v-5.584h4.493v.909h-3.48v2.78q.298-.196.649-.274.363-.078.714-.078.377 0 .74.104.377.091.676.325.311.234.52.558.207.312.324.676.117.35.156.74.052.377.052.753 0 .377-.052.766-.04.377-.17.74-.116.351-.337.676-.208.325-.52.558-.298.221-.675.312-.363.104-.74.104" aria-label="7.5" style="font-size:13.969px;line-height:1.25;font-family:Iosevka;-inkscape-font-specification:&quot;Iosevka, Normal&quot;;stroke-width:.324671;fill:#000"/><path id="text217" d="M407.785 358.803v-8.39l-1.792 1.3-.585-.74 2.377-1.715h1.013v9.545zm6.61.104q-.35 0-.701-.078-.35-.065-.65-.234-.298-.168-.545-.428-.234-.273-.377-.585-.142-.324-.194-.675-.052-.35-.052-.701v-4.35q0-.351.052-.702.052-.35.194-.662.143-.325.377-.585.247-.273.546-.441.298-.17.649-.234.35-.078.701-.078.35 0 .701.078.351.065.65.234.298.168.532.441.247.26.39.585.143.311.195.662.052.35.052.701v4.35q0 .351-.052.702-.052.35-.195.675-.143.312-.39.585-.234.26-.532.428-.299.17-.65.234-.35.078-.7.078m-1.506-4.234 3.013-2.402v-.416q0-.22-.026-.441t-.104-.429-.22-.39q-.13-.181-.313-.298-.181-.13-.402-.182t-.442-.052-.441.052-.403.182q-.182.117-.325.298-.13.182-.207.39-.078.208-.104.429-.026.22-.026.441zm1.506 3.325q.22 0 .442-.052.22-.052.402-.169.182-.13.312-.312.143-.181.22-.39.079-.207.105-.428.026-.22.026-.441v-2.818l-3.013 2.402v.416q0 .22.025.441t.104.429.208.39q.143.181.325.311.182.117.402.169t.442.052m6.494.909q-.208 0-.403-.065-.195-.052-.35-.195-.144-.156-.208-.35-.052-.195-.052-.403t.052-.403q.064-.194.207-.337.156-.156.35-.208.196-.065.404-.065.207 0 .402.065.195.052.338.208.156.143.208.337.064.195.064.403t-.064.403q-.052.194-.208.35-.143.143-.338.195-.195.065-.402.065m6.493 0q-.35 0-.701-.078-.351-.065-.65-.234-.298-.168-.545-.428-.234-.273-.377-.585-.143-.324-.195-.675-.052-.35-.052-.701v-4.35q0-.351.052-.702.052-.35.195-.662.143-.325.377-.585.247-.273.545-.441.299-.17.65-.234.35-.078.7-.078.352 0 .702.078.35.065.65.234.298.168.532.441.247.26.39.585.142.311.194.662.052.35.052.701v4.35q0 .351-.052.702-.052.35-.194.675-.143.312-.39.585-.234.26-.532.428-.3.17-.65.234-.35.078-.701.078m-1.507-4.234 3.013-2.402v-.416q0-.22-.026-.441t-.103-.429-.221-.39q-.13-.181-.312-.298-.182-.13-.402-.182t-.442-.052-.442.052-.402.182q-.182.117-.325.298-.13.182-.208.39t-.103.429-.026.441zm1.507 3.325q.22 0 .441-.052t.403-.169q.182-.13.312-.312.143-.181.22-.39.078-.207.104-.428.026-.22.026-.441v-2.818l-3.013 2.402v.416q0 .22.026.441t.104.429.208.39q.143.181.325.311.181.117.402.169t.442.052" aria-label="10" style="font-size:13.969px;line-height:1.25;font-family:Iosevka;-inkscape-font-specification:&quot;Iosevka, Normal&quot;;stroke-width:.324671;fill:#000"/><path id="text218" d="M472.307 358.803v-8.39l-1.793 1.3-.584-.74 2.377-1.715h1.013v9.545zm4.194 0v-.013q0-.35.013-.701.013-.35.065-.701.065-.351.169-.689.117-.337.273-.636.169-.312.376-.598.221-.285.468-.532.26-.247.532-.454.273-.221.559-.43.286-.207.558-.428.273-.233.468-.52.195-.298.285-.635.104-.351.104-.702 0-.311-.078-.623-.064-.325-.26-.572-.181-.26-.493-.376-.298-.13-.61-.13-.286 0-.572.09-.285.092-.493.3-.195.207-.286.493-.09.273-.09.572v.013h-1.014v-.039q0-.312.065-.624.078-.324.234-.597.156-.286.39-.507.233-.22.52-.363.285-.143.597-.195.324-.052.649-.052.338 0 .675.065.338.065.637.234.298.168.52.428.233.247.376.559.143.311.194.649t.052.675q0 .377-.09.753-.078.364-.26.702-.169.324-.429.61-.246.286-.532.533-.286.233-.585.467-.298.22-.584.48-.273.247-.52.533-.233.286-.415.623-.182.325-.286.689t-.143.74h3.793v.91zm8.91.104q-.209 0-.403-.065-.195-.052-.351-.195-.143-.156-.208-.35-.052-.195-.052-.403t.052-.403q.065-.194.208-.337.156-.156.35-.208.195-.065.403-.065t.403.065q.195.052.337.208.156.143.208.337.065.195.065.403t-.065.403q-.052.194-.208.35-.142.143-.337.195-.195.065-.403.065m6.519 0q-.312 0-.624-.065-.311-.052-.584-.195t-.507-.363q-.22-.221-.376-.494t-.247-.571q-.078-.299-.117-.61v-.066h1.013l.013.143q.052.26.156.507.104.246.286.441.194.182.454.273.26.09.533.09.246 0 .48-.09.247-.09.429-.273.181-.182.285-.402.117-.234.182-.48.065-.248.078-.494.026-.26.026-.507 0-.26-.026-.506-.013-.247-.078-.494t-.169-.467q-.104-.234-.285-.416-.17-.182-.403-.273-.234-.09-.493-.09-.26 0-.52.09-.26.078-.454.273-.182.182-.286.442-.091.26-.104.532h-1.013v-5.584h4.493v.909h-3.48v2.779q.299-.195.65-.273.363-.078.714-.078.376 0 .74.104.376.091.675.325.312.234.52.558.207.312.324.676.117.35.156.74.052.377.052.753 0 .377-.052.766-.039.377-.169.74-.117.351-.337.676-.208.325-.52.558-.299.221-.675.312-.364.104-.74.104" aria-label="12.5" style="font-size:13.969px;line-height:1.25;font-family:Iosevka;-inkscape-font-specification:&quot;Iosevka, Normal&quot;;stroke-width:.324671;fill:#000"/><path id="text219" d="M536.828 358.803v-8.39l-1.792 1.3-.584-.74 2.376-1.715h1.013v9.545zm6.637.104q-.312 0-.624-.065-.312-.052-.584-.195-.273-.143-.507-.363-.22-.221-.376-.494t-.247-.571q-.078-.299-.117-.61v-.066h1.013l.013.143q.052.26.156.507.104.246.286.441.194.182.454.273.26.09.533.09.246 0 .48-.09.247-.09.429-.273.181-.182.285-.402.117-.234.182-.48.065-.248.078-.494.026-.26.026-.507 0-.26-.026-.506-.013-.247-.078-.494t-.169-.467q-.104-.234-.285-.416-.17-.182-.403-.273-.234-.09-.493-.09-.26 0-.52.09-.26.078-.455.273-.181.182-.285.442-.091.26-.104.532h-1.013v-5.584h4.493v.909h-3.48v2.779q.299-.195.65-.273.363-.078.714-.078.376 0 .74.104.376.091.675.325.312.234.52.558.207.312.324.676.117.35.156.74.052.377.052.753 0 .377-.052.766-.039.377-.169.74-.117.351-.337.676-.208.325-.52.558-.299.221-.675.312-.364.104-.74.104m6.467 0q-.208 0-.403-.065-.194-.052-.35-.195-.143-.156-.208-.35-.052-.195-.052-.403t.052-.403q.065-.194.208-.337.156-.156.35-.208.195-.065.403-.065t.403.065q.194.052.337.208.156.143.208.337.065.195.065.403t-.065.403q-.052.194-.208.35-.143.143-.337.195-.195.065-.403.065m6.493 0q-.35 0-.701-.078-.35-.065-.65-.234-.298-.168-.545-.428-.234-.273-.376-.585-.143-.324-.195-.675-.052-.35-.052-.701v-4.35q0-.351.052-.702.052-.35.195-.662.142-.325.376-.585.247-.273.546-.441.298-.17.649-.234.35-.078.701-.078.35 0 .702.078.35.065.649.234.299.168.532.441.247.26.39.585.143.311.195.662.052.35.052.701v4.35q0 .351-.052.702-.052.35-.195.675-.143.312-.39.585-.233.26-.532.428-.299.17-.65.234-.35.078-.7.078m-1.506-4.234 3.013-2.402v-.416q0-.22-.026-.441t-.104-.429-.22-.39q-.13-.181-.312-.298-.182-.13-.403-.182-.22-.052-.442-.052-.22 0-.441.052t-.403.182q-.182.117-.324.298-.13.182-.208.39t-.104.429-.026.441zm1.506 3.325q.221 0 .442-.052.22-.052.402-.169.182-.13.312-.312.143-.181.22-.39.079-.207.105-.428.026-.22.026-.441v-2.818l-3.013 2.402v.416q0 .22.026.441t.104.429.207.39q.143.181.325.311.182.117.403.169.22.052.441.052" aria-label="15" style="font-size:13.969px;line-height:1.25;font-family:Iosevka;-inkscape-font-specification:&quot;Iosevka, Normal&quot;;stroke-width:.324671;fill:#000"/><path id="text220" d="M601.35 358.751v-8.39l-1.792 1.3-.585-.74 2.377-1.715h1.013v9.545zm5.26 0 2.714-8.636h-3.78v-.91h4.832v.91l-1.169 3.701-1.558 4.935zm7.844.104q-.208 0-.403-.065-.195-.052-.35-.195-.143-.155-.208-.35-.052-.195-.052-.403t.052-.402q.065-.195.207-.338.156-.156.351-.208.195-.065.403-.065.207 0 .402.065.195.052.338.208.156.143.208.338.065.194.065.402t-.065.403q-.052.195-.208.35-.143.143-.338.195-.195.065-.402.065m6.519 0q-.312 0-.623-.065-.312-.052-.585-.195-.272-.142-.506-.363-.221-.221-.377-.494-.156-.272-.247-.571-.078-.299-.117-.61v-.066h1.013l.013.143q.052.26.156.507t.286.441q.195.182.455.273t.532.091q.247 0 .48-.09.247-.092.43-.274.18-.181.285-.402.117-.234.182-.48.065-.248.078-.494.025-.26.025-.507 0-.26-.025-.506-.013-.247-.078-.494-.065-.246-.17-.467-.103-.234-.285-.416-.169-.182-.402-.273-.234-.09-.494-.09t-.52.09q-.26.078-.454.273-.182.182-.286.442-.09.26-.104.532h-1.013v-5.584h4.494v.909h-3.48v2.78q.298-.196.649-.274.363-.078.714-.078.377 0 .74.104.377.091.676.325.311.234.519.558.208.312.325.676.117.35.156.74.052.377.052.753 0 .377-.052.766-.04.377-.17.74-.116.351-.337.676-.208.325-.52.558-.298.221-.675.312-.363.104-.74.104" aria-label="17.5" style="font-size:13.969px;line-height:1.25;font-family:Iosevka;-inkscape-font-specification:&quot;Iosevka, Normal&quot;;stroke-width:.324671;fill:#000"/><path id="text221" d="M663.521 358.803v-.013q0-.35.013-.701.013-.35.065-.701.065-.351.169-.689.117-.337.273-.636.168-.312.376-.598.221-.285.468-.532.26-.247.532-.454.273-.221.559-.43.285-.207.558-.428.273-.233.468-.52.194-.298.285-.635.104-.351.104-.702 0-.311-.078-.623-.065-.325-.26-.572-.181-.26-.493-.376-.299-.13-.61-.13-.286 0-.572.09-.285.092-.493.3-.195.207-.286.493-.09.273-.09.572v.013h-1.014v-.039q0-.312.065-.624.078-.324.234-.597.156-.286.39-.507.233-.22.519-.363t.597-.195q.325-.052.65-.052.337 0 .675.065t.636.234.52.428q.234.247.376.559.143.311.195.649t.052.675q0 .377-.09.753-.079.364-.26.702-.17.324-.429.61-.247.286-.532.533-.286.233-.585.467-.299.22-.584.48-.273.247-.52.533-.234.286-.415.623-.182.325-.286.689t-.143.74h3.792v.91zm8.909.104q-.35 0-.701-.078-.35-.065-.65-.234-.298-.168-.545-.428-.234-.273-.377-.585-.143-.324-.194-.675-.052-.35-.052-.701v-4.35q0-.351.052-.702.052-.35.194-.662.143-.325.377-.585.247-.273.545-.441.3-.17.65-.234.35-.078.701-.078.35 0 .701.078.351.065.65.234.298.168.532.441.247.26.39.585.143.311.195.662.052.35.052.701v4.35q0 .351-.052.702-.052.35-.195.675-.143.312-.39.585-.234.26-.532.428-.299.17-.65.234-.35.078-.701.078m-1.506-4.234 3.013-2.402v-.416q0-.22-.026-.441t-.104-.429-.221-.39q-.13-.181-.312-.298-.182-.13-.402-.182t-.442-.052-.441.052-.403.182q-.182.117-.325.298-.13.182-.207.39-.078.208-.104.429-.026.22-.026.441zm1.506 3.325q.22 0 .442-.052.22-.052.402-.169.182-.13.312-.312.143-.181.22-.39.079-.207.105-.428.025-.22.025-.441v-2.818l-3.013 2.402v.416q0 .22.026.441t.104.429.208.39q.143.181.325.311.182.117.402.169t.442.052m6.493.909q-.207 0-.402-.065-.195-.052-.35-.195-.144-.156-.209-.35-.052-.195-.052-.403t.052-.403q.065-.194.208-.337.156-.156.35-.208.196-.065.403-.065t.403.065q.195.052.338.208.156.143.207.337.065.195.065.403t-.065.403q-.052.194-.207.35-.143.143-.338.195-.195.065-.403.065m6.494 0q-.35 0-.701-.078-.351-.065-.65-.234-.299-.168-.545-.428-.234-.273-.377-.585-.143-.324-.195-.675-.052-.35-.052-.701v-4.35q0-.351.052-.702.052-.35.195-.662.143-.325.377-.585.246-.273.545-.441.299-.17.65-.234.35-.078.7-.078.351 0 .702.078.35.065.65.234.298.168.532.441.247.26.39.585.142.311.194.662.052.35.052.701v4.35q0 .351-.052.702-.052.35-.195.675-.142.312-.39.585-.233.26-.532.428-.298.17-.649.234-.35.078-.701.078m-1.507-4.234 3.013-2.402v-.416q0-.22-.026-.441t-.104-.429-.22-.39q-.13-.181-.312-.298-.182-.13-.403-.182-.22-.052-.441-.052-.22 0-.442.052-.22.052-.402.182-.182.117-.325.298-.13.182-.208.39t-.104.429-.026.441zm1.507 3.325q.22 0 .441-.052t.403-.169q.182-.13.312-.312.142-.181.22-.39.078-.207.104-.428.026-.22.026-.441v-2.818l-3.013 2.402v.416q0 .22.026.441t.104.429.208.39q.143.181.324.311.182.117.403.169.22.052.442.052" aria-label="20" style="font-size:13.969px;line-height:1.25;font-family:Iosevka;-inkscape-font-specification:&quot;Iosevka, Normal&quot;;stroke-width:.324671;fill:#000"/></svg>