<svg xmlns="http://www.w3.org/2000/svg" xml:space="preserve" viewBox="0 0 90 90"><path d="m90 18.3-1-.3L39.6 0 18.4 7.7 0 57.9v13.7L50.5 90 90 75.6V19.4zm-6 1.1L68.5 25 24 9l15.5-5.7zm-63.5-8.5 46 16.7-17 46.6-46-16.7zM3 60.6l46 16.6v9L3 69.4z"/><path d="m39.6 5.5 38 13.9-3.5 1.3L36 6.8zm-30 61.9c0 1.1-.7 1.8-1.7 1.5-.9-.4-1.6-1.6-1.6-2.7s.7-1.8 1.6-1.5 1.7 1.6 1.7 2.7m6.5 2.4c0 1.1-.7 1.8-1.7 1.5s-1.6-1.6-1.6-2.7.7-1.8 1.6-1.5 1.7 1.6 1.7 2.7m6.4 2.3c0 1.1-.7 1.8-1.7 1.5-.9-.4-1.6-1.6-1.6-2.7 0-1.2.7-1.8 1.6-1.5 1 .3 1.7 1.5 1.7 2.7m6.4 2.3c0 1.1-.7 1.8-1.7 1.5-.9-.4-1.6-1.6-1.6-2.7s.7-1.8 1.6-1.5c1 .3 1.7 1.6 1.7 2.7m6.5 2.4c0 1.1-.7 1.8-1.7 1.5s-1.6-1.6-1.6-2.7.7-1.8 1.6-1.5 1.7 1.6 1.7 2.7m6.4 2.4c0 1.1-.7 1.8-1.7 1.5-.9-.4-1.6-1.6-1.6-2.7s.7-1.8 1.6-1.5c1 .3 1.7 1.6 1.7 2.7m12.4-36.5c.6-2.6 1.6-7 .5-7.6-.3 0-1.2.7-2.9 3.8-1.4 2.5-2.9 5.8-4.4 9-3.8 8.4-6.7 14.7-10 14.7l-1-.1c-3.7-1.4-1.7-8.4 1-18.2 1-3.4 1.9-7 2.4-9.7.6-3 .5-4.2.4-4.6-.4.2-1.3 1-2.8 3.7a132 132 0 0 0-4.4 9c-3.8 8.4-6.7 14.6-10 14.6-.3 0-.6 0-1-.2-3.6-1.3-1.7-8.4 1-18.2 1-3.3 1.9-6.8 2.4-9.6.7-3.5.4-4.5.3-4.8-1.2-.2-3.1 3.2-4.4 5.5-2.1 3.8-4.5 8.2-8 7-7 19-6.3 19.4 14 26.8s21 7.6 28-11.5c-3-1.2-2-5.3-1-9.7z"/><path d="M18.6 28.6c2.1-3.8 4.6-8.2 8.2-7 3.8 1.4 1.8 8.4-.9 18.2-1 3.4-1.9 6.9-2.4 9.7-.6 3-.5 4.2-.4 4.6.4-.3 1.3-1 2.8-3.8 1.4-2.4 2.9-5.7 4.3-9 4.7-10 7.4-15.6 11-14.4 3.8 1.3 1.9 8.3-.8 18-1 3.5-2 7-2.5 9.8a11 11 0 0 0-.3 4.6c.4-.2 1.2-1 2.7-3.8a95 95 0 0 0 4.4-9c4.2-9.2 7.3-15.9 11-14.5 3.8 1.4 2.6 6.6 1.6 11.2-.5 1.8-1.2 5.1-.9 6 7.5-20.4 7.2-20.5-13.6-28.1s-21-7.7-28.6 12.9c1.2.1 3.1-3.3 4.4-5.6z"/></svg>