<svg xmlns="http://www.w3.org/2000/svg" width="992" height="592" fill="none" stroke-linecap="square" stroke-miterlimit="10"><path fill="#fff" d="M0 0h992v592H0z"/><path stroke="#333" stroke-linecap="butt" d="M236.5 97.5v411"/><path stroke="#ccc" stroke-linecap="butt" d="M418.5 97.5v411m181-411v411m181-411v411m182-411v411"/><clipPath id="a"><path d="M236.6 97.333h725.8V508.4H236.6z"/></clipPath><path d="M237 120v-15h687a2 2 0 0 1 2 2v11a2 2 0 0 1-2 2Z" clip-path="url(#a)"/><path fill="#4472c4" d="M237 120v-15h687a2 2 0 0 1 2 2v11a2 2 0 0 1-2 2Z" clip-path="url(#a)"/><path d="M237 143v-15h611a2 2 0 0 1 2 2v11a2 2 0 0 1-2 2Z" clip-path="url(#a)"/><path fill="#4472c4" d="M237 143v-15h611a2 2 0 0 1 2 2v11a2 2 0 0 1-2 2Z" clip-path="url(#a)"/><path d="M237 165v-15h553a2 2 0 0 1 2 2v11a2 2 0 0 1-2 2Z" clip-path="url(#a)"/><path fill="#4472c4" d="M237 165v-15h553a2 2 0 0 1 2 2v11a2 2 0 0 1-2 2Z" clip-path="url(#a)"/><path d="M237 188v-15h529a2 2 0 0 1 2 2v11a2 2 0 0 1-2 2Z" clip-path="url(#a)"/><path fill="#4472c4" d="M237 188v-15h529a2 2 0 0 1 2 2v11a2 2 0 0 1-2 2Z" clip-path="url(#a)"/><path d="M237 210v-15h297a2 2 0 0 1 2 2v11a2 2 0 0 1-2 2Z" clip-path="url(#a)"/><path fill="#4472c4" d="M237 210v-15h297a2 2 0 0 1 2 2v11a2 2 0 0 1-2 2Z" clip-path="url(#a)"/><path d="M237 232v-15h277a2 2 0 0 1 2 2v11a2 2 0 0 1-2 2Z" clip-path="url(#a)"/><path fill="#4472c4" d="M237 232v-15h277a2 2 0 0 1 2 2v11a2 2 0 0 1-2 2Z" clip-path="url(#a)"/><path d="M237 255v-15h175a2 2 0 0 1 2 2v11a2 2 0 0 1-2 2Z" clip-path="url(#a)"/><path fill="#4472c4" d="M237 255v-15h175a2 2 0 0 1 2 2v11a2 2 0 0 1-2 2Z" clip-path="url(#a)"/><path d="M237 277v-15h154a2 2 0 0 1 2 2v11a2 2 0 0 1-2 2Z" clip-path="url(#a)"/><path fill="#4472c4" d="M237 277v-15h154a2 2 0 0 1 2 2v11a2 2 0 0 1-2 2Z" clip-path="url(#a)"/><path d="M237 300v-15h143a2 2 0 0 1 2 2v11a2 2 0 0 1-2 2Z" clip-path="url(#a)"/><path fill="#4472c4" d="M237 300v-15h143a2 2 0 0 1 2 2v11a2 2 0 0 1-2 2Z" clip-path="url(#a)"/><path d="M237 322v-15h126a2 2 0 0 1 2 2v11a2 2 0 0 1-2 2Z" clip-path="url(#a)"/><path fill="#4472c4" d="M237 322v-15h126a2 2 0 0 1 2 2v11a2 2 0 0 1-2 2Z" clip-path="url(#a)"/><path d="M237 344v-15h119a2 2 0 0 1 2 2v11a2 2 0 0 1-2 2Z" clip-path="url(#a)"/><path fill="#4472c4" d="M237 344v-15h119a2 2 0 0 1 2 2v11a2 2 0 0 1-2 2Z" clip-path="url(#a)"/><path d="M237 367v-15h87a2 2 0 0 1 2 2v11a2 2 0 0 1-2 2Z" clip-path="url(#a)"/><path fill="#4472c4" d="M237 367v-15h87a2 2 0 0 1 2 2v11a2 2 0 0 1-2 2Z" clip-path="url(#a)"/><path d="M237 389v-15h87a2 2 0 0 1 2 2v11a2 2 0 0 1-2 2Z" clip-path="url(#a)"/><path fill="#4472c4" d="M237 389v-15h87a2 2 0 0 1 2 2v11a2 2 0 0 1-2 2Z" clip-path="url(#a)"/><path d="M237 412v-15h85a2 2 0 0 1 2 2v11a2 2 0 0 1-2 2Z" clip-path="url(#a)"/><path fill="#4472c4" d="M237 412v-15h85a2 2 0 0 1 2 2v11a2 2 0 0 1-2 2Z" clip-path="url(#a)"/><path d="M237 434v-15h85a2 2 0 0 1 2 2v11a2 2 0 0 1-2 2Z" clip-path="url(#a)"/><path fill="#4472c4" d="M237 434v-15h85a2 2 0 0 1 2 2v11a2 2 0 0 1-2 2Z" clip-path="url(#a)"/><path d="M237 456v-15h79a2 2 0 0 1 2 2v11a2 2 0 0 1-2 2Z" clip-path="url(#a)"/><path fill="#4472c4" d="M237 456v-15h79a2 2 0 0 1 2 2v11a2 2 0 0 1-2 2Z" clip-path="url(#a)"/><path d="M237 479v-15h38a2 2 0 0 1 2 2v11a2 2 0 0 1-2 2Z" clip-path="url(#a)"/><path fill="#4472c4" d="M237 479v-15h38a2 2 0 0 1 2 2v11a2 2 0 0 1-2 2Z" clip-path="url(#a)"/><path d="M237 501v-15h34a2 2 0 0 1 2 2v11a2 2 0 0 1-2 2Z" clip-path="url(#a)"/><path fill="#4472c4" d="M237 501v-15h34a2 2 0 0 1 2 2v11a2 2 0 0 1-2 2Z" clip-path="url(#a)"/><path fill="#000" d="M574.625 555.947h-2.016v3.453h-1.125v-8.531h2.828q1.438 0 2.204.656.78.656.78 1.906 0 .797-.437 1.39-.422.595-1.187.891l2 3.61v.078h-1.203zm-2.016-.922h1.735q.843 0 1.328-.422.5-.437.5-1.172 0-.781-.469-1.203t-1.36-.437h-1.734zm8.344 4.5q-1.297 0-2.11-.844-.796-.86-.796-2.281v-.187q0-.954.36-1.688.359-.75 1-1.156.655-.422 1.405-.422 1.235 0 1.922.812.688.813.688 2.328v.454h-4.297q.031.937.547 1.515.531.578 1.344.578.562 0 .953-.234.406-.234.718-.625l.657.516q-.797 1.234-2.39 1.234m-.14-5.687q-.657 0-1.11.484-.437.469-.531 1.328h3.172v-.078q-.047-.828-.453-1.281-.391-.454-1.078-.454m7.203 3.875q0-.438-.344-.672-.328-.25-1.156-.422-.813-.172-1.297-.422-.485-.25-.719-.578-.219-.344-.219-.813 0-.781.657-1.312.656-.547 1.687-.547 1.078 0 1.734.562.672.547.672 1.407h-1.078q0-.438-.39-.75-.375-.329-.938-.329-.594 0-.937.266-.329.25-.329.656 0 .391.313.594.312.203 1.125.39.812.173 1.312.423t.735.609q.25.36.25.86 0 .859-.688 1.374-.672.516-1.75.516-.765 0-1.36-.266-.577-.28-.905-.765t-.328-1.047h1.078q.03.547.437.875.406.312 1.078.312.61 0 .985-.25t.375-.672m7.656-1.407q0 1.438-.656 2.328-.657.891-1.797.891-1.157 0-1.813-.734v3.046h-1.078v-8.78h.985l.046.702q.672-.812 1.844-.812 1.14 0 1.797.86.672.859.672 2.39zm-1.078-.125q0-1.078-.469-1.687-.453-.625-1.25-.625-.984 0-1.469.86v3.03q.485.875 1.485.875.78 0 1.234-.609.469-.625.469-1.844m2.437-.015q0-.922.36-1.672.375-.75 1.03-1.14.657-.407 1.485-.407 1.297 0 2.094.89.813.891.813 2.391v.078q0 .922-.36 1.656-.36.735-1.015 1.157-.657.406-1.516.406-1.281 0-2.094-.89-.797-.907-.797-2.391zm1.094.14q0 1.047.484 1.688.5.64 1.313.64.828 0 1.312-.64.485-.657.485-1.828 0-1.032-.5-1.672-.485-.657-1.313-.657-.797 0-1.297.641-.484.625-.484 1.828m7.219-3.25.031.797q.734-.906 1.906-.906 2.016 0 2.032 2.265v4.188h-1.094v-4.203q0-.672-.313-1-.297-.328-.953-.328-.531 0-.937.281-.391.281-.61.734v4.516h-1.078v-6.344zm9.672 4.656q0-.437-.344-.671-.328-.25-1.156-.422-.813-.172-1.297-.422-.485-.25-.719-.578-.219-.344-.219-.813 0-.781.657-1.312.656-.547 1.687-.547 1.078 0 1.734.562.672.547.672 1.407h-1.078q0-.438-.39-.75-.375-.329-.938-.329-.594 0-.937.266-.329.25-.329.656 0 .391.313.594.312.203 1.125.39.812.173 1.312.423t.735.609q.25.36.25.86 0 .859-.688 1.374-.672.516-1.75.516-.765 0-1.36-.266-.577-.28-.905-.765t-.328-1.047h1.078q.03.547.437.875.406.312 1.078.312.61 0 .985-.25t.375-.672m4.937 1.813q-1.297 0-2.11-.844-.796-.86-.796-2.281v-.187q0-.954.36-1.688.359-.75 1-1.156.655-.422 1.405-.422 1.235 0 1.922.812.688.813.688 2.328v.454h-4.297q.031.937.547 1.515.531.578 1.344.578.562 0 .953-.234.406-.234.718-.625l.657.516q-.797 1.234-2.39 1.234m-.14-5.687q-.657 0-1.11.484-.437.469-.531 1.328h3.172v-.078q-.047-.828-.453-1.281-.391-.454-1.078-.454m7.203 3.875q0-.438-.344-.672-.328-.25-1.156-.422-.813-.172-1.297-.422-.485-.25-.719-.578-.219-.344-.219-.813 0-.781.657-1.312.656-.547 1.687-.547 1.078 0 1.734.562.672.547.672 1.407h-1.078q0-.438-.39-.75-.375-.329-.938-.329-.594 0-.937.266-.329.25-.329.656 0 .391.313.594.312.203 1.125.39.812.173 1.312.423t.735.609q.25.36.25.86 0 .859-.688 1.374-.672.516-1.75.516-.765 0-1.36-.266-.577-.28-.905-.765t-.328-1.047h1.078q.03.547.437.875.406.312 1.078.312.61 0 .985-.25t.375-.672M38.897 328.601q1.344.156 2.094 1 .734.844.734 2.234 0 1.516-1.078 2.422-1.094.907-2.922.907h-.812q-1.188 0-2.094-.422t-1.39-1.203-.485-1.797q0-1.36.765-2.172.766-.828 2.094-.969v1.125q-1.015.156-1.469.64-.453.485-.453 1.376 0 1.078.797 1.687.797.61 2.266.61h.828q1.39 0 2.219-.579.812-.578.812-1.625 0-.937-.422-1.437-.437-.5-1.484-.672zm-.531-1.266q-.922 0-1.672-.359-.75-.375-1.14-1.031-.407-.656-.407-1.485 0-1.296.89-2.093.891-.813 2.391-.813h.078q.922 0 1.657.36.734.359 1.156 1.015.406.656.406 1.516 0 1.281-.89 2.094-.907.796-2.391.796zm.14-1.093q1.047 0 1.688-.485.64-.5.64-1.312 0-.828-.64-1.313-.656-.484-1.828-.484-1.032 0-1.672.5-.656.484-.656 1.312 0 .797.64 1.297.625.485 1.828.485m-3.25-7.22.797-.03q-.906-.735-.906-1.907 0-2.015 2.266-2.03H41.6v1.093h-4.203q-.672 0-1 .312-.328.297-.328.954 0 .53.281.937.281.39.734.61H41.6v1.078h-6.344zm5.578-8.515q0-.578-.343-1.015-.36-.438-.891-.485v-1.031q.547.031 1.047.39.484.344.781.923.297.562.297 1.218 0 1.297-.86 2.063-.874.75-2.374.75h-.188q-.922 0-1.64-.328-.72-.344-1.11-.97-.406-.64-.406-1.515 0-1.062.64-1.765.626-.72 1.657-.766v1.031q-.625.047-1.016.469-.39.422-.39 1.031 0 .828.593 1.282.594.453 1.719.453h.203q1.094 0 1.688-.453.593-.454.593-1.282m.891-6.093q0 1.296-.844 2.109-.86.797-2.281.797h-.187q-.954 0-1.688-.36-.75-.359-1.156-1-.422-.656-.422-1.406 0-1.234.812-1.922t2.329-.687h.453v4.297q.937-.032 1.515-.547.578-.531.578-1.344 0-.562-.234-.953-.234-.406-.625-.719l.516-.656q1.234.797 1.234 2.39m-5.687.14q0 .656.484 1.11.469.437 1.328.53v-3.171h-.078q-.828.047-1.281.453-.453.39-.453 1.078m2.468-8.86q1.438 0 2.328.657.891.656.891 1.797 0 1.156-.734 1.812h3.047v1.079h-8.782v-.985l.703-.047q-.812-.672-.812-1.843 0-1.141.86-1.797.859-.672 2.39-.672zm-.125 1.079q-1.078 0-1.687.469-.625.453-.625 1.25 0 .984.86 1.468h3.03q.875-.484.875-1.484 0-.781-.609-1.234-.625-.47-1.844-.47m-4.656-4.203h1.531v-1.172h.844v1.172h3.922q.39 0 .578-.156.188-.157.188-.532 0-.187-.063-.515h.875q.125.422.125.828 0 .719-.437 1.094-.454.375-1.266.375H36.1v1.156h-.844v-1.156h-1.531zm29.859-175.614v-8.53h2.797q1.39 0 2.078.577.703.563.703 1.688 0 .61-.343 1.078-.328.453-.922.703.703.187 1.094.734.406.532.406 1.282 0 1.156-.75 1.812-.735.656-2.094.656zm1.125-3.984v3.062h1.86q.797 0 1.25-.406t.453-1.125q0-1.531-1.688-1.531zm0-.906h1.703q.735 0 1.172-.36.453-.375.453-1.015 0-.703-.406-1.016-.406-.328-1.25-.328H64.71zm8.344 5.015q-1.297 0-2.11-.843-.796-.86-.796-2.282v-.187q0-.953.36-1.688.359-.75 1-1.156.655-.422 1.405-.422 1.235 0 1.922.813.688.812.688 2.328v.453h-4.297q.031.937.547 1.516.531.578 1.344.578.562 0 .953-.235.406-.234.718-.625l.657.516q-.797 1.234-2.39 1.234m-.14-5.687q-.657 0-1.11.484-.437.469-.531 1.328h3.172v-.078q-.047-.828-.453-1.281-.391-.453-1.079-.453m4.984-2.313v1.532h1.172v.843h-1.172v3.922q0 .39.156.578t.531.188q.188 0 .516-.063v.875q-.422.125-.828.125-.719 0-1.094-.437-.375-.453-.375-1.266v-3.922h-1.156v-.843h1.156v-1.532zm4 0v1.532h1.172v.843h-1.172v3.922q0 .39.156.578t.531.188q.188 0 .516-.063v.875q-.422.125-.828.125-.719 0-1.094-.437-.375-.453-.375-1.266v-3.922h-1.156v-.843h1.156v-1.532zm5.156 8q-1.297 0-2.11-.843-.796-.86-.796-2.282v-.187q0-.953.36-1.688.359-.75 1-1.156.655-.422 1.405-.422 1.235 0 1.922.813.688.812.688 2.328v.453h-4.297q.031.937.547 1.516.531.578 1.344.578.562 0 .953-.235.406-.234.718-.625l.657.516q-.797 1.234-2.39 1.234m-.14-5.687q-.657 0-1.11.484-.437.469-.531 1.328h3.172v-.078q-.047-.828-.453-1.281-.391-.453-1.079-.453m6.578.187q-.25-.03-.532-.03-1.078 0-1.453.905v4.5h-1.078v-6.343h1.047l.016.734q.53-.844 1.515-.844.313 0 .485.078zm10-2.234h-2.75v7.61h-1.11v-7.61h-2.75v-.922h6.61zm4 2.234q-.25-.03-.532-.03-1.078 0-1.453.905v4.5h-1.078v-6.343h1.047l.016.734q.53-.844 1.515-.844.313 0 .485.078zm4.843 5.375q-.093-.187-.156-.672-.75.797-1.797.797-.937 0-1.547-.53-.593-.532-.593-1.36 0-.985.75-1.532.75-.546 2.125-.546h1.046v-.5q0-.563-.343-.891-.328-.344-1-.344-.578 0-.969.297-.39.281-.39.703h-1.094q0-.484.328-.922.343-.437.922-.687.578-.266 1.265-.266 1.11 0 1.719.547.625.547.656 1.5v2.922q0 .875.219 1.39v.094zm-1.797-.828q.516 0 .97-.265.452-.266.655-.688v-1.297h-.843q-2 0-2 1.172 0 .5.343.797.344.281.875.281m6.063.828h-1.078v-6.343h1.078zm-1.172-8.015q0-.266.156-.453.172-.188.485-.188.312 0 .468.188.172.187.172.453 0 .25-.172.437-.156.172-.468.172t-.485-.172q-.156-.187-.156-.437m4.016 1.672.031.796q.734-.906 1.906-.906 2.016 0 2.031 2.266v4.187h-1.093v-4.203q0-.672-.313-1-.297-.328-.953-.328-.531 0-.937.281-.391.282-.61.735v4.515h-1.078v-6.343zm7.156 6.343h-1.078v-6.343h1.078zm-1.172-8.015q0-.266.156-.453.172-.188.485-.188.312 0 .468.188.172.187.172.453 0 .25-.172.437-.156.172-.468.172t-.485-.172q-.156-.187-.156-.437m4.016 1.672.031.796q.734-.906 1.906-.906 2.016 0 2.031 2.266v4.187h-1.093v-4.203q0-.672-.313-1-.297-.328-.953-.328-.531 0-.937.281-.391.282-.61.735v4.515h-1.078v-6.343zm5.719 3.125q0-1.485.687-2.36t1.813-.875q1.156 0 1.812.813l.047-.703h1v6.187q0 1.234-.734 1.938-.735.718-1.954.718-.687 0-1.343-.297-.657-.296-1-.796l.562-.657q.688.86 1.703.86.781 0 1.219-.453.453-.438.453-1.25v-.547q-.656.765-1.781.765-1.11 0-1.797-.89-.687-.907-.687-2.453m1.093.125q0 1.062.438 1.687.437.61 1.234.61 1.016 0 1.5-.938v-2.89q-.5-.907-1.5-.907-.781 0-1.234.61-.438.609-.438 1.828m6.375 3.828h-.922l3.563-9.266h.922zm4.953-.735v-8.53h2.422q1.11 0 1.953.5.86.483 1.328 1.39.47.906.47 2.093v.532q0 1.218-.47 2.125-.453.906-1.328 1.39-.859.485-2 .5zm1.125-7.61v6.688h1.188q1.297 0 2.016-.796.734-.813.734-2.313v-.5q0-1.453-.688-2.25-.672-.812-1.937-.828zm6.422 4.376q0-.922.36-1.672.375-.75 1.03-1.14.657-.407 1.485-.407 1.297 0 2.094.89.813.891.813 2.391v.079q0 .921-.36 1.656t-1.016 1.156q-.656.406-1.515.406-1.281 0-2.094-.89-.797-.907-.797-2.39zm1.094.14q0 1.047.484 1.688.5.64 1.313.64.828 0 1.312-.64.485-.656.485-1.828 0-1.031-.5-1.672-.485-.656-1.313-.656-.797 0-1.297.64-.484.625-.484 1.829m8.734 2.329q.578 0 1.016-.344.438-.36.484-.89h1.032q-.032.546-.391 1.046-.344.485-.922.781-.562.297-1.219.297-1.297 0-2.062-.86-.75-.874-.75-2.374v-.188q0-.921.328-1.64.344-.719.969-1.11.64-.406 1.515-.406 1.063 0 1.766.64.719.626.766 1.657h-1.032q-.047-.625-.468-1.016-.422-.39-1.032-.39-.828 0-1.28.594-.454.593-.454 1.718v.203q0 1.094.453 1.688t1.281.594m7.375.14q-.625.75-1.859.75-1.016 0-1.547-.593-.531-.594-.531-1.75v-4.125h1.078v4.093q0 1.453 1.172 1.453 1.25 0 1.656-.937v-4.61h1.094v6.344h-1.031zm4.11-5.718.031.703q.688-.813 1.875-.813 1.328 0 1.813 1.016.312-.453.812-.735.516-.28 1.203-.28 2.094 0 2.125 2.202v4.25h-1.078v-4.187q0-.672-.312-1-.313-.344-1.047-.344-.61 0-1.016.36-.39.359-.453.968v4.203h-1.078v-4.156q0-1.375-1.36-1.375-1.062 0-1.453.906v4.625h-1.094v-6.343zm12.61 6.468q-1.298 0-2.11-.843-.797-.86-.797-2.282v-.187q0-.953.36-1.688.359-.75 1-1.156.655-.422 1.405-.422 1.235 0 1.922.813.688.812.688 2.328v.453h-4.297q.031.937.547 1.516.531.578 1.344.578.562 0 .953-.235.406-.234.719-.625l.656.516q-.797 1.234-2.39 1.234m-.142-5.687q-.656 0-1.109.484-.437.469-.531 1.328h3.172v-.078q-.047-.828-.453-1.281-.391-.453-1.079-.453m4.532-.781.031.796q.734-.906 1.906-.906 2.016 0 2.031 2.266v4.187h-1.093v-4.203q0-.672-.313-1-.297-.328-.953-.328-.531 0-.937.281-.391.282-.61.735v4.515h-1.078v-6.343zm7.453-1.532v1.532h1.172v.843h-1.172v3.922q0 .39.156.578t.531.188q.188 0 .516-.063v.875q-.422.125-.828.125-.719 0-1.094-.437-.375-.453-.375-1.266v-3.922h-1.156v-.843h1.156v-1.532zm6.437 7.875q-.093-.187-.156-.672-.75.797-1.797.797-.937 0-1.547-.53-.593-.532-.593-1.36 0-.985.75-1.532.75-.546 2.125-.546h1.046v-.5q0-.563-.343-.891-.328-.344-1-.344-.578 0-.969.297-.39.281-.39.703h-1.094q0-.484.328-.922.344-.437.922-.687.578-.266 1.265-.266 1.11 0 1.719.547.625.547.656 1.5v2.922q0 .875.219 1.39v.094zm-1.797-.828q.516 0 .97-.265.452-.266.655-.688v-1.297h-.843q-2 0-2 1.172 0 .5.344.797.343.281.874.281m6.36-7.047v1.532h1.172v.843h-1.172v3.922q0 .39.156.578t.531.188q.188 0 .516-.063v.875q-.422.125-.828.125-.719 0-1.094-.437-.375-.453-.375-1.266v-3.922h-1.156v-.843h1.156v-1.532zm3.703 7.875h-1.078v-6.343h1.078zm-1.172-8.015q0-.266.156-.453.172-.188.485-.188.312 0 .469.188.171.187.171.453 0 .25-.172.437-.156.172-.468.172t-.485-.172q-.156-.187-.156-.437m2.703 4.78q0-.92.36-1.67.375-.75 1.03-1.142.657-.406 1.485-.406 1.297 0 2.094.89.813.891.813 2.391v.079q0 .921-.36 1.656t-1.016 1.156q-.656.406-1.515.406-1.281 0-2.094-.89-.797-.907-.797-2.39zm1.094.142q0 1.046.484 1.687.5.64 1.313.64.828 0 1.312-.64.485-.656.485-1.828 0-1.031-.5-1.672-.485-.656-1.313-.656-.797 0-1.297.64-.484.625-.484 1.829m7.219-3.25.031.796q.734-.906 1.906-.906 2.016 0 2.031 2.266v4.187h-1.093v-4.203q0-.672-.313-1-.297-.328-.953-.328-.531 0-.937.281-.391.282-.61.735v4.515h-1.078v-6.343zm-104.406 20.213 2.796 6.953 2.782-6.953h1.468v8.53h-1.125v-3.327l.11-3.578-2.813 6.906h-.86l-2.796-6.89.11 3.562v3.328h-1.126v-8.531zm8.093 5.296q0-.921.36-1.671.375-.75 1.03-1.141.657-.406 1.485-.406 1.297 0 2.094.89.813.89.813 2.39v.079q0 .922-.36 1.656-.36.735-1.016 1.157-.656.406-1.515.406-1.281 0-2.094-.89-.797-.907-.797-2.391zm1.094.141q0 1.047.484 1.688.5.64 1.313.64.828 0 1.312-.64.485-.657.485-1.829 0-1.03-.5-1.671-.485-.657-1.313-.657-.797 0-1.297.64-.484.626-.484 1.829m9.266-2.281q-.25-.031-.532-.031-1.078 0-1.453.906v4.5h-1.078v-6.344h1.047l.016.734q.53-.843 1.515-.843.313 0 .485.078zm3.562 5.5q-1.297 0-2.11-.844-.796-.86-.796-2.281v-.188q0-.953.36-1.687.359-.75 1-1.156.655-.422 1.405-.422 1.235 0 1.922.812.688.813.688 2.328v.453h-4.297q.031.938.547 1.516.531.578 1.344.578.562 0 .953-.234.406-.235.719-.625l.656.515q-.797 1.235-2.39 1.235m-.14-5.688q-.657 0-1.11.485-.437.468-.531 1.328h3.172v-.078q-.047-.828-.453-1.282-.391-.453-1.079-.453m3.718 6.297h-.922l3.563-9.265h.922zm4.953-.734v-8.531h2.797q1.39 0 2.078.578.703.562.703 1.687 0 .61-.343 1.078-.328.453-.922.703.703.188 1.094.735.406.531.406 1.281 0 1.156-.75 1.813-.734.656-2.094.656zm1.125-3.985v3.063h1.86q.797 0 1.25-.406t.453-1.125q0-1.532-1.688-1.532zm0-.906h1.703q.735 0 1.172-.36.453-.374.453-1.015 0-.703-.406-1.015-.406-.329-1.25-.329h-1.672zm8.344 5.016q-1.297 0-2.11-.844-.796-.86-.796-2.281v-.188q0-.953.36-1.687.359-.75 1-1.156.655-.422 1.405-.422 1.235 0 1.922.812.688.813.688 2.328v.453h-4.297q.031.938.547 1.516.531.578 1.344.578.562 0 .953-.234.406-.235.719-.625l.656.515q-.797 1.235-2.39 1.235m-.14-5.688q-.657 0-1.11.485-.437.468-.531 1.328h3.172v-.078q-.047-.828-.453-1.282-.391-.453-1.079-.453m4.984-2.312v1.531h1.172v.844h-1.172v3.922q0 .39.156.578t.531.187q.188 0 .516-.062v.875q-.422.125-.828.125-.719 0-1.094-.438-.375-.453-.375-1.265v-3.922h-1.156v-.844h1.156v-1.531zm4 0v1.531h1.172v.844h-1.172v3.922q0 .39.156.578t.531.187q.188 0 .516-.062v.875q-.422.125-.828.125-.719 0-1.094-.438-.375-.453-.375-1.265v-3.922h-1.156v-.844h1.156v-1.531zm5.156 8q-1.297 0-2.11-.844-.796-.86-.796-2.281v-.188q0-.953.36-1.687.359-.75 1-1.156.655-.422 1.405-.422 1.235 0 1.922.812.688.813.688 2.328v.453h-4.297q.031.938.547 1.516.531.578 1.344.578.562 0 .953-.234.406-.235.719-.625l.656.515q-.797 1.235-2.39 1.235m-.14-5.688q-.657 0-1.11.485-.437.468-.531 1.328h3.172v-.078q-.047-.828-.453-1.282-.391-.453-1.079-.453m6.578.188q-.25-.031-.532-.031-1.078 0-1.453.906v4.5h-1.078v-6.344h1.047l.016.734q.53-.843 1.515-.843.313 0 .485.078zm5.234 4.453h4.047v.922h-5.188v-8.531h1.141zm5.875.922h-1.078v-6.344h1.078zm-1.172-8.016q0-.265.156-.453.172-.187.485-.187.312 0 .469.187.171.188.171.453 0 .25-.172.438-.156.172-.468.172t-.485-.172q-.156-.188-.156-.438m8.36 4.922q0 1.453-.672 2.344-.657.875-1.782.875-1.203 0-1.859-.86l-.062.735h-.985v-9h1.078v3.36q.656-.813 1.813-.813 1.156 0 1.812.875.656.859.656 2.39zm-1.079-.125q0-1.11-.437-1.703-.422-.61-1.219-.61-1.078 0-1.547.985v2.75q.5 1 1.547 1 .781 0 1.219-.61.437-.609.437-1.812m5.782-2.156q-.25-.031-.532-.031-1.078 0-1.453.906v4.5h-1.078v-6.344h1.047l.016.734q.53-.843 1.515-.843.313 0 .485.078zm4.843 5.375q-.093-.188-.156-.672-.75.797-1.797.797-.937 0-1.547-.531-.593-.532-.593-1.36 0-.984.75-1.531t2.125-.547h1.046v-.5q0-.562-.343-.89-.328-.344-1-.344-.578 0-.969.297-.39.28-.39.703h-1.094q0-.485.328-.922.344-.438.922-.688.578-.265 1.265-.265 1.11 0 1.719.547.625.546.656 1.5v2.921q0 .875.219 1.391v.094zm-1.797-.828q.516 0 .97-.266.452-.266.655-.687v-1.297h-.843q-2 0-2 1.172 0 .5.344.796.343.282.874.282m7.954-4.547q-.25-.031-.532-.031-1.078 0-1.453.906v4.5h-1.078v-6.344h1.047l.016.734q.53-.843 1.515-.843.313 0 .485.078zm2.109 5.375h-1.078v-6.344h1.078zm-1.172-8.016q0-.265.156-.453.172-.187.485-.187.312 0 .469.187.171.188.171.453 0 .25-.172.438-.156.172-.468.172t-.485-.172q-.156-.188-.156-.438m5.625 8.14q-1.297 0-2.11-.843-.796-.86-.796-2.281v-.188q0-.953.36-1.687.359-.75 1-1.156.655-.422 1.405-.422 1.235 0 1.922.812.688.813.688 2.328v.453h-4.297q.031.938.547 1.516.531.578 1.344.578.562 0 .953-.234.406-.235.719-.625l.656.515q-.797 1.235-2.39 1.235m-.14-5.687q-.657 0-1.11.485-.437.468-.531 1.328h3.172v-.078q-.047-.828-.453-1.282-.391-.453-1.079-.453m7.203 3.875q0-.437-.344-.672-.328-.25-1.156-.421-.813-.172-1.297-.422-.485-.25-.719-.578-.219-.344-.219-.813 0-.781.656-1.312.657-.547 1.688-.547 1.078 0 1.734.562.672.547.672 1.406h-1.078q0-.437-.39-.75-.376-.328-.938-.328-.594 0-.937.266-.329.25-.329.656 0 .39.313.594.312.203 1.125.39.812.172 1.312.422t.735.61q.25.36.25.86 0 .859-.688 1.374-.672.516-1.75.516-.765 0-1.36-.266-.577-.281-.905-.765-.329-.485-.329-1.047h1.079q.03.547.437.875.406.312 1.078.312.61 0 .985-.25t.375-.672m-76.313 24.088h-1.125v-8.531h1.125zm1.781 0v-8.531h2.422q1.11 0 1.953.5.86.484 1.328 1.39.47.907.47 2.094v.532q0 1.218-.47 2.125-.453.906-1.328 1.39-.859.485-2 .5zm1.125-7.61v6.688h1.188q1.297 0 2.016-.797.734-.812.734-2.312v-.5q0-1.453-.688-2.25-.672-.813-1.937-.828zm11.703 3.673h-3.703v3.015h4.297v.922h-5.422v-8.531h5.375v.922h-4.25v2.75h3.703zm6.391 3.937h-1.125v-8.531h1.125zm2.64-6.344.032.797q.734-.906 1.906-.906 2.016 0 2.031 2.266v4.187h-1.093v-4.203q0-.672-.313-1-.297-.328-.953-.328-.531 0-.937.281-.391.281-.61.735v4.515h-1.078v-6.344zm7.454-1.53v1.53h1.172v.844h-1.172v3.922q0 .39.156.578t.531.188q.188 0 .516-.063v.875q-.422.125-.828.125-.719 0-1.094-.437-.375-.453-.375-1.266v-3.922h-1.156v-.844h1.156v-1.53zm5.156 8q-1.297 0-2.11-.845-.796-.859-.796-2.28v-.188q0-.953.36-1.688.359-.75 1-1.156.655-.422 1.405-.422 1.235 0 1.922.813.688.812.688 2.328v.453h-4.297q.031.937.547 1.515.531.579 1.344.579.562 0 .953-.235.406-.234.719-.625l.656.516q-.797 1.234-2.39 1.234m-.14-5.688q-.657 0-1.11.484-.437.469-.531 1.328h3.172v-.078q-.047-.828-.453-1.281-.391-.453-1.079-.453m3.25 2.343q0-1.484.687-2.359t1.813-.875q1.156 0 1.812.813l.047-.704h1v6.188q0 1.234-.734 1.937-.735.72-1.954.72-.687 0-1.343-.298-.657-.297-1-.797l.562-.656q.688.86 1.703.86.781 0 1.219-.454.453-.437.453-1.25v-.546q-.656.765-1.781.765-1.11 0-1.797-.89-.687-.907-.687-2.454m1.093.125q0 1.063.438 1.688.437.61 1.234.61 1.016 0 1.5-.938v-2.89q-.5-.907-1.5-.907-.781 0-1.234.61-.438.609-.438 1.827m9.235-2.28q-.25-.032-.532-.032-1.078 0-1.453.906v4.5h-1.078v-6.344h1.047l.016.735q.53-.844 1.515-.844.313 0 .485.078zm4.843 5.374q-.093-.187-.156-.672-.75.797-1.797.797-.937 0-1.547-.531-.593-.531-.593-1.36 0-.984.75-1.53.75-.548 2.125-.548h1.046v-.5q0-.562-.343-.89-.328-.344-1-.344-.578 0-.969.297-.39.281-.39.703h-1.094q0-.484.328-.922.344-.437.922-.687.578-.266 1.265-.266 1.11 0 1.719.547.625.547.656 1.5v2.922q0 .875.219 1.39v.094zm-1.797-.828q.516 0 .97-.266.452-.265.655-.687v-1.297h-.843q-2 0-2 1.172 0 .5.344.797.343.281.874.281m6.36-7.047v1.531h1.172v.844h-1.172v3.922q0 .39.156.578t.531.188q.188 0 .516-.063v.875q-.422.125-.828.125-.719 0-1.094-.437-.375-.453-.375-1.266v-3.922h-1.156v-.844h1.156v-1.53zm3.703 7.875h-1.078v-6.344h1.078zm-1.172-8.015q0-.266.156-.454.172-.187.485-.187.312 0 .469.187.171.188.171.454 0 .25-.172.437-.156.172-.468.172t-.485-.172q-.156-.187-.156-.437m2.703 4.78q0-.921.36-1.671.375-.75 1.03-1.14.657-.407 1.485-.407 1.297 0 2.094.89.813.891.813 2.391v.078q0 .922-.36 1.657-.36.734-1.016 1.156-.656.406-1.515.406-1.281 0-2.094-.89-.797-.907-.797-2.391zm1.094.141q0 1.047.484 1.688.5.64 1.313.64.828 0 1.312-.64.485-.656.485-1.828 0-1.031-.5-1.672-.485-.656-1.313-.656-.797 0-1.297.64-.484.625-.484 1.828m7.219-3.25.031.797q.734-.906 1.906-.906 2.016 0 2.031 2.266v4.187h-1.093v-4.203q0-.672-.313-1-.297-.328-.953-.328-.531 0-.937.281-.391.281-.61.735v4.515h-1.078v-6.344zm-90.578 26.044q-.157 1.343-1 2.093-.844.735-2.235.735-1.515 0-2.422-1.078-.906-1.094-.906-2.922v-.813q0-1.187.422-2.094t1.203-1.39q.781-.485 1.797-.485 1.36 0 2.172.766.828.766.969 2.094h-1.125q-.157-1.016-.641-1.469t-1.375-.453q-1.078 0-1.687.797-.61.797-.61 2.265v.829q0 1.39.578 2.218.578.813 1.625.813.938 0 1.438-.422.5-.438.672-1.484zm1.265-.532q0-.922.36-1.672.375-.75 1.03-1.14.657-.406 1.485-.406 1.297 0 2.094.89.813.89.813 2.39v.079q0 .922-.36 1.656-.36.735-1.016 1.156-.656.407-1.515.407-1.281 0-2.094-.891-.797-.906-.797-2.39zm1.094.14q0 1.048.484 1.688.5.641 1.313.641.828 0 1.312-.64.485-.657.485-1.829 0-1.031-.5-1.672-.485-.656-1.313-.656-.797 0-1.297.64-.484.626-.484 1.829m7.219-3.25.031.704q.688-.812 1.875-.812 1.328 0 1.813 1.015.312-.453.812-.734.516-.281 1.203-.281 2.094 0 2.125 2.203v4.25h-1.078v-4.188q0-.672-.312-1-.313-.344-1.047-.344-.61 0-1.016.36-.39.36-.453.969v4.203h-1.078v-4.157q0-1.375-1.36-1.375-1.062 0-1.453.907v4.625h-1.094v-6.344zm15.328 3.25q0 1.438-.656 2.329-.657.89-1.797.89-1.156 0-1.813-.734v3.047h-1.078v-8.781h.984l.047.703q.672-.812 1.844-.812 1.14 0 1.797.859.672.86.672 2.39zm-1.078-.124q0-1.078-.469-1.688-.453-.625-1.25-.625-.984 0-1.469.86v3.031q.485.875 1.485.875.78 0 1.234-.61.469-.624.469-1.843m3.906 3.219h-1.078v-6.344h1.078zm-1.172-8.016q0-.266.156-.453.172-.188.485-.188.312 0 .469.188.171.187.171.453 0 .25-.172.438-.156.171-.468.171t-.485-.171q-.156-.188-.156-.438m4.172 8.016h-1.078v-9h1.078zm5.734 0q-.093-.188-.156-.672-.75.797-1.797.797-.937 0-1.547-.532-.593-.53-.593-1.359 0-.984.75-1.531t2.125-.547h1.046v-.5q0-.563-.343-.89-.328-.344-1-.344-.578 0-.969.296-.39.282-.39.704h-1.094q0-.485.328-.922.344-.438.922-.688.578-.265 1.265-.265 1.11 0 1.719.546.625.547.656 1.5v2.922q0 .875.219 1.39v.095zm-1.797-.828q.516 0 .97-.266.452-.266.655-.688v-1.296h-.843q-2 0-2 1.171 0 .5.344.797.343.282.874.282m6.36-7.047v1.53h1.172v.845h-1.172v3.922q0 .39.156.578t.531.187q.188 0 .516-.062v.875q-.422.125-.828.125-.719 0-1.094-.438-.375-.453-.375-1.265v-3.922h-1.156v-.844h1.156v-1.531zm3.703 7.875h-1.078v-6.344h1.078zm-1.172-8.016q0-.266.156-.453.172-.188.485-.188.312 0 .469.188.171.187.171.453 0 .25-.172.438-.156.171-.468.171t-.485-.171q-.156-.188-.156-.438m2.703 4.781q0-.922.36-1.672.375-.75 1.03-1.14.657-.406 1.485-.406 1.297 0 2.094.89.813.89.813 2.39v.079q0 .922-.36 1.656-.36.735-1.016 1.156-.656.407-1.515.407-1.281 0-2.094-.891-.797-.906-.797-2.39zm1.094.14q0 1.048.484 1.688.5.641 1.313.641.828 0 1.312-.64.485-.657.485-1.829 0-1.031-.5-1.672-.485-.656-1.313-.656-.797 0-1.297.64-.484.626-.484 1.829m7.219-3.25.031.798q.734-.906 1.906-.906 2.016 0 2.031 2.265v4.188h-1.093v-4.203q0-.672-.313-1-.297-.329-.953-.329-.531 0-.937.282-.391.28-.61.734v4.516h-1.078v-6.344zm15.047-1.265h-2.75v7.61h-1.11v-7.61h-2.75v-.922h6.61zm2.109 7.61h-1.078v-6.344h1.078zm-1.172-8.016q0-.266.156-.453.172-.188.485-.188.312 0 .469.188.171.187.171.453 0 .25-.172.438-.156.171-.468.171t-.485-.171q-.156-.188-.156-.438m4.016 1.672.031.703q.688-.812 1.875-.812 1.328 0 1.813 1.015.312-.453.812-.734.516-.281 1.203-.281 2.094 0 2.125 2.203v4.25h-1.078v-4.188q0-.672-.312-1-.313-.344-1.047-.344-.61 0-1.016.36-.39.36-.453.969v4.203h-1.078v-4.157q0-1.375-1.36-1.375-1.062 0-1.453.907v4.625h-1.094v-6.344zm12.61 6.469q-1.298 0-2.11-.844-.797-.86-.797-2.281v-.188q0-.953.36-1.687.359-.75 1-1.157.655-.421 1.405-.421 1.235 0 1.922.812.688.813.688 2.328v.453h-4.297q.031.938.547 1.516.531.578 1.344.578.562 0 .953-.234.406-.235.719-.625l.656.515q-.797 1.235-2.39 1.235m-.142-5.688q-.656 0-1.109.485-.437.468-.531 1.328h3.172v-.078q-.047-.829-.453-1.282-.391-.453-1.079-.453m7.204 3.875q0-.437-.344-.672-.328-.25-1.156-.422-.813-.171-1.297-.421-.485-.25-.719-.579-.219-.343-.219-.812 0-.781.656-1.313.657-.546 1.688-.546 1.078 0 1.734.562.672.547.672 1.406h-1.078q0-.437-.39-.75-.376-.328-.938-.328-.594 0-.937.266-.329.25-.329.656 0 .39.313.594.312.203 1.125.39.812.172 1.312.422t.735.61q.25.359.25.859 0 .86-.688 1.375-.672.516-1.75.516-.765 0-1.36-.266-.577-.281-.905-.766-.329-.484-.329-1.046h1.079q.03.546.437.875.406.312 1.078.312.61 0 .985-.25t.375-.672m-44.813 21.853h-3.578l-.797 2.234h-1.156l3.25-8.531h.984l3.266 8.531h-1.156zm-3.234-.922h2.906l-1.453-3.984zm10.047 1.469q0-.438-.344-.672-.328-.25-1.156-.422-.813-.172-1.297-.422-.485-.25-.719-.578-.219-.344-.219-.813 0-.78.656-1.312.657-.547 1.688-.547 1.078 0 1.734.563.672.546.672 1.406h-1.078q0-.438-.39-.75-.376-.328-.938-.328-.594 0-.937.265-.329.25-.329.656 0 .391.313.594.312.203 1.125.39.812.173 1.312.423t.735.61q.25.358.25.858 0 .86-.688 1.375-.672.516-1.75.516-.765 0-1.36-.266-.577-.28-.905-.765-.329-.484-.329-1.047h1.079q.03.547.437.875.406.313 1.078.313.61 0 .985-.25t.375-.672m4.375.093 1.484-4.75h1.156l-2.547 7.328q-.593 1.579-1.875 1.579l-.218-.016-.391-.078v-.875l.281.016q.563 0 .86-.22.312-.218.515-.812l.235-.656-2.266-6.266h1.188zm4.953-4.75.031.797q.734-.906 1.906-.906 2.016 0 2.031 2.266v4.187h-1.093v-4.203q0-.672-.313-1-.297-.328-.953-.328-.531 0-.937.281-.391.281-.61.734v4.516h-1.078v-6.344zm8.515 5.578q.578 0 1.016-.343.438-.36.484-.89h1.032q-.032.546-.391 1.046-.344.484-.922.781-.562.297-1.219.297-1.297 0-2.062-.86-.75-.874-.75-2.374v-.188q0-.922.328-1.64.344-.72.969-1.11.64-.406 1.515-.406 1.063 0 1.766.64.719.626.766 1.657h-1.032q-.047-.625-.468-1.016-.422-.39-1.032-.39-.828 0-1.28.593-.454.594-.454 1.72v.202q0 1.094.453 1.688t1.281.594m7.844.766h-1.125v-8.531h1.125zm1.828.734h-.922l3.563-9.265h.922zm11.516-4.718q0 1.25-.422 2.187-.422.922-1.203 1.422-.766.5-1.797.5-1 0-1.781-.5t-1.219-1.406q-.422-.922-.437-2.14v-.61q0-1.234.421-2.172.438-.937 1.22-1.437.78-.516 1.796-.516t1.797.5 1.203 1.437.422 2.188zm-1.11-.563q0-1.515-.609-2.328-.61-.812-1.703-.812-1.078 0-1.687.812-.61.813-.626 2.25v.64q0 1.47.61 2.313.625.828 1.703.828 1.094 0 1.688-.78.609-.798.624-2.282zm-10.14 25.823q-.438.625-1.219.937t-1.812.313-1.844-.485q-.813-.5-1.25-1.406t-.453-2.094v-.734q0-1.938.89-3 .907-1.063 2.532-1.063 1.343 0 2.156.688.812.687 1 1.937h-1.125q-.328-1.687-2.016-1.687-1.14 0-1.719.797-.578.781-.593 2.297v.687q0 1.438.656 2.297.656.844 1.781.844.625 0 1.094-.14.484-.142.797-.485v-1.907h-1.969v-.921h3.094zm7.703-7.407v5.797q-.016 1.203-.766 1.985-.75.765-2.03.859l-.313.016q-1.391 0-2.235-.75-.828-.766-.828-2.094v-5.813h1.11v5.782q0 .921.5 1.437.515.516 1.453.516.968 0 1.468-.516t.5-1.437v-5.782zm3.203 8.532h-1.125v-8.532h1.125zm-37.906 21.276q-.438.625-1.219.938t-1.812.312-1.844-.484q-.813-.5-1.25-1.407-.438-.906-.453-2.093v-.735q0-1.937.89-3 .907-1.062 2.532-1.062 1.343 0 2.156.687.812.688 1 1.938h-1.125q-.328-1.688-2.016-1.688-1.14 0-1.719.797-.578.781-.593 2.297v.688q0 1.437.656 2.296.656.844 1.781.844.625 0 1.094-.14.484-.141.797-.485v-1.906h-1.969v-.922h3.094zm4.156 1.25q-1.297 0-2.11-.844-.796-.86-.796-2.281v-.187q0-.954.36-1.688.359-.75 1-1.156.655-.422 1.405-.422 1.235 0 1.922.812.688.813.688 2.329v.453h-4.297q.031.937.547 1.515.531.578 1.344.578.562 0 .953-.234.406-.234.719-.625l.656.516q-.797 1.234-2.39 1.234m-.14-5.687q-.657 0-1.11.484-.437.469-.531 1.328h3.172v-.078q-.047-.828-.453-1.281-.391-.453-1.079-.453m4.53-.782.032.797q.734-.906 1.906-.906 2.016 0 2.031 2.266v4.187h-1.093v-4.203q0-.672-.313-1-.297-.328-.953-.328-.531 0-.937.281-.391.281-.61.734v4.516h-1.078v-6.344zm8.61 6.469q-1.297 0-2.11-.844-.796-.86-.796-2.281v-.187q0-.954.36-1.688.359-.75 1-1.156.655-.422 1.405-.422 1.235 0 1.922.812.688.813.688 2.329v.453h-4.297q.031.937.547 1.515.531.578 1.344.578.562 0 .953-.234.406-.234.719-.625l.656.516q-.797 1.234-2.39 1.234m-.14-5.687q-.657 0-1.11.484-.437.469-.531 1.328h3.172v-.078q-.047-.828-.453-1.281-.391-.453-1.079-.453m6.578.187q-.25-.031-.532-.031-1.078 0-1.453.906v4.5h-1.078v-6.344h1.047l.016.735q.53-.844 1.515-.844.313 0 .485.078zm2.109 5.375h-1.078v-6.344h1.078zm-1.172-8.016q0-.265.156-.453.172-.187.485-.187.312 0 .469.187.171.188.171.453 0 .25-.172.438-.156.172-.468.172t-.485-.172q-.156-.188-.156-.438m5.531 7.25q.578 0 1.016-.343.438-.36.484-.891h1.032q-.032.547-.391 1.047-.344.484-.922.781-.562.297-1.219.297-1.297 0-2.062-.86-.75-.874-.75-2.374v-.188q0-.922.328-1.64.344-.72.969-1.11.64-.406 1.515-.406 1.063 0 1.766.64.719.626.766 1.657h-1.032q-.047-.625-.468-1.016-.422-.39-1.032-.39-.828 0-1.28.593-.454.594-.454 1.719v.203q0 1.094.453 1.688t1.281.593m7.157-.921q0-.438-.344-.672-.328-.25-1.156-.422-.813-.172-1.297-.422-.485-.25-.719-.578-.219-.344-.219-.813 0-.781.656-1.312.657-.547 1.688-.547 1.078 0 1.734.562.672.547.672 1.407h-1.078q0-.438-.39-.75-.376-.328-.938-.328-.594 0-.937.265-.329.25-.329.656 0 .391.313.594.312.203 1.125.39.812.173 1.312.423t.735.609q.25.36.25.86 0 .859-.688 1.374-.672.516-1.75.516-.765 0-1.36-.266-.577-.28-.905-.765t-.329-1.047h1.079q.03.547.437.875.406.312 1.078.312.61 0 .985-.25t.375-.671M114.1 269.968q-1.437-.422-2.11-1.032-.656-.609-.656-1.5 0-1 .797-1.656.813-.672 2.11-.672.875 0 1.562.344t1.063.938q.39.593.39 1.312h-1.14q0-.781-.5-1.219-.485-.437-1.375-.437-.829 0-1.297.375-.469.36-.469 1 0 .531.438.89.453.36 1.515.657 1.063.296 1.656.656.61.36.891.844.297.484.297 1.125 0 1.046-.813 1.671t-2.156.625q-.89 0-1.656-.343-.75-.344-1.172-.922-.406-.594-.406-1.328h1.125q0 .765.578 1.219.578.453 1.531.453.89 0 1.36-.36.468-.375.468-1t-.437-.969-1.594-.671m5.797-4.079v1.532h1.172v.844h-1.172v3.921q0 .391.156.579t.531.187q.188 0 .516-.062v.875q-.422.125-.828.125-.719 0-1.094-.438-.375-.453-.375-1.266v-3.921h-1.156v-.844h1.156v-1.531zm6.437 7.875q-.093-.187-.156-.671-.75.796-1.797.796-.937 0-1.547-.53-.593-.532-.593-1.36 0-.985.75-1.531.75-.547 2.125-.547h1.046v-.5q0-.563-.343-.89-.328-.345-1-.345-.578 0-.969.297-.39.281-.39.703h-1.094q0-.484.328-.921.343-.438.922-.688.578-.266 1.265-.266 1.11 0 1.719.547.625.547.656 1.5v2.922q0 .875.219 1.39v.094zm-1.797-.828q.516 0 .97-.265.452-.266.655-.688v-1.297h-.843q-2 0-2 1.172 0 .5.343.797.344.281.875.281m10.25-2.265q0 1.453-.671 2.344-.657.875-1.782.875-1.203 0-1.859-.86l-.062.735h-.985v-9h1.078v3.359q.656-.813 1.813-.813 1.156 0 1.812.875.656.86.656 2.391zm-1.078-.125q0-1.11-.437-1.703-.422-.61-1.219-.61-1.078 0-1.547.985v2.75q.5 1 1.547 1 .781 0 1.219-.61.437-.61.437-1.812m3.891 3.219h-1.078v-6.344h1.078zm-1.172-8.016q0-.266.156-.453.172-.188.485-.188.312 0 .469.188.171.187.171.453 0 .25-.172.437-.156.172-.468.172t-.485-.172q-.156-.187-.156-.437m4.172 8.015h-1.078v-9h1.078zm3 0h-1.078v-6.343h1.078zm-1.172-8.015q0-.266.156-.453.172-.188.485-.188.312 0 .469.188.171.187.171.453 0 .25-.172.437-.156.172-.468.172t-.485-.172q-.156-.187-.156-.437m4.016 7.125h3.703v.89h-5.031v-.796l3.5-4.641h-3.454v-.906h4.813v.765zm8.89.89q-.093-.187-.156-.671-.75.796-1.797.796-.937 0-1.547-.53-.593-.532-.593-1.36 0-.985.75-1.531.75-.547 2.125-.547h1.046v-.5q0-.563-.343-.89-.328-.345-1-.345-.578 0-.969.297-.39.281-.39.703h-1.094q0-.484.328-.921.344-.438.922-.688.578-.266 1.265-.266 1.11 0 1.719.547.625.547.656 1.5v2.922q0 .875.219 1.39v.094zm-1.797-.828q.516 0 .97-.265.452-.266.655-.688v-1.297h-.843q-2 0-2 1.172 0 .5.344.797.343.281.874.281m6.36-7.046v1.53h1.172v.844h-1.172v3.922q0 .391.156.579t.531.187q.188 0 .516-.062v.875q-.422.125-.828.125-.719 0-1.094-.438-.375-.453-.375-1.266v-3.921h-1.156v-.844h1.156v-1.531zm3.703 7.875h-1.078v-6.344h1.078zm-1.172-8.016q0-.266.156-.453.172-.188.485-.188.312 0 .469.188.171.187.171.453 0 .25-.172.437-.156.172-.468.172t-.485-.172q-.156-.187-.156-.437m2.703 4.781q0-.922.36-1.672.375-.75 1.03-1.14.657-.407 1.485-.407 1.297 0 2.094.891.813.89.813 2.39v.079q0 .922-.36 1.656t-1.016 1.156q-.656.406-1.515.406-1.281 0-2.094-.89-.797-.906-.797-2.39zm1.094.14q0 1.048.484 1.688.5.64 1.313.64.828 0 1.312-.64.485-.656.485-1.828 0-1.031-.5-1.672-.485-.656-1.313-.656-.797 0-1.297.64-.484.626-.484 1.829m7.219-3.25.031.798q.734-.907 1.906-.907 2.016 0 2.031 2.266v4.188h-1.093v-4.204q0-.671-.313-1-.297-.328-.953-.328-.531 0-.937.281-.391.282-.61.735v4.515h-1.078v-6.343zm8.687 3.11q0-.922.36-1.672.375-.75 1.03-1.14.657-.407 1.485-.407 1.297 0 2.094.891.813.89.813 2.39v.079q0 .922-.36 1.656t-1.016 1.156q-.656.406-1.515.406-1.281 0-2.094-.89-.797-.906-.797-2.39zm1.094.14q0 1.048.484 1.688.5.64 1.313.64.828 0 1.312-.64.485-.656.485-1.828 0-1.031-.5-1.672-.485-.656-1.313-.656-.797 0-1.297.64-.484.626-.484 1.829m6.734 3.094v-5.5h-1v-.843h1v-.64q0-1.032.532-1.579.546-.562 1.546-.562.375 0 .75.093l-.062.89q-.281-.062-.578-.062-.531 0-.828.313-.281.312-.281.875v.672h1.359v.844h-1.36v5.5zm12.907-2.703q-.157 1.344-1 2.094-.844.735-2.235.735-1.515 0-2.422-1.079-.906-1.093-.906-2.921v-.813q0-1.187.422-2.094t1.203-1.39q.781-.485 1.797-.485 1.36 0 2.172.766.828.765.969 2.094h-1.125q-.157-1.016-.641-1.47-.484-.452-1.375-.452-1.078 0-1.687.797-.61.796-.61 2.265v.828q0 1.391.578 2.22.578.812 1.625.812.938 0 1.438-.422.5-.438.672-1.485zm4.625-2.671q-.25-.032-.532-.032-1.078 0-1.453.906v4.5h-1.078v-6.343h1.047l.016.734q.53-.844 1.515-.844.313 0 .485.079zm4.843 5.375q-.093-.188-.156-.672-.75.796-1.797.796-.937 0-1.547-.53-.593-.532-.593-1.36 0-.985.75-1.531.75-.547 2.125-.547h1.046v-.5q0-.563-.343-.89-.328-.345-1-.345-.578 0-.969.297-.39.281-.39.703h-1.094q0-.484.328-.921.344-.438.922-.688.578-.266 1.265-.266 1.11 0 1.719.547.625.547.656 1.5v2.922q0 .875.219 1.39v.094zm-1.797-.829q.516 0 .97-.265.452-.266.655-.688v-1.297h-.843q-2 0-2 1.172 0 .5.344.797.343.281.874.281m6.36-7.046v1.53h1.172v.844h-1.172v3.922q0 .391.156.579t.531.187q.188 0 .516-.062v.875q-.422.125-.828.125-.719 0-1.094-.438-.375-.453-.375-1.266v-3.921h-1.156v-.844h1.156v-1.531zm5.156 8q-1.297 0-2.11-.844-.796-.86-.796-2.281v-.188q0-.953.36-1.687.359-.75 1-1.157.655-.422 1.405-.422 1.235 0 1.922.813.688.812.688 2.328v.453h-4.297q.031.938.547 1.516.531.578 1.344.578.562 0 .953-.235.406-.234.719-.625l.656.516q-.797 1.235-2.39 1.235m-.14-5.688q-.657 0-1.11.484-.437.47-.531 1.329h3.172v-.079q-.047-.828-.453-1.28-.391-.454-1.079-.454m7.203 3.875q0-.437-.344-.672-.328-.25-1.156-.422-.813-.172-1.297-.422-.485-.25-.719-.578-.219-.344-.219-.812 0-.781.656-1.313.657-.547 1.688-.547 1.078 0 1.734.563.672.547.672 1.406h-1.078q0-.437-.39-.75-.376-.328-.938-.328-.594 0-.937.266-.329.25-.329.656 0 .39.313.594.312.203 1.125.39.812.172 1.312.422t.735.61q.25.359.25.859 0 .86-.688 1.375-.672.515-1.75.515-.765 0-1.36-.265-.577-.281-.905-.766-.329-.484-.329-1.047h1.079q.03.547.437.875.406.313 1.078.313.61 0 .985-.25t.375-.672M80.428 293.478l.172 1.125.234-1.015 1.688-5.953h.953l1.64 5.953.235 1.031.188-1.156 1.328-5.828h1.125l-2.063 8.531h-1.031l-1.766-6.219-.125-.656-.14.656-1.813 6.219h-1.031l-2.063-8.531h1.125zm11.625 2.813q-1.297 0-2.11-.844-.796-.86-.796-2.281v-.188q0-.953.36-1.687.359-.75 1-1.156.655-.422 1.405-.422 1.235 0 1.922.812.688.813.688 2.328v.454h-4.297q.031.937.547 1.515.531.578 1.344.578.562 0 .953-.234.406-.234.718-.625l.657.516q-.797 1.234-2.39 1.234m-.14-5.688q-.657 0-1.11.485-.437.469-.531 1.328h3.172v-.078q-.047-.828-.453-1.281-.391-.454-1.079-.454m8.874 2.47q0 1.452-.671 2.343-.657.875-1.782.875-1.203 0-1.859-.86l-.062.735h-.985v-9h1.078v3.36q.656-.813 1.813-.813 1.156 0 1.812.875.656.86.656 2.39zm-1.078-.126q0-1.11-.437-1.703-.422-.61-1.219-.61-1.078 0-1.547.985v2.75q.5 1 1.547 1 .781 0 1.219-.61.437-.609.437-1.812m5.672-.25q0-1.312.344-2.531.36-1.219 1.063-2.219t1.468-1.406l.219.719q-.86.656-1.406 2-.547 1.343-.594 3.015l-.016.5q0 2.266.828 3.922.5 1 1.188 1.563l-.219.656q-.781-.422-1.5-1.453-1.375-1.985-1.375-4.766m7.735 1.781q0-.437-.344-.671-.328-.25-1.156-.422-.813-.172-1.297-.422-.485-.25-.719-.578-.219-.344-.219-.813 0-.781.656-1.312.657-.547 1.688-.547 1.078 0 1.734.562.672.547.672 1.407h-1.078q0-.438-.39-.75-.376-.329-.938-.329-.594 0-.937.266-.329.25-.329.656 0 .391.313.594.312.203 1.125.39.812.173 1.312.423t.735.609q.25.36.25.86 0 .859-.688 1.374-.672.516-1.75.516-.765 0-1.36-.266-.577-.28-.905-.765t-.329-1.047h1.079q.03.547.437.875.406.312 1.078.312.61 0 .985-.25t.375-.672m6.218 1.063q-.625.75-1.859.75-1.016 0-1.547-.594t-.531-1.75v-4.125h1.078v4.094q0 1.453 1.172 1.453 1.25 0 1.656-.937v-4.61h1.094v6.344h-1.031zm8.438-2.469q0 1.438-.656 2.328-.657.891-1.797.891-1.157 0-1.813-.734v3.046h-1.078v-8.78h.984l.047.702q.672-.812 1.844-.812 1.14 0 1.797.86.672.859.672 2.39zm-1.078-.125q0-1.078-.469-1.687-.453-.625-1.25-.625-.984 0-1.469.86v3.03q.485.875 1.485.875.78 0 1.234-.609.469-.625.469-1.844m8.078.125q0 1.438-.656 2.328-.657.891-1.797.891-1.156 0-1.813-.734v3.046h-1.078v-8.78h.984l.047.702q.672-.812 1.844-.812 1.14 0 1.797.86.672.859.672 2.39zm-1.078-.125q0-1.078-.469-1.687-.453-.625-1.25-.625-.984 0-1.469.86v3.03q.485.875 1.485.875.78 0 1.234-.609.469-.625.469-1.844m2.437-.015q0-.922.36-1.672.375-.75 1.03-1.14.657-.407 1.485-.407 1.297 0 2.094.89.813.891.813 2.391v.078q0 .922-.36 1.656-.36.735-1.016 1.157-.656.406-1.515.406-1.281 0-2.094-.89-.797-.907-.797-2.391zm1.094.14q0 1.047.484 1.688.5.64 1.313.64.828 0 1.312-.64.485-.657.485-1.828 0-1.032-.5-1.672-.485-.657-1.313-.657-.797 0-1.297.641-.484.625-.484 1.828m9.266-2.281q-.25-.031-.532-.031-1.078 0-1.453.906v4.5h-1.078v-6.344h1.047l.016.735q.53-.844 1.515-.844.313 0 .485.078zm2.406-2.5v1.531h1.172v.844h-1.172v3.922q0 .39.156.578t.531.187q.188 0 .516-.062v.875q-.422.125-.828.125-.719 0-1.094-.438-.375-.453-.375-1.265v-3.922h-1.156v-.844h1.156v-1.531zm6.062 7.875v-5.5h-1v-.844h1v-.64q0-1.032.532-1.579.546-.562 1.546-.562.375 0 .75.094l-.062.89q-.281-.062-.578-.062-.531 0-.828.312-.281.313-.281.875v.672h1.359v.844h-1.36v5.5zm3.172-3.234q0-.922.36-1.672.375-.75 1.03-1.14.657-.407 1.485-.407 1.297 0 2.094.89.813.891.813 2.391v.078q0 .922-.36 1.656-.36.735-1.016 1.157-.656.406-1.515.406-1.281 0-2.094-.89-.797-.907-.797-2.391zm1.094.14q0 1.047.484 1.688.5.64 1.313.64.828 0 1.312-.64.485-.657.485-1.828 0-1.032-.5-1.672-.485-.657-1.313-.657-.797 0-1.297.641-.484.625-.484 1.828m9.266-2.281q-.25-.031-.532-.031-1.078 0-1.453.906v4.5h-1.078v-6.344h1.047l.016.735q.53-.844 1.515-.844.313 0 .485.078zm4.14 6.11h-.922l3.563-9.266h.922zm8.328-.735v-5.5h-1v-.844h1v-.64q0-1.032.532-1.579.546-.562 1.546-.562.375 0 .75.094l-.062.89q-.281-.062-.578-.062-.531 0-.828.312-.281.313-.281.875v.672h1.359v.844h-1.36v5.5zm3.172-3.234q0-.922.36-1.672.375-.75 1.03-1.14.657-.407 1.485-.407 1.297 0 2.094.89.813.891.813 2.391v.078q0 .922-.36 1.656-.36.735-1.016 1.157-.656.406-1.515.406-1.281 0-2.094-.89-.797-.907-.797-2.391zm1.094.14q0 1.047.484 1.688.5.64 1.313.64.828 0 1.312-.64.485-.657.485-1.828 0-1.032-.5-1.672-.485-.657-1.313-.657-.797 0-1.297.641-.484.625-.484 1.828m8.734 2.328q.578 0 1.016-.343.438-.36.484-.891h1.032q-.032.547-.391 1.047-.344.484-.922.781-.562.297-1.219.297-1.297 0-2.062-.86-.75-.874-.75-2.374v-.188q0-.922.328-1.64.344-.72.969-1.11.64-.406 1.515-.406 1.063 0 1.766.64.719.625.766 1.657h-1.032q-.047-.625-.468-1.016-.422-.39-1.032-.39-.828 0-1.28.593-.454.594-.454 1.719v.203q0 1.094.453 1.688t1.281.593m7.375.141q-.625.75-1.859.75-1.016 0-1.547-.594t-.531-1.75v-4.125h1.078v4.094q0 1.453 1.172 1.453 1.25 0 1.656-.937v-4.61h1.094v6.344h-1.031zm6.782-1.063q0-.437-.344-.671-.328-.25-1.156-.422-.813-.172-1.297-.422-.485-.25-.719-.578-.219-.344-.219-.813 0-.781.656-1.312.657-.547 1.688-.547 1.078 0 1.734.562.672.547.672 1.407h-1.078q0-.438-.39-.75-.376-.329-.938-.329-.594 0-.937.266-.329.25-.329.656 0 .391.313.594.312.203 1.125.39.812.173 1.312.423t.735.609q.25.36.25.86 0 .859-.688 1.374-.672.516-1.75.516-.765 0-1.36-.266-.577-.28-.905-.765t-.329-1.047h1.079q.03.547.437.875.406.312 1.078.312.61 0 .985-.25t.375-.672m5.015-1.546q0-.922.36-1.672.375-.75 1.03-1.14.657-.407 1.485-.407 1.297 0 2.094.89.813.891.813 2.391v.078q0 .922-.36 1.656-.36.735-1.016 1.157-.656.406-1.515.406-1.281 0-2.094-.89-.797-.907-.797-2.391zm1.094.14q0 1.047.484 1.688.5.64 1.313.64.828 0 1.312-.64.485-.657.485-1.828 0-1.032-.5-1.672-.485-.657-1.313-.657-.797 0-1.297.641-.484.625-.484 1.828m7.219-3.25.031.797q.734-.906 1.906-.906 2.016 0 2.031 2.265v4.188h-1.093v-4.203q0-.672-.313-1-.297-.328-.953-.328-.531 0-.937.281-.391.281-.61.734v4.516h-1.078v-6.344zm8.484 2.938q0 1.312-.344 2.515-.343 1.188-1.062 2.203-.703 1.016-1.469 1.438l-.234-.656q.906-.688 1.453-2.14.547-1.47.562-3.235v-.188q0-1.234-.265-2.297-.25-1.062-.719-1.89-.453-.844-1.031-1.313l.234-.656q.766.422 1.469 1.422t1.047 2.219q.36 1.203.36 2.578m-80.345 25.807v-8.53h2.797q1.39 0 2.078.577.703.563.703 1.688 0 .61-.343 1.078-.328.453-.922.703.703.188 1.094.734.406.532.406 1.282 0 1.156-.75 1.812-.734.656-2.094.656zm1.125-3.984v3.063h1.86q.797 0 1.25-.407t.453-1.125q0-1.531-1.688-1.531zm0-.906h1.703q.735 0 1.172-.36.453-.375.453-1.015 0-.703-.406-1.016-.406-.328-1.25-.328h-1.672zm5.422 1.656q0-.922.36-1.672.375-.75 1.03-1.14.657-.407 1.485-.407 1.297 0 2.094.89.813.892.813 2.392v.078q0 .922-.36 1.656t-1.016 1.156q-.656.406-1.515.406-1.281 0-2.094-.89-.797-.906-.797-2.39zm1.094.14q0 1.048.484 1.688.5.64 1.313.64.828 0 1.312-.64.485-.656.485-1.828 0-1.031-.5-1.672-.485-.656-1.313-.656-.797 0-1.297.64-.484.626-.484 1.829m9.266-2.28q-.25-.032-.532-.032-1.078 0-1.453.906v4.5h-1.078v-6.343h1.047l.016.734q.53-.844 1.515-.844.313 0 .485.078zm4 0q-.25-.032-.532-.032-1.078 0-1.453.906v4.5h-1.078v-6.343h1.047l.016.734q.53-.844 1.515-.844.313 0 .485.078zm.64 2.14q0-.922.36-1.672.375-.75 1.03-1.14.657-.407 1.485-.407 1.297 0 2.094.89.813.892.813 2.392v.078q0 .922-.36 1.656t-1.016 1.156q-.656.406-1.515.406-1.281 0-2.094-.89-.797-.906-.797-2.39zm1.094.14q0 1.048.484 1.688.5.64 1.313.64.828 0 1.312-.64.485-.656.485-1.828 0-1.031-.5-1.672-.485-.656-1.313-.656-.797 0-1.297.64-.484.626-.484 1.829m11.813 1.594 1.218-4.843h1.078l-1.843 6.343h-.875l-1.547-4.812-1.5 4.812h-.875l-1.844-6.343h1.078l1.25 4.75 1.484-4.75h.86zm8.921.735q.578 0 1.016-.344.438-.36.484-.89h1.032q-.032.546-.391 1.046-.344.485-.922.782-.562.296-1.219.296-1.297 0-2.062-.859-.75-.875-.75-2.375v-.187q0-.922.328-1.641.344-.719.969-1.11.64-.406 1.515-.406 1.063 0 1.766.64.719.626.766 1.657h-1.032q-.047-.625-.468-1.015-.422-.391-1.032-.391-.828 0-1.28.594-.454.593-.454 1.718v.204q0 1.093.453 1.687t1.281.594m4.547-4.813q.719-.875 1.875-.875 2.016 0 2.031 2.266v4.187h-1.093v-4.203q0-.672-.313-1-.297-.328-.953-.328-.531 0-.937.281-.391.282-.61.735v4.515h-1.078v-9h1.078zm8.547 5.703q-1.297 0-2.11-.843-.796-.86-.796-2.282v-.187q0-.953.36-1.688.359-.75 1-1.156.655-.422 1.405-.422 1.235 0 1.922.813.688.812.688 2.328v.453h-4.297q.031.938.547 1.516.531.578 1.344.578.562 0 .953-.235.406-.234.719-.625l.656.516q-.797 1.234-2.39 1.234m-.14-5.687q-.657 0-1.11.484-.437.469-.531 1.328h3.172v-.078q-.047-.828-.453-1.281-.391-.453-1.079-.453m6.046 4.797q.578 0 1.016-.344.438-.36.484-.89h1.032q-.032.546-.391 1.046-.344.485-.922.782-.562.296-1.219.296-1.297 0-2.062-.859-.75-.875-.75-2.375v-.187q0-.922.328-1.641.344-.719.969-1.11.64-.406 1.515-.406 1.063 0 1.766.64.719.626.766 1.657h-1.032q-.047-.625-.468-1.015-.422-.391-1.032-.391-.828 0-1.28.594-.454.593-.454 1.718v.204q0 1.093.453 1.687t1.281.594m5.235-2.172-.688.703v2.234h-1.078v-9h1.078v5.438l.578-.688 1.985-2.093h1.312l-2.469 2.656 2.766 3.687h-1.281zm6.86 3.062q-1.298 0-2.11-.843-.797-.86-.797-2.282v-.187q0-.953.36-1.688.359-.75 1-1.156.655-.422 1.405-.422 1.235 0 1.922.813.688.812.688 2.328v.453h-4.297q.031.938.547 1.516.531.578 1.344.578.562 0 .953-.235.406-.234.719-.625l.656.516q-.797 1.234-2.39 1.234m-.142-5.687q-.656 0-1.109.484-.437.469-.531 1.328h3.172v-.078q-.047-.828-.453-1.281-.391-.453-1.079-.453m6.579.187q-.25-.03-.532-.03-1.078 0-1.453.905v4.5h-1.078v-6.343h1.047l.016.734q.53-.844 1.515-.844.313 0 .485.078zm-53.625 25.072q-.157 1.343-1 2.093-.844.735-2.235.735-1.515 0-2.422-1.078-.906-1.094-.906-2.922v-.813q0-1.187.422-2.093.422-.907 1.203-1.391t1.797-.484q1.36 0 2.172.765.828.766.969 2.094h-1.125q-.157-1.016-.641-1.469t-1.375-.453q-1.078 0-1.687.797-.61.797-.61 2.266v.828q0 1.39.578 2.218.578.813 1.625.813.938 0 1.438-.422.5-.437.672-1.484zm1.265-.532q0-.921.36-1.671.375-.75 1.03-1.141.657-.406 1.485-.406 1.297 0 2.094.89.813.891.813 2.391v.078q0 .922-.36 1.656-.36.735-1.016 1.157-.656.406-1.515.406-1.281 0-2.094-.89-.797-.907-.797-2.391zm1.094.141q0 1.047.484 1.688.5.64 1.313.64.828 0 1.312-.64.485-.657.485-1.829 0-1.03-.5-1.671-.485-.657-1.313-.657-.797 0-1.297.641-.484.625-.484 1.828m7.219-3.25.031.703q.688-.812 1.875-.812 1.328 0 1.813 1.015.312-.453.812-.734.516-.281 1.203-.281 2.094 0 2.125 2.203v4.25h-1.078v-4.188q0-.672-.312-1-.313-.343-1.047-.343-.61 0-1.016.359-.39.36-.453.969v4.203h-1.078v-4.156q0-1.375-1.36-1.375-1.062 0-1.453.906v4.625h-1.094v-6.344zm15.328 3.25q0 1.438-.656 2.328-.657.89-1.797.89-1.156 0-1.813-.734v3.047h-1.078v-8.78h.984l.047.702q.672-.812 1.844-.812 1.14 0 1.797.86.672.858.672 2.39zm-1.078-.125q0-1.078-.469-1.687-.453-.625-1.25-.625-.984 0-1.469.859v3.031q.485.875 1.485.875.78 0 1.234-.61.469-.624.469-1.843m3.906 3.219h-1.078v-9h1.078zm4.453.125q-1.297 0-2.11-.844-.796-.86-.796-2.281v-.188q0-.953.36-1.687.359-.75 1-1.156.655-.422 1.405-.422 1.235 0 1.922.812.688.813.688 2.328v.453h-4.297q.031.938.547 1.516.531.578 1.344.578.562 0 .953-.234.406-.235.719-.625l.656.515q-.797 1.235-2.39 1.235m-.14-5.688q-.657 0-1.11.485-.437.468-.531 1.328h3.172v-.078q-.047-.828-.453-1.282-.391-.453-1.079-.453m5.64 1.532 1.406-2.313h1.266l-2.078 3.14 2.14 3.204h-1.25l-1.468-2.375-1.469 2.375h-1.266l2.141-3.203-2.062-3.14h1.25zm5.047 4.03h-1.078v-6.343h1.078zm-1.172-8.015q0-.265.156-.453.172-.187.485-.187.312 0 .469.187.171.188.171.453 0 .25-.172.438-.156.172-.468.172t-.485-.172q-.156-.188-.156-.438m4.469.14v1.532h1.172v.844h-1.172v3.922q0 .39.156.578t.531.187q.188 0 .516-.062v.875q-.422.125-.828.125-.719 0-1.094-.438-.375-.453-.375-1.265v-3.922h-1.156v-.844h1.156v-1.531zm4.594 6.282 1.484-4.75h1.156l-2.547 7.328q-.593 1.578-1.875 1.578l-.218-.015-.391-.078v-.875l.281.015q.563 0 .86-.219.312-.218.515-.812l.235-.656-2.266-6.266h1.188zm-12.594 22.87q-.438.625-1.219.938t-1.812.312-1.844-.484q-.813-.5-1.25-1.406-.438-.907-.453-2.094v-.734q0-1.938.89-3 .907-1.063 2.532-1.063 1.343 0 2.156.688.812.687 1 1.937h-1.125q-.328-1.687-2.016-1.687-1.14 0-1.719.796-.578.782-.593 2.297v.688q0 1.437.656 2.297.656.843 1.781.843.625 0 1.094-.14.484-.14.797-.485v-1.906h-1.969v-.922h3.094zm6.406-1.11h-3.578l-.797 2.235h-1.156l3.25-8.531h.984l3.266 8.531h-1.156zm-3.234-.921h2.906l-1.453-3.984zm12.422-4.453h-2.75v7.61h-1.11v-7.61h-2.75v-.922h6.61zm-34.001 22.401h-2.75v7.61h-1.109v-7.61h-2.75v-.921h6.61zm.641 4.375q0-.921.36-1.671.375-.75 1.03-1.141.657-.406 1.485-.406 1.297 0 2.094.89.813.89.813 2.39v.079q0 .922-.36 1.656-.36.735-1.016 1.156-.656.407-1.515.407-1.281 0-2.094-.89-.797-.907-.797-2.392zm1.094.141q0 1.047.484 1.688.5.64 1.313.64.828 0 1.312-.64.485-.657.485-1.829 0-1.03-.5-1.671-.485-.657-1.313-.657-.797 0-1.297.64-.484.626-.484 1.829m5.906-.14q0-.923.36-1.673.375-.75 1.03-1.14.657-.406 1.485-.406 1.297 0 2.094.89.813.89.813 2.39v.079q0 .922-.36 1.656-.36.735-1.016 1.156-.656.407-1.515.407-1.281 0-2.094-.89-.797-.907-.797-2.392zm1.094.14q0 1.047.484 1.688.5.64 1.313.64.828 0 1.312-.64.485-.657.485-1.829 0-1.03-.5-1.671-.485-.657-1.313-.657-.797 0-1.297.64-.484.626-.484 1.829m7.375 3.094h-1.078v-9h1.078zm3 0h-1.078v-6.344h1.078zm-1.172-8.016q0-.265.156-.453.172-.187.485-.187.312 0 .469.187.171.188.171.453 0 .25-.172.438-.156.171-.468.171t-.485-.171q-.156-.188-.156-.438m4.016 1.672.031.797q.734-.906 1.906-.906 2.016 0 2.031 2.265v4.188h-1.093v-4.203q0-.672-.313-1-.297-.329-.953-.329-.531 0-.937.282-.391.281-.61.734v4.516h-1.078v-6.344zm5.719 3.125q0-1.484.687-2.36.688-.874 1.813-.874 1.156 0 1.812.812l.047-.703h1v6.188q0 1.234-.734 1.937-.735.719-1.954.719-.687 0-1.343-.297-.657-.297-1-.797l.562-.656q.688.86 1.703.86.781 0 1.219-.454.453-.437.453-1.25v-.547q-.656.766-1.781.766-1.11 0-1.797-.89-.687-.907-.687-2.454m1.093.125q0 1.063.438 1.688.437.609 1.234.609 1.016 0 1.5-.938v-2.89q-.5-.906-1.5-.906-.781 0-1.234.609-.438.61-.438 1.828m-30.453 25.495h-1.125v-8.531h1.125zm2.64-6.344.032.797q.734-.906 1.906-.906 2.016 0 2.031 2.266v4.187h-1.093v-4.203q0-.672-.313-1-.297-.328-.953-.328-.531 0-.937.281-.391.281-.61.735v4.515h-1.078v-6.344zm7.454-1.53v1.53h1.172v.844h-1.172v3.922q0 .39.156.578t.531.188q.188 0 .516-.063v.875q-.422.125-.828.125-.719 0-1.094-.437-.375-.453-.375-1.266v-3.922h-1.156v-.844h1.156v-1.53zm5.156 8q-1.297 0-2.11-.845-.796-.859-.796-2.28v-.188q0-.953.36-1.688.359-.75 1-1.156.655-.422 1.405-.422 1.235 0 1.922.813.688.812.688 2.328v.453h-4.297q.031.937.547 1.515.531.579 1.344.579.562 0 .953-.235.406-.234.719-.625l.656.516q-.797 1.234-2.39 1.234m-.14-5.688q-.657 0-1.11.484-.437.469-.531 1.328h3.172v-.078q-.047-.828-.453-1.281-.391-.453-1.079-.453m6.578.187q-.25-.031-.532-.031-1.078 0-1.453.906v4.5h-1.078v-6.344h1.047l.016.735q.53-.844 1.515-.844.313 0 .485.078zm.64 2.14q0-.921.36-1.671.375-.75 1.03-1.14.657-.407 1.485-.407 1.297 0 2.094.89.813.891.813 2.391v.078q0 .922-.36 1.657-.36.734-1.016 1.156-.656.406-1.515.406-1.281 0-2.094-.89-.797-.907-.797-2.391zm1.094.141q0 1.047.484 1.688.5.64 1.313.64.828 0 1.312-.64.485-.656.485-1.828 0-1.031-.5-1.672-.485-.656-1.313-.656-.797 0-1.297.64-.484.625-.484 1.828m11.547 0q0 1.438-.656 2.329-.657.89-1.797.89-1.156 0-1.813-.734v3.047h-1.078v-8.782h.984l.047.704q.672-.813 1.844-.813 1.14 0 1.797.86.672.859.672 2.39zm-1.078-.125q0-1.078-.469-1.687-.453-.625-1.25-.625-.984 0-1.469.86v3.03q.485.876 1.485.876.78 0 1.234-.61.469-.625.469-1.844m-22.204 18.012h-2.75v7.61h-1.109v-7.61h-2.75v-.922h6.61zm4 2.235q-.25-.032-.53-.032-1.079 0-1.454.907v4.5h-1.078v-6.344h1.047l.016.734q.53-.843 1.515-.843.313 0 .485.078zm4.844 5.375q-.093-.188-.156-.672-.75.797-1.797.797-.937 0-1.547-.532-.593-.53-.593-1.359 0-.984.75-1.531t2.125-.547h1.046v-.5q0-.563-.343-.89-.328-.344-1-.344-.578 0-.969.296-.39.282-.39.704h-1.094q0-.485.328-.922.344-.438.922-.688.578-.265 1.265-.265 1.11 0 1.719.546.625.547.656 1.5v2.922q0 .875.219 1.39v.095zm-1.797-.828q.516 0 .97-.266.452-.266.655-.688v-1.296h-.843q-2 0-2 1.171 0 .5.344.797.343.282.874.282m6.063.828h-1.078v-6.344h1.078zm-1.172-8.016q0-.266.156-.453.172-.188.485-.188.312 0 .469.188.171.187.171.453 0 .25-.172.438-.156.171-.468.171t-.485-.171q-.156-.188-.156-.438m4.469.14v1.532h1.172v.844h-1.172v3.922q0 .39.156.578t.531.187q.188 0 .516-.062v.875q-.422.125-.828.125-.719 0-1.094-.438-.375-.453-.375-1.265v-3.922h-1.156v-.844h1.156V422.7zm6.219 6.188q0-.437-.344-.672-.328-.25-1.156-.422-.813-.171-1.297-.421-.485-.25-.719-.579-.219-.343-.219-.812 0-.781.656-1.313.657-.546 1.688-.546 1.078 0 1.734.562.672.547.672 1.406h-1.078q0-.437-.39-.75-.376-.328-.938-.328-.594 0-.937.266-.329.25-.329.656 0 .39.313.594.312.203 1.125.39.812.172 1.312.422t.735.61q.25.359.25.859 0 .86-.688 1.375-.672.516-1.75.516-.765 0-1.36-.266-.577-.281-.905-.766-.329-.484-.329-1.046h1.079q.03.546.437.875.406.312 1.078.312.61 0 .985-.25t.375-.672m-114.703 20.152h-3.704v3.015h4.297v.922h-5.422v-8.531h5.375v.922h-4.25v2.75h3.703zm3.03-2.407.032.703q.688-.812 1.875-.812 1.328 0 1.813 1.016.312-.454.812-.735.516-.281 1.203-.281 2.094 0 2.125 2.203v4.25h-1.078v-4.187q0-.672-.312-1-.313-.344-1.047-.344-.61 0-1.016.36-.39.359-.453.968v4.203h-1.078v-4.156q0-1.375-1.36-1.375-1.062 0-1.453.906v4.625h-1.094v-6.344zm15.344 3.25q0 1.453-.671 2.344-.657.875-1.782.875-1.203 0-1.859-.86l-.062.735h-.985v-9h1.078v3.36q.656-.813 1.813-.813 1.156 0 1.812.875.656.86.656 2.39zm-1.078-.125q0-1.109-.437-1.703-.422-.61-1.219-.61-1.078 0-1.547.985v2.75q.5 1 1.547 1 .781 0 1.219-.61.437-.609.437-1.812m5.344 3.344q-1.297 0-2.11-.844-.796-.859-.796-2.28v-.188q0-.954.36-1.688.359-.75 1-1.156.655-.422 1.405-.422 1.235 0 1.922.812.688.813.688 2.329v.453h-4.297q.031.937.547 1.515.531.578 1.344.578.562 0 .953-.234.406-.234.719-.625l.656.516q-.797 1.234-2.39 1.234m-.14-5.687q-.657 0-1.11.484-.437.469-.531 1.328h3.172v-.078q-.047-.828-.453-1.281-.391-.453-1.079-.453m3.25 2.343q0-1.468.687-2.343.688-.891 1.813-.891 1.109 0 1.765.75v-3.297h1.078v9h-1l-.047-.687q-.656.812-1.812.812-1.094 0-1.797-.906-.687-.906-.687-2.36zm1.078.125q0 1.078.437 1.688.453.61 1.234.61 1.032 0 1.516-.938v-2.907q-.484-.89-1.5-.89-.797 0-1.25.61-.437.609-.437 1.827m11.859-.703q-1.437-.422-2.11-1.031-.656-.61-.656-1.5 0-1 .797-1.656.813-.672 2.11-.672.875 0 1.562.344t1.063.937q.39.594.39 1.313h-1.14q0-.782-.5-1.22-.485-.437-1.375-.437-.829 0-1.297.375-.469.36-.469 1 0 .532.438.891.453.36 1.515.656 1.063.297 1.656.656.61.36.891.844.297.485.297 1.125 0 1.047-.813 1.672t-2.156.625q-.89 0-1.656-.344-.75-.343-1.172-.922-.406-.593-.406-1.328h1.125q0 .766.578 1.22.578.452 1.531.452.89 0 1.36-.36.468-.374.468-1 0-.624-.437-.968-.438-.344-1.594-.672m8.234 3.172q-.625.75-1.859.75-1.016 0-1.547-.594-.531-.593-.531-1.75v-4.125h1.078v4.094q0 1.453 1.172 1.453 1.25 0 1.656-.937v-4.61h1.094v6.344h-1.031zm8.438-2.469q0 1.438-.656 2.328-.657.891-1.797.891-1.156 0-1.813-.734v3.047h-1.078v-8.782h.984l.047.703q.672-.812 1.844-.812 1.14 0 1.797.86.672.859.672 2.39zm-1.078-.125q0-1.078-.469-1.687-.453-.625-1.25-.625-.984 0-1.469.86v3.03q.485.875 1.485.875.78 0 1.234-.609.469-.625.469-1.844m8.078.125q0 1.438-.656 2.328-.657.891-1.797.891-1.156 0-1.813-.734v3.047h-1.078v-8.782h.984l.047.703q.672-.812 1.844-.812 1.14 0 1.797.86.672.859.672 2.39zm-1.078-.125q0-1.078-.469-1.687-.453-.625-1.25-.625-.984 0-1.469.86v3.03q.485.875 1.485.875.78 0 1.234-.609.469-.625.469-1.844m2.437-.015q0-.922.36-1.672.375-.75 1.03-1.14.657-.407 1.485-.407 1.297 0 2.094.89.813.891.813 2.391v.078q0 .922-.36 1.657-.36.734-1.016 1.156-.656.406-1.515.406-1.281 0-2.094-.89-.797-.907-.797-2.391zm1.094.14q0 1.047.484 1.688.5.64 1.313.64.828 0 1.312-.64.485-.656.485-1.828 0-1.032-.5-1.672-.485-.656-1.313-.656-.797 0-1.297.64-.484.625-.484 1.828m9.266-2.28q-.25-.032-.532-.032-1.078 0-1.453.906v4.5h-1.078v-6.344h1.047l.016.735q.53-.844 1.515-.844.313 0 .485.078zm2.406-2.5v1.53h1.172v.844h-1.172v3.922q0 .39.156.578t.531.188q.188 0 .516-.063v.875q-.422.125-.828.125-.719 0-1.094-.437-.375-.454-.375-1.266v-3.922h-1.156v-.844h1.156v-1.53zm2.734 8.608h-.922l3.563-9.265h.922zm9.672-4.5h-3.594v3.766h-1.125v-8.531h5.297v.922h-4.172v2.922h3.594zm1.828.532q0-.922.36-1.672.375-.75 1.03-1.14.657-.407 1.485-.407 1.297 0 2.094.89.813.891.813 2.391v.078q0 .922-.36 1.657-.36.734-1.016 1.156-.656.406-1.515.406-1.281 0-2.094-.89-.797-.907-.797-2.391zm1.094.14q0 1.047.484 1.688.5.64 1.313.64.828 0 1.312-.64.485-.656.485-1.828 0-1.032-.5-1.672-.485-.656-1.313-.656-.797 0-1.297.64-.484.625-.484 1.828m8.734 2.328q.578 0 1.016-.343.438-.36.484-.89h1.032q-.032.546-.391 1.046-.344.484-.922.781-.562.297-1.219.297-1.297 0-2.062-.86-.75-.874-.75-2.374v-.188q0-.922.328-1.64.344-.72.969-1.11.64-.406 1.515-.406 1.063 0 1.766.64.719.626.766 1.657h-1.032q-.047-.625-.468-1.016-.422-.39-1.032-.39-.828 0-1.28.593-.454.594-.454 1.72v.202q0 1.094.453 1.688t1.281.593m7.375.141q-.625.75-1.859.75-1.016 0-1.547-.594-.531-.593-.531-1.75v-4.125h1.078v4.094q0 1.453 1.172 1.453 1.25 0 1.656-.937v-4.61h1.094v6.344h-1.031zm6.782-1.062q0-.438-.344-.672-.328-.25-1.156-.422-.813-.172-1.297-.422-.485-.25-.719-.578-.219-.344-.219-.813 0-.78.656-1.312.657-.547 1.688-.547 1.078 0 1.734.562.672.547.672 1.407h-1.078q0-.438-.39-.75-.376-.328-.938-.328-.594 0-.937.265-.329.25-.329.656 0 .391.313.594.312.203 1.125.39.812.173 1.312.423t.735.61q.25.358.25.858 0 .86-.688 1.375-.672.516-1.75.516-.765 0-1.36-.266-.577-.28-.905-.765t-.329-1.047h1.079q.03.547.437.875.406.312 1.078.312.61 0 .985-.25t.375-.671m-46.813 20.323h-3.594v3.766h-1.125v-8.532h5.297v.922h-4.172v2.922h3.594zm6.031 3.14q-.625.75-1.859.75-1.016 0-1.547-.593-.531-.594-.531-1.75v-4.125h1.078v4.094q0 1.453 1.172 1.453 1.25 0 1.656-.938v-4.61h1.094v6.345h-1.031zm4.11-5.718.031.797q.734-.907 1.906-.907 2.016 0 2.031 2.266v4.188h-1.093v-4.204q0-.671-.313-1-.297-.328-.953-.328-.531 0-.937.282-.391.28-.61.734v4.516h-1.078v-6.344zm8.515 5.578q.578 0 1.016-.344.438-.36.484-.89h1.032q-.032.546-.391 1.046-.344.485-.922.782-.562.297-1.219.297-1.297 0-2.062-.86-.75-.875-.75-2.375v-.187q0-.922.328-1.64.344-.72.969-1.11.64-.407 1.515-.407 1.063 0 1.766.641.719.625.766 1.656h-1.032q-.047-.625-.468-1.015t-1.032-.39q-.828 0-1.28.593-.454.594-.454 1.719v.203q0 1.093.453 1.687t1.281.594m4.938-7.11v1.532h1.172v.844h-1.172v3.921q0 .391.156.579t.531.187q.188 0 .516-.062v.875q-.422.125-.828.125-.719 0-1.094-.438-.375-.453-.375-1.266v-3.921h-1.156v-.844h1.156v-1.531zm3.703 7.876h-1.078v-6.344h1.078zm-1.172-8.016q0-.266.156-.453.172-.188.485-.188.312 0 .469.188.171.187.171.453 0 .25-.172.437-.156.172-.468.172t-.485-.172q-.156-.187-.156-.437m2.703 4.781q0-.922.36-1.672.375-.75 1.03-1.14.657-.407 1.485-.407 1.297 0 2.094.891.813.89.813 2.39v.079q0 .922-.36 1.656t-1.016 1.156q-.656.407-1.515.407-1.281 0-2.094-.891-.797-.906-.797-2.39zm1.094.14q0 1.048.484 1.688.5.64 1.313.64.828 0 1.312-.64.485-.656.485-1.828 0-1.031-.5-1.672-.485-.656-1.313-.656-.797 0-1.297.64-.484.626-.484 1.829m7.219-3.25.031.798q.734-.907 1.906-.907 2.016 0 2.031 2.266v4.188h-1.093v-4.204q0-.671-.313-1-.297-.328-.953-.328-.531 0-.937.282-.391.28-.61.734v4.516h-1.078v-6.344zm9.672 4.657q0-.437-.344-.672-.328-.25-1.156-.422-.813-.172-1.297-.422-.485-.25-.719-.578-.219-.343-.219-.812 0-.781.656-1.313.657-.547 1.688-.547 1.078 0 1.734.563.672.547.672 1.406h-1.078q0-.437-.39-.75-.376-.328-.938-.328-.594 0-.937.266-.329.25-.329.656 0 .39.313.594.312.203 1.125.39.812.172 1.312.422t.735.61q.25.359.25.859 0 .86-.688 1.375-.672.516-1.75.516-.765 0-1.36-.266-.577-.281-.905-.766-.329-.484-.329-1.047h1.079q.03.547.437.875.406.313 1.078.313.61 0 .985-.25t.375-.672m-71.703 20.151h-3.704v3.015h4.297v.922h-5.422v-8.531h5.375v.922h-4.25v2.75h3.703zm5.078-1.438q-.25-.031-.532-.031-1.078 0-1.453.906v4.5h-1.078v-6.344h1.047l.016.735q.53-.844 1.515-.844.313 0 .485.078zm4 0q-.25-.031-.532-.031-1.078 0-1.453.906v4.5h-1.078v-6.344h1.047l.016.735q.53-.844 1.515-.844.313 0 .485.078zm.64 2.14q0-.921.36-1.671.375-.75 1.03-1.14.657-.407 1.485-.407 1.297 0 2.094.89.813.891.813 2.391v.078q0 .922-.36 1.657-.36.734-1.016 1.156-.656.406-1.515.406-1.281 0-2.094-.89-.797-.907-.797-2.391zm1.094.141q0 1.047.484 1.688.5.64 1.313.64.828 0 1.312-.64.485-.656.485-1.828 0-1.032-.5-1.672-.485-.656-1.313-.656-.797 0-1.297.64-.484.625-.484 1.828m9.266-2.281q-.25-.031-.532-.031-1.078 0-1.453.906v4.5h-1.078v-6.344h1.047l.016.735q.53-.844 1.515-.844.313 0 .485.078zm10.656 5.375h-1.125v-3.937h-4.313v3.937h-1.125v-8.531h1.125v3.672h4.313v-3.672h1.125zm6.187 0q-.093-.187-.156-.672-.75.797-1.797.797-.937 0-1.547-.531-.593-.531-.593-1.36 0-.984.75-1.53.75-.548 2.125-.548h1.046v-.5q0-.562-.343-.89-.328-.344-1-.344-.578 0-.969.297-.39.281-.39.703h-1.094q0-.484.328-.922.344-.437.922-.687.578-.266 1.265-.266 1.11 0 1.719.547.625.547.656 1.5v2.922q0 .875.219 1.39v.094zm-1.797-.828q.516 0 .97-.266.452-.265.655-.687V494.7h-.843q-2 0-2 1.172 0 .5.344.797.343.28.874.28m5.907-5.516.031.797q.734-.906 1.906-.906 2.016 0 2.031 2.266v4.187h-1.093v-4.203q0-.672-.313-1-.297-.328-.953-.328-.531 0-.937.281-.391.281-.61.734v4.516h-1.078v-6.344zm5.719 3.125q0-1.468.687-2.343.688-.891 1.813-.891 1.109 0 1.765.75v-3.297h1.078v9h-1l-.047-.687q-.656.812-1.812.812-1.094 0-1.797-.906-.687-.906-.687-2.36zm1.078.125q0 1.078.437 1.688.453.61 1.234.61 1.032 0 1.516-.938v-2.907q-.484-.89-1.5-.89-.797 0-1.25.61-.437.609-.437 1.827m7.359 3.094h-1.078v-9h1.078zm3 0h-1.078v-6.344h1.078zm-1.172-8.016q0-.265.156-.453.172-.187.485-.187.312 0 .469.187.171.188.171.453 0 .25-.172.438-.156.172-.468.172t-.485-.172q-.156-.188-.156-.438m4.016 1.672.031.797q.734-.906 1.906-.906 2.016 0 2.031 2.266v4.187h-1.093v-4.203q0-.672-.313-1-.297-.328-.953-.328-.531 0-.937.281-.391.281-.61.734v4.516h-1.078v-6.344zm5.719 3.125q0-1.484.687-2.36.688-.874 1.813-.874 1.156 0 1.812.812l.047-.703h1v6.188q0 1.234-.734 1.937-.735.719-1.954.719-.687 0-1.343-.297-.657-.297-1-.797l.562-.656q.688.86 1.703.86.781 0 1.219-.454.453-.437.453-1.25v-.547q-.656.766-1.781.766-1.11 0-1.797-.89-.687-.907-.687-2.454m1.093.125q0 1.063.438 1.688.437.61 1.234.61 1.016 0 1.5-.938v-2.891q-.5-.906-1.5-.906-.781 0-1.234.61-.438.609-.438 1.827m13.907 28.077q0 1.906-.657 2.843-.64.922-2.031.922-1.36 0-2.016-.906-.656-.907-.687-2.719v-1.437q0-1.891.64-2.797.657-.922 2.047-.922 1.375 0 2.032.89.656.875.671 2.72zm-1.094-1.485q0-1.375-.39-2-.376-.64-1.22-.64-.828 0-1.218.64-.375.625-.375 1.922v1.734q0 1.375.39 2.047.406.656 1.219.656.797 0 1.188-.625t.406-1.953zm173.747 5.125h-1.078v-7.219l-2.188.797v-.984l3.11-1.172h.156zm8.797-3.64q0 1.906-.657 2.843-.64.922-2.031.922-1.36 0-2.016-.906-.656-.907-.687-2.719v-1.437q0-1.891.64-2.797.657-.922 2.047-.922 1.375 0 2.032.89.656.875.672 2.72zm-1.094-1.485q0-1.375-.39-2-.376-.64-1.22-.64-.828 0-1.218.64-.375.625-.375 1.922v1.734q0 1.375.39 2.047.406.656 1.219.656.797 0 1.188-.625t.406-1.953zm8.094 1.484q0 1.907-.657 2.844-.64.922-2.031.922-1.36 0-2.016-.906-.656-.907-.687-2.719v-1.437q0-1.891.64-2.797.657-.922 2.047-.922 1.375 0 2.032.89.656.875.672 2.72zm-1.094-1.484q0-1.375-.39-2-.376-.64-1.22-.64-.828 0-1.218.64-.375.625-.375 1.922v1.734q0 1.375.39 2.047.406.656 1.219.656.797 0 1.188-.625t.406-1.953zm168.778 5.125h-5.594v-.781l2.953-3.282q.657-.75.907-1.203.25-.468.25-.968 0-.672-.407-1.094-.39-.438-1.078-.438-.797 0-1.25.47-.453.452-.453 1.28h-1.078q0-1.187.75-1.906.765-.734 2.031-.734 1.203 0 1.89.625.688.625.688 1.672 0 1.25-1.61 3l-2.28 2.468h4.28zm6.765-3.64q0 1.906-.656 2.843-.64.922-2.031.922-1.36 0-2.016-.906-.656-.907-.687-2.719v-1.437q0-1.891.64-2.797.657-.922 2.047-.922 1.375 0 2.032.89.656.875.672 2.72zm-1.093-1.485q0-1.375-.39-2-.376-.64-1.22-.64-.828 0-1.218.64-.375.625-.375 1.922v1.734q0 1.375.39 2.047.407.656 1.219.656.797 0 1.188-.625t.406-1.953zm8.093 1.484q0 1.907-.656 2.844-.64.922-2.031.922-1.36 0-2.016-.906-.656-.907-.687-2.719v-1.437q0-1.891.64-2.797.657-.922 2.047-.922 1.375 0 2.032.89.656.875.672 2.72zm-1.093-1.484q0-1.375-.39-2-.376-.64-1.22-.64-.828 0-1.218.64-.375.625-.375 1.922v1.734q0 1.375.39 2.047.407.656 1.219.656.797 0 1.188-.625t.406-1.953zm164.762.328h.813q.781-.015 1.219-.406.437-.39.437-1.063 0-1.5-1.5-1.5-.703 0-1.125.407-.406.406-.406 1.062h-1.094q0-1.015.734-1.687.75-.672 1.891-.672 1.203 0 1.89.64.688.641.688 1.782 0 .562-.36 1.078-.359.515-.984.781.704.219 1.079.734.39.516.39 1.266 0 1.14-.75 1.828-.75.672-1.953.672-1.187 0-1.953-.656-.75-.657-.75-1.719h1.094q0 .672.437 1.078.438.406 1.188.406.78 0 1.187-.406.422-.422.422-1.187 0-.735-.453-1.125-.453-.407-1.328-.422h-.813zm10.782 1.156q0 1.907-.657 2.844-.64.922-2.031.922-1.36 0-2.016-.906-.656-.907-.687-2.719v-1.437q0-1.891.64-2.797.657-.922 2.047-.922 1.375 0 2.032.89.656.875.672 2.72zm-1.094-1.484q0-1.375-.39-2-.376-.64-1.22-.64-.828 0-1.218.64-.375.625-.375 1.922v1.734q0 1.375.39 2.047.407.656 1.219.656.797 0 1.188-.625t.406-1.953zm8.094 1.484q0 1.907-.657 2.844-.64.922-2.031.922-1.36 0-2.016-.906-.656-.907-.687-2.719v-1.437q0-1.891.64-2.797.657-.922 2.047-.922 1.375 0 2.032.89.656.875.672 2.72zm-1.094-1.484q0-1.375-.39-2-.376-.64-1.22-.64-.828 0-1.218.64-.375.625-.375 1.922v1.734q0 1.375.39 2.047.407.656 1.219.656.797 0 1.188-.625t.406-1.953zm167.762 2.265h1.188v.876h-1.188v1.984h-1.078v-1.984h-3.89v-.641l3.812-5.906h1.156zm-3.734 0h2.656v-4.187l-.14.235zm11.515-.78q0 1.906-.656 2.843-.64.922-2.031.922-1.36 0-2.016-.906-.656-.907-.687-2.719v-1.437q0-1.891.64-2.797.657-.922 2.047-.922 1.375 0 2.032.89.656.875.671 2.72zm-1.093-1.485q0-1.375-.39-2-.376-.64-1.22-.64-.828 0-1.218.64-.375.625-.375 1.922v1.734q0 1.375.39 2.047.406.656 1.219.656.797 0 1.188-.625t.406-1.953zm8.093 1.484q0 1.907-.656 2.844-.64.922-2.031.922-1.36 0-2.016-.906-.656-.907-.687-2.719v-1.437q0-1.891.64-2.797.657-.922 2.047-.922 1.375 0 2.032.89.656.875.671 2.72zm-1.093-1.484q0-1.375-.39-2-.376-.64-1.22-.64-.828 0-1.218.64-.375.625-.375 1.922v1.734q0 1.375.39 2.047.406.656 1.219.656.797 0 1.188-.625t.406-1.953z"/><path fill="#757575" d="m34.319 44.116.265 1.875.407-1.688 2.812-9.922h1.578l2.75 9.922.39 1.719.298-1.922 2.218-9.719h1.876L43.475 48.6h-1.719l-2.922-10.36-.234-1.093-.219 1.094L35.35 48.6h-1.719l-3.437-14.219h1.875zm16.453-4.797q1.203-1.485 3.125-1.485 3.36 0 3.375 3.782V48.6h-1.797v-7q-.016-1.14-.531-1.687-.5-.547-1.594-.547-.875 0-1.547.468-.656.47-1.031 1.235V48.6h-1.797v-15h1.797zM66.49 48.6q-.157-.312-.25-1.11-1.266 1.313-3.016 1.313-1.562 0-2.562-.89-1-.891-1-2.25 0-1.641 1.25-2.547 1.265-.922 3.53-.922h1.766v-.828q0-.953-.578-1.516-.562-.562-1.656-.562-.969 0-1.625.5-.656.484-.656 1.171H59.88q0-.78.563-1.515.562-.75 1.515-1.172.97-.438 2.125-.438 1.828 0 2.86.922 1.031.907 1.078 2.516v4.86q0 1.452.36 2.312v.156zm-3-1.375q.859 0 1.609-.437.766-.438 1.11-1.141v-2.172h-1.422q-3.313 0-3.313 1.938 0 .859.563 1.343.562.469 1.453.469m9.921-11.75v2.563h1.985v1.39h-1.985v6.547q0 .64.266.969.266.312.906.312.313 0 .86-.125V48.6q-.719.203-1.39.203-1.204 0-1.829-.734-.61-.735-.61-2.094v-6.547h-1.921v-1.39h1.922v-2.563zm9.11 7.75q0-2.422 1.156-3.906 1.156-1.485 3.016-1.485T89.63 39.1v-5.5h1.813v15h-1.657l-.093-1.14q-1.078 1.343-3.016 1.343-1.828 0-3-1.5-1.156-1.515-1.156-3.937zm1.812.203q0 1.797.735 2.813.75 1.015 2.062 1.015 1.719 0 2.5-1.531v-4.86q-.797-1.5-2.484-1.5-1.328 0-2.078 1.032-.735 1.031-.735 3.031m9.157-.203q0-1.562.609-2.797.61-1.25 1.688-1.922 1.093-.672 2.5-.672 2.156 0 3.484 1.5 1.344 1.485 1.344 3.97v.124q0 1.547-.594 2.781-.594 1.22-1.703 1.907-1.094.687-2.516.687-2.14 0-3.484-1.5-1.328-1.5-1.328-3.953zm1.812.203q0 1.766.813 2.828.828 1.063 2.187 1.063 1.375 0 2.188-1.078.812-1.078.812-3.016 0-1.75-.828-2.828t-2.187-1.078q-1.344 0-2.172 1.062-.813 1.063-.813 3.047m18.125 2.531 2.453-7.922h1.938l-4.25 12.188q-.985 2.64-3.125 2.64l-.344-.03-.672-.126v-1.468l.484.047q.922 0 1.422-.375.516-.375.844-1.36l.406-1.078-3.765-10.437h1.968zm5.063-2.734q0-1.562.609-2.797.61-1.25 1.688-1.922 1.093-.672 2.5-.672 2.156 0 3.484 1.5 1.344 1.485 1.344 3.97v.124q0 1.547-.594 2.781-.594 1.22-1.703 1.907-1.094.687-2.516.687-2.14 0-3.484-1.5-1.328-1.5-1.328-3.953zm1.812.203q0 1.766.813 2.828.828 1.063 2.187 1.063 1.375 0 2.188-1.078.812-1.078.812-3.016 0-1.75-.828-2.828t-2.187-1.078q-1.344 0-2.172 1.062-.813 1.063-.813 3.047m16.188 4.125q-1.047 1.25-3.094 1.25-1.688 0-2.578-.984-.875-.985-.89-2.907v-6.874h1.812v6.828q0 2.39 1.953 2.39 2.062 0 2.75-1.531v-7.687h1.812V48.6h-1.719zm10.36 1.047v-9.172h-1.656v-1.39h1.656v-1.094q0-1.688.906-2.61.922-.937 2.578-.937.625 0 1.235.156l-.094 1.469q-.453-.078-.969-.078-.89 0-1.375.515-.469.5-.469 1.453v1.126h2.25v1.39h-2.25V48.6zm10.5.203q-2.14 0-3.5-1.406-1.344-1.422-1.344-3.781v-.344q0-1.563.594-2.797.61-1.234 1.688-1.937t2.343-.704q2.063 0 3.203 1.36 1.141 1.36 1.141 3.89v.75h-7.156q.031 1.563.906 2.532.875.953 2.219.953.969 0 1.625-.39.672-.392 1.172-1.032l1.093.86q-1.328 2.046-3.984 2.046m-.219-9.484q-1.094 0-1.844.797-.734.797-.906 2.234h5.281v-.14q-.078-1.376-.75-2.126-.656-.765-1.78-.765m11.219 9.484q-2.14 0-3.5-1.406-1.344-1.422-1.344-3.781v-.344q0-1.563.594-2.797.61-1.234 1.688-1.937t2.343-.704q2.063 0 3.203 1.36 1.141 1.36 1.141 3.89v.75h-7.156q.031 1.563.906 2.532.875.953 2.219.953.969 0 1.625-.39.672-.392 1.172-1.032l1.093.86q-1.328 2.046-3.984 2.046m-.219-9.484q-1.094 0-1.844.797-.734.797-.906 2.234h5.281v-.14q-.078-1.376-.75-2.126-.656-.765-1.78-.765m8.797 9.281h-1.797v-15h1.797zm14.563 0q-.157-.312-.25-1.11-1.266 1.313-3.016 1.313-1.562 0-2.562-.89-1-.891-1-2.25 0-1.641 1.25-2.547 1.265-.922 3.53-.922h1.766v-.828q0-.953-.578-1.516-.562-.562-1.656-.562-.969 0-1.625.5-.656.484-.656 1.171h-1.813q0-.78.563-1.515.562-.75 1.515-1.172.97-.438 2.125-.438 1.828 0 2.86.922 1.031.907 1.078 2.516v4.86q0 1.452.36 2.312v.156zm-3-1.375q.859 0 1.609-.437.766-.438 1.11-1.141v-2.172h-1.423q-3.312 0-3.312 1.938 0 .859.563 1.343.562.469 1.453.469m12.578-7.578q-.406-.063-.875-.063-1.781 0-2.422 1.516v7.5h-1.797V38.038h1.75l.031 1.218q.89-1.422 2.516-1.422.531 0 .797.141zm6.281 9.156q-2.14 0-3.5-1.406-1.344-1.422-1.344-3.781v-.344q0-1.563.594-2.797.61-1.234 1.688-1.937t2.343-.704q2.063 0 3.203 1.36 1.141 1.36 1.141 3.89v.75h-7.156q.031 1.563.906 2.532.875.953 2.219.953.969 0 1.625-.39.672-.392 1.172-1.032l1.093.86q-1.328 2.046-3.984 2.046m-.219-9.484q-1.094 0-1.844.797-.734.797-.906 2.234h5.281v-.14q-.078-1.376-.75-2.126-.656-.765-1.78-.765m14.281-3.844v2.563h1.985v1.39h-1.984v6.547q0 .64.265.969.266.312.906.312.313 0 .86-.125V48.6q-.719.203-1.39.203-1.204 0-1.829-.734-.61-.735-.61-2.094v-6.547h-1.921v-1.39h1.922v-2.563zm6.36 3.844q1.203-1.485 3.125-1.485 3.36 0 3.375 3.782V48.6h-1.797v-7q-.016-1.14-.531-1.687-.5-.547-1.594-.547-.875 0-1.547.468-.656.47-1.031 1.235V48.6h-1.797v-15h1.797zm13.578 9.484q-2.14 0-3.5-1.406-1.344-1.422-1.344-3.781v-.344q0-1.563.594-2.797.61-1.234 1.688-1.937t2.343-.704q2.063 0 3.203 1.36 1.141 1.36 1.141 3.89v.75h-7.156q.031 1.563.906 2.532.875.953 2.219.953.969 0 1.625-.39.672-.392 1.172-1.032l1.093.86q-1.328 2.046-3.984 2.046m-.219-9.484q-1.094 0-1.844.797-.734.797-.906 2.234h5.281v-.14q-.078-1.376-.75-2.126-.656-.765-1.78-.765m20.782 4.11q0 2.421-1.11 3.905-1.11 1.47-2.984 1.47-2.016 0-3.11-1.423l-.078 1.219h-1.656v-15h1.797v5.594q1.094-1.36 3.016-1.36t3.015 1.453q1.11 1.454 1.11 3.985zm-1.813-.204q0-1.844-.719-2.844-.703-1.015-2.031-1.015-1.797 0-2.578 1.672V45.6q.828 1.656 2.594 1.656 1.297 0 2.015-1t.719-3.031m5.828 5.375h-1.797V38.038h1.797zm-1.953-13.375q0-.437.266-.734.28-.313.797-.313.53 0 .796.313.282.297.282.734 0 .438-.282.734-.265.297-.796.297-.516 0-.797-.297-.266-.297-.266-.734m4.563 8q0-2.469 1.14-3.922 1.14-1.469 3.031-1.469 1.938 0 3.016 1.375l.094-1.172h1.64V48.35q0 2.047-1.218 3.219-1.203 1.187-3.266 1.187-1.14 0-2.234-.484t-1.672-1.344l.937-1.078q1.172 1.438 2.844 1.438 1.328 0 2.063-.75.734-.735.734-2.079v-.922q-1.078 1.266-2.953 1.266-1.86 0-3.016-1.5-1.14-1.5-1.14-4.078m1.812.203q0 1.797.734 2.813.735 1.015 2.047 1.015 1.719 0 2.516-1.547v-4.828q-.828-1.515-2.484-1.515-1.329 0-2.079 1.03-.734 1.032-.734 3.032m9.188-.203q0-2.469 1.14-3.922 1.14-1.469 3.031-1.469 1.938 0 3.016 1.375l.094-1.172h1.64V48.35q0 2.047-1.218 3.219-1.203 1.187-3.266 1.187-1.14 0-2.234-.484t-1.672-1.344l.937-1.078q1.172 1.438 2.844 1.438 1.328 0 2.063-.75.734-.735.734-2.079v-.922q-1.078 1.266-2.953 1.266-1.86 0-3.016-1.5-1.14-1.5-1.14-4.078m1.812.203q0 1.797.734 2.813.735 1.015 2.047 1.015 1.719 0 2.516-1.547v-4.828q-.828-1.515-2.484-1.515-1.329 0-2.079 1.03-.734 1.032-.734 3.032m14 5.375q-2.14 0-3.5-1.406-1.344-1.422-1.344-3.781v-.344q0-1.563.594-2.797.61-1.234 1.688-1.937t2.343-.704q2.063 0 3.203 1.36 1.141 1.36 1.141 3.89v.75h-7.156q.031 1.563.906 2.532.875.953 2.219.953.969 0 1.625-.39.672-.392 1.172-1.032l1.093.86q-1.328 2.046-3.984 2.046m-.219-9.484q-1.093 0-1.843.797-.735.797-.907 2.234h5.282v-.14q-.079-1.376-.75-2.126-.657-.765-1.782-.765m12.985 6.484q0-.734-.547-1.14-.547-.407-1.922-.704t-2.188-.703q-.796-.406-1.187-.968-.375-.579-.375-1.36 0-1.297 1.094-2.187 1.093-.907 2.812-.907 1.797 0 2.906.938 1.125.922 1.125 2.36h-1.828q0-.735-.625-1.266-.625-.547-1.578-.547-1 0-1.562.437-.547.422-.547 1.125 0 .64.515.985.516.328 1.875.64 1.36.297 2.188.719.844.406 1.25 1t.406 1.438q0 1.421-1.14 2.28-1.125.86-2.938.86-1.266 0-2.25-.453-.969-.453-1.531-1.25-.547-.812-.547-1.75h1.812q.047.906.72 1.438.687.53 1.796.53 1.031 0 1.64-.405.626-.422.626-1.11m6.297-10.328v2.563h1.984v1.39h-1.984v6.547q0 .64.265.969.266.312.906.312.313 0 .86-.125V48.6q-.719.203-1.39.203-1.204 0-1.829-.734-.61-.735-.61-2.094v-6.547h-1.921v-1.39h1.922v-2.563zm13.796 11.844q.97 0 1.688-.578.719-.594.797-1.47h1.719q-.063.907-.641 1.735-.563.813-1.531 1.313-.953.484-2.032.484-2.156 0-3.437-1.437-1.266-1.453-1.266-3.953v-.297q0-1.547.563-2.75t1.625-1.86q1.062-.672 2.5-.672 1.781 0 2.953 1.063 1.187 1.062 1.266 2.766h-1.72q-.077-1.016-.78-1.672-.688-.672-1.72-.672-1.374 0-2.14 1-.75.984-.75 2.86v.343q0 1.828.75 2.812.75.985 2.156.985m7.563-8q1.203-1.485 3.125-1.485 3.36 0 3.375 3.782V48.6h-1.797v-7q-.016-1.14-.531-1.687-.5-.547-1.594-.547-.875 0-1.547.468-.656.47-1.031 1.235V48.6h-1.797v-15h1.797zM351.49 48.6q-.157-.312-.25-1.11-1.266 1.313-3.016 1.313-1.562 0-2.562-.89-1-.891-1-2.25 0-1.641 1.25-2.547 1.265-.922 3.53-.922h1.766v-.828q0-.953-.578-1.516-.562-.562-1.656-.562-.969 0-1.625.5-.656.484-.656 1.171h-1.813q0-.78.563-1.515.562-.75 1.515-1.172.97-.438 2.125-.438 1.829 0 2.86.922 1.031.907 1.078 2.516v4.86q0 1.452.36 2.312v.156zm-3-1.375q.859 0 1.609-.437.766-.438 1.11-1.141v-2.172h-1.422q-3.313 0-3.313 1.938 0 .859.563 1.343.562.469 1.453.469m9.437 1.375h-1.797v-15h1.797zm5 0h-1.797v-15h1.797zm7.422.203q-2.14 0-3.5-1.406-1.344-1.422-1.344-3.781v-.344q0-1.563.594-2.797.61-1.234 1.688-1.937t2.343-.704q2.063 0 3.203 1.36 1.141 1.36 1.141 3.89v.75h-7.156q.031 1.563.906 2.532.875.953 2.219.953.969 0 1.625-.39.672-.392 1.172-1.032l1.093.86q-1.328 2.046-3.984 2.046m-.219-9.484q-1.093 0-1.843.797-.735.797-.907 2.234h5.282v-.14q-.079-1.376-.75-2.126-.657-.765-1.782-.765m8.547-1.282.063 1.329q1.203-1.532 3.156-1.532 3.36 0 3.375 3.782V48.6h-1.797v-7q-.016-1.14-.531-1.687-.5-.547-1.594-.547-.875 0-1.547.468-.656.47-1.031 1.235V48.6h-1.797V38.038zm8.86 5.188q0-2.469 1.14-3.922 1.14-1.469 3.031-1.469 1.938 0 3.016 1.375l.094-1.172h1.64V48.35q0 2.047-1.218 3.219-1.203 1.187-3.266 1.187-1.14 0-2.234-.484t-1.672-1.344l.937-1.078q1.172 1.438 2.844 1.438 1.328 0 2.063-.75.734-.735.734-2.079v-.922q-1.078 1.266-2.953 1.266-1.86 0-3.016-1.5-1.14-1.5-1.14-4.078m1.812.203q0 1.797.734 2.813.735 1.015 2.047 1.015 1.719 0 2.516-1.547v-4.828q-.828-1.515-2.484-1.515-1.329 0-2.079 1.03-.734 1.032-.734 3.032m14 5.375q-2.14 0-3.5-1.406-1.344-1.422-1.344-3.781v-.344q0-1.563.594-2.797.61-1.234 1.688-1.937t2.343-.704q2.063 0 3.203 1.36 1.141 1.36 1.141 3.89v.75h-7.156q.031 1.563.906 2.532.875.953 2.219.953.969 0 1.625-.39.672-.392 1.172-1.032l1.093.86q-1.328 2.046-3.984 2.046m-.219-9.484q-1.093 0-1.843.797-.735.797-.907 2.234h5.282v-.14q-.079-1.376-.75-2.126-.657-.765-1.782-.765m12.985 6.484q0-.734-.547-1.14-.547-.407-1.922-.704t-2.188-.703q-.796-.406-1.187-.968-.375-.579-.375-1.36 0-1.297 1.094-2.187 1.093-.907 2.812-.907 1.797 0 2.906.938 1.125.922 1.125 2.36h-1.828q0-.735-.625-1.266-.625-.547-1.578-.547-1 0-1.562.437-.547.422-.547 1.125 0 .64.515.985.516.328 1.875.64 1.36.297 2.188.719.844.406 1.25 1t.406 1.438q0 1.421-1.14 2.28-1.125.86-2.938.86-1.266 0-2.25-.453-.969-.453-1.531-1.25-.547-.812-.547-1.75h1.812q.047.906.72 1.438.687.53 1.796.53 1.031 0 1.64-.405.626-.422.626-1.11m8.375-2.578q0-1.562.609-2.797.61-1.25 1.688-1.922 1.093-.672 2.5-.672 2.156 0 3.484 1.5 1.344 1.485 1.344 3.97v.124q0 1.547-.594 2.781-.594 1.22-1.703 1.907-1.094.687-2.516.687-2.14 0-3.484-1.5-1.328-1.5-1.328-3.953zm1.812.203q0 1.766.813 2.828.828 1.063 2.187 1.063 1.375 0 2.188-1.078.812-1.078.812-3.016 0-1.75-.828-2.828t-2.187-1.078q-1.344 0-2.172 1.062-.813 1.063-.813 3.047m14.766-3.781q-.406-.063-.875-.063-1.781 0-2.422 1.516v7.5h-1.797V38.038h1.75l.031 1.218q.89-1.422 2.516-1.422.531 0 .797.141zm15.828 3.781q0 2.422-1.11 3.906-1.093 1.47-2.984 1.47-1.922 0-3.031-1.235v5.093h-1.797V38.039h1.64l.094 1.171q1.094-1.375 3.063-1.375 1.906 0 3.016 1.438 1.109 1.437 1.109 4zm-1.813-.203q0-1.781-.765-2.812-.75-1.047-2.078-1.047-1.641 0-2.47 1.453v5.062q.813 1.438 2.485 1.438 1.297 0 2.063-1.032.765-1.03.765-3.062m8.985-3.578q-.406-.063-.875-.063-1.781 0-2.422 1.516v7.5h-1.797V38.038h1.75l.031 1.218q.89-1.422 2.516-1.422.531 0 .797.141zm1.422 3.578q0-1.562.609-2.797.61-1.25 1.688-1.922 1.093-.672 2.5-.672 2.156 0 3.484 1.5 1.344 1.485 1.344 3.97v.124q0 1.547-.594 2.781-.594 1.22-1.703 1.907-1.094.687-2.516.687-2.14 0-3.484-1.5-1.328-1.5-1.328-3.953zm1.812.203q0 1.766.813 2.828.828 1.063 2.187 1.063 1.375 0 2.188-1.078.812-1.078.812-3.016 0-1.75-.828-2.828t-2.187-1.078q-1.344 0-2.172 1.062-.813 1.063-.813 3.047m18.61 0q0 2.422-1.11 3.906-1.11 1.47-2.984 1.47-2.016 0-3.11-1.423l-.078 1.219h-1.656v-15h1.797v5.594q1.094-1.36 3.016-1.36t3.015 1.453q1.11 1.454 1.11 3.985zm-1.813-.203q0-1.844-.719-2.844-.703-1.015-2.031-1.015-1.797 0-2.578 1.672V45.6q.828 1.656 2.594 1.656 1.297 0 2.015-1t.719-3.031m5.828 5.375h-1.797v-15h1.797zm7.422.203q-2.14 0-3.5-1.406-1.344-1.422-1.344-3.781v-.344q0-1.563.594-2.797.61-1.234 1.688-1.937t2.343-.704q2.063 0 3.203 1.36 1.141 1.36 1.141 3.89v.75h-7.156q.031 1.563.906 2.532.875.953 2.219.953.969 0 1.625-.39.672-.392 1.172-1.032l1.093.86q-1.328 2.046-3.984 2.046m-.219-9.484q-1.093 0-1.843.797-.735.797-.907 2.234h5.282v-.14q-.079-1.376-.75-2.126-.657-.765-1.782-.765m8.532-1.282.046 1.172q1.172-1.375 3.141-1.375 2.219 0 3.016 1.703.53-.765 1.375-1.234.843-.469 2-.469 3.468 0 3.53 3.688V48.6h-1.812v-6.969q0-1.14-.515-1.703-.516-.562-1.735-.562-1 0-1.671.609-.657.594-.766 1.61V48.6h-1.813v-6.922q0-2.312-2.265-2.312-1.781 0-2.422 1.515V48.6h-1.813V38.038zm22.453 7.766q0-.734-.547-1.14-.547-.407-1.922-.704t-2.188-.703q-.796-.406-1.187-.968-.375-.579-.375-1.36 0-1.297 1.094-2.187 1.093-.907 2.812-.907 1.797 0 2.906.938 1.125.922 1.125 2.36h-1.828q0-.735-.625-1.266-.625-.547-1.578-.547-1 0-1.562.437-.547.422-.547 1.125 0 .64.515.985.516.328 1.875.64 1.36.297 2.188.719.844.406 1.25 1t.406 1.438q0 1.421-1.14 2.28-1.125.86-2.938.86-1.266 0-2.25-.453-.969-.453-1.531-1.25-.547-.812-.547-1.75h1.812q.047.906.72 1.438.687.53 1.796.53 1.031 0 1.64-.405.626-.422.626-1.11m9.734 2.797v-9.172h-1.656v-1.39h1.656v-1.094q0-1.688.906-2.61.922-.937 2.578-.937.625 0 1.235.156l-.094 1.469q-.453-.078-.969-.078-.89 0-1.375.515-.468.5-.468 1.453v1.126h2.25v1.39h-2.25V48.6zm5.64-5.375q0-1.562.61-2.797.61-1.25 1.688-1.922 1.093-.672 2.5-.672 2.156 0 3.484 1.5 1.344 1.485 1.344 3.97v.124q0 1.547-.594 2.781-.594 1.22-1.703 1.907-1.094.687-2.516.687-2.14 0-3.484-1.5-1.328-1.5-1.328-3.953zm1.813.203q0 1.766.813 2.828.828 1.063 2.187 1.063 1.375 0 2.188-1.078.812-1.078.812-3.016 0-1.75-.828-2.828t-2.187-1.078q-1.344 0-2.172 1.062-.813 1.063-.813 3.047m14.766-3.781q-.406-.063-.875-.063-1.781 0-2.422 1.516v7.5h-1.797V38.038h1.75l.031 1.218q.89-1.422 2.516-1.422.531 0 .797.141zm9.344-4.172v2.563h1.984v1.39h-1.985v6.547q0 .64.266.969.266.312.906.312.313 0 .86-.125V48.6q-.719.203-1.39.203-1.204 0-1.829-.734-.61-.735-.61-2.094v-6.547h-1.921v-1.39h1.922v-2.563zm6.359 3.844q1.203-1.485 3.125-1.485 3.36 0 3.375 3.782V48.6h-1.797v-7q-.016-1.14-.531-1.687-.5-.547-1.594-.547-.875 0-1.547.468-.656.47-1.031 1.235V48.6h-1.797v-15h1.797zm13.578 9.484q-2.14 0-3.5-1.406-1.344-1.422-1.344-3.781v-.344q0-1.563.594-2.797.61-1.234 1.688-1.937t2.343-.704q2.063 0 3.203 1.36 1.141 1.36 1.141 3.89v.75h-7.156q.031 1.563.906 2.532.875.953 2.219.953.969 0 1.625-.39.672-.392 1.172-1.032l1.093.86q-1.328 2.046-3.984 2.046m-.219-9.484q-1.093 0-1.843.797-.735.797-.907 2.234h5.282v-.14q-.079-1.376-.75-2.126-.657-.765-1.782-.765m17.328 3.531h-3.328v5.75h-1.89V34.381h4.703q2.406 0 3.703 1.094t1.297 3.188q0 1.328-.719 2.312t-2 1.469l3.344 6.031v.125h-2.016zm-3.328-1.531h2.875q1.39 0 2.219-.719.828-.734.828-1.937 0-1.329-.797-2.032-.781-.703-2.265-.703h-2.86zm16.36 6.234q-1.047 1.25-3.094 1.25-1.688 0-2.578-.984-.875-.985-.89-2.907v-6.874h1.812v6.828q0 2.39 1.953 2.39 2.062 0 2.75-1.531v-7.687h1.812V48.6h-1.718zm10.625-1.75q0-.734-.547-1.14-.547-.407-1.922-.704t-2.188-.703q-.796-.406-1.187-.968-.375-.579-.375-1.36 0-1.297 1.094-2.187 1.093-.907 2.812-.907 1.797 0 2.906.938 1.125.922 1.125 2.36h-1.828q0-.735-.625-1.266-.625-.547-1.578-.547-1 0-1.562.437-.547.422-.547 1.125 0 .64.515.985.516.328 1.875.64 1.36.297 2.188.719.844.406 1.25 1t.406 1.438q0 1.421-1.14 2.28-1.125.86-2.938.86-1.266 0-2.25-.453-.969-.453-1.531-1.25-.547-.812-.547-1.75h1.812q.047.906.72 1.438.687.53 1.796.53 1.031 0 1.64-.405.626-.422.626-1.11m6.297-10.328v2.563h1.984v1.39h-1.985v6.547q0 .64.266.969.266.312.906.312.313 0 .86-.125V48.6q-.719.203-1.39.203-1.204 0-1.829-.734-.61-.735-.61-2.094v-6.547h-1.921v-1.39h1.922v-2.563zm18.484 7.953q0 2.422-1.11 3.906-1.093 1.47-2.984 1.47-1.922 0-3.031-1.235v5.093h-1.797V38.039h1.64l.094 1.171q1.094-1.375 3.063-1.375 1.906 0 3.015 1.438t1.11 4zm-1.813-.203q0-1.781-.765-2.812-.75-1.047-2.078-1.047-1.641 0-2.47 1.453v5.062q.813 1.438 2.485 1.438 1.297 0 2.063-1.032.765-1.03.765-3.062m8.985-3.578q-.406-.063-.875-.063-1.781 0-2.422 1.516v7.5h-1.797V38.038h1.75l.031 1.218q.89-1.422 2.516-1.422.531 0 .797.141zm1.422 3.578q0-1.562.609-2.797.61-1.25 1.688-1.922 1.093-.672 2.5-.672 2.156 0 3.484 1.5 1.344 1.485 1.344 3.97v.124q0 1.547-.594 2.781-.594 1.22-1.703 1.907-1.094.687-2.516.687-2.14 0-3.484-1.5-1.328-1.5-1.328-3.953zm1.812.203q0 1.766.813 2.828.828 1.063 2.187 1.063 1.375 0 2.188-1.078.812-1.078.812-3.016 0-1.75-.828-2.828t-2.187-1.078q-1.344 0-2.172 1.062-.813 1.063-.813 3.047m11.531-5.39v11.78q0 3.048-2.765 3.048-.594 0-1.11-.172V51.24q.313.078.829.078.609 0 .921-.328.313-.313.313-1.125V38.038zm-2-2.813q0-.422.266-.734.281-.313.797-.313.531 0 .797.313.281.297.281.734 0 .438-.281.734-.266.297-.797.297t-.797-.297-.266-.734m9.516 13.578q-2.14 0-3.5-1.406-1.344-1.422-1.344-3.781v-.344q0-1.563.594-2.797.61-1.234 1.688-1.937t2.343-.704q2.063 0 3.203 1.36 1.141 1.36 1.141 3.89v.75h-7.156q.031 1.563.906 2.532.875.953 2.219.953.969 0 1.625-.39.672-.392 1.172-1.032l1.093.86q-1.328 2.046-3.984 2.046m-.219-9.484q-1.093 0-1.843.797-.735.797-.907 2.234h5.282v-.14q-.079-1.376-.75-2.126-.657-.765-1.782-.765m11.078 8q.97 0 1.688-.578.719-.594.797-1.47h1.719q-.063.907-.641 1.735-.563.813-1.531 1.313-.953.484-2.032.484-2.156 0-3.437-1.437-1.266-1.453-1.266-3.953v-.297q0-1.547.563-2.75t1.625-1.86q1.062-.672 2.5-.672 1.781 0 2.953 1.063 1.187 1.062 1.265 2.766h-1.718q-.078-1.016-.781-1.672-.688-.672-1.72-.672-1.374 0-2.14 1-.75.984-.75 2.86v.343q0 1.828.75 2.812.75.985 2.156.985m8.204-11.844v2.563h1.984v1.39h-1.985v6.547q0 .64.266.969.266.312.906.312.313 0 .86-.125V48.6q-.719.203-1.39.203-1.204 0-1.829-.734-.61-.735-.61-2.094v-6.547h-1.921v-1.39h1.922v-2.563zm6.671 9.125q.016-1.172.266-1.844t1-1.484l1.281-1.328q.813-.922.813-1.985 0-1.03-.547-1.609-.531-.578-1.547-.578-1 0-1.61.531-.593.516-.593 1.406h-1.813q.016-1.578 1.125-2.547 1.11-.984 2.891-.984 1.844 0 2.875 1 1.031.985 1.031 2.719 0 1.703-1.578 3.375l-1.078 1.047q-.703.797-.703 2.281zm-.078 3.094q0-.438.266-.735.281-.297.797-.297.531 0 .797.297.28.297.28.735 0 .437-.28.734-.266.281-.797.281-.516 0-.797-.28-.266-.298-.266-.735m15.313-3.578.265 1.875.407-1.688 2.812-9.922h1.578l2.75 9.922.39 1.719.298-1.922 2.219-9.719h1.875L734.475 48.6h-1.719l-2.922-10.36-.234-1.093-.219 1.094L726.35 48.6h-1.719l-3.437-14.219h1.875zm16.453-4.797q1.203-1.485 3.125-1.485 3.36 0 3.375 3.782V48.6h-1.797v-7q-.016-1.14-.531-1.687-.5-.547-1.594-.547-.875 0-1.547.468-.656.47-1.031 1.235V48.6h-1.797v-15h1.797zM757.49 48.6q-.157-.312-.25-1.11-1.266 1.313-3.016 1.313-1.562 0-2.562-.89-1-.891-1-2.25 0-1.641 1.25-2.547 1.265-.922 3.53-.922h1.766v-.828q0-.953-.578-1.516-.562-.562-1.656-.562-.969 0-1.625.5-.656.484-.656 1.171h-1.813q0-.78.563-1.515.562-.75 1.515-1.172.97-.438 2.125-.438 1.829 0 2.86.922 1.031.907 1.078 2.516v4.86q0 1.452.36 2.312v.156zm-3-1.375q.859 0 1.609-.437.766-.438 1.11-1.141v-2.172h-1.423q-3.312 0-3.312 1.938 0 .859.563 1.343.562.469 1.453.469m9.922-11.75v2.563h1.984v1.39h-1.985v6.547q0 .64.266.969.266.312.906.312.313 0 .86-.125V48.6q-.719.203-1.39.203-1.204 0-1.829-.734-.61-.735-.61-2.094v-6.547h-1.921v-1.39h1.922v-2.563zm13.796 11.844q.97 0 1.688-.578.719-.594.797-1.47h1.719q-.063.907-.641 1.735-.563.813-1.531 1.313-.953.484-2.032.484-2.156 0-3.437-1.437-1.266-1.453-1.266-3.953v-.297q0-1.547.563-2.75t1.625-1.86q1.062-.672 2.5-.672 1.781 0 2.953 1.063 1.187 1.062 1.265 2.766h-1.718q-.078-1.016-.781-1.672-.688-.672-1.72-.672-1.374 0-2.14 1-.75.984-.75 2.86v.343q0 1.828.75 2.812.75.985 2.156.985m5.282-4.094q0-1.562.609-2.797.61-1.25 1.688-1.922 1.093-.672 2.5-.672 2.156 0 3.484 1.5 1.344 1.485 1.344 3.97v.124q0 1.547-.594 2.781-.594 1.22-1.703 1.907-1.094.687-2.516.687-2.14 0-3.484-1.5-1.328-1.5-1.328-3.953zm1.812.203q0 1.766.813 2.828.828 1.063 2.187 1.063 1.375 0 2.188-1.078.812-1.078.812-3.016 0-1.75-.828-2.828t-2.187-1.078q-1.344 0-2.172 1.062-.813 1.063-.813 3.047m16.188 4.125q-1.047 1.25-3.094 1.25-1.688 0-2.578-.984-.875-.985-.89-2.907v-6.874h1.812v6.828q0 2.39 1.953 2.39 2.062 0 2.75-1.531v-7.687h1.812V48.6h-1.718zm6.437 1.047h-1.797v-15h1.797zm2.594-5.375q0-2.422 1.156-3.906 1.156-1.485 3.016-1.485t2.937 1.266v-5.5h1.813v15h-1.656l-.094-1.14q-1.078 1.343-3.016 1.343-1.828 0-3-1.5-1.156-1.515-1.156-3.937zm1.812.203q0 1.797.735 2.813.75 1.015 2.062 1.015 1.719 0 2.5-1.531v-4.86q-.797-1.5-2.484-1.5-1.328 0-2.078 1.032-.735 1.031-.735 3.031m23.985 2.688 2.031-8.078h1.813L837.084 48.6h-1.468l-2.563-8.016-2.5 8.016h-1.469l-3.062-10.562h1.797l2.078 7.906 2.469-7.907h1.453zm10.031 2.687q-2.14 0-3.5-1.406-1.344-1.422-1.344-3.781v-.344q0-1.563.594-2.797.61-1.234 1.688-1.937t2.343-.704q2.063 0 3.203 1.36 1.141 1.36 1.141 3.89v.75h-7.156q.031 1.563.906 2.532.875.953 2.219.953.969 0 1.625-.39.672-.392 1.172-1.032l1.093.86q-1.328 2.046-3.984 2.046m-.219-9.484q-1.093 0-1.843.797-.735.797-.907 2.234h5.282v-.14q-.079-1.376-.75-2.126-.657-.765-1.782-.765m11.39 3.906q0-2.422 1.157-3.906 1.156-1.485 3.016-1.485t2.937 1.266v-5.5h1.813v15h-1.656l-.094-1.14q-1.078 1.343-3.016 1.343-1.828 0-3-1.5-1.156-1.515-1.156-3.937zm1.813.203q0 1.797.735 2.813.75 1.015 2.062 1.015 1.719 0 2.5-1.531v-4.86q-.797-1.5-2.484-1.5-1.328 0-2.078 1.032-.735 1.031-.735 3.031m9.157-.203q0-1.562.609-2.797.61-1.25 1.688-1.922 1.093-.672 2.5-.672 2.156 0 3.484 1.5 1.344 1.485 1.344 3.97v.124q0 1.547-.594 2.781-.594 1.22-1.703 1.907-1.094.687-2.516.687-2.14 0-3.484-1.5-1.328-1.5-1.328-3.953zm1.812.203q0 1.766.813 2.828.828 1.063 2.187 1.063 1.375 0 2.188-1.078.812-1.078.812-3.016 0-1.75-.828-2.828t-2.187-1.078q-1.344 0-2.172 1.062-.813 1.063-.813 3.047m17.11-7.953v2.563h1.984v1.39h-1.985v6.547q0 .64.266.969.266.312.906.312.313 0 .86-.125V48.6q-.719.203-1.39.203-1.204 0-1.829-.734-.61-.735-.61-2.094v-6.547h-1.921v-1.39h1.922v-2.563zm4.078 7.75q0-1.562.609-2.797.61-1.25 1.688-1.922 1.093-.672 2.5-.672 2.156 0 3.484 1.5 1.344 1.485 1.344 3.97v.124q0 1.547-.594 2.781-.594 1.22-1.703 1.907-1.094.687-2.516.687-2.14 0-3.484-1.5-1.328-1.5-1.328-3.953zm1.812.203q0 1.766.813 2.828.828 1.063 2.187 1.063 1.375 0 2.188-1.078.812-1.078.812-3.016 0-1.75-.828-2.828t-2.187-1.078q-1.344 0-2.172 1.062-.813 1.063-.813 3.047M32.928 72.6h-1.797V62.038h1.797zm-1.953-13.375q0-.437.266-.734.28-.313.797-.313.53 0 .796.313.282.297.282.734 0 .438-.282.734-.265.297-.797.297-.515 0-.796-.297-.266-.297-.266-.734m6.688 2.813.046 1.171q1.172-1.375 3.141-1.375 2.219 0 3.016 1.703.53-.765 1.375-1.234.843-.469 2-.469 3.468 0 3.53 3.688V72.6H48.96v-6.969q0-1.14-.515-1.703-.516-.562-1.735-.562-1 0-1.672.609-.656.594-.765 1.61V72.6H42.46v-6.922q0-2.312-2.265-2.312-1.782 0-2.422 1.515V72.6H35.96V62.038zm25.234 5.39q0 2.422-1.11 3.906-1.093 1.47-2.984 1.47-1.922 0-3.031-1.235v5.093h-1.797V62.037h1.64l.094 1.172q1.094-1.375 3.063-1.375 1.906 0 3.016 1.438 1.109 1.437 1.109 4zm-1.813-.203q0-1.781-.765-2.812-.75-1.047-2.078-1.047-1.641 0-2.47 1.453v5.062q.813 1.438 2.485 1.438 1.297 0 2.063-1.032.765-1.03.765-3.062m8.985-3.578q-.407-.063-.875-.063-1.782 0-2.422 1.516v7.5h-1.797V62.038h1.75l.031 1.218q.89-1.422 2.516-1.422.531 0 .797.141zm1.422 3.578q0-1.562.609-2.797.61-1.25 1.688-1.922 1.093-.672 2.5-.672 2.156 0 3.484 1.5 1.344 1.485 1.344 3.97v.124q0 1.547-.594 2.781-.594 1.22-1.703 1.907-1.094.687-2.516.687-2.14 0-3.484-1.5-1.328-1.5-1.328-3.953zm1.812.203q0 1.766.813 2.828.828 1.063 2.187 1.063 1.375 0 2.188-1.078.812-1.079.812-3.016 0-1.75-.828-2.828t-2.187-1.078q-1.344 0-2.172 1.062-.813 1.063-.813 3.047m13.156 2.719 2.61-8.11h1.843L87.133 72.6h-1.376l-3.828-10.562h1.844zm10.891 2.656q-2.14 0-3.5-1.406-1.344-1.422-1.344-3.781v-.344q0-1.563.594-2.797.61-1.234 1.688-1.937t2.343-.704q2.063 0 3.203 1.36 1.141 1.36 1.141 3.89v.75h-7.156q.031 1.563.906 2.532.875.953 2.219.953.968 0 1.625-.39.672-.392 1.172-1.032l1.093.86q-1.328 2.046-3.984 2.046m-.219-9.484q-1.094 0-1.844.797-.734.796-.906 2.234h5.281v-.14q-.078-1.376-.75-2.126-.656-.765-1.78-.765m18.36 9.281q-.157-.312-.25-1.11-1.266 1.313-3.016 1.313-1.562 0-2.562-.89-1-.891-1-2.25 0-1.641 1.25-2.547 1.265-.922 3.53-.922h1.766v-.828q0-.954-.578-1.516-.562-.562-1.656-.562-.969 0-1.625.5-.656.484-.656 1.171h-1.813q0-.78.563-1.515.562-.75 1.515-1.172.97-.438 2.125-.438 1.828 0 2.86.922 1.031.907 1.078 2.516v4.86q0 1.452.36 2.312v.156zm-3-1.375q.859 0 1.609-.437.766-.438 1.11-1.141v-2.172h-1.422q-3.313 0-3.313 1.938 0 .859.563 1.343.562.469 1.453.469m7.03-4q0-2.422 1.157-3.906 1.156-1.485 3.016-1.485t2.937 1.266v-5.5h1.813v15h-1.656l-.094-1.14q-1.078 1.343-3.016 1.343-1.828 0-3-1.5-1.156-1.516-1.156-3.937zm1.813.203q0 1.797.735 2.813.75 1.015 2.062 1.015 1.719 0 2.5-1.531v-4.86q-.797-1.5-2.484-1.5-1.328 0-2.078 1.032-.735 1.031-.735 3.031m9.157-.203q0-1.562.609-2.797.61-1.25 1.688-1.922 1.093-.672 2.5-.672 2.156 0 3.484 1.5 1.344 1.485 1.344 3.97v.124q0 1.547-.594 2.781-.594 1.22-1.703 1.907-1.094.687-2.516.687-2.14 0-3.484-1.5-1.328-1.5-1.328-3.953zm1.812.203q0 1.766.813 2.828.828 1.063 2.187 1.063 1.375 0 2.188-1.078.812-1.079.812-3.016 0-1.75-.828-2.828t-2.187-1.078q-1.344 0-2.172 1.062-.813 1.063-.813 3.047m18.594 0q0 2.422-1.11 3.906-1.093 1.47-2.984 1.47-1.922 0-3.031-1.235v5.093h-1.797V62.037h1.64l.094 1.172q1.094-1.375 3.063-1.375 1.906 0 3.016 1.438 1.109 1.437 1.109 4zm-1.813-.203q0-1.781-.765-2.812-.75-1.047-2.078-1.047-1.641 0-2.47 1.453v5.062q.813 1.438 2.485 1.438 1.297 0 2.063-1.032.765-1.03.765-3.062m6.328-7.75v2.563h1.985v1.39h-1.984v6.547q0 .64.265.969.266.312.906.312.313 0 .86-.125V72.6q-.719.203-1.39.203-1.204 0-1.829-.734-.61-.735-.61-2.094v-6.547h-1.921v-1.39h1.922v-2.563zm6.516 13.125h-1.797V62.038h1.797zm-1.953-13.375q0-.437.266-.734.28-.313.796-.313.532 0 .797.313.282.297.282.734 0 .438-.282.734-.265.297-.797.297-.515 0-.796-.297-.266-.297-.266-.734m4.516 8q0-1.562.609-2.797.61-1.25 1.688-1.922 1.093-.672 2.5-.672 2.156 0 3.484 1.5 1.344 1.485 1.344 3.97v.124q0 1.547-.594 2.781-.594 1.22-1.703 1.907-1.094.687-2.516.687-2.14 0-3.484-1.5-1.328-1.5-1.328-3.953zm1.812.203q0 1.766.813 2.828.828 1.063 2.187 1.063 1.375 0 2.188-1.078.812-1.079.812-3.016 0-1.75-.828-2.828t-2.187-1.078q-1.344 0-2.172 1.062-.813 1.063-.813 3.047m11.375-5.39.063 1.328q1.203-1.532 3.156-1.532 3.36 0 3.375 3.782V72.6h-1.797v-7q-.016-1.14-.531-1.687-.5-.547-1.594-.547-.875 0-1.547.468-.656.47-1.031 1.235V72.6h-1.797V62.038zm11.406 6.562q.016-1.172.266-1.844t1-1.484l1.281-1.328q.813-.922.813-1.985 0-1.03-.547-1.609-.531-.578-1.547-.578-1 0-1.61.531-.593.516-.593 1.406h-1.813q.016-1.578 1.125-2.547 1.11-.984 2.891-.984 1.844 0 2.875 1 1.031.985 1.031 2.719 0 1.703-1.578 3.375l-1.078 1.047q-.703.797-.703 2.281zm-.078 3.094q0-.438.266-.735.281-.297.797-.297.531 0 .797.297.28.297.28.735 0 .437-.28.734-.266.281-.797.281-.516 0-.797-.28-.266-.298-.266-.735"/></svg>