<svg xmlns="http://www.w3.org/2000/svg" xml:space="preserve" fill="none" viewBox="0 0 677 356"><defs><clipPath id="q"><path fill="#fff" d="M0 0h600v371H0z"/></clipPath><clipPath id="p"><path fill="#fff" d="M0 0h600v371H0z"/></clipPath><clipPath id="o"><path fill="#fff" d="M0 0h600v371H0z"/></clipPath><clipPath id="n"><path fill="#fff" d="M0 0h600v371H0z"/></clipPath><clipPath id="m"><path fill="#fff" d="M0 0h600v371H0z"/></clipPath><clipPath id="l"><path fill="#fff" d="M0 0h600v371H0z"/></clipPath><clipPath id="k"><path fill="#fff" d="M0 0h600v371H0z"/></clipPath><clipPath id="h"><path fill="#fff" d="M0 0h600v371H0z"/></clipPath><clipPath id="g"><path fill="#fff" d="M0 0h600v371H0z"/></clipPath><clipPath id="e"><path fill="#fff" d="M0 0h600v371H0z"/></clipPath><clipPath id="c"><path fill="#fff" d="M0 0h600v371H0z"/></clipPath><clipPath id="a"><path fill="#fff" d="M0 0h600v371H0z"/></clipPath><mask id="b" width="445" height="281" x="137" y="54" maskUnits="userSpaceOnUse"><path fill="#fff" d="M137 54.9h444v280H137z"/></mask><mask id="d" width="445" height="281" x="137" y="54" maskUnits="userSpaceOnUse"><path fill="#fff" d="M137 54.9h444v280H137z"/></mask><mask id="f" width="445" height="281" x="137" y="54" maskUnits="userSpaceOnUse"><path fill="#fff" d="M137 54.9h444v280H137z"/></mask></defs><g fill="#000"><g clip-path="url(#a)" mask="url(#b)" transform="translate(9.283 -13.38)scale(1.058)"><path d="M137 138V84h442c1.1 0 2 .895 2 2v50c0 1.1-.895 2-2 2z"/></g><g clip-path="url(#c)" mask="url(#d)" transform="translate(9.283 -13.38)scale(1.058)"><path d="M137 222v-54h307c1.1 0 2 .895 2 2v50c0 1.1-.895 2-2 2z"/></g><g clip-path="url(#e)" mask="url(#f)" transform="translate(9.283 -13.38)scale(1.058)"><path d="M137 305v-54h177c1.1 0 2 .895 2 2v50c0 1.1-.895 2-2 2z"/></g></g><g fill="#fff"><path d="m530 111 .438-4.25h4.38v1h-3.45l-.265 2.33q.64-.375 1.44-.375c.771 0 1.39.26 1.84.781.458.511.688 1.2.688 2.08s-.24 1.57-.719 2.08q-.704.766-1.98.766c-.75 0-1.36-.208-1.84-.625q-.72-.64-.813-1.75h1.02q.11.734.531 1.11c.421.376.651.375 1.11.375q.75 0 1.19-.515.438-.516.437-1.42c0-.573-.156-1.03-.468-1.38q-.47-.516-1.25-.516-.704 0-1.11.297l-.281.235zm11.7-2.03q0 .64-.344 1.14c-.344.5-.531.594-.906.781q.655.282 1.05.844.391.547.391 1.25 0 1.094-.75 1.77-.735.656-1.95.656c-.823 0-1.48-.219-1.98-.656q-.735-.674-.735-1.77 0-.703.375-1.25.374-.562 1.05-.844a2.24 2.24 0 0 1-.891-.781 2.04 2.04 0 0 1-.328-1.14c0-.719.229-1.29.688-1.7q.688-.64 1.83-.64c.75 0 1.35.213 1.81.64q.704.627.704 1.7zm-.891 3.98q0-.718-.453-1.16-.452-.454-1.19-.454-.733 0-1.19.454-.438.437-.438 1.17 0 .718.438 1.14.438.406 1.2.406.75 0 1.19-.422.438-.421.438-1.14zm-1.62-5.44q-.64 0-1.05.407-.39.39-.391 1.08 0 .64.391 1.05.39.406 1.03.406.656 0 1.05-.406.391-.406.391-1.05 0-.657-.406-1.06a1.36 1.36 0 0 0-1.02-.422zm5.47 1.42.031.703c.458-.541 1.08-.812 1.88-.812q1.329-.002 1.81 1.02.313-.453.813-.734.517-.28 1.2-.281c1.4 0 2.1.734 2.12 2.2v4.25h-1.08v-4.19q0-.671-.313-1-.311-.343-1.05-.343-.609 0-1.02.359-.39.36-.453.969v4.2h-1.08v-4.16c0-.917-.453-1.38-1.36-1.38q-1.061 0-1.45.906v4.62h-1.09v-6.34zm18.5 6.34h-5.59v-.781l2.95-3.28q.657-.752.906-1.2.25-.468.25-.968 0-.673-.406-1.09-.39-.438-1.08-.438-.797 0-1.25.469-.453.453-.453 1.28h-1.08q0-1.188.75-1.91c.51-.489 1.19-.734 2.03-.734q1.202 0 1.89.625t.687 1.67c0 .833-.536 1.83-1.61 3l-2.28 2.47h4.28zm6.76-3.64c0 1.27-.218 2.22-.656 2.84-.427.615-1.1.922-2.03.922q-1.36 0-2.02-.906-.656-.906-.687-2.72v-1.44c0-1.26.213-2.19.64-2.8q.656-.922 2.05-.922c.917 0 1.59.297 2.03.89q.656.875.671 2.72zm-1.09-1.48c0-.917-.131-1.58-.391-2q-.374-.64-1.22-.641-.828 0-1.22.641c-.25.417-.375 1.06-.375 1.92v1.73q0 1.375.39 2.05.406.656 1.22.656.796 0 1.19-.625c.261-.416.396-1.07.407-1.95zm6.55 3.44a.76.76 0 0 0-.344-.671q-.327-.25-1.16-.422-.812-.172-1.3-.422c-.488-.25-.563-.359-.719-.578a1.5 1.5 0 0 1-.219-.813q0-.782.656-1.31.656-.547 1.69-.547c.719 0 1.3.187 1.73.562q.672.547.672 1.41h-1.08q0-.438-.391-.75-.375-.328-.937-.328-.593 0-.938.265a.79.79 0 0 0-.328.656q0 .391.313.594.313.204 1.12.391.813.171 1.31.422.5.249.735.609.25.36.25.859c0 .573-.23 1.03-.688 1.38q-.671.516-1.75.516-.765 0-1.36-.266a2.25 2.25 0 0 1-.906-.765 1.83 1.83 0 0 1-.329-1.05h1.08q.03.546.437.875.406.312 1.08.312.61 0 .985-.25.375-.249.375-.672z" clip-path="url(#g)" transform="translate(9.283 -13.38)scale(1.058)"/><path d="M398 197h1.19v.875H398v1.98h-1.08v-1.98h-3.89v-.641l3.81-5.91H398zm-3.73 0h2.66v-4.19l-.141.235zm11.5-.782c0 1.27-.218 2.22-.656 2.84-.427.615-1.1.922-2.03.922q-1.36 0-2.02-.906-.656-.905-.687-2.72v-1.44c0-1.26.213-2.19.64-2.8q.656-.922 2.05-.922c.917 0 1.59.297 2.03.89q.657.876.672 2.72zm-1.09-1.48c0-.917-.131-1.58-.391-2q-.375-.64-1.22-.641-.827 0-1.22.641c-.25.417-.375 1.06-.375 1.92v1.73q0 1.375.391 2.05.406.656 1.22.656.796 0 1.19-.625c.261-.416.396-1.07.407-1.95zm3.88-1.22.031.703c.458-.541 1.08-.812 1.88-.812q1.329-.001 1.81 1.02.313-.452.813-.734.517-.28 1.2-.281c1.4 0 2.1.734 2.12 2.2v4.25h-1.08v-4.19q0-.671-.313-1-.311-.343-1.05-.343-.608 0-1.02.359-.392.36-.453.969v4.2h-1.08v-4.16c0-.917-.454-1.38-1.36-1.38q-1.061 0-1.45.906v4.62h-1.09v-6.34zm14.4 1.55h.813q.78-.015 1.22-.406.438-.392.438-1.06 0-1.5-1.5-1.5-.705 0-1.12.407-.406.406-.406 1.06h-1.09a2.2 2.2 0 0 1 .734-1.69q.75-.672 1.89-.672 1.202 0 1.89.64t.688 1.78q0 .562-.359 1.08-.36.516-.985.781.703.22 1.08.734.391.515.391 1.27 0 1.14-.75 1.83-.75.672-1.95.672-1.186 0-1.95-.656-.75-.656-.75-1.72h1.09q0 .671.438 1.08c.438.409.687.406 1.19.406q.781 0 1.19-.406.422-.421.422-1.19 0-.736-.453-1.12-.453-.407-1.33-.422h-.813zm7 0h.813q.78-.015 1.22-.406.438-.392.438-1.06 0-1.5-1.5-1.5-.705 0-1.12.407-.406.406-.406 1.06h-1.09a2.2 2.2 0 0 1 .734-1.69q.75-.672 1.89-.672 1.202 0 1.89.64t.688 1.78q0 .562-.359 1.08-.36.516-.985.781.703.22 1.08.734.391.515.391 1.27 0 1.14-.75 1.83-.75.672-1.95.672-1.186 0-1.95-.656-.75-.656-.75-1.72h1.09q0 .671.438 1.08c.438.409.687.406 1.19.406q.781 0 1.19-.406.422-.421.422-1.19 0-.736-.453-1.12-.453-.407-1.33-.422h-.813zm9.23 3.11a.76.76 0 0 0-.343-.671q-.328-.25-1.16-.422-.811-.172-1.3-.422-.485-.25-.719-.578a1.5 1.5 0 0 1-.219-.813q0-.782.656-1.31.656-.547 1.69-.547c.719 0 1.3.187 1.73.562q.672.547.672 1.41h-1.08q0-.438-.391-.75-.375-.328-.937-.328-.594 0-.938.265a.79.79 0 0 0-.328.656q0 .392.313.594.313.204 1.12.391.813.171 1.31.422.5.249.735.609.25.36.25.859c0 .573-.23 1.03-.688 1.38q-.671.516-1.75.516-.765 0-1.36-.266a2.26 2.26 0 0 1-.907-.765 1.84 1.84 0 0 1-.328-1.05h1.08q.031.546.438.875.406.312 1.08.312.609 0 .984-.25.375-.249.375-.672z" clip-path="url(#h)" transform="translate(9.283 -13.38)scale(1.058)"/><path d="M270 282h-5.59v-.781l2.95-3.28q.655-.752.906-1.2.25-.468.25-.968 0-.673-.406-1.09-.39-.438-1.08-.438-.796 0-1.25.469-.453.453-.453 1.28h-1.08q0-1.188.75-1.91.768-.734 2.03-.734c.803 0 1.43.208 1.89.625q.688.625.688 1.67c0 .833-.537 1.83-1.61 3l-2.28 2.47h4.28zm2.98-4.8h.812q.781-.016 1.22-.406.438-.392.437-1.06 0-1.5-1.5-1.5-.703 0-1.12.407-.405.406-.406 1.06h-1.09q0-1.015.735-1.69.75-.672 1.89-.672 1.202 0 1.89.64c.688.64.687 1.02.687 1.78q0 .562-.359 1.08c-.359.518-.568.604-.984.781q.702.22 1.08.734.39.515.39 1.27 0 1.14-.75 1.83-.75.672-1.95.672-1.186 0-1.95-.656-.75-.656-.75-1.72h1.09q0 .671.437 1.08.438.406 1.19.406.781 0 1.19-.406.423-.421.422-1.19 0-.736-.453-1.12-.453-.407-1.33-.422h-.812zm6.56-1.55.031.703c.459-.541 1.08-.812 1.88-.812q1.33-.001 1.81 1.02.312-.452.812-.734.517-.28 1.2-.281c1.4 0 2.1.734 2.12 2.2v4.25h-1.08v-4.19q0-.671-.312-1-.311-.343-1.05-.343-.608 0-1.02.359-.39.36-.453.969v4.2h-1.08v-4.16c0-.917-.453-1.38-1.36-1.38q-1.062 0-1.45.906v4.62h-1.09v-6.34zm14.4 1.55h.812q.781-.016 1.22-.406.437-.392.437-1.06 0-1.5-1.5-1.5-.703 0-1.12.407-.405.406-.406 1.06h-1.09q0-1.015.735-1.69.75-.672 1.89-.672 1.202 0 1.89.64c.688.64.687 1.02.687 1.78q0 .562-.359 1.08c-.359.518-.568.604-.984.781q.702.22 1.08.734.39.515.39 1.27 0 1.14-.75 1.83-.75.672-1.95.672-1.186 0-1.95-.656-.75-.656-.75-1.72h1.09q0 .671.437 1.08.437.406 1.19.406.781 0 1.19-.406.422-.421.422-1.19 0-.736-.453-1.12-.453-.407-1.33-.422h-.812zm8.98 4.8h-1.08v-7.22l-2.19.797v-.984l3.11-1.17h.156zm7.25-1.69a.76.76 0 0 0-.344-.671q-.327-.25-1.16-.422-.812-.172-1.3-.422c-.488-.25-.562-.359-.719-.578a1.5 1.5 0 0 1-.218-.813q0-.782.656-1.31.655-.547 1.69-.547 1.08 0 1.74.562.672.547.672 1.41h-1.08q0-.438-.39-.75-.375-.328-.938-.328-.593 0-.937.265a.79.79 0 0 0-.328.656q0 .392.312.594.315.204 1.12.391.813.171 1.31.422.5.249.734.609.25.36.25.859c0 .573-.229 1.03-.687 1.38q-.671.516-1.75.516a3.3 3.3 0 0 1-1.36-.266q-.577-.28-.906-.765c-.329-.485-.328-.672-.328-1.05h1.08q.032.546.437.875.406.312 1.08.312.609 0 .984-.25.375-.249.375-.672z" clip-path="url(#k)" transform="translate(9.283 -13.38)scale(1.058)"/></g><g fill="#000"><path d="M53 98.1v-1.45h3.73v3.42q-.547.531-1.58.938c-.688.26-1.39.39-2.09.39q-1.342 0-2.36-.562a3.55 3.55 0 0 1-1.5-1.61 5.3 5.3 0 0 1-.5-2.3q0-1.344.562-2.38a3.86 3.86 0 0 1 1.64-1.61q.829-.422 2.06-.422c1.06 0 1.89.224 2.48.672q.907.671 1.17 1.84l-1.72.328a1.8 1.8 0 0 0-.688-.984q-.5-.375-1.25-.375c-.76 0-1.36.24-1.81.719q-.672.717-.672 2.14c0 1.02.224 1.79.672 2.3q.688.75 1.8.75.548 0 1.09-.203.546-.219.938-.516v-1.09zm3.98-3.91v-1.53h1.66v1.53zm0 7.06v-6.22h1.66v6.22zm5.86-6.22v1.31h-1.12v2.5q0 .765.031.891a.42.42 0 0 0 .141.219.5.5 0 0 0 .281.078q.234 0 .656-.172l.141 1.28q-.562.25-1.3.25-.437 0-.797-.14-.36-.157-.53-.39a1.9 1.9 0 0 1-.235-.642q-.047-.296-.047-1.17v-2.7h-.75v-1.31h.75v-1.23l1.66-.969v2.2zm1.16 6.22v-8.59h1.73v3.39h3.41v-3.39h1.73v8.59h-1.73V97.5h-3.41v3.75zm12.1 0v-.938a2.36 2.36 0 0 1-.891.797q-.547.282-1.17.281c-.623-.001-.792-.088-1.12-.265a1.64 1.64 0 0 1-.719-.782q-.219-.5-.219-1.37v-3.94h1.64v2.86q0 1.311.094 1.61c.094.299.172.354.328.469q.25.171.609.172.42 0 .75-.234.343-.234.469-.578t.125-1.67v-2.62h1.64v6.22zm2.84 0v-8.59h1.64v3.09c.51-.573 1.11-.859 1.81-.859.75 0 1.38.276 1.88.828q.75.814.75 2.36c0 1.06-.255 1.88-.766 2.45-.51.573-1.12.859-1.84.859q-.53 0-1.05-.265a2.5 2.5 0 0 1-.891-.797v.922zM80.56 98c0 .646.104 1.12.312 1.44q.421.657 1.14.656.53 0 .922-.468.39-.468.391-1.47 0-1.063-.391-1.53a1.23 1.23 0 0 0-1-.484q-.579 0-.984.469-.39.454-.391 1.39zm16.2 3.25h-1.89l-.75-1.95h-3.44l-.703 1.95h-1.84l3.34-8.59h1.84zm-3.2-3.41-1.17-3.19-1.17 3.19zm8.86-.984-1.61.297q-.094-.484-.391-.719-.28-.25-.734-.25-.625 0-1 .422-.36.422-.359 1.42 0 1.11.375 1.56c.375.45.583.454 1 .454q.47 0 .766-.266c.296-.266.339-.484.422-.922l1.62.281c-.167.74-.49 1.3-.969 1.69q-.72.562-1.92.562-1.36 0-2.17-.859-.812-.86-.812-2.39c0-1.02.271-1.82.812-2.39s1.28-.859 2.2-.859c.76 0 1.36.162 1.81.484s.766.818.953 1.48zm4.44-1.83v1.31h-1.12v2.5q0 .765.031.891c.031.126.068.156.141.219a.5.5 0 0 0 .281.078q.234 0 .656-.172l.141 1.28q-.562.25-1.3.25-.438 0-.797-.14-.36-.157-.531-.39a1.9 1.9 0 0 1-.235-.642q-.047-.296-.047-1.17v-2.7h-.75v-1.31h.75V93.8l1.66-.969v2.2zm1.14-.844v-1.53h1.66v1.53zm0 7.06v-6.22h1.66v6.22zm2.62-3.2q0-.814.407-1.58.406-.782 1.14-1.17c.49-.271 1.04-.406 1.66-.406q1.409 0 2.31.922c.604.604.906 1.38.906 2.31s-.307 1.72-.922 2.34c-.604.615-1.36.922-2.28.922q-.86 0-1.64-.39a2.7 2.7 0 0 1-1.17-1.13q-.407-.75-.407-1.83zm1.69.094q0 .924.437 1.42.437.485 1.08.485.656 0 1.08-.485.437-.499.437-1.44 0-.908-.437-1.39a1.35 1.35 0 0 0-1.08-.5q-.64 0-1.08.5-.437.484-.437 1.41m11.3 3.11h-1.64v-3.17c0-.677-.037-1.11-.109-1.31a.8.8 0 0 0-.344-.453.92.92 0 0 0-.563-.172q-.437 0-.781.234-.328.234-.453.625c-.125.39-.125.74-.125 1.44v2.81h-1.66v-6.22h1.53v.906q.814-1.049 2.06-1.05.532 0 .985.203.453.188.687.5.235.297.313.688.094.376.094 1.09zm.765-1.78 1.66-.25q.11.485.422.734.328.25.907.25.64 0 .953-.234a.54.54 0 0 0 .218-.438.46.46 0 0 0-.109-.312q-.125-.125-.547-.22c-1.33-.291-2.18-.556-2.53-.796q-.734-.514-.734-1.41 0-.813.625-1.36c.427-.365 1.09-.547 1.98-.547q1.28 0 1.91.422.625.405.86 1.22l-1.56.28a.9.9 0 0 0-.375-.546q-.28-.203-.797-.203-.64 0-.922.188a.384.384 0 0 0-.031.64q.219.156 1.53.453 1.33.297 1.84.734.516.438.516 1.22c0 .573-.24 1.07-.719 1.48q-.702.609-2.11.609c-.844 0-1.52-.172-2.02-.515a2.4 2.4 0 0 1-.969-1.41z" clip-path="url(#l)" transform="translate(9.283 -13.38)scale(1.058)"/><path d="M97.2 128v1.53h-5.78q.094-.875.562-1.64.468-.783 1.86-2.06c.74-.688 1.19-1.16 1.36-1.41q.344-.514.344-1.02 0-.547-.297-.844c-.297-.297-.469-.297-.812-.297q-.516 0-.828.313-.296.313-.344 1.03l-1.64-.156c.094-.907.396-1.56.906-1.95q.783-.593 1.94-.593 1.28 0 2 .687c.49.459.734 1.03.734 1.7q0 .579-.219 1.11a4.4 4.4 0 0 1-.656 1.09q-.296.376-1.08 1.09-.782.719-.984.953-.203.236-.344.453zm6.5 1.53-2.52-6.22h1.74l1.17 3.17.343 1.06q.126-.406.157-.531l.187-.531 1.17-3.17h1.7l-2.47 6.22zm9.8-3.16 1.67.532c-.25.937-.677 1.64-1.28 2.09-.605.448-1.36.672-2.28.672-1.15 0-2.09-.385-2.83-1.16q-1.092-1.173-1.09-3.2 0-2.145 1.11-3.33 1.107-1.189 2.92-1.19c1.05 0 1.91.308 2.56.922q.579.563.875 1.59l-1.72.406q-.156-.671-.64-1.05-.485-.39-1.17-.39-.952 0-1.55.687-.594.673-.594 2.22 0 1.62.578 2.31.595.688 1.53.688.687 0 1.19-.438.5-.436.719-1.38zm2.5 3.16v-8.59h2.78c1.05 0 1.74.042 2.06.125q.735.203 1.23.859.5.64.5 1.66 0 .797-.297 1.34a2.4 2.4 0 0 1-.719.844 2.7 2.7 0 0 1-.906.406c-.406.084-1 .125-1.8.125h-1.12v3.24zm1.73-7.14v2.44h.953q1.015 0 1.36-.125a1.14 1.14 0 0 0 .75-1.094q0-.47-.281-.766a1.22 1.22 0 0 0-.704-.39q-.298-.063-1.23-.063zm6.25-1.45h1.74v4.66q0 1.11.062 1.44.11.531.531.843.422.313 1.16.313.734 0 1.11-.297c.376-.297.401-.443.453-.734q.078-.438.078-1.47v-4.75h1.74v4.52q0 1.545-.141 2.19c-.141.645-.271.787-.531 1.08q-.374.438-1.02.703-.625.25-1.64.25-1.235 0-1.88-.281a2.7 2.7 0 0 1-1-.734 2.5 2.5 0 0 1-.485-.953q-.172-.735-.172-2.19z" clip-path="url(#m)" transform="translate(9.283 -13.38)scale(1.058)"/><path d="M39 176h1.73v4.66q0 1.11.063 1.44.109.532.53.844t1.16.312q.735 0 1.11-.297.375-.296.453-.734.08-.437.079-1.47v-4.75h1.73v4.52q0 1.545-.141 2.19a2.35 2.35 0 0 1-.531 1.08q-.375.437-1.02.703-.626.25-1.64.25-1.235 0-1.88-.282a2.7 2.7 0 0 1-1-.734 2.5 2.5 0 0 1-.484-.953q-.171-.735-.172-2.19zm7.94 8.59V176h1.64v3.09c.51-.573 1.11-.859 1.81-.859.75 0 1.38.276 1.88.828q.75.814.75 2.36c0 1.06-.255 1.88-.766 2.45-.51.573-1.12.86-1.84.86q-.53 0-1.05-.266a2.5 2.5 0 0 1-.891-.797v.922zm1.62-3.25c0 .646.104 1.12.312 1.44q.422.656 1.14.656.53 0 .922-.469.39-.468.391-1.47 0-1.063-.391-1.53a1.23 1.23 0 0 0-1-.484q-.579 0-.984.468-.39.454-.391 1.39zm5.44-3.81V176h1.66v1.53zm0 7.06v-6.22h1.66v6.22zm8.42-4.39-1.61.297q-.094-.484-.391-.718-.282-.25-.734-.25-.625 0-1 .421-.36.424-.359 1.42 0 1.11.375 1.56c.375.45.583.453 1 .453q.468 0 .766-.266c.298-.266.338-.484.422-.922l1.62.282q-.25 1.107-.969 1.69-.72.563-1.92.563-1.36 0-2.17-.86-.812-.86-.812-2.39c0-1.53.271-1.82.812-2.39.542-.573 1.28-.859 2.2-.859.76 0 1.36.161 1.81.484s.766.818.953 1.48zm1.58 4.39V176h1.66v8.59zm2.62-3.2q0-.814.406-1.58a2.7 2.7 0 0 1 1.14-1.17c.49-.271 1.04-.406 1.66-.406q1.408 0 2.31.922c.604.604.906 1.38.906 2.31q0 1.408-.922 2.34c-.604.614-1.36.922-2.28.922a3.6 3.6 0 0 1-1.64-.391 2.7 2.7 0 0 1-1.17-1.12q-.406-.75-.406-1.83zm1.69.094q0 .923.438 1.42.437.484 1.08.484a1.37 1.37 0 0 0 1.08-.484q.438-.5.438-1.44 0-.908-.438-1.39a1.35 1.35 0 0 0-1.08-.5q-.64 0-1.08.5-.438.484-.438 1.41m9.78 3.11v-.937a2.36 2.36 0 0 1-.891.796q-.547.282-1.17.282c-.623 0-.792-.089-1.12-.266a1.63 1.63 0 0 1-.719-.781q-.219-.499-.219-1.38v-3.94h1.64v2.86q0 1.311.094 1.61c.094.299.172.354.328.469q.25.172.609.172.42 0 .75-.235.343-.234.469-.578t.125-1.67v-2.62h1.64v6.22zm8.61 0h-1.52v-.922q-.39.548-.906.813a2.4 2.4 0 0 1-1.05.25q-1.077 0-1.84-.86-.75-.875-.75-2.42c0-1.05.245-1.85.734-2.39q.75-.828 1.89-.828 1.034 0 1.8.859v-3.09h1.64zm-4.39-3.25c0 .667.094 1.15.281 1.44q.39.656 1.11.656.563 0 .953-.485.406-.484.406-1.45 0-1.064-.391-1.53a1.19 1.19 0 0 0-.984-.484q-.579 0-.984.468-.39.47-.391 1.39zm8.7 3.25v-8.59h3.66c.917 0 1.58.078 2 .235q.625.234 1 .828c.375.594.375.844.375 1.34q0 .966-.578 1.61-.562.625-1.69.781.562.328.922.735.375.39.984 1.39l1.06 1.67h-2.08l-1.25-1.88c-.448-.667-.755-1.08-.922-1.25a1.3 1.3 0 0 0-.531-.359q-.266-.11-.859-.11h-.359v3.59zm1.73-4.95h1.28c.833 0 1.35-.036 1.56-.109s.37-.193.484-.36a1.1 1.1 0 0 0 .188-.656q0-.421-.234-.688-.234-.265-.656-.343-.218-.032-1.27-.032h-1.36zm10.3 4.95v-.937a2.36 2.36 0 0 1-.891.796 2.5 2.5 0 0 1-1.17.282q-.624 0-1.13-.266a1.63 1.63 0 0 1-.719-.781q-.219-.499-.219-1.38v-3.94h1.64v2.86q0 1.311.093 1.61a.9.9 0 0 0 .329.469q.249.172.609.172.422 0 .75-.235.343-.234.469-.578t.125-1.67v-2.62h1.64v6.22zm8.56 0h-1.64v-3.17c0-.677-.037-1.11-.109-1.31a.8.8 0 0 0-.344-.453.92.92 0 0 0-.563-.172q-.437 0-.781.234-.329.234-.453.625-.125.39-.125 1.44v2.81h-1.66v-6.22h1.53v.907q.814-1.048 2.06-1.05.532 0 .985.203.453.188.687.5.235.297.313.687.093.376.094 1.09zm7 0h-1.64v-3.17c0-.677-.037-1.11-.109-1.31a.8.8 0 0 0-.344-.453.92.92 0 0 0-.563-.172q-.437 0-.781.234-.329.234-.453.625-.125.39-.125 1.44v2.81h-1.66v-6.22h1.53v.907q.814-1.048 2.06-1.05.532 0 .985.203.453.188.687.5.235.297.313.687.093.376.094 1.09zm4.95-1.98 1.64.281c-.208.604-.541 1.06-1 1.38-.458.312-1.03.469-1.7.469-1.08 0-1.88-.354-2.41-1.06-.417-.562-.625-1.28-.625-2.14 0-1.03.271-1.84.812-2.42.542-.584 1.22-.875 2.05-.875.927 0 1.66.307 2.19.922q.812.908.765 2.8h-4.12q.032.735.407 1.14c.375.405.567.406.953.406q.375 0 .64-.203.266-.219.407-.687zm.093-1.66q-.015-.719-.375-1.09a1.12 1.12 0 0 0-.859-.375q-.531 0-.891.39-.343.406-.343 1.08zm4.88 3.64h-1.64v-6.22h1.53v.875q.39-.624.703-.812.313-.204.703-.203.564 0 1.09.312l-.516 1.42q-.422-.266-.765-.266a.87.87 0 0 0-.594.204q-.234.188-.375.687c-.094.323-.141 1.02-.141 2.08z" clip-path="url(#n)" transform="translate(9.283 -13.38)scale(1.058)"/><path d="M97.2 211v1.53h-5.78q.094-.875.562-1.64c.312-.52.932-1.21 1.86-2.06.74-.688 1.19-1.16 1.36-1.41q.344-.515.344-1.02 0-.547-.297-.844c-.297-.297-.469-.297-.812-.297q-.516 0-.828.313-.296.313-.344 1.03l-1.64-.156c.094-.906.396-1.56.906-1.95q.783-.594 1.94-.594 1.28 0 2 .688c.49.458.734 1.03.734 1.7q0 .578-.219 1.11a4.4 4.4 0 0 1-.656 1.09q-.296.375-1.08 1.09-.782.718-.984.953-.203.234-.344.453zm6.5 1.53-2.52-6.22h1.74l1.17 3.17.343 1.06q.126-.406.157-.532l.187-.531 1.17-3.17h1.7l-2.47 6.22zm9.8-3.16 1.67.531c-.25.938-.677 1.64-1.28 2.09-.605.448-1.36.672-2.28.672-1.15 0-2.09-.386-2.83-1.16q-1.092-1.173-1.09-3.2 0-2.145 1.11-3.33 1.107-1.188 2.92-1.19c1.05 0 1.91.307 2.56.922q.579.563.875 1.59l-1.72.407q-.156-.671-.64-1.05-.485-.391-1.17-.391-.952 0-1.55.688-.594.673-.594 2.22c0 1.08.193 1.86.578 2.31q.595.687 1.53.687.687 0 1.19-.437c.503-.437.573-.75.719-1.38zm2.5 3.16v-8.59h2.78c1.05 0 1.74.042 2.06.125q.735.203 1.23.86.5.64.5 1.66 0 .797-.297 1.34a2.4 2.4 0 0 1-.719.843 2.7 2.7 0 0 1-.906.407c-.406.083-1 .125-1.8.125h-1.12v3.23zm1.73-7.14v2.44h.953q1.015 0 1.36-.125a1.13 1.13 0 0 0 .547-.422q.203-.297.203-.672 0-.468-.281-.765a1.2 1.2 0 0 0-.704-.391q-.298-.063-1.23-.063zm6.25-1.45h1.74v4.66q0 1.11.062 1.44.11.531.531.844t1.16.312q.734 0 1.11-.297.375-.296.453-.734c.078-.438.078-.781.078-1.47v-4.75h1.74v4.52q0 1.545-.141 2.19a2.35 2.35 0 0 1-.531 1.08q-.374.437-1.02.703-.625.25-1.64.25-1.235 0-1.88-.282a2.7 2.7 0 0 1-1-.734 2.5 2.5 0 0 1-.485-.953q-.172-.735-.172-2.19z" clip-path="url(#o)" transform="translate(9.283 -13.38)scale(1.058)"/><path d="M39 260h1.73v4.66q0 1.11.063 1.44.109.53.53.844.421.312 1.16.312.735 0 1.11-.297c.375-.297.401-.442.453-.734q.08-.437.079-1.47v-4.75h1.73v4.52q0 1.545-.141 2.19a2.35 2.35 0 0 1-.531 1.08q-.375.438-1.02.704-.626.25-1.64.25-1.235 0-1.88-.282a2.7 2.7 0 0 1-1-.734 2.5 2.5 0 0 1-.484-.953q-.171-.735-.172-2.19zm7.94 8.59V260h1.64v3.09c.51-.573 1.11-.859 1.81-.859.75 0 1.38.276 1.88.828q.75.813.75 2.36c0 1.06-.255 1.88-.766 2.45-.51.573-1.12.86-1.84.86q-.53 0-1.05-.266a2.5 2.5 0 0 1-.891-.797v.922zm1.62-3.25c0 .646.104 1.12.312 1.44q.422.657 1.14.657.53 0 .922-.469.39-.469.391-1.47 0-1.064-.391-1.53a1.23 1.23 0 0 0-1-.484q-.579 0-.984.468-.39.454-.391 1.39zm5.44-3.81V260h1.66v1.53zm0 7.06v-6.22h1.66v6.22zm8.42-4.39-1.61.297q-.094-.484-.391-.719-.282-.25-.734-.25-.625 0-1 .422-.36.423-.359 1.42 0 1.11.375 1.56c.375.45.583.453 1 .453q.468 0 .766-.266c.298-.266.338-.484.422-.922l1.62.282q-.25 1.107-.969 1.69-.72.563-1.92.563-1.36 0-2.17-.86-.812-.86-.812-2.39c0-1.02.271-1.82.812-2.39.542-.573 1.28-.859 2.2-.859.76 0 1.36.161 1.81.484s.766.818.953 1.48zm1.58 4.39V260h1.66v8.59zm2.62-3.2q0-.814.406-1.58a2.7 2.7 0 0 1 1.14-1.17c.49-.271 1.04-.406 1.66-.406q1.408 0 2.31.921c.604.605.906 1.38.906 2.31 0 .937-.307 1.72-.922 2.34-.604.614-1.36.922-2.28.922q-.86 0-1.64-.391a2.7 2.7 0 0 1-1.17-1.12q-.406-.75-.406-1.83zm1.69.094q0 .923.438 1.42.437.485 1.08.485.656 0 1.08-.485.438-.499.438-1.44c0-.604-.146-1.07-.438-1.39a1.35 1.35 0 0 0-1.08-.5q-.64 0-1.08.5-.438.484-.438 1.41m9.78 3.11v-.938a2.36 2.36 0 0 1-.891.797q-.547.282-1.17.282c-.623 0-.792-.089-1.12-.266a1.64 1.64 0 0 1-.719-.781q-.219-.5-.219-1.38v-3.94h1.64v2.86q0 1.311.094 1.61c.094.299.172.354.328.469q.25.171.609.172.42 0 .75-.235.343-.234.469-.578t.125-1.67v-2.62h1.64v6.22zm8.61 0h-1.52v-.922q-.39.548-.906.813a2.4 2.4 0 0 1-1.05.25q-1.077 0-1.84-.86-.75-.875-.75-2.42c0-1.05.245-1.85.734-2.39q.75-.828 1.89-.828 1.034 0 1.8.859v-3.09h1.64zm-4.39-3.25c0 .667.094 1.15.281 1.44q.39.657 1.11.657.563 0 .953-.485.406-.485.406-1.45 0-1.064-.391-1.53a1.19 1.19 0 0 0-.984-.484q-.579 0-.984.468-.39.47-.391 1.39zm8.7 3.25v-8.59h3.66c.917 0 1.58.078 2 .235q.625.234 1 .828c.375.594.375.843.375 1.34q0 .967-.578 1.61-.562.625-1.69.781.562.329.922.734.375.391.984 1.39l1.06 1.67h-2.08l-1.25-1.88c-.448-.667-.755-1.08-.922-1.25a1.3 1.3 0 0 0-.531-.359q-.266-.11-.859-.11h-.359v3.59zm1.73-4.95h1.28c.833 0 1.35-.037 1.56-.11a.94.94 0 0 0 .484-.359 1.1 1.1 0 0 0 .188-.656q0-.422-.234-.688t-.656-.343q-.218-.032-1.27-.032h-1.36zm10.3 4.95v-.938a2.36 2.36 0 0 1-.891.797 2.5 2.5 0 0 1-1.17.282q-.624 0-1.13-.266a1.64 1.64 0 0 1-.719-.781q-.219-.5-.219-1.38v-3.94h1.64v2.86q0 1.311.093 1.61a.9.9 0 0 0 .329.469q.249.171.609.172.422 0 .75-.235.343-.234.469-.578t.125-1.67v-2.62h1.64v6.22zm8.56 0h-1.64v-3.17c0-.677-.037-1.11-.109-1.31a.8.8 0 0 0-.344-.454.93.93 0 0 0-.563-.171q-.437 0-.781.234-.329.235-.453.625c-.124.39-.125.74-.125 1.44v2.81h-1.66v-6.22h1.53v.906c.542-.697 1.23-1.05 2.06-1.05q.532 0 .985.203.453.187.687.5.235.297.313.687.093.376.094 1.09zm7 0h-1.64v-3.17c0-.677-.037-1.11-.109-1.31a.8.8 0 0 0-.344-.454.93.93 0 0 0-.563-.171q-.437 0-.781.234-.329.235-.453.625c-.124.39-.125.74-.125 1.44v2.81h-1.66v-6.22h1.53v.906c.542-.697 1.23-1.05 2.06-1.05q.532 0 .985.203.453.187.687.5.235.297.313.687.093.376.094 1.09zm4.95-1.98 1.64.281c-.208.604-.541 1.06-1 1.38-.458.312-1.03.469-1.7.469-1.08 0-1.88-.355-2.41-1.06-.417-.562-.625-1.28-.625-2.14 0-1.03.271-1.84.812-2.42.542-.584 1.22-.875 2.05-.875.927 0 1.66.307 2.19.921q.812.909.765 2.8h-4.12q.032.735.407 1.14c.375.405.567.406.953.406q.375 0 .64-.203.266-.219.407-.687zm.093-1.66q-.015-.719-.375-1.09a1.12 1.12 0 0 0-.859-.375q-.531 0-.891.39-.343.406-.343 1.08zm4.88 3.64h-1.64v-6.22h1.53v.875q.39-.624.703-.812.313-.204.703-.203.564 0 1.09.312l-.516 1.42q-.422-.266-.765-.266a.88.88 0 0 0-.594.203q-.234.188-.375.688c-.094.323-.141 1.02-.141 2.08z" clip-path="url(#p)" transform="translate(9.283 -13.38)scale(1.058)"/><path d="M94.9 296v-1.73h-3.52v-1.44l3.73-5.45h1.38v5.45h1.08v1.44h-1.08V296zm0-3.17v-2.94l-1.97 2.94zm8.84 3.17-2.52-6.22h1.74l1.17 3.17.343 1.06q.126-.406.157-.532l.187-.531 1.17-3.17h1.7l-2.47 6.22zm9.8-3.16 1.67.531c-.25.937-.677 1.64-1.28 2.09-.605.448-1.36.672-2.28.672-1.15 0-2.09-.386-2.83-1.16q-1.092-1.173-1.09-3.2 0-2.145 1.11-3.33 1.107-1.189 2.92-1.19c1.05 0 1.91.307 2.56.921q.579.564.875 1.59l-1.72.406q-.156-.67-.64-1.05-.485-.391-1.17-.391-.952 0-1.55.687-.594.673-.594 2.22 0 1.62.578 2.31.595.687 1.53.687.687 0 1.19-.437.5-.436.719-1.38zm2.5 3.16v-8.59h2.78c1.05 0 1.74.042 2.06.125q.735.204 1.23.86.5.64.5 1.66 0 .798-.297 1.34a2.4 2.4 0 0 1-.719.843 2.7 2.7 0 0 1-.906.407c-.406.083-1 .125-1.8.125h-1.12V296zm1.73-7.14v2.44h.953q1.015 0 1.36-.125a1.14 1.14 0 0 0 .75-1.094q0-.469-.281-.766a1.22 1.22 0 0 0-.704-.39q-.298-.063-1.23-.063zm6.25-1.45h1.74v4.66q0 1.11.062 1.44.11.53.531.844.422.312 1.16.312.734 0 1.11-.297c.376-.297.401-.442.453-.734s.078-.781.078-1.47v-4.75h1.74v4.52q0 1.545-.141 2.19c-.141.645-.271.787-.531 1.08q-.374.438-1.02.704-.625.25-1.64.25-1.235 0-1.88-.282a2.7 2.7 0 0 1-1-.734 2.5 2.5 0 0 1-.485-.953q-.172-.735-.172-2.19z" clip-path="url(#q)" transform="translate(9.283 -13.38)scale(1.058)"/></g><path fill="#222" d="M178 49.8V33.4h3.76q.578 0 1.13.111.578.089 1.09.356.512.245.912.667.423.4.69.934.267.512.356 1.09.111.556.111 1.13 0 .534-.111 1.09-.089.534-.356 1-.267.467-.667.845t-.89.601q.578.222 1.09.601.534.378.868.912.356.534.489 1.16.156.623.156 1.27 0 .623-.133 1.27-.111.623-.423 1.18t-.801.979q-.467.423-1.05.69t-1.22.378q-.623.089-1.25.089zm3.76-9.26q.534 0 1.05-.178.534-.178.89-.578.356-.423.489-.934.134-.534.134-1.09 0-.534-.134-1.05-.134-.534-.489-.934-.356-.423-.89-.601-.512-.178-1.05-.178h-2.02v5.54zm0 7.7q.423 0 .823-.067.423-.067.779-.245.378-.178.69-.467.312-.31.512-.667.2-.378.267-.779.067-.423.067-.845 0-.4-.067-.823t-.267-.779q-.2-.378-.512-.667-.289-.289-.667-.467-.378-.2-.801-.267-.4-.067-.823-.067h-2.02v6.14zm10.8 1.74q-.556 0-1.09-.156t-.957-.489q-.4-.356-.69-.823-.289-.489-.467-1-.156-.534-.222-1.07-.044-.556-.044-1.09v-7.34h1.74v7.34q0 .378.044.756.045.356.156.712.111.334.311.645.222.311.512.534t.645.334q.356.089.734.089t.734-.089q.356-.111.645-.334.289-.222.489-.534.222-.311.334-.645.111-.356.156-.712.045-.378.045-.756v-7.34h1.74v11.8h-1.74v-2.02q-.178.467-.467.89t-.712.734q-.4.311-.912.445-.49.133-.98.133zm7.9-.178v-1.56h3.18v-8.68h-2.87v-1.56h4.61v10.2h2.87v1.56zm3.89-13.9q-.289 0-.556-.067-.267-.089-.467-.289t-.289-.467q-.067-.267-.067-.556t.067-.556q.089-.267.289-.467t.467-.289.556-.089.556.09.467.288.289.467.089.556-.089.556-.289.467-.467.29q-.267.066-.556.066m7.23 13.9v-1.56h3.18v-13.2h-2.87v-1.56h4.61v14.8h2.87v1.56zm14.3.178q-.556 0-1.11-.156-.534-.156-.979-.489t-.756-.801q-.289-.467-.467-.979-.178-.534-.245-1.09t-.067-1.11v-2.89q0-.556.067-1.11.067-.556.245-1.07.178-.534.467-1 .311-.467.756-.801t.979-.489q.556-.156 1.11-.156.512 0 1 .133.512.133.912.445.423.289.712.734.289.423.467.89v-6.59h1.74v16.4h-1.74v-2.02q-.178.467-.467.912-.289.423-.712.734-.4.289-.912.423-.489.133-1 .133zm.667-1.56q.378 0 .734-.089.378-.111.667-.334t.489-.534q.222-.311.334-.645.111-.356.156-.712.045-.378.045-.756v-2.89q0-.378-.045-.734-.044-.378-.156-.712-.111-.356-.334-.667-.2-.334-.489-.556t-.667-.311q-.356-.089-.734-.089t-.756.089q-.356.089-.667.311-.312.2-.556.512-.222.311-.356.667t-.178.734-.044.756v2.89q0 .378.044.756.045.378.178.734.134.356.356.667.245.311.556.534.311.2.667.289.378.089.756.089zm12.7 1.56q-.534 0-1.07-.133-.534-.133-.979-.445-.423-.311-.734-.756-.289-.467-.467-.957-.178-.512-.245-1.05-.067-.534-.067-1.07v-6.01h-2.45v-1.56h2.45v-4.56h1.74v4.56h3.6v1.56h-3.6v6.01q0 .311.022.645.023.311.09.623.088.289.221.601.134.289.334.512.222.222.534.356.311.111.623.111.423 0 .801-.2.4-.2.623-.556.222-.378.311-.801.09-.423.09-.845 0-.022-.023-.067v-.067h1.74v.222q0 .49-.089.98t-.289.956q-.2.445-.534.845-.31.378-.734.645-.423.245-.912.334-.489.111-.979.111zm5.65-.178v-1.56h3.18v-8.68h-2.87v-1.56h4.61v10.2h2.87v1.56zm3.89-13.9q-.289 0-.556-.067-.267-.089-.467-.289t-.289-.467q-.067-.267-.067-.556t.067-.556q.089-.267.289-.467t.467-.289.556-.089.556.09.467.288.289.467.089.556-.089.556-.289.467-.467.29q-.267.066-.556.066m6.63 13.9v-11.8h1.74v.934q.111-.245.267-.445.156-.222.356-.378.222-.156.467-.222.267-.067.534-.067.334 0 .645.111.312.111.534.334.245.222.4.512t.245.623q.089-.31.245-.6.156-.312.378-.535.222-.222.534-.334t.645-.11.645.132q.334.111.578.356.245.222.378.534.156.311.245.645.089.311.111.645.044.334.044.667v8.99h-1.74v-8.99q0-.245-.044-.467-.022-.245-.134-.467-.111-.222-.334-.356-.2-.133-.445-.133-.222 0-.445.133-.2.133-.311.356t-.156.467q-.022.222-.022.467v8.99h-1.74v-8.99q0-.245-.045-.467-.022-.245-.134-.467-.11-.222-.334-.356-.2-.133-.423-.133-.245 0-.467.133-.2.133-.31.356t-.157.467q-.022.222-.022.467v8.99zm15.7.178q-.623 0-1.22-.111-.578-.111-1.11-.4-.534-.311-.934-.756-.4-.467-.667-1-.245-.556-.334-1.16-.089-.601-.089-1.2v-2.89q0-.601.089-1.2.089-.601.334-1.13.245-.556.645-1 .423-.467.934-.756t1.11-.4q.601-.133 1.2-.133.601 0 1.2.133.601.111 1.11.4.512.289.912.756.423.445.667 1 .245.534.334 1.13.089.601.089 1.2v2.22h-6.9v.667q0 .378.044.756.045.378.178.734.156.356.378.667.245.311.556.534.311.2.69.289t.78.089q.422 0 .844-.089.445-.089.801-.311.378-.245.601-.623.222-.4.245-.823h1.74q-.022.489-.2.979-.156.489-.467.912-.289.4-.712.712-.4.289-.868.489-.467.178-.979.245t-1 .067zm-2.63-6.85h5.16v-.667q0-.378-.044-.756-.045-.378-.179-.734-.133-.356-.378-.667-.222-.311-.534-.512-.31-.222-.69-.311-.378-.089-.756-.089t-.755.089-.69.311q-.312.2-.556.512-.222.311-.356.667t-.178.734q-.045.378-.045.756zm13.7 6.85q-.512 0-1-.067-.489-.044-.957-.2-.467-.178-.89-.467-.4-.289-.712-.667-.289-.4-.445-.89-.156-.489-.156-.979v-.022h1.74q0 .423.222.801.222.356.578.578.378.2.779.289.423.067.845.067.423 0 .823-.067.423-.089.779-.289.378-.222.601-.601.245-.378.245-.801 0-.378-.222-.712-.2-.334-.534-.534-.311-.222-.69-.311-.356-.111-.734-.222-.356-.111-.734-.222-.356-.111-.712-.245t-.712-.289q-.334-.178-.645-.4t-.578-.489q-.267-.289-.467-.623-.178-.334-.267-.712t-.089-.756q0-.489.134-.957.156-.467.423-.868.267-.423.667-.712t.845-.467q.467-.178.934-.245.489-.067.979-.067.489 0 .957.067.489.067.934.245.467.156.845.445.4.267.667.667.289.4.423.868.156.467.156.934v.022h-1.74q0-.4-.2-.756t-.534-.556q-.334-.222-.734-.289-.378-.089-.779-.089t-.801.09q-.4.066-.734.288t-.534.601q-.2.356-.2.756t.2.734q.222.334.534.556.334.2.69.311.378.09.734.2.378.111.734.222.378.111.734.245.356.133.69.311.356.156.667.378t.556.512q.267.267.445.601.2.334.289.712.111.356.111.756 0 .49-.156.98-.156.488-.445.89t-.712.69-.89.466q-.467.156-.979.222-.489.067-.979.067zm20.6-.178v-9.57h-2.47v-1.56h2.47v-1.76q0-.445.045-.89.066-.467.222-.89.178-.423.445-.801.266-.378.644-.623.4-.245.845-.334.445-.111.89-.111.623 0 1.22.2.623.178 1.05.645.423.445.623 1.05.2.601.2 1.22v.178h-1.74v-.089q0-.311-.066-.601-.067-.311-.245-.556t-.467-.356q-.267-.133-.578-.133-.356 0-.667.2-.29.2-.445.512-.156.311-.222.667-.045.356-.045.712v1.76h3.67v1.56h-3.67v9.57zm12.8.178q-.601 0-1.2-.133-.601-.111-1.11-.4-.512-.289-.934-.734-.4-.467-.645-1-.245-.556-.334-1.16-.089-.601-.089-1.2v-2.89q0-.601.089-1.2.089-.601.334-1.13.245-.556.645-1 .423-.467.934-.756t1.11-.4q.601-.133 1.2-.133.601 0 1.2.133.601.111 1.11.4.512.289.912.756.423.445.667 1 .245.534.334 1.13.089.601.089 1.2v2.89q0 .601-.089 1.2-.089.601-.334 1.16-.245.534-.667 1-.4.445-.912.734t-1.11.4q-.601.133-1.2.133m0-1.56q.378 0 .756-.089t.69-.289q.311-.222.534-.534.245-.311.378-.667t.178-.734q.044-.378.044-.756v-2.89q0-.378-.044-.756-.045-.378-.178-.734-.134-.356-.378-.667-.222-.311-.534-.512-.311-.222-.69-.311t-.756-.089-.756.089-.69.311q-.311.2-.556.512-.222.311-.356.667t-.178.734-.044.756v2.89q0 .378.044.756.045.378.178.734t.356.667q.245.311.556.534.311.2.69.289t.756.089m8.32 1.38V38h1.74v2.78q.134-.534.356-1.05.222-.534.556-.979.356-.445.868-.69.534-.245 1.09-.245.423 0 .823.111.4.089.734.334t.556.601q.222.334.334.734.133.4.178.823.044.4.044.801h-1.74q0-.334-.066-.645-.045-.334-.222-.623-.156-.289-.467-.423-.29-.156-.623-.156-.445 0-.868.2t-.712.556q-.267.356-.445.779-.156.4-.245.845-.09.445-.134.89-.022.445-.022.89v6.25zm23.4 0v-9.57h-2.47v-1.56h2.47v-1.76q0-.445.044-.89.067-.467.222-.89.178-.423.445-.801t.645-.623q.4-.245.845-.334.445-.111.89-.111.623 0 1.22.2.623.178 1.05.645.423.445.623 1.05.2.601.2 1.22v.178h-1.74v-.089q0-.311-.066-.601-.067-.311-.245-.556t-.467-.356q-.267-.133-.578-.133-.356 0-.667.2-.29.2-.445.512-.156.311-.222.667-.045.356-.045.712v1.76h3.67v1.56h-3.67v9.57zm11.7.178q-.445 0-.89-.089-.445-.067-.845-.267-.378-.222-.69-.556-.289-.334-.489-.734-.178-.4-.267-.845-.067-.445-.067-.89 0-.578.134-1.13.156-.556.49-1 .355-.467.822-.779.49-.311 1.02-.489.556-.178 1.11-.245.578-.067 1.16-.067h1.98v-1.2q0-.467-.156-.934t-.512-.779q-.356-.31-.823-.445-.467-.133-.934-.133-.445 0-.89.09-.423.088-.779.333t-.556.645-.2.823h-1.74q0-.512.134-1 .156-.489.445-.912t.69-.712q.423-.31.89-.489.467-.2.98-.267.511-.067 1.02-.067.533 0 1.07.09.533.066 1.02.288.488.222.89.578.422.356.69.823.266.467.377 1 .111.534.111 1.07v8.12h-1.74V47.9q-.2.49-.578.912-.356.4-.823.69-.467.267-1 .378-.534.111-1.07.111zm.667-1.56q.534 0 1.07-.156.556-.156.957-.512t.578-.868q.2-.534.2-1.09v-1.36h-1.98q-.356 0-.69.044-.334.023-.667.111-.311.067-.623.222-.311.133-.556.378t-.356.578q-.111.311-.111.645 0 .424.133.824.156.4.467.69t.734.4q.423.088.845.088zm11.5 1.56q-.578 0-1.18-.133-.601-.111-1.11-.4-.512-.311-.912-.756-.378-.467-.623-1-.245-.556-.334-1.13-.089-.601-.089-1.2v-2.89q0-.601.089-1.18.089-.601.334-1.13.245-.556.623-1 .4-.467.912-.756.512-.311 1.11-.423.601-.133 1.18-.133.556 0 1.11.111.556.089 1.05.334.512.245.912.645.4.378.667.868.267.489.378 1.05.134.534.134 1.09v.044h-1.74v-.022q0-.512-.156-1t-.512-.845q-.356-.378-.845-.534-.489-.178-1-.178-.378 0-.756.09-.356.088-.667.31t-.534.534q-.2.311-.334.667-.134.334-.178.712-.045.378-.045.756v2.89q0 .378.045.756.044.378.178.734.133.334.334.645.222.311.534.534t.667.311q.378.09.756.09.512 0 1-.157.489-.178.845-.534.356-.378.512-.868t.156-1v-.022h1.74v.045q0 .556-.134 1.11-.111.534-.378 1.02-.267.489-.667.89-.4.378-.912.623-.489.245-1.05.334-.556.11-1.11.11zm11.2 0q-.623 0-1.22-.111-.578-.111-1.11-.4-.534-.311-.934-.756-.4-.467-.667-1-.245-.556-.334-1.16-.089-.601-.089-1.2v-2.89q0-.601.089-1.2.089-.601.334-1.13.245-.556.645-1 .423-.467.934-.756t1.11-.4q.601-.133 1.2-.133.601 0 1.2.133.601.111 1.11.4.512.289.912.756.423.445.667 1 .245.534.334 1.13.089.601.089 1.2v2.22h-6.9v.667q0 .378.044.756.045.378.178.734.156.356.378.667.245.311.556.534.311.2.69.289t.78.089q.422 0 .844-.089.445-.089.801-.311.378-.245.601-.623.222-.4.245-.823h1.74q-.022.489-.2.979-.156.489-.467.912-.289.4-.712.712-.4.289-.868.489-.467.178-.979.245t-1 .067zm-2.63-6.85h5.16v-.667q0-.378-.045-.756-.044-.378-.178-.734t-.378-.667q-.222-.311-.534-.512-.31-.222-.69-.311-.378-.089-.756-.089t-.756.089-.69.311q-.31.2-.556.512-.222.311-.356.667t-.177.734q-.045.378-.045.756zm14.4 6.85q-.512 0-1.02-.133-.489-.133-.912-.423-.4-.311-.69-.734-.289-.445-.467-.912v2.02h-1.74v-16.4h1.74v6.59q.178-.467.467-.89.289-.445.69-.734.423-.311.912-.445.512-.133 1.02-.133.556 0 1.09.156.556.156 1 .489t.734.801q.311.467.489 1 .178.512.245 1.07.067.556.067 1.11v2.89q0 .556-.067 1.11t-.245 1.09q-.178.512-.489.979-.289.467-.734.801t-1 .489q-.534.156-1.09.156zm-.667-1.56q.378 0 .734-.089.378-.089.69-.289.311-.222.534-.534.245-.311.378-.667.134-.356.178-.734t.044-.756v-2.89q0-.378-.044-.756-.045-.378-.178-.734t-.378-.667q-.222-.311-.534-.512-.311-.222-.69-.311-.356-.089-.734-.089t-.756.089q-.356.089-.645.311t-.512.556q-.2.311-.311.667-.111.334-.156.712-.044.356-.044.734v2.89q0 .378.044.756.045.356.156.712.111.334.311.667.222.311.512.534.289.222.645.311.378.089.756.089m11.1 1.56q-.601 0-1.2-.133-.601-.111-1.11-.4-.512-.289-.934-.734-.4-.467-.645-1-.245-.556-.334-1.16-.089-.601-.089-1.2v-2.89q0-.601.089-1.2.089-.601.334-1.13.245-.556.645-1 .423-.467.934-.756t1.11-.4q.601-.133 1.2-.133.601 0 1.2.133.601.111 1.11.4.512.289.912.756.423.445.667 1 .245.534.334 1.13.089.601.089 1.2v2.89q0 .601-.089 1.2-.089.601-.334 1.16-.245.534-.667 1-.4.445-.912.734t-1.11.4q-.601.133-1.2.133m0-1.56q.378 0 .756-.089t.69-.289q.311-.222.534-.534.245-.311.378-.667.134-.356.178-.734t.044-.756v-2.89q0-.378-.044-.756-.045-.378-.178-.734-.134-.356-.378-.667-.222-.311-.534-.512-.312-.222-.69-.311t-.756-.089-.756.089-.69.311q-.311.2-.556.512-.222.311-.356.667t-.178.734-.044.756v2.89q0 .378.044.756.045.378.178.734t.356.667q.245.311.556.534.312.2.69.289t.756.089m11.1 1.56q-.601 0-1.2-.133-.601-.111-1.11-.4-.512-.289-.934-.734-.4-.467-.645-1-.245-.556-.334-1.16-.089-.601-.089-1.2v-2.89q0-.601.089-1.2.089-.601.334-1.13.245-.556.645-1 .423-.467.934-.756t1.11-.4q.601-.133 1.2-.133t1.2.133q.601.111 1.11.4.512.289.912.756.423.445.667 1 .245.534.334 1.13.089.601.089 1.2v2.89q0 .601-.089 1.2-.089.601-.334 1.16-.245.534-.667 1-.4.445-.912.734t-1.11.4q-.601.133-1.2.133m0-1.56q.378 0 .756-.089t.69-.289q.311-.222.534-.534.245-.311.378-.667t.178-.734q.044-.378.044-.756v-2.89q0-.378-.044-.756-.045-.378-.178-.734-.134-.356-.378-.667-.222-.311-.534-.512-.311-.222-.69-.311t-.756-.089-.756.089-.69.311q-.311.2-.556.512-.222.311-.356.667t-.178.734-.044.756v2.89q0 .378.044.756.045.378.178.734.134.356.356.667.245.311.556.534.311.2.69.289t.756.089m7.34 1.38v-16.4h1.71v10l4.25-5.47h2.11l-4.18 5.36 4.18 6.43h-2l-3.27-5.03-1.09 1.4v3.63zm10.7 3.18 6.72-21.5h1.78l-6.72 21.5zm13.7-3.18v-9.57h-2.47v-1.56h2.47v-1.76q0-.445.044-.89.067-.467.222-.89.178-.423.445-.801t.645-.623q.4-.245.845-.334.445-.111.89-.111.623 0 1.22.2.623.178 1.05.645.423.445.623 1.05t.2 1.22v.178h-1.74v-.089q0-.311-.066-.601-.067-.311-.245-.556t-.467-.356q-.267-.133-.578-.133-.356 0-.667.2-.29.2-.445.512-.156.311-.222.667-.045.356-.045.712v1.76h3.67v1.56h-3.67v9.57zm12.8.178q-.601 0-1.2-.133-.601-.111-1.11-.4-.512-.289-.934-.734-.4-.467-.645-1-.245-.556-.334-1.16-.089-.601-.089-1.2v-2.89q0-.601.089-1.2.089-.601.334-1.13.245-.556.645-1 .423-.467.934-.756t1.11-.4q.601-.133 1.2-.133t1.2.133q.601.111 1.11.4.512.289.912.756.423.445.667 1 .245.534.334 1.13.089.601.089 1.2v2.89q0 .601-.089 1.2-.089.601-.334 1.16-.245.534-.667 1-.4.445-.912.734t-1.11.4q-.601.133-1.2.133m0-1.56q.378 0 .756-.089t.69-.289q.311-.222.534-.534.245-.311.378-.667t.178-.734q.044-.378.044-.756v-2.89q0-.378-.044-.756-.045-.378-.178-.734-.134-.356-.378-.667-.222-.311-.534-.512-.311-.222-.69-.311t-.756-.089-.756.089-.69.311q-.311.2-.556.512-.222.311-.356.667t-.178.734-.044.756v2.89q0 .378.044.756.045.378.178.734.134.356.356.667.245.311.556.534.311.2.69.289t.756.089m7.23 1.38v-1.56h3.18v-13.2h-2.87v-1.56h4.61v14.8h2.87v1.56zm11.1 0v-1.56h3.18v-13.2h-2.87v-1.56h4.61v14.8h2.87v1.56zm12.8 4.56q.2-.667.4-1.36l.4-1.33.512-1.76-3.54-11.9h1.8l2.65 9.23 2.6-9.23h1.8l-4.83 16.4z" aria-label="Buildtimes for facebook/folly"/></svg>