<?xml version="1.0" encoding="UTF-8"?>
<svg fill="none" version="1.1" viewBox="0 0 677 356" xml:space="preserve" xmlns="http://www.w3.org/2000/svg" xmlns:xlink="http://www.w3.org/1999/xlink"><defs><mask id="c" x="137" y="54" width="445" height="281" maskUnits="userSpaceOnUse"><path d="m137 54.9h444v280h-444z" fill="#fff"/></mask><mask id="b" x="137" y="54" width="445" height="281" maskUnits="userSpaceOnUse"><path d="m137 54.9h444v280h-444z" fill="#fff"/></mask><mask id="a" x="137" y="54" width="445" height="281" maskUnits="userSpaceOnUse"><path d="m137 54.9h444v280h-444z" fill="#fff"/></mask><clipPath id="o"><rect width="600" height="371" fill="#fff"/></clipPath><clipPath id="n"><rect width="600" height="371" fill="#fff"/></clipPath><clipPath id="m"><rect width="600" height="371" fill="#fff"/></clipPath><clipPath id="l"><rect width="600" height="371" fill="#fff"/></clipPath><clipPath id="k"><rect width="600" height="371" fill="#fff"/></clipPath><clipPath id="j"><rect width="600" height="371" fill="#fff"/></clipPath><clipPath id="i"><rect width="600" height="371" fill="#fff"/></clipPath><clipPath id="h"><rect width="600" height="371" fill="#fff"/></clipPath><clipPath id="g"><rect width="600" height="371" fill="#fff"/></clipPath><clipPath id="f"><rect width="600" height="371" fill="#fff"/></clipPath><clipPath id="e"><rect width="600" height="371" fill="#fff"/></clipPath><clipPath id="d"><rect width="600" height="371" fill="#fff"/></clipPath></defs><style type="text/css">
	.st0{fill:url(#SVGID_1_);}
	.st1{fill:url(#SVGID_2_);}
	.st2{fill:url(#SVGID_3_);}
	.st3{fill:url(#SVGID_4_);}
	.st4{fill:url(#SVGID_5_);}
	.st5{fill:url(#SVGID_6_);}
	.st6{fill:#0082FB;}
	.st7{fill:url(#SVGID_7_);}
	.st8{fill:url(#SVGID_8_);}
	.st9{fill:url(#SVGID_9_);}
	.st10{fill:url(#SVGID_10_);}
	.st11{fill:url(#SVGID_11_);}
	.st12{fill:url(#SVGID_12_);}
	.st13{fill:url(#SVGID_13_);}
</style><g transform="matrix(.882 0 0 .882 39.8 1.79)"><g fill="#000"><g transform="matrix(1.2 0 0 1.2 -34.6 -17.2)" clip-path="url(#d)" mask="url(#c)"><path d="m137 138v-54h442c1.1 0 2 0.895 2 2v50c0 1.1-0.895 2-2 2z" fill="#000"/></g><g transform="matrix(1.2 0 0 1.2 -34.6 -17.2)" clip-path="url(#e)" mask="url(#b)"><path d="m137 222v-54h307c1.1 0 2 0.895 2 2v50c0 1.1-0.895 2-2 2z" fill="#000"/></g><g transform="matrix(1.2 0 0 1.2 -34.6 -17.2)" clip-path="url(#f)" mask="url(#a)"><path d="m137 305v-54h177c1.1 0 2 0.895 2 2v50c0 1.1-0.895 2-2 2z" fill="#000"/></g></g><g fill="#fff"><path transform="matrix(1.2 0 0 1.2 -34.6 -17.2)" d="m530 111 0.438-4.25h4.38v1h-3.45l-0.265 2.33c0.427-0.25 0.906-0.375 1.44-0.375 0.771 0 1.39 0.26 1.84 0.781 0.458 0.511 0.688 1.2 0.688 2.08s-0.24 1.57-0.719 2.08c-0.469 0.511-1.13 0.766-1.98 0.766-0.75 0-1.36-0.208-1.84-0.625-0.48-0.427-0.75-1.01-0.813-1.75h1.02c0.073 0.49 0.25 0.859 0.531 1.11s0.651 0.375 1.11 0.375c0.5 0 0.896-0.172 1.19-0.515 0.292-0.344 0.437-0.818 0.437-1.42 0-0.573-0.156-1.03-0.468-1.38-0.313-0.344-0.73-0.516-1.25-0.516-0.469 0-0.839 0.099-1.11 0.297l-0.281 0.235zm11.7-2.03c0 0.427-0.115 0.807-0.344 1.14s-0.531 0.594-0.906 0.781c0.437 0.188 0.786 0.469 1.05 0.844 0.261 0.365 0.391 0.781 0.391 1.25 0 0.729-0.25 1.32-0.75 1.77-0.49 0.437-1.14 0.656-1.95 0.656-0.823 0-1.48-0.219-1.98-0.656-0.49-0.448-0.735-1.04-0.735-1.77 0-0.469 0.125-0.885 0.375-1.25 0.25-0.375 0.599-0.656 1.05-0.844-0.375-0.187-0.672-0.448-0.891-0.781-0.218-0.333-0.328-0.713-0.328-1.14 0-0.719 0.229-1.29 0.688-1.7 0.458-0.427 1.07-0.64 1.83-0.64 0.75 0 1.35 0.213 1.81 0.64 0.469 0.417 0.704 0.985 0.704 1.7zm-0.891 3.98c0-0.479-0.151-0.865-0.453-1.16-0.302-0.302-0.698-0.454-1.19-0.454-0.489 0-0.885 0.152-1.19 0.454-0.292 0.291-0.438 0.682-0.438 1.17 0 0.479 0.146 0.859 0.438 1.14 0.291 0.271 0.693 0.406 1.2 0.406 0.5 0 0.896-0.14 1.19-0.422 0.292-0.281 0.438-0.661 0.438-1.14zm-1.62-5.44c-0.427 0-0.776 0.136-1.05 0.407-0.26 0.26-0.391 0.619-0.391 1.08 0 0.427 0.131 0.776 0.391 1.05 0.26 0.27 0.604 0.406 1.03 0.406 0.438 0 0.787-0.136 1.05-0.406 0.261-0.271 0.391-0.62 0.391-1.05 0-0.438-0.136-0.792-0.406-1.06-0.271-0.281-0.61-0.422-1.02-0.422zm5.47 1.42 0.031 0.703c0.458-0.541 1.08-0.812 1.88-0.812 0.885 0 1.49 0.338 1.81 1.02 0.209-0.302 0.48-0.546 0.813-0.734 0.344-0.187 0.745-0.281 1.2-0.281 1.4 0 2.1 0.734 2.12 2.2v4.25h-1.08v-4.19c0-0.447-0.104-0.781-0.313-1-0.208-0.229-0.557-0.343-1.05-0.343-0.407 0-0.745 0.12-1.02 0.359-0.26 0.24-0.412 0.563-0.453 0.969v4.2h-1.08v-4.16c0-0.917-0.453-1.38-1.36-1.38-0.708 0-1.19 0.302-1.45 0.906v4.62h-1.09v-6.34zm18.5 6.34h-5.59v-0.781l2.95-3.28c0.438-0.5 0.74-0.902 0.906-1.2 0.167-0.312 0.25-0.635 0.25-0.968 0-0.448-0.135-0.813-0.406-1.09-0.26-0.292-0.62-0.438-1.08-0.438-0.531 0-0.948 0.157-1.25 0.469-0.302 0.302-0.453 0.729-0.453 1.28h-1.08c0-0.791 0.25-1.43 0.75-1.91 0.51-0.489 1.19-0.734 2.03-0.734 0.802 0 1.43 0.208 1.89 0.625 0.458 0.416 0.687 0.974 0.687 1.67 0 0.833-0.536 1.83-1.61 3l-2.28 2.47h4.28zm6.76-3.64c0 1.27-0.218 2.22-0.656 2.84-0.427 0.615-1.1 0.922-2.03 0.922-0.906 0-1.58-0.302-2.02-0.906-0.437-0.604-0.666-1.51-0.687-2.72v-1.44c0-1.26 0.213-2.19 0.64-2.8 0.438-0.615 1.12-0.922 2.05-0.922 0.917 0 1.59 0.297 2.03 0.89 0.437 0.584 0.661 1.49 0.671 2.72zm-1.09-1.48c0-0.917-0.131-1.58-0.391-2-0.25-0.427-0.656-0.641-1.22-0.641-0.552 0-0.958 0.214-1.22 0.641-0.25 0.417-0.375 1.06-0.375 1.92v1.73c0 0.917 0.13 1.6 0.39 2.05 0.271 0.438 0.677 0.656 1.22 0.656 0.531 0 0.927-0.208 1.19-0.625 0.261-0.416 0.396-1.07 0.407-1.95zm6.55 3.44c0-0.291-0.115-0.515-0.344-0.671-0.219-0.167-0.604-0.308-1.16-0.422-0.542-0.115-0.974-0.255-1.3-0.422s-0.563-0.359-0.719-0.578c-0.146-0.229-0.219-0.5-0.219-0.813 0-0.521 0.219-0.958 0.656-1.31 0.438-0.365 1-0.547 1.69-0.547 0.719 0 1.3 0.187 1.73 0.562 0.448 0.365 0.672 0.834 0.672 1.41h-1.08c0-0.292-0.13-0.542-0.391-0.75-0.25-0.219-0.562-0.328-0.937-0.328-0.396 0-0.708 0.088-0.938 0.265-0.218 0.167-0.328 0.386-0.328 0.656 0 0.261 0.104 0.459 0.313 0.594 0.208 0.136 0.583 0.266 1.12 0.391 0.541 0.114 0.979 0.255 1.31 0.422 0.334 0.166 0.578 0.369 0.735 0.609 0.166 0.24 0.25 0.526 0.25 0.859 0 0.573-0.23 1.03-0.688 1.38-0.448 0.344-1.03 0.516-1.75 0.516-0.51 0-0.963-0.089-1.36-0.266-0.386-0.187-0.688-0.442-0.906-0.765-0.219-0.323-0.329-0.672-0.329-1.05h1.08c0.02 0.364 0.166 0.656 0.437 0.875 0.271 0.208 0.63 0.312 1.08 0.312 0.406 0 0.735-0.083 0.985-0.25 0.25-0.166 0.375-0.39 0.375-0.672z" clip-path="url(#g)"/><path transform="matrix(1.2 0 0 1.2 -34.6 -17.2)" d="m398 197h1.19v0.875h-1.19v1.98h-1.08v-1.98h-3.89v-0.641l3.81-5.91h1.16zm-3.73 0h2.66v-4.19l-0.141 0.235zm11.5-0.782c0 1.27-0.218 2.22-0.656 2.84-0.427 0.615-1.1 0.922-2.03 0.922-0.906 0-1.58-0.302-2.02-0.906-0.437-0.604-0.666-1.51-0.687-2.72v-1.44c0-1.26 0.213-2.19 0.64-2.8 0.438-0.615 1.12-0.922 2.05-0.922 0.917 0 1.59 0.297 2.03 0.89 0.438 0.584 0.662 1.49 0.672 2.72zm-1.09-1.48c0-0.917-0.131-1.58-0.391-2-0.25-0.427-0.656-0.641-1.22-0.641-0.552 0-0.958 0.214-1.22 0.641-0.25 0.417-0.375 1.06-0.375 1.92v1.73c0 0.917 0.131 1.6 0.391 2.05 0.271 0.438 0.677 0.656 1.22 0.656 0.531 0 0.927-0.208 1.19-0.625 0.261-0.416 0.396-1.07 0.407-1.95zm3.88-1.22 0.031 0.703c0.458-0.541 1.08-0.812 1.88-0.812 0.885 0 1.49 0.338 1.81 1.02 0.209-0.302 0.479-0.546 0.813-0.734 0.344-0.187 0.745-0.281 1.2-0.281 1.4 0 2.1 0.734 2.12 2.2v4.25h-1.08v-4.19c0-0.447-0.104-0.781-0.313-1-0.208-0.229-0.557-0.343-1.05-0.343-0.406 0-0.744 0.12-1.02 0.359-0.261 0.24-0.412 0.563-0.453 0.969v4.2h-1.08v-4.16c0-0.917-0.454-1.38-1.36-1.38-0.708 0-1.19 0.302-1.45 0.906v4.62h-1.09v-6.34zm14.4 1.55h0.813c0.52-0.01 0.927-0.146 1.22-0.406 0.292-0.261 0.438-0.615 0.438-1.06 0-1-0.5-1.5-1.5-1.5-0.469 0-0.844 0.136-1.12 0.407-0.271 0.27-0.406 0.625-0.406 1.06h-1.09c0-0.677 0.245-1.24 0.734-1.69 0.5-0.448 1.13-0.672 1.89-0.672 0.802 0 1.43 0.213 1.89 0.64 0.459 0.427 0.688 1.02 0.688 1.78 0 0.375-0.12 0.734-0.359 1.08-0.24 0.344-0.568 0.604-0.985 0.781 0.469 0.146 0.828 0.391 1.08 0.734 0.261 0.344 0.391 0.766 0.391 1.27 0 0.76-0.25 1.37-0.75 1.83-0.5 0.448-1.15 0.672-1.95 0.672-0.792 0-1.44-0.219-1.95-0.656-0.5-0.438-0.75-1.01-0.75-1.72h1.09c0 0.448 0.146 0.807 0.438 1.08s0.687 0.406 1.19 0.406c0.521 0 0.917-0.135 1.19-0.406 0.281-0.281 0.422-0.677 0.422-1.19 0-0.49-0.151-0.865-0.453-1.12-0.302-0.271-0.745-0.412-1.33-0.422h-0.813zm7 0h0.813c0.52-0.01 0.927-0.146 1.22-0.406 0.292-0.261 0.438-0.615 0.438-1.06 0-1-0.5-1.5-1.5-1.5-0.469 0-0.844 0.136-1.12 0.407-0.271 0.27-0.406 0.625-0.406 1.06h-1.09c0-0.677 0.245-1.24 0.734-1.69 0.5-0.448 1.13-0.672 1.89-0.672 0.802 0 1.43 0.213 1.89 0.64 0.459 0.427 0.688 1.02 0.688 1.78 0 0.375-0.12 0.734-0.359 1.08-0.24 0.344-0.568 0.604-0.985 0.781 0.469 0.146 0.828 0.391 1.08 0.734 0.261 0.344 0.391 0.766 0.391 1.27 0 0.76-0.25 1.37-0.75 1.83-0.5 0.448-1.15 0.672-1.95 0.672-0.792 0-1.44-0.219-1.95-0.656-0.5-0.438-0.75-1.01-0.75-1.72h1.09c0 0.448 0.146 0.807 0.438 1.08s0.687 0.406 1.19 0.406c0.521 0 0.917-0.135 1.19-0.406 0.281-0.281 0.422-0.677 0.422-1.19 0-0.49-0.151-0.865-0.453-1.12-0.302-0.271-0.745-0.412-1.33-0.422h-0.813zm9.23 3.11c0-0.291-0.114-0.515-0.343-0.671-0.219-0.167-0.605-0.308-1.16-0.422-0.541-0.115-0.974-0.255-1.3-0.422-0.323-0.167-0.563-0.359-0.719-0.578-0.146-0.229-0.219-0.5-0.219-0.813 0-0.521 0.219-0.958 0.656-1.31 0.438-0.365 1-0.547 1.69-0.547 0.719 0 1.3 0.187 1.73 0.562 0.448 0.365 0.672 0.834 0.672 1.41h-1.08c0-0.292-0.13-0.542-0.391-0.75-0.25-0.219-0.562-0.328-0.937-0.328-0.396 0-0.709 0.088-0.938 0.265-0.218 0.167-0.328 0.386-0.328 0.656 0 0.261 0.104 0.459 0.313 0.594 0.208 0.136 0.583 0.266 1.12 0.391 0.541 0.114 0.979 0.255 1.31 0.422 0.334 0.166 0.578 0.369 0.735 0.609 0.166 0.24 0.25 0.526 0.25 0.859 0 0.573-0.23 1.03-0.688 1.38-0.448 0.344-1.03 0.516-1.75 0.516-0.51 0-0.963-0.089-1.36-0.266-0.386-0.187-0.688-0.442-0.907-0.765-0.218-0.323-0.328-0.672-0.328-1.05h1.08c0.021 0.364 0.167 0.656 0.438 0.875 0.271 0.208 0.63 0.312 1.08 0.312 0.406 0 0.734-0.083 0.984-0.25 0.25-0.166 0.375-0.39 0.375-0.672z" clip-path="url(#h)"/><path transform="matrix(1.2 0 0 1.2 -34.6 -17.2)" d="m270 282h-5.59v-0.781l2.95-3.28c0.437-0.5 0.739-0.902 0.906-1.2 0.167-0.312 0.25-0.635 0.25-0.968 0-0.448-0.136-0.813-0.406-1.09-0.261-0.292-0.62-0.438-1.08-0.438-0.531 0-0.947 0.157-1.25 0.469-0.302 0.302-0.453 0.729-0.453 1.28h-1.08c0-0.791 0.25-1.43 0.75-1.91 0.511-0.489 1.19-0.734 2.03-0.734 0.803 0 1.43 0.208 1.89 0.625 0.458 0.416 0.688 0.974 0.688 1.67 0 0.833-0.537 1.83-1.61 3l-2.28 2.47h4.28zm2.98-4.8h0.812c0.521-0.01 0.927-0.146 1.22-0.406 0.292-0.261 0.437-0.615 0.437-1.06 0-1-0.5-1.5-1.5-1.5-0.468 0-0.843 0.136-1.12 0.407-0.27 0.27-0.406 0.625-0.406 1.06h-1.09c0-0.677 0.245-1.24 0.735-1.69 0.5-0.448 1.13-0.672 1.89-0.672 0.802 0 1.43 0.213 1.89 0.64s0.687 1.02 0.687 1.78c0 0.375-0.119 0.734-0.359 1.08s-0.568 0.604-0.984 0.781c0.468 0.146 0.828 0.391 1.08 0.734 0.26 0.344 0.39 0.766 0.39 1.27 0 0.76-0.25 1.37-0.75 1.83-0.5 0.448-1.15 0.672-1.95 0.672-0.791 0-1.44-0.219-1.95-0.656-0.5-0.438-0.75-1.01-0.75-1.72h1.09c0 0.448 0.146 0.807 0.437 1.08 0.292 0.271 0.688 0.406 1.19 0.406 0.521 0 0.917-0.135 1.19-0.406 0.282-0.281 0.422-0.677 0.422-1.19 0-0.49-0.151-0.865-0.453-1.12-0.302-0.271-0.745-0.412-1.33-0.422h-0.812zm6.56-1.55 0.031 0.703c0.459-0.541 1.08-0.812 1.88-0.812 0.886 0 1.49 0.338 1.81 1.02 0.208-0.302 0.479-0.546 0.812-0.734 0.344-0.187 0.745-0.281 1.2-0.281 1.4 0 2.1 0.734 2.12 2.2v4.25h-1.08v-4.19c0-0.447-0.104-0.781-0.312-1-0.208-0.229-0.557-0.343-1.05-0.343-0.406 0-0.745 0.12-1.02 0.359-0.26 0.24-0.411 0.563-0.453 0.969v4.2h-1.08v-4.16c0-0.917-0.453-1.38-1.36-1.38-0.709 0-1.19 0.302-1.45 0.906v4.62h-1.09v-6.34zm14.4 1.55h0.812c0.521-0.01 0.927-0.146 1.22-0.406 0.292-0.261 0.437-0.615 0.437-1.06 0-1-0.5-1.5-1.5-1.5-0.468 0-0.843 0.136-1.12 0.407-0.27 0.27-0.406 0.625-0.406 1.06h-1.09c0-0.677 0.245-1.24 0.735-1.69 0.5-0.448 1.13-0.672 1.89-0.672 0.802 0 1.43 0.213 1.89 0.64s0.687 1.02 0.687 1.78c0 0.375-0.119 0.734-0.359 1.08s-0.568 0.604-0.984 0.781c0.468 0.146 0.828 0.391 1.08 0.734 0.26 0.344 0.39 0.766 0.39 1.27 0 0.76-0.25 1.37-0.75 1.83-0.5 0.448-1.15 0.672-1.95 0.672-0.791 0-1.44-0.219-1.95-0.656-0.5-0.438-0.75-1.01-0.75-1.72h1.09c0 0.448 0.146 0.807 0.437 1.08 0.292 0.271 0.688 0.406 1.19 0.406 0.521 0 0.917-0.135 1.19-0.406 0.282-0.281 0.422-0.677 0.422-1.19 0-0.49-0.151-0.865-0.453-1.12-0.302-0.271-0.745-0.412-1.33-0.422h-0.812zm8.98 4.8h-1.08v-7.22l-2.19 0.797v-0.984l3.11-1.17h0.156zm7.25-1.69c0-0.291-0.115-0.515-0.344-0.671-0.219-0.167-0.604-0.308-1.16-0.422-0.542-0.115-0.974-0.255-1.3-0.422s-0.562-0.359-0.719-0.578c-0.145-0.229-0.218-0.5-0.218-0.813 0-0.521 0.218-0.958 0.656-1.31 0.437-0.365 1-0.547 1.69-0.547 0.719 0 1.3 0.187 1.74 0.562 0.448 0.365 0.672 0.834 0.672 1.41h-1.08c0-0.292-0.13-0.542-0.39-0.75-0.25-0.219-0.563-0.328-0.938-0.328-0.395 0-0.708 0.088-0.937 0.265-0.219 0.167-0.328 0.386-0.328 0.656 0 0.261 0.104 0.459 0.312 0.594 0.209 0.136 0.584 0.266 1.12 0.391 0.542 0.114 0.979 0.255 1.31 0.422 0.333 0.166 0.578 0.369 0.734 0.609 0.167 0.24 0.25 0.526 0.25 0.859 0 0.573-0.229 1.03-0.687 1.38-0.448 0.344-1.03 0.516-1.75 0.516-0.511 0-0.964-0.089-1.36-0.266-0.385-0.187-0.687-0.442-0.906-0.765s-0.328-0.672-0.328-1.05h1.08c0.021 0.364 0.167 0.656 0.437 0.875 0.271 0.208 0.631 0.312 1.08 0.312 0.406 0 0.734-0.083 0.984-0.25 0.25-0.166 0.375-0.39 0.375-0.672z" clip-path="url(#i)"/></g><g fill="#000"><path transform="matrix(1.2 0 0 1.2 -34.6 -17.2)" d="m53 98.1v-1.45h3.73v3.42c-0.365 0.354-0.891 0.667-1.58 0.938-0.688 0.26-1.39 0.39-2.09 0.39-0.896 0-1.68-0.187-2.36-0.562-0.667-0.375-1.17-0.912-1.5-1.61-0.333-0.708-0.5-1.47-0.5-2.3 0-0.896 0.188-1.69 0.562-2.38 0.375-0.698 0.922-1.23 1.64-1.61 0.552-0.281 1.24-0.422 2.06-0.422 1.06 0 1.89 0.224 2.48 0.672 0.604 0.448 0.995 1.06 1.17 1.84l-1.72 0.328c-0.125-0.417-0.354-0.745-0.688-0.984-0.333-0.25-0.75-0.375-1.25-0.375-0.76 0-1.36 0.24-1.81 0.719-0.448 0.479-0.672 1.19-0.672 2.14 0 1.02 0.224 1.79 0.672 2.3 0.458 0.5 1.06 0.75 1.8 0.75 0.365 0 0.729-0.0677 1.09-0.203 0.364-0.146 0.677-0.318 0.938-0.516v-1.09zm3.98-3.91v-1.53h1.66v1.53zm0 7.06v-6.22h1.66v6.22zm5.86-6.22v1.31h-1.12v2.5c0 0.51 0.0104 0.807 0.0313 0.891 0.0208 0.0833 0.0677 0.156 0.141 0.219 0.0833 0.0521 0.177 0.0782 0.281 0.0782 0.156 0 0.375-0.0573 0.656-0.172l0.141 1.28c-0.375 0.167-0.807 0.25-1.3 0.25-0.292 0-0.557-0.047-0.797-0.14-0.24-0.104-0.417-0.235-0.531-0.391-0.104-0.167-0.182-0.38-0.234-0.641-0.0313-0.197-0.0469-0.588-0.0469-1.17v-2.7h-0.75v-1.31h0.75v-1.23l1.66-0.969v2.2zm1.16 6.22v-8.59h1.73v3.39h3.41v-3.39h1.73v8.59h-1.73v-3.75h-3.41v3.75zm12.1 0v-0.938c-0.219 0.334-0.516 0.599-0.891 0.797-0.365 0.188-0.755 0.281-1.17 0.281s-0.792-0.088-1.12-0.265c-0.333-0.188-0.573-0.448-0.719-0.782-0.146-0.333-0.219-0.791-0.219-1.37v-3.94h1.64v2.86c0 0.875 0.0313 1.41 0.0938 1.61s0.172 0.354 0.328 0.469c0.167 0.114 0.37 0.172 0.609 0.172 0.281 0 0.531-0.078 0.75-0.234 0.229-0.156 0.385-0.349 0.469-0.578 0.0834-0.229 0.125-0.786 0.125-1.67v-2.62h1.64v6.22zm2.84 0v-8.59h1.64v3.09c0.51-0.573 1.11-0.859 1.81-0.859 0.75 0 1.38 0.276 1.88 0.828 0.5 0.542 0.75 1.33 0.75 2.36 0 1.06-0.255 1.88-0.766 2.45-0.51 0.573-1.12 0.859-1.84 0.859-0.354 0-0.703-0.088-1.05-0.265-0.344-0.177-0.641-0.443-0.891-0.797v0.922zm1.62-3.25c0 0.646 0.104 1.12 0.312 1.44 0.281 0.438 0.661 0.656 1.14 0.656 0.354 0 0.661-0.156 0.922-0.468 0.26-0.312 0.391-0.802 0.391-1.47 0-0.708-0.13-1.22-0.391-1.53-0.26-0.323-0.594-0.484-1-0.484-0.386 0-0.714 0.156-0.984 0.469-0.26 0.302-0.391 0.766-0.391 1.39zm16.2 3.25h-1.89l-0.75-1.95h-3.44l-0.703 1.95h-1.84l3.34-8.59h1.84zm-3.2-3.41-1.17-3.19-1.17 3.19zm8.86-0.984-1.61 0.297c-0.063-0.323-0.193-0.562-0.391-0.719-0.187-0.167-0.432-0.25-0.734-0.25-0.417 0-0.75 0.141-1 0.422-0.24 0.281-0.359 0.755-0.359 1.42 0 0.74 0.125 1.26 0.375 1.56s0.583 0.454 1 0.454c0.313 0 0.568-0.0889 0.766-0.266s0.339-0.484 0.422-0.922l1.62 0.281c-0.167 0.74-0.49 1.3-0.969 1.69-0.479 0.375-1.12 0.562-1.92 0.562-0.906 0-1.63-0.286-2.17-0.859-0.542-0.573-0.812-1.37-0.812-2.39 0-1.02 0.271-1.82 0.812-2.39s1.28-0.859 2.2-0.859c0.76 0 1.36 0.162 1.81 0.484s0.766 0.818 0.953 1.48zm4.44-1.83v1.31h-1.12v2.5c0 0.51 0.01 0.807 0.031 0.891s0.068 0.156 0.141 0.219c0.083 0.0521 0.177 0.0782 0.281 0.0782 0.156 0 0.375-0.0573 0.656-0.172l0.141 1.28c-0.375 0.167-0.808 0.25-1.3 0.25-0.292 0-0.558-0.047-0.797-0.14-0.24-0.104-0.417-0.235-0.531-0.391-0.105-0.167-0.183-0.38-0.235-0.641-0.031-0.197-0.047-0.588-0.047-1.17v-2.7h-0.75v-1.31h0.75v-1.23l1.66-0.969v2.2zm1.14-0.844v-1.53h1.66v1.53zm0 7.06v-6.22h1.66v6.22zm2.62-3.2c0-0.542 0.136-1.07 0.407-1.58 0.27-0.521 0.651-0.912 1.14-1.17 0.49-0.271 1.04-0.406 1.66-0.406 0.938 0 1.71 0.307 2.31 0.922 0.604 0.604 0.906 1.38 0.906 2.31s-0.307 1.72-0.922 2.34c-0.604 0.615-1.36 0.922-2.28 0.922-0.573 0-1.12-0.13-1.64-0.39-0.51-0.261-0.901-0.636-1.17-1.13-0.271-0.5-0.407-1.11-0.407-1.83zm1.69 0.0937c0 0.615 0.146 1.09 0.437 1.42 0.292 0.323 0.651 0.485 1.08 0.485 0.438 0 0.797-0.162 1.08-0.485 0.291-0.333 0.437-0.812 0.437-1.44 0-0.604-0.146-1.07-0.437-1.39-0.282-0.333-0.641-0.5-1.08-0.5-0.427 0-0.786 0.167-1.08 0.5-0.291 0.323-0.437 0.792-0.437 1.41zm11.3 3.11h-1.64v-3.17c0-0.677-0.037-1.11-0.109-1.31-0.063-0.198-0.178-0.349-0.344-0.453-0.156-0.115-0.344-0.172-0.563-0.172-0.291 0-0.552 0.0782-0.781 0.234-0.219 0.156-0.37 0.365-0.453 0.625s-0.125 0.74-0.125 1.44v2.81h-1.66v-6.22h1.53v0.906c0.542-0.698 1.23-1.05 2.06-1.05 0.355 0 0.683 0.0678 0.985 0.203 0.302 0.125 0.531 0.292 0.687 0.5 0.157 0.198 0.261 0.427 0.313 0.688 0.062 0.25 0.094 0.615 0.094 1.09zm0.765-1.78 1.66-0.25c0.073 0.323 0.214 0.568 0.422 0.734 0.219 0.167 0.521 0.25 0.907 0.25 0.427 0 0.744-0.078 0.953-0.234 0.145-0.115 0.218-0.26 0.218-0.438 0-0.125-0.036-0.229-0.109-0.312-0.083-0.0834-0.266-0.156-0.547-0.219-1.33-0.292-2.18-0.557-2.53-0.797-0.49-0.344-0.734-0.812-0.734-1.41 0-0.542 0.208-0.995 0.625-1.36 0.427-0.365 1.09-0.547 1.98-0.547 0.854 0 1.49 0.141 1.91 0.422 0.417 0.271 0.703 0.677 0.86 1.22l-1.56 0.281c-0.062-0.24-0.187-0.422-0.375-0.547-0.187-0.135-0.453-0.203-0.797-0.203-0.427 0-0.734 0.0625-0.922 0.188-0.125 0.0834-0.187 0.193-0.187 0.328 0 0.125 0.052 0.229 0.156 0.312 0.146 0.104 0.656 0.255 1.53 0.453 0.886 0.198 1.5 0.443 1.84 0.734 0.344 0.292 0.516 0.698 0.516 1.22 0 0.573-0.24 1.07-0.719 1.48-0.469 0.406-1.17 0.609-2.11 0.609-0.844 0-1.52-0.172-2.02-0.515-0.49-0.344-0.813-0.813-0.969-1.41z" clip-path="url(#j)"/><path transform="matrix(1.2 0 0 1.2 -34.6 -17.2)" d="m97.2 128v1.53h-5.78c0.0625-0.584 0.25-1.13 0.562-1.64 0.312-0.521 0.932-1.21 1.86-2.06 0.74-0.688 1.19-1.16 1.36-1.41 0.229-0.343 0.344-0.682 0.344-1.02 0-0.365-0.099-0.646-0.297-0.844s-0.469-0.297-0.812-0.297c-0.344 0-0.62 0.104-0.828 0.313-0.198 0.208-0.312 0.552-0.344 1.03l-1.64-0.156c0.0937-0.907 0.396-1.56 0.906-1.95 0.521-0.395 1.17-0.593 1.94-0.593 0.854 0 1.52 0.229 2 0.687 0.49 0.459 0.734 1.03 0.734 1.7 0 0.386-0.0729 0.756-0.219 1.11-0.136 0.343-0.354 0.708-0.656 1.09-0.198 0.25-0.557 0.615-1.08 1.09-0.521 0.479-0.849 0.797-0.984 0.953-0.135 0.157-0.25 0.308-0.344 0.453zm6.5 1.53-2.52-6.22h1.74l1.17 3.17 0.343 1.06c0.084-0.27 0.136-0.448 0.157-0.531 0.062-0.177 0.125-0.354 0.187-0.531l1.17-3.17h1.7l-2.47 6.22zm9.8-3.16 1.67 0.532c-0.25 0.937-0.677 1.64-1.28 2.09-0.605 0.448-1.36 0.672-2.28 0.672-1.15 0-2.09-0.385-2.83-1.16-0.729-0.781-1.09-1.85-1.09-3.2 0-1.43 0.37-2.54 1.11-3.33 0.739-0.792 1.71-1.19 2.92-1.19 1.05 0 1.91 0.308 2.56 0.922 0.386 0.375 0.677 0.906 0.875 1.59l-1.72 0.406c-0.104-0.448-0.317-0.797-0.64-1.05-0.323-0.26-0.714-0.39-1.17-0.39-0.636 0-1.15 0.229-1.55 0.687-0.396 0.448-0.594 1.19-0.594 2.22 0 1.08 0.193 1.85 0.578 2.31 0.396 0.459 0.907 0.688 1.53 0.688 0.458 0 0.854-0.146 1.19-0.438 0.333-0.291 0.573-0.75 0.719-1.38zm2.5 3.16v-8.59h2.78c1.05 0 1.74 0.042 2.06 0.125 0.489 0.135 0.901 0.422 1.23 0.859 0.333 0.427 0.5 0.98 0.5 1.66 0 0.531-0.099 0.979-0.297 1.34-0.187 0.355-0.427 0.636-0.719 0.844-0.291 0.198-0.593 0.333-0.906 0.406-0.406 0.084-1 0.125-1.8 0.125h-1.12v3.24zm1.73-7.14v2.44h0.953c0.677 0 1.13-0.042 1.36-0.125 0.239-0.094 0.422-0.235 0.547-0.422 0.135-0.198 0.203-0.422 0.203-0.672 0-0.313-0.094-0.568-0.281-0.766-0.188-0.208-0.422-0.338-0.704-0.39-0.198-0.042-0.609-0.063-1.23-0.063zm6.25-1.45h1.74v4.66c0 0.74 0.02 1.22 0.062 1.44 0.073 0.354 0.25 0.635 0.531 0.843 0.282 0.209 0.667 0.313 1.16 0.313 0.489 0 0.859-0.099 1.11-0.297s0.401-0.443 0.453-0.734c0.052-0.292 0.078-0.782 0.078-1.47v-4.75h1.74v4.52c0 1.03-0.047 1.76-0.141 2.19s-0.271 0.787-0.531 1.08c-0.25 0.292-0.589 0.526-1.02 0.703-0.417 0.167-0.963 0.25-1.64 0.25-0.823 0-1.45-0.093-1.88-0.281-0.417-0.187-0.75-0.432-1-0.734-0.24-0.302-0.402-0.62-0.485-0.953-0.114-0.49-0.172-1.22-0.172-2.19z" clip-path="url(#k)"/><path transform="matrix(1.2 0 0 1.2 -34.6 -17.2)" d="m39 176h1.73v4.66c0 0.739 0.0209 1.22 0.0625 1.44 0.073 0.354 0.25 0.636 0.531 0.844 0.281 0.208 0.667 0.312 1.16 0.312 0.49 0 0.859-0.099 1.11-0.297 0.25-0.197 0.401-0.442 0.453-0.734 0.0521-0.292 0.0782-0.781 0.0782-1.47v-4.75h1.73v4.52c0 1.03-0.0468 1.76-0.141 2.19-0.0937 0.428-0.271 0.787-0.531 1.08-0.25 0.291-0.589 0.526-1.02 0.703-0.417 0.166-0.964 0.25-1.64 0.25-0.823 0-1.45-0.094-1.88-0.282-0.417-0.187-0.75-0.432-1-0.734-0.24-0.302-0.401-0.62-0.484-0.953-0.114-0.49-0.172-1.22-0.172-2.19zm7.94 8.59v-8.59h1.64v3.09c0.51-0.573 1.11-0.859 1.81-0.859 0.75 0 1.38 0.276 1.88 0.828 0.5 0.542 0.75 1.33 0.75 2.36 0 1.06-0.255 1.88-0.766 2.45-0.51 0.573-1.12 0.86-1.84 0.86-0.354 0-0.703-0.089-1.05-0.266-0.344-0.177-0.641-0.443-0.891-0.797v0.922zm1.62-3.25c0 0.646 0.104 1.12 0.312 1.44 0.281 0.437 0.661 0.656 1.14 0.656 0.354 0 0.661-0.156 0.922-0.469 0.26-0.312 0.391-0.802 0.391-1.47 0-0.708-0.13-1.22-0.391-1.53-0.26-0.323-0.594-0.484-1-0.484-0.386 0-0.714 0.156-0.984 0.468-0.26 0.303-0.391 0.766-0.391 1.39zm5.44-3.81v-1.53h1.66v1.53zm0 7.06v-6.22h1.66v6.22zm8.42-4.39-1.61 0.297c-0.0625-0.323-0.193-0.562-0.391-0.718-0.188-0.167-0.432-0.25-0.734-0.25-0.417 0-0.75 0.14-1 0.421-0.24 0.282-0.359 0.756-0.359 1.42 0 0.74 0.125 1.26 0.375 1.56s0.583 0.453 1 0.453c0.312 0 0.568-0.089 0.766-0.266s0.338-0.484 0.422-0.922l1.62 0.282c-0.167 0.739-0.49 1.3-0.969 1.69-0.479 0.375-1.12 0.563-1.92 0.563-0.906 0-1.63-0.287-2.17-0.86-0.542-0.573-0.812-1.37-0.812-2.39s0.271-1.82 0.812-2.39c0.542-0.573 1.28-0.859 2.2-0.859 0.76 0 1.36 0.161 1.81 0.484s0.766 0.818 0.953 1.48zm1.58 4.39v-8.59h1.66v8.59zm2.62-3.2c0-0.542 0.135-1.07 0.406-1.58 0.271-0.521 0.651-0.912 1.14-1.17 0.49-0.271 1.04-0.406 1.66-0.406 0.938 0 1.71 0.307 2.31 0.922 0.604 0.604 0.906 1.38 0.906 2.31 0 0.938-0.307 1.72-0.922 2.34-0.604 0.614-1.36 0.922-2.28 0.922-0.573 0-1.12-0.13-1.64-0.391-0.51-0.26-0.901-0.635-1.17-1.12-0.271-0.5-0.406-1.11-0.406-1.83zm1.69 0.094c0 0.614 0.146 1.09 0.438 1.42 0.292 0.323 0.651 0.484 1.08 0.484 0.438 0 0.797-0.161 1.08-0.484 0.292-0.334 0.438-0.813 0.438-1.44 0-0.604-0.146-1.07-0.438-1.39-0.281-0.333-0.641-0.5-1.08-0.5-0.427 0-0.786 0.167-1.08 0.5-0.292 0.323-0.438 0.792-0.438 1.41zm9.78 3.11v-0.937c-0.219 0.333-0.516 0.599-0.891 0.796-0.365 0.188-0.755 0.282-1.17 0.282s-0.792-0.089-1.12-0.266c-0.333-0.187-0.573-0.448-0.719-0.781-0.146-0.333-0.219-0.792-0.219-1.38v-3.94h1.64v2.86c0 0.875 0.0313 1.41 0.0938 1.61s0.172 0.354 0.328 0.469c0.167 0.114 0.37 0.172 0.609 0.172 0.281 0 0.531-0.078 0.75-0.235 0.229-0.156 0.385-0.349 0.469-0.578 0.0834-0.229 0.125-0.786 0.125-1.67v-2.62h1.64v6.22zm8.61 0h-1.52v-0.922c-0.26 0.365-0.562 0.636-0.906 0.813-0.344 0.166-0.693 0.25-1.05 0.25-0.719 0-1.33-0.287-1.84-0.86-0.5-0.583-0.75-1.39-0.75-2.42 0-1.05 0.245-1.85 0.734-2.39 0.5-0.552 1.13-0.828 1.89-0.828 0.688 0 1.29 0.286 1.8 0.859v-3.09h1.64zm-4.39-3.25c0 0.667 0.0937 1.15 0.281 1.44 0.26 0.437 0.63 0.656 1.11 0.656 0.375 0 0.693-0.162 0.953-0.485 0.271-0.322 0.406-0.807 0.406-1.45 0-0.708-0.13-1.22-0.391-1.53-0.25-0.323-0.578-0.484-0.984-0.484-0.386 0-0.714 0.156-0.984 0.468-0.26 0.313-0.391 0.777-0.391 1.39zm8.7 3.25v-8.59h3.66c0.917 0 1.58 0.078 2 0.235 0.417 0.156 0.75 0.432 1 0.828s0.375 0.844 0.375 1.34c0 0.645-0.193 1.18-0.578 1.61-0.375 0.417-0.938 0.677-1.69 0.781 0.375 0.219 0.682 0.464 0.922 0.735 0.25 0.26 0.578 0.724 0.984 1.39l1.06 1.67h-2.08l-1.25-1.88c-0.448-0.667-0.755-1.08-0.922-1.25-0.167-0.177-0.344-0.297-0.531-0.359-0.177-0.073-0.464-0.11-0.859-0.11h-0.359v3.59zm1.73-4.95h1.28c0.833 0 1.35-0.036 1.56-0.109s0.37-0.193 0.484-0.36c0.125-0.177 0.188-0.396 0.188-0.656 0-0.281-0.0781-0.51-0.234-0.688-0.156-0.177-0.375-0.291-0.656-0.343-0.146-0.021-0.568-0.032-1.27-0.032h-1.36zm10.3 4.95v-0.937c-0.219 0.333-0.516 0.599-0.891 0.796-0.364 0.188-0.755 0.282-1.17 0.282-0.417 0-0.792-0.089-1.13-0.266-0.333-0.187-0.573-0.448-0.719-0.781-0.146-0.333-0.219-0.792-0.219-1.38v-3.94h1.64v2.86c0 0.875 0.031 1.41 0.093 1.61 0.063 0.198 0.172 0.354 0.329 0.469 0.166 0.114 0.369 0.172 0.609 0.172 0.281 0 0.531-0.078 0.75-0.235 0.229-0.156 0.385-0.349 0.469-0.578 0.083-0.229 0.125-0.786 0.125-1.67v-2.62h1.64v6.22zm8.56 0h-1.64v-3.17c0-0.677-0.037-1.11-0.109-1.31-0.063-0.198-0.178-0.349-0.344-0.453-0.156-0.115-0.344-0.172-0.563-0.172-0.291 0-0.552 0.078-0.781 0.234-0.219 0.156-0.37 0.365-0.453 0.625-0.083 0.261-0.125 0.74-0.125 1.44v2.81h-1.66v-6.22h1.53v0.907c0.542-0.698 1.23-1.05 2.06-1.05 0.355 0 0.683 0.067 0.985 0.203 0.302 0.125 0.531 0.292 0.687 0.5 0.157 0.198 0.261 0.427 0.313 0.687 0.062 0.25 0.094 0.615 0.094 1.09zm7 0h-1.64v-3.17c0-0.677-0.037-1.11-0.109-1.31-0.063-0.198-0.178-0.349-0.344-0.453-0.156-0.115-0.344-0.172-0.563-0.172-0.291 0-0.552 0.078-0.781 0.234-0.219 0.156-0.37 0.365-0.453 0.625-0.083 0.261-0.125 0.74-0.125 1.44v2.81h-1.66v-6.22h1.53v0.907c0.542-0.698 1.23-1.05 2.06-1.05 0.355 0 0.683 0.067 0.985 0.203 0.302 0.125 0.531 0.292 0.687 0.5 0.157 0.198 0.261 0.427 0.313 0.687 0.062 0.25 0.094 0.615 0.094 1.09zm4.95-1.98 1.64 0.281c-0.208 0.604-0.541 1.06-1 1.38-0.458 0.312-1.03 0.469-1.7 0.469-1.08 0-1.88-0.354-2.41-1.06-0.417-0.562-0.625-1.28-0.625-2.14 0-1.03 0.271-1.84 0.812-2.42 0.542-0.584 1.22-0.875 2.05-0.875 0.927 0 1.66 0.307 2.19 0.922 0.541 0.604 0.797 1.54 0.765 2.8h-4.12c0.021 0.49 0.157 0.87 0.407 1.14s0.567 0.406 0.953 0.406c0.25 0 0.463-0.067 0.64-0.203 0.177-0.146 0.313-0.375 0.407-0.687zm0.093-1.66c-0.01-0.479-0.135-0.843-0.375-1.09-0.229-0.25-0.515-0.375-0.859-0.375-0.354 0-0.651 0.13-0.891 0.39-0.229 0.271-0.343 0.631-0.343 1.08zm4.88 3.64h-1.64v-6.22h1.53v0.875c0.26-0.416 0.495-0.687 0.703-0.812 0.208-0.136 0.443-0.203 0.703-0.203 0.375 0 0.74 0.104 1.09 0.312l-0.516 1.42c-0.281-0.177-0.536-0.266-0.765-0.266-0.24 0-0.438 0.068-0.594 0.204-0.156 0.125-0.281 0.354-0.375 0.687-0.094 0.323-0.141 1.02-0.141 2.08z" clip-path="url(#l)"/><path transform="matrix(1.2 0 0 1.2 -34.6 -17.2)" d="m97.2 211v1.53h-5.78c0.0625-0.583 0.25-1.13 0.562-1.64 0.312-0.52 0.932-1.21 1.86-2.06 0.74-0.688 1.19-1.16 1.36-1.41 0.229-0.344 0.344-0.683 0.344-1.02 0-0.364-0.099-0.646-0.297-0.844s-0.469-0.297-0.812-0.297c-0.344 0-0.62 0.105-0.828 0.313-0.198 0.208-0.312 0.552-0.344 1.03l-1.64-0.156c0.0937-0.906 0.396-1.56 0.906-1.95 0.521-0.396 1.17-0.594 1.94-0.594 0.854 0 1.52 0.229 2 0.688 0.49 0.458 0.734 1.03 0.734 1.7 0 0.385-0.0729 0.755-0.219 1.11-0.136 0.344-0.354 0.708-0.656 1.09-0.198 0.25-0.557 0.614-1.08 1.09-0.521 0.479-0.849 0.796-0.984 0.953-0.135 0.156-0.25 0.307-0.344 0.453zm6.5 1.53-2.52-6.22h1.74l1.17 3.17 0.343 1.06c0.084-0.271 0.136-0.448 0.157-0.532 0.062-0.177 0.125-0.354 0.187-0.531l1.17-3.17h1.7l-2.47 6.22zm9.8-3.16 1.67 0.531c-0.25 0.938-0.677 1.64-1.28 2.09-0.605 0.448-1.36 0.672-2.28 0.672-1.15 0-2.09-0.386-2.83-1.16-0.729-0.781-1.09-1.85-1.09-3.2 0-1.43 0.37-2.54 1.11-3.33 0.739-0.791 1.71-1.19 2.92-1.19 1.05 0 1.91 0.307 2.56 0.922 0.386 0.375 0.677 0.906 0.875 1.59l-1.72 0.407c-0.104-0.448-0.317-0.797-0.64-1.05-0.323-0.261-0.714-0.391-1.17-0.391-0.636 0-1.15 0.229-1.55 0.688-0.396 0.448-0.594 1.19-0.594 2.22 0 1.08 0.193 1.86 0.578 2.31 0.396 0.458 0.907 0.687 1.53 0.687 0.458 0 0.854-0.145 1.19-0.437s0.573-0.75 0.719-1.38zm2.5 3.16v-8.59h2.78c1.05 0 1.74 0.042 2.06 0.125 0.489 0.136 0.901 0.422 1.23 0.86 0.333 0.427 0.5 0.979 0.5 1.66 0 0.531-0.099 0.979-0.297 1.34-0.187 0.354-0.427 0.635-0.719 0.843-0.291 0.198-0.593 0.334-0.906 0.407-0.406 0.083-1 0.125-1.8 0.125h-1.12v3.23zm1.73-7.14v2.44h0.953c0.677 0 1.13-0.042 1.36-0.125 0.239-0.094 0.422-0.234 0.547-0.422 0.135-0.198 0.203-0.422 0.203-0.672 0-0.312-0.094-0.567-0.281-0.765-0.188-0.209-0.422-0.339-0.704-0.391-0.198-0.042-0.609-0.063-1.23-0.063zm6.25-1.45h1.74v4.66c0 0.739 0.02 1.22 0.062 1.44 0.073 0.354 0.25 0.636 0.531 0.844 0.282 0.208 0.667 0.312 1.16 0.312 0.489 0 0.859-0.099 1.11-0.297 0.25-0.197 0.401-0.442 0.453-0.734s0.078-0.781 0.078-1.47v-4.75h1.74v4.52c0 1.03-0.047 1.76-0.141 2.19-0.094 0.428-0.271 0.787-0.531 1.08-0.25 0.291-0.589 0.526-1.02 0.703-0.417 0.166-0.963 0.25-1.64 0.25-0.823 0-1.45-0.094-1.88-0.282-0.417-0.187-0.75-0.432-1-0.734-0.24-0.302-0.402-0.62-0.485-0.953-0.114-0.49-0.172-1.22-0.172-2.19z" clip-path="url(#m)"/><path transform="matrix(1.2 0 0 1.2 -34.6 -17.2)" d="m39 260h1.73v4.66c0 0.74 0.0209 1.22 0.0625 1.44 0.073 0.354 0.25 0.635 0.531 0.844 0.281 0.208 0.667 0.312 1.16 0.312 0.49 0 0.859-0.099 1.11-0.297s0.401-0.442 0.453-0.734c0.0521-0.292 0.0782-0.781 0.0782-1.47v-4.75h1.73v4.52c0 1.03-0.0468 1.76-0.141 2.19-0.0937 0.427-0.271 0.787-0.531 1.08-0.25 0.292-0.589 0.527-1.02 0.704-0.417 0.166-0.964 0.25-1.64 0.25-0.823 0-1.45-0.094-1.88-0.282-0.417-0.187-0.75-0.432-1-0.734-0.24-0.302-0.401-0.62-0.484-0.953-0.114-0.49-0.172-1.22-0.172-2.19zm7.94 8.59v-8.59h1.64v3.09c0.51-0.573 1.11-0.859 1.81-0.859 0.75 0 1.38 0.276 1.88 0.828 0.5 0.541 0.75 1.33 0.75 2.36 0 1.06-0.255 1.88-0.766 2.45-0.51 0.573-1.12 0.86-1.84 0.86-0.354 0-0.703-0.089-1.05-0.266-0.344-0.177-0.641-0.443-0.891-0.797v0.922zm1.62-3.25c0 0.646 0.104 1.12 0.312 1.44 0.281 0.438 0.661 0.657 1.14 0.657 0.354 0 0.661-0.157 0.922-0.469 0.26-0.313 0.391-0.802 0.391-1.47 0-0.708-0.13-1.22-0.391-1.53-0.26-0.323-0.594-0.484-1-0.484-0.386 0-0.714 0.156-0.984 0.468-0.26 0.302-0.391 0.766-0.391 1.39zm5.44-3.81v-1.53h1.66v1.53zm0 7.06v-6.22h1.66v6.22zm8.42-4.39-1.61 0.297c-0.0625-0.323-0.193-0.562-0.391-0.719-0.188-0.166-0.432-0.25-0.734-0.25-0.417 0-0.75 0.141-1 0.422-0.24 0.282-0.359 0.756-0.359 1.42 0 0.74 0.125 1.26 0.375 1.56s0.583 0.453 1 0.453c0.312 0 0.568-0.089 0.766-0.266s0.338-0.484 0.422-0.922l1.62 0.282c-0.167 0.739-0.49 1.3-0.969 1.69-0.479 0.375-1.12 0.563-1.92 0.563-0.906 0-1.63-0.287-2.17-0.86-0.542-0.573-0.812-1.37-0.812-2.39 0-1.02 0.271-1.82 0.812-2.39 0.542-0.573 1.28-0.859 2.2-0.859 0.76 0 1.36 0.161 1.81 0.484s0.766 0.818 0.953 1.48zm1.58 4.39v-8.59h1.66v8.59zm2.62-3.2c0-0.542 0.135-1.07 0.406-1.58 0.271-0.521 0.651-0.912 1.14-1.17 0.49-0.271 1.04-0.406 1.66-0.406 0.938 0 1.71 0.307 2.31 0.921 0.604 0.605 0.906 1.38 0.906 2.31 0 0.937-0.307 1.72-0.922 2.34-0.604 0.614-1.36 0.922-2.28 0.922-0.573 0-1.12-0.131-1.64-0.391-0.51-0.26-0.901-0.635-1.17-1.12-0.271-0.5-0.406-1.11-0.406-1.83zm1.69 0.094c0 0.614 0.146 1.09 0.438 1.42 0.292 0.323 0.651 0.485 1.08 0.485 0.438 0 0.797-0.162 1.08-0.485 0.292-0.333 0.438-0.812 0.438-1.44 0-0.604-0.146-1.07-0.438-1.39-0.281-0.333-0.641-0.5-1.08-0.5-0.427 0-0.786 0.167-1.08 0.5-0.292 0.323-0.438 0.792-0.438 1.41zm9.78 3.11v-0.938c-0.219 0.334-0.516 0.599-0.891 0.797-0.365 0.188-0.755 0.282-1.17 0.282s-0.792-0.089-1.12-0.266c-0.333-0.188-0.573-0.448-0.719-0.781-0.146-0.334-0.219-0.792-0.219-1.38v-3.94h1.64v2.86c0 0.875 0.0313 1.41 0.0938 1.61s0.172 0.354 0.328 0.469c0.167 0.114 0.37 0.172 0.609 0.172 0.281 0 0.531-0.079 0.75-0.235 0.229-0.156 0.385-0.349 0.469-0.578 0.0834-0.229 0.125-0.786 0.125-1.67v-2.62h1.64v6.22zm8.61 0h-1.52v-0.922c-0.26 0.365-0.562 0.636-0.906 0.813-0.344 0.166-0.693 0.25-1.05 0.25-0.719 0-1.33-0.287-1.84-0.86-0.5-0.583-0.75-1.39-0.75-2.42 0-1.05 0.245-1.85 0.734-2.39 0.5-0.552 1.13-0.828 1.89-0.828 0.688 0 1.29 0.286 1.8 0.859v-3.09h1.64zm-4.39-3.25c0 0.667 0.0937 1.15 0.281 1.44 0.26 0.438 0.63 0.657 1.11 0.657 0.375 0 0.693-0.162 0.953-0.485 0.271-0.323 0.406-0.807 0.406-1.45 0-0.708-0.13-1.22-0.391-1.53-0.25-0.323-0.578-0.484-0.984-0.484-0.386 0-0.714 0.156-0.984 0.468-0.26 0.313-0.391 0.776-0.391 1.39zm8.7 3.25v-8.59h3.66c0.917 0 1.58 0.078 2 0.235 0.417 0.156 0.75 0.432 1 0.828s0.375 0.843 0.375 1.34c0 0.646-0.193 1.18-0.578 1.61-0.375 0.417-0.938 0.677-1.69 0.781 0.375 0.219 0.682 0.464 0.922 0.734 0.25 0.261 0.578 0.724 0.984 1.39l1.06 1.67h-2.08l-1.25-1.88c-0.448-0.667-0.755-1.08-0.922-1.25-0.167-0.177-0.344-0.297-0.531-0.359-0.177-0.073-0.464-0.11-0.859-0.11h-0.359v3.59zm1.73-4.95h1.28c0.833 0 1.35-0.037 1.56-0.11 0.208-0.072 0.37-0.192 0.484-0.359 0.125-0.177 0.188-0.396 0.188-0.656 0-0.281-0.0781-0.511-0.234-0.688-0.156-0.177-0.375-0.291-0.656-0.343-0.146-0.021-0.568-0.032-1.27-0.032h-1.36zm10.3 4.95v-0.938c-0.219 0.334-0.516 0.599-0.891 0.797-0.364 0.188-0.755 0.282-1.17 0.282-0.417 0-0.792-0.089-1.13-0.266-0.333-0.188-0.573-0.448-0.719-0.781-0.146-0.334-0.219-0.792-0.219-1.38v-3.94h1.64v2.86c0 0.875 0.031 1.41 0.093 1.61 0.063 0.198 0.172 0.354 0.329 0.469 0.166 0.114 0.369 0.172 0.609 0.172 0.281 0 0.531-0.079 0.75-0.235 0.229-0.156 0.385-0.349 0.469-0.578 0.083-0.229 0.125-0.786 0.125-1.67v-2.62h1.64v6.22zm8.56 0h-1.64v-3.17c0-0.677-0.037-1.11-0.109-1.31-0.063-0.198-0.178-0.349-0.344-0.454-0.156-0.114-0.344-0.171-0.563-0.171-0.291 0-0.552 0.078-0.781 0.234-0.219 0.156-0.37 0.365-0.453 0.625s-0.125 0.74-0.125 1.44v2.81h-1.66v-6.22h1.53v0.906c0.542-0.697 1.23-1.05 2.06-1.05 0.355 0 0.683 0.067 0.985 0.203 0.302 0.125 0.531 0.291 0.687 0.5 0.157 0.198 0.261 0.427 0.313 0.687 0.062 0.25 0.094 0.615 0.094 1.09zm7 0h-1.64v-3.17c0-0.677-0.037-1.11-0.109-1.31-0.063-0.198-0.178-0.349-0.344-0.454-0.156-0.114-0.344-0.171-0.563-0.171-0.291 0-0.552 0.078-0.781 0.234-0.219 0.156-0.37 0.365-0.453 0.625s-0.125 0.74-0.125 1.44v2.81h-1.66v-6.22h1.53v0.906c0.542-0.697 1.23-1.05 2.06-1.05 0.355 0 0.683 0.067 0.985 0.203 0.302 0.125 0.531 0.291 0.687 0.5 0.157 0.198 0.261 0.427 0.313 0.687 0.062 0.25 0.094 0.615 0.094 1.09zm4.95-1.98 1.64 0.281c-0.208 0.604-0.541 1.06-1 1.38-0.458 0.312-1.03 0.469-1.7 0.469-1.08 0-1.88-0.355-2.41-1.06-0.417-0.562-0.625-1.28-0.625-2.14 0-1.03 0.271-1.84 0.812-2.42 0.542-0.584 1.22-0.875 2.05-0.875 0.927 0 1.66 0.307 2.19 0.921 0.541 0.605 0.797 1.54 0.765 2.8h-4.12c0.021 0.49 0.157 0.87 0.407 1.14s0.567 0.406 0.953 0.406c0.25 0 0.463-0.067 0.64-0.203 0.177-0.146 0.313-0.375 0.407-0.687zm0.093-1.66c-0.01-0.479-0.135-0.843-0.375-1.09-0.229-0.25-0.515-0.375-0.859-0.375-0.354 0-0.651 0.13-0.891 0.39-0.229 0.271-0.343 0.63-0.343 1.08zm4.88 3.64h-1.64v-6.22h1.53v0.875c0.26-0.416 0.495-0.687 0.703-0.812 0.208-0.136 0.443-0.203 0.703-0.203 0.375 0 0.74 0.104 1.09 0.312l-0.516 1.42c-0.281-0.177-0.536-0.266-0.765-0.266-0.24 0-0.438 0.068-0.594 0.203-0.156 0.125-0.281 0.355-0.375 0.688-0.094 0.323-0.141 1.02-0.141 2.08z" clip-path="url(#n)"/><path transform="matrix(1.2 0 0 1.2 -34.6 -17.2)" d="m94.9 296v-1.73h-3.52v-1.44l3.73-5.45h1.38v5.45h1.08v1.44h-1.08v1.73zm0-3.17v-2.94l-1.97 2.94zm8.84 3.17-2.52-6.22h1.74l1.17 3.17 0.343 1.06c0.084-0.271 0.136-0.448 0.157-0.532 0.062-0.177 0.125-0.354 0.187-0.531l1.17-3.17h1.7l-2.47 6.22zm9.8-3.16 1.67 0.531c-0.25 0.937-0.677 1.64-1.28 2.09-0.605 0.448-1.36 0.672-2.28 0.672-1.15 0-2.09-0.386-2.83-1.16-0.729-0.781-1.09-1.85-1.09-3.2 0-1.43 0.37-2.54 1.11-3.33 0.739-0.792 1.71-1.19 2.92-1.19 1.05 0 1.91 0.307 2.56 0.921 0.386 0.375 0.677 0.907 0.875 1.59l-1.72 0.406c-0.104-0.447-0.317-0.796-0.64-1.05-0.323-0.261-0.714-0.391-1.17-0.391-0.636 0-1.15 0.229-1.55 0.687-0.396 0.448-0.594 1.19-0.594 2.22 0 1.08 0.193 1.85 0.578 2.31 0.396 0.458 0.907 0.687 1.53 0.687 0.458 0 0.854-0.146 1.19-0.437 0.333-0.292 0.573-0.75 0.719-1.38zm2.5 3.16v-8.59h2.78c1.05 0 1.74 0.042 2.06 0.125 0.489 0.136 0.901 0.422 1.23 0.86 0.333 0.427 0.5 0.979 0.5 1.66 0 0.531-0.099 0.979-0.297 1.34-0.187 0.354-0.427 0.635-0.719 0.843-0.291 0.198-0.593 0.334-0.906 0.407-0.406 0.083-1 0.125-1.8 0.125h-1.12v3.23zm1.73-7.14v2.44h0.953c0.677 0 1.13-0.042 1.36-0.125 0.239-0.094 0.422-0.235 0.547-0.422 0.135-0.198 0.203-0.422 0.203-0.672 0-0.312-0.094-0.568-0.281-0.766-0.188-0.208-0.422-0.338-0.704-0.39-0.198-0.042-0.609-0.063-1.23-0.063zm6.25-1.45h1.74v4.66c0 0.74 0.02 1.22 0.062 1.44 0.073 0.354 0.25 0.635 0.531 0.844 0.282 0.208 0.667 0.312 1.16 0.312 0.489 0 0.859-0.099 1.11-0.297s0.401-0.442 0.453-0.734 0.078-0.781 0.078-1.47v-4.75h1.74v4.52c0 1.03-0.047 1.76-0.141 2.19s-0.271 0.787-0.531 1.08c-0.25 0.292-0.589 0.527-1.02 0.704-0.417 0.166-0.963 0.25-1.64 0.25-0.823 0-1.45-0.094-1.88-0.282-0.417-0.187-0.75-0.432-1-0.734-0.24-0.302-0.402-0.62-0.485-0.953-0.114-0.49-0.172-1.22-0.172-2.19z" clip-path="url(#o)"/></g></g><path d="m178 49.8v-16.4h3.76q0.578 0 1.13 0.111 0.578 0.089 1.09 0.356 0.512 0.245 0.912 0.667 0.423 0.4 0.69 0.934 0.267 0.512 0.356 1.09 0.111 0.556 0.111 1.13 0 0.534-0.111 1.09-0.089 0.534-0.356 1-0.267 0.467-0.667 0.845t-0.89 0.601q0.578 0.222 1.09 0.601 0.534 0.378 0.868 0.912 0.356 0.534 0.489 1.16 0.156 0.623 0.156 1.27 0 0.623-0.133 1.27-0.111 0.623-0.423 1.18t-0.801 0.979q-0.467 0.423-1.05 0.69t-1.22 0.378q-0.623 0.089-1.25 0.089zm3.76-9.26q0.534 0 1.05-0.178 0.534-0.178 0.89-0.578 0.356-0.423 0.489-0.934 0.134-0.534 0.134-1.09 0-0.534-0.134-1.05-0.134-0.534-0.489-0.934-0.356-0.423-0.89-0.601-0.512-0.178-1.05-0.178h-2.02v5.54zm0 7.7q0.423 0 0.823-0.0668 0.423-0.0668 0.779-0.245 0.378-0.178 0.69-0.467 0.312-0.311 0.512-0.667 0.2-0.378 0.267-0.779 0.0668-0.423 0.0668-0.845 0-0.4-0.0668-0.823-0.0667-0.423-0.267-0.779-0.2-0.378-0.512-0.667-0.289-0.289-0.667-0.467-0.378-0.2-0.801-0.267-0.4-0.0668-0.823-0.0668h-2.02v6.14zm10.8 1.74q-0.556 0-1.09-0.156-0.534-0.156-0.957-0.489-0.4-0.356-0.69-0.823-0.289-0.489-0.467-1-0.156-0.534-0.222-1.07-0.0445-0.556-0.0445-1.09v-7.34h1.74v7.34q0 0.378 0.0445 0.756 0.0445 0.356 0.156 0.712 0.111 0.334 0.311 0.645 0.222 0.311 0.512 0.534t0.645 0.334q0.356 0.089 0.734 0.089t0.734-0.089q0.356-0.111 0.645-0.334 0.289-0.222 0.489-0.534 0.222-0.311 0.334-0.645 0.111-0.356 0.156-0.712 0.0445-0.378 0.0445-0.756v-7.34h1.74v11.8h-1.74v-2.02q-0.178 0.467-0.467 0.89-0.289 0.423-0.712 0.734-0.4 0.311-0.912 0.445-0.489 0.133-0.979 0.133zm7.9-0.178v-1.56h3.18v-8.68h-2.87v-1.56h4.61v10.2h2.87v1.56zm3.89-13.9q-0.289 0-0.556-0.0668-0.267-0.089-0.467-0.289-0.2-0.2-0.289-0.467-0.0667-0.267-0.0667-0.556t0.0667-0.556q0.089-0.267 0.289-0.467 0.2-0.2 0.467-0.289 0.267-0.089 0.556-0.089t0.556 0.089q0.267 0.089 0.467 0.289 0.2 0.2 0.289 0.467t0.089 0.556-0.089 0.556-0.289 0.467q-0.2 0.2-0.467 0.289-0.267 0.0668-0.556 0.0668zm7.23 13.9v-1.56h3.18v-13.2h-2.87v-1.56h4.61v14.8h2.87v1.56zm14.3 0.178q-0.556 0-1.11-0.156-0.534-0.156-0.979-0.489t-0.756-0.801q-0.289-0.467-0.467-0.979-0.178-0.534-0.245-1.09-0.0668-0.556-0.0668-1.11v-2.89q0-0.556 0.0668-1.11 0.0667-0.556 0.245-1.07 0.178-0.534 0.467-1 0.311-0.467 0.756-0.801t0.979-0.489q0.556-0.156 1.11-0.156 0.512 0 1 0.133 0.512 0.133 0.912 0.445 0.423 0.289 0.712 0.734 0.289 0.423 0.467 0.89v-6.59h1.74v16.4h-1.74v-2.02q-0.178 0.467-0.467 0.912-0.289 0.423-0.712 0.734-0.4 0.289-0.912 0.423-0.489 0.133-1 0.133zm0.667-1.56q0.378 0 0.734-0.089 0.378-0.111 0.667-0.334t0.489-0.534q0.222-0.311 0.334-0.645 0.111-0.356 0.156-0.712 0.0445-0.378 0.0445-0.756v-2.89q0-0.378-0.0445-0.734-0.0445-0.378-0.156-0.712-0.111-0.356-0.334-0.667-0.2-0.334-0.489-0.556t-0.667-0.311q-0.356-0.089-0.734-0.089t-0.756 0.089q-0.356 0.089-0.667 0.311-0.312 0.2-0.556 0.512-0.222 0.311-0.356 0.667-0.134 0.356-0.178 0.734-0.0445 0.378-0.0445 0.756v2.89q0 0.378 0.0445 0.756 0.0445 0.378 0.178 0.734 0.134 0.356 0.356 0.667 0.245 0.311 0.556 0.534 0.311 0.2 0.667 0.289 0.378 0.089 0.756 0.089zm12.7 1.56q-0.534 0-1.07-0.133-0.534-0.133-0.979-0.445-0.423-0.311-0.734-0.756-0.289-0.467-0.467-0.957-0.178-0.512-0.245-1.05-0.0667-0.534-0.0667-1.07v-6.01h-2.45v-1.56h2.45v-4.56h1.74v4.56h3.6v1.56h-3.6v6.01q0 0.311 0.0222 0.645 0.0223 0.311 0.089 0.623 0.089 0.289 0.222 0.601 0.134 0.289 0.334 0.512 0.222 0.222 0.534 0.356 0.311 0.111 0.623 0.111 0.423 0 0.801-0.2 0.4-0.2 0.623-0.556 0.222-0.378 0.311-0.801 0.089-0.423 0.089-0.845 0-0.0222-0.0223-0.0668 0-0.0445 0-0.0668h1.74q0 0.0445 0 0.111 0 0.0445 0 0.111 0 0.489-0.089 0.979t-0.289 0.957q-0.2 0.445-0.534 0.845-0.311 0.378-0.734 0.645-0.423 0.245-0.912 0.334-0.489 0.111-0.979 0.111zm5.65-0.178v-1.56h3.18v-8.68h-2.87v-1.56h4.61v10.2h2.87v1.56zm3.89-13.9q-0.289 0-0.556-0.0668-0.267-0.089-0.467-0.289-0.2-0.2-0.289-0.467-0.0668-0.267-0.0668-0.556t0.0668-0.556q0.089-0.267 0.289-0.467 0.2-0.2 0.467-0.289 0.267-0.089 0.556-0.089 0.289 0 0.556 0.089t0.467 0.289q0.2 0.2 0.289 0.467t0.089 0.556-0.089 0.556-0.289 0.467q-0.2 0.2-0.467 0.289-0.267 0.0668-0.556 0.0668zm6.63 13.9v-11.8h1.74v0.934q0.111-0.245 0.267-0.445 0.156-0.222 0.356-0.378 0.222-0.156 0.467-0.222 0.267-0.0668 0.534-0.0668 0.334 0 0.645 0.111 0.312 0.111 0.534 0.334 0.245 0.222 0.4 0.512 0.156 0.289 0.245 0.623 0.089-0.311 0.245-0.601 0.156-0.311 0.378-0.534 0.222-0.222 0.534-0.334t0.645-0.111 0.645 0.133q0.334 0.111 0.578 0.356 0.245 0.222 0.378 0.534 0.156 0.311 0.245 0.645 0.089 0.311 0.111 0.645 0.0445 0.334 0.0445 0.667v8.99h-1.74v-8.99q0-0.245-0.0445-0.467-0.0223-0.245-0.134-0.467-0.111-0.222-0.334-0.356-0.2-0.133-0.445-0.133-0.222 0-0.445 0.133-0.2 0.133-0.311 0.356-0.111 0.222-0.156 0.467-0.0222 0.222-0.0222 0.467v8.99h-1.74v-8.99q0-0.245-0.0445-0.467-0.0222-0.245-0.134-0.467-0.111-0.222-0.334-0.356-0.2-0.133-0.423-0.133-0.245 0-0.467 0.133-0.2 0.133-0.311 0.356t-0.156 0.467q-0.0222 0.222-0.0222 0.467v8.99zm15.7 0.178q-0.623 0-1.22-0.111-0.578-0.111-1.11-0.4-0.534-0.311-0.934-0.756-0.4-0.467-0.667-1-0.245-0.556-0.334-1.16-0.089-0.601-0.089-1.2v-2.89q0-0.601 0.089-1.2 0.089-0.601 0.334-1.13 0.245-0.556 0.645-1 0.423-0.467 0.934-0.756 0.512-0.289 1.11-0.4 0.601-0.133 1.2-0.133 0.601 0 1.2 0.133 0.601 0.111 1.11 0.4 0.512 0.289 0.912 0.756 0.423 0.445 0.667 1 0.245 0.534 0.334 1.13 0.089 0.601 0.089 1.2v2.22h-6.9v0.667q0 0.378 0.0445 0.756 0.0445 0.378 0.178 0.734 0.156 0.356 0.378 0.667 0.245 0.311 0.556 0.534 0.311 0.2 0.69 0.289 0.378 0.089 0.779 0.089 0.423 0 0.845-0.089 0.445-0.089 0.801-0.311 0.378-0.245 0.601-0.623 0.222-0.4 0.245-0.823h1.74q-0.0222 0.489-0.2 0.979-0.156 0.489-0.467 0.912-0.289 0.4-0.712 0.712-0.4 0.289-0.868 0.489-0.467 0.178-0.979 0.245-0.512 0.0668-1 0.0668zm-2.63-6.85h5.16v-0.667q0-0.378-0.0445-0.756-0.0445-0.378-0.178-0.734-0.133-0.356-0.378-0.667-0.222-0.311-0.534-0.512-0.311-0.222-0.69-0.311-0.378-0.089-0.756-0.089t-0.756 0.089-0.69 0.311q-0.312 0.2-0.556 0.512-0.222 0.311-0.356 0.667-0.134 0.356-0.178 0.734-0.0445 0.378-0.0445 0.756zm13.7 6.85q-0.512 0-1-0.0668-0.489-0.0445-0.957-0.2-0.467-0.178-0.89-0.467-0.4-0.289-0.712-0.667-0.289-0.4-0.445-0.89-0.156-0.489-0.156-0.979 0-0.0222 0-0.0222h1.74q0 0.423 0.222 0.801 0.222 0.356 0.578 0.578 0.378 0.2 0.779 0.289 0.423 0.0668 0.845 0.0668 0.423 0 0.823-0.0668 0.423-0.089 0.779-0.289 0.378-0.222 0.601-0.601 0.245-0.378 0.245-0.801 0-0.378-0.222-0.712-0.2-0.334-0.534-0.534-0.311-0.222-0.69-0.311-0.356-0.111-0.734-0.222-0.356-0.111-0.734-0.222-0.356-0.111-0.712-0.245t-0.712-0.289q-0.334-0.178-0.645-0.4t-0.578-0.489q-0.267-0.289-0.467-0.623-0.178-0.334-0.267-0.712t-0.089-0.756q0-0.489 0.134-0.957 0.156-0.467 0.423-0.868 0.267-0.423 0.667-0.712t0.845-0.467q0.467-0.178 0.934-0.245 0.489-0.0668 0.979-0.0668 0.489 0 0.957 0.0668 0.489 0.0668 0.934 0.245 0.467 0.156 0.845 0.445 0.4 0.267 0.667 0.667 0.289 0.4 0.423 0.868 0.156 0.467 0.156 0.934 0 0 0 0.0222h-1.74q0-0.4-0.2-0.756-0.2-0.356-0.534-0.556-0.334-0.222-0.734-0.289-0.378-0.089-0.779-0.089t-0.801 0.089q-0.4 0.0668-0.734 0.289-0.334 0.222-0.534 0.601-0.2 0.356-0.2 0.756t0.2 0.734q0.222 0.334 0.534 0.556 0.334 0.2 0.69 0.311 0.378 0.089 0.734 0.2 0.378 0.111 0.734 0.222 0.378 0.111 0.734 0.245 0.356 0.133 0.69 0.311 0.356 0.156 0.667 0.378t0.556 0.512q0.267 0.267 0.445 0.601 0.2 0.334 0.289 0.712 0.111 0.356 0.111 0.756 0 0.489-0.156 0.979-0.156 0.489-0.445 0.89t-0.712 0.69-0.89 0.467q-0.467 0.156-0.979 0.222-0.489 0.0668-0.979 0.0668zm20.6-0.178v-9.57h-2.47v-1.56h2.47v-1.76q0-0.445 0.0445-0.89 0.0668-0.467 0.222-0.89 0.178-0.423 0.445-0.801 0.267-0.378 0.645-0.623 0.4-0.245 0.845-0.334 0.445-0.111 0.89-0.111 0.623 0 1.22 0.2 0.623 0.178 1.05 0.645 0.423 0.445 0.623 1.05 0.2 0.601 0.2 1.22 0 0.0445 0 0.089t0 0.089h-1.74q0-0.0222 0-0.0445t0-0.0445q0-0.311-0.0668-0.601-0.0667-0.311-0.245-0.556-0.178-0.245-0.467-0.356-0.267-0.133-0.578-0.133-0.356 0-0.667 0.2-0.289 0.2-0.445 0.512-0.156 0.311-0.222 0.667-0.0445 0.356-0.0445 0.712v1.76h3.67v1.56h-3.67v9.57zm12.8 0.178q-0.601 0-1.2-0.133-0.601-0.111-1.11-0.4-0.512-0.289-0.934-0.734-0.4-0.467-0.645-1-0.245-0.556-0.334-1.16-0.089-0.601-0.089-1.2v-2.89q0-0.601 0.089-1.2 0.089-0.601 0.334-1.13 0.245-0.556 0.645-1 0.423-0.467 0.934-0.756 0.512-0.289 1.11-0.4 0.601-0.133 1.2-0.133 0.601 0 1.2 0.133 0.601 0.111 1.11 0.4 0.512 0.289 0.912 0.756 0.423 0.445 0.667 1 0.245 0.534 0.334 1.13 0.089 0.601 0.089 1.2v2.89q0 0.601-0.089 1.2-0.089 0.601-0.334 1.16-0.245 0.534-0.667 1-0.4 0.445-0.912 0.734t-1.11 0.4q-0.601 0.133-1.2 0.133zm0-1.56q0.378 0 0.756-0.089t0.69-0.289q0.311-0.222 0.534-0.534 0.245-0.311 0.378-0.667 0.133-0.356 0.178-0.734 0.0445-0.378 0.0445-0.756v-2.89q0-0.378-0.0445-0.756-0.0445-0.378-0.178-0.734-0.134-0.356-0.378-0.667-0.222-0.311-0.534-0.512-0.311-0.222-0.69-0.311-0.378-0.089-0.756-0.089t-0.756 0.089-0.69 0.311q-0.311 0.2-0.556 0.512-0.222 0.311-0.356 0.667-0.134 0.356-0.178 0.734-0.0445 0.378-0.0445 0.756v2.89q0 0.378 0.0445 0.756 0.0445 0.378 0.178 0.734 0.133 0.356 0.356 0.667 0.245 0.311 0.556 0.534 0.311 0.2 0.69 0.289 0.378 0.089 0.756 0.089zm8.32 1.38v-11.8h1.74v2.78q0.134-0.534 0.356-1.05 0.222-0.534 0.556-0.979 0.356-0.445 0.868-0.69 0.534-0.245 1.09-0.245 0.423 0 0.823 0.111 0.4 0.089 0.734 0.334 0.334 0.245 0.556 0.601 0.222 0.334 0.334 0.734 0.133 0.4 0.178 0.823 0.0445 0.4 0.0445 0.801h-1.74q0-0.334-0.0667-0.645-0.0445-0.334-0.222-0.623-0.156-0.289-0.467-0.423-0.289-0.156-0.623-0.156-0.445 0-0.868 0.2-0.423 0.2-0.712 0.556-0.267 0.356-0.445 0.779-0.156 0.4-0.245 0.845-0.089 0.445-0.134 0.89-0.0222 0.445-0.0222 0.89v6.25zm23.4 0v-9.57h-2.47v-1.56h2.47v-1.76q0-0.445 0.0445-0.89 0.0668-0.467 0.222-0.89 0.178-0.423 0.445-0.801t0.645-0.623q0.4-0.245 0.845-0.334 0.445-0.111 0.89-0.111 0.623 0 1.22 0.2 0.623 0.178 1.05 0.645 0.423 0.445 0.623 1.05 0.2 0.601 0.2 1.22 0 0.0445 0 0.089t0 0.089h-1.74q0-0.0222 0-0.0445t0-0.0445q0-0.311-0.0667-0.601-0.0668-0.311-0.245-0.556-0.178-0.245-0.467-0.356-0.267-0.133-0.578-0.133-0.356 0-0.667 0.2-0.289 0.2-0.445 0.512-0.156 0.311-0.222 0.667-0.0445 0.356-0.0445 0.712v1.76h3.67v1.56h-3.67v9.57zm11.7 0.178q-0.445 0-0.89-0.089-0.445-0.0668-0.845-0.267-0.378-0.222-0.69-0.556-0.289-0.334-0.489-0.734-0.178-0.4-0.267-0.845-0.0668-0.445-0.0668-0.89 0-0.578 0.134-1.13 0.156-0.556 0.489-1 0.356-0.467 0.823-0.779 0.489-0.311 1.02-0.489 0.556-0.178 1.11-0.245 0.578-0.0668 1.16-0.0668h1.98v-1.2q0-0.467-0.156-0.934-0.156-0.467-0.512-0.779-0.356-0.311-0.823-0.445-0.467-0.133-0.934-0.133-0.445 0-0.89 0.089-0.423 0.089-0.779 0.334-0.356 0.245-0.556 0.645-0.2 0.4-0.2 0.823h-1.74q0-0.512 0.134-1 0.156-0.489 0.445-0.912 0.289-0.423 0.69-0.712 0.423-0.311 0.89-0.489 0.467-0.2 0.979-0.267 0.512-0.0668 1.02-0.0668 0.534 0 1.07 0.089 0.534 0.0668 1.02 0.289 0.489 0.222 0.89 0.578 0.423 0.356 0.69 0.823 0.267 0.467 0.378 1 0.111 0.534 0.111 1.07v8.12h-1.74v-1.91q-0.2 0.489-0.578 0.912-0.356 0.4-0.823 0.69-0.467 0.267-1 0.378-0.534 0.111-1.07 0.111zm0.667-1.56q0.534 0 1.07-0.156 0.556-0.156 0.957-0.512 0.4-0.356 0.578-0.868 0.2-0.534 0.2-1.09v-1.36h-1.98q-0.356 0-0.69 0.0445-0.334 0.0222-0.667 0.111-0.311 0.0668-0.623 0.222-0.311 0.133-0.556 0.378-0.245 0.245-0.356 0.578-0.111 0.311-0.111 0.645 0 0.423 0.133 0.823 0.156 0.4 0.467 0.69t0.734 0.4q0.423 0.089 0.845 0.089zm11.5 1.56q-0.578 0-1.18-0.133-0.601-0.111-1.11-0.4-0.512-0.311-0.912-0.756-0.378-0.467-0.623-1-0.245-0.556-0.334-1.13-0.089-0.601-0.089-1.2v-2.89q0-0.601 0.089-1.18 0.089-0.601 0.334-1.13 0.245-0.556 0.623-1 0.4-0.467 0.912-0.756 0.512-0.311 1.11-0.423 0.601-0.133 1.18-0.133 0.556 0 1.11 0.111 0.556 0.089 1.05 0.334 0.512 0.245 0.912 0.645 0.4 0.378 0.667 0.868 0.267 0.489 0.378 1.05 0.134 0.534 0.134 1.09 0 0 0 0.0222 0 0 0 0.0222h-1.74q0-0.0222 0-0.0222 0-0.512-0.156-1t-0.512-0.845q-0.356-0.378-0.845-0.534-0.489-0.178-1-0.178-0.378 0-0.756 0.089-0.356 0.089-0.667 0.311-0.311 0.222-0.534 0.534-0.2 0.311-0.334 0.667-0.134 0.334-0.178 0.712-0.0445 0.378-0.0445 0.756v2.89q0 0.378 0.0445 0.756 0.0445 0.378 0.178 0.734 0.133 0.334 0.334 0.645 0.222 0.311 0.534 0.534t0.667 0.311q0.378 0.089 0.756 0.089 0.512 0 1-0.156 0.489-0.178 0.845-0.534 0.356-0.378 0.512-0.868t0.156-1q0-0.0222 0-0.0222h1.74q0 0.0222 0 0.0445 0 0.556-0.134 1.11-0.111 0.534-0.378 1.02-0.267 0.489-0.667 0.89-0.4 0.378-0.912 0.623-0.489 0.245-1.05 0.334-0.556 0.111-1.11 0.111zm11.2 0q-0.623 0-1.22-0.111-0.578-0.111-1.11-0.4-0.534-0.311-0.934-0.756-0.4-0.467-0.667-1-0.245-0.556-0.334-1.16-0.089-0.601-0.089-1.2v-2.89q0-0.601 0.089-1.2 0.089-0.601 0.334-1.13 0.245-0.556 0.645-1 0.423-0.467 0.934-0.756 0.512-0.289 1.11-0.4 0.601-0.133 1.2-0.133 0.601 0 1.2 0.133 0.601 0.111 1.11 0.4 0.512 0.289 0.912 0.756 0.423 0.445 0.667 1 0.245 0.534 0.334 1.13 0.089 0.601 0.089 1.2v2.22h-6.9v0.667q0 0.378 0.0445 0.756 0.0445 0.378 0.178 0.734 0.156 0.356 0.378 0.667 0.245 0.311 0.556 0.534 0.311 0.2 0.69 0.289 0.378 0.089 0.779 0.089 0.423 0 0.845-0.089 0.445-0.089 0.801-0.311 0.378-0.245 0.601-0.623 0.222-0.4 0.245-0.823h1.74q-0.0222 0.489-0.2 0.979-0.156 0.489-0.467 0.912-0.289 0.4-0.712 0.712-0.4 0.289-0.868 0.489-0.467 0.178-0.979 0.245-0.512 0.0668-1 0.0668zm-2.63-6.85h5.16v-0.667q0-0.378-0.0445-0.756-0.0445-0.378-0.178-0.734-0.134-0.356-0.378-0.667-0.222-0.311-0.534-0.512-0.311-0.222-0.69-0.311-0.378-0.089-0.756-0.089t-0.756 0.089-0.69 0.311q-0.311 0.2-0.556 0.512-0.222 0.311-0.356 0.667-0.134 0.356-0.178 0.734-0.0445 0.378-0.0445 0.756zm14.4 6.85q-0.512 0-1.02-0.133-0.489-0.133-0.912-0.423-0.4-0.311-0.69-0.734-0.289-0.445-0.467-0.912v2.02h-1.74v-16.4h1.74v6.59q0.178-0.467 0.467-0.89 0.289-0.445 0.69-0.734 0.423-0.311 0.912-0.445 0.512-0.133 1.02-0.133 0.556 0 1.09 0.156 0.556 0.156 1 0.489t0.734 0.801q0.311 0.467 0.489 1 0.178 0.512 0.245 1.07 0.0668 0.556 0.0668 1.11v2.89q0 0.556-0.0668 1.11t-0.245 1.09q-0.178 0.512-0.489 0.979-0.289 0.467-0.734 0.801t-1 0.489q-0.534 0.156-1.09 0.156zm-0.667-1.56q0.378 0 0.734-0.089 0.378-0.089 0.69-0.289 0.311-0.222 0.534-0.534 0.245-0.311 0.378-0.667 0.134-0.356 0.178-0.734 0.0445-0.378 0.0445-0.756v-2.89q0-0.378-0.0445-0.756-0.0445-0.378-0.178-0.734-0.133-0.356-0.378-0.667-0.222-0.311-0.534-0.512-0.311-0.222-0.69-0.311-0.356-0.089-0.734-0.089t-0.756 0.089q-0.356 0.089-0.645 0.311-0.289 0.222-0.512 0.556-0.2 0.311-0.311 0.667-0.111 0.334-0.156 0.712-0.0445 0.356-0.0445 0.734v2.89q0 0.378 0.0445 0.756 0.0445 0.356 0.156 0.712 0.111 0.334 0.311 0.667 0.222 0.311 0.512 0.534 0.289 0.222 0.645 0.311 0.378 0.089 0.756 0.089zm11.1 1.56q-0.601 0-1.2-0.133-0.601-0.111-1.11-0.4-0.512-0.289-0.934-0.734-0.4-0.467-0.645-1-0.245-0.556-0.334-1.16-0.089-0.601-0.089-1.2v-2.89q0-0.601 0.089-1.2 0.089-0.601 0.334-1.13 0.245-0.556 0.645-1 0.423-0.467 0.934-0.756 0.512-0.289 1.11-0.4 0.601-0.133 1.2-0.133 0.601 0 1.2 0.133 0.601 0.111 1.11 0.4 0.512 0.289 0.912 0.756 0.423 0.445 0.667 1 0.245 0.534 0.334 1.13 0.089 0.601 0.089 1.2v2.89q0 0.601-0.089 1.2-0.089 0.601-0.334 1.16-0.245 0.534-0.667 1-0.4 0.445-0.912 0.734-0.512 0.289-1.11 0.4-0.601 0.133-1.2 0.133zm0-1.56q0.378 0 0.756-0.089t0.69-0.289q0.311-0.222 0.534-0.534 0.245-0.311 0.378-0.667 0.134-0.356 0.178-0.734 0.0445-0.378 0.0445-0.756v-2.89q0-0.378-0.0445-0.756-0.0445-0.378-0.178-0.734-0.134-0.356-0.378-0.667-0.222-0.311-0.534-0.512-0.312-0.222-0.69-0.311-0.378-0.089-0.756-0.089-0.378 0-0.756 0.089t-0.69 0.311q-0.311 0.2-0.556 0.512-0.222 0.311-0.356 0.667-0.134 0.356-0.178 0.734-0.0445 0.378-0.0445 0.756v2.89q0 0.378 0.0445 0.756 0.0445 0.378 0.178 0.734 0.133 0.356 0.356 0.667 0.245 0.311 0.556 0.534 0.312 0.2 0.69 0.289 0.378 0.089 0.756 0.089zm11.1 1.56q-0.601 0-1.2-0.133-0.601-0.111-1.11-0.4-0.512-0.289-0.934-0.734-0.4-0.467-0.645-1-0.245-0.556-0.334-1.16-0.089-0.601-0.089-1.2v-2.89q0-0.601 0.089-1.2 0.089-0.601 0.334-1.13 0.245-0.556 0.645-1 0.423-0.467 0.934-0.756 0.512-0.289 1.11-0.4 0.601-0.133 1.2-0.133t1.2 0.133q0.601 0.111 1.11 0.4 0.512 0.289 0.912 0.756 0.423 0.445 0.667 1 0.245 0.534 0.334 1.13 0.089 0.601 0.089 1.2v2.89q0 0.601-0.089 1.2-0.089 0.601-0.334 1.16-0.245 0.534-0.667 1-0.4 0.445-0.912 0.734-0.512 0.289-1.11 0.4-0.601 0.133-1.2 0.133zm0-1.56q0.378 0 0.756-0.089t0.69-0.289q0.311-0.222 0.534-0.534 0.245-0.311 0.378-0.667 0.133-0.356 0.178-0.734 0.0445-0.378 0.0445-0.756v-2.89q0-0.378-0.0445-0.756-0.0445-0.378-0.178-0.734-0.134-0.356-0.378-0.667-0.222-0.311-0.534-0.512-0.311-0.222-0.69-0.311-0.378-0.089-0.756-0.089t-0.756 0.089-0.69 0.311q-0.311 0.2-0.556 0.512-0.222 0.311-0.356 0.667-0.133 0.356-0.178 0.734-0.0445 0.378-0.0445 0.756v2.89q0 0.378 0.0445 0.756 0.0445 0.378 0.178 0.734 0.134 0.356 0.356 0.667 0.245 0.311 0.556 0.534 0.311 0.2 0.69 0.289 0.378 0.089 0.756 0.089zm7.34 1.38v-16.4h1.71v10l4.25-5.47h2.11l-4.18 5.36 4.18 6.43h-2l-3.27-5.03-1.09 1.4v3.63zm10.7 3.18 6.72-21.5h1.78l-6.72 21.5zm13.7-3.18v-9.57h-2.47v-1.56h2.47v-1.76q0-0.445 0.0445-0.89 0.0667-0.467 0.222-0.89 0.178-0.423 0.445-0.801 0.267-0.378 0.645-0.623 0.4-0.245 0.845-0.334 0.445-0.111 0.89-0.111 0.623 0 1.22 0.2 0.623 0.178 1.05 0.645 0.423 0.445 0.623 1.05t0.2 1.22q0 0.0445 0 0.089t0 0.089h-1.74q0-0.0222 0-0.0445t0-0.0445q0-0.311-0.0668-0.601-0.0667-0.311-0.245-0.556-0.178-0.245-0.467-0.356-0.267-0.133-0.578-0.133-0.356 0-0.667 0.2-0.289 0.2-0.445 0.512-0.156 0.311-0.222 0.667-0.0445 0.356-0.0445 0.712v1.76h3.67v1.56h-3.67v9.57zm12.8 0.178q-0.601 0-1.2-0.133-0.601-0.111-1.11-0.4-0.512-0.289-0.934-0.734-0.4-0.467-0.645-1-0.245-0.556-0.334-1.16-0.089-0.601-0.089-1.2v-2.89q0-0.601 0.089-1.2 0.089-0.601 0.334-1.13 0.245-0.556 0.645-1 0.423-0.467 0.934-0.756 0.512-0.289 1.11-0.4 0.601-0.133 1.2-0.133t1.2 0.133q0.601 0.111 1.11 0.4 0.512 0.289 0.912 0.756 0.423 0.445 0.667 1 0.245 0.534 0.334 1.13 0.089 0.601 0.089 1.2v2.89q0 0.601-0.089 1.2-0.089 0.601-0.334 1.16-0.245 0.534-0.667 1-0.4 0.445-0.912 0.734-0.512 0.289-1.11 0.4-0.601 0.133-1.2 0.133zm0-1.56q0.378 0 0.756-0.089t0.69-0.289q0.311-0.222 0.534-0.534 0.245-0.311 0.378-0.667 0.133-0.356 0.178-0.734 0.0445-0.378 0.0445-0.756v-2.89q0-0.378-0.0445-0.756-0.0445-0.378-0.178-0.734-0.134-0.356-0.378-0.667-0.222-0.311-0.534-0.512-0.311-0.222-0.69-0.311-0.378-0.089-0.756-0.089t-0.756 0.089-0.69 0.311q-0.311 0.2-0.556 0.512-0.222 0.311-0.356 0.667-0.133 0.356-0.178 0.734-0.0445 0.378-0.0445 0.756v2.89q0 0.378 0.0445 0.756 0.0445 0.378 0.178 0.734 0.134 0.356 0.356 0.667 0.245 0.311 0.556 0.534 0.311 0.2 0.69 0.289 0.378 0.089 0.756 0.089zm7.23 1.38v-1.56h3.18v-13.2h-2.87v-1.56h4.61v14.8h2.87v1.56zm11.1 0v-1.56h3.18v-13.2h-2.87v-1.56h4.61v14.8h2.87v1.56zm12.8 4.56q0.2-0.667 0.4-1.36 0.2-0.667 0.4-1.33l0.512-1.76-3.54-11.9h1.8l2.65 9.23 2.6-9.23h1.8l-4.83 16.4z" fill="#222" stroke-width=".556" aria-label="Buildtimes for facebook/folly"/></svg>
