<?xml version="1.0" encoding="UTF-8" standalone="no"?>
<svg
   width="1200"
   height="630"
   viewBox="0 0 1200 630"
   version="1.1"
   id="svg30"
   sodipodi:docname="podcast-episode.svg"
   inkscape:version="1.4 (e7c3feb1, 2024-10-09)"
   xmlns:inkscape="http://www.inkscape.org/namespaces/inkscape"
   xmlns:sodipodi="http://sodipodi.sourceforge.net/DTD/sodipodi-0.dtd"
   xmlns="http://www.w3.org/2000/svg"
   xmlns:svg="http://www.w3.org/2000/svg">
  <sodipodi:namedview
     id="namedview30"
     pagecolor="#ffffff"
     bordercolor="#666666"
     borderopacity="1.0"
     inkscape:showpageshadow="2"
     inkscape:pageopacity="0.0"
     inkscape:pagecheckerboard="0"
     inkscape:deskcolor="#d1d1d1"
     inkscape:zoom="0.46204168"
     inkscape:cx="373.34294"
     inkscape:cy="603.84162"
     inkscape:window-width="2056"
     inkscape:window-height="1257"
     inkscape:window-x="0"
     inkscape:window-y="44"
     inkscape:window-maximized="0"
     inkscape:current-layer="svg30" />
  <defs
     id="defs17">
    <clipPath
       id="a"
       clipPathUnits="userSpaceOnUse">
      <path
         d="M0 0h1280v640H0Z"
         clip-rule="evenodd"
         id="path1" />
    </clipPath>
    <clipPath
       id="d"
       clipPathUnits="userSpaceOnUse">
      <path
         d="M164 0C73.425 0 0 73.425 0 164s73.425 164 164 164 164-73.425 164-164S254.575 0 164 0"
         id="path2" />
    </clipPath>
    <clipPath
       id="c"
       clipPathUnits="userSpaceOnUse">
      <path
         d="M677.846 503.806h327.394V831.2H677.846Z"
         id="path3" />
    </clipPath>
    <clipPath
       id="b"
       clipPathUnits="userSpaceOnUse">
      <path
         d="M0 0h1280v640H0Z"
         clip-rule="evenodd"
         id="path4" />
    </clipPath>
    <clipPath
       id="e"
       clipPathUnits="userSpaceOnUse">
      <path
         d="M309.051 14.1v294.936H15.805V14.1z"
         clip-rule="evenodd"
         id="path5" />
    </clipPath>
    <clipPath
       id="h"
       clipPathUnits="userSpaceOnUse">
      <path
         d="M128 0C57.308 0 0 57.308 0 128s57.308 128 128 128 128-57.308 128-128S198.692 0 128 0"
         id="path6" />
    </clipPath>
    <clipPath
       id="g"
       clipPathUnits="userSpaceOnUse">
      <path
         d="M348.228-62.01h199.65v199.65h-199.65Z"
         id="path7" />
    </clipPath>
    <clipPath
       id="f"
       clipPathUnits="userSpaceOnUse">
      <path
         d="M0 0h1280v640H0Z"
         clip-rule="evenodd"
         id="path8" />
    </clipPath>
    <clipPath
       id="i"
       clipPathUnits="userSpaceOnUse">
      <path
         d="M5.844 65.075h201.3v85.694H5.845z"
         clip-rule="evenodd"
         id="path9" />
    </clipPath>
    <clipPath
       id="j"
       clipPathUnits="userSpaceOnUse">
      <path
         d="M5.844 65.075h201.3v85.694H5.845z"
         clip-rule="evenodd"
         id="path10" />
    </clipPath>
    <clipPath
       id="k"
       clipPathUnits="userSpaceOnUse">
      <path
         d="M5.844 65.075h201.3v85.694H5.845z"
         clip-rule="evenodd"
         id="path11" />
    </clipPath>
    <clipPath
       id="l"
       clipPathUnits="userSpaceOnUse">
      <path
         d="M5.844 65.075h201.3v85.694H5.845z"
         clip-rule="evenodd"
         id="path12" />
    </clipPath>
    <clipPath
       id="m"
       clipPathUnits="userSpaceOnUse">
      <path
         d="M5.844 65.075h201.3v85.694H5.845z"
         clip-rule="evenodd"
         id="path13" />
    </clipPath>
    <clipPath
       id="n"
       clipPathUnits="userSpaceOnUse">
      <path
         d="M5.844 65.075h201.3v85.694H5.845z"
         clip-rule="evenodd"
         id="path14" />
    </clipPath>
    <clipPath
       id="o"
       clipPathUnits="userSpaceOnUse">
      <path
         d="M5.844 65.075h201.3v85.694H5.845z"
         clip-rule="evenodd"
         id="path15" />
    </clipPath>
    <clipPath
       id="p"
       clipPathUnits="userSpaceOnUse">
      <path
         d="m-7.768 65.384 197.363 28.747-17.775 85.003-197.363-28.747z"
         clip-rule="evenodd"
         id="path16" />
    </clipPath>
    <clipPath
       id="q"
       clipPathUnits="userSpaceOnUse">
      <path
         d="M5.844 65.075h201.3v85.694H5.845z"
         clip-rule="evenodd"
         id="path17" />
    </clipPath>
  </defs>
  <path
     d="M0 0h1280v640H0Z"
     clip-path="url(#a)"
     style="fill:#ffc61a;fill-opacity:1;fill-rule:nonzero;stroke:none"
     transform="scale(.93903 .986)"
     id="path18" />
</svg>
