<svg xmlns="http://www.w3.org/2000/svg" width="1200" height="630"><defs><clipPath id="a" clipPathUnits="userSpaceOnUse"><path d="M0 0h11520v4608H0Z" clip-rule="evenodd"/></clipPath><clipPath id="r" clipPathUnits="userSpaceOnUse"><path d="M250 0C111.929 0 0 111.929 0 250s111.929 250 250 250 250-111.929 250-250S388.071 0 250 0"/></clipPath><clipPath id="e" clipPathUnits="userSpaceOnUse"><path d="M309.395 14.1v295.2H15.805V14.1z" clip-rule="evenodd"/></clipPath><clipPath id="d" clipPathUnits="userSpaceOnUse"><path d="M8276.98 471.392h2767v2752h-2767z" clip-rule="evenodd"/></clipPath><clipPath id="c" clipPathUnits="userSpaceOnUse"><path d="M0 10.56h11520v4608H0Z" clip-rule="evenodd"/></clipPath><clipPath id="g" clipPathUnits="userSpaceOnUse"><path d="M250 0C111.929 0 0 111.929 0 250s111.929 250 250 250 250-111.929 250-250S388.071 0 250 0"/></clipPath><clipPath id="h" clipPathUnits="userSpaceOnUse"><path d="M5.852 65.075h201.159v85.492H5.852Z" clip-rule="evenodd"/></clipPath><clipPath id="i" clipPathUnits="userSpaceOnUse"><path d="M5.852 65.075h201.159v85.492H5.852Z" clip-rule="evenodd"/></clipPath><clipPath id="j" clipPathUnits="userSpaceOnUse"><path d="M5.852 65.075h201.159v85.492H5.852Z" clip-rule="evenodd"/></clipPath><clipPath id="k" clipPathUnits="userSpaceOnUse"><path d="M5.852 65.075h201.159v85.492H5.852Z" clip-rule="evenodd"/></clipPath><clipPath id="l" clipPathUnits="userSpaceOnUse"><path d="M5.852 65.075h201.159v85.492H5.852Z" clip-rule="evenodd"/></clipPath><clipPath id="m" clipPathUnits="userSpaceOnUse"><path d="M5.852 65.075h201.159v85.492H5.852Z" clip-rule="evenodd"/></clipPath><clipPath id="n" clipPathUnits="userSpaceOnUse"><path d="M5.852 65.075h201.159v85.492H5.852Z" clip-rule="evenodd"/></clipPath><clipPath id="o" clipPathUnits="userSpaceOnUse"><path d="m-7.76 65.385 197.224 28.727-17.733 84.802-197.225-28.727Z" clip-rule="evenodd"/></clipPath><clipPath id="p" clipPathUnits="userSpaceOnUse"><path d="M5.852 65.075h201.159v85.492H5.852Z" clip-rule="evenodd"/></clipPath><clipPath id="q" clipPathUnits="userSpaceOnUse"/><clipPath id="f" clipPathUnits="userSpaceOnUse"/><clipPath id="b" clipPathUnits="userSpaceOnUse"/><path id="s" d="M45.691 56.442h677.3v529.476h-677.3z"/></defs><path d="M0 0h11520v4608H0Z" clip-path="url(#a)" style="fill:#ffc61a;fill-opacity:1;fill-rule:nonzero;stroke:none" transform="matrix(.10417 0 0 .13672 0 -.015)"/><g clip-path="url(#b)" transform="translate(-460.61 -43.472)scale(.14773)"><g clip-path="url(#c)"><g clip-path="url(#d)"><path d="M258.4 158.3c-1.8 0-3.3 1.5-3.3 3.4 0 1.8 1.5 3.3 3.4 3.3s3.3-1.5 3.3-3.4c0-1.8-1.5-3.3-3.4-3.3m0 48.2c-1.8 0-3.3 1.5-3.3 3.4 0 1.8 1.5 3.3 3.4 3.3s3.3-1.5 3.3-3.4c0-1.8-1.5-3.3-3.4-3.3m0 48.1c-1.8 0-3.3 1.5-3.3 3.4 0 1.8 1.5 3.3 3.4 3.3s3.3-1.5 3.3-3.4c0-1.8-1.5-3.3-3.4-3.3m0 48.6c-1.6 0-2.8 1.3-2.8 2.9s1.3 2.8 2.9 2.8 2.8-1.3 2.8-2.9-1.3-2.8-2.9-2.8m0-193c-1.8 0-3.3 1.5-3.3 3.3s1.5 3.3 3.3 3.3 3.3-1.5 3.3-3.3c.1-1.8-1.5-3.3-3.3-3.3m0-95.7c-1.6 0-2.8 1.3-2.8 2.9s1.3 2.8 2.9 2.8 2.8-1.3 2.8-2.9-1.3-2.8-2.9-2.8m-95.8 142.4c-2.4 0-4.4 2-4.4 4.4s2 4.4 4.4 4.4 4.4-2 4.4-4.4-2-4.4-4.4-4.4m0 48.8c-2.1 0-3.9 1.8-3.9 3.8 0 2.1 1.8 3.7 3.9 3.7s3.9-1.8 3.9-3.7c0-2.2-1.8-3.8-3.9-3.8q0-.3 0 0m0 48.4c-1.9 0-3.4 1.6-3.4 3.4 0 1.9 1.6 3.4 3.4 3.4s3.4-1.6 3.4-3.4c0-1.9-1.5-3.4-3.4-3.4m0 48.7c-1.6 0-2.9 1.3-2.9 2.9s1.3 2.9 2.9 2.9 2.9-1.3 2.9-2.9-1.3-2.9-2.9-2.9m0-193.4c-2.1 0-3.8 1.8-3.8 3.9s1.8 3.8 3.9 3.8 3.8-1.8 3.8-3.8c0-2.2-1.8-3.9-3.9-3.9q0-.15 0 0m0-95.3c-1.6 0-2.9 1.3-2.9 2.9s1.3 2.9 2.9 2.9 2.9-1.3 2.9-2.9-1.3-2.9-2.9-2.9m-47.9 144.2c-2.1 0-3.9 1.7-3.9 3.8s1.7 3.9 3.8 3.9 3.9-1.7 3.9-3.8-1.7-3.9-3.8-3.9m0 48.1c-2.1 0-3.9 1.7-3.9 3.8s1.7 3.9 3.8 3.9 3.9-1.7 3.9-3.8-1.7-3.9-3.8-3.9m0 48.6c-1.8 0-3.4 1.5-3.4 3.3s1.5 3.4 3.3 3.4 3.4-1.5 3.4-3.3c0-1.9-1.5-3.4-3.3-3.4m0 48.6c-1.6 0-2.9 1.2-2.9 2.8s1.2 2.9 2.8 2.9 2.9-1.2 2.9-2.8-1.2-2.9-2.8-2.9m0-193.4c-2.1 0-3.8 1.7-3.8 3.8s1.7 3.8 3.8 3.8 3.8-1.7 3.8-3.8c0-2-1.7-3.8-3.8-3.8m-47.9 48.6c-1.8 0-3.4 1.5-3.4 3.3s1.5 3.4 3.3 3.4 3.4-1.5 3.4-3.3c.1-1.9-1.5-3.5-3.3-3.4q0-.15 0 0m0 48.1c-1.8 0-3.4 1.5-3.4 3.3s1.5 3.4 3.3 3.4 3.4-1.5 3.4-3.3c.1-1.9-1.5-3.5-3.3-3.4q0-.15 0 0m0 48.1c-1.8 0-3.4 1.5-3.4 3.3s1.5 3.4 3.3 3.4 3.4-1.5 3.4-3.3c.1-1.9-1.5-3.5-3.3-3.4q0-.15 0 0m0 48.6c-1.6 0-2.9 1.2-2.9 2.8s1.2 2.9 2.8 2.9 2.9-1.2 2.9-2.8c.1-1.7-1.2-3-2.8-2.9q0-.15 0 0m143.8-241c-1.8 0-3.4 1.5-3.4 3.3s1.5 3.4 3.3 3.4 3.4-1.5 3.4-3.3c.1-1.9-1.5-3.5-3.3-3.4q0-.15 0 0M114.7 15c-1.6 0-2.9 1.2-2.9 2.8s1.2 2.9 2.8 2.9 2.9-1.2 2.9-2.8c.1-1.7-1.2-3-2.8-2.9q0-.15 0 0M18.9 159.2c-1.6 0-2.9 1.2-2.9 2.8s1.2 2.9 2.8 2.9 2.9-1.2 2.9-2.8-1.2-2.9-2.8-2.9m0 48.1c-1.6 0-2.9 1.2-2.9 2.8s1.2 2.9 2.8 2.9 2.9-1.2 2.9-2.8-1.2-2.9-2.8-2.9m0 48.1c-1.6 0-2.9 1.2-2.9 2.8s1.2 2.9 2.8 2.9 2.9-1.2 2.9-2.8-1.2-2.9-2.8-2.9m0 48.1c-1.6 0-2.9 1.2-2.9 2.8s1.2 2.9 2.8 2.9 2.9-1.2 2.9-2.8-1.2-2.9-2.8-2.9m0-240.4c-1.6 0-2.9 1.3-2.9 2.8s1.3 2.8 2.9 2.8 2.9-1.3 2.9-2.8c-.2-1.6-1.3-2.8-2.9-2.8m0 48.1c-1.6 0-2.9 1.3-2.9 2.8s1.3 2.8 2.9 2.8 2.9-1.3 2.9-2.8c-.2-1.6-1.3-2.8-2.9-2.8m0-96.3c-1.6 0-2.9 1.2-2.9 2.8s1.2 2.9 2.8 2.9 2.9-1.2 2.9-2.8-1.2-2.9-2.8-2.9m191.6 142.9c-2.1 0-3.9 1.7-3.9 3.9s1.7 3.9 3.9 3.9 3.9-1.7 3.9-3.9-1.8-3.9-3.9-3.9m0 48.1c-2.1 0-3.9 1.8-3.9 3.9s1.8 3.9 3.9 3.9 3.9-1.8 3.9-3.9-1.8-3.9-3.9-3.9m0 48.6c-1.9 0-3.4 1.6-3.4 3.4 0 1.9 1.6 3.4 3.4 3.4s3.4-1.6 3.4-3.4-1.5-3.4-3.4-3.4m0 48.7c-1.6 0-2.9 1.3-2.9 2.9s1.3 2.9 2.9 2.9 2.9-1.3 2.9-2.9c0-1.7-1.3-2.9-2.9-2.9m47.9-241c-1.8 0-3.4 1.5-3.4 3.3s1.5 3.3 3.4 3.3 3.4-1.5 3.4-3.3c0-1.9-1.6-3.3-3.4-3.3m-47.9 47.5c-2.1 0-3.8 1.8-3.8 3.9s1.8 3.8 3.9 3.8 3.8-1.8 3.8-3.9-1.8-3.8-3.9-3.8m0-95.3c-1.6 0-2.9 1.3-2.9 2.8 0 1.6 1.3 2.9 2.9 2.9s2.9-1.3 2.9-2.9c0-1.5-1.3-2.8-2.9-2.8m95.8 144.5c-1.6 0-2.8 1.3-2.8 2.9s1.3 2.8 2.9 2.8 2.8-1.3 2.8-2.9-1.3-2.8-2.9-2.8m0 48.1c-1.6 0-2.8 1.3-2.8 2.9s1.3 2.8 2.9 2.8 2.8-1.3 2.8-2.9-1.3-2.8-2.9-2.8m0 48.1c-1.6 0-2.8 1.3-2.8 2.9s1.3 2.8 2.9 2.8 2.8-1.3 2.8-2.9-1.3-2.8-2.9-2.8m0 48.1c-1.6 0-2.8 1.3-2.8 2.9s1.3 2.8 2.9 2.8 2.8-1.3 2.8-2.9-1.3-2.8-2.9-2.8m0-240.5c-1.5 0-2.8 1.3-2.8 2.8s1.3 2.8 2.8 2.8 2.8-1.3 2.8-2.8c.1-1.6-1.3-2.8-2.8-2.8m0-48.2c-1.6 0-2.8 1.3-2.8 2.9s1.3 2.8 2.9 2.8 2.8-1.3 2.8-2.9-1.3-2.8-2.9-2.8M66.8 110.7c-1.9 0-3.3 1.5-3.3 3.3s1.5 3.3 3.3 3.3 3.3-1.5 3.3-3.3c.1-1.9-1.5-3.3-3.3-3.3m0-95.7c-1.6 0-2.9 1.2-2.9 2.8s1.2 2.9 2.8 2.9 2.9-1.2 2.9-2.8c.1-1.7-1.2-3-2.8-2.9q0-.15 0 0m95.9 47.6c-1.8 0-3.4 1.5-3.4 3.3s1.5 3.4 3.3 3.4 3.4-1.5 3.4-3.3c.1-1.9-1.5-3.5-3.3-3.4q0-.15 0 0m-48 0c-1.8 0-3.3 1.4-3.3 3.3 0 1.8 1.4 3.3 3.3 3.3s3.3-1.4 3.3-3.3c.1-1.8-1.4-3.3-3.3-3.3m-47.9 0c-1.9 0-3.3 1.5-3.3 3.3s1.5 3.3 3.3 3.3 3.3-1.5 3.3-3.3c.1-1.9-1.4-3.3-3.3-3.3m239.5 48.2c-1.5 0-2.8 1.3-2.8 2.8s1.3 2.8 2.8 2.8 2.8-1.3 2.8-2.8c.1-1.6-1.3-2.8-2.8-2.8" clip-path="url(#e)" style="fill:#372a28;fill-opacity:1;fill-rule:nonzero;stroke:none" transform="matrix(0 -9.37362 9.3733 0 8144.817 3371.543)"/></g></g></g><g clip-path="url(#f)" style="opacity:.149" transform="translate(-2.644 -1.36)scale(.12744)"><path d="M0 0h500v500H0Z" clip-path="url(#g)" style="fill:#000;fill-opacity:1;fill-rule:nonzero;stroke:none" transform="rotate(-90 2239.754 -1438.442)scale(3.16305)"/></g><path d="M24.693 101.37q-7.116 0-11.24 4.124-4.257 4.257-4.257 10.842 0 6.386 3.99 10.509 3.925 4.123 10.643 4.123c3.195 0 5.936-.682 8.231-2.033-.99-1.32-2.27-3.363-2.898-4.865l.012-.064q-2.183 1.109-4.88 1.109-3.525 0-5.919-2.262-2.528-2.526-2.528-6.717 0-4.057 2.395-6.452 2.46-2.46 6.186-2.46 2.451 0 4.634 1.079l-.007.032c.627-1.435 2.107-3.83 3.075-5.078-2.333-1.254-4.811-1.886-7.437-1.886" clip-path="url(#h)" style="fill:#372a28;fill-opacity:1;fill-rule:nonzero;stroke:none" transform="matrix(1.53455 0 0 1.53438 855.794 390.223)"/><path d="M38.538 105.56q4.323-4.19 10.708-4.19t10.642 4.19q4.323 4.125 4.323 10.576 0 6.385-4.323 10.642-4.257 4.19-10.642 4.19t-10.708-4.19q-4.257-4.257-4.257-10.642 0-6.45 4.257-10.575m4.656 17.16q2.261 2.395 6.052 2.395t6.053-2.394q2.262-2.461 2.261-6.518 0-4.456-2.46-6.718-2.395-2.261-5.854-2.261t-5.92 2.261q-2.393 2.262-2.394 6.718 0 4.056 2.262 6.518" clip-path="url(#i)" style="fill:#372a28;fill-opacity:1;fill-rule:nonzero;stroke:none" transform="matrix(1.53455 0 0 1.53438 855.794 390.223)"/><path d="M83.236 101.37c-13.647.102-13.62 8.04-13.236 28.733h6.519v-14.499q0-4.522 1.795-6.451 1.464-1.53 4.058-1.53 1.218.002 2.37.498l3.595-5.43q-2.255-1.32-5.1-1.32" clip-path="url(#j)" style="fill:#372a28;fill-opacity:1;fill-rule:nonzero;stroke:none" transform="matrix(1.53455 0 0 1.53438 855.794 390.223)"/><path d="M110.922 105.56q4.323-4.19 10.708-4.19t10.642 4.19q4.323 4.125 4.323 10.576 0 6.385-4.323 10.642-4.257 4.19-10.642 4.19t-10.708-4.19q-4.257-4.257-4.257-10.642 0-6.45 4.257-10.575m4.656 17.16q2.261 2.395 6.052 2.395t6.053-2.394q2.26-2.461 2.261-6.518 0-4.456-2.46-6.718-2.395-2.261-5.854-2.261t-5.92 2.261q-2.394 2.262-2.394 6.718 0 4.056 2.262 6.518" clip-path="url(#k)" style="fill:#372a28;fill-opacity:1;fill-rule:nonzero;stroke:none" transform="matrix(1.53455 0 0 1.53438 855.794 390.223)"/><path d="M101.253 101.37c-13.647.102-13.621 8.04-13.236 28.733h6.518v-14.499q0-4.522 1.796-6.451 1.464-1.53 4.058-1.53 1.217.002 2.37.498l3.594-5.43q-2.253-1.32-5.1-1.32" clip-path="url(#l)" style="fill:#372a28;fill-opacity:1;fill-rule:nonzero;stroke:none" transform="matrix(1.53455 0 0 1.53438 855.794 390.223)"/><path d="M38.538 105.56q4.323-4.19 10.708-4.19t10.642 4.19q4.323 4.125 4.323 10.576 0 6.385-4.323 10.642-4.257 4.19-10.642 4.19t-10.708-4.19q-4.257-4.257-4.257-10.642 0-6.45 4.257-10.575m4.656 17.16q2.261 2.395 6.052 2.395t6.053-2.394q2.262-2.461 2.261-6.518 0-4.456-2.46-6.718-2.395-2.261-5.854-2.261t-5.92 2.261q-2.393 2.262-2.394 6.718 0 4.056 2.262 6.518" clip-path="url(#m)" style="fill:#372a28;fill-opacity:1;fill-rule:nonzero;stroke:none" transform="matrix(1.53455 0 0 1.53438 855.794 390.223)"/><path d="M191.586 101.37q-7.115 0-11.24 4.124-4.257 4.257-4.257 10.842 0 6.386 3.99 10.509 3.924 4.123 10.642 4.123c3.196 0 5.937-.682 8.232-2.033a19.6 19.6 0 0 1-2.425-4.233l-.462-.696q-2.183 1.108-4.879 1.109-3.525 0-5.92-2.262-2.526-2.527-2.527-6.717 0-4.057 2.395-6.452 2.46-2.46 6.185-2.46c1.635 0 4.648.668 6.325 4.33.876 2.577 4.081 5.453 5.15 4.061.92-11.01-7.543-14.245-11.209-14.245" clip-path="url(#n)" style="fill:#372a28;fill-opacity:1;fill-rule:nonzero;stroke:none" transform="matrix(1.53455 0 0 1.53438 855.794 390.223)"/><path d="M151.12 139.221h23.564v4.754H151.12z" clip-path="url(#o)" style="fill:#372a28;fill-opacity:1;fill-rule:nonzero;stroke:none" transform="matrix(1.5189 -.21865 .31762 1.50114 855.794 390.223)"/><path d="M164.657 83.044v20.643q-3.57-2.315-8.315-2.316-6.385 0-10.708 4.19-4.257 4.124-4.257 10.575 0 6.386 4.257 10.642 4.323 4.19 10.708 4.19t10.642-4.19q4.323-4.256 4.323-10.642l-.002-.062h.002v-33.03zm-8.315 24.18q3.459 0 5.853 2.26 2.46 2.262 2.46 6.719 0 4.057-2.26 6.518-2.262 2.394-6.053 2.394t-6.053-2.394q-2.26-2.46-2.261-6.518 0-4.456 2.395-6.718 2.46-2.262 5.92-2.262" clip-path="url(#p)" style="fill:#372a28;fill-opacity:1;fill-rule:nonzero;stroke:none" transform="matrix(1.53455 0 0 1.53438 855.794 390.223)"/><g clip-path="url(#q)" style="opacity:.149" transform="translate(-688.965 -315.274)scale(.20467)"><path d="M0 0h500v500H0Z" clip-path="url(#r)" style="fill:#000;fill-opacity:1;fill-rule:nonzero;stroke:none" transform="rotate(-90 6292.268 3.008)scale(5.18689)"/></g><text xml:space="preserve" style="font-size:192px;line-height:.35;font-family:Arcon;-inkscape-font-specification:&quot;Arcon, Normal&quot;;white-space:pre;shape-inside:url(#s)" transform="translate(10.75 55.873)"><tspan x="45.691" y="147.641"><tspan style="font-weight:700;font-size:74.6667px;font-family:&quot;Josefin Sans&quot;;-inkscape-font-specification:&quot;Josefin Sans, Bold&quot;">Extension Traits in </tspan></tspan><tspan x="45.691" y="233.241"><tspan style="font-weight:700;font-size:74.6667px;font-family:&quot;Josefin Sans&quot;;-inkscape-font-specification:&quot;Josefin Sans, Bold&quot;">Rust: The Booster </tspan></tspan><tspan x="45.691" y="318.841"><tspan style="font-weight:700;font-size:74.6667px;font-family:&quot;Josefin Sans&quot;;-inkscape-font-specification:&quot;Josefin Sans, Bold&quot;">Pack for Foreign </tspan></tspan><tspan x="45.691" y="404.441"><tspan style="font-weight:700;font-size:74.6667px;font-family:&quot;Josefin Sans&quot;;-inkscape-font-specification:&quot;Josefin Sans, Bold&quot;">Types</tspan></tspan></text></svg>