<svg xmlns="http://www.w3.org/2000/svg" viewBox="0 0 1200 630"><defs><clipPath id="a"><path d="M0 0h11520v4608H0z" clip-rule="evenodd"/></clipPath><clipPath id="p"><path d="M249.992 0C111.907 0-.017 111.924-.017 250.008c0 138.085 111.924 250.009 250.009 250.009S500 388.093 500 250.008 388.076 0 249.992 0"/></clipPath><clipPath id="e"><path d="M250.003 0C112.138 0 .433 111.706.433 249.57c0 137.866 111.705 249.572 249.57 249.572S499.574 387.436 499.574 249.57 387.868 0 250.004 0"/></clipPath><clipPath id="f"><path d="M5.812 64.898h200.584v85.233H5.812z" clip-rule="evenodd"/></clipPath><clipPath id="g"><path d="M5.812 64.898h200.584v85.233H5.812z" clip-rule="evenodd"/></clipPath><clipPath id="h"><path d="M5.812 64.898h200.584v85.233H5.812z" clip-rule="evenodd"/></clipPath><clipPath id="i"><path d="M5.812 64.898h200.584v85.233H5.812z" clip-rule="evenodd"/></clipPath><clipPath id="j"><path d="M5.812 64.898h200.584v85.233H5.812z" clip-rule="evenodd"/></clipPath><clipPath id="k"><path d="M5.812 64.898h200.584v85.233H5.812z" clip-rule="evenodd"/></clipPath><clipPath id="l"><path d="M5.812 64.898h200.584v85.233H5.812z" clip-rule="evenodd"/></clipPath><clipPath id="m"><path d="m-7.655 65.294 197.874 28.733-17.738 84.657-197.874-28.733z" clip-rule="evenodd"/></clipPath><clipPath id="n"><path d="M5.812 64.898h200.584v85.233H5.812z" clip-rule="evenodd"/></clipPath><clipPath id="o"/><clipPath id="c"/><clipPath id="b" clipPathUnits="userSpaceOnUse"/></defs><path fill="#ffc61a" d="M0 0h11520v4608H0Z" clip-path="url(#a)" transform="matrix(.10463 0 0 .137 0 -.015)"/><path fill="#372a28" d="M258 158c-1.8 0-3.3 1.5-3.3 3.4 0 1.8 1.5 3.3 3.4 3.3s3.3-1.5 3.3-3.4c0-1.8-1.5-3.3-3.4-3.3m0 48.2c-1.8 0-3.3 1.5-3.3 3.4 0 1.8 1.5 3.3 3.4 3.3s3.3-1.5 3.3-3.4c0-1.8-1.5-3.3-3.4-3.3m0 48.1c-1.8 0-3.3 1.5-3.3 3.4 0 1.8 1.5 3.3 3.4 3.3s3.3-1.5 3.3-3.4c0-1.8-1.5-3.3-3.4-3.3m0 48.6c-1.6 0-2.8 1.3-2.8 2.9s1.3 2.8 2.9 2.8 2.8-1.3 2.8-2.9-1.3-2.8-2.9-2.8m0-193c-1.8 0-3.3 1.5-3.3 3.3s1.5 3.3 3.3 3.3 3.3-1.5 3.3-3.3c.1-1.8-1.5-3.3-3.3-3.3m0-95.7c-1.6 0-2.8 1.3-2.8 2.9s1.3 2.8 2.9 2.8 2.8-1.3 2.8-2.9-1.3-2.8-2.9-2.8m-95.8 142c-2.4 0-4.4 2-4.4 4.4s2 4.4 4.4 4.4 4.4-2 4.4-4.4-2-4.4-4.4-4.4m0 48.8c-2.1 0-3.9 1.8-3.9 3.8 0 2.1 1.8 3.7 3.9 3.7s3.9-1.8 3.9-3.7c0-2.2-1.8-3.8-3.9-3.8m0 48.4c-1.9 0-3.4 1.6-3.4 3.4 0 1.9 1.6 3.4 3.4 3.4s3.4-1.6 3.4-3.4c0-1.9-1.5-3.4-3.4-3.4m0 48.7c-1.6 0-2.9 1.3-2.9 2.9s1.3 2.9 2.9 2.9 2.9-1.3 2.9-2.9-1.3-2.9-2.9-2.9m0-193c-2.1 0-3.8 1.8-3.8 3.9s1.8 3.8 3.9 3.8 3.8-1.8 3.8-3.8c0-2.2-1.8-3.9-3.9-3.9m0-95.3c-1.6 0-2.9 1.3-2.9 2.9s1.3 2.9 2.9 2.9 2.9-1.3 2.9-2.9-1.3-2.9-2.9-2.9m-47.9 144c-2.1 0-3.9 1.7-3.9 3.8s1.7 3.9 3.8 3.9 3.9-1.7 3.9-3.8-1.7-3.9-3.8-3.9m0 48.1c-2.1 0-3.9 1.7-3.9 3.8s1.7 3.9 3.8 3.9 3.9-1.7 3.9-3.8-1.7-3.9-3.8-3.9m0 48.6c-1.8 0-3.4 1.5-3.4 3.3s1.5 3.4 3.3 3.4 3.4-1.5 3.4-3.3c0-1.9-1.5-3.4-3.3-3.4m0 48.6c-1.6 0-2.9 1.2-2.9 2.8s1.2 2.9 2.8 2.9 2.9-1.2 2.9-2.8-1.2-2.9-2.8-2.9m0-193c-2.1 0-3.8 1.7-3.8 3.8s1.7 3.8 3.8 3.8 3.8-1.7 3.8-3.8c0-2-1.7-3.8-3.8-3.8m-47.9 48.6c-1.8 0-3.4 1.5-3.4 3.3s1.5 3.4 3.3 3.4 3.4-1.5 3.4-3.3c.1-1.9-1.5-3.5-3.3-3.4m0 48.1c-1.8 0-3.4 1.5-3.4 3.3s1.5 3.4 3.3 3.4 3.4-1.5 3.4-3.3c.1-1.9-1.5-3.5-3.3-3.4m0 48.1c-1.8 0-3.4 1.5-3.4 3.3s1.5 3.4 3.3 3.4 3.4-1.5 3.4-3.3c.1-1.9-1.5-3.5-3.3-3.4m0 48.6c-1.6 0-2.9 1.2-2.9 2.8s1.2 2.9 2.8 2.9 2.9-1.2 2.9-2.8c.1-1.7-1.2-3-2.8-2.9m144-241c-1.8 0-3.4 1.5-3.4 3.3s1.5 3.4 3.3 3.4 3.4-1.5 3.4-3.3c.1-1.9-1.5-3.5-3.3-3.4m-95.9-47.6c-1.6 0-2.9 1.2-2.9 2.8s1.2 2.9 2.8 2.9 2.9-1.2 2.9-2.8c.1-1.7-1.2-3-2.8-2.9m-95.8 144c-1.6 0-2.9 1.2-2.9 2.8s1.2 2.9 2.8 2.9 2.9-1.2 2.9-2.8-1.2-2.9-2.8-2.9m0 48.1c-1.6 0-2.9 1.2-2.9 2.8s1.2 2.9 2.8 2.9 2.9-1.2 2.9-2.8-1.2-2.9-2.8-2.9m0 48.1c-1.6 0-2.9 1.2-2.9 2.8s1.2 2.9 2.8 2.9 2.9-1.2 2.9-2.8-1.2-2.9-2.8-2.9m0 48.1c-1.6 0-2.9 1.2-2.9 2.8s1.2 2.9 2.8 2.9 2.9-1.2 2.9-2.8-1.2-2.9-2.8-2.9m0-240c-1.6 0-2.9 1.3-2.9 2.8s1.3 2.8 2.9 2.8 2.9-1.3 2.9-2.8c-.2-1.6-1.3-2.8-2.9-2.8m0 48.1c-1.6 0-2.9 1.3-2.9 2.8s1.3 2.8 2.9 2.8 2.9-1.3 2.9-2.8c-.2-1.6-1.3-2.8-2.9-2.8m0-96.3c-1.6 0-2.9 1.2-2.9 2.8s1.2 2.9 2.8 2.9 2.9-1.2 2.9-2.8-1.2-2.9-2.8-2.9m192 143c-2.1 0-3.9 1.7-3.9 3.9s1.7 3.9 3.9 3.9 3.9-1.7 3.9-3.9-1.8-3.9-3.9-3.9m0 48.1c-2.1 0-3.9 1.8-3.9 3.9s1.8 3.9 3.9 3.9 3.9-1.8 3.9-3.9-1.8-3.9-3.9-3.9m0 48.6c-1.9 0-3.4 1.6-3.4 3.4 0 1.9 1.6 3.4 3.4 3.4s3.4-1.6 3.4-3.4-1.5-3.4-3.4-3.4m0 48.7c-1.6 0-2.9 1.3-2.9 2.9s1.3 2.9 2.9 2.9 2.9-1.3 2.9-2.9c0-1.7-1.3-2.9-2.9-2.9m47.9-241c-1.8 0-3.4 1.5-3.4 3.3s1.5 3.3 3.4 3.3 3.4-1.5 3.4-3.3c0-1.9-1.6-3.3-3.4-3.3m-47.9 47.5c-2.1 0-3.8 1.8-3.8 3.9s1.8 3.8 3.9 3.8 3.8-1.8 3.8-3.9-1.8-3.8-3.9-3.8m0-95.3c-1.6 0-2.9 1.3-2.9 2.8 0 1.6 1.3 2.9 2.9 2.9s2.9-1.3 2.9-2.9c0-1.5-1.3-2.8-2.9-2.8m95.8 144c-1.6 0-2.8 1.3-2.8 2.9s1.3 2.8 2.9 2.8 2.8-1.3 2.8-2.9-1.3-2.8-2.9-2.8m0 48.1c-1.6 0-2.8 1.3-2.8 2.9s1.3 2.8 2.9 2.8 2.8-1.3 2.8-2.9-1.3-2.8-2.9-2.8m0 48.1c-1.6 0-2.8 1.3-2.8 2.9s1.3 2.8 2.9 2.8 2.8-1.3 2.8-2.9-1.3-2.8-2.9-2.8m0 48.1c-1.6 0-2.8 1.3-2.8 2.9s1.3 2.8 2.9 2.8 2.8-1.3 2.8-2.9-1.3-2.8-2.9-2.8m0-241c-1.5 0-2.8 1.3-2.8 2.8s1.3 2.8 2.8 2.8 2.8-1.3 2.8-2.8c.1-1.6-1.3-2.8-2.8-2.8m0-48.2c-1.6 0-2.8 1.3-2.8 2.9s1.3 2.8 2.9 2.8 2.8-1.3 2.8-2.9-1.3-2.8-2.9-2.8m-239 96.2c-1.9 0-3.3 1.5-3.3 3.3s1.5 3.3 3.3 3.3 3.3-1.5 3.3-3.3c.1-1.9-1.5-3.3-3.3-3.3m0-95.7c-1.6 0-2.9 1.2-2.9 2.8s1.2 2.9 2.8 2.9 2.9-1.2 2.9-2.8c.1-1.7-1.2-3-2.8-2.9m95.9 47.6c-1.8 0-3.4 1.5-3.4 3.3s1.5 3.4 3.3 3.4 3.4-1.5 3.4-3.3c.1-1.9-1.5-3.5-3.3-3.4m-48 0c-1.8 0-3.3 1.4-3.3 3.3 0 1.8 1.4 3.3 3.3 3.3s3.3-1.4 3.3-3.3c.1-1.8-1.4-3.3-3.3-3.3m-47.9 0c-1.9 0-3.3 1.5-3.3 3.3s1.5 3.3 3.3 3.3 3.3-1.5 3.3-3.3c.1-1.9-1.4-3.3-3.3-3.3m239 48.2c-1.5 0-2.8 1.3-2.8 2.8s1.3 2.8 2.8 2.8 2.8-1.3 2.8-2.8c.1-1.6-1.3-2.8-2.8-2.8" clip-path="url(#b)" style="opacity:.609677" transform="rotate(-90 596.83 -188.233)scale(1.27399)"/><g clip-path="url(#c)" opacity=".149" transform="translate(-2.64 -1.36)scale(.127)"><path d="M0 0h500v500H0z" clip-path="url(#e)" transform="matrix(0 -3.16 3.16 0 3678 801)"/></g><g fill="#372a28"><path d="M24.7 101c-4.74 0-8.49 1.37-11.2 4.12-2.84 2.84-4.26 6.45-4.26 10.8q0 6.39 3.99 10.5c2.62 2.75 6.16 4.12 10.6 4.12 3.2 0 5.94-.682 8.23-2.03-.991-1.32-2.27-3.36-2.9-4.86l.012-.064c-1.46.738-3.08 1.11-4.88 1.11-2.35 0-4.32-.754-5.92-2.26-1.68-1.68-2.53-3.92-2.53-6.72 0-2.7.798-4.86 2.39-6.45 1.64-1.64 3.7-2.46 6.19-2.46 1.63 0 3.18.36 4.63 1.08l-.007.032c.627-1.43 2.11-3.83 3.08-5.08-2.33-1.25-4.81-1.89-7.44-1.89z" clip-path="url(#f)" transform="translate(855.813 390.435)scale(1.537)"/><path d="M38.5 106c2.88-2.79 6.45-4.19 10.7-4.19s7.8 1.4 10.6 4.19c2.88 2.75 4.32 6.27 4.32 10.6 0 4.26-1.44 7.8-4.32 10.6-2.84 2.79-6.39 4.19-10.6 4.19s-7.83-1.4-10.7-4.19c-2.84-2.84-4.26-6.39-4.26-10.6 0-4.3 1.42-7.83 4.26-10.6m4.66 17.2c1.51 1.6 3.53 2.39 6.05 2.39s4.54-.798 6.05-2.39c1.51-1.64 2.26-3.81 2.26-6.52q0-4.455-2.46-6.72c-1.6-1.51-3.55-2.26-5.85-2.26-2.31 0-4.28.754-5.92 2.26-1.6 1.51-2.39 3.75-2.39 6.72 0 2.7.754 4.88 2.26 6.52" clip-path="url(#g)" transform="translate(855.813 390.435)scale(1.537)"/><path d="M83.2 101c-13.6.102-13.6 8.04-13.2 28.7h6.52v-14.5q-.001-4.53 1.8-6.45 1.465-1.53 4.06-1.53 1.216.002 2.37.498l3.59-5.43q-2.25-1.32-5.1-1.32z" clip-path="url(#h)" transform="translate(855.813 390.435)scale(1.537)"/><path d="M111 106c2.88-2.79 6.45-4.19 10.7-4.19 4.26 0 7.8 1.4 10.6 4.19 2.88 2.75 4.32 6.27 4.32 10.6 0 4.26-1.44 7.8-4.32 10.6-2.84 2.79-6.39 4.19-10.6 4.19-4.26 0-7.83-1.4-10.7-4.19-2.84-2.84-4.26-6.39-4.26-10.6 0-4.3 1.42-7.83 4.26-10.6m4.66 17.2c1.51 1.6 3.53 2.39 6.05 2.39 2.53 0 4.54-.798 6.05-2.39 1.51-1.64 2.26-3.81 2.26-6.52q0-4.455-2.46-6.72c-1.6-1.51-3.55-2.26-5.85-2.26-2.31 0-4.28.754-5.92 2.26-1.6 1.51-2.39 3.75-2.39 6.72 0 2.7.754 4.88 2.26 6.52" clip-path="url(#i)" transform="translate(855.813 390.435)scale(1.537)"/><path d="M101 101c-13.6.102-13.6 8.04-13.2 28.7h6.52v-14.5q-.002-4.53 1.8-6.45 1.464-1.53 4.06-1.53 1.216.002 2.37.498l3.59-5.43q-2.25-1.32-5.1-1.32z" clip-path="url(#j)" transform="translate(855.813 390.435)scale(1.537)"/><path d="M38.5 106c2.88-2.79 6.45-4.19 10.7-4.19s7.8 1.4 10.6 4.19c2.88 2.75 4.32 6.27 4.32 10.6 0 4.26-1.44 7.8-4.32 10.6-2.84 2.79-6.39 4.19-10.6 4.19s-7.83-1.4-10.7-4.19c-2.84-2.84-4.26-6.39-4.26-10.6 0-4.3 1.42-7.83 4.26-10.6m4.66 17.2c1.51 1.6 3.53 2.39 6.05 2.39s4.54-.798 6.05-2.39c1.51-1.64 2.26-3.81 2.26-6.52q0-4.455-2.46-6.72c-1.6-1.51-3.55-2.26-5.85-2.26-2.31 0-4.28.754-5.92 2.26-1.6 1.51-2.39 3.75-2.39 6.72 0 2.7.754 4.88 2.26 6.52" clip-path="url(#k)" transform="translate(855.813 390.435)scale(1.537)"/><path d="M192 101c-4.74 0-8.49 1.37-11.2 4.12-2.84 2.84-4.26 6.45-4.26 10.8q0 6.39 3.99 10.5c2.62 2.75 6.16 4.12 10.6 4.12 3.2 0 5.94-.682 8.23-2.03q-1.488-1.98-2.42-4.23l-.462-.695c-1.46.738-3.08 1.11-4.88 1.11-2.35 0-4.32-.754-5.92-2.26-1.68-1.68-2.53-3.92-2.53-6.72 0-2.7.798-4.86 2.39-6.45 1.64-1.64 3.7-2.46 6.19-2.46 1.63 0 4.65.668 6.32 4.33.876 2.58 4.08 5.45 5.15 4.06.919-11-7.54-14.2-11.2-14.2z" clip-path="url(#l)" transform="translate(855.813 390.435)scale(1.537)"/><path d="M151 139h23.6v4.75H151z" clip-path="url(#m)" transform="matrix(1.52 -.219 .318 1.504 855.813 390.435)"/><path d="M165 83v20.6c-2.38-1.54-5.15-2.32-8.31-2.32-4.26 0-7.83 1.4-10.7 4.19-2.84 2.75-4.26 6.27-4.26 10.6 0 4.26 1.42 7.8 4.26 10.6 2.88 2.79 6.45 4.19 10.7 4.19 4.26 0 7.8-1.4 10.6-4.19 2.88-2.84 4.32-6.39 4.32-10.6l-.002-.062h.002v-33h-6.65zm-8.31 24.2q3.465 0 5.85 2.26 2.46 2.265 2.46 6.72c0 2.7-.754 4.88-2.26 6.52-1.51 1.6-3.52 2.39-6.05 2.39s-4.55-.798-6.05-2.39c-1.51-1.64-2.26-3.81-2.26-6.52q.001-4.455 2.39-6.72c1.64-1.51 3.61-2.26 5.92-2.26" clip-path="url(#n)" transform="translate(855.813 390.435)scale(1.537)"/></g><g clip-path="url(#o)" opacity=".149" transform="translate(-689 -315)scale(.205)"><path d="M0 0h500v500H0z" clip-path="url(#p)" transform="rotate(-90 6292 3)scale(5.19)"/></g><g fill="#ffd885"><path d="m172.637 448.026 455.304-10.187-4.948 99.376-451.146 4.429zm1.663-359.67 403.329.628 10.686 93.556-417.882 5.655z"/><path d="m7.31 57.1 250-.539-1.13 48-249-.539zM6.95 114l106-1.03.095 45.7-106 3.62z" style="paint-order:stroke fill markers" transform="translate(150.807 88.356)scale(2.07901)"/></g><path d="M194.258 104.926h38.254v11.643h-26.195v13.887h22.661V142.1h-22.661v24.116h-12.059zm58.42 24.948 1.082 9.98-.25-1.497q1.58-3.244 4.325-5.489 2.744-2.328 5.405-3.576 2.744-1.247 4.158-1.247l-.582 11.642q-4.075-.499-6.985 1.33t-4.491 4.824-1.58 6.154v14.22H242.2v-36.382zm23.702 0h11.642v36.383H276.38zm-.25-12.89q0-2.578 1.996-4.24 2.079-1.664 4.407-1.664 2.329 0 4.242 1.663 1.995 1.663 1.995 4.241t-1.995 4.242q-1.913 1.58-4.242 1.58t-4.407-1.58q-1.996-1.664-1.996-4.242m41.788 50.312q-6.653 0-11.31-2.494-4.573-2.495-6.985-6.903t-2.412-10.145q0-5.489 2.828-9.896t7.567-6.986q4.74-2.661 10.562-2.661 7.817 0 12.806 4.574 5.073 4.49 6.57 13.056l-28.274 8.981-2.578-6.32 20.457-6.902-2.412 1.08q-.665-2.161-2.411-3.741-1.663-1.663-5.073-1.663-2.578 0-4.574 1.247-1.913 1.164-2.994 3.41-.998 2.162-.998 5.155 0 3.41 1.248 5.739 1.247 2.245 3.41 3.41 2.162 1.163 4.823 1.163 1.912 0 3.659-.665 1.83-.665 3.576-1.746l5.156 8.648q-2.911 1.664-6.32 2.662-3.327.997-6.32.997m38.67-37.422.915 6.487-.167-.582q1.913-3.41 5.406-5.489 3.493-2.162 8.565-2.162 5.156 0 8.566 3.077 3.493 2.994 3.576 7.817v27.235h-11.643v-22.87q-.083-2.41-1.33-3.825-1.165-1.496-3.992-1.496-2.661 0-4.657 1.746t-3.077 4.74-1.081 6.902v14.803h-11.643v-36.383zm53.638 37.422q-5.072 0-9.064-2.328-3.992-2.412-6.32-6.902-2.246-4.491-2.246-10.645t2.495-10.478 6.82-6.57q4.324-2.245 9.812-2.245 3.493 0 6.653 1.08 3.243 1.082 5.406 3.327v3.66-35.552h11.559v65.697h-11.643v-7.069l.915 2.495q-2.827 2.329-6.32 3.992-3.493 1.58-8.067 1.58zm3.826-9.812q2.328 0 4.075-.583 1.83-.665 3.16-1.83 1.414-1.247 2.411-3.076v-8.898q-.665-1.83-2.079-3.077-1.33-1.33-3.326-1.996-1.913-.748-4.241-.748-2.578 0-4.823 1.33-2.163 1.247-3.493 3.493t-1.33 5.156 1.33 5.239 3.493 3.659q2.245 1.33 4.823 1.33m33.264-56.758h11.643v65.697h-11.643zm26.611 83.161 24.117-53.846h10.478l-23.493 53.846zm9.73-17.297-17.796-36.591h13.056l13.722 30.77zm41.373-7.485q-1.83 4.408-3.66 8.732-1.829 4.324-3.659 8.732h-9.314q1.664-4.408 3.244-8.732 1.663-4.324 3.326-8.732z" aria-label="Friendly,"/><path d="M213.385 282.536q-3.243 0-6.403-1.164-3.077-1.247-5.156-3.493l.333-3.41v24.533h-11.56v-54.678h9.98l1.663 7.069-.915-2.495q2.828-2.412 6.32-3.992t8.067-1.58q5.073 0 9.064 2.412 3.992 2.328 6.237 6.819 2.329 4.407 2.329 10.644 0 6.154-2.578 10.479t-7.069 6.57-10.312 2.245zm-2.328-9.147q2.827 0 5.156-1.248 2.412-1.247 3.825-3.493 1.497-2.328 1.497-5.239 0-3.077-1.33-5.322-1.248-2.328-3.493-3.576-2.162-1.33-4.823-1.33-2.329 0-4.159.665-1.746.582-3.16 1.83-1.33 1.164-2.328 2.993v8.898q.665 1.747 1.913 3.077t2.993 2.08q1.83.665 3.909.665m41.996-28.275 1.081 9.98-.25-1.498q1.58-3.243 4.325-5.488 2.744-2.329 5.405-3.576 2.745-1.248 4.158-1.248l-.582 11.643q-4.075-.5-6.985 1.33t-4.49 4.824-1.58 6.154v14.22h-11.56v-36.383zm19.127 17.713q0-5.572 2.578-9.98 2.661-4.407 7.401-6.901 4.74-2.578 10.894-2.578 6.237 0 10.811 2.578 4.574 2.494 6.986 6.902 2.494 4.407 2.494 9.98 0 5.57-2.494 10.062-2.412 4.407-6.986 6.985t-10.977 2.578q-5.988 0-10.728-2.328-4.657-2.329-7.318-6.736-2.661-4.408-2.661-10.562m11.726.083q0 2.828 1.164 5.156 1.164 2.246 3.16 3.576t4.49 1.33q2.745 0 4.74-1.33 1.997-1.33 3.078-3.576 1.08-2.328 1.08-5.156 0-2.91-1.08-5.156t-3.077-3.576-4.74-1.33q-2.495 0-4.491 1.33t-3.16 3.576-1.164 5.156m41.996 18.545V255.26h-6.154v-10.312h6.154v-12.64q0-7.153 4.075-11.643 4.158-4.574 11.975-4.574 2.328 0 5.156.748 2.91.666 5.072 2.246l-4.906 8.399q-.832-1.081-1.996-1.414-1.081-.416-2.079-.416-2.495 0-4.075 1.664t-1.58 5.322v12.308h10.977v10.312h-10.977v26.195zm48.025.998q-6.653 0-11.31-2.495-4.574-2.495-6.985-6.902-2.412-4.408-2.412-10.146 0-5.488 2.827-9.896 2.828-4.407 7.568-6.985 4.74-2.661 10.561-2.661 7.817 0 12.807 4.573 5.073 4.491 6.57 13.057l-28.275 8.981-2.578-6.32 20.458-6.903-2.412 1.082q-.665-2.163-2.412-3.743-1.663-1.663-5.072-1.663-2.578 0-4.574 1.247-1.913 1.165-2.994 3.41-.998 2.162-.998 5.156 0 3.41 1.247 5.738 1.248 2.245 3.41 3.41 2.162 1.164 4.823 1.164 1.913 0 3.66-.665 1.829-.666 3.575-1.747l5.156 8.649q-2.91 1.663-6.32 2.661-3.326.998-6.32.998m39.917-.25q-4.49 0-8.4-1.58-3.825-1.58-6.486-4.407l4.823-6.403q2.662 2.411 4.907 3.492 2.328.998 4.158.998 1.414 0 2.495-.25 1.164-.332 1.83-.914.665-.665.665-1.663 0-1.414-1.165-2.245-1.08-.832-2.827-1.331-1.746-.582-3.742-1.164-4.99-1.58-7.235-4.574-2.162-3.077-2.162-6.653 0-2.744 1.413-5.489 1.497-2.827 4.657-4.657 3.244-1.912 8.316-1.912 4.574 0 7.734.915 3.16.914 5.988 2.993l-4.408 6.82q-1.58-1.248-3.576-2.08-1.912-.914-3.575-.997-1.497-.084-2.578.332-.998.416-1.58 1.081-.583.666-.583 1.414-.083 1.58 1.165 2.495 1.33.915 3.326 1.414t3.909 1.164q2.66.831 4.573 2.245t2.911 3.41q1.081 1.912 1.081 4.657 0 3.326-1.746 6.32-1.663 2.91-5.156 4.74-3.41 1.83-8.732 1.83m37.214 0q-4.49 0-8.399-1.58-3.825-1.58-6.486-4.407l4.823-6.403q2.661 2.411 4.906 3.492 2.329.998 4.158.998 1.414 0 2.495-.25 1.164-.332 1.83-.914.665-.665.665-1.663 0-1.414-1.164-2.245-1.081-.832-2.828-1.331-1.746-.582-3.742-1.164-4.99-1.58-7.235-4.574-2.162-3.077-2.162-6.653 0-2.744 1.414-5.489 1.497-2.827 4.657-4.657 3.243-1.912 8.316-1.912 4.574 0 7.734.915 3.16.914 5.987 2.993l-4.407 6.82q-1.58-1.248-3.576-2.08-1.913-.914-3.576-.997-1.497-.084-2.578.332-.998.416-1.58 1.081-.582.666-.582 1.414-.083 1.58 1.164 2.495 1.33.915 3.326 1.414t3.909 1.164q2.661.831 4.574 2.245t2.91 3.41q1.081 1.912 1.081 4.657 0 3.326-1.746 6.32-1.663 2.91-5.156 4.74-3.41 1.83-8.732 1.83m25.364-37.006h11.643v36.383h-11.643zm-.25-12.89q0-2.578 1.997-4.241 2.079-1.663 4.407-1.663 2.329 0 4.241 1.663 1.996 1.663 1.996 4.241t-1.996 4.241q-1.912 1.58-4.24 1.58-2.33 0-4.408-1.58-1.996-1.663-1.996-4.24m20.999 30.562q0-5.572 2.578-9.98 2.66-4.407 7.401-6.902 4.74-2.578 10.894-2.578 6.237 0 10.811 2.578 4.574 2.495 6.985 6.902 2.495 4.408 2.495 9.98 0 5.571-2.495 10.062-2.411 4.408-6.985 6.986t-10.977 2.578q-5.988 0-10.728-2.329-4.657-2.328-7.318-6.736t-2.661-10.561m11.725.083q0 2.827 1.165 5.156 1.164 2.245 3.16 3.576t4.49 1.33q2.745 0 4.74-1.33t3.078-3.576q1.08-2.329 1.08-5.156 0-2.91-1.08-5.156-1.082-2.245-3.077-3.576-1.996-1.33-4.74-1.33-2.495 0-4.491 1.33t-3.16 3.576-1.165 5.156m49.065-17.796.915 6.486-.166-.582q1.912-3.41 5.405-5.489 3.493-2.162 8.566-2.162 5.156 0 8.565 3.077 3.493 2.994 3.576 7.817v27.235H573.18V258.67q-.084-2.412-1.331-3.825-1.164-1.497-3.992-1.497-2.66 0-4.657 1.746-1.996 1.747-3.077 4.74t-1.08 6.903v14.802H547.4v-36.382zm54.055 37.422q-5.073 0-9.231-1.996-4.075-2.08-6.487-6.32t-2.411-10.811q0-6.154 2.494-10.645t6.57-6.902q4.075-2.495 8.649-2.495 5.405 0 8.15 1.83 2.827 1.746 4.656 3.908l-.499 1.414 1.082-5.322h10.81v36.382h-11.642v-7.9l.915 2.495q-.167 0-.998.998-.832.915-2.495 2.245-1.58 1.248-3.992 2.162-2.328.998-5.571.998zm3.326-9.48q2.079 0 3.742-.583 1.663-.665 2.91-1.83 1.248-1.247 2.163-3.076v-8.898q-.665-1.83-1.996-3.077-1.33-1.33-3.16-1.996-1.83-.749-4.075-.749-2.495 0-4.657 1.331-2.079 1.247-3.326 3.493-1.248 2.245-1.248 5.156t1.33 5.239 3.494 3.659q2.245 1.33 4.823 1.33m32.433-57.173h11.642v65.696h-11.642z" aria-label="professional"/><path d="M211.098 339.917q5.739 0 10.23 1.497 4.49 1.414 7.484 4.158 3.077 2.661 4.657 6.486 1.58 3.743 1.58 8.483 0 3.742-1.165 7.484-1.08 3.742-3.659 6.82-2.494 3.076-6.652 4.989-4.158 1.83-10.312 1.83h-8.649v19.46h-12.058V340zm2.08 30.146q2.744 0 4.573-.915t2.828-2.329q1.08-1.413 1.497-2.91.499-1.58.499-2.91 0-.999-.333-2.496-.25-1.58-1.164-3.16-.915-1.58-2.828-2.66-1.83-1.082-4.99-1.082h-8.648v18.462zm11.31 7.484 15.135 23.7h-14.055l-15.467-23.284zm34.927 25.364q-4.907 0-8.233-2.994-3.327-3.077-3.493-7.9v-27.235h11.643v22.87q.166 2.41 1.247 3.908 1.081 1.413 3.66 1.413 2.577 0 4.407-1.746 1.912-1.746 2.91-4.74 1.081-3.077 1.081-6.902v-14.803h11.643v36.383h-10.562l-.914-6.653.166.748q-1.247 2.246-3.16 3.992t-4.574 2.661q-2.578.998-5.821.998m48.649-.998q-4.491 0-8.4-1.58-3.825-1.58-6.486-4.407l4.823-6.404q2.661 2.412 4.907 3.493 2.328.998 4.158.998 1.414 0 2.495-.25 1.164-.332 1.83-.914.664-.666.664-1.664 0-1.413-1.164-2.245-1.08-.831-2.827-1.33-1.747-.583-3.743-1.165-4.99-1.58-7.234-4.574-2.163-3.076-2.163-6.652 0-2.745 1.414-5.489 1.497-2.827 4.657-4.657 3.243-1.913 8.316-1.913 4.574 0 7.734.915t5.988 2.994l-4.408 6.82q-1.58-1.248-3.576-2.08-1.913-.915-3.576-.998-1.497-.083-2.578.333-.998.416-1.58 1.08-.582.666-.582 1.415-.083 1.58 1.164 2.494 1.33.915 3.327 1.414 1.996.5 3.908 1.164 2.661.832 4.574 2.246 1.913 1.413 2.91 3.41 1.082 1.912 1.082 4.656 0 3.327-1.746 6.32-1.664 2.911-5.156 4.74-3.41 1.83-8.732 1.83m28.69-53.015h11.643v15.8h8.815v9.065h-8.815v27.443h-11.643v-27.443H331.1V364.7h5.655z" aria-label="Rust"/><path d="M238.334 512.475q-.998.832-3.743 2.245-2.66 1.414-6.57 2.495-3.908 1.081-8.648.998-7.235-.166-12.973-2.578-5.655-2.495-9.647-6.736-3.908-4.241-5.987-9.73-2.08-5.488-2.08-11.725 0-6.986 2.08-12.807 2.162-5.821 6.07-10.062 3.992-4.242 9.48-6.57 5.49-2.329 12.142-2.329 6.154 0 10.894 1.664t7.734 3.576l-4.74 11.393q-2.079-1.58-5.572-3.244-3.41-1.746-7.9-1.746-3.493 0-6.736 1.497-3.16 1.414-5.655 4.075-2.412 2.66-3.825 6.237-1.414 3.492-1.414 7.65 0 4.408 1.247 8.067 1.331 3.66 3.743 6.32 2.411 2.578 5.738 3.992 3.41 1.414 7.65 1.414 4.907 0 8.4-1.58 3.492-1.58 5.322-3.327zm7.318-13.555q0-5.572 2.578-9.98 2.66-4.407 7.401-6.902 4.74-2.578 10.894-2.578 6.237 0 10.81 2.578 4.575 2.495 6.986 6.903 2.495 4.407 2.495 9.979t-2.495 10.062q-2.411 4.408-6.985 6.986t-10.977 2.578q-5.988 0-10.728-2.329-4.657-2.328-7.318-6.736t-2.661-10.561m11.725.083q0 2.828 1.165 5.156 1.164 2.245 3.16 3.576t4.49 1.33q2.745 0 4.74-1.33t3.077-3.576q1.082-2.328 1.082-5.156 0-2.91-1.082-5.156-1.08-2.245-3.076-3.576t-4.74-1.33q-2.495 0-4.491 1.33t-3.16 3.576-1.165 5.156m49.065-17.796.915 6.486-.166-.582q1.912-3.41 5.405-5.488 3.493-2.163 8.565-2.163 5.156 0 8.566 3.077 3.493 2.994 3.576 7.817v27.235H321.66V494.72q-.083-2.411-1.33-3.825-1.164-1.497-3.992-1.497-2.661 0-4.657 1.746-1.996 1.747-3.077 4.74t-1.08 6.903v14.802H295.88v-36.382zm50.728 37.006q-4.49 0-8.4-1.58-3.825-1.58-6.486-4.407l4.824-6.404q2.66 2.412 4.906 3.493 2.329.998 4.158.998 1.414 0 2.495-.25 1.164-.332 1.83-.914.665-.666.665-1.664 0-1.413-1.165-2.245-1.08-.831-2.827-1.33-1.746-.583-3.742-1.165-4.99-1.58-7.235-4.573-2.162-3.077-2.162-6.653 0-2.745 1.413-5.489 1.497-2.827 4.657-4.657 3.244-1.913 8.316-1.913 4.574 0 7.734.915t5.988 2.994l-4.408 6.82q-1.58-1.248-3.576-2.08-1.912-.915-3.575-.998-1.497-.083-2.578.333-.998.416-1.58 1.08-.583.666-.583 1.415-.083 1.58 1.165 2.494 1.33.915 3.326 1.414 1.996.5 3.909 1.164 2.66.832 4.573 2.246 1.913 1.413 2.911 3.41 1.081 1.912 1.081 4.656 0 3.327-1.746 6.32-1.663 2.911-5.156 4.74-3.41 1.83-8.732 1.83m37.006.998q-4.906 0-8.232-2.994-3.327-3.077-3.493-7.9v-27.235h11.642v22.87q.167 2.41 1.248 3.908 1.08 1.413 3.659 1.413t4.407-1.746q1.913-1.746 2.91-4.74 1.082-3.077 1.082-6.902v-14.803h11.642v36.383h-10.56l-.916-6.653.167.748q-1.248 2.246-3.16 3.992t-4.574 2.661q-2.578.998-5.822.998m36.799-67.36h11.642v65.697h-11.642zm27.027 13.306h11.643v15.8h8.815v9.065h-8.815v27.443h-11.643v-27.443h-5.655v-9.065h5.655zm29.314 15.967h11.643v36.382h-11.643zm-.25-12.89q0-2.578 1.997-4.241 2.079-1.664 4.407-1.664 2.329 0 4.241 1.664 1.996 1.663 1.996 4.24 0 2.579-1.996 4.242-1.912 1.58-4.24 1.58-2.33 0-4.408-1.58-1.996-1.663-1.996-4.241m34.512 12.89.915 6.486-.166-.582q1.913-3.41 5.405-5.489 3.493-2.162 8.566-2.162 5.156 0 8.565 3.077 3.493 2.994 3.576 7.817v27.235h-11.642v-22.869q-.083-2.411-1.33-3.825-1.165-1.497-3.992-1.497-2.662 0-4.657 1.746-1.996 1.747-3.077 4.74t-1.081 6.903v14.802h-11.643v-36.382zm57.59 54.678q-4.907 0-8.317-1.165-3.326-1.164-5.655-2.827-2.328-1.663-4.158-3.16l6.82-7.984q1.912 1.747 4.407 3.327 2.578 1.663 6.736 1.663 2.744 0 5.073-.998 2.411-.915 3.825-2.744 1.497-1.83 1.497-4.574v-7.983l.416 2.079q-1.33 2.827-4.824 4.99-3.492 2.078-9.147 2.078-4.907 0-9.148-2.495-4.158-2.578-6.653-6.902-2.495-4.407-2.495-9.98 0-5.737 2.661-10.145 2.662-4.49 6.903-7.068t8.981-2.578 8.15 1.413q3.493 1.33 5.239 3.327l-.416 1.08 1.248-3.99h10.727v36.382q0 5.322-2.993 9.397-2.994 4.158-7.984 6.487-4.906 2.411-10.894 2.411zm-9.897-37.007q0 2.91 1.33 5.24 1.331 2.328 3.576 3.658 2.329 1.331 5.156 1.331 2.412 0 4.242-.582 1.912-.665 3.326-1.83 1.497-1.247 2.495-3.077v-8.898q-.749-1.83-2.245-3.077-1.497-1.33-3.493-1.996-1.913-.748-4.325-.748-2.827 0-5.156 1.33-2.245 1.248-3.575 3.493t-1.331 5.156" aria-label="Consulting"/></svg>