<?xml version="1.0" encoding="UTF-8"?>
<svg xmlns="http://www.w3.org/2000/svg" viewBox="0 0 213 213">
   <path d="M176 37c-17.8-17.5-42.4-28.2-69.4-28.2-37.6 0-70.4 20.9-87 51.5 52.2 29.5 105-34.8 157-23.3z" class="cls-2"/>
   <path d="M202 131c2.02-7.79 3.11-16 3.11-24.4 0-12.7-1.67-25.2-6.73-35.8-.037-.064-.065-.138-.102-.202a4.332 4.332 0 0 0-1.56-1.76c-.056-.037-.111-.073-.176-.11-60.8-39.3-124 62.9-186 16a97.119 97.119 0 0 0-2.49 21.9c0 14.7 3.29 28.6 9.17 41.1.065.138.436.559.565.624 61.6 35.4 123-64.6 184-17.4z" class="cls-3"/>
   <path d="M193 153c-52.3-30.8-105 33.7-157 22.8C79.5 221.7 164 210 193 153z" class="cls-4"/>
</svg>