<svg xmlns="http://www.w3.org/2000/svg" viewBox="0 0 250 250"><path d="M112.8 134.5h30.3v-10.1h-3.3c0 3.9-2.8 6.7-7.2 6.7H128V116h5v-3.4h-20.2v3.4h5.1v15.1h-5.1zm44.9 0h11.8l10.1-18.5h5v-3.4h-15.1v3.4h4.4l-7.4 13.5-7.3-13.5h5.3v-3.4h-22v3.4h5zM52.4 112.6H30.5v3.4h5l10.2 18.5h11.8l10-18.5h5v-3.4H57.4v3.4h4.4l-7.3 13.5-7.4-13.5h5.3zm23.1 11c0 6.4 5.2 11.6 15.6 11.6s15.5-5.1 15.5-11.6c0-6.4-5.4-11.4-15.6-11.4-10.1-.1-15.5 5-15.5 11.4m20.9 0c-.1 4-1.7 8.1-5.5 8-3.7-.1-5.3-4.2-5.3-8.2.1-4.2 2.1-7.9 5.6-7.8 3.5 0 5.3 3.8 5.2 8m91.1 0c0 6.4 5.2 11.6 15.6 11.6s15.5-5.1 15.5-11.6c0-6.4-5.4-11.4-15.6-11.4-10.1-.1-15.5 5-15.5 11.4m15.7-8c3.5.1 5.3 3.8 5.2 8-.1 4-1.7 8.1-5.5 8-3.7-.1-5.3-4.2-5.3-8.2.1-4.2 2.1-7.9 5.6-7.8"/><path d="m227.9 54-12.7 12.7c10.9 16.8 17.2 36.8 17.2 58.3 0 59.3-48.1 107.4-107.4 107.4S17.6 184.3 17.6 125 65.7 17.6 125 17.6c21.6 0 41.6 6.4 58.4 17.3l12.7-12.7C176 8.2 151.4 0 125 0 56 0 0 56 0 125s56 125 125 125 125-56 125-125c0-26.4-8.2-50.9-22.1-71"/><path d="M187.9 4.9v3.5c7.6 4.1 14.7 9 21.3 14.4l-17.8 17.8c6.7 5.3 12.8 11.3 18.1 18l17.8-17.8c5.5 6.6 10.3 13.8 14.4 21.2h3.4V4.9z"/></svg>