<svg xmlns="http://www.w3.org/2000/svg" width="600" height="371" fill="none" stroke-linecap="square" stroke-miterlimit="10"><path fill="#fff" d="M0 0h600v371H0z"/><path stroke="#333" stroke-linecap="butt" d="M52.5 332.5h529"/><path stroke="#ccc" stroke-linecap="butt" d="M52.5 251.5h529m-529-82h529m-529-81h529"/><clipPath id="a"><path d="M52.55 88.283h528.9V332.45H52.55z"/></clipPath><path d="M158 332h-50v-13a2 2 0 0 1 2-2h46a2 2 0 0 1 2 2Z" clip-path="url(#a)"/><path fill="#4285f4" d="M158 332h-50v-13a2 2 0 0 1 2-2h46a2 2 0 0 1 2 2Z" clip-path="url(#a)"/><path d="M316 332h-50v-18a2 2 0 0 1 2-2h46a2 2 0 0 1 2 2Z" clip-path="url(#a)"/><path fill="#4285f4" d="M316 332h-50v-18a2 2 0 0 1 2-2h46a2 2 0 0 1 2 2Z" clip-path="url(#a)"/><path d="M474 332h-50V123a2 2 0 0 1 2-2h46a2 2 0 0 1 2 2Z" clip-path="url(#a)"/><path fill="#4285f4" d="M474 332h-50V123a2 2 0 0 1 2-2h46a2 2 0 0 1 2 2Z" clip-path="url(#a)"/><path d="M209 332h-50v-8a2 2 0 0 1 2-2h46a2 2 0 0 1 2 2Z" clip-path="url(#a)"/><path fill="#ea4335" d="M209 332h-50v-8a2 2 0 0 1 2-2h46a2 2 0 0 1 2 2Z" clip-path="url(#a)"/><path d="M367 332h-50v-11a2 2 0 0 1 2-2h46a2 2 0 0 1 2 2Z" clip-path="url(#a)"/><path fill="#ea4335" d="M367 332h-50v-11a2 2 0 0 1 2-2h46a2 2 0 0 1 2 2Z" clip-path="url(#a)"/><path d="M525 332h-50v-87a2 2 0 0 1 2-2h46a2 2 0 0 1 2 2Z" clip-path="url(#a)"/><path fill="#ea4335" d="M525 332h-50v-87a2 2 0 0 1 2-2h46a2 2 0 0 1 2 2Z" clip-path="url(#a)"/><path fill="#000" d="M40.05 332.216q0-1.532.313-2.454.312-.937.921-1.437.625-.5 1.563-.5.687 0 1.203.281.531.281.875.813.344.515.531 1.265t.188 2.032q0 1.515-.313 2.437-.297.922-.922 1.438-.609.5-1.562.5-1.235 0-1.953-.891-.844-1.062-.844-3.484m1.078 0q0 2.109.5 2.812t1.219.703q.734 0 1.219-.703.5-.703.5-2.812 0-2.125-.5-2.813-.485-.703-1.235-.703-.719 0-1.156.61-.547.78-.547 2.906m-16.531-78.171v1.016h-5.688q0-.375.125-.734.22-.578.688-1.14.484-.563 1.39-1.298 1.407-1.156 1.891-1.828.5-.672.5-1.266 0-.625-.453-1.046-.453-.438-1.172-.438-.765 0-1.219.453-.453.453-.468 1.266l-1.078-.11q.109-1.218.828-1.843.734-.64 1.968-.64 1.235 0 1.954.687t.718 1.703q0 .515-.218 1.015-.204.485-.704 1.047-.484.547-1.609 1.5-.953.797-1.234 1.094-.266.281-.438.562zm1.453-3.218q0-1.532.313-2.453.312-.938.921-1.438.625-.5 1.563-.5.687 0 1.203.281.531.282.875.813.344.515.531 1.265t.188 2.032q0 1.515-.313 2.437-.297.922-.922 1.438-.609.5-1.562.5-1.235 0-1.953-.89-.844-1.063-.844-3.485m1.078 0q0 2.11.5 2.812.5.703 1.219.703.734 0 1.219-.703.5-.703.5-2.812 0-2.125-.5-2.813-.485-.703-1.235-.703-.718 0-1.156.61-.547.78-.547 2.906m5.922 0q0-1.532.313-2.453.312-.938.921-1.438.625-.5 1.563-.5.687 0 1.203.281.531.282.875.813.344.515.531 1.265t.188 2.032q0 1.515-.313 2.437-.297.922-.922 1.438-.609.5-1.562.5-1.235 0-1.953-.89-.844-1.063-.844-3.485m1.078 0q0 2.11.5 2.812.5.703 1.219.703.734 0 1.219-.703.5-.703.5-2.812 0-2.125-.5-2.813-.485-.703-1.235-.703-.719 0-1.156.61-.547.78-.547 2.906m5.922 0q0-1.532.313-2.453.312-.938.921-1.438.625-.5 1.563-.5.687 0 1.203.281.531.282.875.813.344.515.531 1.265t.188 2.032q0 1.515-.313 2.437-.297.922-.922 1.438-.609.5-1.562.5-1.235 0-1.953-.89-.844-1.063-.844-3.485m1.078 0q0 2.11.5 2.812.5.703 1.219.703.734 0 1.219-.703.5-.703.5-2.812 0-2.125-.5-2.813-.485-.703-1.235-.703-.719 0-1.156.61-.547.78-.547 2.906m-18.703-77.155v-2.062h-3.719v-.969l3.922-5.563h.86v5.563h1.156v.969h-1.156v2.062zm0-3.031v-3.86l-2.687 3.86zm3.625-1.203q0-1.531.313-2.453.312-.938.921-1.438.625-.5 1.563-.5.687 0 1.203.281.531.282.875.813.344.516.531 1.266t.188 2.03q0 1.516-.313 2.438-.297.922-.922 1.438-.609.5-1.562.5-1.235 0-1.953-.89-.844-1.063-.844-3.485m1.078 0q0 2.11.5 2.812.5.703 1.219.703.734 0 1.219-.703.5-.703.5-2.812 0-2.125-.5-2.813-.485-.703-1.235-.703-.718 0-1.156.61-.547.78-.547 2.906m5.922 0q0-1.531.313-2.453.312-.938.921-1.438.625-.5 1.563-.5.687 0 1.203.281.531.282.875.813.344.516.531 1.266t.188 2.03q0 1.516-.313 2.438-.297.922-.922 1.438-.609.5-1.562.5-1.235 0-1.953-.89-.844-1.063-.844-3.485m1.078 0q0 2.11.5 2.812.5.703 1.219.703.734 0 1.219-.703.5-.703.5-2.812 0-2.125-.5-2.813-.485-.703-1.235-.703-.719 0-1.156.61-.547.78-.547 2.906m5.922 0q0-1.531.313-2.453.312-.938.921-1.438.625-.5 1.563-.5.687 0 1.203.281.531.282.875.813.344.516.531 1.266t.188 2.03q0 1.516-.313 2.438-.297.922-.922 1.438-.609.5-1.562.5-1.235 0-1.953-.89-.844-1.063-.844-3.485m1.078 0q0 2.11.5 2.812.5.703 1.219.703.734 0 1.219-.703.5-.703.5-2.812 0-2.125-.5-2.813-.485-.703-1.235-.703-.719 0-1.156.61-.547.78-.547 2.906M24.519 85.799l-1.047.078q-.14-.625-.39-.906-.438-.453-1.063-.453-.5 0-.89.281-.485.375-.782 1.078-.281.688-.297 1.969.375-.578.922-.86.562-.28 1.172-.28 1.047 0 1.781.78.75.782.75 2 0 .813-.36 1.516-.343.688-.953 1.063-.609.359-1.374.359-1.329 0-2.157-.969t-.828-3.187q0-2.5.922-3.625.797-.985 2.156-.985 1.016 0 1.657.578.656.563.78 1.563m-4.297 3.703q0 .547.219 1.047.234.484.64.75.422.266.89.266.657 0 1.142-.532.484-.547.484-1.468 0-.891-.485-1.407-.468-.515-1.187-.515t-1.219.515q-.484.516-.484 1.344m5.828-1.453q0-1.531.313-2.453.312-.938.921-1.438.625-.5 1.563-.5.687 0 1.203.282.531.28.875.812.344.516.531 1.266t.188 2.031q0 1.516-.313 2.437-.297.922-.922 1.438-.609.5-1.562.5-1.235 0-1.953-.89-.844-1.063-.844-3.485m1.078 0q0 2.11.5 2.812.5.704 1.219.704.734 0 1.219-.704.5-.703.5-2.812 0-2.125-.5-2.813-.485-.703-1.235-.703-.718 0-1.156.61-.547.781-.547 2.906m5.922 0q0-1.531.313-2.453.312-.938.921-1.438.625-.5 1.563-.5.687 0 1.203.282.531.28.875.812.344.516.531 1.266t.188 2.031q0 1.516-.313 2.437-.297.922-.922 1.438-.609.5-1.562.5-1.235 0-1.953-.89-.844-1.063-.844-3.485m1.078 0q0 2.11.5 2.812.5.704 1.219.704.734 0 1.219-.704.5-.703.5-2.812 0-2.125-.5-2.813-.485-.703-1.235-.703-.719 0-1.156.61-.547.781-.547 2.906m5.922 0q0-1.531.313-2.453.312-.938.921-1.438.625-.5 1.563-.5.687 0 1.203.282.531.28.875.812.344.516.531 1.266t.188 2.031q0 1.516-.313 2.437-.297.922-.922 1.438-.609.5-1.562.5-1.235 0-1.953-.89-.844-1.063-.844-3.485m1.078 0q0 2.11.5 2.812.5.704 1.219.704.734 0 1.219-.704.5-.703.5-2.812 0-2.125-.5-2.813-.485-.703-1.235-.703-.719 0-1.156.61-.547.781-.547 2.906m101.039 258.635 1.063-.093q.078.656.36 1.062.28.406.859.672.593.25 1.328.25.64 0 1.14-.187.5-.204.735-.532.25-.344.25-.734 0-.406-.235-.703-.234-.313-.765-.516-.36-.14-1.547-.422-1.172-.281-1.64-.531-.626-.328-.923-.797-.297-.484-.297-1.078 0-.64.36-1.203.375-.578 1.078-.86.719-.296 1.578-.296.953 0 1.688.312.734.297 1.125.906.39.594.421 1.344l-1.093.078q-.094-.812-.61-1.219-.5-.421-1.484-.421-1.031 0-1.5.375t-.469.906q0 .469.328.765t1.703.61q1.391.312 1.907.547.75.36 1.109.89.36.516.36 1.22 0 .687-.391 1.296-.39.594-1.125.938-.735.328-1.656.328-1.172 0-1.97-.329-.78-.343-1.234-1.03-.437-.688-.453-1.548m8.25-4.609v-1.219h1.063v1.219zm0 7.375v-6.219h1.063v6.219zm2.797.516 1.031.156q.063.469.36.687.39.297 1.062.297.735 0 1.125-.297.407-.297.547-.812.094-.328.078-1.36-.687.813-1.718.813-1.282 0-1.985-.922-.703-.937-.703-2.219 0-.89.313-1.64.328-.766.937-1.172.61-.406 1.438-.406 1.109 0 1.828.89v-.75h.968v5.375q0 1.453-.296 2.063-.297.61-.938.953-.64.36-1.578.36-1.11 0-1.797-.5t-.672-1.516m.875-3.735q0 1.219.485 1.781.484.563 1.218.563.735 0 1.219-.562.5-.563.5-1.75 0-1.141-.516-1.72-.5-.577-1.218-.577-.703 0-1.203.578-.485.562-.485 1.687m6.328 3.219v-6.219h.938v.875q.687-1.015 1.984-1.015.563 0 1.031.203.485.203.72.531t.327.766q.047.296.047 1.03v3.829h-1.047v-3.781q0-.656-.125-.969t-.437-.5q-.313-.203-.735-.203-.671 0-1.171.437-.485.422-.485 1.61v3.406zm11.063-.766q-.594.5-1.14.703-.532.204-1.157.204-1.031 0-1.578-.5t-.547-1.282q0-.453.203-.828.203-.39.547-.61.344-.233.766-.343.296-.094.937-.172 1.266-.14 1.875-.36v-.265q0-.656-.297-.922-.406-.343-1.203-.343-.734 0-1.094.265-.36.25-.531.906l-1.031-.14q.14-.656.469-1.063t.937-.625q.61-.218 1.406-.218.797 0 1.297.187.5.188.735.469t.328.719q.047.265.047.968v1.407q0 1.468.062 1.859.078.39.281.75h-1.11q-.155-.328-.202-.766m-.094-2.359q-.578.234-1.719.406-.656.094-.922.219-.265.11-.421.328-.141.219-.141.5 0 .422.312.703.329.281.938.281.61 0 1.078-.265.484-.266.703-.735.172-.359.172-1.046zm3 3.125v-8.594h1.063v8.594zm121.662-2.766 1.062-.093q.079.656.36 1.062t.86.672q.593.25 1.327.25.64 0 1.14-.187.5-.204.735-.532.25-.344.25-.734 0-.406-.234-.703-.235-.313-.766-.516-.36-.14-1.547-.422-1.171-.281-1.64-.531-.625-.328-.922-.797-.297-.484-.297-1.078 0-.64.36-1.203.374-.578 1.077-.86.72-.296 1.579-.296.953 0 1.687.312.735.297 1.125.906.39.594.422 1.344l-1.094.078q-.094-.812-.61-1.219-.5-.421-1.483-.421-1.032 0-1.5.375-.47.375-.47.906 0 .469.329.765.328.297 1.703.61 1.39.312 1.906.547.75.36 1.11.89.359.516.359 1.22 0 .687-.39 1.296-.391.594-1.126.938-.734.328-1.656.328-1.172 0-1.969-.329-.78-.343-1.234-1.03-.437-.688-.453-1.548m10.547 1.828.156.922q-.453.094-.797.094-.578 0-.89-.172-.313-.187-.454-.484-.125-.297-.125-1.25v-3.578h-.765v-.813h.765v-1.547l1.047-.625v2.172h1.063v.813h-1.063v3.64q0 .453.047.578.063.125.188.204t.359.078q.188 0 .469-.031m.312-2.171q0-1.735.953-2.563.797-.687 1.954-.687 1.28 0 2.093.843.828.828.828 2.313 0 1.203-.359 1.89-.36.688-1.062 1.079-.688.375-1.5.375-1.297 0-2.11-.829-.797-.843-.797-2.421m1.078 0q0 1.187.516 1.78.531.595 1.313.595.796 0 1.312-.594t.516-1.813q0-1.156-.532-1.75-.515-.593-1.296-.593-.782 0-1.313.593-.516.578-.516 1.782m6.297 3.109v-6.219h.953v.938q.36-.656.657-.86.312-.218.687-.218.531 0 1.078.328l-.36.984q-.39-.234-.765-.234-.36 0-.64.219-.266.203-.375.578-.188.562-.188 1.218v3.266zm8.078-.766q-.593.5-1.14.703-.531.204-1.156.204-1.032 0-1.579-.5t-.546-1.282q0-.453.203-.828.203-.39.546-.61.344-.233.766-.343.297-.094.938-.172 1.265-.14 1.875-.36v-.265q0-.656-.297-.922-.406-.343-1.203-.343-.735 0-1.094.265-.36.25-.531.906l-1.032-.14q.141-.656.47-1.063.327-.406.937-.625.609-.218 1.406-.218t1.297.187.734.469.328.719q.047.265.047.968v1.407q0 1.468.063 1.859.078.39.28.75h-1.108q-.157-.328-.204-.766m-.093-2.359q-.579.234-1.72.406-.655.094-.921.219-.266.11-.422.328-.14.219-.14.5 0 .422.312.703.328.281.938.281t1.078-.265q.484-.266.703-.735.172-.359.172-1.046zm2.828 3.64 1.031.157q.063.469.36.687.39.297 1.062.297.734 0 1.125-.297.406-.297.547-.812.094-.328.078-1.36-.688.813-1.719.813-1.281 0-1.984-.922-.703-.937-.703-2.219 0-.89.312-1.64.328-.766.938-1.172t1.437-.406q1.11 0 1.828.89v-.75h.969v5.375q0 1.453-.297 2.063t-.937.953q-.641.36-1.579.36-1.109 0-1.796-.5t-.672-1.516m.875-3.734q0 1.219.484 1.781.485.563 1.219.563t1.219-.562q.5-.563.5-1.75 0-1.141-.516-1.72-.5-.577-1.219-.577-.703 0-1.203.578-.484.562-.484 1.687m10.578 1.219 1.094.125q-.25.953-.954 1.484-.703.532-1.78.532-1.36 0-2.173-.844-.796-.844-.796-2.36 0-1.562.812-2.421.813-.875 2.094-.875 1.25 0 2.031.843.797.844.797 2.391v.281h-4.64q.062 1.031.577 1.578.516.532 1.297.532.578 0 .985-.297.421-.313.656-.969m-3.453-1.703h3.469q-.063-.797-.391-1.188-.516-.609-1.313-.609-.734 0-1.234.484-.484.485-.531 1.313m129.833 3.701 3.329-4.484-2.922-4.11h1.343l1.563 2.203q.484.688.687 1.063.297-.469.688-.985l1.719-2.28h1.234l-3.016 4.046 3.25 4.547h-1.406l-2.156-3.062q-.188-.266-.375-.579-.281.47-.406.641l-2.157 3zm14.516-8.594h1.14v4.969q0 1.297-.296 2.063-.297.75-1.063 1.234-.765.469-2 .469-1.203 0-1.984-.407-.766-.422-1.094-1.203-.328-.797-.328-2.156v-4.969h1.14v4.953q0 1.125.204 1.657.219.53.719.828.515.281 1.25.281 1.25 0 1.78-.562.532-.579.532-2.204zm3.313 8.594v-8.594h1.14v7.578h4.235v1.016z"/><path fill="#4285f4" d="M248 56.917a1 1 0 0 1 1-1h10a1 1 0 0 1 1 1v10a1 1 0 0 1-1 1h-10a1 1 0 0 1-1-1Z"/><path fill="#1a1a1a" d="m267.984 65.917 3.297-8.594h1.219l3.516 8.594h-1.282l-1.015-2.61h-3.578l-.954 2.61zm2.485-3.532h2.906l-.89-2.375q-.423-1.078-.61-1.78-.172.827-.469 1.64zm6.328 5.922v-8.61h.953v.798q.344-.469.766-.703.437-.235 1.046-.235.797 0 1.407.407t.906 1.156q.313.75.313 1.64 0 .954-.344 1.72-.328.765-.985 1.171-.656.406-1.375.406-.53 0-.953-.218-.422-.235-.687-.563v3.031zm.953-5.468q0 1.203.484 1.78.485.563 1.172.563.703 0 1.203-.593.5-.594.5-1.844 0-1.188-.484-1.766-.484-.594-1.172-.594-.672 0-1.187.625-.516.625-.516 1.829m6.047 5.468v-8.61h.953v.798q.344-.469.766-.703.437-.235 1.046-.235.797 0 1.407.407t.906 1.156q.313.75.313 1.64 0 .954-.344 1.72-.328.765-.985 1.171-.656.406-1.375.406-.53 0-.953-.218-.422-.235-.687-.563v3.031zm.953-5.468q0 1.203.484 1.78.485.563 1.172.563.703 0 1.203-.593.5-.594.5-1.844 0-1.188-.484-1.766-.484-.594-1.172-.594-.672 0-1.187.625-.516.625-.516 1.829m6.016 3.078v-8.594h1.062v8.594zm7.28-2 1.095.125q-.25.953-.954 1.484-.703.531-1.78.531-1.36 0-2.173-.843-.796-.844-.796-2.36 0-1.562.812-2.422.813-.875 2.094-.875 1.25 0 2.031.844.797.844.797 2.39v.282h-4.64q.062 1.031.577 1.578.516.531 1.297.531.578 0 .985-.297.421-.312.656-.968m-3.452-1.703h3.469q-.063-.797-.391-1.188-.516-.61-1.313-.61-.734 0-1.234.485-.484.484-.531 1.313"/><path fill="#ea4335" d="M316 56.917a1 1 0 0 1 1-1h10a1 1 0 0 1 1 1v10a1 1 0 0 1-1 1h-10a1 1 0 0 1-1-1Z"/><path fill="#1a1a1a" d="M336.234 65.917v-.86l3.97-4.547q-.688.032-1.204.032h-2.531v-.844h5.094v.687l-3.375 3.954-.657.718q.719-.047 1.328-.047h2.891v.907zm6.532 0v-8.594h1.062v8.594zm7.062 0v-.782q-.594.922-1.734.922-.75 0-1.375-.406-.625-.422-.969-1.156-.344-.735-.344-1.688 0-.922.313-1.687.312-.766.937-1.156.625-.407 1.39-.407.563 0 1 .235t.72.609v-3.078h1.046v8.594zm-3.328-3.11q0 1.203.5 1.797.5.578 1.188.578t1.171-.562.485-1.719q0-1.281-.5-1.875-.485-.594-1.203-.594-.704 0-1.172.578-.469.563-.469 1.797"/><path fill="#757575" d="M23.738 37.55V24.925h-4.72v-1.687h11.345v1.687h-4.735V37.55zm8.14-12.297v-2.015h1.766v2.015zm0 12.297V27.175h1.766V37.55zm3.984 0V27.175h1.579v1.453q.484-.75 1.296-1.219.813-.468 1.844-.468 1.156 0 1.89.484.735.469 1.048 1.328 1.234-1.812 3.203-1.812 1.547 0 2.375.859.828.86.828 2.625v7.125h-1.75v-6.531q0-1.063-.172-1.516-.172-.469-.625-.75-.437-.281-1.047-.281-1.094 0-1.828.734-.719.719-.719 2.313v6.031h-1.75v-6.734q0-1.172-.437-1.75-.422-.594-1.406-.594-.735 0-1.375.39-.625.391-.907 1.141-.28.75-.28 2.172v5.375zm24.11-3.344 1.812.235q-.422 1.578-1.593 2.468-1.157.875-2.97.875-2.265 0-3.608-1.39-1.329-1.407-1.329-3.938 0-2.625 1.344-4.062 1.344-1.453 3.5-1.453 2.078 0 3.39 1.422 1.329 1.406 1.329 3.984 0 .156-.016.469h-7.734q.094 1.703.969 2.609t2.171.906q.97 0 1.641-.5.688-.515 1.094-1.625m-5.781-2.844h5.796q-.109-1.296-.656-1.953-.844-1.015-2.187-1.015-1.203 0-2.032.812-.828.797-.921 2.157m19.515 4.61.25 1.562q-.734.157-1.328.157-.953 0-1.484-.297-.516-.313-.735-.797-.218-.5-.218-2.078v-5.97h-1.282v-1.375h1.282v-2.562l1.75-1.063v3.625h1.765v1.375h-1.765v6.062q0 .75.093.97.094.202.297.343.219.125.61.125.28 0 .765-.078m1.516-3.61q0-2.875 1.594-4.265 1.343-1.156 3.265-1.156 2.14 0 3.485 1.406 1.359 1.406 1.359 3.875 0 2-.594 3.156-.594 1.14-1.75 1.781-1.14.625-2.5.625-2.187 0-3.531-1.39-1.328-1.407-1.328-4.032m1.797 0q0 2 .86 2.985.874.984 2.202.984 1.313 0 2.172-.984.875-1 .875-3.047 0-1.922-.875-2.906-.875-1-2.172-1-1.328 0-2.203 1-.86.984-.86 2.968m15.843 9.157V27.175h1.61v1.344q.562-.781 1.266-1.172.718-.406 1.734-.406 1.328 0 2.344.687t1.53 1.938q.532 1.234.532 2.718 0 1.594-.578 2.875-.562 1.266-1.656 1.953-1.094.672-2.297.672-.875 0-1.578-.375-.688-.375-1.14-.937v5.047zm1.594-9.094q0 2 .813 2.953t1.968.953q1.172 0 2-.984.844-.985.844-3.078 0-1.969-.828-2.953-.812-1-1.937-1t-2 1.062q-.86 1.047-.86 3.047m16.516 1.781 1.812.235q-.422 1.578-1.593 2.468-1.157.875-2.97.875-2.265 0-3.609-1.39-1.328-1.407-1.328-3.938 0-2.625 1.344-4.062 1.344-1.453 3.5-1.453 2.078 0 3.39 1.422 1.329 1.406 1.329 3.984 0 .156-.016.469h-7.734q.094 1.703.969 2.609t2.171.906q.97 0 1.641-.5.688-.515 1.094-1.625m-5.781-2.844h5.796q-.109-1.296-.656-1.953-.844-1.015-2.187-1.015-1.203 0-2.032.812-.828.797-.921 2.157m9.656 6.188V27.175h1.578v1.578q.61-1.11 1.125-1.453.516-.36 1.125-.36.89 0 1.813.563l-.61 1.64q-.64-.39-1.281-.39-.578 0-1.047.36-.453.343-.656.953-.282.937-.282 2.046v5.438zm7.437 0v-9h-1.547v-1.375h1.547v-1.094q0-1.047.188-1.562.25-.688.89-1.11.641-.421 1.797-.421.75 0 1.641.171l-.266 1.532q-.547-.094-1.03-.094-.798 0-1.142.344-.328.343-.328 1.28v.954h2.032v1.375h-2.032v9zm4.938-5.187q0-2.875 1.594-4.266 1.343-1.156 3.265-1.156 2.14 0 3.485 1.406 1.359 1.406 1.359 3.875 0 2-.594 3.156-.593 1.14-1.75 1.781-1.14.625-2.5.625-2.187 0-3.531-1.39-1.328-1.407-1.328-4.032m1.797 0q0 2 .86 2.984.874.984 2.202.984 1.313 0 2.172-.984.875-1 .875-3.047 0-1.922-.875-2.906-.875-1-2.172-1-1.328 0-2.203 1-.86.984-.86 2.968m9.828 5.187V27.175h1.578v1.578q.61-1.11 1.125-1.453.516-.36 1.125-.36.89 0 1.813.563l-.61 1.64q-.64-.39-1.281-.39-.578 0-1.047.36-.453.343-.656.953-.281.937-.281 2.046v5.438zm7.016 0V27.175h1.578v1.453q.484-.75 1.297-1.219.812-.468 1.843-.468 1.157 0 1.89.484.735.469 1.048 1.328 1.234-1.812 3.203-1.812 1.547 0 2.375.859.828.86.828 2.625v7.125h-1.75v-6.531q0-1.063-.172-1.516-.172-.469-.625-.75-.437-.281-1.047-.281-1.093 0-1.828.734-.719.719-.719 2.313v6.031h-1.75v-6.734q0-1.172-.437-1.75-.422-.594-1.406-.594-.735 0-1.375.39-.625.391-.907 1.141-.28.75-.28 2.172v5.375zm22.968 0V23.238h1.75V37.55zm4.047-12.297v-2.015h1.766v2.015zm0 12.297V27.175h1.766V37.55zm3.985 0V27.175h1.593v1.484q1.14-1.718 3.297-1.718.938 0 1.719.343.797.329 1.187.875.391.547.547 1.297.094.5.094 1.719v6.375h-1.766v-6.312q0-1.079-.203-1.61t-.734-.844q-.516-.312-1.219-.312-1.125 0-1.937.719-.813.703-.813 2.687v5.672zm11.015 0V23.238h1.766v8.156l4.156-4.219h2.266l-3.953 3.844 4.359 6.531h-2.17l-3.422-5.297-1.234 1.188v4.109zm10-12.297v-2.015h1.766v2.015zm0 12.297V27.175h1.766V37.55zm3.985 0V27.175h1.593v1.484q1.14-1.718 3.297-1.718.938 0 1.719.343.797.329 1.187.875.391.547.547 1.297.094.5.094 1.719v6.375h-1.766v-6.312q0-1.079-.203-1.61t-.734-.844q-.516-.312-1.219-.312-1.125 0-1.937.719-.813.703-.813 2.687v5.672zm10.687.86 1.703.25q.11.796.594 1.156.656.484 1.797.484 1.219 0 1.875-.484.672-.485.906-1.36.14-.547.125-2.265-1.156 1.359-2.875 1.359-2.14 0-3.312-1.547T212.19 32.3q0-1.484.53-2.734.548-1.25 1.563-1.938 1.032-.687 2.407-.687 1.828 0 3.03 1.484v-1.25h1.61v8.969q0 2.422-.5 3.422-.484 1.015-1.562 1.593-1.063.594-2.625.594-1.844 0-3-.828-1.14-.828-1.094-2.516m1.453-6.235q0 2.047.813 2.984.812.938 2.03.938 1.204 0 2.017-.938.828-.937.828-2.922 0-1.906-.844-2.875-.844-.968-2.031-.968-1.172 0-2 .953-.813.953-.813 2.828m10.328 5.375v-2h2v2q0 1.11-.39 1.781-.391.688-1.235 1.047l-.5-.75q.563-.234.828-.719.266-.468.297-1.359zm11.532 0V27.175h1.578v1.453q.484-.75 1.297-1.219.812-.468 1.843-.468 1.157 0 1.89.484.735.469 1.048 1.328 1.234-1.812 3.203-1.812 1.547 0 2.375.859.828.86.828 2.625v7.125h-1.75v-6.531q0-1.063-.172-1.516-.172-.469-.625-.75-.437-.281-1.047-.281-1.093 0-1.828.734-.719.719-.719 2.313v6.031h-1.75v-6.734q0-1.172-.437-1.75-.422-.594-1.406-.594-.735 0-1.375.39-.625.391-.907 1.141-.28.75-.28 2.172v5.375zm16.296-3.094 1.75-.281q.141 1.047.813 1.61.672.546 1.875.546t1.781-.484q.594-.5.594-1.156 0-.594-.516-.938-.36-.234-1.797-.594-1.937-.5-2.687-.843-.734-.36-1.125-.985-.39-.64-.39-1.406 0-.687.312-1.281.328-.594.875-.985.406-.296 1.11-.5.718-.218 1.53-.218 1.22 0 2.141.359.922.344 1.36.953.437.594.609 1.594l-1.719.234q-.125-.797-.687-1.234-.563-.453-1.579-.453-1.218 0-1.734.406-.516.39-.516.922 0 .344.22.625.202.281.671.469.266.093 1.547.437 1.875.5 2.61.828.734.313 1.156.922.421.594.421 1.5 0 .875-.515 1.656-.516.782-1.485 1.203-.968.422-2.187.422-2.016 0-3.078-.843-1.063-.844-1.36-2.485m20.063 7.297q-1.453-1.828-2.453-4.281-1-2.469-1-5.11 0-2.328.75-4.453.875-2.468 2.703-4.921h1.266q-1.188 2.03-1.563 2.906-.594 1.344-.937 2.812-.422 1.828-.422 3.672 0 4.688 2.922 9.375zm3.61-4.203V23.238h1.75V37.55zm3.39-5.187q0-2.875 1.594-4.266 1.343-1.156 3.265-1.156 2.14 0 3.485 1.406 1.359 1.406 1.359 3.875 0 2-.594 3.156-.594 1.14-1.75 1.781-1.14.625-2.5.625-2.187 0-3.531-1.39-1.328-1.407-1.328-4.032m1.797 0q0 2 .86 2.984.874.984 2.202.984 1.313 0 2.172-.984.875-1 .875-3.047 0-1.922-.875-2.906-.875-1-2.172-1-1.328 0-2.203 1-.86.984-.86 2.968m11.765 5.187-3.171-10.375h1.812l1.656 5.984.61 2.235q.047-.172.53-2.14l1.657-6.079h1.813l1.547 6.016.515 1.984.594-2 1.781-6h1.703l-3.234 10.375h-1.828l-1.656-6.219-.391-1.765-2.11 7.984zm19.188-3.344 1.812.235q-.421 1.578-1.593 2.468-1.157.875-2.97.875-2.265 0-3.608-1.39-1.329-1.407-1.329-3.938 0-2.625 1.344-4.062 1.344-1.453 3.5-1.453 2.078 0 3.39 1.422 1.329 1.406 1.329 3.984 0 .156-.016.469h-7.734q.094 1.703.969 2.609t2.172.906q.968 0 1.64-.5.688-.515 1.094-1.625m-5.781-2.844h5.797q-.11-1.296-.657-1.953-.844-1.015-2.187-1.015-1.203 0-2.031.812-.829.797-.922 2.157m9.656 6.188V27.175h1.578v1.578q.61-1.11 1.125-1.453.516-.36 1.125-.36.89 0 1.813.563l-.61 1.64q-.64-.39-1.281-.39-.578 0-1.047.36-.453.343-.656.953-.281.937-.281 2.046v5.438zm13.031-12.297v-2.015h1.766v2.015zm0 12.297V27.175h1.766V37.55zm3.281-3.094 1.75-.281q.141 1.047.813 1.61.672.546 1.875.546t1.781-.484q.594-.5.594-1.156 0-.594-.516-.938-.36-.234-1.797-.594-1.937-.5-2.687-.843-.734-.36-1.125-.985-.39-.64-.39-1.406 0-.687.312-1.281.328-.594.875-.985.406-.296 1.11-.5.718-.218 1.53-.218 1.22 0 2.141.359.922.344 1.36.953.437.594.609 1.594l-1.719.234q-.125-.797-.687-1.234-.563-.453-1.579-.453-1.218 0-1.734.406-.516.39-.516.922 0 .344.22.625.202.281.671.469.266.093 1.547.437 1.875.5 2.61.828.734.313 1.156.922.421.594.421 1.5 0 .875-.515 1.656-.516.782-1.485 1.203-.968.422-2.187.422-2.016 0-3.078-.843-1.063-.844-1.36-2.485m18.329 3.094h-1.625v-14.31h1.75v5.109q1.125-1.406 2.843-1.406.953 0 1.813.39t1.406 1.094q.547.688.86 1.672t.312 2.11q0 2.671-1.313 4.124t-3.156 1.453-2.89-1.53zm-.016-5.266q0 1.86.5 2.703.844 1.344 2.25 1.344 1.156 0 1.984-1 .844-1 .844-2.984 0-2.031-.812-2.985-.797-.968-1.938-.968-1.156 0-2 1-.828 1-.828 2.89m16.5 1.922 1.812.235q-.421 1.578-1.593 2.468-1.157.875-2.97.875-2.265 0-3.608-1.39-1.329-1.407-1.329-3.938 0-2.625 1.344-4.062 1.344-1.453 3.5-1.453 2.078 0 3.39 1.422 1.329 1.406 1.329 3.984 0 .156-.016.469h-7.734q.094 1.703.969 2.609t2.172.906q.968 0 1.64-.5.688-.515 1.094-1.625m-5.781-2.844h5.797q-.11-1.296-.657-1.953-.844-1.015-2.187-1.015-1.203 0-2.031.812-.829.797-.922 2.157m13.515 4.61.25 1.562q-.734.157-1.328.157-.953 0-1.484-.297-.516-.313-.735-.797-.218-.5-.218-2.078V28.55h-1.282v-1.375h1.282v-2.562l1.75-1.063v3.625h1.765v1.375h-1.765v6.062q0 .75.093.97.094.202.297.343.219.125.61.125.28 0 .765-.078m6 0 .25 1.562q-.734.157-1.328.157-.953 0-1.484-.297-.516-.313-.735-.797-.218-.5-.218-2.078V28.55h-1.282v-1.375h1.282v-2.562l1.75-1.063v3.625h1.765v1.375h-1.765v6.062q0 .75.093.97.094.202.297.343.219.125.61.125.28 0 .765-.078m9.266-1.766 1.812.235q-.421 1.578-1.593 2.468-1.157.875-2.97.875-2.265 0-3.608-1.39-1.329-1.407-1.329-3.938 0-2.625 1.344-4.062 1.344-1.453 3.5-1.453 2.078 0 3.39 1.422 1.329 1.406 1.329 3.984 0 .156-.016.469h-7.734q.094 1.703.969 2.609t2.172.906q.968 0 1.64-.5.688-.515 1.094-1.625m-5.781-2.844h5.797q-.11-1.296-.657-1.953-.844-1.015-2.187-1.015-1.203 0-2.031.812-.829.797-.922 2.157m9.656 6.188V27.175h1.578v1.578q.61-1.11 1.125-1.453.516-.36 1.125-.36.89 0 1.813.563l-.61 1.64q-.64-.39-1.281-.39-.578 0-1.047.36-.453.343-.656.953-.281.937-.281 2.046v5.438zm8.172 4.203h-1.25q2.906-4.687 2.906-9.375 0-1.844-.406-3.64-.344-1.47-.938-2.813-.375-.89-1.562-2.937h1.25q1.844 2.453 2.719 4.921.75 2.125.75 4.453 0 2.641-1.016 5.11-1 2.453-2.453 4.281"/></svg>