<svg xmlns="http://www.w3.org/2000/svg" xmlns:xlink="http://www.w3.org/1999/xlink" id="svg18" width="1200" height="600" viewBox="0 0 900 450"><defs id="defs1"><style id="style1" type="text/css">*{stroke-linecap:butt;stroke-linejoin:round}</style></defs><defs id="defs2"><clipPath id="a"><path id="rect1" d="M95 29h470v217H95z"/></clipPath></defs><use xlink:href="#DejaVuSans-35" id="use2" fill="#1a1a1a" transform="matrix(.12 0 0 -.12 120.918 214.092)"/><use xlink:href="#c" id="use4" x="94.98" y="245.94" fill="#1a1a1a" stroke="#1a1a1a" stroke-width=".8" transform="matrix(.895 0 0 .756 4.858 6.292)"/><use xlink:href="#c" id="use5" x="158.054" y="245.94" fill="#1a1a1a" stroke="#1a1a1a" stroke-width=".8" transform="matrix(.895 0 0 .756 4.858 6.292)"/><path id="text1" d="M179.55 49.829V29.265h-4.917V27.1h12.245v2.165h-4.916v20.564zm11.255 0v-2.165h4.422v-12.06h-3.989V33.44h6.401v14.224h3.99v2.165zm5.412-19.265q-.402 0-.773-.093-.371-.124-.65-.402-.278-.278-.402-.65-.092-.37-.092-.773 0-.402.092-.773.124-.37.402-.649.279-.278.65-.402.37-.124.773-.124.402 0 .773.124t.65.402.401.65q.124.37.124.772t-.124.773q-.123.372-.402.65-.278.278-.649.402-.371.093-.773.093m9.215 19.265v-16.39h2.412v1.3q.154-.34.37-.62.217-.308.496-.525.309-.216.65-.31.37-.092.741-.092.464 0 .897.155.433.154.742.464.34.309.557.71.216.403.34.867.124-.433.34-.835.217-.433.526-.742.309-.31.742-.464t.897-.155.896.186q.464.154.804.494.34.31.526.743.217.432.34.896.124.433.155.897.062.464.062.928v12.493h-2.412V37.336q0-.34-.062-.65-.031-.34-.186-.649-.154-.31-.463-.495-.279-.185-.619-.185-.31 0-.618.185-.279.186-.433.495-.155.31-.217.65-.03.309-.03.649v12.493h-2.413V37.336q0-.34-.062-.65-.03-.34-.185-.649-.155-.31-.464-.495-.278-.185-.587-.185-.34 0-.65.185-.278.186-.433.495-.154.31-.216.65-.031.309-.031.649v12.493zm21.77.247q-.866 0-1.701-.155-.804-.154-1.546-.556-.743-.433-1.3-1.052-.556-.649-.927-1.391-.34-.773-.464-1.608-.123-.835-.123-1.67v-4.02q0-.835.123-1.67.124-.835.464-1.577.34-.773.897-1.391.587-.65 1.299-1.052.71-.402 1.546-.556.835-.186 1.67-.186t1.67.186q.834.154 1.546.556.71.402 1.267 1.052.588.618.928 1.391.34.742.464 1.577t.124 1.67v3.092h-9.586v.928q0 .526.062 1.051.061.526.247 1.02.216.496.526.929.34.432.773.742.433.278.958.402.526.123 1.083.123.587 0 1.175-.123.618-.124 1.113-.433.526-.34.835-.866.309-.557.34-1.144h2.412q-.031.68-.278 1.36-.217.68-.65 1.268-.402.557-.99.99-.556.402-1.205.68-.65.247-1.36.34-.712.093-1.392.093m-3.65-9.524h7.175v-.928q0-.526-.062-1.051-.062-.526-.248-1.02-.185-.496-.525-.928-.31-.433-.742-.712-.433-.309-.959-.433-.526-.123-1.051-.123-.526 0-1.052.123-.525.124-.958.433-.433.279-.773.712-.31.432-.495.927-.186.495-.248 1.02-.061.526-.061 1.052zm28.759 15.616V33.44h2.412v2.813q.247-.649.65-1.236.401-.619.958-1.02.587-.434 1.268-.62.71-.185 1.422-.185.773 0 1.515.217.773.216 1.392.68t1.02 1.113q.433.65.68 1.392.248.71.34 1.484.093.773.093 1.546v4.02q0 .773-.092 1.546-.093.773-.34 1.515-.248.712-.68 1.361-.403.65-1.021 1.113-.619.464-1.392.68-.742.217-1.515.217-.711 0-1.422-.186-.68-.185-1.268-.587-.557-.433-.959-1.02-.402-.619-.65-1.268v9.153zm5.782-8.257q.526 0 1.02-.123.527-.124.96-.402.432-.31.742-.742.34-.433.525-.928.186-.495.248-1.02.062-.526.062-1.052v-4.02q0-.526-.062-1.051-.062-.526-.248-1.02-.185-.496-.525-.928-.31-.433-.743-.712-.432-.309-.958-.433-.495-.123-1.02-.123-.526 0-1.052.123-.495.124-.897.433-.402.31-.711.773-.278.433-.433.928-.155.464-.216.99-.062.494-.062 1.02v4.02q0 .526.062 1.051.062.495.216.99.155.464.433.928.31.433.711.742.402.309.897.433.526.123 1.051.123m15.493 2.165q-.866 0-1.701-.155-.804-.154-1.546-.556-.742-.433-1.299-1.052-.557-.649-.928-1.391-.34-.773-.464-1.608-.123-.835-.123-1.67v-4.02q0-.835.123-1.67.124-.835.464-1.577.34-.773.897-1.391.588-.65 1.299-1.052t1.546-.556q.835-.186 1.67-.186t1.67.186q.835.154 1.546.556t1.268 1.052q.587.618.927 1.391.34.742.464 1.577t.124 1.67v3.092h-9.586v.928q0 .526.062 1.051.062.526.247 1.02.217.496.526.929.34.432.773.742.433.278.958.402.526.123 1.083.123.587 0 1.175-.123.618-.124 1.113-.433.526-.34.835-.866.31-.557.34-1.144h2.412q-.03.68-.278 1.36-.217.68-.65 1.268-.402.557-.99.99-.556.402-1.205.68-.65.247-1.36.34-.712.093-1.392.093m-3.65-9.524h7.175v-.928q0-.526-.062-1.051-.062-.526-.247-1.02-.186-.496-.526-.928-.31-.433-.742-.712-.433-.309-.959-.433-.526-.123-1.051-.123-.526 0-1.052.123-.525.124-.958.433-.433.279-.773.712-.31.432-.495.927-.186.495-.247 1.02-.062.526-.062 1.052zm15.153 9.277v-16.39h2.412v3.866q.185-.742.495-1.454.309-.742.773-1.36.495-.619 1.206-.959.742-.34 1.515-.34.587 0 1.144.155.557.123 1.02.464.464.34.774.834.309.464.463 1.02.186.558.248 1.145.062.557.062 1.113h-2.412q0-.464-.093-.896-.062-.464-.31-.866-.216-.402-.649-.588-.402-.216-.865-.216-.619 0-1.206.278-.588.278-.99.773-.371.495-.618 1.082-.217.557-.34 1.175-.124.619-.186 1.237-.031.619-.031 1.237v8.69zm29.407 0v-2.165h4.422v-12.06h-3.989V33.44h6.401v14.224h3.99v2.165zm5.412-19.265q-.402 0-.773-.093-.371-.124-.65-.402-.278-.278-.402-.65-.092-.37-.092-.773 0-.402.092-.773.124-.37.402-.649.279-.278.65-.402t.773-.124.773.124.65.402q.278.278.401.65.124.37.124.772t-.124.773q-.123.372-.402.65-.278.278-.649.402-.371.093-.773.093m17.657 19.512q-.742 0-1.484-.186-.743-.185-1.361-.618-.588-.433-1.02-1.051-.402-.65-.65-1.33-.247-.711-.34-1.453t-.093-1.485v-8.349h-3.401V33.44h3.401V27.1h2.412v6.34h5.01v2.164h-5.01v8.35q0 .432.031.896.031.433.124.866.123.402.309.835.186.402.464.711.31.31.742.495.433.154.866.154.587 0 1.113-.278.557-.278.866-.773.31-.526.433-1.113.123-.588.123-1.175 0-.031-.03-.093v-.093h2.412v.309q0 .68-.124 1.361t-.402 1.33q-.278.618-.742 1.175-.433.525-1.02.896-.588.34-1.269.464-.68.155-1.36.155m13.328 0q-.866 0-1.701-.155-.804-.154-1.546-.556-.742-.433-1.3-1.052-.556-.649-.927-1.391-.34-.773-.464-1.608-.123-.835-.123-1.67v-4.02q0-.835.123-1.67.124-.835.464-1.577.34-.773.897-1.391.588-.65 1.299-1.052t1.546-.556q.835-.186 1.67-.186t1.67.186q.834.154 1.546.556.71.402 1.268 1.052.587.618.927 1.391.34.742.464 1.577t.124 1.67v3.092h-9.586v.928q0 .526.062 1.051.061.526.247 1.02.216.496.526.929.34.432.773.742.433.278.958.402.526.123 1.083.123.587 0 1.175-.123.618-.124 1.113-.433.526-.34.835-.866.309-.557.34-1.144h2.412q-.031.68-.278 1.36-.217.68-.65 1.268-.402.557-.99.99-.556.402-1.205.68-.65.247-1.36.34-.712.093-1.392.093m-3.65-9.524h7.175v-.928q0-.526-.062-1.051-.062-.526-.248-1.02-.185-.496-.525-.928-.31-.433-.742-.712-.433-.309-.959-.433-.526-.123-1.051-.123-.526 0-1.052.123-.525.124-.958.433-.433.279-.773.712-.31.432-.495.927-.186.495-.248 1.02-.061.526-.061 1.052zm15.153 9.277v-16.39h2.412v3.866q.185-.742.495-1.454.309-.742.773-1.36.494-.619 1.206-.959.742-.34 1.515-.34.587 0 1.144.155.557.123 1.02.464.464.34.774.834.309.464.463 1.02.186.558.248 1.145.062.557.062 1.113h-2.412q0-.464-.093-.896-.062-.464-.31-.866-.216-.402-.649-.588-.402-.216-.866-.216-.618 0-1.206.278-.587.278-.99.773-.37.495-.618 1.082-.216.557-.34 1.175-.123.619-.185 1.237-.031.619-.031 1.237v8.69zm17.873.247q-.618 0-1.237-.124-.618-.092-1.175-.37-.525-.31-.958-.774-.402-.464-.68-1.02-.248-.557-.372-1.175-.093-.619-.093-1.237 0-.804.186-1.577.216-.773.68-1.392.495-.65 1.144-1.082.68-.433 1.423-.68.773-.248 1.546-.34.804-.093 1.608-.093h2.752v-1.67q0-.65-.216-1.299-.217-.65-.712-1.082-.494-.433-1.144-.619-.65-.185-1.298-.185-.619 0-1.237.123-.588.124-1.083.464-.494.34-.773.897-.278.557-.278 1.144h-2.412q0-.711.185-1.391.217-.68.619-1.268t.959-.99q.587-.433 1.236-.68.65-.278 1.361-.371t1.423-.093q.742 0 1.484.124.742.093 1.422.402t1.237.804q.588.494.959 1.144.37.65.525 1.391.155.743.155 1.485v11.287h-2.412v-2.66q-.278.68-.804 1.268-.495.557-1.144.959-.65.37-1.392.525t-1.484.155m.928-2.165q.742 0 1.484-.216.773-.217 1.33-.711.556-.495.804-1.206.278-.742.278-1.515v-1.887h-2.752q-.495 0-.959.062-.463.03-.927.155-.433.092-.866.309-.433.185-.773.526-.34.34-.495.804-.155.432-.155.896 0 .588.186 1.144.216.557.65.959.432.402 1.02.557.587.123 1.175.123m18.213 2.165q-.742 0-1.484-.186-.742-.185-1.36-.618-.588-.433-1.021-1.051-.402-.65-.65-1.33-.247-.711-.34-1.453-.092-.743-.092-1.485v-8.349h-3.402V33.44h3.402V27.1h2.412v6.34h5.01v2.164h-5.01v8.35q0 .432.03.896.031.433.124.866.124.402.31.835.185.402.463.711.31.31.742.495.433.154.866.154.588 0 1.114-.278.556-.278.865-.773.31-.526.433-1.113.124-.588.124-1.175 0-.031-.03-.093v-.093h2.411v.309q0 .68-.124 1.361-.123.68-.402 1.33-.278.618-.742 1.175-.433.525-1.02.896-.588.34-1.268.464-.68.155-1.36.155m7.855-.247v-2.165h4.422v-12.06h-3.99V33.44h6.402v14.224h3.989v2.165zm5.411-19.265q-.402 0-.773-.093-.37-.124-.65-.402-.278-.278-.401-.65-.093-.37-.093-.773 0-.402.093-.773.123-.37.402-.649.278-.278.65-.402.37-.124.772-.124t.773.124q.371.124.65.402.278.278.402.65.123.37.123.772t-.123.773q-.124.372-.402.65-.279.278-.65.402-.37.093-.773.093m15.462 19.512q-.835 0-1.67-.186-.835-.154-1.546-.556t-1.3-1.02q-.556-.65-.896-1.392-.34-.773-.464-1.608-.123-.835-.123-1.67v-4.02q0-.835.123-1.67.124-.835.464-1.577.34-.773.897-1.391.587-.65 1.299-1.052.71-.402 1.546-.556.835-.186 1.67-.186t1.67.186q.834.154 1.546.556.71.402 1.267 1.052.588.618.928 1.391.34.742.464 1.577t.124 1.67v4.02q0 .835-.124 1.67t-.464 1.608q-.34.742-.928 1.391-.556.619-1.267 1.02-.712.403-1.547.557-.834.186-1.67.186m0-2.165q.525 0 1.051-.123.526-.124.959-.402.433-.31.742-.742.34-.433.525-.928.186-.495.248-1.02.062-.526.062-1.052v-4.02q0-.526-.062-1.051-.062-.526-.248-1.02-.185-.496-.525-.928-.31-.433-.742-.712-.433-.309-.959-.433-.526-.123-1.051-.123-.526 0-1.052.123-.525.124-.958.433-.433.279-.773.712-.31.432-.495.927-.186.495-.248 1.02-.061.526-.061 1.052v4.02q0 .526.061 1.051.062.526.248 1.02.185.496.495.929.34.432.773.742.433.278.958.402.526.123 1.052.123m9.71 1.918v-16.39h2.411v2.814q.248-.649.65-1.236.402-.588.958-1.02.588-.434 1.268-.62.711-.185 1.392-.185.773 0 1.515.217.742.216 1.299.71.587.465.99 1.145.401.65.618 1.391.247.712.309 1.485.093.742.093 1.484V49.83h-2.412V39.624q0-.526-.062-1.02-.062-.526-.217-.99-.154-.495-.464-.928-.278-.433-.68-.742t-.897-.433q-.494-.154-1.02-.154t-1.02.154q-.495.124-.897.433-.402.31-.711.742-.279.433-.433.928-.155.464-.217.99-.062.494-.062 1.02V49.83zm41.281 4.978q-1.36-.742-2.535-1.762-1.145-.99-2.072-2.227-.928-1.206-1.608-2.566-.68-1.392-1.083-2.876-.402-1.485-.587-3-.186-1.515-.186-3.061t.186-3.062.587-2.999 1.083-2.845q.68-1.391 1.608-2.597.927-1.237 2.072-2.227 1.175-1.02 2.535-1.763l1.175 1.887q-1.731.99-3.092 2.505t-2.226 3.34q-.835 1.793-1.175 3.772t-.34 3.989.34 3.989 1.175 3.803q.865 1.794 2.226 3.31 1.36 1.514 3.092 2.504zm5.443-4.978v-2.165h4.422v-18.4h-3.99V27.1h6.402v20.564h3.989v2.165zm20.872.247q-.834 0-1.67-.186-.834-.154-1.545-.556-.712-.402-1.3-1.02-.556-.65-.896-1.392-.34-.773-.464-1.608t-.124-1.67v-4.02q0-.835.124-1.67t.464-1.577q.34-.773.897-1.391.587-.65 1.299-1.052.71-.402 1.546-.556.835-.186 1.67-.186.834 0 1.67.186.834.154 1.545.556.712.402 1.268 1.052.588.618.928 1.391.34.742.464 1.577t.124 1.67v4.02q0 .835-.124 1.67t-.464 1.608q-.34.742-.928 1.391-.556.619-1.268 1.02-.71.403-1.546.557-.835.186-1.67.186m0-2.165q.526 0 1.052-.123.526-.124.958-.402.433-.31.743-.742.34-.433.525-.928.186-.495.248-1.02.062-.526.062-1.052v-4.02q0-.526-.062-1.051-.062-.526-.248-1.02-.185-.496-.525-.928-.31-.433-.743-.712-.432-.309-.958-.433-.526-.123-1.052-.123-.525 0-1.05.123-.527.124-.96.433-.432.279-.773.712-.309.432-.494.927-.186.495-.248 1.02-.062.526-.062 1.052v4.02q0 .526.062 1.051.062.526.248 1.02.185.496.494.929.34.432.774.742.432.278.958.402.526.123 1.051.123m11.35 1.918-2.63-16.39h2.444l1.453 14.009 1.639-9.432h2.412l1.639 9.432 1.453-14.009h2.443l-2.628 16.39h-2.381l-1.732-8.782-1.732 8.782zm19.635.247q-.866 0-1.7-.155-.805-.154-1.547-.556-.742-.433-1.299-1.052-.556-.649-.927-1.391-.34-.773-.464-1.608t-.124-1.67v-4.02q0-.835.124-1.67t.464-1.577q.34-.773.897-1.391.587-.65 1.298-1.052t1.546-.556q.835-.186 1.67-.186t1.67.186q.835.154 1.546.556t1.268 1.052q.588.618.928 1.391.34.742.464 1.577.123.835.123 1.67v3.092h-9.586v.928q0 .526.062 1.051.062.526.248 1.02.216.496.525.929.34.432.773.742.433.278.959.402.526.123 1.082.123.588 0 1.175-.123.619-.124 1.113-.433.526-.34.835-.866.31-.557.34-1.144h2.413q-.031.68-.279 1.36-.216.68-.65 1.268-.401.557-.989.99-.556.402-1.206.68-.65.247-1.36.34-.712.093-1.392.093m-3.649-9.524h7.174v-.928q0-.526-.062-1.051-.061-.526-.247-1.02-.185-.496-.526-.928-.309-.433-.742-.712-.433-.309-.958-.433-.526-.123-1.052-.123-.525 0-1.051.123-.526.124-.959.433-.433.279-.773.712-.31.432-.495.927t-.247 1.02q-.062.526-.062 1.052zm15.152 9.277v-16.39h2.412v3.866q.186-.742.495-1.454.31-.742.773-1.36.495-.619 1.206-.959.742-.34 1.515-.34.588 0 1.145.155.556.123 1.02.464.464.34.773.834.31.464.464 1.02.185.558.247 1.145.062.557.062 1.113h-2.412q0-.464-.093-.896-.061-.464-.309-.866-.216-.402-.65-.588-.401-.216-.865-.216-.619 0-1.206.278-.588.278-.99.773-.37.495-.618 1.082-.216.557-.34 1.175-.124.619-.186 1.237-.03.619-.03 1.237v8.69zm29.408 0v-2.165h4.422v-12.06h-3.99V33.44h6.402v14.224h3.989v2.165zm5.411-19.265q-.402 0-.773-.093-.37-.124-.649-.402-.278-.278-.402-.65-.093-.37-.093-.773 0-.402.093-.773.124-.37.402-.649.278-.278.65-.402.37-.124.772-.124t.773.124q.372.124.65.402t.402.65q.124.37.124.772t-.124.773q-.124.372-.402.65t-.65.402q-.37.093-.773.093m15.43 19.512q-.71 0-1.39-.093-.681-.062-1.33-.278-.65-.247-1.237-.65-.557-.401-.99-.927-.402-.557-.618-1.237-.217-.68-.217-1.36v-.032h2.412q0 .588.31 1.114.309.494.804.804.525.278 1.082.402.587.092 1.175.092.587 0 1.144-.092.588-.124 1.082-.402.526-.31.835-.835.34-.526.34-1.114 0-.525-.309-.99-.278-.463-.742-.741-.433-.31-.959-.433-.494-.155-1.02-.31-.495-.154-1.02-.309-.495-.154-.99-.34-.495-.185-.99-.402-.463-.247-.896-.556t-.804-.68q-.371-.403-.65-.866-.247-.464-.37-.99-.124-.526-.124-1.051 0-.68.185-1.33.217-.65.588-1.206.37-.588.927-.99t1.175-.649q.65-.247 1.3-.34.68-.093 1.36-.093t1.33.093q.68.093 1.298.34.65.216 1.175.618.557.372.928.928.402.557.587 1.206.217.65.217 1.299v.03h-2.412q0-.556-.278-1.05-.279-.495-.743-.774-.463-.309-1.02-.402-.526-.123-1.082-.123-.557 0-1.114.123-.556.093-1.02.402t-.742.835q-.278.495-.278 1.052 0 .556.278 1.02.31.464.742.773.464.278.959.433.525.124 1.02.278.526.155 1.02.31.526.154 1.021.34.495.185.959.433.494.216.927.525t.773.712q.371.37.619.835.278.463.402.99.154.494.154 1.05 0 .68-.216 1.361t-.618 1.237-.99.959-1.237.649q-.65.216-1.36.31-.68.092-1.361.092m31.913 0q-.711 0-1.422-.186-.68-.185-1.268-.587-.557-.433-.959-1.02-.402-.619-.65-1.268v2.814h-2.411V27.1h2.412v9.153q.247-.649.65-1.236.401-.619.958-1.02.587-.434 1.268-.62.71-.185 1.422-.185.773 0 1.515.217.773.216 1.392.68t1.02 1.113q.433.65.68 1.392.248.71.34 1.484.094.773.094 1.546v4.02q0 .773-.093 1.546t-.34 1.515q-.248.712-.68 1.361-.403.65-1.021 1.113-.619.464-1.392.68-.742.217-1.515.217m-.928-2.165q.526 0 1.02-.123.527-.124.96-.402.432-.31.742-.742.34-.433.525-.928.186-.495.248-1.02.062-.526.062-1.052v-4.02q0-.526-.062-1.051-.062-.526-.248-1.02-.185-.496-.525-.928-.31-.433-.742-.712-.433-.309-.96-.433-.494-.123-1.02-.123-.525 0-1.05.123-.496.124-.898.433-.402.31-.71.773-.28.433-.434.928-.154.464-.216.99-.062.494-.062 1.02v4.02q0 .526.062 1.051.062.495.216.99.155.464.433.928.31.433.711.742.402.309.897.433.526.123 1.051.123m15.493 2.165q-.866 0-1.701-.155-.804-.154-1.546-.556-.742-.433-1.299-1.052-.557-.649-.928-1.391-.34-.773-.463-1.608-.124-.835-.124-1.67v-4.02q0-.835.124-1.67.123-.835.463-1.577.34-.773.897-1.391.588-.65 1.299-1.052t1.546-.556q.835-.186 1.67-.186t1.67.186q.835.154 1.546.556t1.268 1.052q.587.618.927 1.391.34.742.464 1.577t.124 1.67v3.092h-9.586v.928q0 .526.062 1.051.062.526.247 1.02.217.496.526.929.34.432.773.742.433.278.959.402.525.123 1.082.123.587 0 1.175-.123.618-.124 1.113-.433.526-.34.835-.866.31-.557.34-1.144h2.412q-.03.68-.278 1.36-.217.68-.65 1.268-.402.557-.99.99-.556.402-1.205.68-.65.247-1.36.34-.712.093-1.392.093m-3.65-9.524h7.175v-.928q0-.526-.062-1.051-.062-.526-.247-1.02-.186-.496-.526-.928-.31-.433-.742-.712-.433-.309-.959-.433-.525-.123-1.051-.123t-1.052.123-.958.433q-.433.279-.773.712-.31.432-.495.927-.186.495-.247 1.02-.062.526-.062 1.052zm21.245 9.524q-.742 0-1.484-.186-.743-.185-1.361-.618-.588-.433-1.02-1.051-.403-.65-.65-1.33-.247-.711-.34-1.453t-.093-1.485v-8.349h-3.401V33.44h3.401V27.1h2.412v6.34h5.01v2.164h-5.01v8.35q0 .432.031.896.03.433.124.866.123.402.309.835.185.402.464.711.309.31.742.495.433.154.866.154.587 0 1.113-.278.557-.278.866-.773.31-.526.433-1.113.123-.588.123-1.175 0-.031-.03-.093v-.093h2.412v.309q0 .68-.124 1.361t-.402 1.33q-.278.618-.742 1.175-.433.525-1.02.896-.588.34-1.269.464-.68.155-1.36.155m15.461 0q-.742 0-1.484-.186-.742-.185-1.36-.618-.588-.433-1.021-1.051-.402-.65-.65-1.33-.247-.711-.34-1.453-.092-.743-.092-1.485v-8.349h-3.402V33.44h3.402V27.1h2.411v6.34h5.01v2.164h-5.01v8.35q0 .432.031.896.031.433.124.866.124.402.31.835.185.402.463.711.31.31.742.495.433.154.866.154.588 0 1.113-.278.557-.278.866-.773.31-.526.433-1.113.124-.588.124-1.175 0-.031-.031-.093v-.093h2.412v.309q0 .68-.124 1.361-.123.68-.402 1.33-.278.618-.742 1.175-.433.525-1.02.896-.588.34-1.268.464-.68.155-1.36.155m13.328 0q-.866 0-1.7-.155-.805-.154-1.547-.556-.742-.433-1.299-1.052-.556-.649-.927-1.391-.34-.773-.464-1.608t-.124-1.67v-4.02q0-.835.124-1.67.123-.835.464-1.577.34-.773.896-1.391.588-.65 1.3-1.052.71-.402 1.545-.556.835-.186 1.67-.186t1.67.186q.835.154 1.546.556t1.268 1.052q.587.618.928 1.391.34.742.463 1.577.124.835.124 1.67v3.092h-9.586v.928q0 .526.062 1.051.062.526.247 1.02.217.496.526.929.34.432.773.742.433.278.959.402.525.123 1.082.123.587 0 1.175-.123.618-.124 1.113-.433.526-.34.835-.866.31-.557.34-1.144h2.412q-.03.68-.278 1.36-.216.68-.65 1.268-.401.557-.989.99-.557.402-1.206.68-.65.247-1.36.34-.712.093-1.392.093m-3.649-9.524h7.174v-.928q0-.526-.062-1.051-.062-.526-.247-1.02-.186-.496-.526-.928-.31-.433-.742-.712-.433-.309-.959-.433-.525-.123-1.051-.123t-1.051.123q-.526.124-.959.433-.433.279-.773.712-.31.432-.495.927t-.247 1.02q-.062.526-.062 1.052zm15.152 9.277v-16.39h2.412v3.866q.186-.742.495-1.454.31-.742.773-1.36.495-.619 1.206-.959.742-.34 1.515-.34.588 0 1.144.155.557.123 1.02.464.465.34.774.834.31.464.464 1.02.185.558.247 1.145.062.557.062 1.113h-2.412q0-.464-.093-.896-.062-.464-.309-.866-.216-.402-.65-.588-.401-.216-.865-.216-.619 0-1.206.278-.588.278-.99.773-.37.495-.618 1.082-.217.557-.34 1.175-.124.619-.186 1.237-.03.619-.03 1.237v8.69zm14.75 4.978-1.175-1.886q1.732-.99 3.093-2.505t2.195-3.309q.866-1.824 1.206-3.803.34-1.98.34-3.99t-.34-3.988-1.206-3.773q-.835-1.824-2.195-3.34-1.361-1.515-3.093-2.504l1.175-1.887q1.36.743 2.505 1.763 1.175.99 2.103 2.227.928 1.206 1.608 2.597.68 1.36 1.082 2.845.402 1.484.588 3 .185 1.515.185 3.06 0 1.547-.185 3.062-.186 1.515-.588 3-.402 1.484-1.082 2.876-.68 1.36-1.608 2.566-.928 1.237-2.103 2.227-1.144 1.02-2.505 1.762" aria-label="Time per iteration (lower is better)" style="font-size:37.1886px;line-height:1.25;font-family:Iosevka;-inkscape-font-specification:&quot;Iosevka, Normal&quot;;stroke-width:.773074"/><path id="path2" d="M95 236h307v-87.6H95Z" clip-path="url(#a)" transform="matrix(1.3262 0 0 .6594 13.845 148.53)"/><path id="path3" d="M95 127h448V39.4H95Z" clip-path="url(#a)" transform="matrix(1.18061 0 0 .6594 27.676 129.266)"/><path id="path4" fill="none" stroke="#b0b0b0" stroke-dasharray="2.22, 0.96" stroke-opacity=".7" stroke-width=".6" d="M95 246V29" clip-path="url(#a)" transform="matrix(1.3262 0 0 1.12023 13.845 71.773)"/><g id="g12" transform="translate(13.845 74.144)scale(1.3262)"><path id="path12" fill="#1a1a1a" stroke="#1a1a1a" stroke-width=".8" d="M95 82.7h3.5"/></g><path id="path13" fill="none" stroke="#1a1a1a" stroke-linecap="square" stroke-width="1.22" d="M139.886 347.088V104.076"/><path id="path14" fill="none" stroke="#1a1a1a" stroke-linecap="square" stroke-width="1.326" d="M139.886 344.125h623.83"/><path id="text2" d="M367.873 425.976V407.48h2.366l2.718 10.142 2.718-10.142h2.366v18.497h-1.963v-3.7q0-2.893.075-5.762.1-2.894.151-5.763l-2.592 9.663h-1.51l-2.592-9.663q.05 2.869.126 5.763.1 2.869.1 5.763v3.7zm13.263 0v-1.761h3.599V414.4h-3.247v-1.762h5.21v11.577h3.246v1.761zm4.404-15.678q-.327 0-.629-.076-.302-.1-.529-.327-.226-.227-.327-.529-.075-.302-.075-.629t.075-.629q.101-.302.327-.528.227-.227.529-.328.302-.1.63-.1.326 0 .628.1.302.101.529.328.226.226.327.528.1.302.1.63 0 .326-.1.628t-.327.529-.529.327q-.302.076-.629.076m8.18 15.678v-1.761h3.598V409.24h-3.247v-1.762h5.21v16.736h3.246v1.761zm12.582 0v-1.761h3.599V409.24h-3.246v-1.762h5.209v16.736h3.246v1.761zm12.583 0v-1.761h3.6V414.4h-3.247v-1.762h5.21v11.577h3.246v1.761zm4.404-15.678q-.327 0-.629-.076-.302-.1-.528-.327t-.327-.529q-.076-.302-.076-.629t.076-.629q.1-.302.327-.528.226-.227.528-.328.302-.1.63-.1.327 0 .629.1.302.101.528.328.227.226.327.528t.1.63-.1.628q-.1.302-.327.529-.226.226-.528.327-.302.076-.63.076m12.558 15.88q-.578 0-1.132-.076-.554-.05-1.082-.226-.529-.202-1.007-.529-.453-.327-.805-.755-.327-.453-.504-1.007-.176-.553-.176-1.107v-.025h1.963q0 .478.252.906.252.403.654.654.428.227.881.327.478.076.956.076.479 0 .932-.076.478-.1.88-.327.428-.251.68-.68.277-.427.277-.905 0-.428-.252-.806-.227-.377-.604-.604-.352-.251-.78-.352-.403-.126-.83-.252-.403-.125-.831-.251-.403-.126-.805-.277-.403-.151-.806-.327-.377-.202-.73-.453-.352-.252-.654-.554-.302-.327-.528-.705-.202-.377-.302-.805-.101-.428-.101-.856 0-.553.15-1.082.177-.528.48-.981.301-.478.754-.806.453-.327.956-.528.529-.201 1.057-.277.554-.075 1.108-.075.553 0 1.082.075.553.076 1.057.277.528.176.956.503.453.302.755.755.327.453.478.982.176.528.176 1.057v.025h-1.963q0-.453-.226-.856-.227-.402-.604-.629-.377-.251-.83-.327-.428-.1-.881-.1t-.906.1q-.453.076-.83.327-.378.252-.605.68-.226.402-.226.855t.226.83q.252.378.604.63.378.226.78.352.428.101.83.227.429.126.831.251.428.126.83.277.403.151.781.353.403.176.755.427.352.252.63.58.301.301.502.679.227.377.328.805.125.403.125.856 0 .553-.176 1.107t-.503 1.007-.805.78-1.007.528q-.529.177-1.107.252-.554.076-1.108.076m12.659 0q-.705 0-1.384-.126-.655-.126-1.259-.453-.604-.353-1.056-.856-.453-.528-.755-1.132-.277-.63-.378-1.31-.1-.679-.1-1.358v-3.272q0-.68.1-1.359.1-.68.378-1.283.276-.63.73-1.133.477-.528 1.056-.855t1.259-.453q.68-.151 1.359-.151.68 0 1.359.15.68.127 1.258.454.579.327 1.032.855.478.504.755 1.133.277.604.377 1.283.1.68.1 1.36v2.516h-7.8v.755q0 .428.05.856.05.427.201.83.176.403.428.755.277.352.629.604.352.227.78.327t.88.1q.48 0 .957-.1.504-.1.906-.352.428-.277.68-.705.251-.453.277-.93h1.963q-.026.553-.227 1.106-.176.554-.528 1.032-.328.453-.806.806-.453.327-.981.553-.529.202-1.108.277-.578.076-1.132.076m-2.97-7.752h5.839v-.755q0-.428-.05-.855-.05-.428-.202-.83-.15-.404-.428-.756-.251-.352-.604-.579-.352-.251-.78-.352t-.855-.1-.856.1-.78.352q-.352.227-.63.58-.251.351-.402.754t-.201.83q-.05.428-.05.856zm15.427 7.752q-.654 0-1.334-.151-.68-.126-1.258-.453-.579-.353-1.032-.856-.428-.529-.704-1.133-.277-.629-.378-1.283-.1-.68-.1-1.36v-3.27q0-.68.1-1.335.1-.679.378-1.283.276-.63.704-1.132.453-.529 1.032-.856.579-.352 1.258-.478.68-.151 1.334-.151.63 0 1.259.126.629.1 1.182.377.58.277 1.032.73.453.428.755.981.302.554.428 1.183.151.604.151 1.233v.051h-1.963v-.025q0-.58-.176-1.133-.176-.554-.579-.956-.403-.428-.956-.604-.554-.202-1.133-.202-.428 0-.855.101-.403.1-.755.352-.353.252-.604.604-.227.353-.378.755-.15.378-.201.806-.05.428-.05.855v3.272q0 .428.05.856.05.427.201.83.151.378.378.73.251.352.604.604.352.252.755.352.427.1.855.1.579 0 1.133-.175.553-.202.956-.604.403-.428.579-.982.176-.553.176-1.132v-.025h1.963v.05q0 .63-.151 1.258-.126.604-.428 1.158t-.755 1.007q-.453.427-1.032.704-.553.277-1.182.378-.63.125-1.259.125m12.659 0q-.68 0-1.36-.151-.679-.126-1.257-.453-.58-.328-1.057-.831-.453-.528-.73-1.132-.277-.63-.378-1.31-.1-.679-.1-1.358v-3.272q0-.68.1-1.359.1-.68.378-1.283.277-.63.73-1.133.478-.528 1.057-.855.578-.327 1.258-.453.68-.151 1.359-.151.68 0 1.359.15.68.127 1.258.454.579.327 1.032.855.478.504.755 1.133.277.604.377 1.283.101.68.101 1.36v3.27q0 .68-.1 1.36-.101.68-.378 1.309-.277.604-.755 1.132-.453.503-1.032.83-.579.328-1.258.454-.68.15-1.36.15m0-1.762q.428 0 .855-.1.428-.101.78-.328.353-.252.605-.604.276-.352.427-.755t.202-.83.05-.856v-3.272q0-.428-.05-.855-.05-.428-.202-.83-.15-.404-.427-.756-.252-.352-.604-.579-.353-.251-.78-.352t-.856-.1-.856.1-.78.352q-.352.227-.63.58-.25.351-.402.754-.15.403-.201.83-.05.428-.05.856v3.272q0 .428.05.856.05.427.201.83t.403.755q.277.352.629.604.352.227.78.327t.856.1m7.902 1.56v-13.338h1.963v2.29q.201-.528.528-1.006.328-.479.78-.831.479-.352 1.032-.503.58-.151 1.133-.151.63 0 1.233.176t1.057.579q.478.377.805.93.328.53.504 1.133.201.58.251 1.208.076.604.076 1.208v8.305h-1.963v-8.305q0-.428-.05-.83-.05-.428-.177-.806-.125-.402-.377-.754-.227-.353-.554-.604-.327-.252-.73-.353-.402-.126-.83-.126t-.83.126q-.403.1-.73.353-.328.251-.58.604-.226.352-.352.754-.125.378-.176.806-.05.402-.05.83v8.305zm16.484.202q-.63 0-1.258-.177-.604-.176-1.108-.553-.503-.378-.855-.906-.328-.529-.529-1.108-.201-.604-.277-1.233-.075-.629-.075-1.258v-3.272q0-.629.075-1.258.076-.63.277-1.208.201-.604.529-1.132.352-.529.855-.906.504-.378 1.108-.554.629-.176 1.258-.176.579 0 1.132.15.58.152 1.032.504.478.327.805.83.328.479.529 1.007v-7.449h1.963v18.497h-1.963v-2.29q-.201.529-.529 1.032-.327.478-.805.83-.453.328-1.032.479-.553.15-1.132.15m.755-1.762q.428 0 .83-.1.428-.127.755-.378.328-.252.554-.604.252-.353.377-.73.126-.403.177-.805.05-.428.05-.856v-3.272q0-.428-.05-.83-.05-.428-.177-.806-.125-.402-.377-.754-.226-.378-.554-.63-.327-.251-.755-.352-.402-.1-.83-.1t-.856.1q-.402.1-.755.352-.352.227-.629.58-.252.351-.403.754-.15.403-.2.83-.051.428-.051.856v3.272q0 .428.05.856.05.427.201.83t.403.755q.277.352.63.604.352.227.754.327.428.1.856.1m12.583 1.762q-.579 0-1.133-.076-.553-.05-1.082-.226-.528-.202-1.006-.529-.453-.327-.806-.755-.327-.453-.503-1.007t-.176-1.107v-.025h1.963q0 .478.251.906.252.403.655.654.428.227.88.327.479.076.957.076t.931-.076q.478-.1.88-.327.429-.251.68-.68.277-.427.277-.905 0-.428-.251-.806-.227-.377-.604-.604-.353-.251-.78-.352-.403-.126-.831-.252-.403-.125-.83-.251-.403-.126-.806-.277t-.805-.327q-.378-.202-.73-.453-.352-.252-.654-.554-.302-.327-.529-.705-.201-.377-.302-.805t-.1-.856q0-.553.15-1.082.177-.528.479-.981.302-.478.755-.806.453-.327.956-.528.528-.201 1.057-.277.554-.075 1.107-.075.554 0 1.082.075.554.076 1.057.277.529.176.957.503.453.302.755.755.327.453.478.982.176.528.176 1.057v.025h-1.963q0-.453-.226-.856-.227-.402-.604-.629-.378-.251-.83-.327-.429-.1-.882-.1t-.906.1q-.453.076-.83.327-.378.252-.604.68-.227.402-.227.855t.227.83q.251.378.604.63.377.226.78.352.428.101.83.227.428.126.83.251.429.126.831.277.403.151.78.353.403.176.756.427.352.252.629.58.302.301.503.679.227.377.327.805.126.403.126.856 0 .553-.176 1.107t-.503 1.007-.806.78-1.006.528q-.529.177-1.108.252-.553.076-1.107.076" aria-label="Milliseconds" style="font-size:30.2656px;line-height:1.25;font-family:Iosevka;-inkscape-font-specification:&quot;Iosevka, Normal&quot;;stroke-width:.629157"/><path id="text3" d="M201.154 193.313v-2.206h4.286V172.36h-4.286v-2.206h11.03v2.206h-4.286v18.748h4.285v2.206zm14.905 0v-16.7h2.458v1.323q.157-.347.378-.63.22-.315.504-.536.315-.22.662-.315.378-.095.756-.095.473 0 .914.158t.756.473q.347.315.567.724.22.41.347.883.126-.441.347-.851.22-.441.535-.756t.757-.473.913-.158.914.19q.473.157.82.504.346.315.535.756.22.441.347.914.126.44.157.914.063.472.063.945v12.73h-2.458v-12.73q0-.347-.063-.662-.031-.347-.189-.662-.157-.315-.472-.504-.284-.189-.63-.189-.316 0-.63.19-.284.188-.442.503-.157.315-.22.662-.032.315-.032.662v12.73h-2.458v-12.73q0-.347-.063-.662-.031-.347-.189-.662-.157-.315-.472-.504-.284-.189-.6-.189-.346 0-.66.19-.285.188-.442.503t-.22.662q-.032.315-.032.662v12.73zm15.755 0v-16.7h2.458v1.323q.158-.347.378-.63.22-.315.504-.536.316-.22.662-.315.378-.095.756-.095.473 0 .914.158t.756.473q.347.315.568.724.22.41.346.883.126-.441.347-.851.22-.441.536-.756.315-.315.756-.473t.914-.158.913.19q.473.157.82.504.346.315.535.756.221.441.347.914.126.44.158.914.063.472.063.945v12.73h-2.458v-12.73q0-.347-.063-.662-.032-.347-.19-.662-.157-.315-.472-.504-.284-.189-.63-.189-.315 0-.63.19-.284.188-.442.503-.157.315-.22.662-.032.315-.032.662v12.73h-2.457v-12.73q0-.347-.063-.662-.032-.347-.19-.662-.157-.315-.472-.504-.284-.189-.599-.189-.346 0-.662.19-.283.188-.44.503t-.221.662q-.032.315-.032.662v12.73zm21.175.252q-.787 0-1.544-.22-.756-.22-1.355-.694-.567-.504-.976-1.165-.41-.694-.662-1.418-.22-.757-.315-1.513-.063-.788-.063-1.544v-10.399h2.458v10.399q0 .536.063 1.071.063.505.22 1.009.158.472.441.914.315.44.725.756.41.315.914.472.504.126 1.04.126.535 0 1.04-.126.504-.157.913-.472t.694-.756q.315-.442.472-.914.158-.504.22-1.009.064-.535.064-1.071v-10.399h2.458v16.701h-2.458v-2.867q-.252.661-.662 1.26t-1.008 1.04q-.567.441-1.292.63-.693.19-1.387.19m18.938 0q-.756 0-1.512-.189t-1.387-.63q-.598-.441-1.04-1.071-.41-.662-.661-1.355-.252-.725-.347-1.481t-.094-1.513v-8.508h-3.467v-2.206h3.467v-6.46h2.457v6.46h5.105v2.206h-5.105v8.508q0 .441.032.914.031.441.126.882.126.41.315.851.19.41.473.725.315.315.756.504.441.157.882.157.6 0 1.135-.283.567-.284.882-.788.315-.536.441-1.134.126-.599.126-1.198 0-.031-.031-.094v-.095h2.458v.315q0 .694-.126 1.387-.127.693-.41 1.355-.284.63-.756 1.197-.442.536-1.04.914-.599.347-1.292.473-.693.157-1.387.157m12.006 0q-.63 0-1.26-.126-.63-.094-1.198-.378-.536-.315-.977-.788-.41-.472-.693-1.04-.252-.567-.378-1.197-.095-.63-.095-1.26 0-.82.19-1.607.22-.788.693-1.418.504-.662 1.166-1.103.693-.441 1.449-.694.788-.252 1.576-.346.819-.095 1.638-.095h2.805v-1.701q0-.662-.221-1.324-.22-.661-.725-1.103-.504-.44-1.166-.63-.661-.189-1.323-.189-.63 0-1.26.126-.6.126-1.103.473-.505.346-.788.914-.284.567-.284 1.166h-2.458q0-.725.19-1.418.22-.694.63-1.292.41-.6.977-1.009.598-.44 1.26-.693.662-.284 1.386-.378.725-.095 1.45-.095.756 0 1.512.126.757.095 1.45.41t1.26.82q.6.504.977 1.165.378.662.536 1.418.157.757.157 1.513v11.501h-2.457v-2.71q-.284.694-.82 1.292-.504.567-1.166.977-.661.378-1.418.536-.756.157-1.512.157m.945-2.206q.756 0 1.513-.22.787-.22 1.355-.725.567-.504.819-1.229.284-.756.284-1.544v-1.922h-2.805q-.504 0-.977.063-.472.032-.945.158-.441.094-.882.315-.441.189-.788.535t-.504.82q-.158.44-.158.914 0 .598.19 1.165.22.568.66.977.442.41 1.04.567.6.126 1.198.126m17.3 2.206q-.725 0-1.45-.189-.693-.189-1.292-.599-.567-.44-.977-1.04-.41-.63-.661-1.291v2.867h-2.458v-23.16h2.458v9.327q.252-.662.661-1.26.41-.63.977-1.04.599-.442 1.292-.63.725-.19 1.45-.19.787 0 1.544.22.787.222 1.418.694.63.473 1.04 1.135.44.661.693 1.418.252.724.346 1.512.095.788.095 1.576v4.096q0 .788-.095 1.576-.094.787-.346 1.544-.252.724-.694 1.386-.41.662-1.04 1.134-.63.473-1.417.694-.757.22-1.544.22m-.946-2.206q.536 0 1.04-.126.536-.126.977-.41.441-.314.756-.755.347-.442.536-.946t.252-1.04q.063-.535.063-1.071v-4.096q0-.536-.063-1.072-.063-.535-.252-1.04-.19-.504-.536-.945-.315-.441-.756-.725-.441-.315-.977-.44-.504-.127-1.04-.127-.535 0-1.071.126-.504.126-.914.441t-.725.788q-.283.441-.44.945-.158.473-.221 1.009-.063.504-.063 1.04v4.096q0 .536.063 1.071.063.505.22 1.009.158.472.441.945.315.441.725.756t.914.441q.536.126 1.071.126m10.21 1.954v-2.206h4.506V172.36h-4.065v-2.206h6.523v20.954h4.064v2.206zm21.332.252q-.882 0-1.733-.157-.819-.158-1.575-.568-.757-.44-1.324-1.07-.567-.663-.945-1.419-.347-.788-.473-1.638-.126-.851-.126-1.702v-4.096q0-.851.126-1.702.126-.85.473-1.607.347-.788.914-1.418.598-.662 1.323-1.071.725-.41 1.576-.568.85-.189 1.701-.189t1.702.19q.85.157 1.575.567t1.292 1.071q.6.63.946 1.418.346.756.472 1.607.126.85.126 1.702v3.15h-9.768v.946q0 .536.063 1.071.063.536.252 1.04.22.504.536.946.347.44.788.756.44.283.976.41.536.125 1.103.125.6 0 1.198-.126.63-.126 1.134-.44.536-.347.851-.883.315-.567.347-1.166h2.457q-.031.693-.283 1.387-.22.693-.662 1.292-.41.567-1.008 1.008-.567.41-1.23.693-.66.252-1.386.347-.724.094-1.418.094m-3.718-9.705h7.31v-.945q0-.536-.062-1.072-.063-.535-.252-1.04-.19-.504-.536-.945-.315-.441-.756-.725-.442-.315-.977-.44-.536-.127-1.072-.127-.535 0-1.071.126t-.977.441q-.441.284-.788.725-.315.441-.504.945-.189.505-.252 1.04-.063.536-.063 1.072zm39.294 14.652q-.693 0-1.387-.126-.661-.094-1.292-.41-.598-.283-1.102-.787-.505-.473-.82-1.071-.315-.6-.472-1.26-.126-.663-.126-1.356-.757-.094-1.481-.346-.694-.252-1.292-.694-.599-.44-1.072-1.04-.44-.63-.724-1.323t-.379-1.418q-.094-.756-.094-1.512v-10.872q0-.85.126-1.67.158-.819.504-1.575.347-.788.914-1.418.599-.63 1.323-1.009.725-.41 1.544-.567.851-.157 1.702-.157.85 0 1.67.157.85.158 1.576.567.724.379 1.292 1.009.598.63.945 1.418.347.756.473 1.575.157.82.157 1.67v10.872q0 .724-.094 1.45-.095.724-.347 1.417-.252.662-.693 1.26-.41.6-.977 1.072-.567.441-1.26.725-.662.252-1.387.378.032.567.19 1.103.157.535.535.945t.914.599q.567.189 1.134.189h1.229v2.205zm-4.128-7.153q.536 0 1.04-.094.536-.126.977-.41.44-.283.756-.693.347-.441.536-.914.22-.504.283-1.008.063-.536.063-1.071v-10.872q0-.535-.063-1.04-.063-.535-.283-1.008-.19-.504-.536-.914-.315-.44-.756-.724t-.977-.379q-.504-.126-1.04-.126t-1.071.126q-.505.095-.946.379-.44.283-.787.724-.316.41-.536.914-.19.473-.252 1.009-.063.504-.063 1.04v10.87q0 .536.063 1.072.063.504.252 1.008.22.473.536.914.346.41.787.693.441.284.946.41.535.094 1.071.094m14.81 2.206q-.788 0-1.544-.22t-1.355-.694q-.567-.504-.977-1.165-.41-.694-.662-1.418-.22-.757-.315-1.513-.063-.788-.063-1.544v-10.399h2.458v10.399q0 .536.063 1.071.063.505.22 1.009.158.472.442.914.315.44.725.756.41.315.913.472.505.126 1.04.126.536 0 1.04-.126.504-.157.914-.472t.693-.756q.315-.442.473-.914.157-.504.22-1.009.063-.535.063-1.071v-10.399h2.458v16.701h-2.458v-2.867q-.252.661-.661 1.26t-1.009 1.04q-.567.441-1.292.63-.693.19-1.386.19m11.186-.252v-2.206h4.506v-12.289h-4.065v-2.206h6.523v14.495h4.065v2.206zm5.515-19.631q-.41 0-.788-.095-.378-.126-.662-.41-.283-.283-.41-.66-.094-.379-.094-.789t.094-.787q.127-.379.41-.662.284-.284.662-.41t.788-.126.787.126q.379.126.662.41.284.283.41.662.126.378.126.787t-.126.788-.41.662-.662.41q-.378.094-.787.094m15.66 19.883q-.819 0-1.67-.189-.85-.157-1.575-.567-.725-.441-1.292-1.071-.536-.662-.882-1.418-.347-.788-.473-1.607-.126-.851-.126-1.702v-4.096q0-.851.126-1.67.126-.851.473-1.608.346-.787.882-1.418.567-.661 1.292-1.07.725-.442 1.575-.6.851-.189 1.67-.189.788 0 1.576.158.788.126 1.481.473.725.346 1.292.913.567.536.945 1.23.378.693.536 1.48.189.757.189 1.544v.063h-2.458v-.031q0-.725-.22-1.418-.221-.693-.725-1.198-.504-.535-1.198-.756-.693-.252-1.418-.252-.535 0-1.07.126-.505.126-.946.441t-.757.757q-.283.44-.472.945-.19.473-.252 1.008-.063.536-.063 1.072v4.096q0 .536.063 1.071.063.536.252 1.04.189.473.472.914.316.441.757.756.44.315.945.441.536.126 1.071.126.725 0 1.418-.22.694-.252 1.198-.756.504-.536.725-1.23.22-.693.22-1.417v-.032h2.458v.063q0 .788-.19 1.576-.157.756-.535 1.45-.378.693-.945 1.26-.567.535-1.292.882-.693.347-1.481.473-.788.157-1.576.157m10.493-.252v-23.16h2.427v14.211l6.018-7.752h2.994l-5.924 7.595 5.924 9.106h-2.836l-4.632-7.121-1.544 1.985v5.136zm21.081.252q-.725 0-1.418-.094-.693-.063-1.355-.284-.662-.252-1.26-.662-.567-.41-1.009-.945-.41-.567-.63-1.26t-.22-1.387v-.031h2.457q0 .598.316 1.134.315.504.819.82.535.283 1.103.409.598.095 1.197.095t1.166-.095q.599-.126 1.103-.41.536-.315.85-.85.347-.536.347-1.135 0-.536-.315-1.008-.283-.473-.756-.756-.441-.316-.977-.442-.504-.157-1.04-.315-.504-.157-1.04-.315-.504-.157-1.008-.346-.504-.19-1.008-.41-.473-.252-.914-.567t-.82-.693q-.378-.41-.661-.883-.252-.472-.378-1.008t-.126-1.071q0-.694.189-1.355.22-.662.598-1.23.379-.598.946-1.008t1.197-.661q.662-.253 1.324-.347.693-.095 1.386-.095t1.355.095q.693.094 1.324.347.661.22 1.197.63.567.378.945.945.41.567.599 1.229.22.662.22 1.323v.032h-2.457q0-.567-.284-1.071-.283-.505-.756-.788-.473-.315-1.04-.41-.536-.126-1.103-.126t-1.134.126q-.567.095-1.04.41t-.756.85q-.284.505-.284 1.072t.284 1.04q.315.473.756.788.473.283.977.44.535.127 1.04.284.535.158 1.04.315.535.158 1.04.347.503.19.976.441.504.22.945.536.442.315.788.725.378.378.63.85.284.473.41 1.009.158.504.158 1.071 0 .693-.221 1.387-.22.693-.63 1.26t-1.009.977-1.26.662q-.662.22-1.386.315-.694.094-1.387.094m15.787 0q-.85 0-1.702-.189-.85-.157-1.575-.567t-1.324-1.04q-.567-.662-.913-1.418-.347-.788-.473-1.638-.126-.851-.126-1.702v-4.096q0-.851.126-1.702.126-.85.473-1.607.346-.788.913-1.418.599-.662 1.324-1.071.725-.41 1.575-.568.851-.189 1.702-.189.85 0 1.701.19.851.157 1.576.567t1.292 1.071q.599.63.945 1.418.347.756.473 1.607.126.85.126 1.702v4.096q0 .85-.126 1.702-.126.85-.473 1.638-.346.756-.945 1.418-.567.63-1.292 1.04t-1.576.567q-.85.19-1.701.19m0-2.206q.536 0 1.071-.126.536-.126.977-.41.441-.314.756-.755.347-.442.536-.946t.252-1.04q.063-.535.063-1.071v-4.096q0-.536-.063-1.072-.063-.535-.252-1.04-.189-.504-.536-.945-.315-.441-.756-.725-.441-.315-.977-.44-.535-.127-1.071-.127t-1.071.126q-.536.126-.977.441-.441.284-.788.725-.315.441-.504.945-.19.505-.252 1.04-.063.536-.063 1.072v4.096q0 .536.063 1.071.063.536.252 1.04t.504.946q.347.44.788.756.44.283.977.41.535.125 1.07.125m11.785 1.954v-16.7h2.458v3.938q.189-.756.504-1.48.315-.757.788-1.387.504-.63 1.229-.977.756-.347 1.544-.347.598 0 1.165.158.568.126 1.04.473.473.346.788.85.315.473.473 1.04.189.567.252 1.166.063.567.063 1.135h-2.458q0-.473-.094-.914-.063-.473-.316-.883-.22-.41-.661-.598-.41-.22-.883-.22-.63 0-1.229.283-.598.283-1.008.787-.378.505-.63 1.103-.22.568-.347 1.198t-.189 1.26q-.031.63-.031 1.26v8.855zm21.963.252q-.756 0-1.513-.189t-1.386-.63q-.599-.441-1.04-1.071-.41-.662-.662-1.355-.252-.725-.346-1.481-.095-.757-.095-1.513v-8.508h-3.466v-2.206h3.466v-6.46h2.458v6.46h5.105v2.206h-5.105v8.508q0 .441.031.914.032.441.126.882.127.41.316.851.189.41.472.725.315.315.757.504.44.157.882.157.599 0 1.134-.283.567-.284.883-.788.315-.536.44-1.134.127-.599.127-1.198 0-.031-.032-.094v-.095h2.458v.315q0 .694-.126 1.387t-.41 1.355q-.283.63-.756 1.197-.441.536-1.04.914-.598.347-1.292.473-.693.157-1.386.157" aria-label="Immutable Quicksort" style="font-size:37.8956px;line-height:1.25;font-family:Iosevka;-inkscape-font-specification:&quot;Iosevka, Normal&quot;;fill:#fff;stroke-width:.787766"/><path id="text4" d="M201.154 285.51v-25.833h3.304l3.796 14.164 3.796-14.164h3.304v25.833h-2.742v-5.166q0-4.042.106-8.049.14-4.042.21-8.049l-3.62 13.497H207.2l-3.62-13.497q.07 4.007.175 8.049.14 4.007.14 8.049v5.166zm23.62.281q-.88 0-1.723-.246t-1.511-.773q-.633-.562-1.09-1.3-.457-.774-.738-1.582-.246-.843-.352-1.687-.07-.879-.07-1.722v-11.599h2.742v11.599q0 .597.07 1.195.07.562.246 1.125.176.527.492 1.019.351.492.808.843.457.352 1.02.528.562.14 1.16.14t1.16-.14q.562-.176 1.019-.528.457-.351.773-.843.351-.492.527-1.02.176-.562.246-1.124.07-.598.07-1.195v-11.599h2.742v18.628h-2.742v-3.198q-.28.738-.738 1.406t-1.124 1.16q-.633.492-1.441.703-.774.21-1.547.21m21.122 0q-.843 0-1.687-.21-.843-.211-1.546-.703-.668-.492-1.16-1.195-.457-.739-.738-1.512-.281-.808-.387-1.652t-.105-1.687v-9.49h-3.866v-2.46h3.866v-7.205h2.741v7.205h5.694v2.46h-5.694v9.49q0 .492.035 1.02.036.492.141.984.14.457.352.949.21.457.527.808.351.351.843.562.492.176.984.176.668 0 1.266-.316.632-.317.984-.879.351-.597.492-1.265.14-.668.14-1.336 0-.035-.035-.105v-.106h2.742v.352q0 .773-.14 1.546-.142.774-.458 1.512-.316.703-.843 1.335-.492.598-1.16 1.02-.668.386-1.441.527-.773.175-1.547.175m13.391 0q-.703 0-1.406-.14-.703-.106-1.335-.422-.598-.351-1.09-.879-.457-.527-.773-1.16-.281-.632-.422-1.335-.105-.703-.105-1.406 0-.914.21-1.792.247-.88.774-1.582.562-.738 1.3-1.23.774-.492 1.617-.773.879-.282 1.757-.387.914-.105 1.828-.105h3.128v-1.898q0-.738-.246-1.477-.246-.738-.808-1.23t-1.3-.703-1.477-.21q-.703 0-1.406.14-.668.14-1.23.527t-.879 1.02-.316 1.3h-2.741q0-.808.21-1.582.247-.773.703-1.44.457-.668 1.09-1.125.668-.492 1.406-.774.738-.316 1.546-.421.809-.106 1.617-.106.844 0 1.687.14.844.106 1.617.458.773.351 1.406.913.668.563 1.09 1.3.421.739.597 1.583.176.843.176 1.687v12.828h-2.742v-3.022q-.316.773-.914 1.44-.562.633-1.3 1.09-.738.422-1.582.598-.843.175-1.687.175m1.055-2.46q.843 0 1.687-.246.878-.246 1.511-.808t.914-1.371q.316-.844.316-1.722v-2.144h-3.128q-.562 0-1.09.07-.527.035-1.054.176-.492.105-.984.351-.492.211-.879.598-.386.386-.562.914-.176.492-.176 1.019 0 .668.211 1.3.246.633.738 1.09t1.16.633q.668.14 1.336.14m19.295 2.46q-.808 0-1.617-.21-.773-.211-1.44-.668-.633-.492-1.09-1.16-.457-.703-.738-1.441v3.198h-2.742v-25.833h2.742v10.404q.28-.738.738-1.406.457-.703 1.09-1.16.667-.492 1.44-.703.809-.21 1.617-.21.879 0 1.722.245.88.246 1.582.773.703.528 1.16 1.266.492.738.773 1.581.281.809.387 1.687.105.88.105 1.758v4.569q0 .879-.105 1.757-.106.879-.387 1.722-.281.809-.773 1.547-.457.738-1.16 1.265t-1.582.773q-.843.246-1.722.246m-1.054-2.46q.597 0 1.16-.14.597-.141 1.09-.457.491-.352.843-.844.386-.492.597-1.054t.281-1.16.07-1.195v-4.57q0-.597-.07-1.194-.07-.598-.28-1.16-.212-.562-.598-1.055-.352-.492-.844-.808-.492-.351-1.09-.492-.562-.14-1.16-.14t-1.194.14q-.563.14-1.02.492-.456.352-.808.879-.316.492-.492 1.054-.176.527-.246 1.125-.07.562-.07 1.16v4.569q0 .597.07 1.195.07.562.246 1.125.176.527.492 1.054.352.492.809.843.456.352 1.019.493.597.14 1.195.14m11.387 2.18v-2.461h5.026v-20.912h-4.534v-2.46h7.276v23.372h4.534v2.46zm23.795.28q-.984 0-1.933-.175-.914-.176-1.758-.633-.843-.492-1.476-1.195-.633-.738-1.054-1.582-.387-.878-.528-1.827-.14-.95-.14-1.898v-4.57q0-.948.14-1.897t.528-1.793q.386-.878 1.019-1.581.668-.738 1.476-1.195t1.757-.633q.95-.21 1.898-.21.95 0 1.898.21.95.176 1.758.633t1.44 1.195q.668.703 1.055 1.581.387.844.527 1.793t.14 1.898v3.514h-10.895v1.055q0 .597.07 1.195.07.597.282 1.16.246.562.597 1.054.387.492.879.844.492.316 1.09.457.597.14 1.23.14.667 0 1.335-.14.703-.141 1.266-.493.597-.386.949-.984.351-.632.386-1.3h2.742q-.036.773-.317 1.546-.246.774-.738 1.441-.457.633-1.125 1.125-.632.457-1.37.773-.738.282-1.547.387t-1.581.105m-4.148-10.825h8.154v-1.054q0-.598-.07-1.195t-.281-1.16-.598-1.055q-.351-.492-.843-.808-.492-.351-1.09-.492-.597-.14-1.195-.14-.597 0-1.195.14-.597.14-1.09.492-.491.316-.878.808-.351.493-.562 1.055t-.281 1.16q-.07.597-.07 1.195zm43.828 16.343q-.773 0-1.546-.14-.738-.106-1.441-.457-.668-.316-1.23-.879-.563-.527-.914-1.195-.352-.667-.527-1.406-.14-.738-.14-1.51-.844-.106-1.653-.388-.773-.28-1.44-.773-.669-.492-1.196-1.16-.492-.703-.808-1.476t-.422-1.581q-.105-.844-.105-1.687V266.53q0-.95.14-1.863.176-.914.563-1.757.386-.879 1.019-1.582.668-.703 1.476-1.125.808-.456 1.722-.632.95-.176 1.898-.176.95 0 1.863.176.949.176 1.757.632.809.422 1.441 1.125.668.703 1.055 1.582.386.843.527 1.757.176.914.176 1.863v12.126q0 .808-.106 1.616-.105.809-.386 1.582-.282.738-.774 1.406-.457.668-1.09 1.195-.632.492-1.405.808-.738.281-1.547.422.036.633.211 1.23.176.598.598 1.055t1.02.667q.632.211 1.264.211h1.371v2.46zm-4.604-7.978q.598 0 1.16-.105.597-.14 1.09-.457.492-.317.843-.773.387-.493.598-1.02.246-.562.316-1.124.07-.598.07-1.195V266.53q0-.598-.07-1.16-.07-.597-.316-1.125-.211-.562-.598-1.019-.351-.492-.843-.808-.493-.317-1.09-.422-.562-.14-1.16-.14t-1.195.14q-.562.105-1.054.422-.492.316-.879.808-.351.457-.597 1.02-.211.527-.282 1.124-.07.562-.07 1.16v12.126q0 .597.07 1.195.07.562.282 1.124.246.527.597 1.02.387.456.879.773.492.316 1.054.457.598.105 1.195.105m16.52 2.46q-.88 0-1.723-.246t-1.511-.773q-.633-.562-1.09-1.3-.457-.774-.738-1.582-.246-.843-.352-1.687-.07-.879-.07-1.722v-11.599h2.742v11.599q0 .597.07 1.195.07.562.246 1.125.176.527.492 1.019.352.492.808.843.457.352 1.02.528.562.14 1.16.14t1.16-.14q.562-.176 1.019-.528.457-.351.773-.843.351-.492.527-1.02.176-.562.246-1.124.07-.598.07-1.195v-11.599h2.742v18.628h-2.742v-3.198q-.28.738-.738 1.406t-1.124 1.16q-.633.492-1.441.703-.774.21-1.547.21m12.476-.28v-2.461h5.026v-13.707h-4.534v-2.46h7.276v16.167h4.534v2.46zm6.15-21.897q-.456 0-.878-.106-.422-.14-.738-.457-.316-.316-.457-.738-.105-.421-.105-.878t.105-.88q.14-.42.457-.737.316-.316.738-.457.422-.14.879-.14t.879.14q.421.14.738.457.316.316.457.738.14.422.14.879t-.14.878-.457.738q-.317.317-.738.457-.422.106-.88.106m17.469 22.177q-.914 0-1.863-.21-.949-.176-1.757-.633-.809-.492-1.441-1.195-.598-.738-.984-1.582-.387-.878-.528-1.792-.14-.95-.14-1.898v-4.57q0-.948.14-1.862.141-.949.528-1.793.386-.878.984-1.581.632-.738 1.44-1.195.81-.492 1.758-.668.949-.21 1.863-.21.879 0 1.757.175.879.14 1.652.527.808.387 1.441 1.02.633.597 1.055 1.37t.597 1.652q.21.844.21 1.722v.071h-2.74v-.036q0-.808-.247-1.581-.246-.773-.808-1.336-.562-.597-1.336-.843-.773-.281-1.581-.281-.598 0-1.195.14-.563.14-1.055.492t-.843.844q-.316.492-.527 1.054-.211.527-.281 1.125-.07.597-.07 1.195v4.569q0 .597.07 1.195.07.597.28 1.16.212.527.528 1.019.351.492.843.844.492.351 1.055.492.597.14 1.195.14.808 0 1.581-.246.774-.281 1.336-.843.562-.598.808-1.371t.246-1.582v-.035h2.742v.07q0 .88-.211 1.758-.176.843-.597 1.616-.422.774-1.055 1.406-.633.598-1.44.984-.774.387-1.653.528-.878.175-1.757.175m11.704-.28v-25.834h2.706v15.851l6.713-8.646h3.339l-6.608 8.47 6.608 10.158h-3.163l-5.167-7.943-1.722 2.214v5.73zm23.513.28q-.809 0-1.582-.105-.773-.07-1.511-.316-.738-.282-1.406-.738-.633-.457-1.125-1.055-.457-.633-.703-1.406t-.246-1.546v-.035h2.742q0 .667.351 1.265.352.562.914.914.598.316 1.23.457.668.105 1.336.105t1.3-.105q.668-.141 1.23-.457.598-.352.95-.95.386-.597.386-1.265 0-.597-.351-1.124-.317-.527-.844-.844-.492-.351-1.09-.492-.562-.176-1.16-.351-.562-.176-1.16-.352-.562-.176-1.124-.386t-1.125-.457q-.527-.281-1.019-.633-.492-.351-.914-.773-.421-.457-.738-.984-.28-.527-.422-1.125-.14-.597-.14-1.195 0-.773.21-1.511.247-.738.669-1.371.421-.668 1.054-1.125t1.336-.738q.738-.281 1.476-.386.773-.106 1.546-.106t1.511.106q.774.105 1.477.386.738.246 1.335.703.633.422 1.055 1.055.457.632.667 1.37.246.738.246 1.476v.036h-2.741q0-.633-.316-1.195-.317-.563-.844-.879-.527-.352-1.16-.457-.597-.14-1.23-.14-.632 0-1.265.14-.633.105-1.16.457-.527.351-.844.949-.316.562-.316 1.195t.316 1.16q.352.527.844.878.527.317 1.09.492.597.141 1.16.317.597.176 1.16.351.597.176 1.16.387.561.21 1.089.492.562.246 1.054.597.492.352.879.809.422.422.703.949.316.527.457 1.124.175.563.175 1.195 0 .774-.246 1.547t-.703 1.406q-.457.632-1.124 1.09-.668.456-1.406.737-.738.247-1.547.352-.773.105-1.546.105m17.608 0q-.949 0-1.898-.21-.948-.176-1.757-.633t-1.476-1.16q-.633-.738-1.02-1.582-.386-.878-.526-1.827-.141-.95-.141-1.898v-4.57q0-.948.14-1.897t.528-1.793q.386-.878 1.019-1.581.668-.738 1.476-1.195.809-.457 1.757-.633.95-.21 1.898-.21.95 0 1.898.21.95.176 1.758.633t1.44 1.195q.669.703 1.055 1.581.387.844.527 1.793t.14 1.898v4.569q0 .949-.14 1.898t-.527 1.827q-.386.844-1.054 1.582-.633.703-1.441 1.16-.809.457-1.758.633-.949.21-1.898.21m0-2.46q.598 0 1.195-.14t1.09-.457q.492-.352.843-.844.387-.492.598-1.054t.281-1.16.07-1.195v-4.57q0-.597-.07-1.194-.07-.598-.281-1.16-.21-.562-.598-1.055-.351-.492-.843-.808-.492-.351-1.09-.492-.597-.14-1.195-.14-.597 0-1.195.14-.597.14-1.09.492-.491.316-.878.808-.351.493-.562 1.055t-.281 1.16q-.07.597-.07 1.195v4.569q0 .597.07 1.195.07.597.28 1.16.212.562.563 1.054.387.492.879.844.492.316 1.09.457.597.14 1.194.14m13.145 2.18v-18.629h2.742v4.394q.21-.844.562-1.652.352-.844.879-1.547.562-.703 1.37-1.09.844-.386 1.723-.386.667 0 1.3.176.633.14 1.16.527t.879.95q.351.526.527 1.159.21.633.281 1.3.07.633.07 1.266h-2.741q0-.528-.106-1.02-.07-.527-.351-.984-.246-.457-.738-.668-.457-.246-.984-.246-.703 0-1.37.317-.669.316-1.126.878-.421.563-.703 1.23-.246.633-.386 1.336t-.211 1.406q-.035.703-.035 1.406v9.876zm24.498.28q-.844 0-1.687-.21-.844-.211-1.547-.703-.668-.492-1.16-1.195-.457-.739-.738-1.512-.281-.808-.386-1.652-.106-.843-.106-1.687v-9.49h-3.866v-2.46h3.866v-7.205h2.742v7.205h5.693v2.46h-5.693v9.49q0 .492.035 1.02.035.492.14.984.14.457.352.949.21.457.527.808.352.351.844.562.492.176.984.176.667 0 1.265-.316.633-.317.984-.879.352-.597.492-1.265t.14-1.336q0-.035-.034-.105v-.106h2.741v.352q0 .773-.14 1.546-.141.774-.458 1.512-.316.703-.843 1.335-.492.598-1.16 1.02-.668.386-1.44.527-.774.175-1.547.175" aria-label="Mutable Quicksort" style="font-size:42.2685px;line-height:1.25;font-family:Iosevka;-inkscape-font-specification:&quot;Iosevka, Normal&quot;;fill:#fff;stroke-width:.87867"/><path id="text5" d="M140.85 384.457q-.635 0-1.271-.141-.636-.118-1.177-.424-.542-.306-.989-.777-.424-.494-.683-1.06-.259-.588-.353-1.223t-.094-1.272v-7.886q0-.636.094-1.271.094-.636.353-1.201.26-.589.683-1.06.447-.494.989-.8.541-.306 1.177-.424.636-.14 1.271-.14.636 0 1.271.14.636.118 1.178.424t.965.8q.447.471.706 1.06.259.565.353 1.2.094.636.094 1.272v7.886q0 .636-.094 1.272-.094.635-.353 1.224-.259.565-.706 1.06-.424.47-.965.776-.542.306-1.178.424-.635.141-1.27.141m-2.73-7.675 5.461-4.355v-.753q0-.4-.047-.8t-.188-.777-.4-.707q-.236-.33-.566-.541-.33-.236-.73-.33t-.8-.094-.8.094-.73.33q-.33.212-.589.541-.235.33-.376.707t-.189.776-.047.8zm2.73 6.027q.4 0 .8-.094t.73-.306q.33-.236.565-.565.26-.33.4-.706.142-.377.189-.777t.047-.8v-5.11l-5.462 4.356v.753q0 .4.047.8.048.4.189.778.141.376.376.706.26.33.589.565.33.212.73.306t.8.094" aria-label="0" style="font-size:28.312px;line-height:1.25;font-family:Iosevka;-inkscape-font-specification:&quot;Iosevka, Normal&quot;;stroke-width:.588546"/><path id="text12" d="M218.928 384.457q-.565 0-1.13-.118-.565-.094-1.06-.353-.494-.259-.918-.659-.4-.4-.683-.895-.282-.494-.447-1.035-.141-.542-.212-1.107v-.118h1.837l.023.26q.094.47.283.918.188.447.518.8.353.33.823.494.471.165.966.165.447 0 .87-.165.448-.164.778-.494t.518-.73q.211-.424.33-.87.117-.448.14-.895.047-.471.047-.919 0-.47-.047-.918-.023-.447-.14-.894-.119-.448-.307-.848-.188-.424-.518-.753-.306-.33-.73-.495-.423-.164-.894-.164t-.942.164q-.47.142-.824.495-.33.33-.518.8-.165.471-.188.965h-1.836v-10.123h8.145v1.648h-6.31v5.038q.542-.353 1.178-.494.66-.141 1.295-.141.682 0 1.342.188.682.165 1.224.589.565.423.942 1.012.376.565.588 1.224.212.636.283 1.342.094.683.094 1.365 0 .683-.094 1.39-.071.682-.306 1.341-.212.636-.613 1.224-.376.589-.941 1.013-.542.4-1.224.565-.66.188-1.342.188m11.724 0q-.636 0-1.272-.141-.635-.118-1.177-.424-.541-.306-.989-.777-.423-.494-.682-1.06-.26-.588-.353-1.223-.095-.636-.095-1.272v-7.886q0-.636.095-1.271.094-.636.353-1.201.259-.589.682-1.06.448-.494.99-.8.54-.306 1.176-.424.636-.14 1.272-.14.635 0 1.27.14.636.118 1.178.424t.965.8q.447.471.706 1.06.26.565.353 1.2.095.636.095 1.272v7.886q0 .636-.095 1.272-.094.635-.353 1.224-.259.565-.706 1.06-.424.47-.965.776-.542.306-1.177.424-.636.141-1.271.141m-2.731-7.675 5.461-4.355v-.753q0-.4-.047-.8t-.188-.777-.4-.707q-.236-.33-.565-.541-.33-.236-.73-.33t-.8-.094-.8.094q-.401.094-.73.33-.33.212-.59.541-.235.33-.376.707t-.188.776-.047.8zm2.73 6.027q.4 0 .8-.094.401-.094.73-.306.33-.236.566-.565.259-.33.4-.706.141-.377.188-.777t.047-.8v-5.11l-5.461 4.356v.753q0 .4.047.8t.188.778.377.706q.259.33.588.565.33.212.73.306t.8.094" aria-label="50" style="font-size:28.312px;line-height:1.25;font-family:Iosevka;-inkscape-font-specification:&quot;Iosevka, Normal&quot;;stroke-width:.588546"/><path id="text13" d="M296.84 384.269V369.06l-3.248 2.354-1.06-1.342 4.309-3.108h1.836v17.304zm11.983.188q-.635 0-1.271-.141-.636-.118-1.177-.424-.542-.306-.989-.777-.424-.494-.683-1.06-.259-.588-.353-1.223t-.094-1.272v-7.886q0-.636.094-1.271.095-.636.353-1.201.26-.589.683-1.06.447-.494.989-.8.541-.306 1.177-.424.636-.14 1.271-.14.636 0 1.272.14.635.118 1.177.424.541.306.965.8.447.471.706 1.06.259.565.353 1.2.094.636.094 1.272v7.886q0 .636-.094 1.272-.094.635-.353 1.224-.259.565-.706 1.06-.424.47-.965.776-.542.306-1.177.424-.636.141-1.272.141m-2.73-7.675 5.461-4.355v-.753q0-.4-.047-.8t-.188-.777-.4-.707q-.236-.33-.566-.541-.33-.236-.73-.33t-.8-.094-.8.094-.73.33q-.33.212-.589.541-.235.33-.376.707t-.189.776-.047.8zm2.73 6.027q.4 0 .8-.094t.73-.306q.33-.236.565-.565.26-.33.4-.706.142-.377.189-.777t.047-.8v-5.11l-5.462 4.356v.753q0 .4.048.8.047.4.188.778.141.376.377.706.258.33.588.565.33.212.73.306t.8.094m11.771 1.648q-.635 0-1.271-.141-.636-.118-1.177-.424-.542-.306-.989-.777-.424-.494-.683-1.06-.259-.588-.353-1.223t-.094-1.272v-7.886q0-.636.094-1.271.094-.636.353-1.201.26-.589.683-1.06.447-.494.989-.8.541-.306 1.177-.424.636-.14 1.271-.14.636 0 1.271.14.636.118 1.177.424.542.306.966.8.447.471.706 1.06.259.565.353 1.2.094.636.094 1.272v7.886q0 .636-.094 1.272-.094.635-.353 1.224-.259.565-.706 1.06-.424.47-.966.776-.541.306-1.177.424-.635.141-1.27.141m-2.73-7.675 5.461-4.355v-.753q0-.4-.047-.8t-.188-.777-.4-.707q-.236-.33-.566-.541-.33-.236-.73-.33t-.8-.094-.8.094-.73.33q-.33.212-.589.541-.235.33-.376.707t-.189.776-.047.8zm2.73 6.027q.4 0 .8-.094t.73-.306q.33-.236.565-.565.26-.33.4-.706.142-.377.189-.777t.047-.8v-5.11l-5.462 4.356v.753q0 .4.047.8.048.4.189.778.141.376.376.706.26.33.589.565.33.212.73.306t.8.094" aria-label="100" style="font-size:28.312px;line-height:1.25;font-family:Iosevka;-inkscape-font-specification:&quot;Iosevka, Normal&quot;;stroke-width:.588546"/><path id="text14" d="M380.839 384.269V369.06l-3.249 2.354-1.06-1.342 4.309-3.108h1.836v17.304zm12.03.188q-.565 0-1.13-.118-.565-.094-1.06-.353-.494-.259-.918-.659-.4-.4-.683-.895-.282-.494-.447-1.035-.141-.542-.212-1.107v-.118h1.837l.023.26q.094.47.283.918.188.447.517.8.354.33.824.494.471.165.966.165.447 0 .87-.165.448-.164.778-.494t.517-.73q.212-.424.33-.87.118-.448.141-.895.047-.471.047-.919 0-.47-.047-.918-.023-.447-.14-.894-.119-.448-.307-.848-.188-.424-.518-.753-.306-.33-.73-.495-.423-.164-.894-.164t-.942.164q-.47.142-.824.495-.33.33-.518.8-.165.471-.188.965h-1.836v-10.123h8.145v1.648h-6.31v5.038q.542-.353 1.178-.494.66-.141 1.295-.141.682 0 1.342.188.682.165 1.224.589.565.423.941 1.012.377.565.589 1.224.212.636.283 1.342.094.683.094 1.365 0 .683-.094 1.39-.071.682-.307 1.341-.211.636-.612 1.224-.376.589-.941 1.013-.542.4-1.224.565-.66.188-1.342.188m11.723 0q-.635 0-1.27-.141-.636-.118-1.178-.424t-.989-.777q-.423-.494-.682-1.06-.26-.588-.353-1.223-.095-.636-.095-1.272v-7.886q0-.636.095-1.271.094-.636.353-1.201.259-.589.682-1.06.448-.494.99-.8.54-.306 1.176-.424.636-.14 1.271-.14.636 0 1.272.14.635.118 1.177.424.541.306.965.8.447.471.706 1.06.26.565.353 1.2.095.636.095 1.272v7.886q0 .636-.095 1.272-.094.635-.353 1.224-.259.565-.706 1.06-.424.47-.965.776-.542.306-1.177.424-.636.141-1.272.141m-2.73-7.675 5.461-4.355v-.753q0-.4-.047-.8t-.188-.777-.4-.707q-.236-.33-.565-.541-.33-.236-.73-.33t-.8-.094-.801.094-.73.33q-.33.212-.588.541-.236.33-.377.707t-.188.776-.047.8zm2.73 6.027q.4 0 .8-.094.401-.094.73-.306.33-.236.566-.565.259-.33.4-.706.141-.377.188-.777t.047-.8v-5.11l-5.461 4.356v.753q0 .4.047.8t.188.778.377.706q.259.33.588.565.33.212.73.306t.8.094" aria-label="150" style="font-size:28.312px;line-height:1.25;font-family:Iosevka;-inkscape-font-specification:&quot;Iosevka, Normal&quot;;stroke-width:.588546"/><path id="text15" d="M460.623 384.269v-.024q0-.635.024-1.271.023-.636.117-1.271.118-.636.306-1.248.212-.612.495-1.154.306-.565.682-1.083.4-.517.848-.965.47-.447.965-.824.495-.4 1.013-.777.517-.376 1.012-.776.494-.424.847-.942.353-.542.518-1.154.189-.635.189-1.27 0-.566-.142-1.13-.117-.59-.47-1.037-.33-.47-.895-.683-.542-.235-1.107-.235-.518 0-1.035.165-.518.165-.895.541-.353.377-.518.895-.165.494-.165 1.036v.023h-1.836v-.07q0-.565.118-1.13.141-.589.423-1.083.283-.518.707-.918.423-.4.941-.66.518-.259 1.083-.353.589-.094 1.177-.094.613 0 1.225.118t1.153.424.942.776q.424.448.683 1.013.258.565.353 1.177t.094 1.224q0 .683-.165 1.365-.141.66-.47 1.272-.307.588-.778 1.106-.447.518-.965.965-.518.424-1.06.848-.54.4-1.059.87-.494.448-.941.966-.424.518-.754 1.13-.33.589-.518 1.248-.188.66-.259 1.342h6.875v1.648zm16.15.188q-.636 0-1.271-.141-.636-.118-1.178-.424t-.988-.777q-.424-.494-.683-1.06-.259-.588-.353-1.223t-.094-1.272v-7.886q0-.636.094-1.271.094-.636.353-1.201.259-.589.683-1.06.447-.494.988-.8.542-.306 1.178-.424.635-.14 1.27-.14.636 0 1.272.14.636.118 1.177.424.542.306.965.8.448.471.707 1.06.259.565.353 1.2.094.636.094 1.272v7.886q0 .636-.094 1.272-.094.635-.353 1.224-.26.565-.707 1.06-.423.47-.965.776-.541.306-1.177.424-.636.141-1.271.141m-2.731-7.675 5.462-4.355v-.753q0-.4-.047-.8-.048-.4-.189-.777t-.4-.707q-.235-.33-.565-.541-.33-.236-.73-.33t-.8-.094-.8.094-.73.33q-.33.212-.589.541-.235.33-.377.707-.14.376-.188.776t-.047.8zm2.73 6.027q.401 0 .801-.094t.73-.306q.33-.236.565-.565.259-.33.4-.706.141-.377.189-.777.047-.4.047-.8v-5.11l-5.462 4.356v.753q0 .4.047.8t.188.778.377.706q.259.33.589.565.33.212.73.306t.8.094m11.772 1.648q-.636 0-1.272-.141-.635-.118-1.177-.424-.541-.306-.988-.777-.424-.494-.683-1.06-.26-.588-.353-1.223-.094-.636-.094-1.272v-7.886q0-.636.094-1.271.094-.636.353-1.201.259-.589.683-1.06.447-.494.988-.8.542-.306 1.177-.424.636-.14 1.272-.14.635 0 1.271.14.636.118 1.177.424.542.306.965.8.448.471.707 1.06.258.565.353 1.2.094.636.094 1.272v7.886q0 .636-.094 1.272-.095.635-.353 1.224-.26.565-.707 1.06-.423.47-.965.776-.541.306-1.177.424-.636.141-1.271.141m-2.731-7.675 5.462-4.355v-.753q0-.4-.048-.8-.047-.4-.188-.777t-.4-.707q-.236-.33-.565-.541-.33-.236-.73-.33t-.8-.094-.8.094-.73.33q-.33.212-.59.541-.234.33-.376.707-.141.376-.188.776t-.047.8zm2.73 6.027q.4 0 .801-.094.4-.094.73-.306.33-.236.565-.565.259-.33.4-.706.141-.377.188-.777t.048-.8v-5.11l-5.462 4.356v.753q0 .4.047.8t.188.778.377.706q.259.33.589.565.33.212.73.306t.8.094" aria-label="200" style="font-size:28.312px;line-height:1.25;font-family:Iosevka;-inkscape-font-specification:&quot;Iosevka, Normal&quot;;stroke-width:.588546"/><path id="text16" d="M544.621 384.269v-.024q0-.635.024-1.271.023-.636.118-1.271.117-.636.306-1.248.212-.612.494-1.154.306-.565.683-1.083.4-.517.847-.965.471-.447.966-.824.494-.4 1.012-.777.518-.376 1.012-.776.495-.424.848-.942.353-.542.518-1.154.188-.635.188-1.27 0-.566-.141-1.13-.118-.59-.471-1.037-.33-.47-.895-.683-.541-.235-1.106-.235-.518 0-1.036.165t-.895.541q-.353.377-.518.895-.164.494-.164 1.036v.023h-1.837v-.07q0-.565.118-1.13.141-.589.424-1.083.282-.518.706-.918t.942-.66 1.083-.353q.588-.094 1.177-.094.612 0 1.224.118t1.153.424.942.776q.424.448.683 1.013t.353 1.177.094 1.224q0 .683-.165 1.365-.14.66-.47 1.272-.306.588-.777 1.106-.448.518-.966.965-.517.424-1.059.848-.541.4-1.06.87-.494.448-.941.966-.424.518-.753 1.13-.33.589-.518 1.248-.189.66-.26 1.342h6.875v1.648zm16.197.188q-.565 0-1.13-.118-.565-.094-1.06-.353-.494-.259-.917-.659-.4-.4-.683-.895-.283-.494-.447-1.035-.142-.542-.212-1.107v-.118h1.836l.024.26q.094.47.282.918.188.447.518.8.353.33.824.494.47.165.965.165.447 0 .871-.165.448-.164.777-.494.33-.33.518-.73.212-.424.33-.87.117-.448.14-.895.048-.471.048-.919 0-.47-.047-.918-.024-.447-.141-.894-.118-.448-.306-.848-.189-.424-.518-.753-.306-.33-.73-.495t-.895-.164-.941.164q-.471.142-.824.495-.33.33-.518.8-.165.471-.189.965h-1.836v-10.123h8.146v1.648h-6.31v5.038q.542-.353 1.177-.494.66-.141 1.295-.141.683 0 1.342.188.683.165 1.224.589.565.423.942 1.012.377.565.589 1.224.211.636.282 1.342.094.683.094 1.365 0 .683-.094 1.39-.07.682-.306 1.341-.212.636-.612 1.224-.377.589-.942 1.013-.541.4-1.224.565-.66.188-1.342.188m11.724 0q-.636 0-1.271-.141-.636-.118-1.177-.424-.542-.306-.99-.777-.423-.494-.682-1.06-.259-.588-.353-1.223t-.094-1.272v-7.886q0-.636.094-1.271.094-.636.353-1.201.26-.589.683-1.06.447-.494.989-.8.541-.306 1.177-.424.635-.14 1.271-.14t1.271.14q.636.118 1.177.424.542.306.966.8.447.471.706 1.06.259.565.353 1.2.094.636.094 1.272v7.886q0 .636-.094 1.272-.094.635-.353 1.224-.26.565-.706 1.06-.424.47-.966.776-.541.306-1.177.424-.635.141-1.271.141m-2.73-7.675 5.46-4.355v-.753q0-.4-.046-.8-.047-.4-.189-.777-.14-.377-.4-.707-.235-.33-.565-.541-.33-.236-.73-.33t-.8-.094-.8.094-.73.33q-.33.212-.589.541-.235.33-.376.707t-.189.776-.047.8zm2.73 6.027q.4 0 .8-.094t.73-.306q.33-.236.565-.565.26-.33.4-.706.142-.377.189-.777t.047-.8v-5.11l-5.462 4.356v.753q0 .4.047.8t.189.778q.14.376.376.706.26.33.589.565.33.212.73.306t.8.094" aria-label="250" style="font-size:28.312px;line-height:1.25;font-family:Iosevka;-inkscape-font-specification:&quot;Iosevka, Normal&quot;;stroke-width:.588546"/><path id="text17" d="M633.163 384.457q-.612 0-1.224-.094-.588-.094-1.13-.353-.541-.26-.989-.66t-.753-.918q-.306-.541-.447-1.13t-.141-1.177v-.047h1.836v.024q0 .565.188 1.106.212.518.612.895t.942.541 1.106.165q.589 0 1.154-.188.565-.212.942-.66.4-.447.588-1.012.188-.588.188-1.177 0-.541-.188-1.083-.165-.541-.494-.988-.33-.471-.8-.8-.448-.33-.99-.495-.517-.165-1.082-.212t-1.107-.047v-1.648q.495 0 1.012-.024.518-.047 1.013-.188.494-.165.918-.47.424-.307.73-.707.306-.424.447-.918.165-.518.165-1.036t-.165-1.012q-.141-.518-.47-.918-.33-.424-.848-.613-.495-.188-1.013-.188t-1.012.165q-.47.165-.824.541-.33.377-.494.871-.142.495-.142 1.013v.047h-1.836v-.095q0-.565.118-1.106.141-.565.4-1.06.259-.517.66-.917.423-.4.917-.66.518-.259 1.083-.353t1.13-.094 1.13.118q.589.094 1.083.376.518.26.918.683.424.424.66.942.259.518.376 1.083.141.565.141 1.153 0 .683-.188 1.342-.188.636-.565 1.2-.377.566-.918.99-.541.4-1.177.635.706.26 1.318.706.612.424 1.036 1.036.447.589.66 1.319.211.706.211 1.46 0 .611-.141 1.223t-.424 1.177q-.282.542-.73.99-.447.447-.988.729-.542.283-1.177.4-.613.118-1.225.118zm11.7 0q-.635 0-1.27-.141-.636-.118-1.178-.424t-.989-.777q-.423-.494-.682-1.06-.26-.588-.353-1.223-.095-.636-.095-1.272v-7.886q0-.636.095-1.271.094-.636.353-1.201.259-.589.682-1.06.448-.494.99-.8.54-.306 1.176-.424.636-.14 1.272-.14.635 0 1.27.14.636.118 1.178.424t.965.8q.447.471.706 1.06.26.565.354 1.2.094.636.094 1.272v7.886q0 .636-.094 1.272-.095.635-.354 1.224-.259.565-.706 1.06-.424.47-.965.776-.542.306-1.177.424-.636.141-1.271.141m-2.73-7.675 5.461-4.355v-.753q0-.4-.047-.8t-.188-.777-.4-.707q-.236-.33-.565-.541-.33-.236-.73-.33t-.8-.094-.8.094q-.401.094-.73.33-.33.212-.59.541-.235.33-.376.707t-.188.776-.047.8zm2.73 6.027q.4 0 .801-.094.4-.094.73-.306.33-.236.565-.565.259-.33.4-.706.141-.377.188-.777t.047-.8v-5.11l-5.461 4.356v.753q0 .4.047.8t.188.778.377.706q.259.33.588.565.33.212.73.306t.8.094m11.771 1.648q-.635 0-1.27-.141-.636-.118-1.178-.424t-.989-.777q-.423-.494-.682-1.06-.26-.588-.353-1.223-.095-.636-.095-1.272v-7.886q0-.636.095-1.271.094-.636.353-1.201.259-.589.682-1.06.448-.494.99-.8.54-.306 1.176-.424.636-.14 1.271-.14.636 0 1.272.14.635.118 1.177.424.541.306.965.8.447.471.706 1.06.26.565.353 1.2.095.636.095 1.272v7.886q0 .636-.095 1.272-.094.635-.353 1.224-.259.565-.706 1.06-.424.47-.965.776-.542.306-1.177.424-.636.141-1.272.141m-2.73-7.675 5.461-4.355v-.753q0-.4-.047-.8t-.188-.777-.4-.707q-.236-.33-.565-.541-.33-.236-.73-.33t-.8-.094-.801.094-.73.33q-.33.212-.588.541-.236.33-.377.707t-.188.776-.047.8zm2.73 6.027q.4 0 .8-.094.401-.094.73-.306.33-.236.566-.565.259-.33.4-.706.141-.377.188-.777t.047-.8v-5.11l-5.461 4.356v.753q0 .4.047.8t.188.778.377.706q.259.33.588.565.33.212.73.306t.8.094" aria-label="300" style="font-size:28.312px;line-height:1.25;font-family:Iosevka;-inkscape-font-specification:&quot;Iosevka, Normal&quot;;stroke-width:.588546"/><path id="text19" d="M717.162 384.457q-.612 0-1.225-.094-.588-.094-1.13-.353-.541-.26-.988-.66-.448-.4-.754-.918-.306-.541-.447-1.13t-.141-1.177v-.047h1.836v.024q0 .565.188 1.106.212.518.613.895.4.377.941.541.542.165 1.107.165.588 0 1.153-.188.565-.212.942-.66.4-.447.588-1.012.189-.588.189-1.177 0-.541-.189-1.083-.164-.541-.494-.988-.33-.471-.8-.8-.448-.33-.99-.495-.517-.165-1.082-.212t-1.107-.047v-1.648q.495 0 1.013-.024.518-.047 1.012-.188.494-.165.918-.47.424-.307.73-.707.306-.424.447-.918.165-.518.165-1.036t-.165-1.012q-.14-.518-.47-.918-.33-.424-.848-.613-.494-.188-1.012-.188t-1.013.165q-.47.165-.824.541-.33.377-.494.871-.141.495-.141 1.013v.047h-1.836v-.095q0-.565.117-1.106.141-.565.4-1.06.26-.517.66-.917.423-.4.918-.66.518-.259 1.083-.353t1.13-.094 1.13.118q.588.094 1.083.376.518.26.918.683.423.424.659.942.259.518.377 1.083.14.565.14 1.153 0 .683-.188 1.342-.188.636-.565 1.2-.376.566-.918.99-.541.4-1.177.635.707.26 1.319.706.612.424 1.035 1.036.448.589.66 1.319.212.706.212 1.46 0 .611-.142 1.223-.141.612-.424 1.177-.282.542-.73.99-.447.447-.988.729-.542.283-1.177.4-.612.118-1.224.118zm11.747 0q-.565 0-1.13-.118-.565-.094-1.06-.353-.494-.259-.918-.659-.4-.4-.682-.895-.283-.494-.448-1.035-.14-.542-.211-1.107v-.118h1.836l.023.26q.095.47.283.918.188.447.518.8.353.33.824.494.47.165.965.165.447 0 .871-.165.447-.164.777-.494t.518-.73q.212-.424.33-.87.117-.448.14-.895.048-.471.048-.919 0-.47-.047-.918-.024-.447-.142-.894-.117-.448-.306-.848-.188-.424-.518-.753-.306-.33-.73-.495-.423-.164-.894-.164-.47 0-.942.164-.47.142-.824.495-.33.33-.518.8-.164.471-.188.965h-1.836v-10.123h8.145v1.648h-6.309v5.038q.542-.353 1.177-.494.66-.141 1.295-.141.683 0 1.342.188.683.165 1.224.589.565.423.942 1.012.376.565.588 1.224.212.636.283 1.342.094.683.094 1.365 0 .683-.094 1.39-.07.682-.306 1.341-.212.636-.612 1.224-.377.589-.942 1.013-.541.4-1.224.565-.66.188-1.342.188m11.724 0q-.636 0-1.271-.141-.636-.118-1.178-.424t-.988-.777q-.424-.494-.683-1.06-.259-.588-.353-1.223t-.094-1.272v-7.886q0-.636.094-1.271.094-.636.353-1.201.259-.589.683-1.06.447-.494.988-.8.542-.306 1.178-.424.635-.14 1.27-.14.636 0 1.272.14.636.118 1.177.424.542.306.965.8.448.471.707 1.06.259.565.353 1.2.094.636.094 1.272v7.886q0 .636-.094 1.272-.094.635-.353 1.224-.26.565-.707 1.06-.423.47-.965.776-.541.306-1.177.424-.636.141-1.271.141m-2.731-7.675 5.462-4.355v-.753q0-.4-.047-.8-.048-.4-.189-.777t-.4-.707q-.235-.33-.565-.541-.33-.236-.73-.33t-.8-.094-.8.094-.73.33q-.33.212-.589.541-.235.33-.377.707-.14.376-.188.776t-.047.8zm2.73 6.027q.401 0 .801-.094t.73-.306q.33-.236.565-.565.259-.33.4-.706.141-.377.189-.777.047-.4.047-.8v-5.11l-5.462 4.356v.753q0 .4.047.8t.188.778.377.706q.259.33.589.565.33.212.73.306t.8.094" aria-label="350" style="font-size:28.312px;line-height:1.25;font-family:Iosevka;-inkscape-font-specification:&quot;Iosevka, Normal&quot;;stroke-width:.588546"/></svg>